<?xml version="1.0" encoding="utf-8" standalone="no"?>
<!DOCTYPE svg PUBLIC "-//W3C//DTD SVG 1.1//EN"
  "http://www.w3.org/Graphics/SVG/1.1/DTD/svg11.dtd">
<svg xmlns:xlink="http://www.w3.org/1999/xlink" width="864pt" height="432pt" viewBox="0 0 864 432" xmlns="http://www.w3.org/2000/svg" version="1.1">
 <metadata>
  <rdf:RDF xmlns:dc="http://purl.org/dc/elements/1.1/" xmlns:cc="http://creativecommons.org/ns#" xmlns:rdf="http://www.w3.org/1999/02/22-rdf-syntax-ns#">
   <cc:Work>
    <dc:type rdf:resource="http://purl.org/dc/dcmitype/StillImage"/>
    <dc:date>2022-09-25T13:00:28.137162</dc:date>
    <dc:format>image/svg+xml</dc:format>
    <dc:creator>
     <cc:Agent>
      <dc:title>Matplotlib v3.5.1, https://matplotlib.org/</dc:title>
     </cc:Agent>
    </dc:creator>
   </cc:Work>
  </rdf:RDF>
 </metadata>
 <defs>
  <style type="text/css">*{stroke-linejoin: round; stroke-linecap: butt}</style>
 </defs>
 <g id="figure_1">
  <g id="patch_1">
   <path d="M 0 432 
L 864 432 
L 864 0 
L 0 0 
z
" style="fill: #ffffff"/>
  </g>
  <g id="axes_1">
   <g id="patch_2">
    <path d="M 29.68 337.97 
L 853.2 337.97 
L 853.2 26.88 
L 29.68 26.88 
z
" style="fill: #ffffff"/>
   </g>
   <g id="PolyCollection_1">
    <path d="M 122.92346 183.132023 
L 86.167449 183.132023 
L 85.936938 181.782252 
L 85.829091 180.432481 
L 85.843157 179.082711 
L 85.975689 177.73294 
L 86.220737 176.383169 
L 86.570132 175.033399 
L 87.013842 173.683628 
L 87.540379 172.333857 
L 88.137241 170.984087 
L 88.791354 169.634316 
L 89.489498 168.284545 
L 90.218705 166.934775 
L 90.966596 165.585004 
L 91.721664 164.235233 
L 92.473476 162.885463 
L 93.212818 161.535692 
L 93.931753 160.185921 
L 94.623632 158.836151 
L 95.283035 157.48638 
L 95.905683 156.13661 
L 96.488303 154.786839 
L 97.028492 153.437068 
L 97.524557 152.087298 
L 97.975377 150.737527 
L 98.380263 149.387756 
L 98.73885 148.037986 
L 99.051012 146.688215 
L 99.316808 145.338444 
L 99.536454 143.988674 
L 99.710329 142.638903 
L 99.839003 141.289132 
L 99.923291 139.939362 
L 99.964318 138.589591 
L 99.963596 137.23982 
L 99.923098 135.89005 
L 99.845339 134.540279 
L 99.733423 133.190508 
L 99.591093 131.840738 
L 99.422739 130.490967 
L 99.233385 129.141196 
L 99.028638 127.791426 
L 98.814608 126.441655 
L 98.597788 125.091884 
L 98.384915 123.742114 
L 98.182794 122.392343 
L 97.998114 121.042572 
L 97.837246 119.692802 
L 97.70605 118.343031 
L 97.609681 116.99326 
L 97.552423 115.64349 
L 97.537546 114.293719 
L 97.567196 112.943948 
L 97.642334 111.594178 
L 97.762711 110.244407 
L 97.926893 108.894636 
L 98.13233 107.544866 
L 98.375461 106.195095 
L 98.651859 104.845324 
L 98.956397 103.495554 
L 99.283434 102.145783 
L 99.62701 100.796012 
L 99.981036 99.446242 
L 100.339482 98.096471 
L 100.696535 96.7467 
L 101.046746 95.39693 
L 101.38514 94.047159 
L 101.7073 92.697388 
L 102.009422 91.347618 
L 102.288335 89.997847 
L 102.541498 88.648076 
L 102.766981 87.298306 
L 102.963416 85.948535 
L 103.129953 84.598764 
L 103.266193 83.248994 
L 103.372139 81.899223 
L 103.448137 80.549452 
L 103.49483 79.199682 
L 103.513127 77.849911 
L 103.504172 76.50014 
L 103.46934 75.15037 
L 103.410225 73.800599 
L 103.328653 72.450829 
L 103.226688 71.101058 
L 103.106646 69.751287 
L 102.9711 68.401517 
L 102.822883 67.051746 
L 102.665077 65.701975 
L 102.500995 64.352205 
L 102.334138 63.002434 
L 102.168145 61.652663 
L 102.006727 60.302893 
L 101.85358 58.953122 
L 101.712297 57.603351 
L 101.586269 56.253581 
L 101.478582 54.90381 
L 101.391927 53.554039 
L 101.328503 52.204269 
L 101.289955 50.854498 
L 101.277311 49.504727 
L 107.813598 49.504727 
L 107.813598 49.504727 
L 107.800954 50.854498 
L 107.762406 52.204269 
L 107.698983 53.554039 
L 107.612327 54.90381 
L 107.50464 56.253581 
L 107.378612 57.603351 
L 107.237329 58.953122 
L 107.084182 60.302893 
L 106.922764 61.652663 
L 106.756771 63.002434 
L 106.589914 64.352205 
L 106.425832 65.701975 
L 106.268026 67.051746 
L 106.119809 68.401517 
L 105.984263 69.751287 
L 105.864221 71.101058 
L 105.762256 72.450829 
L 105.680684 73.800599 
L 105.621569 75.15037 
L 105.586737 76.50014 
L 105.577782 77.849911 
L 105.596079 79.199682 
L 105.642773 80.549452 
L 105.71877 81.899223 
L 105.824716 83.248994 
L 105.960957 84.598764 
L 106.127493 85.948535 
L 106.323928 87.298306 
L 106.549411 88.648076 
L 106.802575 89.997847 
L 107.081487 91.347618 
L 107.383609 92.697388 
L 107.70577 94.047159 
L 108.044163 95.39693 
L 108.394374 96.7467 
L 108.751427 98.096471 
L 109.109873 99.446242 
L 109.463899 100.796012 
L 109.807475 102.145783 
L 110.134512 103.495554 
L 110.43905 104.845324 
L 110.715448 106.195095 
L 110.958579 107.544866 
L 111.164016 108.894636 
L 111.328198 110.244407 
L 111.448575 111.594178 
L 111.523713 112.943948 
L 111.553363 114.293719 
L 111.538486 115.64349 
L 111.481228 116.99326 
L 111.384859 118.343031 
L 111.253663 119.692802 
L 111.092795 121.042572 
L 110.908115 122.392343 
L 110.705994 123.742114 
L 110.493121 125.091884 
L 110.276301 126.441655 
L 110.062271 127.791426 
L 109.857524 129.141196 
L 109.66817 130.490967 
L 109.499816 131.840738 
L 109.357486 133.190508 
L 109.245571 134.540279 
L 109.167811 135.89005 
L 109.127313 137.23982 
L 109.126591 138.589591 
L 109.167618 139.939362 
L 109.251906 141.289132 
L 109.38058 142.638903 
L 109.554455 143.988674 
L 109.774101 145.338444 
L 110.039897 146.688215 
L 110.352059 148.037986 
L 110.710646 149.387756 
L 111.115532 150.737527 
L 111.566352 152.087298 
L 112.062417 153.437068 
L 112.602606 154.786839 
L 113.185227 156.13661 
L 113.807874 157.48638 
L 114.467278 158.836151 
L 115.159156 160.185921 
L 115.878092 161.535692 
L 116.617433 162.885463 
L 117.369245 164.235233 
L 118.124313 165.585004 
L 118.872204 166.934775 
L 119.601411 168.284545 
L 120.299555 169.634316 
L 120.953668 170.984087 
L 121.55053 172.333857 
L 122.077067 173.683628 
L 122.520777 175.033399 
L 122.870172 176.383169 
L 123.11522 177.73294 
L 123.247752 179.082711 
L 123.261818 180.432481 
L 123.153971 181.782252 
L 122.92346 183.132023 
z
" clip-path="url(#p4fa1376c72)" style="fill: #1f77b4; fill-opacity: 0.3"/>
   </g>
   <g id="PolyCollection_2">
    <path d="M 188.839453 183.132023 
L 169.982365 183.132023 
L 170.000234 183.124881 
L 170.053638 183.117739 
L 170.141972 183.110598 
L 170.264241 183.103456 
L 170.419076 183.096315 
L 170.604765 183.089173 
L 170.819277 183.082031 
L 171.060306 183.07489 
L 171.325308 183.067748 
L 171.611547 183.060606 
L 171.916141 183.053465 
L 172.236111 183.046323 
L 172.568429 183.039181 
L 172.910064 183.03204 
L 173.258028 183.024898 
L 173.609415 183.017756 
L 173.961444 183.010615 
L 174.311489 183.003473 
L 174.657109 182.996331 
L 174.996073 182.98919 
L 175.326376 182.982048 
L 175.646253 182.974907 
L 175.954186 182.967765 
L 176.248909 182.960623 
L 176.5294 182.953482 
L 176.794878 182.94634 
L 177.044793 182.939198 
L 177.278808 182.932057 
L 177.496785 182.924915 
L 177.698766 182.917773 
L 177.884948 182.910632 
L 178.055667 182.90349 
L 178.211373 182.896348 
L 178.352605 182.889207 
L 178.479973 182.882065 
L 178.594133 182.874924 
L 178.695768 182.867782 
L 178.785569 182.86064 
L 178.864215 182.853499 
L 178.932356 182.846357 
L 178.990599 182.839215 
L 179.039493 182.832074 
L 179.079516 182.824932 
L 179.111064 182.81779 
L 179.13444 182.810649 
L 179.149848 182.803507 
L 179.157378 182.796365 
L 179.15701 182.789224 
L 179.148598 182.782082 
L 179.131872 182.774941 
L 179.106433 182.767799 
L 179.07175 182.760657 
L 179.02716 182.753516 
L 178.971872 182.746374 
L 178.904962 182.739232 
L 178.825387 182.732091 
L 178.731985 182.724949 
L 178.623487 182.717807 
L 178.49853 182.710666 
L 178.35567 182.703524 
L 178.193402 182.696382 
L 178.010179 182.689241 
L 177.80444 182.682099 
L 177.574635 182.674958 
L 177.31926 182.667816 
L 177.036888 182.660674 
L 176.726207 182.653533 
L 176.386061 182.646391 
L 176.015492 182.639249 
L 175.613777 182.632108 
L 175.180479 182.624966 
L 174.715478 182.617824 
L 174.219021 182.610683 
L 173.691752 182.603541 
L 173.134746 182.596399 
L 172.54954 182.589258 
L 171.938147 182.582116 
L 171.303075 182.574975 
L 170.64733 182.567833 
L 169.97441 182.560691 
L 169.288289 182.55355 
L 168.593394 182.546408 
L 167.894569 182.539266 
L 167.197023 182.532125 
L 166.506278 182.524983 
L 165.828098 182.517841 
L 165.168415 182.5107 
L 164.533246 182.503558 
L 163.928601 182.496416 
L 163.360393 182.489275 
L 162.834343 182.482133 
L 162.355881 182.474992 
L 161.930057 182.46785 
L 161.561451 182.460708 
L 161.254091 182.453567 
L 161.011378 182.446425 
L 160.836028 182.439283 
L 160.730017 182.432142 
L 160.694545 182.425 
L 198.127273 182.425 
L 198.127273 182.425 
L 198.091801 182.432142 
L 197.98579 182.439283 
L 197.81044 182.446425 
L 197.567727 182.453567 
L 197.260367 182.460708 
L 196.891761 182.46785 
L 196.465937 182.474992 
L 195.987475 182.482133 
L 195.461425 182.489275 
L 194.893218 182.496416 
L 194.288572 182.503558 
L 193.653403 182.5107 
L 192.99372 182.517841 
L 192.31554 182.524983 
L 191.624795 182.532125 
L 190.927249 182.539266 
L 190.228424 182.546408 
L 189.53353 182.55355 
L 188.847409 182.560691 
L 188.174488 182.567833 
L 187.518743 182.574975 
L 186.883671 182.582116 
L 186.272279 182.589258 
L 185.687072 182.596399 
L 185.130067 182.603541 
L 184.602797 182.610683 
L 184.10634 182.617824 
L 183.64134 182.624966 
L 183.208041 182.632108 
L 182.806326 182.639249 
L 182.435757 182.646391 
L 182.095611 182.653533 
L 181.78493 182.660674 
L 181.502558 182.667816 
L 181.247183 182.674958 
L 181.017378 182.682099 
L 180.811639 182.689241 
L 180.628416 182.696382 
L 180.466148 182.703524 
L 180.323288 182.710666 
L 180.198331 182.717807 
L 180.089833 182.724949 
L 179.996431 182.732091 
L 179.916856 182.739232 
L 179.849946 182.746374 
L 179.794658 182.753516 
L 179.750068 182.760657 
L 179.715385 182.767799 
L 179.689946 182.774941 
L 179.67322 182.782082 
L 179.664808 182.789224 
L 179.66444 182.796365 
L 179.671971 182.803507 
L 179.687378 182.810649 
L 179.710754 182.81779 
L 179.742302 182.824932 
L 179.782326 182.832074 
L 179.83122 182.839215 
L 179.889463 182.846357 
L 179.957603 182.853499 
L 180.036249 182.86064 
L 180.12605 182.867782 
L 180.227685 182.874924 
L 180.341845 182.882065 
L 180.469213 182.889207 
L 180.610445 182.896348 
L 180.766151 182.90349 
L 180.93687 182.910632 
L 181.123052 182.917773 
L 181.325033 182.924915 
L 181.54301 182.932057 
L 181.777025 182.939198 
L 182.02694 182.94634 
L 182.292419 182.953482 
L 182.572909 182.960623 
L 182.867632 182.967765 
L 183.175566 182.974907 
L 183.495442 182.982048 
L 183.825745 182.98919 
L 184.164709 182.996331 
L 184.510329 183.003473 
L 184.860374 183.010615 
L 185.212403 183.017756 
L 185.56379 183.024898 
L 185.911754 183.03204 
L 186.253389 183.039181 
L 186.585707 183.046323 
L 186.905678 183.053465 
L 187.210272 183.060606 
L 187.49651 183.067748 
L 187.761512 183.07489 
L 188.002541 183.082031 
L 188.217053 183.089173 
L 188.402742 183.096315 
L 188.557577 183.103456 
L 188.679846 183.110598 
L 188.76818 183.117739 
L 188.821584 183.124881 
L 188.839453 183.132023 
z
" clip-path="url(#p4fa1376c72)" style="fill: #1f77b4; fill-opacity: 0.3"/>
   </g>
   <g id="PolyCollection_3">
    <path d="M 269.163406 263.732614 
L 239.389321 263.732614 
L 238.73369 262.104319 
L 238.149114 260.476024 
L 237.645374 258.847729 
L 237.230985 257.219435 
L 236.912923 255.59114 
L 236.696395 253.962845 
L 236.584648 252.33455 
L 236.578838 250.706256 
L 236.677952 249.077961 
L 236.878799 247.449666 
L 237.176058 245.821371 
L 237.562387 244.193076 
L 238.028595 242.564782 
L 238.563851 240.936487 
L 239.155947 239.308192 
L 239.791586 237.679897 
L 240.456695 236.051603 
L 241.136749 234.423308 
L 241.817098 232.795013 
L 242.483291 231.166718 
L 243.121378 229.538424 
L 243.7182 227.910129 
L 244.261649 226.281834 
L 244.740896 224.653539 
L 245.146593 223.025244 
L 245.471037 221.39695 
L 245.708302 219.768655 
L 245.854336 218.14036 
L 245.90703 216.512065 
L 245.866243 214.883771 
L 245.733808 213.255476 
L 245.513492 211.627181 
L 245.210935 209.998886 
L 244.833544 208.370592 
L 244.390361 206.742297 
L 243.891894 205.114002 
L 243.349914 203.485707 
L 242.777219 201.857413 
L 242.187366 200.229118 
L 241.594382 198.600823 
L 241.012444 196.972528 
L 240.455551 195.344233 
L 239.937184 193.715939 
L 239.469975 192.087644 
L 239.065373 190.459349 
L 238.733349 188.831054 
L 238.482125 187.20276 
L 238.317944 185.574465 
L 238.244894 183.94617 
L 238.264788 182.317875 
L 238.37711 180.689581 
L 238.57902 179.061286 
L 238.865427 177.432991 
L 239.229126 175.804696 
L 239.66099 174.176402 
L 240.150212 172.548107 
L 240.684587 170.919812 
L 241.25083 169.291517 
L 241.834913 167.663222 
L 242.422409 166.034928 
L 242.998837 164.406633 
L 243.550006 162.778338 
L 244.062326 161.150043 
L 244.523114 159.521749 
L 244.920849 157.893454 
L 245.245418 156.265159 
L 245.488304 154.636864 
L 245.642758 153.00857 
L 245.703919 151.380275 
L 245.668908 149.75198 
L 245.536881 148.123685 
L 245.309049 146.49539 
L 244.988666 144.867096 
L 244.580975 143.238801 
L 244.09313 141.610506 
L 243.534074 139.982211 
L 242.914384 138.353917 
L 242.246087 136.725622 
L 241.542435 135.097327 
L 240.817653 133.469032 
L 240.086653 131.840738 
L 239.364724 130.212443 
L 238.66721 128.584148 
L 238.009164 126.955853 
L 237.40501 125.327559 
L 236.868204 123.699264 
L 236.410913 122.070969 
L 236.043727 120.442674 
L 235.775402 118.814379 
L 235.612652 117.186085 
L 235.56 115.55779 
L 235.619687 113.929495 
L 235.791644 112.3012 
L 236.073538 110.672906 
L 236.460875 109.044611 
L 236.947171 107.416316 
L 237.524171 105.788021 
L 238.182119 104.159727 
L 238.910058 102.531432 
L 269.64267 102.531432 
L 269.64267 102.531432 
L 270.370608 104.159727 
L 271.028556 105.788021 
L 271.605556 107.416316 
L 272.091852 109.044611 
L 272.47919 110.672906 
L 272.761084 112.3012 
L 272.933041 113.929495 
L 272.992727 115.55779 
L 272.940076 117.186085 
L 272.777326 118.814379 
L 272.509 120.442674 
L 272.141814 122.070969 
L 271.684523 123.699264 
L 271.147717 125.327559 
L 270.543563 126.955853 
L 269.885518 128.584148 
L 269.188003 130.212443 
L 268.466075 131.840738 
L 267.735074 133.469032 
L 267.010292 135.097327 
L 266.30664 136.725622 
L 265.638344 138.353917 
L 265.018653 139.982211 
L 264.459597 141.610506 
L 263.971752 143.238801 
L 263.564062 144.867096 
L 263.243678 146.49539 
L 263.015847 148.123685 
L 262.883819 149.75198 
L 262.848808 151.380275 
L 262.909969 153.00857 
L 263.064423 154.636864 
L 263.307309 156.265159 
L 263.631878 157.893454 
L 264.029614 159.521749 
L 264.490401 161.150043 
L 265.002722 162.778338 
L 265.55389 164.406633 
L 266.130319 166.034928 
L 266.717814 167.663222 
L 267.301897 169.291517 
L 267.868141 170.919812 
L 268.402516 172.548107 
L 268.891737 174.176402 
L 269.323601 175.804696 
L 269.687301 177.432991 
L 269.973707 179.061286 
L 270.175617 180.689581 
L 270.287939 182.317875 
L 270.307833 183.94617 
L 270.234783 185.574465 
L 270.070602 187.20276 
L 269.819378 188.831054 
L 269.487355 190.459349 
L 269.082753 192.087644 
L 268.615543 193.715939 
L 268.097177 195.344233 
L 267.540284 196.972528 
L 266.958345 198.600823 
L 266.365361 200.229118 
L 265.775508 201.857413 
L 265.202813 203.485707 
L 264.660833 205.114002 
L 264.162366 206.742297 
L 263.719183 208.370592 
L 263.341792 209.998886 
L 263.039235 211.627181 
L 262.81892 213.255476 
L 262.686484 214.883771 
L 262.645698 216.512065 
L 262.698391 218.14036 
L 262.844425 219.768655 
L 263.08169 221.39695 
L 263.406134 223.025244 
L 263.811831 224.653539 
L 264.291078 226.281834 
L 264.834527 227.910129 
L 265.43135 229.538424 
L 266.069437 231.166718 
L 266.735629 232.795013 
L 267.415979 234.423308 
L 268.096032 236.051603 
L 268.761141 237.679897 
L 269.39678 239.308192 
L 269.988876 240.936487 
L 270.524132 242.564782 
L 270.99034 244.193076 
L 271.376669 245.821371 
L 271.673928 247.449666 
L 271.874775 249.077961 
L 271.973889 250.706256 
L 271.968079 252.33455 
L 271.856333 253.962845 
L 271.639805 255.59114 
L 271.321743 257.219435 
L 270.907353 258.847729 
L 270.403613 260.476024 
L 269.819037 262.104319 
L 269.163406 263.732614 
z
" clip-path="url(#p4fa1376c72)" style="fill: #1f77b4; fill-opacity: 0.3"/>
   </g>
   <g id="PolyCollection_4">
    <path d="M 333.11107 318.880386 
L 325.172567 318.880386 
L 325.129683 316.11657 
L 325.140367 313.352754 
L 325.203711 310.588938 
L 325.316581 307.825122 
L 325.473817 305.061306 
L 325.668565 302.29749 
L 325.892711 299.533674 
L 326.137388 296.769857 
L 326.393505 294.006041 
L 326.65225 291.242225 
L 326.905549 288.478409 
L 327.146423 285.714593 
L 327.369243 282.950777 
L 327.569862 280.186961 
L 327.745628 277.423145 
L 327.895272 274.659329 
L 328.018716 271.895512 
L 328.116787 269.131696 
L 328.190881 266.36788 
L 328.242598 263.604064 
L 328.273363 260.840248 
L 328.284057 258.076432 
L 328.274688 255.312616 
L 328.244102 252.5488 
L 328.189769 249.784983 
L 328.107647 247.021167 
L 327.992147 244.257351 
L 327.83621 241.493535 
L 327.63151 238.729719 
L 327.368786 235.965903 
L 327.038304 233.202087 
L 326.630451 230.438271 
L 326.136427 227.674455 
L 325.549017 224.910638 
L 324.86339 222.146822 
L 324.077873 219.383006 
L 323.194645 216.61919 
L 322.220256 213.855374 
L 321.165937 211.091558 
L 320.047623 208.327742 
L 318.885654 205.563926 
L 317.704155 202.80011 
L 316.530082 200.036293 
L 315.392009 197.272477 
L 314.318717 194.508661 
L 313.337678 191.744845 
L 312.47356 188.981029 
L 311.746868 186.217213 
L 311.172816 183.453397 
L 310.760538 180.689581 
L 310.512688 177.925764 
L 310.425455 175.161948 
L 310.488983 172.398132 
L 310.688167 169.634316 
L 311.003729 166.8705 
L 311.413511 164.106684 
L 311.893863 161.342868 
L 312.42105 158.579052 
L 312.972566 155.815236 
L 313.52829 153.051419 
L 314.07142 150.287603 
L 314.589142 147.523787 
L 315.073018 144.759971 
L 315.519073 141.996155 
L 315.927612 139.232339 
L 316.302773 136.468523 
L 316.651857 133.704707 
L 316.984495 130.94089 
L 317.311685 128.177074 
L 317.644783 125.413258 
L 317.994509 122.649442 
L 318.370024 119.885626 
L 318.778157 117.12181 
L 319.222823 114.357994 
L 319.704665 111.594178 
L 320.220958 108.830362 
L 320.765755 106.066545 
L 321.330273 103.302729 
L 321.903471 100.538913 
L 322.472776 97.775097 
L 323.024907 95.011281 
L 323.546715 92.247465 
L 324.026006 89.483649 
L 324.452276 86.719833 
L 324.817328 83.956017 
L 325.115723 81.1922 
L 325.345072 78.428384 
L 325.506131 75.664568 
L 325.602727 72.900752 
L 325.641509 70.136936 
L 325.631546 67.37312 
L 325.583803 64.609304 
L 325.510525 61.845488 
L 325.424553 59.081671 
L 325.33863 56.317855 
L 325.26472 53.554039 
L 325.213396 50.790223 
L 325.193324 48.026407 
L 325.210878 45.262591 
L 333.072758 45.262591 
L 333.072758 45.262591 
L 333.090312 48.026407 
L 333.07024 50.790223 
L 333.018917 53.554039 
L 332.945007 56.317855 
L 332.859084 59.081671 
L 332.773112 61.845488 
L 332.699833 64.609304 
L 332.652091 67.37312 
L 332.642127 70.136936 
L 332.680909 72.900752 
L 332.777506 75.664568 
L 332.938565 78.428384 
L 333.167913 81.1922 
L 333.466308 83.956017 
L 333.83136 86.719833 
L 334.257631 89.483649 
L 334.736922 92.247465 
L 335.25873 95.011281 
L 335.81086 97.775097 
L 336.380166 100.538913 
L 336.953363 103.302729 
L 337.517881 106.066545 
L 338.062678 108.830362 
L 338.578971 111.594178 
L 339.060813 114.357994 
L 339.505479 117.12181 
L 339.913613 119.885626 
L 340.289128 122.649442 
L 340.638853 125.413258 
L 340.971952 128.177074 
L 341.299141 130.94089 
L 341.631779 133.704707 
L 341.980864 136.468523 
L 342.356024 139.232339 
L 342.764564 141.996155 
L 343.210619 144.759971 
L 343.694494 147.523787 
L 344.212216 150.287603 
L 344.755346 153.051419 
L 345.31107 155.815236 
L 345.862586 158.579052 
L 346.389773 161.342868 
L 346.870125 164.106684 
L 347.279907 166.8705 
L 347.595469 169.634316 
L 347.794653 172.398132 
L 347.858182 175.161948 
L 347.770948 177.925764 
L 347.523098 180.689581 
L 347.11082 183.453397 
L 346.536768 186.217213 
L 345.810076 188.981029 
L 344.945958 191.744845 
L 343.964919 194.508661 
L 342.891627 197.272477 
L 341.753555 200.036293 
L 340.579481 202.80011 
L 339.397982 205.563926 
L 338.236014 208.327742 
L 337.117699 211.091558 
L 336.06338 213.855374 
L 335.088991 216.61919 
L 334.205763 219.383006 
L 333.420247 222.146822 
L 332.734619 224.910638 
L 332.147209 227.674455 
L 331.653186 230.438271 
L 331.245333 233.202087 
L 330.914851 235.965903 
L 330.652126 238.729719 
L 330.447426 241.493535 
L 330.291489 244.257351 
L 330.175989 247.021167 
L 330.093867 249.784983 
L 330.039534 252.5488 
L 330.008949 255.312616 
L 329.99958 258.076432 
L 330.010274 260.840248 
L 330.041038 263.604064 
L 330.092755 266.36788 
L 330.166849 269.131696 
L 330.26492 271.895512 
L 330.388364 274.659329 
L 330.538009 277.423145 
L 330.713774 280.186961 
L 330.914394 282.950777 
L 331.137214 285.714593 
L 331.378087 288.478409 
L 331.631386 291.242225 
L 331.890131 294.006041 
L 332.146248 296.769857 
L 332.390926 299.533674 
L 332.615071 302.29749 
L 332.809819 305.061306 
L 332.967055 307.825122 
L 333.079926 310.588938 
L 333.14327 313.352754 
L 333.153953 316.11657 
L 333.11107 318.880386 
z
" clip-path="url(#p4fa1376c72)" style="fill: #1f77b4; fill-opacity: 0.3"/>
   </g>
   <g id="PolyCollection_5">
    <path d="M 422.045343 182.425 
L 385.969203 182.425 
L 385.621229 180.996671 
L 385.39472 179.568343 
L 385.290909 178.140014 
L 385.308137 176.711685 
L 385.44199 175.283356 
L 385.685544 173.855028 
L 386.029703 172.426699 
L 386.4636 170.99837 
L 386.975058 169.570041 
L 387.551057 168.141713 
L 388.178202 166.713384 
L 388.843166 165.285055 
L 389.533081 163.856726 
L 390.235862 162.428398 
L 390.940465 161.000069 
L 391.637064 159.57174 
L 392.317144 158.143411 
L 392.973532 156.715083 
L 393.600353 155.286754 
L 394.192943 153.858425 
L 394.74772 152.430096 
L 395.262033 151.001768 
L 395.733997 149.573439 
L 396.162346 148.14511 
L 396.546283 146.716781 
L 396.885374 145.288453 
L 397.179459 143.860124 
L 397.428605 142.431795 
L 397.633093 141.003466 
L 397.793439 139.575138 
L 397.910438 138.146809 
L 397.985237 136.71848 
L 398.019416 135.290152 
L 398.015075 133.861823 
L 397.974912 132.433494 
L 397.902288 131.005165 
L 397.801266 129.576837 
L 397.676618 128.148508 
L 397.533795 126.720179 
L 397.378855 125.29185 
L 397.218352 123.863522 
L 397.059189 122.435193 
L 396.908429 121.006864 
L 396.773093 119.578535 
L 396.659933 118.150207 
L 396.575203 116.721878 
L 396.524444 115.293549 
L 396.512277 113.86522 
L 396.542242 112.436892 
L 396.616663 111.008563 
L 396.736569 109.580234 
L 396.901669 108.151905 
L 397.110378 106.723577 
L 397.359892 105.295248 
L 397.646318 103.866919 
L 397.964837 102.43859 
L 398.309903 101.010262 
L 398.675459 99.581933 
L 399.055161 98.153604 
L 399.442598 96.725275 
L 399.831502 95.296947 
L 400.215926 93.868618 
L 400.590402 92.440289 
L 400.950056 91.011961 
L 401.290687 89.583632 
L 401.608811 88.155303 
L 401.901663 86.726974 
L 402.167178 85.298646 
L 402.40393 83.870317 
L 402.61107 82.441988 
L 402.788237 81.013659 
L 402.935472 79.585331 
L 403.053126 78.157002 
L 403.141788 76.728673 
L 403.202212 75.300344 
L 403.235266 73.872016 
L 403.241902 72.443687 
L 403.22314 71.015358 
L 403.18007 69.587029 
L 403.113878 68.158701 
L 403.025872 66.730372 
L 402.91753 65.302043 
L 402.790543 63.873714 
L 402.646862 62.445386 
L 402.488731 61.017057 
L 402.318717 59.588728 
L 402.139719 58.160399 
L 401.954955 56.732071 
L 401.767931 55.303742 
L 401.582387 53.875413 
L 401.402217 52.447084 
L 401.231376 51.018756 
L 401.073765 49.590427 
L 400.933111 48.162098 
L 400.812841 46.73377 
L 400.71596 45.305441 
L 400.644939 43.877112 
L 400.601622 42.448783 
L 400.58715 41.020455 
L 407.427395 41.020455 
L 407.427395 41.020455 
L 407.412924 42.448783 
L 407.369606 43.877112 
L 407.298585 45.305441 
L 407.201704 46.73377 
L 407.081434 48.162098 
L 406.94078 49.590427 
L 406.783169 51.018756 
L 406.612329 52.447084 
L 406.432159 53.875413 
L 406.246615 55.303742 
L 406.059591 56.732071 
L 405.874827 58.160399 
L 405.695829 59.588728 
L 405.525815 61.017057 
L 405.367684 62.445386 
L 405.224002 63.873714 
L 405.097016 65.302043 
L 404.988674 66.730372 
L 404.900668 68.158701 
L 404.834475 69.587029 
L 404.791406 71.015358 
L 404.772643 72.443687 
L 404.77928 73.872016 
L 404.812334 75.300344 
L 404.872758 76.728673 
L 404.96142 78.157002 
L 405.079074 79.585331 
L 405.226308 81.013659 
L 405.403475 82.441988 
L 405.610615 83.870317 
L 405.847368 85.298646 
L 406.112882 86.726974 
L 406.405735 88.155303 
L 406.723858 89.583632 
L 407.064489 91.011961 
L 407.424143 92.440289 
L 407.798619 93.868618 
L 408.183043 95.296947 
L 408.571947 96.725275 
L 408.959385 98.153604 
L 409.339086 99.581933 
L 409.704643 101.010262 
L 410.049709 102.43859 
L 410.368227 103.866919 
L 410.654653 105.295248 
L 410.904167 106.723577 
L 411.112876 108.151905 
L 411.277977 109.580234 
L 411.397883 111.008563 
L 411.472303 112.436892 
L 411.502268 113.86522 
L 411.490102 115.293549 
L 411.439342 116.721878 
L 411.354613 118.150207 
L 411.241452 119.578535 
L 411.106116 121.006864 
L 410.955356 122.435193 
L 410.796193 123.863522 
L 410.635691 125.29185 
L 410.480751 126.720179 
L 410.337927 128.148508 
L 410.213279 129.576837 
L 410.112257 131.005165 
L 410.039633 132.433494 
L 409.99947 133.861823 
L 409.995129 135.290152 
L 410.029308 136.71848 
L 410.104108 138.146809 
L 410.221107 139.575138 
L 410.381452 141.003466 
L 410.585941 142.431795 
L 410.835087 143.860124 
L 411.129172 145.288453 
L 411.468262 146.716781 
L 411.8522 148.14511 
L 412.280548 149.573439 
L 412.752513 151.001768 
L 413.266825 152.430096 
L 413.821602 153.858425 
L 414.414193 155.286754 
L 415.041014 156.715083 
L 415.697401 158.143411 
L 416.377482 159.57174 
L 417.07408 161.000069 
L 417.778684 162.428398 
L 418.481465 163.856726 
L 419.171379 165.285055 
L 419.836344 166.713384 
L 420.463489 168.141713 
L 421.039487 169.570041 
L 421.550945 170.99837 
L 421.984843 172.426699 
L 422.329001 173.855028 
L 422.572555 175.283356 
L 422.706408 176.711685 
L 422.723636 178.140014 
L 422.619825 179.568343 
L 422.393316 180.996671 
L 422.045343 182.425 
z
" clip-path="url(#p4fa1376c72)" style="fill: #1f77b4; fill-opacity: 0.3"/>
   </g>
   <g id="PolyCollection_6">
    <path d="M 497.516814 253.127273 
L 460.228641 253.127273 
L 460.156364 251.698944 
L 460.179382 250.270615 
L 460.296815 248.842287 
L 460.506212 247.413958 
L 460.803592 245.985629 
L 461.183528 244.5573 
L 461.639251 243.128972 
L 462.162794 241.700643 
L 462.745158 240.272314 
L 463.376496 238.843985 
L 464.046312 237.415657 
L 464.743666 235.987328 
L 465.457382 234.558999 
L 466.176249 233.13067 
L 466.889218 231.702342 
L 467.585584 230.274013 
L 468.255148 228.845684 
L 468.888367 227.417355 
L 469.476481 225.989027 
L 470.011619 224.560698 
L 470.486884 223.132369 
L 470.896423 221.70404 
L 471.235476 220.275712 
L 471.500406 218.847383 
L 471.68872 217.419054 
L 471.799075 215.990725 
L 471.831268 214.562397 
L 471.786225 213.134068 
L 471.665972 211.705739 
L 471.473599 210.27741 
L 471.21322 208.849082 
L 470.889919 207.420753 
L 470.509684 205.992424 
L 470.079333 204.564096 
L 469.606433 203.135767 
L 469.099195 201.707438 
L 468.566369 200.279109 
L 468.017114 198.850781 
L 467.460867 197.422452 
L 466.907195 195.994123 
L 466.365636 194.565794 
L 465.84554 193.137466 
L 465.355898 191.709137 
L 464.905179 190.280808 
L 464.501165 188.852479 
L 464.150796 187.424151 
L 463.860031 185.995822 
L 463.633717 184.567493 
L 463.475486 183.139164 
L 463.387677 181.710836 
L 463.371273 180.282507 
L 463.425883 178.854178 
L 463.549738 177.425849 
L 463.739727 175.997521 
L 463.991459 174.569192 
L 464.299346 173.140863 
L 464.656725 171.712534 
L 465.055987 170.284206 
L 465.488731 168.855877 
L 465.945935 167.427548 
L 466.418131 165.999219 
L 466.89559 164.570891 
L 467.368508 163.142562 
L 467.827188 161.714233 
L 468.262223 160.285904 
L 468.664659 158.857576 
L 469.026161 157.429247 
L 469.339154 156.000918 
L 469.596956 154.57259 
L 469.793894 153.144261 
L 469.925395 151.715932 
L 469.988076 150.287603 
L 469.979791 148.859275 
L 469.899686 147.430946 
L 469.748208 146.002617 
L 469.527117 144.574288 
L 469.23946 143.14596 
L 468.889536 141.717631 
L 468.482832 140.289302 
L 468.025947 138.860973 
L 467.526486 137.432645 
L 466.992942 136.004316 
L 466.434556 134.575987 
L 465.861158 133.147658 
L 465.282998 131.71933 
L 464.71056 130.291001 
L 464.15437 128.862672 
L 463.624796 127.434343 
L 463.131853 126.006015 
L 462.685005 124.577686 
L 462.292977 123.149357 
L 461.963588 121.721028 
L 461.703594 120.2927 
L 461.518554 118.864371 
L 461.412731 117.436042 
L 461.389014 116.007713 
L 461.448876 114.579385 
L 461.592366 113.151056 
L 461.818132 111.722727 
L 495.927322 111.722727 
L 495.927322 111.722727 
L 496.153089 113.151056 
L 496.296579 114.579385 
L 496.356441 116.007713 
L 496.332724 117.436042 
L 496.226901 118.864371 
L 496.041861 120.2927 
L 495.781866 121.721028 
L 495.452478 123.149357 
L 495.06045 124.577686 
L 494.613601 126.006015 
L 494.120658 127.434343 
L 493.591085 128.862672 
L 493.034894 130.291001 
L 492.462456 131.71933 
L 491.884296 133.147658 
L 491.310898 134.575987 
L 490.752512 136.004316 
L 490.218969 137.432645 
L 489.719508 138.860973 
L 489.262622 140.289302 
L 488.855919 141.717631 
L 488.505994 143.14596 
L 488.218337 144.574288 
L 487.997246 146.002617 
L 487.845769 147.430946 
L 487.765663 148.859275 
L 487.757379 150.287603 
L 487.820059 151.715932 
L 487.951561 153.144261 
L 488.148498 154.57259 
L 488.406301 156.000918 
L 488.719294 157.429247 
L 489.080795 158.857576 
L 489.483232 160.285904 
L 489.918266 161.714233 
L 490.376947 163.142562 
L 490.849865 164.570891 
L 491.327324 165.999219 
L 491.79952 167.427548 
L 492.256724 168.855877 
L 492.689468 170.284206 
L 493.088729 171.712534 
L 493.446108 173.140863 
L 493.753996 174.569192 
L 494.005727 175.997521 
L 494.195716 177.425849 
L 494.319571 178.854178 
L 494.374181 180.282507 
L 494.357778 181.710836 
L 494.269968 183.139164 
L 494.111738 184.567493 
L 493.885423 185.995822 
L 493.594658 187.424151 
L 493.24429 188.852479 
L 492.840276 190.280808 
L 492.389557 191.709137 
L 491.899915 193.137466 
L 491.379818 194.565794 
L 490.83826 195.994123 
L 490.284587 197.422452 
L 489.728341 198.850781 
L 489.179086 200.279109 
L 488.646259 201.707438 
L 488.139021 203.135767 
L 487.666121 204.564096 
L 487.235771 205.992424 
L 486.855535 207.420753 
L 486.532234 208.849082 
L 486.271856 210.27741 
L 486.079483 211.705739 
L 485.959229 213.134068 
L 485.914187 214.562397 
L 485.94638 215.990725 
L 486.056735 217.419054 
L 486.245049 218.847383 
L 486.509979 220.275712 
L 486.849032 221.70404 
L 487.258571 223.132369 
L 487.733836 224.560698 
L 488.268973 225.989027 
L 488.857087 227.417355 
L 489.490307 228.845684 
L 490.15987 230.274013 
L 490.856236 231.702342 
L 491.569205 233.13067 
L 492.288072 234.558999 
L 493.001788 235.987328 
L 493.699142 237.415657 
L 494.368959 238.843985 
L 495.000297 240.272314 
L 495.582661 241.700643 
L 496.106204 243.128972 
L 496.561926 244.5573 
L 496.941862 245.985629 
L 497.239243 247.413958 
L 497.448639 248.842287 
L 497.566072 250.270615 
L 497.589091 251.698944 
L 497.516814 253.127273 
z
" clip-path="url(#p4fa1376c72)" style="fill: #1f77b4; fill-opacity: 0.3"/>
   </g>
   <g id="PolyCollection_7">
    <path d="M 555.09712 272.216886 
L 552.379244 272.216886 
L 552.156606 269.881569 
L 551.92949 267.546251 
L 551.705763 265.210934 
L 551.493936 262.875616 
L 551.302486 260.540299 
L 551.139101 258.204981 
L 551.009952 255.869664 
L 550.919078 253.534346 
L 550.86797 251.199029 
L 550.85542 248.863711 
L 550.877618 246.528394 
L 550.928486 244.193076 
L 551.000149 241.857759 
L 551.083441 239.522441 
L 551.168337 237.187124 
L 551.24421 234.851806 
L 551.299868 232.516489 
L 551.323365 230.181171 
L 551.301658 227.845854 
L 551.220229 225.510537 
L 551.062838 223.175219 
L 550.811593 220.839902 
L 550.447491 218.504584 
L 549.95157 216.169267 
L 549.306693 213.833949 
L 548.499899 211.498632 
L 547.525117 209.163314 
L 546.385938 206.827997 
L 545.098025 204.492679 
L 543.690702 202.157362 
L 542.207314 199.822044 
L 540.704018 197.486727 
L 539.246895 195.151409 
L 537.907488 192.816092 
L 536.75714 190.480774 
L 535.860749 188.145457 
L 535.270708 185.810139 
L 535.021818 183.474822 
L 535.127887 181.139504 
L 535.580486 178.804187 
L 536.350038 176.468869 
L 537.389045 174.133552 
L 538.636989 171.798234 
L 540.02618 169.462917 
L 541.48777 167.127599 
L 542.957182 164.792282 
L 544.378368 162.456964 
L 545.706546 160.121647 
L 546.909357 157.786329 
L 547.966574 155.451012 
L 548.868724 153.115694 
L 549.615026 150.780377 
L 550.211092 148.445059 
L 550.666754 146.109742 
L 550.994284 143.774424 
L 551.207138 141.439107 
L 551.319252 139.103789 
L 551.344797 136.768472 
L 551.298265 134.433154 
L 551.194681 132.097837 
L 551.049795 129.762519 
L 550.880093 127.427202 
L 550.702538 125.091884 
L 550.534021 122.756567 
L 550.390563 120.421249 
L 550.286349 118.085932 
L 550.23276 115.750614 
L 550.237522 113.415297 
L 550.304143 111.079979 
L 550.431705 108.744662 
L 550.615086 106.409344 
L 550.845573 104.074027 
L 551.111788 101.738709 
L 551.40081 99.403392 
L 551.69935 97.068074 
L 551.994818 94.732757 
L 552.276185 92.397439 
L 552.53456 90.062122 
L 552.763448 87.726804 
L 552.95872 85.391487 
L 553.118353 83.056169 
L 553.242016 80.720852 
L 553.330611 78.385534 
L 553.385824 76.050217 
L 553.409779 73.714899 
L 553.404824 71.379582 
L 553.373453 69.044264 
L 553.318363 66.708947 
L 553.242597 64.373629 
L 553.149723 62.038312 
L 553.04399 59.702994 
L 552.930404 57.367677 
L 552.81468 55.03236 
L 552.703044 52.697042 
L 552.601899 50.361725 
L 552.517379 48.026407 
L 552.454847 45.69109 
L 552.418418 43.355772 
L 552.410557 41.020455 
L 555.065807 41.020455 
L 555.065807 41.020455 
L 555.057946 43.355772 
L 555.021516 45.69109 
L 554.958985 48.026407 
L 554.874465 50.361725 
L 554.77332 52.697042 
L 554.661684 55.03236 
L 554.545959 57.367677 
L 554.432374 59.702994 
L 554.326641 62.038312 
L 554.233766 64.373629 
L 554.158 66.708947 
L 554.102911 69.044264 
L 554.07154 71.379582 
L 554.066585 73.714899 
L 554.09054 76.050217 
L 554.145752 78.385534 
L 554.234347 80.720852 
L 554.358011 83.056169 
L 554.517643 85.391487 
L 554.712916 87.726804 
L 554.941804 90.062122 
L 555.200179 92.397439 
L 555.481546 94.732757 
L 555.777013 97.068074 
L 556.075553 99.403392 
L 556.364576 101.738709 
L 556.63079 104.074027 
L 556.861277 106.409344 
L 557.044659 108.744662 
L 557.172221 111.079979 
L 557.238841 113.415297 
L 557.243604 115.750614 
L 557.190014 118.085932 
L 557.085801 120.421249 
L 556.942342 122.756567 
L 556.773826 125.091884 
L 556.596271 127.427202 
L 556.426568 129.762519 
L 556.281683 132.097837 
L 556.178099 134.433154 
L 556.131566 136.768472 
L 556.157112 139.103789 
L 556.269225 141.439107 
L 556.482079 143.774424 
L 556.809609 146.109742 
L 557.265272 148.445059 
L 557.861337 150.780377 
L 558.607639 153.115694 
L 559.509789 155.451012 
L 560.567007 157.786329 
L 561.769818 160.121647 
L 563.097996 162.456964 
L 564.519182 164.792282 
L 565.988594 167.127599 
L 567.450184 169.462917 
L 568.839375 171.798234 
L 570.087319 174.133552 
L 571.126326 176.468869 
L 571.895877 178.804187 
L 572.348477 181.139504 
L 572.454545 183.474822 
L 572.205656 185.810139 
L 571.615615 188.145457 
L 570.719224 190.480774 
L 569.568875 192.816092 
L 568.229468 195.151409 
L 566.772346 197.486727 
L 565.26905 199.822044 
L 563.785661 202.157362 
L 562.378339 204.492679 
L 561.090425 206.827997 
L 559.951247 209.163314 
L 558.976465 211.498632 
L 558.16967 213.833949 
L 557.524794 216.169267 
L 557.028873 218.504584 
L 556.664771 220.839902 
L 556.413525 223.175219 
L 556.256135 225.510537 
L 556.174706 227.845854 
L 556.152998 230.181171 
L 556.176495 232.516489 
L 556.232153 234.851806 
L 556.308027 237.187124 
L 556.392923 239.522441 
L 556.476215 241.857759 
L 556.547878 244.193076 
L 556.598746 246.528394 
L 556.620944 248.863711 
L 556.608393 251.199029 
L 556.557286 253.534346 
L 556.466411 255.869664 
L 556.337263 258.204981 
L 556.173878 260.540299 
L 555.982427 262.875616 
L 555.7706 265.210934 
L 555.546873 267.546251 
L 555.319757 269.881569 
L 555.09712 272.216886 
z
" clip-path="url(#p4fa1376c72)" style="fill: #1f77b4; fill-opacity: 0.3"/>
   </g>
   <g id="PolyCollection_8">
    <path d="M 633.091698 258.783455 
L 624.115575 258.783455 
L 623.662507 257.912174 
L 623.202686 257.040893 
L 622.742501 256.169613 
L 622.288915 255.298332 
L 621.849287 254.427052 
L 621.431168 253.555771 
L 621.042067 252.684491 
L 620.689205 251.81321 
L 620.37927 250.94193 
L 620.118163 250.070649 
L 619.910784 249.199369 
L 619.760835 248.328088 
L 619.670665 247.456808 
L 619.641173 246.585527 
L 619.671755 245.714247 
L 619.760319 244.842966 
L 619.903349 243.971685 
L 620.096031 243.100405 
L 620.33242 242.229124 
L 620.605652 241.357844 
L 620.908181 240.486563 
L 621.232035 239.615283 
L 621.569076 238.744002 
L 621.911251 237.872722 
L 622.250828 237.001441 
L 622.580603 236.130161 
L 622.894071 235.25888 
L 623.18556 234.3876 
L 623.450319 233.516319 
L 623.684565 232.645039 
L 623.88549 231.773758 
L 624.051232 230.902478 
L 624.180807 230.031197 
L 624.274022 229.159916 
L 624.331372 228.288636 
L 624.353915 227.417355 
L 624.343155 226.546075 
L 624.300917 225.674794 
L 624.229235 224.803514 
L 624.130255 223.932233 
L 624.00615 223.060953 
L 623.859056 222.189672 
L 623.691028 221.318392 
L 623.504018 220.447111 
L 623.299868 219.575831 
L 623.080325 218.70455 
L 622.847061 217.83327 
L 622.601711 216.961989 
L 622.345908 216.090708 
L 622.08132 215.219428 
L 621.809678 214.348147 
L 621.532793 213.476867 
L 621.25256 212.605586 
L 620.970937 211.734306 
L 620.689909 210.863025 
L 620.411422 209.991745 
L 620.137306 209.120464 
L 619.86917 208.249184 
L 619.608296 207.377903 
L 619.355521 206.506623 
L 619.111124 205.635342 
L 618.874725 204.764062 
L 618.645216 203.892781 
L 618.420713 203.0215 
L 618.198557 202.15022 
L 617.975367 201.278939 
L 617.747139 200.407659 
L 617.509405 199.536378 
L 617.257443 198.665098 
L 616.986534 197.793817 
L 616.692251 196.922537 
L 616.370774 196.051256 
L 616.019208 195.179976 
L 615.635884 194.308695 
L 615.220636 193.437415 
L 614.775015 192.566134 
L 614.302441 191.694854 
L 613.80827 190.823573 
L 613.299765 189.952292 
L 612.785976 189.081012 
L 612.27751 188.209731 
L 611.786229 187.338451 
L 611.324855 186.46717 
L 610.906523 185.59589 
L 610.544291 184.724609 
L 610.250643 183.853329 
L 610.036989 182.982048 
L 609.913212 182.110768 
L 609.887273 181.239487 
L 609.96488 180.368207 
L 610.149268 179.496926 
L 610.441066 178.625646 
L 610.83828 177.754365 
L 611.336376 176.883084 
L 611.928458 176.011804 
L 612.605544 175.140523 
L 613.356894 174.269243 
L 614.170407 173.397962 
L 615.033038 172.526682 
L 642.174235 172.526682 
L 642.174235 172.526682 
L 643.036866 173.397962 
L 643.850379 174.269243 
L 644.601729 175.140523 
L 645.278814 176.011804 
L 645.870897 176.883084 
L 646.368992 177.754365 
L 646.766206 178.625646 
L 647.058005 179.496926 
L 647.242393 180.368207 
L 647.32 181.239487 
L 647.29406 182.110768 
L 647.170284 182.982048 
L 646.95663 183.853329 
L 646.662981 184.724609 
L 646.30075 185.59589 
L 645.882418 186.46717 
L 645.421044 187.338451 
L 644.929763 188.209731 
L 644.421297 189.081012 
L 643.907507 189.952292 
L 643.399003 190.823573 
L 642.904832 191.694854 
L 642.432258 192.566134 
L 641.986637 193.437415 
L 641.571389 194.308695 
L 641.188065 195.179976 
L 640.836498 196.051256 
L 640.515022 196.922537 
L 640.220739 197.793817 
L 639.94983 198.665098 
L 639.697868 199.536378 
L 639.460134 200.407659 
L 639.231906 201.278939 
L 639.008716 202.15022 
L 638.78656 203.0215 
L 638.562057 203.892781 
L 638.332548 204.764062 
L 638.096149 205.635342 
L 637.851751 206.506623 
L 637.598976 207.377903 
L 637.338103 208.249184 
L 637.069967 209.120464 
L 636.795851 209.991745 
L 636.517364 210.863025 
L 636.236336 211.734306 
L 635.954713 212.605586 
L 635.67448 213.476867 
L 635.397595 214.348147 
L 635.125952 215.219428 
L 634.861364 216.090708 
L 634.605562 216.961989 
L 634.360212 217.83327 
L 634.126948 218.70455 
L 633.907404 219.575831 
L 633.703255 220.447111 
L 633.516245 221.318392 
L 633.348217 222.189672 
L 633.201123 223.060953 
L 633.077018 223.932233 
L 632.978038 224.803514 
L 632.906356 225.674794 
L 632.864117 226.546075 
L 632.853357 227.417355 
L 632.875901 228.288636 
L 632.933251 229.159916 
L 633.026466 230.031197 
L 633.156041 230.902478 
L 633.321782 231.773758 
L 633.522708 232.645039 
L 633.756954 233.516319 
L 634.021713 234.3876 
L 634.313202 235.25888 
L 634.62667 236.130161 
L 634.956445 237.001441 
L 635.296022 237.872722 
L 635.638197 238.744002 
L 635.975238 239.615283 
L 636.299092 240.486563 
L 636.601621 241.357844 
L 636.874853 242.229124 
L 637.111242 243.100405 
L 637.303924 243.971685 
L 637.446954 244.842966 
L 637.535518 245.714247 
L 637.5661 246.585527 
L 637.536608 247.456808 
L 637.446438 248.328088 
L 637.296488 249.199369 
L 637.08911 250.070649 
L 636.828003 250.94193 
L 636.518067 251.81321 
L 636.165206 252.684491 
L 635.776105 253.555771 
L 635.357986 254.427052 
L 634.918358 255.298332 
L 634.464772 256.169613 
L 634.004587 257.040893 
L 633.544765 257.912174 
L 633.091698 258.783455 
z
" clip-path="url(#p4fa1376c72)" style="fill: #1f77b4; fill-opacity: 0.3"/>
   </g>
   <g id="PolyCollection_9">
    <path d="M 711.537374 323.829545 
L 695.400808 323.829545 
L 695.366778 322.401217 
L 695.372809 320.972888 
L 695.418523 319.544559 
L 695.502888 318.11623 
L 695.624231 316.687902 
L 695.780271 315.259573 
L 695.96816 313.831244 
L 696.184544 312.402916 
L 696.425628 310.974587 
L 696.68725 309.546258 
L 696.964969 308.117929 
L 697.254145 306.689601 
L 697.550029 305.261272 
L 697.847847 303.832943 
L 698.142887 302.404614 
L 698.430575 300.976286 
L 698.706548 299.547957 
L 698.966723 298.119628 
L 699.207349 296.691299 
L 699.425065 295.262971 
L 699.616933 293.834642 
L 699.780477 292.406313 
L 699.913707 290.977984 
L 700.015134 289.549656 
L 700.083785 288.121327 
L 700.119204 286.692998 
L 700.12145 285.264669 
L 700.091091 283.836341 
L 700.029191 282.408012 
L 699.937289 280.979683 
L 699.81738 279.551354 
L 699.67188 278.123026 
L 699.503597 276.694697 
L 699.315689 275.266368 
L 699.111618 273.838039 
L 698.8951 272.409711 
L 698.670046 270.981382 
L 698.440505 269.553053 
L 698.210592 268.124725 
L 697.984423 266.696396 
L 697.766038 265.268067 
L 697.559328 263.839738 
L 697.367962 262.41141 
L 697.195307 260.983081 
L 697.044366 259.554752 
L 696.917707 258.126423 
L 696.817403 256.698095 
L 696.744983 255.269766 
L 696.701391 253.841437 
L 696.686949 252.413108 
L 696.701343 250.98478 
L 696.743611 249.556451 
L 696.812149 248.128122 
L 696.904727 246.699793 
L 697.018517 245.271465 
L 697.150131 243.843136 
L 697.295671 242.414807 
L 697.450792 240.986478 
L 697.610759 239.55815 
L 697.770531 238.129821 
L 697.924828 236.701492 
L 698.068225 235.273163 
L 698.195229 233.844835 
L 698.300369 232.416506 
L 698.378288 230.988177 
L 698.423825 229.559848 
L 698.43211 228.13152 
L 698.398647 226.703191 
L 698.319403 225.274862 
L 698.190887 223.846534 
L 698.010233 222.418205 
L 697.775273 220.989876 
L 697.484608 219.561547 
L 697.137672 218.133219 
L 696.734786 216.70489 
L 696.277198 215.276561 
L 695.767124 213.848232 
L 695.207758 212.419904 
L 694.603276 210.991575 
L 693.958822 209.563246 
L 693.280471 208.134917 
L 692.57517 206.706589 
L 691.850663 205.27826 
L 691.11539 203.849931 
L 690.378365 202.421602 
L 689.64904 200.993274 
L 688.937138 199.564945 
L 688.252492 198.136616 
L 687.604851 196.708287 
L 687.0037 195.279959 
L 686.45806 193.85163 
L 685.976308 192.423301 
L 685.565994 190.994972 
L 685.233683 189.566644 
L 684.984805 188.138315 
L 684.82354 186.709986 
L 684.752727 185.281657 
L 684.773805 183.853329 
L 684.886783 182.425 
L 722.051399 182.425 
L 722.051399 182.425 
L 722.164377 183.853329 
L 722.185455 185.281657 
L 722.114642 186.709986 
L 721.953377 188.138315 
L 721.704499 189.566644 
L 721.372188 190.994972 
L 720.961874 192.423301 
L 720.480122 193.85163 
L 719.934482 195.279959 
L 719.33333 196.708287 
L 718.68569 198.136616 
L 718.001044 199.564945 
L 717.289142 200.993274 
L 716.559816 202.421602 
L 715.822792 203.849931 
L 715.087519 205.27826 
L 714.363012 206.706589 
L 713.657711 208.134917 
L 712.97936 209.563246 
L 712.334906 210.991575 
L 711.730424 212.419904 
L 711.171058 213.848232 
L 710.660983 215.276561 
L 710.203396 216.70489 
L 709.800509 218.133219 
L 709.453574 219.561547 
L 709.162909 220.989876 
L 708.927949 222.418205 
L 708.747295 223.846534 
L 708.618779 225.274862 
L 708.539535 226.703191 
L 708.506072 228.13152 
L 708.514357 229.559848 
L 708.559894 230.988177 
L 708.637812 232.416506 
L 708.742953 233.844835 
L 708.869957 235.273163 
L 709.013354 236.701492 
L 709.167651 238.129821 
L 709.327422 239.55815 
L 709.48739 240.986478 
L 709.64251 242.414807 
L 709.788051 243.843136 
L 709.919665 245.271465 
L 710.033454 246.699793 
L 710.126033 248.128122 
L 710.194571 249.556451 
L 710.236839 250.98478 
L 710.251233 252.413108 
L 710.236791 253.841437 
L 710.193198 255.269766 
L 710.120779 256.698095 
L 710.020475 258.126423 
L 709.893816 259.554752 
L 709.742875 260.983081 
L 709.57022 262.41141 
L 709.378853 263.839738 
L 709.172144 265.268067 
L 708.953759 266.696396 
L 708.72759 268.124725 
L 708.497677 269.553053 
L 708.268136 270.981382 
L 708.043082 272.409711 
L 707.826564 273.838039 
L 707.622493 275.266368 
L 707.434585 276.694697 
L 707.266302 278.123026 
L 707.120802 279.551354 
L 707.000893 280.979683 
L 706.908991 282.408012 
L 706.847091 283.836341 
L 706.816732 285.264669 
L 706.818978 286.692998 
L 706.854396 288.121327 
L 706.923048 289.549656 
L 707.024475 290.977984 
L 707.157705 292.406313 
L 707.321249 293.834642 
L 707.513117 295.262971 
L 707.730832 296.691299 
L 707.971459 298.119628 
L 708.231633 299.547957 
L 708.507607 300.976286 
L 708.795295 302.404614 
L 709.090335 303.832943 
L 709.388153 305.261272 
L 709.684037 306.689601 
L 709.973213 308.117929 
L 710.250932 309.546258 
L 710.512554 310.974587 
L 710.753637 312.402916 
L 710.970021 313.831244 
L 711.157911 315.259573 
L 711.313951 316.687902 
L 711.435294 318.11623 
L 711.519659 319.544559 
L 711.565373 320.972888 
L 711.571404 322.401217 
L 711.537374 323.829545 
z
" clip-path="url(#p4fa1376c72)" style="fill: #1f77b4; fill-opacity: 0.3"/>
   </g>
   <g id="PolyCollection_10">
    <path d="M 783.514685 254.541318 
L 773.154406 254.541318 
L 772.746703 253.705746 
L 772.350022 252.870174 
L 771.970812 252.034601 
L 771.615482 251.199029 
L 771.290199 250.363457 
L 771.000668 249.527884 
L 770.751938 248.692312 
L 770.548203 247.85674 
L 770.392646 247.021167 
L 770.2873 246.185595 
L 770.232968 245.350023 
L 770.229171 244.51445 
L 770.274156 243.678878 
L 770.36495 242.843306 
L 770.497459 242.007733 
L 770.666614 241.172161 
L 770.866544 240.336589 
L 771.090785 239.501017 
L 771.332496 238.665444 
L 771.58469 237.829872 
L 771.840455 236.9943 
L 772.093161 236.158727 
L 772.336645 235.323155 
L 772.565365 234.487583 
L 772.774518 233.65201 
L 772.96012 232.816438 
L 773.119045 231.980866 
L 773.249026 231.145293 
L 773.348622 230.309721 
L 773.417154 229.474149 
L 773.454616 228.638576 
L 773.46157 227.803004 
L 773.439036 226.967432 
L 773.388368 226.13186 
L 773.311151 225.296287 
L 773.209096 224.460715 
L 773.08396 223.625143 
L 772.937483 222.78957 
L 772.771342 221.953998 
L 772.587139 221.118426 
L 772.386401 220.282853 
L 772.170605 219.447281 
L 771.941213 218.611709 
L 771.699721 217.776136 
L 771.447716 216.940564 
L 771.186921 216.104992 
L 770.919246 215.269419 
L 770.646813 214.433847 
L 770.371969 213.598275 
L 770.097273 212.762702 
L 769.825459 211.92713 
L 769.559368 211.091558 
L 769.301854 210.255986 
L 769.055667 209.420413 
L 768.823312 208.584841 
L 768.606898 207.749269 
L 768.407978 206.913696 
L 768.227391 206.078124 
L 768.065126 205.242552 
L 767.920202 204.406979 
L 767.790591 203.571407 
L 767.673181 202.735835 
L 767.5638 201.900262 
L 767.457295 201.06469 
L 767.347679 200.229118 
L 767.22834 199.393545 
L 767.092308 198.557973 
L 766.932576 197.722401 
L 766.742454 196.886829 
L 766.515958 196.051256 
L 766.248188 195.215684 
L 765.935705 194.380112 
L 765.576859 193.544539 
L 765.172061 192.708967 
L 764.723985 191.873395 
L 764.237663 191.037822 
L 763.720479 190.20225 
L 763.182056 189.366678 
L 762.634018 188.531105 
L 762.089655 187.695533 
L 761.56349 186.859961 
L 761.070767 186.024388 
L 760.626894 185.188816 
L 760.246853 184.353244 
L 759.944615 183.517671 
L 759.732594 182.682099 
L 759.621149 181.846527 
L 759.618182 181.010955 
L 759.728832 180.175382 
L 759.955289 179.33981 
L 760.296733 178.504238 
L 760.749394 177.668665 
L 761.306733 176.833093 
L 761.959727 175.997521 
L 762.697239 175.161948 
L 763.506457 174.326376 
L 764.373376 173.490804 
L 765.283294 172.655231 
L 766.221307 171.819659 
L 790.447784 171.819659 
L 790.447784 171.819659 
L 791.385797 172.655231 
L 792.295715 173.490804 
L 793.162634 174.326376 
L 793.971852 175.161948 
L 794.709364 175.997521 
L 795.362358 176.833093 
L 795.919697 177.668665 
L 796.372358 178.504238 
L 796.713802 179.33981 
L 796.940259 180.175382 
L 797.050909 181.010955 
L 797.047942 181.846527 
L 796.936497 182.682099 
L 796.724476 183.517671 
L 796.422238 184.353244 
L 796.042197 185.188816 
L 795.598324 186.024388 
L 795.105601 186.859961 
L 794.579436 187.695533 
L 794.035073 188.531105 
L 793.487035 189.366678 
L 792.948612 190.20225 
L 792.431428 191.037822 
L 791.945106 191.873395 
L 791.49703 192.708967 
L 791.092232 193.544539 
L 790.733386 194.380112 
L 790.420903 195.215684 
L 790.153133 196.051256 
L 789.926637 196.886829 
L 789.736515 197.722401 
L 789.576783 198.557973 
L 789.440751 199.393545 
L 789.321412 200.229118 
L 789.211796 201.06469 
L 789.105291 201.900262 
L 788.99591 202.735835 
L 788.8785 203.571407 
L 788.748888 204.406979 
L 788.603965 205.242552 
L 788.4417 206.078124 
L 788.261113 206.913696 
L 788.062193 207.749269 
L 787.845779 208.584841 
L 787.613424 209.420413 
L 787.367237 210.255986 
L 787.109723 211.091558 
L 786.843632 211.92713 
L 786.571818 212.762702 
L 786.297122 213.598275 
L 786.022278 214.433847 
L 785.749845 215.269419 
L 785.48217 216.104992 
L 785.221375 216.940564 
L 784.96937 217.776136 
L 784.727878 218.611709 
L 784.498486 219.447281 
L 784.28269 220.282853 
L 784.081952 221.118426 
L 783.897749 221.953998 
L 783.731608 222.78957 
L 783.58513 223.625143 
L 783.459995 224.460715 
L 783.35794 225.296287 
L 783.280723 226.13186 
L 783.230055 226.967432 
L 783.207521 227.803004 
L 783.214475 228.638576 
L 783.251937 229.474149 
L 783.320469 230.309721 
L 783.420065 231.145293 
L 783.550046 231.980866 
L 783.708971 232.816438 
L 783.894573 233.65201 
L 784.103726 234.487583 
L 784.332446 235.323155 
L 784.57593 236.158727 
L 784.828636 236.9943 
L 785.084401 237.829872 
L 785.336595 238.665444 
L 785.578306 239.501017 
L 785.802547 240.336589 
L 786.002477 241.172161 
L 786.171632 242.007733 
L 786.304141 242.843306 
L 786.394935 243.678878 
L 786.43992 244.51445 
L 786.436123 245.350023 
L 786.381791 246.185595 
L 786.276445 247.021167 
L 786.120887 247.85674 
L 785.917153 248.692312 
L 785.668423 249.527884 
L 785.378892 250.363457 
L 785.053608 251.199029 
L 784.698279 252.034601 
L 784.319069 252.870174 
L 783.922387 253.705746 
L 783.514685 254.541318 
z
" clip-path="url(#p4fa1376c72)" style="fill: #1f77b4; fill-opacity: 0.3"/>
   </g>
   <g id="matplotlib.axis_1">
    <g id="xtick_1">
     <g id="line2d_1">
      <defs>
       <path id="m6df7956a08" d="M 0 0 
L 0 3.5 
" style="stroke: #000000; stroke-width: 0.8"/>
      </defs>
      <g>
       <use xlink:href="#m6df7956a08" x="104.545455" y="337.97" style="stroke: #000000; stroke-width: 0.8"/>
      </g>
     </g>
     <g id="text_1">
      <!-- Grudger -->
      <g transform="translate(106.752955 377.89625)rotate(-90)scale(0.08 -0.08)">
       <defs>
        <path id="DejaVuSans-47" d="M 3809 666 
L 3809 1919 
L 2778 1919 
L 2778 2438 
L 4434 2438 
L 4434 434 
Q 4069 175 3628 42 
Q 3188 -91 2688 -91 
Q 1594 -91 976 548 
Q 359 1188 359 2328 
Q 359 3472 976 4111 
Q 1594 4750 2688 4750 
Q 3144 4750 3555 4637 
Q 3966 4525 4313 4306 
L 4313 3634 
Q 3963 3931 3569 4081 
Q 3175 4231 2741 4231 
Q 1884 4231 1454 3753 
Q 1025 3275 1025 2328 
Q 1025 1384 1454 906 
Q 1884 428 2741 428 
Q 3075 428 3337 486 
Q 3600 544 3809 666 
z
" transform="scale(0.015625)"/>
        <path id="DejaVuSans-72" d="M 2631 2963 
Q 2534 3019 2420 3045 
Q 2306 3072 2169 3072 
Q 1681 3072 1420 2755 
Q 1159 2438 1159 1844 
L 1159 0 
L 581 0 
L 581 3500 
L 1159 3500 
L 1159 2956 
Q 1341 3275 1631 3429 
Q 1922 3584 2338 3584 
Q 2397 3584 2469 3576 
Q 2541 3569 2628 3553 
L 2631 2963 
z
" transform="scale(0.015625)"/>
        <path id="DejaVuSans-75" d="M 544 1381 
L 544 3500 
L 1119 3500 
L 1119 1403 
Q 1119 906 1312 657 
Q 1506 409 1894 409 
Q 2359 409 2629 706 
Q 2900 1003 2900 1516 
L 2900 3500 
L 3475 3500 
L 3475 0 
L 2900 0 
L 2900 538 
Q 2691 219 2414 64 
Q 2138 -91 1772 -91 
Q 1169 -91 856 284 
Q 544 659 544 1381 
z
M 1991 3584 
L 1991 3584 
z
" transform="scale(0.015625)"/>
        <path id="DejaVuSans-64" d="M 2906 2969 
L 2906 4863 
L 3481 4863 
L 3481 0 
L 2906 0 
L 2906 525 
Q 2725 213 2448 61 
Q 2172 -91 1784 -91 
Q 1150 -91 751 415 
Q 353 922 353 1747 
Q 353 2572 751 3078 
Q 1150 3584 1784 3584 
Q 2172 3584 2448 3432 
Q 2725 3281 2906 2969 
z
M 947 1747 
Q 947 1113 1208 752 
Q 1469 391 1925 391 
Q 2381 391 2643 752 
Q 2906 1113 2906 1747 
Q 2906 2381 2643 2742 
Q 2381 3103 1925 3103 
Q 1469 3103 1208 2742 
Q 947 2381 947 1747 
z
" transform="scale(0.015625)"/>
        <path id="DejaVuSans-67" d="M 2906 1791 
Q 2906 2416 2648 2759 
Q 2391 3103 1925 3103 
Q 1463 3103 1205 2759 
Q 947 2416 947 1791 
Q 947 1169 1205 825 
Q 1463 481 1925 481 
Q 2391 481 2648 825 
Q 2906 1169 2906 1791 
z
M 3481 434 
Q 3481 -459 3084 -895 
Q 2688 -1331 1869 -1331 
Q 1566 -1331 1297 -1286 
Q 1028 -1241 775 -1147 
L 775 -588 
Q 1028 -725 1275 -790 
Q 1522 -856 1778 -856 
Q 2344 -856 2625 -561 
Q 2906 -266 2906 331 
L 2906 616 
Q 2728 306 2450 153 
Q 2172 0 1784 0 
Q 1141 0 747 490 
Q 353 981 353 1791 
Q 353 2603 747 3093 
Q 1141 3584 1784 3584 
Q 2172 3584 2450 3431 
Q 2728 3278 2906 2969 
L 2906 3500 
L 3481 3500 
L 3481 434 
z
" transform="scale(0.015625)"/>
        <path id="DejaVuSans-65" d="M 3597 1894 
L 3597 1613 
L 953 1613 
Q 991 1019 1311 708 
Q 1631 397 2203 397 
Q 2534 397 2845 478 
Q 3156 559 3463 722 
L 3463 178 
Q 3153 47 2828 -22 
Q 2503 -91 2169 -91 
Q 1331 -91 842 396 
Q 353 884 353 1716 
Q 353 2575 817 3079 
Q 1281 3584 2069 3584 
Q 2775 3584 3186 3129 
Q 3597 2675 3597 1894 
z
M 3022 2063 
Q 3016 2534 2758 2815 
Q 2500 3097 2075 3097 
Q 1594 3097 1305 2825 
Q 1016 2553 972 2059 
L 3022 2063 
z
" transform="scale(0.015625)"/>
       </defs>
       <use xlink:href="#DejaVuSans-47"/>
       <use xlink:href="#DejaVuSans-72" x="77.490234"/>
       <use xlink:href="#DejaVuSans-75" x="118.603516"/>
       <use xlink:href="#DejaVuSans-64" x="181.982422"/>
       <use xlink:href="#DejaVuSans-67" x="245.458984"/>
       <use xlink:href="#DejaVuSans-65" x="308.935547"/>
       <use xlink:href="#DejaVuSans-72" x="370.458984"/>
      </g>
     </g>
    </g>
    <g id="xtick_2">
     <g id="line2d_2">
      <g>
       <use xlink:href="#m6df7956a08" x="179.410909" y="337.97" style="stroke: #000000; stroke-width: 0.8"/>
      </g>
     </g>
     <g id="text_2">
      <!-- Tit For Tat -->
      <g transform="translate(181.618409 384.15)rotate(-90)scale(0.08 -0.08)">
       <defs>
        <path id="DejaVuSans-54" d="M -19 4666 
L 3928 4666 
L 3928 4134 
L 2272 4134 
L 2272 0 
L 1638 0 
L 1638 4134 
L -19 4134 
L -19 4666 
z
" transform="scale(0.015625)"/>
        <path id="DejaVuSans-69" d="M 603 3500 
L 1178 3500 
L 1178 0 
L 603 0 
L 603 3500 
z
M 603 4863 
L 1178 4863 
L 1178 4134 
L 603 4134 
L 603 4863 
z
" transform="scale(0.015625)"/>
        <path id="DejaVuSans-74" d="M 1172 4494 
L 1172 3500 
L 2356 3500 
L 2356 3053 
L 1172 3053 
L 1172 1153 
Q 1172 725 1289 603 
Q 1406 481 1766 481 
L 2356 481 
L 2356 0 
L 1766 0 
Q 1100 0 847 248 
Q 594 497 594 1153 
L 594 3053 
L 172 3053 
L 172 3500 
L 594 3500 
L 594 4494 
L 1172 4494 
z
" transform="scale(0.015625)"/>
        <path id="DejaVuSans-20" transform="scale(0.015625)"/>
        <path id="DejaVuSans-46" d="M 628 4666 
L 3309 4666 
L 3309 4134 
L 1259 4134 
L 1259 2759 
L 3109 2759 
L 3109 2228 
L 1259 2228 
L 1259 0 
L 628 0 
L 628 4666 
z
" transform="scale(0.015625)"/>
        <path id="DejaVuSans-6f" d="M 1959 3097 
Q 1497 3097 1228 2736 
Q 959 2375 959 1747 
Q 959 1119 1226 758 
Q 1494 397 1959 397 
Q 2419 397 2687 759 
Q 2956 1122 2956 1747 
Q 2956 2369 2687 2733 
Q 2419 3097 1959 3097 
z
M 1959 3584 
Q 2709 3584 3137 3096 
Q 3566 2609 3566 1747 
Q 3566 888 3137 398 
Q 2709 -91 1959 -91 
Q 1206 -91 779 398 
Q 353 888 353 1747 
Q 353 2609 779 3096 
Q 1206 3584 1959 3584 
z
" transform="scale(0.015625)"/>
        <path id="DejaVuSans-61" d="M 2194 1759 
Q 1497 1759 1228 1600 
Q 959 1441 959 1056 
Q 959 750 1161 570 
Q 1363 391 1709 391 
Q 2188 391 2477 730 
Q 2766 1069 2766 1631 
L 2766 1759 
L 2194 1759 
z
M 3341 1997 
L 3341 0 
L 2766 0 
L 2766 531 
Q 2569 213 2275 61 
Q 1981 -91 1556 -91 
Q 1019 -91 701 211 
Q 384 513 384 1019 
Q 384 1609 779 1909 
Q 1175 2209 1959 2209 
L 2766 2209 
L 2766 2266 
Q 2766 2663 2505 2880 
Q 2244 3097 1772 3097 
Q 1472 3097 1187 3025 
Q 903 2953 641 2809 
L 641 3341 
Q 956 3463 1253 3523 
Q 1550 3584 1831 3584 
Q 2591 3584 2966 3190 
Q 3341 2797 3341 1997 
z
" transform="scale(0.015625)"/>
       </defs>
       <use xlink:href="#DejaVuSans-54"/>
       <use xlink:href="#DejaVuSans-69" x="57.958984"/>
       <use xlink:href="#DejaVuSans-74" x="85.742188"/>
       <use xlink:href="#DejaVuSans-20" x="124.951172"/>
       <use xlink:href="#DejaVuSans-46" x="156.738281"/>
       <use xlink:href="#DejaVuSans-6f" x="210.632812"/>
       <use xlink:href="#DejaVuSans-72" x="271.814453"/>
       <use xlink:href="#DejaVuSans-20" x="312.927734"/>
       <use xlink:href="#DejaVuSans-54" x="344.714844"/>
       <use xlink:href="#DejaVuSans-61" x="389.298828"/>
       <use xlink:href="#DejaVuSans-74" x="450.578125"/>
      </g>
     </g>
    </g>
    <g id="xtick_3">
     <g id="line2d_3">
      <g>
       <use xlink:href="#m6df7956a08" x="254.276364" y="337.97" style="stroke: #000000; stroke-width: 0.8"/>
      </g>
     </g>
     <g id="text_3">
      <!-- Random: 0.5 -->
      <g transform="translate(256.483864 396.0475)rotate(-90)scale(0.08 -0.08)">
       <defs>
        <path id="DejaVuSans-52" d="M 2841 2188 
Q 3044 2119 3236 1894 
Q 3428 1669 3622 1275 
L 4263 0 
L 3584 0 
L 2988 1197 
Q 2756 1666 2539 1819 
Q 2322 1972 1947 1972 
L 1259 1972 
L 1259 0 
L 628 0 
L 628 4666 
L 2053 4666 
Q 2853 4666 3247 4331 
Q 3641 3997 3641 3322 
Q 3641 2881 3436 2590 
Q 3231 2300 2841 2188 
z
M 1259 4147 
L 1259 2491 
L 2053 2491 
Q 2509 2491 2742 2702 
Q 2975 2913 2975 3322 
Q 2975 3731 2742 3939 
Q 2509 4147 2053 4147 
L 1259 4147 
z
" transform="scale(0.015625)"/>
        <path id="DejaVuSans-6e" d="M 3513 2113 
L 3513 0 
L 2938 0 
L 2938 2094 
Q 2938 2591 2744 2837 
Q 2550 3084 2163 3084 
Q 1697 3084 1428 2787 
Q 1159 2491 1159 1978 
L 1159 0 
L 581 0 
L 581 3500 
L 1159 3500 
L 1159 2956 
Q 1366 3272 1645 3428 
Q 1925 3584 2291 3584 
Q 2894 3584 3203 3211 
Q 3513 2838 3513 2113 
z
" transform="scale(0.015625)"/>
        <path id="DejaVuSans-6d" d="M 3328 2828 
Q 3544 3216 3844 3400 
Q 4144 3584 4550 3584 
Q 5097 3584 5394 3201 
Q 5691 2819 5691 2113 
L 5691 0 
L 5113 0 
L 5113 2094 
Q 5113 2597 4934 2840 
Q 4756 3084 4391 3084 
Q 3944 3084 3684 2787 
Q 3425 2491 3425 1978 
L 3425 0 
L 2847 0 
L 2847 2094 
Q 2847 2600 2669 2842 
Q 2491 3084 2119 3084 
Q 1678 3084 1418 2786 
Q 1159 2488 1159 1978 
L 1159 0 
L 581 0 
L 581 3500 
L 1159 3500 
L 1159 2956 
Q 1356 3278 1631 3431 
Q 1906 3584 2284 3584 
Q 2666 3584 2933 3390 
Q 3200 3197 3328 2828 
z
" transform="scale(0.015625)"/>
        <path id="DejaVuSans-3a" d="M 750 794 
L 1409 794 
L 1409 0 
L 750 0 
L 750 794 
z
M 750 3309 
L 1409 3309 
L 1409 2516 
L 750 2516 
L 750 3309 
z
" transform="scale(0.015625)"/>
        <path id="DejaVuSans-30" d="M 2034 4250 
Q 1547 4250 1301 3770 
Q 1056 3291 1056 2328 
Q 1056 1369 1301 889 
Q 1547 409 2034 409 
Q 2525 409 2770 889 
Q 3016 1369 3016 2328 
Q 3016 3291 2770 3770 
Q 2525 4250 2034 4250 
z
M 2034 4750 
Q 2819 4750 3233 4129 
Q 3647 3509 3647 2328 
Q 3647 1150 3233 529 
Q 2819 -91 2034 -91 
Q 1250 -91 836 529 
Q 422 1150 422 2328 
Q 422 3509 836 4129 
Q 1250 4750 2034 4750 
z
" transform="scale(0.015625)"/>
        <path id="DejaVuSans-2e" d="M 684 794 
L 1344 794 
L 1344 0 
L 684 0 
L 684 794 
z
" transform="scale(0.015625)"/>
        <path id="DejaVuSans-35" d="M 691 4666 
L 3169 4666 
L 3169 4134 
L 1269 4134 
L 1269 2991 
Q 1406 3038 1543 3061 
Q 1681 3084 1819 3084 
Q 2600 3084 3056 2656 
Q 3513 2228 3513 1497 
Q 3513 744 3044 326 
Q 2575 -91 1722 -91 
Q 1428 -91 1123 -41 
Q 819 9 494 109 
L 494 744 
Q 775 591 1075 516 
Q 1375 441 1709 441 
Q 2250 441 2565 725 
Q 2881 1009 2881 1497 
Q 2881 1984 2565 2268 
Q 2250 2553 1709 2553 
Q 1456 2553 1204 2497 
Q 953 2441 691 2322 
L 691 4666 
z
" transform="scale(0.015625)"/>
       </defs>
       <use xlink:href="#DejaVuSans-52"/>
       <use xlink:href="#DejaVuSans-61" x="67.232422"/>
       <use xlink:href="#DejaVuSans-6e" x="128.511719"/>
       <use xlink:href="#DejaVuSans-64" x="191.890625"/>
       <use xlink:href="#DejaVuSans-6f" x="255.367188"/>
       <use xlink:href="#DejaVuSans-6d" x="316.548828"/>
       <use xlink:href="#DejaVuSans-3a" x="413.960938"/>
       <use xlink:href="#DejaVuSans-20" x="447.652344"/>
       <use xlink:href="#DejaVuSans-30" x="479.439453"/>
       <use xlink:href="#DejaVuSans-2e" x="543.0625"/>
       <use xlink:href="#DejaVuSans-35" x="574.849609"/>
      </g>
     </g>
    </g>
    <g id="xtick_4">
     <g id="line2d_4">
      <g>
       <use xlink:href="#m6df7956a08" x="329.141818" y="337.97" style="stroke: #000000; stroke-width: 0.8"/>
      </g>
     </g>
     <g id="text_4">
      <!-- Adaptive -->
      <g transform="translate(331.349318 380.37875)rotate(-90)scale(0.08 -0.08)">
       <defs>
        <path id="DejaVuSans-41" d="M 2188 4044 
L 1331 1722 
L 3047 1722 
L 2188 4044 
z
M 1831 4666 
L 2547 4666 
L 4325 0 
L 3669 0 
L 3244 1197 
L 1141 1197 
L 716 0 
L 50 0 
L 1831 4666 
z
" transform="scale(0.015625)"/>
        <path id="DejaVuSans-70" d="M 1159 525 
L 1159 -1331 
L 581 -1331 
L 581 3500 
L 1159 3500 
L 1159 2969 
Q 1341 3281 1617 3432 
Q 1894 3584 2278 3584 
Q 2916 3584 3314 3078 
Q 3713 2572 3713 1747 
Q 3713 922 3314 415 
Q 2916 -91 2278 -91 
Q 1894 -91 1617 61 
Q 1341 213 1159 525 
z
M 3116 1747 
Q 3116 2381 2855 2742 
Q 2594 3103 2138 3103 
Q 1681 3103 1420 2742 
Q 1159 2381 1159 1747 
Q 1159 1113 1420 752 
Q 1681 391 2138 391 
Q 2594 391 2855 752 
Q 3116 1113 3116 1747 
z
" transform="scale(0.015625)"/>
        <path id="DejaVuSans-76" d="M 191 3500 
L 800 3500 
L 1894 563 
L 2988 3500 
L 3597 3500 
L 2284 0 
L 1503 0 
L 191 3500 
z
" transform="scale(0.015625)"/>
       </defs>
       <use xlink:href="#DejaVuSans-41"/>
       <use xlink:href="#DejaVuSans-64" x="66.658203"/>
       <use xlink:href="#DejaVuSans-61" x="130.134766"/>
       <use xlink:href="#DejaVuSans-70" x="191.414062"/>
       <use xlink:href="#DejaVuSans-74" x="254.890625"/>
       <use xlink:href="#DejaVuSans-69" x="294.099609"/>
       <use xlink:href="#DejaVuSans-76" x="321.882812"/>
       <use xlink:href="#DejaVuSans-65" x="381.0625"/>
      </g>
     </g>
    </g>
    <g id="xtick_5">
     <g id="line2d_5">
      <g>
       <use xlink:href="#m6df7956a08" x="404.007273" y="337.97" style="stroke: #000000; stroke-width: 0.8"/>
      </g>
     </g>
     <g id="text_5">
      <!-- Defector -->
      <g transform="translate(406.214773 379.51)rotate(-90)scale(0.08 -0.08)">
       <defs>
        <path id="DejaVuSans-44" d="M 1259 4147 
L 1259 519 
L 2022 519 
Q 2988 519 3436 956 
Q 3884 1394 3884 2338 
Q 3884 3275 3436 3711 
Q 2988 4147 2022 4147 
L 1259 4147 
z
M 628 4666 
L 1925 4666 
Q 3281 4666 3915 4102 
Q 4550 3538 4550 2338 
Q 4550 1131 3912 565 
Q 3275 0 1925 0 
L 628 0 
L 628 4666 
z
" transform="scale(0.015625)"/>
        <path id="DejaVuSans-66" d="M 2375 4863 
L 2375 4384 
L 1825 4384 
Q 1516 4384 1395 4259 
Q 1275 4134 1275 3809 
L 1275 3500 
L 2222 3500 
L 2222 3053 
L 1275 3053 
L 1275 0 
L 697 0 
L 697 3053 
L 147 3053 
L 147 3500 
L 697 3500 
L 697 3744 
Q 697 4328 969 4595 
Q 1241 4863 1831 4863 
L 2375 4863 
z
" transform="scale(0.015625)"/>
        <path id="DejaVuSans-63" d="M 3122 3366 
L 3122 2828 
Q 2878 2963 2633 3030 
Q 2388 3097 2138 3097 
Q 1578 3097 1268 2742 
Q 959 2388 959 1747 
Q 959 1106 1268 751 
Q 1578 397 2138 397 
Q 2388 397 2633 464 
Q 2878 531 3122 666 
L 3122 134 
Q 2881 22 2623 -34 
Q 2366 -91 2075 -91 
Q 1284 -91 818 406 
Q 353 903 353 1747 
Q 353 2603 823 3093 
Q 1294 3584 2113 3584 
Q 2378 3584 2631 3529 
Q 2884 3475 3122 3366 
z
" transform="scale(0.015625)"/>
       </defs>
       <use xlink:href="#DejaVuSans-44"/>
       <use xlink:href="#DejaVuSans-65" x="77.001953"/>
       <use xlink:href="#DejaVuSans-66" x="138.525391"/>
       <use xlink:href="#DejaVuSans-65" x="173.730469"/>
       <use xlink:href="#DejaVuSans-63" x="235.253906"/>
       <use xlink:href="#DejaVuSans-74" x="290.234375"/>
       <use xlink:href="#DejaVuSans-6f" x="329.443359"/>
       <use xlink:href="#DejaVuSans-72" x="390.625"/>
      </g>
     </g>
    </g>
    <g id="xtick_6">
     <g id="line2d_6">
      <g>
       <use xlink:href="#m6df7956a08" x="478.872727" y="337.97" style="stroke: #000000; stroke-width: 0.8"/>
      </g>
     </g>
     <g id="text_6">
      <!-- Alternator -->
      <g transform="translate(481.080227 385.165)rotate(-90)scale(0.08 -0.08)">
       <defs>
        <path id="DejaVuSans-6c" d="M 603 4863 
L 1178 4863 
L 1178 0 
L 603 0 
L 603 4863 
z
" transform="scale(0.015625)"/>
       </defs>
       <use xlink:href="#DejaVuSans-41"/>
       <use xlink:href="#DejaVuSans-6c" x="68.408203"/>
       <use xlink:href="#DejaVuSans-74" x="96.191406"/>
       <use xlink:href="#DejaVuSans-65" x="135.400391"/>
       <use xlink:href="#DejaVuSans-72" x="196.923828"/>
       <use xlink:href="#DejaVuSans-6e" x="236.287109"/>
       <use xlink:href="#DejaVuSans-61" x="299.666016"/>
       <use xlink:href="#DejaVuSans-74" x="360.945312"/>
       <use xlink:href="#DejaVuSans-6f" x="400.154297"/>
       <use xlink:href="#DejaVuSans-72" x="461.335938"/>
      </g>
     </g>
    </g>
    <g id="xtick_7">
     <g id="line2d_7">
      <g>
       <use xlink:href="#m6df7956a08" x="553.738182" y="337.97" style="stroke: #000000; stroke-width: 0.8"/>
      </g>
     </g>
     <g id="text_7">
      <!-- Deep QLearner -->
      <g transform="translate(555.945682 405.46625)rotate(-90)scale(0.08 -0.08)">
       <defs>
        <path id="DejaVuSans-51" d="M 2522 4238 
Q 1834 4238 1429 3725 
Q 1025 3213 1025 2328 
Q 1025 1447 1429 934 
Q 1834 422 2522 422 
Q 3209 422 3611 934 
Q 4013 1447 4013 2328 
Q 4013 3213 3611 3725 
Q 3209 4238 2522 4238 
z
M 3406 84 
L 4238 -825 
L 3475 -825 
L 2784 -78 
Q 2681 -84 2626 -87 
Q 2572 -91 2522 -91 
Q 1538 -91 948 567 
Q 359 1225 359 2328 
Q 359 3434 948 4092 
Q 1538 4750 2522 4750 
Q 3503 4750 4090 4092 
Q 4678 3434 4678 2328 
Q 4678 1516 4351 937 
Q 4025 359 3406 84 
z
" transform="scale(0.015625)"/>
        <path id="DejaVuSans-4c" d="M 628 4666 
L 1259 4666 
L 1259 531 
L 3531 531 
L 3531 0 
L 628 0 
L 628 4666 
z
" transform="scale(0.015625)"/>
       </defs>
       <use xlink:href="#DejaVuSans-44"/>
       <use xlink:href="#DejaVuSans-65" x="77.001953"/>
       <use xlink:href="#DejaVuSans-65" x="138.525391"/>
       <use xlink:href="#DejaVuSans-70" x="200.048828"/>
       <use xlink:href="#DejaVuSans-20" x="263.525391"/>
       <use xlink:href="#DejaVuSans-51" x="295.3125"/>
       <use xlink:href="#DejaVuSans-4c" x="374.023438"/>
       <use xlink:href="#DejaVuSans-65" x="427.986328"/>
       <use xlink:href="#DejaVuSans-61" x="489.509766"/>
       <use xlink:href="#DejaVuSans-72" x="550.789062"/>
       <use xlink:href="#DejaVuSans-6e" x="590.152344"/>
       <use xlink:href="#DejaVuSans-65" x="653.53125"/>
       <use xlink:href="#DejaVuSans-72" x="715.054688"/>
      </g>
     </g>
    </g>
    <g id="xtick_8">
     <g id="line2d_8">
      <g>
       <use xlink:href="#m6df7956a08" x="628.603636" y="337.97" style="stroke: #000000; stroke-width: 0.8"/>
      </g>
     </g>
     <g id="text_8">
      <!-- Risky QLearner -->
      <g transform="translate(630.811136 405.40875)rotate(-90)scale(0.08 -0.08)">
       <defs>
        <path id="DejaVuSans-73" d="M 2834 3397 
L 2834 2853 
Q 2591 2978 2328 3040 
Q 2066 3103 1784 3103 
Q 1356 3103 1142 2972 
Q 928 2841 928 2578 
Q 928 2378 1081 2264 
Q 1234 2150 1697 2047 
L 1894 2003 
Q 2506 1872 2764 1633 
Q 3022 1394 3022 966 
Q 3022 478 2636 193 
Q 2250 -91 1575 -91 
Q 1294 -91 989 -36 
Q 684 19 347 128 
L 347 722 
Q 666 556 975 473 
Q 1284 391 1588 391 
Q 1994 391 2212 530 
Q 2431 669 2431 922 
Q 2431 1156 2273 1281 
Q 2116 1406 1581 1522 
L 1381 1569 
Q 847 1681 609 1914 
Q 372 2147 372 2553 
Q 372 3047 722 3315 
Q 1072 3584 1716 3584 
Q 2034 3584 2315 3537 
Q 2597 3491 2834 3397 
z
" transform="scale(0.015625)"/>
        <path id="DejaVuSans-6b" d="M 581 4863 
L 1159 4863 
L 1159 1991 
L 2875 3500 
L 3609 3500 
L 1753 1863 
L 3688 0 
L 2938 0 
L 1159 1709 
L 1159 0 
L 581 0 
L 581 4863 
z
" transform="scale(0.015625)"/>
        <path id="DejaVuSans-79" d="M 2059 -325 
Q 1816 -950 1584 -1140 
Q 1353 -1331 966 -1331 
L 506 -1331 
L 506 -850 
L 844 -850 
Q 1081 -850 1212 -737 
Q 1344 -625 1503 -206 
L 1606 56 
L 191 3500 
L 800 3500 
L 1894 763 
L 2988 3500 
L 3597 3500 
L 2059 -325 
z
" transform="scale(0.015625)"/>
       </defs>
       <use xlink:href="#DejaVuSans-52"/>
       <use xlink:href="#DejaVuSans-69" x="69.482422"/>
       <use xlink:href="#DejaVuSans-73" x="97.265625"/>
       <use xlink:href="#DejaVuSans-6b" x="149.365234"/>
       <use xlink:href="#DejaVuSans-79" x="203.650391"/>
       <use xlink:href="#DejaVuSans-20" x="262.830078"/>
       <use xlink:href="#DejaVuSans-51" x="294.617188"/>
       <use xlink:href="#DejaVuSans-4c" x="373.328125"/>
       <use xlink:href="#DejaVuSans-65" x="427.291016"/>
       <use xlink:href="#DejaVuSans-61" x="488.814453"/>
       <use xlink:href="#DejaVuSans-72" x="550.09375"/>
       <use xlink:href="#DejaVuSans-6e" x="589.457031"/>
       <use xlink:href="#DejaVuSans-65" x="652.835938"/>
       <use xlink:href="#DejaVuSans-72" x="714.359375"/>
      </g>
     </g>
    </g>
    <g id="xtick_9">
     <g id="line2d_9">
      <g>
       <use xlink:href="#m6df7956a08" x="703.469091" y="337.97" style="stroke: #000000; stroke-width: 0.8"/>
      </g>
     </g>
     <g id="text_9">
      <!-- Cooperator -->
      <g transform="translate(705.676591 389.85875)rotate(-90)scale(0.08 -0.08)">
       <defs>
        <path id="DejaVuSans-43" d="M 4122 4306 
L 4122 3641 
Q 3803 3938 3442 4084 
Q 3081 4231 2675 4231 
Q 1875 4231 1450 3742 
Q 1025 3253 1025 2328 
Q 1025 1406 1450 917 
Q 1875 428 2675 428 
Q 3081 428 3442 575 
Q 3803 722 4122 1019 
L 4122 359 
Q 3791 134 3420 21 
Q 3050 -91 2638 -91 
Q 1578 -91 968 557 
Q 359 1206 359 2328 
Q 359 3453 968 4101 
Q 1578 4750 2638 4750 
Q 3056 4750 3426 4639 
Q 3797 4528 4122 4306 
z
" transform="scale(0.015625)"/>
       </defs>
       <use xlink:href="#DejaVuSans-43"/>
       <use xlink:href="#DejaVuSans-6f" x="69.824219"/>
       <use xlink:href="#DejaVuSans-6f" x="131.005859"/>
       <use xlink:href="#DejaVuSans-70" x="192.1875"/>
       <use xlink:href="#DejaVuSans-65" x="255.664062"/>
       <use xlink:href="#DejaVuSans-72" x="317.1875"/>
       <use xlink:href="#DejaVuSans-61" x="358.300781"/>
       <use xlink:href="#DejaVuSans-74" x="419.580078"/>
       <use xlink:href="#DejaVuSans-6f" x="458.789062"/>
       <use xlink:href="#DejaVuSans-72" x="519.970703"/>
      </g>
     </g>
    </g>
    <g id="xtick_10">
     <g id="line2d_10">
      <g>
       <use xlink:href="#m6df7956a08" x="778.334545" y="337.97" style="stroke: #000000; stroke-width: 0.8"/>
      </g>
     </g>
     <g id="text_10">
      <!-- Mediocre QLearner -->
      <g transform="translate(780.542045 420.83375)rotate(-90)scale(0.08 -0.08)">
       <defs>
        <path id="DejaVuSans-4d" d="M 628 4666 
L 1569 4666 
L 2759 1491 
L 3956 4666 
L 4897 4666 
L 4897 0 
L 4281 0 
L 4281 4097 
L 3078 897 
L 2444 897 
L 1241 4097 
L 1241 0 
L 628 0 
L 628 4666 
z
" transform="scale(0.015625)"/>
       </defs>
       <use xlink:href="#DejaVuSans-4d"/>
       <use xlink:href="#DejaVuSans-65" x="86.279297"/>
       <use xlink:href="#DejaVuSans-64" x="147.802734"/>
       <use xlink:href="#DejaVuSans-69" x="211.279297"/>
       <use xlink:href="#DejaVuSans-6f" x="239.0625"/>
       <use xlink:href="#DejaVuSans-63" x="300.244141"/>
       <use xlink:href="#DejaVuSans-72" x="355.224609"/>
       <use xlink:href="#DejaVuSans-65" x="394.087891"/>
       <use xlink:href="#DejaVuSans-20" x="455.611328"/>
       <use xlink:href="#DejaVuSans-51" x="487.398438"/>
       <use xlink:href="#DejaVuSans-4c" x="566.109375"/>
       <use xlink:href="#DejaVuSans-65" x="620.072266"/>
       <use xlink:href="#DejaVuSans-61" x="681.595703"/>
       <use xlink:href="#DejaVuSans-72" x="742.875"/>
       <use xlink:href="#DejaVuSans-6e" x="782.238281"/>
       <use xlink:href="#DejaVuSans-65" x="845.617188"/>
       <use xlink:href="#DejaVuSans-72" x="907.140625"/>
      </g>
     </g>
    </g>
   </g>
   <g id="matplotlib.axis_2">
    <g id="ytick_1">
     <g id="line2d_11">
      <defs>
       <path id="m9e16c8a8e6" d="M 0 0 
L -3.5 0 
" style="stroke: #000000; stroke-width: 0.8"/>
      </defs>
      <g>
       <use xlink:href="#m9e16c8a8e6" x="29.68" y="295.548636" style="stroke: #000000; stroke-width: 0.8"/>
      </g>
     </g>
     <g id="text_11">
      <!-- 4 -->
      <g transform="translate(10.88625 298.588011)scale(0.08 -0.08)">
       <defs>
        <path id="DejaVuSans-2212" d="M 678 2272 
L 4684 2272 
L 4684 1741 
L 678 1741 
L 678 2272 
z
" transform="scale(0.015625)"/>
        <path id="DejaVuSans-34" d="M 2419 4116 
L 825 1625 
L 2419 1625 
L 2419 4116 
z
M 2253 4666 
L 3047 4666 
L 3047 1625 
L 3713 1625 
L 3713 1100 
L 3047 1100 
L 3047 0 
L 2419 0 
L 2419 1100 
L 313 1100 
L 313 1709 
L 2253 4666 
z
" transform="scale(0.015625)"/>
       </defs>
       <use xlink:href="#DejaVuSans-2212"/>
       <use xlink:href="#DejaVuSans-34" x="83.789062"/>
      </g>
     </g>
    </g>
    <g id="ytick_2">
     <g id="line2d_12">
      <g>
       <use xlink:href="#m9e16c8a8e6" x="29.68" y="238.986818" style="stroke: #000000; stroke-width: 0.8"/>
      </g>
     </g>
     <g id="text_12">
      <!-- 2 -->
      <g transform="translate(10.88625 242.026193)scale(0.08 -0.08)">
       <defs>
        <path id="DejaVuSans-32" d="M 1228 531 
L 3431 531 
L 3431 0 
L 469 0 
L 469 531 
Q 828 903 1448 1529 
Q 2069 2156 2228 2338 
Q 2531 2678 2651 2914 
Q 2772 3150 2772 3378 
Q 2772 3750 2511 3984 
Q 2250 4219 1831 4219 
Q 1534 4219 1204 4116 
Q 875 4013 500 3803 
L 500 4441 
Q 881 4594 1212 4672 
Q 1544 4750 1819 4750 
Q 2544 4750 2975 4387 
Q 3406 4025 3406 3419 
Q 3406 3131 3298 2873 
Q 3191 2616 2906 2266 
Q 2828 2175 2409 1742 
Q 1991 1309 1228 531 
z
" transform="scale(0.015625)"/>
       </defs>
       <use xlink:href="#DejaVuSans-2212"/>
       <use xlink:href="#DejaVuSans-32" x="83.789062"/>
      </g>
     </g>
    </g>
    <g id="ytick_3">
     <g id="line2d_13">
      <g>
       <use xlink:href="#m9e16c8a8e6" x="29.68" y="182.425" style="stroke: #000000; stroke-width: 0.8"/>
      </g>
     </g>
     <g id="text_13">
      <!-- 0 -->
      <g transform="translate(17.59 185.464375)scale(0.08 -0.08)">
       <use xlink:href="#DejaVuSans-30"/>
      </g>
     </g>
    </g>
    <g id="ytick_4">
     <g id="line2d_14">
      <g>
       <use xlink:href="#m9e16c8a8e6" x="29.68" y="125.863182" style="stroke: #000000; stroke-width: 0.8"/>
      </g>
     </g>
     <g id="text_14">
      <!-- 2 -->
      <g transform="translate(17.59 128.902557)scale(0.08 -0.08)">
       <use xlink:href="#DejaVuSans-32"/>
      </g>
     </g>
    </g>
    <g id="ytick_5">
     <g id="line2d_15">
      <g>
       <use xlink:href="#m9e16c8a8e6" x="29.68" y="69.301364" style="stroke: #000000; stroke-width: 0.8"/>
      </g>
     </g>
     <g id="text_15">
      <!-- 4 -->
      <g transform="translate(17.59 72.340739)scale(0.08 -0.08)">
       <use xlink:href="#DejaVuSans-34"/>
      </g>
     </g>
    </g>
   </g>
   <g id="LineCollection_1">
    <path d="M 95.187273 174.294239 
L 113.903636 174.294239 
" clip-path="url(#p4fa1376c72)" style="fill: none; stroke: #1f77b4; stroke-width: 1.5"/>
    <path d="M 170.052727 182.425 
L 188.769091 182.425 
" clip-path="url(#p4fa1376c72)" style="fill: none; stroke: #1f77b4; stroke-width: 1.5"/>
    <path d="M 244.918182 182.425 
L 263.634545 182.425 
" clip-path="url(#p4fa1376c72)" style="fill: none; stroke: #1f77b4; stroke-width: 1.5"/>
    <path d="M 319.783636 166.8705 
L 338.5 166.8705 
" clip-path="url(#p4fa1376c72)" style="fill: none; stroke: #1f77b4; stroke-width: 1.5"/>
    <path d="M 394.649091 166.516989 
L 413.365455 166.516989 
" clip-path="url(#p4fa1376c72)" style="fill: none; stroke: #1f77b4; stroke-width: 1.5"/>
    <path d="M 469.514545 182.071489 
L 488.230909 182.071489 
" clip-path="url(#p4fa1376c72)" style="fill: none; stroke: #1f77b4; stroke-width: 1.5"/>
    <path d="M 544.38 182.425 
L 563.096364 182.425 
" clip-path="url(#p4fa1376c72)" style="fill: none; stroke: #1f77b4; stroke-width: 1.5"/>
    <path d="M 619.245455 197.9795 
L 637.961818 197.9795 
" clip-path="url(#p4fa1376c72)" style="fill: none; stroke: #1f77b4; stroke-width: 1.5"/>
    <path d="M 694.110909 190.20225 
L 712.827273 190.20225 
" clip-path="url(#p4fa1376c72)" style="fill: none; stroke: #1f77b4; stroke-width: 1.5"/>
    <path d="M 768.976364 197.9795 
L 787.692727 197.9795 
" clip-path="url(#p4fa1376c72)" style="fill: none; stroke: #1f77b4; stroke-width: 1.5"/>
   </g>
   <g id="patch_3">
    <path d="M 29.68 337.97 
L 29.68 26.88 
" style="fill: none; stroke: #000000; stroke-width: 0.8; stroke-linejoin: miter; stroke-linecap: square"/>
   </g>
   <g id="patch_4">
    <path d="M 853.2 337.97 
L 853.2 26.88 
" style="fill: none; stroke: #000000; stroke-width: 0.8; stroke-linejoin: miter; stroke-linecap: square"/>
   </g>
   <g id="patch_5">
    <path d="M 29.68 337.97 
L 853.2 337.97 
" style="fill: none; stroke: #000000; stroke-width: 0.8; stroke-linejoin: miter; stroke-linecap: square"/>
   </g>
   <g id="patch_6">
    <path d="M 29.68 26.88 
L 853.2 26.88 
" style="fill: none; stroke: #000000; stroke-width: 0.8; stroke-linejoin: miter; stroke-linecap: square"/>
   </g>
   <g id="text_16">
    <!-- Payoff differences - turns: 200, repetitions: 20, strategies: 10.  -->
    <g transform="translate(254.235313 20.88)scale(0.12 -0.12)">
     <defs>
      <path id="DejaVuSans-50" d="M 1259 4147 
L 1259 2394 
L 2053 2394 
Q 2494 2394 2734 2622 
Q 2975 2850 2975 3272 
Q 2975 3691 2734 3919 
Q 2494 4147 2053 4147 
L 1259 4147 
z
M 628 4666 
L 2053 4666 
Q 2838 4666 3239 4311 
Q 3641 3956 3641 3272 
Q 3641 2581 3239 2228 
Q 2838 1875 2053 1875 
L 1259 1875 
L 1259 0 
L 628 0 
L 628 4666 
z
" transform="scale(0.015625)"/>
      <path id="DejaVuSans-2d" d="M 313 2009 
L 1997 2009 
L 1997 1497 
L 313 1497 
L 313 2009 
z
" transform="scale(0.015625)"/>
      <path id="DejaVuSans-2c" d="M 750 794 
L 1409 794 
L 1409 256 
L 897 -744 
L 494 -744 
L 750 256 
L 750 794 
z
" transform="scale(0.015625)"/>
      <path id="DejaVuSans-31" d="M 794 531 
L 1825 531 
L 1825 4091 
L 703 3866 
L 703 4441 
L 1819 4666 
L 2450 4666 
L 2450 531 
L 3481 531 
L 3481 0 
L 794 0 
L 794 531 
z
" transform="scale(0.015625)"/>
     </defs>
     <use xlink:href="#DejaVuSans-50"/>
     <use xlink:href="#DejaVuSans-61" x="55.802734"/>
     <use xlink:href="#DejaVuSans-79" x="117.082031"/>
     <use xlink:href="#DejaVuSans-6f" x="176.261719"/>
     <use xlink:href="#DejaVuSans-66" x="237.443359"/>
     <use xlink:href="#DejaVuSans-66" x="272.648438"/>
     <use xlink:href="#DejaVuSans-20" x="307.853516"/>
     <use xlink:href="#DejaVuSans-64" x="339.640625"/>
     <use xlink:href="#DejaVuSans-69" x="403.117188"/>
     <use xlink:href="#DejaVuSans-66" x="430.900391"/>
     <use xlink:href="#DejaVuSans-66" x="466.105469"/>
     <use xlink:href="#DejaVuSans-65" x="501.310547"/>
     <use xlink:href="#DejaVuSans-72" x="562.833984"/>
     <use xlink:href="#DejaVuSans-65" x="601.697266"/>
     <use xlink:href="#DejaVuSans-6e" x="663.220703"/>
     <use xlink:href="#DejaVuSans-63" x="726.599609"/>
     <use xlink:href="#DejaVuSans-65" x="781.580078"/>
     <use xlink:href="#DejaVuSans-73" x="843.103516"/>
     <use xlink:href="#DejaVuSans-20" x="895.203125"/>
     <use xlink:href="#DejaVuSans-2d" x="926.990234"/>
     <use xlink:href="#DejaVuSans-20" x="963.074219"/>
     <use xlink:href="#DejaVuSans-74" x="994.861328"/>
     <use xlink:href="#DejaVuSans-75" x="1034.070312"/>
     <use xlink:href="#DejaVuSans-72" x="1097.449219"/>
     <use xlink:href="#DejaVuSans-6e" x="1136.8125"/>
     <use xlink:href="#DejaVuSans-73" x="1200.191406"/>
     <use xlink:href="#DejaVuSans-3a" x="1252.291016"/>
     <use xlink:href="#DejaVuSans-20" x="1285.982422"/>
     <use xlink:href="#DejaVuSans-32" x="1317.769531"/>
     <use xlink:href="#DejaVuSans-30" x="1381.392578"/>
     <use xlink:href="#DejaVuSans-30" x="1445.015625"/>
     <use xlink:href="#DejaVuSans-2c" x="1508.638672"/>
     <use xlink:href="#DejaVuSans-20" x="1540.425781"/>
     <use xlink:href="#DejaVuSans-72" x="1572.212891"/>
     <use xlink:href="#DejaVuSans-65" x="1611.076172"/>
     <use xlink:href="#DejaVuSans-70" x="1672.599609"/>
     <use xlink:href="#DejaVuSans-65" x="1736.076172"/>
     <use xlink:href="#DejaVuSans-74" x="1797.599609"/>
     <use xlink:href="#DejaVuSans-69" x="1836.808594"/>
     <use xlink:href="#DejaVuSans-74" x="1864.591797"/>
     <use xlink:href="#DejaVuSans-69" x="1903.800781"/>
     <use xlink:href="#DejaVuSans-6f" x="1931.583984"/>
     <use xlink:href="#DejaVuSans-6e" x="1992.765625"/>
     <use xlink:href="#DejaVuSans-73" x="2056.144531"/>
     <use xlink:href="#DejaVuSans-3a" x="2108.244141"/>
     <use xlink:href="#DejaVuSans-20" x="2141.935547"/>
     <use xlink:href="#DejaVuSans-32" x="2173.722656"/>
     <use xlink:href="#DejaVuSans-30" x="2237.345703"/>
     <use xlink:href="#DejaVuSans-2c" x="2300.96875"/>
     <use xlink:href="#DejaVuSans-20" x="2332.755859"/>
     <use xlink:href="#DejaVuSans-73" x="2364.542969"/>
     <use xlink:href="#DejaVuSans-74" x="2416.642578"/>
     <use xlink:href="#DejaVuSans-72" x="2455.851562"/>
     <use xlink:href="#DejaVuSans-61" x="2496.964844"/>
     <use xlink:href="#DejaVuSans-74" x="2558.244141"/>
     <use xlink:href="#DejaVuSans-65" x="2597.453125"/>
     <use xlink:href="#DejaVuSans-67" x="2658.976562"/>
     <use xlink:href="#DejaVuSans-69" x="2722.453125"/>
     <use xlink:href="#DejaVuSans-65" x="2750.236328"/>
     <use xlink:href="#DejaVuSans-73" x="2811.759766"/>
     <use xlink:href="#DejaVuSans-3a" x="2863.859375"/>
     <use xlink:href="#DejaVuSans-20" x="2897.550781"/>
     <use xlink:href="#DejaVuSans-31" x="2929.337891"/>
     <use xlink:href="#DejaVuSans-30" x="2992.960938"/>
     <use xlink:href="#DejaVuSans-2e" x="3056.583984"/>
     <use xlink:href="#DejaVuSans-20" x="3088.371094"/>
    </g>
   </g>
  </g>
 </g>
 <defs>
  <clipPath id="p4fa1376c72">
   <rect x="29.68" y="26.88" width="823.52" height="311.09"/>
  </clipPath>
 </defs>
</svg>
