<?xml version="1.0" encoding="utf-8" standalone="no"?>
<!DOCTYPE svg PUBLIC "-//W3C//DTD SVG 1.1//EN"
  "http://www.w3.org/Graphics/SVG/1.1/DTD/svg11.dtd">
<svg xmlns:xlink="http://www.w3.org/1999/xlink" width="864pt" height="432pt" viewBox="0 0 864 432" xmlns="http://www.w3.org/2000/svg" version="1.1">
 <metadata>
  <rdf:RDF xmlns:dc="http://purl.org/dc/elements/1.1/" xmlns:cc="http://creativecommons.org/ns#" xmlns:rdf="http://www.w3.org/1999/02/22-rdf-syntax-ns#">
   <cc:Work>
    <dc:type rdf:resource="http://purl.org/dc/dcmitype/StillImage"/>
    <dc:date>2022-09-26T23:55:18.384209</dc:date>
    <dc:format>image/svg+xml</dc:format>
    <dc:creator>
     <cc:Agent>
      <dc:title>Matplotlib v3.5.1, https://matplotlib.org/</dc:title>
     </cc:Agent>
    </dc:creator>
   </cc:Work>
  </rdf:RDF>
 </metadata>
 <defs>
  <style type="text/css">*{stroke-linejoin: round; stroke-linecap: butt}</style>
 </defs>
 <g id="figure_1">
  <g id="patch_1">
   <path d="M 0 432 
L 864 432 
L 864 0 
L 0 0 
z
" style="fill: #ffffff"/>
  </g>
  <g id="axes_1">
   <g id="patch_2">
    <path d="M 22.93 337.97 
L 853.2 337.97 
L 853.2 26.88 
L 22.93 26.88 
z
" style="fill: #ffffff"/>
   </g>
   <g id="PolyCollection_1">
    <path d="M 117.278864 42.4345 
L 79.539318 42.4345 
L 79.539318 42.4345 
L 79.539318 42.4345 
L 79.539318 42.4345 
L 79.539318 42.4345 
L 79.539318 42.4345 
L 79.539318 42.4345 
L 79.539318 42.4345 
L 79.539318 42.4345 
L 79.539318 42.4345 
L 79.539318 42.4345 
L 79.539318 42.4345 
L 79.539318 42.4345 
L 79.539318 42.4345 
L 79.539318 42.4345 
L 79.539318 42.4345 
L 79.539318 42.4345 
L 79.539318 42.4345 
L 79.539318 42.4345 
L 79.539318 42.4345 
L 79.539318 42.4345 
L 79.539318 42.4345 
L 79.539318 42.4345 
L 79.539318 42.4345 
L 79.539318 42.4345 
L 79.539318 42.4345 
L 79.539318 42.4345 
L 79.539318 42.4345 
L 79.539318 42.4345 
L 79.539318 42.4345 
L 79.539318 42.4345 
L 79.539318 42.4345 
L 79.539318 42.4345 
L 79.539318 42.4345 
L 79.539318 42.4345 
L 79.539318 42.4345 
L 79.539318 42.4345 
L 79.539318 42.4345 
L 79.539318 42.4345 
L 79.539318 42.4345 
L 79.539318 42.4345 
L 79.539318 42.4345 
L 79.539318 42.4345 
L 79.539318 42.4345 
L 79.539318 42.4345 
L 79.539318 42.4345 
L 79.539318 42.4345 
L 79.539318 42.4345 
L 79.539318 42.4345 
L 79.539318 42.4345 
L 79.539318 42.4345 
L 79.539318 42.4345 
L 79.539318 42.4345 
L 79.539318 42.4345 
L 79.539318 42.4345 
L 79.539318 42.4345 
L 79.539318 42.4345 
L 79.539318 42.4345 
L 79.539318 42.4345 
L 79.539318 42.4345 
L 79.539318 42.4345 
L 79.539318 42.4345 
L 79.539318 42.4345 
L 79.539318 42.4345 
L 79.539318 42.4345 
L 79.539318 42.4345 
L 79.539318 42.4345 
L 79.539318 42.4345 
L 79.539318 42.4345 
L 79.539318 42.4345 
L 79.539318 42.4345 
L 79.539318 42.4345 
L 79.539318 42.4345 
L 79.539318 42.4345 
L 79.539318 42.4345 
L 79.539318 42.4345 
L 79.539318 42.4345 
L 79.539318 42.4345 
L 79.539318 42.4345 
L 79.539318 42.4345 
L 79.539318 42.4345 
L 79.539318 42.4345 
L 79.539318 42.4345 
L 79.539318 42.4345 
L 79.539318 42.4345 
L 79.539318 42.4345 
L 79.539318 42.4345 
L 79.539318 42.4345 
L 79.539318 42.4345 
L 79.539318 42.4345 
L 79.539318 42.4345 
L 79.539318 42.4345 
L 79.539318 42.4345 
L 79.539318 42.4345 
L 79.539318 42.4345 
L 79.539318 42.4345 
L 79.539318 42.4345 
L 79.539318 42.4345 
L 79.539318 42.4345 
L 79.539318 42.4345 
L 117.278864 42.4345 
L 117.278864 42.4345 
L 117.278864 42.4345 
L 117.278864 42.4345 
L 117.278864 42.4345 
L 117.278864 42.4345 
L 117.278864 42.4345 
L 117.278864 42.4345 
L 117.278864 42.4345 
L 117.278864 42.4345 
L 117.278864 42.4345 
L 117.278864 42.4345 
L 117.278864 42.4345 
L 117.278864 42.4345 
L 117.278864 42.4345 
L 117.278864 42.4345 
L 117.278864 42.4345 
L 117.278864 42.4345 
L 117.278864 42.4345 
L 117.278864 42.4345 
L 117.278864 42.4345 
L 117.278864 42.4345 
L 117.278864 42.4345 
L 117.278864 42.4345 
L 117.278864 42.4345 
L 117.278864 42.4345 
L 117.278864 42.4345 
L 117.278864 42.4345 
L 117.278864 42.4345 
L 117.278864 42.4345 
L 117.278864 42.4345 
L 117.278864 42.4345 
L 117.278864 42.4345 
L 117.278864 42.4345 
L 117.278864 42.4345 
L 117.278864 42.4345 
L 117.278864 42.4345 
L 117.278864 42.4345 
L 117.278864 42.4345 
L 117.278864 42.4345 
L 117.278864 42.4345 
L 117.278864 42.4345 
L 117.278864 42.4345 
L 117.278864 42.4345 
L 117.278864 42.4345 
L 117.278864 42.4345 
L 117.278864 42.4345 
L 117.278864 42.4345 
L 117.278864 42.4345 
L 117.278864 42.4345 
L 117.278864 42.4345 
L 117.278864 42.4345 
L 117.278864 42.4345 
L 117.278864 42.4345 
L 117.278864 42.4345 
L 117.278864 42.4345 
L 117.278864 42.4345 
L 117.278864 42.4345 
L 117.278864 42.4345 
L 117.278864 42.4345 
L 117.278864 42.4345 
L 117.278864 42.4345 
L 117.278864 42.4345 
L 117.278864 42.4345 
L 117.278864 42.4345 
L 117.278864 42.4345 
L 117.278864 42.4345 
L 117.278864 42.4345 
L 117.278864 42.4345 
L 117.278864 42.4345 
L 117.278864 42.4345 
L 117.278864 42.4345 
L 117.278864 42.4345 
L 117.278864 42.4345 
L 117.278864 42.4345 
L 117.278864 42.4345 
L 117.278864 42.4345 
L 117.278864 42.4345 
L 117.278864 42.4345 
L 117.278864 42.4345 
L 117.278864 42.4345 
L 117.278864 42.4345 
L 117.278864 42.4345 
L 117.278864 42.4345 
L 117.278864 42.4345 
L 117.278864 42.4345 
L 117.278864 42.4345 
L 117.278864 42.4345 
L 117.278864 42.4345 
L 117.278864 42.4345 
L 117.278864 42.4345 
L 117.278864 42.4345 
L 117.278864 42.4345 
L 117.278864 42.4345 
L 117.278864 42.4345 
L 117.278864 42.4345 
L 117.278864 42.4345 
L 117.278864 42.4345 
L 117.278864 42.4345 
L 117.278864 42.4345 
L 117.278864 42.4345 
z
" clip-path="url(#pb7e8430828)" style="fill: #1f77b4; fill-opacity: 0.3"/>
   </g>
   <g id="PolyCollection_2">
    <path d="M 174.881328 166.8705 
L 172.895036 166.8705 
L 172.898389 166.556268 
L 172.90838 166.242035 
L 172.924808 165.927803 
L 172.947345 165.613571 
L 172.975549 165.299338 
L 173.008874 164.985106 
L 173.046694 164.670874 
L 173.088315 164.356641 
L 173.133002 164.042409 
L 173.179999 163.728177 
L 173.228547 163.413944 
L 173.277909 163.099712 
L 173.327383 162.78548 
L 173.37632 162.471247 
L 173.424136 162.157015 
L 173.470321 161.842783 
L 173.514445 161.528551 
L 173.556163 161.214318 
L 173.595213 160.900086 
L 173.631413 160.585854 
L 173.664656 160.271621 
L 173.694908 159.957389 
L 173.722191 159.643157 
L 173.746584 159.328924 
L 173.768207 159.014692 
L 173.787212 158.70046 
L 173.80378 158.386227 
L 173.818105 158.071995 
L 173.83039 157.757763 
L 173.840842 157.44353 
L 173.849665 157.129298 
L 173.857053 156.815066 
L 173.863192 156.500833 
L 173.868253 156.186601 
L 173.872392 155.872369 
L 173.875748 155.558136 
L 173.878448 155.243904 
L 173.880597 154.929672 
L 173.882288 154.615439 
L 173.883599 154.301207 
L 173.884591 153.986975 
L 173.885314 153.672742 
L 173.885802 153.35851 
L 173.886077 153.044278 
L 173.886143 152.730045 
L 173.885993 152.415813 
L 173.8856 152.101581 
L 173.884916 151.787348 
L 173.883868 151.473116 
L 173.882354 151.158884 
L 173.880234 150.844652 
L 173.877324 150.530419 
L 173.873383 150.216187 
L 173.868099 149.901955 
L 173.861081 149.587722 
L 173.851834 149.27349 
L 173.839745 148.959258 
L 173.824061 148.645025 
L 173.803863 148.330793 
L 173.778045 148.016561 
L 173.745289 147.702328 
L 173.704039 147.388096 
L 173.652479 147.073864 
L 173.588514 146.759631 
L 173.509758 146.445399 
L 173.413526 146.131167 
L 173.296834 145.816934 
L 173.156421 145.502702 
L 172.98877 145.18847 
L 172.790161 144.874237 
L 172.556732 144.560005 
L 172.28456 144.245773 
L 171.96977 143.93154 
L 171.608657 143.617308 
L 171.197828 143.303076 
L 170.73436 142.988843 
L 170.215971 142.674611 
L 169.641197 142.360379 
L 169.009569 142.046146 
L 168.321778 141.731914 
L 167.579833 141.417682 
L 166.787184 141.103449 
L 165.948818 140.789217 
L 165.071308 140.474985 
L 164.16281 140.160753 
L 163.23301 139.84652 
L 162.293005 139.532288 
L 161.355128 139.218056 
L 160.432705 138.903823 
L 159.539767 138.589591 
L 158.690707 138.275359 
L 157.899909 137.961126 
L 157.181341 137.646894 
L 156.548155 137.332662 
L 156.012284 137.018429 
L 155.584073 136.704197 
L 155.271942 136.389965 
L 155.082114 136.075732 
L 155.018409 135.7615 
L 192.757955 135.7615 
L 192.757955 135.7615 
L 192.694249 136.075732 
L 192.504422 136.389965 
L 192.192291 136.704197 
L 191.764079 137.018429 
L 191.228209 137.332662 
L 190.595023 137.646894 
L 189.876455 137.961126 
L 189.085656 138.275359 
L 188.236597 138.589591 
L 187.343659 138.903823 
L 186.421236 139.218056 
L 185.483358 139.532288 
L 184.543354 139.84652 
L 183.613554 140.160753 
L 182.705056 140.474985 
L 181.827545 140.789217 
L 180.98918 141.103449 
L 180.196531 141.417682 
L 179.454586 141.731914 
L 178.766795 142.046146 
L 178.135166 142.360379 
L 177.560393 142.674611 
L 177.042004 142.988843 
L 176.578536 143.303076 
L 176.167707 143.617308 
L 175.806594 143.93154 
L 175.491804 144.245773 
L 175.219632 144.560005 
L 174.986202 144.874237 
L 174.787594 145.18847 
L 174.619943 145.502702 
L 174.47953 145.816934 
L 174.362838 146.131167 
L 174.266605 146.445399 
L 174.18785 146.759631 
L 174.123885 147.073864 
L 174.072325 147.388096 
L 174.031074 147.702328 
L 173.998318 148.016561 
L 173.972501 148.330793 
L 173.952303 148.645025 
L 173.936618 148.959258 
L 173.92453 149.27349 
L 173.915283 149.587722 
L 173.908264 149.901955 
L 173.902981 150.216187 
L 173.899039 150.530419 
L 173.896129 150.844652 
L 173.89401 151.158884 
L 173.892496 151.473116 
L 173.891448 151.787348 
L 173.890764 152.101581 
L 173.89037 152.415813 
L 173.89022 152.730045 
L 173.890287 153.044278 
L 173.890561 153.35851 
L 173.891049 153.672742 
L 173.891772 153.986975 
L 173.892765 154.301207 
L 173.894076 154.615439 
L 173.895767 154.929672 
L 173.897916 155.243904 
L 173.900615 155.558136 
L 173.903972 155.872369 
L 173.908111 156.186601 
L 173.913171 156.500833 
L 173.91931 156.815066 
L 173.926699 157.129298 
L 173.935521 157.44353 
L 173.945974 157.757763 
L 173.958259 158.071995 
L 173.972583 158.386227 
L 173.989151 158.70046 
L 174.008157 159.014692 
L 174.02978 159.328924 
L 174.054173 159.643157 
L 174.081456 159.957389 
L 174.111707 160.271621 
L 174.144951 160.585854 
L 174.18115 160.900086 
L 174.2202 161.214318 
L 174.261919 161.528551 
L 174.306043 161.842783 
L 174.352228 162.157015 
L 174.400044 162.471247 
L 174.44898 162.78548 
L 174.498454 163.099712 
L 174.547816 163.413944 
L 174.596365 163.728177 
L 174.643362 164.042409 
L 174.688049 164.356641 
L 174.72967 164.670874 
L 174.767489 164.985106 
L 174.800815 165.299338 
L 174.829019 165.613571 
L 174.851556 165.927803 
L 174.867984 166.242035 
L 174.877975 166.556268 
L 174.881328 166.8705 
z
" clip-path="url(#pb7e8430828)" style="fill: #1f77b4; fill-opacity: 0.3"/>
   </g>
   <g id="PolyCollection_3">
    <path d="M 260.448137 197.9795 
L 238.286408 197.9795 
L 238.282743 197.351035 
L 238.318986 196.722571 
L 238.393442 196.094106 
L 238.503772 195.465641 
L 238.647014 194.837177 
L 238.819627 194.208712 
L 239.017527 193.580247 
L 239.23615 192.951783 
L 239.470516 192.323318 
L 239.715298 191.694854 
L 239.964906 191.066389 
L 240.213569 190.437924 
L 240.455423 189.80946 
L 240.684598 189.180995 
L 240.895314 188.55253 
L 241.081967 187.924066 
L 241.239219 187.295601 
L 241.362081 186.667136 
L 241.445998 186.038672 
L 241.486924 185.410207 
L 241.481392 184.781742 
L 241.42658 184.153278 
L 241.320362 183.524813 
L 241.161364 182.896348 
L 240.948997 182.267884 
L 240.683485 181.639419 
L 240.365887 181.010955 
L 239.998102 180.38249 
L 239.58286 179.754025 
L 239.12371 179.125561 
L 238.624983 178.497096 
L 238.091752 177.868631 
L 237.529773 177.240167 
L 236.945412 176.611702 
L 236.345566 175.983237 
L 235.737567 175.354773 
L 235.129076 174.726308 
L 234.527968 174.097843 
L 233.942213 173.469379 
L 233.37975 172.840914 
L 232.848354 172.212449 
L 232.355509 171.583985 
L 231.908282 170.95552 
L 231.513202 170.327056 
L 231.176144 169.698591 
L 230.90223 169.070126 
L 230.695739 168.441662 
L 230.560032 167.813197 
L 230.4975 167.184732 
L 230.509526 166.556268 
L 230.596466 165.927803 
L 230.757655 165.299338 
L 230.991429 164.670874 
L 231.29517 164.042409 
L 231.665364 163.413944 
L 232.097682 162.78548 
L 232.587068 162.157015 
L 233.12785 161.528551 
L 233.713847 160.900086 
L 234.33849 160.271621 
L 234.994947 159.643157 
L 235.676247 159.014692 
L 236.375395 158.386227 
L 237.085496 157.757763 
L 237.799854 157.129298 
L 238.512077 156.500833 
L 239.216161 155.872369 
L 239.906561 155.243904 
L 240.578259 154.615439 
L 241.226802 153.986975 
L 241.848341 153.35851 
L 242.439645 152.730045 
L 242.998109 152.101581 
L 243.521749 151.473116 
L 244.00918 150.844652 
L 244.459594 150.216187 
L 244.872722 149.587722 
L 245.248793 148.959258 
L 245.588487 148.330793 
L 245.892887 147.702328 
L 246.163422 147.073864 
L 246.401818 146.445399 
L 246.61004 145.816934 
L 246.790246 145.18847 
L 246.944729 144.560005 
L 247.075875 143.93154 
L 247.186119 143.303076 
L 247.277901 142.674611 
L 247.35363 142.046146 
L 247.415655 141.417682 
L 247.466233 140.789217 
L 247.507504 140.160753 
L 247.541476 139.532288 
L 247.570002 138.903823 
L 247.594772 138.275359 
L 247.617304 137.646894 
L 247.638936 137.018429 
L 247.660825 136.389965 
L 247.683948 135.7615 
L 251.050597 135.7615 
L 251.050597 135.7615 
L 251.07372 136.389965 
L 251.095609 137.018429 
L 251.117241 137.646894 
L 251.139773 138.275359 
L 251.164543 138.903823 
L 251.193069 139.532288 
L 251.227041 140.160753 
L 251.268313 140.789217 
L 251.31889 141.417682 
L 251.380915 142.046146 
L 251.456645 142.674611 
L 251.548426 143.303076 
L 251.65867 143.93154 
L 251.789817 144.560005 
L 251.9443 145.18847 
L 252.124505 145.816934 
L 252.332728 146.445399 
L 252.571124 147.073864 
L 252.841659 147.702328 
L 253.146059 148.330793 
L 253.485753 148.959258 
L 253.861824 149.587722 
L 254.274951 150.216187 
L 254.725365 150.844652 
L 255.212796 151.473116 
L 255.736436 152.101581 
L 256.294901 152.730045 
L 256.886205 153.35851 
L 257.507743 153.986975 
L 258.156287 154.615439 
L 258.827984 155.243904 
L 259.518385 155.872369 
L 260.222468 156.500833 
L 260.934691 157.129298 
L 261.649049 157.757763 
L 262.35915 158.386227 
L 263.058299 159.014692 
L 263.739598 159.643157 
L 264.396056 160.271621 
L 265.020699 160.900086 
L 265.606695 161.528551 
L 266.147477 162.157015 
L 266.636864 162.78548 
L 267.069181 163.413944 
L 267.439375 164.042409 
L 267.743116 164.670874 
L 267.976891 165.299338 
L 268.13808 165.927803 
L 268.22502 166.556268 
L 268.237045 167.184732 
L 268.174514 167.813197 
L 268.038807 168.441662 
L 267.832315 169.070126 
L 267.558401 169.698591 
L 267.221343 170.327056 
L 266.826263 170.95552 
L 266.379037 171.583985 
L 265.886192 172.212449 
L 265.354795 172.840914 
L 264.792332 173.469379 
L 264.206578 174.097843 
L 263.60547 174.726308 
L 262.996978 175.354773 
L 262.388979 175.983237 
L 261.789134 176.611702 
L 261.204773 177.240167 
L 260.642793 177.868631 
L 260.109563 178.497096 
L 259.610836 179.125561 
L 259.151686 179.754025 
L 258.736444 180.38249 
L 258.368658 181.010955 
L 258.051061 181.639419 
L 257.785549 182.267884 
L 257.573181 182.896348 
L 257.414183 183.524813 
L 257.307966 184.153278 
L 257.253153 184.781742 
L 257.247621 185.410207 
L 257.288547 186.038672 
L 257.372465 186.667136 
L 257.495327 187.295601 
L 257.652578 187.924066 
L 257.839231 188.55253 
L 258.049947 189.180995 
L 258.279123 189.80946 
L 258.520976 190.437924 
L 258.769639 191.066389 
L 259.019248 191.694854 
L 259.26403 192.323318 
L 259.498395 192.951783 
L 259.717019 193.580247 
L 259.914919 194.208712 
L 260.087531 194.837177 
L 260.230774 195.465641 
L 260.341103 196.094106 
L 260.415559 196.722571 
L 260.451803 197.351035 
L 260.448137 197.9795 
z
" clip-path="url(#pb7e8430828)" style="fill: #1f77b4; fill-opacity: 0.3"/>
   </g>
   <g id="PolyCollection_4">
    <path d="M 328.548685 197.9795 
L 321.144042 197.9795 
L 321.09319 197.351035 
L 321.044994 196.722571 
L 320.998289 196.094106 
L 320.951736 195.465641 
L 320.903826 194.837177 
L 320.852896 194.208712 
L 320.79714 193.580247 
L 320.734632 192.951783 
L 320.663347 192.323318 
L 320.581183 191.694854 
L 320.485992 191.066389 
L 320.375611 190.437924 
L 320.247896 189.80946 
L 320.100754 189.180995 
L 319.932186 188.55253 
L 319.740321 187.924066 
L 319.523454 187.295601 
L 319.280091 186.667136 
L 319.008981 186.038672 
L 318.709155 185.410207 
L 318.379962 184.781742 
L 318.021099 184.153278 
L 317.63264 183.524813 
L 317.215061 182.896348 
L 316.769257 182.267884 
L 316.296556 181.639419 
L 315.798727 181.010955 
L 315.277978 180.38249 
L 314.736951 179.754025 
L 314.178705 179.125561 
L 313.606696 178.497096 
L 313.024743 177.868631 
L 312.436996 177.240167 
L 311.847884 176.611702 
L 311.262069 175.983237 
L 310.684381 175.354773 
L 310.119762 174.726308 
L 309.573192 174.097843 
L 309.049621 173.469379 
L 308.553893 172.840914 
L 308.090673 172.212449 
L 307.664374 171.583985 
L 307.279082 170.95552 
L 306.938493 170.327056 
L 306.645846 169.698591 
L 306.403864 169.070126 
L 306.214711 168.441662 
L 306.079943 167.813197 
L 306.000482 167.184732 
L 305.976591 166.556268 
L 306.007864 165.927803 
L 306.093225 165.299338 
L 306.230944 164.670874 
L 306.418652 164.042409 
L 306.653379 163.413944 
L 306.931593 162.78548 
L 307.249258 162.157015 
L 307.601886 161.528551 
L 307.984613 160.900086 
L 308.392265 160.271621 
L 308.819441 159.643157 
L 309.260591 159.014692 
L 309.7101 158.386227 
L 310.162372 157.757763 
L 310.611909 157.129298 
L 311.053394 156.500833 
L 311.48176 155.872369 
L 311.89227 155.243904 
L 312.280572 154.615439 
L 312.642762 153.986975 
L 312.975432 153.35851 
L 313.275712 152.730045 
L 313.541302 152.101581 
L 313.770493 151.473116 
L 313.962185 150.844652 
L 314.115891 150.216187 
L 314.231726 149.587722 
L 314.310404 148.959258 
L 314.353205 148.330793 
L 314.361953 147.702328 
L 314.338972 147.073864 
L 314.287045 146.445399 
L 314.20936 145.816934 
L 314.109459 145.18847 
L 313.991172 144.560005 
L 313.858556 143.93154 
L 313.715832 143.303076 
L 313.567312 142.674611 
L 313.417336 142.046146 
L 313.270207 141.417682 
L 313.130122 140.789217 
L 313.001114 140.160753 
L 312.886993 139.532288 
L 312.791293 138.903823 
L 312.717228 138.275359 
L 312.667646 137.646894 
L 312.644995 137.018429 
L 312.651301 136.389965 
L 312.688144 135.7615 
L 337.004583 135.7615 
L 337.004583 135.7615 
L 337.041426 136.389965 
L 337.047732 137.018429 
L 337.025082 137.646894 
L 336.975499 138.275359 
L 336.901434 138.903823 
L 336.805735 139.532288 
L 336.691614 140.160753 
L 336.562605 140.789217 
L 336.42252 141.417682 
L 336.275391 142.046146 
L 336.125416 142.674611 
L 335.976895 143.303076 
L 335.834171 143.93154 
L 335.701555 144.560005 
L 335.583268 145.18847 
L 335.483367 145.816934 
L 335.405683 146.445399 
L 335.353755 147.073864 
L 335.330774 147.702328 
L 335.339522 148.330793 
L 335.382323 148.959258 
L 335.461001 149.587722 
L 335.576837 150.216187 
L 335.730542 150.844652 
L 335.922234 151.473116 
L 336.151426 152.101581 
L 336.417015 152.730045 
L 336.717295 153.35851 
L 337.049966 153.986975 
L 337.412156 154.615439 
L 337.800457 155.243904 
L 338.210967 155.872369 
L 338.639334 156.500833 
L 339.080818 157.129298 
L 339.530355 157.757763 
L 339.982627 158.386227 
L 340.432137 159.014692 
L 340.873287 159.643157 
L 341.300462 160.271621 
L 341.708114 160.900086 
L 342.090841 161.528551 
L 342.443469 162.157015 
L 342.761134 162.78548 
L 343.039349 163.413944 
L 343.274075 164.042409 
L 343.461783 164.670874 
L 343.599502 165.299338 
L 343.684864 165.927803 
L 343.716136 166.556268 
L 343.692245 167.184732 
L 343.612784 167.813197 
L 343.478016 168.441662 
L 343.288863 169.070126 
L 343.046882 169.698591 
L 342.754234 170.327056 
L 342.413645 170.95552 
L 342.028354 171.583985 
L 341.602054 172.212449 
L 341.138834 172.840914 
L 340.643106 173.469379 
L 340.119535 174.097843 
L 339.572966 174.726308 
L 339.008346 175.354773 
L 338.430659 175.983237 
L 337.844843 176.611702 
L 337.255731 177.240167 
L 336.667984 177.868631 
L 336.086032 178.497096 
L 335.514022 179.125561 
L 334.955777 179.754025 
L 334.414749 180.38249 
L 333.894001 181.010955 
L 333.396172 181.639419 
L 332.923471 182.267884 
L 332.477667 182.896348 
L 332.060087 183.524813 
L 331.671629 184.153278 
L 331.312766 184.781742 
L 330.983572 185.410207 
L 330.683746 186.038672 
L 330.412636 186.667136 
L 330.169273 187.295601 
L 329.952407 187.924066 
L 329.760541 188.55253 
L 329.591973 189.180995 
L 329.444831 189.80946 
L 329.317116 190.437924 
L 329.206735 191.066389 
L 329.111544 191.694854 
L 329.02938 192.323318 
L 328.958095 192.951783 
L 328.895587 193.580247 
L 328.839832 194.208712 
L 328.788901 194.837177 
L 328.740991 195.465641 
L 328.694438 196.094106 
L 328.647733 196.722571 
L 328.599537 197.351035 
L 328.548685 197.9795 
z
" clip-path="url(#pb7e8430828)" style="fill: #1f77b4; fill-opacity: 0.3"/>
   </g>
   <g id="PolyCollection_5">
    <path d="M 407.986313 197.9795 
L 392.664596 197.9795 
L 392.458219 197.036803 
L 392.253359 196.094106 
L 392.047609 195.151409 
L 391.838327 194.208712 
L 391.622714 193.266015 
L 391.397902 192.323318 
L 391.161043 191.380621 
L 390.909419 190.437924 
L 390.640536 189.495227 
L 390.35223 188.55253 
L 390.042765 187.609833 
L 389.710923 186.667136 
L 389.356079 185.724439 
L 388.978265 184.781742 
L 388.578219 183.839045 
L 388.157405 182.896348 
L 387.718016 181.953652 
L 387.262956 181.010955 
L 386.795794 180.068258 
L 386.320693 179.125561 
L 385.842323 178.182864 
L 385.365749 177.240167 
L 384.8963 176.29747 
L 384.439434 175.354773 
L 384.000579 174.412076 
L 383.584983 173.469379 
L 383.197557 172.526682 
L 382.842725 171.583985 
L 382.524284 170.641288 
L 382.245283 169.698591 
L 382.007923 168.755894 
L 381.813471 167.813197 
L 381.662218 166.8705 
L 381.553457 165.927803 
L 381.485492 164.985106 
L 381.455682 164.042409 
L 381.460517 163.099712 
L 381.495721 162.157015 
L 381.556378 161.214318 
L 381.637089 160.271621 
L 381.732135 159.328924 
L 381.835664 158.386227 
L 381.941874 157.44353 
L 382.045202 156.500833 
L 382.140504 155.558136 
L 382.223227 154.615439 
L 382.289553 153.672742 
L 382.336536 152.730045 
L 382.362194 151.787348 
L 382.365582 150.844652 
L 382.346831 149.901955 
L 382.307146 148.959258 
L 382.248774 148.016561 
L 382.174943 147.073864 
L 382.089759 146.131167 
L 381.998086 145.18847 
L 381.905397 144.245773 
L 381.817608 143.303076 
L 381.740895 142.360379 
L 381.681513 141.417682 
L 381.645604 140.474985 
L 381.639017 139.532288 
L 381.667134 138.589591 
L 381.734716 137.646894 
L 381.845767 136.704197 
L 382.003425 135.7615 
L 382.209877 134.818803 
L 382.466308 133.876106 
L 382.772878 132.933409 
L 383.128727 131.990712 
L 383.532015 131.048015 
L 383.979981 130.105318 
L 384.469035 129.162621 
L 384.994863 128.219924 
L 385.552551 127.277227 
L 386.136721 126.33453 
L 386.741677 125.391833 
L 387.361545 124.449136 
L 387.990418 123.506439 
L 388.622495 122.563742 
L 389.252203 121.621045 
L 389.874314 120.678348 
L 390.484037 119.735652 
L 391.0771 118.792955 
L 391.649808 117.850258 
L 392.199083 116.907561 
L 392.722485 115.964864 
L 393.218213 115.022167 
L 393.68509 114.07947 
L 394.122529 113.136773 
L 394.530495 112.194076 
L 394.909446 111.251379 
L 395.260269 110.308682 
L 395.584217 109.365985 
L 395.882829 108.423288 
L 396.157866 107.480591 
L 396.411239 106.537894 
L 396.644936 105.595197 
L 396.86097 104.6525 
L 403.789939 104.6525 
L 403.789939 104.6525 
L 404.005973 105.595197 
L 404.239671 106.537894 
L 404.493043 107.480591 
L 404.76808 108.423288 
L 405.066693 109.365985 
L 405.39064 110.308682 
L 405.741463 111.251379 
L 406.120414 112.194076 
L 406.52838 113.136773 
L 406.96582 114.07947 
L 407.432696 115.022167 
L 407.928424 115.964864 
L 408.451826 116.907561 
L 409.001101 117.850258 
L 409.57381 118.792955 
L 410.166872 119.735652 
L 410.776595 120.678348 
L 411.398706 121.621045 
L 412.028415 122.563742 
L 412.660491 123.506439 
L 413.289365 124.449136 
L 413.909232 125.391833 
L 414.514188 126.33453 
L 415.098358 127.277227 
L 415.656046 128.219924 
L 416.181874 129.162621 
L 416.670928 130.105318 
L 417.118895 131.048015 
L 417.522182 131.990712 
L 417.878031 132.933409 
L 418.184601 133.876106 
L 418.441032 134.818803 
L 418.647484 135.7615 
L 418.805142 136.704197 
L 418.916193 137.646894 
L 418.983775 138.589591 
L 419.011892 139.532288 
L 419.005305 140.474985 
L 418.969396 141.417682 
L 418.910014 142.360379 
L 418.833302 143.303076 
L 418.745512 144.245773 
L 418.652823 145.18847 
L 418.56115 146.131167 
L 418.475966 147.073864 
L 418.402135 148.016561 
L 418.343763 148.959258 
L 418.304078 149.901955 
L 418.285327 150.844652 
L 418.288715 151.787348 
L 418.314373 152.730045 
L 418.361356 153.672742 
L 418.427682 154.615439 
L 418.510405 155.558136 
L 418.605707 156.500833 
L 418.709035 157.44353 
L 418.815245 158.386227 
L 418.918774 159.328924 
L 419.013821 160.271621 
L 419.094531 161.214318 
L 419.155188 162.157015 
L 419.190392 163.099712 
L 419.195227 164.042409 
L 419.165417 164.985106 
L 419.097452 165.927803 
L 418.988691 166.8705 
L 418.837439 167.813197 
L 418.642987 168.755894 
L 418.405626 169.698591 
L 418.126625 170.641288 
L 417.808184 171.583985 
L 417.453352 172.526682 
L 417.065926 173.469379 
L 416.650331 174.412076 
L 416.211476 175.354773 
L 415.754609 176.29747 
L 415.28516 177.240167 
L 414.808586 178.182864 
L 414.330216 179.125561 
L 413.855115 180.068258 
L 413.387953 181.010955 
L 412.932893 181.953652 
L 412.493504 182.896348 
L 412.07269 183.839045 
L 411.672644 184.781742 
L 411.29483 185.724439 
L 410.939986 186.667136 
L 410.608144 187.609833 
L 410.298679 188.55253 
L 410.010373 189.495227 
L 409.74149 190.437924 
L 409.489866 191.380621 
L 409.253008 192.323318 
L 409.028195 193.266015 
L 408.812582 194.208712 
L 408.6033 195.151409 
L 408.39755 196.094106 
L 408.192691 197.036803 
L 407.986313 197.9795 
z
" clip-path="url(#pb7e8430828)" style="fill: #1f77b4; fill-opacity: 0.3"/>
   </g>
   <g id="PolyCollection_6">
    <path d="M 491.069016 229.0885 
L 460.540075 229.0885 
L 460.257075 228.145803 
L 459.989069 227.203106 
L 459.735796 226.260409 
L 459.496885 225.317712 
L 459.271874 224.375015 
L 459.060225 223.432318 
L 458.86135 222.489621 
L 458.674627 221.546924 
L 458.499424 220.604227 
L 458.335119 219.66153 
L 458.18112 218.718833 
L 458.036881 217.776136 
L 457.901924 216.833439 
L 457.775846 215.890742 
L 457.658336 214.948045 
L 457.54918 214.005348 
L 457.448267 213.062652 
L 457.355588 212.119955 
L 457.27124 211.177258 
L 457.195414 210.234561 
L 457.128392 209.291864 
L 457.070533 208.349167 
L 457.022259 207.40647 
L 456.984041 206.463773 
L 456.95638 205.521076 
L 456.939788 204.578379 
L 456.934773 203.635682 
L 456.941812 202.692985 
L 456.961341 201.750288 
L 456.99373 200.807591 
L 457.039273 199.864894 
L 457.098169 198.922197 
L 457.170513 197.9795 
L 457.256289 197.036803 
L 457.355361 196.094106 
L 457.46747 195.151409 
L 457.592236 194.208712 
L 457.729162 193.266015 
L 457.877639 192.323318 
L 458.036954 191.380621 
L 458.206304 190.437924 
L 458.384807 189.495227 
L 458.57152 188.55253 
L 458.76545 187.609833 
L 458.965577 186.667136 
L 459.170869 185.724439 
L 459.380296 184.781742 
L 459.59285 183.839045 
L 459.80756 182.896348 
L 460.023501 181.953652 
L 460.239812 181.010955 
L 460.455702 180.068258 
L 460.670458 179.125561 
L 460.88345 178.182864 
L 461.094136 177.240167 
L 461.302061 176.29747 
L 461.506853 175.354773 
L 461.708225 174.412076 
L 461.905968 173.469379 
L 462.099939 172.526682 
L 462.290063 171.583985 
L 462.476315 170.641288 
L 462.658719 169.698591 
L 462.837335 168.755894 
L 463.012248 167.813197 
L 463.183568 166.8705 
L 463.351413 165.927803 
L 463.515912 164.985106 
L 463.677194 164.042409 
L 463.835384 163.099712 
L 463.990607 162.157015 
L 464.14298 161.214318 
L 464.292618 160.271621 
L 464.439631 159.328924 
L 464.584133 158.386227 
L 464.726238 157.44353 
L 464.86607 156.500833 
L 465.003767 155.558136 
L 465.139483 154.615439 
L 465.273395 153.672742 
L 465.405707 152.730045 
L 465.536654 151.787348 
L 465.666501 150.844652 
L 465.79555 149.901955 
L 465.924139 148.959258 
L 466.052639 148.016561 
L 466.181454 147.073864 
L 466.311014 146.131167 
L 466.441777 145.18847 
L 466.574217 144.245773 
L 466.708819 143.303076 
L 466.84607 142.360379 
L 466.986451 141.417682 
L 467.130429 140.474985 
L 467.278446 139.532288 
L 467.430909 138.589591 
L 467.588181 137.646894 
L 467.750574 136.704197 
L 467.918339 135.7615 
L 483.690752 135.7615 
L 483.690752 135.7615 
L 483.858517 136.704197 
L 484.02091 137.646894 
L 484.178182 138.589591 
L 484.330645 139.532288 
L 484.478662 140.474985 
L 484.62264 141.417682 
L 484.763021 142.360379 
L 484.900272 143.303076 
L 485.034873 144.245773 
L 485.167313 145.18847 
L 485.298077 146.131167 
L 485.427637 147.073864 
L 485.556452 148.016561 
L 485.684951 148.959258 
L 485.813541 149.901955 
L 485.94259 150.844652 
L 486.072437 151.787348 
L 486.203383 152.730045 
L 486.335696 153.672742 
L 486.469608 154.615439 
L 486.605324 155.558136 
L 486.743021 156.500833 
L 486.882853 157.44353 
L 487.024958 158.386227 
L 487.16946 159.328924 
L 487.316473 160.271621 
L 487.466111 161.214318 
L 487.618484 162.157015 
L 487.773707 163.099712 
L 487.931897 164.042409 
L 488.093179 164.985106 
L 488.257678 165.927803 
L 488.425523 166.8705 
L 488.596843 167.813197 
L 488.771756 168.755894 
L 488.950371 169.698591 
L 489.132776 170.641288 
L 489.319028 171.583985 
L 489.509152 172.526682 
L 489.703123 173.469379 
L 489.900866 174.412076 
L 490.102238 175.354773 
L 490.30703 176.29747 
L 490.514954 177.240167 
L 490.725641 178.182864 
L 490.938633 179.125561 
L 491.153389 180.068258 
L 491.369278 181.010955 
L 491.58559 181.953652 
L 491.801531 182.896348 
L 492.016241 183.839045 
L 492.228795 184.781742 
L 492.438222 185.724439 
L 492.643514 186.667136 
L 492.843641 187.609833 
L 493.037571 188.55253 
L 493.224284 189.495227 
L 493.402787 190.437924 
L 493.572137 191.380621 
L 493.731452 192.323318 
L 493.879929 193.266015 
L 494.016855 194.208712 
L 494.141621 195.151409 
L 494.25373 196.094106 
L 494.352801 197.036803 
L 494.438578 197.9795 
L 494.510922 198.922197 
L 494.569818 199.864894 
L 494.615361 200.807591 
L 494.64775 201.750288 
L 494.667279 202.692985 
L 494.674318 203.635682 
L 494.669303 204.578379 
L 494.652711 205.521076 
L 494.62505 206.463773 
L 494.586832 207.40647 
L 494.538558 208.349167 
L 494.480698 209.291864 
L 494.413677 210.234561 
L 494.337851 211.177258 
L 494.253503 212.119955 
L 494.160824 213.062652 
L 494.059911 214.005348 
L 493.950754 214.948045 
L 493.833245 215.890742 
L 493.707167 216.833439 
L 493.57221 217.776136 
L 493.427971 218.718833 
L 493.273972 219.66153 
L 493.109667 220.604227 
L 492.934464 221.546924 
L 492.747741 222.489621 
L 492.548866 223.432318 
L 492.337217 224.375015 
L 492.112206 225.317712 
L 491.873295 226.260409 
L 491.620022 227.203106 
L 491.352016 228.145803 
L 491.069016 229.0885 
z
" clip-path="url(#pb7e8430828)" style="fill: #1f77b4; fill-opacity: 0.3"/>
   </g>
   <g id="PolyCollection_7">
    <path d="M 566.733302 291.3065 
L 535.83397 291.3065 
L 535.839534 290.992268 
L 535.864512 290.678035 
L 535.90873 290.363803 
L 535.971926 290.049571 
L 536.053761 289.735338 
L 536.153813 289.421106 
L 536.271582 289.106874 
L 536.406493 288.792641 
L 536.557896 288.478409 
L 536.725072 288.164177 
L 536.907234 287.849944 
L 537.103533 287.535712 
L 537.313059 287.22148 
L 537.534849 286.907247 
L 537.76789 286.593015 
L 538.011123 286.278783 
L 538.263447 285.964551 
L 538.52373 285.650318 
L 538.790807 285.336086 
L 539.063488 285.021854 
L 539.340565 284.707621 
L 539.620815 284.393389 
L 539.903007 284.079157 
L 540.185905 283.764924 
L 540.468276 283.450692 
L 540.74889 283.13646 
L 541.026532 282.822227 
L 541.299999 282.507995 
L 541.568112 282.193763 
L 541.829714 281.87953 
L 542.083676 281.565298 
L 542.328902 281.251066 
L 542.564333 280.936833 
L 542.788947 280.622601 
L 543.001769 280.308369 
L 543.201864 279.994136 
L 543.38835 279.679904 
L 543.560393 279.365672 
L 543.717214 279.051439 
L 543.858091 278.737207 
L 543.982356 278.422975 
L 544.089403 278.108742 
L 544.178688 277.79451 
L 544.249728 277.480278 
L 544.302105 277.166045 
L 544.335466 276.851813 
L 544.349526 276.537581 
L 544.344066 276.223348 
L 544.318936 275.909116 
L 544.274057 275.594884 
L 544.209418 275.280652 
L 544.125078 274.966419 
L 544.021169 274.652187 
L 543.897892 274.337955 
L 543.75552 274.023722 
L 543.594398 273.70949 
L 543.41494 273.395258 
L 543.217632 273.081025 
L 543.003027 272.766793 
L 542.771751 272.452561 
L 542.524495 272.138328 
L 542.262017 271.824096 
L 541.98514 271.509864 
L 541.694751 271.195631 
L 541.391796 270.881399 
L 541.077282 270.567167 
L 540.752272 270.252934 
L 540.417878 269.938702 
L 540.075267 269.62447 
L 539.725648 269.310237 
L 539.370273 268.996005 
L 539.010432 268.681773 
L 538.647447 268.36754 
L 538.28267 268.053308 
L 537.917474 267.739076 
L 537.553251 267.424843 
L 537.191403 267.110611 
L 536.83334 266.796379 
L 536.48047 266.482146 
L 536.134194 266.167914 
L 535.795904 265.853682 
L 535.466968 265.539449 
L 535.148731 265.225217 
L 534.842504 264.910985 
L 534.549562 264.596753 
L 534.271131 264.28252 
L 534.00839 263.968288 
L 533.762458 263.654056 
L 533.534392 263.339823 
L 533.325178 263.025591 
L 533.135733 262.711359 
L 532.966892 262.397126 
L 532.819408 262.082894 
L 532.693948 261.768662 
L 532.591087 261.454429 
L 532.51131 261.140197 
L 532.455003 260.825965 
L 532.422457 260.511732 
L 532.413864 260.1975 
L 570.153409 260.1975 
L 570.153409 260.1975 
L 570.144816 260.511732 
L 570.11227 260.825965 
L 570.055963 261.140197 
L 569.976185 261.454429 
L 569.873325 261.768662 
L 569.747864 262.082894 
L 569.60038 262.397126 
L 569.431539 262.711359 
L 569.242094 263.025591 
L 569.032881 263.339823 
L 568.804814 263.654056 
L 568.558882 263.968288 
L 568.296141 264.28252 
L 568.017711 264.596753 
L 567.724769 264.910985 
L 567.418542 265.225217 
L 567.100305 265.539449 
L 566.771369 265.853682 
L 566.433078 266.167914 
L 566.086803 266.482146 
L 565.733933 266.796379 
L 565.375869 267.110611 
L 565.014022 267.424843 
L 564.649798 267.739076 
L 564.284603 268.053308 
L 563.919826 268.36754 
L 563.556841 268.681773 
L 563.197 268.996005 
L 562.841625 269.310237 
L 562.492006 269.62447 
L 562.149394 269.938702 
L 561.815001 270.252934 
L 561.48999 270.567167 
L 561.175477 270.881399 
L 560.872522 271.195631 
L 560.582133 271.509864 
L 560.305256 271.824096 
L 560.042778 272.138328 
L 559.795521 272.452561 
L 559.564245 272.766793 
L 559.349641 273.081025 
L 559.152332 273.395258 
L 558.972875 273.70949 
L 558.811752 274.023722 
L 558.669381 274.337955 
L 558.546104 274.652187 
L 558.442195 274.966419 
L 558.357855 275.280652 
L 558.293216 275.594884 
L 558.248336 275.909116 
L 558.223207 276.223348 
L 558.217747 276.537581 
L 558.231807 276.851813 
L 558.265168 277.166045 
L 558.317545 277.480278 
L 558.388585 277.79451 
L 558.477869 278.108742 
L 558.584917 278.422975 
L 558.709182 278.737207 
L 558.850058 279.051439 
L 559.00688 279.365672 
L 559.178923 279.679904 
L 559.365409 279.994136 
L 559.565504 280.308369 
L 559.778325 280.622601 
L 560.00294 280.936833 
L 560.238371 281.251066 
L 560.483597 281.565298 
L 560.737559 281.87953 
L 560.99916 282.193763 
L 561.267273 282.507995 
L 561.540741 282.822227 
L 561.818383 283.13646 
L 562.098997 283.450692 
L 562.381367 283.764924 
L 562.664266 284.079157 
L 562.946457 284.393389 
L 563.226708 284.707621 
L 563.503785 285.021854 
L 563.776466 285.336086 
L 564.043542 285.650318 
L 564.303825 285.964551 
L 564.55615 286.278783 
L 564.799383 286.593015 
L 565.032424 286.907247 
L 565.254214 287.22148 
L 565.46374 287.535712 
L 565.660039 287.849944 
L 565.842201 288.164177 
L 566.009377 288.478409 
L 566.16078 288.792641 
L 566.295691 289.106874 
L 566.41346 289.421106 
L 566.513512 289.735338 
L 566.595346 290.049571 
L 566.658543 290.363803 
L 566.70276 290.678035 
L 566.727739 290.992268 
L 566.733302 291.3065 
z
" clip-path="url(#pb7e8430828)" style="fill: #1f77b4; fill-opacity: 0.3"/>
   </g>
   <g id="PolyCollection_8">
    <path d="M 645.499726 291.3065 
L 608.025729 291.3065 
L 607.980218 290.678035 
L 607.979635 290.049571 
L 608.022266 289.421106 
L 608.105875 288.792641 
L 608.227721 288.164177 
L 608.384598 287.535712 
L 608.572869 286.907247 
L 608.78852 286.278783 
L 609.027207 285.650318 
L 609.284324 285.021854 
L 609.55506 284.393389 
L 609.834474 283.764924 
L 610.117562 283.13646 
L 610.399332 282.507995 
L 610.674874 281.87953 
L 610.939437 281.251066 
L 611.188494 280.622601 
L 611.417812 279.994136 
L 611.623516 279.365672 
L 611.802142 278.737207 
L 611.950692 278.108742 
L 612.06668 277.480278 
L 612.148165 276.851813 
L 612.193781 276.223348 
L 612.202761 275.594884 
L 612.174942 274.966419 
L 612.110771 274.337955 
L 612.011298 273.70949 
L 611.878158 273.081025 
L 611.713547 272.452561 
L 611.520188 271.824096 
L 611.301289 271.195631 
L 611.060496 270.567167 
L 610.801838 269.938702 
L 610.52966 269.310237 
L 610.248568 268.681773 
L 609.963349 268.053308 
L 609.678906 267.424843 
L 609.40018 266.796379 
L 609.132081 266.167914 
L 608.879411 265.539449 
L 608.646795 264.910985 
L 608.438613 264.28252 
L 608.258939 263.654056 
L 608.111481 263.025591 
L 607.999528 262.397126 
L 607.925909 261.768662 
L 607.892955 261.140197 
L 607.902468 260.511732 
L 607.955704 259.883268 
L 608.053362 259.254803 
L 608.195579 258.626338 
L 608.38194 257.997874 
L 608.61149 257.369409 
L 608.88276 256.740944 
L 609.193797 256.11248 
L 609.542203 255.484015 
L 609.925176 254.855551 
L 610.339562 254.227086 
L 610.781909 253.598621 
L 611.248519 252.970157 
L 611.735512 252.341692 
L 612.238882 251.713227 
L 612.75456 251.084763 
L 613.278469 250.456298 
L 613.806585 249.827833 
L 614.334985 249.199369 
L 614.859906 248.570904 
L 615.377781 247.942439 
L 615.885288 247.313975 
L 616.379381 246.68551 
L 616.857323 246.057045 
L 617.316704 245.428581 
L 617.755467 244.800116 
L 618.171912 244.171652 
L 618.564707 243.543187 
L 618.932882 242.914722 
L 619.27583 242.286258 
L 619.593291 241.657793 
L 619.885336 241.029328 
L 620.152353 240.400864 
L 620.395017 239.772399 
L 620.614265 239.143934 
L 620.811271 238.51547 
L 620.987409 237.887005 
L 621.144225 237.25854 
L 621.283403 236.630076 
L 621.406731 236.001611 
L 621.516068 235.373146 
L 621.613314 234.744682 
L 621.700378 234.116217 
L 621.779146 233.487753 
L 621.85146 232.859288 
L 621.91909 232.230823 
L 621.983712 231.602359 
L 622.046888 230.973894 
L 622.110052 230.345429 
L 622.174496 229.716965 
L 622.241359 229.0885 
L 631.284096 229.0885 
L 631.284096 229.0885 
L 631.350958 229.716965 
L 631.415402 230.345429 
L 631.478567 230.973894 
L 631.541743 231.602359 
L 631.606364 232.230823 
L 631.673994 232.859288 
L 631.746309 233.487753 
L 631.825077 234.116217 
L 631.91214 234.744682 
L 632.009386 235.373146 
L 632.118724 236.001611 
L 632.242052 236.630076 
L 632.38123 237.25854 
L 632.538046 237.887005 
L 632.714184 238.51547 
L 632.911189 239.143934 
L 633.130438 239.772399 
L 633.373101 240.400864 
L 633.640118 241.029328 
L 633.932164 241.657793 
L 634.249624 242.286258 
L 634.592572 242.914722 
L 634.960748 243.543187 
L 635.353542 244.171652 
L 635.769988 244.800116 
L 636.20875 245.428581 
L 636.668132 246.057045 
L 637.146073 246.68551 
L 637.640166 247.313975 
L 638.147674 247.942439 
L 638.665549 248.570904 
L 639.190469 249.199369 
L 639.71887 249.827833 
L 640.246985 250.456298 
L 640.770894 251.084763 
L 641.286572 251.713227 
L 641.789943 252.341692 
L 642.276936 252.970157 
L 642.743546 253.598621 
L 643.185892 254.227086 
L 643.600279 254.855551 
L 643.983252 255.484015 
L 644.331657 256.11248 
L 644.642695 256.740944 
L 644.913965 257.369409 
L 645.143515 257.997874 
L 645.329875 258.626338 
L 645.472092 259.254803 
L 645.56975 259.883268 
L 645.622987 260.511732 
L 645.6325 261.140197 
L 645.599546 261.768662 
L 645.525927 262.397126 
L 645.413974 263.025591 
L 645.266515 263.654056 
L 645.086842 264.28252 
L 644.87866 264.910985 
L 644.646044 265.539449 
L 644.393373 266.167914 
L 644.125274 266.796379 
L 643.846549 267.424843 
L 643.562105 268.053308 
L 643.276886 268.681773 
L 642.995794 269.310237 
L 642.723617 269.938702 
L 642.464958 270.567167 
L 642.224166 271.195631 
L 642.005267 271.824096 
L 641.811908 272.452561 
L 641.647296 273.081025 
L 641.514156 273.70949 
L 641.414684 274.337955 
L 641.350513 274.966419 
L 641.322694 275.594884 
L 641.331673 276.223348 
L 641.37729 276.851813 
L 641.458774 277.480278 
L 641.574762 278.108742 
L 641.723313 278.737207 
L 641.901939 279.365672 
L 642.107642 279.994136 
L 642.336961 280.622601 
L 642.586018 281.251066 
L 642.850581 281.87953 
L 643.126123 282.507995 
L 643.407892 283.13646 
L 643.69098 283.764924 
L 643.970394 284.393389 
L 644.24113 285.021854 
L 644.498247 285.650318 
L 644.736935 286.278783 
L 644.952585 286.907247 
L 645.140857 287.535712 
L 645.297734 288.164177 
L 645.41958 288.792641 
L 645.503188 289.421106 
L 645.545819 290.049571 
L 645.545236 290.678035 
L 645.499726 291.3065 
z
" clip-path="url(#pb7e8430828)" style="fill: #1f77b4; fill-opacity: 0.3"/>
   </g>
   <g id="PolyCollection_9">
    <path d="M 721.111591 322.4155 
L 683.372045 322.4155 
L 683.372045 322.4155 
L 683.372045 322.4155 
L 683.372045 322.4155 
L 683.372045 322.4155 
L 683.372045 322.4155 
L 683.372045 322.4155 
L 683.372045 322.4155 
L 683.372045 322.4155 
L 683.372045 322.4155 
L 683.372045 322.4155 
L 683.372045 322.4155 
L 683.372045 322.4155 
L 683.372045 322.4155 
L 683.372045 322.4155 
L 683.372045 322.4155 
L 683.372045 322.4155 
L 683.372045 322.4155 
L 683.372045 322.4155 
L 683.372045 322.4155 
L 683.372045 322.4155 
L 683.372045 322.4155 
L 683.372045 322.4155 
L 683.372045 322.4155 
L 683.372045 322.4155 
L 683.372045 322.4155 
L 683.372045 322.4155 
L 683.372045 322.4155 
L 683.372045 322.4155 
L 683.372045 322.4155 
L 683.372045 322.4155 
L 683.372045 322.4155 
L 683.372045 322.4155 
L 683.372045 322.4155 
L 683.372045 322.4155 
L 683.372045 322.4155 
L 683.372045 322.4155 
L 683.372045 322.4155 
L 683.372045 322.4155 
L 683.372045 322.4155 
L 683.372045 322.4155 
L 683.372045 322.4155 
L 683.372045 322.4155 
L 683.372045 322.4155 
L 683.372045 322.4155 
L 683.372045 322.4155 
L 683.372045 322.4155 
L 683.372045 322.4155 
L 683.372045 322.4155 
L 683.372045 322.4155 
L 683.372045 322.4155 
L 683.372045 322.4155 
L 683.372045 322.4155 
L 683.372045 322.4155 
L 683.372045 322.4155 
L 683.372045 322.4155 
L 683.372045 322.4155 
L 683.372045 322.4155 
L 683.372045 322.4155 
L 683.372045 322.4155 
L 683.372045 322.4155 
L 683.372045 322.4155 
L 683.372045 322.4155 
L 683.372045 322.4155 
L 683.372045 322.4155 
L 683.372045 322.4155 
L 683.372045 322.4155 
L 683.372045 322.4155 
L 683.372045 322.4155 
L 683.372045 322.4155 
L 683.372045 322.4155 
L 683.372045 322.4155 
L 683.372045 322.4155 
L 683.372045 322.4155 
L 683.372045 322.4155 
L 683.372045 322.4155 
L 683.372045 322.4155 
L 683.372045 322.4155 
L 683.372045 322.4155 
L 683.372045 322.4155 
L 683.372045 322.4155 
L 683.372045 322.4155 
L 683.372045 322.4155 
L 683.372045 322.4155 
L 683.372045 322.4155 
L 683.372045 322.4155 
L 683.372045 322.4155 
L 683.372045 322.4155 
L 683.372045 322.4155 
L 683.372045 322.4155 
L 683.372045 322.4155 
L 683.372045 322.4155 
L 683.372045 322.4155 
L 683.372045 322.4155 
L 683.372045 322.4155 
L 683.372045 322.4155 
L 683.372045 322.4155 
L 683.372045 322.4155 
L 683.372045 322.4155 
L 683.372045 322.4155 
L 721.111591 322.4155 
L 721.111591 322.4155 
L 721.111591 322.4155 
L 721.111591 322.4155 
L 721.111591 322.4155 
L 721.111591 322.4155 
L 721.111591 322.4155 
L 721.111591 322.4155 
L 721.111591 322.4155 
L 721.111591 322.4155 
L 721.111591 322.4155 
L 721.111591 322.4155 
L 721.111591 322.4155 
L 721.111591 322.4155 
L 721.111591 322.4155 
L 721.111591 322.4155 
L 721.111591 322.4155 
L 721.111591 322.4155 
L 721.111591 322.4155 
L 721.111591 322.4155 
L 721.111591 322.4155 
L 721.111591 322.4155 
L 721.111591 322.4155 
L 721.111591 322.4155 
L 721.111591 322.4155 
L 721.111591 322.4155 
L 721.111591 322.4155 
L 721.111591 322.4155 
L 721.111591 322.4155 
L 721.111591 322.4155 
L 721.111591 322.4155 
L 721.111591 322.4155 
L 721.111591 322.4155 
L 721.111591 322.4155 
L 721.111591 322.4155 
L 721.111591 322.4155 
L 721.111591 322.4155 
L 721.111591 322.4155 
L 721.111591 322.4155 
L 721.111591 322.4155 
L 721.111591 322.4155 
L 721.111591 322.4155 
L 721.111591 322.4155 
L 721.111591 322.4155 
L 721.111591 322.4155 
L 721.111591 322.4155 
L 721.111591 322.4155 
L 721.111591 322.4155 
L 721.111591 322.4155 
L 721.111591 322.4155 
L 721.111591 322.4155 
L 721.111591 322.4155 
L 721.111591 322.4155 
L 721.111591 322.4155 
L 721.111591 322.4155 
L 721.111591 322.4155 
L 721.111591 322.4155 
L 721.111591 322.4155 
L 721.111591 322.4155 
L 721.111591 322.4155 
L 721.111591 322.4155 
L 721.111591 322.4155 
L 721.111591 322.4155 
L 721.111591 322.4155 
L 721.111591 322.4155 
L 721.111591 322.4155 
L 721.111591 322.4155 
L 721.111591 322.4155 
L 721.111591 322.4155 
L 721.111591 322.4155 
L 721.111591 322.4155 
L 721.111591 322.4155 
L 721.111591 322.4155 
L 721.111591 322.4155 
L 721.111591 322.4155 
L 721.111591 322.4155 
L 721.111591 322.4155 
L 721.111591 322.4155 
L 721.111591 322.4155 
L 721.111591 322.4155 
L 721.111591 322.4155 
L 721.111591 322.4155 
L 721.111591 322.4155 
L 721.111591 322.4155 
L 721.111591 322.4155 
L 721.111591 322.4155 
L 721.111591 322.4155 
L 721.111591 322.4155 
L 721.111591 322.4155 
L 721.111591 322.4155 
L 721.111591 322.4155 
L 721.111591 322.4155 
L 721.111591 322.4155 
L 721.111591 322.4155 
L 721.111591 322.4155 
L 721.111591 322.4155 
L 721.111591 322.4155 
L 721.111591 322.4155 
L 721.111591 322.4155 
L 721.111591 322.4155 
L 721.111591 322.4155 
z
" clip-path="url(#pb7e8430828)" style="fill: #1f77b4; fill-opacity: 0.3"/>
   </g>
   <g id="PolyCollection_10">
    <path d="M 796.590682 322.4155 
L 758.851136 322.4155 
L 758.851136 322.4155 
L 758.851136 322.4155 
L 758.851136 322.4155 
L 758.851136 322.4155 
L 758.851136 322.4155 
L 758.851136 322.4155 
L 758.851136 322.4155 
L 758.851136 322.4155 
L 758.851136 322.4155 
L 758.851136 322.4155 
L 758.851136 322.4155 
L 758.851136 322.4155 
L 758.851136 322.4155 
L 758.851136 322.4155 
L 758.851136 322.4155 
L 758.851136 322.4155 
L 758.851136 322.4155 
L 758.851136 322.4155 
L 758.851136 322.4155 
L 758.851136 322.4155 
L 758.851136 322.4155 
L 758.851136 322.4155 
L 758.851136 322.4155 
L 758.851136 322.4155 
L 758.851136 322.4155 
L 758.851136 322.4155 
L 758.851136 322.4155 
L 758.851136 322.4155 
L 758.851136 322.4155 
L 758.851136 322.4155 
L 758.851136 322.4155 
L 758.851136 322.4155 
L 758.851136 322.4155 
L 758.851136 322.4155 
L 758.851136 322.4155 
L 758.851136 322.4155 
L 758.851136 322.4155 
L 758.851136 322.4155 
L 758.851136 322.4155 
L 758.851136 322.4155 
L 758.851136 322.4155 
L 758.851136 322.4155 
L 758.851136 322.4155 
L 758.851136 322.4155 
L 758.851136 322.4155 
L 758.851136 322.4155 
L 758.851136 322.4155 
L 758.851136 322.4155 
L 758.851136 322.4155 
L 758.851136 322.4155 
L 758.851136 322.4155 
L 758.851136 322.4155 
L 758.851136 322.4155 
L 758.851136 322.4155 
L 758.851136 322.4155 
L 758.851136 322.4155 
L 758.851136 322.4155 
L 758.851136 322.4155 
L 758.851136 322.4155 
L 758.851136 322.4155 
L 758.851136 322.4155 
L 758.851136 322.4155 
L 758.851136 322.4155 
L 758.851136 322.4155 
L 758.851136 322.4155 
L 758.851136 322.4155 
L 758.851136 322.4155 
L 758.851136 322.4155 
L 758.851136 322.4155 
L 758.851136 322.4155 
L 758.851136 322.4155 
L 758.851136 322.4155 
L 758.851136 322.4155 
L 758.851136 322.4155 
L 758.851136 322.4155 
L 758.851136 322.4155 
L 758.851136 322.4155 
L 758.851136 322.4155 
L 758.851136 322.4155 
L 758.851136 322.4155 
L 758.851136 322.4155 
L 758.851136 322.4155 
L 758.851136 322.4155 
L 758.851136 322.4155 
L 758.851136 322.4155 
L 758.851136 322.4155 
L 758.851136 322.4155 
L 758.851136 322.4155 
L 758.851136 322.4155 
L 758.851136 322.4155 
L 758.851136 322.4155 
L 758.851136 322.4155 
L 758.851136 322.4155 
L 758.851136 322.4155 
L 758.851136 322.4155 
L 758.851136 322.4155 
L 758.851136 322.4155 
L 758.851136 322.4155 
L 758.851136 322.4155 
L 796.590682 322.4155 
L 796.590682 322.4155 
L 796.590682 322.4155 
L 796.590682 322.4155 
L 796.590682 322.4155 
L 796.590682 322.4155 
L 796.590682 322.4155 
L 796.590682 322.4155 
L 796.590682 322.4155 
L 796.590682 322.4155 
L 796.590682 322.4155 
L 796.590682 322.4155 
L 796.590682 322.4155 
L 796.590682 322.4155 
L 796.590682 322.4155 
L 796.590682 322.4155 
L 796.590682 322.4155 
L 796.590682 322.4155 
L 796.590682 322.4155 
L 796.590682 322.4155 
L 796.590682 322.4155 
L 796.590682 322.4155 
L 796.590682 322.4155 
L 796.590682 322.4155 
L 796.590682 322.4155 
L 796.590682 322.4155 
L 796.590682 322.4155 
L 796.590682 322.4155 
L 796.590682 322.4155 
L 796.590682 322.4155 
L 796.590682 322.4155 
L 796.590682 322.4155 
L 796.590682 322.4155 
L 796.590682 322.4155 
L 796.590682 322.4155 
L 796.590682 322.4155 
L 796.590682 322.4155 
L 796.590682 322.4155 
L 796.590682 322.4155 
L 796.590682 322.4155 
L 796.590682 322.4155 
L 796.590682 322.4155 
L 796.590682 322.4155 
L 796.590682 322.4155 
L 796.590682 322.4155 
L 796.590682 322.4155 
L 796.590682 322.4155 
L 796.590682 322.4155 
L 796.590682 322.4155 
L 796.590682 322.4155 
L 796.590682 322.4155 
L 796.590682 322.4155 
L 796.590682 322.4155 
L 796.590682 322.4155 
L 796.590682 322.4155 
L 796.590682 322.4155 
L 796.590682 322.4155 
L 796.590682 322.4155 
L 796.590682 322.4155 
L 796.590682 322.4155 
L 796.590682 322.4155 
L 796.590682 322.4155 
L 796.590682 322.4155 
L 796.590682 322.4155 
L 796.590682 322.4155 
L 796.590682 322.4155 
L 796.590682 322.4155 
L 796.590682 322.4155 
L 796.590682 322.4155 
L 796.590682 322.4155 
L 796.590682 322.4155 
L 796.590682 322.4155 
L 796.590682 322.4155 
L 796.590682 322.4155 
L 796.590682 322.4155 
L 796.590682 322.4155 
L 796.590682 322.4155 
L 796.590682 322.4155 
L 796.590682 322.4155 
L 796.590682 322.4155 
L 796.590682 322.4155 
L 796.590682 322.4155 
L 796.590682 322.4155 
L 796.590682 322.4155 
L 796.590682 322.4155 
L 796.590682 322.4155 
L 796.590682 322.4155 
L 796.590682 322.4155 
L 796.590682 322.4155 
L 796.590682 322.4155 
L 796.590682 322.4155 
L 796.590682 322.4155 
L 796.590682 322.4155 
L 796.590682 322.4155 
L 796.590682 322.4155 
L 796.590682 322.4155 
L 796.590682 322.4155 
L 796.590682 322.4155 
L 796.590682 322.4155 
L 796.590682 322.4155 
L 796.590682 322.4155 
z
" clip-path="url(#pb7e8430828)" style="fill: #1f77b4; fill-opacity: 0.3"/>
   </g>
   <g id="matplotlib.axis_1">
    <g id="xtick_1">
     <g id="line2d_1">
      <defs>
       <path id="mcb2c693747" d="M 0 0 
L 0 3.5 
" style="stroke: #000000; stroke-width: 0.8"/>
      </defs>
      <g>
       <use xlink:href="#mcb2c693747" x="98.409091" y="337.97" style="stroke: #000000; stroke-width: 0.8"/>
      </g>
     </g>
     <g id="text_1">
      <!-- Defector -->
      <g transform="translate(100.616591 379.51)rotate(-90)scale(0.08 -0.08)">
       <defs>
        <path id="DejaVuSans-44" d="M 1259 4147 
L 1259 519 
L 2022 519 
Q 2988 519 3436 956 
Q 3884 1394 3884 2338 
Q 3884 3275 3436 3711 
Q 2988 4147 2022 4147 
L 1259 4147 
z
M 628 4666 
L 1925 4666 
Q 3281 4666 3915 4102 
Q 4550 3538 4550 2338 
Q 4550 1131 3912 565 
Q 3275 0 1925 0 
L 628 0 
L 628 4666 
z
" transform="scale(0.015625)"/>
        <path id="DejaVuSans-65" d="M 3597 1894 
L 3597 1613 
L 953 1613 
Q 991 1019 1311 708 
Q 1631 397 2203 397 
Q 2534 397 2845 478 
Q 3156 559 3463 722 
L 3463 178 
Q 3153 47 2828 -22 
Q 2503 -91 2169 -91 
Q 1331 -91 842 396 
Q 353 884 353 1716 
Q 353 2575 817 3079 
Q 1281 3584 2069 3584 
Q 2775 3584 3186 3129 
Q 3597 2675 3597 1894 
z
M 3022 2063 
Q 3016 2534 2758 2815 
Q 2500 3097 2075 3097 
Q 1594 3097 1305 2825 
Q 1016 2553 972 2059 
L 3022 2063 
z
" transform="scale(0.015625)"/>
        <path id="DejaVuSans-66" d="M 2375 4863 
L 2375 4384 
L 1825 4384 
Q 1516 4384 1395 4259 
Q 1275 4134 1275 3809 
L 1275 3500 
L 2222 3500 
L 2222 3053 
L 1275 3053 
L 1275 0 
L 697 0 
L 697 3053 
L 147 3053 
L 147 3500 
L 697 3500 
L 697 3744 
Q 697 4328 969 4595 
Q 1241 4863 1831 4863 
L 2375 4863 
z
" transform="scale(0.015625)"/>
        <path id="DejaVuSans-63" d="M 3122 3366 
L 3122 2828 
Q 2878 2963 2633 3030 
Q 2388 3097 2138 3097 
Q 1578 3097 1268 2742 
Q 959 2388 959 1747 
Q 959 1106 1268 751 
Q 1578 397 2138 397 
Q 2388 397 2633 464 
Q 2878 531 3122 666 
L 3122 134 
Q 2881 22 2623 -34 
Q 2366 -91 2075 -91 
Q 1284 -91 818 406 
Q 353 903 353 1747 
Q 353 2603 823 3093 
Q 1294 3584 2113 3584 
Q 2378 3584 2631 3529 
Q 2884 3475 3122 3366 
z
" transform="scale(0.015625)"/>
        <path id="DejaVuSans-74" d="M 1172 4494 
L 1172 3500 
L 2356 3500 
L 2356 3053 
L 1172 3053 
L 1172 1153 
Q 1172 725 1289 603 
Q 1406 481 1766 481 
L 2356 481 
L 2356 0 
L 1766 0 
Q 1100 0 847 248 
Q 594 497 594 1153 
L 594 3053 
L 172 3053 
L 172 3500 
L 594 3500 
L 594 4494 
L 1172 4494 
z
" transform="scale(0.015625)"/>
        <path id="DejaVuSans-6f" d="M 1959 3097 
Q 1497 3097 1228 2736 
Q 959 2375 959 1747 
Q 959 1119 1226 758 
Q 1494 397 1959 397 
Q 2419 397 2687 759 
Q 2956 1122 2956 1747 
Q 2956 2369 2687 2733 
Q 2419 3097 1959 3097 
z
M 1959 3584 
Q 2709 3584 3137 3096 
Q 3566 2609 3566 1747 
Q 3566 888 3137 398 
Q 2709 -91 1959 -91 
Q 1206 -91 779 398 
Q 353 888 353 1747 
Q 353 2609 779 3096 
Q 1206 3584 1959 3584 
z
" transform="scale(0.015625)"/>
        <path id="DejaVuSans-72" d="M 2631 2963 
Q 2534 3019 2420 3045 
Q 2306 3072 2169 3072 
Q 1681 3072 1420 2755 
Q 1159 2438 1159 1844 
L 1159 0 
L 581 0 
L 581 3500 
L 1159 3500 
L 1159 2956 
Q 1341 3275 1631 3429 
Q 1922 3584 2338 3584 
Q 2397 3584 2469 3576 
Q 2541 3569 2628 3553 
L 2631 2963 
z
" transform="scale(0.015625)"/>
       </defs>
       <use xlink:href="#DejaVuSans-44"/>
       <use xlink:href="#DejaVuSans-65" x="77.001953"/>
       <use xlink:href="#DejaVuSans-66" x="138.525391"/>
       <use xlink:href="#DejaVuSans-65" x="173.730469"/>
       <use xlink:href="#DejaVuSans-63" x="235.253906"/>
       <use xlink:href="#DejaVuSans-74" x="290.234375"/>
       <use xlink:href="#DejaVuSans-6f" x="329.443359"/>
       <use xlink:href="#DejaVuSans-72" x="390.625"/>
      </g>
     </g>
    </g>
    <g id="xtick_2">
     <g id="line2d_2">
      <g>
       <use xlink:href="#mcb2c693747" x="173.888182" y="337.97" style="stroke: #000000; stroke-width: 0.8"/>
      </g>
     </g>
     <g id="text_2">
      <!-- Grudger -->
      <g transform="translate(176.095682 377.89625)rotate(-90)scale(0.08 -0.08)">
       <defs>
        <path id="DejaVuSans-47" d="M 3809 666 
L 3809 1919 
L 2778 1919 
L 2778 2438 
L 4434 2438 
L 4434 434 
Q 4069 175 3628 42 
Q 3188 -91 2688 -91 
Q 1594 -91 976 548 
Q 359 1188 359 2328 
Q 359 3472 976 4111 
Q 1594 4750 2688 4750 
Q 3144 4750 3555 4637 
Q 3966 4525 4313 4306 
L 4313 3634 
Q 3963 3931 3569 4081 
Q 3175 4231 2741 4231 
Q 1884 4231 1454 3753 
Q 1025 3275 1025 2328 
Q 1025 1384 1454 906 
Q 1884 428 2741 428 
Q 3075 428 3337 486 
Q 3600 544 3809 666 
z
" transform="scale(0.015625)"/>
        <path id="DejaVuSans-75" d="M 544 1381 
L 544 3500 
L 1119 3500 
L 1119 1403 
Q 1119 906 1312 657 
Q 1506 409 1894 409 
Q 2359 409 2629 706 
Q 2900 1003 2900 1516 
L 2900 3500 
L 3475 3500 
L 3475 0 
L 2900 0 
L 2900 538 
Q 2691 219 2414 64 
Q 2138 -91 1772 -91 
Q 1169 -91 856 284 
Q 544 659 544 1381 
z
M 1991 3584 
L 1991 3584 
z
" transform="scale(0.015625)"/>
        <path id="DejaVuSans-64" d="M 2906 2969 
L 2906 4863 
L 3481 4863 
L 3481 0 
L 2906 0 
L 2906 525 
Q 2725 213 2448 61 
Q 2172 -91 1784 -91 
Q 1150 -91 751 415 
Q 353 922 353 1747 
Q 353 2572 751 3078 
Q 1150 3584 1784 3584 
Q 2172 3584 2448 3432 
Q 2725 3281 2906 2969 
z
M 947 1747 
Q 947 1113 1208 752 
Q 1469 391 1925 391 
Q 2381 391 2643 752 
Q 2906 1113 2906 1747 
Q 2906 2381 2643 2742 
Q 2381 3103 1925 3103 
Q 1469 3103 1208 2742 
Q 947 2381 947 1747 
z
" transform="scale(0.015625)"/>
        <path id="DejaVuSans-67" d="M 2906 1791 
Q 2906 2416 2648 2759 
Q 2391 3103 1925 3103 
Q 1463 3103 1205 2759 
Q 947 2416 947 1791 
Q 947 1169 1205 825 
Q 1463 481 1925 481 
Q 2391 481 2648 825 
Q 2906 1169 2906 1791 
z
M 3481 434 
Q 3481 -459 3084 -895 
Q 2688 -1331 1869 -1331 
Q 1566 -1331 1297 -1286 
Q 1028 -1241 775 -1147 
L 775 -588 
Q 1028 -725 1275 -790 
Q 1522 -856 1778 -856 
Q 2344 -856 2625 -561 
Q 2906 -266 2906 331 
L 2906 616 
Q 2728 306 2450 153 
Q 2172 0 1784 0 
Q 1141 0 747 490 
Q 353 981 353 1791 
Q 353 2603 747 3093 
Q 1141 3584 1784 3584 
Q 2172 3584 2450 3431 
Q 2728 3278 2906 2969 
L 2906 3500 
L 3481 3500 
L 3481 434 
z
" transform="scale(0.015625)"/>
       </defs>
       <use xlink:href="#DejaVuSans-47"/>
       <use xlink:href="#DejaVuSans-72" x="77.490234"/>
       <use xlink:href="#DejaVuSans-75" x="118.603516"/>
       <use xlink:href="#DejaVuSans-64" x="181.982422"/>
       <use xlink:href="#DejaVuSans-67" x="245.458984"/>
       <use xlink:href="#DejaVuSans-65" x="308.935547"/>
       <use xlink:href="#DejaVuSans-72" x="370.458984"/>
      </g>
     </g>
    </g>
    <g id="xtick_3">
     <g id="line2d_3">
      <g>
       <use xlink:href="#mcb2c693747" x="249.367273" y="337.97" style="stroke: #000000; stroke-width: 0.8"/>
      </g>
     </g>
     <g id="text_3">
      <!-- Alternator -->
      <g transform="translate(251.574773 385.165)rotate(-90)scale(0.08 -0.08)">
       <defs>
        <path id="DejaVuSans-41" d="M 2188 4044 
L 1331 1722 
L 3047 1722 
L 2188 4044 
z
M 1831 4666 
L 2547 4666 
L 4325 0 
L 3669 0 
L 3244 1197 
L 1141 1197 
L 716 0 
L 50 0 
L 1831 4666 
z
" transform="scale(0.015625)"/>
        <path id="DejaVuSans-6c" d="M 603 4863 
L 1178 4863 
L 1178 0 
L 603 0 
L 603 4863 
z
" transform="scale(0.015625)"/>
        <path id="DejaVuSans-6e" d="M 3513 2113 
L 3513 0 
L 2938 0 
L 2938 2094 
Q 2938 2591 2744 2837 
Q 2550 3084 2163 3084 
Q 1697 3084 1428 2787 
Q 1159 2491 1159 1978 
L 1159 0 
L 581 0 
L 581 3500 
L 1159 3500 
L 1159 2956 
Q 1366 3272 1645 3428 
Q 1925 3584 2291 3584 
Q 2894 3584 3203 3211 
Q 3513 2838 3513 2113 
z
" transform="scale(0.015625)"/>
        <path id="DejaVuSans-61" d="M 2194 1759 
Q 1497 1759 1228 1600 
Q 959 1441 959 1056 
Q 959 750 1161 570 
Q 1363 391 1709 391 
Q 2188 391 2477 730 
Q 2766 1069 2766 1631 
L 2766 1759 
L 2194 1759 
z
M 3341 1997 
L 3341 0 
L 2766 0 
L 2766 531 
Q 2569 213 2275 61 
Q 1981 -91 1556 -91 
Q 1019 -91 701 211 
Q 384 513 384 1019 
Q 384 1609 779 1909 
Q 1175 2209 1959 2209 
L 2766 2209 
L 2766 2266 
Q 2766 2663 2505 2880 
Q 2244 3097 1772 3097 
Q 1472 3097 1187 3025 
Q 903 2953 641 2809 
L 641 3341 
Q 956 3463 1253 3523 
Q 1550 3584 1831 3584 
Q 2591 3584 2966 3190 
Q 3341 2797 3341 1997 
z
" transform="scale(0.015625)"/>
       </defs>
       <use xlink:href="#DejaVuSans-41"/>
       <use xlink:href="#DejaVuSans-6c" x="68.408203"/>
       <use xlink:href="#DejaVuSans-74" x="96.191406"/>
       <use xlink:href="#DejaVuSans-65" x="135.400391"/>
       <use xlink:href="#DejaVuSans-72" x="196.923828"/>
       <use xlink:href="#DejaVuSans-6e" x="236.287109"/>
       <use xlink:href="#DejaVuSans-61" x="299.666016"/>
       <use xlink:href="#DejaVuSans-74" x="360.945312"/>
       <use xlink:href="#DejaVuSans-6f" x="400.154297"/>
       <use xlink:href="#DejaVuSans-72" x="461.335938"/>
      </g>
     </g>
    </g>
    <g id="xtick_4">
     <g id="line2d_4">
      <g>
       <use xlink:href="#mcb2c693747" x="324.846364" y="337.97" style="stroke: #000000; stroke-width: 0.8"/>
      </g>
     </g>
     <g id="text_4">
      <!-- Adaptive -->
      <g transform="translate(327.053864 380.37875)rotate(-90)scale(0.08 -0.08)">
       <defs>
        <path id="DejaVuSans-70" d="M 1159 525 
L 1159 -1331 
L 581 -1331 
L 581 3500 
L 1159 3500 
L 1159 2969 
Q 1341 3281 1617 3432 
Q 1894 3584 2278 3584 
Q 2916 3584 3314 3078 
Q 3713 2572 3713 1747 
Q 3713 922 3314 415 
Q 2916 -91 2278 -91 
Q 1894 -91 1617 61 
Q 1341 213 1159 525 
z
M 3116 1747 
Q 3116 2381 2855 2742 
Q 2594 3103 2138 3103 
Q 1681 3103 1420 2742 
Q 1159 2381 1159 1747 
Q 1159 1113 1420 752 
Q 1681 391 2138 391 
Q 2594 391 2855 752 
Q 3116 1113 3116 1747 
z
" transform="scale(0.015625)"/>
        <path id="DejaVuSans-69" d="M 603 3500 
L 1178 3500 
L 1178 0 
L 603 0 
L 603 3500 
z
M 603 4863 
L 1178 4863 
L 1178 4134 
L 603 4134 
L 603 4863 
z
" transform="scale(0.015625)"/>
        <path id="DejaVuSans-76" d="M 191 3500 
L 800 3500 
L 1894 563 
L 2988 3500 
L 3597 3500 
L 2284 0 
L 1503 0 
L 191 3500 
z
" transform="scale(0.015625)"/>
       </defs>
       <use xlink:href="#DejaVuSans-41"/>
       <use xlink:href="#DejaVuSans-64" x="66.658203"/>
       <use xlink:href="#DejaVuSans-61" x="130.134766"/>
       <use xlink:href="#DejaVuSans-70" x="191.414062"/>
       <use xlink:href="#DejaVuSans-74" x="254.890625"/>
       <use xlink:href="#DejaVuSans-69" x="294.099609"/>
       <use xlink:href="#DejaVuSans-76" x="321.882812"/>
       <use xlink:href="#DejaVuSans-65" x="381.0625"/>
      </g>
     </g>
    </g>
    <g id="xtick_5">
     <g id="line2d_5">
      <g>
       <use xlink:href="#mcb2c693747" x="400.325455" y="337.97" style="stroke: #000000; stroke-width: 0.8"/>
      </g>
     </g>
     <g id="text_5">
      <!-- Deep QLearner -->
      <g transform="translate(402.532955 405.46625)rotate(-90)scale(0.08 -0.08)">
       <defs>
        <path id="DejaVuSans-20" transform="scale(0.015625)"/>
        <path id="DejaVuSans-51" d="M 2522 4238 
Q 1834 4238 1429 3725 
Q 1025 3213 1025 2328 
Q 1025 1447 1429 934 
Q 1834 422 2522 422 
Q 3209 422 3611 934 
Q 4013 1447 4013 2328 
Q 4013 3213 3611 3725 
Q 3209 4238 2522 4238 
z
M 3406 84 
L 4238 -825 
L 3475 -825 
L 2784 -78 
Q 2681 -84 2626 -87 
Q 2572 -91 2522 -91 
Q 1538 -91 948 567 
Q 359 1225 359 2328 
Q 359 3434 948 4092 
Q 1538 4750 2522 4750 
Q 3503 4750 4090 4092 
Q 4678 3434 4678 2328 
Q 4678 1516 4351 937 
Q 4025 359 3406 84 
z
" transform="scale(0.015625)"/>
        <path id="DejaVuSans-4c" d="M 628 4666 
L 1259 4666 
L 1259 531 
L 3531 531 
L 3531 0 
L 628 0 
L 628 4666 
z
" transform="scale(0.015625)"/>
       </defs>
       <use xlink:href="#DejaVuSans-44"/>
       <use xlink:href="#DejaVuSans-65" x="77.001953"/>
       <use xlink:href="#DejaVuSans-65" x="138.525391"/>
       <use xlink:href="#DejaVuSans-70" x="200.048828"/>
       <use xlink:href="#DejaVuSans-20" x="263.525391"/>
       <use xlink:href="#DejaVuSans-51" x="295.3125"/>
       <use xlink:href="#DejaVuSans-4c" x="374.023438"/>
       <use xlink:href="#DejaVuSans-65" x="427.986328"/>
       <use xlink:href="#DejaVuSans-61" x="489.509766"/>
       <use xlink:href="#DejaVuSans-72" x="550.789062"/>
       <use xlink:href="#DejaVuSans-6e" x="590.152344"/>
       <use xlink:href="#DejaVuSans-65" x="653.53125"/>
       <use xlink:href="#DejaVuSans-72" x="715.054688"/>
      </g>
     </g>
    </g>
    <g id="xtick_6">
     <g id="line2d_6">
      <g>
       <use xlink:href="#mcb2c693747" x="475.804545" y="337.97" style="stroke: #000000; stroke-width: 0.8"/>
      </g>
     </g>
     <g id="text_6">
      <!-- Random: 0.5 -->
      <g transform="translate(478.012045 396.0475)rotate(-90)scale(0.08 -0.08)">
       <defs>
        <path id="DejaVuSans-52" d="M 2841 2188 
Q 3044 2119 3236 1894 
Q 3428 1669 3622 1275 
L 4263 0 
L 3584 0 
L 2988 1197 
Q 2756 1666 2539 1819 
Q 2322 1972 1947 1972 
L 1259 1972 
L 1259 0 
L 628 0 
L 628 4666 
L 2053 4666 
Q 2853 4666 3247 4331 
Q 3641 3997 3641 3322 
Q 3641 2881 3436 2590 
Q 3231 2300 2841 2188 
z
M 1259 4147 
L 1259 2491 
L 2053 2491 
Q 2509 2491 2742 2702 
Q 2975 2913 2975 3322 
Q 2975 3731 2742 3939 
Q 2509 4147 2053 4147 
L 1259 4147 
z
" transform="scale(0.015625)"/>
        <path id="DejaVuSans-6d" d="M 3328 2828 
Q 3544 3216 3844 3400 
Q 4144 3584 4550 3584 
Q 5097 3584 5394 3201 
Q 5691 2819 5691 2113 
L 5691 0 
L 5113 0 
L 5113 2094 
Q 5113 2597 4934 2840 
Q 4756 3084 4391 3084 
Q 3944 3084 3684 2787 
Q 3425 2491 3425 1978 
L 3425 0 
L 2847 0 
L 2847 2094 
Q 2847 2600 2669 2842 
Q 2491 3084 2119 3084 
Q 1678 3084 1418 2786 
Q 1159 2488 1159 1978 
L 1159 0 
L 581 0 
L 581 3500 
L 1159 3500 
L 1159 2956 
Q 1356 3278 1631 3431 
Q 1906 3584 2284 3584 
Q 2666 3584 2933 3390 
Q 3200 3197 3328 2828 
z
" transform="scale(0.015625)"/>
        <path id="DejaVuSans-3a" d="M 750 794 
L 1409 794 
L 1409 0 
L 750 0 
L 750 794 
z
M 750 3309 
L 1409 3309 
L 1409 2516 
L 750 2516 
L 750 3309 
z
" transform="scale(0.015625)"/>
        <path id="DejaVuSans-30" d="M 2034 4250 
Q 1547 4250 1301 3770 
Q 1056 3291 1056 2328 
Q 1056 1369 1301 889 
Q 1547 409 2034 409 
Q 2525 409 2770 889 
Q 3016 1369 3016 2328 
Q 3016 3291 2770 3770 
Q 2525 4250 2034 4250 
z
M 2034 4750 
Q 2819 4750 3233 4129 
Q 3647 3509 3647 2328 
Q 3647 1150 3233 529 
Q 2819 -91 2034 -91 
Q 1250 -91 836 529 
Q 422 1150 422 2328 
Q 422 3509 836 4129 
Q 1250 4750 2034 4750 
z
" transform="scale(0.015625)"/>
        <path id="DejaVuSans-2e" d="M 684 794 
L 1344 794 
L 1344 0 
L 684 0 
L 684 794 
z
" transform="scale(0.015625)"/>
        <path id="DejaVuSans-35" d="M 691 4666 
L 3169 4666 
L 3169 4134 
L 1269 4134 
L 1269 2991 
Q 1406 3038 1543 3061 
Q 1681 3084 1819 3084 
Q 2600 3084 3056 2656 
Q 3513 2228 3513 1497 
Q 3513 744 3044 326 
Q 2575 -91 1722 -91 
Q 1428 -91 1123 -41 
Q 819 9 494 109 
L 494 744 
Q 775 591 1075 516 
Q 1375 441 1709 441 
Q 2250 441 2565 725 
Q 2881 1009 2881 1497 
Q 2881 1984 2565 2268 
Q 2250 2553 1709 2553 
Q 1456 2553 1204 2497 
Q 953 2441 691 2322 
L 691 4666 
z
" transform="scale(0.015625)"/>
       </defs>
       <use xlink:href="#DejaVuSans-52"/>
       <use xlink:href="#DejaVuSans-61" x="67.232422"/>
       <use xlink:href="#DejaVuSans-6e" x="128.511719"/>
       <use xlink:href="#DejaVuSans-64" x="191.890625"/>
       <use xlink:href="#DejaVuSans-6f" x="255.367188"/>
       <use xlink:href="#DejaVuSans-6d" x="316.548828"/>
       <use xlink:href="#DejaVuSans-3a" x="413.960938"/>
       <use xlink:href="#DejaVuSans-20" x="447.652344"/>
       <use xlink:href="#DejaVuSans-30" x="479.439453"/>
       <use xlink:href="#DejaVuSans-2e" x="543.0625"/>
       <use xlink:href="#DejaVuSans-35" x="574.849609"/>
      </g>
     </g>
    </g>
    <g id="xtick_7">
     <g id="line2d_7">
      <g>
       <use xlink:href="#mcb2c693747" x="551.283636" y="337.97" style="stroke: #000000; stroke-width: 0.8"/>
      </g>
     </g>
     <g id="text_7">
      <!-- Risky QLearner -->
      <g transform="translate(553.491136 405.40875)rotate(-90)scale(0.08 -0.08)">
       <defs>
        <path id="DejaVuSans-73" d="M 2834 3397 
L 2834 2853 
Q 2591 2978 2328 3040 
Q 2066 3103 1784 3103 
Q 1356 3103 1142 2972 
Q 928 2841 928 2578 
Q 928 2378 1081 2264 
Q 1234 2150 1697 2047 
L 1894 2003 
Q 2506 1872 2764 1633 
Q 3022 1394 3022 966 
Q 3022 478 2636 193 
Q 2250 -91 1575 -91 
Q 1294 -91 989 -36 
Q 684 19 347 128 
L 347 722 
Q 666 556 975 473 
Q 1284 391 1588 391 
Q 1994 391 2212 530 
Q 2431 669 2431 922 
Q 2431 1156 2273 1281 
Q 2116 1406 1581 1522 
L 1381 1569 
Q 847 1681 609 1914 
Q 372 2147 372 2553 
Q 372 3047 722 3315 
Q 1072 3584 1716 3584 
Q 2034 3584 2315 3537 
Q 2597 3491 2834 3397 
z
" transform="scale(0.015625)"/>
        <path id="DejaVuSans-6b" d="M 581 4863 
L 1159 4863 
L 1159 1991 
L 2875 3500 
L 3609 3500 
L 1753 1863 
L 3688 0 
L 2938 0 
L 1159 1709 
L 1159 0 
L 581 0 
L 581 4863 
z
" transform="scale(0.015625)"/>
        <path id="DejaVuSans-79" d="M 2059 -325 
Q 1816 -950 1584 -1140 
Q 1353 -1331 966 -1331 
L 506 -1331 
L 506 -850 
L 844 -850 
Q 1081 -850 1212 -737 
Q 1344 -625 1503 -206 
L 1606 56 
L 191 3500 
L 800 3500 
L 1894 763 
L 2988 3500 
L 3597 3500 
L 2059 -325 
z
" transform="scale(0.015625)"/>
       </defs>
       <use xlink:href="#DejaVuSans-52"/>
       <use xlink:href="#DejaVuSans-69" x="69.482422"/>
       <use xlink:href="#DejaVuSans-73" x="97.265625"/>
       <use xlink:href="#DejaVuSans-6b" x="149.365234"/>
       <use xlink:href="#DejaVuSans-79" x="203.650391"/>
       <use xlink:href="#DejaVuSans-20" x="262.830078"/>
       <use xlink:href="#DejaVuSans-51" x="294.617188"/>
       <use xlink:href="#DejaVuSans-4c" x="373.328125"/>
       <use xlink:href="#DejaVuSans-65" x="427.291016"/>
       <use xlink:href="#DejaVuSans-61" x="488.814453"/>
       <use xlink:href="#DejaVuSans-72" x="550.09375"/>
       <use xlink:href="#DejaVuSans-6e" x="589.457031"/>
       <use xlink:href="#DejaVuSans-65" x="652.835938"/>
       <use xlink:href="#DejaVuSans-72" x="714.359375"/>
      </g>
     </g>
    </g>
    <g id="xtick_8">
     <g id="line2d_8">
      <g>
       <use xlink:href="#mcb2c693747" x="626.762727" y="337.97" style="stroke: #000000; stroke-width: 0.8"/>
      </g>
     </g>
     <g id="text_8">
      <!-- Mediocre QLearner -->
      <g transform="translate(628.970227 420.83375)rotate(-90)scale(0.08 -0.08)">
       <defs>
        <path id="DejaVuSans-4d" d="M 628 4666 
L 1569 4666 
L 2759 1491 
L 3956 4666 
L 4897 4666 
L 4897 0 
L 4281 0 
L 4281 4097 
L 3078 897 
L 2444 897 
L 1241 4097 
L 1241 0 
L 628 0 
L 628 4666 
z
" transform="scale(0.015625)"/>
       </defs>
       <use xlink:href="#DejaVuSans-4d"/>
       <use xlink:href="#DejaVuSans-65" x="86.279297"/>
       <use xlink:href="#DejaVuSans-64" x="147.802734"/>
       <use xlink:href="#DejaVuSans-69" x="211.279297"/>
       <use xlink:href="#DejaVuSans-6f" x="239.0625"/>
       <use xlink:href="#DejaVuSans-63" x="300.244141"/>
       <use xlink:href="#DejaVuSans-72" x="355.224609"/>
       <use xlink:href="#DejaVuSans-65" x="394.087891"/>
       <use xlink:href="#DejaVuSans-20" x="455.611328"/>
       <use xlink:href="#DejaVuSans-51" x="487.398438"/>
       <use xlink:href="#DejaVuSans-4c" x="566.109375"/>
       <use xlink:href="#DejaVuSans-65" x="620.072266"/>
       <use xlink:href="#DejaVuSans-61" x="681.595703"/>
       <use xlink:href="#DejaVuSans-72" x="742.875"/>
       <use xlink:href="#DejaVuSans-6e" x="782.238281"/>
       <use xlink:href="#DejaVuSans-65" x="845.617188"/>
       <use xlink:href="#DejaVuSans-72" x="907.140625"/>
      </g>
     </g>
    </g>
    <g id="xtick_9">
     <g id="line2d_9">
      <g>
       <use xlink:href="#mcb2c693747" x="702.241818" y="337.97" style="stroke: #000000; stroke-width: 0.8"/>
      </g>
     </g>
     <g id="text_9">
      <!-- Tit For Tat -->
      <g transform="translate(704.449318 384.15)rotate(-90)scale(0.08 -0.08)">
       <defs>
        <path id="DejaVuSans-54" d="M -19 4666 
L 3928 4666 
L 3928 4134 
L 2272 4134 
L 2272 0 
L 1638 0 
L 1638 4134 
L -19 4134 
L -19 4666 
z
" transform="scale(0.015625)"/>
        <path id="DejaVuSans-46" d="M 628 4666 
L 3309 4666 
L 3309 4134 
L 1259 4134 
L 1259 2759 
L 3109 2759 
L 3109 2228 
L 1259 2228 
L 1259 0 
L 628 0 
L 628 4666 
z
" transform="scale(0.015625)"/>
       </defs>
       <use xlink:href="#DejaVuSans-54"/>
       <use xlink:href="#DejaVuSans-69" x="57.958984"/>
       <use xlink:href="#DejaVuSans-74" x="85.742188"/>
       <use xlink:href="#DejaVuSans-20" x="124.951172"/>
       <use xlink:href="#DejaVuSans-46" x="156.738281"/>
       <use xlink:href="#DejaVuSans-6f" x="210.632812"/>
       <use xlink:href="#DejaVuSans-72" x="271.814453"/>
       <use xlink:href="#DejaVuSans-20" x="312.927734"/>
       <use xlink:href="#DejaVuSans-54" x="344.714844"/>
       <use xlink:href="#DejaVuSans-61" x="389.298828"/>
       <use xlink:href="#DejaVuSans-74" x="450.578125"/>
      </g>
     </g>
    </g>
    <g id="xtick_10">
     <g id="line2d_10">
      <g>
       <use xlink:href="#mcb2c693747" x="777.720909" y="337.97" style="stroke: #000000; stroke-width: 0.8"/>
      </g>
     </g>
     <g id="text_10">
      <!-- Cooperator -->
      <g transform="translate(779.928409 389.85875)rotate(-90)scale(0.08 -0.08)">
       <defs>
        <path id="DejaVuSans-43" d="M 4122 4306 
L 4122 3641 
Q 3803 3938 3442 4084 
Q 3081 4231 2675 4231 
Q 1875 4231 1450 3742 
Q 1025 3253 1025 2328 
Q 1025 1406 1450 917 
Q 1875 428 2675 428 
Q 3081 428 3442 575 
Q 3803 722 4122 1019 
L 4122 359 
Q 3791 134 3420 21 
Q 3050 -91 2638 -91 
Q 1578 -91 968 557 
Q 359 1206 359 2328 
Q 359 3453 968 4101 
Q 1578 4750 2638 4750 
Q 3056 4750 3426 4639 
Q 3797 4528 4122 4306 
z
" transform="scale(0.015625)"/>
       </defs>
       <use xlink:href="#DejaVuSans-43"/>
       <use xlink:href="#DejaVuSans-6f" x="69.824219"/>
       <use xlink:href="#DejaVuSans-6f" x="131.005859"/>
       <use xlink:href="#DejaVuSans-70" x="192.1875"/>
       <use xlink:href="#DejaVuSans-65" x="255.664062"/>
       <use xlink:href="#DejaVuSans-72" x="317.1875"/>
       <use xlink:href="#DejaVuSans-61" x="358.300781"/>
       <use xlink:href="#DejaVuSans-74" x="419.580078"/>
       <use xlink:href="#DejaVuSans-6f" x="458.789062"/>
       <use xlink:href="#DejaVuSans-72" x="519.970703"/>
      </g>
     </g>
    </g>
   </g>
   <g id="matplotlib.axis_2">
    <g id="ytick_1">
     <g id="line2d_11">
      <defs>
       <path id="md1be8ba266" d="M 0 0 
L -3.5 0 
" style="stroke: #000000; stroke-width: 0.8"/>
      </defs>
      <g>
       <use xlink:href="#md1be8ba266" x="22.93" y="322.4155" style="stroke: #000000; stroke-width: 0.8"/>
      </g>
     </g>
     <g id="text_11">
      <!-- 0 -->
      <g transform="translate(10.84 325.454875)scale(0.08 -0.08)">
       <use xlink:href="#DejaVuSans-30"/>
      </g>
     </g>
    </g>
    <g id="ytick_2">
     <g id="line2d_12">
      <g>
       <use xlink:href="#md1be8ba266" x="22.93" y="260.1975" style="stroke: #000000; stroke-width: 0.8"/>
      </g>
     </g>
     <g id="text_12">
      <!-- 2 -->
      <g transform="translate(10.84 263.236875)scale(0.08 -0.08)">
       <defs>
        <path id="DejaVuSans-32" d="M 1228 531 
L 3431 531 
L 3431 0 
L 469 0 
L 469 531 
Q 828 903 1448 1529 
Q 2069 2156 2228 2338 
Q 2531 2678 2651 2914 
Q 2772 3150 2772 3378 
Q 2772 3750 2511 3984 
Q 2250 4219 1831 4219 
Q 1534 4219 1204 4116 
Q 875 4013 500 3803 
L 500 4441 
Q 881 4594 1212 4672 
Q 1544 4750 1819 4750 
Q 2544 4750 2975 4387 
Q 3406 4025 3406 3419 
Q 3406 3131 3298 2873 
Q 3191 2616 2906 2266 
Q 2828 2175 2409 1742 
Q 1991 1309 1228 531 
z
" transform="scale(0.015625)"/>
       </defs>
       <use xlink:href="#DejaVuSans-32"/>
      </g>
     </g>
    </g>
    <g id="ytick_3">
     <g id="line2d_13">
      <g>
       <use xlink:href="#md1be8ba266" x="22.93" y="197.9795" style="stroke: #000000; stroke-width: 0.8"/>
      </g>
     </g>
     <g id="text_13">
      <!-- 4 -->
      <g transform="translate(10.84 201.018875)scale(0.08 -0.08)">
       <defs>
        <path id="DejaVuSans-34" d="M 2419 4116 
L 825 1625 
L 2419 1625 
L 2419 4116 
z
M 2253 4666 
L 3047 4666 
L 3047 1625 
L 3713 1625 
L 3713 1100 
L 3047 1100 
L 3047 0 
L 2419 0 
L 2419 1100 
L 313 1100 
L 313 1709 
L 2253 4666 
z
" transform="scale(0.015625)"/>
       </defs>
       <use xlink:href="#DejaVuSans-34"/>
      </g>
     </g>
    </g>
    <g id="ytick_4">
     <g id="line2d_14">
      <g>
       <use xlink:href="#md1be8ba266" x="22.93" y="135.7615" style="stroke: #000000; stroke-width: 0.8"/>
      </g>
     </g>
     <g id="text_14">
      <!-- 6 -->
      <g transform="translate(10.84 138.800875)scale(0.08 -0.08)">
       <defs>
        <path id="DejaVuSans-36" d="M 2113 2584 
Q 1688 2584 1439 2293 
Q 1191 2003 1191 1497 
Q 1191 994 1439 701 
Q 1688 409 2113 409 
Q 2538 409 2786 701 
Q 3034 994 3034 1497 
Q 3034 2003 2786 2293 
Q 2538 2584 2113 2584 
z
M 3366 4563 
L 3366 3988 
Q 3128 4100 2886 4159 
Q 2644 4219 2406 4219 
Q 1781 4219 1451 3797 
Q 1122 3375 1075 2522 
Q 1259 2794 1537 2939 
Q 1816 3084 2150 3084 
Q 2853 3084 3261 2657 
Q 3669 2231 3669 1497 
Q 3669 778 3244 343 
Q 2819 -91 2113 -91 
Q 1303 -91 875 529 
Q 447 1150 447 2328 
Q 447 3434 972 4092 
Q 1497 4750 2381 4750 
Q 2619 4750 2861 4703 
Q 3103 4656 3366 4563 
z
" transform="scale(0.015625)"/>
       </defs>
       <use xlink:href="#DejaVuSans-36"/>
      </g>
     </g>
    </g>
    <g id="ytick_5">
     <g id="line2d_15">
      <g>
       <use xlink:href="#md1be8ba266" x="22.93" y="73.5435" style="stroke: #000000; stroke-width: 0.8"/>
      </g>
     </g>
     <g id="text_15">
      <!-- 8 -->
      <g transform="translate(10.84 76.582875)scale(0.08 -0.08)">
       <defs>
        <path id="DejaVuSans-38" d="M 2034 2216 
Q 1584 2216 1326 1975 
Q 1069 1734 1069 1313 
Q 1069 891 1326 650 
Q 1584 409 2034 409 
Q 2484 409 2743 651 
Q 3003 894 3003 1313 
Q 3003 1734 2745 1975 
Q 2488 2216 2034 2216 
z
M 1403 2484 
Q 997 2584 770 2862 
Q 544 3141 544 3541 
Q 544 4100 942 4425 
Q 1341 4750 2034 4750 
Q 2731 4750 3128 4425 
Q 3525 4100 3525 3541 
Q 3525 3141 3298 2862 
Q 3072 2584 2669 2484 
Q 3125 2378 3379 2068 
Q 3634 1759 3634 1313 
Q 3634 634 3220 271 
Q 2806 -91 2034 -91 
Q 1263 -91 848 271 
Q 434 634 434 1313 
Q 434 1759 690 2068 
Q 947 2378 1403 2484 
z
M 1172 3481 
Q 1172 3119 1398 2916 
Q 1625 2713 2034 2713 
Q 2441 2713 2670 2916 
Q 2900 3119 2900 3481 
Q 2900 3844 2670 4047 
Q 2441 4250 2034 4250 
Q 1625 4250 1398 4047 
Q 1172 3844 1172 3481 
z
" transform="scale(0.015625)"/>
       </defs>
       <use xlink:href="#DejaVuSans-38"/>
      </g>
     </g>
    </g>
   </g>
   <g id="LineCollection_1">
    <path d="M 88.974205 42.4345 
L 107.843977 42.4345 
" clip-path="url(#pb7e8430828)" style="fill: none; stroke: #1f77b4; stroke-width: 1.5"/>
    <path d="M 164.453295 135.7615 
L 183.323068 135.7615 
" clip-path="url(#pb7e8430828)" style="fill: none; stroke: #1f77b4; stroke-width: 1.5"/>
    <path d="M 239.932386 166.8705 
L 258.802159 166.8705 
" clip-path="url(#pb7e8430828)" style="fill: none; stroke: #1f77b4; stroke-width: 1.5"/>
    <path d="M 315.411477 166.8705 
L 334.28125 166.8705 
" clip-path="url(#pb7e8430828)" style="fill: none; stroke: #1f77b4; stroke-width: 1.5"/>
    <path d="M 390.890568 166.8705 
L 409.760341 166.8705 
" clip-path="url(#pb7e8430828)" style="fill: none; stroke: #1f77b4; stroke-width: 1.5"/>
    <path d="M 466.369659 197.9795 
L 485.239432 197.9795 
" clip-path="url(#pb7e8430828)" style="fill: none; stroke: #1f77b4; stroke-width: 1.5"/>
    <path d="M 541.84875 260.1975 
L 560.718523 260.1975 
" clip-path="url(#pb7e8430828)" style="fill: none; stroke: #1f77b4; stroke-width: 1.5"/>
    <path d="M 617.327841 260.1975 
L 636.197614 260.1975 
" clip-path="url(#pb7e8430828)" style="fill: none; stroke: #1f77b4; stroke-width: 1.5"/>
    <path d="M 692.806932 322.4155 
L 711.676705 322.4155 
" clip-path="url(#pb7e8430828)" style="fill: none; stroke: #1f77b4; stroke-width: 1.5"/>
    <path d="M 768.286023 322.4155 
L 787.155795 322.4155 
" clip-path="url(#pb7e8430828)" style="fill: none; stroke: #1f77b4; stroke-width: 1.5"/>
   </g>
   <g id="patch_3">
    <path d="M 22.93 337.97 
L 22.93 26.88 
" style="fill: none; stroke: #000000; stroke-width: 0.8; stroke-linejoin: miter; stroke-linecap: square"/>
   </g>
   <g id="patch_4">
    <path d="M 853.2 337.97 
L 853.2 26.88 
" style="fill: none; stroke: #000000; stroke-width: 0.8; stroke-linejoin: miter; stroke-linecap: square"/>
   </g>
   <g id="patch_5">
    <path d="M 22.93 337.97 
L 853.2 337.97 
" style="fill: none; stroke: #000000; stroke-width: 0.8; stroke-linejoin: miter; stroke-linecap: square"/>
   </g>
   <g id="patch_6">
    <path d="M 22.93 26.88 
L 853.2 26.88 
" style="fill: none; stroke: #000000; stroke-width: 0.8; stroke-linejoin: miter; stroke-linecap: square"/>
   </g>
   <g id="text_16">
    <!-- Wins - turns: 200, repetitions: 20, strategies: 10.  -->
    <g transform="translate(290.180938 20.88)scale(0.12 -0.12)">
     <defs>
      <path id="DejaVuSans-57" d="M 213 4666 
L 850 4666 
L 1831 722 
L 2809 4666 
L 3519 4666 
L 4500 722 
L 5478 4666 
L 6119 4666 
L 4947 0 
L 4153 0 
L 3169 4050 
L 2175 0 
L 1381 0 
L 213 4666 
z
" transform="scale(0.015625)"/>
      <path id="DejaVuSans-2d" d="M 313 2009 
L 1997 2009 
L 1997 1497 
L 313 1497 
L 313 2009 
z
" transform="scale(0.015625)"/>
      <path id="DejaVuSans-2c" d="M 750 794 
L 1409 794 
L 1409 256 
L 897 -744 
L 494 -744 
L 750 256 
L 750 794 
z
" transform="scale(0.015625)"/>
      <path id="DejaVuSans-31" d="M 794 531 
L 1825 531 
L 1825 4091 
L 703 3866 
L 703 4441 
L 1819 4666 
L 2450 4666 
L 2450 531 
L 3481 531 
L 3481 0 
L 794 0 
L 794 531 
z
" transform="scale(0.015625)"/>
     </defs>
     <use xlink:href="#DejaVuSans-57"/>
     <use xlink:href="#DejaVuSans-69" x="96.626953"/>
     <use xlink:href="#DejaVuSans-6e" x="124.410156"/>
     <use xlink:href="#DejaVuSans-73" x="187.789062"/>
     <use xlink:href="#DejaVuSans-20" x="239.888672"/>
     <use xlink:href="#DejaVuSans-2d" x="271.675781"/>
     <use xlink:href="#DejaVuSans-20" x="307.759766"/>
     <use xlink:href="#DejaVuSans-74" x="339.546875"/>
     <use xlink:href="#DejaVuSans-75" x="378.755859"/>
     <use xlink:href="#DejaVuSans-72" x="442.134766"/>
     <use xlink:href="#DejaVuSans-6e" x="481.498047"/>
     <use xlink:href="#DejaVuSans-73" x="544.876953"/>
     <use xlink:href="#DejaVuSans-3a" x="596.976562"/>
     <use xlink:href="#DejaVuSans-20" x="630.667969"/>
     <use xlink:href="#DejaVuSans-32" x="662.455078"/>
     <use xlink:href="#DejaVuSans-30" x="726.078125"/>
     <use xlink:href="#DejaVuSans-30" x="789.701172"/>
     <use xlink:href="#DejaVuSans-2c" x="853.324219"/>
     <use xlink:href="#DejaVuSans-20" x="885.111328"/>
     <use xlink:href="#DejaVuSans-72" x="916.898438"/>
     <use xlink:href="#DejaVuSans-65" x="955.761719"/>
     <use xlink:href="#DejaVuSans-70" x="1017.285156"/>
     <use xlink:href="#DejaVuSans-65" x="1080.761719"/>
     <use xlink:href="#DejaVuSans-74" x="1142.285156"/>
     <use xlink:href="#DejaVuSans-69" x="1181.494141"/>
     <use xlink:href="#DejaVuSans-74" x="1209.277344"/>
     <use xlink:href="#DejaVuSans-69" x="1248.486328"/>
     <use xlink:href="#DejaVuSans-6f" x="1276.269531"/>
     <use xlink:href="#DejaVuSans-6e" x="1337.451172"/>
     <use xlink:href="#DejaVuSans-73" x="1400.830078"/>
     <use xlink:href="#DejaVuSans-3a" x="1452.929688"/>
     <use xlink:href="#DejaVuSans-20" x="1486.621094"/>
     <use xlink:href="#DejaVuSans-32" x="1518.408203"/>
     <use xlink:href="#DejaVuSans-30" x="1582.03125"/>
     <use xlink:href="#DejaVuSans-2c" x="1645.654297"/>
     <use xlink:href="#DejaVuSans-20" x="1677.441406"/>
     <use xlink:href="#DejaVuSans-73" x="1709.228516"/>
     <use xlink:href="#DejaVuSans-74" x="1761.328125"/>
     <use xlink:href="#DejaVuSans-72" x="1800.537109"/>
     <use xlink:href="#DejaVuSans-61" x="1841.650391"/>
     <use xlink:href="#DejaVuSans-74" x="1902.929688"/>
     <use xlink:href="#DejaVuSans-65" x="1942.138672"/>
     <use xlink:href="#DejaVuSans-67" x="2003.662109"/>
     <use xlink:href="#DejaVuSans-69" x="2067.138672"/>
     <use xlink:href="#DejaVuSans-65" x="2094.921875"/>
     <use xlink:href="#DejaVuSans-73" x="2156.445312"/>
     <use xlink:href="#DejaVuSans-3a" x="2208.544922"/>
     <use xlink:href="#DejaVuSans-20" x="2242.236328"/>
     <use xlink:href="#DejaVuSans-31" x="2274.023438"/>
     <use xlink:href="#DejaVuSans-30" x="2337.646484"/>
     <use xlink:href="#DejaVuSans-2e" x="2401.269531"/>
     <use xlink:href="#DejaVuSans-20" x="2433.056641"/>
    </g>
   </g>
  </g>
 </g>
 <defs>
  <clipPath id="pb7e8430828">
   <rect x="22.93" y="26.88" width="830.27" height="311.09"/>
  </clipPath>
 </defs>
</svg>
