<?xml version="1.0" encoding="utf-8" standalone="no"?>
<!DOCTYPE svg PUBLIC "-//W3C//DTD SVG 1.1//EN"
  "http://www.w3.org/Graphics/SVG/1.1/DTD/svg11.dtd">
<svg xmlns:xlink="http://www.w3.org/1999/xlink" width="864pt" height="432pt" viewBox="0 0 864 432" xmlns="http://www.w3.org/2000/svg" version="1.1">
 <metadata>
  <rdf:RDF xmlns:dc="http://purl.org/dc/elements/1.1/" xmlns:cc="http://creativecommons.org/ns#" xmlns:rdf="http://www.w3.org/1999/02/22-rdf-syntax-ns#">
   <cc:Work>
    <dc:type rdf:resource="http://purl.org/dc/dcmitype/StillImage"/>
    <dc:date>2022-09-26T23:55:18.023205</dc:date>
    <dc:format>image/svg+xml</dc:format>
    <dc:creator>
     <cc:Agent>
      <dc:title>Matplotlib v3.5.1, https://matplotlib.org/</dc:title>
     </cc:Agent>
    </dc:creator>
   </cc:Work>
  </rdf:RDF>
 </metadata>
 <defs>
  <style type="text/css">*{stroke-linejoin: round; stroke-linecap: butt}</style>
 </defs>
 <g id="figure_1">
  <g id="patch_1">
   <path d="M 0 432 
L 864 432 
L 864 0 
L 0 0 
z
" style="fill: #ffffff"/>
  </g>
  <g id="axes_1">
   <g id="patch_2">
    <path d="M 30.67 337.97 
L 853.2 337.97 
L 853.2 26.88 
L 30.67 26.88 
z
" style="fill: #ffffff"/>
   </g>
   <g id="PolyCollection_1">
    <path d="M 109.999063 138.779943 
L 100.891846 138.779943 
L 100.822479 138.181144 
L 100.764101 137.582344 
L 100.716756 136.983545 
L 100.680345 136.384746 
L 100.654613 135.785946 
L 100.639159 135.187147 
L 100.63343 134.588348 
L 100.636731 133.989548 
L 100.64823 133.390749 
L 100.666967 132.79195 
L 100.691868 132.19315 
L 100.721755 131.594351 
L 100.755362 130.995552 
L 100.791355 130.396752 
L 100.828345 129.797953 
L 100.864906 129.199153 
L 100.899599 128.600354 
L 100.930988 128.001555 
L 100.957657 127.402755 
L 100.978232 126.803956 
L 100.991395 126.205157 
L 100.995905 125.606357 
L 100.990608 125.007558 
L 100.974456 124.408759 
L 100.946513 123.809959 
L 100.90597 123.21116 
L 100.85215 122.612361 
L 100.784514 122.013561 
L 100.702662 121.414762 
L 100.606341 120.815962 
L 100.495433 120.217163 
L 100.369961 119.618364 
L 100.230079 119.019564 
L 100.076064 118.420765 
L 99.908305 117.821966 
L 99.727298 117.223166 
L 99.533625 116.624367 
L 99.327946 116.025568 
L 99.11098 115.426768 
L 98.883494 114.827969 
L 98.64628 114.22917 
L 98.400149 113.63037 
L 98.145904 113.031571 
L 97.884333 112.432771 
L 97.616193 111.833972 
L 97.342196 111.235173 
L 97.062999 110.636373 
L 96.779192 110.037574 
L 96.491298 109.438775 
L 96.19976 108.839975 
L 95.904944 108.241176 
L 95.60714 107.642377 
L 95.306563 107.043577 
L 95.003361 106.444778 
L 94.697623 105.845979 
L 94.389395 105.247179 
L 94.078688 104.64838 
L 93.765499 104.04958 
L 93.449826 103.450781 
L 93.131693 102.851982 
L 92.811165 102.253182 
L 92.488371 101.654383 
L 92.163528 101.055584 
L 91.836955 100.456784 
L 91.5091 99.857985 
L 91.180551 99.259186 
L 90.852053 98.660386 
L 90.52452 98.061587 
L 90.199043 97.462788 
L 89.876897 96.863988 
L 89.559537 96.265189 
L 89.248596 95.666389 
L 88.945877 95.06759 
L 88.653339 94.468791 
L 88.373081 93.869991 
L 88.107316 93.271192 
L 87.858349 92.672393 
L 87.628543 92.073593 
L 87.42029 91.474794 
L 87.235974 90.875995 
L 87.077934 90.277195 
L 86.948425 89.678396 
L 86.849581 89.079597 
L 86.783377 88.480797 
L 86.751591 87.881998 
L 86.755773 87.283198 
L 86.79721 86.684399 
L 86.8769 86.0856 
L 86.995532 85.4868 
L 87.153461 84.888001 
L 87.350701 84.289202 
L 87.586912 83.690402 
L 87.861404 83.091603 
L 88.173136 82.492804 
L 88.520728 81.894004 
L 88.902476 81.295205 
L 89.316372 80.696406 
L 89.76013 80.097606 
L 90.231212 79.498807 
L 120.659697 79.498807 
L 120.659697 79.498807 
L 121.130779 80.097606 
L 121.574537 80.696406 
L 121.988433 81.295205 
L 122.370181 81.894004 
L 122.717773 82.492804 
L 123.029505 83.091603 
L 123.303997 83.690402 
L 123.540209 84.289202 
L 123.737448 84.888001 
L 123.895377 85.4868 
L 124.014009 86.0856 
L 124.0937 86.684399 
L 124.135136 87.283198 
L 124.139318 87.881998 
L 124.107533 88.480797 
L 124.041328 89.079597 
L 123.942485 89.678396 
L 123.812976 90.277195 
L 123.654935 90.875995 
L 123.470619 91.474794 
L 123.262367 92.073593 
L 123.03256 92.672393 
L 122.783593 93.271192 
L 122.517828 93.869991 
L 122.23757 94.468791 
L 121.945033 95.06759 
L 121.642314 95.666389 
L 121.331372 96.265189 
L 121.014012 96.863988 
L 120.691866 97.462788 
L 120.36639 98.061587 
L 120.038857 98.660386 
L 119.710358 99.259186 
L 119.381809 99.857985 
L 119.053954 100.456784 
L 118.727381 101.055584 
L 118.402538 101.654383 
L 118.079744 102.253182 
L 117.759216 102.851982 
L 117.441083 103.450781 
L 117.125411 104.04958 
L 116.812221 104.64838 
L 116.501514 105.247179 
L 116.193286 105.845979 
L 115.887548 106.444778 
L 115.584346 107.043577 
L 115.283769 107.642377 
L 114.985965 108.241176 
L 114.691149 108.839975 
L 114.399611 109.438775 
L 114.111717 110.037574 
L 113.82791 110.636373 
L 113.548713 111.235173 
L 113.274716 111.833972 
L 113.006576 112.432771 
L 112.745005 113.031571 
L 112.49076 113.63037 
L 112.244629 114.22917 
L 112.007416 114.827969 
L 111.779929 115.426768 
L 111.562963 116.025568 
L 111.357284 116.624367 
L 111.163611 117.223166 
L 110.982604 117.821966 
L 110.814845 118.420765 
L 110.66083 119.019564 
L 110.520948 119.618364 
L 110.395476 120.217163 
L 110.284569 120.815962 
L 110.188247 121.414762 
L 110.106395 122.013561 
L 110.038759 122.612361 
L 109.984939 123.21116 
L 109.944396 123.809959 
L 109.916453 124.408759 
L 109.900301 125.007558 
L 109.895004 125.606357 
L 109.899514 126.205157 
L 109.912677 126.803956 
L 109.933252 127.402755 
L 109.959921 128.001555 
L 109.99131 128.600354 
L 110.026003 129.199153 
L 110.062565 129.797953 
L 110.099554 130.396752 
L 110.135547 130.995552 
L 110.169154 131.594351 
L 110.199041 132.19315 
L 110.223942 132.79195 
L 110.242679 133.390749 
L 110.254178 133.989548 
L 110.257479 134.588348 
L 110.25175 135.187147 
L 110.236296 135.785946 
L 110.210564 136.384746 
L 110.174153 136.983545 
L 110.126808 137.582344 
L 110.06843 138.181144 
L 109.999063 138.779943 
z
" clip-path="url(#pad6618f415)" style="fill: #1f77b4; fill-opacity: 0.3"/>
   </g>
   <g id="PolyCollection_2">
    <path d="M 188.362893 125.727216 
L 172.078925 125.727216 
L 171.555123 124.874339 
L 171.021866 124.021462 
L 170.481031 123.168585 
L 169.934625 122.315708 
L 169.384775 121.462831 
L 168.833727 120.609954 
L 168.283831 119.757076 
L 167.73754 118.904199 
L 167.197392 118.051322 
L 166.666005 117.198445 
L 166.146063 116.345568 
L 165.640301 115.492691 
L 165.151486 114.639814 
L 164.682405 113.786937 
L 164.235842 112.93406 
L 163.814553 112.081183 
L 163.421247 111.228306 
L 163.058556 110.375429 
L 162.729008 109.522552 
L 162.434999 108.669675 
L 162.178763 107.816798 
L 161.962337 106.96392 
L 161.787538 106.111043 
L 161.655924 105.258166 
L 161.568771 104.405289 
L 161.527045 103.552412 
L 161.531376 102.699535 
L 161.582037 101.846658 
L 161.678927 100.993781 
L 161.821559 100.140904 
L 162.009052 99.288027 
L 162.24013 98.43515 
L 162.513125 97.582273 
L 162.825989 96.729396 
L 163.176311 95.876519 
L 163.561339 95.023642 
L 163.978011 94.170764 
L 164.422991 93.317887 
L 164.892711 92.46501 
L 165.383413 91.612133 
L 165.891202 90.759256 
L 166.412097 89.906379 
L 166.942083 89.053502 
L 167.477172 88.200625 
L 168.013448 87.347748 
L 168.547126 86.494871 
L 169.0746 85.641994 
L 169.592485 84.789117 
L 170.097661 83.93624 
L 170.587305 83.083363 
L 171.058921 82.230486 
L 171.510357 81.377608 
L 171.939823 80.524731 
L 172.345895 79.671854 
L 172.727514 78.818977 
L 173.083978 77.9661 
L 173.41493 77.113223 
L 173.720336 76.260346 
L 174.000464 75.407469 
L 174.255851 74.554592 
L 174.48728 73.701715 
L 174.695737 72.848838 
L 174.882387 71.995961 
L 175.048533 71.143084 
L 175.195588 70.290207 
L 175.32504 69.43733 
L 175.438424 68.584452 
L 175.537296 67.731575 
L 175.623209 66.878698 
L 175.697691 66.025821 
L 175.762231 65.172944 
L 175.818262 64.320067 
L 175.86715 63.46719 
L 175.910192 62.614313 
L 175.948604 61.761436 
L 175.98352 60.908559 
L 176.015996 60.055682 
L 176.047005 59.202805 
L 176.077442 58.349928 
L 176.108127 57.497051 
L 176.139807 56.644174 
L 176.17316 55.791296 
L 176.208801 54.938419 
L 176.247279 54.085542 
L 176.289086 53.232665 
L 176.334656 52.379788 
L 176.384364 51.526911 
L 176.438532 50.674034 
L 176.497422 49.821157 
L 176.561242 48.96828 
L 176.630138 48.115403 
L 176.704199 47.262526 
L 176.783451 46.409649 
L 176.867858 45.556772 
L 176.95732 44.703895 
L 177.051672 43.851018 
L 177.150685 42.99814 
L 177.254068 42.145263 
L 177.361468 41.292386 
L 183.08035 41.292386 
L 183.08035 41.292386 
L 183.187751 42.145263 
L 183.291133 42.99814 
L 183.390147 43.851018 
L 183.484498 44.703895 
L 183.57396 45.556772 
L 183.658367 46.409649 
L 183.737619 47.262526 
L 183.81168 48.115403 
L 183.880577 48.96828 
L 183.944396 49.821157 
L 184.003286 50.674034 
L 184.057454 51.526911 
L 184.107162 52.379788 
L 184.152732 53.232665 
L 184.194539 54.085542 
L 184.233018 54.938419 
L 184.268658 55.791296 
L 184.302011 56.644174 
L 184.333691 57.497051 
L 184.364376 58.349928 
L 184.394813 59.202805 
L 184.425822 60.055682 
L 184.458298 60.908559 
L 184.493215 61.761436 
L 184.531626 62.614313 
L 184.574668 63.46719 
L 184.623557 64.320067 
L 184.679587 65.172944 
L 184.744127 66.025821 
L 184.818609 66.878698 
L 184.904522 67.731575 
L 185.003394 68.584452 
L 185.116778 69.43733 
L 185.24623 70.290207 
L 185.393285 71.143084 
L 185.559431 71.995961 
L 185.746081 72.848838 
L 185.954538 73.701715 
L 186.185967 74.554592 
L 186.441355 75.407469 
L 186.721482 76.260346 
L 187.026888 77.113223 
L 187.35784 77.9661 
L 187.714304 78.818977 
L 188.095923 79.671854 
L 188.501995 80.524731 
L 188.931461 81.377608 
L 189.382898 82.230486 
L 189.854513 83.083363 
L 190.344157 83.93624 
L 190.849333 84.789117 
L 191.367218 85.641994 
L 191.894692 86.494871 
L 192.42837 87.347748 
L 192.964646 88.200625 
L 193.499735 89.053502 
L 194.029722 89.906379 
L 194.550616 90.759256 
L 195.058405 91.612133 
L 195.549107 92.46501 
L 196.018827 93.317887 
L 196.463808 94.170764 
L 196.88048 95.023642 
L 197.265507 95.876519 
L 197.615829 96.729396 
L 197.928693 97.582273 
L 198.201688 98.43515 
L 198.432766 99.288027 
L 198.620259 100.140904 
L 198.762891 100.993781 
L 198.859781 101.846658 
L 198.910442 102.699535 
L 198.914773 103.552412 
L 198.873047 104.405289 
L 198.785895 105.258166 
L 198.654281 106.111043 
L 198.479481 106.96392 
L 198.263055 107.816798 
L 198.006819 108.669675 
L 197.71281 109.522552 
L 197.383262 110.375429 
L 197.020571 111.228306 
L 196.627265 112.081183 
L 196.205976 112.93406 
L 195.759413 113.786937 
L 195.290332 114.639814 
L 194.801518 115.492691 
L 194.295755 116.345568 
L 193.775813 117.198445 
L 193.244426 118.051322 
L 192.704278 118.904199 
L 192.157987 119.757076 
L 191.608091 120.609954 
L 191.057043 121.462831 
L 190.507193 122.315708 
L 189.960787 123.168585 
L 189.419952 124.021462 
L 188.886695 124.874339 
L 188.362893 125.727216 
z
" clip-path="url(#pad6618f415)" style="fill: #1f77b4; fill-opacity: 0.3"/>
   </g>
   <g id="PolyCollection_3">
    <path d="M 266.023002 217.912102 
L 243.969725 217.912102 
L 243.586636 216.125318 
L 243.21411 214.338534 
L 242.853397 212.551749 
L 242.505625 210.764965 
L 242.171789 208.978181 
L 241.852736 207.191396 
L 241.549156 205.404612 
L 241.261574 203.617828 
L 240.990343 201.831043 
L 240.735638 200.044259 
L 240.497459 198.257475 
L 240.275628 196.47069 
L 240.069798 194.683906 
L 239.879453 192.897122 
L 239.703922 191.110337 
L 239.542392 189.323553 
L 239.393918 187.536769 
L 239.257442 185.749985 
L 239.131811 183.9632 
L 239.015799 182.176416 
L 238.908128 180.389632 
L 238.807488 178.602847 
L 238.712568 176.816063 
L 238.622072 175.029279 
L 238.534748 173.242494 
L 238.44941 171.45571 
L 238.364961 169.668926 
L 238.280412 167.882141 
L 238.194905 166.095357 
L 238.107722 164.308573 
L 238.01831 162.521788 
L 237.926281 160.735004 
L 237.831427 158.94822 
L 237.733721 157.161435 
L 237.633315 155.374651 
L 237.530543 153.587867 
L 237.425909 151.801082 
L 237.320078 150.014298 
L 237.213859 148.227514 
L 237.108195 146.440729 
L 237.004135 144.653945 
L 236.902817 142.867161 
L 236.805439 141.080376 
L 236.713242 139.293592 
L 236.627472 137.506808 
L 236.549364 135.720024 
L 236.480111 133.933239 
L 236.420837 132.146455 
L 236.37258 130.359671 
L 236.336265 128.572886 
L 236.312688 126.786102 
L 236.3025 124.999318 
L 236.306197 123.212533 
L 236.324108 121.425749 
L 236.356396 119.638965 
L 236.403051 117.85218 
L 236.463902 116.065396 
L 236.538618 114.278612 
L 236.626723 112.491827 
L 236.727609 110.705043 
L 236.840557 108.918259 
L 236.964753 107.131474 
L 237.099313 105.34469 
L 237.243308 103.557906 
L 237.395784 101.771121 
L 237.555792 99.984337 
L 237.722407 98.197553 
L 237.894755 96.410768 
L 238.072032 94.623984 
L 238.253522 92.8372 
L 238.438616 91.050416 
L 238.626822 89.263631 
L 238.817778 87.476847 
L 239.011254 85.690063 
L 239.207156 83.903278 
L 239.405524 82.116494 
L 239.606526 80.32971 
L 239.810451 78.542925 
L 240.017692 76.756141 
L 240.228738 74.969357 
L 240.444149 73.182572 
L 240.664543 71.395788 
L 240.890568 69.609004 
L 241.122889 67.822219 
L 241.362157 66.035435 
L 241.608993 64.248651 
L 241.863965 62.461866 
L 242.127568 60.675082 
L 242.400208 58.888298 
L 242.682183 57.101513 
L 242.973672 55.314729 
L 243.274726 53.527945 
L 243.585258 51.74116 
L 243.905039 49.954376 
L 244.233699 48.167592 
L 244.570726 46.380808 
L 244.915474 44.594023 
L 245.267167 42.807239 
L 245.624913 41.020455 
L 264.367814 41.020455 
L 264.367814 41.020455 
L 264.72556 42.807239 
L 265.077253 44.594023 
L 265.422001 46.380808 
L 265.759028 48.167592 
L 266.087688 49.954376 
L 266.407469 51.74116 
L 266.718001 53.527945 
L 267.019055 55.314729 
L 267.310545 57.101513 
L 267.592519 58.888298 
L 267.865159 60.675082 
L 268.128762 62.461866 
L 268.383734 64.248651 
L 268.63057 66.035435 
L 268.869838 67.822219 
L 269.102159 69.609004 
L 269.328185 71.395788 
L 269.548578 73.182572 
L 269.763989 74.969357 
L 269.975035 76.756141 
L 270.182277 78.542925 
L 270.386201 80.32971 
L 270.587203 82.116494 
L 270.785571 83.903278 
L 270.981473 85.690063 
L 271.174949 87.476847 
L 271.365905 89.263631 
L 271.554112 91.050416 
L 271.739205 92.8372 
L 271.920695 94.623984 
L 272.097972 96.410768 
L 272.27032 98.197553 
L 272.436935 99.984337 
L 272.596943 101.771121 
L 272.749419 103.557906 
L 272.893414 105.34469 
L 273.027975 107.131474 
L 273.152171 108.918259 
L 273.265118 110.705043 
L 273.366005 112.491827 
L 273.454109 114.278612 
L 273.528825 116.065396 
L 273.589676 117.85218 
L 273.636331 119.638965 
L 273.668619 121.425749 
L 273.68653 123.212533 
L 273.690227 124.999318 
L 273.68004 126.786102 
L 273.656462 128.572886 
L 273.620147 130.359671 
L 273.57189 132.146455 
L 273.512617 133.933239 
L 273.443363 135.720024 
L 273.365255 137.506808 
L 273.279486 139.293592 
L 273.187288 141.080376 
L 273.089911 142.867161 
L 272.988592 144.653945 
L 272.884532 146.440729 
L 272.778868 148.227514 
L 272.67265 150.014298 
L 272.566818 151.801082 
L 272.462184 153.587867 
L 272.359412 155.374651 
L 272.259007 157.161435 
L 272.1613 158.94822 
L 272.066446 160.735004 
L 271.974417 162.521788 
L 271.885005 164.308573 
L 271.797823 166.095357 
L 271.712315 167.882141 
L 271.627766 169.668926 
L 271.543317 171.45571 
L 271.457979 173.242494 
L 271.370655 175.029279 
L 271.280159 176.816063 
L 271.185239 178.602847 
L 271.0846 180.389632 
L 270.976928 182.176416 
L 270.860916 183.9632 
L 270.735286 185.749985 
L 270.598809 187.536769 
L 270.450335 189.323553 
L 270.288805 191.110337 
L 270.113275 192.897122 
L 269.922929 194.683906 
L 269.717099 196.47069 
L 269.495269 198.257475 
L 269.257089 200.044259 
L 269.002385 201.831043 
L 268.731153 203.617828 
L 268.443571 205.404612 
L 268.139992 207.191396 
L 267.820938 208.978181 
L 267.487102 210.764965 
L 267.13933 212.551749 
L 266.778617 214.338534 
L 266.406091 216.125318 
L 266.023002 217.912102 
z
" clip-path="url(#pad6618f415)" style="fill: #1f77b4; fill-opacity: 0.3"/>
   </g>
   <g id="PolyCollection_4">
    <path d="M 332.518999 267.267727 
L 327.024638 267.267727 
L 326.942324 266.206094 
L 326.864941 265.144462 
L 326.792602 264.082829 
L 326.725318 263.021196 
L 326.662995 261.959563 
L 326.60543 260.89793 
L 326.552312 259.836298 
L 326.503219 258.774665 
L 326.457622 257.713032 
L 326.414886 256.651399 
L 326.374277 255.589766 
L 326.334965 254.528134 
L 326.296039 253.466501 
L 326.256507 252.404868 
L 326.215316 251.343235 
L 326.171358 250.281602 
L 326.123486 249.21997 
L 326.070529 248.158337 
L 326.011307 247.096704 
L 325.944644 246.035071 
L 325.869389 244.973438 
L 325.784427 243.911806 
L 325.688696 242.850173 
L 325.581205 241.78854 
L 325.461039 240.726907 
L 325.327381 239.665274 
L 325.179514 238.603642 
L 325.016836 237.542009 
L 324.83886 236.480376 
L 324.645223 235.418743 
L 324.435687 234.35711 
L 324.210138 233.295478 
L 323.968586 232.233845 
L 323.71116 231.172212 
L 323.438104 230.110579 
L 323.149774 229.048946 
L 322.846629 227.987313 
L 322.529226 226.925681 
L 322.198215 225.864048 
L 321.854332 224.802415 
L 321.498392 223.740782 
L 321.131292 222.679149 
L 320.753999 221.617517 
L 320.367554 220.555884 
L 319.973066 219.494251 
L 319.571712 218.432618 
L 319.164735 217.370985 
L 318.753445 216.309353 
L 318.33921 215.24772 
L 317.923457 214.186087 
L 317.507667 213.124454 
L 317.093364 212.062821 
L 316.682111 211.001189 
L 316.275494 209.939556 
L 315.87511 208.877923 
L 315.482553 207.81629 
L 315.099397 206.754657 
L 314.727178 205.693025 
L 314.367374 204.631392 
L 314.021391 203.569759 
L 313.690541 202.508126 
L 313.376034 201.446493 
L 313.078959 200.384861 
L 312.80028 199.323228 
L 312.540825 198.261595 
L 312.301294 197.199962 
L 312.082254 196.138329 
L 311.884152 195.076697 
L 311.707325 194.015064 
L 311.552018 192.953431 
L 311.418401 191.891798 
L 311.306593 190.830165 
L 311.216681 189.768532 
L 311.148747 188.7069 
L 311.102887 187.645267 
L 311.07923 186.583634 
L 311.077955 185.522001 
L 311.099302 184.460368 
L 311.143581 183.398736 
L 311.211169 182.337103 
L 311.302508 181.27547 
L 311.418092 180.213837 
L 311.558451 179.152204 
L 311.724127 178.090572 
L 311.915649 177.028939 
L 312.133499 175.967306 
L 312.378083 174.905673 
L 312.649693 173.84404 
L 312.948473 172.782408 
L 313.274388 171.720775 
L 313.627194 170.659142 
L 314.00641 169.597509 
L 314.411298 168.535876 
L 314.840853 167.474244 
L 315.293789 166.412611 
L 315.768544 165.350978 
L 316.263283 164.289345 
L 316.775918 163.227712 
L 317.304125 162.16608 
L 342.239511 162.16608 
L 342.239511 162.16608 
L 342.767718 163.227712 
L 343.280353 164.289345 
L 343.775093 165.350978 
L 344.249847 166.412611 
L 344.702783 167.474244 
L 345.132338 168.535876 
L 345.537227 169.597509 
L 345.916442 170.659142 
L 346.269248 171.720775 
L 346.595164 172.782408 
L 346.893944 173.84404 
L 347.165553 174.905673 
L 347.410137 175.967306 
L 347.627988 177.028939 
L 347.819509 178.090572 
L 347.985185 179.152204 
L 348.125544 180.213837 
L 348.241129 181.27547 
L 348.332468 182.337103 
L 348.400056 183.398736 
L 348.444335 184.460368 
L 348.465682 185.522001 
L 348.464406 186.583634 
L 348.440749 187.645267 
L 348.394889 188.7069 
L 348.326955 189.768532 
L 348.237044 190.830165 
L 348.125235 191.891798 
L 347.991618 192.953431 
L 347.836311 194.015064 
L 347.659484 195.076697 
L 347.461382 196.138329 
L 347.242342 197.199962 
L 347.002811 198.261595 
L 346.743357 199.323228 
L 346.464677 200.384861 
L 346.167602 201.446493 
L 345.853095 202.508126 
L 345.522246 203.569759 
L 345.176262 204.631392 
L 344.816458 205.693025 
L 344.444239 206.754657 
L 344.061083 207.81629 
L 343.668527 208.877923 
L 343.268142 209.939556 
L 342.861525 211.001189 
L 342.450272 212.062821 
L 342.03597 213.124454 
L 341.62018 214.186087 
L 341.204427 215.24772 
L 340.790192 216.309353 
L 340.378901 217.370985 
L 339.971925 218.432618 
L 339.570571 219.494251 
L 339.176082 220.555884 
L 338.789637 221.617517 
L 338.412344 222.679149 
L 338.045244 223.740782 
L 337.689305 224.802415 
L 337.345421 225.864048 
L 337.01441 226.925681 
L 336.697007 227.987313 
L 336.393862 229.048946 
L 336.105533 230.110579 
L 335.832477 231.172212 
L 335.57505 232.233845 
L 335.333498 233.295478 
L 335.107949 234.35711 
L 334.898413 235.418743 
L 334.704776 236.480376 
L 334.5268 237.542009 
L 334.364122 238.603642 
L 334.216255 239.665274 
L 334.082597 240.726907 
L 333.962432 241.78854 
L 333.85494 242.850173 
L 333.75921 243.911806 
L 333.674247 244.973438 
L 333.598992 246.035071 
L 333.53233 247.096704 
L 333.473107 248.158337 
L 333.420151 249.21997 
L 333.372279 250.281602 
L 333.32832 251.343235 
L 333.287129 252.404868 
L 333.247598 253.466501 
L 333.208671 254.528134 
L 333.16936 255.589766 
L 333.12875 256.651399 
L 333.086014 257.713032 
L 333.040417 258.774665 
L 332.991324 259.836298 
L 332.938207 260.89793 
L 332.880642 261.959563 
L 332.818318 263.021196 
L 332.751034 264.082829 
L 332.678695 265.144462 
L 332.601313 266.206094 
L 332.518999 267.267727 
z
" clip-path="url(#pad6618f415)" style="fill: #1f77b4; fill-opacity: 0.3"/>
   </g>
   <g id="PolyCollection_5">
    <path d="M 410.567872 221.719148 
L 398.526674 221.719148 
L 398.036309 220.945927 
L 397.52146 220.172707 
L 396.982952 219.399487 
L 396.421993 218.626267 
L 395.840214 217.853046 
L 395.239692 217.079826 
L 394.622976 216.306606 
L 393.993097 215.533386 
L 393.353569 214.760165 
L 392.708382 213.986945 
L 392.061975 213.213725 
L 391.4192 212.440504 
L 390.785271 211.667284 
L 390.165701 210.894064 
L 389.566221 210.120844 
L 388.992691 209.347623 
L 388.451003 208.574403 
L 387.94697 207.801183 
L 387.486215 207.027963 
L 387.074056 206.254742 
L 386.715391 205.481522 
L 386.414588 204.708302 
L 386.175385 203.935081 
L 386.000791 203.161861 
L 385.893018 202.388641 
L 385.853409 201.615421 
L 385.8824 200.8422 
L 385.979494 200.06898 
L 386.143258 199.29576 
L 386.37134 198.52254 
L 386.660509 197.749319 
L 387.006716 196.976099 
L 387.405164 196.202879 
L 387.850409 195.429659 
L 388.336462 194.656438 
L 388.856907 193.883218 
L 389.405029 193.109998 
L 389.973937 192.336777 
L 390.556702 191.563557 
L 391.146476 190.790337 
L 391.736619 190.017117 
L 392.320814 189.243896 
L 392.893162 188.470676 
L 393.448282 187.697456 
L 393.981379 186.924236 
L 394.488308 186.151015 
L 394.965615 185.377795 
L 395.410567 184.604575 
L 395.821162 183.831354 
L 396.196124 183.058134 
L 396.534884 182.284914 
L 396.837546 181.511694 
L 397.104842 180.738473 
L 397.338078 179.965253 
L 397.539068 179.192033 
L 397.71006 178.418813 
L 397.853665 177.645592 
L 397.972774 176.872372 
L 398.07048 176.099152 
L 398.149995 175.325931 
L 398.214577 174.552711 
L 398.267455 173.779491 
L 398.311762 173.006271 
L 398.350474 172.23305 
L 398.386361 171.45983 
L 398.421937 170.68661 
L 398.459429 169.91339 
L 398.500752 169.140169 
L 398.547494 168.366949 
L 398.600906 167.593729 
L 398.66191 166.820508 
L 398.731105 166.047288 
L 398.80879 165.274068 
L 398.894985 164.500848 
L 398.989464 163.727627 
L 399.091787 162.954407 
L 399.20134 162.181187 
L 399.31737 161.407967 
L 399.439027 160.634746 
L 399.565398 159.861526 
L 399.695548 159.088306 
L 399.828547 158.315086 
L 399.963504 157.541865 
L 400.099587 156.768645 
L 400.236047 155.995425 
L 400.372232 155.222204 
L 400.507593 154.448984 
L 400.641694 153.675764 
L 400.774209 152.902544 
L 400.904917 152.129323 
L 401.033696 151.356103 
L 401.160511 150.582883 
L 401.2854 149.809663 
L 401.408458 149.036442 
L 401.529821 148.263222 
L 401.649652 147.490002 
L 401.768118 146.716781 
L 401.885383 145.943561 
L 402.001588 145.170341 
L 407.092958 145.170341 
L 407.092958 145.170341 
L 407.209163 145.943561 
L 407.326427 146.716781 
L 407.444894 147.490002 
L 407.564724 148.263222 
L 407.686088 149.036442 
L 407.809145 149.809663 
L 407.934034 150.582883 
L 408.060849 151.356103 
L 408.189628 152.129323 
L 408.320336 152.902544 
L 408.452851 153.675764 
L 408.586952 154.448984 
L 408.722313 155.222204 
L 408.858498 155.995425 
L 408.994958 156.768645 
L 409.131042 157.541865 
L 409.265998 158.315086 
L 409.398997 159.088306 
L 409.529147 159.861526 
L 409.655519 160.634746 
L 409.777176 161.407967 
L 409.893206 162.181187 
L 410.002759 162.954407 
L 410.105082 163.727627 
L 410.19956 164.500848 
L 410.285755 165.274068 
L 410.36344 166.047288 
L 410.432635 166.820508 
L 410.493639 167.593729 
L 410.547052 168.366949 
L 410.593793 169.140169 
L 410.635117 169.91339 
L 410.672609 170.68661 
L 410.708184 171.45983 
L 410.744071 172.23305 
L 410.782784 173.006271 
L 410.827091 173.779491 
L 410.879969 174.552711 
L 410.944551 175.325931 
L 411.024066 176.099152 
L 411.121771 176.872372 
L 411.240881 177.645592 
L 411.384486 178.418813 
L 411.555478 179.192033 
L 411.756467 179.965253 
L 411.989703 180.738473 
L 412.257 181.511694 
L 412.559662 182.284914 
L 412.898421 183.058134 
L 413.273384 183.831354 
L 413.683979 184.604575 
L 414.128931 185.377795 
L 414.606238 186.151015 
L 415.113166 186.924236 
L 415.646263 187.697456 
L 416.201383 188.470676 
L 416.773732 189.243896 
L 417.357926 190.017117 
L 417.94807 190.790337 
L 418.537844 191.563557 
L 419.120608 192.336777 
L 419.689517 193.109998 
L 420.237638 193.883218 
L 420.758084 194.656438 
L 421.244136 195.429659 
L 421.689381 196.202879 
L 422.08783 196.976099 
L 422.434036 197.749319 
L 422.723206 198.52254 
L 422.951288 199.29576 
L 423.115051 200.06898 
L 423.212145 200.8422 
L 423.241136 201.615421 
L 423.201527 202.388641 
L 423.093754 203.161861 
L 422.919161 203.935081 
L 422.679957 204.708302 
L 422.379155 205.481522 
L 422.02049 206.254742 
L 421.608331 207.027963 
L 421.147576 207.801183 
L 420.643543 208.574403 
L 420.101854 209.347623 
L 419.528325 210.120844 
L 418.928844 210.894064 
L 418.309274 211.667284 
L 417.675346 212.440504 
L 417.032571 213.213725 
L 416.386163 213.986945 
L 415.740976 214.760165 
L 415.101449 215.533386 
L 414.47157 216.306606 
L 413.854854 217.079826 
L 413.254332 217.853046 
L 412.672552 218.626267 
L 412.111594 219.399487 
L 411.573085 220.172707 
L 411.058236 220.945927 
L 410.567872 221.719148 
z
" clip-path="url(#pad6618f415)" style="fill: #1f77b4; fill-opacity: 0.3"/>
   </g>
   <g id="PolyCollection_6">
    <path d="M 491.861197 225.118295 
L 466.784258 225.118295 
L 466.24578 224.535977 
L 465.725272 223.953658 
L 465.225058 223.37134 
L 464.74715 222.789021 
L 464.293231 222.206702 
L 463.864651 221.624384 
L 463.462428 221.042065 
L 463.087273 220.459746 
L 462.739604 219.877428 
L 462.419589 219.295109 
L 462.127177 218.71279 
L 461.862147 218.130472 
L 461.624149 217.548153 
L 461.412753 216.965834 
L 461.227487 216.383516 
L 461.067879 215.801197 
L 460.933489 215.218879 
L 460.823931 214.63656 
L 460.73889 214.054241 
L 460.678129 213.471923 
L 460.641487 212.889604 
L 460.628864 212.307285 
L 460.640204 211.724967 
L 460.675468 211.142648 
L 460.734603 210.560329 
L 460.817502 209.978011 
L 460.923976 209.395692 
L 461.053712 208.813374 
L 461.206244 208.231055 
L 461.380928 207.648736 
L 461.576918 207.066418 
L 461.793159 206.484099 
L 462.028381 205.90178 
L 462.281107 205.319462 
L 462.549671 204.737143 
L 462.832245 204.154824 
L 463.126868 203.572506 
L 463.431494 202.990187 
L 463.744036 202.407868 
L 464.062414 201.82555 
L 464.38461 201.243231 
L 464.708714 200.660913 
L 465.032977 200.078594 
L 465.355849 199.496275 
L 465.676016 198.913957 
L 465.99243 198.331638 
L 466.304321 197.749319 
L 466.611212 197.167001 
L 466.912914 196.584682 
L 467.209512 196.002363 
L 467.501343 195.420045 
L 467.788969 194.837726 
L 468.073134 194.255407 
L 468.354721 193.673089 
L 468.634706 193.09077 
L 468.914102 192.508452 
L 469.193915 191.926133 
L 469.475086 191.343814 
L 469.758453 190.761496 
L 470.044701 190.179177 
L 470.334335 189.596858 
L 470.627644 189.01454 
L 470.924687 188.432221 
L 471.225279 187.849902 
L 471.528989 187.267584 
L 471.835146 186.685265 
L 472.142853 186.102947 
L 472.45101 185.520628 
L 472.758344 184.938309 
L 473.063437 184.355991 
L 473.364771 183.773672 
L 473.660766 183.191353 
L 473.949822 182.609035 
L 474.230366 182.026716 
L 474.500888 181.444397 
L 474.759986 180.862079 
L 475.0064 180.27976 
L 475.239044 179.697441 
L 475.457033 179.115123 
L 475.659704 178.532804 
L 475.846631 177.950486 
L 476.017633 177.368167 
L 476.172776 176.785848 
L 476.312369 176.20353 
L 476.436952 175.621211 
L 476.547281 175.038892 
L 476.644309 174.456574 
L 476.729153 173.874255 
L 476.803072 173.291936 
L 476.867433 172.709618 
L 476.923676 172.127299 
L 476.973282 171.54498 
L 477.017734 170.962662 
L 477.05849 170.380343 
L 477.096948 169.798025 
L 477.13442 169.215706 
L 477.172102 168.633387 
L 477.211059 168.051069 
L 477.252204 167.46875 
L 481.39325 167.46875 
L 481.39325 167.46875 
L 481.434396 168.051069 
L 481.473353 168.633387 
L 481.511035 169.215706 
L 481.548506 169.798025 
L 481.586965 170.380343 
L 481.627721 170.962662 
L 481.672173 171.54498 
L 481.721778 172.127299 
L 481.778021 172.709618 
L 481.842383 173.291936 
L 481.916302 173.874255 
L 482.001146 174.456574 
L 482.098173 175.038892 
L 482.208503 175.621211 
L 482.333086 176.20353 
L 482.472679 176.785848 
L 482.627821 177.368167 
L 482.798823 177.950486 
L 482.98575 178.532804 
L 483.188421 179.115123 
L 483.40641 179.697441 
L 483.639054 180.27976 
L 483.885469 180.862079 
L 484.144567 181.444397 
L 484.415089 182.026716 
L 484.695632 182.609035 
L 484.984689 183.191353 
L 485.280684 183.773672 
L 485.582018 184.355991 
L 485.887111 184.938309 
L 486.194444 185.520628 
L 486.502602 186.102947 
L 486.810309 186.685265 
L 487.116465 187.267584 
L 487.420175 187.849902 
L 487.720767 188.432221 
L 488.01781 189.01454 
L 488.311119 189.596858 
L 488.600753 190.179177 
L 488.887002 190.761496 
L 489.170368 191.343814 
L 489.45154 191.926133 
L 489.731352 192.508452 
L 490.010749 193.09077 
L 490.290733 193.673089 
L 490.57232 194.255407 
L 490.856485 194.837726 
L 491.144111 195.420045 
L 491.435943 196.002363 
L 491.73254 196.584682 
L 492.034242 197.167001 
L 492.341134 197.749319 
L 492.653025 198.331638 
L 492.969438 198.913957 
L 493.289606 199.496275 
L 493.612477 200.078594 
L 493.93674 200.660913 
L 494.260845 201.243231 
L 494.58304 201.82555 
L 494.901418 202.407868 
L 495.21396 202.990187 
L 495.518587 203.572506 
L 495.81321 204.154824 
L 496.095783 204.737143 
L 496.364348 205.319462 
L 496.617074 205.90178 
L 496.852295 206.484099 
L 497.068536 207.066418 
L 497.264527 207.648736 
L 497.439211 208.231055 
L 497.591743 208.813374 
L 497.721479 209.395692 
L 497.827952 209.978011 
L 497.910852 210.560329 
L 497.969986 211.142648 
L 498.005251 211.724967 
L 498.016591 212.307285 
L 498.003968 212.889604 
L 497.967325 213.471923 
L 497.906564 214.054241 
L 497.821523 214.63656 
L 497.711965 215.218879 
L 497.577575 215.801197 
L 497.417968 216.383516 
L 497.232702 216.965834 
L 497.021305 217.548153 
L 496.783308 218.130472 
L 496.518278 218.71279 
L 496.225866 219.295109 
L 495.90585 219.877428 
L 495.558182 220.459746 
L 495.183026 221.042065 
L 494.780804 221.624384 
L 494.352223 222.206702 
L 493.898305 222.789021 
L 493.420397 223.37134 
L 492.920183 223.953658 
L 492.399674 224.535977 
L 491.861197 225.118295 
z
" clip-path="url(#pad6618f415)" style="fill: #1f77b4; fill-opacity: 0.3"/>
   </g>
   <g id="PolyCollection_7">
    <path d="M 570.171934 228.381477 
L 538.02443 228.381477 
L 537.571804 226.894093 
L 537.155877 225.406708 
L 536.779482 223.919323 
L 536.445105 222.431939 
L 536.15485 220.944554 
L 535.91041 219.457169 
L 535.713053 217.969785 
L 535.563604 216.4824 
L 535.462445 214.995015 
L 535.409514 213.507631 
L 535.404318 212.020246 
L 535.445951 210.532862 
L 535.533114 209.045477 
L 535.664146 207.558092 
L 535.837063 206.070708 
L 536.049587 204.583323 
L 536.299198 203.095938 
L 536.58317 201.608554 
L 536.898622 200.121169 
L 537.242557 198.633784 
L 537.611914 197.1464 
L 538.0036 195.659015 
L 538.414541 194.171631 
L 538.84171 192.684246 
L 539.282164 191.196861 
L 539.733072 189.709477 
L 540.191736 188.222092 
L 540.655615 186.734707 
L 541.122333 185.247323 
L 541.589696 183.759938 
L 542.055691 182.272553 
L 542.518491 180.785169 
L 542.97645 179.297784 
L 543.428101 177.810399 
L 543.872145 176.323015 
L 544.307442 174.83563 
L 544.732997 173.348246 
L 545.147952 171.860861 
L 545.55157 170.373476 
L 545.94322 168.886092 
L 546.322369 167.398707 
L 546.688567 165.911322 
L 547.041437 164.423938 
L 547.380666 162.936553 
L 547.705996 161.449168 
L 548.017218 159.961784 
L 548.314167 158.474399 
L 548.596717 156.987014 
L 548.864781 155.49963 
L 549.118307 154.012245 
L 549.357279 152.524861 
L 549.581714 151.037476 
L 549.791669 149.550091 
L 549.987237 148.062707 
L 550.168547 146.575322 
L 550.335769 145.087937 
L 550.489113 143.600553 
L 550.62883 142.113168 
L 550.755208 140.625783 
L 550.868576 139.138399 
L 550.969302 137.651014 
L 551.05779 136.163629 
L 551.134478 134.676245 
L 551.199834 133.18886 
L 551.254358 131.701476 
L 551.298574 130.214091 
L 551.333029 128.726706 
L 551.35829 127.239322 
L 551.374941 125.751937 
L 551.38358 124.264552 
L 551.384817 122.777168 
L 551.379269 121.289783 
L 551.367564 119.802398 
L 551.350336 118.315014 
L 551.328224 116.827629 
L 551.301872 115.340244 
L 551.271927 113.85286 
L 551.239042 112.365475 
L 551.203873 110.878091 
L 551.167077 109.390706 
L 551.129315 107.903321 
L 551.091248 106.415937 
L 551.053535 104.928552 
L 551.016834 103.441167 
L 550.981795 101.953783 
L 550.949059 100.466398 
L 550.919253 98.979013 
L 550.892985 97.491629 
L 550.870841 96.004244 
L 550.853373 94.51686 
L 550.8411 93.029475 
L 550.834498 91.54209 
L 550.833994 90.054706 
L 550.839958 88.567321 
L 550.8527 87.079936 
L 550.872465 85.592552 
L 550.899424 84.105167 
L 550.933675 82.617782 
L 550.975239 81.130398 
L 557.221125 81.130398 
L 557.221125 81.130398 
L 557.262689 82.617782 
L 557.29694 84.105167 
L 557.323899 85.592552 
L 557.343663 87.079936 
L 557.356406 88.567321 
L 557.36237 90.054706 
L 557.361865 91.54209 
L 557.355263 93.029475 
L 557.342991 94.51686 
L 557.325523 96.004244 
L 557.303378 97.491629 
L 557.277111 98.979013 
L 557.247305 100.466398 
L 557.214569 101.953783 
L 557.17953 103.441167 
L 557.142828 104.928552 
L 557.105116 106.415937 
L 557.067049 107.903321 
L 557.029287 109.390706 
L 556.992491 110.878091 
L 556.957321 112.365475 
L 556.924437 113.85286 
L 556.894492 115.340244 
L 556.868139 116.827629 
L 556.846027 118.315014 
L 556.828799 119.802398 
L 556.817095 121.289783 
L 556.811547 122.777168 
L 556.812783 124.264552 
L 556.821422 125.751937 
L 556.838073 127.239322 
L 556.863335 128.726706 
L 556.89779 130.214091 
L 556.942006 131.701476 
L 556.99653 133.18886 
L 557.061886 134.676245 
L 557.138573 136.163629 
L 557.227061 137.651014 
L 557.327788 139.138399 
L 557.441156 140.625783 
L 557.567534 142.113168 
L 557.70725 143.600553 
L 557.860595 145.087937 
L 558.027817 146.575322 
L 558.209127 148.062707 
L 558.404694 149.550091 
L 558.614649 151.037476 
L 558.839085 152.524861 
L 559.078056 154.012245 
L 559.331582 155.49963 
L 559.599647 156.987014 
L 559.882197 158.474399 
L 560.179146 159.961784 
L 560.490368 161.449168 
L 560.815697 162.936553 
L 561.154926 164.423938 
L 561.507796 165.911322 
L 561.873994 167.398707 
L 562.253144 168.886092 
L 562.644794 170.373476 
L 563.048411 171.860861 
L 563.463367 173.348246 
L 563.888922 174.83563 
L 564.324218 176.323015 
L 564.768262 177.810399 
L 565.219913 179.297784 
L 565.677873 180.785169 
L 566.140672 182.272553 
L 566.606667 183.759938 
L 567.07403 185.247323 
L 567.540749 186.734707 
L 568.004627 188.222092 
L 568.463292 189.709477 
L 568.914199 191.196861 
L 569.354654 192.684246 
L 569.781823 194.171631 
L 570.192764 195.659015 
L 570.58445 197.1464 
L 570.953806 198.633784 
L 571.297742 200.121169 
L 571.613194 201.608554 
L 571.897166 203.095938 
L 572.146777 204.583323 
L 572.359301 206.070708 
L 572.532217 207.558092 
L 572.66325 209.045477 
L 572.750413 210.532862 
L 572.792045 212.020246 
L 572.78685 213.507631 
L 572.733919 214.995015 
L 572.632759 216.4824 
L 572.48331 217.969785 
L 572.285953 219.457169 
L 572.041514 220.944554 
L 571.751259 222.431939 
L 571.416882 223.919323 
L 571.040487 225.406708 
L 570.624559 226.894093 
L 570.171934 228.381477 
z
" clip-path="url(#pad6618f415)" style="fill: #1f77b4; fill-opacity: 0.3"/>
   </g>
   <g id="PolyCollection_8">
    <path d="M 631.7496 295.140739 
L 625.997673 295.140739 
L 625.844503 294.449922 
L 625.686856 293.759105 
L 625.524291 293.068289 
L 625.356383 292.377472 
L 625.18275 291.686655 
L 625.00308 290.995838 
L 624.81716 290.305022 
L 624.6249 289.614205 
L 624.426349 288.923388 
L 624.221709 288.232572 
L 624.011339 287.541755 
L 623.795751 286.850938 
L 623.575598 286.160122 
L 623.35165 285.469305 
L 623.124767 284.778488 
L 622.895857 284.087672 
L 622.665837 283.396855 
L 622.435579 282.706038 
L 622.205866 282.015222 
L 621.977332 281.324405 
L 621.750426 280.633588 
L 621.525358 279.942771 
L 621.30207 279.251955 
L 621.080212 278.561138 
L 620.859123 277.870321 
L 620.637837 277.179505 
L 620.415093 276.488688 
L 620.189368 275.797871 
L 619.958917 275.107055 
L 619.721832 274.416238 
L 619.476109 273.725421 
L 619.21973 273.034605 
L 618.950743 272.343788 
L 618.667357 271.652971 
L 618.368028 270.962154 
L 618.051547 270.271338 
L 617.717118 269.580521 
L 617.364429 268.889704 
L 616.993707 268.198888 
L 616.605755 267.508071 
L 616.201975 266.817254 
L 615.784369 266.126438 
L 615.35552 265.435621 
L 614.91855 264.744804 
L 614.477065 264.053988 
L 614.03508 263.363171 
L 613.596929 262.672354 
L 613.167165 261.981538 
L 612.750455 261.290721 
L 612.351472 260.599904 
L 611.974784 259.909087 
L 611.624756 259.218271 
L 611.305454 258.527454 
L 611.020565 257.836637 
L 610.773335 257.145821 
L 610.566514 256.455004 
L 610.402328 255.764187 
L 610.282465 255.073371 
L 610.208071 254.382554 
L 610.179773 253.691737 
L 610.197703 253.000921 
L 610.261536 252.310104 
L 610.370537 251.619287 
L 610.523605 250.928471 
L 610.719325 250.237654 
L 610.95601 249.546837 
L 611.231746 248.85602 
L 611.544429 248.165204 
L 611.891795 247.474387 
L 612.271439 246.78357 
L 612.68084 246.092754 
L 613.117368 245.401937 
L 613.578294 244.71112 
L 614.060798 244.020304 
L 614.561972 243.329487 
L 615.078836 242.63867 
L 615.60834 241.947854 
L 616.14739 241.257037 
L 616.69286 240.56622 
L 617.241627 239.875403 
L 617.790602 239.184587 
L 618.336763 238.49377 
L 618.8772 237.802953 
L 619.409156 237.112137 
L 619.930069 236.42132 
L 620.437611 235.730503 
L 620.929725 235.039687 
L 621.404657 234.34887 
L 621.860972 233.658053 
L 622.297574 232.967237 
L 622.713705 232.27642 
L 623.108944 231.585603 
L 623.483186 230.894787 
L 623.836623 230.20397 
L 624.169707 229.513153 
L 624.483119 228.822336 
L 624.777718 228.13152 
L 625.054503 227.440703 
L 625.314565 226.749886 
L 632.432708 226.749886 
L 632.432708 226.749886 
L 632.69277 227.440703 
L 632.969555 228.13152 
L 633.264154 228.822336 
L 633.577565 229.513153 
L 633.91065 230.20397 
L 634.264087 230.894787 
L 634.638329 231.585603 
L 635.033568 232.27642 
L 635.449699 232.967237 
L 635.886301 233.658053 
L 636.342616 234.34887 
L 636.817547 235.039687 
L 637.309662 235.730503 
L 637.817204 236.42132 
L 638.338117 237.112137 
L 638.870073 237.802953 
L 639.41051 238.49377 
L 639.956671 239.184587 
L 640.505645 239.875403 
L 641.054413 240.56622 
L 641.599883 241.257037 
L 642.138932 241.947854 
L 642.668437 242.63867 
L 643.1853 243.329487 
L 643.686475 244.020304 
L 644.168978 244.71112 
L 644.629904 245.401937 
L 645.066432 246.092754 
L 645.475833 246.78357 
L 645.855478 247.474387 
L 646.202843 248.165204 
L 646.515527 248.85602 
L 646.791263 249.546837 
L 647.027948 250.237654 
L 647.223667 250.928471 
L 647.376736 251.619287 
L 647.485737 252.310104 
L 647.54957 253.000921 
L 647.5675 253.691737 
L 647.539202 254.382554 
L 647.464808 255.073371 
L 647.344944 255.764187 
L 647.180759 256.455004 
L 646.973938 257.145821 
L 646.726707 257.836637 
L 646.441819 258.527454 
L 646.122517 259.218271 
L 645.772488 259.909087 
L 645.3958 260.599904 
L 644.996817 261.290721 
L 644.580108 261.981538 
L 644.150344 262.672354 
L 643.712192 263.363171 
L 643.270207 264.053988 
L 642.828723 264.744804 
L 642.391753 265.435621 
L 641.962903 266.126438 
L 641.545298 266.817254 
L 641.141518 267.508071 
L 640.753566 268.198888 
L 640.382843 268.889704 
L 640.030155 269.580521 
L 639.695726 270.271338 
L 639.379245 270.962154 
L 639.079916 271.652971 
L 638.79653 272.343788 
L 638.527543 273.034605 
L 638.271163 273.725421 
L 638.025441 274.416238 
L 637.788355 275.107055 
L 637.557905 275.797871 
L 637.33218 276.488688 
L 637.109436 277.179505 
L 636.88815 277.870321 
L 636.667061 278.561138 
L 636.445202 279.251955 
L 636.221915 279.942771 
L 635.996847 280.633588 
L 635.76994 281.324405 
L 635.541407 282.015222 
L 635.311693 282.706038 
L 635.081436 283.396855 
L 634.851416 284.087672 
L 634.622506 284.778488 
L 634.395623 285.469305 
L 634.171675 286.160122 
L 633.951522 286.850938 
L 633.735934 287.541755 
L 633.525564 288.232572 
L 633.320924 288.923388 
L 633.122373 289.614205 
L 632.930113 290.305022 
L 632.744193 290.995838 
L 632.564523 291.686655 
L 632.390889 292.377472 
L 632.222982 293.068289 
L 632.060417 293.759105 
L 631.90277 294.449922 
L 631.7496 295.140739 
z
" clip-path="url(#pad6618f415)" style="fill: #1f77b4; fill-opacity: 0.3"/>
   </g>
   <g id="PolyCollection_9">
    <path d="M 706.752484 301.259205 
L 700.545698 301.259205 
L 700.424485 300.599976 
L 700.304525 299.940747 
L 700.185571 299.281519 
L 700.067262 298.62229 
L 699.94913 297.963061 
L 699.830604 297.303833 
L 699.711019 296.644604 
L 699.58963 295.985375 
L 699.465625 295.326147 
L 699.338141 294.666918 
L 699.206283 294.007689 
L 699.069141 293.348461 
L 698.925814 292.689232 
L 698.775428 292.030003 
L 698.617154 291.370775 
L 698.450231 290.711546 
L 698.273984 290.052317 
L 698.087834 289.393089 
L 697.891316 288.73386 
L 697.684089 288.074632 
L 697.465937 287.415403 
L 697.23678 286.756174 
L 696.996665 286.096946 
L 696.745766 285.437717 
L 696.484374 284.778488 
L 696.212885 284.11926 
L 695.931785 283.460031 
L 695.641636 282.800802 
L 695.343054 282.141574 
L 695.036692 281.482345 
L 694.723223 280.823116 
L 694.403319 280.163888 
L 694.077642 279.504659 
L 693.746825 278.84543 
L 693.411469 278.186202 
L 693.072136 277.526973 
L 692.729348 276.867744 
L 692.383597 276.208516 
L 692.035347 275.549287 
L 691.685051 274.890059 
L 691.333167 274.23083 
L 690.980178 273.571601 
L 690.626609 272.912373 
L 690.273051 272.253144 
L 689.920182 271.593915 
L 689.568782 270.934687 
L 689.219751 270.275458 
L 688.874119 269.616229 
L 688.533051 268.957001 
L 688.197853 268.297772 
L 687.869959 267.638543 
L 687.550924 266.979315 
L 687.242409 266.320086 
L 686.946153 265.660857 
L 686.663948 265.001629 
L 686.397611 264.3424 
L 686.148945 263.683171 
L 685.919708 263.023943 
L 685.711577 262.364714 
L 685.526113 261.705486 
L 685.36473 261.046257 
L 685.22867 260.387028 
L 685.118975 259.7278 
L 685.036475 259.068571 
L 684.981769 258.409342 
L 684.955227 257.750114 
L 684.956984 257.090885 
L 684.986949 256.431656 
L 685.044816 255.772428 
L 685.130081 255.113199 
L 685.242063 254.45397 
L 685.379926 253.794742 
L 685.542708 253.135513 
L 685.729345 252.476284 
L 685.938701 251.817056 
L 686.169593 251.157827 
L 686.420817 250.498598 
L 686.69117 249.83937 
L 686.979471 249.180141 
L 687.284574 248.520913 
L 687.605383 247.861684 
L 687.94086 247.202455 
L 688.290026 246.543227 
L 688.651963 245.883998 
L 689.025811 245.224769 
L 689.410755 244.565541 
L 689.806024 243.906312 
L 690.210869 243.247083 
L 690.624554 242.587855 
L 691.046342 241.928626 
L 691.475473 241.269397 
L 691.911158 240.610169 
L 692.352558 239.95094 
L 692.798777 239.291711 
L 693.248851 238.632483 
L 693.701742 237.973254 
L 694.156339 237.314025 
L 694.611452 236.654797 
L 695.065823 235.995568 
L 712.232359 235.995568 
L 712.232359 235.995568 
L 712.686729 236.654797 
L 713.141843 237.314025 
L 713.596439 237.973254 
L 714.049331 238.632483 
L 714.499405 239.291711 
L 714.945624 239.95094 
L 715.387024 240.610169 
L 715.822708 241.269397 
L 716.25184 241.928626 
L 716.673627 242.587855 
L 717.087313 243.247083 
L 717.492158 243.906312 
L 717.887427 244.565541 
L 718.272371 245.224769 
L 718.646218 245.883998 
L 719.008156 246.543227 
L 719.357322 247.202455 
L 719.692799 247.861684 
L 720.013608 248.520913 
L 720.318711 249.180141 
L 720.607012 249.83937 
L 720.877365 250.498598 
L 721.128589 251.157827 
L 721.359481 251.817056 
L 721.568836 252.476284 
L 721.755474 253.135513 
L 721.918255 253.794742 
L 722.056119 254.45397 
L 722.168101 255.113199 
L 722.253366 255.772428 
L 722.311233 256.431656 
L 722.341198 257.090885 
L 722.342955 257.750114 
L 722.316413 258.409342 
L 722.261707 259.068571 
L 722.179207 259.7278 
L 722.069512 260.387028 
L 721.933452 261.046257 
L 721.772069 261.705486 
L 721.586605 262.364714 
L 721.378473 263.023943 
L 721.149237 263.683171 
L 720.900571 264.3424 
L 720.634234 265.001629 
L 720.352029 265.660857 
L 720.055773 266.320086 
L 719.747258 266.979315 
L 719.428223 267.638543 
L 719.100329 268.297772 
L 718.76513 268.957001 
L 718.424063 269.616229 
L 718.078431 270.275458 
L 717.7294 270.934687 
L 717.378 271.593915 
L 717.025131 272.253144 
L 716.671573 272.912373 
L 716.318004 273.571601 
L 715.965015 274.23083 
L 715.613131 274.890059 
L 715.262835 275.549287 
L 714.914585 276.208516 
L 714.568834 276.867744 
L 714.226046 277.526973 
L 713.886713 278.186202 
L 713.551357 278.84543 
L 713.22054 279.504659 
L 712.894862 280.163888 
L 712.574959 280.823116 
L 712.261489 281.482345 
L 711.955128 282.141574 
L 711.656545 282.800802 
L 711.366396 283.460031 
L 711.085297 284.11926 
L 710.813808 284.778488 
L 710.552416 285.437717 
L 710.301517 286.096946 
L 710.061402 286.756174 
L 709.832244 287.415403 
L 709.614093 288.074632 
L 709.406865 288.73386 
L 709.210348 289.393089 
L 709.024198 290.052317 
L 708.84795 290.711546 
L 708.681028 291.370775 
L 708.522754 292.030003 
L 708.372368 292.689232 
L 708.229041 293.348461 
L 708.091899 294.007689 
L 707.960041 294.666918 
L 707.832557 295.326147 
L 707.708552 295.985375 
L 707.587163 296.644604 
L 707.467578 297.303833 
L 707.349051 297.963061 
L 707.230919 298.62229 
L 707.112611 299.281519 
L 706.993657 299.940747 
L 706.873697 300.599976 
L 706.752484 301.259205 
z
" clip-path="url(#pad6618f415)" style="fill: #1f77b4; fill-opacity: 0.3"/>
   </g>
   <g id="PolyCollection_10">
    <path d="M 795.836172 323.829545 
L 761.012919 323.829545 
L 760.703629 323.050832 
L 760.434596 322.272118 
L 760.207442 321.493404 
L 760.023432 320.71469 
L 759.883455 319.935976 
L 759.788008 319.157262 
L 759.737187 318.378549 
L 759.730682 317.599835 
L 759.767782 316.821121 
L 759.847379 316.042407 
L 759.967983 315.263693 
L 760.12774 314.484979 
L 760.324455 313.706265 
L 760.555618 312.927552 
L 760.818442 312.148838 
L 761.109891 311.370124 
L 761.426723 310.59141 
L 761.76553 309.812696 
L 762.122782 309.033982 
L 762.494865 308.255269 
L 762.878132 307.476555 
L 763.268941 306.697841 
L 763.663696 305.919127 
L 764.058893 305.140413 
L 764.451151 304.361699 
L 764.83725 303.582986 
L 765.214162 302.804272 
L 765.57908 302.025558 
L 765.929438 301.246844 
L 766.262937 300.46813 
L 766.577554 299.689416 
L 766.871557 298.910702 
L 767.143511 298.131989 
L 767.392282 297.353275 
L 767.617032 296.574561 
L 767.81722 295.795847 
L 767.992589 295.017133 
L 768.143157 294.238419 
L 768.269203 293.459706 
L 768.37125 292.680992 
L 768.450046 291.902278 
L 768.506546 291.123564 
L 768.541891 290.34485 
L 768.557384 289.566136 
L 768.554467 288.787423 
L 768.534704 288.008709 
L 768.499752 287.229995 
L 768.451343 286.451281 
L 768.391261 285.672567 
L 768.321321 284.893853 
L 768.243354 284.115139 
L 768.159183 283.336426 
L 768.070608 282.557712 
L 767.979392 281.778998 
L 767.887246 281.000284 
L 767.795816 280.22157 
L 767.706672 279.442856 
L 767.621297 278.664143 
L 767.541082 277.885429 
L 767.467317 277.106715 
L 767.401186 276.328001 
L 767.343762 275.549287 
L 767.296006 274.770573 
L 767.258766 273.99186 
L 767.232773 273.213146 
L 767.218647 272.434432 
L 767.216893 271.655718 
L 767.227909 270.877004 
L 767.251984 270.09829 
L 767.289308 269.319576 
L 767.339971 268.540863 
L 767.403973 267.762149 
L 767.481226 266.983435 
L 767.571562 266.204721 
L 767.674739 265.426007 
L 767.790446 264.647293 
L 767.918314 263.86858 
L 768.057915 263.089866 
L 768.208776 262.311152 
L 768.370379 261.532438 
L 768.542171 260.753724 
L 768.723569 259.97501 
L 768.913963 259.196296 
L 769.112725 258.417583 
L 769.319209 257.638869 
L 769.532761 256.860155 
L 769.752717 256.081441 
L 769.97841 255.302727 
L 770.209172 254.524013 
L 770.444338 253.7453 
L 770.683248 252.966586 
L 770.925245 252.187872 
L 771.169686 251.409158 
L 771.415933 250.630444 
L 771.663365 249.85173 
L 771.911371 249.073017 
L 772.159355 248.294303 
L 772.406737 247.515589 
L 772.652953 246.736875 
L 784.196138 246.736875 
L 784.196138 246.736875 
L 784.442354 247.515589 
L 784.689736 248.294303 
L 784.93772 249.073017 
L 785.185726 249.85173 
L 785.433157 250.630444 
L 785.679405 251.409158 
L 785.923846 252.187872 
L 786.165843 252.966586 
L 786.404752 253.7453 
L 786.639919 254.524013 
L 786.870681 255.302727 
L 787.096374 256.081441 
L 787.31633 256.860155 
L 787.529882 257.638869 
L 787.736366 258.417583 
L 787.935128 259.196296 
L 788.125522 259.97501 
L 788.30692 260.753724 
L 788.478712 261.532438 
L 788.640315 262.311152 
L 788.791176 263.089866 
L 788.930777 263.86858 
L 789.058644 264.647293 
L 789.174352 265.426007 
L 789.277529 266.204721 
L 789.367865 266.983435 
L 789.445118 267.762149 
L 789.50912 268.540863 
L 789.559783 269.319576 
L 789.597107 270.09829 
L 789.621182 270.877004 
L 789.632198 271.655718 
L 789.630444 272.434432 
L 789.616318 273.213146 
L 789.590325 273.99186 
L 789.553085 274.770573 
L 789.505329 275.549287 
L 789.447905 276.328001 
L 789.381773 277.106715 
L 789.308008 277.885429 
L 789.227794 278.664143 
L 789.142419 279.442856 
L 789.053275 280.22157 
L 788.961844 281.000284 
L 788.869699 281.778998 
L 788.778483 282.557712 
L 788.689908 283.336426 
L 788.605737 284.115139 
L 788.52777 284.893853 
L 788.45783 285.672567 
L 788.397748 286.451281 
L 788.349339 287.229995 
L 788.314387 288.008709 
L 788.294624 288.787423 
L 788.291707 289.566136 
L 788.3072 290.34485 
L 788.342545 291.123564 
L 788.399045 291.902278 
L 788.477841 292.680992 
L 788.579888 293.459706 
L 788.705934 294.238419 
L 788.856502 295.017133 
L 789.031871 295.795847 
L 789.232059 296.574561 
L 789.456809 297.353275 
L 789.70558 298.131989 
L 789.977534 298.910702 
L 790.271537 299.689416 
L 790.586154 300.46813 
L 790.919653 301.246844 
L 791.270011 302.025558 
L 791.634929 302.804272 
L 792.011841 303.582986 
L 792.39794 304.361699 
L 792.790198 305.140413 
L 793.185394 305.919127 
L 793.58015 306.697841 
L 793.970959 307.476555 
L 794.354226 308.255269 
L 794.726309 309.033982 
L 795.083561 309.812696 
L 795.422368 310.59141 
L 795.7392 311.370124 
L 796.030649 312.148838 
L 796.293472 312.927552 
L 796.524636 313.706265 
L 796.721351 314.484979 
L 796.881108 315.263693 
L 797.001712 316.042407 
L 797.081309 316.821121 
L 797.118409 317.599835 
L 797.111904 318.378549 
L 797.061083 319.157262 
L 796.965635 319.935976 
L 796.825659 320.71469 
L 796.641649 321.493404 
L 796.414495 322.272118 
L 796.145461 323.050832 
L 795.836172 323.829545 
z
" clip-path="url(#pad6618f415)" style="fill: #1f77b4; fill-opacity: 0.3"/>
   </g>
   <g id="matplotlib.axis_1">
    <g id="xtick_1">
     <g id="line2d_1">
      <defs>
       <path id="m20005637ad" d="M 0 0 
L 0 3.5 
" style="stroke: #000000; stroke-width: 0.8"/>
      </defs>
      <g>
       <use xlink:href="#m20005637ad" x="105.445455" y="337.97" style="stroke: #000000; stroke-width: 0.8"/>
      </g>
     </g>
     <g id="text_1">
      <!-- Tit For Tat -->
      <g transform="translate(107.652955 384.15)rotate(-90)scale(0.08 -0.08)">
       <defs>
        <path id="DejaVuSans-54" d="M -19 4666 
L 3928 4666 
L 3928 4134 
L 2272 4134 
L 2272 0 
L 1638 0 
L 1638 4134 
L -19 4134 
L -19 4666 
z
" transform="scale(0.015625)"/>
        <path id="DejaVuSans-69" d="M 603 3500 
L 1178 3500 
L 1178 0 
L 603 0 
L 603 3500 
z
M 603 4863 
L 1178 4863 
L 1178 4134 
L 603 4134 
L 603 4863 
z
" transform="scale(0.015625)"/>
        <path id="DejaVuSans-74" d="M 1172 4494 
L 1172 3500 
L 2356 3500 
L 2356 3053 
L 1172 3053 
L 1172 1153 
Q 1172 725 1289 603 
Q 1406 481 1766 481 
L 2356 481 
L 2356 0 
L 1766 0 
Q 1100 0 847 248 
Q 594 497 594 1153 
L 594 3053 
L 172 3053 
L 172 3500 
L 594 3500 
L 594 4494 
L 1172 4494 
z
" transform="scale(0.015625)"/>
        <path id="DejaVuSans-20" transform="scale(0.015625)"/>
        <path id="DejaVuSans-46" d="M 628 4666 
L 3309 4666 
L 3309 4134 
L 1259 4134 
L 1259 2759 
L 3109 2759 
L 3109 2228 
L 1259 2228 
L 1259 0 
L 628 0 
L 628 4666 
z
" transform="scale(0.015625)"/>
        <path id="DejaVuSans-6f" d="M 1959 3097 
Q 1497 3097 1228 2736 
Q 959 2375 959 1747 
Q 959 1119 1226 758 
Q 1494 397 1959 397 
Q 2419 397 2687 759 
Q 2956 1122 2956 1747 
Q 2956 2369 2687 2733 
Q 2419 3097 1959 3097 
z
M 1959 3584 
Q 2709 3584 3137 3096 
Q 3566 2609 3566 1747 
Q 3566 888 3137 398 
Q 2709 -91 1959 -91 
Q 1206 -91 779 398 
Q 353 888 353 1747 
Q 353 2609 779 3096 
Q 1206 3584 1959 3584 
z
" transform="scale(0.015625)"/>
        <path id="DejaVuSans-72" d="M 2631 2963 
Q 2534 3019 2420 3045 
Q 2306 3072 2169 3072 
Q 1681 3072 1420 2755 
Q 1159 2438 1159 1844 
L 1159 0 
L 581 0 
L 581 3500 
L 1159 3500 
L 1159 2956 
Q 1341 3275 1631 3429 
Q 1922 3584 2338 3584 
Q 2397 3584 2469 3576 
Q 2541 3569 2628 3553 
L 2631 2963 
z
" transform="scale(0.015625)"/>
        <path id="DejaVuSans-61" d="M 2194 1759 
Q 1497 1759 1228 1600 
Q 959 1441 959 1056 
Q 959 750 1161 570 
Q 1363 391 1709 391 
Q 2188 391 2477 730 
Q 2766 1069 2766 1631 
L 2766 1759 
L 2194 1759 
z
M 3341 1997 
L 3341 0 
L 2766 0 
L 2766 531 
Q 2569 213 2275 61 
Q 1981 -91 1556 -91 
Q 1019 -91 701 211 
Q 384 513 384 1019 
Q 384 1609 779 1909 
Q 1175 2209 1959 2209 
L 2766 2209 
L 2766 2266 
Q 2766 2663 2505 2880 
Q 2244 3097 1772 3097 
Q 1472 3097 1187 3025 
Q 903 2953 641 2809 
L 641 3341 
Q 956 3463 1253 3523 
Q 1550 3584 1831 3584 
Q 2591 3584 2966 3190 
Q 3341 2797 3341 1997 
z
" transform="scale(0.015625)"/>
       </defs>
       <use xlink:href="#DejaVuSans-54"/>
       <use xlink:href="#DejaVuSans-69" x="57.958984"/>
       <use xlink:href="#DejaVuSans-74" x="85.742188"/>
       <use xlink:href="#DejaVuSans-20" x="124.951172"/>
       <use xlink:href="#DejaVuSans-46" x="156.738281"/>
       <use xlink:href="#DejaVuSans-6f" x="210.632812"/>
       <use xlink:href="#DejaVuSans-72" x="271.814453"/>
       <use xlink:href="#DejaVuSans-20" x="312.927734"/>
       <use xlink:href="#DejaVuSans-54" x="344.714844"/>
       <use xlink:href="#DejaVuSans-61" x="389.298828"/>
       <use xlink:href="#DejaVuSans-74" x="450.578125"/>
      </g>
     </g>
    </g>
    <g id="xtick_2">
     <g id="line2d_2">
      <g>
       <use xlink:href="#m20005637ad" x="180.220909" y="337.97" style="stroke: #000000; stroke-width: 0.8"/>
      </g>
     </g>
     <g id="text_2">
      <!-- Grudger -->
      <g transform="translate(182.428409 377.89625)rotate(-90)scale(0.08 -0.08)">
       <defs>
        <path id="DejaVuSans-47" d="M 3809 666 
L 3809 1919 
L 2778 1919 
L 2778 2438 
L 4434 2438 
L 4434 434 
Q 4069 175 3628 42 
Q 3188 -91 2688 -91 
Q 1594 -91 976 548 
Q 359 1188 359 2328 
Q 359 3472 976 4111 
Q 1594 4750 2688 4750 
Q 3144 4750 3555 4637 
Q 3966 4525 4313 4306 
L 4313 3634 
Q 3963 3931 3569 4081 
Q 3175 4231 2741 4231 
Q 1884 4231 1454 3753 
Q 1025 3275 1025 2328 
Q 1025 1384 1454 906 
Q 1884 428 2741 428 
Q 3075 428 3337 486 
Q 3600 544 3809 666 
z
" transform="scale(0.015625)"/>
        <path id="DejaVuSans-75" d="M 544 1381 
L 544 3500 
L 1119 3500 
L 1119 1403 
Q 1119 906 1312 657 
Q 1506 409 1894 409 
Q 2359 409 2629 706 
Q 2900 1003 2900 1516 
L 2900 3500 
L 3475 3500 
L 3475 0 
L 2900 0 
L 2900 538 
Q 2691 219 2414 64 
Q 2138 -91 1772 -91 
Q 1169 -91 856 284 
Q 544 659 544 1381 
z
M 1991 3584 
L 1991 3584 
z
" transform="scale(0.015625)"/>
        <path id="DejaVuSans-64" d="M 2906 2969 
L 2906 4863 
L 3481 4863 
L 3481 0 
L 2906 0 
L 2906 525 
Q 2725 213 2448 61 
Q 2172 -91 1784 -91 
Q 1150 -91 751 415 
Q 353 922 353 1747 
Q 353 2572 751 3078 
Q 1150 3584 1784 3584 
Q 2172 3584 2448 3432 
Q 2725 3281 2906 2969 
z
M 947 1747 
Q 947 1113 1208 752 
Q 1469 391 1925 391 
Q 2381 391 2643 752 
Q 2906 1113 2906 1747 
Q 2906 2381 2643 2742 
Q 2381 3103 1925 3103 
Q 1469 3103 1208 2742 
Q 947 2381 947 1747 
z
" transform="scale(0.015625)"/>
        <path id="DejaVuSans-67" d="M 2906 1791 
Q 2906 2416 2648 2759 
Q 2391 3103 1925 3103 
Q 1463 3103 1205 2759 
Q 947 2416 947 1791 
Q 947 1169 1205 825 
Q 1463 481 1925 481 
Q 2391 481 2648 825 
Q 2906 1169 2906 1791 
z
M 3481 434 
Q 3481 -459 3084 -895 
Q 2688 -1331 1869 -1331 
Q 1566 -1331 1297 -1286 
Q 1028 -1241 775 -1147 
L 775 -588 
Q 1028 -725 1275 -790 
Q 1522 -856 1778 -856 
Q 2344 -856 2625 -561 
Q 2906 -266 2906 331 
L 2906 616 
Q 2728 306 2450 153 
Q 2172 0 1784 0 
Q 1141 0 747 490 
Q 353 981 353 1791 
Q 353 2603 747 3093 
Q 1141 3584 1784 3584 
Q 2172 3584 2450 3431 
Q 2728 3278 2906 2969 
L 2906 3500 
L 3481 3500 
L 3481 434 
z
" transform="scale(0.015625)"/>
        <path id="DejaVuSans-65" d="M 3597 1894 
L 3597 1613 
L 953 1613 
Q 991 1019 1311 708 
Q 1631 397 2203 397 
Q 2534 397 2845 478 
Q 3156 559 3463 722 
L 3463 178 
Q 3153 47 2828 -22 
Q 2503 -91 2169 -91 
Q 1331 -91 842 396 
Q 353 884 353 1716 
Q 353 2575 817 3079 
Q 1281 3584 2069 3584 
Q 2775 3584 3186 3129 
Q 3597 2675 3597 1894 
z
M 3022 2063 
Q 3016 2534 2758 2815 
Q 2500 3097 2075 3097 
Q 1594 3097 1305 2825 
Q 1016 2553 972 2059 
L 3022 2063 
z
" transform="scale(0.015625)"/>
       </defs>
       <use xlink:href="#DejaVuSans-47"/>
       <use xlink:href="#DejaVuSans-72" x="77.490234"/>
       <use xlink:href="#DejaVuSans-75" x="118.603516"/>
       <use xlink:href="#DejaVuSans-64" x="181.982422"/>
       <use xlink:href="#DejaVuSans-67" x="245.458984"/>
       <use xlink:href="#DejaVuSans-65" x="308.935547"/>
       <use xlink:href="#DejaVuSans-72" x="370.458984"/>
      </g>
     </g>
    </g>
    <g id="xtick_3">
     <g id="line2d_3">
      <g>
       <use xlink:href="#m20005637ad" x="254.996364" y="337.97" style="stroke: #000000; stroke-width: 0.8"/>
      </g>
     </g>
     <g id="text_3">
      <!-- Deep QLearner -->
      <g transform="translate(257.203864 405.46625)rotate(-90)scale(0.08 -0.08)">
       <defs>
        <path id="DejaVuSans-44" d="M 1259 4147 
L 1259 519 
L 2022 519 
Q 2988 519 3436 956 
Q 3884 1394 3884 2338 
Q 3884 3275 3436 3711 
Q 2988 4147 2022 4147 
L 1259 4147 
z
M 628 4666 
L 1925 4666 
Q 3281 4666 3915 4102 
Q 4550 3538 4550 2338 
Q 4550 1131 3912 565 
Q 3275 0 1925 0 
L 628 0 
L 628 4666 
z
" transform="scale(0.015625)"/>
        <path id="DejaVuSans-70" d="M 1159 525 
L 1159 -1331 
L 581 -1331 
L 581 3500 
L 1159 3500 
L 1159 2969 
Q 1341 3281 1617 3432 
Q 1894 3584 2278 3584 
Q 2916 3584 3314 3078 
Q 3713 2572 3713 1747 
Q 3713 922 3314 415 
Q 2916 -91 2278 -91 
Q 1894 -91 1617 61 
Q 1341 213 1159 525 
z
M 3116 1747 
Q 3116 2381 2855 2742 
Q 2594 3103 2138 3103 
Q 1681 3103 1420 2742 
Q 1159 2381 1159 1747 
Q 1159 1113 1420 752 
Q 1681 391 2138 391 
Q 2594 391 2855 752 
Q 3116 1113 3116 1747 
z
" transform="scale(0.015625)"/>
        <path id="DejaVuSans-51" d="M 2522 4238 
Q 1834 4238 1429 3725 
Q 1025 3213 1025 2328 
Q 1025 1447 1429 934 
Q 1834 422 2522 422 
Q 3209 422 3611 934 
Q 4013 1447 4013 2328 
Q 4013 3213 3611 3725 
Q 3209 4238 2522 4238 
z
M 3406 84 
L 4238 -825 
L 3475 -825 
L 2784 -78 
Q 2681 -84 2626 -87 
Q 2572 -91 2522 -91 
Q 1538 -91 948 567 
Q 359 1225 359 2328 
Q 359 3434 948 4092 
Q 1538 4750 2522 4750 
Q 3503 4750 4090 4092 
Q 4678 3434 4678 2328 
Q 4678 1516 4351 937 
Q 4025 359 3406 84 
z
" transform="scale(0.015625)"/>
        <path id="DejaVuSans-4c" d="M 628 4666 
L 1259 4666 
L 1259 531 
L 3531 531 
L 3531 0 
L 628 0 
L 628 4666 
z
" transform="scale(0.015625)"/>
        <path id="DejaVuSans-6e" d="M 3513 2113 
L 3513 0 
L 2938 0 
L 2938 2094 
Q 2938 2591 2744 2837 
Q 2550 3084 2163 3084 
Q 1697 3084 1428 2787 
Q 1159 2491 1159 1978 
L 1159 0 
L 581 0 
L 581 3500 
L 1159 3500 
L 1159 2956 
Q 1366 3272 1645 3428 
Q 1925 3584 2291 3584 
Q 2894 3584 3203 3211 
Q 3513 2838 3513 2113 
z
" transform="scale(0.015625)"/>
       </defs>
       <use xlink:href="#DejaVuSans-44"/>
       <use xlink:href="#DejaVuSans-65" x="77.001953"/>
       <use xlink:href="#DejaVuSans-65" x="138.525391"/>
       <use xlink:href="#DejaVuSans-70" x="200.048828"/>
       <use xlink:href="#DejaVuSans-20" x="263.525391"/>
       <use xlink:href="#DejaVuSans-51" x="295.3125"/>
       <use xlink:href="#DejaVuSans-4c" x="374.023438"/>
       <use xlink:href="#DejaVuSans-65" x="427.986328"/>
       <use xlink:href="#DejaVuSans-61" x="489.509766"/>
       <use xlink:href="#DejaVuSans-72" x="550.789062"/>
       <use xlink:href="#DejaVuSans-6e" x="590.152344"/>
       <use xlink:href="#DejaVuSans-65" x="653.53125"/>
       <use xlink:href="#DejaVuSans-72" x="715.054688"/>
      </g>
     </g>
    </g>
    <g id="xtick_4">
     <g id="line2d_4">
      <g>
       <use xlink:href="#m20005637ad" x="329.771818" y="337.97" style="stroke: #000000; stroke-width: 0.8"/>
      </g>
     </g>
     <g id="text_4">
      <!-- Adaptive -->
      <g transform="translate(331.979318 380.37875)rotate(-90)scale(0.08 -0.08)">
       <defs>
        <path id="DejaVuSans-41" d="M 2188 4044 
L 1331 1722 
L 3047 1722 
L 2188 4044 
z
M 1831 4666 
L 2547 4666 
L 4325 0 
L 3669 0 
L 3244 1197 
L 1141 1197 
L 716 0 
L 50 0 
L 1831 4666 
z
" transform="scale(0.015625)"/>
        <path id="DejaVuSans-76" d="M 191 3500 
L 800 3500 
L 1894 563 
L 2988 3500 
L 3597 3500 
L 2284 0 
L 1503 0 
L 191 3500 
z
" transform="scale(0.015625)"/>
       </defs>
       <use xlink:href="#DejaVuSans-41"/>
       <use xlink:href="#DejaVuSans-64" x="66.658203"/>
       <use xlink:href="#DejaVuSans-61" x="130.134766"/>
       <use xlink:href="#DejaVuSans-70" x="191.414062"/>
       <use xlink:href="#DejaVuSans-74" x="254.890625"/>
       <use xlink:href="#DejaVuSans-69" x="294.099609"/>
       <use xlink:href="#DejaVuSans-76" x="321.882812"/>
       <use xlink:href="#DejaVuSans-65" x="381.0625"/>
      </g>
     </g>
    </g>
    <g id="xtick_5">
     <g id="line2d_5">
      <g>
       <use xlink:href="#m20005637ad" x="404.547273" y="337.97" style="stroke: #000000; stroke-width: 0.8"/>
      </g>
     </g>
     <g id="text_5">
      <!-- Alternator -->
      <g transform="translate(406.754773 385.165)rotate(-90)scale(0.08 -0.08)">
       <defs>
        <path id="DejaVuSans-6c" d="M 603 4863 
L 1178 4863 
L 1178 0 
L 603 0 
L 603 4863 
z
" transform="scale(0.015625)"/>
       </defs>
       <use xlink:href="#DejaVuSans-41"/>
       <use xlink:href="#DejaVuSans-6c" x="68.408203"/>
       <use xlink:href="#DejaVuSans-74" x="96.191406"/>
       <use xlink:href="#DejaVuSans-65" x="135.400391"/>
       <use xlink:href="#DejaVuSans-72" x="196.923828"/>
       <use xlink:href="#DejaVuSans-6e" x="236.287109"/>
       <use xlink:href="#DejaVuSans-61" x="299.666016"/>
       <use xlink:href="#DejaVuSans-74" x="360.945312"/>
       <use xlink:href="#DejaVuSans-6f" x="400.154297"/>
       <use xlink:href="#DejaVuSans-72" x="461.335938"/>
      </g>
     </g>
    </g>
    <g id="xtick_6">
     <g id="line2d_6">
      <g>
       <use xlink:href="#m20005637ad" x="479.322727" y="337.97" style="stroke: #000000; stroke-width: 0.8"/>
      </g>
     </g>
     <g id="text_6">
      <!-- Defector -->
      <g transform="translate(481.530227 379.51)rotate(-90)scale(0.08 -0.08)">
       <defs>
        <path id="DejaVuSans-66" d="M 2375 4863 
L 2375 4384 
L 1825 4384 
Q 1516 4384 1395 4259 
Q 1275 4134 1275 3809 
L 1275 3500 
L 2222 3500 
L 2222 3053 
L 1275 3053 
L 1275 0 
L 697 0 
L 697 3053 
L 147 3053 
L 147 3500 
L 697 3500 
L 697 3744 
Q 697 4328 969 4595 
Q 1241 4863 1831 4863 
L 2375 4863 
z
" transform="scale(0.015625)"/>
        <path id="DejaVuSans-63" d="M 3122 3366 
L 3122 2828 
Q 2878 2963 2633 3030 
Q 2388 3097 2138 3097 
Q 1578 3097 1268 2742 
Q 959 2388 959 1747 
Q 959 1106 1268 751 
Q 1578 397 2138 397 
Q 2388 397 2633 464 
Q 2878 531 3122 666 
L 3122 134 
Q 2881 22 2623 -34 
Q 2366 -91 2075 -91 
Q 1284 -91 818 406 
Q 353 903 353 1747 
Q 353 2603 823 3093 
Q 1294 3584 2113 3584 
Q 2378 3584 2631 3529 
Q 2884 3475 3122 3366 
z
" transform="scale(0.015625)"/>
       </defs>
       <use xlink:href="#DejaVuSans-44"/>
       <use xlink:href="#DejaVuSans-65" x="77.001953"/>
       <use xlink:href="#DejaVuSans-66" x="138.525391"/>
       <use xlink:href="#DejaVuSans-65" x="173.730469"/>
       <use xlink:href="#DejaVuSans-63" x="235.253906"/>
       <use xlink:href="#DejaVuSans-74" x="290.234375"/>
       <use xlink:href="#DejaVuSans-6f" x="329.443359"/>
       <use xlink:href="#DejaVuSans-72" x="390.625"/>
      </g>
     </g>
    </g>
    <g id="xtick_7">
     <g id="line2d_7">
      <g>
       <use xlink:href="#m20005637ad" x="554.098182" y="337.97" style="stroke: #000000; stroke-width: 0.8"/>
      </g>
     </g>
     <g id="text_7">
      <!-- Random: 0.5 -->
      <g transform="translate(556.305682 396.0475)rotate(-90)scale(0.08 -0.08)">
       <defs>
        <path id="DejaVuSans-52" d="M 2841 2188 
Q 3044 2119 3236 1894 
Q 3428 1669 3622 1275 
L 4263 0 
L 3584 0 
L 2988 1197 
Q 2756 1666 2539 1819 
Q 2322 1972 1947 1972 
L 1259 1972 
L 1259 0 
L 628 0 
L 628 4666 
L 2053 4666 
Q 2853 4666 3247 4331 
Q 3641 3997 3641 3322 
Q 3641 2881 3436 2590 
Q 3231 2300 2841 2188 
z
M 1259 4147 
L 1259 2491 
L 2053 2491 
Q 2509 2491 2742 2702 
Q 2975 2913 2975 3322 
Q 2975 3731 2742 3939 
Q 2509 4147 2053 4147 
L 1259 4147 
z
" transform="scale(0.015625)"/>
        <path id="DejaVuSans-6d" d="M 3328 2828 
Q 3544 3216 3844 3400 
Q 4144 3584 4550 3584 
Q 5097 3584 5394 3201 
Q 5691 2819 5691 2113 
L 5691 0 
L 5113 0 
L 5113 2094 
Q 5113 2597 4934 2840 
Q 4756 3084 4391 3084 
Q 3944 3084 3684 2787 
Q 3425 2491 3425 1978 
L 3425 0 
L 2847 0 
L 2847 2094 
Q 2847 2600 2669 2842 
Q 2491 3084 2119 3084 
Q 1678 3084 1418 2786 
Q 1159 2488 1159 1978 
L 1159 0 
L 581 0 
L 581 3500 
L 1159 3500 
L 1159 2956 
Q 1356 3278 1631 3431 
Q 1906 3584 2284 3584 
Q 2666 3584 2933 3390 
Q 3200 3197 3328 2828 
z
" transform="scale(0.015625)"/>
        <path id="DejaVuSans-3a" d="M 750 794 
L 1409 794 
L 1409 0 
L 750 0 
L 750 794 
z
M 750 3309 
L 1409 3309 
L 1409 2516 
L 750 2516 
L 750 3309 
z
" transform="scale(0.015625)"/>
        <path id="DejaVuSans-30" d="M 2034 4250 
Q 1547 4250 1301 3770 
Q 1056 3291 1056 2328 
Q 1056 1369 1301 889 
Q 1547 409 2034 409 
Q 2525 409 2770 889 
Q 3016 1369 3016 2328 
Q 3016 3291 2770 3770 
Q 2525 4250 2034 4250 
z
M 2034 4750 
Q 2819 4750 3233 4129 
Q 3647 3509 3647 2328 
Q 3647 1150 3233 529 
Q 2819 -91 2034 -91 
Q 1250 -91 836 529 
Q 422 1150 422 2328 
Q 422 3509 836 4129 
Q 1250 4750 2034 4750 
z
" transform="scale(0.015625)"/>
        <path id="DejaVuSans-2e" d="M 684 794 
L 1344 794 
L 1344 0 
L 684 0 
L 684 794 
z
" transform="scale(0.015625)"/>
        <path id="DejaVuSans-35" d="M 691 4666 
L 3169 4666 
L 3169 4134 
L 1269 4134 
L 1269 2991 
Q 1406 3038 1543 3061 
Q 1681 3084 1819 3084 
Q 2600 3084 3056 2656 
Q 3513 2228 3513 1497 
Q 3513 744 3044 326 
Q 2575 -91 1722 -91 
Q 1428 -91 1123 -41 
Q 819 9 494 109 
L 494 744 
Q 775 591 1075 516 
Q 1375 441 1709 441 
Q 2250 441 2565 725 
Q 2881 1009 2881 1497 
Q 2881 1984 2565 2268 
Q 2250 2553 1709 2553 
Q 1456 2553 1204 2497 
Q 953 2441 691 2322 
L 691 4666 
z
" transform="scale(0.015625)"/>
       </defs>
       <use xlink:href="#DejaVuSans-52"/>
       <use xlink:href="#DejaVuSans-61" x="67.232422"/>
       <use xlink:href="#DejaVuSans-6e" x="128.511719"/>
       <use xlink:href="#DejaVuSans-64" x="191.890625"/>
       <use xlink:href="#DejaVuSans-6f" x="255.367188"/>
       <use xlink:href="#DejaVuSans-6d" x="316.548828"/>
       <use xlink:href="#DejaVuSans-3a" x="413.960938"/>
       <use xlink:href="#DejaVuSans-20" x="447.652344"/>
       <use xlink:href="#DejaVuSans-30" x="479.439453"/>
       <use xlink:href="#DejaVuSans-2e" x="543.0625"/>
       <use xlink:href="#DejaVuSans-35" x="574.849609"/>
      </g>
     </g>
    </g>
    <g id="xtick_8">
     <g id="line2d_8">
      <g>
       <use xlink:href="#m20005637ad" x="628.873636" y="337.97" style="stroke: #000000; stroke-width: 0.8"/>
      </g>
     </g>
     <g id="text_8">
      <!-- Mediocre QLearner -->
      <g transform="translate(631.081136 420.83375)rotate(-90)scale(0.08 -0.08)">
       <defs>
        <path id="DejaVuSans-4d" d="M 628 4666 
L 1569 4666 
L 2759 1491 
L 3956 4666 
L 4897 4666 
L 4897 0 
L 4281 0 
L 4281 4097 
L 3078 897 
L 2444 897 
L 1241 4097 
L 1241 0 
L 628 0 
L 628 4666 
z
" transform="scale(0.015625)"/>
       </defs>
       <use xlink:href="#DejaVuSans-4d"/>
       <use xlink:href="#DejaVuSans-65" x="86.279297"/>
       <use xlink:href="#DejaVuSans-64" x="147.802734"/>
       <use xlink:href="#DejaVuSans-69" x="211.279297"/>
       <use xlink:href="#DejaVuSans-6f" x="239.0625"/>
       <use xlink:href="#DejaVuSans-63" x="300.244141"/>
       <use xlink:href="#DejaVuSans-72" x="355.224609"/>
       <use xlink:href="#DejaVuSans-65" x="394.087891"/>
       <use xlink:href="#DejaVuSans-20" x="455.611328"/>
       <use xlink:href="#DejaVuSans-51" x="487.398438"/>
       <use xlink:href="#DejaVuSans-4c" x="566.109375"/>
       <use xlink:href="#DejaVuSans-65" x="620.072266"/>
       <use xlink:href="#DejaVuSans-61" x="681.595703"/>
       <use xlink:href="#DejaVuSans-72" x="742.875"/>
       <use xlink:href="#DejaVuSans-6e" x="782.238281"/>
       <use xlink:href="#DejaVuSans-65" x="845.617188"/>
       <use xlink:href="#DejaVuSans-72" x="907.140625"/>
      </g>
     </g>
    </g>
    <g id="xtick_9">
     <g id="line2d_9">
      <g>
       <use xlink:href="#m20005637ad" x="703.649091" y="337.97" style="stroke: #000000; stroke-width: 0.8"/>
      </g>
     </g>
     <g id="text_9">
      <!-- Risky QLearner -->
      <g transform="translate(705.856591 405.40875)rotate(-90)scale(0.08 -0.08)">
       <defs>
        <path id="DejaVuSans-73" d="M 2834 3397 
L 2834 2853 
Q 2591 2978 2328 3040 
Q 2066 3103 1784 3103 
Q 1356 3103 1142 2972 
Q 928 2841 928 2578 
Q 928 2378 1081 2264 
Q 1234 2150 1697 2047 
L 1894 2003 
Q 2506 1872 2764 1633 
Q 3022 1394 3022 966 
Q 3022 478 2636 193 
Q 2250 -91 1575 -91 
Q 1294 -91 989 -36 
Q 684 19 347 128 
L 347 722 
Q 666 556 975 473 
Q 1284 391 1588 391 
Q 1994 391 2212 530 
Q 2431 669 2431 922 
Q 2431 1156 2273 1281 
Q 2116 1406 1581 1522 
L 1381 1569 
Q 847 1681 609 1914 
Q 372 2147 372 2553 
Q 372 3047 722 3315 
Q 1072 3584 1716 3584 
Q 2034 3584 2315 3537 
Q 2597 3491 2834 3397 
z
" transform="scale(0.015625)"/>
        <path id="DejaVuSans-6b" d="M 581 4863 
L 1159 4863 
L 1159 1991 
L 2875 3500 
L 3609 3500 
L 1753 1863 
L 3688 0 
L 2938 0 
L 1159 1709 
L 1159 0 
L 581 0 
L 581 4863 
z
" transform="scale(0.015625)"/>
        <path id="DejaVuSans-79" d="M 2059 -325 
Q 1816 -950 1584 -1140 
Q 1353 -1331 966 -1331 
L 506 -1331 
L 506 -850 
L 844 -850 
Q 1081 -850 1212 -737 
Q 1344 -625 1503 -206 
L 1606 56 
L 191 3500 
L 800 3500 
L 1894 763 
L 2988 3500 
L 3597 3500 
L 2059 -325 
z
" transform="scale(0.015625)"/>
       </defs>
       <use xlink:href="#DejaVuSans-52"/>
       <use xlink:href="#DejaVuSans-69" x="69.482422"/>
       <use xlink:href="#DejaVuSans-73" x="97.265625"/>
       <use xlink:href="#DejaVuSans-6b" x="149.365234"/>
       <use xlink:href="#DejaVuSans-79" x="203.650391"/>
       <use xlink:href="#DejaVuSans-20" x="262.830078"/>
       <use xlink:href="#DejaVuSans-51" x="294.617188"/>
       <use xlink:href="#DejaVuSans-4c" x="373.328125"/>
       <use xlink:href="#DejaVuSans-65" x="427.291016"/>
       <use xlink:href="#DejaVuSans-61" x="488.814453"/>
       <use xlink:href="#DejaVuSans-72" x="550.09375"/>
       <use xlink:href="#DejaVuSans-6e" x="589.457031"/>
       <use xlink:href="#DejaVuSans-65" x="652.835938"/>
       <use xlink:href="#DejaVuSans-72" x="714.359375"/>
      </g>
     </g>
    </g>
    <g id="xtick_10">
     <g id="line2d_10">
      <g>
       <use xlink:href="#m20005637ad" x="778.424545" y="337.97" style="stroke: #000000; stroke-width: 0.8"/>
      </g>
     </g>
     <g id="text_10">
      <!-- Cooperator -->
      <g transform="translate(780.632045 389.85875)rotate(-90)scale(0.08 -0.08)">
       <defs>
        <path id="DejaVuSans-43" d="M 4122 4306 
L 4122 3641 
Q 3803 3938 3442 4084 
Q 3081 4231 2675 4231 
Q 1875 4231 1450 3742 
Q 1025 3253 1025 2328 
Q 1025 1406 1450 917 
Q 1875 428 2675 428 
Q 3081 428 3442 575 
Q 3803 722 4122 1019 
L 4122 359 
Q 3791 134 3420 21 
Q 3050 -91 2638 -91 
Q 1578 -91 968 557 
Q 359 1206 359 2328 
Q 359 3453 968 4101 
Q 1578 4750 2638 4750 
Q 3056 4750 3426 4639 
Q 3797 4528 4122 4306 
z
" transform="scale(0.015625)"/>
       </defs>
       <use xlink:href="#DejaVuSans-43"/>
       <use xlink:href="#DejaVuSans-6f" x="69.824219"/>
       <use xlink:href="#DejaVuSans-6f" x="131.005859"/>
       <use xlink:href="#DejaVuSans-70" x="192.1875"/>
       <use xlink:href="#DejaVuSans-65" x="255.664062"/>
       <use xlink:href="#DejaVuSans-72" x="317.1875"/>
       <use xlink:href="#DejaVuSans-61" x="358.300781"/>
       <use xlink:href="#DejaVuSans-74" x="419.580078"/>
       <use xlink:href="#DejaVuSans-6f" x="458.789062"/>
       <use xlink:href="#DejaVuSans-72" x="519.970703"/>
      </g>
     </g>
    </g>
   </g>
   <g id="matplotlib.axis_2">
    <g id="ytick_1">
     <g id="line2d_11">
      <defs>
       <path id="m9196018810" d="M 0 0 
L -3.5 0 
" style="stroke: #000000; stroke-width: 0.8"/>
      </defs>
      <g>
       <use xlink:href="#m9196018810" x="30.67" y="331.171705" style="stroke: #000000; stroke-width: 0.8"/>
      </g>
     </g>
     <g id="text_11">
      <!-- 1.6 -->
      <g transform="translate(10.9475 334.21108)scale(0.08 -0.08)">
       <defs>
        <path id="DejaVuSans-31" d="M 794 531 
L 1825 531 
L 1825 4091 
L 703 3866 
L 703 4441 
L 1819 4666 
L 2450 4666 
L 2450 531 
L 3481 531 
L 3481 0 
L 794 0 
L 794 531 
z
" transform="scale(0.015625)"/>
        <path id="DejaVuSans-36" d="M 2113 2584 
Q 1688 2584 1439 2293 
Q 1191 2003 1191 1497 
Q 1191 994 1439 701 
Q 1688 409 2113 409 
Q 2538 409 2786 701 
Q 3034 994 3034 1497 
Q 3034 2003 2786 2293 
Q 2538 2584 2113 2584 
z
M 3366 4563 
L 3366 3988 
Q 3128 4100 2886 4159 
Q 2644 4219 2406 4219 
Q 1781 4219 1451 3797 
Q 1122 3375 1075 2522 
Q 1259 2794 1537 2939 
Q 1816 3084 2150 3084 
Q 2853 3084 3261 2657 
Q 3669 2231 3669 1497 
Q 3669 778 3244 343 
Q 2819 -91 2113 -91 
Q 1303 -91 875 529 
Q 447 1150 447 2328 
Q 447 3434 972 4092 
Q 1497 4750 2381 4750 
Q 2619 4750 2861 4703 
Q 3103 4656 3366 4563 
z
" transform="scale(0.015625)"/>
       </defs>
       <use xlink:href="#DejaVuSans-31"/>
       <use xlink:href="#DejaVuSans-2e" x="63.623047"/>
       <use xlink:href="#DejaVuSans-36" x="95.410156"/>
      </g>
     </g>
    </g>
    <g id="ytick_2">
     <g id="line2d_12">
      <g>
       <use xlink:href="#m9196018810" x="30.67" y="282.223977" style="stroke: #000000; stroke-width: 0.8"/>
      </g>
     </g>
     <g id="text_12">
      <!-- 1.8 -->
      <g transform="translate(10.9475 285.263352)scale(0.08 -0.08)">
       <defs>
        <path id="DejaVuSans-38" d="M 2034 2216 
Q 1584 2216 1326 1975 
Q 1069 1734 1069 1313 
Q 1069 891 1326 650 
Q 1584 409 2034 409 
Q 2484 409 2743 651 
Q 3003 894 3003 1313 
Q 3003 1734 2745 1975 
Q 2488 2216 2034 2216 
z
M 1403 2484 
Q 997 2584 770 2862 
Q 544 3141 544 3541 
Q 544 4100 942 4425 
Q 1341 4750 2034 4750 
Q 2731 4750 3128 4425 
Q 3525 4100 3525 3541 
Q 3525 3141 3298 2862 
Q 3072 2584 2669 2484 
Q 3125 2378 3379 2068 
Q 3634 1759 3634 1313 
Q 3634 634 3220 271 
Q 2806 -91 2034 -91 
Q 1263 -91 848 271 
Q 434 634 434 1313 
Q 434 1759 690 2068 
Q 947 2378 1403 2484 
z
M 1172 3481 
Q 1172 3119 1398 2916 
Q 1625 2713 2034 2713 
Q 2441 2713 2670 2916 
Q 2900 3119 2900 3481 
Q 2900 3844 2670 4047 
Q 2441 4250 2034 4250 
Q 1625 4250 1398 4047 
Q 1172 3844 1172 3481 
z
" transform="scale(0.015625)"/>
       </defs>
       <use xlink:href="#DejaVuSans-31"/>
       <use xlink:href="#DejaVuSans-2e" x="63.623047"/>
       <use xlink:href="#DejaVuSans-38" x="95.410156"/>
      </g>
     </g>
    </g>
    <g id="ytick_3">
     <g id="line2d_13">
      <g>
       <use xlink:href="#m9196018810" x="30.67" y="233.27625" style="stroke: #000000; stroke-width: 0.8"/>
      </g>
     </g>
     <g id="text_13">
      <!-- 2.0 -->
      <g transform="translate(10.9475 236.315625)scale(0.08 -0.08)">
       <defs>
        <path id="DejaVuSans-32" d="M 1228 531 
L 3431 531 
L 3431 0 
L 469 0 
L 469 531 
Q 828 903 1448 1529 
Q 2069 2156 2228 2338 
Q 2531 2678 2651 2914 
Q 2772 3150 2772 3378 
Q 2772 3750 2511 3984 
Q 2250 4219 1831 4219 
Q 1534 4219 1204 4116 
Q 875 4013 500 3803 
L 500 4441 
Q 881 4594 1212 4672 
Q 1544 4750 1819 4750 
Q 2544 4750 2975 4387 
Q 3406 4025 3406 3419 
Q 3406 3131 3298 2873 
Q 3191 2616 2906 2266 
Q 2828 2175 2409 1742 
Q 1991 1309 1228 531 
z
" transform="scale(0.015625)"/>
       </defs>
       <use xlink:href="#DejaVuSans-32"/>
       <use xlink:href="#DejaVuSans-2e" x="63.623047"/>
       <use xlink:href="#DejaVuSans-30" x="95.410156"/>
      </g>
     </g>
    </g>
    <g id="ytick_4">
     <g id="line2d_14">
      <g>
       <use xlink:href="#m9196018810" x="30.67" y="184.328523" style="stroke: #000000; stroke-width: 0.8"/>
      </g>
     </g>
     <g id="text_14">
      <!-- 2.2 -->
      <g transform="translate(10.9475 187.367898)scale(0.08 -0.08)">
       <use xlink:href="#DejaVuSans-32"/>
       <use xlink:href="#DejaVuSans-2e" x="63.623047"/>
       <use xlink:href="#DejaVuSans-32" x="95.410156"/>
      </g>
     </g>
    </g>
    <g id="ytick_5">
     <g id="line2d_15">
      <g>
       <use xlink:href="#m9196018810" x="30.67" y="135.380795" style="stroke: #000000; stroke-width: 0.8"/>
      </g>
     </g>
     <g id="text_15">
      <!-- 2.4 -->
      <g transform="translate(10.9475 138.42017)scale(0.08 -0.08)">
       <defs>
        <path id="DejaVuSans-34" d="M 2419 4116 
L 825 1625 
L 2419 1625 
L 2419 4116 
z
M 2253 4666 
L 3047 4666 
L 3047 1625 
L 3713 1625 
L 3713 1100 
L 3047 1100 
L 3047 0 
L 2419 0 
L 2419 1100 
L 313 1100 
L 313 1709 
L 2253 4666 
z
" transform="scale(0.015625)"/>
       </defs>
       <use xlink:href="#DejaVuSans-32"/>
       <use xlink:href="#DejaVuSans-2e" x="63.623047"/>
       <use xlink:href="#DejaVuSans-34" x="95.410156"/>
      </g>
     </g>
    </g>
    <g id="ytick_6">
     <g id="line2d_16">
      <g>
       <use xlink:href="#m9196018810" x="30.67" y="86.433068" style="stroke: #000000; stroke-width: 0.8"/>
      </g>
     </g>
     <g id="text_16">
      <!-- 2.6 -->
      <g transform="translate(10.9475 89.472443)scale(0.08 -0.08)">
       <use xlink:href="#DejaVuSans-32"/>
       <use xlink:href="#DejaVuSans-2e" x="63.623047"/>
       <use xlink:href="#DejaVuSans-36" x="95.410156"/>
      </g>
     </g>
    </g>
    <g id="ytick_7">
     <g id="line2d_17">
      <g>
       <use xlink:href="#m9196018810" x="30.67" y="37.485341" style="stroke: #000000; stroke-width: 0.8"/>
      </g>
     </g>
     <g id="text_17">
      <!-- 2.8 -->
      <g transform="translate(10.9475 40.524716)scale(0.08 -0.08)">
       <use xlink:href="#DejaVuSans-32"/>
       <use xlink:href="#DejaVuSans-2e" x="63.623047"/>
       <use xlink:href="#DejaVuSans-38" x="95.410156"/>
      </g>
     </g>
    </g>
   </g>
   <g id="LineCollection_1">
    <path d="M 96.098523 90.987926 
L 114.792386 90.987926 
" clip-path="url(#pad6618f415)" style="fill: none; stroke: #1f77b4; stroke-width: 1.5"/>
    <path d="M 170.873977 100.98142 
L 189.567841 100.98142 
" clip-path="url(#pad6618f415)" style="fill: none; stroke: #1f77b4; stroke-width: 1.5"/>
    <path d="M 245.649432 130.486023 
L 264.343295 130.486023 
" clip-path="url(#pad6618f415)" style="fill: none; stroke: #1f77b4; stroke-width: 1.5"/>
    <path d="M 320.424886 193.370256 
L 339.11875 193.370256 
" clip-path="url(#pad6618f415)" style="fill: none; stroke: #1f77b4; stroke-width: 1.5"/>
    <path d="M 395.200341 199.488722 
L 413.894205 199.488722 
" clip-path="url(#pad6618f415)" style="fill: none; stroke: #1f77b4; stroke-width: 1.5"/>
    <path d="M 469.975795 208.802386 
L 488.669659 208.802386 
" clip-path="url(#pad6618f415)" style="fill: none; stroke: #1f77b4; stroke-width: 1.5"/>
    <path d="M 544.75125 212.473466 
L 563.445114 212.473466 
" clip-path="url(#pad6618f415)" style="fill: none; stroke: #1f77b4; stroke-width: 1.5"/>
    <path d="M 619.526705 256.798352 
L 638.220568 256.798352 
" clip-path="url(#pad6618f415)" style="fill: none; stroke: #1f77b4; stroke-width: 1.5"/>
    <path d="M 694.302159 261.081278 
L 712.996023 261.081278 
" clip-path="url(#pad6618f415)" style="fill: none; stroke: #1f77b4; stroke-width: 1.5"/>
    <path d="M 769.077614 314.651847 
L 787.771477 314.651847 
" clip-path="url(#pad6618f415)" style="fill: none; stroke: #1f77b4; stroke-width: 1.5"/>
   </g>
   <g id="patch_3">
    <path d="M 30.67 337.97 
L 30.67 26.88 
" style="fill: none; stroke: #000000; stroke-width: 0.8; stroke-linejoin: miter; stroke-linecap: square"/>
   </g>
   <g id="patch_4">
    <path d="M 853.2 337.97 
L 853.2 26.88 
" style="fill: none; stroke: #000000; stroke-width: 0.8; stroke-linejoin: miter; stroke-linecap: square"/>
   </g>
   <g id="patch_5">
    <path d="M 30.67 337.97 
L 853.2 337.97 
" style="fill: none; stroke: #000000; stroke-width: 0.8; stroke-linejoin: miter; stroke-linecap: square"/>
   </g>
   <g id="patch_6">
    <path d="M 30.67 26.88 
L 853.2 26.88 
" style="fill: none; stroke: #000000; stroke-width: 0.8; stroke-linejoin: miter; stroke-linecap: square"/>
   </g>
   <g id="text_18">
    <!-- Payoff - turns: 200, repetitions: 20, strategies: 10.  -->
    <g transform="translate(289.971875 20.88)scale(0.12 -0.12)">
     <defs>
      <path id="DejaVuSans-50" d="M 1259 4147 
L 1259 2394 
L 2053 2394 
Q 2494 2394 2734 2622 
Q 2975 2850 2975 3272 
Q 2975 3691 2734 3919 
Q 2494 4147 2053 4147 
L 1259 4147 
z
M 628 4666 
L 2053 4666 
Q 2838 4666 3239 4311 
Q 3641 3956 3641 3272 
Q 3641 2581 3239 2228 
Q 2838 1875 2053 1875 
L 1259 1875 
L 1259 0 
L 628 0 
L 628 4666 
z
" transform="scale(0.015625)"/>
      <path id="DejaVuSans-2d" d="M 313 2009 
L 1997 2009 
L 1997 1497 
L 313 1497 
L 313 2009 
z
" transform="scale(0.015625)"/>
      <path id="DejaVuSans-2c" d="M 750 794 
L 1409 794 
L 1409 256 
L 897 -744 
L 494 -744 
L 750 256 
L 750 794 
z
" transform="scale(0.015625)"/>
     </defs>
     <use xlink:href="#DejaVuSans-50"/>
     <use xlink:href="#DejaVuSans-61" x="55.802734"/>
     <use xlink:href="#DejaVuSans-79" x="117.082031"/>
     <use xlink:href="#DejaVuSans-6f" x="176.261719"/>
     <use xlink:href="#DejaVuSans-66" x="237.443359"/>
     <use xlink:href="#DejaVuSans-66" x="272.648438"/>
     <use xlink:href="#DejaVuSans-20" x="307.853516"/>
     <use xlink:href="#DejaVuSans-2d" x="339.640625"/>
     <use xlink:href="#DejaVuSans-20" x="375.724609"/>
     <use xlink:href="#DejaVuSans-74" x="407.511719"/>
     <use xlink:href="#DejaVuSans-75" x="446.720703"/>
     <use xlink:href="#DejaVuSans-72" x="510.099609"/>
     <use xlink:href="#DejaVuSans-6e" x="549.462891"/>
     <use xlink:href="#DejaVuSans-73" x="612.841797"/>
     <use xlink:href="#DejaVuSans-3a" x="664.941406"/>
     <use xlink:href="#DejaVuSans-20" x="698.632812"/>
     <use xlink:href="#DejaVuSans-32" x="730.419922"/>
     <use xlink:href="#DejaVuSans-30" x="794.042969"/>
     <use xlink:href="#DejaVuSans-30" x="857.666016"/>
     <use xlink:href="#DejaVuSans-2c" x="921.289062"/>
     <use xlink:href="#DejaVuSans-20" x="953.076172"/>
     <use xlink:href="#DejaVuSans-72" x="984.863281"/>
     <use xlink:href="#DejaVuSans-65" x="1023.726562"/>
     <use xlink:href="#DejaVuSans-70" x="1085.25"/>
     <use xlink:href="#DejaVuSans-65" x="1148.726562"/>
     <use xlink:href="#DejaVuSans-74" x="1210.25"/>
     <use xlink:href="#DejaVuSans-69" x="1249.458984"/>
     <use xlink:href="#DejaVuSans-74" x="1277.242188"/>
     <use xlink:href="#DejaVuSans-69" x="1316.451172"/>
     <use xlink:href="#DejaVuSans-6f" x="1344.234375"/>
     <use xlink:href="#DejaVuSans-6e" x="1405.416016"/>
     <use xlink:href="#DejaVuSans-73" x="1468.794922"/>
     <use xlink:href="#DejaVuSans-3a" x="1520.894531"/>
     <use xlink:href="#DejaVuSans-20" x="1554.585938"/>
     <use xlink:href="#DejaVuSans-32" x="1586.373047"/>
     <use xlink:href="#DejaVuSans-30" x="1649.996094"/>
     <use xlink:href="#DejaVuSans-2c" x="1713.619141"/>
     <use xlink:href="#DejaVuSans-20" x="1745.40625"/>
     <use xlink:href="#DejaVuSans-73" x="1777.193359"/>
     <use xlink:href="#DejaVuSans-74" x="1829.292969"/>
     <use xlink:href="#DejaVuSans-72" x="1868.501953"/>
     <use xlink:href="#DejaVuSans-61" x="1909.615234"/>
     <use xlink:href="#DejaVuSans-74" x="1970.894531"/>
     <use xlink:href="#DejaVuSans-65" x="2010.103516"/>
     <use xlink:href="#DejaVuSans-67" x="2071.626953"/>
     <use xlink:href="#DejaVuSans-69" x="2135.103516"/>
     <use xlink:href="#DejaVuSans-65" x="2162.886719"/>
     <use xlink:href="#DejaVuSans-73" x="2224.410156"/>
     <use xlink:href="#DejaVuSans-3a" x="2276.509766"/>
     <use xlink:href="#DejaVuSans-20" x="2310.201172"/>
     <use xlink:href="#DejaVuSans-31" x="2341.988281"/>
     <use xlink:href="#DejaVuSans-30" x="2405.611328"/>
     <use xlink:href="#DejaVuSans-2e" x="2469.234375"/>
     <use xlink:href="#DejaVuSans-20" x="2501.021484"/>
    </g>
   </g>
  </g>
 </g>
 <defs>
  <clipPath id="pad6618f415">
   <rect x="30.67" y="26.88" width="822.53" height="311.09"/>
  </clipPath>
 </defs>
</svg>
