<?xml version="1.0" encoding="utf-8" standalone="no"?>
<!DOCTYPE svg PUBLIC "-//W3C//DTD SVG 1.1//EN"
  "http://www.w3.org/Graphics/SVG/1.1/DTD/svg11.dtd">
<svg xmlns:xlink="http://www.w3.org/1999/xlink" width="864pt" height="432pt" viewBox="0 0 864 432" xmlns="http://www.w3.org/2000/svg" version="1.1">
 <metadata>
  <rdf:RDF xmlns:dc="http://purl.org/dc/elements/1.1/" xmlns:cc="http://creativecommons.org/ns#" xmlns:rdf="http://www.w3.org/1999/02/22-rdf-syntax-ns#">
   <cc:Work>
    <dc:type rdf:resource="http://purl.org/dc/dcmitype/StillImage"/>
    <dc:date>2022-09-26T23:55:18.533962</dc:date>
    <dc:format>image/svg+xml</dc:format>
    <dc:creator>
     <cc:Agent>
      <dc:title>Matplotlib v3.5.1, https://matplotlib.org/</dc:title>
     </cc:Agent>
    </dc:creator>
   </cc:Work>
  </rdf:RDF>
 </metadata>
 <defs>
  <style type="text/css">*{stroke-linejoin: round; stroke-linecap: butt}</style>
 </defs>
 <g id="figure_1">
  <g id="patch_1">
   <path d="M 0 432 
L 864 432 
L 864 0 
L 0 0 
z
" style="fill: #ffffff"/>
  </g>
  <g id="axes_1">
   <g id="patch_2">
    <path d="M 29.68 337.97 
L 853.2 337.97 
L 853.2 26.88 
L 29.68 26.88 
z
" style="fill: #ffffff"/>
   </g>
   <g id="PolyCollection_1">
    <path d="M 112.190166 183.132023 
L 96.900743 183.132023 
L 96.916417 183.124881 
L 96.963248 183.117739 
L 97.040662 183.110598 
L 97.147715 183.103456 
L 97.283113 183.096315 
L 97.44524 183.089173 
L 97.632184 183.082031 
L 97.841781 183.07489 
L 98.071652 183.067748 
L 98.319251 183.060606 
L 98.581911 183.053465 
L 98.85689 183.046323 
L 99.141417 183.039181 
L 99.432743 183.03204 
L 99.728178 183.024898 
L 100.025134 183.017756 
L 100.321158 183.010615 
L 100.613965 183.003473 
L 100.901462 182.996331 
L 101.181765 182.98919 
L 101.453218 182.982048 
L 101.714399 182.974907 
L 101.964123 182.967765 
L 102.201441 182.960623 
L 102.425633 182.953482 
L 102.636198 182.94634 
L 102.832842 182.939198 
L 103.015459 182.932057 
L 103.184113 182.924915 
L 103.339019 182.917773 
L 103.480521 182.910632 
L 103.609069 182.90349 
L 103.7252 182.896348 
L 103.829515 182.889207 
L 103.922659 182.882065 
L 104.005302 182.874924 
L 104.078121 182.867782 
L 104.141783 182.86064 
L 104.196931 182.853499 
L 104.244167 182.846357 
L 104.284044 182.839215 
L 104.31705 182.832074 
L 104.343603 182.824932 
L 104.364038 182.81779 
L 104.3786 182.810649 
L 104.387438 182.803507 
L 104.390596 182.796365 
L 104.388008 182.789224 
L 104.379495 182.782082 
L 104.364753 182.774941 
L 104.343356 182.767799 
L 104.314748 182.760657 
L 104.27824 182.753516 
L 104.23301 182.746374 
L 104.178101 182.739232 
L 104.112423 182.732091 
L 104.034755 182.724949 
L 103.94375 182.717807 
L 103.837944 182.710666 
L 103.715769 182.703524 
L 103.575563 182.696382 
L 103.415594 182.689241 
L 103.234076 182.682099 
L 103.029205 182.674958 
L 102.799179 182.667816 
L 102.542246 182.660674 
L 102.25673 182.653533 
L 101.941088 182.646391 
L 101.593946 182.639249 
L 101.214152 182.632108 
L 100.800829 182.624966 
L 100.353421 182.617824 
L 99.871747 182.610683 
L 99.356048 182.603541 
L 98.807033 182.596399 
L 98.225915 182.589258 
L 97.614449 182.582116 
L 96.974951 182.574975 
L 96.310319 182.567833 
L 95.62403 182.560691 
L 94.920139 182.55355 
L 94.20325 182.546408 
L 93.47849 182.539266 
L 92.751452 182.532125 
L 92.02814 182.524983 
L 91.314889 182.517841 
L 90.618285 182.5107 
L 89.94506 182.503558 
L 89.301995 182.496416 
L 88.695802 182.489275 
L 88.133013 182.482133 
L 87.619862 182.474992 
L 87.162171 182.46785 
L 86.76524 182.460708 
L 86.433747 182.453567 
L 86.171651 182.446425 
L 85.982121 182.439283 
L 85.867466 182.432142 
L 85.829091 182.425 
L 123.261818 182.425 
L 123.261818 182.425 
L 123.223443 182.432142 
L 123.108788 182.439283 
L 122.919258 182.446425 
L 122.657162 182.453567 
L 122.325669 182.460708 
L 121.928738 182.46785 
L 121.471047 182.474992 
L 120.957896 182.482133 
L 120.395107 182.489275 
L 119.788914 182.496416 
L 119.145849 182.503558 
L 118.472624 182.5107 
L 117.77602 182.517841 
L 117.06277 182.524983 
L 116.339457 182.532125 
L 115.612419 182.539266 
L 114.887659 182.546408 
L 114.17077 182.55355 
L 113.466879 182.560691 
L 112.78059 182.567833 
L 112.115958 182.574975 
L 111.47646 182.582116 
L 110.864994 182.589258 
L 110.283876 182.596399 
L 109.734861 182.603541 
L 109.219162 182.610683 
L 108.737488 182.617824 
L 108.29008 182.624966 
L 107.876757 182.632108 
L 107.496963 182.639249 
L 107.149821 182.646391 
L 106.834179 182.653533 
L 106.548664 182.660674 
L 106.29173 182.667816 
L 106.061704 182.674958 
L 105.856833 182.682099 
L 105.675315 182.689241 
L 105.515346 182.696382 
L 105.37514 182.703524 
L 105.252965 182.710666 
L 105.14716 182.717807 
L 105.056154 182.724949 
L 104.978486 182.732091 
L 104.912808 182.739232 
L 104.857899 182.746374 
L 104.812669 182.753516 
L 104.776161 182.760657 
L 104.747553 182.767799 
L 104.726156 182.774941 
L 104.711414 182.782082 
L 104.702901 182.789224 
L 104.700314 182.796365 
L 104.703472 182.803507 
L 104.712309 182.810649 
L 104.726872 182.81779 
L 104.747306 182.824932 
L 104.773859 182.832074 
L 104.806866 182.839215 
L 104.846742 182.846357 
L 104.893978 182.853499 
L 104.949126 182.86064 
L 105.012788 182.867782 
L 105.085607 182.874924 
L 105.16825 182.882065 
L 105.261394 182.889207 
L 105.365709 182.896348 
L 105.48184 182.90349 
L 105.610388 182.910632 
L 105.75189 182.917773 
L 105.906796 182.924915 
L 106.07545 182.932057 
L 106.258067 182.939198 
L 106.454711 182.94634 
L 106.665276 182.953482 
L 106.889468 182.960623 
L 107.126786 182.967765 
L 107.37651 182.974907 
L 107.637691 182.982048 
L 107.909144 182.98919 
L 108.189447 182.996331 
L 108.476944 183.003473 
L 108.769751 183.010615 
L 109.065775 183.017756 
L 109.362731 183.024898 
L 109.658166 183.03204 
L 109.949492 183.039181 
L 110.23402 183.046323 
L 110.508998 183.053465 
L 110.771658 183.060606 
L 111.019257 183.067748 
L 111.249128 183.07489 
L 111.458725 183.082031 
L 111.645669 183.089173 
L 111.807796 183.096315 
L 111.943194 183.103456 
L 112.050247 183.110598 
L 112.127661 183.117739 
L 112.174492 183.124881 
L 112.190166 183.132023 
z
" clip-path="url(#p85c9e5d3db)" style="fill: #1f77b4; fill-opacity: 0.3"/>
   </g>
   <g id="PolyCollection_2">
    <path d="M 197.559348 183.132023 
L 161.26247 183.132023 
L 160.952644 181.782252 
L 160.762999 180.432481 
L 160.694545 179.082711 
L 160.745608 177.73294 
L 160.91196 176.383169 
L 161.187042 175.033399 
L 161.562272 173.683628 
L 162.027402 172.333857 
L 162.570928 170.984087 
L 163.180509 169.634316 
L 163.843383 168.284545 
L 164.546763 166.934775 
L 165.27819 165.585004 
L 166.025832 164.235233 
L 166.778721 162.885463 
L 167.52693 161.535692 
L 168.261672 160.185921 
L 168.975346 158.836151 
L 169.661529 157.48638 
L 170.314909 156.13661 
L 170.931203 154.786839 
L 171.507034 153.437068 
L 172.039805 152.087298 
L 172.527572 150.737527 
L 172.968921 149.387756 
L 173.362865 148.037986 
L 173.70876 146.688215 
L 174.006246 145.338444 
L 174.255222 143.988674 
L 174.455834 142.638903 
L 174.608504 141.289132 
L 174.713965 139.939362 
L 174.773323 138.589591 
L 174.788124 137.23982 
L 174.760424 135.89005 
L 174.692851 134.540279 
L 174.588665 133.190508 
L 174.45179 131.840738 
L 174.286822 130.490967 
L 174.099017 129.141196 
L 173.89423 127.791426 
L 173.678835 126.441655 
L 173.459604 125.091884 
L 173.243554 123.742114 
L 173.037774 122.392343 
L 172.849226 121.042572 
L 172.684545 119.692802 
L 172.54983 118.343031 
L 172.450446 116.99326 
L 172.390854 115.64349 
L 172.374458 114.293719 
L 172.403495 112.943948 
L 172.478971 111.594178 
L 172.600636 110.244407 
L 172.767011 108.894636 
L 172.975461 107.544866 
L 173.222309 106.195095 
L 173.502986 104.845324 
L 173.812205 103.495554 
L 174.144159 102.145783 
L 174.492722 100.796012 
L 174.85165 99.446242 
L 175.214772 98.096471 
L 175.576156 96.7467 
L 175.930259 95.39693 
L 176.272043 94.047159 
L 176.597051 92.697388 
L 176.901467 91.347618 
L 177.182131 89.997847 
L 177.436535 88.648076 
L 177.662789 87.298306 
L 177.859583 85.948535 
L 178.026119 84.598764 
L 178.162059 83.248994 
L 178.267454 81.899223 
L 178.342693 80.549452 
L 178.388453 79.199682 
L 178.405659 77.849911 
L 178.395468 76.50014 
L 178.359249 75.15037 
L 178.298589 73.800599 
L 178.215299 72.450829 
L 178.111427 71.101058 
L 177.989274 69.751287 
L 177.851406 68.401517 
L 177.700655 67.051746 
L 177.54012 65.701975 
L 177.373138 64.352205 
L 177.203252 63.002434 
L 177.03416 61.652663 
L 176.869638 60.302893 
L 176.713463 58.953122 
L 176.569313 57.603351 
L 176.440665 56.253581 
L 176.330692 54.90381 
L 176.242159 53.554039 
L 176.177333 52.204269 
L 176.137905 50.854498 
L 176.124933 49.504727 
L 182.696885 49.504727 
L 182.696885 49.504727 
L 182.683913 50.854498 
L 182.644485 52.204269 
L 182.57966 53.554039 
L 182.491126 54.90381 
L 182.381153 56.253581 
L 182.252505 57.603351 
L 182.108355 58.953122 
L 181.95218 60.302893 
L 181.787658 61.652663 
L 181.618566 63.002434 
L 181.448681 64.352205 
L 181.281698 65.701975 
L 181.121163 67.051746 
L 180.970413 68.401517 
L 180.832544 69.751287 
L 180.710391 71.101058 
L 180.606519 72.450829 
L 180.523229 73.800599 
L 180.462569 75.15037 
L 180.42635 76.50014 
L 180.416159 77.849911 
L 180.433365 79.199682 
L 180.479125 80.549452 
L 180.554364 81.899223 
L 180.659759 83.248994 
L 180.795699 84.598764 
L 180.962236 85.948535 
L 181.159029 87.298306 
L 181.385283 88.648076 
L 181.639687 89.997847 
L 181.920351 91.347618 
L 182.224767 92.697388 
L 182.549776 94.047159 
L 182.891559 95.39693 
L 183.245662 96.7467 
L 183.607046 98.096471 
L 183.970168 99.446242 
L 184.329096 100.796012 
L 184.677659 102.145783 
L 185.009614 103.495554 
L 185.318832 104.845324 
L 185.599509 106.195095 
L 185.846357 107.544866 
L 186.054807 108.894636 
L 186.221182 110.244407 
L 186.342847 111.594178 
L 186.418323 112.943948 
L 186.447361 114.293719 
L 186.430964 115.64349 
L 186.371372 116.99326 
L 186.271989 118.343031 
L 186.137273 119.692802 
L 185.972592 121.042572 
L 185.784044 122.392343 
L 185.578264 123.742114 
L 185.362214 125.091884 
L 185.142983 126.441655 
L 184.927589 127.791426 
L 184.722802 129.141196 
L 184.534996 130.490967 
L 184.370029 131.840738 
L 184.233153 133.190508 
L 184.128967 134.540279 
L 184.061394 135.89005 
L 184.033694 137.23982 
L 184.048495 138.589591 
L 184.107854 139.939362 
L 184.213314 141.289132 
L 184.365984 142.638903 
L 184.566596 143.988674 
L 184.815572 145.338444 
L 185.113059 146.688215 
L 185.458953 148.037986 
L 185.852897 149.387756 
L 186.294246 150.737527 
L 186.782013 152.087298 
L 187.314784 153.437068 
L 187.890615 154.786839 
L 188.506909 156.13661 
L 189.16029 157.48638 
L 189.846472 158.836151 
L 190.560146 160.185921 
L 191.294888 161.535692 
L 192.043097 162.885463 
L 192.795987 164.235233 
L 193.543628 165.585004 
L 194.275055 166.934775 
L 194.978435 168.284545 
L 195.641309 169.634316 
L 196.25089 170.984087 
L 196.794416 172.333857 
L 197.259546 173.683628 
L 197.634776 175.033399 
L 197.909858 176.383169 
L 198.07621 177.73294 
L 198.127273 179.082711 
L 198.058819 180.432481 
L 197.869174 181.782252 
L 197.559348 183.132023 
z
" clip-path="url(#p85c9e5d3db)" style="fill: #1f77b4; fill-opacity: 0.3"/>
   </g>
   <g id="PolyCollection_3">
    <path d="M 255.77096 220.604227 
L 252.781767 220.604227 
L 252.442799 218.79025 
L 252.036093 216.976272 
L 251.552351 215.162295 
L 250.982806 213.348317 
L 250.319959 211.53434 
L 249.558434 209.720362 
L 248.69591 207.906385 
L 247.734052 206.092407 
L 246.679359 204.27843 
L 245.543818 202.464452 
L 244.345253 200.650475 
L 243.107287 198.836497 
L 241.858836 197.02252 
L 240.633105 195.208542 
L 239.466109 193.394565 
L 238.394794 191.580587 
L 237.454889 189.76661 
L 236.678659 187.952632 
L 236.092758 186.138655 
L 235.716399 184.324677 
L 235.56 182.5107 
L 235.624466 180.696722 
L 235.901169 178.882745 
L 236.372622 177.068767 
L 237.013788 175.25479 
L 237.79387 173.440812 
L 238.678413 171.626835 
L 239.631516 169.812857 
L 240.617943 167.99888 
L 241.60499 166.184902 
L 242.563956 164.370925 
L 243.471168 162.556947 
L 244.308533 160.74297 
L 245.063659 158.928992 
L 245.729607 157.115015 
L 246.30436 155.301037 
L 246.790117 153.48706 
L 247.192487 151.673082 
L 247.519666 149.859105 
L 247.781643 148.045127 
L 247.989479 146.23115 
L 248.154664 144.417172 
L 248.28857 142.603195 
L 248.401988 140.789217 
L 248.504757 138.97524 
L 248.605467 137.161262 
L 248.711259 135.347285 
L 248.827689 133.533307 
L 248.958696 131.71933 
L 249.106633 129.905352 
L 249.272386 128.091375 
L 249.455557 126.277397 
L 249.654689 124.46342 
L 249.867535 122.649442 
L 250.091324 120.835465 
L 250.323024 119.021487 
L 250.559573 117.20751 
L 250.798064 115.393532 
L 251.03588 113.579555 
L 251.270776 111.765577 
L 251.500905 109.9516 
L 251.724801 108.137622 
L 251.941339 106.323645 
L 252.149657 104.509667 
L 252.349091 102.69569 
L 252.539094 100.881712 
L 252.719174 99.067735 
L 252.888848 97.253757 
L 253.047605 95.43978 
L 253.194887 93.625802 
L 253.330083 91.811825 
L 253.452527 89.997847 
L 253.561499 88.18387 
L 253.656232 86.369892 
L 253.735909 84.555915 
L 253.799667 82.741937 
L 253.846602 80.92796 
L 253.87578 79.113982 
L 253.886259 77.300005 
L 253.877143 75.486027 
L 253.847643 73.67205 
L 253.797179 71.858072 
L 253.725498 70.044095 
L 253.632817 68.230117 
L 253.519971 66.41614 
L 253.388549 64.602162 
L 253.241012 62.788185 
L 253.080755 60.974207 
L 252.912104 59.16023 
L 252.740241 57.346252 
L 252.571031 55.532275 
L 252.41077 53.718297 
L 252.265859 51.90432 
L 252.142435 50.090342 
L 252.045972 48.276365 
L 251.980916 46.462387 
L 251.950363 44.64841 
L 251.955837 42.834432 
L 251.997175 41.020455 
L 256.555553 41.020455 
L 256.555553 41.020455 
L 256.59689 42.834432 
L 256.602364 44.64841 
L 256.571812 46.462387 
L 256.506755 48.276365 
L 256.410292 50.090342 
L 256.286868 51.90432 
L 256.141958 53.718297 
L 255.981696 55.532275 
L 255.812486 57.346252 
L 255.640623 59.16023 
L 255.471973 60.974207 
L 255.311715 62.788185 
L 255.164178 64.602162 
L 255.032757 66.41614 
L 254.91991 68.230117 
L 254.827229 70.044095 
L 254.755548 71.858072 
L 254.705084 73.67205 
L 254.675584 75.486027 
L 254.666468 77.300005 
L 254.676948 79.113982 
L 254.706125 80.92796 
L 254.75306 82.741937 
L 254.816819 84.555915 
L 254.896495 86.369892 
L 254.991228 88.18387 
L 255.1002 89.997847 
L 255.222644 91.811825 
L 255.35784 93.625802 
L 255.505122 95.43978 
L 255.663879 97.253757 
L 255.833553 99.067735 
L 256.013633 100.881712 
L 256.203636 102.69569 
L 256.40307 104.509667 
L 256.611389 106.323645 
L 256.827926 108.137622 
L 257.051823 109.9516 
L 257.281951 111.765577 
L 257.516847 113.579555 
L 257.754663 115.393532 
L 257.993154 117.20751 
L 258.229703 119.021487 
L 258.461403 120.835465 
L 258.685192 122.649442 
L 258.898038 124.46342 
L 259.097171 126.277397 
L 259.280341 128.091375 
L 259.446095 129.905352 
L 259.594031 131.71933 
L 259.725038 133.533307 
L 259.841469 135.347285 
L 259.94726 137.161262 
L 260.047971 138.97524 
L 260.150739 140.789217 
L 260.264157 142.603195 
L 260.398063 144.417172 
L 260.563248 146.23115 
L 260.771084 148.045127 
L 261.033061 149.859105 
L 261.36024 151.673082 
L 261.76261 153.48706 
L 262.248367 155.301037 
L 262.82312 157.115015 
L 263.489068 158.928992 
L 264.244195 160.74297 
L 265.081559 162.556947 
L 265.988771 164.370925 
L 266.947737 166.184902 
L 267.934784 167.99888 
L 268.921211 169.812857 
L 269.874314 171.626835 
L 270.758857 173.440812 
L 271.538939 175.25479 
L 272.180105 177.068767 
L 272.651558 178.882745 
L 272.928261 180.696722 
L 272.992727 182.5107 
L 272.836328 184.324677 
L 272.459969 186.138655 
L 271.874069 187.952632 
L 271.097838 189.76661 
L 270.157933 191.580587 
L 269.086618 193.394565 
L 267.919622 195.208542 
L 266.693891 197.02252 
L 265.44544 198.836497 
L 264.207475 200.650475 
L 263.00891 202.464452 
L 261.873368 204.27843 
L 260.818676 206.092407 
L 259.856817 207.906385 
L 258.994293 209.720362 
L 258.232768 211.53434 
L 257.569922 213.348317 
L 257.000377 215.162295 
L 256.516634 216.976272 
L 256.109928 218.79025 
L 255.77096 220.604227 
z
" clip-path="url(#p85c9e5d3db)" style="fill: #1f77b4; fill-opacity: 0.3"/>
   </g>
   <g id="PolyCollection_4">
    <path d="M 333.567678 318.880386 
L 324.715959 318.880386 
L 324.669501 316.11657 
L 324.679283 313.352754 
L 324.744451 310.588938 
L 324.861953 307.825122 
L 325.026722 305.061306 
L 325.231984 302.29749 
L 325.469671 299.533674 
L 325.730899 296.769857 
L 326.006468 294.006041 
L 326.287359 291.242225 
L 326.565171 288.478409 
L 326.832494 285.714593 
L 327.083165 282.950777 
L 327.312424 280.186961 
L 327.516946 277.423145 
L 327.69477 274.659329 
L 327.845121 271.895512 
L 327.968159 269.131696 
L 328.064671 266.36788 
L 328.135719 263.604064 
L 328.182283 260.840248 
L 328.204913 258.076432 
L 328.203408 255.312616 
L 328.176541 252.5488 
L 328.121862 249.784983 
L 328.035569 247.021167 
L 327.912484 244.257351 
L 327.746134 241.493535 
L 327.528949 238.729719 
L 327.252577 235.965903 
L 326.90832 233.202087 
L 326.48768 230.438271 
L 325.982987 227.674455 
L 325.388097 224.910638 
L 324.699104 222.146822 
L 323.915026 219.383006 
L 323.038408 216.61919 
L 322.075789 213.855374 
L 321.037964 211.091558 
L 319.940016 208.327742 
L 318.801061 205.563926 
L 317.643716 202.80011 
L 316.493278 200.036293 
L 315.376673 197.272477 
L 314.321213 194.508661 
L 313.35325 191.744845 
L 312.496824 188.981029 
L 311.772392 186.217213 
L 311.195742 183.453397 
L 310.777177 180.689581 
L 310.521014 177.925764 
L 310.425455 175.161948 
L 310.482826 172.398132 
L 310.680161 169.634316 
L 311.000086 166.8705 
L 311.421936 164.106684 
L 311.923021 161.342868 
L 312.479951 158.579052 
L 313.069933 155.815236 
L 313.671961 153.051419 
L 314.267829 150.287603 
L 314.842903 147.523787 
L 315.386639 144.759971 
L 315.892803 141.996155 
L 316.359409 139.232339 
L 316.788388 136.468523 
L 317.185022 133.704707 
L 317.557183 130.94089 
L 317.914444 128.177074 
L 318.267119 125.413258 
L 318.625299 122.649442 
L 318.997953 119.885626 
L 319.392159 117.12181 
L 319.8125 114.357994 
L 320.260683 111.594178 
L 320.735384 108.830362 
L 321.232328 106.066545 
L 321.744592 103.302729 
L 322.263092 100.538913 
L 322.777221 97.775097 
L 323.275571 95.011281 
L 323.746706 92.247465 
L 324.179909 89.483649 
L 324.565867 86.719833 
L 324.897247 83.956017 
L 325.169141 81.1922 
L 325.379337 78.428384 
L 325.528436 75.664568 
L 325.619793 72.900752 
L 325.659299 70.136936 
L 325.655024 67.37312 
L 325.616749 64.609304 
L 325.555407 61.845488 
L 325.482478 59.081671 
L 325.409362 56.317855 
L 325.346786 53.554039 
L 325.304262 50.790223 
L 325.28963 48.026407 
L 325.308732 45.262591 
L 332.974905 45.262591 
L 332.974905 45.262591 
L 332.994006 48.026407 
L 332.979375 50.790223 
L 332.93685 53.554039 
L 332.874275 56.317855 
L 332.801159 59.081671 
L 332.728229 61.845488 
L 332.666888 64.609304 
L 332.628613 67.37312 
L 332.624338 70.136936 
L 332.663843 72.900752 
L 332.7552 75.664568 
L 332.9043 78.428384 
L 333.114496 81.1922 
L 333.386389 83.956017 
L 333.71777 86.719833 
L 334.103727 89.483649 
L 334.53693 92.247465 
L 335.008065 95.011281 
L 335.506416 97.775097 
L 336.020544 100.538913 
L 336.539045 103.302729 
L 337.051308 106.066545 
L 337.548252 108.830362 
L 338.022953 111.594178 
L 338.471136 114.357994 
L 338.891477 117.12181 
L 339.285683 119.885626 
L 339.658338 122.649442 
L 340.016518 125.413258 
L 340.369193 128.177074 
L 340.726454 130.94089 
L 341.098615 133.704707 
L 341.495248 136.468523 
L 341.924228 139.232339 
L 342.390833 141.996155 
L 342.896997 144.759971 
L 343.440733 147.523787 
L 344.015808 150.287603 
L 344.611675 153.051419 
L 345.213704 155.815236 
L 345.803686 158.579052 
L 346.360615 161.342868 
L 346.8617 164.106684 
L 347.283551 166.8705 
L 347.603476 169.634316 
L 347.800811 172.398132 
L 347.858182 175.161948 
L 347.762623 177.925764 
L 347.506459 180.689581 
L 347.087894 183.453397 
L 346.511245 186.217213 
L 345.786812 188.981029 
L 344.930386 191.744845 
L 343.962423 194.508661 
L 342.906963 197.272477 
L 341.790358 200.036293 
L 340.639921 202.80011 
L 339.482575 205.563926 
L 338.34362 208.327742 
L 337.245672 211.091558 
L 336.207848 213.855374 
L 335.245228 216.61919 
L 334.368611 219.383006 
L 333.584532 222.146822 
L 332.895539 224.910638 
L 332.30065 227.674455 
L 331.795957 230.438271 
L 331.375316 233.202087 
L 331.031059 235.965903 
L 330.754687 238.729719 
L 330.537502 241.493535 
L 330.371153 244.257351 
L 330.248068 247.021167 
L 330.161774 249.784983 
L 330.107095 252.5488 
L 330.080229 255.312616 
L 330.078723 258.076432 
L 330.101354 260.840248 
L 330.147918 263.604064 
L 330.218965 266.36788 
L 330.315477 269.131696 
L 330.438515 271.895512 
L 330.588866 274.659329 
L 330.76669 277.423145 
L 330.971213 280.186961 
L 331.200471 282.950777 
L 331.451142 285.714593 
L 331.718465 288.478409 
L 331.996278 291.242225 
L 332.277168 294.006041 
L 332.552738 296.769857 
L 332.813965 299.533674 
L 333.051653 302.29749 
L 333.256915 305.061306 
L 333.421683 307.825122 
L 333.539186 310.588938 
L 333.604354 313.352754 
L 333.614135 316.11657 
L 333.567678 318.880386 
z
" clip-path="url(#p85c9e5d3db)" style="fill: #1f77b4; fill-opacity: 0.3"/>
   </g>
   <g id="PolyCollection_5">
    <path d="M 422.387421 253.127273 
L 385.627125 253.127273 
L 385.422205 251.698944 
L 385.310034 250.270615 
L 385.290909 248.842287 
L 385.363519 247.413958 
L 385.524974 245.985629 
L 385.770882 244.5573 
L 386.095451 243.128972 
L 386.491634 241.700643 
L 386.951291 240.272314 
L 387.465378 238.843985 
L 388.024139 237.415657 
L 388.617315 235.987328 
L 389.23434 234.558999 
L 389.86454 233.13067 
L 390.497318 231.702342 
L 391.122319 230.274013 
L 391.729586 228.845684 
L 392.309689 227.417355 
L 392.853837 225.989027 
L 393.353978 224.560698 
L 393.802871 223.132369 
L 394.194153 221.70404 
L 394.522388 220.275712 
L 394.78311 218.847383 
L 394.972855 217.419054 
L 395.08919 215.990725 
L 395.130741 214.562397 
L 395.097206 213.134068 
L 394.989377 211.705739 
L 394.80915 210.27741 
L 394.559523 208.849082 
L 394.244596 207.420753 
L 393.869548 205.992424 
L 393.440601 204.564096 
L 392.964968 203.135767 
L 392.450777 201.707438 
L 391.906973 200.279109 
L 391.343195 198.850781 
L 390.76963 197.422452 
L 390.196842 195.994123 
L 389.635586 194.565794 
L 389.096597 193.137466 
L 388.590375 191.709137 
L 388.126958 190.280808 
L 387.715699 188.852479 
L 387.36505 187.424151 
L 387.08236 185.995822 
L 386.873689 184.567493 
L 386.743664 183.139164 
L 386.695349 181.710836 
L 386.730168 180.282507 
L 386.847861 178.854178 
L 387.046482 177.425849 
L 387.322442 175.997521 
L 387.670589 174.569192 
L 388.084329 173.140863 
L 388.555775 171.712534 
L 389.07593 170.284206 
L 389.634889 168.855877 
L 390.222055 167.427548 
L 390.82637 165.999219 
L 391.436542 164.570891 
L 392.041275 163.142562 
L 392.62949 161.714233 
L 393.190527 160.285904 
L 393.714342 158.857576 
L 394.19168 157.429247 
L 394.614222 156.000918 
L 394.974719 154.57259 
L 395.267104 153.144261 
L 395.486575 151.715932 
L 395.629666 150.287603 
L 395.694288 148.859275 
L 395.679762 147.430946 
L 395.586821 146.002617 
L 395.417598 144.574288 
L 395.1756 143.14596 
L 394.865651 141.717631 
L 394.493824 140.289302 
L 394.067352 138.860973 
L 393.594517 137.432645 
L 393.08452 136.004316 
L 392.547328 134.575987 
L 391.993509 133.147658 
L 391.434042 131.71933 
L 390.880121 130.291001 
L 390.342939 128.862672 
L 389.833476 127.434343 
L 389.362277 126.006015 
L 388.939235 124.577686 
L 388.57339 123.149357 
L 388.272736 121.721028 
L 388.044055 120.2927 
L 387.892777 118.864371 
L 387.822873 117.436042 
L 387.83678 116.007713 
L 387.935369 114.579385 
L 388.117952 113.151056 
L 388.382328 111.722727 
L 419.632217 111.722727 
L 419.632217 111.722727 
L 419.896594 113.151056 
L 420.079177 114.579385 
L 420.177766 116.007713 
L 420.191672 117.436042 
L 420.121768 118.864371 
L 419.970491 120.2927 
L 419.74181 121.721028 
L 419.441156 123.149357 
L 419.07531 124.577686 
L 418.652268 126.006015 
L 418.181069 127.434343 
L 417.671606 128.862672 
L 417.134425 130.291001 
L 416.580503 131.71933 
L 416.021037 133.147658 
L 415.467217 134.575987 
L 414.930026 136.004316 
L 414.420029 137.432645 
L 413.947194 138.860973 
L 413.520722 140.289302 
L 413.148895 141.717631 
L 412.838945 143.14596 
L 412.596947 144.574288 
L 412.427725 146.002617 
L 412.334784 147.430946 
L 412.320258 148.859275 
L 412.38488 150.287603 
L 412.52797 151.715932 
L 412.747441 153.144261 
L 413.039826 154.57259 
L 413.400324 156.000918 
L 413.822865 157.429247 
L 414.300203 158.857576 
L 414.824019 160.285904 
L 415.385056 161.714233 
L 415.97327 163.142562 
L 416.578003 164.570891 
L 417.188176 165.999219 
L 417.79249 167.427548 
L 418.379657 168.855877 
L 418.938616 170.284206 
L 419.458771 171.712534 
L 419.930217 173.140863 
L 420.343956 174.569192 
L 420.692104 175.997521 
L 420.968063 177.425849 
L 421.166684 178.854178 
L 421.284377 180.282507 
L 421.319196 181.710836 
L 421.270881 183.139164 
L 421.140856 184.567493 
L 420.932186 185.995822 
L 420.649495 187.424151 
L 420.298846 188.852479 
L 419.887588 190.280808 
L 419.42417 191.709137 
L 418.917948 193.137466 
L 418.378959 194.565794 
L 417.817703 195.994123 
L 417.244916 197.422452 
L 416.67135 198.850781 
L 416.107572 200.279109 
L 415.563768 201.707438 
L 415.049577 203.135767 
L 414.573944 204.564096 
L 414.144997 205.992424 
L 413.769949 207.420753 
L 413.455022 208.849082 
L 413.205396 210.27741 
L 413.025168 211.705739 
L 412.91734 213.134068 
L 412.883805 214.562397 
L 412.925355 215.990725 
L 413.041691 217.419054 
L 413.231436 218.847383 
L 413.492157 220.275712 
L 413.820393 221.70404 
L 414.211675 223.132369 
L 414.660568 224.560698 
L 415.160709 225.989027 
L 415.704857 227.417355 
L 416.284959 228.845684 
L 416.892226 230.274013 
L 417.517227 231.702342 
L 418.150005 233.13067 
L 418.780206 234.558999 
L 419.39723 235.987328 
L 419.990406 237.415657 
L 420.549168 238.843985 
L 421.063254 240.272314 
L 421.522912 241.700643 
L 421.919094 243.128972 
L 422.243663 244.5573 
L 422.489571 245.985629 
L 422.651027 247.413958 
L 422.723636 248.842287 
L 422.704512 250.270615 
L 422.59234 251.698944 
L 422.387421 253.127273 
z
" clip-path="url(#p85c9e5d3db)" style="fill: #1f77b4; fill-opacity: 0.3"/>
   </g>
   <g id="PolyCollection_6">
    <path d="M 496.783642 182.425 
L 460.961812 182.425 
L 460.577363 180.996671 
L 460.313782 179.568343 
L 460.173567 178.140014 
L 460.156364 176.711685 
L 460.25905 175.283356 
L 460.475929 173.855028 
L 460.799017 172.426699 
L 461.218407 170.99837 
L 461.722679 169.570041 
L 462.29935 168.141713 
L 462.935322 166.713384 
L 463.61731 165.285055 
L 464.332239 163.856726 
L 465.067582 162.428398 
L 465.811635 161.000069 
L 466.553724 159.57174 
L 467.284332 158.143411 
L 467.995162 156.715083 
L 468.679143 155.286754 
L 469.330374 153.858425 
L 469.944038 152.430096 
L 470.516287 151.001768 
L 471.044112 149.573439 
L 471.525221 148.14511 
L 471.957921 146.716781 
L 472.341017 145.288453 
L 472.673752 143.860124 
L 472.955753 142.431795 
L 473.187028 141.003466 
L 473.367981 139.575138 
L 473.499444 138.146809 
L 473.582743 136.71848 
L 473.619755 135.290152 
L 473.61298 133.861823 
L 473.565595 132.433494 
L 473.481497 131.005165 
L 473.365316 129.576837 
L 473.222405 128.148508 
L 473.058786 126.720179 
L 472.88106 125.29185 
L 472.696282 123.863522 
L 472.511802 122.435193 
L 472.335074 121.006864 
L 472.173441 119.578535 
L 472.033916 118.150207 
L 471.922957 116.721878 
L 471.846249 115.293549 
L 471.808518 113.86522 
L 471.813368 112.436892 
L 471.863162 111.008563 
L 471.958952 109.580234 
L 472.100461 108.151905 
L 472.286117 106.723577 
L 472.513133 105.295248 
L 472.777645 103.866919 
L 473.07487 102.43859 
L 473.399313 101.010262 
L 473.744974 99.581933 
L 474.105575 98.153604 
L 474.474776 96.725275 
L 474.846377 95.296947 
L 475.2145 93.868618 
L 475.573735 92.440289 
L 475.919257 91.011961 
L 476.246905 89.583632 
L 476.553217 88.155303 
L 476.835443 86.726974 
L 477.091512 85.298646 
L 477.319987 83.870317 
L 477.519995 82.441988 
L 477.691141 81.013659 
L 477.83343 79.585331 
L 477.947173 78.157002 
L 478.032914 76.728673 
L 478.091366 75.300344 
L 478.123356 73.872016 
L 478.129794 72.443687 
L 478.111662 71.015358 
L 478.070013 69.587029 
L 478.005992 68.158701 
L 477.920868 66.730372 
L 477.816073 65.302043 
L 477.693247 63.873714 
L 477.55428 62.445386 
L 477.401347 61.017057 
L 477.236934 59.588728 
L 477.063846 58.160399 
L 476.885197 56.732071 
L 476.704378 55.303742 
L 476.525004 53.875413 
L 476.35084 52.447084 
L 476.185705 51.018756 
L 476.033367 49.590427 
L 475.897428 48.162098 
L 475.781195 46.73377 
L 475.687569 45.305441 
L 475.618937 43.877112 
L 475.577078 42.448783 
L 475.563096 41.020455 
L 482.182359 41.020455 
L 482.182359 41.020455 
L 482.168376 42.448783 
L 482.126517 43.877112 
L 482.057885 45.305441 
L 481.96426 46.73377 
L 481.848027 48.162098 
L 481.712087 49.590427 
L 481.55975 51.018756 
L 481.394615 52.447084 
L 481.22045 53.875413 
L 481.041077 55.303742 
L 480.860258 56.732071 
L 480.681609 58.160399 
L 480.508521 59.588728 
L 480.344108 61.017057 
L 480.191175 62.445386 
L 480.052207 63.873714 
L 479.929381 65.302043 
L 479.824586 66.730372 
L 479.739462 68.158701 
L 479.675441 69.587029 
L 479.633792 71.015358 
L 479.61566 72.443687 
L 479.622099 73.872016 
L 479.654088 75.300344 
L 479.71254 76.728673 
L 479.798282 78.157002 
L 479.912024 79.585331 
L 480.054313 81.013659 
L 480.22546 82.441988 
L 480.425467 83.870317 
L 480.653943 85.298646 
L 480.910012 86.726974 
L 481.192237 88.155303 
L 481.49855 89.583632 
L 481.826197 91.011961 
L 482.17172 92.440289 
L 482.530955 93.868618 
L 482.899077 95.296947 
L 483.270678 96.725275 
L 483.639879 98.153604 
L 484.000481 99.581933 
L 484.346142 101.010262 
L 484.670584 102.43859 
L 484.96781 103.866919 
L 485.232321 105.295248 
L 485.459338 106.723577 
L 485.644993 108.151905 
L 485.786503 109.580234 
L 485.882293 111.008563 
L 485.932086 112.436892 
L 485.936936 113.86522 
L 485.899206 115.293549 
L 485.822498 116.721878 
L 485.711538 118.150207 
L 485.572014 119.578535 
L 485.410381 121.006864 
L 485.233652 122.435193 
L 485.049173 123.863522 
L 484.864395 125.29185 
L 484.686668 126.720179 
L 484.523049 128.148508 
L 484.380139 129.576837 
L 484.263958 131.005165 
L 484.179859 132.433494 
L 484.132474 133.861823 
L 484.125699 135.290152 
L 484.162712 136.71848 
L 484.24601 138.146809 
L 484.377474 139.575138 
L 484.558426 141.003466 
L 484.789702 142.431795 
L 485.071703 143.860124 
L 485.404437 145.288453 
L 485.787534 146.716781 
L 486.220233 148.14511 
L 486.701342 149.573439 
L 487.229168 151.001768 
L 487.801416 152.430096 
L 488.41508 153.858425 
L 489.066311 155.286754 
L 489.750292 156.715083 
L 490.461123 158.143411 
L 491.19173 159.57174 
L 491.933819 161.000069 
L 492.677873 162.428398 
L 493.413216 163.856726 
L 494.128145 165.285055 
L 494.810132 166.713384 
L 495.446104 168.141713 
L 496.022776 169.570041 
L 496.527048 170.99837 
L 496.946437 172.426699 
L 497.269526 173.855028 
L 497.486405 175.283356 
L 497.589091 176.711685 
L 497.571888 178.140014 
L 497.431673 179.568343 
L 497.168091 180.996671 
L 496.783642 182.425 
z
" clip-path="url(#p85c9e5d3db)" style="fill: #1f77b4; fill-opacity: 0.3"/>
   </g>
   <g id="PolyCollection_7">
    <path d="M 568.837429 263.732614 
L 538.638934 263.732614 
L 537.886596 262.104319 
L 537.201498 260.476024 
L 536.594714 258.847729 
L 536.0761 257.219435 
L 535.653985 255.59114 
L 535.334909 253.962845 
L 535.123401 252.33455 
L 535.021818 250.706256 
L 535.030247 249.077961 
L 535.146473 247.449666 
L 535.366014 245.821371 
L 535.68222 244.193076 
L 536.086434 242.564782 
L 536.5682 240.936487 
L 537.115516 239.308192 
L 537.715127 237.679897 
L 538.352829 236.051603 
L 539.013792 234.423308 
L 539.682892 232.795013 
L 540.345024 231.166718 
L 540.985414 229.538424 
L 541.58991 227.910129 
L 542.14525 226.281834 
L 542.639307 224.653539 
L 543.061308 223.025244 
L 543.402032 221.39695 
L 543.653973 219.768655 
L 543.811488 218.14036 
L 543.870912 216.512065 
L 543.830643 214.883771 
L 543.69121 213.255476 
L 543.455294 211.627181 
L 543.127728 209.998886 
L 542.715445 208.370592 
L 542.227389 206.742297 
L 541.674384 205.114002 
L 541.068943 203.485707 
L 540.425032 201.857413 
L 539.757789 200.229118 
L 539.083188 198.600823 
L 538.417667 196.972528 
L 537.777725 195.344233 
L 537.179494 193.715939 
L 536.63831 192.087644 
L 536.168282 190.459349 
L 535.781891 188.831054 
L 535.489626 187.20276 
L 535.299663 185.574465 
L 535.217625 183.94617 
L 535.246407 182.317875 
L 535.386088 180.689581 
L 535.633925 179.061286 
L 535.984444 177.432991 
L 536.429602 175.804696 
L 536.959031 174.176402 
L 537.56034 172.548107 
L 538.219478 170.919812 
L 538.921121 169.291517 
L 539.649092 167.663222 
L 540.38678 166.034928 
L 541.117558 164.406633 
L 541.825175 162.778338 
L 542.49413 161.150043 
L 543.109994 159.521749 
L 543.659708 157.893454 
L 544.131823 156.265159 
L 544.516705 154.636864 
L 544.806692 153.00857 
L 544.996209 151.380275 
L 545.081847 149.75198 
L 545.062406 148.123685 
L 544.938903 146.49539 
L 544.714543 144.867096 
L 544.394666 143.238801 
L 543.986654 141.610506 
L 543.499806 139.982211 
L 542.945183 138.353917 
L 542.335407 136.725622 
L 541.684431 135.097327 
L 541.007267 133.469032 
L 540.319688 131.840738 
L 539.637884 130.212443 
L 538.978112 128.584148 
L 538.356314 126.955853 
L 537.787738 125.327559 
L 537.286564 123.699264 
L 536.865541 122.070969 
L 536.535665 120.442674 
L 536.305897 118.814379 
L 536.182932 117.186085 
L 536.171047 115.55779 
L 536.272008 113.929495 
L 536.485066 112.3012 
L 536.807021 110.672906 
L 537.232373 109.044611 
L 537.753534 107.416316 
L 538.361102 105.788021 
L 539.044188 104.159727 
L 539.790777 102.531432 
L 567.685587 102.531432 
L 567.685587 102.531432 
L 568.432175 104.159727 
L 569.115262 105.788021 
L 569.72283 107.416316 
L 570.24399 109.044611 
L 570.669343 110.672906 
L 570.991298 112.3012 
L 571.204356 113.929495 
L 571.305317 115.55779 
L 571.293432 117.186085 
L 571.170467 118.814379 
L 570.940698 120.442674 
L 570.610822 122.070969 
L 570.1898 123.699264 
L 569.688625 125.327559 
L 569.12005 126.955853 
L 568.498252 128.584148 
L 567.838479 130.212443 
L 567.156676 131.840738 
L 566.469096 133.469032 
L 565.791933 135.097327 
L 565.140957 136.725622 
L 564.53118 138.353917 
L 563.976557 139.982211 
L 563.48971 141.610506 
L 563.081698 143.238801 
L 562.761821 144.867096 
L 562.537461 146.49539 
L 562.413958 148.123685 
L 562.394517 149.75198 
L 562.480155 151.380275 
L 562.669672 153.00857 
L 562.959658 154.636864 
L 563.344541 156.265159 
L 563.816656 157.893454 
L 564.36637 159.521749 
L 564.982234 161.150043 
L 565.651188 162.778338 
L 566.358806 164.406633 
L 567.089583 166.034928 
L 567.827272 167.663222 
L 568.555242 169.291517 
L 569.256886 170.919812 
L 569.916023 172.548107 
L 570.517333 174.176402 
L 571.046762 175.804696 
L 571.49192 177.432991 
L 571.842439 179.061286 
L 572.090276 180.689581 
L 572.229956 182.317875 
L 572.258739 183.94617 
L 572.176701 185.574465 
L 571.986738 187.20276 
L 571.694472 188.831054 
L 571.308082 190.459349 
L 570.838054 192.087644 
L 570.29687 193.715939 
L 569.698639 195.344233 
L 569.058696 196.972528 
L 568.393175 198.600823 
L 567.718574 200.229118 
L 567.051332 201.857413 
L 566.407421 203.485707 
L 565.801979 205.114002 
L 565.248974 206.742297 
L 564.760919 208.370592 
L 564.348635 209.998886 
L 564.021069 211.627181 
L 563.785154 213.255476 
L 563.645721 214.883771 
L 563.605452 216.512065 
L 563.664875 218.14036 
L 563.822391 219.768655 
L 564.074332 221.39695 
L 564.415056 223.025244 
L 564.837057 224.653539 
L 565.331113 226.281834 
L 565.886453 227.910129 
L 566.490949 229.538424 
L 567.13134 231.166718 
L 567.793471 232.795013 
L 568.462571 234.423308 
L 569.123535 236.051603 
L 569.761236 237.679897 
L 570.360847 239.308192 
L 570.908164 240.936487 
L 571.389929 242.564782 
L 571.794143 244.193076 
L 572.11035 245.821371 
L 572.32989 247.449666 
L 572.446116 249.077961 
L 572.454545 250.706256 
L 572.352963 252.33455 
L 572.141455 253.962845 
L 571.822379 255.59114 
L 571.400264 257.219435 
L 570.881649 258.847729 
L 570.274866 260.476024 
L 569.589768 262.104319 
L 568.837429 263.732614 
z
" clip-path="url(#p85c9e5d3db)" style="fill: #1f77b4; fill-opacity: 0.3"/>
   </g>
   <g id="PolyCollection_8">
    <path d="M 633.927827 254.541318 
L 623.279446 254.541318 
L 622.844785 253.705746 
L 622.420837 252.870174 
L 622.014684 252.034601 
L 621.633396 251.199029 
L 621.283794 250.363457 
L 620.972213 249.527884 
L 620.704259 248.692312 
L 620.484595 247.85674 
L 620.316748 247.021167 
L 620.202959 246.185595 
L 620.14408 245.350023 
L 620.139524 244.51445 
L 620.18727 243.678878 
L 620.283933 242.843306 
L 620.424883 242.007733 
L 620.604413 241.172161 
L 620.815954 240.336589 
L 621.052315 239.501017 
L 621.305937 238.665444 
L 621.569167 237.829872 
L 621.834505 236.9943 
L 622.094845 236.158727 
L 622.34368 235.323155 
L 622.575266 234.487583 
L 622.784749 233.65201 
L 622.968231 232.816438 
L 623.122801 231.980866 
L 623.246513 231.145293 
L 623.338319 230.309721 
L 623.397978 229.474149 
L 623.425928 228.638576 
L 623.423148 227.803004 
L 623.391011 226.967432 
L 623.33114 226.13186 
L 623.245273 225.296287 
L 623.135148 224.460715 
L 623.002412 223.625143 
L 622.848558 222.78957 
L 622.674894 221.953998 
L 622.48254 221.118426 
L 622.272451 220.282853 
L 622.045475 219.447281 
L 621.802416 218.611709 
L 621.544119 217.776136 
L 621.27156 216.940564 
L 620.985929 216.104992 
L 620.688708 215.269419 
L 620.381726 214.433847 
L 620.0672 213.598275 
L 619.74773 212.762702 
L 619.426278 211.92713 
L 619.106101 211.091558 
L 618.790649 210.255986 
L 618.483437 209.420413 
L 618.187876 208.584841 
L 617.907099 207.749269 
L 617.64376 206.913696 
L 617.39984 206.078124 
L 617.176465 205.242552 
L 616.973747 204.406979 
L 616.790666 203.571407 
L 616.625001 202.735835 
L 616.473326 201.900262 
L 616.33108 201.06469 
L 616.192705 200.229118 
L 616.051866 199.393545 
L 615.901743 198.557973 
L 615.735376 197.722401 
L 615.546073 196.886829 
L 615.327825 196.051256 
L 615.075745 195.215684 
L 614.786471 194.380112 
L 614.458535 193.544539 
L 614.092648 192.708967 
L 613.6919 191.873395 
L 613.261841 191.037822 
L 612.810443 190.20225 
L 612.347919 189.366678 
L 611.886435 188.531105 
L 611.439683 187.695533 
L 611.022375 186.859961 
L 610.649652 186.024388 
L 610.336455 185.188816 
L 610.09689 184.353244 
L 609.943612 183.517671 
L 609.887273 182.682099 
L 609.936058 181.846527 
L 610.095332 181.010955 
L 610.367419 180.175382 
L 610.751517 179.33981 
L 611.243759 178.504238 
L 611.837396 177.668665 
L 612.523113 176.833093 
L 613.289424 175.997521 
L 614.123156 175.161948 
L 615.009966 174.326376 
L 615.934878 173.490804 
L 616.882808 172.655231 
L 617.839057 171.819659 
L 639.368216 171.819659 
L 639.368216 171.819659 
L 640.324465 172.655231 
L 641.272395 173.490804 
L 642.197307 174.326376 
L 643.084117 175.161948 
L 643.917849 175.997521 
L 644.68416 176.833093 
L 645.369877 177.668665 
L 645.963514 178.504238 
L 646.455755 179.33981 
L 646.839854 180.175382 
L 647.111941 181.010955 
L 647.271215 181.846527 
L 647.32 182.682099 
L 647.263661 183.517671 
L 647.110383 184.353244 
L 646.870818 185.188816 
L 646.557621 186.024388 
L 646.184898 186.859961 
L 645.76759 187.695533 
L 645.320838 188.531105 
L 644.859353 189.366678 
L 644.39683 190.20225 
L 643.945431 191.037822 
L 643.515373 191.873395 
L 643.114625 192.708967 
L 642.748738 193.544539 
L 642.420802 194.380112 
L 642.131528 195.215684 
L 641.879448 196.051256 
L 641.6612 196.886829 
L 641.471896 197.722401 
L 641.30553 198.557973 
L 641.155406 199.393545 
L 641.014568 200.229118 
L 640.876192 201.06469 
L 640.733946 201.900262 
L 640.582272 202.735835 
L 640.416607 203.571407 
L 640.233526 204.406979 
L 640.030808 205.242552 
L 639.807433 206.078124 
L 639.563513 206.913696 
L 639.300174 207.749269 
L 639.019397 208.584841 
L 638.723836 209.420413 
L 638.416624 210.255986 
L 638.101172 211.091558 
L 637.780995 211.92713 
L 637.459543 212.762702 
L 637.140073 213.598275 
L 636.825546 214.433847 
L 636.518565 215.269419 
L 636.221343 216.104992 
L 635.935712 216.940564 
L 635.663153 217.776136 
L 635.404857 218.611709 
L 635.161797 219.447281 
L 634.934821 220.282853 
L 634.724733 221.118426 
L 634.532378 221.953998 
L 634.358714 222.78957 
L 634.204861 223.625143 
L 634.072124 224.460715 
L 633.961999 225.296287 
L 633.876133 226.13186 
L 633.816262 226.967432 
L 633.784125 227.803004 
L 633.781345 228.638576 
L 633.809295 229.474149 
L 633.868953 230.309721 
L 633.96076 231.145293 
L 634.084472 231.980866 
L 634.239042 232.816438 
L 634.422524 233.65201 
L 634.632006 234.487583 
L 634.863593 235.323155 
L 635.112427 236.158727 
L 635.372768 236.9943 
L 635.638106 237.829872 
L 635.901336 238.665444 
L 636.154958 239.501017 
L 636.391318 240.336589 
L 636.60286 241.172161 
L 636.78239 242.007733 
L 636.923339 242.843306 
L 637.020003 243.678878 
L 637.067749 244.51445 
L 637.063192 245.350023 
L 637.004314 246.185595 
L 636.890525 247.021167 
L 636.722678 247.85674 
L 636.503013 248.692312 
L 636.235059 249.527884 
L 635.923478 250.363457 
L 635.573877 251.199029 
L 635.192589 252.034601 
L 634.786435 252.870174 
L 634.362487 253.705746 
L 633.927827 254.541318 
z
" clip-path="url(#p85c9e5d3db)" style="fill: #1f77b4; fill-opacity: 0.3"/>
   </g>
   <g id="PolyCollection_9">
    <path d="M 708.010347 258.783455 
L 698.927835 258.783455 
L 698.446298 257.912174 
L 697.955133 257.040893 
L 697.461239 256.169613 
L 696.972222 255.298332 
L 696.496203 254.427052 
L 696.041584 253.555771 
L 695.616784 252.684491 
L 695.229954 251.81321 
L 694.888682 250.94193 
L 694.599708 250.070649 
L 694.368656 249.199369 
L 694.199808 248.328088 
L 694.095917 247.456808 
L 694.058093 246.585527 
L 694.08574 245.714247 
L 694.176572 244.842966 
L 694.326696 243.971685 
L 694.530761 243.100405 
L 694.782154 242.229124 
L 695.073256 241.357844 
L 695.395717 240.486563 
L 695.740753 239.615283 
L 696.09944 238.744002 
L 696.463004 237.872722 
L 696.82307 237.001441 
L 697.171891 236.130161 
L 697.502522 235.25888 
L 697.808947 234.3876 
L 698.086161 233.516319 
L 698.3302 232.645039 
L 698.538127 231.773758 
L 698.707981 230.902478 
L 698.8387 230.031197 
L 698.930011 229.159916 
L 698.98232 228.288636 
L 698.996589 227.417355 
L 698.974216 226.546075 
L 698.916924 225.674794 
L 698.826661 224.803514 
L 698.705521 223.932233 
L 698.555672 223.060953 
L 698.379311 222.189672 
L 698.178635 221.318392 
L 697.955819 220.447111 
L 697.713019 219.575831 
L 697.452376 218.70455 
L 697.176024 217.83327 
L 696.886114 216.961989 
L 696.584818 216.090708 
L 696.274346 215.219428 
L 695.956945 214.348147 
L 695.634886 213.476867 
L 695.310448 212.605586 
L 694.985876 211.734306 
L 694.663334 210.863025 
L 694.344836 209.991745 
L 694.032168 209.120464 
L 693.726804 208.249184 
L 693.429812 207.377903 
L 693.141766 206.506623 
L 692.862662 205.635342 
L 692.591863 204.764062 
L 692.328051 203.892781 
L 692.069228 203.0215 
L 691.812752 202.15022 
L 691.555411 201.278939 
L 691.293558 200.407659 
L 691.023285 199.536378 
L 690.740644 198.665098 
L 690.441903 197.793817 
L 690.123829 196.922537 
L 689.783986 196.051256 
L 689.421018 195.179976 
L 689.034916 194.308695 
L 688.627235 193.437415 
L 688.201255 192.566134 
L 687.762059 191.694854 
L 687.316523 190.823573 
L 686.87321 189.952292 
L 686.442161 189.081012 
L 686.0346 188.209731 
L 685.662552 187.338451 
L 685.338391 186.46717 
L 685.074356 185.59589 
L 684.882038 184.724609 
L 684.771883 183.853329 
L 684.752727 182.982048 
L 684.831396 182.110768 
L 685.012386 181.239487 
L 685.29765 180.368207 
L 685.686487 179.496926 
L 686.175554 178.625646 
L 686.758989 177.754365 
L 687.428631 176.883084 
L 688.174344 176.011804 
L 688.984392 175.140523 
L 689.845881 174.269243 
L 690.74521 173.397962 
L 691.668538 172.526682 
L 715.269644 172.526682 
L 715.269644 172.526682 
L 716.192972 173.397962 
L 717.092301 174.269243 
L 717.95379 175.140523 
L 718.763838 176.011804 
L 719.50955 176.883084 
L 720.179193 177.754365 
L 720.762627 178.625646 
L 721.251695 179.496926 
L 721.640532 180.368207 
L 721.925796 181.239487 
L 722.106786 182.110768 
L 722.185455 182.982048 
L 722.166298 183.853329 
L 722.056143 184.724609 
L 721.863826 185.59589 
L 721.599791 186.46717 
L 721.27563 187.338451 
L 720.903581 188.209731 
L 720.496021 189.081012 
L 720.064972 189.952292 
L 719.621658 190.823573 
L 719.176123 191.694854 
L 718.736927 192.566134 
L 718.310947 193.437415 
L 717.903266 194.308695 
L 717.517164 195.179976 
L 717.154196 196.051256 
L 716.814353 196.922537 
L 716.496279 197.793817 
L 716.197538 198.665098 
L 715.914897 199.536378 
L 715.644624 200.407659 
L 715.382771 201.278939 
L 715.12543 202.15022 
L 714.868954 203.0215 
L 714.610131 203.892781 
L 714.346319 204.764062 
L 714.07552 205.635342 
L 713.796416 206.506623 
L 713.508369 207.377903 
L 713.211377 208.249184 
L 712.906014 209.120464 
L 712.593346 209.991745 
L 712.274848 210.863025 
L 711.952306 211.734306 
L 711.627734 212.605586 
L 711.303296 213.476867 
L 710.981237 214.348147 
L 710.663836 215.219428 
L 710.353364 216.090708 
L 710.052068 216.961989 
L 709.762158 217.83327 
L 709.485806 218.70455 
L 709.225162 219.575831 
L 708.982363 220.447111 
L 708.759547 221.318392 
L 708.55887 222.189672 
L 708.38251 223.060953 
L 708.232661 223.932233 
L 708.11152 224.803514 
L 708.021258 225.674794 
L 707.963966 226.546075 
L 707.941593 227.417355 
L 707.955862 228.288636 
L 708.008171 229.159916 
L 708.099482 230.031197 
L 708.2302 230.902478 
L 708.400055 231.773758 
L 708.607982 232.645039 
L 708.852021 233.516319 
L 709.129235 234.3876 
L 709.43566 235.25888 
L 709.766291 236.130161 
L 710.115112 237.001441 
L 710.475178 237.872722 
L 710.838742 238.744002 
L 711.197429 239.615283 
L 711.542465 240.486563 
L 711.864926 241.357844 
L 712.156028 242.229124 
L 712.407421 243.100405 
L 712.611485 243.971685 
L 712.76161 244.842966 
L 712.852442 245.714247 
L 712.880089 246.585527 
L 712.842265 247.456808 
L 712.738374 248.328088 
L 712.569525 249.199369 
L 712.338474 250.070649 
L 712.049499 250.94193 
L 711.708228 251.81321 
L 711.321398 252.684491 
L 710.896598 253.555771 
L 710.441979 254.427052 
L 709.96596 255.298332 
L 709.476943 256.169613 
L 708.983048 257.040893 
L 708.491883 257.912174 
L 708.010347 258.783455 
z
" clip-path="url(#p85c9e5d3db)" style="fill: #1f77b4; fill-opacity: 0.3"/>
   </g>
   <g id="PolyCollection_10">
    <path d="M 787.787344 323.829545 
L 768.881747 323.829545 
L 768.833999 322.401217 
L 768.833389 320.972888 
L 768.879543 319.544559 
L 768.971306 318.11623 
L 769.106755 316.687902 
L 769.283233 315.259573 
L 769.497402 313.831244 
L 769.745313 312.402916 
L 770.022483 310.974587 
L 770.323987 309.546258 
L 770.644555 308.117929 
L 770.978679 306.689601 
L 771.320715 305.261272 
L 771.664988 303.832943 
L 772.005893 302.404614 
L 772.337991 300.976286 
L 772.656098 299.547957 
L 772.955364 298.119628 
L 773.23134 296.691299 
L 773.480044 295.262971 
L 773.698003 293.834642 
L 773.8823 292.406313 
L 774.030594 290.977984 
L 774.141147 289.549656 
L 774.212833 288.121327 
L 774.245138 286.692998 
L 774.238159 285.264669 
L 774.192589 283.836341 
L 774.109705 282.408012 
L 773.991338 280.979683 
L 773.839844 279.551354 
L 773.658075 278.123026 
L 773.449326 276.694697 
L 773.217299 275.266368 
L 772.966042 273.838039 
L 772.699892 272.409711 
L 772.42341 270.981382 
L 772.141311 269.553053 
L 771.858388 268.124725 
L 771.579432 266.696396 
L 771.309152 265.268067 
L 771.05209 263.839738 
L 770.812535 262.41141 
L 770.594445 260.983081 
L 770.401366 259.554752 
L 770.236357 258.126423 
L 770.101926 256.698095 
L 769.999973 255.269766 
L 769.931742 253.841437 
L 769.897784 252.413108 
L 769.897938 250.98478 
L 769.931323 249.556451 
L 769.996337 248.128122 
L 770.090681 246.699793 
L 770.21139 245.271465 
L 770.354876 243.843136 
L 770.516984 242.414807 
L 770.693059 240.986478 
L 770.878019 239.55815 
L 771.06644 238.129821 
L 771.252642 236.701492 
L 771.430779 235.273163 
L 771.594941 233.844835 
L 771.739242 232.416506 
L 771.857925 230.988177 
L 771.945454 229.559848 
L 771.996611 228.13152 
L 772.00659 226.703191 
L 771.971086 225.274862 
L 771.88638 223.846534 
L 771.749426 222.418205 
L 771.55792 220.989876 
L 771.310375 219.561547 
L 771.006178 218.133219 
L 770.645644 216.70489 
L 770.230055 215.276561 
L 769.761687 213.848232 
L 769.243823 212.419904 
L 768.680744 210.991575 
L 768.077713 209.563246 
L 767.440924 208.134917 
L 766.777443 206.706589 
L 766.095123 205.27826 
L 765.402494 203.849931 
L 764.708636 202.421602 
L 764.023036 200.993274 
L 763.355425 199.564945 
L 762.715597 198.136616 
L 762.113231 196.708287 
L 761.557694 195.279959 
L 761.057854 193.85163 
L 760.621894 192.423301 
L 760.257136 190.994972 
L 759.969883 189.566644 
L 759.76528 188.138315 
L 759.647205 186.709986 
L 759.618182 185.281657 
L 759.67933 183.853329 
L 759.830348 182.425 
L 796.838743 182.425 
L 796.838743 182.425 
L 796.989761 183.853329 
L 797.050909 185.281657 
L 797.021886 186.709986 
L 796.903811 188.138315 
L 796.699208 189.566644 
L 796.411955 190.994972 
L 796.047197 192.423301 
L 795.611237 193.85163 
L 795.111397 195.279959 
L 794.55586 196.708287 
L 793.953494 198.136616 
L 793.313666 199.564945 
L 792.646055 200.993274 
L 791.960455 202.421602 
L 791.266597 203.849931 
L 790.573968 205.27826 
L 789.891648 206.706589 
L 789.228167 208.134917 
L 788.591378 209.563246 
L 787.988347 210.991575 
L 787.425268 212.419904 
L 786.907404 213.848232 
L 786.439036 215.276561 
L 786.023447 216.70489 
L 785.662913 218.133219 
L 785.358716 219.561547 
L 785.111171 220.989876 
L 784.919665 222.418205 
L 784.782711 223.846534 
L 784.698005 225.274862 
L 784.662501 226.703191 
L 784.67248 228.13152 
L 784.723637 229.559848 
L 784.811166 230.988177 
L 784.929849 232.416506 
L 785.07415 233.844835 
L 785.238312 235.273163 
L 785.416449 236.701492 
L 785.602651 238.129821 
L 785.791072 239.55815 
L 785.976032 240.986478 
L 786.152107 242.414807 
L 786.314215 243.843136 
L 786.457701 245.271465 
L 786.57841 246.699793 
L 786.672754 248.128122 
L 786.737768 249.556451 
L 786.771153 250.98478 
L 786.771307 252.413108 
L 786.737349 253.841437 
L 786.669118 255.269766 
L 786.567165 256.698095 
L 786.432734 258.126423 
L 786.267725 259.554752 
L 786.074646 260.983081 
L 785.856556 262.41141 
L 785.617001 263.839738 
L 785.359939 265.268067 
L 785.089659 266.696396 
L 784.810703 268.124725 
L 784.52778 269.553053 
L 784.245681 270.981382 
L 783.969199 272.409711 
L 783.703049 273.838039 
L 783.451792 275.266368 
L 783.219765 276.694697 
L 783.011016 278.123026 
L 782.829246 279.551354 
L 782.677753 280.979683 
L 782.559386 282.408012 
L 782.476502 283.836341 
L 782.430932 285.264669 
L 782.423953 286.692998 
L 782.456258 288.121327 
L 782.527944 289.549656 
L 782.638497 290.977984 
L 782.786791 292.406313 
L 782.971088 293.834642 
L 783.189047 295.262971 
L 783.437751 296.691299 
L 783.713727 298.119628 
L 784.012992 299.547957 
L 784.3311 300.976286 
L 784.663198 302.404614 
L 785.004103 303.832943 
L 785.348376 305.261272 
L 785.690411 306.689601 
L 786.024536 308.117929 
L 786.345104 309.546258 
L 786.646608 310.974587 
L 786.923778 312.402916 
L 787.171689 313.831244 
L 787.385858 315.259573 
L 787.562336 316.687902 
L 787.697785 318.11623 
L 787.789548 319.544559 
L 787.835702 320.972888 
L 787.835092 322.401217 
L 787.787344 323.829545 
z
" clip-path="url(#p85c9e5d3db)" style="fill: #1f77b4; fill-opacity: 0.3"/>
   </g>
   <g id="matplotlib.axis_1">
    <g id="xtick_1">
     <g id="line2d_1">
      <defs>
       <path id="mc86b1f8ec0" d="M 0 0 
L 0 3.5 
" style="stroke: #000000; stroke-width: 0.8"/>
      </defs>
      <g>
       <use xlink:href="#mc86b1f8ec0" x="104.545455" y="337.97" style="stroke: #000000; stroke-width: 0.8"/>
      </g>
     </g>
     <g id="text_1">
      <!-- Tit For Tat -->
      <g transform="translate(106.752955 384.15)rotate(-90)scale(0.08 -0.08)">
       <defs>
        <path id="DejaVuSans-54" d="M -19 4666 
L 3928 4666 
L 3928 4134 
L 2272 4134 
L 2272 0 
L 1638 0 
L 1638 4134 
L -19 4134 
L -19 4666 
z
" transform="scale(0.015625)"/>
        <path id="DejaVuSans-69" d="M 603 3500 
L 1178 3500 
L 1178 0 
L 603 0 
L 603 3500 
z
M 603 4863 
L 1178 4863 
L 1178 4134 
L 603 4134 
L 603 4863 
z
" transform="scale(0.015625)"/>
        <path id="DejaVuSans-74" d="M 1172 4494 
L 1172 3500 
L 2356 3500 
L 2356 3053 
L 1172 3053 
L 1172 1153 
Q 1172 725 1289 603 
Q 1406 481 1766 481 
L 2356 481 
L 2356 0 
L 1766 0 
Q 1100 0 847 248 
Q 594 497 594 1153 
L 594 3053 
L 172 3053 
L 172 3500 
L 594 3500 
L 594 4494 
L 1172 4494 
z
" transform="scale(0.015625)"/>
        <path id="DejaVuSans-20" transform="scale(0.015625)"/>
        <path id="DejaVuSans-46" d="M 628 4666 
L 3309 4666 
L 3309 4134 
L 1259 4134 
L 1259 2759 
L 3109 2759 
L 3109 2228 
L 1259 2228 
L 1259 0 
L 628 0 
L 628 4666 
z
" transform="scale(0.015625)"/>
        <path id="DejaVuSans-6f" d="M 1959 3097 
Q 1497 3097 1228 2736 
Q 959 2375 959 1747 
Q 959 1119 1226 758 
Q 1494 397 1959 397 
Q 2419 397 2687 759 
Q 2956 1122 2956 1747 
Q 2956 2369 2687 2733 
Q 2419 3097 1959 3097 
z
M 1959 3584 
Q 2709 3584 3137 3096 
Q 3566 2609 3566 1747 
Q 3566 888 3137 398 
Q 2709 -91 1959 -91 
Q 1206 -91 779 398 
Q 353 888 353 1747 
Q 353 2609 779 3096 
Q 1206 3584 1959 3584 
z
" transform="scale(0.015625)"/>
        <path id="DejaVuSans-72" d="M 2631 2963 
Q 2534 3019 2420 3045 
Q 2306 3072 2169 3072 
Q 1681 3072 1420 2755 
Q 1159 2438 1159 1844 
L 1159 0 
L 581 0 
L 581 3500 
L 1159 3500 
L 1159 2956 
Q 1341 3275 1631 3429 
Q 1922 3584 2338 3584 
Q 2397 3584 2469 3576 
Q 2541 3569 2628 3553 
L 2631 2963 
z
" transform="scale(0.015625)"/>
        <path id="DejaVuSans-61" d="M 2194 1759 
Q 1497 1759 1228 1600 
Q 959 1441 959 1056 
Q 959 750 1161 570 
Q 1363 391 1709 391 
Q 2188 391 2477 730 
Q 2766 1069 2766 1631 
L 2766 1759 
L 2194 1759 
z
M 3341 1997 
L 3341 0 
L 2766 0 
L 2766 531 
Q 2569 213 2275 61 
Q 1981 -91 1556 -91 
Q 1019 -91 701 211 
Q 384 513 384 1019 
Q 384 1609 779 1909 
Q 1175 2209 1959 2209 
L 2766 2209 
L 2766 2266 
Q 2766 2663 2505 2880 
Q 2244 3097 1772 3097 
Q 1472 3097 1187 3025 
Q 903 2953 641 2809 
L 641 3341 
Q 956 3463 1253 3523 
Q 1550 3584 1831 3584 
Q 2591 3584 2966 3190 
Q 3341 2797 3341 1997 
z
" transform="scale(0.015625)"/>
       </defs>
       <use xlink:href="#DejaVuSans-54"/>
       <use xlink:href="#DejaVuSans-69" x="57.958984"/>
       <use xlink:href="#DejaVuSans-74" x="85.742188"/>
       <use xlink:href="#DejaVuSans-20" x="124.951172"/>
       <use xlink:href="#DejaVuSans-46" x="156.738281"/>
       <use xlink:href="#DejaVuSans-6f" x="210.632812"/>
       <use xlink:href="#DejaVuSans-72" x="271.814453"/>
       <use xlink:href="#DejaVuSans-20" x="312.927734"/>
       <use xlink:href="#DejaVuSans-54" x="344.714844"/>
       <use xlink:href="#DejaVuSans-61" x="389.298828"/>
       <use xlink:href="#DejaVuSans-74" x="450.578125"/>
      </g>
     </g>
    </g>
    <g id="xtick_2">
     <g id="line2d_2">
      <g>
       <use xlink:href="#mc86b1f8ec0" x="179.410909" y="337.97" style="stroke: #000000; stroke-width: 0.8"/>
      </g>
     </g>
     <g id="text_2">
      <!-- Grudger -->
      <g transform="translate(181.618409 377.89625)rotate(-90)scale(0.08 -0.08)">
       <defs>
        <path id="DejaVuSans-47" d="M 3809 666 
L 3809 1919 
L 2778 1919 
L 2778 2438 
L 4434 2438 
L 4434 434 
Q 4069 175 3628 42 
Q 3188 -91 2688 -91 
Q 1594 -91 976 548 
Q 359 1188 359 2328 
Q 359 3472 976 4111 
Q 1594 4750 2688 4750 
Q 3144 4750 3555 4637 
Q 3966 4525 4313 4306 
L 4313 3634 
Q 3963 3931 3569 4081 
Q 3175 4231 2741 4231 
Q 1884 4231 1454 3753 
Q 1025 3275 1025 2328 
Q 1025 1384 1454 906 
Q 1884 428 2741 428 
Q 3075 428 3337 486 
Q 3600 544 3809 666 
z
" transform="scale(0.015625)"/>
        <path id="DejaVuSans-75" d="M 544 1381 
L 544 3500 
L 1119 3500 
L 1119 1403 
Q 1119 906 1312 657 
Q 1506 409 1894 409 
Q 2359 409 2629 706 
Q 2900 1003 2900 1516 
L 2900 3500 
L 3475 3500 
L 3475 0 
L 2900 0 
L 2900 538 
Q 2691 219 2414 64 
Q 2138 -91 1772 -91 
Q 1169 -91 856 284 
Q 544 659 544 1381 
z
M 1991 3584 
L 1991 3584 
z
" transform="scale(0.015625)"/>
        <path id="DejaVuSans-64" d="M 2906 2969 
L 2906 4863 
L 3481 4863 
L 3481 0 
L 2906 0 
L 2906 525 
Q 2725 213 2448 61 
Q 2172 -91 1784 -91 
Q 1150 -91 751 415 
Q 353 922 353 1747 
Q 353 2572 751 3078 
Q 1150 3584 1784 3584 
Q 2172 3584 2448 3432 
Q 2725 3281 2906 2969 
z
M 947 1747 
Q 947 1113 1208 752 
Q 1469 391 1925 391 
Q 2381 391 2643 752 
Q 2906 1113 2906 1747 
Q 2906 2381 2643 2742 
Q 2381 3103 1925 3103 
Q 1469 3103 1208 2742 
Q 947 2381 947 1747 
z
" transform="scale(0.015625)"/>
        <path id="DejaVuSans-67" d="M 2906 1791 
Q 2906 2416 2648 2759 
Q 2391 3103 1925 3103 
Q 1463 3103 1205 2759 
Q 947 2416 947 1791 
Q 947 1169 1205 825 
Q 1463 481 1925 481 
Q 2391 481 2648 825 
Q 2906 1169 2906 1791 
z
M 3481 434 
Q 3481 -459 3084 -895 
Q 2688 -1331 1869 -1331 
Q 1566 -1331 1297 -1286 
Q 1028 -1241 775 -1147 
L 775 -588 
Q 1028 -725 1275 -790 
Q 1522 -856 1778 -856 
Q 2344 -856 2625 -561 
Q 2906 -266 2906 331 
L 2906 616 
Q 2728 306 2450 153 
Q 2172 0 1784 0 
Q 1141 0 747 490 
Q 353 981 353 1791 
Q 353 2603 747 3093 
Q 1141 3584 1784 3584 
Q 2172 3584 2450 3431 
Q 2728 3278 2906 2969 
L 2906 3500 
L 3481 3500 
L 3481 434 
z
" transform="scale(0.015625)"/>
        <path id="DejaVuSans-65" d="M 3597 1894 
L 3597 1613 
L 953 1613 
Q 991 1019 1311 708 
Q 1631 397 2203 397 
Q 2534 397 2845 478 
Q 3156 559 3463 722 
L 3463 178 
Q 3153 47 2828 -22 
Q 2503 -91 2169 -91 
Q 1331 -91 842 396 
Q 353 884 353 1716 
Q 353 2575 817 3079 
Q 1281 3584 2069 3584 
Q 2775 3584 3186 3129 
Q 3597 2675 3597 1894 
z
M 3022 2063 
Q 3016 2534 2758 2815 
Q 2500 3097 2075 3097 
Q 1594 3097 1305 2825 
Q 1016 2553 972 2059 
L 3022 2063 
z
" transform="scale(0.015625)"/>
       </defs>
       <use xlink:href="#DejaVuSans-47"/>
       <use xlink:href="#DejaVuSans-72" x="77.490234"/>
       <use xlink:href="#DejaVuSans-75" x="118.603516"/>
       <use xlink:href="#DejaVuSans-64" x="181.982422"/>
       <use xlink:href="#DejaVuSans-67" x="245.458984"/>
       <use xlink:href="#DejaVuSans-65" x="308.935547"/>
       <use xlink:href="#DejaVuSans-72" x="370.458984"/>
      </g>
     </g>
    </g>
    <g id="xtick_3">
     <g id="line2d_3">
      <g>
       <use xlink:href="#mc86b1f8ec0" x="254.276364" y="337.97" style="stroke: #000000; stroke-width: 0.8"/>
      </g>
     </g>
     <g id="text_3">
      <!-- Deep QLearner -->
      <g transform="translate(256.483864 405.46625)rotate(-90)scale(0.08 -0.08)">
       <defs>
        <path id="DejaVuSans-44" d="M 1259 4147 
L 1259 519 
L 2022 519 
Q 2988 519 3436 956 
Q 3884 1394 3884 2338 
Q 3884 3275 3436 3711 
Q 2988 4147 2022 4147 
L 1259 4147 
z
M 628 4666 
L 1925 4666 
Q 3281 4666 3915 4102 
Q 4550 3538 4550 2338 
Q 4550 1131 3912 565 
Q 3275 0 1925 0 
L 628 0 
L 628 4666 
z
" transform="scale(0.015625)"/>
        <path id="DejaVuSans-70" d="M 1159 525 
L 1159 -1331 
L 581 -1331 
L 581 3500 
L 1159 3500 
L 1159 2969 
Q 1341 3281 1617 3432 
Q 1894 3584 2278 3584 
Q 2916 3584 3314 3078 
Q 3713 2572 3713 1747 
Q 3713 922 3314 415 
Q 2916 -91 2278 -91 
Q 1894 -91 1617 61 
Q 1341 213 1159 525 
z
M 3116 1747 
Q 3116 2381 2855 2742 
Q 2594 3103 2138 3103 
Q 1681 3103 1420 2742 
Q 1159 2381 1159 1747 
Q 1159 1113 1420 752 
Q 1681 391 2138 391 
Q 2594 391 2855 752 
Q 3116 1113 3116 1747 
z
" transform="scale(0.015625)"/>
        <path id="DejaVuSans-51" d="M 2522 4238 
Q 1834 4238 1429 3725 
Q 1025 3213 1025 2328 
Q 1025 1447 1429 934 
Q 1834 422 2522 422 
Q 3209 422 3611 934 
Q 4013 1447 4013 2328 
Q 4013 3213 3611 3725 
Q 3209 4238 2522 4238 
z
M 3406 84 
L 4238 -825 
L 3475 -825 
L 2784 -78 
Q 2681 -84 2626 -87 
Q 2572 -91 2522 -91 
Q 1538 -91 948 567 
Q 359 1225 359 2328 
Q 359 3434 948 4092 
Q 1538 4750 2522 4750 
Q 3503 4750 4090 4092 
Q 4678 3434 4678 2328 
Q 4678 1516 4351 937 
Q 4025 359 3406 84 
z
" transform="scale(0.015625)"/>
        <path id="DejaVuSans-4c" d="M 628 4666 
L 1259 4666 
L 1259 531 
L 3531 531 
L 3531 0 
L 628 0 
L 628 4666 
z
" transform="scale(0.015625)"/>
        <path id="DejaVuSans-6e" d="M 3513 2113 
L 3513 0 
L 2938 0 
L 2938 2094 
Q 2938 2591 2744 2837 
Q 2550 3084 2163 3084 
Q 1697 3084 1428 2787 
Q 1159 2491 1159 1978 
L 1159 0 
L 581 0 
L 581 3500 
L 1159 3500 
L 1159 2956 
Q 1366 3272 1645 3428 
Q 1925 3584 2291 3584 
Q 2894 3584 3203 3211 
Q 3513 2838 3513 2113 
z
" transform="scale(0.015625)"/>
       </defs>
       <use xlink:href="#DejaVuSans-44"/>
       <use xlink:href="#DejaVuSans-65" x="77.001953"/>
       <use xlink:href="#DejaVuSans-65" x="138.525391"/>
       <use xlink:href="#DejaVuSans-70" x="200.048828"/>
       <use xlink:href="#DejaVuSans-20" x="263.525391"/>
       <use xlink:href="#DejaVuSans-51" x="295.3125"/>
       <use xlink:href="#DejaVuSans-4c" x="374.023438"/>
       <use xlink:href="#DejaVuSans-65" x="427.986328"/>
       <use xlink:href="#DejaVuSans-61" x="489.509766"/>
       <use xlink:href="#DejaVuSans-72" x="550.789062"/>
       <use xlink:href="#DejaVuSans-6e" x="590.152344"/>
       <use xlink:href="#DejaVuSans-65" x="653.53125"/>
       <use xlink:href="#DejaVuSans-72" x="715.054688"/>
      </g>
     </g>
    </g>
    <g id="xtick_4">
     <g id="line2d_4">
      <g>
       <use xlink:href="#mc86b1f8ec0" x="329.141818" y="337.97" style="stroke: #000000; stroke-width: 0.8"/>
      </g>
     </g>
     <g id="text_4">
      <!-- Adaptive -->
      <g transform="translate(331.349318 380.37875)rotate(-90)scale(0.08 -0.08)">
       <defs>
        <path id="DejaVuSans-41" d="M 2188 4044 
L 1331 1722 
L 3047 1722 
L 2188 4044 
z
M 1831 4666 
L 2547 4666 
L 4325 0 
L 3669 0 
L 3244 1197 
L 1141 1197 
L 716 0 
L 50 0 
L 1831 4666 
z
" transform="scale(0.015625)"/>
        <path id="DejaVuSans-76" d="M 191 3500 
L 800 3500 
L 1894 563 
L 2988 3500 
L 3597 3500 
L 2284 0 
L 1503 0 
L 191 3500 
z
" transform="scale(0.015625)"/>
       </defs>
       <use xlink:href="#DejaVuSans-41"/>
       <use xlink:href="#DejaVuSans-64" x="66.658203"/>
       <use xlink:href="#DejaVuSans-61" x="130.134766"/>
       <use xlink:href="#DejaVuSans-70" x="191.414062"/>
       <use xlink:href="#DejaVuSans-74" x="254.890625"/>
       <use xlink:href="#DejaVuSans-69" x="294.099609"/>
       <use xlink:href="#DejaVuSans-76" x="321.882812"/>
       <use xlink:href="#DejaVuSans-65" x="381.0625"/>
      </g>
     </g>
    </g>
    <g id="xtick_5">
     <g id="line2d_5">
      <g>
       <use xlink:href="#mc86b1f8ec0" x="404.007273" y="337.97" style="stroke: #000000; stroke-width: 0.8"/>
      </g>
     </g>
     <g id="text_5">
      <!-- Alternator -->
      <g transform="translate(406.214773 385.165)rotate(-90)scale(0.08 -0.08)">
       <defs>
        <path id="DejaVuSans-6c" d="M 603 4863 
L 1178 4863 
L 1178 0 
L 603 0 
L 603 4863 
z
" transform="scale(0.015625)"/>
       </defs>
       <use xlink:href="#DejaVuSans-41"/>
       <use xlink:href="#DejaVuSans-6c" x="68.408203"/>
       <use xlink:href="#DejaVuSans-74" x="96.191406"/>
       <use xlink:href="#DejaVuSans-65" x="135.400391"/>
       <use xlink:href="#DejaVuSans-72" x="196.923828"/>
       <use xlink:href="#DejaVuSans-6e" x="236.287109"/>
       <use xlink:href="#DejaVuSans-61" x="299.666016"/>
       <use xlink:href="#DejaVuSans-74" x="360.945312"/>
       <use xlink:href="#DejaVuSans-6f" x="400.154297"/>
       <use xlink:href="#DejaVuSans-72" x="461.335938"/>
      </g>
     </g>
    </g>
    <g id="xtick_6">
     <g id="line2d_6">
      <g>
       <use xlink:href="#mc86b1f8ec0" x="478.872727" y="337.97" style="stroke: #000000; stroke-width: 0.8"/>
      </g>
     </g>
     <g id="text_6">
      <!-- Defector -->
      <g transform="translate(481.080227 379.51)rotate(-90)scale(0.08 -0.08)">
       <defs>
        <path id="DejaVuSans-66" d="M 2375 4863 
L 2375 4384 
L 1825 4384 
Q 1516 4384 1395 4259 
Q 1275 4134 1275 3809 
L 1275 3500 
L 2222 3500 
L 2222 3053 
L 1275 3053 
L 1275 0 
L 697 0 
L 697 3053 
L 147 3053 
L 147 3500 
L 697 3500 
L 697 3744 
Q 697 4328 969 4595 
Q 1241 4863 1831 4863 
L 2375 4863 
z
" transform="scale(0.015625)"/>
        <path id="DejaVuSans-63" d="M 3122 3366 
L 3122 2828 
Q 2878 2963 2633 3030 
Q 2388 3097 2138 3097 
Q 1578 3097 1268 2742 
Q 959 2388 959 1747 
Q 959 1106 1268 751 
Q 1578 397 2138 397 
Q 2388 397 2633 464 
Q 2878 531 3122 666 
L 3122 134 
Q 2881 22 2623 -34 
Q 2366 -91 2075 -91 
Q 1284 -91 818 406 
Q 353 903 353 1747 
Q 353 2603 823 3093 
Q 1294 3584 2113 3584 
Q 2378 3584 2631 3529 
Q 2884 3475 3122 3366 
z
" transform="scale(0.015625)"/>
       </defs>
       <use xlink:href="#DejaVuSans-44"/>
       <use xlink:href="#DejaVuSans-65" x="77.001953"/>
       <use xlink:href="#DejaVuSans-66" x="138.525391"/>
       <use xlink:href="#DejaVuSans-65" x="173.730469"/>
       <use xlink:href="#DejaVuSans-63" x="235.253906"/>
       <use xlink:href="#DejaVuSans-74" x="290.234375"/>
       <use xlink:href="#DejaVuSans-6f" x="329.443359"/>
       <use xlink:href="#DejaVuSans-72" x="390.625"/>
      </g>
     </g>
    </g>
    <g id="xtick_7">
     <g id="line2d_7">
      <g>
       <use xlink:href="#mc86b1f8ec0" x="553.738182" y="337.97" style="stroke: #000000; stroke-width: 0.8"/>
      </g>
     </g>
     <g id="text_7">
      <!-- Random: 0.5 -->
      <g transform="translate(555.945682 396.0475)rotate(-90)scale(0.08 -0.08)">
       <defs>
        <path id="DejaVuSans-52" d="M 2841 2188 
Q 3044 2119 3236 1894 
Q 3428 1669 3622 1275 
L 4263 0 
L 3584 0 
L 2988 1197 
Q 2756 1666 2539 1819 
Q 2322 1972 1947 1972 
L 1259 1972 
L 1259 0 
L 628 0 
L 628 4666 
L 2053 4666 
Q 2853 4666 3247 4331 
Q 3641 3997 3641 3322 
Q 3641 2881 3436 2590 
Q 3231 2300 2841 2188 
z
M 1259 4147 
L 1259 2491 
L 2053 2491 
Q 2509 2491 2742 2702 
Q 2975 2913 2975 3322 
Q 2975 3731 2742 3939 
Q 2509 4147 2053 4147 
L 1259 4147 
z
" transform="scale(0.015625)"/>
        <path id="DejaVuSans-6d" d="M 3328 2828 
Q 3544 3216 3844 3400 
Q 4144 3584 4550 3584 
Q 5097 3584 5394 3201 
Q 5691 2819 5691 2113 
L 5691 0 
L 5113 0 
L 5113 2094 
Q 5113 2597 4934 2840 
Q 4756 3084 4391 3084 
Q 3944 3084 3684 2787 
Q 3425 2491 3425 1978 
L 3425 0 
L 2847 0 
L 2847 2094 
Q 2847 2600 2669 2842 
Q 2491 3084 2119 3084 
Q 1678 3084 1418 2786 
Q 1159 2488 1159 1978 
L 1159 0 
L 581 0 
L 581 3500 
L 1159 3500 
L 1159 2956 
Q 1356 3278 1631 3431 
Q 1906 3584 2284 3584 
Q 2666 3584 2933 3390 
Q 3200 3197 3328 2828 
z
" transform="scale(0.015625)"/>
        <path id="DejaVuSans-3a" d="M 750 794 
L 1409 794 
L 1409 0 
L 750 0 
L 750 794 
z
M 750 3309 
L 1409 3309 
L 1409 2516 
L 750 2516 
L 750 3309 
z
" transform="scale(0.015625)"/>
        <path id="DejaVuSans-30" d="M 2034 4250 
Q 1547 4250 1301 3770 
Q 1056 3291 1056 2328 
Q 1056 1369 1301 889 
Q 1547 409 2034 409 
Q 2525 409 2770 889 
Q 3016 1369 3016 2328 
Q 3016 3291 2770 3770 
Q 2525 4250 2034 4250 
z
M 2034 4750 
Q 2819 4750 3233 4129 
Q 3647 3509 3647 2328 
Q 3647 1150 3233 529 
Q 2819 -91 2034 -91 
Q 1250 -91 836 529 
Q 422 1150 422 2328 
Q 422 3509 836 4129 
Q 1250 4750 2034 4750 
z
" transform="scale(0.015625)"/>
        <path id="DejaVuSans-2e" d="M 684 794 
L 1344 794 
L 1344 0 
L 684 0 
L 684 794 
z
" transform="scale(0.015625)"/>
        <path id="DejaVuSans-35" d="M 691 4666 
L 3169 4666 
L 3169 4134 
L 1269 4134 
L 1269 2991 
Q 1406 3038 1543 3061 
Q 1681 3084 1819 3084 
Q 2600 3084 3056 2656 
Q 3513 2228 3513 1497 
Q 3513 744 3044 326 
Q 2575 -91 1722 -91 
Q 1428 -91 1123 -41 
Q 819 9 494 109 
L 494 744 
Q 775 591 1075 516 
Q 1375 441 1709 441 
Q 2250 441 2565 725 
Q 2881 1009 2881 1497 
Q 2881 1984 2565 2268 
Q 2250 2553 1709 2553 
Q 1456 2553 1204 2497 
Q 953 2441 691 2322 
L 691 4666 
z
" transform="scale(0.015625)"/>
       </defs>
       <use xlink:href="#DejaVuSans-52"/>
       <use xlink:href="#DejaVuSans-61" x="67.232422"/>
       <use xlink:href="#DejaVuSans-6e" x="128.511719"/>
       <use xlink:href="#DejaVuSans-64" x="191.890625"/>
       <use xlink:href="#DejaVuSans-6f" x="255.367188"/>
       <use xlink:href="#DejaVuSans-6d" x="316.548828"/>
       <use xlink:href="#DejaVuSans-3a" x="413.960938"/>
       <use xlink:href="#DejaVuSans-20" x="447.652344"/>
       <use xlink:href="#DejaVuSans-30" x="479.439453"/>
       <use xlink:href="#DejaVuSans-2e" x="543.0625"/>
       <use xlink:href="#DejaVuSans-35" x="574.849609"/>
      </g>
     </g>
    </g>
    <g id="xtick_8">
     <g id="line2d_8">
      <g>
       <use xlink:href="#mc86b1f8ec0" x="628.603636" y="337.97" style="stroke: #000000; stroke-width: 0.8"/>
      </g>
     </g>
     <g id="text_8">
      <!-- Mediocre QLearner -->
      <g transform="translate(630.811136 420.83375)rotate(-90)scale(0.08 -0.08)">
       <defs>
        <path id="DejaVuSans-4d" d="M 628 4666 
L 1569 4666 
L 2759 1491 
L 3956 4666 
L 4897 4666 
L 4897 0 
L 4281 0 
L 4281 4097 
L 3078 897 
L 2444 897 
L 1241 4097 
L 1241 0 
L 628 0 
L 628 4666 
z
" transform="scale(0.015625)"/>
       </defs>
       <use xlink:href="#DejaVuSans-4d"/>
       <use xlink:href="#DejaVuSans-65" x="86.279297"/>
       <use xlink:href="#DejaVuSans-64" x="147.802734"/>
       <use xlink:href="#DejaVuSans-69" x="211.279297"/>
       <use xlink:href="#DejaVuSans-6f" x="239.0625"/>
       <use xlink:href="#DejaVuSans-63" x="300.244141"/>
       <use xlink:href="#DejaVuSans-72" x="355.224609"/>
       <use xlink:href="#DejaVuSans-65" x="394.087891"/>
       <use xlink:href="#DejaVuSans-20" x="455.611328"/>
       <use xlink:href="#DejaVuSans-51" x="487.398438"/>
       <use xlink:href="#DejaVuSans-4c" x="566.109375"/>
       <use xlink:href="#DejaVuSans-65" x="620.072266"/>
       <use xlink:href="#DejaVuSans-61" x="681.595703"/>
       <use xlink:href="#DejaVuSans-72" x="742.875"/>
       <use xlink:href="#DejaVuSans-6e" x="782.238281"/>
       <use xlink:href="#DejaVuSans-65" x="845.617188"/>
       <use xlink:href="#DejaVuSans-72" x="907.140625"/>
      </g>
     </g>
    </g>
    <g id="xtick_9">
     <g id="line2d_9">
      <g>
       <use xlink:href="#mc86b1f8ec0" x="703.469091" y="337.97" style="stroke: #000000; stroke-width: 0.8"/>
      </g>
     </g>
     <g id="text_9">
      <!-- Risky QLearner -->
      <g transform="translate(705.676591 405.40875)rotate(-90)scale(0.08 -0.08)">
       <defs>
        <path id="DejaVuSans-73" d="M 2834 3397 
L 2834 2853 
Q 2591 2978 2328 3040 
Q 2066 3103 1784 3103 
Q 1356 3103 1142 2972 
Q 928 2841 928 2578 
Q 928 2378 1081 2264 
Q 1234 2150 1697 2047 
L 1894 2003 
Q 2506 1872 2764 1633 
Q 3022 1394 3022 966 
Q 3022 478 2636 193 
Q 2250 -91 1575 -91 
Q 1294 -91 989 -36 
Q 684 19 347 128 
L 347 722 
Q 666 556 975 473 
Q 1284 391 1588 391 
Q 1994 391 2212 530 
Q 2431 669 2431 922 
Q 2431 1156 2273 1281 
Q 2116 1406 1581 1522 
L 1381 1569 
Q 847 1681 609 1914 
Q 372 2147 372 2553 
Q 372 3047 722 3315 
Q 1072 3584 1716 3584 
Q 2034 3584 2315 3537 
Q 2597 3491 2834 3397 
z
" transform="scale(0.015625)"/>
        <path id="DejaVuSans-6b" d="M 581 4863 
L 1159 4863 
L 1159 1991 
L 2875 3500 
L 3609 3500 
L 1753 1863 
L 3688 0 
L 2938 0 
L 1159 1709 
L 1159 0 
L 581 0 
L 581 4863 
z
" transform="scale(0.015625)"/>
        <path id="DejaVuSans-79" d="M 2059 -325 
Q 1816 -950 1584 -1140 
Q 1353 -1331 966 -1331 
L 506 -1331 
L 506 -850 
L 844 -850 
Q 1081 -850 1212 -737 
Q 1344 -625 1503 -206 
L 1606 56 
L 191 3500 
L 800 3500 
L 1894 763 
L 2988 3500 
L 3597 3500 
L 2059 -325 
z
" transform="scale(0.015625)"/>
       </defs>
       <use xlink:href="#DejaVuSans-52"/>
       <use xlink:href="#DejaVuSans-69" x="69.482422"/>
       <use xlink:href="#DejaVuSans-73" x="97.265625"/>
       <use xlink:href="#DejaVuSans-6b" x="149.365234"/>
       <use xlink:href="#DejaVuSans-79" x="203.650391"/>
       <use xlink:href="#DejaVuSans-20" x="262.830078"/>
       <use xlink:href="#DejaVuSans-51" x="294.617188"/>
       <use xlink:href="#DejaVuSans-4c" x="373.328125"/>
       <use xlink:href="#DejaVuSans-65" x="427.291016"/>
       <use xlink:href="#DejaVuSans-61" x="488.814453"/>
       <use xlink:href="#DejaVuSans-72" x="550.09375"/>
       <use xlink:href="#DejaVuSans-6e" x="589.457031"/>
       <use xlink:href="#DejaVuSans-65" x="652.835938"/>
       <use xlink:href="#DejaVuSans-72" x="714.359375"/>
      </g>
     </g>
    </g>
    <g id="xtick_10">
     <g id="line2d_10">
      <g>
       <use xlink:href="#mc86b1f8ec0" x="778.334545" y="337.97" style="stroke: #000000; stroke-width: 0.8"/>
      </g>
     </g>
     <g id="text_10">
      <!-- Cooperator -->
      <g transform="translate(780.542045 389.85875)rotate(-90)scale(0.08 -0.08)">
       <defs>
        <path id="DejaVuSans-43" d="M 4122 4306 
L 4122 3641 
Q 3803 3938 3442 4084 
Q 3081 4231 2675 4231 
Q 1875 4231 1450 3742 
Q 1025 3253 1025 2328 
Q 1025 1406 1450 917 
Q 1875 428 2675 428 
Q 3081 428 3442 575 
Q 3803 722 4122 1019 
L 4122 359 
Q 3791 134 3420 21 
Q 3050 -91 2638 -91 
Q 1578 -91 968 557 
Q 359 1206 359 2328 
Q 359 3453 968 4101 
Q 1578 4750 2638 4750 
Q 3056 4750 3426 4639 
Q 3797 4528 4122 4306 
z
" transform="scale(0.015625)"/>
       </defs>
       <use xlink:href="#DejaVuSans-43"/>
       <use xlink:href="#DejaVuSans-6f" x="69.824219"/>
       <use xlink:href="#DejaVuSans-6f" x="131.005859"/>
       <use xlink:href="#DejaVuSans-70" x="192.1875"/>
       <use xlink:href="#DejaVuSans-65" x="255.664062"/>
       <use xlink:href="#DejaVuSans-72" x="317.1875"/>
       <use xlink:href="#DejaVuSans-61" x="358.300781"/>
       <use xlink:href="#DejaVuSans-74" x="419.580078"/>
       <use xlink:href="#DejaVuSans-6f" x="458.789062"/>
       <use xlink:href="#DejaVuSans-72" x="519.970703"/>
      </g>
     </g>
    </g>
   </g>
   <g id="matplotlib.axis_2">
    <g id="ytick_1">
     <g id="line2d_11">
      <defs>
       <path id="m7180894edf" d="M 0 0 
L -3.5 0 
" style="stroke: #000000; stroke-width: 0.8"/>
      </defs>
      <g>
       <use xlink:href="#m7180894edf" x="29.68" y="295.548636" style="stroke: #000000; stroke-width: 0.8"/>
      </g>
     </g>
     <g id="text_11">
      <!-- 4 -->
      <g transform="translate(10.88625 298.588011)scale(0.08 -0.08)">
       <defs>
        <path id="DejaVuSans-2212" d="M 678 2272 
L 4684 2272 
L 4684 1741 
L 678 1741 
L 678 2272 
z
" transform="scale(0.015625)"/>
        <path id="DejaVuSans-34" d="M 2419 4116 
L 825 1625 
L 2419 1625 
L 2419 4116 
z
M 2253 4666 
L 3047 4666 
L 3047 1625 
L 3713 1625 
L 3713 1100 
L 3047 1100 
L 3047 0 
L 2419 0 
L 2419 1100 
L 313 1100 
L 313 1709 
L 2253 4666 
z
" transform="scale(0.015625)"/>
       </defs>
       <use xlink:href="#DejaVuSans-2212"/>
       <use xlink:href="#DejaVuSans-34" x="83.789062"/>
      </g>
     </g>
    </g>
    <g id="ytick_2">
     <g id="line2d_12">
      <g>
       <use xlink:href="#m7180894edf" x="29.68" y="238.986818" style="stroke: #000000; stroke-width: 0.8"/>
      </g>
     </g>
     <g id="text_12">
      <!-- 2 -->
      <g transform="translate(10.88625 242.026193)scale(0.08 -0.08)">
       <defs>
        <path id="DejaVuSans-32" d="M 1228 531 
L 3431 531 
L 3431 0 
L 469 0 
L 469 531 
Q 828 903 1448 1529 
Q 2069 2156 2228 2338 
Q 2531 2678 2651 2914 
Q 2772 3150 2772 3378 
Q 2772 3750 2511 3984 
Q 2250 4219 1831 4219 
Q 1534 4219 1204 4116 
Q 875 4013 500 3803 
L 500 4441 
Q 881 4594 1212 4672 
Q 1544 4750 1819 4750 
Q 2544 4750 2975 4387 
Q 3406 4025 3406 3419 
Q 3406 3131 3298 2873 
Q 3191 2616 2906 2266 
Q 2828 2175 2409 1742 
Q 1991 1309 1228 531 
z
" transform="scale(0.015625)"/>
       </defs>
       <use xlink:href="#DejaVuSans-2212"/>
       <use xlink:href="#DejaVuSans-32" x="83.789062"/>
      </g>
     </g>
    </g>
    <g id="ytick_3">
     <g id="line2d_13">
      <g>
       <use xlink:href="#m7180894edf" x="29.68" y="182.425" style="stroke: #000000; stroke-width: 0.8"/>
      </g>
     </g>
     <g id="text_13">
      <!-- 0 -->
      <g transform="translate(17.59 185.464375)scale(0.08 -0.08)">
       <use xlink:href="#DejaVuSans-30"/>
      </g>
     </g>
    </g>
    <g id="ytick_4">
     <g id="line2d_14">
      <g>
       <use xlink:href="#m7180894edf" x="29.68" y="125.863182" style="stroke: #000000; stroke-width: 0.8"/>
      </g>
     </g>
     <g id="text_14">
      <!-- 2 -->
      <g transform="translate(17.59 128.902557)scale(0.08 -0.08)">
       <use xlink:href="#DejaVuSans-32"/>
      </g>
     </g>
    </g>
    <g id="ytick_5">
     <g id="line2d_15">
      <g>
       <use xlink:href="#m7180894edf" x="29.68" y="69.301364" style="stroke: #000000; stroke-width: 0.8"/>
      </g>
     </g>
     <g id="text_15">
      <!-- 4 -->
      <g transform="translate(17.59 72.340739)scale(0.08 -0.08)">
       <use xlink:href="#DejaVuSans-34"/>
      </g>
     </g>
    </g>
   </g>
   <g id="LineCollection_1">
    <path d="M 95.187273 182.425 
L 113.903636 182.425 
" clip-path="url(#p85c9e5d3db)" style="fill: none; stroke: #1f77b4; stroke-width: 1.5"/>
    <path d="M 170.052727 170.405614 
L 188.769091 170.405614 
" clip-path="url(#p85c9e5d3db)" style="fill: none; stroke: #1f77b4; stroke-width: 1.5"/>
    <path d="M 244.918182 180.657443 
L 263.634545 180.657443 
" clip-path="url(#p85c9e5d3db)" style="fill: none; stroke: #1f77b4; stroke-width: 1.5"/>
    <path d="M 319.783636 173.233705 
L 338.5 173.233705 
" clip-path="url(#p85c9e5d3db)" style="fill: none; stroke: #1f77b4; stroke-width: 1.5"/>
    <path d="M 394.649091 182.425 
L 413.365455 182.425 
" clip-path="url(#p85c9e5d3db)" style="fill: none; stroke: #1f77b4; stroke-width: 1.5"/>
    <path d="M 469.514545 166.8705 
L 488.230909 166.8705 
" clip-path="url(#p85c9e5d3db)" style="fill: none; stroke: #1f77b4; stroke-width: 1.5"/>
    <path d="M 544.38 182.425 
L 563.096364 182.425 
" clip-path="url(#p85c9e5d3db)" style="fill: none; stroke: #1f77b4; stroke-width: 1.5"/>
    <path d="M 619.245455 200.100568 
L 637.961818 200.100568 
" clip-path="url(#p85c9e5d3db)" style="fill: none; stroke: #1f77b4; stroke-width: 1.5"/>
    <path d="M 694.110909 198.686523 
L 712.827273 198.686523 
" clip-path="url(#p85c9e5d3db)" style="fill: none; stroke: #1f77b4; stroke-width: 1.5"/>
    <path d="M 768.976364 193.383852 
L 787.692727 193.383852 
" clip-path="url(#p85c9e5d3db)" style="fill: none; stroke: #1f77b4; stroke-width: 1.5"/>
   </g>
   <g id="patch_3">
    <path d="M 29.68 337.97 
L 29.68 26.88 
" style="fill: none; stroke: #000000; stroke-width: 0.8; stroke-linejoin: miter; stroke-linecap: square"/>
   </g>
   <g id="patch_4">
    <path d="M 853.2 337.97 
L 853.2 26.88 
" style="fill: none; stroke: #000000; stroke-width: 0.8; stroke-linejoin: miter; stroke-linecap: square"/>
   </g>
   <g id="patch_5">
    <path d="M 29.68 337.97 
L 853.2 337.97 
" style="fill: none; stroke: #000000; stroke-width: 0.8; stroke-linejoin: miter; stroke-linecap: square"/>
   </g>
   <g id="patch_6">
    <path d="M 29.68 26.88 
L 853.2 26.88 
" style="fill: none; stroke: #000000; stroke-width: 0.8; stroke-linejoin: miter; stroke-linecap: square"/>
   </g>
   <g id="text_16">
    <!-- Payoff differences - turns: 200, repetitions: 20, strategies: 10.  -->
    <g transform="translate(254.235313 20.88)scale(0.12 -0.12)">
     <defs>
      <path id="DejaVuSans-50" d="M 1259 4147 
L 1259 2394 
L 2053 2394 
Q 2494 2394 2734 2622 
Q 2975 2850 2975 3272 
Q 2975 3691 2734 3919 
Q 2494 4147 2053 4147 
L 1259 4147 
z
M 628 4666 
L 2053 4666 
Q 2838 4666 3239 4311 
Q 3641 3956 3641 3272 
Q 3641 2581 3239 2228 
Q 2838 1875 2053 1875 
L 1259 1875 
L 1259 0 
L 628 0 
L 628 4666 
z
" transform="scale(0.015625)"/>
      <path id="DejaVuSans-2d" d="M 313 2009 
L 1997 2009 
L 1997 1497 
L 313 1497 
L 313 2009 
z
" transform="scale(0.015625)"/>
      <path id="DejaVuSans-2c" d="M 750 794 
L 1409 794 
L 1409 256 
L 897 -744 
L 494 -744 
L 750 256 
L 750 794 
z
" transform="scale(0.015625)"/>
      <path id="DejaVuSans-31" d="M 794 531 
L 1825 531 
L 1825 4091 
L 703 3866 
L 703 4441 
L 1819 4666 
L 2450 4666 
L 2450 531 
L 3481 531 
L 3481 0 
L 794 0 
L 794 531 
z
" transform="scale(0.015625)"/>
     </defs>
     <use xlink:href="#DejaVuSans-50"/>
     <use xlink:href="#DejaVuSans-61" x="55.802734"/>
     <use xlink:href="#DejaVuSans-79" x="117.082031"/>
     <use xlink:href="#DejaVuSans-6f" x="176.261719"/>
     <use xlink:href="#DejaVuSans-66" x="237.443359"/>
     <use xlink:href="#DejaVuSans-66" x="272.648438"/>
     <use xlink:href="#DejaVuSans-20" x="307.853516"/>
     <use xlink:href="#DejaVuSans-64" x="339.640625"/>
     <use xlink:href="#DejaVuSans-69" x="403.117188"/>
     <use xlink:href="#DejaVuSans-66" x="430.900391"/>
     <use xlink:href="#DejaVuSans-66" x="466.105469"/>
     <use xlink:href="#DejaVuSans-65" x="501.310547"/>
     <use xlink:href="#DejaVuSans-72" x="562.833984"/>
     <use xlink:href="#DejaVuSans-65" x="601.697266"/>
     <use xlink:href="#DejaVuSans-6e" x="663.220703"/>
     <use xlink:href="#DejaVuSans-63" x="726.599609"/>
     <use xlink:href="#DejaVuSans-65" x="781.580078"/>
     <use xlink:href="#DejaVuSans-73" x="843.103516"/>
     <use xlink:href="#DejaVuSans-20" x="895.203125"/>
     <use xlink:href="#DejaVuSans-2d" x="926.990234"/>
     <use xlink:href="#DejaVuSans-20" x="963.074219"/>
     <use xlink:href="#DejaVuSans-74" x="994.861328"/>
     <use xlink:href="#DejaVuSans-75" x="1034.070312"/>
     <use xlink:href="#DejaVuSans-72" x="1097.449219"/>
     <use xlink:href="#DejaVuSans-6e" x="1136.8125"/>
     <use xlink:href="#DejaVuSans-73" x="1200.191406"/>
     <use xlink:href="#DejaVuSans-3a" x="1252.291016"/>
     <use xlink:href="#DejaVuSans-20" x="1285.982422"/>
     <use xlink:href="#DejaVuSans-32" x="1317.769531"/>
     <use xlink:href="#DejaVuSans-30" x="1381.392578"/>
     <use xlink:href="#DejaVuSans-30" x="1445.015625"/>
     <use xlink:href="#DejaVuSans-2c" x="1508.638672"/>
     <use xlink:href="#DejaVuSans-20" x="1540.425781"/>
     <use xlink:href="#DejaVuSans-72" x="1572.212891"/>
     <use xlink:href="#DejaVuSans-65" x="1611.076172"/>
     <use xlink:href="#DejaVuSans-70" x="1672.599609"/>
     <use xlink:href="#DejaVuSans-65" x="1736.076172"/>
     <use xlink:href="#DejaVuSans-74" x="1797.599609"/>
     <use xlink:href="#DejaVuSans-69" x="1836.808594"/>
     <use xlink:href="#DejaVuSans-74" x="1864.591797"/>
     <use xlink:href="#DejaVuSans-69" x="1903.800781"/>
     <use xlink:href="#DejaVuSans-6f" x="1931.583984"/>
     <use xlink:href="#DejaVuSans-6e" x="1992.765625"/>
     <use xlink:href="#DejaVuSans-73" x="2056.144531"/>
     <use xlink:href="#DejaVuSans-3a" x="2108.244141"/>
     <use xlink:href="#DejaVuSans-20" x="2141.935547"/>
     <use xlink:href="#DejaVuSans-32" x="2173.722656"/>
     <use xlink:href="#DejaVuSans-30" x="2237.345703"/>
     <use xlink:href="#DejaVuSans-2c" x="2300.96875"/>
     <use xlink:href="#DejaVuSans-20" x="2332.755859"/>
     <use xlink:href="#DejaVuSans-73" x="2364.542969"/>
     <use xlink:href="#DejaVuSans-74" x="2416.642578"/>
     <use xlink:href="#DejaVuSans-72" x="2455.851562"/>
     <use xlink:href="#DejaVuSans-61" x="2496.964844"/>
     <use xlink:href="#DejaVuSans-74" x="2558.244141"/>
     <use xlink:href="#DejaVuSans-65" x="2597.453125"/>
     <use xlink:href="#DejaVuSans-67" x="2658.976562"/>
     <use xlink:href="#DejaVuSans-69" x="2722.453125"/>
     <use xlink:href="#DejaVuSans-65" x="2750.236328"/>
     <use xlink:href="#DejaVuSans-73" x="2811.759766"/>
     <use xlink:href="#DejaVuSans-3a" x="2863.859375"/>
     <use xlink:href="#DejaVuSans-20" x="2897.550781"/>
     <use xlink:href="#DejaVuSans-31" x="2929.337891"/>
     <use xlink:href="#DejaVuSans-30" x="2992.960938"/>
     <use xlink:href="#DejaVuSans-2e" x="3056.583984"/>
     <use xlink:href="#DejaVuSans-20" x="3088.371094"/>
    </g>
   </g>
  </g>
 </g>
 <defs>
  <clipPath id="p85c9e5d3db">
   <rect x="29.68" y="26.88" width="823.52" height="311.09"/>
  </clipPath>
 </defs>
</svg>
