<?xml version="1.0" encoding="utf-8" standalone="no"?>
<!DOCTYPE svg PUBLIC "-//W3C//DTD SVG 1.1//EN"
  "http://www.w3.org/Graphics/SVG/1.1/DTD/svg11.dtd">
<svg xmlns:xlink="http://www.w3.org/1999/xlink" width="864pt" height="432pt" viewBox="0 0 864 432" xmlns="http://www.w3.org/2000/svg" version="1.1">
 <metadata>
  <rdf:RDF xmlns:dc="http://purl.org/dc/elements/1.1/" xmlns:cc="http://creativecommons.org/ns#" xmlns:rdf="http://www.w3.org/1999/02/22-rdf-syntax-ns#">
   <cc:Work>
    <dc:type rdf:resource="http://purl.org/dc/dcmitype/StillImage"/>
    <dc:date>2022-09-24T19:58:53.921311</dc:date>
    <dc:format>image/svg+xml</dc:format>
    <dc:creator>
     <cc:Agent>
      <dc:title>Matplotlib v3.5.1, https://matplotlib.org/</dc:title>
     </cc:Agent>
    </dc:creator>
   </cc:Work>
  </rdf:RDF>
 </metadata>
 <defs>
  <style type="text/css">*{stroke-linejoin: round; stroke-linecap: butt}</style>
 </defs>
 <g id="figure_1">
  <g id="patch_1">
   <path d="M 0 432 
L 864 432 
L 864 0 
L 0 0 
z
" style="fill: #ffffff"/>
  </g>
  <g id="axes_1">
   <g id="patch_2">
    <path d="M 22.93 337.97 
L 853.2 337.97 
L 853.2 26.88 
L 22.93 26.88 
z
" style="fill: #ffffff"/>
   </g>
   <g id="PolyCollection_1">
    <path d="M 117.278864 42.4345 
L 79.539318 42.4345 
L 79.539318 42.4345 
L 79.539318 42.4345 
L 79.539318 42.4345 
L 79.539318 42.4345 
L 79.539318 42.4345 
L 79.539318 42.4345 
L 79.539318 42.4345 
L 79.539318 42.4345 
L 79.539318 42.4345 
L 79.539318 42.4345 
L 79.539318 42.4345 
L 79.539318 42.4345 
L 79.539318 42.4345 
L 79.539318 42.4345 
L 79.539318 42.4345 
L 79.539318 42.4345 
L 79.539318 42.4345 
L 79.539318 42.4345 
L 79.539318 42.4345 
L 79.539318 42.4345 
L 79.539318 42.4345 
L 79.539318 42.4345 
L 79.539318 42.4345 
L 79.539318 42.4345 
L 79.539318 42.4345 
L 79.539318 42.4345 
L 79.539318 42.4345 
L 79.539318 42.4345 
L 79.539318 42.4345 
L 79.539318 42.4345 
L 79.539318 42.4345 
L 79.539318 42.4345 
L 79.539318 42.4345 
L 79.539318 42.4345 
L 79.539318 42.4345 
L 79.539318 42.4345 
L 79.539318 42.4345 
L 79.539318 42.4345 
L 79.539318 42.4345 
L 79.539318 42.4345 
L 79.539318 42.4345 
L 79.539318 42.4345 
L 79.539318 42.4345 
L 79.539318 42.4345 
L 79.539318 42.4345 
L 79.539318 42.4345 
L 79.539318 42.4345 
L 79.539318 42.4345 
L 79.539318 42.4345 
L 79.539318 42.4345 
L 79.539318 42.4345 
L 79.539318 42.4345 
L 79.539318 42.4345 
L 79.539318 42.4345 
L 79.539318 42.4345 
L 79.539318 42.4345 
L 79.539318 42.4345 
L 79.539318 42.4345 
L 79.539318 42.4345 
L 79.539318 42.4345 
L 79.539318 42.4345 
L 79.539318 42.4345 
L 79.539318 42.4345 
L 79.539318 42.4345 
L 79.539318 42.4345 
L 79.539318 42.4345 
L 79.539318 42.4345 
L 79.539318 42.4345 
L 79.539318 42.4345 
L 79.539318 42.4345 
L 79.539318 42.4345 
L 79.539318 42.4345 
L 79.539318 42.4345 
L 79.539318 42.4345 
L 79.539318 42.4345 
L 79.539318 42.4345 
L 79.539318 42.4345 
L 79.539318 42.4345 
L 79.539318 42.4345 
L 79.539318 42.4345 
L 79.539318 42.4345 
L 79.539318 42.4345 
L 79.539318 42.4345 
L 79.539318 42.4345 
L 79.539318 42.4345 
L 79.539318 42.4345 
L 79.539318 42.4345 
L 79.539318 42.4345 
L 79.539318 42.4345 
L 79.539318 42.4345 
L 79.539318 42.4345 
L 79.539318 42.4345 
L 79.539318 42.4345 
L 79.539318 42.4345 
L 79.539318 42.4345 
L 79.539318 42.4345 
L 79.539318 42.4345 
L 79.539318 42.4345 
L 79.539318 42.4345 
L 117.278864 42.4345 
L 117.278864 42.4345 
L 117.278864 42.4345 
L 117.278864 42.4345 
L 117.278864 42.4345 
L 117.278864 42.4345 
L 117.278864 42.4345 
L 117.278864 42.4345 
L 117.278864 42.4345 
L 117.278864 42.4345 
L 117.278864 42.4345 
L 117.278864 42.4345 
L 117.278864 42.4345 
L 117.278864 42.4345 
L 117.278864 42.4345 
L 117.278864 42.4345 
L 117.278864 42.4345 
L 117.278864 42.4345 
L 117.278864 42.4345 
L 117.278864 42.4345 
L 117.278864 42.4345 
L 117.278864 42.4345 
L 117.278864 42.4345 
L 117.278864 42.4345 
L 117.278864 42.4345 
L 117.278864 42.4345 
L 117.278864 42.4345 
L 117.278864 42.4345 
L 117.278864 42.4345 
L 117.278864 42.4345 
L 117.278864 42.4345 
L 117.278864 42.4345 
L 117.278864 42.4345 
L 117.278864 42.4345 
L 117.278864 42.4345 
L 117.278864 42.4345 
L 117.278864 42.4345 
L 117.278864 42.4345 
L 117.278864 42.4345 
L 117.278864 42.4345 
L 117.278864 42.4345 
L 117.278864 42.4345 
L 117.278864 42.4345 
L 117.278864 42.4345 
L 117.278864 42.4345 
L 117.278864 42.4345 
L 117.278864 42.4345 
L 117.278864 42.4345 
L 117.278864 42.4345 
L 117.278864 42.4345 
L 117.278864 42.4345 
L 117.278864 42.4345 
L 117.278864 42.4345 
L 117.278864 42.4345 
L 117.278864 42.4345 
L 117.278864 42.4345 
L 117.278864 42.4345 
L 117.278864 42.4345 
L 117.278864 42.4345 
L 117.278864 42.4345 
L 117.278864 42.4345 
L 117.278864 42.4345 
L 117.278864 42.4345 
L 117.278864 42.4345 
L 117.278864 42.4345 
L 117.278864 42.4345 
L 117.278864 42.4345 
L 117.278864 42.4345 
L 117.278864 42.4345 
L 117.278864 42.4345 
L 117.278864 42.4345 
L 117.278864 42.4345 
L 117.278864 42.4345 
L 117.278864 42.4345 
L 117.278864 42.4345 
L 117.278864 42.4345 
L 117.278864 42.4345 
L 117.278864 42.4345 
L 117.278864 42.4345 
L 117.278864 42.4345 
L 117.278864 42.4345 
L 117.278864 42.4345 
L 117.278864 42.4345 
L 117.278864 42.4345 
L 117.278864 42.4345 
L 117.278864 42.4345 
L 117.278864 42.4345 
L 117.278864 42.4345 
L 117.278864 42.4345 
L 117.278864 42.4345 
L 117.278864 42.4345 
L 117.278864 42.4345 
L 117.278864 42.4345 
L 117.278864 42.4345 
L 117.278864 42.4345 
L 117.278864 42.4345 
L 117.278864 42.4345 
L 117.278864 42.4345 
L 117.278864 42.4345 
L 117.278864 42.4345 
L 117.278864 42.4345 
z
" clip-path="url(#p006acf79e1)" style="fill: #1f77b4; fill-opacity: 0.3"/>
   </g>
   <g id="PolyCollection_2">
    <path d="M 192.757955 135.7615 
L 155.018409 135.7615 
L 155.018409 135.7615 
L 155.018409 135.7615 
L 155.018409 135.7615 
L 155.018409 135.7615 
L 155.018409 135.7615 
L 155.018409 135.7615 
L 155.018409 135.7615 
L 155.018409 135.7615 
L 155.018409 135.7615 
L 155.018409 135.7615 
L 155.018409 135.7615 
L 155.018409 135.7615 
L 155.018409 135.7615 
L 155.018409 135.7615 
L 155.018409 135.7615 
L 155.018409 135.7615 
L 155.018409 135.7615 
L 155.018409 135.7615 
L 155.018409 135.7615 
L 155.018409 135.7615 
L 155.018409 135.7615 
L 155.018409 135.7615 
L 155.018409 135.7615 
L 155.018409 135.7615 
L 155.018409 135.7615 
L 155.018409 135.7615 
L 155.018409 135.7615 
L 155.018409 135.7615 
L 155.018409 135.7615 
L 155.018409 135.7615 
L 155.018409 135.7615 
L 155.018409 135.7615 
L 155.018409 135.7615 
L 155.018409 135.7615 
L 155.018409 135.7615 
L 155.018409 135.7615 
L 155.018409 135.7615 
L 155.018409 135.7615 
L 155.018409 135.7615 
L 155.018409 135.7615 
L 155.018409 135.7615 
L 155.018409 135.7615 
L 155.018409 135.7615 
L 155.018409 135.7615 
L 155.018409 135.7615 
L 155.018409 135.7615 
L 155.018409 135.7615 
L 155.018409 135.7615 
L 155.018409 135.7615 
L 155.018409 135.7615 
L 155.018409 135.7615 
L 155.018409 135.7615 
L 155.018409 135.7615 
L 155.018409 135.7615 
L 155.018409 135.7615 
L 155.018409 135.7615 
L 155.018409 135.7615 
L 155.018409 135.7615 
L 155.018409 135.7615 
L 155.018409 135.7615 
L 155.018409 135.7615 
L 155.018409 135.7615 
L 155.018409 135.7615 
L 155.018409 135.7615 
L 155.018409 135.7615 
L 155.018409 135.7615 
L 155.018409 135.7615 
L 155.018409 135.7615 
L 155.018409 135.7615 
L 155.018409 135.7615 
L 155.018409 135.7615 
L 155.018409 135.7615 
L 155.018409 135.7615 
L 155.018409 135.7615 
L 155.018409 135.7615 
L 155.018409 135.7615 
L 155.018409 135.7615 
L 155.018409 135.7615 
L 155.018409 135.7615 
L 155.018409 135.7615 
L 155.018409 135.7615 
L 155.018409 135.7615 
L 155.018409 135.7615 
L 155.018409 135.7615 
L 155.018409 135.7615 
L 155.018409 135.7615 
L 155.018409 135.7615 
L 155.018409 135.7615 
L 155.018409 135.7615 
L 155.018409 135.7615 
L 155.018409 135.7615 
L 155.018409 135.7615 
L 155.018409 135.7615 
L 155.018409 135.7615 
L 155.018409 135.7615 
L 155.018409 135.7615 
L 155.018409 135.7615 
L 155.018409 135.7615 
L 155.018409 135.7615 
L 192.757955 135.7615 
L 192.757955 135.7615 
L 192.757955 135.7615 
L 192.757955 135.7615 
L 192.757955 135.7615 
L 192.757955 135.7615 
L 192.757955 135.7615 
L 192.757955 135.7615 
L 192.757955 135.7615 
L 192.757955 135.7615 
L 192.757955 135.7615 
L 192.757955 135.7615 
L 192.757955 135.7615 
L 192.757955 135.7615 
L 192.757955 135.7615 
L 192.757955 135.7615 
L 192.757955 135.7615 
L 192.757955 135.7615 
L 192.757955 135.7615 
L 192.757955 135.7615 
L 192.757955 135.7615 
L 192.757955 135.7615 
L 192.757955 135.7615 
L 192.757955 135.7615 
L 192.757955 135.7615 
L 192.757955 135.7615 
L 192.757955 135.7615 
L 192.757955 135.7615 
L 192.757955 135.7615 
L 192.757955 135.7615 
L 192.757955 135.7615 
L 192.757955 135.7615 
L 192.757955 135.7615 
L 192.757955 135.7615 
L 192.757955 135.7615 
L 192.757955 135.7615 
L 192.757955 135.7615 
L 192.757955 135.7615 
L 192.757955 135.7615 
L 192.757955 135.7615 
L 192.757955 135.7615 
L 192.757955 135.7615 
L 192.757955 135.7615 
L 192.757955 135.7615 
L 192.757955 135.7615 
L 192.757955 135.7615 
L 192.757955 135.7615 
L 192.757955 135.7615 
L 192.757955 135.7615 
L 192.757955 135.7615 
L 192.757955 135.7615 
L 192.757955 135.7615 
L 192.757955 135.7615 
L 192.757955 135.7615 
L 192.757955 135.7615 
L 192.757955 135.7615 
L 192.757955 135.7615 
L 192.757955 135.7615 
L 192.757955 135.7615 
L 192.757955 135.7615 
L 192.757955 135.7615 
L 192.757955 135.7615 
L 192.757955 135.7615 
L 192.757955 135.7615 
L 192.757955 135.7615 
L 192.757955 135.7615 
L 192.757955 135.7615 
L 192.757955 135.7615 
L 192.757955 135.7615 
L 192.757955 135.7615 
L 192.757955 135.7615 
L 192.757955 135.7615 
L 192.757955 135.7615 
L 192.757955 135.7615 
L 192.757955 135.7615 
L 192.757955 135.7615 
L 192.757955 135.7615 
L 192.757955 135.7615 
L 192.757955 135.7615 
L 192.757955 135.7615 
L 192.757955 135.7615 
L 192.757955 135.7615 
L 192.757955 135.7615 
L 192.757955 135.7615 
L 192.757955 135.7615 
L 192.757955 135.7615 
L 192.757955 135.7615 
L 192.757955 135.7615 
L 192.757955 135.7615 
L 192.757955 135.7615 
L 192.757955 135.7615 
L 192.757955 135.7615 
L 192.757955 135.7615 
L 192.757955 135.7615 
L 192.757955 135.7615 
L 192.757955 135.7615 
L 192.757955 135.7615 
L 192.757955 135.7615 
L 192.757955 135.7615 
L 192.757955 135.7615 
L 192.757955 135.7615 
z
" clip-path="url(#p006acf79e1)" style="fill: #1f77b4; fill-opacity: 0.3"/>
   </g>
   <g id="PolyCollection_3">
    <path d="M 249.553641 197.9795 
L 249.180905 197.9795 
L 249.183495 197.351035 
L 249.19105 196.722571 
L 249.202959 196.094106 
L 249.218292 195.465641 
L 249.235922 194.837177 
L 249.254662 194.208712 
L 249.273393 193.580247 
L 249.291169 192.951783 
L 249.307282 192.323318 
L 249.321288 191.694854 
L 249.332997 191.066389 
L 249.34243 190.437924 
L 249.349764 189.80946 
L 249.355273 189.180995 
L 249.359276 188.55253 
L 249.36209 187.924066 
L 249.364006 187.295601 
L 249.365268 186.667136 
L 249.366071 186.038672 
L 249.36656 185.410207 
L 249.366834 184.781742 
L 249.366952 184.153278 
L 249.36693 183.524813 
L 249.36674 182.896348 
L 249.36629 182.267884 
L 249.365392 181.639419 
L 249.363713 181.010955 
L 249.360693 180.38249 
L 249.355434 179.754025 
L 249.346554 179.125561 
L 249.332011 178.497096 
L 249.308916 177.868631 
L 249.273359 177.240167 
L 249.220308 176.611702 
L 249.143637 175.983237 
L 249.03636 175.354773 
L 248.891137 174.726308 
L 248.701091 174.097843 
L 248.460916 173.469379 
L 248.168185 172.840914 
L 247.824693 172.212449 
L 247.437577 171.583985 
L 247.019938 170.95552 
L 246.590719 170.327056 
L 246.173662 169.698591 
L 245.795345 169.070126 
L 245.482477 168.441662 
L 245.258818 167.813197 
L 245.142205 167.184732 
L 245.142205 166.556268 
L 245.258818 165.927803 
L 245.482477 165.299338 
L 245.795345 164.670874 
L 246.173662 164.042409 
L 246.590719 163.413944 
L 247.019938 162.78548 
L 247.437577 162.157015 
L 247.824693 161.528551 
L 248.168185 160.900086 
L 248.460915 160.271621 
L 248.701091 159.643157 
L 248.891137 159.014692 
L 249.03636 158.386227 
L 249.143636 157.757763 
L 249.220306 157.129298 
L 249.273354 156.500833 
L 249.308904 155.872369 
L 249.331984 155.243904 
L 249.346491 154.615439 
L 249.355289 153.986975 
L 249.360372 153.35851 
L 249.36302 152.730045 
L 249.363936 152.101581 
L 249.363318 151.473116 
L 249.360841 150.844652 
L 249.355543 150.216187 
L 249.345577 149.587722 
L 249.327819 148.959258 
L 249.29731 148.330793 
L 249.246549 147.702328 
L 249.164673 147.073864 
L 249.036639 146.445399 
L 248.842579 145.816934 
L 248.557598 145.18847 
L 248.152318 144.560005 
L 247.594492 143.93154 
L 246.851945 143.303076 
L 245.896877 142.674611 
L 244.711323 142.046146 
L 243.293167 141.417682 
L 241.661764 140.789217 
L 239.86199 140.160753 
L 237.965467 139.532288 
L 236.068025 138.903823 
L 234.282967 138.275359 
L 232.730526 137.646894 
L 231.524747 137.018429 
L 230.759727 136.389965 
L 230.4975 135.7615 
L 268.237045 135.7615 
L 268.237045 135.7615 
L 267.974818 136.389965 
L 267.209799 137.018429 
L 266.00402 137.646894 
L 264.451578 138.275359 
L 262.66652 138.903823 
L 260.769079 139.532288 
L 258.872556 140.160753 
L 257.072781 140.789217 
L 255.441379 141.417682 
L 254.023222 142.046146 
L 252.837668 142.674611 
L 251.8826 143.303076 
L 251.140053 143.93154 
L 250.582228 144.560005 
L 250.176947 145.18847 
L 249.891966 145.816934 
L 249.697906 146.445399 
L 249.569872 147.073864 
L 249.487996 147.702328 
L 249.437236 148.330793 
L 249.406727 148.959258 
L 249.388968 149.587722 
L 249.379002 150.216187 
L 249.373704 150.844652 
L 249.371227 151.473116 
L 249.370609 152.101581 
L 249.371526 152.730045 
L 249.374173 153.35851 
L 249.379256 153.986975 
L 249.388055 154.615439 
L 249.402561 155.243904 
L 249.425641 155.872369 
L 249.461191 156.500833 
L 249.514239 157.129298 
L 249.590909 157.757763 
L 249.698186 158.386227 
L 249.843408 159.014692 
L 250.033454 159.643157 
L 250.27363 160.271621 
L 250.566361 160.900086 
L 250.909852 161.528551 
L 251.296969 162.157015 
L 251.714608 162.78548 
L 252.143827 163.413944 
L 252.560883 164.042409 
L 252.9392 164.670874 
L 253.252068 165.299338 
L 253.475727 165.927803 
L 253.59234 166.556268 
L 253.59234 167.184732 
L 253.475727 167.813197 
L 253.252068 168.441662 
L 252.9392 169.070126 
L 252.560883 169.698591 
L 252.143827 170.327056 
L 251.714608 170.95552 
L 251.296969 171.583985 
L 250.909852 172.212449 
L 250.566361 172.840914 
L 250.27363 173.469379 
L 250.033454 174.097843 
L 249.843408 174.726308 
L 249.698185 175.354773 
L 249.590908 175.983237 
L 249.514238 176.611702 
L 249.461187 177.240167 
L 249.42563 177.868631 
L 249.402534 178.497096 
L 249.387992 179.125561 
L 249.379111 179.754025 
L 249.373852 180.38249 
L 249.370832 181.010955 
L 249.369154 181.639419 
L 249.368256 182.267884 
L 249.367805 182.896348 
L 249.367615 183.524813 
L 249.367593 184.153278 
L 249.367711 184.781742 
L 249.367985 185.410207 
L 249.368474 186.038672 
L 249.369278 186.667136 
L 249.37054 187.295601 
L 249.372456 187.924066 
L 249.37527 188.55253 
L 249.379272 189.180995 
L 249.384782 189.80946 
L 249.392115 190.437924 
L 249.401548 191.066389 
L 249.413257 191.694854 
L 249.427264 192.323318 
L 249.443377 192.951783 
L 249.461152 193.580247 
L 249.479883 194.208712 
L 249.498623 194.837177 
L 249.516254 195.465641 
L 249.531586 196.094106 
L 249.543495 196.722571 
L 249.551051 197.351035 
L 249.553641 197.9795 
z
" clip-path="url(#p006acf79e1)" style="fill: #1f77b4; fill-opacity: 0.3"/>
   </g>
   <g id="PolyCollection_4">
    <path d="M 339.875885 197.9795 
L 309.816842 197.9795 
L 309.886932 197.351035 
L 310.095405 196.722571 
L 310.436439 196.094106 
L 310.90063 195.465641 
L 311.475416 194.837177 
L 312.14563 194.208712 
L 312.89414 193.580247 
L 313.702554 192.951783 
L 314.551928 192.323318 
L 315.423454 191.694854 
L 316.299071 191.066389 
L 317.161997 190.437924 
L 317.997124 189.80946 
L 318.791298 189.180995 
L 319.533456 188.55253 
L 320.214634 187.924066 
L 320.827866 187.295601 
L 321.367974 186.667136 
L 321.831303 186.038672 
L 322.215389 185.410207 
L 322.518633 184.781742 
L 322.739963 184.153278 
L 322.878545 183.524813 
L 322.933546 182.896348 
L 322.903969 182.267884 
L 322.788576 181.639419 
L 322.585909 181.010955 
L 322.294403 180.38249 
L 321.912592 179.754025 
L 321.439392 179.125561 
L 320.874461 178.497096 
L 320.218589 177.868631 
L 319.474111 177.240167 
L 318.645311 176.611702 
L 317.738775 175.983237 
L 316.76367 175.354773 
L 315.731919 174.726308 
L 314.658233 174.097843 
L 313.560002 173.469379 
L 312.457009 172.840914 
L 311.370989 172.212449 
L 310.325025 171.583985 
L 309.342815 170.95552 
L 308.447837 170.327056 
L 307.66246 169.698591 
L 307.007039 169.070126 
L 306.499059 168.441662 
L 306.152375 167.813197 
L 305.976591 167.184732 
L 305.976625 166.556268 
L 306.152483 165.927803 
L 306.499261 165.299338 
L 307.007372 164.670874 
L 307.662984 164.042409 
L 308.448639 163.413944 
L 309.344023 162.78548 
L 310.326827 162.157015 
L 311.373649 161.528551 
L 312.460896 160.900086 
L 313.565629 160.271621 
L 314.666304 159.643157 
L 315.743385 159.014692 
L 316.779809 158.386227 
L 317.761278 157.757763 
L 318.676396 157.129298 
L 319.516651 156.500833 
L 320.276261 155.872369 
L 320.95192 155.243904 
L 321.542456 154.615439 
L 322.048447 153.986975 
L 322.471814 153.35851 
L 322.815427 152.730045 
L 323.082738 152.101581 
L 323.277468 151.473116 
L 323.403361 150.844652 
L 323.464004 150.216187 
L 323.462731 149.587722 
L 323.402598 148.959258 
L 323.286427 148.330793 
L 323.116907 147.702328 
L 322.896748 147.073864 
L 322.628859 146.445399 
L 322.316545 145.816934 
L 321.963699 145.18847 
L 321.574971 144.560005 
L 321.155909 143.93154 
L 320.713032 143.303076 
L 320.253859 142.674611 
L 319.786849 142.046146 
L 319.321278 141.417682 
L 318.867038 140.789217 
L 318.434372 140.160753 
L 318.033553 139.532288 
L 317.674529 138.903823 
L 317.366547 138.275359 
L 317.117785 137.646894 
L 316.935009 137.018429 
L 316.823284 136.389965 
L 316.785747 135.7615 
L 332.90698 135.7615 
L 332.90698 135.7615 
L 332.869444 136.389965 
L 332.757718 137.018429 
L 332.574943 137.646894 
L 332.326181 138.275359 
L 332.018199 138.903823 
L 331.659174 139.532288 
L 331.258356 140.160753 
L 330.825689 140.789217 
L 330.371449 141.417682 
L 329.905878 142.046146 
L 329.438868 142.674611 
L 328.979695 143.303076 
L 328.536819 143.93154 
L 328.117756 144.560005 
L 327.729029 145.18847 
L 327.376182 145.816934 
L 327.063868 146.445399 
L 326.79598 147.073864 
L 326.575821 147.702328 
L 326.406301 148.330793 
L 326.290129 148.959258 
L 326.229996 149.587722 
L 326.228724 150.216187 
L 326.289367 150.844652 
L 326.415259 151.473116 
L 326.60999 152.101581 
L 326.8773 152.730045 
L 327.220913 153.35851 
L 327.644281 153.986975 
L 328.150272 154.615439 
L 328.740808 155.243904 
L 329.416467 155.872369 
L 330.176077 156.500833 
L 331.016331 157.129298 
L 331.931449 157.757763 
L 332.912918 158.386227 
L 333.949342 159.014692 
L 335.026423 159.643157 
L 336.127098 160.271621 
L 337.231831 160.900086 
L 338.319079 161.528551 
L 339.3659 162.157015 
L 340.348704 162.78548 
L 341.244089 163.413944 
L 342.029744 164.042409 
L 342.685355 164.670874 
L 343.193466 165.299338 
L 343.540244 165.927803 
L 343.716102 166.556268 
L 343.716136 167.184732 
L 343.540352 167.813197 
L 343.193668 168.441662 
L 342.685688 169.070126 
L 342.030267 169.698591 
L 341.24489 170.327056 
L 340.349913 170.95552 
L 339.367703 171.583985 
L 338.321739 172.212449 
L 337.235719 172.840914 
L 336.132726 173.469379 
L 335.034494 174.097843 
L 333.960809 174.726308 
L 332.929057 175.354773 
L 331.953953 175.983237 
L 331.047416 176.611702 
L 330.218616 177.240167 
L 329.474138 177.868631 
L 328.818266 178.497096 
L 328.253335 179.125561 
L 327.780136 179.754025 
L 327.398324 180.38249 
L 327.106818 181.010955 
L 326.904152 181.639419 
L 326.788759 182.267884 
L 326.759181 182.896348 
L 326.814182 183.524813 
L 326.952765 184.153278 
L 327.174094 184.781742 
L 327.477338 185.410207 
L 327.861425 186.038672 
L 328.324753 186.667136 
L 328.864862 187.295601 
L 329.478093 187.924066 
L 330.159271 188.55253 
L 330.901429 189.180995 
L 331.695603 189.80946 
L 332.53073 190.437924 
L 333.393656 191.066389 
L 334.269274 191.694854 
L 335.140799 192.323318 
L 335.990174 192.951783 
L 336.798588 193.580247 
L 337.547098 194.208712 
L 338.217311 194.837177 
L 338.792098 195.465641 
L 339.256288 196.094106 
L 339.597322 196.722571 
L 339.805796 197.351035 
L 339.875885 197.9795 
z
" clip-path="url(#p006acf79e1)" style="fill: #1f77b4; fill-opacity: 0.3"/>
   </g>
   <g id="PolyCollection_5">
    <path d="M 407.159374 229.0885 
L 393.491535 229.0885 
L 393.564402 227.831571 
L 393.788502 226.574641 
L 394.143575 225.317712 
L 394.598721 224.060783 
L 395.114764 222.803854 
L 395.647098 221.546924 
L 396.148604 220.289995 
L 396.572328 219.033066 
L 396.873735 217.776136 
L 397.012563 216.519207 
L 396.954429 215.262278 
L 396.672425 214.005348 
L 396.148931 212.748419 
L 395.377715 211.49149 
L 394.366235 210.234561 
L 393.137771 208.977631 
L 391.732894 207.720702 
L 390.209631 206.463773 
L 388.641778 205.206843 
L 387.115056 203.949914 
L 385.721103 202.692985 
L 384.549797 201.436056 
L 383.68073 200.179126 
L 383.174985 198.922197 
L 383.068391 197.665268 
L 383.367299 196.408338 
L 384.047526 195.151409 
L 385.056596 193.89448 
L 386.318877 192.637551 
L 387.742754 191.380621 
L 389.228739 190.123692 
L 390.677372 188.866763 
L 391.996004 187.609833 
L 393.103902 186.352904 
L 393.935564 185.095975 
L 394.442492 183.839045 
L 394.59396 182.582116 
L 394.377307 181.325187 
L 393.798218 180.068258 
L 392.881134 178.811328 
L 391.669624 177.554399 
L 390.226244 176.29747 
L 388.631281 175.04054 
L 386.979787 173.783611 
L 385.376546 172.526682 
L 383.929058 171.269753 
L 382.739025 170.012823 
L 381.893325 168.755894 
L 381.455682 167.498965 
L 381.460296 166.242035 
L 381.90848 164.985106 
L 382.768885 163.728177 
L 383.981315 162.471247 
L 385.46355 161.214318 
L 387.120125 159.957389 
L 388.851765 158.70046 
L 390.56418 157.44353 
L 392.175168 156.186601 
L 393.619405 154.929672 
L 394.850717 153.672742 
L 395.842129 152.415813 
L 396.584205 151.158884 
L 397.082388 149.901955 
L 397.35399 148.645025 
L 397.425307 147.388096 
L 397.329144 146.131167 
L 397.102778 144.874237 
L 396.786236 143.617308 
L 396.420676 142.360379 
L 396.046685 141.103449 
L 395.702375 139.84652 
L 395.421351 138.589591 
L 395.230676 137.332662 
L 395.149141 136.075732 
L 395.186098 134.818803 
L 395.341108 133.561874 
L 395.604513 132.304944 
L 395.95891 131.048015 
L 396.381322 129.791086 
L 396.84579 128.534157 
L 397.326011 127.277227 
L 397.797698 126.020298 
L 398.240395 124.763369 
L 398.638596 123.506439 
L 398.982159 122.24951 
L 399.266091 120.992581 
L 399.489882 119.735652 
L 399.656576 118.478722 
L 399.771765 117.221793 
L 399.842653 115.964864 
L 399.877273 114.707934 
L 399.883891 113.451005 
L 399.870578 112.194076 
L 399.844908 110.937146 
L 399.813748 109.680217 
L 399.783074 108.423288 
L 399.75782 107.166359 
L 399.741747 105.909429 
L 399.737352 104.6525 
L 400.913557 104.6525 
L 400.913557 104.6525 
L 400.909162 105.909429 
L 400.89309 107.166359 
L 400.867836 108.423288 
L 400.837161 109.680217 
L 400.806001 110.937146 
L 400.780332 112.194076 
L 400.767018 113.451005 
L 400.773636 114.707934 
L 400.808256 115.964864 
L 400.879144 117.221793 
L 400.994334 118.478722 
L 401.161028 119.735652 
L 401.384819 120.992581 
L 401.66875 122.24951 
L 402.012313 123.506439 
L 402.410514 124.763369 
L 402.853211 126.020298 
L 403.324898 127.277227 
L 403.805119 128.534157 
L 404.269587 129.791086 
L 404.691999 131.048015 
L 405.046396 132.304944 
L 405.309801 133.561874 
L 405.464811 134.818803 
L 405.501768 136.075732 
L 405.420233 137.332662 
L 405.229558 138.589591 
L 404.948534 139.84652 
L 404.604225 141.103449 
L 404.230233 142.360379 
L 403.864673 143.617308 
L 403.548131 144.874237 
L 403.321765 146.131167 
L 403.225602 147.388096 
L 403.296919 148.645025 
L 403.568521 149.901955 
L 404.066705 151.158884 
L 404.80878 152.415813 
L 405.800192 153.672742 
L 407.031505 154.929672 
L 408.475741 156.186601 
L 410.086729 157.44353 
L 411.799144 158.70046 
L 413.530784 159.957389 
L 415.187359 161.214318 
L 416.669594 162.471247 
L 417.882024 163.728177 
L 418.742429 164.985106 
L 419.190613 166.242035 
L 419.195227 167.498965 
L 418.757584 168.755894 
L 417.911885 170.012823 
L 416.721851 171.269753 
L 415.274363 172.526682 
L 413.671122 173.783611 
L 412.019628 175.04054 
L 410.424666 176.29747 
L 408.981285 177.554399 
L 407.769775 178.811328 
L 406.852691 180.068258 
L 406.273602 181.325187 
L 406.056949 182.582116 
L 406.208417 183.839045 
L 406.715346 185.095975 
L 407.547007 186.352904 
L 408.654905 187.609833 
L 409.973537 188.866763 
L 411.42217 190.123692 
L 412.908155 191.380621 
L 414.332032 192.637551 
L 415.594313 193.89448 
L 416.603383 195.151409 
L 417.28361 196.408338 
L 417.582518 197.665268 
L 417.475924 198.922197 
L 416.970179 200.179126 
L 416.101112 201.436056 
L 414.929806 202.692985 
L 413.535854 203.949914 
L 412.009131 205.206843 
L 410.441279 206.463773 
L 408.918015 207.720702 
L 407.513138 208.977631 
L 406.284674 210.234561 
L 405.273194 211.49149 
L 404.501978 212.748419 
L 403.978484 214.005348 
L 403.69648 215.262278 
L 403.638346 216.519207 
L 403.777174 217.776136 
L 404.078581 219.033066 
L 404.502305 220.289995 
L 405.003812 221.546924 
L 405.536145 222.803854 
L 406.052188 224.060783 
L 406.507334 225.317712 
L 406.862407 226.574641 
L 407.086507 227.831571 
L 407.159374 229.0885 
z
" clip-path="url(#p006acf79e1)" style="fill: #1f77b4; fill-opacity: 0.3"/>
   </g>
   <g id="PolyCollection_6">
    <path d="M 476.027469 291.3065 
L 475.581622 291.3065 
L 475.577872 289.421106 
L 475.576165 287.535712 
L 475.571668 285.650318 
L 475.557737 283.764924 
L 475.52637 281.87953 
L 475.469012 279.994136 
L 475.377726 278.108742 
L 475.246686 276.223348 
L 475.073836 274.337955 
L 474.862431 272.452561 
L 474.622027 270.567167 
L 474.368498 268.681773 
L 474.122699 266.796379 
L 473.907731 264.910985 
L 473.745085 263.025591 
L 473.650317 261.140197 
L 473.62913 259.254803 
L 473.674693 257.369409 
L 473.766815 255.484015 
L 473.873189 253.598621 
L 473.952578 251.713227 
L 473.959544 249.827833 
L 473.850293 247.942439 
L 473.589127 246.057045 
L 473.154994 244.171652 
L 472.547354 242.286258 
L 471.790295 240.400864 
L 470.933579 238.51547 
L 470.049398 236.630076 
L 469.224241 234.744682 
L 468.546378 232.859288 
L 468.090764 230.973894 
L 467.904204 229.0885 
L 467.993939 227.203106 
L 468.322247 225.317712 
L 468.808331 223.432318 
L 469.337208 221.546924 
L 469.774067 219.66153 
L 469.981899 217.776136 
L 469.840284 215.890742 
L 469.263493 214.005348 
L 468.216246 212.119955 
L 466.725239 210.234561 
L 464.884062 208.349167 
L 462.848974 206.463773 
L 460.82373 204.578379 
L 459.033618 202.692985 
L 457.691708 200.807591 
L 456.963121 198.922197 
L 456.934773 197.036803 
L 457.597522 195.151409 
L 458.845068 193.266015 
L 460.489879 191.380621 
L 462.292462 189.495227 
L 463.997646 187.609833 
L 465.370985 185.724439 
L 466.229706 183.839045 
L 466.464868 181.953652 
L 466.053478 180.068258 
L 465.060461 178.182864 
L 463.630699 176.29747 
L 461.971364 174.412076 
L 460.325305 172.526682 
L 458.93773 170.641288 
L 458.020472 168.755894 
L 457.719904 166.8705 
L 458.094953 164.985106 
L 459.110138 163.099712 
L 460.645236 161.214318 
L 462.519202 159.328924 
L 464.52263 157.44353 
L 466.451532 155.558136 
L 468.135832 153.672742 
L 469.458309 151.787348 
L 470.362634 149.901955 
L 470.851647 148.016561 
L 470.978417 146.131167 
L 470.832816 144.245773 
L 470.525913 142.360379 
L 470.173881 140.474985 
L 469.882817 138.589591 
L 469.735929 136.704197 
L 469.784569 134.818803 
L 470.04442 132.933409 
L 470.497393 131.048015 
L 471.098731 129.162621 
L 471.787673 127.277227 
L 472.499322 125.391833 
L 473.175269 123.506439 
L 473.771142 121.621045 
L 474.260227 119.735652 
L 474.633372 117.850258 
L 474.896135 115.964864 
L 475.064454 114.07947 
L 475.159999 112.194076 
L 475.206054 110.308682 
L 475.224326 108.423288 
L 475.232801 106.537894 
L 475.244581 104.6525 
L 476.36451 104.6525 
L 476.36451 104.6525 
L 476.37629 106.537894 
L 476.384765 108.423288 
L 476.403037 110.308682 
L 476.449092 112.194076 
L 476.544637 114.07947 
L 476.712955 115.964864 
L 476.975719 117.850258 
L 477.348864 119.735652 
L 477.837949 121.621045 
L 478.433822 123.506439 
L 479.109769 125.391833 
L 479.821417 127.277227 
L 480.51036 129.162621 
L 481.111698 131.048015 
L 481.564671 132.933409 
L 481.824521 134.818803 
L 481.873162 136.704197 
L 481.726274 138.589591 
L 481.43521 140.474985 
L 481.083178 142.360379 
L 480.776275 144.245773 
L 480.630674 146.131167 
L 480.757444 148.016561 
L 481.246457 149.901955 
L 482.150782 151.787348 
L 483.473259 153.672742 
L 485.157559 155.558136 
L 487.08646 157.44353 
L 489.089889 159.328924 
L 490.963855 161.214318 
L 492.498953 163.099712 
L 493.514138 164.985106 
L 493.889187 166.8705 
L 493.588619 168.755894 
L 492.671361 170.641288 
L 491.283786 172.526682 
L 489.637726 174.412076 
L 487.978392 176.29747 
L 486.54863 178.182864 
L 485.555613 180.068258 
L 485.144223 181.953652 
L 485.379385 183.839045 
L 486.238106 185.724439 
L 487.611445 187.609833 
L 489.316629 189.495227 
L 491.119212 191.380621 
L 492.764023 193.266015 
L 494.011569 195.151409 
L 494.674318 197.036803 
L 494.64597 198.922197 
L 493.917383 200.807591 
L 492.575472 202.692985 
L 490.785361 204.578379 
L 488.760117 206.463773 
L 486.725029 208.349167 
L 484.883852 210.234561 
L 483.392845 212.119955 
L 482.345598 214.005348 
L 481.768807 215.890742 
L 481.627192 217.776136 
L 481.835024 219.66153 
L 482.271883 221.546924 
L 482.80076 223.432318 
L 483.286844 225.317712 
L 483.615152 227.203106 
L 483.704887 229.0885 
L 483.518327 230.973894 
L 483.062713 232.859288 
L 482.38485 234.744682 
L 481.559693 236.630076 
L 480.675512 238.51547 
L 479.818796 240.400864 
L 479.061737 242.286258 
L 478.454097 244.171652 
L 478.019964 246.057045 
L 477.758798 247.942439 
L 477.649547 249.827833 
L 477.656513 251.713227 
L 477.735902 253.598621 
L 477.842276 255.484015 
L 477.934398 257.369409 
L 477.979961 259.254803 
L 477.958774 261.140197 
L 477.864006 263.025591 
L 477.70136 264.910985 
L 477.486392 266.796379 
L 477.240593 268.681773 
L 476.987064 270.567167 
L 476.74666 272.452561 
L 476.535255 274.337955 
L 476.362405 276.223348 
L 476.231365 278.108742 
L 476.140079 279.994136 
L 476.082721 281.87953 
L 476.051354 283.764924 
L 476.037423 285.650318 
L 476.032926 287.535712 
L 476.031218 289.421106 
L 476.027469 291.3065 
z
" clip-path="url(#p006acf79e1)" style="fill: #1f77b4; fill-opacity: 0.3"/>
   </g>
   <g id="PolyCollection_7">
    <path d="M 569.460901 291.3065 
L 533.106371 291.3065 
L 533.298986 290.363803 
L 533.864833 289.421106 
L 534.768513 288.478409 
L 535.955077 287.535712 
L 537.355449 286.593015 
L 538.892888 285.650318 
L 540.489632 284.707621 
L 542.072866 283.764924 
L 543.579362 282.822227 
L 544.958365 281.87953 
L 546.172615 280.936833 
L 547.197651 279.994136 
L 548.019779 279.051439 
L 548.633206 278.108742 
L 549.036907 277.166045 
L 549.231753 276.223348 
L 549.218352 275.280652 
L 548.995911 274.337955 
L 548.562293 273.395258 
L 547.915272 272.452561 
L 547.054802 271.509864 
L 545.986007 270.567167 
L 544.722414 269.62447 
L 543.288902 268.681773 
L 541.72378 267.739076 
L 540.079477 266.796379 
L 538.421453 265.853682 
L 536.82518 264.910985 
L 535.371309 263.968288 
L 534.139455 263.025591 
L 533.201297 262.082894 
L 532.613856 261.140197 
L 532.413864 260.1975 
L 532.614024 259.254803 
L 533.201707 258.312106 
L 534.140278 257.369409 
L 535.372871 256.426712 
L 536.828056 255.484015 
L 538.426626 254.541318 
L 540.08858 253.598621 
L 541.739462 252.655924 
L 543.315345 251.713227 
L 544.766061 250.77053 
L 546.05653 249.827833 
L 547.166348 248.885136 
L 548.087979 247.942439 
L 548.824056 246.999742 
L 549.38428 246.057045 
L 549.782405 245.114348 
L 550.033677 244.171652 
L 550.15296 243.228955 
L 550.153666 242.286258 
L 550.047481 241.343561 
L 549.84476 240.400864 
L 549.555429 239.458167 
L 549.190144 238.51547 
L 548.761469 237.572773 
L 548.284822 236.630076 
L 547.778984 235.687379 
L 547.266023 234.744682 
L 546.770569 233.801985 
L 546.318476 232.859288 
L 545.935014 231.916591 
L 545.642809 230.973894 
L 545.459802 230.031197 
L 545.397546 229.0885 
L 545.460056 228.145803 
L 545.643426 227.203106 
L 545.936255 226.260409 
L 546.320829 225.317712 
L 546.774902 224.375015 
L 547.273819 223.432318 
L 547.792704 222.489621 
L 548.308455 221.546924 
L 548.801319 220.604227 
L 549.255921 219.66153 
L 549.661711 218.718833 
L 550.012864 217.776136 
L 550.307759 216.833439 
L 550.548155 215.890742 
L 550.738249 214.948045 
L 550.883728 214.005348 
L 550.990937 213.062652 
L 551.066219 212.119955 
L 551.115455 211.177258 
L 551.143813 210.234561 
L 551.155654 209.291864 
L 551.154574 208.349167 
L 551.14353 207.40647 
L 551.124999 206.463773 
L 551.101142 205.521076 
L 551.073943 204.578379 
L 551.045296 203.635682 
L 551.017043 202.692985 
L 550.990959 201.750288 
L 550.968687 200.807591 
L 550.951654 199.864894 
L 550.940971 198.922197 
L 550.937353 197.9795 
L 551.62992 197.9795 
L 551.62992 197.9795 
L 551.626301 198.922197 
L 551.615619 199.864894 
L 551.598586 200.807591 
L 551.576314 201.750288 
L 551.550229 202.692985 
L 551.521977 203.635682 
L 551.49333 204.578379 
L 551.466131 205.521076 
L 551.442274 206.463773 
L 551.423743 207.40647 
L 551.412699 208.349167 
L 551.411619 209.291864 
L 551.42346 210.234561 
L 551.451818 211.177258 
L 551.501054 212.119955 
L 551.576335 213.062652 
L 551.683545 214.005348 
L 551.829024 214.948045 
L 552.019118 215.890742 
L 552.259514 216.833439 
L 552.554408 217.776136 
L 552.905562 218.718833 
L 553.311351 219.66153 
L 553.765954 220.604227 
L 554.258818 221.546924 
L 554.774569 222.489621 
L 555.293454 223.432318 
L 555.79237 224.375015 
L 556.246444 225.317712 
L 556.631018 226.260409 
L 556.923846 227.203106 
L 557.107217 228.145803 
L 557.169727 229.0885 
L 557.10747 230.031197 
L 556.924464 230.973894 
L 556.632258 231.916591 
L 556.248797 232.859288 
L 555.796704 233.801985 
L 555.30125 234.744682 
L 554.788289 235.687379 
L 554.282451 236.630076 
L 553.805804 237.572773 
L 553.377129 238.51547 
L 553.011843 239.458167 
L 552.722512 240.400864 
L 552.519791 241.343561 
L 552.413606 242.286258 
L 552.414313 243.228955 
L 552.533596 244.171652 
L 552.784868 245.114348 
L 553.182993 246.057045 
L 553.743216 246.999742 
L 554.479293 247.942439 
L 555.400925 248.885136 
L 556.510742 249.827833 
L 557.801212 250.77053 
L 559.251928 251.713227 
L 560.827811 252.655924 
L 562.478692 253.598621 
L 564.140647 254.541318 
L 565.739217 255.484015 
L 567.194402 256.426712 
L 568.426994 257.369409 
L 569.365566 258.312106 
L 569.953249 259.254803 
L 570.153409 260.1975 
L 569.953417 261.140197 
L 569.365976 262.082894 
L 568.427818 263.025591 
L 567.195964 263.968288 
L 565.742092 264.910985 
L 564.14582 265.853682 
L 562.487796 266.796379 
L 560.843492 267.739076 
L 559.27837 268.681773 
L 557.844858 269.62447 
L 556.581265 270.567167 
L 555.51247 271.509864 
L 554.652001 272.452561 
L 554.00498 273.395258 
L 553.571362 274.337955 
L 553.34892 275.280652 
L 553.335519 276.223348 
L 553.530366 277.166045 
L 553.934067 278.108742 
L 554.547494 279.051439 
L 555.369622 279.994136 
L 556.394658 280.936833 
L 557.608907 281.87953 
L 558.987911 282.822227 
L 560.494407 283.764924 
L 562.077641 284.707621 
L 563.674385 285.650318 
L 565.211824 286.593015 
L 566.612196 287.535712 
L 567.79876 288.478409 
L 568.70244 289.421106 
L 569.268287 290.363803 
L 569.460901 291.3065 
z
" clip-path="url(#p006acf79e1)" style="fill: #1f77b4; fill-opacity: 0.3"/>
   </g>
   <g id="PolyCollection_8">
    <path d="M 642.274326 291.3065 
L 611.251128 291.3065 
L 611.427721 290.363803 
L 611.945596 289.421106 
L 612.770077 288.478409 
L 613.847628 287.535712 
L 615.111529 286.593015 
L 616.488558 285.650318 
L 617.905744 284.707621 
L 619.296258 283.764924 
L 620.6038 282.822227 
L 621.785057 281.87953 
L 622.8102 280.936833 
L 623.661628 279.994136 
L 624.331427 279.051439 
L 624.81809 278.108742 
L 625.123091 277.166045 
L 625.247852 276.223348 
L 625.191548 275.280652 
L 624.950047 274.337955 
L 624.516164 273.395258 
L 623.881238 272.452561 
L 623.037881 271.509864 
L 621.9836 270.567167 
L 620.724797 269.62447 
L 619.280568 268.681773 
L 617.685592 267.739076 
L 615.991479 266.796379 
L 614.266012 265.853682 
L 612.59004 264.910985 
L 611.052062 263.968288 
L 609.740986 263.025591 
L 608.737883 262.082894 
L 608.107821 261.140197 
L 607.892955 260.1975 
L 608.107885 259.254803 
L 608.738041 258.312106 
L 609.741318 257.369409 
L 611.05272 256.426712 
L 612.591307 255.484015 
L 614.268391 254.541318 
L 615.995846 253.598621 
L 617.693425 252.655924 
L 619.294298 251.713227 
L 620.748321 250.77053 
L 622.022988 249.827833 
L 623.102341 248.885136 
L 623.984339 247.942439 
L 624.677335 246.999742 
L 625.196286 246.057045 
L 625.559235 245.114348 
L 625.784451 244.171652 
L 625.888461 243.228955 
L 625.885039 242.286258 
L 625.785097 241.343561 
L 625.597328 240.400864 
L 625.329389 239.458167 
L 624.989361 238.51547 
L 624.587225 237.572773 
L 624.136086 236.630076 
L 623.652905 235.687379 
L 623.158577 234.744682 
L 622.67726 233.801985 
L 622.234983 232.859288 
L 621.857679 231.916591 
L 621.568891 230.973894 
L 621.387472 230.031197 
L 621.325624 229.0885 
L 621.387589 228.145803 
L 621.569185 227.203106 
L 621.858295 226.260409 
L 622.236205 225.317712 
L 622.679613 224.375015 
L 623.162996 223.432318 
L 623.661015 222.489621 
L 624.150632 221.546924 
L 624.612724 220.604227 
L 625.033047 219.66153 
L 625.40254 218.718833 
L 625.71704 217.776136 
L 625.976571 216.833439 
L 626.184356 215.890742 
L 626.345762 214.948045 
L 626.467298 214.005348 
L 626.555776 213.062652 
L 626.617688 212.119955 
L 626.658811 211.177258 
L 626.684011 210.234561 
L 626.697214 209.291864 
L 626.701483 208.349167 
L 626.69917 207.40647 
L 626.692088 206.463773 
L 626.681677 205.521076 
L 626.669146 204.578379 
L 626.65557 203.635682 
L 626.641952 202.692985 
L 626.629239 201.750288 
L 626.618299 200.807591 
L 626.609887 199.864894 
L 626.604592 198.922197 
L 626.602794 197.9795 
L 626.922661 197.9795 
L 626.922661 197.9795 
L 626.920862 198.922197 
L 626.915568 199.864894 
L 626.907156 200.807591 
L 626.896216 201.750288 
L 626.883502 202.692985 
L 626.869885 203.635682 
L 626.856309 204.578379 
L 626.843777 205.521076 
L 626.833366 206.463773 
L 626.826284 207.40647 
L 626.823972 208.349167 
L 626.828241 209.291864 
L 626.841443 210.234561 
L 626.866644 211.177258 
L 626.907767 212.119955 
L 626.969679 213.062652 
L 627.058157 214.005348 
L 627.179693 214.948045 
L 627.341099 215.890742 
L 627.548884 216.833439 
L 627.808414 217.776136 
L 628.122915 218.718833 
L 628.492407 219.66153 
L 628.91273 220.604227 
L 629.374822 221.546924 
L 629.864439 222.489621 
L 630.362458 223.432318 
L 630.845842 224.375015 
L 631.28925 225.317712 
L 631.667159 226.260409 
L 631.956269 227.203106 
L 632.137866 228.145803 
L 632.19983 229.0885 
L 632.137983 230.031197 
L 631.956564 230.973894 
L 631.667776 231.916591 
L 631.290472 232.859288 
L 630.848194 233.801985 
L 630.366877 234.744682 
L 629.87255 235.687379 
L 629.389369 236.630076 
L 628.93823 237.572773 
L 628.536094 238.51547 
L 628.196066 239.458167 
L 627.928127 240.400864 
L 627.740358 241.343561 
L 627.640416 242.286258 
L 627.636993 243.228955 
L 627.741003 244.171652 
L 627.966219 245.114348 
L 628.329168 246.057045 
L 628.84812 246.999742 
L 629.541116 247.942439 
L 630.423113 248.885136 
L 631.502466 249.827833 
L 632.777134 250.77053 
L 634.231156 251.713227 
L 635.832029 252.655924 
L 637.529609 253.598621 
L 639.257063 254.541318 
L 640.934148 255.484015 
L 642.472734 256.426712 
L 643.784136 257.369409 
L 644.787413 258.312106 
L 645.41757 259.254803 
L 645.6325 260.1975 
L 645.417633 261.140197 
L 644.787572 262.082894 
L 643.784468 263.025591 
L 642.473392 263.968288 
L 640.935414 264.910985 
L 639.259443 265.853682 
L 637.533976 266.796379 
L 635.839862 267.739076 
L 634.244887 268.681773 
L 632.800657 269.62447 
L 631.541855 270.567167 
L 630.487574 271.509864 
L 629.644217 272.452561 
L 629.00929 273.395258 
L 628.575407 274.337955 
L 628.333906 275.280652 
L 628.277602 276.223348 
L 628.402363 277.166045 
L 628.707364 278.108742 
L 629.194027 279.051439 
L 629.863827 279.994136 
L 630.715255 280.936833 
L 631.740397 281.87953 
L 632.921655 282.822227 
L 634.229197 283.764924 
L 635.619711 284.707621 
L 637.036896 285.650318 
L 638.413926 286.593015 
L 639.677826 287.535712 
L 640.755378 288.478409 
L 641.579858 289.421106 
L 642.097734 290.363803 
L 642.274326 291.3065 
z
" clip-path="url(#p006acf79e1)" style="fill: #1f77b4; fill-opacity: 0.3"/>
   </g>
   <g id="PolyCollection_9">
    <path d="M 721.111591 322.4155 
L 683.372045 322.4155 
L 683.372045 322.4155 
L 683.372045 322.4155 
L 683.372045 322.4155 
L 683.372045 322.4155 
L 683.372045 322.4155 
L 683.372045 322.4155 
L 683.372045 322.4155 
L 683.372045 322.4155 
L 683.372045 322.4155 
L 683.372045 322.4155 
L 683.372045 322.4155 
L 683.372045 322.4155 
L 683.372045 322.4155 
L 683.372045 322.4155 
L 683.372045 322.4155 
L 683.372045 322.4155 
L 683.372045 322.4155 
L 683.372045 322.4155 
L 683.372045 322.4155 
L 683.372045 322.4155 
L 683.372045 322.4155 
L 683.372045 322.4155 
L 683.372045 322.4155 
L 683.372045 322.4155 
L 683.372045 322.4155 
L 683.372045 322.4155 
L 683.372045 322.4155 
L 683.372045 322.4155 
L 683.372045 322.4155 
L 683.372045 322.4155 
L 683.372045 322.4155 
L 683.372045 322.4155 
L 683.372045 322.4155 
L 683.372045 322.4155 
L 683.372045 322.4155 
L 683.372045 322.4155 
L 683.372045 322.4155 
L 683.372045 322.4155 
L 683.372045 322.4155 
L 683.372045 322.4155 
L 683.372045 322.4155 
L 683.372045 322.4155 
L 683.372045 322.4155 
L 683.372045 322.4155 
L 683.372045 322.4155 
L 683.372045 322.4155 
L 683.372045 322.4155 
L 683.372045 322.4155 
L 683.372045 322.4155 
L 683.372045 322.4155 
L 683.372045 322.4155 
L 683.372045 322.4155 
L 683.372045 322.4155 
L 683.372045 322.4155 
L 683.372045 322.4155 
L 683.372045 322.4155 
L 683.372045 322.4155 
L 683.372045 322.4155 
L 683.372045 322.4155 
L 683.372045 322.4155 
L 683.372045 322.4155 
L 683.372045 322.4155 
L 683.372045 322.4155 
L 683.372045 322.4155 
L 683.372045 322.4155 
L 683.372045 322.4155 
L 683.372045 322.4155 
L 683.372045 322.4155 
L 683.372045 322.4155 
L 683.372045 322.4155 
L 683.372045 322.4155 
L 683.372045 322.4155 
L 683.372045 322.4155 
L 683.372045 322.4155 
L 683.372045 322.4155 
L 683.372045 322.4155 
L 683.372045 322.4155 
L 683.372045 322.4155 
L 683.372045 322.4155 
L 683.372045 322.4155 
L 683.372045 322.4155 
L 683.372045 322.4155 
L 683.372045 322.4155 
L 683.372045 322.4155 
L 683.372045 322.4155 
L 683.372045 322.4155 
L 683.372045 322.4155 
L 683.372045 322.4155 
L 683.372045 322.4155 
L 683.372045 322.4155 
L 683.372045 322.4155 
L 683.372045 322.4155 
L 683.372045 322.4155 
L 683.372045 322.4155 
L 683.372045 322.4155 
L 683.372045 322.4155 
L 683.372045 322.4155 
L 683.372045 322.4155 
L 683.372045 322.4155 
L 721.111591 322.4155 
L 721.111591 322.4155 
L 721.111591 322.4155 
L 721.111591 322.4155 
L 721.111591 322.4155 
L 721.111591 322.4155 
L 721.111591 322.4155 
L 721.111591 322.4155 
L 721.111591 322.4155 
L 721.111591 322.4155 
L 721.111591 322.4155 
L 721.111591 322.4155 
L 721.111591 322.4155 
L 721.111591 322.4155 
L 721.111591 322.4155 
L 721.111591 322.4155 
L 721.111591 322.4155 
L 721.111591 322.4155 
L 721.111591 322.4155 
L 721.111591 322.4155 
L 721.111591 322.4155 
L 721.111591 322.4155 
L 721.111591 322.4155 
L 721.111591 322.4155 
L 721.111591 322.4155 
L 721.111591 322.4155 
L 721.111591 322.4155 
L 721.111591 322.4155 
L 721.111591 322.4155 
L 721.111591 322.4155 
L 721.111591 322.4155 
L 721.111591 322.4155 
L 721.111591 322.4155 
L 721.111591 322.4155 
L 721.111591 322.4155 
L 721.111591 322.4155 
L 721.111591 322.4155 
L 721.111591 322.4155 
L 721.111591 322.4155 
L 721.111591 322.4155 
L 721.111591 322.4155 
L 721.111591 322.4155 
L 721.111591 322.4155 
L 721.111591 322.4155 
L 721.111591 322.4155 
L 721.111591 322.4155 
L 721.111591 322.4155 
L 721.111591 322.4155 
L 721.111591 322.4155 
L 721.111591 322.4155 
L 721.111591 322.4155 
L 721.111591 322.4155 
L 721.111591 322.4155 
L 721.111591 322.4155 
L 721.111591 322.4155 
L 721.111591 322.4155 
L 721.111591 322.4155 
L 721.111591 322.4155 
L 721.111591 322.4155 
L 721.111591 322.4155 
L 721.111591 322.4155 
L 721.111591 322.4155 
L 721.111591 322.4155 
L 721.111591 322.4155 
L 721.111591 322.4155 
L 721.111591 322.4155 
L 721.111591 322.4155 
L 721.111591 322.4155 
L 721.111591 322.4155 
L 721.111591 322.4155 
L 721.111591 322.4155 
L 721.111591 322.4155 
L 721.111591 322.4155 
L 721.111591 322.4155 
L 721.111591 322.4155 
L 721.111591 322.4155 
L 721.111591 322.4155 
L 721.111591 322.4155 
L 721.111591 322.4155 
L 721.111591 322.4155 
L 721.111591 322.4155 
L 721.111591 322.4155 
L 721.111591 322.4155 
L 721.111591 322.4155 
L 721.111591 322.4155 
L 721.111591 322.4155 
L 721.111591 322.4155 
L 721.111591 322.4155 
L 721.111591 322.4155 
L 721.111591 322.4155 
L 721.111591 322.4155 
L 721.111591 322.4155 
L 721.111591 322.4155 
L 721.111591 322.4155 
L 721.111591 322.4155 
L 721.111591 322.4155 
L 721.111591 322.4155 
L 721.111591 322.4155 
L 721.111591 322.4155 
L 721.111591 322.4155 
L 721.111591 322.4155 
z
" clip-path="url(#p006acf79e1)" style="fill: #1f77b4; fill-opacity: 0.3"/>
   </g>
   <g id="PolyCollection_10">
    <path d="M 796.590682 322.4155 
L 758.851136 322.4155 
L 758.851136 322.4155 
L 758.851136 322.4155 
L 758.851136 322.4155 
L 758.851136 322.4155 
L 758.851136 322.4155 
L 758.851136 322.4155 
L 758.851136 322.4155 
L 758.851136 322.4155 
L 758.851136 322.4155 
L 758.851136 322.4155 
L 758.851136 322.4155 
L 758.851136 322.4155 
L 758.851136 322.4155 
L 758.851136 322.4155 
L 758.851136 322.4155 
L 758.851136 322.4155 
L 758.851136 322.4155 
L 758.851136 322.4155 
L 758.851136 322.4155 
L 758.851136 322.4155 
L 758.851136 322.4155 
L 758.851136 322.4155 
L 758.851136 322.4155 
L 758.851136 322.4155 
L 758.851136 322.4155 
L 758.851136 322.4155 
L 758.851136 322.4155 
L 758.851136 322.4155 
L 758.851136 322.4155 
L 758.851136 322.4155 
L 758.851136 322.4155 
L 758.851136 322.4155 
L 758.851136 322.4155 
L 758.851136 322.4155 
L 758.851136 322.4155 
L 758.851136 322.4155 
L 758.851136 322.4155 
L 758.851136 322.4155 
L 758.851136 322.4155 
L 758.851136 322.4155 
L 758.851136 322.4155 
L 758.851136 322.4155 
L 758.851136 322.4155 
L 758.851136 322.4155 
L 758.851136 322.4155 
L 758.851136 322.4155 
L 758.851136 322.4155 
L 758.851136 322.4155 
L 758.851136 322.4155 
L 758.851136 322.4155 
L 758.851136 322.4155 
L 758.851136 322.4155 
L 758.851136 322.4155 
L 758.851136 322.4155 
L 758.851136 322.4155 
L 758.851136 322.4155 
L 758.851136 322.4155 
L 758.851136 322.4155 
L 758.851136 322.4155 
L 758.851136 322.4155 
L 758.851136 322.4155 
L 758.851136 322.4155 
L 758.851136 322.4155 
L 758.851136 322.4155 
L 758.851136 322.4155 
L 758.851136 322.4155 
L 758.851136 322.4155 
L 758.851136 322.4155 
L 758.851136 322.4155 
L 758.851136 322.4155 
L 758.851136 322.4155 
L 758.851136 322.4155 
L 758.851136 322.4155 
L 758.851136 322.4155 
L 758.851136 322.4155 
L 758.851136 322.4155 
L 758.851136 322.4155 
L 758.851136 322.4155 
L 758.851136 322.4155 
L 758.851136 322.4155 
L 758.851136 322.4155 
L 758.851136 322.4155 
L 758.851136 322.4155 
L 758.851136 322.4155 
L 758.851136 322.4155 
L 758.851136 322.4155 
L 758.851136 322.4155 
L 758.851136 322.4155 
L 758.851136 322.4155 
L 758.851136 322.4155 
L 758.851136 322.4155 
L 758.851136 322.4155 
L 758.851136 322.4155 
L 758.851136 322.4155 
L 758.851136 322.4155 
L 758.851136 322.4155 
L 758.851136 322.4155 
L 758.851136 322.4155 
L 758.851136 322.4155 
L 796.590682 322.4155 
L 796.590682 322.4155 
L 796.590682 322.4155 
L 796.590682 322.4155 
L 796.590682 322.4155 
L 796.590682 322.4155 
L 796.590682 322.4155 
L 796.590682 322.4155 
L 796.590682 322.4155 
L 796.590682 322.4155 
L 796.590682 322.4155 
L 796.590682 322.4155 
L 796.590682 322.4155 
L 796.590682 322.4155 
L 796.590682 322.4155 
L 796.590682 322.4155 
L 796.590682 322.4155 
L 796.590682 322.4155 
L 796.590682 322.4155 
L 796.590682 322.4155 
L 796.590682 322.4155 
L 796.590682 322.4155 
L 796.590682 322.4155 
L 796.590682 322.4155 
L 796.590682 322.4155 
L 796.590682 322.4155 
L 796.590682 322.4155 
L 796.590682 322.4155 
L 796.590682 322.4155 
L 796.590682 322.4155 
L 796.590682 322.4155 
L 796.590682 322.4155 
L 796.590682 322.4155 
L 796.590682 322.4155 
L 796.590682 322.4155 
L 796.590682 322.4155 
L 796.590682 322.4155 
L 796.590682 322.4155 
L 796.590682 322.4155 
L 796.590682 322.4155 
L 796.590682 322.4155 
L 796.590682 322.4155 
L 796.590682 322.4155 
L 796.590682 322.4155 
L 796.590682 322.4155 
L 796.590682 322.4155 
L 796.590682 322.4155 
L 796.590682 322.4155 
L 796.590682 322.4155 
L 796.590682 322.4155 
L 796.590682 322.4155 
L 796.590682 322.4155 
L 796.590682 322.4155 
L 796.590682 322.4155 
L 796.590682 322.4155 
L 796.590682 322.4155 
L 796.590682 322.4155 
L 796.590682 322.4155 
L 796.590682 322.4155 
L 796.590682 322.4155 
L 796.590682 322.4155 
L 796.590682 322.4155 
L 796.590682 322.4155 
L 796.590682 322.4155 
L 796.590682 322.4155 
L 796.590682 322.4155 
L 796.590682 322.4155 
L 796.590682 322.4155 
L 796.590682 322.4155 
L 796.590682 322.4155 
L 796.590682 322.4155 
L 796.590682 322.4155 
L 796.590682 322.4155 
L 796.590682 322.4155 
L 796.590682 322.4155 
L 796.590682 322.4155 
L 796.590682 322.4155 
L 796.590682 322.4155 
L 796.590682 322.4155 
L 796.590682 322.4155 
L 796.590682 322.4155 
L 796.590682 322.4155 
L 796.590682 322.4155 
L 796.590682 322.4155 
L 796.590682 322.4155 
L 796.590682 322.4155 
L 796.590682 322.4155 
L 796.590682 322.4155 
L 796.590682 322.4155 
L 796.590682 322.4155 
L 796.590682 322.4155 
L 796.590682 322.4155 
L 796.590682 322.4155 
L 796.590682 322.4155 
L 796.590682 322.4155 
L 796.590682 322.4155 
L 796.590682 322.4155 
L 796.590682 322.4155 
L 796.590682 322.4155 
L 796.590682 322.4155 
L 796.590682 322.4155 
z
" clip-path="url(#p006acf79e1)" style="fill: #1f77b4; fill-opacity: 0.3"/>
   </g>
   <g id="matplotlib.axis_1">
    <g id="xtick_1">
     <g id="line2d_1">
      <defs>
       <path id="m5993a0017e" d="M 0 0 
L 0 3.5 
" style="stroke: #000000; stroke-width: 0.8"/>
      </defs>
      <g>
       <use xlink:href="#m5993a0017e" x="98.409091" y="337.97" style="stroke: #000000; stroke-width: 0.8"/>
      </g>
     </g>
     <g id="text_1">
      <!-- Defector -->
      <g transform="translate(100.616591 379.51)rotate(-90)scale(0.08 -0.08)">
       <defs>
        <path id="DejaVuSans-44" d="M 1259 4147 
L 1259 519 
L 2022 519 
Q 2988 519 3436 956 
Q 3884 1394 3884 2338 
Q 3884 3275 3436 3711 
Q 2988 4147 2022 4147 
L 1259 4147 
z
M 628 4666 
L 1925 4666 
Q 3281 4666 3915 4102 
Q 4550 3538 4550 2338 
Q 4550 1131 3912 565 
Q 3275 0 1925 0 
L 628 0 
L 628 4666 
z
" transform="scale(0.015625)"/>
        <path id="DejaVuSans-65" d="M 3597 1894 
L 3597 1613 
L 953 1613 
Q 991 1019 1311 708 
Q 1631 397 2203 397 
Q 2534 397 2845 478 
Q 3156 559 3463 722 
L 3463 178 
Q 3153 47 2828 -22 
Q 2503 -91 2169 -91 
Q 1331 -91 842 396 
Q 353 884 353 1716 
Q 353 2575 817 3079 
Q 1281 3584 2069 3584 
Q 2775 3584 3186 3129 
Q 3597 2675 3597 1894 
z
M 3022 2063 
Q 3016 2534 2758 2815 
Q 2500 3097 2075 3097 
Q 1594 3097 1305 2825 
Q 1016 2553 972 2059 
L 3022 2063 
z
" transform="scale(0.015625)"/>
        <path id="DejaVuSans-66" d="M 2375 4863 
L 2375 4384 
L 1825 4384 
Q 1516 4384 1395 4259 
Q 1275 4134 1275 3809 
L 1275 3500 
L 2222 3500 
L 2222 3053 
L 1275 3053 
L 1275 0 
L 697 0 
L 697 3053 
L 147 3053 
L 147 3500 
L 697 3500 
L 697 3744 
Q 697 4328 969 4595 
Q 1241 4863 1831 4863 
L 2375 4863 
z
" transform="scale(0.015625)"/>
        <path id="DejaVuSans-63" d="M 3122 3366 
L 3122 2828 
Q 2878 2963 2633 3030 
Q 2388 3097 2138 3097 
Q 1578 3097 1268 2742 
Q 959 2388 959 1747 
Q 959 1106 1268 751 
Q 1578 397 2138 397 
Q 2388 397 2633 464 
Q 2878 531 3122 666 
L 3122 134 
Q 2881 22 2623 -34 
Q 2366 -91 2075 -91 
Q 1284 -91 818 406 
Q 353 903 353 1747 
Q 353 2603 823 3093 
Q 1294 3584 2113 3584 
Q 2378 3584 2631 3529 
Q 2884 3475 3122 3366 
z
" transform="scale(0.015625)"/>
        <path id="DejaVuSans-74" d="M 1172 4494 
L 1172 3500 
L 2356 3500 
L 2356 3053 
L 1172 3053 
L 1172 1153 
Q 1172 725 1289 603 
Q 1406 481 1766 481 
L 2356 481 
L 2356 0 
L 1766 0 
Q 1100 0 847 248 
Q 594 497 594 1153 
L 594 3053 
L 172 3053 
L 172 3500 
L 594 3500 
L 594 4494 
L 1172 4494 
z
" transform="scale(0.015625)"/>
        <path id="DejaVuSans-6f" d="M 1959 3097 
Q 1497 3097 1228 2736 
Q 959 2375 959 1747 
Q 959 1119 1226 758 
Q 1494 397 1959 397 
Q 2419 397 2687 759 
Q 2956 1122 2956 1747 
Q 2956 2369 2687 2733 
Q 2419 3097 1959 3097 
z
M 1959 3584 
Q 2709 3584 3137 3096 
Q 3566 2609 3566 1747 
Q 3566 888 3137 398 
Q 2709 -91 1959 -91 
Q 1206 -91 779 398 
Q 353 888 353 1747 
Q 353 2609 779 3096 
Q 1206 3584 1959 3584 
z
" transform="scale(0.015625)"/>
        <path id="DejaVuSans-72" d="M 2631 2963 
Q 2534 3019 2420 3045 
Q 2306 3072 2169 3072 
Q 1681 3072 1420 2755 
Q 1159 2438 1159 1844 
L 1159 0 
L 581 0 
L 581 3500 
L 1159 3500 
L 1159 2956 
Q 1341 3275 1631 3429 
Q 1922 3584 2338 3584 
Q 2397 3584 2469 3576 
Q 2541 3569 2628 3553 
L 2631 2963 
z
" transform="scale(0.015625)"/>
       </defs>
       <use xlink:href="#DejaVuSans-44"/>
       <use xlink:href="#DejaVuSans-65" x="77.001953"/>
       <use xlink:href="#DejaVuSans-66" x="138.525391"/>
       <use xlink:href="#DejaVuSans-65" x="173.730469"/>
       <use xlink:href="#DejaVuSans-63" x="235.253906"/>
       <use xlink:href="#DejaVuSans-74" x="290.234375"/>
       <use xlink:href="#DejaVuSans-6f" x="329.443359"/>
       <use xlink:href="#DejaVuSans-72" x="390.625"/>
      </g>
     </g>
    </g>
    <g id="xtick_2">
     <g id="line2d_2">
      <g>
       <use xlink:href="#m5993a0017e" x="173.888182" y="337.97" style="stroke: #000000; stroke-width: 0.8"/>
      </g>
     </g>
     <g id="text_2">
      <!-- Grudger -->
      <g transform="translate(176.095682 377.89625)rotate(-90)scale(0.08 -0.08)">
       <defs>
        <path id="DejaVuSans-47" d="M 3809 666 
L 3809 1919 
L 2778 1919 
L 2778 2438 
L 4434 2438 
L 4434 434 
Q 4069 175 3628 42 
Q 3188 -91 2688 -91 
Q 1594 -91 976 548 
Q 359 1188 359 2328 
Q 359 3472 976 4111 
Q 1594 4750 2688 4750 
Q 3144 4750 3555 4637 
Q 3966 4525 4313 4306 
L 4313 3634 
Q 3963 3931 3569 4081 
Q 3175 4231 2741 4231 
Q 1884 4231 1454 3753 
Q 1025 3275 1025 2328 
Q 1025 1384 1454 906 
Q 1884 428 2741 428 
Q 3075 428 3337 486 
Q 3600 544 3809 666 
z
" transform="scale(0.015625)"/>
        <path id="DejaVuSans-75" d="M 544 1381 
L 544 3500 
L 1119 3500 
L 1119 1403 
Q 1119 906 1312 657 
Q 1506 409 1894 409 
Q 2359 409 2629 706 
Q 2900 1003 2900 1516 
L 2900 3500 
L 3475 3500 
L 3475 0 
L 2900 0 
L 2900 538 
Q 2691 219 2414 64 
Q 2138 -91 1772 -91 
Q 1169 -91 856 284 
Q 544 659 544 1381 
z
M 1991 3584 
L 1991 3584 
z
" transform="scale(0.015625)"/>
        <path id="DejaVuSans-64" d="M 2906 2969 
L 2906 4863 
L 3481 4863 
L 3481 0 
L 2906 0 
L 2906 525 
Q 2725 213 2448 61 
Q 2172 -91 1784 -91 
Q 1150 -91 751 415 
Q 353 922 353 1747 
Q 353 2572 751 3078 
Q 1150 3584 1784 3584 
Q 2172 3584 2448 3432 
Q 2725 3281 2906 2969 
z
M 947 1747 
Q 947 1113 1208 752 
Q 1469 391 1925 391 
Q 2381 391 2643 752 
Q 2906 1113 2906 1747 
Q 2906 2381 2643 2742 
Q 2381 3103 1925 3103 
Q 1469 3103 1208 2742 
Q 947 2381 947 1747 
z
" transform="scale(0.015625)"/>
        <path id="DejaVuSans-67" d="M 2906 1791 
Q 2906 2416 2648 2759 
Q 2391 3103 1925 3103 
Q 1463 3103 1205 2759 
Q 947 2416 947 1791 
Q 947 1169 1205 825 
Q 1463 481 1925 481 
Q 2391 481 2648 825 
Q 2906 1169 2906 1791 
z
M 3481 434 
Q 3481 -459 3084 -895 
Q 2688 -1331 1869 -1331 
Q 1566 -1331 1297 -1286 
Q 1028 -1241 775 -1147 
L 775 -588 
Q 1028 -725 1275 -790 
Q 1522 -856 1778 -856 
Q 2344 -856 2625 -561 
Q 2906 -266 2906 331 
L 2906 616 
Q 2728 306 2450 153 
Q 2172 0 1784 0 
Q 1141 0 747 490 
Q 353 981 353 1791 
Q 353 2603 747 3093 
Q 1141 3584 1784 3584 
Q 2172 3584 2450 3431 
Q 2728 3278 2906 2969 
L 2906 3500 
L 3481 3500 
L 3481 434 
z
" transform="scale(0.015625)"/>
       </defs>
       <use xlink:href="#DejaVuSans-47"/>
       <use xlink:href="#DejaVuSans-72" x="77.490234"/>
       <use xlink:href="#DejaVuSans-75" x="118.603516"/>
       <use xlink:href="#DejaVuSans-64" x="181.982422"/>
       <use xlink:href="#DejaVuSans-67" x="245.458984"/>
       <use xlink:href="#DejaVuSans-65" x="308.935547"/>
       <use xlink:href="#DejaVuSans-72" x="370.458984"/>
      </g>
     </g>
    </g>
    <g id="xtick_3">
     <g id="line2d_3">
      <g>
       <use xlink:href="#m5993a0017e" x="249.367273" y="337.97" style="stroke: #000000; stroke-width: 0.8"/>
      </g>
     </g>
     <g id="text_3">
      <!-- Adaptive -->
      <g transform="translate(251.574773 380.37875)rotate(-90)scale(0.08 -0.08)">
       <defs>
        <path id="DejaVuSans-41" d="M 2188 4044 
L 1331 1722 
L 3047 1722 
L 2188 4044 
z
M 1831 4666 
L 2547 4666 
L 4325 0 
L 3669 0 
L 3244 1197 
L 1141 1197 
L 716 0 
L 50 0 
L 1831 4666 
z
" transform="scale(0.015625)"/>
        <path id="DejaVuSans-61" d="M 2194 1759 
Q 1497 1759 1228 1600 
Q 959 1441 959 1056 
Q 959 750 1161 570 
Q 1363 391 1709 391 
Q 2188 391 2477 730 
Q 2766 1069 2766 1631 
L 2766 1759 
L 2194 1759 
z
M 3341 1997 
L 3341 0 
L 2766 0 
L 2766 531 
Q 2569 213 2275 61 
Q 1981 -91 1556 -91 
Q 1019 -91 701 211 
Q 384 513 384 1019 
Q 384 1609 779 1909 
Q 1175 2209 1959 2209 
L 2766 2209 
L 2766 2266 
Q 2766 2663 2505 2880 
Q 2244 3097 1772 3097 
Q 1472 3097 1187 3025 
Q 903 2953 641 2809 
L 641 3341 
Q 956 3463 1253 3523 
Q 1550 3584 1831 3584 
Q 2591 3584 2966 3190 
Q 3341 2797 3341 1997 
z
" transform="scale(0.015625)"/>
        <path id="DejaVuSans-70" d="M 1159 525 
L 1159 -1331 
L 581 -1331 
L 581 3500 
L 1159 3500 
L 1159 2969 
Q 1341 3281 1617 3432 
Q 1894 3584 2278 3584 
Q 2916 3584 3314 3078 
Q 3713 2572 3713 1747 
Q 3713 922 3314 415 
Q 2916 -91 2278 -91 
Q 1894 -91 1617 61 
Q 1341 213 1159 525 
z
M 3116 1747 
Q 3116 2381 2855 2742 
Q 2594 3103 2138 3103 
Q 1681 3103 1420 2742 
Q 1159 2381 1159 1747 
Q 1159 1113 1420 752 
Q 1681 391 2138 391 
Q 2594 391 2855 752 
Q 3116 1113 3116 1747 
z
" transform="scale(0.015625)"/>
        <path id="DejaVuSans-69" d="M 603 3500 
L 1178 3500 
L 1178 0 
L 603 0 
L 603 3500 
z
M 603 4863 
L 1178 4863 
L 1178 4134 
L 603 4134 
L 603 4863 
z
" transform="scale(0.015625)"/>
        <path id="DejaVuSans-76" d="M 191 3500 
L 800 3500 
L 1894 563 
L 2988 3500 
L 3597 3500 
L 2284 0 
L 1503 0 
L 191 3500 
z
" transform="scale(0.015625)"/>
       </defs>
       <use xlink:href="#DejaVuSans-41"/>
       <use xlink:href="#DejaVuSans-64" x="66.658203"/>
       <use xlink:href="#DejaVuSans-61" x="130.134766"/>
       <use xlink:href="#DejaVuSans-70" x="191.414062"/>
       <use xlink:href="#DejaVuSans-74" x="254.890625"/>
       <use xlink:href="#DejaVuSans-69" x="294.099609"/>
       <use xlink:href="#DejaVuSans-76" x="321.882812"/>
       <use xlink:href="#DejaVuSans-65" x="381.0625"/>
      </g>
     </g>
    </g>
    <g id="xtick_4">
     <g id="line2d_4">
      <g>
       <use xlink:href="#m5993a0017e" x="324.846364" y="337.97" style="stroke: #000000; stroke-width: 0.8"/>
      </g>
     </g>
     <g id="text_4">
      <!-- Alternator -->
      <g transform="translate(327.053864 385.165)rotate(-90)scale(0.08 -0.08)">
       <defs>
        <path id="DejaVuSans-6c" d="M 603 4863 
L 1178 4863 
L 1178 0 
L 603 0 
L 603 4863 
z
" transform="scale(0.015625)"/>
        <path id="DejaVuSans-6e" d="M 3513 2113 
L 3513 0 
L 2938 0 
L 2938 2094 
Q 2938 2591 2744 2837 
Q 2550 3084 2163 3084 
Q 1697 3084 1428 2787 
Q 1159 2491 1159 1978 
L 1159 0 
L 581 0 
L 581 3500 
L 1159 3500 
L 1159 2956 
Q 1366 3272 1645 3428 
Q 1925 3584 2291 3584 
Q 2894 3584 3203 3211 
Q 3513 2838 3513 2113 
z
" transform="scale(0.015625)"/>
       </defs>
       <use xlink:href="#DejaVuSans-41"/>
       <use xlink:href="#DejaVuSans-6c" x="68.408203"/>
       <use xlink:href="#DejaVuSans-74" x="96.191406"/>
       <use xlink:href="#DejaVuSans-65" x="135.400391"/>
       <use xlink:href="#DejaVuSans-72" x="196.923828"/>
       <use xlink:href="#DejaVuSans-6e" x="236.287109"/>
       <use xlink:href="#DejaVuSans-61" x="299.666016"/>
       <use xlink:href="#DejaVuSans-74" x="360.945312"/>
       <use xlink:href="#DejaVuSans-6f" x="400.154297"/>
       <use xlink:href="#DejaVuSans-72" x="461.335938"/>
      </g>
     </g>
    </g>
    <g id="xtick_5">
     <g id="line2d_5">
      <g>
       <use xlink:href="#m5993a0017e" x="400.325455" y="337.97" style="stroke: #000000; stroke-width: 0.8"/>
      </g>
     </g>
     <g id="text_5">
      <!-- Random: 0.5 -->
      <g transform="translate(402.532955 396.0475)rotate(-90)scale(0.08 -0.08)">
       <defs>
        <path id="DejaVuSans-52" d="M 2841 2188 
Q 3044 2119 3236 1894 
Q 3428 1669 3622 1275 
L 4263 0 
L 3584 0 
L 2988 1197 
Q 2756 1666 2539 1819 
Q 2322 1972 1947 1972 
L 1259 1972 
L 1259 0 
L 628 0 
L 628 4666 
L 2053 4666 
Q 2853 4666 3247 4331 
Q 3641 3997 3641 3322 
Q 3641 2881 3436 2590 
Q 3231 2300 2841 2188 
z
M 1259 4147 
L 1259 2491 
L 2053 2491 
Q 2509 2491 2742 2702 
Q 2975 2913 2975 3322 
Q 2975 3731 2742 3939 
Q 2509 4147 2053 4147 
L 1259 4147 
z
" transform="scale(0.015625)"/>
        <path id="DejaVuSans-6d" d="M 3328 2828 
Q 3544 3216 3844 3400 
Q 4144 3584 4550 3584 
Q 5097 3584 5394 3201 
Q 5691 2819 5691 2113 
L 5691 0 
L 5113 0 
L 5113 2094 
Q 5113 2597 4934 2840 
Q 4756 3084 4391 3084 
Q 3944 3084 3684 2787 
Q 3425 2491 3425 1978 
L 3425 0 
L 2847 0 
L 2847 2094 
Q 2847 2600 2669 2842 
Q 2491 3084 2119 3084 
Q 1678 3084 1418 2786 
Q 1159 2488 1159 1978 
L 1159 0 
L 581 0 
L 581 3500 
L 1159 3500 
L 1159 2956 
Q 1356 3278 1631 3431 
Q 1906 3584 2284 3584 
Q 2666 3584 2933 3390 
Q 3200 3197 3328 2828 
z
" transform="scale(0.015625)"/>
        <path id="DejaVuSans-3a" d="M 750 794 
L 1409 794 
L 1409 0 
L 750 0 
L 750 794 
z
M 750 3309 
L 1409 3309 
L 1409 2516 
L 750 2516 
L 750 3309 
z
" transform="scale(0.015625)"/>
        <path id="DejaVuSans-20" transform="scale(0.015625)"/>
        <path id="DejaVuSans-30" d="M 2034 4250 
Q 1547 4250 1301 3770 
Q 1056 3291 1056 2328 
Q 1056 1369 1301 889 
Q 1547 409 2034 409 
Q 2525 409 2770 889 
Q 3016 1369 3016 2328 
Q 3016 3291 2770 3770 
Q 2525 4250 2034 4250 
z
M 2034 4750 
Q 2819 4750 3233 4129 
Q 3647 3509 3647 2328 
Q 3647 1150 3233 529 
Q 2819 -91 2034 -91 
Q 1250 -91 836 529 
Q 422 1150 422 2328 
Q 422 3509 836 4129 
Q 1250 4750 2034 4750 
z
" transform="scale(0.015625)"/>
        <path id="DejaVuSans-2e" d="M 684 794 
L 1344 794 
L 1344 0 
L 684 0 
L 684 794 
z
" transform="scale(0.015625)"/>
        <path id="DejaVuSans-35" d="M 691 4666 
L 3169 4666 
L 3169 4134 
L 1269 4134 
L 1269 2991 
Q 1406 3038 1543 3061 
Q 1681 3084 1819 3084 
Q 2600 3084 3056 2656 
Q 3513 2228 3513 1497 
Q 3513 744 3044 326 
Q 2575 -91 1722 -91 
Q 1428 -91 1123 -41 
Q 819 9 494 109 
L 494 744 
Q 775 591 1075 516 
Q 1375 441 1709 441 
Q 2250 441 2565 725 
Q 2881 1009 2881 1497 
Q 2881 1984 2565 2268 
Q 2250 2553 1709 2553 
Q 1456 2553 1204 2497 
Q 953 2441 691 2322 
L 691 4666 
z
" transform="scale(0.015625)"/>
       </defs>
       <use xlink:href="#DejaVuSans-52"/>
       <use xlink:href="#DejaVuSans-61" x="67.232422"/>
       <use xlink:href="#DejaVuSans-6e" x="128.511719"/>
       <use xlink:href="#DejaVuSans-64" x="191.890625"/>
       <use xlink:href="#DejaVuSans-6f" x="255.367188"/>
       <use xlink:href="#DejaVuSans-6d" x="316.548828"/>
       <use xlink:href="#DejaVuSans-3a" x="413.960938"/>
       <use xlink:href="#DejaVuSans-20" x="447.652344"/>
       <use xlink:href="#DejaVuSans-30" x="479.439453"/>
       <use xlink:href="#DejaVuSans-2e" x="543.0625"/>
       <use xlink:href="#DejaVuSans-35" x="574.849609"/>
      </g>
     </g>
    </g>
    <g id="xtick_6">
     <g id="line2d_6">
      <g>
       <use xlink:href="#m5993a0017e" x="475.804545" y="337.97" style="stroke: #000000; stroke-width: 0.8"/>
      </g>
     </g>
     <g id="text_6">
      <!-- Deep QLearner -->
      <g transform="translate(478.012045 405.46625)rotate(-90)scale(0.08 -0.08)">
       <defs>
        <path id="DejaVuSans-51" d="M 2522 4238 
Q 1834 4238 1429 3725 
Q 1025 3213 1025 2328 
Q 1025 1447 1429 934 
Q 1834 422 2522 422 
Q 3209 422 3611 934 
Q 4013 1447 4013 2328 
Q 4013 3213 3611 3725 
Q 3209 4238 2522 4238 
z
M 3406 84 
L 4238 -825 
L 3475 -825 
L 2784 -78 
Q 2681 -84 2626 -87 
Q 2572 -91 2522 -91 
Q 1538 -91 948 567 
Q 359 1225 359 2328 
Q 359 3434 948 4092 
Q 1538 4750 2522 4750 
Q 3503 4750 4090 4092 
Q 4678 3434 4678 2328 
Q 4678 1516 4351 937 
Q 4025 359 3406 84 
z
" transform="scale(0.015625)"/>
        <path id="DejaVuSans-4c" d="M 628 4666 
L 1259 4666 
L 1259 531 
L 3531 531 
L 3531 0 
L 628 0 
L 628 4666 
z
" transform="scale(0.015625)"/>
       </defs>
       <use xlink:href="#DejaVuSans-44"/>
       <use xlink:href="#DejaVuSans-65" x="77.001953"/>
       <use xlink:href="#DejaVuSans-65" x="138.525391"/>
       <use xlink:href="#DejaVuSans-70" x="200.048828"/>
       <use xlink:href="#DejaVuSans-20" x="263.525391"/>
       <use xlink:href="#DejaVuSans-51" x="295.3125"/>
       <use xlink:href="#DejaVuSans-4c" x="374.023438"/>
       <use xlink:href="#DejaVuSans-65" x="427.986328"/>
       <use xlink:href="#DejaVuSans-61" x="489.509766"/>
       <use xlink:href="#DejaVuSans-72" x="550.789062"/>
       <use xlink:href="#DejaVuSans-6e" x="590.152344"/>
       <use xlink:href="#DejaVuSans-65" x="653.53125"/>
       <use xlink:href="#DejaVuSans-72" x="715.054688"/>
      </g>
     </g>
    </g>
    <g id="xtick_7">
     <g id="line2d_7">
      <g>
       <use xlink:href="#m5993a0017e" x="551.283636" y="337.97" style="stroke: #000000; stroke-width: 0.8"/>
      </g>
     </g>
     <g id="text_7">
      <!-- Risky QLearner -->
      <g transform="translate(553.491136 405.40875)rotate(-90)scale(0.08 -0.08)">
       <defs>
        <path id="DejaVuSans-73" d="M 2834 3397 
L 2834 2853 
Q 2591 2978 2328 3040 
Q 2066 3103 1784 3103 
Q 1356 3103 1142 2972 
Q 928 2841 928 2578 
Q 928 2378 1081 2264 
Q 1234 2150 1697 2047 
L 1894 2003 
Q 2506 1872 2764 1633 
Q 3022 1394 3022 966 
Q 3022 478 2636 193 
Q 2250 -91 1575 -91 
Q 1294 -91 989 -36 
Q 684 19 347 128 
L 347 722 
Q 666 556 975 473 
Q 1284 391 1588 391 
Q 1994 391 2212 530 
Q 2431 669 2431 922 
Q 2431 1156 2273 1281 
Q 2116 1406 1581 1522 
L 1381 1569 
Q 847 1681 609 1914 
Q 372 2147 372 2553 
Q 372 3047 722 3315 
Q 1072 3584 1716 3584 
Q 2034 3584 2315 3537 
Q 2597 3491 2834 3397 
z
" transform="scale(0.015625)"/>
        <path id="DejaVuSans-6b" d="M 581 4863 
L 1159 4863 
L 1159 1991 
L 2875 3500 
L 3609 3500 
L 1753 1863 
L 3688 0 
L 2938 0 
L 1159 1709 
L 1159 0 
L 581 0 
L 581 4863 
z
" transform="scale(0.015625)"/>
        <path id="DejaVuSans-79" d="M 2059 -325 
Q 1816 -950 1584 -1140 
Q 1353 -1331 966 -1331 
L 506 -1331 
L 506 -850 
L 844 -850 
Q 1081 -850 1212 -737 
Q 1344 -625 1503 -206 
L 1606 56 
L 191 3500 
L 800 3500 
L 1894 763 
L 2988 3500 
L 3597 3500 
L 2059 -325 
z
" transform="scale(0.015625)"/>
       </defs>
       <use xlink:href="#DejaVuSans-52"/>
       <use xlink:href="#DejaVuSans-69" x="69.482422"/>
       <use xlink:href="#DejaVuSans-73" x="97.265625"/>
       <use xlink:href="#DejaVuSans-6b" x="149.365234"/>
       <use xlink:href="#DejaVuSans-79" x="203.650391"/>
       <use xlink:href="#DejaVuSans-20" x="262.830078"/>
       <use xlink:href="#DejaVuSans-51" x="294.617188"/>
       <use xlink:href="#DejaVuSans-4c" x="373.328125"/>
       <use xlink:href="#DejaVuSans-65" x="427.291016"/>
       <use xlink:href="#DejaVuSans-61" x="488.814453"/>
       <use xlink:href="#DejaVuSans-72" x="550.09375"/>
       <use xlink:href="#DejaVuSans-6e" x="589.457031"/>
       <use xlink:href="#DejaVuSans-65" x="652.835938"/>
       <use xlink:href="#DejaVuSans-72" x="714.359375"/>
      </g>
     </g>
    </g>
    <g id="xtick_8">
     <g id="line2d_8">
      <g>
       <use xlink:href="#m5993a0017e" x="626.762727" y="337.97" style="stroke: #000000; stroke-width: 0.8"/>
      </g>
     </g>
     <g id="text_8">
      <!-- Mediocre QLearner -->
      <g transform="translate(628.970227 420.83375)rotate(-90)scale(0.08 -0.08)">
       <defs>
        <path id="DejaVuSans-4d" d="M 628 4666 
L 1569 4666 
L 2759 1491 
L 3956 4666 
L 4897 4666 
L 4897 0 
L 4281 0 
L 4281 4097 
L 3078 897 
L 2444 897 
L 1241 4097 
L 1241 0 
L 628 0 
L 628 4666 
z
" transform="scale(0.015625)"/>
       </defs>
       <use xlink:href="#DejaVuSans-4d"/>
       <use xlink:href="#DejaVuSans-65" x="86.279297"/>
       <use xlink:href="#DejaVuSans-64" x="147.802734"/>
       <use xlink:href="#DejaVuSans-69" x="211.279297"/>
       <use xlink:href="#DejaVuSans-6f" x="239.0625"/>
       <use xlink:href="#DejaVuSans-63" x="300.244141"/>
       <use xlink:href="#DejaVuSans-72" x="355.224609"/>
       <use xlink:href="#DejaVuSans-65" x="394.087891"/>
       <use xlink:href="#DejaVuSans-20" x="455.611328"/>
       <use xlink:href="#DejaVuSans-51" x="487.398438"/>
       <use xlink:href="#DejaVuSans-4c" x="566.109375"/>
       <use xlink:href="#DejaVuSans-65" x="620.072266"/>
       <use xlink:href="#DejaVuSans-61" x="681.595703"/>
       <use xlink:href="#DejaVuSans-72" x="742.875"/>
       <use xlink:href="#DejaVuSans-6e" x="782.238281"/>
       <use xlink:href="#DejaVuSans-65" x="845.617188"/>
       <use xlink:href="#DejaVuSans-72" x="907.140625"/>
      </g>
     </g>
    </g>
    <g id="xtick_9">
     <g id="line2d_9">
      <g>
       <use xlink:href="#m5993a0017e" x="702.241818" y="337.97" style="stroke: #000000; stroke-width: 0.8"/>
      </g>
     </g>
     <g id="text_9">
      <!-- Tit For Tat -->
      <g transform="translate(704.449318 384.15)rotate(-90)scale(0.08 -0.08)">
       <defs>
        <path id="DejaVuSans-54" d="M -19 4666 
L 3928 4666 
L 3928 4134 
L 2272 4134 
L 2272 0 
L 1638 0 
L 1638 4134 
L -19 4134 
L -19 4666 
z
" transform="scale(0.015625)"/>
        <path id="DejaVuSans-46" d="M 628 4666 
L 3309 4666 
L 3309 4134 
L 1259 4134 
L 1259 2759 
L 3109 2759 
L 3109 2228 
L 1259 2228 
L 1259 0 
L 628 0 
L 628 4666 
z
" transform="scale(0.015625)"/>
       </defs>
       <use xlink:href="#DejaVuSans-54"/>
       <use xlink:href="#DejaVuSans-69" x="57.958984"/>
       <use xlink:href="#DejaVuSans-74" x="85.742188"/>
       <use xlink:href="#DejaVuSans-20" x="124.951172"/>
       <use xlink:href="#DejaVuSans-46" x="156.738281"/>
       <use xlink:href="#DejaVuSans-6f" x="210.632812"/>
       <use xlink:href="#DejaVuSans-72" x="271.814453"/>
       <use xlink:href="#DejaVuSans-20" x="312.927734"/>
       <use xlink:href="#DejaVuSans-54" x="344.714844"/>
       <use xlink:href="#DejaVuSans-61" x="389.298828"/>
       <use xlink:href="#DejaVuSans-74" x="450.578125"/>
      </g>
     </g>
    </g>
    <g id="xtick_10">
     <g id="line2d_10">
      <g>
       <use xlink:href="#m5993a0017e" x="777.720909" y="337.97" style="stroke: #000000; stroke-width: 0.8"/>
      </g>
     </g>
     <g id="text_10">
      <!-- Cooperator -->
      <g transform="translate(779.928409 389.85875)rotate(-90)scale(0.08 -0.08)">
       <defs>
        <path id="DejaVuSans-43" d="M 4122 4306 
L 4122 3641 
Q 3803 3938 3442 4084 
Q 3081 4231 2675 4231 
Q 1875 4231 1450 3742 
Q 1025 3253 1025 2328 
Q 1025 1406 1450 917 
Q 1875 428 2675 428 
Q 3081 428 3442 575 
Q 3803 722 4122 1019 
L 4122 359 
Q 3791 134 3420 21 
Q 3050 -91 2638 -91 
Q 1578 -91 968 557 
Q 359 1206 359 2328 
Q 359 3453 968 4101 
Q 1578 4750 2638 4750 
Q 3056 4750 3426 4639 
Q 3797 4528 4122 4306 
z
" transform="scale(0.015625)"/>
       </defs>
       <use xlink:href="#DejaVuSans-43"/>
       <use xlink:href="#DejaVuSans-6f" x="69.824219"/>
       <use xlink:href="#DejaVuSans-6f" x="131.005859"/>
       <use xlink:href="#DejaVuSans-70" x="192.1875"/>
       <use xlink:href="#DejaVuSans-65" x="255.664062"/>
       <use xlink:href="#DejaVuSans-72" x="317.1875"/>
       <use xlink:href="#DejaVuSans-61" x="358.300781"/>
       <use xlink:href="#DejaVuSans-74" x="419.580078"/>
       <use xlink:href="#DejaVuSans-6f" x="458.789062"/>
       <use xlink:href="#DejaVuSans-72" x="519.970703"/>
      </g>
     </g>
    </g>
   </g>
   <g id="matplotlib.axis_2">
    <g id="ytick_1">
     <g id="line2d_11">
      <defs>
       <path id="m45357941af" d="M 0 0 
L -3.5 0 
" style="stroke: #000000; stroke-width: 0.8"/>
      </defs>
      <g>
       <use xlink:href="#m45357941af" x="22.93" y="322.4155" style="stroke: #000000; stroke-width: 0.8"/>
      </g>
     </g>
     <g id="text_11">
      <!-- 0 -->
      <g transform="translate(10.84 325.454875)scale(0.08 -0.08)">
       <use xlink:href="#DejaVuSans-30"/>
      </g>
     </g>
    </g>
    <g id="ytick_2">
     <g id="line2d_12">
      <g>
       <use xlink:href="#m45357941af" x="22.93" y="260.1975" style="stroke: #000000; stroke-width: 0.8"/>
      </g>
     </g>
     <g id="text_12">
      <!-- 2 -->
      <g transform="translate(10.84 263.236875)scale(0.08 -0.08)">
       <defs>
        <path id="DejaVuSans-32" d="M 1228 531 
L 3431 531 
L 3431 0 
L 469 0 
L 469 531 
Q 828 903 1448 1529 
Q 2069 2156 2228 2338 
Q 2531 2678 2651 2914 
Q 2772 3150 2772 3378 
Q 2772 3750 2511 3984 
Q 2250 4219 1831 4219 
Q 1534 4219 1204 4116 
Q 875 4013 500 3803 
L 500 4441 
Q 881 4594 1212 4672 
Q 1544 4750 1819 4750 
Q 2544 4750 2975 4387 
Q 3406 4025 3406 3419 
Q 3406 3131 3298 2873 
Q 3191 2616 2906 2266 
Q 2828 2175 2409 1742 
Q 1991 1309 1228 531 
z
" transform="scale(0.015625)"/>
       </defs>
       <use xlink:href="#DejaVuSans-32"/>
      </g>
     </g>
    </g>
    <g id="ytick_3">
     <g id="line2d_13">
      <g>
       <use xlink:href="#m45357941af" x="22.93" y="197.9795" style="stroke: #000000; stroke-width: 0.8"/>
      </g>
     </g>
     <g id="text_13">
      <!-- 4 -->
      <g transform="translate(10.84 201.018875)scale(0.08 -0.08)">
       <defs>
        <path id="DejaVuSans-34" d="M 2419 4116 
L 825 1625 
L 2419 1625 
L 2419 4116 
z
M 2253 4666 
L 3047 4666 
L 3047 1625 
L 3713 1625 
L 3713 1100 
L 3047 1100 
L 3047 0 
L 2419 0 
L 2419 1100 
L 313 1100 
L 313 1709 
L 2253 4666 
z
" transform="scale(0.015625)"/>
       </defs>
       <use xlink:href="#DejaVuSans-34"/>
      </g>
     </g>
    </g>
    <g id="ytick_4">
     <g id="line2d_14">
      <g>
       <use xlink:href="#m45357941af" x="22.93" y="135.7615" style="stroke: #000000; stroke-width: 0.8"/>
      </g>
     </g>
     <g id="text_14">
      <!-- 6 -->
      <g transform="translate(10.84 138.800875)scale(0.08 -0.08)">
       <defs>
        <path id="DejaVuSans-36" d="M 2113 2584 
Q 1688 2584 1439 2293 
Q 1191 2003 1191 1497 
Q 1191 994 1439 701 
Q 1688 409 2113 409 
Q 2538 409 2786 701 
Q 3034 994 3034 1497 
Q 3034 2003 2786 2293 
Q 2538 2584 2113 2584 
z
M 3366 4563 
L 3366 3988 
Q 3128 4100 2886 4159 
Q 2644 4219 2406 4219 
Q 1781 4219 1451 3797 
Q 1122 3375 1075 2522 
Q 1259 2794 1537 2939 
Q 1816 3084 2150 3084 
Q 2853 3084 3261 2657 
Q 3669 2231 3669 1497 
Q 3669 778 3244 343 
Q 2819 -91 2113 -91 
Q 1303 -91 875 529 
Q 447 1150 447 2328 
Q 447 3434 972 4092 
Q 1497 4750 2381 4750 
Q 2619 4750 2861 4703 
Q 3103 4656 3366 4563 
z
" transform="scale(0.015625)"/>
       </defs>
       <use xlink:href="#DejaVuSans-36"/>
      </g>
     </g>
    </g>
    <g id="ytick_5">
     <g id="line2d_15">
      <g>
       <use xlink:href="#m45357941af" x="22.93" y="73.5435" style="stroke: #000000; stroke-width: 0.8"/>
      </g>
     </g>
     <g id="text_15">
      <!-- 8 -->
      <g transform="translate(10.84 76.582875)scale(0.08 -0.08)">
       <defs>
        <path id="DejaVuSans-38" d="M 2034 2216 
Q 1584 2216 1326 1975 
Q 1069 1734 1069 1313 
Q 1069 891 1326 650 
Q 1584 409 2034 409 
Q 2484 409 2743 651 
Q 3003 894 3003 1313 
Q 3003 1734 2745 1975 
Q 2488 2216 2034 2216 
z
M 1403 2484 
Q 997 2584 770 2862 
Q 544 3141 544 3541 
Q 544 4100 942 4425 
Q 1341 4750 2034 4750 
Q 2731 4750 3128 4425 
Q 3525 4100 3525 3541 
Q 3525 3141 3298 2862 
Q 3072 2584 2669 2484 
Q 3125 2378 3379 2068 
Q 3634 1759 3634 1313 
Q 3634 634 3220 271 
Q 2806 -91 2034 -91 
Q 1263 -91 848 271 
Q 434 634 434 1313 
Q 434 1759 690 2068 
Q 947 2378 1403 2484 
z
M 1172 3481 
Q 1172 3119 1398 2916 
Q 1625 2713 2034 2713 
Q 2441 2713 2670 2916 
Q 2900 3119 2900 3481 
Q 2900 3844 2670 4047 
Q 2441 4250 2034 4250 
Q 1625 4250 1398 4047 
Q 1172 3844 1172 3481 
z
" transform="scale(0.015625)"/>
       </defs>
       <use xlink:href="#DejaVuSans-38"/>
      </g>
     </g>
    </g>
   </g>
   <g id="LineCollection_1">
    <path d="M 88.974205 42.4345 
L 107.843977 42.4345 
" clip-path="url(#p006acf79e1)" style="fill: none; stroke: #1f77b4; stroke-width: 1.5"/>
    <path d="M 164.453295 135.7615 
L 183.323068 135.7615 
" clip-path="url(#p006acf79e1)" style="fill: none; stroke: #1f77b4; stroke-width: 1.5"/>
    <path d="M 239.932386 135.7615 
L 258.802159 135.7615 
" clip-path="url(#p006acf79e1)" style="fill: none; stroke: #1f77b4; stroke-width: 1.5"/>
    <path d="M 315.411477 166.8705 
L 334.28125 166.8705 
" clip-path="url(#p006acf79e1)" style="fill: none; stroke: #1f77b4; stroke-width: 1.5"/>
    <path d="M 390.890568 166.8705 
L 409.760341 166.8705 
" clip-path="url(#p006acf79e1)" style="fill: none; stroke: #1f77b4; stroke-width: 1.5"/>
    <path d="M 466.369659 197.9795 
L 485.239432 197.9795 
" clip-path="url(#p006acf79e1)" style="fill: none; stroke: #1f77b4; stroke-width: 1.5"/>
    <path d="M 541.84875 260.1975 
L 560.718523 260.1975 
" clip-path="url(#p006acf79e1)" style="fill: none; stroke: #1f77b4; stroke-width: 1.5"/>
    <path d="M 617.327841 260.1975 
L 636.197614 260.1975 
" clip-path="url(#p006acf79e1)" style="fill: none; stroke: #1f77b4; stroke-width: 1.5"/>
    <path d="M 692.806932 322.4155 
L 711.676705 322.4155 
" clip-path="url(#p006acf79e1)" style="fill: none; stroke: #1f77b4; stroke-width: 1.5"/>
    <path d="M 768.286023 322.4155 
L 787.155795 322.4155 
" clip-path="url(#p006acf79e1)" style="fill: none; stroke: #1f77b4; stroke-width: 1.5"/>
   </g>
   <g id="patch_3">
    <path d="M 22.93 337.97 
L 22.93 26.88 
" style="fill: none; stroke: #000000; stroke-width: 0.8; stroke-linejoin: miter; stroke-linecap: square"/>
   </g>
   <g id="patch_4">
    <path d="M 853.2 337.97 
L 853.2 26.88 
" style="fill: none; stroke: #000000; stroke-width: 0.8; stroke-linejoin: miter; stroke-linecap: square"/>
   </g>
   <g id="patch_5">
    <path d="M 22.93 337.97 
L 853.2 337.97 
" style="fill: none; stroke: #000000; stroke-width: 0.8; stroke-linejoin: miter; stroke-linecap: square"/>
   </g>
   <g id="patch_6">
    <path d="M 22.93 26.88 
L 853.2 26.88 
" style="fill: none; stroke: #000000; stroke-width: 0.8; stroke-linejoin: miter; stroke-linecap: square"/>
   </g>
   <g id="text_16">
    <!-- Wins - turns: 200, repetitions: 500, strategies: 10.  -->
    <g transform="translate(286.363438 20.88)scale(0.12 -0.12)">
     <defs>
      <path id="DejaVuSans-57" d="M 213 4666 
L 850 4666 
L 1831 722 
L 2809 4666 
L 3519 4666 
L 4500 722 
L 5478 4666 
L 6119 4666 
L 4947 0 
L 4153 0 
L 3169 4050 
L 2175 0 
L 1381 0 
L 213 4666 
z
" transform="scale(0.015625)"/>
      <path id="DejaVuSans-2d" d="M 313 2009 
L 1997 2009 
L 1997 1497 
L 313 1497 
L 313 2009 
z
" transform="scale(0.015625)"/>
      <path id="DejaVuSans-2c" d="M 750 794 
L 1409 794 
L 1409 256 
L 897 -744 
L 494 -744 
L 750 256 
L 750 794 
z
" transform="scale(0.015625)"/>
      <path id="DejaVuSans-31" d="M 794 531 
L 1825 531 
L 1825 4091 
L 703 3866 
L 703 4441 
L 1819 4666 
L 2450 4666 
L 2450 531 
L 3481 531 
L 3481 0 
L 794 0 
L 794 531 
z
" transform="scale(0.015625)"/>
     </defs>
     <use xlink:href="#DejaVuSans-57"/>
     <use xlink:href="#DejaVuSans-69" x="96.626953"/>
     <use xlink:href="#DejaVuSans-6e" x="124.410156"/>
     <use xlink:href="#DejaVuSans-73" x="187.789062"/>
     <use xlink:href="#DejaVuSans-20" x="239.888672"/>
     <use xlink:href="#DejaVuSans-2d" x="271.675781"/>
     <use xlink:href="#DejaVuSans-20" x="307.759766"/>
     <use xlink:href="#DejaVuSans-74" x="339.546875"/>
     <use xlink:href="#DejaVuSans-75" x="378.755859"/>
     <use xlink:href="#DejaVuSans-72" x="442.134766"/>
     <use xlink:href="#DejaVuSans-6e" x="481.498047"/>
     <use xlink:href="#DejaVuSans-73" x="544.876953"/>
     <use xlink:href="#DejaVuSans-3a" x="596.976562"/>
     <use xlink:href="#DejaVuSans-20" x="630.667969"/>
     <use xlink:href="#DejaVuSans-32" x="662.455078"/>
     <use xlink:href="#DejaVuSans-30" x="726.078125"/>
     <use xlink:href="#DejaVuSans-30" x="789.701172"/>
     <use xlink:href="#DejaVuSans-2c" x="853.324219"/>
     <use xlink:href="#DejaVuSans-20" x="885.111328"/>
     <use xlink:href="#DejaVuSans-72" x="916.898438"/>
     <use xlink:href="#DejaVuSans-65" x="955.761719"/>
     <use xlink:href="#DejaVuSans-70" x="1017.285156"/>
     <use xlink:href="#DejaVuSans-65" x="1080.761719"/>
     <use xlink:href="#DejaVuSans-74" x="1142.285156"/>
     <use xlink:href="#DejaVuSans-69" x="1181.494141"/>
     <use xlink:href="#DejaVuSans-74" x="1209.277344"/>
     <use xlink:href="#DejaVuSans-69" x="1248.486328"/>
     <use xlink:href="#DejaVuSans-6f" x="1276.269531"/>
     <use xlink:href="#DejaVuSans-6e" x="1337.451172"/>
     <use xlink:href="#DejaVuSans-73" x="1400.830078"/>
     <use xlink:href="#DejaVuSans-3a" x="1452.929688"/>
     <use xlink:href="#DejaVuSans-20" x="1486.621094"/>
     <use xlink:href="#DejaVuSans-35" x="1518.408203"/>
     <use xlink:href="#DejaVuSans-30" x="1582.03125"/>
     <use xlink:href="#DejaVuSans-30" x="1645.654297"/>
     <use xlink:href="#DejaVuSans-2c" x="1709.277344"/>
     <use xlink:href="#DejaVuSans-20" x="1741.064453"/>
     <use xlink:href="#DejaVuSans-73" x="1772.851562"/>
     <use xlink:href="#DejaVuSans-74" x="1824.951172"/>
     <use xlink:href="#DejaVuSans-72" x="1864.160156"/>
     <use xlink:href="#DejaVuSans-61" x="1905.273438"/>
     <use xlink:href="#DejaVuSans-74" x="1966.552734"/>
     <use xlink:href="#DejaVuSans-65" x="2005.761719"/>
     <use xlink:href="#DejaVuSans-67" x="2067.285156"/>
     <use xlink:href="#DejaVuSans-69" x="2130.761719"/>
     <use xlink:href="#DejaVuSans-65" x="2158.544922"/>
     <use xlink:href="#DejaVuSans-73" x="2220.068359"/>
     <use xlink:href="#DejaVuSans-3a" x="2272.167969"/>
     <use xlink:href="#DejaVuSans-20" x="2305.859375"/>
     <use xlink:href="#DejaVuSans-31" x="2337.646484"/>
     <use xlink:href="#DejaVuSans-30" x="2401.269531"/>
     <use xlink:href="#DejaVuSans-2e" x="2464.892578"/>
     <use xlink:href="#DejaVuSans-20" x="2496.679688"/>
    </g>
   </g>
  </g>
 </g>
 <defs>
  <clipPath id="p006acf79e1">
   <rect x="22.93" y="26.88" width="830.27" height="311.09"/>
  </clipPath>
 </defs>
</svg>
