<?xml version="1.0" encoding="utf-8" standalone="no"?>
<!DOCTYPE svg PUBLIC "-//W3C//DTD SVG 1.1//EN"
  "http://www.w3.org/Graphics/SVG/1.1/DTD/svg11.dtd">
<svg xmlns:xlink="http://www.w3.org/1999/xlink" width="864pt" height="432pt" viewBox="0 0 864 432" xmlns="http://www.w3.org/2000/svg" version="1.1">
 <metadata>
  <rdf:RDF xmlns:dc="http://purl.org/dc/elements/1.1/" xmlns:cc="http://creativecommons.org/ns#" xmlns:rdf="http://www.w3.org/1999/02/22-rdf-syntax-ns#">
   <cc:Work>
    <dc:type rdf:resource="http://purl.org/dc/dcmitype/StillImage"/>
    <dc:date>2022-09-12T15:46:17.205882</dc:date>
    <dc:format>image/svg+xml</dc:format>
    <dc:creator>
     <cc:Agent>
      <dc:title>Matplotlib v3.5.1, https://matplotlib.org/</dc:title>
     </cc:Agent>
    </dc:creator>
   </cc:Work>
  </rdf:RDF>
 </metadata>
 <defs>
  <style type="text/css">*{stroke-linejoin: round; stroke-linecap: butt}</style>
 </defs>
 <g id="figure_1">
  <g id="patch_1">
   <path d="M 0 432 
L 864 432 
L 864 0 
L 0 0 
z
" style="fill: #ffffff"/>
  </g>
  <g id="axes_1">
   <g id="patch_2">
    <path d="M 30.67 337.97 
L 853.2 337.97 
L 853.2 26.88 
L 30.67 26.88 
z
" style="fill: #ffffff"/>
   </g>
   <g id="PolyCollection_1">
    <path d="M 121.709739 151.342702 
L 89.18117 151.342702 
L 88.901779 150.869037 
L 88.670102 150.395373 
L 88.488259 149.921708 
L 88.357931 149.448043 
L 88.280327 148.974378 
L 88.25617 148.500714 
L 88.285681 148.027049 
L 88.368582 147.553384 
L 88.504093 147.079719 
L 88.69095 146.606055 
L 88.92742 146.13239 
L 89.211331 145.658725 
L 89.540102 145.18506 
L 89.910784 144.711396 
L 90.3201 144.237731 
L 90.764497 143.764066 
L 91.240193 143.290401 
L 91.743229 142.816737 
L 92.269528 142.343072 
L 92.814939 141.869407 
L 93.375297 141.395742 
L 93.94647 140.922078 
L 94.524405 140.448413 
L 95.105173 139.974748 
L 95.685006 139.501083 
L 96.260335 139.027419 
L 96.827814 138.553754 
L 97.384347 138.080089 
L 97.927102 137.606424 
L 98.453525 137.132759 
L 98.961346 136.659095 
L 99.44858 136.18543 
L 99.913519 135.711765 
L 100.354727 135.2381 
L 100.771023 134.764436 
L 101.16147 134.290771 
L 101.525344 133.817106 
L 101.862124 133.343441 
L 102.171457 132.869777 
L 102.453138 132.396112 
L 102.707082 131.922447 
L 102.933298 131.448782 
L 103.131863 130.975118 
L 103.302898 130.501453 
L 103.446545 130.027788 
L 103.562945 129.554123 
L 103.652224 129.080459 
L 103.71447 128.606794 
L 103.74973 128.133129 
L 103.757994 127.659464 
L 103.739195 127.1858 
L 103.693202 126.712135 
L 103.619829 126.23847 
L 103.518835 125.764805 
L 103.389936 125.291141 
L 103.232819 124.817476 
L 103.047157 124.343811 
L 102.83263 123.870146 
L 102.588943 123.396482 
L 102.315858 122.922817 
L 102.013213 122.449152 
L 101.680952 121.975487 
L 101.319156 121.501822 
L 100.928069 121.028158 
L 100.508125 120.554493 
L 100.059978 120.080828 
L 99.584527 119.607163 
L 99.082934 119.133499 
L 98.556649 118.659834 
L 98.007423 118.186169 
L 97.437318 117.712504 
L 96.848716 117.23884 
L 96.244314 116.765175 
L 95.627125 116.29151 
L 95.000461 115.817845 
L 94.36792 115.344181 
L 93.733354 114.870516 
L 93.100848 114.396851 
L 92.474675 113.923186 
L 91.859259 113.449522 
L 91.259125 112.975857 
L 90.678849 112.502192 
L 90.123002 112.028527 
L 89.596095 111.554863 
L 89.102516 111.081198 
L 88.646476 110.607533 
L 88.231944 110.133868 
L 87.862597 109.660204 
L 87.541763 109.186539 
L 87.272369 108.712874 
L 87.056905 108.239209 
L 86.897378 107.765545 
L 86.795286 107.29188 
L 86.751591 106.818215 
L 86.766709 106.34455 
L 86.8405 105.870885 
L 86.972272 105.397221 
L 87.160789 104.923556 
L 87.404295 104.449891 
L 123.486614 104.449891 
L 123.486614 104.449891 
L 123.73012 104.923556 
L 123.918637 105.397221 
L 124.050409 105.870885 
L 124.1242 106.34455 
L 124.139318 106.818215 
L 124.095623 107.29188 
L 123.993531 107.765545 
L 123.834004 108.239209 
L 123.61854 108.712874 
L 123.349146 109.186539 
L 123.028312 109.660204 
L 122.658965 110.133868 
L 122.244433 110.607533 
L 121.788393 111.081198 
L 121.294814 111.554863 
L 120.767907 112.028527 
L 120.21206 112.502192 
L 119.631784 112.975857 
L 119.03165 113.449522 
L 118.416234 113.923186 
L 117.790061 114.396851 
L 117.157555 114.870516 
L 116.522989 115.344181 
L 115.890448 115.817845 
L 115.263784 116.29151 
L 114.646595 116.765175 
L 114.042193 117.23884 
L 113.453591 117.712504 
L 112.883486 118.186169 
L 112.33426 118.659834 
L 111.807975 119.133499 
L 111.306382 119.607163 
L 110.830931 120.080828 
L 110.382784 120.554493 
L 109.962841 121.028158 
L 109.571753 121.501822 
L 109.209957 121.975487 
L 108.877696 122.449152 
L 108.575051 122.922817 
L 108.301966 123.396482 
L 108.05828 123.870146 
L 107.843752 124.343811 
L 107.65809 124.817476 
L 107.500973 125.291141 
L 107.372074 125.764805 
L 107.27108 126.23847 
L 107.197707 126.712135 
L 107.151714 127.1858 
L 107.132915 127.659464 
L 107.141179 128.133129 
L 107.176439 128.606794 
L 107.238686 129.080459 
L 107.327964 129.554123 
L 107.444364 130.027788 
L 107.588011 130.501453 
L 107.759046 130.975118 
L 107.957611 131.448782 
L 108.183827 131.922447 
L 108.437771 132.396112 
L 108.719452 132.869777 
L 109.028785 133.343441 
L 109.365565 133.817106 
L 109.729439 134.290771 
L 110.119886 134.764436 
L 110.536183 135.2381 
L 110.97739 135.711765 
L 111.442329 136.18543 
L 111.929563 136.659095 
L 112.437384 137.132759 
L 112.963807 137.606424 
L 113.506562 138.080089 
L 114.063095 138.553754 
L 114.630574 139.027419 
L 115.205903 139.501083 
L 115.785736 139.974748 
L 116.366504 140.448413 
L 116.944439 140.922078 
L 117.515612 141.395742 
L 118.07597 141.869407 
L 118.621381 142.343072 
L 119.14768 142.816737 
L 119.650716 143.290401 
L 120.126412 143.764066 
L 120.570809 144.237731 
L 120.980125 144.711396 
L 121.350807 145.18506 
L 121.679578 145.658725 
L 121.963489 146.13239 
L 122.199959 146.606055 
L 122.386816 147.079719 
L 122.522327 147.553384 
L 122.605228 148.027049 
L 122.634739 148.500714 
L 122.610582 148.974378 
L 122.532978 149.448043 
L 122.40265 149.921708 
L 122.220808 150.395373 
L 121.98913 150.869037 
L 121.709739 151.342702 
z
" clip-path="url(#pa416f6c5bc)" style="fill: #1f77b4; fill-opacity: 0.3"/>
   </g>
   <g id="PolyCollection_2">
    <path d="M 196.079126 149.984169 
L 164.362692 149.984169 
L 163.801991 148.883526 
L 163.291427 147.782882 
L 162.836781 146.682238 
L 162.443295 145.581595 
L 162.115566 144.480951 
L 161.857462 143.380308 
L 161.672037 142.279664 
L 161.561476 141.179021 
L 161.527045 140.078377 
L 161.569072 138.977733 
L 161.686933 137.87709 
L 161.879072 136.776446 
L 162.143027 135.675803 
L 162.475488 134.575159 
L 162.87236 133.474515 
L 163.328846 132.373872 
L 163.83954 131.273228 
L 164.398536 130.172585 
L 164.999537 129.071941 
L 165.635969 127.971298 
L 166.301099 126.870654 
L 166.988149 125.77001 
L 167.690407 124.669367 
L 168.401325 123.568723 
L 169.114615 122.46808 
L 169.824327 121.367436 
L 170.52492 120.266792 
L 171.211318 119.166149 
L 171.878942 118.065505 
L 172.523747 116.964862 
L 173.142226 115.864218 
L 173.731411 114.763575 
L 174.28886 113.662931 
L 174.812633 112.562287 
L 175.301257 111.461644 
L 175.753687 110.361 
L 176.169257 109.260357 
L 176.54763 108.159713 
L 176.888746 107.059069 
L 177.192767 105.958426 
L 177.460028 104.857782 
L 177.690983 103.757139 
L 177.886166 102.656495 
L 178.046146 101.555852 
L 178.171496 100.455208 
L 178.262766 99.354564 
L 178.320463 98.253921 
L 178.345042 97.153277 
L 178.336896 96.052634 
L 178.296366 94.95199 
L 178.223748 93.851347 
L 178.11931 92.750703 
L 177.983319 91.650059 
L 177.816065 90.549416 
L 177.617899 89.448772 
L 177.389264 88.348129 
L 177.130735 87.247485 
L 176.843058 86.146841 
L 176.527185 85.046198 
L 176.184313 83.945554 
L 175.815912 82.844911 
L 175.423757 81.744267 
L 175.009945 80.643624 
L 174.576909 79.54298 
L 174.12743 78.442336 
L 173.664627 77.341693 
L 173.191947 76.241049 
L 172.713148 75.140406 
L 172.232261 74.039762 
L 171.753552 72.939118 
L 171.281473 71.838475 
L 170.820603 70.737831 
L 170.375585 69.637188 
L 169.951055 68.536544 
L 169.551568 67.435901 
L 169.181522 66.335257 
L 168.845084 65.234613 
L 168.546114 64.13397 
L 168.288096 63.033326 
L 168.074071 61.932683 
L 167.906583 60.832039 
L 167.787628 59.731395 
L 167.71862 58.630752 
L 167.700358 57.530108 
L 167.733021 56.429465 
L 167.81616 55.328821 
L 167.948712 54.228178 
L 168.129022 53.127534 
L 168.354879 52.02689 
L 168.623563 50.926247 
L 168.931897 49.825603 
L 169.276312 48.72496 
L 169.652915 47.624316 
L 170.057562 46.523672 
L 170.485934 45.423029 
L 170.933611 44.322385 
L 171.396148 43.221742 
L 171.869148 42.121098 
L 172.348323 41.020455 
L 188.093495 41.020455 
L 188.093495 41.020455 
L 188.572671 42.121098 
L 189.04567 43.221742 
L 189.508207 44.322385 
L 189.955884 45.423029 
L 190.384256 46.523672 
L 190.788903 47.624316 
L 191.165506 48.72496 
L 191.509921 49.825603 
L 191.818255 50.926247 
L 192.086939 52.02689 
L 192.312797 53.127534 
L 192.493106 54.228178 
L 192.625658 55.328821 
L 192.708797 56.429465 
L 192.74146 57.530108 
L 192.723199 58.630752 
L 192.65419 59.731395 
L 192.535235 60.832039 
L 192.367747 61.932683 
L 192.153722 63.033326 
L 191.895704 64.13397 
L 191.596735 65.234613 
L 191.260297 66.335257 
L 190.890251 67.435901 
L 190.490763 68.536544 
L 190.066233 69.637188 
L 189.621215 70.737831 
L 189.160345 71.838475 
L 188.688266 72.939118 
L 188.209557 74.039762 
L 187.72867 75.140406 
L 187.249871 76.241049 
L 186.777192 77.341693 
L 186.314388 78.442336 
L 185.864909 79.54298 
L 185.431874 80.643624 
L 185.018061 81.744267 
L 184.625906 82.844911 
L 184.257505 83.945554 
L 183.914633 85.046198 
L 183.59876 86.146841 
L 183.311083 87.247485 
L 183.052554 88.348129 
L 182.823919 89.448772 
L 182.625753 90.549416 
L 182.4585 91.650059 
L 182.322508 92.750703 
L 182.21807 93.851347 
L 182.145452 94.95199 
L 182.104922 96.052634 
L 182.096776 97.153277 
L 182.121355 98.253921 
L 182.179053 99.354564 
L 182.270323 100.455208 
L 182.395673 101.555852 
L 182.555652 102.656495 
L 182.750835 103.757139 
L 182.98179 104.857782 
L 183.249051 105.958426 
L 183.553072 107.059069 
L 183.894189 108.159713 
L 184.272562 109.260357 
L 184.688132 110.361 
L 185.140561 111.461644 
L 185.629186 112.562287 
L 186.152958 113.662931 
L 186.710407 114.763575 
L 187.299592 115.864218 
L 187.918071 116.964862 
L 188.562876 118.065505 
L 189.230501 119.166149 
L 189.916898 120.266792 
L 190.617492 121.367436 
L 191.327204 122.46808 
L 192.040493 123.568723 
L 192.751411 124.669367 
L 193.453669 125.77001 
L 194.140719 126.870654 
L 194.80585 127.971298 
L 195.442281 129.071941 
L 196.043282 130.172585 
L 196.602278 131.273228 
L 197.112973 132.373872 
L 197.569458 133.474515 
L 197.96633 134.575159 
L 198.298791 135.675803 
L 198.562747 136.776446 
L 198.754885 137.87709 
L 198.872746 138.977733 
L 198.914773 140.078377 
L 198.880343 141.179021 
L 198.769781 142.279664 
L 198.584356 143.380308 
L 198.326252 144.480951 
L 197.998523 145.581595 
L 197.605037 146.682238 
L 197.150391 147.782882 
L 196.639828 148.883526 
L 196.079126 149.984169 
z
" clip-path="url(#pa416f6c5bc)" style="fill: #1f77b4; fill-opacity: 0.3"/>
   </g>
   <g id="PolyCollection_3">
    <path d="M 271.375774 226.858398 
L 238.616953 226.858398 
L 238.329062 226.006653 
L 238.09116 225.154908 
L 237.905515 224.303163 
L 237.773911 223.451419 
L 237.697618 222.599674 
L 237.677376 221.747929 
L 237.713379 220.896184 
L 237.805273 220.044439 
L 237.95216 219.192694 
L 238.152616 218.34095 
L 238.40471 217.489205 
L 238.706037 216.63746 
L 239.053754 215.785715 
L 239.444626 214.93397 
L 239.875071 214.082226 
L 240.341221 213.230481 
L 240.838972 212.378736 
L 241.364045 211.526991 
L 241.912047 210.675246 
L 242.478527 209.823501 
L 243.059035 208.971757 
L 243.649176 208.120012 
L 244.244662 207.268267 
L 244.841354 206.416522 
L 245.43531 205.564777 
L 246.022813 204.713033 
L 246.600408 203.861288 
L 247.164916 203.009543 
L 247.713458 202.157798 
L 248.243461 201.306053 
L 248.75266 200.454308 
L 249.239098 199.602564 
L 249.701121 198.750819 
L 250.137356 197.899074 
L 250.546702 197.047329 
L 250.928306 196.195584 
L 251.281539 195.34384 
L 251.605967 194.492095 
L 251.901329 193.64035 
L 252.1675 192.788605 
L 252.404471 191.93686 
L 252.612313 191.085115 
L 252.791154 190.233371 
L 252.941152 189.381626 
L 253.062474 188.529881 
L 253.155271 187.678136 
L 253.219666 186.826391 
L 253.255738 185.974647 
L 253.263509 185.122902 
L 253.242944 184.271157 
L 253.193945 183.419412 
L 253.116355 182.567667 
L 253.009962 181.715922 
L 252.874512 180.864178 
L 252.709722 180.012433 
L 252.515297 179.160688 
L 252.290952 178.308943 
L 252.036435 177.457198 
L 251.751554 176.605454 
L 251.436208 175.753709 
L 251.090409 174.901964 
L 250.714321 174.050219 
L 250.308284 173.198474 
L 249.872847 172.346729 
L 249.408795 171.494985 
L 248.917177 170.64324 
L 248.399323 169.791495 
L 247.856872 168.93975 
L 247.291779 168.088005 
L 246.70633 167.236261 
L 246.103145 166.384516 
L 245.485172 165.532771 
L 244.855686 164.681026 
L 244.218267 163.829281 
L 243.57678 162.977536 
L 242.935348 162.125792 
L 242.298315 161.274047 
L 241.670203 160.422302 
L 241.055666 159.570557 
L 240.459437 158.718812 
L 239.88627 157.867068 
L 239.340884 157.015323 
L 238.827894 156.163578 
L 238.351755 155.311833 
L 237.916695 154.460088 
L 237.526653 153.608343 
L 237.185224 152.756599 
L 236.895603 151.904854 
L 236.660535 151.053109 
L 236.482271 150.201364 
L 236.362536 149.349619 
L 236.3025 148.497875 
L 236.302758 147.64613 
L 236.363321 146.794385 
L 236.483617 145.94264 
L 236.662499 145.090895 
L 236.898261 144.23915 
L 237.188673 143.387406 
L 237.531005 142.535661 
L 272.461722 142.535661 
L 272.461722 142.535661 
L 272.804054 143.387406 
L 273.094466 144.23915 
L 273.330229 145.090895 
L 273.50911 145.94264 
L 273.629406 146.794385 
L 273.689969 147.64613 
L 273.690227 148.497875 
L 273.630191 149.349619 
L 273.510457 150.201364 
L 273.332193 151.053109 
L 273.097124 151.904854 
L 272.807503 152.756599 
L 272.466074 153.608343 
L 272.076032 154.460088 
L 271.640972 155.311833 
L 271.164833 156.163578 
L 270.651843 157.015323 
L 270.106457 157.867068 
L 269.53329 158.718812 
L 268.937061 159.570557 
L 268.322524 160.422302 
L 267.694412 161.274047 
L 267.057379 162.125792 
L 266.415948 162.977536 
L 265.774461 163.829281 
L 265.137041 164.681026 
L 264.507555 165.532771 
L 263.889583 166.384516 
L 263.286397 167.236261 
L 262.700948 168.088005 
L 262.135856 168.93975 
L 261.593404 169.791495 
L 261.075551 170.64324 
L 260.583932 171.494985 
L 260.11988 172.346729 
L 259.684444 173.198474 
L 259.278407 174.050219 
L 258.902318 174.901964 
L 258.556519 175.753709 
L 258.241173 176.605454 
L 257.956293 177.457198 
L 257.701776 178.308943 
L 257.47743 179.160688 
L 257.283005 180.012433 
L 257.118215 180.864178 
L 256.982765 181.715922 
L 256.876372 182.567667 
L 256.798782 183.419412 
L 256.749783 184.271157 
L 256.729219 185.122902 
L 256.73699 185.974647 
L 256.773061 186.826391 
L 256.837456 187.678136 
L 256.930253 188.529881 
L 257.051575 189.381626 
L 257.201573 190.233371 
L 257.380414 191.085115 
L 257.588256 191.93686 
L 257.825227 192.788605 
L 258.091399 193.64035 
L 258.38676 194.492095 
L 258.711188 195.34384 
L 259.064421 196.195584 
L 259.446025 197.047329 
L 259.855372 197.899074 
L 260.291607 198.750819 
L 260.753629 199.602564 
L 261.240068 200.454308 
L 261.749266 201.306053 
L 262.279269 202.157798 
L 262.827811 203.009543 
L 263.39232 203.861288 
L 263.969914 204.713033 
L 264.557418 205.564777 
L 265.151373 206.416522 
L 265.748066 207.268267 
L 266.343551 208.120012 
L 266.933692 208.971757 
L 267.5142 209.823501 
L 268.08068 210.675246 
L 268.628682 211.526991 
L 269.153756 212.378736 
L 269.651506 213.230481 
L 270.117656 214.082226 
L 270.548102 214.93397 
L 270.938973 215.785715 
L 271.28669 216.63746 
L 271.588017 217.489205 
L 271.840111 218.34095 
L 272.040567 219.192694 
L 272.187454 220.044439 
L 272.279348 220.896184 
L 272.315351 221.747929 
L 272.295109 222.599674 
L 272.218817 223.451419 
L 272.087212 224.303163 
L 271.901567 225.154908 
L 271.663665 226.006653 
L 271.375774 226.858398 
z
" clip-path="url(#pa416f6c5bc)" style="fill: #1f77b4; fill-opacity: 0.3"/>
   </g>
   <g id="PolyCollection_4">
    <path d="M 340.44952 237.773508 
L 319.094117 237.773508 
L 318.613832 236.084214 
L 318.205675 234.39492 
L 317.878917 232.705626 
L 317.641095 231.016332 
L 317.497703 229.327038 
L 317.451957 227.637744 
L 317.50464 225.94845 
L 317.654038 224.259157 
L 317.895976 222.569863 
L 318.223935 220.880569 
L 318.629257 219.191275 
L 319.10142 217.501981 
L 319.628364 215.812687 
L 320.196853 214.123393 
L 320.792853 212.434099 
L 321.401911 210.744805 
L 322.00951 209.055512 
L 322.601393 207.366218 
L 323.16385 205.676924 
L 323.683947 203.98763 
L 324.149715 202.298336 
L 324.55029 200.609042 
L 324.876012 198.919748 
L 325.118492 197.230454 
L 325.27067 195.54116 
L 325.326849 193.851867 
L 325.282744 192.162573 
L 325.135533 190.473279 
L 324.883923 188.783985 
L 324.528238 187.094691 
L 324.07051 185.405397 
L 323.51458 183.716103 
L 322.866202 182.026809 
L 322.133114 180.337515 
L 321.325089 178.648222 
L 320.453929 176.958928 
L 319.533403 175.269634 
L 318.579099 173.58034 
L 317.608207 171.891046 
L 316.639198 170.201752 
L 315.691434 168.512458 
L 314.784693 166.823164 
L 313.938634 165.13387 
L 313.172224 163.444577 
L 312.503148 161.755283 
L 311.947228 160.065989 
L 311.517891 158.376695 
L 311.225694 156.687401 
L 311.077955 154.998107 
L 311.07849 153.308813 
L 311.227494 151.619519 
L 311.521544 149.930225 
L 311.953751 148.240931 
L 312.514045 146.551638 
L 313.189568 144.862344 
L 313.965165 143.17305 
L 314.82395 141.483756 
L 315.747902 139.794462 
L 316.718479 138.105168 
L 317.717212 136.415874 
L 318.726253 134.72658 
L 319.728859 133.037286 
L 320.70979 131.347993 
L 321.655614 129.658699 
L 322.554915 127.969405 
L 323.398395 126.280111 
L 324.178898 124.590817 
L 324.891337 122.901523 
L 325.532565 121.212229 
L 326.101192 119.522935 
L 326.597362 117.833641 
L 327.022518 116.144348 
L 327.379158 114.455054 
L 327.670608 112.76576 
L 327.900802 111.076466 
L 328.074106 109.387172 
L 328.195155 107.697878 
L 328.268737 106.008584 
L 328.299704 104.31929 
L 328.292909 102.629996 
L 328.253169 100.940703 
L 328.18525 99.251409 
L 328.093858 97.562115 
L 327.983633 95.872821 
L 327.859156 94.183527 
L 327.724932 92.494233 
L 327.58538 90.804939 
L 327.444804 89.115645 
L 327.307353 87.426351 
L 327.176969 85.737058 
L 327.057329 84.047764 
L 326.951781 82.35847 
L 326.863272 80.669176 
L 326.794285 78.979882 
L 326.746782 77.290588 
L 326.722157 75.601294 
L 326.721204 73.912 
L 326.744104 72.222706 
L 326.790434 70.533413 
L 332.753202 70.533413 
L 332.753202 70.533413 
L 332.799532 72.222706 
L 332.822432 73.912 
L 332.821479 75.601294 
L 332.796854 77.290588 
L 332.749351 78.979882 
L 332.680365 80.669176 
L 332.591855 82.35847 
L 332.486307 84.047764 
L 332.366668 85.737058 
L 332.236284 87.426351 
L 332.098832 89.115645 
L 331.958257 90.804939 
L 331.818705 92.494233 
L 331.684481 94.183527 
L 331.560003 95.872821 
L 331.449779 97.562115 
L 331.358386 99.251409 
L 331.290467 100.940703 
L 331.250728 102.629996 
L 331.243932 104.31929 
L 331.274899 106.008584 
L 331.348481 107.697878 
L 331.46953 109.387172 
L 331.642834 111.076466 
L 331.873029 112.76576 
L 332.164478 114.455054 
L 332.521119 116.144348 
L 332.946274 117.833641 
L 333.442444 119.522935 
L 334.011071 121.212229 
L 334.6523 122.901523 
L 335.364739 124.590817 
L 336.145241 126.280111 
L 336.988722 127.969405 
L 337.888022 129.658699 
L 338.833846 131.347993 
L 339.814777 133.037286 
L 340.817383 134.72658 
L 341.826425 136.415874 
L 342.825157 138.105168 
L 343.795734 139.794462 
L 344.719686 141.483756 
L 345.578471 143.17305 
L 346.354069 144.862344 
L 347.029591 146.551638 
L 347.589885 148.240931 
L 348.022093 149.930225 
L 348.316142 151.619519 
L 348.465146 153.308813 
L 348.465682 154.998107 
L 348.317942 156.687401 
L 348.025745 158.376695 
L 347.596408 160.065989 
L 347.040489 161.755283 
L 346.371412 163.444577 
L 345.605002 165.13387 
L 344.758943 166.823164 
L 343.852202 168.512458 
L 342.904438 170.201752 
L 341.93543 171.891046 
L 340.964537 173.58034 
L 340.010234 175.269634 
L 339.089707 176.958928 
L 338.218547 178.648222 
L 337.410522 180.337515 
L 336.677434 182.026809 
L 336.029056 183.716103 
L 335.473127 185.405397 
L 335.015398 187.094691 
L 334.659713 188.783985 
L 334.408104 190.473279 
L 334.260892 192.162573 
L 334.216787 193.851867 
L 334.272966 195.54116 
L 334.425144 197.230454 
L 334.667625 198.919748 
L 334.993346 200.609042 
L 335.393921 202.298336 
L 335.85969 203.98763 
L 336.379787 205.676924 
L 336.942243 207.366218 
L 337.534126 209.055512 
L 338.141725 210.744805 
L 338.750783 212.434099 
L 339.346784 214.123393 
L 339.915272 215.812687 
L 340.442217 217.501981 
L 340.91438 219.191275 
L 341.319702 220.880569 
L 341.64766 222.569863 
L 341.889598 224.259157 
L 342.038997 225.94845 
L 342.091679 227.637744 
L 342.045933 229.327038 
L 341.902542 231.016332 
L 341.664719 232.705626 
L 341.337961 234.39492 
L 340.929805 236.084214 
L 340.44952 237.773508 
z
" clip-path="url(#pa416f6c5bc)" style="fill: #1f77b4; fill-opacity: 0.3"/>
   </g>
   <g id="PolyCollection_5">
    <path d="M 405.804963 278.201576 
L 403.289583 278.201576 
L 403.122938 276.311648 
L 402.937065 274.421721 
L 402.73038 272.531794 
L 402.501346 270.641867 
L 402.248491 268.75194 
L 401.970419 266.862013 
L 401.665796 264.972086 
L 401.333338 263.082159 
L 400.971784 261.192231 
L 400.579866 259.302304 
L 400.156288 257.412377 
L 399.699717 255.52245 
L 399.208804 253.632523 
L 398.682232 251.742596 
L 398.118814 249.852669 
L 397.51764 247.962742 
L 396.878262 246.072815 
L 396.200934 244.182887 
L 395.486873 242.29296 
L 394.738534 240.403033 
L 393.959877 238.513106 
L 393.156594 236.623179 
L 392.336272 234.733252 
L 391.508468 232.843325 
L 390.684659 230.953398 
L 389.878073 229.063471 
L 389.103374 227.173543 
L 388.376223 225.283616 
L 387.712711 223.393689 
L 387.128711 221.503762 
L 386.639169 219.613835 
L 386.257391 217.723908 
L 385.994359 215.833981 
L 385.858139 213.944054 
L 385.853409 212.054127 
L 385.98115 210.164199 
L 386.238522 208.274272 
L 386.618935 206.384345 
L 387.112309 204.494418 
L 387.705512 202.604491 
L 388.382934 200.714564 
L 389.12718 198.824637 
L 389.919805 196.93471 
L 390.742072 195.044782 
L 391.575671 193.154855 
L 392.403357 191.264928 
L 393.209482 189.375001 
L 393.980385 187.485074 
L 394.704636 185.595147 
L 395.373129 183.70522 
L 395.979034 181.815293 
L 396.517626 179.925366 
L 396.986023 178.035438 
L 397.382858 176.145511 
L 397.707924 174.255584 
L 397.961826 172.365657 
L 398.145675 170.47573 
L 398.260839 168.585803 
L 398.30879 166.695876 
L 398.291036 164.805949 
L 398.209163 162.916022 
L 398.064958 161.026094 
L 397.860614 159.136167 
L 397.598984 157.24624 
L 397.283855 155.356313 
L 396.920218 153.466386 
L 396.514481 151.576459 
L 396.074622 149.686532 
L 395.610226 147.796605 
L 395.132405 145.906677 
L 394.6536 144.01675 
L 394.187235 142.126823 
L 393.747281 140.236896 
L 393.347715 138.346969 
L 393.001935 136.457042 
L 392.722153 134.567115 
L 392.518825 132.677188 
L 392.400143 130.787261 
L 392.371641 128.897333 
L 392.43594 127.007406 
L 392.592644 125.117479 
L 392.838405 123.227552 
L 393.167151 121.337625 
L 393.570443 119.447698 
L 394.037956 117.557771 
L 394.558028 115.667844 
L 395.118255 113.777917 
L 395.706069 111.887989 
L 396.309289 109.998062 
L 396.916585 108.108135 
L 397.517855 106.218208 
L 398.104488 104.328281 
L 398.669505 102.438354 
L 399.207599 100.548427 
L 399.715073 98.6585 
L 400.189697 96.768573 
L 400.630507 94.878645 
L 401.037578 92.988718 
L 401.411778 91.098791 
L 407.682767 91.098791 
L 407.682767 91.098791 
L 408.056967 92.988718 
L 408.464039 94.878645 
L 408.904849 96.768573 
L 409.379472 98.6585 
L 409.886946 100.548427 
L 410.425041 102.438354 
L 410.990058 104.328281 
L 411.57669 106.218208 
L 412.177961 108.108135 
L 412.785257 109.998062 
L 413.388476 111.887989 
L 413.97629 113.777917 
L 414.536517 115.667844 
L 415.05659 117.557771 
L 415.524102 119.447698 
L 415.927394 121.337625 
L 416.25614 123.227552 
L 416.501902 125.117479 
L 416.658605 127.007406 
L 416.722904 128.897333 
L 416.694403 130.787261 
L 416.575721 132.677188 
L 416.372392 134.567115 
L 416.092611 136.457042 
L 415.74683 138.346969 
L 415.347264 140.236896 
L 414.90731 142.126823 
L 414.440946 144.01675 
L 413.96214 145.906677 
L 413.48432 147.796605 
L 413.019923 149.686532 
L 412.580064 151.576459 
L 412.174328 153.466386 
L 411.81069 155.356313 
L 411.495562 157.24624 
L 411.233931 159.136167 
L 411.029587 161.026094 
L 410.885382 162.916022 
L 410.803509 164.805949 
L 410.785756 166.695876 
L 410.833706 168.585803 
L 410.948871 170.47573 
L 411.132719 172.365657 
L 411.386622 174.255584 
L 411.711688 176.145511 
L 412.108523 178.035438 
L 412.57692 179.925366 
L 413.115512 181.815293 
L 413.721416 183.70522 
L 414.389909 185.595147 
L 415.11416 187.485074 
L 415.885063 189.375001 
L 416.691188 191.264928 
L 417.518874 193.154855 
L 418.352473 195.044782 
L 419.17474 196.93471 
L 419.967365 198.824637 
L 420.711611 200.714564 
L 421.389034 202.604491 
L 421.982236 204.494418 
L 422.47561 206.384345 
L 422.856023 208.274272 
L 423.113395 210.164199 
L 423.241136 212.054127 
L 423.236406 213.944054 
L 423.100186 215.833981 
L 422.837154 217.723908 
L 422.455376 219.613835 
L 421.965834 221.503762 
L 421.381834 223.393689 
L 420.718322 225.283616 
L 419.991171 227.173543 
L 419.216473 229.063471 
L 418.409886 230.953398 
L 417.586077 232.843325 
L 416.758273 234.733252 
L 415.937952 236.623179 
L 415.134668 238.513106 
L 414.356011 240.403033 
L 413.607672 242.29296 
L 412.893611 244.182887 
L 412.216284 246.072815 
L 411.576906 247.962742 
L 410.975731 249.852669 
L 410.412313 251.742596 
L 409.885741 253.632523 
L 409.394828 255.52245 
L 408.938258 257.412377 
L 408.51468 259.302304 
L 408.122762 261.192231 
L 407.761207 263.082159 
L 407.428749 264.972086 
L 407.124126 266.862013 
L 406.846054 268.75194 
L 406.5932 270.641867 
L 406.364165 272.531794 
L 406.15748 274.421721 
L 405.971608 276.311648 
L 405.804963 278.201576 
z
" clip-path="url(#pa416f6c5bc)" style="fill: #1f77b4; fill-opacity: 0.3"/>
   </g>
   <g id="PolyCollection_6">
    <path d="M 480.354711 323.829545 
L 478.290743 323.829545 
L 478.153898 321.408224 
L 478.000021 318.986903 
L 477.826672 316.565582 
L 477.631423 314.14426 
L 477.412007 311.722939 
L 477.166472 309.301618 
L 476.893324 306.880297 
L 476.591647 304.458976 
L 476.261195 302.037654 
L 475.902431 299.616333 
L 475.516539 297.195012 
L 475.105378 294.773691 
L 474.671408 292.352369 
L 474.217584 289.931048 
L 473.747228 287.509727 
L 473.263894 285.088406 
L 472.771226 282.667084 
L 472.272833 280.245763 
L 471.772163 277.824442 
L 471.2724 275.403121 
L 470.776367 272.981799 
L 470.286441 270.560478 
L 469.804478 268.139157 
L 469.331746 265.717836 
L 468.868869 263.296514 
L 468.415786 260.875193 
L 467.971742 258.453872 
L 467.535306 256.032551 
L 467.104451 253.611229 
L 466.676683 251.189908 
L 466.249248 248.768587 
L 465.819396 246.347266 
L 465.384713 243.925944 
L 464.943491 241.504623 
L 464.495117 239.083302 
L 464.040443 236.661981 
L 463.582098 234.240659 
L 463.124712 231.819338 
L 462.674996 229.398017 
L 462.241671 226.976696 
L 461.83521 224.555374 
L 461.467413 222.134053 
L 461.150809 219.712732 
L 460.897939 217.291411 
L 460.720565 214.87009 
L 460.628864 212.448768 
L 460.630665 210.027447 
L 460.730824 207.606126 
L 460.930755 205.184805 
L 461.228194 202.763483 
L 461.617198 200.342162 
L 462.088404 197.920841 
L 462.629503 195.49952 
L 463.225924 193.078198 
L 463.86165 190.656877 
L 464.520115 188.235556 
L 465.185116 185.814235 
L 465.841663 183.392913 
L 466.476722 180.971592 
L 467.079792 178.550271 
L 467.643282 176.12895 
L 468.162686 173.707628 
L 468.636539 171.286307 
L 469.066178 168.864986 
L 469.45535 166.443665 
L 469.809684 164.022343 
L 470.136104 161.601022 
L 470.442201 159.179701 
L 470.735638 156.75838 
L 471.023613 154.337058 
L 471.312407 151.915737 
L 471.60706 149.494416 
L 471.911148 147.073095 
L 472.226703 144.651773 
L 472.554225 142.230452 
L 472.8928 139.809131 
L 473.240293 137.38781 
L 473.593594 134.966488 
L 473.948902 132.545167 
L 474.302018 130.123846 
L 474.648643 127.702525 
L 474.984653 125.281204 
L 475.306348 122.859882 
L 475.610648 120.438561 
L 475.895245 118.01724 
L 476.158697 115.595919 
L 476.400453 113.174597 
L 476.620818 110.753276 
L 476.82087 108.331955 
L 477.002323 105.910634 
L 477.167355 103.489312 
L 477.31842 101.067991 
L 477.458059 98.64667 
L 477.588721 96.225349 
L 477.712604 93.804027 
L 477.831543 91.382706 
L 477.946927 88.961385 
L 478.059665 86.540064 
L 478.170196 84.118742 
L 480.475258 84.118742 
L 480.475258 84.118742 
L 480.585789 86.540064 
L 480.698528 88.961385 
L 480.813912 91.382706 
L 480.932851 93.804027 
L 481.056734 96.225349 
L 481.187395 98.64667 
L 481.327035 101.067991 
L 481.4781 103.489312 
L 481.643131 105.910634 
L 481.824584 108.331955 
L 482.024637 110.753276 
L 482.245002 113.174597 
L 482.486757 115.595919 
L 482.750209 118.01724 
L 483.034807 120.438561 
L 483.339106 122.859882 
L 483.660801 125.281204 
L 483.996812 127.702525 
L 484.343437 130.123846 
L 484.696553 132.545167 
L 485.05186 134.966488 
L 485.405162 137.38781 
L 485.752655 139.809131 
L 486.09123 142.230452 
L 486.418751 144.651773 
L 486.734306 147.073095 
L 487.038395 149.494416 
L 487.333047 151.915737 
L 487.621842 154.337058 
L 487.909816 156.75838 
L 488.203254 159.179701 
L 488.509351 161.601022 
L 488.83577 164.022343 
L 489.190105 166.443665 
L 489.579277 168.864986 
L 490.008916 171.286307 
L 490.482768 173.707628 
L 491.002172 176.12895 
L 491.565663 178.550271 
L 492.168732 180.971592 
L 492.803792 183.392913 
L 493.460339 185.814235 
L 494.125339 188.235556 
L 494.783805 190.656877 
L 495.419531 193.078198 
L 496.015952 195.49952 
L 496.557051 197.920841 
L 497.028256 200.342162 
L 497.417261 202.763483 
L 497.714699 205.184805 
L 497.91463 207.606126 
L 498.014789 210.027447 
L 498.016591 212.448768 
L 497.924889 214.87009 
L 497.747516 217.291411 
L 497.494646 219.712732 
L 497.178041 222.134053 
L 496.810244 224.555374 
L 496.403784 226.976696 
L 495.970459 229.398017 
L 495.520743 231.819338 
L 495.063357 234.240659 
L 494.605012 236.661981 
L 494.150337 239.083302 
L 493.701964 241.504623 
L 493.260742 243.925944 
L 492.826059 246.347266 
L 492.396207 248.768587 
L 491.968771 251.189908 
L 491.541004 253.611229 
L 491.110148 256.032551 
L 490.673713 258.453872 
L 490.229668 260.875193 
L 489.776586 263.296514 
L 489.313708 265.717836 
L 488.840976 268.139157 
L 488.359013 270.560478 
L 487.869087 272.981799 
L 487.373054 275.403121 
L 486.873291 277.824442 
L 486.372622 280.245763 
L 485.874228 282.667084 
L 485.381561 285.088406 
L 484.898226 287.509727 
L 484.427871 289.931048 
L 483.974047 292.352369 
L 483.540077 294.773691 
L 483.128915 297.195012 
L 482.743023 299.616333 
L 482.38426 302.037654 
L 482.053807 304.458976 
L 481.752131 306.880297 
L 481.478983 309.301618 
L 481.233447 311.722939 
L 481.014032 314.14426 
L 480.818783 316.565582 
L 480.645434 318.986903 
L 480.491556 321.408224 
L 480.354711 323.829545 
z
" clip-path="url(#pa416f6c5bc)" style="fill: #1f77b4; fill-opacity: 0.3"/>
   </g>
   <g id="PolyCollection_7">
    <path d="M 570.917578 241.193263 
L 537.278785 241.193263 
L 536.815972 240.104923 
L 536.411882 239.016582 
L 536.071016 237.928241 
L 535.797188 236.839901 
L 535.593449 235.75156 
L 535.462035 234.66322 
L 535.404318 233.574879 
L 535.42079 232.486538 
L 535.511049 231.398198 
L 535.673813 230.309857 
L 535.906948 229.221517 
L 536.207513 228.133176 
L 536.571818 227.044835 
L 536.995497 225.956495 
L 537.473595 224.868154 
L 538.000656 223.779814 
L 538.570829 222.691473 
L 539.177966 221.603132 
L 539.81573 220.514792 
L 540.477696 219.426451 
L 541.157452 218.33811 
L 541.848698 217.24977 
L 542.545322 216.161429 
L 543.241487 215.073089 
L 543.931696 213.984748 
L 544.610844 212.896407 
L 545.274263 211.808067 
L 545.917759 210.719726 
L 546.537623 209.631386 
L 547.130648 208.543045 
L 547.69412 207.454704 
L 548.22581 206.366364 
L 548.723951 205.278023 
L 549.18721 204.189683 
L 549.614654 203.101342 
L 550.005709 202.013001 
L 550.36012 200.924661 
L 550.677902 199.83632 
L 550.959298 198.74798 
L 551.204732 197.659639 
L 551.414768 196.571298 
L 551.590065 195.482958 
L 551.731344 194.394617 
L 551.839352 193.306277 
L 551.914836 192.217936 
L 551.95852 191.129595 
L 551.971092 190.041255 
L 551.953185 188.952914 
L 551.905382 187.864574 
L 551.828214 186.776233 
L 551.722167 185.687892 
L 551.587696 184.599552 
L 551.425245 183.511211 
L 551.235268 182.422871 
L 551.018256 181.33453 
L 550.77477 180.246189 
L 550.505466 179.157849 
L 550.211135 178.069508 
L 549.89273 176.981168 
L 549.551401 175.892827 
L 549.188522 174.804486 
L 548.805717 173.716146 
L 548.404881 172.627805 
L 547.988195 171.539465 
L 547.558131 170.451124 
L 547.117461 169.362783 
L 546.669241 168.274443 
L 546.216801 167.186102 
L 545.763719 166.097762 
L 545.313788 165.009421 
L 544.870979 163.92108 
L 544.439388 162.83274 
L 544.023184 161.744399 
L 543.626548 160.656059 
L 543.253609 159.567718 
L 542.908377 158.479377 
L 542.594675 157.391037 
L 542.31607 156.302696 
L 542.07581 155.214356 
L 541.876763 154.126015 
L 541.721363 153.037674 
L 541.611559 151.949334 
L 541.548782 150.860993 
L 541.533912 149.772653 
L 541.567263 148.684312 
L 541.648574 147.595971 
L 541.777014 146.507631 
L 541.951202 145.41929 
L 542.169227 144.33095 
L 542.428692 143.242609 
L 542.726755 142.154268 
L 543.060185 141.065928 
L 543.425425 139.977587 
L 543.81865 138.889247 
L 544.235845 137.800906 
L 544.672866 136.712565 
L 545.125515 135.624225 
L 545.589604 134.535884 
L 546.061022 133.447544 
L 562.135342 133.447544 
L 562.135342 133.447544 
L 562.60676 134.535884 
L 563.070848 135.624225 
L 563.523497 136.712565 
L 563.960518 137.800906 
L 564.377713 138.889247 
L 564.770939 139.977587 
L 565.136178 141.065928 
L 565.469609 142.154268 
L 565.767672 143.242609 
L 566.027136 144.33095 
L 566.245162 145.41929 
L 566.419349 146.507631 
L 566.54779 147.595971 
L 566.629101 148.684312 
L 566.662451 149.772653 
L 566.647581 150.860993 
L 566.584804 151.949334 
L 566.475001 153.037674 
L 566.3196 154.126015 
L 566.120554 155.214356 
L 565.880294 156.302696 
L 565.601689 157.391037 
L 565.287987 158.479377 
L 564.942755 159.567718 
L 564.569816 160.656059 
L 564.17318 161.744399 
L 563.756976 162.83274 
L 563.325384 163.92108 
L 562.882575 165.009421 
L 562.432645 166.097762 
L 561.979563 167.186102 
L 561.527122 168.274443 
L 561.078902 169.362783 
L 560.638232 170.451124 
L 560.208169 171.539465 
L 559.791482 172.627805 
L 559.390647 173.716146 
L 559.007842 174.804486 
L 558.644963 175.892827 
L 558.303634 176.981168 
L 557.985229 178.069508 
L 557.690898 179.157849 
L 557.421594 180.246189 
L 557.178107 181.33453 
L 556.961096 182.422871 
L 556.771119 183.511211 
L 556.608668 184.599552 
L 556.474197 185.687892 
L 556.368149 186.776233 
L 556.290981 187.864574 
L 556.243179 188.952914 
L 556.225272 190.041255 
L 556.237843 191.129595 
L 556.281528 192.217936 
L 556.357012 193.306277 
L 556.46502 194.394617 
L 556.606298 195.482958 
L 556.781595 196.571298 
L 556.991631 197.659639 
L 557.237066 198.74798 
L 557.518462 199.83632 
L 557.836244 200.924661 
L 558.190655 202.013001 
L 558.58171 203.101342 
L 559.009154 204.189683 
L 559.472413 205.278023 
L 559.970554 206.366364 
L 560.502244 207.454704 
L 561.065716 208.543045 
L 561.658741 209.631386 
L 562.278605 210.719726 
L 562.9221 211.808067 
L 563.58552 212.896407 
L 564.264667 213.984748 
L 564.954876 215.073089 
L 565.651042 216.161429 
L 566.347666 217.24977 
L 567.038911 218.33811 
L 567.718668 219.426451 
L 568.380634 220.514792 
L 569.018397 221.603132 
L 569.625534 222.691473 
L 570.195707 223.779814 
L 570.722769 224.868154 
L 571.200866 225.956495 
L 571.624546 227.044835 
L 571.98885 228.133176 
L 572.289415 229.221517 
L 572.522551 230.309857 
L 572.685315 231.398198 
L 572.775574 232.486538 
L 572.792045 233.574879 
L 572.734329 234.66322 
L 572.602915 235.75156 
L 572.399176 236.839901 
L 572.125347 237.928241 
L 571.784482 239.016582 
L 571.380391 240.104923 
L 570.917578 241.193263 
z
" clip-path="url(#pa416f6c5bc)" style="fill: #1f77b4; fill-opacity: 0.3"/>
   </g>
   <g id="PolyCollection_8">
    <path d="M 640.913804 309.26045 
L 616.833469 309.26045 
L 615.911141 308.022581 
L 615.042469 306.784712 
L 614.247107 305.546843 
L 613.543914 304.308974 
L 612.950219 303.071105 
L 612.481112 301.833236 
L 612.148799 300.595366 
L 611.962071 299.357497 
L 611.925911 298.119628 
L 612.041263 296.881759 
L 612.304973 295.64389 
L 612.709917 294.406021 
L 613.245298 293.168152 
L 613.897093 291.930282 
L 614.648621 290.692413 
L 615.481207 289.454544 
L 616.374887 288.216675 
L 617.309126 286.978806 
L 618.263495 285.740937 
L 619.218292 284.503068 
L 620.15506 283.265198 
L 621.056988 282.027329 
L 621.909189 280.78946 
L 622.698845 279.551591 
L 623.415229 278.313722 
L 624.049625 277.075853 
L 624.595155 275.837984 
L 625.046548 274.600115 
L 625.399874 273.362245 
L 625.652279 272.124376 
L 625.801741 270.886507 
L 625.846865 269.648638 
L 625.786763 268.410769 
L 625.620996 267.1729 
L 625.349616 265.935031 
L 624.973288 264.697161 
L 624.493498 263.459292 
L 623.91282 262.221423 
L 623.235226 260.983554 
L 622.466414 259.745685 
L 621.614121 258.507816 
L 620.688379 257.269947 
L 619.701697 256.032077 
L 618.669128 254.794208 
L 617.608197 253.556339 
L 616.538676 252.31847 
L 615.4822 251.080601 
L 614.461728 249.842732 
L 613.500862 248.604863 
L 612.623054 247.366993 
L 611.850753 246.129124 
L 611.204514 244.891255 
L 610.702143 243.653386 
L 610.357924 242.415517 
L 610.181974 241.177648 
L 610.179773 239.939779 
L 610.351902 238.70191 
L 610.694009 237.46404 
L 611.196997 236.226171 
L 611.847443 234.988302 
L 612.628194 233.750433 
L 613.519137 232.512564 
L 614.498055 231.274695 
L 615.541557 230.036826 
L 616.626 228.798956 
L 617.72836 227.561087 
L 618.827015 226.323218 
L 619.902397 225.085349 
L 620.937488 223.84748 
L 621.918154 222.609611 
L 622.833314 221.371742 
L 623.674952 220.133872 
L 624.437989 218.896003 
L 625.120052 217.658134 
L 625.721152 216.420265 
L 626.243311 215.182396 
L 626.690164 213.944527 
L 627.066568 212.706658 
L 627.378219 211.468789 
L 627.631323 210.230919 
L 627.832308 208.99305 
L 627.987587 207.755181 
L 628.103384 206.517312 
L 628.185603 205.279443 
L 628.239751 204.041574 
L 628.27089 202.803705 
L 628.283625 201.565835 
L 628.282109 200.327966 
L 628.270059 199.090097 
L 628.250784 197.852228 
L 628.227205 196.614359 
L 628.201879 195.37649 
L 628.177014 194.138621 
L 628.154485 192.900751 
L 628.13584 191.662882 
L 628.122302 190.425013 
L 628.114782 189.187144 
L 628.113877 187.949275 
L 628.119888 186.711406 
L 629.627385 186.711406 
L 629.627385 186.711406 
L 629.633396 187.949275 
L 629.632491 189.187144 
L 629.62497 190.425013 
L 629.611433 191.662882 
L 629.592787 192.900751 
L 629.570259 194.138621 
L 629.545394 195.37649 
L 629.520068 196.614359 
L 629.496488 197.852228 
L 629.477213 199.090097 
L 629.465164 200.327966 
L 629.463648 201.565835 
L 629.476383 202.803705 
L 629.507522 204.041574 
L 629.56167 205.279443 
L 629.643889 206.517312 
L 629.759685 207.755181 
L 629.914965 208.99305 
L 630.115949 210.230919 
L 630.369054 211.468789 
L 630.680705 212.706658 
L 631.057108 213.944527 
L 631.503962 215.182396 
L 632.026121 216.420265 
L 632.627221 217.658134 
L 633.309284 218.896003 
L 634.072321 220.133872 
L 634.913958 221.371742 
L 635.829119 222.609611 
L 636.809785 223.84748 
L 637.844875 225.085349 
L 638.920257 226.323218 
L 640.018913 227.561087 
L 641.121273 228.798956 
L 642.205716 230.036826 
L 643.249218 231.274695 
L 644.228136 232.512564 
L 645.119078 233.750433 
L 645.89983 234.988302 
L 646.550275 236.226171 
L 647.053264 237.46404 
L 647.395371 238.70191 
L 647.5675 239.939779 
L 647.565299 241.177648 
L 647.389349 242.415517 
L 647.04513 243.653386 
L 646.542759 244.891255 
L 645.89652 246.129124 
L 645.124219 247.366993 
L 644.246411 248.604863 
L 643.285544 249.842732 
L 642.265073 251.080601 
L 641.208597 252.31847 
L 640.139076 253.556339 
L 639.078145 254.794208 
L 638.045576 256.032077 
L 637.058894 257.269947 
L 636.133152 258.507816 
L 635.280859 259.745685 
L 634.512047 260.983554 
L 633.834453 262.221423 
L 633.253774 263.459292 
L 632.773985 264.697161 
L 632.397657 265.935031 
L 632.126276 267.1729 
L 631.960509 268.410769 
L 631.900407 269.648638 
L 631.945532 270.886507 
L 632.094993 272.124376 
L 632.347399 273.362245 
L 632.700725 274.600115 
L 633.152117 275.837984 
L 633.697648 277.075853 
L 634.332044 278.313722 
L 635.048428 279.551591 
L 635.838084 280.78946 
L 636.690284 282.027329 
L 637.592213 283.265198 
L 638.528981 284.503068 
L 639.483778 285.740937 
L 640.438147 286.978806 
L 641.372386 288.216675 
L 642.266066 289.454544 
L 643.098652 290.692413 
L 643.85018 291.930282 
L 644.501974 293.168152 
L 645.037356 294.406021 
L 645.4423 295.64389 
L 645.70601 296.881759 
L 645.821361 298.119628 
L 645.785202 299.357497 
L 645.598474 300.595366 
L 645.266161 301.833236 
L 644.797053 303.071105 
L 644.203359 304.308974 
L 643.500166 305.546843 
L 642.704803 306.784712 
L 641.836132 308.022581 
L 640.913804 309.26045 
z
" clip-path="url(#pa416f6c5bc)" style="fill: #1f77b4; fill-opacity: 0.3"/>
   </g>
   <g id="PolyCollection_9">
    <path d="M 718.329276 313.663971 
L 688.968906 313.663971 
L 688.742481 312.93289 
L 688.56221 312.201809 
L 688.429835 311.470728 
L 688.346642 310.739647 
L 688.313439 310.008566 
L 688.330546 309.277485 
L 688.397785 308.546404 
L 688.514488 307.815323 
L 688.679504 307.084242 
L 688.891222 306.353161 
L 689.147589 305.62208 
L 689.446153 304.890999 
L 689.784092 304.159918 
L 690.158264 303.428837 
L 690.565252 302.697757 
L 691.001417 301.966676 
L 691.462947 301.235595 
L 691.945915 300.504514 
L 692.44633 299.773433 
L 692.96019 299.042352 
L 693.483532 298.311271 
L 694.012479 297.58019 
L 694.543281 296.849109 
L 695.072355 296.118028 
L 695.596319 295.386947 
L 696.112017 294.655866 
L 696.616539 293.924785 
L 697.107243 293.193704 
L 697.581758 292.462623 
L 698.037989 291.731542 
L 698.47412 291.000461 
L 698.8886 290.26938 
L 699.280137 289.538299 
L 699.647681 288.807218 
L 699.990404 288.076137 
L 700.307675 287.345056 
L 700.599045 286.613975 
L 700.86421 285.882894 
L 701.102993 285.151813 
L 701.315311 284.420732 
L 701.501153 283.689651 
L 701.660554 282.95857 
L 701.793567 282.227489 
L 701.900247 281.496408 
L 701.98063 280.765327 
L 702.034717 280.034246 
L 702.062457 279.303165 
L 702.063747 278.572085 
L 702.038418 277.841004 
L 701.986237 277.109923 
L 701.906911 276.378842 
L 701.80009 275.647761 
L 701.665381 274.91668 
L 701.502361 274.185599 
L 701.310595 273.454518 
L 701.089654 272.723437 
L 700.839146 271.992356 
L 700.558738 271.261275 
L 700.248184 270.530194 
L 699.90736 269.799113 
L 699.536288 269.068032 
L 699.135175 268.336951 
L 698.704438 267.60587 
L 698.244735 266.874789 
L 697.756993 266.143708 
L 697.24243 265.412627 
L 696.70258 264.681546 
L 696.139303 263.950465 
L 695.554803 263.219384 
L 694.951627 262.488303 
L 694.332668 261.757222 
L 693.701158 261.026141 
L 693.06065 260.29506 
L 692.415 259.563979 
L 691.768336 258.832898 
L 691.125024 258.101817 
L 690.489626 257.370736 
L 689.86685 256.639655 
L 689.261498 255.908574 
L 688.678411 255.177493 
L 688.1224 254.446413 
L 687.598189 253.715332 
L 687.11035 252.984251 
L 686.663231 252.25317 
L 686.260902 251.522089 
L 685.907087 250.791008 
L 685.60511 250.059927 
L 685.357844 249.328846 
L 685.167665 248.597765 
L 685.036415 247.866684 
L 684.965371 247.135603 
L 684.955227 246.404522 
L 685.006081 245.673441 
L 685.117434 244.94236 
L 685.288198 244.211279 
L 685.516716 243.480198 
L 685.800784 242.749117 
L 686.137691 242.018036 
L 686.524262 241.286955 
L 720.773919 241.286955 
L 720.773919 241.286955 
L 721.160491 242.018036 
L 721.497398 242.749117 
L 721.781466 243.480198 
L 722.009983 244.211279 
L 722.180748 244.94236 
L 722.292101 245.673441 
L 722.342955 246.404522 
L 722.332811 247.135603 
L 722.261767 247.866684 
L 722.130517 248.597765 
L 721.940338 249.328846 
L 721.693072 250.059927 
L 721.391095 250.791008 
L 721.03728 251.522089 
L 720.634951 252.25317 
L 720.187832 252.984251 
L 719.699993 253.715332 
L 719.175782 254.446413 
L 718.619771 255.177493 
L 718.036683 255.908574 
L 717.431332 256.639655 
L 716.808556 257.370736 
L 716.173158 258.101817 
L 715.529846 258.832898 
L 714.883182 259.563979 
L 714.237532 260.29506 
L 713.597024 261.026141 
L 712.965513 261.757222 
L 712.346555 262.488303 
L 711.743379 263.219384 
L 711.158879 263.950465 
L 710.595602 264.681546 
L 710.055752 265.412627 
L 709.541189 266.143708 
L 709.053447 266.874789 
L 708.593744 267.60587 
L 708.163006 268.336951 
L 707.761893 269.068032 
L 707.390822 269.799113 
L 707.049997 270.530194 
L 706.739444 271.261275 
L 706.459036 271.992356 
L 706.208528 272.723437 
L 705.987587 273.454518 
L 705.79582 274.185599 
L 705.632801 274.91668 
L 705.498092 275.647761 
L 705.391271 276.378842 
L 705.311945 277.109923 
L 705.259764 277.841004 
L 705.234435 278.572085 
L 705.235725 279.303165 
L 705.263465 280.034246 
L 705.317551 280.765327 
L 705.397935 281.496408 
L 705.504615 282.227489 
L 705.637628 282.95857 
L 705.797028 283.689651 
L 705.982871 284.420732 
L 706.195189 285.151813 
L 706.433971 285.882894 
L 706.699137 286.613975 
L 706.990506 287.345056 
L 707.307778 288.076137 
L 707.6505 288.807218 
L 708.018044 289.538299 
L 708.409582 290.26938 
L 708.824062 291.000461 
L 709.260192 291.731542 
L 709.716424 292.462623 
L 710.190938 293.193704 
L 710.681642 293.924785 
L 711.186165 294.655866 
L 711.701863 295.386947 
L 712.225827 296.118028 
L 712.754901 296.849109 
L 713.285703 297.58019 
L 713.814649 298.311271 
L 714.337991 299.042352 
L 714.851852 299.773433 
L 715.352267 300.504514 
L 715.835235 301.235595 
L 716.296765 301.966676 
L 716.732929 302.697757 
L 717.139918 303.428837 
L 717.51409 304.159918 
L 717.852029 304.890999 
L 718.150593 305.62208 
L 718.40696 306.353161 
L 718.618678 307.084242 
L 718.783694 307.815323 
L 718.900397 308.546404 
L 718.967636 309.277485 
L 718.984742 310.008566 
L 718.95154 310.739647 
L 718.868346 311.470728 
L 718.735972 312.201809 
L 718.555701 312.93289 
L 718.329276 313.663971 
z
" clip-path="url(#pa416f6c5bc)" style="fill: #1f77b4; fill-opacity: 0.3"/>
   </g>
   <g id="PolyCollection_10">
    <path d="M 792.693814 306.871306 
L 764.155277 306.871306 
L 763.179869 305.650472 
L 762.287801 304.429638 
L 761.500815 303.208803 
L 760.838821 301.987969 
L 760.319058 300.767135 
L 759.955341 299.546301 
L 759.757449 298.325466 
L 759.730682 297.104632 
L 759.875615 295.883798 
L 760.188075 294.662964 
L 760.659327 293.442129 
L 761.276465 292.221295 
L 762.02298 291.000461 
L 762.879467 289.779627 
L 763.824423 288.558793 
L 764.8351 287.337958 
L 765.888338 286.117124 
L 766.961364 284.89629 
L 768.032483 283.675456 
L 769.081657 282.454621 
L 770.090931 281.233787 
L 771.044709 280.012953 
L 771.929871 278.792119 
L 772.735748 277.571284 
L 773.453979 276.35045 
L 774.07826 275.129616 
L 774.604039 273.908782 
L 775.028171 272.687947 
L 775.348575 271.467113 
L 775.563919 270.246279 
L 775.673371 269.025445 
L 775.676419 267.80461 
L 775.572787 266.583776 
L 775.362456 265.362942 
L 775.04578 264.142108 
L 774.623698 262.921273 
L 774.098019 261.700439 
L 773.47176 260.479605 
L 772.749516 259.258771 
L 771.937814 258.037937 
L 771.04543 256.817102 
L 770.083624 255.596268 
L 769.066275 254.375434 
L 768.009867 253.1546 
L 766.933326 251.933765 
L 765.857695 250.712931 
L 764.805636 249.492097 
L 763.80079 248.271263 
L 762.867012 247.050428 
L 762.027515 245.829594 
L 761.303983 244.60876 
L 760.715688 243.387926 
L 760.278674 242.167091 
L 760.005059 240.946257 
L 759.9025 239.725423 
L 759.973848 238.504589 
L 760.217034 237.283754 
L 760.625175 236.06292 
L 761.186908 234.842086 
L 761.886915 233.621252 
L 762.706626 232.400417 
L 763.625036 231.179583 
L 764.619593 229.958749 
L 765.667114 228.737915 
L 766.74466 227.51708 
L 767.83034 226.296246 
L 768.904004 225.075412 
L 769.947784 223.854578 
L 770.946494 222.633744 
L 771.887856 221.412909 
L 772.762579 220.192075 
L 773.564294 218.971241 
L 774.289373 217.750407 
L 774.936654 216.529572 
L 775.507101 215.308738 
L 776.00343 214.087904 
L 776.429719 212.86707 
L 776.791034 211.646235 
L 777.093079 210.425401 
L 777.341892 209.204567 
L 777.543584 207.983733 
L 777.704135 206.762898 
L 777.829244 205.542064 
L 777.924219 204.32123 
L 777.993918 203.100396 
L 778.042719 201.879561 
L 778.074524 200.658727 
L 778.092777 199.437893 
L 778.100492 198.217059 
L 778.100298 196.996224 
L 778.094474 195.77539 
L 778.084987 194.554556 
L 778.073526 193.333722 
L 778.061526 192.112888 
L 778.050191 190.892053 
L 778.040507 189.671219 
L 778.033255 188.450385 
L 778.02902 187.229551 
L 778.028201 186.008716 
L 778.820889 186.008716 
L 778.820889 186.008716 
L 778.82007 187.229551 
L 778.815836 188.450385 
L 778.808584 189.671219 
L 778.7989 190.892053 
L 778.787565 192.112888 
L 778.775565 193.333722 
L 778.764104 194.554556 
L 778.754617 195.77539 
L 778.748793 196.996224 
L 778.748599 198.217059 
L 778.756314 199.437893 
L 778.774567 200.658727 
L 778.806372 201.879561 
L 778.855173 203.100396 
L 778.924872 204.32123 
L 779.019847 205.542064 
L 779.144955 206.762898 
L 779.305507 207.983733 
L 779.507199 209.204567 
L 779.756011 210.425401 
L 780.058057 211.646235 
L 780.419372 212.86707 
L 780.845661 214.087904 
L 781.341989 215.308738 
L 781.912437 216.529572 
L 782.559718 217.750407 
L 783.284797 218.971241 
L 784.086512 220.192075 
L 784.961235 221.412909 
L 785.902597 222.633744 
L 786.901307 223.854578 
L 787.945087 225.075412 
L 789.018751 226.296246 
L 790.104431 227.51708 
L 791.181977 228.737915 
L 792.229498 229.958749 
L 793.224055 231.179583 
L 794.142465 232.400417 
L 794.962176 233.621252 
L 795.662183 234.842086 
L 796.223916 236.06292 
L 796.632057 237.283754 
L 796.875243 238.504589 
L 796.946591 239.725423 
L 796.844032 240.946257 
L 796.570417 242.167091 
L 796.133403 243.387926 
L 795.545108 244.60876 
L 794.821576 245.829594 
L 793.982079 247.050428 
L 793.048301 248.271263 
L 792.043455 249.492097 
L 790.991396 250.712931 
L 789.915765 251.933765 
L 788.839224 253.1546 
L 787.782816 254.375434 
L 786.765466 255.596268 
L 785.803661 256.817102 
L 784.911277 258.037937 
L 784.099575 259.258771 
L 783.377331 260.479605 
L 782.751072 261.700439 
L 782.225392 262.921273 
L 781.803311 264.142108 
L 781.486635 265.362942 
L 781.276304 266.583776 
L 781.172672 267.80461 
L 781.17572 269.025445 
L 781.285172 270.246279 
L 781.500516 271.467113 
L 781.820919 272.687947 
L 782.245051 273.908782 
L 782.770831 275.129616 
L 783.395112 276.35045 
L 784.113343 277.571284 
L 784.91922 278.792119 
L 785.804382 280.012953 
L 786.75816 281.233787 
L 787.767434 282.454621 
L 788.816608 283.675456 
L 789.887727 284.89629 
L 790.960753 286.117124 
L 792.013991 287.337958 
L 793.024668 288.558793 
L 793.969624 289.779627 
L 794.826111 291.000461 
L 795.572626 292.221295 
L 796.189764 293.442129 
L 796.661016 294.662964 
L 796.973476 295.883798 
L 797.118409 297.104632 
L 797.091641 298.325466 
L 796.89375 299.546301 
L 796.530033 300.767135 
L 796.010269 301.987969 
L 795.348276 303.208803 
L 794.56129 304.429638 
L 793.669222 305.650472 
L 792.693814 306.871306 
z
" clip-path="url(#pa416f6c5bc)" style="fill: #1f77b4; fill-opacity: 0.3"/>
   </g>
   <g id="matplotlib.axis_1">
    <g id="xtick_1">
     <g id="line2d_1">
      <defs>
       <path id="m55af44377d" d="M 0 0 
L 0 3.5 
" style="stroke: #000000; stroke-width: 0.8"/>
      </defs>
      <g>
       <use xlink:href="#m55af44377d" x="105.445455" y="337.97" style="stroke: #000000; stroke-width: 0.8"/>
      </g>
     </g>
     <g id="text_1">
      <!-- Tit For Tat -->
      <g transform="translate(107.652955 384.15)rotate(-90)scale(0.08 -0.08)">
       <defs>
        <path id="DejaVuSans-54" d="M -19 4666 
L 3928 4666 
L 3928 4134 
L 2272 4134 
L 2272 0 
L 1638 0 
L 1638 4134 
L -19 4134 
L -19 4666 
z
" transform="scale(0.015625)"/>
        <path id="DejaVuSans-69" d="M 603 3500 
L 1178 3500 
L 1178 0 
L 603 0 
L 603 3500 
z
M 603 4863 
L 1178 4863 
L 1178 4134 
L 603 4134 
L 603 4863 
z
" transform="scale(0.015625)"/>
        <path id="DejaVuSans-74" d="M 1172 4494 
L 1172 3500 
L 2356 3500 
L 2356 3053 
L 1172 3053 
L 1172 1153 
Q 1172 725 1289 603 
Q 1406 481 1766 481 
L 2356 481 
L 2356 0 
L 1766 0 
Q 1100 0 847 248 
Q 594 497 594 1153 
L 594 3053 
L 172 3053 
L 172 3500 
L 594 3500 
L 594 4494 
L 1172 4494 
z
" transform="scale(0.015625)"/>
        <path id="DejaVuSans-20" transform="scale(0.015625)"/>
        <path id="DejaVuSans-46" d="M 628 4666 
L 3309 4666 
L 3309 4134 
L 1259 4134 
L 1259 2759 
L 3109 2759 
L 3109 2228 
L 1259 2228 
L 1259 0 
L 628 0 
L 628 4666 
z
" transform="scale(0.015625)"/>
        <path id="DejaVuSans-6f" d="M 1959 3097 
Q 1497 3097 1228 2736 
Q 959 2375 959 1747 
Q 959 1119 1226 758 
Q 1494 397 1959 397 
Q 2419 397 2687 759 
Q 2956 1122 2956 1747 
Q 2956 2369 2687 2733 
Q 2419 3097 1959 3097 
z
M 1959 3584 
Q 2709 3584 3137 3096 
Q 3566 2609 3566 1747 
Q 3566 888 3137 398 
Q 2709 -91 1959 -91 
Q 1206 -91 779 398 
Q 353 888 353 1747 
Q 353 2609 779 3096 
Q 1206 3584 1959 3584 
z
" transform="scale(0.015625)"/>
        <path id="DejaVuSans-72" d="M 2631 2963 
Q 2534 3019 2420 3045 
Q 2306 3072 2169 3072 
Q 1681 3072 1420 2755 
Q 1159 2438 1159 1844 
L 1159 0 
L 581 0 
L 581 3500 
L 1159 3500 
L 1159 2956 
Q 1341 3275 1631 3429 
Q 1922 3584 2338 3584 
Q 2397 3584 2469 3576 
Q 2541 3569 2628 3553 
L 2631 2963 
z
" transform="scale(0.015625)"/>
        <path id="DejaVuSans-61" d="M 2194 1759 
Q 1497 1759 1228 1600 
Q 959 1441 959 1056 
Q 959 750 1161 570 
Q 1363 391 1709 391 
Q 2188 391 2477 730 
Q 2766 1069 2766 1631 
L 2766 1759 
L 2194 1759 
z
M 3341 1997 
L 3341 0 
L 2766 0 
L 2766 531 
Q 2569 213 2275 61 
Q 1981 -91 1556 -91 
Q 1019 -91 701 211 
Q 384 513 384 1019 
Q 384 1609 779 1909 
Q 1175 2209 1959 2209 
L 2766 2209 
L 2766 2266 
Q 2766 2663 2505 2880 
Q 2244 3097 1772 3097 
Q 1472 3097 1187 3025 
Q 903 2953 641 2809 
L 641 3341 
Q 956 3463 1253 3523 
Q 1550 3584 1831 3584 
Q 2591 3584 2966 3190 
Q 3341 2797 3341 1997 
z
" transform="scale(0.015625)"/>
       </defs>
       <use xlink:href="#DejaVuSans-54"/>
       <use xlink:href="#DejaVuSans-69" x="57.958984"/>
       <use xlink:href="#DejaVuSans-74" x="85.742188"/>
       <use xlink:href="#DejaVuSans-20" x="124.951172"/>
       <use xlink:href="#DejaVuSans-46" x="156.738281"/>
       <use xlink:href="#DejaVuSans-6f" x="210.632812"/>
       <use xlink:href="#DejaVuSans-72" x="271.814453"/>
       <use xlink:href="#DejaVuSans-20" x="312.927734"/>
       <use xlink:href="#DejaVuSans-54" x="344.714844"/>
       <use xlink:href="#DejaVuSans-61" x="389.298828"/>
       <use xlink:href="#DejaVuSans-74" x="450.578125"/>
      </g>
     </g>
    </g>
    <g id="xtick_2">
     <g id="line2d_2">
      <g>
       <use xlink:href="#m55af44377d" x="180.220909" y="337.97" style="stroke: #000000; stroke-width: 0.8"/>
      </g>
     </g>
     <g id="text_2">
      <!-- Grudger -->
      <g transform="translate(182.428409 377.89625)rotate(-90)scale(0.08 -0.08)">
       <defs>
        <path id="DejaVuSans-47" d="M 3809 666 
L 3809 1919 
L 2778 1919 
L 2778 2438 
L 4434 2438 
L 4434 434 
Q 4069 175 3628 42 
Q 3188 -91 2688 -91 
Q 1594 -91 976 548 
Q 359 1188 359 2328 
Q 359 3472 976 4111 
Q 1594 4750 2688 4750 
Q 3144 4750 3555 4637 
Q 3966 4525 4313 4306 
L 4313 3634 
Q 3963 3931 3569 4081 
Q 3175 4231 2741 4231 
Q 1884 4231 1454 3753 
Q 1025 3275 1025 2328 
Q 1025 1384 1454 906 
Q 1884 428 2741 428 
Q 3075 428 3337 486 
Q 3600 544 3809 666 
z
" transform="scale(0.015625)"/>
        <path id="DejaVuSans-75" d="M 544 1381 
L 544 3500 
L 1119 3500 
L 1119 1403 
Q 1119 906 1312 657 
Q 1506 409 1894 409 
Q 2359 409 2629 706 
Q 2900 1003 2900 1516 
L 2900 3500 
L 3475 3500 
L 3475 0 
L 2900 0 
L 2900 538 
Q 2691 219 2414 64 
Q 2138 -91 1772 -91 
Q 1169 -91 856 284 
Q 544 659 544 1381 
z
M 1991 3584 
L 1991 3584 
z
" transform="scale(0.015625)"/>
        <path id="DejaVuSans-64" d="M 2906 2969 
L 2906 4863 
L 3481 4863 
L 3481 0 
L 2906 0 
L 2906 525 
Q 2725 213 2448 61 
Q 2172 -91 1784 -91 
Q 1150 -91 751 415 
Q 353 922 353 1747 
Q 353 2572 751 3078 
Q 1150 3584 1784 3584 
Q 2172 3584 2448 3432 
Q 2725 3281 2906 2969 
z
M 947 1747 
Q 947 1113 1208 752 
Q 1469 391 1925 391 
Q 2381 391 2643 752 
Q 2906 1113 2906 1747 
Q 2906 2381 2643 2742 
Q 2381 3103 1925 3103 
Q 1469 3103 1208 2742 
Q 947 2381 947 1747 
z
" transform="scale(0.015625)"/>
        <path id="DejaVuSans-67" d="M 2906 1791 
Q 2906 2416 2648 2759 
Q 2391 3103 1925 3103 
Q 1463 3103 1205 2759 
Q 947 2416 947 1791 
Q 947 1169 1205 825 
Q 1463 481 1925 481 
Q 2391 481 2648 825 
Q 2906 1169 2906 1791 
z
M 3481 434 
Q 3481 -459 3084 -895 
Q 2688 -1331 1869 -1331 
Q 1566 -1331 1297 -1286 
Q 1028 -1241 775 -1147 
L 775 -588 
Q 1028 -725 1275 -790 
Q 1522 -856 1778 -856 
Q 2344 -856 2625 -561 
Q 2906 -266 2906 331 
L 2906 616 
Q 2728 306 2450 153 
Q 2172 0 1784 0 
Q 1141 0 747 490 
Q 353 981 353 1791 
Q 353 2603 747 3093 
Q 1141 3584 1784 3584 
Q 2172 3584 2450 3431 
Q 2728 3278 2906 2969 
L 2906 3500 
L 3481 3500 
L 3481 434 
z
" transform="scale(0.015625)"/>
        <path id="DejaVuSans-65" d="M 3597 1894 
L 3597 1613 
L 953 1613 
Q 991 1019 1311 708 
Q 1631 397 2203 397 
Q 2534 397 2845 478 
Q 3156 559 3463 722 
L 3463 178 
Q 3153 47 2828 -22 
Q 2503 -91 2169 -91 
Q 1331 -91 842 396 
Q 353 884 353 1716 
Q 353 2575 817 3079 
Q 1281 3584 2069 3584 
Q 2775 3584 3186 3129 
Q 3597 2675 3597 1894 
z
M 3022 2063 
Q 3016 2534 2758 2815 
Q 2500 3097 2075 3097 
Q 1594 3097 1305 2825 
Q 1016 2553 972 2059 
L 3022 2063 
z
" transform="scale(0.015625)"/>
       </defs>
       <use xlink:href="#DejaVuSans-47"/>
       <use xlink:href="#DejaVuSans-72" x="77.490234"/>
       <use xlink:href="#DejaVuSans-75" x="118.603516"/>
       <use xlink:href="#DejaVuSans-64" x="181.982422"/>
       <use xlink:href="#DejaVuSans-67" x="245.458984"/>
       <use xlink:href="#DejaVuSans-65" x="308.935547"/>
       <use xlink:href="#DejaVuSans-72" x="370.458984"/>
      </g>
     </g>
    </g>
    <g id="xtick_3">
     <g id="line2d_3">
      <g>
       <use xlink:href="#m55af44377d" x="254.996364" y="337.97" style="stroke: #000000; stroke-width: 0.8"/>
      </g>
     </g>
     <g id="text_3">
      <!-- Alternator -->
      <g transform="translate(257.203864 385.165)rotate(-90)scale(0.08 -0.08)">
       <defs>
        <path id="DejaVuSans-41" d="M 2188 4044 
L 1331 1722 
L 3047 1722 
L 2188 4044 
z
M 1831 4666 
L 2547 4666 
L 4325 0 
L 3669 0 
L 3244 1197 
L 1141 1197 
L 716 0 
L 50 0 
L 1831 4666 
z
" transform="scale(0.015625)"/>
        <path id="DejaVuSans-6c" d="M 603 4863 
L 1178 4863 
L 1178 0 
L 603 0 
L 603 4863 
z
" transform="scale(0.015625)"/>
        <path id="DejaVuSans-6e" d="M 3513 2113 
L 3513 0 
L 2938 0 
L 2938 2094 
Q 2938 2591 2744 2837 
Q 2550 3084 2163 3084 
Q 1697 3084 1428 2787 
Q 1159 2491 1159 1978 
L 1159 0 
L 581 0 
L 581 3500 
L 1159 3500 
L 1159 2956 
Q 1366 3272 1645 3428 
Q 1925 3584 2291 3584 
Q 2894 3584 3203 3211 
Q 3513 2838 3513 2113 
z
" transform="scale(0.015625)"/>
       </defs>
       <use xlink:href="#DejaVuSans-41"/>
       <use xlink:href="#DejaVuSans-6c" x="68.408203"/>
       <use xlink:href="#DejaVuSans-74" x="96.191406"/>
       <use xlink:href="#DejaVuSans-65" x="135.400391"/>
       <use xlink:href="#DejaVuSans-72" x="196.923828"/>
       <use xlink:href="#DejaVuSans-6e" x="236.287109"/>
       <use xlink:href="#DejaVuSans-61" x="299.666016"/>
       <use xlink:href="#DejaVuSans-74" x="360.945312"/>
       <use xlink:href="#DejaVuSans-6f" x="400.154297"/>
       <use xlink:href="#DejaVuSans-72" x="461.335938"/>
      </g>
     </g>
    </g>
    <g id="xtick_4">
     <g id="line2d_4">
      <g>
       <use xlink:href="#m55af44377d" x="329.771818" y="337.97" style="stroke: #000000; stroke-width: 0.8"/>
      </g>
     </g>
     <g id="text_4">
      <!-- Random: 0.5 -->
      <g transform="translate(331.979318 396.0475)rotate(-90)scale(0.08 -0.08)">
       <defs>
        <path id="DejaVuSans-52" d="M 2841 2188 
Q 3044 2119 3236 1894 
Q 3428 1669 3622 1275 
L 4263 0 
L 3584 0 
L 2988 1197 
Q 2756 1666 2539 1819 
Q 2322 1972 1947 1972 
L 1259 1972 
L 1259 0 
L 628 0 
L 628 4666 
L 2053 4666 
Q 2853 4666 3247 4331 
Q 3641 3997 3641 3322 
Q 3641 2881 3436 2590 
Q 3231 2300 2841 2188 
z
M 1259 4147 
L 1259 2491 
L 2053 2491 
Q 2509 2491 2742 2702 
Q 2975 2913 2975 3322 
Q 2975 3731 2742 3939 
Q 2509 4147 2053 4147 
L 1259 4147 
z
" transform="scale(0.015625)"/>
        <path id="DejaVuSans-6d" d="M 3328 2828 
Q 3544 3216 3844 3400 
Q 4144 3584 4550 3584 
Q 5097 3584 5394 3201 
Q 5691 2819 5691 2113 
L 5691 0 
L 5113 0 
L 5113 2094 
Q 5113 2597 4934 2840 
Q 4756 3084 4391 3084 
Q 3944 3084 3684 2787 
Q 3425 2491 3425 1978 
L 3425 0 
L 2847 0 
L 2847 2094 
Q 2847 2600 2669 2842 
Q 2491 3084 2119 3084 
Q 1678 3084 1418 2786 
Q 1159 2488 1159 1978 
L 1159 0 
L 581 0 
L 581 3500 
L 1159 3500 
L 1159 2956 
Q 1356 3278 1631 3431 
Q 1906 3584 2284 3584 
Q 2666 3584 2933 3390 
Q 3200 3197 3328 2828 
z
" transform="scale(0.015625)"/>
        <path id="DejaVuSans-3a" d="M 750 794 
L 1409 794 
L 1409 0 
L 750 0 
L 750 794 
z
M 750 3309 
L 1409 3309 
L 1409 2516 
L 750 2516 
L 750 3309 
z
" transform="scale(0.015625)"/>
        <path id="DejaVuSans-30" d="M 2034 4250 
Q 1547 4250 1301 3770 
Q 1056 3291 1056 2328 
Q 1056 1369 1301 889 
Q 1547 409 2034 409 
Q 2525 409 2770 889 
Q 3016 1369 3016 2328 
Q 3016 3291 2770 3770 
Q 2525 4250 2034 4250 
z
M 2034 4750 
Q 2819 4750 3233 4129 
Q 3647 3509 3647 2328 
Q 3647 1150 3233 529 
Q 2819 -91 2034 -91 
Q 1250 -91 836 529 
Q 422 1150 422 2328 
Q 422 3509 836 4129 
Q 1250 4750 2034 4750 
z
" transform="scale(0.015625)"/>
        <path id="DejaVuSans-2e" d="M 684 794 
L 1344 794 
L 1344 0 
L 684 0 
L 684 794 
z
" transform="scale(0.015625)"/>
        <path id="DejaVuSans-35" d="M 691 4666 
L 3169 4666 
L 3169 4134 
L 1269 4134 
L 1269 2991 
Q 1406 3038 1543 3061 
Q 1681 3084 1819 3084 
Q 2600 3084 3056 2656 
Q 3513 2228 3513 1497 
Q 3513 744 3044 326 
Q 2575 -91 1722 -91 
Q 1428 -91 1123 -41 
Q 819 9 494 109 
L 494 744 
Q 775 591 1075 516 
Q 1375 441 1709 441 
Q 2250 441 2565 725 
Q 2881 1009 2881 1497 
Q 2881 1984 2565 2268 
Q 2250 2553 1709 2553 
Q 1456 2553 1204 2497 
Q 953 2441 691 2322 
L 691 4666 
z
" transform="scale(0.015625)"/>
       </defs>
       <use xlink:href="#DejaVuSans-52"/>
       <use xlink:href="#DejaVuSans-61" x="67.232422"/>
       <use xlink:href="#DejaVuSans-6e" x="128.511719"/>
       <use xlink:href="#DejaVuSans-64" x="191.890625"/>
       <use xlink:href="#DejaVuSans-6f" x="255.367188"/>
       <use xlink:href="#DejaVuSans-6d" x="316.548828"/>
       <use xlink:href="#DejaVuSans-3a" x="413.960938"/>
       <use xlink:href="#DejaVuSans-20" x="447.652344"/>
       <use xlink:href="#DejaVuSans-30" x="479.439453"/>
       <use xlink:href="#DejaVuSans-2e" x="543.0625"/>
       <use xlink:href="#DejaVuSans-35" x="574.849609"/>
      </g>
     </g>
    </g>
    <g id="xtick_5">
     <g id="line2d_5">
      <g>
       <use xlink:href="#m55af44377d" x="404.547273" y="337.97" style="stroke: #000000; stroke-width: 0.8"/>
      </g>
     </g>
     <g id="text_5">
      <!-- Adaptive -->
      <g transform="translate(406.754773 380.37875)rotate(-90)scale(0.08 -0.08)">
       <defs>
        <path id="DejaVuSans-70" d="M 1159 525 
L 1159 -1331 
L 581 -1331 
L 581 3500 
L 1159 3500 
L 1159 2969 
Q 1341 3281 1617 3432 
Q 1894 3584 2278 3584 
Q 2916 3584 3314 3078 
Q 3713 2572 3713 1747 
Q 3713 922 3314 415 
Q 2916 -91 2278 -91 
Q 1894 -91 1617 61 
Q 1341 213 1159 525 
z
M 3116 1747 
Q 3116 2381 2855 2742 
Q 2594 3103 2138 3103 
Q 1681 3103 1420 2742 
Q 1159 2381 1159 1747 
Q 1159 1113 1420 752 
Q 1681 391 2138 391 
Q 2594 391 2855 752 
Q 3116 1113 3116 1747 
z
" transform="scale(0.015625)"/>
        <path id="DejaVuSans-76" d="M 191 3500 
L 800 3500 
L 1894 563 
L 2988 3500 
L 3597 3500 
L 2284 0 
L 1503 0 
L 191 3500 
z
" transform="scale(0.015625)"/>
       </defs>
       <use xlink:href="#DejaVuSans-41"/>
       <use xlink:href="#DejaVuSans-64" x="66.658203"/>
       <use xlink:href="#DejaVuSans-61" x="130.134766"/>
       <use xlink:href="#DejaVuSans-70" x="191.414062"/>
       <use xlink:href="#DejaVuSans-74" x="254.890625"/>
       <use xlink:href="#DejaVuSans-69" x="294.099609"/>
       <use xlink:href="#DejaVuSans-76" x="321.882812"/>
       <use xlink:href="#DejaVuSans-65" x="381.0625"/>
      </g>
     </g>
    </g>
    <g id="xtick_6">
     <g id="line2d_6">
      <g>
       <use xlink:href="#m55af44377d" x="479.322727" y="337.97" style="stroke: #000000; stroke-width: 0.8"/>
      </g>
     </g>
     <g id="text_6">
      <!-- Deep QLearner -->
      <g transform="translate(481.530227 405.46625)rotate(-90)scale(0.08 -0.08)">
       <defs>
        <path id="DejaVuSans-44" d="M 1259 4147 
L 1259 519 
L 2022 519 
Q 2988 519 3436 956 
Q 3884 1394 3884 2338 
Q 3884 3275 3436 3711 
Q 2988 4147 2022 4147 
L 1259 4147 
z
M 628 4666 
L 1925 4666 
Q 3281 4666 3915 4102 
Q 4550 3538 4550 2338 
Q 4550 1131 3912 565 
Q 3275 0 1925 0 
L 628 0 
L 628 4666 
z
" transform="scale(0.015625)"/>
        <path id="DejaVuSans-51" d="M 2522 4238 
Q 1834 4238 1429 3725 
Q 1025 3213 1025 2328 
Q 1025 1447 1429 934 
Q 1834 422 2522 422 
Q 3209 422 3611 934 
Q 4013 1447 4013 2328 
Q 4013 3213 3611 3725 
Q 3209 4238 2522 4238 
z
M 3406 84 
L 4238 -825 
L 3475 -825 
L 2784 -78 
Q 2681 -84 2626 -87 
Q 2572 -91 2522 -91 
Q 1538 -91 948 567 
Q 359 1225 359 2328 
Q 359 3434 948 4092 
Q 1538 4750 2522 4750 
Q 3503 4750 4090 4092 
Q 4678 3434 4678 2328 
Q 4678 1516 4351 937 
Q 4025 359 3406 84 
z
" transform="scale(0.015625)"/>
        <path id="DejaVuSans-4c" d="M 628 4666 
L 1259 4666 
L 1259 531 
L 3531 531 
L 3531 0 
L 628 0 
L 628 4666 
z
" transform="scale(0.015625)"/>
       </defs>
       <use xlink:href="#DejaVuSans-44"/>
       <use xlink:href="#DejaVuSans-65" x="77.001953"/>
       <use xlink:href="#DejaVuSans-65" x="138.525391"/>
       <use xlink:href="#DejaVuSans-70" x="200.048828"/>
       <use xlink:href="#DejaVuSans-20" x="263.525391"/>
       <use xlink:href="#DejaVuSans-51" x="295.3125"/>
       <use xlink:href="#DejaVuSans-4c" x="374.023438"/>
       <use xlink:href="#DejaVuSans-65" x="427.986328"/>
       <use xlink:href="#DejaVuSans-61" x="489.509766"/>
       <use xlink:href="#DejaVuSans-72" x="550.789062"/>
       <use xlink:href="#DejaVuSans-6e" x="590.152344"/>
       <use xlink:href="#DejaVuSans-65" x="653.53125"/>
       <use xlink:href="#DejaVuSans-72" x="715.054688"/>
      </g>
     </g>
    </g>
    <g id="xtick_7">
     <g id="line2d_7">
      <g>
       <use xlink:href="#m55af44377d" x="554.098182" y="337.97" style="stroke: #000000; stroke-width: 0.8"/>
      </g>
     </g>
     <g id="text_7">
      <!-- Defector -->
      <g transform="translate(556.305682 379.51)rotate(-90)scale(0.08 -0.08)">
       <defs>
        <path id="DejaVuSans-66" d="M 2375 4863 
L 2375 4384 
L 1825 4384 
Q 1516 4384 1395 4259 
Q 1275 4134 1275 3809 
L 1275 3500 
L 2222 3500 
L 2222 3053 
L 1275 3053 
L 1275 0 
L 697 0 
L 697 3053 
L 147 3053 
L 147 3500 
L 697 3500 
L 697 3744 
Q 697 4328 969 4595 
Q 1241 4863 1831 4863 
L 2375 4863 
z
" transform="scale(0.015625)"/>
        <path id="DejaVuSans-63" d="M 3122 3366 
L 3122 2828 
Q 2878 2963 2633 3030 
Q 2388 3097 2138 3097 
Q 1578 3097 1268 2742 
Q 959 2388 959 1747 
Q 959 1106 1268 751 
Q 1578 397 2138 397 
Q 2388 397 2633 464 
Q 2878 531 3122 666 
L 3122 134 
Q 2881 22 2623 -34 
Q 2366 -91 2075 -91 
Q 1284 -91 818 406 
Q 353 903 353 1747 
Q 353 2603 823 3093 
Q 1294 3584 2113 3584 
Q 2378 3584 2631 3529 
Q 2884 3475 3122 3366 
z
" transform="scale(0.015625)"/>
       </defs>
       <use xlink:href="#DejaVuSans-44"/>
       <use xlink:href="#DejaVuSans-65" x="77.001953"/>
       <use xlink:href="#DejaVuSans-66" x="138.525391"/>
       <use xlink:href="#DejaVuSans-65" x="173.730469"/>
       <use xlink:href="#DejaVuSans-63" x="235.253906"/>
       <use xlink:href="#DejaVuSans-74" x="290.234375"/>
       <use xlink:href="#DejaVuSans-6f" x="329.443359"/>
       <use xlink:href="#DejaVuSans-72" x="390.625"/>
      </g>
     </g>
    </g>
    <g id="xtick_8">
     <g id="line2d_8">
      <g>
       <use xlink:href="#m55af44377d" x="628.873636" y="337.97" style="stroke: #000000; stroke-width: 0.8"/>
      </g>
     </g>
     <g id="text_8">
      <!-- Risky QLearner -->
      <g transform="translate(631.081136 405.40875)rotate(-90)scale(0.08 -0.08)">
       <defs>
        <path id="DejaVuSans-73" d="M 2834 3397 
L 2834 2853 
Q 2591 2978 2328 3040 
Q 2066 3103 1784 3103 
Q 1356 3103 1142 2972 
Q 928 2841 928 2578 
Q 928 2378 1081 2264 
Q 1234 2150 1697 2047 
L 1894 2003 
Q 2506 1872 2764 1633 
Q 3022 1394 3022 966 
Q 3022 478 2636 193 
Q 2250 -91 1575 -91 
Q 1294 -91 989 -36 
Q 684 19 347 128 
L 347 722 
Q 666 556 975 473 
Q 1284 391 1588 391 
Q 1994 391 2212 530 
Q 2431 669 2431 922 
Q 2431 1156 2273 1281 
Q 2116 1406 1581 1522 
L 1381 1569 
Q 847 1681 609 1914 
Q 372 2147 372 2553 
Q 372 3047 722 3315 
Q 1072 3584 1716 3584 
Q 2034 3584 2315 3537 
Q 2597 3491 2834 3397 
z
" transform="scale(0.015625)"/>
        <path id="DejaVuSans-6b" d="M 581 4863 
L 1159 4863 
L 1159 1991 
L 2875 3500 
L 3609 3500 
L 1753 1863 
L 3688 0 
L 2938 0 
L 1159 1709 
L 1159 0 
L 581 0 
L 581 4863 
z
" transform="scale(0.015625)"/>
        <path id="DejaVuSans-79" d="M 2059 -325 
Q 1816 -950 1584 -1140 
Q 1353 -1331 966 -1331 
L 506 -1331 
L 506 -850 
L 844 -850 
Q 1081 -850 1212 -737 
Q 1344 -625 1503 -206 
L 1606 56 
L 191 3500 
L 800 3500 
L 1894 763 
L 2988 3500 
L 3597 3500 
L 2059 -325 
z
" transform="scale(0.015625)"/>
       </defs>
       <use xlink:href="#DejaVuSans-52"/>
       <use xlink:href="#DejaVuSans-69" x="69.482422"/>
       <use xlink:href="#DejaVuSans-73" x="97.265625"/>
       <use xlink:href="#DejaVuSans-6b" x="149.365234"/>
       <use xlink:href="#DejaVuSans-79" x="203.650391"/>
       <use xlink:href="#DejaVuSans-20" x="262.830078"/>
       <use xlink:href="#DejaVuSans-51" x="294.617188"/>
       <use xlink:href="#DejaVuSans-4c" x="373.328125"/>
       <use xlink:href="#DejaVuSans-65" x="427.291016"/>
       <use xlink:href="#DejaVuSans-61" x="488.814453"/>
       <use xlink:href="#DejaVuSans-72" x="550.09375"/>
       <use xlink:href="#DejaVuSans-6e" x="589.457031"/>
       <use xlink:href="#DejaVuSans-65" x="652.835938"/>
       <use xlink:href="#DejaVuSans-72" x="714.359375"/>
      </g>
     </g>
    </g>
    <g id="xtick_9">
     <g id="line2d_9">
      <g>
       <use xlink:href="#m55af44377d" x="703.649091" y="337.97" style="stroke: #000000; stroke-width: 0.8"/>
      </g>
     </g>
     <g id="text_9">
      <!-- Cooperator -->
      <g transform="translate(705.856591 389.85875)rotate(-90)scale(0.08 -0.08)">
       <defs>
        <path id="DejaVuSans-43" d="M 4122 4306 
L 4122 3641 
Q 3803 3938 3442 4084 
Q 3081 4231 2675 4231 
Q 1875 4231 1450 3742 
Q 1025 3253 1025 2328 
Q 1025 1406 1450 917 
Q 1875 428 2675 428 
Q 3081 428 3442 575 
Q 3803 722 4122 1019 
L 4122 359 
Q 3791 134 3420 21 
Q 3050 -91 2638 -91 
Q 1578 -91 968 557 
Q 359 1206 359 2328 
Q 359 3453 968 4101 
Q 1578 4750 2638 4750 
Q 3056 4750 3426 4639 
Q 3797 4528 4122 4306 
z
" transform="scale(0.015625)"/>
       </defs>
       <use xlink:href="#DejaVuSans-43"/>
       <use xlink:href="#DejaVuSans-6f" x="69.824219"/>
       <use xlink:href="#DejaVuSans-6f" x="131.005859"/>
       <use xlink:href="#DejaVuSans-70" x="192.1875"/>
       <use xlink:href="#DejaVuSans-65" x="255.664062"/>
       <use xlink:href="#DejaVuSans-72" x="317.1875"/>
       <use xlink:href="#DejaVuSans-61" x="358.300781"/>
       <use xlink:href="#DejaVuSans-74" x="419.580078"/>
       <use xlink:href="#DejaVuSans-6f" x="458.789062"/>
       <use xlink:href="#DejaVuSans-72" x="519.970703"/>
      </g>
     </g>
    </g>
    <g id="xtick_10">
     <g id="line2d_10">
      <g>
       <use xlink:href="#m55af44377d" x="778.424545" y="337.97" style="stroke: #000000; stroke-width: 0.8"/>
      </g>
     </g>
     <g id="text_10">
      <!-- Mediocre QLearner -->
      <g transform="translate(780.632045 420.83375)rotate(-90)scale(0.08 -0.08)">
       <defs>
        <path id="DejaVuSans-4d" d="M 628 4666 
L 1569 4666 
L 2759 1491 
L 3956 4666 
L 4897 4666 
L 4897 0 
L 4281 0 
L 4281 4097 
L 3078 897 
L 2444 897 
L 1241 4097 
L 1241 0 
L 628 0 
L 628 4666 
z
" transform="scale(0.015625)"/>
       </defs>
       <use xlink:href="#DejaVuSans-4d"/>
       <use xlink:href="#DejaVuSans-65" x="86.279297"/>
       <use xlink:href="#DejaVuSans-64" x="147.802734"/>
       <use xlink:href="#DejaVuSans-69" x="211.279297"/>
       <use xlink:href="#DejaVuSans-6f" x="239.0625"/>
       <use xlink:href="#DejaVuSans-63" x="300.244141"/>
       <use xlink:href="#DejaVuSans-72" x="355.224609"/>
       <use xlink:href="#DejaVuSans-65" x="394.087891"/>
       <use xlink:href="#DejaVuSans-20" x="455.611328"/>
       <use xlink:href="#DejaVuSans-51" x="487.398438"/>
       <use xlink:href="#DejaVuSans-4c" x="566.109375"/>
       <use xlink:href="#DejaVuSans-65" x="620.072266"/>
       <use xlink:href="#DejaVuSans-61" x="681.595703"/>
       <use xlink:href="#DejaVuSans-72" x="742.875"/>
       <use xlink:href="#DejaVuSans-6e" x="782.238281"/>
       <use xlink:href="#DejaVuSans-65" x="845.617188"/>
       <use xlink:href="#DejaVuSans-72" x="907.140625"/>
      </g>
     </g>
    </g>
   </g>
   <g id="matplotlib.axis_2">
    <g id="ytick_1">
     <g id="line2d_11">
      <defs>
       <path id="md3b573283e" d="M 0 0 
L -3.5 0 
" style="stroke: #000000; stroke-width: 0.8"/>
      </defs>
      <g>
       <use xlink:href="#md3b573283e" x="30.67" y="321.393555" style="stroke: #000000; stroke-width: 0.8"/>
      </g>
     </g>
     <g id="text_11">
      <!-- 1.6 -->
      <g transform="translate(10.9475 324.43293)scale(0.08 -0.08)">
       <defs>
        <path id="DejaVuSans-31" d="M 794 531 
L 1825 531 
L 1825 4091 
L 703 3866 
L 703 4441 
L 1819 4666 
L 2450 4666 
L 2450 531 
L 3481 531 
L 3481 0 
L 794 0 
L 794 531 
z
" transform="scale(0.015625)"/>
        <path id="DejaVuSans-36" d="M 2113 2584 
Q 1688 2584 1439 2293 
Q 1191 2003 1191 1497 
Q 1191 994 1439 701 
Q 1688 409 2113 409 
Q 2538 409 2786 701 
Q 3034 994 3034 1497 
Q 3034 2003 2786 2293 
Q 2538 2584 2113 2584 
z
M 3366 4563 
L 3366 3988 
Q 3128 4100 2886 4159 
Q 2644 4219 2406 4219 
Q 1781 4219 1451 3797 
Q 1122 3375 1075 2522 
Q 1259 2794 1537 2939 
Q 1816 3084 2150 3084 
Q 2853 3084 3261 2657 
Q 3669 2231 3669 1497 
Q 3669 778 3244 343 
Q 2819 -91 2113 -91 
Q 1303 -91 875 529 
Q 447 1150 447 2328 
Q 447 3434 972 4092 
Q 1497 4750 2381 4750 
Q 2619 4750 2861 4703 
Q 3103 4656 3366 4563 
z
" transform="scale(0.015625)"/>
       </defs>
       <use xlink:href="#DejaVuSans-31"/>
       <use xlink:href="#DejaVuSans-2e" x="63.623047"/>
       <use xlink:href="#DejaVuSans-36" x="95.410156"/>
      </g>
     </g>
    </g>
    <g id="ytick_2">
     <g id="line2d_12">
      <g>
       <use xlink:href="#md3b573283e" x="30.67" y="279.232187" style="stroke: #000000; stroke-width: 0.8"/>
      </g>
     </g>
     <g id="text_12">
      <!-- 1.8 -->
      <g transform="translate(10.9475 282.271562)scale(0.08 -0.08)">
       <defs>
        <path id="DejaVuSans-38" d="M 2034 2216 
Q 1584 2216 1326 1975 
Q 1069 1734 1069 1313 
Q 1069 891 1326 650 
Q 1584 409 2034 409 
Q 2484 409 2743 651 
Q 3003 894 3003 1313 
Q 3003 1734 2745 1975 
Q 2488 2216 2034 2216 
z
M 1403 2484 
Q 997 2584 770 2862 
Q 544 3141 544 3541 
Q 544 4100 942 4425 
Q 1341 4750 2034 4750 
Q 2731 4750 3128 4425 
Q 3525 4100 3525 3541 
Q 3525 3141 3298 2862 
Q 3072 2584 2669 2484 
Q 3125 2378 3379 2068 
Q 3634 1759 3634 1313 
Q 3634 634 3220 271 
Q 2806 -91 2034 -91 
Q 1263 -91 848 271 
Q 434 634 434 1313 
Q 434 1759 690 2068 
Q 947 2378 1403 2484 
z
M 1172 3481 
Q 1172 3119 1398 2916 
Q 1625 2713 2034 2713 
Q 2441 2713 2670 2916 
Q 2900 3119 2900 3481 
Q 2900 3844 2670 4047 
Q 2441 4250 2034 4250 
Q 1625 4250 1398 4047 
Q 1172 3844 1172 3481 
z
" transform="scale(0.015625)"/>
       </defs>
       <use xlink:href="#DejaVuSans-31"/>
       <use xlink:href="#DejaVuSans-2e" x="63.623047"/>
       <use xlink:href="#DejaVuSans-38" x="95.410156"/>
      </g>
     </g>
    </g>
    <g id="ytick_3">
     <g id="line2d_13">
      <g>
       <use xlink:href="#md3b573283e" x="30.67" y="237.070818" style="stroke: #000000; stroke-width: 0.8"/>
      </g>
     </g>
     <g id="text_13">
      <!-- 2.0 -->
      <g transform="translate(10.9475 240.110193)scale(0.08 -0.08)">
       <defs>
        <path id="DejaVuSans-32" d="M 1228 531 
L 3431 531 
L 3431 0 
L 469 0 
L 469 531 
Q 828 903 1448 1529 
Q 2069 2156 2228 2338 
Q 2531 2678 2651 2914 
Q 2772 3150 2772 3378 
Q 2772 3750 2511 3984 
Q 2250 4219 1831 4219 
Q 1534 4219 1204 4116 
Q 875 4013 500 3803 
L 500 4441 
Q 881 4594 1212 4672 
Q 1544 4750 1819 4750 
Q 2544 4750 2975 4387 
Q 3406 4025 3406 3419 
Q 3406 3131 3298 2873 
Q 3191 2616 2906 2266 
Q 2828 2175 2409 1742 
Q 1991 1309 1228 531 
z
" transform="scale(0.015625)"/>
       </defs>
       <use xlink:href="#DejaVuSans-32"/>
       <use xlink:href="#DejaVuSans-2e" x="63.623047"/>
       <use xlink:href="#DejaVuSans-30" x="95.410156"/>
      </g>
     </g>
    </g>
    <g id="ytick_4">
     <g id="line2d_14">
      <g>
       <use xlink:href="#md3b573283e" x="30.67" y="194.90945" style="stroke: #000000; stroke-width: 0.8"/>
      </g>
     </g>
     <g id="text_14">
      <!-- 2.2 -->
      <g transform="translate(10.9475 197.948825)scale(0.08 -0.08)">
       <use xlink:href="#DejaVuSans-32"/>
       <use xlink:href="#DejaVuSans-2e" x="63.623047"/>
       <use xlink:href="#DejaVuSans-32" x="95.410156"/>
      </g>
     </g>
    </g>
    <g id="ytick_5">
     <g id="line2d_15">
      <g>
       <use xlink:href="#md3b573283e" x="30.67" y="152.748081" style="stroke: #000000; stroke-width: 0.8"/>
      </g>
     </g>
     <g id="text_15">
      <!-- 2.4 -->
      <g transform="translate(10.9475 155.787456)scale(0.08 -0.08)">
       <defs>
        <path id="DejaVuSans-34" d="M 2419 4116 
L 825 1625 
L 2419 1625 
L 2419 4116 
z
M 2253 4666 
L 3047 4666 
L 3047 1625 
L 3713 1625 
L 3713 1100 
L 3047 1100 
L 3047 0 
L 2419 0 
L 2419 1100 
L 313 1100 
L 313 1709 
L 2253 4666 
z
" transform="scale(0.015625)"/>
       </defs>
       <use xlink:href="#DejaVuSans-32"/>
       <use xlink:href="#DejaVuSans-2e" x="63.623047"/>
       <use xlink:href="#DejaVuSans-34" x="95.410156"/>
      </g>
     </g>
    </g>
    <g id="ytick_6">
     <g id="line2d_16">
      <g>
       <use xlink:href="#md3b573283e" x="30.67" y="110.586713" style="stroke: #000000; stroke-width: 0.8"/>
      </g>
     </g>
     <g id="text_16">
      <!-- 2.6 -->
      <g transform="translate(10.9475 113.626088)scale(0.08 -0.08)">
       <use xlink:href="#DejaVuSans-32"/>
       <use xlink:href="#DejaVuSans-2e" x="63.623047"/>
       <use xlink:href="#DejaVuSans-36" x="95.410156"/>
      </g>
     </g>
    </g>
    <g id="ytick_7">
     <g id="line2d_17">
      <g>
       <use xlink:href="#md3b573283e" x="30.67" y="68.425344" style="stroke: #000000; stroke-width: 0.8"/>
      </g>
     </g>
     <g id="text_17">
      <!-- 2.8 -->
      <g transform="translate(10.9475 71.464719)scale(0.08 -0.08)">
       <use xlink:href="#DejaVuSans-32"/>
       <use xlink:href="#DejaVuSans-2e" x="63.623047"/>
       <use xlink:href="#DejaVuSans-38" x="95.410156"/>
      </g>
     </g>
    </g>
   </g>
   <g id="LineCollection_1">
    <path d="M 96.098523 108.548913 
L 114.792386 108.548913 
" clip-path="url(#pa416f6c5bc)" style="fill: none; stroke: #1f77b4; stroke-width: 1.5"/>
    <path d="M 170.873977 135.133998 
L 189.567841 135.133998 
" clip-path="url(#pa416f6c5bc)" style="fill: none; stroke: #1f77b4; stroke-width: 1.5"/>
    <path d="M 245.649432 152.232776 
L 264.343295 152.232776 
" clip-path="url(#pa416f6c5bc)" style="fill: none; stroke: #1f77b4; stroke-width: 1.5"/>
    <path d="M 320.424886 156.050722 
L 339.11875 156.050722 
" clip-path="url(#pa416f6c5bc)" style="fill: none; stroke: #1f77b4; stroke-width: 1.5"/>
    <path d="M 395.200341 203.646222 
L 413.894205 203.646222 
" clip-path="url(#pa416f6c5bc)" style="fill: none; stroke: #1f77b4; stroke-width: 1.5"/>
    <path d="M 469.975795 211.258691 
L 488.669659 211.258691 
" clip-path="url(#pa416f6c5bc)" style="fill: none; stroke: #1f77b4; stroke-width: 1.5"/>
    <path d="M 544.75125 226.671014 
L 563.445114 226.671014 
" clip-path="url(#pa416f6c5bc)" style="fill: none; stroke: #1f77b4; stroke-width: 1.5"/>
    <path d="M 619.526705 245.573361 
L 638.220568 245.573361 
" clip-path="url(#pa416f6c5bc)" style="fill: none; stroke: #1f77b4; stroke-width: 1.5"/>
    <path d="M 694.302159 249.578691 
L 712.996023 249.578691 
" clip-path="url(#pa416f6c5bc)" style="fill: none; stroke: #1f77b4; stroke-width: 1.5"/>
    <path d="M 769.077614 268.3405 
L 787.771477 268.3405 
" clip-path="url(#pa416f6c5bc)" style="fill: none; stroke: #1f77b4; stroke-width: 1.5"/>
   </g>
   <g id="patch_3">
    <path d="M 30.67 337.97 
L 30.67 26.88 
" style="fill: none; stroke: #000000; stroke-width: 0.8; stroke-linejoin: miter; stroke-linecap: square"/>
   </g>
   <g id="patch_4">
    <path d="M 853.2 337.97 
L 853.2 26.88 
" style="fill: none; stroke: #000000; stroke-width: 0.8; stroke-linejoin: miter; stroke-linecap: square"/>
   </g>
   <g id="patch_5">
    <path d="M 30.67 337.97 
L 853.2 337.97 
" style="fill: none; stroke: #000000; stroke-width: 0.8; stroke-linejoin: miter; stroke-linecap: square"/>
   </g>
   <g id="patch_6">
    <path d="M 30.67 26.88 
L 853.2 26.88 
" style="fill: none; stroke: #000000; stroke-width: 0.8; stroke-linejoin: miter; stroke-linecap: square"/>
   </g>
   <g id="text_18">
    <!-- Payoff - turns: 200, repetitions: 100, strategies: 10.  -->
    <g transform="translate(286.154375 20.88)scale(0.12 -0.12)">
     <defs>
      <path id="DejaVuSans-50" d="M 1259 4147 
L 1259 2394 
L 2053 2394 
Q 2494 2394 2734 2622 
Q 2975 2850 2975 3272 
Q 2975 3691 2734 3919 
Q 2494 4147 2053 4147 
L 1259 4147 
z
M 628 4666 
L 2053 4666 
Q 2838 4666 3239 4311 
Q 3641 3956 3641 3272 
Q 3641 2581 3239 2228 
Q 2838 1875 2053 1875 
L 1259 1875 
L 1259 0 
L 628 0 
L 628 4666 
z
" transform="scale(0.015625)"/>
      <path id="DejaVuSans-2d" d="M 313 2009 
L 1997 2009 
L 1997 1497 
L 313 1497 
L 313 2009 
z
" transform="scale(0.015625)"/>
      <path id="DejaVuSans-2c" d="M 750 794 
L 1409 794 
L 1409 256 
L 897 -744 
L 494 -744 
L 750 256 
L 750 794 
z
" transform="scale(0.015625)"/>
     </defs>
     <use xlink:href="#DejaVuSans-50"/>
     <use xlink:href="#DejaVuSans-61" x="55.802734"/>
     <use xlink:href="#DejaVuSans-79" x="117.082031"/>
     <use xlink:href="#DejaVuSans-6f" x="176.261719"/>
     <use xlink:href="#DejaVuSans-66" x="237.443359"/>
     <use xlink:href="#DejaVuSans-66" x="272.648438"/>
     <use xlink:href="#DejaVuSans-20" x="307.853516"/>
     <use xlink:href="#DejaVuSans-2d" x="339.640625"/>
     <use xlink:href="#DejaVuSans-20" x="375.724609"/>
     <use xlink:href="#DejaVuSans-74" x="407.511719"/>
     <use xlink:href="#DejaVuSans-75" x="446.720703"/>
     <use xlink:href="#DejaVuSans-72" x="510.099609"/>
     <use xlink:href="#DejaVuSans-6e" x="549.462891"/>
     <use xlink:href="#DejaVuSans-73" x="612.841797"/>
     <use xlink:href="#DejaVuSans-3a" x="664.941406"/>
     <use xlink:href="#DejaVuSans-20" x="698.632812"/>
     <use xlink:href="#DejaVuSans-32" x="730.419922"/>
     <use xlink:href="#DejaVuSans-30" x="794.042969"/>
     <use xlink:href="#DejaVuSans-30" x="857.666016"/>
     <use xlink:href="#DejaVuSans-2c" x="921.289062"/>
     <use xlink:href="#DejaVuSans-20" x="953.076172"/>
     <use xlink:href="#DejaVuSans-72" x="984.863281"/>
     <use xlink:href="#DejaVuSans-65" x="1023.726562"/>
     <use xlink:href="#DejaVuSans-70" x="1085.25"/>
     <use xlink:href="#DejaVuSans-65" x="1148.726562"/>
     <use xlink:href="#DejaVuSans-74" x="1210.25"/>
     <use xlink:href="#DejaVuSans-69" x="1249.458984"/>
     <use xlink:href="#DejaVuSans-74" x="1277.242188"/>
     <use xlink:href="#DejaVuSans-69" x="1316.451172"/>
     <use xlink:href="#DejaVuSans-6f" x="1344.234375"/>
     <use xlink:href="#DejaVuSans-6e" x="1405.416016"/>
     <use xlink:href="#DejaVuSans-73" x="1468.794922"/>
     <use xlink:href="#DejaVuSans-3a" x="1520.894531"/>
     <use xlink:href="#DejaVuSans-20" x="1554.585938"/>
     <use xlink:href="#DejaVuSans-31" x="1586.373047"/>
     <use xlink:href="#DejaVuSans-30" x="1649.996094"/>
     <use xlink:href="#DejaVuSans-30" x="1713.619141"/>
     <use xlink:href="#DejaVuSans-2c" x="1777.242188"/>
     <use xlink:href="#DejaVuSans-20" x="1809.029297"/>
     <use xlink:href="#DejaVuSans-73" x="1840.816406"/>
     <use xlink:href="#DejaVuSans-74" x="1892.916016"/>
     <use xlink:href="#DejaVuSans-72" x="1932.125"/>
     <use xlink:href="#DejaVuSans-61" x="1973.238281"/>
     <use xlink:href="#DejaVuSans-74" x="2034.517578"/>
     <use xlink:href="#DejaVuSans-65" x="2073.726562"/>
     <use xlink:href="#DejaVuSans-67" x="2135.25"/>
     <use xlink:href="#DejaVuSans-69" x="2198.726562"/>
     <use xlink:href="#DejaVuSans-65" x="2226.509766"/>
     <use xlink:href="#DejaVuSans-73" x="2288.033203"/>
     <use xlink:href="#DejaVuSans-3a" x="2340.132812"/>
     <use xlink:href="#DejaVuSans-20" x="2373.824219"/>
     <use xlink:href="#DejaVuSans-31" x="2405.611328"/>
     <use xlink:href="#DejaVuSans-30" x="2469.234375"/>
     <use xlink:href="#DejaVuSans-2e" x="2532.857422"/>
     <use xlink:href="#DejaVuSans-20" x="2564.644531"/>
    </g>
   </g>
  </g>
 </g>
 <defs>
  <clipPath id="pa416f6c5bc">
   <rect x="30.67" y="26.88" width="822.53" height="311.09"/>
  </clipPath>
 </defs>
</svg>
