<?xml version="1.0" encoding="utf-8" standalone="no"?>
<!DOCTYPE svg PUBLIC "-//W3C//DTD SVG 1.1//EN"
  "http://www.w3.org/Graphics/SVG/1.1/DTD/svg11.dtd">
<svg xmlns:xlink="http://www.w3.org/1999/xlink" width="864pt" height="432pt" viewBox="0 0 864 432" xmlns="http://www.w3.org/2000/svg" version="1.1">
 <metadata>
  <rdf:RDF xmlns:dc="http://purl.org/dc/elements/1.1/" xmlns:cc="http://creativecommons.org/ns#" xmlns:rdf="http://www.w3.org/1999/02/22-rdf-syntax-ns#">
   <cc:Work>
    <dc:type rdf:resource="http://purl.org/dc/dcmitype/StillImage"/>
    <dc:date>2022-09-12T15:46:17.552298</dc:date>
    <dc:format>image/svg+xml</dc:format>
    <dc:creator>
     <cc:Agent>
      <dc:title>Matplotlib v3.5.1, https://matplotlib.org/</dc:title>
     </cc:Agent>
    </dc:creator>
   </cc:Work>
  </rdf:RDF>
 </metadata>
 <defs>
  <style type="text/css">*{stroke-linejoin: round; stroke-linecap: butt}</style>
 </defs>
 <g id="figure_1">
  <g id="patch_1">
   <path d="M 0 432 
L 864 432 
L 864 0 
L 0 0 
z
" style="fill: #ffffff"/>
  </g>
  <g id="axes_1">
   <g id="patch_2">
    <path d="M 22.93 337.97 
L 853.2 337.97 
L 853.2 26.88 
L 22.93 26.88 
z
" style="fill: #ffffff"/>
   </g>
   <g id="PolyCollection_1">
    <path d="M 117.278864 42.4345 
L 79.539318 42.4345 
L 79.539318 42.4345 
L 79.539318 42.4345 
L 79.539318 42.4345 
L 79.539318 42.4345 
L 79.539318 42.4345 
L 79.539318 42.4345 
L 79.539318 42.4345 
L 79.539318 42.4345 
L 79.539318 42.4345 
L 79.539318 42.4345 
L 79.539318 42.4345 
L 79.539318 42.4345 
L 79.539318 42.4345 
L 79.539318 42.4345 
L 79.539318 42.4345 
L 79.539318 42.4345 
L 79.539318 42.4345 
L 79.539318 42.4345 
L 79.539318 42.4345 
L 79.539318 42.4345 
L 79.539318 42.4345 
L 79.539318 42.4345 
L 79.539318 42.4345 
L 79.539318 42.4345 
L 79.539318 42.4345 
L 79.539318 42.4345 
L 79.539318 42.4345 
L 79.539318 42.4345 
L 79.539318 42.4345 
L 79.539318 42.4345 
L 79.539318 42.4345 
L 79.539318 42.4345 
L 79.539318 42.4345 
L 79.539318 42.4345 
L 79.539318 42.4345 
L 79.539318 42.4345 
L 79.539318 42.4345 
L 79.539318 42.4345 
L 79.539318 42.4345 
L 79.539318 42.4345 
L 79.539318 42.4345 
L 79.539318 42.4345 
L 79.539318 42.4345 
L 79.539318 42.4345 
L 79.539318 42.4345 
L 79.539318 42.4345 
L 79.539318 42.4345 
L 79.539318 42.4345 
L 79.539318 42.4345 
L 79.539318 42.4345 
L 79.539318 42.4345 
L 79.539318 42.4345 
L 79.539318 42.4345 
L 79.539318 42.4345 
L 79.539318 42.4345 
L 79.539318 42.4345 
L 79.539318 42.4345 
L 79.539318 42.4345 
L 79.539318 42.4345 
L 79.539318 42.4345 
L 79.539318 42.4345 
L 79.539318 42.4345 
L 79.539318 42.4345 
L 79.539318 42.4345 
L 79.539318 42.4345 
L 79.539318 42.4345 
L 79.539318 42.4345 
L 79.539318 42.4345 
L 79.539318 42.4345 
L 79.539318 42.4345 
L 79.539318 42.4345 
L 79.539318 42.4345 
L 79.539318 42.4345 
L 79.539318 42.4345 
L 79.539318 42.4345 
L 79.539318 42.4345 
L 79.539318 42.4345 
L 79.539318 42.4345 
L 79.539318 42.4345 
L 79.539318 42.4345 
L 79.539318 42.4345 
L 79.539318 42.4345 
L 79.539318 42.4345 
L 79.539318 42.4345 
L 79.539318 42.4345 
L 79.539318 42.4345 
L 79.539318 42.4345 
L 79.539318 42.4345 
L 79.539318 42.4345 
L 79.539318 42.4345 
L 79.539318 42.4345 
L 79.539318 42.4345 
L 79.539318 42.4345 
L 79.539318 42.4345 
L 79.539318 42.4345 
L 79.539318 42.4345 
L 79.539318 42.4345 
L 79.539318 42.4345 
L 79.539318 42.4345 
L 117.278864 42.4345 
L 117.278864 42.4345 
L 117.278864 42.4345 
L 117.278864 42.4345 
L 117.278864 42.4345 
L 117.278864 42.4345 
L 117.278864 42.4345 
L 117.278864 42.4345 
L 117.278864 42.4345 
L 117.278864 42.4345 
L 117.278864 42.4345 
L 117.278864 42.4345 
L 117.278864 42.4345 
L 117.278864 42.4345 
L 117.278864 42.4345 
L 117.278864 42.4345 
L 117.278864 42.4345 
L 117.278864 42.4345 
L 117.278864 42.4345 
L 117.278864 42.4345 
L 117.278864 42.4345 
L 117.278864 42.4345 
L 117.278864 42.4345 
L 117.278864 42.4345 
L 117.278864 42.4345 
L 117.278864 42.4345 
L 117.278864 42.4345 
L 117.278864 42.4345 
L 117.278864 42.4345 
L 117.278864 42.4345 
L 117.278864 42.4345 
L 117.278864 42.4345 
L 117.278864 42.4345 
L 117.278864 42.4345 
L 117.278864 42.4345 
L 117.278864 42.4345 
L 117.278864 42.4345 
L 117.278864 42.4345 
L 117.278864 42.4345 
L 117.278864 42.4345 
L 117.278864 42.4345 
L 117.278864 42.4345 
L 117.278864 42.4345 
L 117.278864 42.4345 
L 117.278864 42.4345 
L 117.278864 42.4345 
L 117.278864 42.4345 
L 117.278864 42.4345 
L 117.278864 42.4345 
L 117.278864 42.4345 
L 117.278864 42.4345 
L 117.278864 42.4345 
L 117.278864 42.4345 
L 117.278864 42.4345 
L 117.278864 42.4345 
L 117.278864 42.4345 
L 117.278864 42.4345 
L 117.278864 42.4345 
L 117.278864 42.4345 
L 117.278864 42.4345 
L 117.278864 42.4345 
L 117.278864 42.4345 
L 117.278864 42.4345 
L 117.278864 42.4345 
L 117.278864 42.4345 
L 117.278864 42.4345 
L 117.278864 42.4345 
L 117.278864 42.4345 
L 117.278864 42.4345 
L 117.278864 42.4345 
L 117.278864 42.4345 
L 117.278864 42.4345 
L 117.278864 42.4345 
L 117.278864 42.4345 
L 117.278864 42.4345 
L 117.278864 42.4345 
L 117.278864 42.4345 
L 117.278864 42.4345 
L 117.278864 42.4345 
L 117.278864 42.4345 
L 117.278864 42.4345 
L 117.278864 42.4345 
L 117.278864 42.4345 
L 117.278864 42.4345 
L 117.278864 42.4345 
L 117.278864 42.4345 
L 117.278864 42.4345 
L 117.278864 42.4345 
L 117.278864 42.4345 
L 117.278864 42.4345 
L 117.278864 42.4345 
L 117.278864 42.4345 
L 117.278864 42.4345 
L 117.278864 42.4345 
L 117.278864 42.4345 
L 117.278864 42.4345 
L 117.278864 42.4345 
L 117.278864 42.4345 
L 117.278864 42.4345 
L 117.278864 42.4345 
L 117.278864 42.4345 
z
" clip-path="url(#pb76b166df7)" style="fill: #1f77b4; fill-opacity: 0.3"/>
   </g>
   <g id="PolyCollection_2">
    <path d="M 192.757955 135.7615 
L 155.018409 135.7615 
L 155.018409 135.7615 
L 155.018409 135.7615 
L 155.018409 135.7615 
L 155.018409 135.7615 
L 155.018409 135.7615 
L 155.018409 135.7615 
L 155.018409 135.7615 
L 155.018409 135.7615 
L 155.018409 135.7615 
L 155.018409 135.7615 
L 155.018409 135.7615 
L 155.018409 135.7615 
L 155.018409 135.7615 
L 155.018409 135.7615 
L 155.018409 135.7615 
L 155.018409 135.7615 
L 155.018409 135.7615 
L 155.018409 135.7615 
L 155.018409 135.7615 
L 155.018409 135.7615 
L 155.018409 135.7615 
L 155.018409 135.7615 
L 155.018409 135.7615 
L 155.018409 135.7615 
L 155.018409 135.7615 
L 155.018409 135.7615 
L 155.018409 135.7615 
L 155.018409 135.7615 
L 155.018409 135.7615 
L 155.018409 135.7615 
L 155.018409 135.7615 
L 155.018409 135.7615 
L 155.018409 135.7615 
L 155.018409 135.7615 
L 155.018409 135.7615 
L 155.018409 135.7615 
L 155.018409 135.7615 
L 155.018409 135.7615 
L 155.018409 135.7615 
L 155.018409 135.7615 
L 155.018409 135.7615 
L 155.018409 135.7615 
L 155.018409 135.7615 
L 155.018409 135.7615 
L 155.018409 135.7615 
L 155.018409 135.7615 
L 155.018409 135.7615 
L 155.018409 135.7615 
L 155.018409 135.7615 
L 155.018409 135.7615 
L 155.018409 135.7615 
L 155.018409 135.7615 
L 155.018409 135.7615 
L 155.018409 135.7615 
L 155.018409 135.7615 
L 155.018409 135.7615 
L 155.018409 135.7615 
L 155.018409 135.7615 
L 155.018409 135.7615 
L 155.018409 135.7615 
L 155.018409 135.7615 
L 155.018409 135.7615 
L 155.018409 135.7615 
L 155.018409 135.7615 
L 155.018409 135.7615 
L 155.018409 135.7615 
L 155.018409 135.7615 
L 155.018409 135.7615 
L 155.018409 135.7615 
L 155.018409 135.7615 
L 155.018409 135.7615 
L 155.018409 135.7615 
L 155.018409 135.7615 
L 155.018409 135.7615 
L 155.018409 135.7615 
L 155.018409 135.7615 
L 155.018409 135.7615 
L 155.018409 135.7615 
L 155.018409 135.7615 
L 155.018409 135.7615 
L 155.018409 135.7615 
L 155.018409 135.7615 
L 155.018409 135.7615 
L 155.018409 135.7615 
L 155.018409 135.7615 
L 155.018409 135.7615 
L 155.018409 135.7615 
L 155.018409 135.7615 
L 155.018409 135.7615 
L 155.018409 135.7615 
L 155.018409 135.7615 
L 155.018409 135.7615 
L 155.018409 135.7615 
L 155.018409 135.7615 
L 155.018409 135.7615 
L 155.018409 135.7615 
L 155.018409 135.7615 
L 155.018409 135.7615 
L 155.018409 135.7615 
L 192.757955 135.7615 
L 192.757955 135.7615 
L 192.757955 135.7615 
L 192.757955 135.7615 
L 192.757955 135.7615 
L 192.757955 135.7615 
L 192.757955 135.7615 
L 192.757955 135.7615 
L 192.757955 135.7615 
L 192.757955 135.7615 
L 192.757955 135.7615 
L 192.757955 135.7615 
L 192.757955 135.7615 
L 192.757955 135.7615 
L 192.757955 135.7615 
L 192.757955 135.7615 
L 192.757955 135.7615 
L 192.757955 135.7615 
L 192.757955 135.7615 
L 192.757955 135.7615 
L 192.757955 135.7615 
L 192.757955 135.7615 
L 192.757955 135.7615 
L 192.757955 135.7615 
L 192.757955 135.7615 
L 192.757955 135.7615 
L 192.757955 135.7615 
L 192.757955 135.7615 
L 192.757955 135.7615 
L 192.757955 135.7615 
L 192.757955 135.7615 
L 192.757955 135.7615 
L 192.757955 135.7615 
L 192.757955 135.7615 
L 192.757955 135.7615 
L 192.757955 135.7615 
L 192.757955 135.7615 
L 192.757955 135.7615 
L 192.757955 135.7615 
L 192.757955 135.7615 
L 192.757955 135.7615 
L 192.757955 135.7615 
L 192.757955 135.7615 
L 192.757955 135.7615 
L 192.757955 135.7615 
L 192.757955 135.7615 
L 192.757955 135.7615 
L 192.757955 135.7615 
L 192.757955 135.7615 
L 192.757955 135.7615 
L 192.757955 135.7615 
L 192.757955 135.7615 
L 192.757955 135.7615 
L 192.757955 135.7615 
L 192.757955 135.7615 
L 192.757955 135.7615 
L 192.757955 135.7615 
L 192.757955 135.7615 
L 192.757955 135.7615 
L 192.757955 135.7615 
L 192.757955 135.7615 
L 192.757955 135.7615 
L 192.757955 135.7615 
L 192.757955 135.7615 
L 192.757955 135.7615 
L 192.757955 135.7615 
L 192.757955 135.7615 
L 192.757955 135.7615 
L 192.757955 135.7615 
L 192.757955 135.7615 
L 192.757955 135.7615 
L 192.757955 135.7615 
L 192.757955 135.7615 
L 192.757955 135.7615 
L 192.757955 135.7615 
L 192.757955 135.7615 
L 192.757955 135.7615 
L 192.757955 135.7615 
L 192.757955 135.7615 
L 192.757955 135.7615 
L 192.757955 135.7615 
L 192.757955 135.7615 
L 192.757955 135.7615 
L 192.757955 135.7615 
L 192.757955 135.7615 
L 192.757955 135.7615 
L 192.757955 135.7615 
L 192.757955 135.7615 
L 192.757955 135.7615 
L 192.757955 135.7615 
L 192.757955 135.7615 
L 192.757955 135.7615 
L 192.757955 135.7615 
L 192.757955 135.7615 
L 192.757955 135.7615 
L 192.757955 135.7615 
L 192.757955 135.7615 
L 192.757955 135.7615 
L 192.757955 135.7615 
L 192.757955 135.7615 
L 192.757955 135.7615 
z
" clip-path="url(#pb76b166df7)" style="fill: #1f77b4; fill-opacity: 0.3"/>
   </g>
   <g id="PolyCollection_3">
    <path d="M 249.612336 197.9795 
L 249.12221 197.9795 
L 249.123747 197.351035 
L 249.128303 196.722571 
L 249.135708 196.094106 
L 249.145689 195.465641 
L 249.157889 194.837177 
L 249.171887 194.208712 
L 249.187217 193.580247 
L 249.203399 192.951783 
L 249.219955 192.323318 
L 249.236434 191.694854 
L 249.252421 191.066389 
L 249.267552 190.437924 
L 249.281511 189.80946 
L 249.294028 189.180995 
L 249.304865 188.55253 
L 249.313802 187.924066 
L 249.320605 187.295601 
L 249.325004 186.667136 
L 249.326647 186.038672 
L 249.325072 185.410207 
L 249.319659 184.781742 
L 249.309587 184.153278 
L 249.293801 183.524813 
L 249.27097 182.896348 
L 249.239469 182.267884 
L 249.197363 181.639419 
L 249.142421 181.010955 
L 249.072147 180.38249 
L 248.98385 179.754025 
L 248.87474 179.125561 
L 248.742069 178.497096 
L 248.583305 177.868631 
L 248.396336 177.240167 
L 248.179702 176.611702 
L 247.932831 175.983237 
L 247.656274 175.354773 
L 247.35191 174.726308 
L 247.023095 174.097843 
L 246.674748 173.469379 
L 246.313337 172.840914 
L 245.946766 172.212449 
L 245.584143 171.583985 
L 245.235446 170.95552 
L 244.911092 170.327056 
L 244.621428 169.698591 
L 244.376198 169.070126 
L 244.183995 168.441662 
L 244.051764 167.813197 
L 243.984388 167.184732 
L 243.984386 166.556268 
L 244.051756 165.927803 
L 244.183979 165.299338 
L 244.376168 164.670874 
L 244.621375 164.042409 
L 244.910997 163.413944 
L 245.235283 162.78548 
L 245.583864 162.157015 
L 245.946295 161.528551 
L 246.312554 160.900086 
L 246.673459 160.271621 
L 247.021002 159.643157 
L 247.348554 159.014692 
L 247.65096 158.386227 
L 247.92452 157.757763 
L 248.166868 157.129298 
L 248.376766 156.500833 
L 248.553836 155.872369 
L 248.698248 155.243904 
L 248.810393 154.615439 
L 248.890547 153.986975 
L 248.938551 153.35851 
L 248.953525 152.730045 
L 248.93362 152.101581 
L 248.87583 151.473116 
L 248.775875 150.844652 
L 248.628165 150.216187 
L 248.425866 149.587722 
L 248.161086 148.959258 
L 247.825177 148.330793 
L 247.409176 147.702328 
L 246.904384 147.073864 
L 246.303059 146.445399 
L 245.599208 145.816934 
L 244.789441 145.18847 
L 243.873824 144.560005 
L 242.856668 143.93154 
L 241.747181 143.303076 
L 240.559897 142.674611 
L 239.314818 142.046146 
L 238.037201 141.417682 
L 236.756964 140.789217 
L 235.507692 140.160753 
L 234.325289 139.532288 
L 233.24633 138.903823 
L 232.306221 138.275359 
L 231.53728 137.646894 
L 230.966907 137.018429 
L 230.615962 136.389965 
L 230.4975 135.7615 
L 268.237045 135.7615 
L 268.237045 135.7615 
L 268.118583 136.389965 
L 267.767638 137.018429 
L 267.197265 137.646894 
L 266.428325 138.275359 
L 265.488215 138.903823 
L 264.409257 139.532288 
L 263.226854 140.160753 
L 261.977581 140.789217 
L 260.697344 141.417682 
L 259.419728 142.046146 
L 258.174649 142.674611 
L 256.987365 143.303076 
L 255.877877 143.93154 
L 254.860721 144.560005 
L 253.945104 145.18847 
L 253.135338 145.816934 
L 252.431487 146.445399 
L 251.830161 147.073864 
L 251.32537 147.702328 
L 250.909369 148.330793 
L 250.573459 148.959258 
L 250.308679 149.587722 
L 250.106381 150.216187 
L 249.95867 150.844652 
L 249.858715 151.473116 
L 249.800926 152.101581 
L 249.78102 152.730045 
L 249.795994 153.35851 
L 249.843998 153.986975 
L 249.924152 154.615439 
L 250.036297 155.243904 
L 250.18071 155.872369 
L 250.357779 156.500833 
L 250.567677 157.129298 
L 250.810025 157.757763 
L 251.083586 158.386227 
L 251.385991 159.014692 
L 251.713543 159.643157 
L 252.061086 160.271621 
L 252.421992 160.900086 
L 252.78825 161.528551 
L 253.150682 162.157015 
L 253.499263 162.78548 
L 253.823548 163.413944 
L 254.113171 164.042409 
L 254.358377 164.670874 
L 254.550567 165.299338 
L 254.682789 165.927803 
L 254.75016 166.556268 
L 254.750157 167.184732 
L 254.682781 167.813197 
L 254.550551 168.441662 
L 254.358347 169.070126 
L 254.113117 169.698591 
L 253.823454 170.327056 
L 253.499099 170.95552 
L 253.150403 171.583985 
L 252.78778 172.212449 
L 252.421209 172.840914 
L 252.059798 173.469379 
L 251.711451 174.097843 
L 251.382636 174.726308 
L 251.078271 175.354773 
L 250.801715 175.983237 
L 250.554844 176.611702 
L 250.338209 177.240167 
L 250.15124 177.868631 
L 249.992476 178.497096 
L 249.859805 179.125561 
L 249.750695 179.754025 
L 249.662398 180.38249 
L 249.592124 181.010955 
L 249.537182 181.639419 
L 249.495076 182.267884 
L 249.463575 182.896348 
L 249.440745 183.524813 
L 249.424958 184.153278 
L 249.414887 184.781742 
L 249.409473 185.410207 
L 249.407898 186.038672 
L 249.409542 186.667136 
L 249.41394 187.295601 
L 249.420744 187.924066 
L 249.42968 188.55253 
L 249.440518 189.180995 
L 249.453034 189.80946 
L 249.466993 190.437924 
L 249.482124 191.066389 
L 249.498112 191.694854 
L 249.51459 192.323318 
L 249.531147 192.951783 
L 249.547328 193.580247 
L 249.562659 194.208712 
L 249.576656 194.837177 
L 249.588856 195.465641 
L 249.598838 196.094106 
L 249.606242 196.722571 
L 249.610798 197.351035 
L 249.612336 197.9795 
z
" clip-path="url(#pb76b166df7)" style="fill: #1f77b4; fill-opacity: 0.3"/>
   </g>
   <g id="PolyCollection_4">
    <path d="M 331.853648 197.9795 
L 317.839079 197.9795 
L 317.852231 197.351035 
L 317.90223 196.722571 
L 317.987661 196.094106 
L 318.106397 195.465641 
L 318.255637 194.837177 
L 318.431939 194.208712 
L 318.631285 193.580247 
L 318.849144 192.951783 
L 319.080543 192.323318 
L 319.320151 191.694854 
L 319.562359 191.066389 
L 319.801363 190.437924 
L 320.031246 189.80946 
L 320.24606 189.180995 
L 320.4399 188.55253 
L 320.606981 187.924066 
L 320.741708 187.295601 
L 320.83874 186.667136 
L 320.893059 186.038672 
L 320.900037 185.410207 
L 320.855494 184.781742 
L 320.75577 184.153278 
L 320.597791 183.524813 
L 320.379135 182.896348 
L 320.098107 182.267884 
L 319.753805 181.639419 
L 319.346197 181.010955 
L 318.876177 180.38249 
L 318.345634 179.754025 
L 317.757496 179.125561 
L 317.115766 178.497096 
L 316.425544 177.868631 
L 315.693019 177.240167 
L 314.925445 176.611702 
L 314.13108 175.983237 
L 313.319105 175.354773 
L 312.499504 174.726308 
L 311.682918 174.097843 
L 310.880468 173.469379 
L 310.103553 172.840914 
L 309.363628 172.212449 
L 308.671965 171.583985 
L 308.0394 170.95552 
L 307.476092 170.327056 
L 306.991274 169.698591 
L 306.593028 169.070126 
L 306.288082 168.441662 
L 306.081632 167.813197 
L 305.977211 167.184732 
L 305.976591 166.556268 
L 306.079735 165.927803 
L 306.284796 165.299338 
L 306.588163 164.670874 
L 306.984551 164.042409 
L 307.46714 163.413944 
L 308.027742 162.78548 
L 308.657006 162.157015 
L 309.344638 161.528551 
L 310.079649 160.900086 
L 310.850596 160.271621 
L 311.645832 159.643157 
L 312.453743 159.014692 
L 313.262971 158.386227 
L 314.062618 157.757763 
L 314.842421 157.129298 
L 315.592904 156.500833 
L 316.305494 155.872369 
L 316.972617 155.243904 
L 317.587757 154.615439 
L 318.145488 153.986975 
L 318.641491 153.35851 
L 319.072545 152.730045 
L 319.436495 152.101581 
L 319.732222 151.473116 
L 319.959591 150.844652 
L 320.119397 150.216187 
L 320.213311 149.587722 
L 320.243816 148.959258 
L 320.21415 148.330793 
L 320.128244 147.702328 
L 319.990664 147.073864 
L 319.806545 146.445399 
L 319.581534 145.816934 
L 319.321713 145.18847 
L 319.033539 144.560005 
L 318.723757 143.93154 
L 318.399321 143.303076 
L 318.0673 142.674611 
L 317.734785 142.046146 
L 317.408778 141.417682 
L 317.096091 140.789217 
L 316.803232 140.160753 
L 316.536295 139.532288 
L 316.300852 138.903823 
L 316.101855 138.275359 
L 315.943544 137.646894 
L 315.829368 137.018429 
L 315.761928 136.389965 
L 315.74293 135.7615 
L 333.949797 135.7615 
L 333.949797 135.7615 
L 333.930799 136.389965 
L 333.863359 137.018429 
L 333.749184 137.646894 
L 333.590872 138.275359 
L 333.391875 138.903823 
L 333.156433 139.532288 
L 332.889495 140.160753 
L 332.596636 140.789217 
L 332.283949 141.417682 
L 331.957943 142.046146 
L 331.625427 142.674611 
L 331.293406 143.303076 
L 330.96897 143.93154 
L 330.659188 144.560005 
L 330.371014 145.18847 
L 330.111194 145.816934 
L 329.886182 146.445399 
L 329.702064 147.073864 
L 329.564483 147.702328 
L 329.478578 148.330793 
L 329.448911 148.959258 
L 329.479416 149.587722 
L 329.57333 150.216187 
L 329.733137 150.844652 
L 329.960505 151.473116 
L 330.256232 152.101581 
L 330.620183 152.730045 
L 331.051236 153.35851 
L 331.54724 153.986975 
L 332.104971 154.615439 
L 332.72011 155.243904 
L 333.387233 155.872369 
L 334.099824 156.500833 
L 334.850306 157.129298 
L 335.630109 157.757763 
L 336.429756 158.386227 
L 337.238984 159.014692 
L 338.046895 159.643157 
L 338.842131 160.271621 
L 339.613078 160.900086 
L 340.348089 161.528551 
L 341.035722 162.157015 
L 341.664985 162.78548 
L 342.225587 163.413944 
L 342.708176 164.042409 
L 343.104565 164.670874 
L 343.407931 165.299338 
L 343.612992 165.927803 
L 343.716136 166.556268 
L 343.715517 167.184732 
L 343.611096 167.813197 
L 343.404646 168.441662 
L 343.099699 169.070126 
L 342.701453 169.698591 
L 342.216635 170.327056 
L 341.653327 170.95552 
L 341.020762 171.583985 
L 340.329099 172.212449 
L 339.589174 172.840914 
L 338.81226 173.469379 
L 338.009809 174.097843 
L 337.193223 174.726308 
L 336.373622 175.354773 
L 335.561647 175.983237 
L 334.767283 176.611702 
L 333.999708 177.240167 
L 333.267183 177.868631 
L 332.576961 178.497096 
L 331.935232 179.125561 
L 331.347093 179.754025 
L 330.81655 180.38249 
L 330.34653 181.010955 
L 329.938922 181.639419 
L 329.594621 182.267884 
L 329.313592 182.896348 
L 329.094937 183.524813 
L 328.936957 184.153278 
L 328.837234 184.781742 
L 328.792691 185.410207 
L 328.799668 186.038672 
L 328.853988 186.667136 
L 328.951019 187.295601 
L 329.085746 187.924066 
L 329.252827 188.55253 
L 329.446668 189.180995 
L 329.661481 189.80946 
L 329.891364 190.437924 
L 330.130368 191.066389 
L 330.372576 191.694854 
L 330.612184 192.323318 
L 330.843584 192.951783 
L 331.061442 193.580247 
L 331.260789 194.208712 
L 331.437091 194.837177 
L 331.58633 195.465641 
L 331.705067 196.094106 
L 331.790497 196.722571 
L 331.840497 197.351035 
L 331.853648 197.9795 
z
" clip-path="url(#pb76b166df7)" style="fill: #1f77b4; fill-opacity: 0.3"/>
   </g>
   <g id="PolyCollection_5">
    <path d="M 406.633965 229.0885 
L 394.016944 229.0885 
L 393.836637 227.831571 
L 393.666033 226.574641 
L 393.496683 225.317712 
L 393.318815 224.060783 
L 393.121817 222.803854 
L 392.894824 221.546924 
L 392.627385 220.289995 
L 392.310162 219.033066 
L 391.935624 217.776136 
L 391.498697 216.519207 
L 390.997308 215.262278 
L 390.4328 214.005348 
L 389.81016 212.748419 
L 389.138047 211.49149 
L 388.428589 210.234561 
L 387.696963 208.977631 
L 386.960743 207.720702 
L 386.239078 206.463773 
L 385.551704 205.206843 
L 384.917873 203.949914 
L 384.355253 202.692985 
L 383.87886 201.436056 
L 383.50011 200.179126 
L 383.22604 198.922197 
L 383.058768 197.665268 
L 382.995235 196.408338 
L 383.027242 195.151409 
L 383.141813 193.89448 
L 383.321852 192.637551 
L 383.547064 191.380621 
L 383.7951 190.123692 
L 384.042841 188.866763 
L 384.267758 187.609833 
L 384.449256 186.352904 
L 384.569921 185.095975 
L 384.616588 183.839045 
L 384.581169 182.582116 
L 384.461175 181.325187 
L 384.259909 180.068258 
L 383.986306 178.811328 
L 383.654435 177.554399 
L 383.282688 176.29747 
L 382.892704 175.04054 
L 382.508095 173.783611 
L 382.15306 172.526682 
L 381.850959 171.269753 
L 381.62295 170.012823 
L 381.48676 168.755894 
L 381.455682 167.498965 
L 381.537838 166.242035 
L 381.735771 164.985106 
L 382.046375 163.728177 
L 382.461155 162.471247 
L 382.966818 161.214318 
L 383.546122 159.957389 
L 384.178948 158.70046 
L 384.843503 157.44353 
L 385.517588 156.186601 
L 386.179849 154.929672 
L 386.810929 153.672742 
L 387.394457 152.415813 
L 387.917824 151.158884 
L 388.372698 149.901955 
L 388.755269 148.645025 
L 389.066211 147.388096 
L 389.310387 146.131167 
L 389.496316 144.874237 
L 389.635455 143.617308 
L 389.741347 142.360379 
L 389.828686 141.103449 
L 389.912374 139.84652 
L 390.006619 138.589591 
L 390.124122 137.332662 
L 390.275408 136.075732 
L 390.46833 134.818803 
L 390.707763 133.561874 
L 390.995491 132.304944 
L 391.330294 131.048015 
L 391.708208 129.791086 
L 392.122925 128.534157 
L 392.566309 127.277227 
L 393.028983 126.020298 
L 393.500942 124.763369 
L 393.972157 123.506439 
L 394.43313 122.24951 
L 394.875375 120.992581 
L 395.291793 119.735652 
L 395.676937 118.478722 
L 396.027157 117.221793 
L 396.340624 115.964864 
L 396.617248 114.707934 
L 396.858506 113.451005 
L 397.067194 112.194076 
L 397.247132 110.937146 
L 397.402839 109.680217 
L 397.539206 108.423288 
L 397.661185 107.166359 
L 397.773507 105.909429 
L 397.880447 104.6525 
L 402.770462 104.6525 
L 402.770462 104.6525 
L 402.877402 105.909429 
L 402.989724 107.166359 
L 403.111703 108.423288 
L 403.24807 109.680217 
L 403.403777 110.937146 
L 403.583715 112.194076 
L 403.792403 113.451005 
L 404.033661 114.707934 
L 404.310285 115.964864 
L 404.623752 117.221793 
L 404.973972 118.478722 
L 405.359116 119.735652 
L 405.775534 120.992581 
L 406.217779 122.24951 
L 406.678752 123.506439 
L 407.149967 124.763369 
L 407.621926 126.020298 
L 408.0846 127.277227 
L 408.527984 128.534157 
L 408.942701 129.791086 
L 409.320615 131.048015 
L 409.655418 132.304944 
L 409.943146 133.561874 
L 410.182579 134.818803 
L 410.375501 136.075732 
L 410.526787 137.332662 
L 410.64429 138.589591 
L 410.738535 139.84652 
L 410.822224 141.103449 
L 410.909562 142.360379 
L 411.015454 143.617308 
L 411.154593 144.874237 
L 411.340522 146.131167 
L 411.584698 147.388096 
L 411.89564 148.645025 
L 412.278211 149.901955 
L 412.733085 151.158884 
L 413.256452 152.415813 
L 413.83998 153.672742 
L 414.47106 154.929672 
L 415.133321 156.186601 
L 415.807406 157.44353 
L 416.471961 158.70046 
L 417.104787 159.957389 
L 417.684092 161.214318 
L 418.189754 162.471247 
L 418.604534 163.728177 
L 418.915138 164.985106 
L 419.113071 166.242035 
L 419.195227 167.498965 
L 419.164149 168.755894 
L 419.027959 170.012823 
L 418.79995 171.269753 
L 418.497849 172.526682 
L 418.142814 173.783611 
L 417.758205 175.04054 
L 417.368221 176.29747 
L 416.996474 177.554399 
L 416.664603 178.811328 
L 416.391 180.068258 
L 416.189734 181.325187 
L 416.06974 182.582116 
L 416.034321 183.839045 
L 416.080988 185.095975 
L 416.201653 186.352904 
L 416.383151 187.609833 
L 416.608068 188.866763 
L 416.855809 190.123692 
L 417.103845 191.380621 
L 417.329057 192.637551 
L 417.509096 193.89448 
L 417.623667 195.151409 
L 417.655674 196.408338 
L 417.592141 197.665268 
L 417.42487 198.922197 
L 417.150799 200.179126 
L 416.772049 201.436056 
L 416.295656 202.692985 
L 415.733036 203.949914 
L 415.099205 205.206843 
L 414.411831 206.463773 
L 413.690166 207.720702 
L 412.953947 208.977631 
L 412.22232 210.234561 
L 411.512863 211.49149 
L 410.840749 212.748419 
L 410.218109 214.005348 
L 409.653601 215.262278 
L 409.152213 216.519207 
L 408.715285 217.776136 
L 408.340748 219.033066 
L 408.023524 220.289995 
L 407.756085 221.546924 
L 407.529092 222.803854 
L 407.332094 224.060783 
L 407.154226 225.317712 
L 406.984876 226.574641 
L 406.814272 227.831571 
L 406.633965 229.0885 
z
" clip-path="url(#pb76b166df7)" style="fill: #1f77b4; fill-opacity: 0.3"/>
   </g>
   <g id="PolyCollection_6">
    <path d="M 479.535147 260.1975 
L 472.073944 260.1975 
L 471.927085 258.940571 
L 471.776362 257.683641 
L 471.616129 256.426712 
L 471.440102 255.169783 
L 471.241674 253.912854 
L 471.014288 252.655924 
L 470.751859 251.398995 
L 470.449207 250.142066 
L 470.10249 248.885136 
L 469.709591 247.628207 
L 469.270446 246.371278 
L 468.787273 245.114348 
L 468.264683 243.857419 
L 467.709655 242.60049 
L 467.131357 241.343561 
L 466.540819 240.086631 
L 465.950461 238.829702 
L 465.373504 237.572773 
L 464.82327 236.315843 
L 464.31244 235.058914 
L 463.852292 233.801985 
L 463.451973 232.545056 
L 463.117858 231.288126 
L 462.853047 230.031197 
L 462.657021 228.774268 
L 462.525523 227.517338 
L 462.450648 226.260409 
L 462.421171 225.00348 
L 462.423096 223.746551 
L 462.440404 222.489621 
L 462.455951 221.232692 
L 462.45249 219.975763 
L 462.413723 218.718833 
L 462.325351 217.461904 
L 462.176036 216.204975 
L 461.958219 214.948045 
L 461.668736 213.691116 
L 461.309187 212.434187 
L 460.886036 211.177258 
L 460.410411 209.920328 
L 459.897631 208.663399 
L 459.366458 207.40647 
L 458.838141 206.14954 
L 458.335283 204.892611 
L 457.880615 203.635682 
L 457.495742 202.378753 
L 457.19994 201.121823 
L 457.009086 199.864894 
L 456.934773 198.607965 
L 456.983678 197.351035 
L 457.157214 196.094106 
L 457.451489 194.837177 
L 457.857566 193.580247 
L 458.362013 192.323318 
L 458.947693 191.066389 
L 459.594749 189.80946 
L 460.281721 188.55253 
L 460.986705 187.295601 
L 461.688511 186.038672 
L 462.367726 184.781742 
L 463.007631 183.524813 
L 463.594923 182.267884 
L 464.120205 181.010955 
L 464.578228 179.754025 
L 464.967875 178.497096 
L 465.291912 177.240167 
L 465.556528 175.983237 
L 465.770699 174.726308 
L 465.945429 173.469379 
L 466.092924 172.212449 
L 466.225747 170.95552 
L 466.356007 169.698591 
L 466.49463 168.441662 
L 466.65076 167.184732 
L 466.831303 165.927803 
L 467.040646 164.670874 
L 467.280555 163.413944 
L 467.550238 162.157015 
L 467.846574 160.900086 
L 468.164474 159.643157 
L 468.497335 158.386227 
L 468.837572 157.129298 
L 469.177174 155.872369 
L 469.50825 154.615439 
L 469.823535 153.35851 
L 470.116829 152.101581 
L 470.383335 150.844652 
L 470.619892 149.587722 
L 470.825092 148.330793 
L 470.999279 147.073864 
L 471.144443 145.816934 
L 471.264014 144.560005 
L 471.362585 143.303076 
L 471.445583 142.046146 
L 471.518904 140.789217 
L 471.588549 139.532288 
L 471.660276 138.275359 
L 471.739289 137.018429 
L 471.829979 135.7615 
L 479.779112 135.7615 
L 479.779112 135.7615 
L 479.869802 137.018429 
L 479.948815 138.275359 
L 480.020542 139.532288 
L 480.090187 140.789217 
L 480.163508 142.046146 
L 480.246506 143.303076 
L 480.345077 144.560005 
L 480.464648 145.816934 
L 480.609811 147.073864 
L 480.783999 148.330793 
L 480.989199 149.587722 
L 481.225756 150.844652 
L 481.492262 152.101581 
L 481.785556 153.35851 
L 482.100841 154.615439 
L 482.431917 155.872369 
L 482.771519 157.129298 
L 483.111756 158.386227 
L 483.444617 159.643157 
L 483.762517 160.900086 
L 484.058853 162.157015 
L 484.328536 163.413944 
L 484.568444 164.670874 
L 484.777788 165.927803 
L 484.958331 167.184732 
L 485.114461 168.441662 
L 485.253084 169.698591 
L 485.383344 170.95552 
L 485.516167 172.212449 
L 485.663662 173.469379 
L 485.838392 174.726308 
L 486.052562 175.983237 
L 486.317179 177.240167 
L 486.641216 178.497096 
L 487.030863 179.754025 
L 487.488886 181.010955 
L 488.014168 182.267884 
L 488.60146 183.524813 
L 489.241365 184.781742 
L 489.92058 186.038672 
L 490.622386 187.295601 
L 491.32737 188.55253 
L 492.014341 189.80946 
L 492.661398 191.066389 
L 493.247078 192.323318 
L 493.751525 193.580247 
L 494.157602 194.837177 
L 494.451877 196.094106 
L 494.625413 197.351035 
L 494.674318 198.607965 
L 494.600005 199.864894 
L 494.409151 201.121823 
L 494.113349 202.378753 
L 493.728476 203.635682 
L 493.273808 204.892611 
L 492.77095 206.14954 
L 492.242633 207.40647 
L 491.71146 208.663399 
L 491.19868 209.920328 
L 490.723055 211.177258 
L 490.299904 212.434187 
L 489.940355 213.691116 
L 489.650872 214.948045 
L 489.433055 216.204975 
L 489.28374 217.461904 
L 489.195368 218.718833 
L 489.156601 219.975763 
L 489.15314 221.232692 
L 489.168687 222.489621 
L 489.185995 223.746551 
L 489.18792 225.00348 
L 489.158443 226.260409 
L 489.083568 227.517338 
L 488.95207 228.774268 
L 488.756044 230.031197 
L 488.491233 231.288126 
L 488.157118 232.545056 
L 487.756799 233.801985 
L 487.296651 235.058914 
L 486.785821 236.315843 
L 486.235587 237.572773 
L 485.65863 238.829702 
L 485.068272 240.086631 
L 484.477734 241.343561 
L 483.899435 242.60049 
L 483.344408 243.857419 
L 482.821818 245.114348 
L 482.338645 246.371278 
L 481.8995 247.628207 
L 481.506601 248.885136 
L 481.159884 250.142066 
L 480.857232 251.398995 
L 480.594803 252.655924 
L 480.367417 253.912854 
L 480.168988 255.169783 
L 479.992962 256.426712 
L 479.832729 257.683641 
L 479.682006 258.940571 
L 479.535147 260.1975 
z
" clip-path="url(#pb76b166df7)" style="fill: #1f77b4; fill-opacity: 0.3"/>
   </g>
   <g id="PolyCollection_7">
    <path d="M 568.430329 291.3065 
L 534.136943 291.3065 
L 534.204695 290.363803 
L 534.44312 289.421106 
L 534.841105 288.478409 
L 535.381747 287.535712 
L 536.043004 286.593015 
L 536.798559 285.650318 
L 537.618861 284.707621 
L 538.472277 283.764924 
L 539.326283 282.822227 
L 540.148654 281.87953 
L 540.90858 280.936833 
L 541.577692 279.994136 
L 542.130955 279.051439 
L 542.547427 278.108742 
L 542.810866 277.166045 
L 542.910192 276.223348 
L 542.839809 275.280652 
L 542.599792 274.337955 
L 542.195926 273.395258 
L 541.639609 272.452561 
L 540.947601 271.509864 
L 540.141616 270.567167 
L 539.247743 269.62447 
L 538.295688 268.681773 
L 537.317852 267.739076 
L 536.348256 266.796379 
L 535.42133 265.853682 
L 534.570627 264.910985 
L 533.827514 263.968288 
L 533.219889 263.025591 
L 532.771025 262.082894 
L 532.498581 261.140197 
L 532.413864 260.1975 
L 532.521381 259.254803 
L 532.818717 258.312106 
L 533.296741 257.369409 
L 533.940137 256.426712 
L 534.728216 255.484015 
L 535.635961 254.541318 
L 536.635226 253.598621 
L 537.69603 252.655924 
L 538.787854 251.713227 
L 539.880874 250.77053 
L 540.94707 249.827833 
L 541.96117 248.885136 
L 542.901378 247.942439 
L 543.749906 246.999742 
L 544.493273 246.057045 
L 545.122423 245.114348 
L 545.632662 244.171652 
L 546.02345 243.228955 
L 546.298081 242.286258 
L 546.463279 241.343561 
L 546.528734 240.400864 
L 546.506595 239.458167 
L 546.410946 238.51547 
L 546.257257 237.572773 
L 546.061842 236.630076 
L 545.841307 235.687379 
L 545.612022 234.744682 
L 545.389596 233.801985 
L 545.1884 232.859288 
L 545.021125 231.916591 
L 544.898413 230.973894 
L 544.828558 230.031197 
L 544.817309 229.0885 
L 544.867775 228.145803 
L 544.980444 227.203106 
L 545.15331 226.260409 
L 545.382111 225.317712 
L 545.660648 224.375015 
L 545.981187 223.432318 
L 546.334895 222.489621 
L 546.712308 221.546924 
L 547.103784 220.604227 
L 547.499932 219.66153 
L 547.891978 218.718833 
L 548.272075 217.776136 
L 548.633528 216.833439 
L 548.970935 215.890742 
L 549.280253 214.948045 
L 549.558787 214.005348 
L 549.805121 213.062652 
L 550.018998 212.119955 
L 550.201164 211.177258 
L 550.353196 210.234561 
L 550.477321 209.291864 
L 550.576234 208.349167 
L 550.652934 207.40647 
L 550.710575 206.463773 
L 550.752335 205.521076 
L 550.781305 204.578379 
L 550.800411 203.635682 
L 550.81234 202.692985 
L 550.819499 201.750288 
L 550.823979 200.807591 
L 550.827538 199.864894 
L 550.8316 198.922197 
L 550.837256 197.9795 
L 551.730017 197.9795 
L 551.730017 197.9795 
L 551.735672 198.922197 
L 551.739734 199.864894 
L 551.743294 200.807591 
L 551.747773 201.750288 
L 551.754932 202.692985 
L 551.766862 203.635682 
L 551.785968 204.578379 
L 551.814938 205.521076 
L 551.856697 206.463773 
L 551.914339 207.40647 
L 551.991039 208.349167 
L 552.089952 209.291864 
L 552.214077 210.234561 
L 552.366109 211.177258 
L 552.548275 212.119955 
L 552.762152 213.062652 
L 553.008486 214.005348 
L 553.28702 214.948045 
L 553.596338 215.890742 
L 553.933745 216.833439 
L 554.295198 217.776136 
L 554.675295 218.718833 
L 555.067341 219.66153 
L 555.463488 220.604227 
L 555.854965 221.546924 
L 556.232378 222.489621 
L 556.586086 223.432318 
L 556.906624 224.375015 
L 557.185162 225.317712 
L 557.413962 226.260409 
L 557.586829 227.203106 
L 557.699498 228.145803 
L 557.749964 229.0885 
L 557.738715 230.031197 
L 557.668859 230.973894 
L 557.546147 231.916591 
L 557.378873 232.859288 
L 557.177677 233.801985 
L 556.955251 234.744682 
L 556.725966 235.687379 
L 556.505431 236.630076 
L 556.310015 237.572773 
L 556.156327 238.51547 
L 556.060677 239.458167 
L 556.038539 240.400864 
L 556.103994 241.343561 
L 556.269192 242.286258 
L 556.543823 243.228955 
L 556.934611 244.171652 
L 557.44485 245.114348 
L 558.074 246.057045 
L 558.817367 246.999742 
L 559.665894 247.942439 
L 560.606103 248.885136 
L 561.620203 249.827833 
L 562.686399 250.77053 
L 563.779419 251.713227 
L 564.871242 252.655924 
L 565.932047 253.598621 
L 566.931312 254.541318 
L 567.839057 255.484015 
L 568.627136 256.426712 
L 569.270532 257.369409 
L 569.748556 258.312106 
L 570.045892 259.254803 
L 570.153409 260.1975 
L 570.068692 261.140197 
L 569.796248 262.082894 
L 569.347383 263.025591 
L 568.739759 263.968288 
L 567.996645 264.910985 
L 567.145943 265.853682 
L 566.219016 266.796379 
L 565.24942 267.739076 
L 564.271585 268.681773 
L 563.31953 269.62447 
L 562.425656 270.567167 
L 561.619672 271.509864 
L 560.927664 272.452561 
L 560.371346 273.395258 
L 559.96748 274.337955 
L 559.727463 275.280652 
L 559.657081 276.223348 
L 559.756407 277.166045 
L 560.019845 278.108742 
L 560.436318 279.051439 
L 560.989581 279.994136 
L 561.658693 280.936833 
L 562.418618 281.87953 
L 563.240989 282.822227 
L 564.094996 283.764924 
L 564.948412 284.707621 
L 565.768714 285.650318 
L 566.524268 286.593015 
L 567.185525 287.535712 
L 567.726168 288.478409 
L 568.124152 289.421106 
L 568.362578 290.363803 
L 568.430329 291.3065 
z
" clip-path="url(#pb76b166df7)" style="fill: #1f77b4; fill-opacity: 0.3"/>
   </g>
   <g id="PolyCollection_8">
    <path d="M 643.172235 291.3065 
L 610.353219 291.3065 
L 610.415099 290.363803 
L 610.637966 289.421106 
L 611.011184 288.478409 
L 611.518647 287.535712 
L 612.139379 286.593015 
L 612.848336 285.650318 
L 613.617387 284.707621 
L 614.416385 283.764924 
L 615.214296 282.822227 
L 615.980322 281.87953 
L 616.684966 280.936833 
L 617.301022 279.994136 
L 617.804438 279.051439 
L 618.175059 278.108742 
L 618.397235 277.166045 
L 618.460289 276.223348 
L 618.358851 275.280652 
L 618.093057 274.337955 
L 617.66861 273.395258 
L 617.096697 272.452561 
L 616.393755 271.509864 
L 615.581078 270.567167 
L 614.68425 269.62447 
L 613.732404 268.681773 
L 612.757319 267.739076 
L 611.792358 266.796379 
L 610.871286 265.853682 
L 610.027009 264.910985 
L 609.290286 263.968288 
L 608.688488 263.025591 
L 608.24446 262.082894 
L 607.975563 261.140197 
L 607.892955 260.1975 
L 608.001159 259.254803 
L 608.297948 258.312106 
L 608.774545 257.369409 
L 609.416148 256.426712 
L 610.202724 255.484015 
L 611.110025 254.541318 
L 612.110764 253.598621 
L 613.175874 252.655924 
L 614.275776 251.713227 
L 615.381575 250.77053 
L 616.466144 249.827833 
L 617.505027 248.885136 
L 618.47715 247.942439 
L 619.36531 246.999742 
L 620.156456 246.057045 
L 620.841769 245.114348 
L 621.416569 244.171652 
L 621.880082 243.228955 
L 622.235093 242.286258 
L 622.48752 241.343561 
L 622.645937 240.400864 
L 622.721071 239.458167 
L 622.725287 238.51547 
L 622.672076 237.572773 
L 622.575557 236.630076 
L 622.449999 235.687379 
L 622.309366 234.744682 
L 622.166896 233.801985 
L 622.034721 232.859288 
L 621.923529 231.916591 
L 621.842288 230.973894 
L 621.798036 230.031197 
L 621.795744 229.0885 
L 621.83826 228.145803 
L 621.92634 227.203106 
L 622.05876 226.260409 
L 622.232505 225.317712 
L 622.443021 224.375015 
L 622.684526 223.432318 
L 622.95035 222.489621 
L 623.233287 221.546924 
L 623.525947 220.604227 
L 623.821085 219.66153 
L 624.11189 218.718833 
L 624.392225 217.776136 
L 624.65681 216.833439 
L 624.901348 215.890742 
L 625.122585 214.948045 
L 625.318329 214.005348 
L 625.487405 213.062652 
L 625.629592 212.119955 
L 625.745513 211.177258 
L 625.836523 210.234561 
L 625.904573 209.291864 
L 625.952083 208.349167 
L 625.981807 207.40647 
L 625.996713 206.463773 
L 625.999863 205.521076 
L 625.994316 204.578379 
L 625.983027 203.635682 
L 625.968771 202.692985 
L 625.954073 201.750288 
L 625.941148 200.807591 
L 625.931862 199.864894 
L 625.927696 198.922197 
L 625.929735 197.9795 
L 627.595719 197.9795 
L 627.595719 197.9795 
L 627.597759 198.922197 
L 627.593593 199.864894 
L 627.584306 200.807591 
L 627.571381 201.750288 
L 627.556683 202.692985 
L 627.542428 203.635682 
L 627.531139 204.578379 
L 627.525591 205.521076 
L 627.528742 206.463773 
L 627.543647 207.40647 
L 627.573371 208.349167 
L 627.620881 209.291864 
L 627.688932 210.234561 
L 627.779941 211.177258 
L 627.895863 212.119955 
L 628.038049 213.062652 
L 628.207126 214.005348 
L 628.402869 214.948045 
L 628.624107 215.890742 
L 628.868644 216.833439 
L 629.13323 217.776136 
L 629.413564 218.718833 
L 629.704369 219.66153 
L 629.999508 220.604227 
L 630.292168 221.546924 
L 630.575104 222.489621 
L 630.840928 223.432318 
L 631.082434 224.375015 
L 631.29295 225.317712 
L 631.466694 226.260409 
L 631.599114 227.203106 
L 631.687194 228.145803 
L 631.72971 229.0885 
L 631.727418 230.031197 
L 631.683166 230.973894 
L 631.601926 231.916591 
L 631.490733 232.859288 
L 631.358558 233.801985 
L 631.216089 234.744682 
L 631.075456 235.687379 
L 630.949898 236.630076 
L 630.853379 237.572773 
L 630.800167 238.51547 
L 630.804383 239.458167 
L 630.879517 240.400864 
L 631.037934 241.343561 
L 631.290361 242.286258 
L 631.645372 243.228955 
L 632.108886 244.171652 
L 632.683686 245.114348 
L 633.368998 246.057045 
L 634.160144 246.999742 
L 635.048305 247.942439 
L 636.020428 248.885136 
L 637.059311 249.827833 
L 638.143879 250.77053 
L 639.249678 251.713227 
L 640.34958 252.655924 
L 641.414691 253.598621 
L 642.41543 254.541318 
L 643.32273 255.484015 
L 644.109306 256.426712 
L 644.75091 257.369409 
L 645.227507 258.312106 
L 645.524295 259.254803 
L 645.6325 260.1975 
L 645.549892 261.140197 
L 645.280994 262.082894 
L 644.836966 263.025591 
L 644.235168 263.968288 
L 643.498446 264.910985 
L 642.654168 265.853682 
L 641.733096 266.796379 
L 640.768135 267.739076 
L 639.793051 268.681773 
L 638.841205 269.62447 
L 637.944376 270.567167 
L 637.1317 271.509864 
L 636.428758 272.452561 
L 635.856845 273.395258 
L 635.432398 274.337955 
L 635.166604 275.280652 
L 635.065166 276.223348 
L 635.12822 277.166045 
L 635.350395 278.108742 
L 635.721016 279.051439 
L 636.224432 279.994136 
L 636.840488 280.936833 
L 637.545133 281.87953 
L 638.311158 282.822227 
L 639.109069 283.764924 
L 639.908067 284.707621 
L 640.677118 285.650318 
L 641.386076 286.593015 
L 642.006807 287.535712 
L 642.514271 288.478409 
L 642.887489 289.421106 
L 643.110355 290.363803 
L 643.172235 291.3065 
z
" clip-path="url(#pb76b166df7)" style="fill: #1f77b4; fill-opacity: 0.3"/>
   </g>
   <g id="PolyCollection_9">
    <path d="M 721.111591 322.4155 
L 683.372045 322.4155 
L 683.372045 322.4155 
L 683.372045 322.4155 
L 683.372045 322.4155 
L 683.372045 322.4155 
L 683.372045 322.4155 
L 683.372045 322.4155 
L 683.372045 322.4155 
L 683.372045 322.4155 
L 683.372045 322.4155 
L 683.372045 322.4155 
L 683.372045 322.4155 
L 683.372045 322.4155 
L 683.372045 322.4155 
L 683.372045 322.4155 
L 683.372045 322.4155 
L 683.372045 322.4155 
L 683.372045 322.4155 
L 683.372045 322.4155 
L 683.372045 322.4155 
L 683.372045 322.4155 
L 683.372045 322.4155 
L 683.372045 322.4155 
L 683.372045 322.4155 
L 683.372045 322.4155 
L 683.372045 322.4155 
L 683.372045 322.4155 
L 683.372045 322.4155 
L 683.372045 322.4155 
L 683.372045 322.4155 
L 683.372045 322.4155 
L 683.372045 322.4155 
L 683.372045 322.4155 
L 683.372045 322.4155 
L 683.372045 322.4155 
L 683.372045 322.4155 
L 683.372045 322.4155 
L 683.372045 322.4155 
L 683.372045 322.4155 
L 683.372045 322.4155 
L 683.372045 322.4155 
L 683.372045 322.4155 
L 683.372045 322.4155 
L 683.372045 322.4155 
L 683.372045 322.4155 
L 683.372045 322.4155 
L 683.372045 322.4155 
L 683.372045 322.4155 
L 683.372045 322.4155 
L 683.372045 322.4155 
L 683.372045 322.4155 
L 683.372045 322.4155 
L 683.372045 322.4155 
L 683.372045 322.4155 
L 683.372045 322.4155 
L 683.372045 322.4155 
L 683.372045 322.4155 
L 683.372045 322.4155 
L 683.372045 322.4155 
L 683.372045 322.4155 
L 683.372045 322.4155 
L 683.372045 322.4155 
L 683.372045 322.4155 
L 683.372045 322.4155 
L 683.372045 322.4155 
L 683.372045 322.4155 
L 683.372045 322.4155 
L 683.372045 322.4155 
L 683.372045 322.4155 
L 683.372045 322.4155 
L 683.372045 322.4155 
L 683.372045 322.4155 
L 683.372045 322.4155 
L 683.372045 322.4155 
L 683.372045 322.4155 
L 683.372045 322.4155 
L 683.372045 322.4155 
L 683.372045 322.4155 
L 683.372045 322.4155 
L 683.372045 322.4155 
L 683.372045 322.4155 
L 683.372045 322.4155 
L 683.372045 322.4155 
L 683.372045 322.4155 
L 683.372045 322.4155 
L 683.372045 322.4155 
L 683.372045 322.4155 
L 683.372045 322.4155 
L 683.372045 322.4155 
L 683.372045 322.4155 
L 683.372045 322.4155 
L 683.372045 322.4155 
L 683.372045 322.4155 
L 683.372045 322.4155 
L 683.372045 322.4155 
L 683.372045 322.4155 
L 683.372045 322.4155 
L 683.372045 322.4155 
L 683.372045 322.4155 
L 683.372045 322.4155 
L 721.111591 322.4155 
L 721.111591 322.4155 
L 721.111591 322.4155 
L 721.111591 322.4155 
L 721.111591 322.4155 
L 721.111591 322.4155 
L 721.111591 322.4155 
L 721.111591 322.4155 
L 721.111591 322.4155 
L 721.111591 322.4155 
L 721.111591 322.4155 
L 721.111591 322.4155 
L 721.111591 322.4155 
L 721.111591 322.4155 
L 721.111591 322.4155 
L 721.111591 322.4155 
L 721.111591 322.4155 
L 721.111591 322.4155 
L 721.111591 322.4155 
L 721.111591 322.4155 
L 721.111591 322.4155 
L 721.111591 322.4155 
L 721.111591 322.4155 
L 721.111591 322.4155 
L 721.111591 322.4155 
L 721.111591 322.4155 
L 721.111591 322.4155 
L 721.111591 322.4155 
L 721.111591 322.4155 
L 721.111591 322.4155 
L 721.111591 322.4155 
L 721.111591 322.4155 
L 721.111591 322.4155 
L 721.111591 322.4155 
L 721.111591 322.4155 
L 721.111591 322.4155 
L 721.111591 322.4155 
L 721.111591 322.4155 
L 721.111591 322.4155 
L 721.111591 322.4155 
L 721.111591 322.4155 
L 721.111591 322.4155 
L 721.111591 322.4155 
L 721.111591 322.4155 
L 721.111591 322.4155 
L 721.111591 322.4155 
L 721.111591 322.4155 
L 721.111591 322.4155 
L 721.111591 322.4155 
L 721.111591 322.4155 
L 721.111591 322.4155 
L 721.111591 322.4155 
L 721.111591 322.4155 
L 721.111591 322.4155 
L 721.111591 322.4155 
L 721.111591 322.4155 
L 721.111591 322.4155 
L 721.111591 322.4155 
L 721.111591 322.4155 
L 721.111591 322.4155 
L 721.111591 322.4155 
L 721.111591 322.4155 
L 721.111591 322.4155 
L 721.111591 322.4155 
L 721.111591 322.4155 
L 721.111591 322.4155 
L 721.111591 322.4155 
L 721.111591 322.4155 
L 721.111591 322.4155 
L 721.111591 322.4155 
L 721.111591 322.4155 
L 721.111591 322.4155 
L 721.111591 322.4155 
L 721.111591 322.4155 
L 721.111591 322.4155 
L 721.111591 322.4155 
L 721.111591 322.4155 
L 721.111591 322.4155 
L 721.111591 322.4155 
L 721.111591 322.4155 
L 721.111591 322.4155 
L 721.111591 322.4155 
L 721.111591 322.4155 
L 721.111591 322.4155 
L 721.111591 322.4155 
L 721.111591 322.4155 
L 721.111591 322.4155 
L 721.111591 322.4155 
L 721.111591 322.4155 
L 721.111591 322.4155 
L 721.111591 322.4155 
L 721.111591 322.4155 
L 721.111591 322.4155 
L 721.111591 322.4155 
L 721.111591 322.4155 
L 721.111591 322.4155 
L 721.111591 322.4155 
L 721.111591 322.4155 
L 721.111591 322.4155 
L 721.111591 322.4155 
L 721.111591 322.4155 
z
" clip-path="url(#pb76b166df7)" style="fill: #1f77b4; fill-opacity: 0.3"/>
   </g>
   <g id="PolyCollection_10">
    <path d="M 796.590682 322.4155 
L 758.851136 322.4155 
L 758.851136 322.4155 
L 758.851136 322.4155 
L 758.851136 322.4155 
L 758.851136 322.4155 
L 758.851136 322.4155 
L 758.851136 322.4155 
L 758.851136 322.4155 
L 758.851136 322.4155 
L 758.851136 322.4155 
L 758.851136 322.4155 
L 758.851136 322.4155 
L 758.851136 322.4155 
L 758.851136 322.4155 
L 758.851136 322.4155 
L 758.851136 322.4155 
L 758.851136 322.4155 
L 758.851136 322.4155 
L 758.851136 322.4155 
L 758.851136 322.4155 
L 758.851136 322.4155 
L 758.851136 322.4155 
L 758.851136 322.4155 
L 758.851136 322.4155 
L 758.851136 322.4155 
L 758.851136 322.4155 
L 758.851136 322.4155 
L 758.851136 322.4155 
L 758.851136 322.4155 
L 758.851136 322.4155 
L 758.851136 322.4155 
L 758.851136 322.4155 
L 758.851136 322.4155 
L 758.851136 322.4155 
L 758.851136 322.4155 
L 758.851136 322.4155 
L 758.851136 322.4155 
L 758.851136 322.4155 
L 758.851136 322.4155 
L 758.851136 322.4155 
L 758.851136 322.4155 
L 758.851136 322.4155 
L 758.851136 322.4155 
L 758.851136 322.4155 
L 758.851136 322.4155 
L 758.851136 322.4155 
L 758.851136 322.4155 
L 758.851136 322.4155 
L 758.851136 322.4155 
L 758.851136 322.4155 
L 758.851136 322.4155 
L 758.851136 322.4155 
L 758.851136 322.4155 
L 758.851136 322.4155 
L 758.851136 322.4155 
L 758.851136 322.4155 
L 758.851136 322.4155 
L 758.851136 322.4155 
L 758.851136 322.4155 
L 758.851136 322.4155 
L 758.851136 322.4155 
L 758.851136 322.4155 
L 758.851136 322.4155 
L 758.851136 322.4155 
L 758.851136 322.4155 
L 758.851136 322.4155 
L 758.851136 322.4155 
L 758.851136 322.4155 
L 758.851136 322.4155 
L 758.851136 322.4155 
L 758.851136 322.4155 
L 758.851136 322.4155 
L 758.851136 322.4155 
L 758.851136 322.4155 
L 758.851136 322.4155 
L 758.851136 322.4155 
L 758.851136 322.4155 
L 758.851136 322.4155 
L 758.851136 322.4155 
L 758.851136 322.4155 
L 758.851136 322.4155 
L 758.851136 322.4155 
L 758.851136 322.4155 
L 758.851136 322.4155 
L 758.851136 322.4155 
L 758.851136 322.4155 
L 758.851136 322.4155 
L 758.851136 322.4155 
L 758.851136 322.4155 
L 758.851136 322.4155 
L 758.851136 322.4155 
L 758.851136 322.4155 
L 758.851136 322.4155 
L 758.851136 322.4155 
L 758.851136 322.4155 
L 758.851136 322.4155 
L 758.851136 322.4155 
L 758.851136 322.4155 
L 758.851136 322.4155 
L 758.851136 322.4155 
L 796.590682 322.4155 
L 796.590682 322.4155 
L 796.590682 322.4155 
L 796.590682 322.4155 
L 796.590682 322.4155 
L 796.590682 322.4155 
L 796.590682 322.4155 
L 796.590682 322.4155 
L 796.590682 322.4155 
L 796.590682 322.4155 
L 796.590682 322.4155 
L 796.590682 322.4155 
L 796.590682 322.4155 
L 796.590682 322.4155 
L 796.590682 322.4155 
L 796.590682 322.4155 
L 796.590682 322.4155 
L 796.590682 322.4155 
L 796.590682 322.4155 
L 796.590682 322.4155 
L 796.590682 322.4155 
L 796.590682 322.4155 
L 796.590682 322.4155 
L 796.590682 322.4155 
L 796.590682 322.4155 
L 796.590682 322.4155 
L 796.590682 322.4155 
L 796.590682 322.4155 
L 796.590682 322.4155 
L 796.590682 322.4155 
L 796.590682 322.4155 
L 796.590682 322.4155 
L 796.590682 322.4155 
L 796.590682 322.4155 
L 796.590682 322.4155 
L 796.590682 322.4155 
L 796.590682 322.4155 
L 796.590682 322.4155 
L 796.590682 322.4155 
L 796.590682 322.4155 
L 796.590682 322.4155 
L 796.590682 322.4155 
L 796.590682 322.4155 
L 796.590682 322.4155 
L 796.590682 322.4155 
L 796.590682 322.4155 
L 796.590682 322.4155 
L 796.590682 322.4155 
L 796.590682 322.4155 
L 796.590682 322.4155 
L 796.590682 322.4155 
L 796.590682 322.4155 
L 796.590682 322.4155 
L 796.590682 322.4155 
L 796.590682 322.4155 
L 796.590682 322.4155 
L 796.590682 322.4155 
L 796.590682 322.4155 
L 796.590682 322.4155 
L 796.590682 322.4155 
L 796.590682 322.4155 
L 796.590682 322.4155 
L 796.590682 322.4155 
L 796.590682 322.4155 
L 796.590682 322.4155 
L 796.590682 322.4155 
L 796.590682 322.4155 
L 796.590682 322.4155 
L 796.590682 322.4155 
L 796.590682 322.4155 
L 796.590682 322.4155 
L 796.590682 322.4155 
L 796.590682 322.4155 
L 796.590682 322.4155 
L 796.590682 322.4155 
L 796.590682 322.4155 
L 796.590682 322.4155 
L 796.590682 322.4155 
L 796.590682 322.4155 
L 796.590682 322.4155 
L 796.590682 322.4155 
L 796.590682 322.4155 
L 796.590682 322.4155 
L 796.590682 322.4155 
L 796.590682 322.4155 
L 796.590682 322.4155 
L 796.590682 322.4155 
L 796.590682 322.4155 
L 796.590682 322.4155 
L 796.590682 322.4155 
L 796.590682 322.4155 
L 796.590682 322.4155 
L 796.590682 322.4155 
L 796.590682 322.4155 
L 796.590682 322.4155 
L 796.590682 322.4155 
L 796.590682 322.4155 
L 796.590682 322.4155 
L 796.590682 322.4155 
L 796.590682 322.4155 
L 796.590682 322.4155 
z
" clip-path="url(#pb76b166df7)" style="fill: #1f77b4; fill-opacity: 0.3"/>
   </g>
   <g id="matplotlib.axis_1">
    <g id="xtick_1">
     <g id="line2d_1">
      <defs>
       <path id="mfd5648973d" d="M 0 0 
L 0 3.5 
" style="stroke: #000000; stroke-width: 0.8"/>
      </defs>
      <g>
       <use xlink:href="#mfd5648973d" x="98.409091" y="337.97" style="stroke: #000000; stroke-width: 0.8"/>
      </g>
     </g>
     <g id="text_1">
      <!-- Defector -->
      <g transform="translate(100.616591 379.51)rotate(-90)scale(0.08 -0.08)">
       <defs>
        <path id="DejaVuSans-44" d="M 1259 4147 
L 1259 519 
L 2022 519 
Q 2988 519 3436 956 
Q 3884 1394 3884 2338 
Q 3884 3275 3436 3711 
Q 2988 4147 2022 4147 
L 1259 4147 
z
M 628 4666 
L 1925 4666 
Q 3281 4666 3915 4102 
Q 4550 3538 4550 2338 
Q 4550 1131 3912 565 
Q 3275 0 1925 0 
L 628 0 
L 628 4666 
z
" transform="scale(0.015625)"/>
        <path id="DejaVuSans-65" d="M 3597 1894 
L 3597 1613 
L 953 1613 
Q 991 1019 1311 708 
Q 1631 397 2203 397 
Q 2534 397 2845 478 
Q 3156 559 3463 722 
L 3463 178 
Q 3153 47 2828 -22 
Q 2503 -91 2169 -91 
Q 1331 -91 842 396 
Q 353 884 353 1716 
Q 353 2575 817 3079 
Q 1281 3584 2069 3584 
Q 2775 3584 3186 3129 
Q 3597 2675 3597 1894 
z
M 3022 2063 
Q 3016 2534 2758 2815 
Q 2500 3097 2075 3097 
Q 1594 3097 1305 2825 
Q 1016 2553 972 2059 
L 3022 2063 
z
" transform="scale(0.015625)"/>
        <path id="DejaVuSans-66" d="M 2375 4863 
L 2375 4384 
L 1825 4384 
Q 1516 4384 1395 4259 
Q 1275 4134 1275 3809 
L 1275 3500 
L 2222 3500 
L 2222 3053 
L 1275 3053 
L 1275 0 
L 697 0 
L 697 3053 
L 147 3053 
L 147 3500 
L 697 3500 
L 697 3744 
Q 697 4328 969 4595 
Q 1241 4863 1831 4863 
L 2375 4863 
z
" transform="scale(0.015625)"/>
        <path id="DejaVuSans-63" d="M 3122 3366 
L 3122 2828 
Q 2878 2963 2633 3030 
Q 2388 3097 2138 3097 
Q 1578 3097 1268 2742 
Q 959 2388 959 1747 
Q 959 1106 1268 751 
Q 1578 397 2138 397 
Q 2388 397 2633 464 
Q 2878 531 3122 666 
L 3122 134 
Q 2881 22 2623 -34 
Q 2366 -91 2075 -91 
Q 1284 -91 818 406 
Q 353 903 353 1747 
Q 353 2603 823 3093 
Q 1294 3584 2113 3584 
Q 2378 3584 2631 3529 
Q 2884 3475 3122 3366 
z
" transform="scale(0.015625)"/>
        <path id="DejaVuSans-74" d="M 1172 4494 
L 1172 3500 
L 2356 3500 
L 2356 3053 
L 1172 3053 
L 1172 1153 
Q 1172 725 1289 603 
Q 1406 481 1766 481 
L 2356 481 
L 2356 0 
L 1766 0 
Q 1100 0 847 248 
Q 594 497 594 1153 
L 594 3053 
L 172 3053 
L 172 3500 
L 594 3500 
L 594 4494 
L 1172 4494 
z
" transform="scale(0.015625)"/>
        <path id="DejaVuSans-6f" d="M 1959 3097 
Q 1497 3097 1228 2736 
Q 959 2375 959 1747 
Q 959 1119 1226 758 
Q 1494 397 1959 397 
Q 2419 397 2687 759 
Q 2956 1122 2956 1747 
Q 2956 2369 2687 2733 
Q 2419 3097 1959 3097 
z
M 1959 3584 
Q 2709 3584 3137 3096 
Q 3566 2609 3566 1747 
Q 3566 888 3137 398 
Q 2709 -91 1959 -91 
Q 1206 -91 779 398 
Q 353 888 353 1747 
Q 353 2609 779 3096 
Q 1206 3584 1959 3584 
z
" transform="scale(0.015625)"/>
        <path id="DejaVuSans-72" d="M 2631 2963 
Q 2534 3019 2420 3045 
Q 2306 3072 2169 3072 
Q 1681 3072 1420 2755 
Q 1159 2438 1159 1844 
L 1159 0 
L 581 0 
L 581 3500 
L 1159 3500 
L 1159 2956 
Q 1341 3275 1631 3429 
Q 1922 3584 2338 3584 
Q 2397 3584 2469 3576 
Q 2541 3569 2628 3553 
L 2631 2963 
z
" transform="scale(0.015625)"/>
       </defs>
       <use xlink:href="#DejaVuSans-44"/>
       <use xlink:href="#DejaVuSans-65" x="77.001953"/>
       <use xlink:href="#DejaVuSans-66" x="138.525391"/>
       <use xlink:href="#DejaVuSans-65" x="173.730469"/>
       <use xlink:href="#DejaVuSans-63" x="235.253906"/>
       <use xlink:href="#DejaVuSans-74" x="290.234375"/>
       <use xlink:href="#DejaVuSans-6f" x="329.443359"/>
       <use xlink:href="#DejaVuSans-72" x="390.625"/>
      </g>
     </g>
    </g>
    <g id="xtick_2">
     <g id="line2d_2">
      <g>
       <use xlink:href="#mfd5648973d" x="173.888182" y="337.97" style="stroke: #000000; stroke-width: 0.8"/>
      </g>
     </g>
     <g id="text_2">
      <!-- Grudger -->
      <g transform="translate(176.095682 377.89625)rotate(-90)scale(0.08 -0.08)">
       <defs>
        <path id="DejaVuSans-47" d="M 3809 666 
L 3809 1919 
L 2778 1919 
L 2778 2438 
L 4434 2438 
L 4434 434 
Q 4069 175 3628 42 
Q 3188 -91 2688 -91 
Q 1594 -91 976 548 
Q 359 1188 359 2328 
Q 359 3472 976 4111 
Q 1594 4750 2688 4750 
Q 3144 4750 3555 4637 
Q 3966 4525 4313 4306 
L 4313 3634 
Q 3963 3931 3569 4081 
Q 3175 4231 2741 4231 
Q 1884 4231 1454 3753 
Q 1025 3275 1025 2328 
Q 1025 1384 1454 906 
Q 1884 428 2741 428 
Q 3075 428 3337 486 
Q 3600 544 3809 666 
z
" transform="scale(0.015625)"/>
        <path id="DejaVuSans-75" d="M 544 1381 
L 544 3500 
L 1119 3500 
L 1119 1403 
Q 1119 906 1312 657 
Q 1506 409 1894 409 
Q 2359 409 2629 706 
Q 2900 1003 2900 1516 
L 2900 3500 
L 3475 3500 
L 3475 0 
L 2900 0 
L 2900 538 
Q 2691 219 2414 64 
Q 2138 -91 1772 -91 
Q 1169 -91 856 284 
Q 544 659 544 1381 
z
M 1991 3584 
L 1991 3584 
z
" transform="scale(0.015625)"/>
        <path id="DejaVuSans-64" d="M 2906 2969 
L 2906 4863 
L 3481 4863 
L 3481 0 
L 2906 0 
L 2906 525 
Q 2725 213 2448 61 
Q 2172 -91 1784 -91 
Q 1150 -91 751 415 
Q 353 922 353 1747 
Q 353 2572 751 3078 
Q 1150 3584 1784 3584 
Q 2172 3584 2448 3432 
Q 2725 3281 2906 2969 
z
M 947 1747 
Q 947 1113 1208 752 
Q 1469 391 1925 391 
Q 2381 391 2643 752 
Q 2906 1113 2906 1747 
Q 2906 2381 2643 2742 
Q 2381 3103 1925 3103 
Q 1469 3103 1208 2742 
Q 947 2381 947 1747 
z
" transform="scale(0.015625)"/>
        <path id="DejaVuSans-67" d="M 2906 1791 
Q 2906 2416 2648 2759 
Q 2391 3103 1925 3103 
Q 1463 3103 1205 2759 
Q 947 2416 947 1791 
Q 947 1169 1205 825 
Q 1463 481 1925 481 
Q 2391 481 2648 825 
Q 2906 1169 2906 1791 
z
M 3481 434 
Q 3481 -459 3084 -895 
Q 2688 -1331 1869 -1331 
Q 1566 -1331 1297 -1286 
Q 1028 -1241 775 -1147 
L 775 -588 
Q 1028 -725 1275 -790 
Q 1522 -856 1778 -856 
Q 2344 -856 2625 -561 
Q 2906 -266 2906 331 
L 2906 616 
Q 2728 306 2450 153 
Q 2172 0 1784 0 
Q 1141 0 747 490 
Q 353 981 353 1791 
Q 353 2603 747 3093 
Q 1141 3584 1784 3584 
Q 2172 3584 2450 3431 
Q 2728 3278 2906 2969 
L 2906 3500 
L 3481 3500 
L 3481 434 
z
" transform="scale(0.015625)"/>
       </defs>
       <use xlink:href="#DejaVuSans-47"/>
       <use xlink:href="#DejaVuSans-72" x="77.490234"/>
       <use xlink:href="#DejaVuSans-75" x="118.603516"/>
       <use xlink:href="#DejaVuSans-64" x="181.982422"/>
       <use xlink:href="#DejaVuSans-67" x="245.458984"/>
       <use xlink:href="#DejaVuSans-65" x="308.935547"/>
       <use xlink:href="#DejaVuSans-72" x="370.458984"/>
      </g>
     </g>
    </g>
    <g id="xtick_3">
     <g id="line2d_3">
      <g>
       <use xlink:href="#mfd5648973d" x="249.367273" y="337.97" style="stroke: #000000; stroke-width: 0.8"/>
      </g>
     </g>
     <g id="text_3">
      <!-- Adaptive -->
      <g transform="translate(251.574773 380.37875)rotate(-90)scale(0.08 -0.08)">
       <defs>
        <path id="DejaVuSans-41" d="M 2188 4044 
L 1331 1722 
L 3047 1722 
L 2188 4044 
z
M 1831 4666 
L 2547 4666 
L 4325 0 
L 3669 0 
L 3244 1197 
L 1141 1197 
L 716 0 
L 50 0 
L 1831 4666 
z
" transform="scale(0.015625)"/>
        <path id="DejaVuSans-61" d="M 2194 1759 
Q 1497 1759 1228 1600 
Q 959 1441 959 1056 
Q 959 750 1161 570 
Q 1363 391 1709 391 
Q 2188 391 2477 730 
Q 2766 1069 2766 1631 
L 2766 1759 
L 2194 1759 
z
M 3341 1997 
L 3341 0 
L 2766 0 
L 2766 531 
Q 2569 213 2275 61 
Q 1981 -91 1556 -91 
Q 1019 -91 701 211 
Q 384 513 384 1019 
Q 384 1609 779 1909 
Q 1175 2209 1959 2209 
L 2766 2209 
L 2766 2266 
Q 2766 2663 2505 2880 
Q 2244 3097 1772 3097 
Q 1472 3097 1187 3025 
Q 903 2953 641 2809 
L 641 3341 
Q 956 3463 1253 3523 
Q 1550 3584 1831 3584 
Q 2591 3584 2966 3190 
Q 3341 2797 3341 1997 
z
" transform="scale(0.015625)"/>
        <path id="DejaVuSans-70" d="M 1159 525 
L 1159 -1331 
L 581 -1331 
L 581 3500 
L 1159 3500 
L 1159 2969 
Q 1341 3281 1617 3432 
Q 1894 3584 2278 3584 
Q 2916 3584 3314 3078 
Q 3713 2572 3713 1747 
Q 3713 922 3314 415 
Q 2916 -91 2278 -91 
Q 1894 -91 1617 61 
Q 1341 213 1159 525 
z
M 3116 1747 
Q 3116 2381 2855 2742 
Q 2594 3103 2138 3103 
Q 1681 3103 1420 2742 
Q 1159 2381 1159 1747 
Q 1159 1113 1420 752 
Q 1681 391 2138 391 
Q 2594 391 2855 752 
Q 3116 1113 3116 1747 
z
" transform="scale(0.015625)"/>
        <path id="DejaVuSans-69" d="M 603 3500 
L 1178 3500 
L 1178 0 
L 603 0 
L 603 3500 
z
M 603 4863 
L 1178 4863 
L 1178 4134 
L 603 4134 
L 603 4863 
z
" transform="scale(0.015625)"/>
        <path id="DejaVuSans-76" d="M 191 3500 
L 800 3500 
L 1894 563 
L 2988 3500 
L 3597 3500 
L 2284 0 
L 1503 0 
L 191 3500 
z
" transform="scale(0.015625)"/>
       </defs>
       <use xlink:href="#DejaVuSans-41"/>
       <use xlink:href="#DejaVuSans-64" x="66.658203"/>
       <use xlink:href="#DejaVuSans-61" x="130.134766"/>
       <use xlink:href="#DejaVuSans-70" x="191.414062"/>
       <use xlink:href="#DejaVuSans-74" x="254.890625"/>
       <use xlink:href="#DejaVuSans-69" x="294.099609"/>
       <use xlink:href="#DejaVuSans-76" x="321.882812"/>
       <use xlink:href="#DejaVuSans-65" x="381.0625"/>
      </g>
     </g>
    </g>
    <g id="xtick_4">
     <g id="line2d_4">
      <g>
       <use xlink:href="#mfd5648973d" x="324.846364" y="337.97" style="stroke: #000000; stroke-width: 0.8"/>
      </g>
     </g>
     <g id="text_4">
      <!-- Alternator -->
      <g transform="translate(327.053864 385.165)rotate(-90)scale(0.08 -0.08)">
       <defs>
        <path id="DejaVuSans-6c" d="M 603 4863 
L 1178 4863 
L 1178 0 
L 603 0 
L 603 4863 
z
" transform="scale(0.015625)"/>
        <path id="DejaVuSans-6e" d="M 3513 2113 
L 3513 0 
L 2938 0 
L 2938 2094 
Q 2938 2591 2744 2837 
Q 2550 3084 2163 3084 
Q 1697 3084 1428 2787 
Q 1159 2491 1159 1978 
L 1159 0 
L 581 0 
L 581 3500 
L 1159 3500 
L 1159 2956 
Q 1366 3272 1645 3428 
Q 1925 3584 2291 3584 
Q 2894 3584 3203 3211 
Q 3513 2838 3513 2113 
z
" transform="scale(0.015625)"/>
       </defs>
       <use xlink:href="#DejaVuSans-41"/>
       <use xlink:href="#DejaVuSans-6c" x="68.408203"/>
       <use xlink:href="#DejaVuSans-74" x="96.191406"/>
       <use xlink:href="#DejaVuSans-65" x="135.400391"/>
       <use xlink:href="#DejaVuSans-72" x="196.923828"/>
       <use xlink:href="#DejaVuSans-6e" x="236.287109"/>
       <use xlink:href="#DejaVuSans-61" x="299.666016"/>
       <use xlink:href="#DejaVuSans-74" x="360.945312"/>
       <use xlink:href="#DejaVuSans-6f" x="400.154297"/>
       <use xlink:href="#DejaVuSans-72" x="461.335938"/>
      </g>
     </g>
    </g>
    <g id="xtick_5">
     <g id="line2d_5">
      <g>
       <use xlink:href="#mfd5648973d" x="400.325455" y="337.97" style="stroke: #000000; stroke-width: 0.8"/>
      </g>
     </g>
     <g id="text_5">
      <!-- Random: 0.5 -->
      <g transform="translate(402.532955 396.0475)rotate(-90)scale(0.08 -0.08)">
       <defs>
        <path id="DejaVuSans-52" d="M 2841 2188 
Q 3044 2119 3236 1894 
Q 3428 1669 3622 1275 
L 4263 0 
L 3584 0 
L 2988 1197 
Q 2756 1666 2539 1819 
Q 2322 1972 1947 1972 
L 1259 1972 
L 1259 0 
L 628 0 
L 628 4666 
L 2053 4666 
Q 2853 4666 3247 4331 
Q 3641 3997 3641 3322 
Q 3641 2881 3436 2590 
Q 3231 2300 2841 2188 
z
M 1259 4147 
L 1259 2491 
L 2053 2491 
Q 2509 2491 2742 2702 
Q 2975 2913 2975 3322 
Q 2975 3731 2742 3939 
Q 2509 4147 2053 4147 
L 1259 4147 
z
" transform="scale(0.015625)"/>
        <path id="DejaVuSans-6d" d="M 3328 2828 
Q 3544 3216 3844 3400 
Q 4144 3584 4550 3584 
Q 5097 3584 5394 3201 
Q 5691 2819 5691 2113 
L 5691 0 
L 5113 0 
L 5113 2094 
Q 5113 2597 4934 2840 
Q 4756 3084 4391 3084 
Q 3944 3084 3684 2787 
Q 3425 2491 3425 1978 
L 3425 0 
L 2847 0 
L 2847 2094 
Q 2847 2600 2669 2842 
Q 2491 3084 2119 3084 
Q 1678 3084 1418 2786 
Q 1159 2488 1159 1978 
L 1159 0 
L 581 0 
L 581 3500 
L 1159 3500 
L 1159 2956 
Q 1356 3278 1631 3431 
Q 1906 3584 2284 3584 
Q 2666 3584 2933 3390 
Q 3200 3197 3328 2828 
z
" transform="scale(0.015625)"/>
        <path id="DejaVuSans-3a" d="M 750 794 
L 1409 794 
L 1409 0 
L 750 0 
L 750 794 
z
M 750 3309 
L 1409 3309 
L 1409 2516 
L 750 2516 
L 750 3309 
z
" transform="scale(0.015625)"/>
        <path id="DejaVuSans-20" transform="scale(0.015625)"/>
        <path id="DejaVuSans-30" d="M 2034 4250 
Q 1547 4250 1301 3770 
Q 1056 3291 1056 2328 
Q 1056 1369 1301 889 
Q 1547 409 2034 409 
Q 2525 409 2770 889 
Q 3016 1369 3016 2328 
Q 3016 3291 2770 3770 
Q 2525 4250 2034 4250 
z
M 2034 4750 
Q 2819 4750 3233 4129 
Q 3647 3509 3647 2328 
Q 3647 1150 3233 529 
Q 2819 -91 2034 -91 
Q 1250 -91 836 529 
Q 422 1150 422 2328 
Q 422 3509 836 4129 
Q 1250 4750 2034 4750 
z
" transform="scale(0.015625)"/>
        <path id="DejaVuSans-2e" d="M 684 794 
L 1344 794 
L 1344 0 
L 684 0 
L 684 794 
z
" transform="scale(0.015625)"/>
        <path id="DejaVuSans-35" d="M 691 4666 
L 3169 4666 
L 3169 4134 
L 1269 4134 
L 1269 2991 
Q 1406 3038 1543 3061 
Q 1681 3084 1819 3084 
Q 2600 3084 3056 2656 
Q 3513 2228 3513 1497 
Q 3513 744 3044 326 
Q 2575 -91 1722 -91 
Q 1428 -91 1123 -41 
Q 819 9 494 109 
L 494 744 
Q 775 591 1075 516 
Q 1375 441 1709 441 
Q 2250 441 2565 725 
Q 2881 1009 2881 1497 
Q 2881 1984 2565 2268 
Q 2250 2553 1709 2553 
Q 1456 2553 1204 2497 
Q 953 2441 691 2322 
L 691 4666 
z
" transform="scale(0.015625)"/>
       </defs>
       <use xlink:href="#DejaVuSans-52"/>
       <use xlink:href="#DejaVuSans-61" x="67.232422"/>
       <use xlink:href="#DejaVuSans-6e" x="128.511719"/>
       <use xlink:href="#DejaVuSans-64" x="191.890625"/>
       <use xlink:href="#DejaVuSans-6f" x="255.367188"/>
       <use xlink:href="#DejaVuSans-6d" x="316.548828"/>
       <use xlink:href="#DejaVuSans-3a" x="413.960938"/>
       <use xlink:href="#DejaVuSans-20" x="447.652344"/>
       <use xlink:href="#DejaVuSans-30" x="479.439453"/>
       <use xlink:href="#DejaVuSans-2e" x="543.0625"/>
       <use xlink:href="#DejaVuSans-35" x="574.849609"/>
      </g>
     </g>
    </g>
    <g id="xtick_6">
     <g id="line2d_6">
      <g>
       <use xlink:href="#mfd5648973d" x="475.804545" y="337.97" style="stroke: #000000; stroke-width: 0.8"/>
      </g>
     </g>
     <g id="text_6">
      <!-- Deep QLearner -->
      <g transform="translate(478.012045 405.46625)rotate(-90)scale(0.08 -0.08)">
       <defs>
        <path id="DejaVuSans-51" d="M 2522 4238 
Q 1834 4238 1429 3725 
Q 1025 3213 1025 2328 
Q 1025 1447 1429 934 
Q 1834 422 2522 422 
Q 3209 422 3611 934 
Q 4013 1447 4013 2328 
Q 4013 3213 3611 3725 
Q 3209 4238 2522 4238 
z
M 3406 84 
L 4238 -825 
L 3475 -825 
L 2784 -78 
Q 2681 -84 2626 -87 
Q 2572 -91 2522 -91 
Q 1538 -91 948 567 
Q 359 1225 359 2328 
Q 359 3434 948 4092 
Q 1538 4750 2522 4750 
Q 3503 4750 4090 4092 
Q 4678 3434 4678 2328 
Q 4678 1516 4351 937 
Q 4025 359 3406 84 
z
" transform="scale(0.015625)"/>
        <path id="DejaVuSans-4c" d="M 628 4666 
L 1259 4666 
L 1259 531 
L 3531 531 
L 3531 0 
L 628 0 
L 628 4666 
z
" transform="scale(0.015625)"/>
       </defs>
       <use xlink:href="#DejaVuSans-44"/>
       <use xlink:href="#DejaVuSans-65" x="77.001953"/>
       <use xlink:href="#DejaVuSans-65" x="138.525391"/>
       <use xlink:href="#DejaVuSans-70" x="200.048828"/>
       <use xlink:href="#DejaVuSans-20" x="263.525391"/>
       <use xlink:href="#DejaVuSans-51" x="295.3125"/>
       <use xlink:href="#DejaVuSans-4c" x="374.023438"/>
       <use xlink:href="#DejaVuSans-65" x="427.986328"/>
       <use xlink:href="#DejaVuSans-61" x="489.509766"/>
       <use xlink:href="#DejaVuSans-72" x="550.789062"/>
       <use xlink:href="#DejaVuSans-6e" x="590.152344"/>
       <use xlink:href="#DejaVuSans-65" x="653.53125"/>
       <use xlink:href="#DejaVuSans-72" x="715.054688"/>
      </g>
     </g>
    </g>
    <g id="xtick_7">
     <g id="line2d_7">
      <g>
       <use xlink:href="#mfd5648973d" x="551.283636" y="337.97" style="stroke: #000000; stroke-width: 0.8"/>
      </g>
     </g>
     <g id="text_7">
      <!-- Risky QLearner -->
      <g transform="translate(553.491136 405.40875)rotate(-90)scale(0.08 -0.08)">
       <defs>
        <path id="DejaVuSans-73" d="M 2834 3397 
L 2834 2853 
Q 2591 2978 2328 3040 
Q 2066 3103 1784 3103 
Q 1356 3103 1142 2972 
Q 928 2841 928 2578 
Q 928 2378 1081 2264 
Q 1234 2150 1697 2047 
L 1894 2003 
Q 2506 1872 2764 1633 
Q 3022 1394 3022 966 
Q 3022 478 2636 193 
Q 2250 -91 1575 -91 
Q 1294 -91 989 -36 
Q 684 19 347 128 
L 347 722 
Q 666 556 975 473 
Q 1284 391 1588 391 
Q 1994 391 2212 530 
Q 2431 669 2431 922 
Q 2431 1156 2273 1281 
Q 2116 1406 1581 1522 
L 1381 1569 
Q 847 1681 609 1914 
Q 372 2147 372 2553 
Q 372 3047 722 3315 
Q 1072 3584 1716 3584 
Q 2034 3584 2315 3537 
Q 2597 3491 2834 3397 
z
" transform="scale(0.015625)"/>
        <path id="DejaVuSans-6b" d="M 581 4863 
L 1159 4863 
L 1159 1991 
L 2875 3500 
L 3609 3500 
L 1753 1863 
L 3688 0 
L 2938 0 
L 1159 1709 
L 1159 0 
L 581 0 
L 581 4863 
z
" transform="scale(0.015625)"/>
        <path id="DejaVuSans-79" d="M 2059 -325 
Q 1816 -950 1584 -1140 
Q 1353 -1331 966 -1331 
L 506 -1331 
L 506 -850 
L 844 -850 
Q 1081 -850 1212 -737 
Q 1344 -625 1503 -206 
L 1606 56 
L 191 3500 
L 800 3500 
L 1894 763 
L 2988 3500 
L 3597 3500 
L 2059 -325 
z
" transform="scale(0.015625)"/>
       </defs>
       <use xlink:href="#DejaVuSans-52"/>
       <use xlink:href="#DejaVuSans-69" x="69.482422"/>
       <use xlink:href="#DejaVuSans-73" x="97.265625"/>
       <use xlink:href="#DejaVuSans-6b" x="149.365234"/>
       <use xlink:href="#DejaVuSans-79" x="203.650391"/>
       <use xlink:href="#DejaVuSans-20" x="262.830078"/>
       <use xlink:href="#DejaVuSans-51" x="294.617188"/>
       <use xlink:href="#DejaVuSans-4c" x="373.328125"/>
       <use xlink:href="#DejaVuSans-65" x="427.291016"/>
       <use xlink:href="#DejaVuSans-61" x="488.814453"/>
       <use xlink:href="#DejaVuSans-72" x="550.09375"/>
       <use xlink:href="#DejaVuSans-6e" x="589.457031"/>
       <use xlink:href="#DejaVuSans-65" x="652.835938"/>
       <use xlink:href="#DejaVuSans-72" x="714.359375"/>
      </g>
     </g>
    </g>
    <g id="xtick_8">
     <g id="line2d_8">
      <g>
       <use xlink:href="#mfd5648973d" x="626.762727" y="337.97" style="stroke: #000000; stroke-width: 0.8"/>
      </g>
     </g>
     <g id="text_8">
      <!-- Mediocre QLearner -->
      <g transform="translate(628.970227 420.83375)rotate(-90)scale(0.08 -0.08)">
       <defs>
        <path id="DejaVuSans-4d" d="M 628 4666 
L 1569 4666 
L 2759 1491 
L 3956 4666 
L 4897 4666 
L 4897 0 
L 4281 0 
L 4281 4097 
L 3078 897 
L 2444 897 
L 1241 4097 
L 1241 0 
L 628 0 
L 628 4666 
z
" transform="scale(0.015625)"/>
       </defs>
       <use xlink:href="#DejaVuSans-4d"/>
       <use xlink:href="#DejaVuSans-65" x="86.279297"/>
       <use xlink:href="#DejaVuSans-64" x="147.802734"/>
       <use xlink:href="#DejaVuSans-69" x="211.279297"/>
       <use xlink:href="#DejaVuSans-6f" x="239.0625"/>
       <use xlink:href="#DejaVuSans-63" x="300.244141"/>
       <use xlink:href="#DejaVuSans-72" x="355.224609"/>
       <use xlink:href="#DejaVuSans-65" x="394.087891"/>
       <use xlink:href="#DejaVuSans-20" x="455.611328"/>
       <use xlink:href="#DejaVuSans-51" x="487.398438"/>
       <use xlink:href="#DejaVuSans-4c" x="566.109375"/>
       <use xlink:href="#DejaVuSans-65" x="620.072266"/>
       <use xlink:href="#DejaVuSans-61" x="681.595703"/>
       <use xlink:href="#DejaVuSans-72" x="742.875"/>
       <use xlink:href="#DejaVuSans-6e" x="782.238281"/>
       <use xlink:href="#DejaVuSans-65" x="845.617188"/>
       <use xlink:href="#DejaVuSans-72" x="907.140625"/>
      </g>
     </g>
    </g>
    <g id="xtick_9">
     <g id="line2d_9">
      <g>
       <use xlink:href="#mfd5648973d" x="702.241818" y="337.97" style="stroke: #000000; stroke-width: 0.8"/>
      </g>
     </g>
     <g id="text_9">
      <!-- Tit For Tat -->
      <g transform="translate(704.449318 384.15)rotate(-90)scale(0.08 -0.08)">
       <defs>
        <path id="DejaVuSans-54" d="M -19 4666 
L 3928 4666 
L 3928 4134 
L 2272 4134 
L 2272 0 
L 1638 0 
L 1638 4134 
L -19 4134 
L -19 4666 
z
" transform="scale(0.015625)"/>
        <path id="DejaVuSans-46" d="M 628 4666 
L 3309 4666 
L 3309 4134 
L 1259 4134 
L 1259 2759 
L 3109 2759 
L 3109 2228 
L 1259 2228 
L 1259 0 
L 628 0 
L 628 4666 
z
" transform="scale(0.015625)"/>
       </defs>
       <use xlink:href="#DejaVuSans-54"/>
       <use xlink:href="#DejaVuSans-69" x="57.958984"/>
       <use xlink:href="#DejaVuSans-74" x="85.742188"/>
       <use xlink:href="#DejaVuSans-20" x="124.951172"/>
       <use xlink:href="#DejaVuSans-46" x="156.738281"/>
       <use xlink:href="#DejaVuSans-6f" x="210.632812"/>
       <use xlink:href="#DejaVuSans-72" x="271.814453"/>
       <use xlink:href="#DejaVuSans-20" x="312.927734"/>
       <use xlink:href="#DejaVuSans-54" x="344.714844"/>
       <use xlink:href="#DejaVuSans-61" x="389.298828"/>
       <use xlink:href="#DejaVuSans-74" x="450.578125"/>
      </g>
     </g>
    </g>
    <g id="xtick_10">
     <g id="line2d_10">
      <g>
       <use xlink:href="#mfd5648973d" x="777.720909" y="337.97" style="stroke: #000000; stroke-width: 0.8"/>
      </g>
     </g>
     <g id="text_10">
      <!-- Cooperator -->
      <g transform="translate(779.928409 389.85875)rotate(-90)scale(0.08 -0.08)">
       <defs>
        <path id="DejaVuSans-43" d="M 4122 4306 
L 4122 3641 
Q 3803 3938 3442 4084 
Q 3081 4231 2675 4231 
Q 1875 4231 1450 3742 
Q 1025 3253 1025 2328 
Q 1025 1406 1450 917 
Q 1875 428 2675 428 
Q 3081 428 3442 575 
Q 3803 722 4122 1019 
L 4122 359 
Q 3791 134 3420 21 
Q 3050 -91 2638 -91 
Q 1578 -91 968 557 
Q 359 1206 359 2328 
Q 359 3453 968 4101 
Q 1578 4750 2638 4750 
Q 3056 4750 3426 4639 
Q 3797 4528 4122 4306 
z
" transform="scale(0.015625)"/>
       </defs>
       <use xlink:href="#DejaVuSans-43"/>
       <use xlink:href="#DejaVuSans-6f" x="69.824219"/>
       <use xlink:href="#DejaVuSans-6f" x="131.005859"/>
       <use xlink:href="#DejaVuSans-70" x="192.1875"/>
       <use xlink:href="#DejaVuSans-65" x="255.664062"/>
       <use xlink:href="#DejaVuSans-72" x="317.1875"/>
       <use xlink:href="#DejaVuSans-61" x="358.300781"/>
       <use xlink:href="#DejaVuSans-74" x="419.580078"/>
       <use xlink:href="#DejaVuSans-6f" x="458.789062"/>
       <use xlink:href="#DejaVuSans-72" x="519.970703"/>
      </g>
     </g>
    </g>
   </g>
   <g id="matplotlib.axis_2">
    <g id="ytick_1">
     <g id="line2d_11">
      <defs>
       <path id="m85f81c9592" d="M 0 0 
L -3.5 0 
" style="stroke: #000000; stroke-width: 0.8"/>
      </defs>
      <g>
       <use xlink:href="#m85f81c9592" x="22.93" y="322.4155" style="stroke: #000000; stroke-width: 0.8"/>
      </g>
     </g>
     <g id="text_11">
      <!-- 0 -->
      <g transform="translate(10.84 325.454875)scale(0.08 -0.08)">
       <use xlink:href="#DejaVuSans-30"/>
      </g>
     </g>
    </g>
    <g id="ytick_2">
     <g id="line2d_12">
      <g>
       <use xlink:href="#m85f81c9592" x="22.93" y="260.1975" style="stroke: #000000; stroke-width: 0.8"/>
      </g>
     </g>
     <g id="text_12">
      <!-- 2 -->
      <g transform="translate(10.84 263.236875)scale(0.08 -0.08)">
       <defs>
        <path id="DejaVuSans-32" d="M 1228 531 
L 3431 531 
L 3431 0 
L 469 0 
L 469 531 
Q 828 903 1448 1529 
Q 2069 2156 2228 2338 
Q 2531 2678 2651 2914 
Q 2772 3150 2772 3378 
Q 2772 3750 2511 3984 
Q 2250 4219 1831 4219 
Q 1534 4219 1204 4116 
Q 875 4013 500 3803 
L 500 4441 
Q 881 4594 1212 4672 
Q 1544 4750 1819 4750 
Q 2544 4750 2975 4387 
Q 3406 4025 3406 3419 
Q 3406 3131 3298 2873 
Q 3191 2616 2906 2266 
Q 2828 2175 2409 1742 
Q 1991 1309 1228 531 
z
" transform="scale(0.015625)"/>
       </defs>
       <use xlink:href="#DejaVuSans-32"/>
      </g>
     </g>
    </g>
    <g id="ytick_3">
     <g id="line2d_13">
      <g>
       <use xlink:href="#m85f81c9592" x="22.93" y="197.9795" style="stroke: #000000; stroke-width: 0.8"/>
      </g>
     </g>
     <g id="text_13">
      <!-- 4 -->
      <g transform="translate(10.84 201.018875)scale(0.08 -0.08)">
       <defs>
        <path id="DejaVuSans-34" d="M 2419 4116 
L 825 1625 
L 2419 1625 
L 2419 4116 
z
M 2253 4666 
L 3047 4666 
L 3047 1625 
L 3713 1625 
L 3713 1100 
L 3047 1100 
L 3047 0 
L 2419 0 
L 2419 1100 
L 313 1100 
L 313 1709 
L 2253 4666 
z
" transform="scale(0.015625)"/>
       </defs>
       <use xlink:href="#DejaVuSans-34"/>
      </g>
     </g>
    </g>
    <g id="ytick_4">
     <g id="line2d_14">
      <g>
       <use xlink:href="#m85f81c9592" x="22.93" y="135.7615" style="stroke: #000000; stroke-width: 0.8"/>
      </g>
     </g>
     <g id="text_14">
      <!-- 6 -->
      <g transform="translate(10.84 138.800875)scale(0.08 -0.08)">
       <defs>
        <path id="DejaVuSans-36" d="M 2113 2584 
Q 1688 2584 1439 2293 
Q 1191 2003 1191 1497 
Q 1191 994 1439 701 
Q 1688 409 2113 409 
Q 2538 409 2786 701 
Q 3034 994 3034 1497 
Q 3034 2003 2786 2293 
Q 2538 2584 2113 2584 
z
M 3366 4563 
L 3366 3988 
Q 3128 4100 2886 4159 
Q 2644 4219 2406 4219 
Q 1781 4219 1451 3797 
Q 1122 3375 1075 2522 
Q 1259 2794 1537 2939 
Q 1816 3084 2150 3084 
Q 2853 3084 3261 2657 
Q 3669 2231 3669 1497 
Q 3669 778 3244 343 
Q 2819 -91 2113 -91 
Q 1303 -91 875 529 
Q 447 1150 447 2328 
Q 447 3434 972 4092 
Q 1497 4750 2381 4750 
Q 2619 4750 2861 4703 
Q 3103 4656 3366 4563 
z
" transform="scale(0.015625)"/>
       </defs>
       <use xlink:href="#DejaVuSans-36"/>
      </g>
     </g>
    </g>
    <g id="ytick_5">
     <g id="line2d_15">
      <g>
       <use xlink:href="#m85f81c9592" x="22.93" y="73.5435" style="stroke: #000000; stroke-width: 0.8"/>
      </g>
     </g>
     <g id="text_15">
      <!-- 8 -->
      <g transform="translate(10.84 76.582875)scale(0.08 -0.08)">
       <defs>
        <path id="DejaVuSans-38" d="M 2034 2216 
Q 1584 2216 1326 1975 
Q 1069 1734 1069 1313 
Q 1069 891 1326 650 
Q 1584 409 2034 409 
Q 2484 409 2743 651 
Q 3003 894 3003 1313 
Q 3003 1734 2745 1975 
Q 2488 2216 2034 2216 
z
M 1403 2484 
Q 997 2584 770 2862 
Q 544 3141 544 3541 
Q 544 4100 942 4425 
Q 1341 4750 2034 4750 
Q 2731 4750 3128 4425 
Q 3525 4100 3525 3541 
Q 3525 3141 3298 2862 
Q 3072 2584 2669 2484 
Q 3125 2378 3379 2068 
Q 3634 1759 3634 1313 
Q 3634 634 3220 271 
Q 2806 -91 2034 -91 
Q 1263 -91 848 271 
Q 434 634 434 1313 
Q 434 1759 690 2068 
Q 947 2378 1403 2484 
z
M 1172 3481 
Q 1172 3119 1398 2916 
Q 1625 2713 2034 2713 
Q 2441 2713 2670 2916 
Q 2900 3119 2900 3481 
Q 2900 3844 2670 4047 
Q 2441 4250 2034 4250 
Q 1625 4250 1398 4047 
Q 1172 3844 1172 3481 
z
" transform="scale(0.015625)"/>
       </defs>
       <use xlink:href="#DejaVuSans-38"/>
      </g>
     </g>
    </g>
   </g>
   <g id="LineCollection_1">
    <path d="M 88.974205 42.4345 
L 107.843977 42.4345 
" clip-path="url(#pb76b166df7)" style="fill: none; stroke: #1f77b4; stroke-width: 1.5"/>
    <path d="M 164.453295 135.7615 
L 183.323068 135.7615 
" clip-path="url(#pb76b166df7)" style="fill: none; stroke: #1f77b4; stroke-width: 1.5"/>
    <path d="M 239.932386 135.7615 
L 258.802159 135.7615 
" clip-path="url(#pb76b166df7)" style="fill: none; stroke: #1f77b4; stroke-width: 1.5"/>
    <path d="M 315.411477 166.8705 
L 334.28125 166.8705 
" clip-path="url(#pb76b166df7)" style="fill: none; stroke: #1f77b4; stroke-width: 1.5"/>
    <path d="M 390.890568 166.8705 
L 409.760341 166.8705 
" clip-path="url(#pb76b166df7)" style="fill: none; stroke: #1f77b4; stroke-width: 1.5"/>
    <path d="M 466.369659 197.9795 
L 485.239432 197.9795 
" clip-path="url(#pb76b166df7)" style="fill: none; stroke: #1f77b4; stroke-width: 1.5"/>
    <path d="M 541.84875 260.1975 
L 560.718523 260.1975 
" clip-path="url(#pb76b166df7)" style="fill: none; stroke: #1f77b4; stroke-width: 1.5"/>
    <path d="M 617.327841 260.1975 
L 636.197614 260.1975 
" clip-path="url(#pb76b166df7)" style="fill: none; stroke: #1f77b4; stroke-width: 1.5"/>
    <path d="M 692.806932 322.4155 
L 711.676705 322.4155 
" clip-path="url(#pb76b166df7)" style="fill: none; stroke: #1f77b4; stroke-width: 1.5"/>
    <path d="M 768.286023 322.4155 
L 787.155795 322.4155 
" clip-path="url(#pb76b166df7)" style="fill: none; stroke: #1f77b4; stroke-width: 1.5"/>
   </g>
   <g id="patch_3">
    <path d="M 22.93 337.97 
L 22.93 26.88 
" style="fill: none; stroke: #000000; stroke-width: 0.8; stroke-linejoin: miter; stroke-linecap: square"/>
   </g>
   <g id="patch_4">
    <path d="M 853.2 337.97 
L 853.2 26.88 
" style="fill: none; stroke: #000000; stroke-width: 0.8; stroke-linejoin: miter; stroke-linecap: square"/>
   </g>
   <g id="patch_5">
    <path d="M 22.93 337.97 
L 853.2 337.97 
" style="fill: none; stroke: #000000; stroke-width: 0.8; stroke-linejoin: miter; stroke-linecap: square"/>
   </g>
   <g id="patch_6">
    <path d="M 22.93 26.88 
L 853.2 26.88 
" style="fill: none; stroke: #000000; stroke-width: 0.8; stroke-linejoin: miter; stroke-linecap: square"/>
   </g>
   <g id="text_16">
    <!-- Wins - turns: 200, repetitions: 100, strategies: 10.  -->
    <g transform="translate(286.363438 20.88)scale(0.12 -0.12)">
     <defs>
      <path id="DejaVuSans-57" d="M 213 4666 
L 850 4666 
L 1831 722 
L 2809 4666 
L 3519 4666 
L 4500 722 
L 5478 4666 
L 6119 4666 
L 4947 0 
L 4153 0 
L 3169 4050 
L 2175 0 
L 1381 0 
L 213 4666 
z
" transform="scale(0.015625)"/>
      <path id="DejaVuSans-2d" d="M 313 2009 
L 1997 2009 
L 1997 1497 
L 313 1497 
L 313 2009 
z
" transform="scale(0.015625)"/>
      <path id="DejaVuSans-2c" d="M 750 794 
L 1409 794 
L 1409 256 
L 897 -744 
L 494 -744 
L 750 256 
L 750 794 
z
" transform="scale(0.015625)"/>
      <path id="DejaVuSans-31" d="M 794 531 
L 1825 531 
L 1825 4091 
L 703 3866 
L 703 4441 
L 1819 4666 
L 2450 4666 
L 2450 531 
L 3481 531 
L 3481 0 
L 794 0 
L 794 531 
z
" transform="scale(0.015625)"/>
     </defs>
     <use xlink:href="#DejaVuSans-57"/>
     <use xlink:href="#DejaVuSans-69" x="96.626953"/>
     <use xlink:href="#DejaVuSans-6e" x="124.410156"/>
     <use xlink:href="#DejaVuSans-73" x="187.789062"/>
     <use xlink:href="#DejaVuSans-20" x="239.888672"/>
     <use xlink:href="#DejaVuSans-2d" x="271.675781"/>
     <use xlink:href="#DejaVuSans-20" x="307.759766"/>
     <use xlink:href="#DejaVuSans-74" x="339.546875"/>
     <use xlink:href="#DejaVuSans-75" x="378.755859"/>
     <use xlink:href="#DejaVuSans-72" x="442.134766"/>
     <use xlink:href="#DejaVuSans-6e" x="481.498047"/>
     <use xlink:href="#DejaVuSans-73" x="544.876953"/>
     <use xlink:href="#DejaVuSans-3a" x="596.976562"/>
     <use xlink:href="#DejaVuSans-20" x="630.667969"/>
     <use xlink:href="#DejaVuSans-32" x="662.455078"/>
     <use xlink:href="#DejaVuSans-30" x="726.078125"/>
     <use xlink:href="#DejaVuSans-30" x="789.701172"/>
     <use xlink:href="#DejaVuSans-2c" x="853.324219"/>
     <use xlink:href="#DejaVuSans-20" x="885.111328"/>
     <use xlink:href="#DejaVuSans-72" x="916.898438"/>
     <use xlink:href="#DejaVuSans-65" x="955.761719"/>
     <use xlink:href="#DejaVuSans-70" x="1017.285156"/>
     <use xlink:href="#DejaVuSans-65" x="1080.761719"/>
     <use xlink:href="#DejaVuSans-74" x="1142.285156"/>
     <use xlink:href="#DejaVuSans-69" x="1181.494141"/>
     <use xlink:href="#DejaVuSans-74" x="1209.277344"/>
     <use xlink:href="#DejaVuSans-69" x="1248.486328"/>
     <use xlink:href="#DejaVuSans-6f" x="1276.269531"/>
     <use xlink:href="#DejaVuSans-6e" x="1337.451172"/>
     <use xlink:href="#DejaVuSans-73" x="1400.830078"/>
     <use xlink:href="#DejaVuSans-3a" x="1452.929688"/>
     <use xlink:href="#DejaVuSans-20" x="1486.621094"/>
     <use xlink:href="#DejaVuSans-31" x="1518.408203"/>
     <use xlink:href="#DejaVuSans-30" x="1582.03125"/>
     <use xlink:href="#DejaVuSans-30" x="1645.654297"/>
     <use xlink:href="#DejaVuSans-2c" x="1709.277344"/>
     <use xlink:href="#DejaVuSans-20" x="1741.064453"/>
     <use xlink:href="#DejaVuSans-73" x="1772.851562"/>
     <use xlink:href="#DejaVuSans-74" x="1824.951172"/>
     <use xlink:href="#DejaVuSans-72" x="1864.160156"/>
     <use xlink:href="#DejaVuSans-61" x="1905.273438"/>
     <use xlink:href="#DejaVuSans-74" x="1966.552734"/>
     <use xlink:href="#DejaVuSans-65" x="2005.761719"/>
     <use xlink:href="#DejaVuSans-67" x="2067.285156"/>
     <use xlink:href="#DejaVuSans-69" x="2130.761719"/>
     <use xlink:href="#DejaVuSans-65" x="2158.544922"/>
     <use xlink:href="#DejaVuSans-73" x="2220.068359"/>
     <use xlink:href="#DejaVuSans-3a" x="2272.167969"/>
     <use xlink:href="#DejaVuSans-20" x="2305.859375"/>
     <use xlink:href="#DejaVuSans-31" x="2337.646484"/>
     <use xlink:href="#DejaVuSans-30" x="2401.269531"/>
     <use xlink:href="#DejaVuSans-2e" x="2464.892578"/>
     <use xlink:href="#DejaVuSans-20" x="2496.679688"/>
    </g>
   </g>
  </g>
 </g>
 <defs>
  <clipPath id="pb76b166df7">
   <rect x="22.93" y="26.88" width="830.27" height="311.09"/>
  </clipPath>
 </defs>
</svg>
