<?xml version="1.0" encoding="utf-8" standalone="no"?>
<!DOCTYPE svg PUBLIC "-//W3C//DTD SVG 1.1//EN"
  "http://www.w3.org/Graphics/SVG/1.1/DTD/svg11.dtd">
<svg xmlns:xlink="http://www.w3.org/1999/xlink" width="864pt" height="432pt" viewBox="0 0 864 432" xmlns="http://www.w3.org/2000/svg" version="1.1">
 <metadata>
  <rdf:RDF xmlns:dc="http://purl.org/dc/elements/1.1/" xmlns:cc="http://creativecommons.org/ns#" xmlns:rdf="http://www.w3.org/1999/02/22-rdf-syntax-ns#">
   <cc:Work>
    <dc:type rdf:resource="http://purl.org/dc/dcmitype/StillImage"/>
    <dc:date>2022-09-12T15:46:17.703908</dc:date>
    <dc:format>image/svg+xml</dc:format>
    <dc:creator>
     <cc:Agent>
      <dc:title>Matplotlib v3.5.1, https://matplotlib.org/</dc:title>
     </cc:Agent>
    </dc:creator>
   </cc:Work>
  </rdf:RDF>
 </metadata>
 <defs>
  <style type="text/css">*{stroke-linejoin: round; stroke-linecap: butt}</style>
 </defs>
 <g id="figure_1">
  <g id="patch_1">
   <path d="M 0 432 
L 864 432 
L 864 0 
L 0 0 
z
" style="fill: #ffffff"/>
  </g>
  <g id="axes_1">
   <g id="patch_2">
    <path d="M 29.68 337.97 
L 853.2 337.97 
L 853.2 26.88 
L 29.68 26.88 
z
" style="fill: #ffffff"/>
   </g>
   <g id="PolyCollection_1">
    <path d="M 113.072706 182.707809 
L 96.018203 182.707809 
L 96.050174 182.704952 
L 96.14537 182.702096 
L 96.301665 182.699239 
L 96.515605 182.696382 
L 96.782533 182.693526 
L 97.096757 182.690669 
L 97.451756 182.687812 
L 97.840399 182.684956 
L 98.255183 182.682099 
L 98.688476 182.679243 
L 99.132739 182.676386 
L 99.580743 182.673529 
L 100.025749 182.670673 
L 100.461663 182.667816 
L 100.883151 182.664959 
L 101.285719 182.662103 
L 101.665752 182.659246 
L 102.020519 182.656389 
L 102.348151 182.653533 
L 102.647581 182.650676 
L 102.918476 182.647819 
L 103.161144 182.644963 
L 103.376433 182.642106 
L 103.565629 182.639249 
L 103.730351 182.636393 
L 103.872457 182.633536 
L 103.993947 182.630679 
L 104.096888 182.627823 
L 104.183345 182.624966 
L 104.255326 182.622109 
L 104.314738 182.619253 
L 104.363357 182.616396 
L 104.402806 182.613539 
L 104.434544 182.610683 
L 104.459865 182.607826 
L 104.479898 182.604969 
L 104.495615 182.602113 
L 104.507843 182.599256 
L 104.517277 182.596399 
L 104.524491 182.593543 
L 104.529959 182.590686 
L 104.53406 182.587829 
L 104.5371 182.584973 
L 104.539315 182.582116 
L 104.540888 182.57926 
L 104.541953 182.576403 
L 104.542604 182.573546 
L 104.542899 182.57069 
L 104.542859 182.567833 
L 104.542476 182.564976 
L 104.541705 182.56212 
L 104.540462 182.559263 
L 104.53862 182.556406 
L 104.536 182.55355 
L 104.532356 182.550693 
L 104.527365 182.547836 
L 104.520608 182.54498 
L 104.511549 182.542123 
L 104.499511 182.539266 
L 104.483651 182.53641 
L 104.46293 182.533553 
L 104.43608 182.530696 
L 104.401576 182.52784 
L 104.357602 182.524983 
L 104.302023 182.522126 
L 104.232359 182.51927 
L 104.145772 182.516413 
L 104.039059 182.513556 
L 103.908655 182.5107 
L 103.750665 182.507843 
L 103.5609 182.504986 
L 103.334957 182.50213 
L 103.0683 182.499273 
L 102.756394 182.496416 
L 102.394846 182.49356 
L 101.979583 182.490703 
L 101.507048 182.487846 
L 100.974419 182.48499 
L 100.379834 182.482133 
L 99.722618 182.479276 
L 99.003504 182.47642 
L 98.224829 182.473563 
L 97.3907 182.470707 
L 96.507108 182.46785 
L 95.581988 182.464993 
L 94.625206 182.462137 
L 93.648468 182.45928 
L 92.66515 182.456423 
L 91.690042 182.453567 
L 90.739013 182.45071 
L 89.828607 182.447853 
L 88.97558 182.444997 
L 88.196397 182.44214 
L 87.506709 182.439283 
L 86.920833 182.436427 
L 86.451259 182.43357 
L 86.108208 182.430713 
L 85.899264 182.427857 
L 85.829091 182.425 
L 123.261818 182.425 
L 123.261818 182.425 
L 123.191645 182.427857 
L 122.982701 182.430713 
L 122.63965 182.43357 
L 122.170076 182.436427 
L 121.5842 182.439283 
L 120.894512 182.44214 
L 120.115329 182.444997 
L 119.262302 182.447853 
L 118.351896 182.45071 
L 117.400867 182.453567 
L 116.425759 182.456423 
L 115.442441 182.45928 
L 114.465703 182.462137 
L 113.508921 182.464993 
L 112.583801 182.46785 
L 111.700209 182.470707 
L 110.86608 182.473563 
L 110.087405 182.47642 
L 109.368291 182.479276 
L 108.711075 182.482133 
L 108.11649 182.48499 
L 107.583861 182.487846 
L 107.111326 182.490703 
L 106.696063 182.49356 
L 106.334515 182.496416 
L 106.022609 182.499273 
L 105.755953 182.50213 
L 105.530009 182.504986 
L 105.340245 182.507843 
L 105.182254 182.5107 
L 105.05185 182.513556 
L 104.945137 182.516413 
L 104.85855 182.51927 
L 104.788887 182.522126 
L 104.733307 182.524983 
L 104.689333 182.52784 
L 104.654829 182.530696 
L 104.627979 182.533553 
L 104.607258 182.53641 
L 104.591398 182.539266 
L 104.57936 182.542123 
L 104.570301 182.54498 
L 104.563544 182.547836 
L 104.558553 182.550693 
L 104.554909 182.55355 
L 104.552289 182.556406 
L 104.550447 182.559263 
L 104.549204 182.56212 
L 104.548433 182.564976 
L 104.54805 182.567833 
L 104.54801 182.57069 
L 104.548305 182.573546 
L 104.548956 182.576403 
L 104.550022 182.57926 
L 104.551595 182.582116 
L 104.55381 182.584973 
L 104.556849 182.587829 
L 104.56095 182.590686 
L 104.566418 182.593543 
L 104.573632 182.596399 
L 104.583066 182.599256 
L 104.595294 182.602113 
L 104.611011 182.604969 
L 104.631044 182.607826 
L 104.656365 182.610683 
L 104.688103 182.613539 
L 104.727552 182.616396 
L 104.776171 182.619253 
L 104.835583 182.622109 
L 104.907564 182.624966 
L 104.994021 182.627823 
L 105.096962 182.630679 
L 105.218452 182.633536 
L 105.360558 182.636393 
L 105.52528 182.639249 
L 105.714476 182.642106 
L 105.929765 182.644963 
L 106.172433 182.647819 
L 106.443328 182.650676 
L 106.742758 182.653533 
L 107.07039 182.656389 
L 107.425157 182.659246 
L 107.80519 182.662103 
L 108.207758 182.664959 
L 108.629246 182.667816 
L 109.06516 182.670673 
L 109.510166 182.673529 
L 109.95817 182.676386 
L 110.402433 182.679243 
L 110.835726 182.682099 
L 111.25051 182.684956 
L 111.639153 182.687812 
L 111.994152 182.690669 
L 112.308376 182.693526 
L 112.575304 182.696382 
L 112.789244 182.699239 
L 112.945539 182.702096 
L 113.040735 182.704952 
L 113.072706 182.707809 
z
" clip-path="url(#pd3f66f4765)" style="fill: #1f77b4; fill-opacity: 0.3"/>
   </g>
   <g id="PolyCollection_2">
    <path d="M 197.341148 182.707809 
L 161.48067 182.707809 
L 161.028872 181.310904 
L 160.765324 179.913998 
L 160.694545 178.517093 
L 160.81487 177.120187 
L 161.118761 175.723282 
L 161.593426 174.326376 
L 162.221664 172.929471 
L 162.98287 171.532565 
L 163.854122 170.13566 
L 164.811265 168.738754 
L 165.829934 167.341848 
L 166.886451 165.944943 
L 167.95858 164.548037 
L 169.026106 163.151132 
L 170.071237 161.754226 
L 171.078847 160.357321 
L 172.036565 158.960415 
L 172.934738 157.56351 
L 173.766293 156.166604 
L 174.526512 154.769699 
L 175.212753 153.372793 
L 175.824132 151.975888 
L 176.361175 150.578982 
L 176.825473 149.182077 
L 177.219338 147.785171 
L 177.545488 146.388266 
L 177.806758 144.99136 
L 178.005872 143.594455 
L 178.145266 142.197549 
L 178.226984 140.800644 
L 178.252657 139.403738 
L 178.223555 138.006833 
L 178.140728 136.609927 
L 178.005211 135.213022 
L 177.818299 133.816116 
L 177.581848 132.419211 
L 177.298604 131.022305 
L 176.972503 129.6254 
L 176.608928 128.228494 
L 176.214882 126.831589 
L 175.799044 125.434683 
L 175.371701 124.037778 
L 174.944522 122.640872 
L 174.530197 121.243967 
L 174.141934 119.847061 
L 173.792869 118.450156 
L 173.4954 117.05325 
L 173.260517 115.656345 
L 173.097181 114.259439 
L 173.011787 112.862534 
L 173.007785 111.465628 
L 173.085469 110.068723 
L 173.24197 108.671817 
L 173.471445 107.274912 
L 173.765452 105.878006 
L 174.113472 104.481101 
L 174.503539 103.084195 
L 174.922919 101.68729 
L 175.358799 100.290384 
L 175.798908 98.893479 
L 176.232062 97.496573 
L 176.648571 96.099667 
L 177.040512 94.702762 
L 177.401859 93.305856 
L 177.728468 91.908951 
L 178.017956 90.512045 
L 178.26948 89.11514 
L 178.483456 87.718234 
L 178.661244 86.321329 
L 178.804829 84.924423 
L 178.916512 83.527518 
L 178.998638 82.130612 
L 179.053375 80.733707 
L 179.082543 79.336801 
L 179.087502 77.939896 
L 179.069096 76.54299 
L 179.027667 75.146085 
L 178.963101 73.749179 
L 178.874941 72.352274 
L 178.762536 70.955368 
L 178.625216 69.558463 
L 178.462507 68.161557 
L 178.274346 66.764652 
L 178.061305 65.367746 
L 177.824788 63.970841 
L 177.567212 62.573935 
L 177.292116 61.17703 
L 177.00422 59.780124 
L 176.709395 58.383219 
L 176.414545 56.986313 
L 176.127396 55.589408 
L 175.856207 54.192502 
L 175.609397 52.795597 
L 175.395129 51.398691 
L 175.220876 50.001786 
L 175.092988 48.60488 
L 175.016317 47.207975 
L 174.993907 45.811069 
L 175.026798 44.414164 
L 183.79502 44.414164 
L 183.79502 44.414164 
L 183.827911 45.811069 
L 183.805501 47.207975 
L 183.72883 48.60488 
L 183.600943 50.001786 
L 183.426689 51.398691 
L 183.212422 52.795597 
L 182.965611 54.192502 
L 182.694422 55.589408 
L 182.407273 56.986313 
L 182.112423 58.383219 
L 181.817598 59.780124 
L 181.529702 61.17703 
L 181.254606 62.573935 
L 180.99703 63.970841 
L 180.760514 65.367746 
L 180.547472 66.764652 
L 180.359311 68.161557 
L 180.196602 69.558463 
L 180.059283 70.955368 
L 179.946877 72.352274 
L 179.858718 73.749179 
L 179.794151 75.146085 
L 179.752722 76.54299 
L 179.734317 77.939896 
L 179.739275 79.336801 
L 179.768443 80.733707 
L 179.823181 82.130612 
L 179.905307 83.527518 
L 180.016989 84.924423 
L 180.160574 86.321329 
L 180.338363 87.718234 
L 180.552338 89.11514 
L 180.803862 90.512045 
L 181.09335 91.908951 
L 181.419959 93.305856 
L 181.781306 94.702762 
L 182.173247 96.099667 
L 182.589756 97.496573 
L 183.02291 98.893479 
L 183.46302 100.290384 
L 183.898899 101.68729 
L 184.31828 103.084195 
L 184.708346 104.481101 
L 185.056366 105.878006 
L 185.350373 107.274912 
L 185.579849 108.671817 
L 185.73635 110.068723 
L 185.814034 111.465628 
L 185.810032 112.862534 
L 185.724638 114.259439 
L 185.561301 115.656345 
L 185.326418 117.05325 
L 185.028949 118.450156 
L 184.679884 119.847061 
L 184.291622 121.243967 
L 183.877296 122.640872 
L 183.450117 124.037778 
L 183.022774 125.434683 
L 182.606936 126.831589 
L 182.21289 128.228494 
L 181.849315 129.6254 
L 181.523214 131.022305 
L 181.23997 132.419211 
L 181.003519 133.816116 
L 180.816607 135.213022 
L 180.68109 136.609927 
L 180.598263 138.006833 
L 180.569161 139.403738 
L 180.594834 140.800644 
L 180.676552 142.197549 
L 180.815946 143.594455 
L 181.01506 144.99136 
L 181.27633 146.388266 
L 181.60248 147.785171 
L 181.996345 149.182077 
L 182.460643 150.578982 
L 182.997686 151.975888 
L 183.609065 153.372793 
L 184.295306 154.769699 
L 185.055525 156.166604 
L 185.88708 157.56351 
L 186.785253 158.960415 
L 187.742971 160.357321 
L 188.750581 161.754226 
L 189.795712 163.151132 
L 190.863238 164.548037 
L 191.935367 165.944943 
L 192.991884 167.341848 
L 194.010553 168.738754 
L 194.967696 170.13566 
L 195.838948 171.532565 
L 196.600154 172.929471 
L 197.228392 174.326376 
L 197.703057 175.723282 
L 198.006948 177.120187 
L 198.127273 178.517093 
L 198.056494 179.913998 
L 197.792946 181.310904 
L 197.341148 182.707809 
z
" clip-path="url(#pd3f66f4765)" style="fill: #1f77b4; fill-opacity: 0.3"/>
   </g>
   <g id="PolyCollection_3">
    <path d="M 272.881299 253.127273 
L 235.671428 253.127273 
L 235.56 251.698944 
L 235.633023 250.270615 
L 235.888158 248.842287 
L 236.317739 247.413958 
L 236.90915 245.985629 
L 237.64543 244.5573 
L 238.506071 243.128972 
L 239.467947 241.700643 
L 240.506319 240.272314 
L 241.595853 238.843985 
L 242.711588 237.415657 
L 243.829801 235.987328 
L 244.928727 234.558999 
L 245.989115 233.13067 
L 246.994575 231.702342 
L 247.931755 230.274013 
L 248.790317 228.845684 
L 249.562772 227.417355 
L 250.244169 225.989027 
L 250.831701 224.560698 
L 251.324251 223.132369 
L 251.721918 221.70404 
L 252.025561 220.275712 
L 252.236392 218.847383 
L 252.355643 217.419054 
L 252.384329 215.990725 
L 252.32312 214.562397 
L 252.172325 213.134068 
L 251.931998 211.705739 
L 251.602141 210.27741 
L 251.183012 208.849082 
L 250.675491 207.420753 
L 250.081506 205.992424 
L 249.404465 204.564096 
L 248.649665 203.135767 
L 247.824655 201.707438 
L 246.939498 200.279109 
L 246.006912 198.850781 
L 245.04226 197.422452 
L 244.063372 195.994123 
L 243.090186 194.565794 
L 242.144225 193.137466 
L 241.247917 191.709137 
L 240.423787 190.280808 
L 239.693576 188.852479 
L 239.077326 187.424151 
L 238.592495 185.995822 
L 238.253147 184.567493 
L 238.069287 183.139164 
L 238.046375 181.710836 
L 238.185052 180.282507 
L 238.481107 178.854178 
L 238.925672 177.425849 
L 239.505645 175.997521 
L 240.2043 174.569192 
L 241.002048 173.140863 
L 241.877295 171.712534 
L 242.807334 170.284206 
L 243.769232 168.855877 
L 244.740637 167.427548 
L 245.700479 165.999219 
L 246.629522 164.570891 
L 247.510753 163.142562 
L 248.3296 161.714233 
L 249.073981 160.285904 
L 249.734214 158.857576 
L 250.302804 157.429247 
L 250.774147 156.000918 
L 251.144193 154.57259 
L 251.410095 153.144261 
L 251.569893 151.715932 
L 251.622256 150.287603 
L 251.566311 148.859275 
L 251.40157 147.430946 
L 251.127971 146.002617 
L 250.746022 144.574288 
L 250.257042 143.14596 
L 249.663475 141.717631 
L 248.969251 140.289302 
L 248.180159 138.860973 
L 247.304197 137.432645 
L 246.35186 136.004316 
L 245.336321 134.575987 
L 244.273489 133.147658 
L 243.181902 131.71933 
L 242.082453 130.291001 
L 240.997941 128.862672 
L 239.952452 127.434343 
L 238.970609 126.006015 
L 238.076704 124.577686 
L 237.293778 123.149357 
L 236.64269 121.721028 
L 236.14124 120.2927 
L 235.803386 118.864371 
L 235.63863 117.436042 
L 235.651584 116.007713 
L 235.841776 114.579385 
L 236.203682 113.151056 
L 236.727003 111.722727 
L 271.825724 111.722727 
L 271.825724 111.722727 
L 272.349045 113.151056 
L 272.710952 114.579385 
L 272.901144 116.007713 
L 272.914098 117.436042 
L 272.749341 118.864371 
L 272.411487 120.2927 
L 271.910037 121.721028 
L 271.25895 123.149357 
L 270.476023 124.577686 
L 269.582118 126.006015 
L 268.600275 127.434343 
L 267.554787 128.862672 
L 266.470274 130.291001 
L 265.370825 131.71933 
L 264.279238 133.147658 
L 263.216406 134.575987 
L 262.200867 136.004316 
L 261.24853 137.432645 
L 260.372569 138.860973 
L 259.583476 140.289302 
L 258.889252 141.717631 
L 258.295685 143.14596 
L 257.806705 144.574288 
L 257.424757 146.002617 
L 257.151158 147.430946 
L 256.986416 148.859275 
L 256.930471 150.287603 
L 256.982834 151.715932 
L 257.142632 153.144261 
L 257.408534 154.57259 
L 257.77858 156.000918 
L 258.249924 157.429247 
L 258.818513 158.857576 
L 259.478746 160.285904 
L 260.223127 161.714233 
L 261.041974 163.142562 
L 261.923205 164.570891 
L 262.852248 165.999219 
L 263.81209 167.427548 
L 264.783495 168.855877 
L 265.745393 170.284206 
L 266.675433 171.712534 
L 267.550679 173.140863 
L 268.348427 174.569192 
L 269.047083 175.997521 
L 269.627056 177.425849 
L 270.071621 178.854178 
L 270.367675 180.282507 
L 270.506352 181.710836 
L 270.48344 183.139164 
L 270.29958 184.567493 
L 269.960232 185.995822 
L 269.475401 187.424151 
L 268.859152 188.852479 
L 268.12894 190.280808 
L 267.30481 191.709137 
L 266.408502 193.137466 
L 265.462542 194.565794 
L 264.489356 195.994123 
L 263.510467 197.422452 
L 262.545815 198.850781 
L 261.613229 200.279109 
L 260.728072 201.707438 
L 259.903063 203.135767 
L 259.148263 204.564096 
L 258.471221 205.992424 
L 257.877236 207.420753 
L 257.369716 208.849082 
L 256.950586 210.27741 
L 256.620729 211.705739 
L 256.380402 213.134068 
L 256.229608 214.562397 
L 256.168398 215.990725 
L 256.197084 217.419054 
L 256.316335 218.847383 
L 256.527166 220.275712 
L 256.830809 221.70404 
L 257.228476 223.132369 
L 257.721026 224.560698 
L 258.308558 225.989027 
L 258.989955 227.417355 
L 259.76241 228.845684 
L 260.620972 230.274013 
L 261.558152 231.702342 
L 262.563612 233.13067 
L 263.624 234.558999 
L 264.722927 235.987328 
L 265.841139 237.415657 
L 266.956874 238.843985 
L 268.046409 240.272314 
L 269.084781 241.700643 
L 270.046656 243.128972 
L 270.907297 244.5573 
L 271.643577 245.985629 
L 272.234988 247.413958 
L 272.66457 248.842287 
L 272.919705 250.270615 
L 272.992727 251.698944 
L 272.881299 253.127273 
z
" clip-path="url(#pd3f66f4765)" style="fill: #1f77b4; fill-opacity: 0.3"/>
   </g>
   <g id="PolyCollection_4">
    <path d="M 342.564645 261.611545 
L 315.718992 261.611545 
L 314.821768 260.020387 
L 314.041832 258.429229 
L 313.404018 256.838071 
L 312.929273 255.246913 
L 312.633514 253.655754 
L 312.526742 252.064596 
L 312.612472 250.473438 
L 312.887539 248.88228 
L 313.342284 247.291121 
L 313.961106 245.699963 
L 314.723339 244.108805 
L 315.604368 242.517647 
L 316.576919 240.926489 
L 317.612407 239.33533 
L 318.682251 237.744172 
L 319.759072 236.153014 
L 320.817693 234.561856 
L 321.835893 232.970698 
L 322.79489 231.379539 
L 323.679544 229.788381 
L 324.478296 228.197223 
L 325.182887 226.606065 
L 325.787904 225.014906 
L 326.290201 223.423748 
L 326.688285 221.83259 
L 326.981695 220.241432 
L 327.170463 218.650274 
L 327.254675 217.059115 
L 327.234201 215.467957 
L 327.108586 213.876799 
L 326.877146 212.285641 
L 326.539233 210.694482 
L 326.09468 209.103324 
L 325.544366 207.512166 
L 324.890867 205.921008 
L 324.139134 204.32985 
L 323.297122 202.738691 
L 322.376308 201.147533 
L 321.392015 199.556375 
L 320.363502 197.965217 
L 319.313753 196.374058 
L 318.268958 194.7829 
L 317.257681 193.191742 
L 316.309751 191.600584 
L 315.45493 190.009426 
L 314.721459 188.418267 
L 314.134565 186.827109 
L 313.715064 185.235951 
L 313.478154 183.644793 
L 313.432517 182.053635 
L 313.579783 180.462476 
L 313.914421 178.871318 
L 314.424058 177.28016 
L 315.090191 175.689002 
L 315.889239 174.097843 
L 316.793843 172.506685 
L 317.774298 170.915527 
L 318.800013 169.324369 
L 319.84088 167.733211 
L 320.86847 166.142052 
L 321.856973 164.550894 
L 322.783835 162.959736 
L 323.630109 161.368578 
L 324.380492 159.777419 
L 325.023134 158.186261 
L 325.549244 156.595103 
L 325.952593 155.003945 
L 326.228966 153.412787 
L 326.37566 151.821628 
L 326.391064 150.23047 
L 326.274395 148.639312 
L 326.025606 147.048154 
L 325.645473 145.456996 
L 325.135863 143.865837 
L 324.500145 142.274679 
L 323.74369 140.683521 
L 322.874422 139.092363 
L 321.903327 137.501204 
L 320.844866 135.910046 
L 319.71722 134.318888 
L 318.542308 132.72773 
L 317.345543 131.136572 
L 316.155296 129.545413 
L 315.002084 127.954255 
L 313.917507 126.363097 
L 312.932981 124.771939 
L 312.078365 123.18078 
L 311.380545 121.589622 
L 310.862104 119.998464 
L 310.540159 118.407306 
L 310.425455 116.816148 
L 310.521799 115.224989 
L 310.82587 113.633831 
L 311.327417 112.042673 
L 312.009842 110.451515 
L 312.851116 108.860356 
L 313.82496 107.269198 
L 314.9022 105.67804 
L 316.052212 104.086882 
L 342.231424 104.086882 
L 342.231424 104.086882 
L 343.381436 105.67804 
L 344.458677 107.269198 
L 345.43252 108.860356 
L 346.273795 110.451515 
L 346.95622 112.042673 
L 347.457766 113.633831 
L 347.761837 115.224989 
L 347.858182 116.816148 
L 347.743478 118.407306 
L 347.421532 119.998464 
L 346.903092 121.589622 
L 346.205272 123.18078 
L 345.350655 124.771939 
L 344.36613 126.363097 
L 343.281552 127.954255 
L 342.128341 129.545413 
L 340.938094 131.136572 
L 339.741328 132.72773 
L 338.566417 134.318888 
L 337.438771 135.910046 
L 336.380309 137.501204 
L 335.409214 139.092363 
L 334.539946 140.683521 
L 333.783492 142.274679 
L 333.147773 143.865837 
L 332.638164 145.456996 
L 332.258031 147.048154 
L 332.009241 148.639312 
L 331.892573 150.23047 
L 331.907976 151.821628 
L 332.05467 153.412787 
L 332.331044 155.003945 
L 332.734392 156.595103 
L 333.260503 158.186261 
L 333.903144 159.777419 
L 334.653527 161.368578 
L 335.499801 162.959736 
L 336.426664 164.550894 
L 337.415166 166.142052 
L 338.442757 167.733211 
L 339.483624 169.324369 
L 340.509338 170.915527 
L 341.489793 172.506685 
L 342.394397 174.097843 
L 343.193446 175.689002 
L 343.859578 177.28016 
L 344.369215 178.871318 
L 344.703854 180.462476 
L 344.851119 182.053635 
L 344.805482 183.644793 
L 344.568573 185.235951 
L 344.149071 186.827109 
L 343.562177 188.418267 
L 342.828706 190.009426 
L 341.973886 191.600584 
L 341.025955 193.191742 
L 340.014678 194.7829 
L 338.969883 196.374058 
L 337.920134 197.965217 
L 336.891621 199.556375 
L 335.907329 201.147533 
L 334.986514 202.738691 
L 334.144503 204.32985 
L 333.39277 205.921008 
L 332.73927 207.512166 
L 332.188956 209.103324 
L 331.744403 210.694482 
L 331.406491 212.285641 
L 331.17505 213.876799 
L 331.049435 215.467957 
L 331.028961 217.059115 
L 331.113174 218.650274 
L 331.301941 220.241432 
L 331.595352 221.83259 
L 331.993435 223.423748 
L 332.495733 225.014906 
L 333.100749 226.606065 
L 333.805341 228.197223 
L 334.604093 229.788381 
L 335.488747 231.379539 
L 336.447744 232.970698 
L 337.465944 234.561856 
L 338.524564 236.153014 
L 339.601385 237.744172 
L 340.671229 239.33533 
L 341.706717 240.926489 
L 342.679268 242.517647 
L 343.560297 244.108805 
L 344.32253 245.699963 
L 344.941353 247.291121 
L 345.396098 248.88228 
L 345.671164 250.473438 
L 345.756894 252.064596 
L 345.650122 253.655754 
L 345.354364 255.246913 
L 344.879618 256.838071 
L 344.241804 258.429229 
L 343.461868 260.020387 
L 342.564645 261.611545 
z
" clip-path="url(#pd3f66f4765)" style="fill: #1f77b4; fill-opacity: 0.3"/>
   </g>
   <g id="PolyCollection_5">
    <path d="M 407.955896 320.435836 
L 400.05865 320.435836 
L 400.09201 317.630599 
L 400.214979 314.825361 
L 400.418912 312.020123 
L 400.689952 309.214886 
L 401.010529 306.409648 
L 401.361171 303.60441 
L 401.722362 300.799173 
L 402.076202 297.993935 
L 402.407693 295.188698 
L 402.705524 292.38346 
L 402.962365 289.578222 
L 403.174715 286.772985 
L 403.342418 283.967747 
L 403.467991 281.162509 
L 403.555873 278.357272 
L 403.611712 275.552034 
L 403.641748 272.746796 
L 403.652313 269.941559 
L 403.649457 267.136321 
L 403.638667 264.331083 
L 403.624659 261.525846 
L 403.611216 258.720608 
L 403.60104 255.91537 
L 403.595624 253.110133 
L 403.595116 250.304895 
L 403.598175 247.499657 
L 403.601806 244.69442 
L 403.601175 241.889182 
L 403.58938 239.083945 
L 403.55721 236.278707 
L 403.492906 233.473469 
L 403.381986 230.668232 
L 403.207235 227.862994 
L 402.948969 225.057756 
L 402.585706 222.252519 
L 402.095362 219.447281 
L 401.457032 216.642043 
L 400.653333 213.836806 
L 399.673165 211.031568 
L 398.514632 208.22633 
L 397.18773 205.421093 
L 395.71635 202.615855 
L 394.139142 199.810617 
L 392.508868 197.00538 
L 390.890059 194.200142 
L 389.354994 191.394904 
L 387.978344 188.589667 
L 386.830994 185.784429 
L 385.973791 182.979192 
L 385.451961 180.173954 
L 385.290909 177.368716 
L 385.493912 174.563479 
L 386.041928 171.758241 
L 386.895483 168.953003 
L 387.998306 166.147766 
L 389.282191 163.342528 
L 390.672482 160.53729 
L 392.093583 157.732053 
L 393.473996 154.926815 
L 394.750538 152.121577 
L 395.871566 149.31634 
L 396.799152 146.511102 
L 397.510297 143.705864 
L 397.997249 140.900627 
L 398.26705 138.095389 
L 398.34036 135.290152 
L 398.249594 132.484914 
L 398.036401 129.679676 
L 397.74854 126.874439 
L 397.436271 124.069201 
L 397.148477 121.263963 
L 396.92883 118.458726 
L 396.812364 115.653488 
L 396.822827 112.84825 
L 396.971123 110.043013 
L 397.255029 107.237775 
L 397.66019 104.432537 
L 398.162228 101.6273 
L 398.729649 98.822062 
L 399.327136 96.016824 
L 399.918806 93.211587 
L 400.471077 90.406349 
L 400.954894 87.601111 
L 401.347224 84.795874 
L 401.631853 81.990636 
L 401.799618 79.185399 
L 401.848254 76.380161 
L 401.782025 73.574923 
L 401.611245 70.769686 
L 401.351719 67.964448 
L 401.024078 65.15921 
L 400.652904 62.353973 
L 400.265567 59.548735 
L 399.890725 56.743497 
L 399.556511 53.93826 
L 399.288531 51.133022 
L 399.107868 48.327784 
L 399.029347 45.522547 
L 399.060317 42.717309 
L 408.954228 42.717309 
L 408.954228 42.717309 
L 408.985198 45.522547 
L 408.906678 48.327784 
L 408.726014 51.133022 
L 408.458034 53.93826 
L 408.123821 56.743497 
L 407.748979 59.548735 
L 407.361642 62.353973 
L 406.990468 65.15921 
L 406.662827 67.964448 
L 406.403301 70.769686 
L 406.23252 73.574923 
L 406.166291 76.380161 
L 406.214928 79.185399 
L 406.382692 81.990636 
L 406.667322 84.795874 
L 407.059652 87.601111 
L 407.543469 90.406349 
L 408.095739 93.211587 
L 408.687409 96.016824 
L 409.284896 98.822062 
L 409.852317 101.6273 
L 410.354355 104.432537 
L 410.759516 107.237775 
L 411.043423 110.043013 
L 411.191719 112.84825 
L 411.202181 115.653488 
L 411.085715 118.458726 
L 410.866068 121.263963 
L 410.578274 124.069201 
L 410.266005 126.874439 
L 409.978145 129.679676 
L 409.764952 132.484914 
L 409.674185 135.290152 
L 409.747495 138.095389 
L 410.017297 140.900627 
L 410.504249 143.705864 
L 411.215393 146.511102 
L 412.14298 149.31634 
L 413.264007 152.121577 
L 414.54055 154.926815 
L 415.920963 157.732053 
L 417.342064 160.53729 
L 418.732354 163.342528 
L 420.016239 166.147766 
L 421.119062 168.953003 
L 421.972618 171.758241 
L 422.520633 174.563479 
L 422.723636 177.368716 
L 422.562585 180.173954 
L 422.040754 182.979192 
L 421.183551 185.784429 
L 420.036202 188.589667 
L 418.659551 191.394904 
L 417.124487 194.200142 
L 415.505677 197.00538 
L 413.875404 199.810617 
L 412.298195 202.615855 
L 410.826815 205.421093 
L 409.499914 208.22633 
L 408.341381 211.031568 
L 407.361213 213.836806 
L 406.557513 216.642043 
L 405.919184 219.447281 
L 405.42884 222.252519 
L 405.065576 225.057756 
L 404.80731 227.862994 
L 404.63256 230.668232 
L 404.52164 233.473469 
L 404.457336 236.278707 
L 404.425166 239.083945 
L 404.413371 241.889182 
L 404.412739 244.69442 
L 404.416371 247.499657 
L 404.41943 250.304895 
L 404.418922 253.110133 
L 404.413506 255.91537 
L 404.40333 258.720608 
L 404.389886 261.525846 
L 404.375879 264.331083 
L 404.365089 267.136321 
L 404.362233 269.941559 
L 404.372798 272.746796 
L 404.402833 275.552034 
L 404.458672 278.357272 
L 404.546554 281.162509 
L 404.672127 283.967747 
L 404.839831 286.772985 
L 405.05218 289.578222 
L 405.309021 292.38346 
L 405.606852 295.188698 
L 405.938343 297.993935 
L 406.292184 300.799173 
L 406.653374 303.60441 
L 407.004016 306.409648 
L 407.324594 309.214886 
L 407.595634 312.020123 
L 407.799567 314.825361 
L 407.922536 317.630599 
L 407.955896 320.435836 
z
" clip-path="url(#pd3f66f4765)" style="fill: #1f77b4; fill-opacity: 0.3"/>
   </g>
   <g id="PolyCollection_6">
    <path d="M 482.999475 319.587409 
L 474.74598 319.587409 
L 474.621029 316.825021 
L 474.599253 314.062634 
L 474.681452 311.300246 
L 474.860446 308.537858 
L 475.12179 305.77547 
L 475.445291 303.013082 
L 475.807052 300.250695 
L 476.181709 297.488307 
L 476.544538 294.725919 
L 476.873177 291.963531 
L 477.148804 289.201143 
L 477.356769 286.438756 
L 477.486775 283.676368 
L 477.532775 280.91398 
L 477.492774 278.151592 
L 477.368686 275.389204 
L 477.166309 272.626817 
L 476.895403 269.864429 
L 476.569735 267.102041 
L 476.206934 264.339653 
L 475.827959 261.577266 
L 475.456065 258.814878 
L 475.115215 256.05249 
L 474.828033 253.290102 
L 474.613499 250.527714 
L 474.484665 247.765327 
L 474.44671 245.002939 
L 474.495612 242.240551 
L 474.617623 239.478163 
L 474.789608 236.715775 
L 474.980204 233.953388 
L 475.151645 231.191 
L 475.26208 228.428612 
L 475.268222 225.666224 
L 475.128217 222.903837 
L 474.804675 220.141449 
L 474.267843 217.379061 
L 473.498859 214.616673 
L 472.492934 211.854285 
L 471.262167 209.091898 
L 469.837568 206.32951 
L 468.26975 203.567122 
L 466.627795 200.804734 
L 464.995911 198.042346 
L 463.467852 195.279959 
L 462.139383 192.517571 
L 461.099558 189.755183 
L 460.421847 186.992795 
L 460.156364 184.230408 
L 460.324337 181.46802 
L 460.915718 178.705632 
L 461.890308 175.943244 
L 463.182246 173.180856 
L 464.707139 170.418469 
L 466.37076 167.656081 
L 468.078043 164.893693 
L 469.741173 162.131305 
L 471.285879 159.368917 
L 472.655404 156.60653 
L 473.812085 153.844142 
L 474.736856 151.081754 
L 475.427198 148.319366 
L 475.894185 145.556979 
L 476.159204 142.794591 
L 476.250766 140.032203 
L 476.201667 137.269815 
L 476.046564 134.507427 
L 475.819931 131.74504 
L 475.554306 128.982652 
L 475.278786 126.220264 
L 475.01776 123.457876 
L 474.789961 120.695488 
L 474.607934 117.933101 
L 474.478016 115.170713 
L 474.400884 112.408325 
L 474.372609 109.645937 
L 474.386084 106.883549 
L 474.432614 104.121162 
L 474.50341 101.358774 
L 474.590772 98.596386 
L 474.6888 95.833998 
L 474.793578 93.071611 
L 474.902894 90.309223 
L 475.015635 87.546835 
L 475.131065 84.784447 
L 475.248188 82.022059 
L 475.36537 79.259672 
L 475.480302 76.497284 
L 475.590322 73.734896 
L 475.692995 70.972508 
L 475.786803 68.21012 
L 475.871771 65.447733 
L 475.949845 62.685345 
L 476.02491 59.922957 
L 476.102415 57.160569 
L 476.188637 54.398182 
L 476.28972 51.635794 
L 476.410675 48.873406 
L 476.554509 46.111018 
L 481.190945 46.111018 
L 481.190945 46.111018 
L 481.334779 48.873406 
L 481.455734 51.635794 
L 481.556818 54.398182 
L 481.643039 57.160569 
L 481.720544 59.922957 
L 481.79561 62.685345 
L 481.873683 65.447733 
L 481.958652 68.21012 
L 482.05246 70.972508 
L 482.155132 73.734896 
L 482.265152 76.497284 
L 482.380084 79.259672 
L 482.497266 82.022059 
L 482.61439 84.784447 
L 482.72982 87.546835 
L 482.842561 90.309223 
L 482.951876 93.071611 
L 483.056654 95.833998 
L 483.154682 98.596386 
L 483.242045 101.358774 
L 483.312841 104.121162 
L 483.359371 106.883549 
L 483.372846 109.645937 
L 483.34457 112.408325 
L 483.267438 115.170713 
L 483.137521 117.933101 
L 482.955493 120.695488 
L 482.727695 123.457876 
L 482.466669 126.220264 
L 482.191148 128.982652 
L 481.925523 131.74504 
L 481.69889 134.507427 
L 481.543788 137.269815 
L 481.494689 140.032203 
L 481.58625 142.794591 
L 481.851269 145.556979 
L 482.318257 148.319366 
L 483.008598 151.081754 
L 483.933369 153.844142 
L 485.090051 156.60653 
L 486.459576 159.368917 
L 488.004282 162.131305 
L 489.667412 164.893693 
L 491.374694 167.656081 
L 493.038316 170.418469 
L 494.563208 173.180856 
L 495.855146 175.943244 
L 496.829737 178.705632 
L 497.421118 181.46802 
L 497.589091 184.230408 
L 497.323608 186.992795 
L 496.645897 189.755183 
L 495.606071 192.517571 
L 494.277602 195.279959 
L 492.749543 198.042346 
L 491.11766 200.804734 
L 489.475704 203.567122 
L 487.907887 206.32951 
L 486.483288 209.091898 
L 485.252521 211.854285 
L 484.246596 214.616673 
L 483.477612 217.379061 
L 482.94078 220.141449 
L 482.617237 222.903837 
L 482.477232 225.666224 
L 482.483374 228.428612 
L 482.593809 231.191 
L 482.76525 233.953388 
L 482.955846 236.715775 
L 483.127832 239.478163 
L 483.249843 242.240551 
L 483.298745 245.002939 
L 483.26079 247.765327 
L 483.131956 250.527714 
L 482.917422 253.290102 
L 482.63024 256.05249 
L 482.289389 258.814878 
L 481.917495 261.577266 
L 481.53852 264.339653 
L 481.175719 267.102041 
L 480.850052 269.864429 
L 480.579146 272.626817 
L 480.376769 275.389204 
L 480.252681 278.151592 
L 480.21268 280.91398 
L 480.25868 283.676368 
L 480.388686 286.438756 
L 480.596651 289.201143 
L 480.872277 291.963531 
L 481.200916 294.725919 
L 481.563746 297.488307 
L 481.938402 300.250695 
L 482.300163 303.013082 
L 482.623665 305.77547 
L 482.885008 308.537858 
L 483.064002 311.300246 
L 483.146202 314.062634 
L 483.124426 316.825021 
L 482.999475 319.587409 
z
" clip-path="url(#pd3f66f4765)" style="fill: #1f77b4; fill-opacity: 0.3"/>
   </g>
   <g id="PolyCollection_7">
    <path d="M 571.564209 182.425 
L 535.912154 182.425 
L 535.422625 180.996671 
L 535.12401 179.568343 
L 535.021818 178.140014 
L 535.114995 176.711685 
L 535.396214 175.283356 
L 535.852505 173.855028 
L 536.466163 172.426699 
L 537.215835 170.99837 
L 538.077708 169.570041 
L 539.026708 168.141713 
L 540.037624 166.713384 
L 541.086098 165.285055 
L 542.149442 163.856726 
L 543.20725 162.428398 
L 544.241802 161.000069 
L 545.238281 159.57174 
L 546.184804 158.143411 
L 547.072317 156.715083 
L 547.894371 155.286754 
L 548.646819 153.858425 
L 549.32746 152.430096 
L 549.935654 151.001768 
L 550.471942 149.573439 
L 550.93767 148.14511 
L 551.334659 146.716781 
L 551.664906 145.288453 
L 551.930353 143.860124 
L 552.132711 142.431795 
L 552.273368 141.003466 
L 552.353365 139.575138 
L 552.373468 138.146809 
L 552.3343 136.71848 
L 552.236565 135.290152 
L 552.081321 133.861823 
L 551.870293 132.433494 
L 551.606208 131.005165 
L 551.29311 129.576837 
L 550.936625 128.148508 
L 550.544143 126.720179 
L 550.124885 125.29185 
L 549.689825 123.863522 
L 549.251457 122.435193 
L 548.823409 121.006864 
L 548.419909 119.578535 
L 548.055141 118.150207 
L 547.742531 116.721878 
L 547.494018 115.293549 
L 547.319374 113.86522 
L 547.225621 112.436892 
L 547.216614 111.008563 
L 547.292813 109.580234 
L 547.451273 108.151905 
L 547.685853 106.723577 
L 547.987628 105.295248 
L 548.345466 103.866919 
L 548.74671 102.43859 
L 549.177924 101.010262 
L 549.625636 99.581933 
L 550.077009 98.153604 
L 550.52042 96.725275 
L 550.945891 95.296947 
L 551.345366 93.868618 
L 551.712831 92.440289 
L 552.044283 91.011961 
L 552.337582 89.583632 
L 552.592202 88.155303 
L 552.808915 86.726974 
L 552.989454 85.298646 
L 553.136165 83.870317 
L 553.251687 82.441988 
L 553.338663 81.013659 
L 553.39951 79.585331 
L 553.436246 78.157002 
L 553.450373 76.728673 
L 553.44282 75.300344 
L 553.413947 73.872016 
L 553.363594 72.443687 
L 553.291177 71.015358 
L 553.195831 69.587029 
L 553.076582 68.158701 
L 552.932542 66.730372 
L 552.76313 65.302043 
L 552.568294 63.873714 
L 552.348723 62.445386 
L 552.106037 61.017057 
L 551.842941 59.588728 
L 551.563317 58.160399 
L 551.272243 56.732071 
L 550.975937 55.303742 
L 550.681603 53.875413 
L 550.397192 52.447084 
L 550.131083 51.018756 
L 549.891693 49.590427 
L 549.687057 48.162098 
L 549.524387 46.73377 
L 549.409657 45.305441 
L 549.347241 43.877112 
L 549.339642 42.448783 
L 549.387321 41.020455 
L 558.089042 41.020455 
L 558.089042 41.020455 
L 558.136722 42.448783 
L 558.129122 43.877112 
L 558.066707 45.305441 
L 557.951976 46.73377 
L 557.789306 48.162098 
L 557.584671 49.590427 
L 557.345281 51.018756 
L 557.079171 52.447084 
L 556.794761 53.875413 
L 556.500427 55.303742 
L 556.204121 56.732071 
L 555.913047 58.160399 
L 555.633422 59.588728 
L 555.370327 61.017057 
L 555.127641 62.445386 
L 554.90807 63.873714 
L 554.713234 65.302043 
L 554.543822 66.730372 
L 554.399782 68.158701 
L 554.280532 69.587029 
L 554.185187 71.015358 
L 554.11277 72.443687 
L 554.062416 73.872016 
L 554.033544 75.300344 
L 554.025991 76.728673 
L 554.040117 78.157002 
L 554.076854 79.585331 
L 554.137701 81.013659 
L 554.224676 82.441988 
L 554.340198 83.870317 
L 554.48691 85.298646 
L 554.667449 86.726974 
L 554.884162 88.155303 
L 555.138781 89.583632 
L 555.432081 91.011961 
L 555.763533 92.440289 
L 556.130997 93.868618 
L 556.530472 95.296947 
L 556.955944 96.725275 
L 557.399355 98.153604 
L 557.850728 99.581933 
L 558.298439 101.010262 
L 558.729654 102.43859 
L 559.130897 103.866919 
L 559.488735 105.295248 
L 559.790511 106.723577 
L 560.025091 108.151905 
L 560.18355 109.580234 
L 560.259749 111.008563 
L 560.250743 112.436892 
L 560.15699 113.86522 
L 559.982345 115.293549 
L 559.733832 116.721878 
L 559.421222 118.150207 
L 559.056454 119.578535 
L 558.652954 121.006864 
L 558.224907 122.435193 
L 557.786539 123.863522 
L 557.351478 125.29185 
L 556.932221 126.720179 
L 556.539739 128.148508 
L 556.183254 129.576837 
L 555.870156 131.005165 
L 555.606071 132.433494 
L 555.395043 133.861823 
L 555.239798 135.290152 
L 555.142064 136.71848 
L 555.102896 138.146809 
L 555.122998 139.575138 
L 555.202996 141.003466 
L 555.343652 142.431795 
L 555.546011 143.860124 
L 555.811457 145.288453 
L 556.141705 146.716781 
L 556.538694 148.14511 
L 557.004422 149.573439 
L 557.540709 151.001768 
L 558.148903 152.430096 
L 558.829544 153.858425 
L 559.581993 155.286754 
L 560.404047 156.715083 
L 561.29156 158.143411 
L 562.238083 159.57174 
L 563.234561 161.000069 
L 564.269114 162.428398 
L 565.326921 163.856726 
L 566.390266 165.285055 
L 567.43874 166.713384 
L 568.449656 168.141713 
L 569.398656 169.570041 
L 570.260529 170.99837 
L 571.0102 172.426699 
L 571.623858 173.855028 
L 572.08015 175.283356 
L 572.361368 176.711685 
L 572.454545 178.140014 
L 572.352354 179.568343 
L 572.053739 180.996671 
L 571.564209 182.425 
z
" clip-path="url(#pd3f66f4765)" style="fill: #1f77b4; fill-opacity: 0.3"/>
   </g>
   <g id="PolyCollection_8">
    <path d="M 628.978197 300.073582 
L 628.229076 300.073582 
L 628.174432 298.782373 
L 628.119191 297.491163 
L 628.064414 296.199954 
L 628.011035 294.908745 
L 627.9598 293.617536 
L 627.911225 292.326327 
L 627.865587 291.035118 
L 627.822945 289.743908 
L 627.783197 288.452699 
L 627.746151 287.16149 
L 627.711628 285.870281 
L 627.67956 284.579072 
L 627.650087 283.287862 
L 627.62363 281.996653 
L 627.600911 280.705444 
L 627.582915 279.414235 
L 627.570765 278.123026 
L 627.565509 276.831817 
L 627.567818 275.540607 
L 627.577626 274.249398 
L 627.593721 272.958189 
L 627.61336 271.66698 
L 627.631921 270.375771 
L 627.642675 269.084561 
L 627.636704 267.793352 
L 627.603041 266.502143 
L 627.529067 265.210934 
L 627.401235 263.919725 
L 627.206138 262.628516 
L 626.931951 261.337306 
L 626.570168 260.046097 
L 626.117508 258.754888 
L 625.577751 257.463679 
L 624.963198 256.17247 
L 624.295387 254.88126 
L 623.604745 253.590051 
L 622.928971 252.298842 
L 622.310134 251.007633 
L 621.790722 249.716424 
L 621.409127 248.425215 
L 621.195214 247.134005 
L 621.166684 245.842796 
L 621.326864 244.551587 
L 621.664299 243.260378 
L 622.154225 241.969169 
L 622.761662 240.677959 
L 623.445585 239.38675 
L 624.163462 238.095541 
L 624.875486 236.804332 
L 625.547896 235.513123 
L 626.155069 234.221913 
L 626.680277 232.930704 
L 627.115262 231.639495 
L 627.458942 230.348286 
L 627.715604 229.057077 
L 627.892969 227.765868 
L 628.000389 226.474658 
L 628.047371 225.183449 
L 628.042483 223.89224 
L 627.992623 222.601031 
L 627.902598 221.309822 
L 627.774919 220.018612 
L 627.609739 218.727403 
L 627.404919 217.436194 
L 627.156199 216.144985 
L 626.857527 214.853776 
L 626.501586 213.562567 
L 626.080567 212.271357 
L 625.587191 210.980148 
L 625.015936 209.688939 
L 624.364325 208.39773 
L 623.634095 207.106521 
L 622.831955 205.815311 
L 621.9697 204.524102 
L 621.063466 203.232893 
L 620.132092 201.941684 
L 619.194743 200.650475 
L 618.268198 199.359266 
L 617.3644 198.068056 
L 616.488935 196.776847 
L 615.641034 195.485638 
L 614.815408 194.194429 
L 614.005792 192.90322 
L 613.209608 191.61201 
L 612.432719 190.320801 
L 611.693077 189.029592 
L 611.022144 187.738383 
L 610.463397 186.447174 
L 610.067855 185.155965 
L 609.887273 183.864755 
L 609.966249 182.573546 
L 610.334766 181.282337 
L 611.002633 179.991128 
L 611.956882 178.699919 
L 613.162528 177.408709 
L 614.566418 176.1175 
L 616.103325 174.826291 
L 617.703114 173.535082 
L 619.297778 172.243873 
L 637.909495 172.243873 
L 637.909495 172.243873 
L 639.504159 173.535082 
L 641.103948 174.826291 
L 642.640854 176.1175 
L 644.044744 177.408709 
L 645.25039 178.699919 
L 646.204639 179.991128 
L 646.872506 181.282337 
L 647.241024 182.573546 
L 647.32 183.864755 
L 647.139418 185.155965 
L 646.743875 186.447174 
L 646.185129 187.738383 
L 645.514196 189.029592 
L 644.774553 190.320801 
L 643.997664 191.61201 
L 643.20148 192.90322 
L 642.391865 194.194429 
L 641.566238 195.485638 
L 640.718338 196.776847 
L 639.842873 198.068056 
L 638.939075 199.359266 
L 638.01253 200.650475 
L 637.07518 201.941684 
L 636.143807 203.232893 
L 635.237573 204.524102 
L 634.375317 205.815311 
L 633.573177 207.106521 
L 632.842947 208.39773 
L 632.191337 209.688939 
L 631.620081 210.980148 
L 631.126706 212.271357 
L 630.705687 213.562567 
L 630.349745 214.853776 
L 630.051073 216.144985 
L 629.802353 217.436194 
L 629.597533 218.727403 
L 629.432354 220.018612 
L 629.304674 221.309822 
L 629.21465 222.601031 
L 629.16479 223.89224 
L 629.159902 225.183449 
L 629.206884 226.474658 
L 629.314304 227.765868 
L 629.491668 229.057077 
L 629.748331 230.348286 
L 630.092011 231.639495 
L 630.526996 232.930704 
L 631.052203 234.221913 
L 631.659377 235.513123 
L 632.331787 236.804332 
L 633.04381 238.095541 
L 633.761688 239.38675 
L 634.44561 240.677959 
L 635.053048 241.969169 
L 635.542974 243.260378 
L 635.880409 244.551587 
L 636.040589 245.842796 
L 636.012059 247.134005 
L 635.798146 248.425215 
L 635.416551 249.716424 
L 634.897139 251.007633 
L 634.278301 252.298842 
L 633.602527 253.590051 
L 632.911885 254.88126 
L 632.244074 256.17247 
L 631.629522 257.463679 
L 631.089765 258.754888 
L 630.637104 260.046097 
L 630.275322 261.337306 
L 630.001135 262.628516 
L 629.806038 263.919725 
L 629.678205 265.210934 
L 629.604232 266.502143 
L 629.570569 267.793352 
L 629.564598 269.084561 
L 629.575351 270.375771 
L 629.593913 271.66698 
L 629.613552 272.958189 
L 629.629647 274.249398 
L 629.639454 275.540607 
L 629.641764 276.831817 
L 629.636507 278.123026 
L 629.624358 279.414235 
L 629.606362 280.705444 
L 629.583643 281.996653 
L 629.557186 283.287862 
L 629.527713 284.579072 
L 629.495645 285.870281 
L 629.461122 287.16149 
L 629.424076 288.452699 
L 629.384327 289.743908 
L 629.341686 291.035118 
L 629.296048 292.326327 
L 629.247472 293.617536 
L 629.196238 294.908745 
L 629.142859 296.199954 
L 629.088081 297.491163 
L 629.03284 298.782373 
L 628.978197 300.073582 
z
" clip-path="url(#pd3f66f4765)" style="fill: #1f77b4; fill-opacity: 0.3"/>
   </g>
   <g id="PolyCollection_9">
    <path d="M 711.789292 323.829545 
L 695.14889 323.829545 
L 695.080314 322.401217 
L 695.091799 320.972888 
L 695.182936 319.544559 
L 695.351048 318.11623 
L 695.591317 316.687902 
L 695.897006 315.259573 
L 696.259768 313.831244 
L 696.670019 312.402916 
L 697.117342 310.974587 
L 697.590908 309.546258 
L 698.079889 308.117929 
L 698.573835 306.689601 
L 699.062991 305.261272 
L 699.53856 303.832943 
L 699.992879 302.404614 
L 700.419527 300.976286 
L 700.813347 299.547957 
L 701.170409 298.119628 
L 701.487905 296.691299 
L 701.764012 295.262971 
L 701.997715 293.834642 
L 702.188622 292.406313 
L 702.336783 290.977984 
L 702.44252 289.549656 
L 702.506286 288.121327 
L 702.528563 286.692998 
L 702.509798 285.264669 
L 702.450394 283.836341 
L 702.350732 282.408012 
L 702.211252 280.979683 
L 702.032562 279.551354 
L 701.815573 278.123026 
L 701.56166 276.694697 
L 701.272818 275.266368 
L 700.951813 273.838039 
L 700.602309 272.409711 
L 700.228952 270.981382 
L 699.837411 269.553053 
L 699.434352 268.124725 
L 699.027353 266.696396 
L 698.624748 265.268067 
L 698.235405 263.839738 
L 697.868453 262.41141 
L 697.532962 260.983081 
L 697.237595 259.554752 
L 696.990256 258.126423 
L 696.797754 256.698095 
L 696.665493 255.269766 
L 696.597231 253.841437 
L 696.594898 252.413108 
L 696.658504 250.98478 
L 696.786135 249.556451 
L 696.974035 248.128122 
L 697.216772 246.699793 
L 697.507478 245.271465 
L 697.838133 243.843136 
L 698.199892 242.414807 
L 698.583421 240.986478 
L 698.979218 239.55815 
L 699.377914 238.129821 
L 699.770521 236.701492 
L 700.148626 235.273163 
L 700.504514 233.844835 
L 700.83123 232.416506 
L 701.122578 230.988177 
L 701.373053 229.559848 
L 701.577746 228.13152 
L 701.732205 226.703191 
L 701.8323 225.274862 
L 701.874086 223.846534 
L 701.85369 222.418205 
L 701.767252 220.989876 
L 701.610903 219.561547 
L 701.380821 218.133219 
L 701.073353 216.70489 
L 700.685204 215.276561 
L 700.213696 213.848232 
L 699.657077 212.419904 
L 699.014872 210.991575 
L 698.28825 209.563246 
L 697.480373 208.134917 
L 696.596727 206.706589 
L 695.645367 205.27826 
L 694.637081 203.849931 
L 693.58543 202.421602 
L 692.506648 200.993274 
L 691.419392 199.564945 
L 690.344337 198.136616 
L 689.303623 196.708287 
L 688.320174 195.279959 
L 687.416912 193.85163 
L 686.61591 192.423301 
L 685.937525 190.994972 
L 685.399556 189.566644 
L 685.016486 188.138315 
L 684.798844 186.709986 
L 684.752727 185.281657 
L 684.87953 183.853329 
L 685.175871 182.425 
L 721.76231 182.425 
L 721.76231 182.425 
L 722.058652 183.853329 
L 722.185455 185.281657 
L 722.139338 186.709986 
L 721.921695 188.138315 
L 721.538626 189.566644 
L 721.000657 190.994972 
L 720.322271 192.423301 
L 719.52127 193.85163 
L 718.618008 195.279959 
L 717.634559 196.708287 
L 716.593845 198.136616 
L 715.51879 199.564945 
L 714.431534 200.993274 
L 713.352752 202.421602 
L 712.301101 203.849931 
L 711.292815 205.27826 
L 710.341455 206.706589 
L 709.457809 208.134917 
L 708.649932 209.563246 
L 707.923309 210.991575 
L 707.281105 212.419904 
L 706.724486 213.848232 
L 706.252978 215.276561 
L 705.864829 216.70489 
L 705.55736 218.133219 
L 705.327279 219.561547 
L 705.17093 220.989876 
L 705.084491 222.418205 
L 705.064096 223.846534 
L 705.105882 225.274862 
L 705.205977 226.703191 
L 705.360436 228.13152 
L 705.565129 229.559848 
L 705.815604 230.988177 
L 706.106951 232.416506 
L 706.433668 233.844835 
L 706.789556 235.273163 
L 707.16766 236.701492 
L 707.560268 238.129821 
L 707.958964 239.55815 
L 708.354761 240.986478 
L 708.73829 242.414807 
L 709.100049 243.843136 
L 709.430704 245.271465 
L 709.72141 246.699793 
L 709.964147 248.128122 
L 710.152047 249.556451 
L 710.279677 250.98478 
L 710.343284 252.413108 
L 710.34095 253.841437 
L 710.272688 255.269766 
L 710.140428 256.698095 
L 709.947926 258.126423 
L 709.700587 259.554752 
L 709.40522 260.983081 
L 709.069729 262.41141 
L 708.702777 263.839738 
L 708.313434 265.268067 
L 707.910828 266.696396 
L 707.50383 268.124725 
L 707.100771 269.553053 
L 706.709229 270.981382 
L 706.335873 272.409711 
L 705.986369 273.838039 
L 705.665364 275.266368 
L 705.376522 276.694697 
L 705.122609 278.123026 
L 704.90562 279.551354 
L 704.726929 280.979683 
L 704.58745 282.408012 
L 704.487788 283.836341 
L 704.428383 285.264669 
L 704.409619 286.692998 
L 704.431896 288.121327 
L 704.495662 289.549656 
L 704.601399 290.977984 
L 704.74956 292.406313 
L 704.940467 293.834642 
L 705.17417 295.262971 
L 705.450277 296.691299 
L 705.767773 298.119628 
L 706.124835 299.547957 
L 706.518655 300.976286 
L 706.945303 302.404614 
L 707.399622 303.832943 
L 707.875191 305.261272 
L 708.364347 306.689601 
L 708.858292 308.117929 
L 709.347274 309.546258 
L 709.82084 310.974587 
L 710.268163 312.402916 
L 710.678414 313.831244 
L 711.041176 315.259573 
L 711.346865 316.687902 
L 711.587133 318.11623 
L 711.755246 319.544559 
L 711.846383 320.972888 
L 711.857868 322.401217 
L 711.789292 323.829545 
z
" clip-path="url(#pd3f66f4765)" style="fill: #1f77b4; fill-opacity: 0.3"/>
   </g>
   <g id="PolyCollection_10">
    <path d="M 778.836292 293.568973 
L 777.832799 293.568973 
L 777.758798 292.343467 
L 777.684135 291.117961 
L 777.610776 289.892455 
L 777.540708 288.666948 
L 777.475817 287.441442 
L 777.417758 286.215936 
L 777.367858 284.99043 
L 777.32704 283.764924 
L 777.295788 282.539418 
L 777.274152 281.313912 
L 777.261783 280.088406 
L 777.25799 278.8629 
L 777.261804 277.637394 
L 777.272015 276.411888 
L 777.287173 275.186382 
L 777.305532 273.960876 
L 777.324923 272.73537 
L 777.342558 271.509864 
L 777.354791 270.284358 
L 777.356852 269.058852 
L 777.342608 267.833345 
L 777.304422 266.607839 
L 777.233174 265.382333 
L 777.11853 264.156827 
L 776.949528 262.931321 
L 776.715522 261.705815 
L 776.407473 260.480309 
L 776.01951 259.254803 
L 775.550605 258.029297 
L 775.006125 256.803791 
L 774.398974 255.578285 
L 773.750044 254.352779 
L 773.087705 253.127273 
L 772.446248 251.901767 
L 771.863283 250.676261 
L 771.376355 249.450755 
L 771.019161 248.225248 
L 770.817908 246.999742 
L 770.788347 245.774236 
L 770.933958 244.54873 
L 771.245574 243.323224 
L 771.702504 242.097718 
L 772.274959 240.872212 
L 772.927396 239.646706 
L 773.622246 238.4212 
L 774.323493 237.195694 
L 774.999642 235.970188 
L 775.625757 234.744682 
L 776.184446 233.519176 
L 776.665839 232.29367 
L 777.066756 231.068164 
L 777.389325 229.842658 
L 777.639333 228.617152 
L 777.824577 227.391645 
L 777.953392 226.166139 
L 778.033472 224.940633 
L 778.071021 223.715127 
L 778.070227 222.489621 
L 778.033006 221.264115 
L 777.958964 220.038609 
L 777.845516 218.813103 
L 777.688141 217.587597 
L 777.48073 216.362091 
L 777.216064 215.136585 
L 776.886396 213.911079 
L 776.484173 212.685573 
L 776.002879 211.460067 
L 775.437972 210.234561 
L 774.787839 209.009055 
L 774.054657 207.783548 
L 773.245007 206.558042 
L 772.370068 205.332536 
L 771.44525 204.10703 
L 770.489164 202.881524 
L 769.521959 201.656018 
L 768.563177 200.430512 
L 767.629455 199.205006 
L 766.7325 197.9795 
L 765.87785 196.753994 
L 765.064815 195.528488 
L 764.287886 194.302982 
L 763.539521 193.077476 
L 762.81394 191.85197 
L 762.111209 190.626464 
L 761.440723 189.400958 
L 760.823187 188.175452 
L 760.290444 186.949945 
L 759.882899 185.724439 
L 759.644809 184.498933 
L 759.618182 183.273427 
L 759.836377 182.047921 
L 760.318581 180.822415 
L 761.066152 179.596909 
L 762.061463 178.371403 
L 763.269355 177.145897 
L 764.640832 175.920391 
L 766.118262 174.694885 
L 767.641175 173.469379 
L 769.151764 172.243873 
L 787.517327 172.243873 
L 787.517327 172.243873 
L 789.027916 173.469379 
L 790.550829 174.694885 
L 792.028259 175.920391 
L 793.399735 177.145897 
L 794.607628 178.371403 
L 795.602939 179.596909 
L 796.35051 180.822415 
L 796.832714 182.047921 
L 797.050909 183.273427 
L 797.024282 184.498933 
L 796.786192 185.724439 
L 796.378647 186.949945 
L 795.845904 188.175452 
L 795.228368 189.400958 
L 794.557882 190.626464 
L 793.855151 191.85197 
L 793.12957 193.077476 
L 792.381205 194.302982 
L 791.604276 195.528488 
L 790.791241 196.753994 
L 789.93659 197.9795 
L 789.039636 199.205006 
L 788.105914 200.430512 
L 787.147132 201.656018 
L 786.179927 202.881524 
L 785.223841 204.10703 
L 784.299023 205.332536 
L 783.424084 206.558042 
L 782.614433 207.783548 
L 781.881252 209.009055 
L 781.231119 210.234561 
L 780.666212 211.460067 
L 780.184918 212.685573 
L 779.782695 213.911079 
L 779.453027 215.136585 
L 779.188361 216.362091 
L 778.98095 217.587597 
L 778.823574 218.813103 
L 778.710127 220.038609 
L 778.636085 221.264115 
L 778.598864 222.489621 
L 778.59807 223.715127 
L 778.635619 224.940633 
L 778.715699 226.166139 
L 778.844514 227.391645 
L 779.029758 228.617152 
L 779.279766 229.842658 
L 779.602334 231.068164 
L 780.003252 232.29367 
L 780.484645 233.519176 
L 781.043334 234.744682 
L 781.669449 235.970188 
L 782.345598 237.195694 
L 783.046845 238.4212 
L 783.741695 239.646706 
L 784.394132 240.872212 
L 784.966587 242.097718 
L 785.423517 243.323224 
L 785.735133 244.54873 
L 785.880744 245.774236 
L 785.851183 246.999742 
L 785.64993 248.225248 
L 785.292736 249.450755 
L 784.805808 250.676261 
L 784.222843 251.901767 
L 783.581386 253.127273 
L 782.919047 254.352779 
L 782.270116 255.578285 
L 781.662966 256.803791 
L 781.118486 258.029297 
L 780.649581 259.254803 
L 780.261618 260.480309 
L 779.953569 261.705815 
L 779.719563 262.931321 
L 779.550561 264.156827 
L 779.435917 265.382333 
L 779.364669 266.607839 
L 779.326483 267.833345 
L 779.312239 269.058852 
L 779.3143 270.284358 
L 779.326533 271.509864 
L 779.344168 272.73537 
L 779.363559 273.960876 
L 779.381918 275.186382 
L 779.397076 276.411888 
L 779.407287 277.637394 
L 779.4111 278.8629 
L 779.407308 280.088406 
L 779.394938 281.313912 
L 779.373303 282.539418 
L 779.342051 283.764924 
L 779.301233 284.99043 
L 779.251333 286.215936 
L 779.193274 287.441442 
L 779.128383 288.666948 
L 779.058315 289.892455 
L 778.984956 291.117961 
L 778.910293 292.343467 
L 778.836292 293.568973 
z
" clip-path="url(#pd3f66f4765)" style="fill: #1f77b4; fill-opacity: 0.3"/>
   </g>
   <g id="matplotlib.axis_1">
    <g id="xtick_1">
     <g id="line2d_1">
      <defs>
       <path id="m19c11be5d5" d="M 0 0 
L 0 3.5 
" style="stroke: #000000; stroke-width: 0.8"/>
      </defs>
      <g>
       <use xlink:href="#m19c11be5d5" x="104.545455" y="337.97" style="stroke: #000000; stroke-width: 0.8"/>
      </g>
     </g>
     <g id="text_1">
      <!-- Tit For Tat -->
      <g transform="translate(106.752955 384.15)rotate(-90)scale(0.08 -0.08)">
       <defs>
        <path id="DejaVuSans-54" d="M -19 4666 
L 3928 4666 
L 3928 4134 
L 2272 4134 
L 2272 0 
L 1638 0 
L 1638 4134 
L -19 4134 
L -19 4666 
z
" transform="scale(0.015625)"/>
        <path id="DejaVuSans-69" d="M 603 3500 
L 1178 3500 
L 1178 0 
L 603 0 
L 603 3500 
z
M 603 4863 
L 1178 4863 
L 1178 4134 
L 603 4134 
L 603 4863 
z
" transform="scale(0.015625)"/>
        <path id="DejaVuSans-74" d="M 1172 4494 
L 1172 3500 
L 2356 3500 
L 2356 3053 
L 1172 3053 
L 1172 1153 
Q 1172 725 1289 603 
Q 1406 481 1766 481 
L 2356 481 
L 2356 0 
L 1766 0 
Q 1100 0 847 248 
Q 594 497 594 1153 
L 594 3053 
L 172 3053 
L 172 3500 
L 594 3500 
L 594 4494 
L 1172 4494 
z
" transform="scale(0.015625)"/>
        <path id="DejaVuSans-20" transform="scale(0.015625)"/>
        <path id="DejaVuSans-46" d="M 628 4666 
L 3309 4666 
L 3309 4134 
L 1259 4134 
L 1259 2759 
L 3109 2759 
L 3109 2228 
L 1259 2228 
L 1259 0 
L 628 0 
L 628 4666 
z
" transform="scale(0.015625)"/>
        <path id="DejaVuSans-6f" d="M 1959 3097 
Q 1497 3097 1228 2736 
Q 959 2375 959 1747 
Q 959 1119 1226 758 
Q 1494 397 1959 397 
Q 2419 397 2687 759 
Q 2956 1122 2956 1747 
Q 2956 2369 2687 2733 
Q 2419 3097 1959 3097 
z
M 1959 3584 
Q 2709 3584 3137 3096 
Q 3566 2609 3566 1747 
Q 3566 888 3137 398 
Q 2709 -91 1959 -91 
Q 1206 -91 779 398 
Q 353 888 353 1747 
Q 353 2609 779 3096 
Q 1206 3584 1959 3584 
z
" transform="scale(0.015625)"/>
        <path id="DejaVuSans-72" d="M 2631 2963 
Q 2534 3019 2420 3045 
Q 2306 3072 2169 3072 
Q 1681 3072 1420 2755 
Q 1159 2438 1159 1844 
L 1159 0 
L 581 0 
L 581 3500 
L 1159 3500 
L 1159 2956 
Q 1341 3275 1631 3429 
Q 1922 3584 2338 3584 
Q 2397 3584 2469 3576 
Q 2541 3569 2628 3553 
L 2631 2963 
z
" transform="scale(0.015625)"/>
        <path id="DejaVuSans-61" d="M 2194 1759 
Q 1497 1759 1228 1600 
Q 959 1441 959 1056 
Q 959 750 1161 570 
Q 1363 391 1709 391 
Q 2188 391 2477 730 
Q 2766 1069 2766 1631 
L 2766 1759 
L 2194 1759 
z
M 3341 1997 
L 3341 0 
L 2766 0 
L 2766 531 
Q 2569 213 2275 61 
Q 1981 -91 1556 -91 
Q 1019 -91 701 211 
Q 384 513 384 1019 
Q 384 1609 779 1909 
Q 1175 2209 1959 2209 
L 2766 2209 
L 2766 2266 
Q 2766 2663 2505 2880 
Q 2244 3097 1772 3097 
Q 1472 3097 1187 3025 
Q 903 2953 641 2809 
L 641 3341 
Q 956 3463 1253 3523 
Q 1550 3584 1831 3584 
Q 2591 3584 2966 3190 
Q 3341 2797 3341 1997 
z
" transform="scale(0.015625)"/>
       </defs>
       <use xlink:href="#DejaVuSans-54"/>
       <use xlink:href="#DejaVuSans-69" x="57.958984"/>
       <use xlink:href="#DejaVuSans-74" x="85.742188"/>
       <use xlink:href="#DejaVuSans-20" x="124.951172"/>
       <use xlink:href="#DejaVuSans-46" x="156.738281"/>
       <use xlink:href="#DejaVuSans-6f" x="210.632812"/>
       <use xlink:href="#DejaVuSans-72" x="271.814453"/>
       <use xlink:href="#DejaVuSans-20" x="312.927734"/>
       <use xlink:href="#DejaVuSans-54" x="344.714844"/>
       <use xlink:href="#DejaVuSans-61" x="389.298828"/>
       <use xlink:href="#DejaVuSans-74" x="450.578125"/>
      </g>
     </g>
    </g>
    <g id="xtick_2">
     <g id="line2d_2">
      <g>
       <use xlink:href="#m19c11be5d5" x="179.410909" y="337.97" style="stroke: #000000; stroke-width: 0.8"/>
      </g>
     </g>
     <g id="text_2">
      <!-- Grudger -->
      <g transform="translate(181.618409 377.89625)rotate(-90)scale(0.08 -0.08)">
       <defs>
        <path id="DejaVuSans-47" d="M 3809 666 
L 3809 1919 
L 2778 1919 
L 2778 2438 
L 4434 2438 
L 4434 434 
Q 4069 175 3628 42 
Q 3188 -91 2688 -91 
Q 1594 -91 976 548 
Q 359 1188 359 2328 
Q 359 3472 976 4111 
Q 1594 4750 2688 4750 
Q 3144 4750 3555 4637 
Q 3966 4525 4313 4306 
L 4313 3634 
Q 3963 3931 3569 4081 
Q 3175 4231 2741 4231 
Q 1884 4231 1454 3753 
Q 1025 3275 1025 2328 
Q 1025 1384 1454 906 
Q 1884 428 2741 428 
Q 3075 428 3337 486 
Q 3600 544 3809 666 
z
" transform="scale(0.015625)"/>
        <path id="DejaVuSans-75" d="M 544 1381 
L 544 3500 
L 1119 3500 
L 1119 1403 
Q 1119 906 1312 657 
Q 1506 409 1894 409 
Q 2359 409 2629 706 
Q 2900 1003 2900 1516 
L 2900 3500 
L 3475 3500 
L 3475 0 
L 2900 0 
L 2900 538 
Q 2691 219 2414 64 
Q 2138 -91 1772 -91 
Q 1169 -91 856 284 
Q 544 659 544 1381 
z
M 1991 3584 
L 1991 3584 
z
" transform="scale(0.015625)"/>
        <path id="DejaVuSans-64" d="M 2906 2969 
L 2906 4863 
L 3481 4863 
L 3481 0 
L 2906 0 
L 2906 525 
Q 2725 213 2448 61 
Q 2172 -91 1784 -91 
Q 1150 -91 751 415 
Q 353 922 353 1747 
Q 353 2572 751 3078 
Q 1150 3584 1784 3584 
Q 2172 3584 2448 3432 
Q 2725 3281 2906 2969 
z
M 947 1747 
Q 947 1113 1208 752 
Q 1469 391 1925 391 
Q 2381 391 2643 752 
Q 2906 1113 2906 1747 
Q 2906 2381 2643 2742 
Q 2381 3103 1925 3103 
Q 1469 3103 1208 2742 
Q 947 2381 947 1747 
z
" transform="scale(0.015625)"/>
        <path id="DejaVuSans-67" d="M 2906 1791 
Q 2906 2416 2648 2759 
Q 2391 3103 1925 3103 
Q 1463 3103 1205 2759 
Q 947 2416 947 1791 
Q 947 1169 1205 825 
Q 1463 481 1925 481 
Q 2391 481 2648 825 
Q 2906 1169 2906 1791 
z
M 3481 434 
Q 3481 -459 3084 -895 
Q 2688 -1331 1869 -1331 
Q 1566 -1331 1297 -1286 
Q 1028 -1241 775 -1147 
L 775 -588 
Q 1028 -725 1275 -790 
Q 1522 -856 1778 -856 
Q 2344 -856 2625 -561 
Q 2906 -266 2906 331 
L 2906 616 
Q 2728 306 2450 153 
Q 2172 0 1784 0 
Q 1141 0 747 490 
Q 353 981 353 1791 
Q 353 2603 747 3093 
Q 1141 3584 1784 3584 
Q 2172 3584 2450 3431 
Q 2728 3278 2906 2969 
L 2906 3500 
L 3481 3500 
L 3481 434 
z
" transform="scale(0.015625)"/>
        <path id="DejaVuSans-65" d="M 3597 1894 
L 3597 1613 
L 953 1613 
Q 991 1019 1311 708 
Q 1631 397 2203 397 
Q 2534 397 2845 478 
Q 3156 559 3463 722 
L 3463 178 
Q 3153 47 2828 -22 
Q 2503 -91 2169 -91 
Q 1331 -91 842 396 
Q 353 884 353 1716 
Q 353 2575 817 3079 
Q 1281 3584 2069 3584 
Q 2775 3584 3186 3129 
Q 3597 2675 3597 1894 
z
M 3022 2063 
Q 3016 2534 2758 2815 
Q 2500 3097 2075 3097 
Q 1594 3097 1305 2825 
Q 1016 2553 972 2059 
L 3022 2063 
z
" transform="scale(0.015625)"/>
       </defs>
       <use xlink:href="#DejaVuSans-47"/>
       <use xlink:href="#DejaVuSans-72" x="77.490234"/>
       <use xlink:href="#DejaVuSans-75" x="118.603516"/>
       <use xlink:href="#DejaVuSans-64" x="181.982422"/>
       <use xlink:href="#DejaVuSans-67" x="245.458984"/>
       <use xlink:href="#DejaVuSans-65" x="308.935547"/>
       <use xlink:href="#DejaVuSans-72" x="370.458984"/>
      </g>
     </g>
    </g>
    <g id="xtick_3">
     <g id="line2d_3">
      <g>
       <use xlink:href="#m19c11be5d5" x="254.276364" y="337.97" style="stroke: #000000; stroke-width: 0.8"/>
      </g>
     </g>
     <g id="text_3">
      <!-- Alternator -->
      <g transform="translate(256.483864 385.165)rotate(-90)scale(0.08 -0.08)">
       <defs>
        <path id="DejaVuSans-41" d="M 2188 4044 
L 1331 1722 
L 3047 1722 
L 2188 4044 
z
M 1831 4666 
L 2547 4666 
L 4325 0 
L 3669 0 
L 3244 1197 
L 1141 1197 
L 716 0 
L 50 0 
L 1831 4666 
z
" transform="scale(0.015625)"/>
        <path id="DejaVuSans-6c" d="M 603 4863 
L 1178 4863 
L 1178 0 
L 603 0 
L 603 4863 
z
" transform="scale(0.015625)"/>
        <path id="DejaVuSans-6e" d="M 3513 2113 
L 3513 0 
L 2938 0 
L 2938 2094 
Q 2938 2591 2744 2837 
Q 2550 3084 2163 3084 
Q 1697 3084 1428 2787 
Q 1159 2491 1159 1978 
L 1159 0 
L 581 0 
L 581 3500 
L 1159 3500 
L 1159 2956 
Q 1366 3272 1645 3428 
Q 1925 3584 2291 3584 
Q 2894 3584 3203 3211 
Q 3513 2838 3513 2113 
z
" transform="scale(0.015625)"/>
       </defs>
       <use xlink:href="#DejaVuSans-41"/>
       <use xlink:href="#DejaVuSans-6c" x="68.408203"/>
       <use xlink:href="#DejaVuSans-74" x="96.191406"/>
       <use xlink:href="#DejaVuSans-65" x="135.400391"/>
       <use xlink:href="#DejaVuSans-72" x="196.923828"/>
       <use xlink:href="#DejaVuSans-6e" x="236.287109"/>
       <use xlink:href="#DejaVuSans-61" x="299.666016"/>
       <use xlink:href="#DejaVuSans-74" x="360.945312"/>
       <use xlink:href="#DejaVuSans-6f" x="400.154297"/>
       <use xlink:href="#DejaVuSans-72" x="461.335938"/>
      </g>
     </g>
    </g>
    <g id="xtick_4">
     <g id="line2d_4">
      <g>
       <use xlink:href="#m19c11be5d5" x="329.141818" y="337.97" style="stroke: #000000; stroke-width: 0.8"/>
      </g>
     </g>
     <g id="text_4">
      <!-- Random: 0.5 -->
      <g transform="translate(331.349318 396.0475)rotate(-90)scale(0.08 -0.08)">
       <defs>
        <path id="DejaVuSans-52" d="M 2841 2188 
Q 3044 2119 3236 1894 
Q 3428 1669 3622 1275 
L 4263 0 
L 3584 0 
L 2988 1197 
Q 2756 1666 2539 1819 
Q 2322 1972 1947 1972 
L 1259 1972 
L 1259 0 
L 628 0 
L 628 4666 
L 2053 4666 
Q 2853 4666 3247 4331 
Q 3641 3997 3641 3322 
Q 3641 2881 3436 2590 
Q 3231 2300 2841 2188 
z
M 1259 4147 
L 1259 2491 
L 2053 2491 
Q 2509 2491 2742 2702 
Q 2975 2913 2975 3322 
Q 2975 3731 2742 3939 
Q 2509 4147 2053 4147 
L 1259 4147 
z
" transform="scale(0.015625)"/>
        <path id="DejaVuSans-6d" d="M 3328 2828 
Q 3544 3216 3844 3400 
Q 4144 3584 4550 3584 
Q 5097 3584 5394 3201 
Q 5691 2819 5691 2113 
L 5691 0 
L 5113 0 
L 5113 2094 
Q 5113 2597 4934 2840 
Q 4756 3084 4391 3084 
Q 3944 3084 3684 2787 
Q 3425 2491 3425 1978 
L 3425 0 
L 2847 0 
L 2847 2094 
Q 2847 2600 2669 2842 
Q 2491 3084 2119 3084 
Q 1678 3084 1418 2786 
Q 1159 2488 1159 1978 
L 1159 0 
L 581 0 
L 581 3500 
L 1159 3500 
L 1159 2956 
Q 1356 3278 1631 3431 
Q 1906 3584 2284 3584 
Q 2666 3584 2933 3390 
Q 3200 3197 3328 2828 
z
" transform="scale(0.015625)"/>
        <path id="DejaVuSans-3a" d="M 750 794 
L 1409 794 
L 1409 0 
L 750 0 
L 750 794 
z
M 750 3309 
L 1409 3309 
L 1409 2516 
L 750 2516 
L 750 3309 
z
" transform="scale(0.015625)"/>
        <path id="DejaVuSans-30" d="M 2034 4250 
Q 1547 4250 1301 3770 
Q 1056 3291 1056 2328 
Q 1056 1369 1301 889 
Q 1547 409 2034 409 
Q 2525 409 2770 889 
Q 3016 1369 3016 2328 
Q 3016 3291 2770 3770 
Q 2525 4250 2034 4250 
z
M 2034 4750 
Q 2819 4750 3233 4129 
Q 3647 3509 3647 2328 
Q 3647 1150 3233 529 
Q 2819 -91 2034 -91 
Q 1250 -91 836 529 
Q 422 1150 422 2328 
Q 422 3509 836 4129 
Q 1250 4750 2034 4750 
z
" transform="scale(0.015625)"/>
        <path id="DejaVuSans-2e" d="M 684 794 
L 1344 794 
L 1344 0 
L 684 0 
L 684 794 
z
" transform="scale(0.015625)"/>
        <path id="DejaVuSans-35" d="M 691 4666 
L 3169 4666 
L 3169 4134 
L 1269 4134 
L 1269 2991 
Q 1406 3038 1543 3061 
Q 1681 3084 1819 3084 
Q 2600 3084 3056 2656 
Q 3513 2228 3513 1497 
Q 3513 744 3044 326 
Q 2575 -91 1722 -91 
Q 1428 -91 1123 -41 
Q 819 9 494 109 
L 494 744 
Q 775 591 1075 516 
Q 1375 441 1709 441 
Q 2250 441 2565 725 
Q 2881 1009 2881 1497 
Q 2881 1984 2565 2268 
Q 2250 2553 1709 2553 
Q 1456 2553 1204 2497 
Q 953 2441 691 2322 
L 691 4666 
z
" transform="scale(0.015625)"/>
       </defs>
       <use xlink:href="#DejaVuSans-52"/>
       <use xlink:href="#DejaVuSans-61" x="67.232422"/>
       <use xlink:href="#DejaVuSans-6e" x="128.511719"/>
       <use xlink:href="#DejaVuSans-64" x="191.890625"/>
       <use xlink:href="#DejaVuSans-6f" x="255.367188"/>
       <use xlink:href="#DejaVuSans-6d" x="316.548828"/>
       <use xlink:href="#DejaVuSans-3a" x="413.960938"/>
       <use xlink:href="#DejaVuSans-20" x="447.652344"/>
       <use xlink:href="#DejaVuSans-30" x="479.439453"/>
       <use xlink:href="#DejaVuSans-2e" x="543.0625"/>
       <use xlink:href="#DejaVuSans-35" x="574.849609"/>
      </g>
     </g>
    </g>
    <g id="xtick_5">
     <g id="line2d_5">
      <g>
       <use xlink:href="#m19c11be5d5" x="404.007273" y="337.97" style="stroke: #000000; stroke-width: 0.8"/>
      </g>
     </g>
     <g id="text_5">
      <!-- Adaptive -->
      <g transform="translate(406.214773 380.37875)rotate(-90)scale(0.08 -0.08)">
       <defs>
        <path id="DejaVuSans-70" d="M 1159 525 
L 1159 -1331 
L 581 -1331 
L 581 3500 
L 1159 3500 
L 1159 2969 
Q 1341 3281 1617 3432 
Q 1894 3584 2278 3584 
Q 2916 3584 3314 3078 
Q 3713 2572 3713 1747 
Q 3713 922 3314 415 
Q 2916 -91 2278 -91 
Q 1894 -91 1617 61 
Q 1341 213 1159 525 
z
M 3116 1747 
Q 3116 2381 2855 2742 
Q 2594 3103 2138 3103 
Q 1681 3103 1420 2742 
Q 1159 2381 1159 1747 
Q 1159 1113 1420 752 
Q 1681 391 2138 391 
Q 2594 391 2855 752 
Q 3116 1113 3116 1747 
z
" transform="scale(0.015625)"/>
        <path id="DejaVuSans-76" d="M 191 3500 
L 800 3500 
L 1894 563 
L 2988 3500 
L 3597 3500 
L 2284 0 
L 1503 0 
L 191 3500 
z
" transform="scale(0.015625)"/>
       </defs>
       <use xlink:href="#DejaVuSans-41"/>
       <use xlink:href="#DejaVuSans-64" x="66.658203"/>
       <use xlink:href="#DejaVuSans-61" x="130.134766"/>
       <use xlink:href="#DejaVuSans-70" x="191.414062"/>
       <use xlink:href="#DejaVuSans-74" x="254.890625"/>
       <use xlink:href="#DejaVuSans-69" x="294.099609"/>
       <use xlink:href="#DejaVuSans-76" x="321.882812"/>
       <use xlink:href="#DejaVuSans-65" x="381.0625"/>
      </g>
     </g>
    </g>
    <g id="xtick_6">
     <g id="line2d_6">
      <g>
       <use xlink:href="#m19c11be5d5" x="478.872727" y="337.97" style="stroke: #000000; stroke-width: 0.8"/>
      </g>
     </g>
     <g id="text_6">
      <!-- Deep QLearner -->
      <g transform="translate(481.080227 405.46625)rotate(-90)scale(0.08 -0.08)">
       <defs>
        <path id="DejaVuSans-44" d="M 1259 4147 
L 1259 519 
L 2022 519 
Q 2988 519 3436 956 
Q 3884 1394 3884 2338 
Q 3884 3275 3436 3711 
Q 2988 4147 2022 4147 
L 1259 4147 
z
M 628 4666 
L 1925 4666 
Q 3281 4666 3915 4102 
Q 4550 3538 4550 2338 
Q 4550 1131 3912 565 
Q 3275 0 1925 0 
L 628 0 
L 628 4666 
z
" transform="scale(0.015625)"/>
        <path id="DejaVuSans-51" d="M 2522 4238 
Q 1834 4238 1429 3725 
Q 1025 3213 1025 2328 
Q 1025 1447 1429 934 
Q 1834 422 2522 422 
Q 3209 422 3611 934 
Q 4013 1447 4013 2328 
Q 4013 3213 3611 3725 
Q 3209 4238 2522 4238 
z
M 3406 84 
L 4238 -825 
L 3475 -825 
L 2784 -78 
Q 2681 -84 2626 -87 
Q 2572 -91 2522 -91 
Q 1538 -91 948 567 
Q 359 1225 359 2328 
Q 359 3434 948 4092 
Q 1538 4750 2522 4750 
Q 3503 4750 4090 4092 
Q 4678 3434 4678 2328 
Q 4678 1516 4351 937 
Q 4025 359 3406 84 
z
" transform="scale(0.015625)"/>
        <path id="DejaVuSans-4c" d="M 628 4666 
L 1259 4666 
L 1259 531 
L 3531 531 
L 3531 0 
L 628 0 
L 628 4666 
z
" transform="scale(0.015625)"/>
       </defs>
       <use xlink:href="#DejaVuSans-44"/>
       <use xlink:href="#DejaVuSans-65" x="77.001953"/>
       <use xlink:href="#DejaVuSans-65" x="138.525391"/>
       <use xlink:href="#DejaVuSans-70" x="200.048828"/>
       <use xlink:href="#DejaVuSans-20" x="263.525391"/>
       <use xlink:href="#DejaVuSans-51" x="295.3125"/>
       <use xlink:href="#DejaVuSans-4c" x="374.023438"/>
       <use xlink:href="#DejaVuSans-65" x="427.986328"/>
       <use xlink:href="#DejaVuSans-61" x="489.509766"/>
       <use xlink:href="#DejaVuSans-72" x="550.789062"/>
       <use xlink:href="#DejaVuSans-6e" x="590.152344"/>
       <use xlink:href="#DejaVuSans-65" x="653.53125"/>
       <use xlink:href="#DejaVuSans-72" x="715.054688"/>
      </g>
     </g>
    </g>
    <g id="xtick_7">
     <g id="line2d_7">
      <g>
       <use xlink:href="#m19c11be5d5" x="553.738182" y="337.97" style="stroke: #000000; stroke-width: 0.8"/>
      </g>
     </g>
     <g id="text_7">
      <!-- Defector -->
      <g transform="translate(555.945682 379.51)rotate(-90)scale(0.08 -0.08)">
       <defs>
        <path id="DejaVuSans-66" d="M 2375 4863 
L 2375 4384 
L 1825 4384 
Q 1516 4384 1395 4259 
Q 1275 4134 1275 3809 
L 1275 3500 
L 2222 3500 
L 2222 3053 
L 1275 3053 
L 1275 0 
L 697 0 
L 697 3053 
L 147 3053 
L 147 3500 
L 697 3500 
L 697 3744 
Q 697 4328 969 4595 
Q 1241 4863 1831 4863 
L 2375 4863 
z
" transform="scale(0.015625)"/>
        <path id="DejaVuSans-63" d="M 3122 3366 
L 3122 2828 
Q 2878 2963 2633 3030 
Q 2388 3097 2138 3097 
Q 1578 3097 1268 2742 
Q 959 2388 959 1747 
Q 959 1106 1268 751 
Q 1578 397 2138 397 
Q 2388 397 2633 464 
Q 2878 531 3122 666 
L 3122 134 
Q 2881 22 2623 -34 
Q 2366 -91 2075 -91 
Q 1284 -91 818 406 
Q 353 903 353 1747 
Q 353 2603 823 3093 
Q 1294 3584 2113 3584 
Q 2378 3584 2631 3529 
Q 2884 3475 3122 3366 
z
" transform="scale(0.015625)"/>
       </defs>
       <use xlink:href="#DejaVuSans-44"/>
       <use xlink:href="#DejaVuSans-65" x="77.001953"/>
       <use xlink:href="#DejaVuSans-66" x="138.525391"/>
       <use xlink:href="#DejaVuSans-65" x="173.730469"/>
       <use xlink:href="#DejaVuSans-63" x="235.253906"/>
       <use xlink:href="#DejaVuSans-74" x="290.234375"/>
       <use xlink:href="#DejaVuSans-6f" x="329.443359"/>
       <use xlink:href="#DejaVuSans-72" x="390.625"/>
      </g>
     </g>
    </g>
    <g id="xtick_8">
     <g id="line2d_8">
      <g>
       <use xlink:href="#m19c11be5d5" x="628.603636" y="337.97" style="stroke: #000000; stroke-width: 0.8"/>
      </g>
     </g>
     <g id="text_8">
      <!-- Risky QLearner -->
      <g transform="translate(630.811136 405.40875)rotate(-90)scale(0.08 -0.08)">
       <defs>
        <path id="DejaVuSans-73" d="M 2834 3397 
L 2834 2853 
Q 2591 2978 2328 3040 
Q 2066 3103 1784 3103 
Q 1356 3103 1142 2972 
Q 928 2841 928 2578 
Q 928 2378 1081 2264 
Q 1234 2150 1697 2047 
L 1894 2003 
Q 2506 1872 2764 1633 
Q 3022 1394 3022 966 
Q 3022 478 2636 193 
Q 2250 -91 1575 -91 
Q 1294 -91 989 -36 
Q 684 19 347 128 
L 347 722 
Q 666 556 975 473 
Q 1284 391 1588 391 
Q 1994 391 2212 530 
Q 2431 669 2431 922 
Q 2431 1156 2273 1281 
Q 2116 1406 1581 1522 
L 1381 1569 
Q 847 1681 609 1914 
Q 372 2147 372 2553 
Q 372 3047 722 3315 
Q 1072 3584 1716 3584 
Q 2034 3584 2315 3537 
Q 2597 3491 2834 3397 
z
" transform="scale(0.015625)"/>
        <path id="DejaVuSans-6b" d="M 581 4863 
L 1159 4863 
L 1159 1991 
L 2875 3500 
L 3609 3500 
L 1753 1863 
L 3688 0 
L 2938 0 
L 1159 1709 
L 1159 0 
L 581 0 
L 581 4863 
z
" transform="scale(0.015625)"/>
        <path id="DejaVuSans-79" d="M 2059 -325 
Q 1816 -950 1584 -1140 
Q 1353 -1331 966 -1331 
L 506 -1331 
L 506 -850 
L 844 -850 
Q 1081 -850 1212 -737 
Q 1344 -625 1503 -206 
L 1606 56 
L 191 3500 
L 800 3500 
L 1894 763 
L 2988 3500 
L 3597 3500 
L 2059 -325 
z
" transform="scale(0.015625)"/>
       </defs>
       <use xlink:href="#DejaVuSans-52"/>
       <use xlink:href="#DejaVuSans-69" x="69.482422"/>
       <use xlink:href="#DejaVuSans-73" x="97.265625"/>
       <use xlink:href="#DejaVuSans-6b" x="149.365234"/>
       <use xlink:href="#DejaVuSans-79" x="203.650391"/>
       <use xlink:href="#DejaVuSans-20" x="262.830078"/>
       <use xlink:href="#DejaVuSans-51" x="294.617188"/>
       <use xlink:href="#DejaVuSans-4c" x="373.328125"/>
       <use xlink:href="#DejaVuSans-65" x="427.291016"/>
       <use xlink:href="#DejaVuSans-61" x="488.814453"/>
       <use xlink:href="#DejaVuSans-72" x="550.09375"/>
       <use xlink:href="#DejaVuSans-6e" x="589.457031"/>
       <use xlink:href="#DejaVuSans-65" x="652.835938"/>
       <use xlink:href="#DejaVuSans-72" x="714.359375"/>
      </g>
     </g>
    </g>
    <g id="xtick_9">
     <g id="line2d_9">
      <g>
       <use xlink:href="#m19c11be5d5" x="703.469091" y="337.97" style="stroke: #000000; stroke-width: 0.8"/>
      </g>
     </g>
     <g id="text_9">
      <!-- Cooperator -->
      <g transform="translate(705.676591 389.85875)rotate(-90)scale(0.08 -0.08)">
       <defs>
        <path id="DejaVuSans-43" d="M 4122 4306 
L 4122 3641 
Q 3803 3938 3442 4084 
Q 3081 4231 2675 4231 
Q 1875 4231 1450 3742 
Q 1025 3253 1025 2328 
Q 1025 1406 1450 917 
Q 1875 428 2675 428 
Q 3081 428 3442 575 
Q 3803 722 4122 1019 
L 4122 359 
Q 3791 134 3420 21 
Q 3050 -91 2638 -91 
Q 1578 -91 968 557 
Q 359 1206 359 2328 
Q 359 3453 968 4101 
Q 1578 4750 2638 4750 
Q 3056 4750 3426 4639 
Q 3797 4528 4122 4306 
z
" transform="scale(0.015625)"/>
       </defs>
       <use xlink:href="#DejaVuSans-43"/>
       <use xlink:href="#DejaVuSans-6f" x="69.824219"/>
       <use xlink:href="#DejaVuSans-6f" x="131.005859"/>
       <use xlink:href="#DejaVuSans-70" x="192.1875"/>
       <use xlink:href="#DejaVuSans-65" x="255.664062"/>
       <use xlink:href="#DejaVuSans-72" x="317.1875"/>
       <use xlink:href="#DejaVuSans-61" x="358.300781"/>
       <use xlink:href="#DejaVuSans-74" x="419.580078"/>
       <use xlink:href="#DejaVuSans-6f" x="458.789062"/>
       <use xlink:href="#DejaVuSans-72" x="519.970703"/>
      </g>
     </g>
    </g>
    <g id="xtick_10">
     <g id="line2d_10">
      <g>
       <use xlink:href="#m19c11be5d5" x="778.334545" y="337.97" style="stroke: #000000; stroke-width: 0.8"/>
      </g>
     </g>
     <g id="text_10">
      <!-- Mediocre QLearner -->
      <g transform="translate(780.542045 420.83375)rotate(-90)scale(0.08 -0.08)">
       <defs>
        <path id="DejaVuSans-4d" d="M 628 4666 
L 1569 4666 
L 2759 1491 
L 3956 4666 
L 4897 4666 
L 4897 0 
L 4281 0 
L 4281 4097 
L 3078 897 
L 2444 897 
L 1241 4097 
L 1241 0 
L 628 0 
L 628 4666 
z
" transform="scale(0.015625)"/>
       </defs>
       <use xlink:href="#DejaVuSans-4d"/>
       <use xlink:href="#DejaVuSans-65" x="86.279297"/>
       <use xlink:href="#DejaVuSans-64" x="147.802734"/>
       <use xlink:href="#DejaVuSans-69" x="211.279297"/>
       <use xlink:href="#DejaVuSans-6f" x="239.0625"/>
       <use xlink:href="#DejaVuSans-63" x="300.244141"/>
       <use xlink:href="#DejaVuSans-72" x="355.224609"/>
       <use xlink:href="#DejaVuSans-65" x="394.087891"/>
       <use xlink:href="#DejaVuSans-20" x="455.611328"/>
       <use xlink:href="#DejaVuSans-51" x="487.398438"/>
       <use xlink:href="#DejaVuSans-4c" x="566.109375"/>
       <use xlink:href="#DejaVuSans-65" x="620.072266"/>
       <use xlink:href="#DejaVuSans-61" x="681.595703"/>
       <use xlink:href="#DejaVuSans-72" x="742.875"/>
       <use xlink:href="#DejaVuSans-6e" x="782.238281"/>
       <use xlink:href="#DejaVuSans-65" x="845.617188"/>
       <use xlink:href="#DejaVuSans-72" x="907.140625"/>
      </g>
     </g>
    </g>
   </g>
   <g id="matplotlib.axis_2">
    <g id="ytick_1">
     <g id="line2d_11">
      <defs>
       <path id="mb951ab2b5e" d="M 0 0 
L -3.5 0 
" style="stroke: #000000; stroke-width: 0.8"/>
      </defs>
      <g>
       <use xlink:href="#mb951ab2b5e" x="29.68" y="295.548636" style="stroke: #000000; stroke-width: 0.8"/>
      </g>
     </g>
     <g id="text_11">
      <!-- 4 -->
      <g transform="translate(10.88625 298.588011)scale(0.08 -0.08)">
       <defs>
        <path id="DejaVuSans-2212" d="M 678 2272 
L 4684 2272 
L 4684 1741 
L 678 1741 
L 678 2272 
z
" transform="scale(0.015625)"/>
        <path id="DejaVuSans-34" d="M 2419 4116 
L 825 1625 
L 2419 1625 
L 2419 4116 
z
M 2253 4666 
L 3047 4666 
L 3047 1625 
L 3713 1625 
L 3713 1100 
L 3047 1100 
L 3047 0 
L 2419 0 
L 2419 1100 
L 313 1100 
L 313 1709 
L 2253 4666 
z
" transform="scale(0.015625)"/>
       </defs>
       <use xlink:href="#DejaVuSans-2212"/>
       <use xlink:href="#DejaVuSans-34" x="83.789062"/>
      </g>
     </g>
    </g>
    <g id="ytick_2">
     <g id="line2d_12">
      <g>
       <use xlink:href="#mb951ab2b5e" x="29.68" y="238.986818" style="stroke: #000000; stroke-width: 0.8"/>
      </g>
     </g>
     <g id="text_12">
      <!-- 2 -->
      <g transform="translate(10.88625 242.026193)scale(0.08 -0.08)">
       <defs>
        <path id="DejaVuSans-32" d="M 1228 531 
L 3431 531 
L 3431 0 
L 469 0 
L 469 531 
Q 828 903 1448 1529 
Q 2069 2156 2228 2338 
Q 2531 2678 2651 2914 
Q 2772 3150 2772 3378 
Q 2772 3750 2511 3984 
Q 2250 4219 1831 4219 
Q 1534 4219 1204 4116 
Q 875 4013 500 3803 
L 500 4441 
Q 881 4594 1212 4672 
Q 1544 4750 1819 4750 
Q 2544 4750 2975 4387 
Q 3406 4025 3406 3419 
Q 3406 3131 3298 2873 
Q 3191 2616 2906 2266 
Q 2828 2175 2409 1742 
Q 1991 1309 1228 531 
z
" transform="scale(0.015625)"/>
       </defs>
       <use xlink:href="#DejaVuSans-2212"/>
       <use xlink:href="#DejaVuSans-32" x="83.789062"/>
      </g>
     </g>
    </g>
    <g id="ytick_3">
     <g id="line2d_13">
      <g>
       <use xlink:href="#mb951ab2b5e" x="29.68" y="182.425" style="stroke: #000000; stroke-width: 0.8"/>
      </g>
     </g>
     <g id="text_13">
      <!-- 0 -->
      <g transform="translate(17.59 185.464375)scale(0.08 -0.08)">
       <use xlink:href="#DejaVuSans-30"/>
      </g>
     </g>
    </g>
    <g id="ytick_4">
     <g id="line2d_14">
      <g>
       <use xlink:href="#mb951ab2b5e" x="29.68" y="125.863182" style="stroke: #000000; stroke-width: 0.8"/>
      </g>
     </g>
     <g id="text_14">
      <!-- 2 -->
      <g transform="translate(17.59 128.902557)scale(0.08 -0.08)">
       <use xlink:href="#DejaVuSans-32"/>
      </g>
     </g>
    </g>
    <g id="ytick_5">
     <g id="line2d_15">
      <g>
       <use xlink:href="#mb951ab2b5e" x="29.68" y="69.301364" style="stroke: #000000; stroke-width: 0.8"/>
      </g>
     </g>
     <g id="text_15">
      <!-- 4 -->
      <g transform="translate(17.59 72.340739)scale(0.08 -0.08)">
       <use xlink:href="#DejaVuSans-34"/>
      </g>
     </g>
    </g>
   </g>
   <g id="LineCollection_1">
    <path d="M 95.187273 182.425 
L 113.903636 182.425 
" clip-path="url(#pd3f66f4765)" style="fill: none; stroke: #1f77b4; stroke-width: 1.5"/>
    <path d="M 170.052727 171.678255 
L 188.769091 171.678255 
" clip-path="url(#pd3f66f4765)" style="fill: none; stroke: #1f77b4; stroke-width: 1.5"/>
    <path d="M 244.918182 182.142191 
L 263.634545 182.142191 
" clip-path="url(#pd3f66f4765)" style="fill: none; stroke: #1f77b4; stroke-width: 1.5"/>
    <path d="M 319.783636 182.425 
L 338.5 182.425 
" clip-path="url(#pd3f66f4765)" style="fill: none; stroke: #1f77b4; stroke-width: 1.5"/>
    <path d="M 394.649091 172.102468 
L 413.365455 172.102468 
" clip-path="url(#pd3f66f4765)" style="fill: none; stroke: #1f77b4; stroke-width: 1.5"/>
    <path d="M 469.514545 182.425 
L 488.230909 182.425 
" clip-path="url(#pd3f66f4765)" style="fill: none; stroke: #1f77b4; stroke-width: 1.5"/>
    <path d="M 544.38 170.829827 
L 563.096364 170.829827 
" clip-path="url(#pd3f66f4765)" style="fill: none; stroke: #1f77b4; stroke-width: 1.5"/>
    <path d="M 619.245455 192.888936 
L 637.961818 192.888936 
" clip-path="url(#pd3f66f4765)" style="fill: none; stroke: #1f77b4; stroke-width: 1.5"/>
    <path d="M 694.110909 190.485059 
L 712.827273 190.485059 
" clip-path="url(#pd3f66f4765)" style="fill: none; stroke: #1f77b4; stroke-width: 1.5"/>
    <path d="M 768.976364 192.888936 
L 787.692727 192.888936 
" clip-path="url(#pd3f66f4765)" style="fill: none; stroke: #1f77b4; stroke-width: 1.5"/>
   </g>
   <g id="patch_3">
    <path d="M 29.68 337.97 
L 29.68 26.88 
" style="fill: none; stroke: #000000; stroke-width: 0.8; stroke-linejoin: miter; stroke-linecap: square"/>
   </g>
   <g id="patch_4">
    <path d="M 853.2 337.97 
L 853.2 26.88 
" style="fill: none; stroke: #000000; stroke-width: 0.8; stroke-linejoin: miter; stroke-linecap: square"/>
   </g>
   <g id="patch_5">
    <path d="M 29.68 337.97 
L 853.2 337.97 
" style="fill: none; stroke: #000000; stroke-width: 0.8; stroke-linejoin: miter; stroke-linecap: square"/>
   </g>
   <g id="patch_6">
    <path d="M 29.68 26.88 
L 853.2 26.88 
" style="fill: none; stroke: #000000; stroke-width: 0.8; stroke-linejoin: miter; stroke-linecap: square"/>
   </g>
   <g id="text_16">
    <!-- Payoff differences - turns: 200, repetitions: 100, strategies: 10.  -->
    <g transform="translate(250.417813 20.88)scale(0.12 -0.12)">
     <defs>
      <path id="DejaVuSans-50" d="M 1259 4147 
L 1259 2394 
L 2053 2394 
Q 2494 2394 2734 2622 
Q 2975 2850 2975 3272 
Q 2975 3691 2734 3919 
Q 2494 4147 2053 4147 
L 1259 4147 
z
M 628 4666 
L 2053 4666 
Q 2838 4666 3239 4311 
Q 3641 3956 3641 3272 
Q 3641 2581 3239 2228 
Q 2838 1875 2053 1875 
L 1259 1875 
L 1259 0 
L 628 0 
L 628 4666 
z
" transform="scale(0.015625)"/>
      <path id="DejaVuSans-2d" d="M 313 2009 
L 1997 2009 
L 1997 1497 
L 313 1497 
L 313 2009 
z
" transform="scale(0.015625)"/>
      <path id="DejaVuSans-2c" d="M 750 794 
L 1409 794 
L 1409 256 
L 897 -744 
L 494 -744 
L 750 256 
L 750 794 
z
" transform="scale(0.015625)"/>
      <path id="DejaVuSans-31" d="M 794 531 
L 1825 531 
L 1825 4091 
L 703 3866 
L 703 4441 
L 1819 4666 
L 2450 4666 
L 2450 531 
L 3481 531 
L 3481 0 
L 794 0 
L 794 531 
z
" transform="scale(0.015625)"/>
     </defs>
     <use xlink:href="#DejaVuSans-50"/>
     <use xlink:href="#DejaVuSans-61" x="55.802734"/>
     <use xlink:href="#DejaVuSans-79" x="117.082031"/>
     <use xlink:href="#DejaVuSans-6f" x="176.261719"/>
     <use xlink:href="#DejaVuSans-66" x="237.443359"/>
     <use xlink:href="#DejaVuSans-66" x="272.648438"/>
     <use xlink:href="#DejaVuSans-20" x="307.853516"/>
     <use xlink:href="#DejaVuSans-64" x="339.640625"/>
     <use xlink:href="#DejaVuSans-69" x="403.117188"/>
     <use xlink:href="#DejaVuSans-66" x="430.900391"/>
     <use xlink:href="#DejaVuSans-66" x="466.105469"/>
     <use xlink:href="#DejaVuSans-65" x="501.310547"/>
     <use xlink:href="#DejaVuSans-72" x="562.833984"/>
     <use xlink:href="#DejaVuSans-65" x="601.697266"/>
     <use xlink:href="#DejaVuSans-6e" x="663.220703"/>
     <use xlink:href="#DejaVuSans-63" x="726.599609"/>
     <use xlink:href="#DejaVuSans-65" x="781.580078"/>
     <use xlink:href="#DejaVuSans-73" x="843.103516"/>
     <use xlink:href="#DejaVuSans-20" x="895.203125"/>
     <use xlink:href="#DejaVuSans-2d" x="926.990234"/>
     <use xlink:href="#DejaVuSans-20" x="963.074219"/>
     <use xlink:href="#DejaVuSans-74" x="994.861328"/>
     <use xlink:href="#DejaVuSans-75" x="1034.070312"/>
     <use xlink:href="#DejaVuSans-72" x="1097.449219"/>
     <use xlink:href="#DejaVuSans-6e" x="1136.8125"/>
     <use xlink:href="#DejaVuSans-73" x="1200.191406"/>
     <use xlink:href="#DejaVuSans-3a" x="1252.291016"/>
     <use xlink:href="#DejaVuSans-20" x="1285.982422"/>
     <use xlink:href="#DejaVuSans-32" x="1317.769531"/>
     <use xlink:href="#DejaVuSans-30" x="1381.392578"/>
     <use xlink:href="#DejaVuSans-30" x="1445.015625"/>
     <use xlink:href="#DejaVuSans-2c" x="1508.638672"/>
     <use xlink:href="#DejaVuSans-20" x="1540.425781"/>
     <use xlink:href="#DejaVuSans-72" x="1572.212891"/>
     <use xlink:href="#DejaVuSans-65" x="1611.076172"/>
     <use xlink:href="#DejaVuSans-70" x="1672.599609"/>
     <use xlink:href="#DejaVuSans-65" x="1736.076172"/>
     <use xlink:href="#DejaVuSans-74" x="1797.599609"/>
     <use xlink:href="#DejaVuSans-69" x="1836.808594"/>
     <use xlink:href="#DejaVuSans-74" x="1864.591797"/>
     <use xlink:href="#DejaVuSans-69" x="1903.800781"/>
     <use xlink:href="#DejaVuSans-6f" x="1931.583984"/>
     <use xlink:href="#DejaVuSans-6e" x="1992.765625"/>
     <use xlink:href="#DejaVuSans-73" x="2056.144531"/>
     <use xlink:href="#DejaVuSans-3a" x="2108.244141"/>
     <use xlink:href="#DejaVuSans-20" x="2141.935547"/>
     <use xlink:href="#DejaVuSans-31" x="2173.722656"/>
     <use xlink:href="#DejaVuSans-30" x="2237.345703"/>
     <use xlink:href="#DejaVuSans-30" x="2300.96875"/>
     <use xlink:href="#DejaVuSans-2c" x="2364.591797"/>
     <use xlink:href="#DejaVuSans-20" x="2396.378906"/>
     <use xlink:href="#DejaVuSans-73" x="2428.166016"/>
     <use xlink:href="#DejaVuSans-74" x="2480.265625"/>
     <use xlink:href="#DejaVuSans-72" x="2519.474609"/>
     <use xlink:href="#DejaVuSans-61" x="2560.587891"/>
     <use xlink:href="#DejaVuSans-74" x="2621.867188"/>
     <use xlink:href="#DejaVuSans-65" x="2661.076172"/>
     <use xlink:href="#DejaVuSans-67" x="2722.599609"/>
     <use xlink:href="#DejaVuSans-69" x="2786.076172"/>
     <use xlink:href="#DejaVuSans-65" x="2813.859375"/>
     <use xlink:href="#DejaVuSans-73" x="2875.382812"/>
     <use xlink:href="#DejaVuSans-3a" x="2927.482422"/>
     <use xlink:href="#DejaVuSans-20" x="2961.173828"/>
     <use xlink:href="#DejaVuSans-31" x="2992.960938"/>
     <use xlink:href="#DejaVuSans-30" x="3056.583984"/>
     <use xlink:href="#DejaVuSans-2e" x="3120.207031"/>
     <use xlink:href="#DejaVuSans-20" x="3151.994141"/>
    </g>
   </g>
  </g>
 </g>
 <defs>
  <clipPath id="pd3f66f4765">
   <rect x="29.68" y="26.88" width="823.52" height="311.09"/>
  </clipPath>
 </defs>
</svg>
