<?xml version="1.0" encoding="utf-8" standalone="no"?>
<!DOCTYPE svg PUBLIC "-//W3C//DTD SVG 1.1//EN"
  "http://www.w3.org/Graphics/SVG/1.1/DTD/svg11.dtd">
<svg xmlns:xlink="http://www.w3.org/1999/xlink" width="864pt" height="432pt" viewBox="0 0 864 432" xmlns="http://www.w3.org/2000/svg" version="1.1">
 <metadata>
  <rdf:RDF xmlns:dc="http://purl.org/dc/elements/1.1/" xmlns:cc="http://creativecommons.org/ns#" xmlns:rdf="http://www.w3.org/1999/02/22-rdf-syntax-ns#">
   <cc:Work>
    <dc:type rdf:resource="http://purl.org/dc/dcmitype/StillImage"/>
    <dc:date>2022-09-24T19:58:54.113001</dc:date>
    <dc:format>image/svg+xml</dc:format>
    <dc:creator>
     <cc:Agent>
      <dc:title>Matplotlib v3.5.1, https://matplotlib.org/</dc:title>
     </cc:Agent>
    </dc:creator>
   </cc:Work>
  </rdf:RDF>
 </metadata>
 <defs>
  <style type="text/css">*{stroke-linejoin: round; stroke-linecap: butt}</style>
 </defs>
 <g id="figure_1">
  <g id="patch_1">
   <path d="M 0 432 
L 864 432 
L 864 0 
L 0 0 
z
" style="fill: #ffffff"/>
  </g>
  <g id="axes_1">
   <g id="patch_2">
    <path d="M 29.68 337.97 
L 853.2 337.97 
L 853.2 26.88 
L 29.68 26.88 
z
" style="fill: #ffffff"/>
   </g>
   <g id="PolyCollection_1">
    <path d="M 122.409308 182.707809 
L 86.681601 182.707809 
L 86.067197 181.310904 
L 85.829091 179.913998 
L 85.950665 178.517093 
L 86.391661 177.120187 
L 87.096034 175.723282 
L 88.000815 174.326376 
L 89.044211 172.929471 
L 90.171614 171.532565 
L 91.338863 170.13566 
L 92.51286 168.738754 
L 93.670177 167.341848 
L 94.794604 165.944943 
L 95.874544 164.548037 
L 96.900929 163.151132 
L 97.865989 161.754226 
L 98.762856 160.357321 
L 99.58578 158.960415 
L 100.330629 157.56351 
L 100.995362 156.166604 
L 101.580288 154.769699 
L 102.088009 153.372793 
L 102.523097 151.975888 
L 102.89157 150.578982 
L 103.200302 149.182077 
L 103.456452 147.785171 
L 103.666981 146.388266 
L 103.838275 144.99136 
L 103.975877 143.594455 
L 104.084276 142.197549 
L 104.166729 140.800644 
L 104.225072 139.403738 
L 104.259493 138.006833 
L 104.268287 136.609927 
L 104.247631 135.213022 
L 104.191438 133.816116 
L 104.091417 132.419211 
L 103.937456 131.022305 
L 103.718443 129.6254 
L 103.423604 128.228494 
L 103.044358 126.831589 
L 102.576528 125.434683 
L 102.022665 124.037778 
L 101.394048 122.640872 
L 100.711887 121.243967 
L 100.00728 119.847061 
L 99.319606 118.450156 
L 98.69331 117.05325 
L 98.17337 115.656345 
L 97.800051 114.259439 
L 97.603789 112.862534 
L 97.601119 111.465628 
L 97.792392 110.068723 
L 98.161738 108.671817 
L 98.679273 107.274912 
L 99.30512 105.878006 
L 99.994505 104.481101 
L 100.70301 103.084195 
L 101.39115 101.68729 
L 102.027648 100.290384 
L 102.591114 98.893479 
L 103.070163 97.496573 
L 103.462279 96.099667 
L 103.771866 94.702762 
L 104.007975 93.305856 
L 104.182122 91.908951 
L 104.306457 90.512045 
L 104.392458 89.11514 
L 104.450126 87.718234 
L 104.487633 86.321329 
L 104.511304 84.924423 
L 104.525802 83.527518 
L 104.534409 82.130612 
L 104.539336 80.733707 
L 104.541996 79.336801 
L 104.543226 77.939896 
L 104.543435 76.54299 
L 104.542693 75.146085 
L 104.540742 73.749179 
L 104.536953 72.352274 
L 104.530226 70.955368 
L 104.518829 69.558463 
L 104.500225 68.161557 
L 104.470888 66.764652 
L 104.426179 65.367746 
L 104.360357 63.970841 
L 104.266783 62.573935 
L 104.138428 61.17703 
L 103.968701 59.780124 
L 103.752596 58.383219 
L 103.488057 56.986313 
L 103.177351 55.589408 
L 102.82819 54.192502 
L 102.454268 52.795597 
L 102.074948 51.398691 
L 101.713953 50.001786 
L 101.397088 48.60488 
L 101.149269 47.207975 
L 100.991311 45.811069 
L 100.937042 44.414164 
L 108.153867 44.414164 
L 108.153867 44.414164 
L 108.099598 45.811069 
L 107.94164 47.207975 
L 107.693821 48.60488 
L 107.376957 50.001786 
L 107.015961 51.398691 
L 106.636641 52.795597 
L 106.262719 54.192502 
L 105.913558 55.589408 
L 105.602853 56.986313 
L 105.338313 58.383219 
L 105.122208 59.780124 
L 104.952481 61.17703 
L 104.824126 62.573935 
L 104.730552 63.970841 
L 104.66473 65.367746 
L 104.620022 66.764652 
L 104.590684 68.161557 
L 104.57208 69.558463 
L 104.560684 70.955368 
L 104.553956 72.352274 
L 104.550167 73.749179 
L 104.548216 75.146085 
L 104.547474 76.54299 
L 104.547684 77.939896 
L 104.548913 79.336801 
L 104.551573 80.733707 
L 104.5565 82.130612 
L 104.565107 83.527518 
L 104.579605 84.924423 
L 104.603276 86.321329 
L 104.640783 87.718234 
L 104.698451 89.11514 
L 104.784452 90.512045 
L 104.908788 91.908951 
L 105.082934 93.305856 
L 105.319043 94.702762 
L 105.62863 96.099667 
L 106.020746 97.496573 
L 106.499795 98.893479 
L 107.063261 100.290384 
L 107.699759 101.68729 
L 108.387899 103.084195 
L 109.096404 104.481101 
L 109.785789 105.878006 
L 110.411636 107.274912 
L 110.929171 108.671817 
L 111.298517 110.068723 
L 111.48979 111.465628 
L 111.48712 112.862534 
L 111.290858 114.259439 
L 110.917539 115.656345 
L 110.397599 117.05325 
L 109.771304 118.450156 
L 109.083629 119.847061 
L 108.379022 121.243967 
L 107.696861 122.640872 
L 107.068244 124.037778 
L 106.514381 125.434683 
L 106.046551 126.831589 
L 105.667305 128.228494 
L 105.372467 129.6254 
L 105.153453 131.022305 
L 104.999492 132.419211 
L 104.899471 133.816116 
L 104.843278 135.213022 
L 104.822622 136.609927 
L 104.831417 138.006833 
L 104.865837 139.403738 
L 104.92418 140.800644 
L 105.006634 142.197549 
L 105.115032 143.594455 
L 105.252634 144.99136 
L 105.423928 146.388266 
L 105.634457 147.785171 
L 105.890607 149.182077 
L 106.199339 150.578982 
L 106.567812 151.975888 
L 107.0029 153.372793 
L 107.510621 154.769699 
L 108.095547 156.166604 
L 108.76028 157.56351 
L 109.505129 158.960415 
L 110.328053 160.357321 
L 111.22492 161.754226 
L 112.18998 163.151132 
L 113.216365 164.548037 
L 114.296305 165.944943 
L 115.420732 167.341848 
L 116.578049 168.738754 
L 117.752046 170.13566 
L 118.919295 171.532565 
L 120.046698 172.929471 
L 121.090095 174.326376 
L 121.994875 175.723282 
L 122.699248 177.120187 
L 123.140244 178.517093 
L 123.261818 179.913998 
L 123.023712 181.310904 
L 122.409308 182.707809 
z
" clip-path="url(#paa25ddc349)" style="fill: #1f77b4; fill-opacity: 0.3"/>
   </g>
   <g id="PolyCollection_2">
    <path d="M 187.890657 182.707809 
L 170.931162 182.707809 
L 170.991757 182.704952 
L 171.170956 182.702096 
L 171.461185 182.699239 
L 171.850414 182.696382 
L 172.32298 182.693526 
L 172.860636 182.690669 
L 173.443713 182.687812 
L 174.052299 182.684956 
L 174.667343 182.682099 
L 175.271592 182.679243 
L 175.850309 182.676386 
L 176.391731 182.673529 
L 176.887282 182.670673 
L 177.331535 182.667816 
L 177.721982 182.664959 
L 178.05865 182.662103 
L 178.343625 182.659246 
L 178.58054 182.656389 
L 178.774065 182.653533 
L 178.929443 182.650676 
L 179.052095 182.647819 
L 179.14731 182.644963 
L 179.220016 182.642106 
L 179.274637 182.639249 
L 179.315015 182.636393 
L 179.344389 182.633536 
L 179.365423 182.630679 
L 179.380248 182.627823 
L 179.390536 182.624966 
L 179.397565 182.622109 
L 179.402293 182.619253 
L 179.405425 182.616396 
L 179.407468 182.613539 
L 179.408781 182.610683 
L 179.409612 182.607826 
L 179.410129 182.604969 
L 179.410447 182.602113 
L 179.410639 182.599256 
L 179.410754 182.596399 
L 179.410821 182.593543 
L 179.41086 182.590686 
L 179.410882 182.587829 
L 179.410894 182.584973 
L 179.410901 182.582116 
L 179.410905 182.57926 
L 179.410907 182.576403 
L 179.410908 182.573546 
L 179.410908 182.57069 
L 179.410909 182.567833 
L 179.410908 182.564976 
L 179.410908 182.56212 
L 179.410907 182.559263 
L 179.410904 182.556406 
L 179.4109 182.55355 
L 179.410892 182.550693 
L 179.410876 182.547836 
L 179.410849 182.54498 
L 179.4108 182.542123 
L 179.410715 182.539266 
L 179.410566 182.53641 
L 179.410314 182.533553 
L 179.40989 182.530696 
L 179.409188 182.52784 
L 179.408046 182.524983 
L 179.406212 182.522126 
L 179.403315 182.51927 
L 179.398805 182.516413 
L 179.391892 182.513556 
L 179.381456 182.5107 
L 179.365942 182.507843 
L 179.343235 182.504986 
L 179.310512 182.50213 
L 179.264087 182.499273 
L 179.199252 182.496416 
L 179.110132 182.49356 
L 178.989573 182.490703 
L 178.829097 182.487846 
L 178.61894 182.48499 
L 178.348224 182.482133 
L 178.005277 182.479276 
L 177.578132 182.47642 
L 177.055216 182.473563 
L 176.426224 182.470707 
L 175.683137 182.46785 
L 174.821348 182.464993 
L 173.840799 182.462137 
L 172.747027 182.45928 
L 171.552008 182.456423 
L 170.274675 182.453567 
L 168.940985 182.45071 
L 167.583469 182.447853 
L 166.240208 182.444997 
L 164.953251 182.44214 
L 163.766545 182.439283 
L 162.723505 182.436427 
L 161.864405 182.43357 
L 161.223815 182.430713 
L 160.82829 182.427857 
L 160.694545 182.425 
L 198.127273 182.425 
L 198.127273 182.425 
L 197.993528 182.427857 
L 197.598003 182.430713 
L 196.957413 182.43357 
L 196.098314 182.436427 
L 195.055273 182.439283 
L 193.868567 182.44214 
L 192.58161 182.444997 
L 191.238349 182.447853 
L 189.880833 182.45071 
L 188.547143 182.453567 
L 187.26981 182.456423 
L 186.074792 182.45928 
L 184.981019 182.462137 
L 184.00047 182.464993 
L 183.138681 182.46785 
L 182.395594 182.470707 
L 181.766602 182.473563 
L 181.243686 182.47642 
L 180.816541 182.479276 
L 180.473594 182.482133 
L 180.202878 182.48499 
L 179.992721 182.487846 
L 179.832245 182.490703 
L 179.711686 182.49356 
L 179.622566 182.496416 
L 179.557731 182.499273 
L 179.511306 182.50213 
L 179.478583 182.504986 
L 179.455876 182.507843 
L 179.440362 182.5107 
L 179.429926 182.513556 
L 179.423013 182.516413 
L 179.418503 182.51927 
L 179.415606 182.522126 
L 179.413773 182.524983 
L 179.41263 182.52784 
L 179.411929 182.530696 
L 179.411505 182.533553 
L 179.411252 182.53641 
L 179.411104 182.539266 
L 179.411018 182.542123 
L 179.410969 182.54498 
L 179.410942 182.547836 
L 179.410927 182.550693 
L 179.410918 182.55355 
L 179.410914 182.556406 
L 179.410912 182.559263 
L 179.41091 182.56212 
L 179.41091 182.564976 
L 179.41091 182.567833 
L 179.41091 182.57069 
L 179.41091 182.573546 
L 179.410911 182.576403 
L 179.410913 182.57926 
L 179.410917 182.582116 
L 179.410924 182.584973 
L 179.410936 182.587829 
L 179.410958 182.590686 
L 179.410997 182.593543 
L 179.411064 182.596399 
L 179.411179 182.599256 
L 179.411371 182.602113 
L 179.411689 182.604969 
L 179.412206 182.607826 
L 179.413037 182.610683 
L 179.41435 182.613539 
L 179.416393 182.616396 
L 179.419525 182.619253 
L 179.424253 182.622109 
L 179.431282 182.624966 
L 179.44157 182.627823 
L 179.456395 182.630679 
L 179.477429 182.633536 
L 179.506804 182.636393 
L 179.547181 182.639249 
L 179.601802 182.642106 
L 179.674508 182.644963 
L 179.769723 182.647819 
L 179.892375 182.650676 
L 180.047753 182.653533 
L 180.241278 182.656389 
L 180.478193 182.659246 
L 180.763168 182.662103 
L 181.099836 182.664959 
L 181.490283 182.667816 
L 181.934536 182.670673 
L 182.430087 182.673529 
L 182.97151 182.676386 
L 183.550226 182.679243 
L 184.154475 182.682099 
L 184.76952 182.684956 
L 185.378105 182.687812 
L 185.961182 182.690669 
L 186.498838 182.693526 
L 186.971404 182.696382 
L 187.360633 182.699239 
L 187.650862 182.702096 
L 187.830062 182.704952 
L 187.890657 182.707809 
z
" clip-path="url(#paa25ddc349)" style="fill: #1f77b4; fill-opacity: 0.3"/>
   </g>
   <g id="PolyCollection_3">
    <path d="M 254.628944 252.278845 
L 253.923783 252.278845 
L 253.848599 250.179202 
L 253.780136 248.079559 
L 253.723625 245.979916 
L 253.68182 243.880272 
L 253.654176 241.780629 
L 253.636867 239.680986 
L 253.623579 237.581343 
L 253.606805 235.481699 
L 253.579173 233.382056 
L 253.53443 231.282413 
L 253.46781 229.18277 
L 253.375769 227.083126 
L 253.255209 224.983483 
L 253.102426 222.88384 
L 252.912053 220.784197 
L 252.676199 218.684553 
L 252.383886 216.58491 
L 252.020765 214.485267 
L 251.568938 212.385624 
L 251.006806 210.28598 
L 250.309074 208.186337 
L 249.44754 206.086694 
L 248.393726 203.987051 
L 247.124547 201.887407 
L 245.631613 199.787764 
L 243.933407 197.688121 
L 242.087671 195.588478 
L 240.199589 193.488834 
L 238.420679 191.389191 
L 236.934548 189.289548 
L 235.929133 187.189905 
L 235.56 185.090261 
L 235.913974 182.990618 
L 236.984406 180.890975 
L 238.667137 178.791332 
L 240.779817 176.691688 
L 243.099259 174.592045 
L 245.405393 172.492402 
L 247.51898 170.392759 
L 249.323859 168.293115 
L 250.770925 166.193472 
L 251.867238 164.093829 
L 252.657113 161.994186 
L 253.202267 159.894542 
L 253.565931 157.794899 
L 253.802949 155.695256 
L 253.95551 153.595613 
L 254.05286 151.495969 
L 254.113044 149.396326 
L 254.145121 147.296683 
L 254.150908 145.19704 
L 254.126011 143.097396 
L 254.060436 140.997753 
L 253.939513 138.89811 
L 253.746006 136.798467 
L 253.464099 134.698823 
L 253.08528 132.59918 
L 252.615069 130.499537 
L 252.078427 128.399894 
L 251.521107 126.30025 
L 251.004808 124.200607 
L 250.595914 122.100964 
L 250.350265 120.001321 
L 250.298608 117.901677 
L 250.437811 115.802034 
L 250.731184 113.702391 
L 251.117913 111.602748 
L 251.528236 109.503104 
L 251.899252 107.403461 
L 252.186595 105.303818 
L 252.369461 103.204175 
L 252.449118 101.104531 
L 252.443048 99.004888 
L 252.377547 96.905245 
L 252.281111 94.805602 
L 252.179843 92.705958 
L 252.095065 90.606315 
L 252.042568 88.506672 
L 252.03277 86.407029 
L 252.071121 84.307385 
L 252.15842 82.207742 
L 252.290993 80.108099 
L 252.460887 78.008456 
L 252.656225 75.908812 
L 252.861847 73.809169 
L 253.060189 71.709526 
L 253.232372 69.609883 
L 253.35958 67.510239 
L 253.424927 65.410596 
L 253.416066 63.310953 
L 253.328483 61.21131 
L 253.168854 59.111666 
L 252.957162 57.012023 
L 252.726041 54.91238 
L 252.516292 52.812737 
L 252.368932 50.713093 
L 252.31573 48.61345 
L 252.371315 46.513807 
L 252.52973 44.414164 
L 256.022998 44.414164 
L 256.022998 44.414164 
L 256.181413 46.513807 
L 256.236997 48.61345 
L 256.183795 50.713093 
L 256.036435 52.812737 
L 255.826686 54.91238 
L 255.595565 57.012023 
L 255.383874 59.111666 
L 255.224244 61.21131 
L 255.136661 63.310953 
L 255.1278 65.410596 
L 255.193147 67.510239 
L 255.320355 69.609883 
L 255.492538 71.709526 
L 255.69088 73.809169 
L 255.896503 75.908812 
L 256.091841 78.008456 
L 256.261734 80.108099 
L 256.394308 82.207742 
L 256.481606 84.307385 
L 256.519957 86.407029 
L 256.510159 88.506672 
L 256.457662 90.606315 
L 256.372884 92.705958 
L 256.271617 94.805602 
L 256.17518 96.905245 
L 256.109679 99.004888 
L 256.103609 101.104531 
L 256.183266 103.204175 
L 256.366132 105.303818 
L 256.653475 107.403461 
L 257.024491 109.503104 
L 257.434815 111.602748 
L 257.821543 113.702391 
L 258.114917 115.802034 
L 258.254119 117.901677 
L 258.202462 120.001321 
L 257.956814 122.100964 
L 257.547919 124.200607 
L 257.03162 126.30025 
L 256.4743 128.399894 
L 255.937658 130.499537 
L 255.467447 132.59918 
L 255.088628 134.698823 
L 254.806722 136.798467 
L 254.613215 138.89811 
L 254.492291 140.997753 
L 254.426716 143.097396 
L 254.401819 145.19704 
L 254.407606 147.296683 
L 254.439683 149.396326 
L 254.499867 151.495969 
L 254.597217 153.595613 
L 254.749779 155.695256 
L 254.986796 157.794899 
L 255.35046 159.894542 
L 255.895614 161.994186 
L 256.685489 164.093829 
L 257.781802 166.193472 
L 259.228869 168.293115 
L 261.033747 170.392759 
L 263.147334 172.492402 
L 265.453468 174.592045 
L 267.772911 176.691688 
L 269.88559 178.791332 
L 271.568321 180.890975 
L 272.638754 182.990618 
L 272.992727 185.090261 
L 272.623594 187.189905 
L 271.618179 189.289548 
L 270.132049 191.389191 
L 268.353139 193.488834 
L 266.465057 195.588478 
L 264.61932 197.688121 
L 262.921114 199.787764 
L 261.42818 201.887407 
L 260.159001 203.987051 
L 259.105187 206.086694 
L 258.243653 208.186337 
L 257.545922 210.28598 
L 256.983789 212.385624 
L 256.531962 214.485267 
L 256.168841 216.58491 
L 255.876528 218.684553 
L 255.640674 220.784197 
L 255.450302 222.88384 
L 255.297519 224.983483 
L 255.176958 227.083126 
L 255.084917 229.18277 
L 255.018297 231.282413 
L 254.973554 233.382056 
L 254.945923 235.481699 
L 254.929148 237.581343 
L 254.91586 239.680986 
L 254.898551 241.780629 
L 254.870908 243.880272 
L 254.829102 245.979916 
L 254.772591 248.079559 
L 254.704128 250.179202 
L 254.628944 252.278845 
z
" clip-path="url(#paa25ddc349)" style="fill: #1f77b4; fill-opacity: 0.3"/>
   </g>
   <g id="PolyCollection_4">
    <path d="M 333.146484 320.435836 
L 325.137152 320.435836 
L 325.217174 317.630599 
L 325.481877 314.825361 
L 325.893841 312.020123 
L 326.398695 309.214886 
L 326.93684 306.409648 
L 327.454747 303.60441 
L 327.912962 300.799173 
L 328.289405 297.993935 
L 328.578234 295.188698 
L 328.785733 292.38346 
L 328.925085 289.578222 
L 329.0116 286.772985 
L 329.059326 283.967747 
L 329.079267 281.162509 
L 329.078976 278.357272 
L 329.06309 275.552034 
L 329.034355 272.746796 
L 328.994782 269.941559 
L 328.946676 267.136321 
L 328.893335 264.331083 
L 328.839287 261.525846 
L 328.790012 258.720608 
L 328.751206 255.91537 
L 328.727785 253.110133 
L 328.722888 250.304895 
L 328.7372 247.499657 
L 328.768788 244.69442 
L 328.813495 241.889182 
L 328.865767 239.083945 
L 328.919606 236.278707 
L 328.969312 233.473469 
L 329.009695 230.668232 
L 329.035525 227.862994 
L 329.040117 225.057756 
L 329.013076 222.252519 
L 328.93742 219.447281 
L 328.786599 216.642043 
L 328.522288 213.836806 
L 328.094294 211.031568 
L 327.44404 208.22633 
L 326.512801 205.421093 
L 325.254696 202.615855 
L 323.652674 199.810617 
L 321.733737 197.00538 
L 319.5784 194.200142 
L 317.319796 191.394904 
L 315.130252 188.589667 
L 313.19695 185.784429 
L 311.69215 182.979192 
L 310.745512 180.173954 
L 310.425455 177.368716 
L 310.733371 174.563479 
L 311.610341 171.758241 
L 312.952553 168.953003 
L 314.630246 166.147766 
L 316.505631 163.342528 
L 318.447151 160.53729 
L 320.339295 157.732053 
L 322.08828 154.926815 
L 323.624201 152.121577 
L 324.900145 149.31634 
L 325.888855 146.511102 
L 326.577941 143.705864 
L 326.965191 140.900627 
L 327.055799 138.095389 
L 326.862868 135.290152 
L 326.411399 132.484914 
L 325.744311 129.679676 
L 324.927585 126.874439 
L 324.051039 124.069201 
L 323.222095 121.263963 
L 322.552117 118.458726 
L 322.137817 115.653488 
L 322.042646 112.84825 
L 322.283854 110.043013 
L 322.829511 107.237775 
L 323.606621 104.432537 
L 324.51787 101.6273 
L 325.461925 98.822062 
L 326.351604 96.016824 
L 327.125643 93.211587 
L 327.75237 90.406349 
L 328.226275 87.601111 
L 328.560093 84.795874 
L 328.775479 81.990636 
L 328.894715 79.185399 
L 328.934847 76.380161 
L 328.9047 73.574923 
L 328.804653 70.769686 
L 328.628841 67.964448 
L 328.369411 65.15921 
L 328.022191 62.353973 
L 327.592763 59.548735 
L 327.101367 56.743497 
L 326.584829 53.93826 
L 326.094064 51.133022 
L 325.686787 48.327784 
L 325.41673 45.522547 
L 325.322098 42.717309 
L 332.961538 42.717309 
L 332.961538 42.717309 
L 332.866907 45.522547 
L 332.596849 48.327784 
L 332.189572 51.133022 
L 331.698807 53.93826 
L 331.18227 56.743497 
L 330.690874 59.548735 
L 330.261446 62.353973 
L 329.914226 65.15921 
L 329.654795 67.964448 
L 329.478984 70.769686 
L 329.378936 73.574923 
L 329.34879 76.380161 
L 329.388922 79.185399 
L 329.508157 81.990636 
L 329.723543 84.795874 
L 330.057362 87.601111 
L 330.531267 90.406349 
L 331.157994 93.211587 
L 331.932032 96.016824 
L 332.821712 98.822062 
L 333.765766 101.6273 
L 334.677015 104.432537 
L 335.454125 107.237775 
L 335.999782 110.043013 
L 336.240991 112.84825 
L 336.145819 115.653488 
L 335.73152 118.458726 
L 335.061541 121.263963 
L 334.232597 124.069201 
L 333.356051 126.874439 
L 332.539325 129.679676 
L 331.872237 132.484914 
L 331.420768 135.290152 
L 331.227837 138.095389 
L 331.318445 140.900627 
L 331.705696 143.705864 
L 332.394781 146.511102 
L 333.383491 149.31634 
L 334.659436 152.121577 
L 336.195357 154.926815 
L 337.944342 157.732053 
L 339.836485 160.53729 
L 341.778006 163.342528 
L 343.653391 166.147766 
L 345.331084 168.953003 
L 346.673296 171.758241 
L 347.550265 174.563479 
L 347.858182 177.368716 
L 347.538124 180.173954 
L 346.591486 182.979192 
L 345.086687 185.784429 
L 343.153384 188.589667 
L 340.96384 191.394904 
L 338.705237 194.200142 
L 336.549899 197.00538 
L 334.630963 199.810617 
L 333.028941 202.615855 
L 331.770835 205.421093 
L 330.839596 208.22633 
L 330.189343 211.031568 
L 329.761348 213.836806 
L 329.497038 216.642043 
L 329.346216 219.447281 
L 329.270561 222.252519 
L 329.243519 225.057756 
L 329.248111 227.862994 
L 329.273941 230.668232 
L 329.314324 233.473469 
L 329.36403 236.278707 
L 329.417869 239.083945 
L 329.470142 241.889182 
L 329.514849 244.69442 
L 329.546436 247.499657 
L 329.560749 250.304895 
L 329.555852 253.110133 
L 329.53243 255.91537 
L 329.493625 258.720608 
L 329.444349 261.525846 
L 329.390301 264.331083 
L 329.33696 267.136321 
L 329.288854 269.941559 
L 329.249281 272.746796 
L 329.220546 275.552034 
L 329.204661 278.357272 
L 329.20437 281.162509 
L 329.22431 283.967747 
L 329.272036 286.772985 
L 329.358551 289.578222 
L 329.497903 292.38346 
L 329.705403 295.188698 
L 329.994231 297.993935 
L 330.370674 300.799173 
L 330.828889 303.60441 
L 331.346797 306.409648 
L 331.884941 309.214886 
L 332.389795 312.020123 
L 332.80176 314.825361 
L 333.066463 317.630599 
L 333.146484 320.435836 
z
" clip-path="url(#paa25ddc349)" style="fill: #1f77b4; fill-opacity: 0.3"/>
   </g>
   <g id="PolyCollection_5">
    <path d="M 422.507704 253.127273 
L 385.506842 253.127273 
L 385.290909 251.698944 
L 385.434787 250.270615 
L 385.928927 248.842287 
L 386.74412 247.413958 
L 387.834345 245.985629 
L 389.141069 244.5573 
L 390.598414 243.128972 
L 392.13858 241.700643 
L 393.696901 240.272314 
L 395.216039 238.843985 
L 396.648978 237.415657 
L 397.960673 235.987328 
L 399.128399 234.558999 
L 400.140992 233.13067 
L 400.997263 231.702342 
L 401.703912 230.274013 
L 402.273261 228.845684 
L 402.721056 227.417355 
L 403.064538 225.989027 
L 403.320881 224.560698 
L 403.506044 223.132369 
L 403.633992 221.70404 
L 403.71625 220.275712 
L 403.76168 218.847383 
L 403.776412 217.419054 
L 403.763844 215.990725 
L 403.724657 214.562397 
L 403.656808 213.134068 
L 403.55552 211.705739 
L 403.413265 210.27741 
L 403.219835 208.849082 
L 402.962552 207.420753 
L 402.626718 205.992424 
L 402.196398 204.564096 
L 401.655579 203.135767 
L 400.98975 201.707438 
L 400.187829 200.279109 
L 399.24433 198.850781 
L 398.161556 197.422452 
L 396.951529 195.994123 
L 395.637348 194.565794 
L 394.253658 193.137466 
L 392.845961 191.709137 
L 391.468656 190.280808 
L 390.181816 188.852479 
L 389.046933 187.424151 
L 388.122014 185.995822 
L 387.456581 184.567493 
L 387.08716 183.139164 
L 387.033843 181.710836 
L 387.298364 180.282507 
L 387.863965 178.854178 
L 388.697053 177.425849 
L 389.750423 175.997521 
L 390.96763 174.569192 
L 392.287931 173.140863 
L 393.651208 171.712534 
L 395.002321 170.284206 
L 396.294479 168.855877 
L 397.491389 167.427548 
L 398.568117 165.999219 
L 399.510798 164.570891 
L 400.31541 163.142562 
L 400.985935 161.714233 
L 401.532218 160.285904 
L 401.967792 158.857576 
L 402.307908 157.429247 
L 402.567873 156.000918 
L 402.761775 154.57259 
L 402.901573 153.144261 
L 402.996499 151.715932 
L 403.052717 150.287603 
L 403.073149 148.859275 
L 403.057433 147.430946 
L 403.001974 146.002617 
L 402.900094 144.574288 
L 402.742329 143.14596 
L 402.516889 141.717631 
L 402.210376 140.289302 
L 401.808771 138.860973 
L 401.298734 137.432645 
L 400.669166 136.004316 
L 399.912971 134.575987 
L 399.028863 133.147658 
L 398.023019 131.71933 
L 396.910371 130.291001 
L 395.715284 128.862672 
L 394.471429 127.434343 
L 393.220726 126.006015 
L 392.011333 124.577686 
L 390.894766 123.149357 
L 389.92239 121.721028 
L 389.141599 120.2927 
L 388.592074 118.864371 
L 388.302546 117.436042 
L 388.288408 116.007713 
L 388.550467 114.579385 
L 389.074963 113.151056 
L 389.834837 111.722727 
L 418.179709 111.722727 
L 418.179709 111.722727 
L 418.939583 113.151056 
L 419.464078 114.579385 
L 419.726138 116.007713 
L 419.712 117.436042 
L 419.422471 118.864371 
L 418.872946 120.2927 
L 418.092155 121.721028 
L 417.11978 123.149357 
L 416.003213 124.577686 
L 414.793819 126.006015 
L 413.543117 127.434343 
L 412.299261 128.862672 
L 411.104174 130.291001 
L 409.991526 131.71933 
L 408.985683 133.147658 
L 408.101574 134.575987 
L 407.34538 136.004316 
L 406.715812 137.432645 
L 406.205774 138.860973 
L 405.80417 140.289302 
L 405.497656 141.717631 
L 405.272217 143.14596 
L 405.114451 144.574288 
L 405.012572 146.002617 
L 404.957112 147.430946 
L 404.941396 148.859275 
L 404.961829 150.287603 
L 405.018046 151.715932 
L 405.112972 153.144261 
L 405.25277 154.57259 
L 405.446673 156.000918 
L 405.706638 157.429247 
L 406.046754 158.857576 
L 406.482328 160.285904 
L 407.02861 161.714233 
L 407.699136 163.142562 
L 408.503747 164.570891 
L 409.446428 165.999219 
L 410.523156 167.427548 
L 411.720066 168.855877 
L 413.012225 170.284206 
L 414.363337 171.712534 
L 415.726614 173.140863 
L 417.046916 174.569192 
L 418.264123 175.997521 
L 419.317493 177.425849 
L 420.15058 178.854178 
L 420.716181 180.282507 
L 420.980702 181.710836 
L 420.927385 183.139164 
L 420.557965 184.567493 
L 419.892532 185.995822 
L 418.967612 187.424151 
L 417.832729 188.852479 
L 416.54589 190.280808 
L 415.168585 191.709137 
L 413.760888 193.137466 
L 412.377197 194.565794 
L 411.063017 195.994123 
L 409.85299 197.422452 
L 408.770216 198.850781 
L 407.826717 200.279109 
L 407.024795 201.707438 
L 406.358966 203.135767 
L 405.818148 204.564096 
L 405.387827 205.992424 
L 405.051994 207.420753 
L 404.794711 208.849082 
L 404.601281 210.27741 
L 404.459026 211.705739 
L 404.357737 213.134068 
L 404.289889 214.562397 
L 404.250701 215.990725 
L 404.238133 217.419054 
L 404.252865 218.847383 
L 404.298295 220.275712 
L 404.380553 221.70404 
L 404.508502 223.132369 
L 404.693664 224.560698 
L 404.950008 225.989027 
L 405.293489 227.417355 
L 405.741284 228.845684 
L 406.310633 230.274013 
L 407.017283 231.702342 
L 407.873553 233.13067 
L 408.886146 234.558999 
L 410.053872 235.987328 
L 411.365567 237.415657 
L 412.798506 238.843985 
L 414.317645 240.272314 
L 415.875966 241.700643 
L 417.416131 243.128972 
L 418.873476 244.5573 
L 420.1802 245.985629 
L 421.270426 247.413958 
L 422.085618 248.842287 
L 422.579759 250.270615 
L 422.723636 251.698944 
L 422.507704 253.127273 
z
" clip-path="url(#paa25ddc349)" style="fill: #1f77b4; fill-opacity: 0.3"/>
   </g>
   <g id="PolyCollection_6">
    <path d="M 490.209845 262.459973 
L 467.53561 262.459973 
L 465.844508 260.837391 
L 464.235706 259.21481 
L 462.794563 257.592228 
L 461.603646 255.969647 
L 460.73487 254.347065 
L 460.242263 252.724484 
L 460.156364 251.101903 
L 460.481077 249.479321 
L 461.193434 247.85674 
L 462.246258 246.234158 
L 463.573322 244.611577 
L 465.096191 242.988995 
L 466.731804 241.366414 
L 468.399752 239.743832 
L 470.02843 238.121251 
L 471.559448 236.49867 
L 472.950048 234.876088 
L 474.173574 233.253507 
L 475.218299 231.630925 
L 476.085068 230.008344 
L 476.784286 228.385762 
L 477.332722 226.763181 
L 477.750514 225.140599 
L 478.058628 223.518018 
L 478.276873 221.895436 
L 478.422486 220.272855 
L 478.50919 218.650274 
L 478.546612 217.027692 
L 478.539915 215.405111 
L 478.489551 213.782529 
L 478.391085 212.159948 
L 478.235106 210.537366 
L 478.007315 208.914785 
L 477.688962 207.292203 
L 477.257814 205.669622 
L 476.689863 204.04704 
L 475.961878 202.424459 
L 475.054811 200.801878 
L 473.957834 199.179296 
L 472.6726 197.556715 
L 471.217074 195.934133 
L 469.628182 194.311552 
L 467.962503 192.68897 
L 466.294406 191.066389 
L 464.711398 189.443807 
L 463.306892 187.821226 
L 462.171153 186.198645 
L 461.381601 184.576063 
L 460.99391 182.953482 
L 461.035332 181.3309 
L 461.50135 179.708319 
L 462.356248 178.085737 
L 463.537489 176.463156 
L 464.963162 174.840574 
L 466.541264 173.217993 
L 468.179368 171.595411 
L 469.793263 169.97283 
L 471.313505 168.350249 
L 472.689274 166.727667 
L 473.889439 165.105086 
L 474.901205 163.482504 
L 475.727007 161.859923 
L 476.380414 160.237341 
L 476.881808 158.61476 
L 477.254396 156.992178 
L 477.520934 155.369597 
L 477.701293 153.747016 
L 477.810867 152.124434 
L 477.859667 150.501853 
L 477.851962 148.879271 
L 477.786304 147.25669 
L 477.655866 145.634108 
L 477.449071 144.011527 
L 477.150552 142.388945 
L 476.742515 140.766364 
L 476.206575 139.143782 
L 475.526074 137.521201 
L 474.688796 135.89862 
L 473.689894 134.276038 
L 472.534714 132.653457 
L 471.241112 131.030875 
L 469.840832 129.408294 
L 468.379536 127.785712 
L 466.91522 126.163131 
L 465.514949 124.540549 
L 464.250082 122.917968 
L 463.190435 121.295387 
L 462.398032 119.672805 
L 461.921227 118.050224 
L 461.789958 116.427642 
L 462.012789 114.805061 
L 462.576136 113.182479 
L 463.445772 111.559898 
L 464.570366 109.937316 
L 465.886571 108.314735 
L 467.324936 106.692153 
L 468.815915 105.069572 
L 470.295248 103.446991 
L 471.708187 101.824409 
L 486.037267 101.824409 
L 486.037267 101.824409 
L 487.450207 103.446991 
L 488.929539 105.069572 
L 490.420518 106.692153 
L 491.858884 108.314735 
L 493.175088 109.937316 
L 494.299683 111.559898 
L 495.169318 113.182479 
L 495.732665 114.805061 
L 495.955496 116.427642 
L 495.824227 118.050224 
L 495.347422 119.672805 
L 494.55502 121.295387 
L 493.495372 122.917968 
L 492.230505 124.540549 
L 490.830234 126.163131 
L 489.365919 127.785712 
L 487.904622 129.408294 
L 486.504343 131.030875 
L 485.210741 132.653457 
L 484.055561 134.276038 
L 483.056659 135.89862 
L 482.21938 137.521201 
L 481.53888 139.143782 
L 481.00294 140.766364 
L 480.594903 142.388945 
L 480.296383 144.011527 
L 480.089589 145.634108 
L 479.959151 147.25669 
L 479.893492 148.879271 
L 479.885787 150.501853 
L 479.934588 152.124434 
L 480.044162 153.747016 
L 480.224521 155.369597 
L 480.491058 156.992178 
L 480.863647 158.61476 
L 481.365041 160.237341 
L 482.018448 161.859923 
L 482.844249 163.482504 
L 483.856016 165.105086 
L 485.05618 166.727667 
L 486.431949 168.350249 
L 487.952192 169.97283 
L 489.566086 171.595411 
L 491.20419 173.217993 
L 492.782293 174.840574 
L 494.207965 176.463156 
L 495.389206 178.085737 
L 496.244105 179.708319 
L 496.710123 181.3309 
L 496.751545 182.953482 
L 496.363854 184.576063 
L 495.574301 186.198645 
L 494.438562 187.821226 
L 493.034056 189.443807 
L 491.451049 191.066389 
L 489.782952 192.68897 
L 488.117272 194.311552 
L 486.528381 195.934133 
L 485.072854 197.556715 
L 483.78762 199.179296 
L 482.690643 200.801878 
L 481.783576 202.424459 
L 481.055592 204.04704 
L 480.487641 205.669622 
L 480.056493 207.292203 
L 479.738139 208.914785 
L 479.510348 210.537366 
L 479.354369 212.159948 
L 479.255904 213.782529 
L 479.20554 215.405111 
L 479.198842 217.027692 
L 479.236264 218.650274 
L 479.322969 220.272855 
L 479.468581 221.895436 
L 479.686826 223.518018 
L 479.99494 225.140599 
L 480.412733 226.763181 
L 480.961169 228.385762 
L 481.660387 230.008344 
L 482.527155 231.630925 
L 483.57188 233.253507 
L 484.795407 234.876088 
L 486.186007 236.49867 
L 487.717024 238.121251 
L 489.345702 239.743832 
L 491.01365 241.366414 
L 492.649263 242.988995 
L 494.172133 244.611577 
L 495.499196 246.234158 
L 496.552021 247.85674 
L 497.264377 249.479321 
L 497.589091 251.101903 
L 497.503191 252.724484 
L 497.010584 254.347065 
L 496.141809 255.969647 
L 494.950891 257.592228 
L 493.509748 259.21481 
L 491.900947 260.837391 
L 490.209845 262.459973 
z
" clip-path="url(#paa25ddc349)" style="fill: #1f77b4; fill-opacity: 0.3"/>
   </g>
   <g id="PolyCollection_7">
    <path d="M 571.341717 182.425 
L 536.134646 182.425 
L 535.389924 180.996671 
L 535.021818 179.568343 
L 535.025115 178.140014 
L 535.369477 176.711685 
L 536.006164 175.283356 
L 536.876235 173.855028 
L 537.918498 172.426699 
L 539.075841 170.99837 
L 540.299153 169.570041 
L 541.548771 168.141713 
L 542.793951 166.713384 
L 544.011187 165.285055 
L 545.182214 163.856726 
L 546.292345 162.428398 
L 547.329483 161.000069 
L 548.283814 159.57174 
L 549.148003 158.143411 
L 549.917574 156.715083 
L 550.591221 155.286754 
L 551.170853 153.858425 
L 551.661313 152.430096 
L 552.069815 151.001768 
L 552.405183 149.573439 
L 552.67703 148.14511 
L 552.89499 146.716781 
L 553.068055 145.288453 
L 553.204074 143.860124 
L 553.309394 142.431795 
L 553.388622 141.003466 
L 553.444448 139.575138 
L 553.477506 138.146809 
L 553.486243 136.71848 
L 553.466812 135.290152 
L 553.413038 133.861823 
L 553.316551 132.433494 
L 553.167199 131.005165 
L 552.953876 129.576837 
L 552.665833 128.148508 
L 552.29448 126.720179 
L 551.835576 125.29185 
L 551.291508 123.863522 
L 550.673299 122.435193 
L 550.001818 121.006864 
L 549.307772 119.578535 
L 548.630135 118.150207 
L 548.012959 116.721878 
L 547.500859 115.293549 
L 547.133769 113.86522 
L 546.941825 112.436892 
L 546.941288 111.008563 
L 547.132276 109.580234 
L 547.498751 108.151905 
L 548.01077 106.723577 
L 548.628548 105.295248 
L 549.307581 103.866919 
L 550.003902 102.43859 
L 550.678623 101.010262 
L 551.301154 99.581933 
L 551.850798 98.153604 
L 552.3168 96.725275 
L 552.697133 95.296947 
L 552.996523 93.868618 
L 553.224166 92.440289 
L 553.391558 91.011961 
L 553.510713 89.583632 
L 553.59289 88.155303 
L 553.647839 86.726974 
L 553.683487 85.298646 
L 553.705934 83.870317 
L 553.719659 82.441988 
L 553.727806 81.013659 
L 553.732491 79.585331 
L 553.735076 78.157002 
L 553.736391 76.728673 
L 553.736888 75.300344 
L 553.736744 73.872016 
L 553.735895 72.443687 
L 553.734027 71.015358 
L 553.730509 69.587029 
L 553.724276 68.158701 
L 553.713668 66.730372 
L 553.696245 65.302043 
L 553.668596 63.873714 
L 553.626203 62.445386 
L 553.56343 61.017057 
L 553.473709 59.588728 
L 553.350023 58.160399 
L 553.185712 56.732071 
L 552.975618 55.303742 
L 552.717444 53.875413 
L 552.413164 52.447084 
L 552.070171 51.018756 
L 551.701864 49.590427 
L 551.327376 48.162098 
L 550.970294 46.73377 
L 550.656381 45.305441 
L 550.410588 43.877112 
L 550.2538 42.448783 
L 550.199913 41.020455 
L 557.276451 41.020455 
L 557.276451 41.020455 
L 557.222563 42.448783 
L 557.065775 43.877112 
L 556.819983 45.305441 
L 556.50607 46.73377 
L 556.148988 48.162098 
L 555.7745 49.590427 
L 555.406192 51.018756 
L 555.063199 52.447084 
L 554.758919 53.875413 
L 554.500746 55.303742 
L 554.290651 56.732071 
L 554.126341 58.160399 
L 554.002655 59.588728 
L 553.912934 61.017057 
L 553.85016 62.445386 
L 553.807768 63.873714 
L 553.780119 65.302043 
L 553.762696 66.730372 
L 553.752088 68.158701 
L 553.745854 69.587029 
L 553.742336 71.015358 
L 553.740468 72.443687 
L 553.73962 73.872016 
L 553.739475 75.300344 
L 553.739973 76.728673 
L 553.741288 78.157002 
L 553.743873 79.585331 
L 553.748558 81.013659 
L 553.756705 82.441988 
L 553.77043 83.870317 
L 553.792877 85.298646 
L 553.828524 86.726974 
L 553.883474 88.155303 
L 553.965651 89.583632 
L 554.084806 91.011961 
L 554.252198 92.440289 
L 554.479841 93.868618 
L 554.779231 95.296947 
L 555.159564 96.725275 
L 555.625565 98.153604 
L 556.17521 99.581933 
L 556.797741 101.010262 
L 557.472462 102.43859 
L 558.168782 103.866919 
L 558.847815 105.295248 
L 559.465594 106.723577 
L 559.977613 108.151905 
L 560.344088 109.580234 
L 560.535075 111.008563 
L 560.534538 112.436892 
L 560.342595 113.86522 
L 559.975505 115.293549 
L 559.463405 116.721878 
L 558.846228 118.150207 
L 558.168591 119.578535 
L 557.474546 121.006864 
L 556.803065 122.435193 
L 556.184855 123.863522 
L 555.640788 125.29185 
L 555.181883 126.720179 
L 554.810531 128.148508 
L 554.522487 129.576837 
L 554.309165 131.005165 
L 554.159813 132.433494 
L 554.063325 133.861823 
L 554.009552 135.290152 
L 553.990121 136.71848 
L 553.998858 138.146809 
L 554.031916 139.575138 
L 554.087741 141.003466 
L 554.166969 142.431795 
L 554.27229 143.860124 
L 554.408308 145.288453 
L 554.581373 146.716781 
L 554.799333 148.14511 
L 555.071181 149.573439 
L 555.406548 151.001768 
L 555.81505 152.430096 
L 556.305511 153.858425 
L 556.885142 155.286754 
L 557.558789 156.715083 
L 558.328361 158.143411 
L 559.19255 159.57174 
L 560.146881 161.000069 
L 561.184018 162.428398 
L 562.29415 163.856726 
L 563.465177 165.285055 
L 564.682413 166.713384 
L 565.927593 168.141713 
L 567.17721 169.570041 
L 568.400522 170.99837 
L 569.557866 172.426699 
L 570.600129 173.855028 
L 571.470199 175.283356 
L 572.106887 176.711685 
L 572.451249 178.140014 
L 572.454545 179.568343 
L 572.086439 180.996671 
L 571.341717 182.425 
z
" clip-path="url(#paa25ddc349)" style="fill: #1f77b4; fill-opacity: 0.3"/>
   </g>
   <g id="PolyCollection_8">
    <path d="M 628.681602 303.467291 
L 628.525671 303.467291 
L 628.50387 302.133232 
L 628.477125 300.799173 
L 628.444086 299.465114 
L 628.403304 298.131055 
L 628.353539 296.796996 
L 628.294156 295.462937 
L 628.225462 294.128878 
L 628.148898 292.794819 
L 628.067004 291.46076 
L 627.983124 290.1267 
L 627.90094 288.792641 
L 627.823934 287.458582 
L 627.754934 286.124523 
L 627.695837 284.790464 
L 627.647572 283.456405 
L 627.610291 282.122346 
L 627.583688 280.788287 
L 627.567344 279.454228 
L 627.560978 278.120169 
L 627.564536 276.78611 
L 627.578109 275.452051 
L 627.601738 274.117992 
L 627.635198 272.783933 
L 627.677781 271.449874 
L 627.728094 270.115815 
L 627.783758 268.781756 
L 627.84092 267.447697 
L 627.893472 266.113638 
L 627.931967 264.779579 
L 627.942345 263.44552 
L 627.904732 262.111461 
L 627.792854 260.777401 
L 627.574864 259.443342 
L 627.216529 258.109283 
L 626.687532 256.775224 
L 625.970827 255.441165 
L 625.073584 254.107106 
L 624.036646 252.773047 
L 622.938388 251.438988 
L 621.889308 250.104929 
L 621.016046 248.77087 
L 620.437301 247.436811 
L 620.237801 246.102752 
L 620.448273 244.768693 
L 621.038064 243.434634 
L 621.922924 242.100575 
L 622.985246 240.766516 
L 624.100018 239.432457 
L 625.158607 238.098398 
L 626.084341 236.764339 
L 626.837572 235.43028 
L 627.411598 234.096221 
L 627.823093 232.762162 
L 628.101149 231.428102 
L 628.27796 230.094043 
L 628.382629 228.759984 
L 628.438154 227.425925 
L 628.460805 226.091866 
L 628.460908 224.757807 
L 628.444139 223.423748 
L 628.412783 222.089689 
L 628.366662 220.75563 
L 628.30364 219.421571 
L 628.219729 218.087512 
L 628.108876 216.753453 
L 627.96255 215.419394 
L 627.769286 214.085335 
L 627.514397 212.751276 
L 627.180102 211.417217 
L 626.746387 210.083158 
L 626.192888 208.749099 
L 625.50209 207.41504 
L 624.663894 206.080981 
L 623.681236 204.746922 
L 622.575752 203.412863 
L 621.391627 202.078803 
L 620.195097 200.744744 
L 619.067086 199.410685 
L 618.08784 198.076626 
L 617.315297 196.742567 
L 616.762671 195.408508 
L 616.383782 194.074449 
L 616.074995 192.74039 
L 615.698683 191.406331 
L 615.125443 190.072272 
L 614.283261 188.738213 
L 613.195877 187.404154 
L 611.99353 186.070095 
L 610.888169 184.736036 
L 610.11906 183.401977 
L 609.887273 182.067918 
L 610.302407 180.733859 
L 611.359425 179.3998 
L 612.950383 178.065741 
L 614.901952 176.731682 
L 617.021604 175.397623 
L 619.13616 174.063564 
L 621.113801 172.729504 
L 622.869523 171.395445 
L 634.33775 171.395445 
L 634.33775 171.395445 
L 636.093471 172.729504 
L 638.071112 174.063564 
L 640.185669 175.397623 
L 642.305321 176.731682 
L 644.25689 178.065741 
L 645.847848 179.3998 
L 646.904865 180.733859 
L 647.32 182.067918 
L 647.088213 183.401977 
L 646.319103 184.736036 
L 645.213742 186.070095 
L 644.011396 187.404154 
L 642.924011 188.738213 
L 642.081829 190.072272 
L 641.50859 191.406331 
L 641.132278 192.74039 
L 640.823491 194.074449 
L 640.444602 195.408508 
L 639.891975 196.742567 
L 639.119433 198.076626 
L 638.140187 199.410685 
L 637.012175 200.744744 
L 635.815645 202.078803 
L 634.631521 203.412863 
L 633.526037 204.746922 
L 632.543379 206.080981 
L 631.705183 207.41504 
L 631.014385 208.749099 
L 630.460886 210.083158 
L 630.02717 211.417217 
L 629.692876 212.751276 
L 629.437987 214.085335 
L 629.244723 215.419394 
L 629.098397 216.753453 
L 628.987544 218.087512 
L 628.903633 219.421571 
L 628.840611 220.75563 
L 628.79449 222.089689 
L 628.763134 223.423748 
L 628.746364 224.757807 
L 628.746467 226.091866 
L 628.769119 227.425925 
L 628.824643 228.759984 
L 628.929313 230.094043 
L 629.106124 231.428102 
L 629.38418 232.762162 
L 629.795675 234.096221 
L 630.3697 235.43028 
L 631.122932 236.764339 
L 632.048666 238.098398 
L 633.107255 239.432457 
L 634.222027 240.766516 
L 635.284348 242.100575 
L 636.169209 243.434634 
L 636.758999 244.768693 
L 636.969471 246.102752 
L 636.769972 247.436811 
L 636.191227 248.77087 
L 635.317965 250.104929 
L 634.268884 251.438988 
L 633.170627 252.773047 
L 632.133689 254.107106 
L 631.236446 255.441165 
L 630.51974 256.775224 
L 629.990743 258.109283 
L 629.632408 259.443342 
L 629.414419 260.777401 
L 629.302541 262.111461 
L 629.264927 263.44552 
L 629.275305 264.779579 
L 629.313801 266.113638 
L 629.366352 267.447697 
L 629.423515 268.781756 
L 629.479179 270.115815 
L 629.529492 271.449874 
L 629.572075 272.783933 
L 629.605534 274.117992 
L 629.629164 275.452051 
L 629.642736 276.78611 
L 629.646295 278.120169 
L 629.639929 279.454228 
L 629.623585 280.788287 
L 629.596981 282.122346 
L 629.559701 283.456405 
L 629.511436 284.790464 
L 629.452338 286.124523 
L 629.383339 287.458582 
L 629.306333 288.792641 
L 629.224148 290.1267 
L 629.140268 291.46076 
L 629.058374 292.794819 
L 628.981811 294.128878 
L 628.913116 295.462937 
L 628.853733 296.796996 
L 628.803969 298.131055 
L 628.763186 299.465114 
L 628.730148 300.799173 
L 628.703403 302.133232 
L 628.681602 303.467291 
z
" clip-path="url(#paa25ddc349)" style="fill: #1f77b4; fill-opacity: 0.3"/>
   </g>
   <g id="PolyCollection_9">
    <path d="M 703.606887 300.922009 
L 703.331295 300.922009 
L 703.291623 299.610803 
L 703.245862 298.299598 
L 703.194181 296.988392 
L 703.136876 295.677186 
L 703.074351 294.36598 
L 703.007163 293.054774 
L 702.936129 291.743569 
L 702.862483 290.432363 
L 702.788022 289.121157 
L 702.71515 287.809951 
L 702.646745 286.498745 
L 702.58583 285.18754 
L 702.535123 283.876334 
L 702.496595 282.565128 
L 702.471179 281.253922 
L 702.458725 279.942717 
L 702.458217 278.631511 
L 702.468147 277.320305 
L 702.486943 276.009099 
L 702.513285 274.697893 
L 702.546235 273.386688 
L 702.585103 272.075482 
L 702.629099 270.764276 
L 702.676824 269.45307 
L 702.725666 268.141864 
L 702.771156 266.830659 
L 702.806243 265.519453 
L 702.820433 264.208247 
L 702.798799 262.897041 
L 702.721063 261.585836 
L 702.561308 260.27463 
L 702.289148 258.963424 
L 701.873308 257.652218 
L 701.288215 256.341012 
L 700.523246 255.029807 
L 699.592897 253.718601 
L 698.544719 252.407395 
L 697.461228 251.096189 
L 696.452804 249.784983 
L 695.641039 248.473778 
L 695.135495 247.162572 
L 695.009898 245.851366 
L 695.28496 244.54016 
L 695.923419 243.228955 
L 696.838958 241.917749 
L 697.916023 240.606543 
L 699.034214 239.295337 
L 700.090117 237.984131 
L 701.011313 236.672926 
L 701.760662 235.36172 
L 702.332221 234.050514 
L 702.742178 232.739308 
L 703.018532 231.428102 
L 703.19232 230.116897 
L 703.291752 228.805691 
L 703.339338 227.494485 
L 703.351291 226.183279 
L 703.338263 224.872074 
L 703.306553 223.560868 
L 703.259244 222.249662 
L 703.196975 220.938456 
L 703.118301 219.62725 
L 703.019727 218.316045 
L 702.895542 217.004839 
L 702.737615 215.693633 
L 702.535241 214.382427 
L 702.275159 213.071221 
L 701.941839 211.760016 
L 701.518237 210.44881 
L 700.987238 209.137604 
L 700.334081 207.826398 
L 699.549922 206.515193 
L 698.636384 205.203987 
L 697.610391 203.892781 
L 696.507875 202.581575 
L 695.384295 201.270369 
L 694.309813 199.959164 
L 693.357748 198.647958 
L 692.586975 197.336752 
L 692.021852 196.025546 
L 691.636155 194.71434 
L 691.348788 193.403135 
L 691.037232 192.091929 
L 690.569456 190.780723 
L 689.847444 189.469517 
L 688.848779 188.158312 
L 687.650275 186.847106 
L 686.421944 185.5359 
L 685.389833 184.224694 
L 684.778533 182.913488 
L 684.752727 181.602283 
L 685.377602 180.291077 
L 686.609943 178.979871 
L 688.31918 177.668665 
L 690.326857 176.35746 
L 692.448642 175.046254 
L 694.526065 173.735048 
L 696.442562 172.423842 
L 698.125622 171.112636 
L 708.81256 171.112636 
L 708.81256 171.112636 
L 710.49562 172.423842 
L 712.412116 173.735048 
L 714.48954 175.046254 
L 716.611325 176.35746 
L 718.619002 177.668665 
L 720.328239 178.979871 
L 721.560579 180.291077 
L 722.185455 181.602283 
L 722.159649 182.913488 
L 721.548349 184.224694 
L 720.516238 185.5359 
L 719.287907 186.847106 
L 718.089403 188.158312 
L 717.090738 189.469517 
L 716.368726 190.780723 
L 715.900949 192.091929 
L 715.589394 193.403135 
L 715.302026 194.71434 
L 714.91633 196.025546 
L 714.351207 197.336752 
L 713.580434 198.647958 
L 712.628369 199.959164 
L 711.553886 201.270369 
L 710.430306 202.581575 
L 709.32779 203.892781 
L 708.301798 205.203987 
L 707.38826 206.515193 
L 706.6041 207.826398 
L 705.950944 209.137604 
L 705.419945 210.44881 
L 704.996343 211.760016 
L 704.663023 213.071221 
L 704.402941 214.382427 
L 704.200567 215.693633 
L 704.04264 217.004839 
L 703.918455 218.316045 
L 703.81988 219.62725 
L 703.741207 220.938456 
L 703.678938 222.249662 
L 703.631629 223.560868 
L 703.599919 224.872074 
L 703.58689 226.183279 
L 703.598844 227.494485 
L 703.64643 228.805691 
L 703.745862 230.116897 
L 703.91965 231.428102 
L 704.196004 232.739308 
L 704.605961 234.050514 
L 705.17752 235.36172 
L 705.926869 236.672926 
L 706.848065 237.984131 
L 707.903968 239.295337 
L 709.022159 240.606543 
L 710.099224 241.917749 
L 711.014762 243.228955 
L 711.653222 244.54016 
L 711.928284 245.851366 
L 711.802687 247.162572 
L 711.297143 248.473778 
L 710.485378 249.784983 
L 709.476953 251.096189 
L 708.393463 252.407395 
L 707.345285 253.718601 
L 706.414936 255.029807 
L 705.649967 256.341012 
L 705.064874 257.652218 
L 704.649034 258.963424 
L 704.376874 260.27463 
L 704.217119 261.585836 
L 704.139383 262.897041 
L 704.117749 264.208247 
L 704.131939 265.519453 
L 704.167026 266.830659 
L 704.212516 268.141864 
L 704.261358 269.45307 
L 704.309083 270.764276 
L 704.353079 272.075482 
L 704.391947 273.386688 
L 704.424896 274.697893 
L 704.451239 276.009099 
L 704.470035 277.320305 
L 704.479965 278.631511 
L 704.479457 279.942717 
L 704.467003 281.253922 
L 704.441587 282.565128 
L 704.403059 283.876334 
L 704.352352 285.18754 
L 704.291437 286.498745 
L 704.223032 287.809951 
L 704.15016 289.121157 
L 704.075699 290.432363 
L 704.002053 291.743569 
L 703.931019 293.054774 
L 703.863831 294.36598 
L 703.801306 295.677186 
L 703.744001 296.988392 
L 703.69232 298.299598 
L 703.646559 299.610803 
L 703.606887 300.922009 
z
" clip-path="url(#paa25ddc349)" style="fill: #1f77b4; fill-opacity: 0.3"/>
   </g>
   <g id="PolyCollection_10">
    <path d="M 786.890141 323.829545 
L 769.77895 323.829545 
L 769.646212 322.401217 
L 769.665487 320.972888 
L 769.835261 319.544559 
L 770.146236 318.11623 
L 770.582173 316.687902 
L 771.121299 315.259573 
L 771.738097 313.831244 
L 772.405286 312.402916 
L 773.09578 310.974587 
L 773.784426 309.546258 
L 774.44939 308.117929 
L 775.073086 306.689601 
L 775.642645 305.261272 
L 776.149925 303.832943 
L 776.591165 302.404614 
L 776.966357 300.976286 
L 777.278461 299.547957 
L 777.532558 298.119628 
L 777.735028 296.691299 
L 777.892817 295.262971 
L 778.012828 293.834642 
L 778.101445 292.406313 
L 778.164196 290.977984 
L 778.205525 289.549656 
L 778.228651 288.121327 
L 778.235495 286.692998 
L 778.226656 285.264669 
L 778.201404 283.836341 
L 778.157725 282.408012 
L 778.092386 280.979683 
L 778.001067 279.551354 
L 777.878563 278.123026 
L 777.719087 276.694697 
L 777.516697 275.266368 
L 777.265839 273.838039 
L 776.962008 272.409711 
L 776.602486 270.981382 
L 776.18711 269.553053 
L 775.71897 268.124725 
L 775.204966 266.696396 
L 774.656107 265.268067 
L 774.087471 263.839738 
L 773.517764 262.41141 
L 772.968457 260.983081 
L 772.462534 259.554752 
L 772.022948 258.126423 
L 771.670908 256.698095 
L 771.42419 255.269766 
L 771.29565 253.841437 
L 771.292107 252.413108 
L 771.413748 250.98478 
L 771.654106 249.556451 
L 772.000634 248.128122 
L 772.435793 246.699793 
L 772.938519 245.271465 
L 773.485913 243.843136 
L 774.054951 242.414807 
L 774.624041 240.986478 
L 775.174294 239.55815 
L 775.690404 238.129821 
L 776.161107 236.701492 
L 776.579237 235.273163 
L 776.941424 233.844835 
L 777.24754 232.416506 
L 777.499972 230.988177 
L 777.702824 229.559848 
L 777.861121 228.13152 
L 777.980083 226.703191 
L 778.064479 225.274862 
L 778.1181 223.846534 
L 778.143324 222.418205 
L 778.14078 220.989876 
L 778.109088 219.561547 
L 778.04467 218.133219 
L 777.941648 216.70489 
L 777.791838 215.276561 
L 777.584874 213.848232 
L 777.308509 212.419904 
L 776.949121 210.991575 
L 776.492475 209.563246 
L 775.924745 208.134917 
L 775.233784 206.706589 
L 774.410603 205.27826 
L 773.450946 203.849931 
L 772.356851 202.421602 
L 771.138018 200.993274 
L 769.812797 199.564945 
L 768.408635 198.136616 
L 766.961803 196.708287 
L 765.51634 195.279959 
L 764.12216 193.85163 
L 762.832428 192.423301 
L 761.700345 190.994972 
L 760.775611 189.566644 
L 760.100879 188.138315 
L 759.708541 186.709986 
L 759.618182 185.281657 
L 759.834964 183.853329 
L 760.349148 182.425 
L 796.319943 182.425 
L 796.319943 182.425 
L 796.834127 183.853329 
L 797.050909 185.281657 
L 796.960549 186.709986 
L 796.568212 188.138315 
L 795.89348 189.566644 
L 794.968746 190.994972 
L 793.836662 192.423301 
L 792.546931 193.85163 
L 791.152751 195.279959 
L 789.707288 196.708287 
L 788.260456 198.136616 
L 786.856294 199.564945 
L 785.531073 200.993274 
L 784.31224 202.421602 
L 783.218145 203.849931 
L 782.258488 205.27826 
L 781.435307 206.706589 
L 780.744346 208.134917 
L 780.176616 209.563246 
L 779.71997 210.991575 
L 779.360582 212.419904 
L 779.084217 213.848232 
L 778.877253 215.276561 
L 778.727443 216.70489 
L 778.624421 218.133219 
L 778.560003 219.561547 
L 778.528311 220.989876 
L 778.525767 222.418205 
L 778.550991 223.846534 
L 778.604612 225.274862 
L 778.689008 226.703191 
L 778.80797 228.13152 
L 778.966267 229.559848 
L 779.169119 230.988177 
L 779.421551 232.416506 
L 779.727667 233.844835 
L 780.089854 235.273163 
L 780.507984 236.701492 
L 780.978687 238.129821 
L 781.494797 239.55815 
L 782.04505 240.986478 
L 782.61414 242.414807 
L 783.183178 243.843136 
L 783.730572 245.271465 
L 784.233298 246.699793 
L 784.668457 248.128122 
L 785.014985 249.556451 
L 785.255343 250.98478 
L 785.376984 252.413108 
L 785.373441 253.841437 
L 785.244901 255.269766 
L 784.998183 256.698095 
L 784.646143 258.126423 
L 784.206557 259.554752 
L 783.700634 260.983081 
L 783.151327 262.41141 
L 782.58162 263.839738 
L 782.012984 265.268067 
L 781.464125 266.696396 
L 780.950121 268.124725 
L 780.481981 269.553053 
L 780.066604 270.981382 
L 779.707083 272.409711 
L 779.403252 273.838039 
L 779.152393 275.266368 
L 778.950004 276.694697 
L 778.790528 278.123026 
L 778.668023 279.551354 
L 778.576705 280.979683 
L 778.511366 282.408012 
L 778.467687 283.836341 
L 778.442435 285.264669 
L 778.433595 286.692998 
L 778.44044 288.121327 
L 778.463566 289.549656 
L 778.504895 290.977984 
L 778.567646 292.406313 
L 778.656263 293.834642 
L 778.776274 295.262971 
L 778.934063 296.691299 
L 779.136533 298.119628 
L 779.39063 299.547957 
L 779.702734 300.976286 
L 780.077926 302.404614 
L 780.519166 303.832943 
L 781.026446 305.261272 
L 781.596004 306.689601 
L 782.219701 308.117929 
L 782.884665 309.546258 
L 783.573311 310.974587 
L 784.263805 312.402916 
L 784.930994 313.831244 
L 785.547791 315.259573 
L 786.086918 316.687902 
L 786.522855 318.11623 
L 786.83383 319.544559 
L 787.003603 320.972888 
L 787.022879 322.401217 
L 786.890141 323.829545 
z
" clip-path="url(#paa25ddc349)" style="fill: #1f77b4; fill-opacity: 0.3"/>
   </g>
   <g id="matplotlib.axis_1">
    <g id="xtick_1">
     <g id="line2d_1">
      <defs>
       <path id="m7304424138" d="M 0 0 
L 0 3.5 
" style="stroke: #000000; stroke-width: 0.8"/>
      </defs>
      <g>
       <use xlink:href="#m7304424138" x="104.545455" y="337.97" style="stroke: #000000; stroke-width: 0.8"/>
      </g>
     </g>
     <g id="text_1">
      <!-- Grudger -->
      <g transform="translate(106.752955 377.89625)rotate(-90)scale(0.08 -0.08)">
       <defs>
        <path id="DejaVuSans-47" d="M 3809 666 
L 3809 1919 
L 2778 1919 
L 2778 2438 
L 4434 2438 
L 4434 434 
Q 4069 175 3628 42 
Q 3188 -91 2688 -91 
Q 1594 -91 976 548 
Q 359 1188 359 2328 
Q 359 3472 976 4111 
Q 1594 4750 2688 4750 
Q 3144 4750 3555 4637 
Q 3966 4525 4313 4306 
L 4313 3634 
Q 3963 3931 3569 4081 
Q 3175 4231 2741 4231 
Q 1884 4231 1454 3753 
Q 1025 3275 1025 2328 
Q 1025 1384 1454 906 
Q 1884 428 2741 428 
Q 3075 428 3337 486 
Q 3600 544 3809 666 
z
" transform="scale(0.015625)"/>
        <path id="DejaVuSans-72" d="M 2631 2963 
Q 2534 3019 2420 3045 
Q 2306 3072 2169 3072 
Q 1681 3072 1420 2755 
Q 1159 2438 1159 1844 
L 1159 0 
L 581 0 
L 581 3500 
L 1159 3500 
L 1159 2956 
Q 1341 3275 1631 3429 
Q 1922 3584 2338 3584 
Q 2397 3584 2469 3576 
Q 2541 3569 2628 3553 
L 2631 2963 
z
" transform="scale(0.015625)"/>
        <path id="DejaVuSans-75" d="M 544 1381 
L 544 3500 
L 1119 3500 
L 1119 1403 
Q 1119 906 1312 657 
Q 1506 409 1894 409 
Q 2359 409 2629 706 
Q 2900 1003 2900 1516 
L 2900 3500 
L 3475 3500 
L 3475 0 
L 2900 0 
L 2900 538 
Q 2691 219 2414 64 
Q 2138 -91 1772 -91 
Q 1169 -91 856 284 
Q 544 659 544 1381 
z
M 1991 3584 
L 1991 3584 
z
" transform="scale(0.015625)"/>
        <path id="DejaVuSans-64" d="M 2906 2969 
L 2906 4863 
L 3481 4863 
L 3481 0 
L 2906 0 
L 2906 525 
Q 2725 213 2448 61 
Q 2172 -91 1784 -91 
Q 1150 -91 751 415 
Q 353 922 353 1747 
Q 353 2572 751 3078 
Q 1150 3584 1784 3584 
Q 2172 3584 2448 3432 
Q 2725 3281 2906 2969 
z
M 947 1747 
Q 947 1113 1208 752 
Q 1469 391 1925 391 
Q 2381 391 2643 752 
Q 2906 1113 2906 1747 
Q 2906 2381 2643 2742 
Q 2381 3103 1925 3103 
Q 1469 3103 1208 2742 
Q 947 2381 947 1747 
z
" transform="scale(0.015625)"/>
        <path id="DejaVuSans-67" d="M 2906 1791 
Q 2906 2416 2648 2759 
Q 2391 3103 1925 3103 
Q 1463 3103 1205 2759 
Q 947 2416 947 1791 
Q 947 1169 1205 825 
Q 1463 481 1925 481 
Q 2391 481 2648 825 
Q 2906 1169 2906 1791 
z
M 3481 434 
Q 3481 -459 3084 -895 
Q 2688 -1331 1869 -1331 
Q 1566 -1331 1297 -1286 
Q 1028 -1241 775 -1147 
L 775 -588 
Q 1028 -725 1275 -790 
Q 1522 -856 1778 -856 
Q 2344 -856 2625 -561 
Q 2906 -266 2906 331 
L 2906 616 
Q 2728 306 2450 153 
Q 2172 0 1784 0 
Q 1141 0 747 490 
Q 353 981 353 1791 
Q 353 2603 747 3093 
Q 1141 3584 1784 3584 
Q 2172 3584 2450 3431 
Q 2728 3278 2906 2969 
L 2906 3500 
L 3481 3500 
L 3481 434 
z
" transform="scale(0.015625)"/>
        <path id="DejaVuSans-65" d="M 3597 1894 
L 3597 1613 
L 953 1613 
Q 991 1019 1311 708 
Q 1631 397 2203 397 
Q 2534 397 2845 478 
Q 3156 559 3463 722 
L 3463 178 
Q 3153 47 2828 -22 
Q 2503 -91 2169 -91 
Q 1331 -91 842 396 
Q 353 884 353 1716 
Q 353 2575 817 3079 
Q 1281 3584 2069 3584 
Q 2775 3584 3186 3129 
Q 3597 2675 3597 1894 
z
M 3022 2063 
Q 3016 2534 2758 2815 
Q 2500 3097 2075 3097 
Q 1594 3097 1305 2825 
Q 1016 2553 972 2059 
L 3022 2063 
z
" transform="scale(0.015625)"/>
       </defs>
       <use xlink:href="#DejaVuSans-47"/>
       <use xlink:href="#DejaVuSans-72" x="77.490234"/>
       <use xlink:href="#DejaVuSans-75" x="118.603516"/>
       <use xlink:href="#DejaVuSans-64" x="181.982422"/>
       <use xlink:href="#DejaVuSans-67" x="245.458984"/>
       <use xlink:href="#DejaVuSans-65" x="308.935547"/>
       <use xlink:href="#DejaVuSans-72" x="370.458984"/>
      </g>
     </g>
    </g>
    <g id="xtick_2">
     <g id="line2d_2">
      <g>
       <use xlink:href="#m7304424138" x="179.410909" y="337.97" style="stroke: #000000; stroke-width: 0.8"/>
      </g>
     </g>
     <g id="text_2">
      <!-- Tit For Tat -->
      <g transform="translate(181.618409 384.15)rotate(-90)scale(0.08 -0.08)">
       <defs>
        <path id="DejaVuSans-54" d="M -19 4666 
L 3928 4666 
L 3928 4134 
L 2272 4134 
L 2272 0 
L 1638 0 
L 1638 4134 
L -19 4134 
L -19 4666 
z
" transform="scale(0.015625)"/>
        <path id="DejaVuSans-69" d="M 603 3500 
L 1178 3500 
L 1178 0 
L 603 0 
L 603 3500 
z
M 603 4863 
L 1178 4863 
L 1178 4134 
L 603 4134 
L 603 4863 
z
" transform="scale(0.015625)"/>
        <path id="DejaVuSans-74" d="M 1172 4494 
L 1172 3500 
L 2356 3500 
L 2356 3053 
L 1172 3053 
L 1172 1153 
Q 1172 725 1289 603 
Q 1406 481 1766 481 
L 2356 481 
L 2356 0 
L 1766 0 
Q 1100 0 847 248 
Q 594 497 594 1153 
L 594 3053 
L 172 3053 
L 172 3500 
L 594 3500 
L 594 4494 
L 1172 4494 
z
" transform="scale(0.015625)"/>
        <path id="DejaVuSans-20" transform="scale(0.015625)"/>
        <path id="DejaVuSans-46" d="M 628 4666 
L 3309 4666 
L 3309 4134 
L 1259 4134 
L 1259 2759 
L 3109 2759 
L 3109 2228 
L 1259 2228 
L 1259 0 
L 628 0 
L 628 4666 
z
" transform="scale(0.015625)"/>
        <path id="DejaVuSans-6f" d="M 1959 3097 
Q 1497 3097 1228 2736 
Q 959 2375 959 1747 
Q 959 1119 1226 758 
Q 1494 397 1959 397 
Q 2419 397 2687 759 
Q 2956 1122 2956 1747 
Q 2956 2369 2687 2733 
Q 2419 3097 1959 3097 
z
M 1959 3584 
Q 2709 3584 3137 3096 
Q 3566 2609 3566 1747 
Q 3566 888 3137 398 
Q 2709 -91 1959 -91 
Q 1206 -91 779 398 
Q 353 888 353 1747 
Q 353 2609 779 3096 
Q 1206 3584 1959 3584 
z
" transform="scale(0.015625)"/>
        <path id="DejaVuSans-61" d="M 2194 1759 
Q 1497 1759 1228 1600 
Q 959 1441 959 1056 
Q 959 750 1161 570 
Q 1363 391 1709 391 
Q 2188 391 2477 730 
Q 2766 1069 2766 1631 
L 2766 1759 
L 2194 1759 
z
M 3341 1997 
L 3341 0 
L 2766 0 
L 2766 531 
Q 2569 213 2275 61 
Q 1981 -91 1556 -91 
Q 1019 -91 701 211 
Q 384 513 384 1019 
Q 384 1609 779 1909 
Q 1175 2209 1959 2209 
L 2766 2209 
L 2766 2266 
Q 2766 2663 2505 2880 
Q 2244 3097 1772 3097 
Q 1472 3097 1187 3025 
Q 903 2953 641 2809 
L 641 3341 
Q 956 3463 1253 3523 
Q 1550 3584 1831 3584 
Q 2591 3584 2966 3190 
Q 3341 2797 3341 1997 
z
" transform="scale(0.015625)"/>
       </defs>
       <use xlink:href="#DejaVuSans-54"/>
       <use xlink:href="#DejaVuSans-69" x="57.958984"/>
       <use xlink:href="#DejaVuSans-74" x="85.742188"/>
       <use xlink:href="#DejaVuSans-20" x="124.951172"/>
       <use xlink:href="#DejaVuSans-46" x="156.738281"/>
       <use xlink:href="#DejaVuSans-6f" x="210.632812"/>
       <use xlink:href="#DejaVuSans-72" x="271.814453"/>
       <use xlink:href="#DejaVuSans-20" x="312.927734"/>
       <use xlink:href="#DejaVuSans-54" x="344.714844"/>
       <use xlink:href="#DejaVuSans-61" x="389.298828"/>
       <use xlink:href="#DejaVuSans-74" x="450.578125"/>
      </g>
     </g>
    </g>
    <g id="xtick_3">
     <g id="line2d_3">
      <g>
       <use xlink:href="#m7304424138" x="254.276364" y="337.97" style="stroke: #000000; stroke-width: 0.8"/>
      </g>
     </g>
     <g id="text_3">
      <!-- Deep QLearner -->
      <g transform="translate(256.483864 405.46625)rotate(-90)scale(0.08 -0.08)">
       <defs>
        <path id="DejaVuSans-44" d="M 1259 4147 
L 1259 519 
L 2022 519 
Q 2988 519 3436 956 
Q 3884 1394 3884 2338 
Q 3884 3275 3436 3711 
Q 2988 4147 2022 4147 
L 1259 4147 
z
M 628 4666 
L 1925 4666 
Q 3281 4666 3915 4102 
Q 4550 3538 4550 2338 
Q 4550 1131 3912 565 
Q 3275 0 1925 0 
L 628 0 
L 628 4666 
z
" transform="scale(0.015625)"/>
        <path id="DejaVuSans-70" d="M 1159 525 
L 1159 -1331 
L 581 -1331 
L 581 3500 
L 1159 3500 
L 1159 2969 
Q 1341 3281 1617 3432 
Q 1894 3584 2278 3584 
Q 2916 3584 3314 3078 
Q 3713 2572 3713 1747 
Q 3713 922 3314 415 
Q 2916 -91 2278 -91 
Q 1894 -91 1617 61 
Q 1341 213 1159 525 
z
M 3116 1747 
Q 3116 2381 2855 2742 
Q 2594 3103 2138 3103 
Q 1681 3103 1420 2742 
Q 1159 2381 1159 1747 
Q 1159 1113 1420 752 
Q 1681 391 2138 391 
Q 2594 391 2855 752 
Q 3116 1113 3116 1747 
z
" transform="scale(0.015625)"/>
        <path id="DejaVuSans-51" d="M 2522 4238 
Q 1834 4238 1429 3725 
Q 1025 3213 1025 2328 
Q 1025 1447 1429 934 
Q 1834 422 2522 422 
Q 3209 422 3611 934 
Q 4013 1447 4013 2328 
Q 4013 3213 3611 3725 
Q 3209 4238 2522 4238 
z
M 3406 84 
L 4238 -825 
L 3475 -825 
L 2784 -78 
Q 2681 -84 2626 -87 
Q 2572 -91 2522 -91 
Q 1538 -91 948 567 
Q 359 1225 359 2328 
Q 359 3434 948 4092 
Q 1538 4750 2522 4750 
Q 3503 4750 4090 4092 
Q 4678 3434 4678 2328 
Q 4678 1516 4351 937 
Q 4025 359 3406 84 
z
" transform="scale(0.015625)"/>
        <path id="DejaVuSans-4c" d="M 628 4666 
L 1259 4666 
L 1259 531 
L 3531 531 
L 3531 0 
L 628 0 
L 628 4666 
z
" transform="scale(0.015625)"/>
        <path id="DejaVuSans-6e" d="M 3513 2113 
L 3513 0 
L 2938 0 
L 2938 2094 
Q 2938 2591 2744 2837 
Q 2550 3084 2163 3084 
Q 1697 3084 1428 2787 
Q 1159 2491 1159 1978 
L 1159 0 
L 581 0 
L 581 3500 
L 1159 3500 
L 1159 2956 
Q 1366 3272 1645 3428 
Q 1925 3584 2291 3584 
Q 2894 3584 3203 3211 
Q 3513 2838 3513 2113 
z
" transform="scale(0.015625)"/>
       </defs>
       <use xlink:href="#DejaVuSans-44"/>
       <use xlink:href="#DejaVuSans-65" x="77.001953"/>
       <use xlink:href="#DejaVuSans-65" x="138.525391"/>
       <use xlink:href="#DejaVuSans-70" x="200.048828"/>
       <use xlink:href="#DejaVuSans-20" x="263.525391"/>
       <use xlink:href="#DejaVuSans-51" x="295.3125"/>
       <use xlink:href="#DejaVuSans-4c" x="374.023438"/>
       <use xlink:href="#DejaVuSans-65" x="427.986328"/>
       <use xlink:href="#DejaVuSans-61" x="489.509766"/>
       <use xlink:href="#DejaVuSans-72" x="550.789062"/>
       <use xlink:href="#DejaVuSans-6e" x="590.152344"/>
       <use xlink:href="#DejaVuSans-65" x="653.53125"/>
       <use xlink:href="#DejaVuSans-72" x="715.054688"/>
      </g>
     </g>
    </g>
    <g id="xtick_4">
     <g id="line2d_4">
      <g>
       <use xlink:href="#m7304424138" x="329.141818" y="337.97" style="stroke: #000000; stroke-width: 0.8"/>
      </g>
     </g>
     <g id="text_4">
      <!-- Adaptive -->
      <g transform="translate(331.349318 380.37875)rotate(-90)scale(0.08 -0.08)">
       <defs>
        <path id="DejaVuSans-41" d="M 2188 4044 
L 1331 1722 
L 3047 1722 
L 2188 4044 
z
M 1831 4666 
L 2547 4666 
L 4325 0 
L 3669 0 
L 3244 1197 
L 1141 1197 
L 716 0 
L 50 0 
L 1831 4666 
z
" transform="scale(0.015625)"/>
        <path id="DejaVuSans-76" d="M 191 3500 
L 800 3500 
L 1894 563 
L 2988 3500 
L 3597 3500 
L 2284 0 
L 1503 0 
L 191 3500 
z
" transform="scale(0.015625)"/>
       </defs>
       <use xlink:href="#DejaVuSans-41"/>
       <use xlink:href="#DejaVuSans-64" x="66.658203"/>
       <use xlink:href="#DejaVuSans-61" x="130.134766"/>
       <use xlink:href="#DejaVuSans-70" x="191.414062"/>
       <use xlink:href="#DejaVuSans-74" x="254.890625"/>
       <use xlink:href="#DejaVuSans-69" x="294.099609"/>
       <use xlink:href="#DejaVuSans-76" x="321.882812"/>
       <use xlink:href="#DejaVuSans-65" x="381.0625"/>
      </g>
     </g>
    </g>
    <g id="xtick_5">
     <g id="line2d_5">
      <g>
       <use xlink:href="#m7304424138" x="404.007273" y="337.97" style="stroke: #000000; stroke-width: 0.8"/>
      </g>
     </g>
     <g id="text_5">
      <!-- Alternator -->
      <g transform="translate(406.214773 385.165)rotate(-90)scale(0.08 -0.08)">
       <defs>
        <path id="DejaVuSans-6c" d="M 603 4863 
L 1178 4863 
L 1178 0 
L 603 0 
L 603 4863 
z
" transform="scale(0.015625)"/>
       </defs>
       <use xlink:href="#DejaVuSans-41"/>
       <use xlink:href="#DejaVuSans-6c" x="68.408203"/>
       <use xlink:href="#DejaVuSans-74" x="96.191406"/>
       <use xlink:href="#DejaVuSans-65" x="135.400391"/>
       <use xlink:href="#DejaVuSans-72" x="196.923828"/>
       <use xlink:href="#DejaVuSans-6e" x="236.287109"/>
       <use xlink:href="#DejaVuSans-61" x="299.666016"/>
       <use xlink:href="#DejaVuSans-74" x="360.945312"/>
       <use xlink:href="#DejaVuSans-6f" x="400.154297"/>
       <use xlink:href="#DejaVuSans-72" x="461.335938"/>
      </g>
     </g>
    </g>
    <g id="xtick_6">
     <g id="line2d_6">
      <g>
       <use xlink:href="#m7304424138" x="478.872727" y="337.97" style="stroke: #000000; stroke-width: 0.8"/>
      </g>
     </g>
     <g id="text_6">
      <!-- Random: 0.5 -->
      <g transform="translate(481.080227 396.0475)rotate(-90)scale(0.08 -0.08)">
       <defs>
        <path id="DejaVuSans-52" d="M 2841 2188 
Q 3044 2119 3236 1894 
Q 3428 1669 3622 1275 
L 4263 0 
L 3584 0 
L 2988 1197 
Q 2756 1666 2539 1819 
Q 2322 1972 1947 1972 
L 1259 1972 
L 1259 0 
L 628 0 
L 628 4666 
L 2053 4666 
Q 2853 4666 3247 4331 
Q 3641 3997 3641 3322 
Q 3641 2881 3436 2590 
Q 3231 2300 2841 2188 
z
M 1259 4147 
L 1259 2491 
L 2053 2491 
Q 2509 2491 2742 2702 
Q 2975 2913 2975 3322 
Q 2975 3731 2742 3939 
Q 2509 4147 2053 4147 
L 1259 4147 
z
" transform="scale(0.015625)"/>
        <path id="DejaVuSans-6d" d="M 3328 2828 
Q 3544 3216 3844 3400 
Q 4144 3584 4550 3584 
Q 5097 3584 5394 3201 
Q 5691 2819 5691 2113 
L 5691 0 
L 5113 0 
L 5113 2094 
Q 5113 2597 4934 2840 
Q 4756 3084 4391 3084 
Q 3944 3084 3684 2787 
Q 3425 2491 3425 1978 
L 3425 0 
L 2847 0 
L 2847 2094 
Q 2847 2600 2669 2842 
Q 2491 3084 2119 3084 
Q 1678 3084 1418 2786 
Q 1159 2488 1159 1978 
L 1159 0 
L 581 0 
L 581 3500 
L 1159 3500 
L 1159 2956 
Q 1356 3278 1631 3431 
Q 1906 3584 2284 3584 
Q 2666 3584 2933 3390 
Q 3200 3197 3328 2828 
z
" transform="scale(0.015625)"/>
        <path id="DejaVuSans-3a" d="M 750 794 
L 1409 794 
L 1409 0 
L 750 0 
L 750 794 
z
M 750 3309 
L 1409 3309 
L 1409 2516 
L 750 2516 
L 750 3309 
z
" transform="scale(0.015625)"/>
        <path id="DejaVuSans-30" d="M 2034 4250 
Q 1547 4250 1301 3770 
Q 1056 3291 1056 2328 
Q 1056 1369 1301 889 
Q 1547 409 2034 409 
Q 2525 409 2770 889 
Q 3016 1369 3016 2328 
Q 3016 3291 2770 3770 
Q 2525 4250 2034 4250 
z
M 2034 4750 
Q 2819 4750 3233 4129 
Q 3647 3509 3647 2328 
Q 3647 1150 3233 529 
Q 2819 -91 2034 -91 
Q 1250 -91 836 529 
Q 422 1150 422 2328 
Q 422 3509 836 4129 
Q 1250 4750 2034 4750 
z
" transform="scale(0.015625)"/>
        <path id="DejaVuSans-2e" d="M 684 794 
L 1344 794 
L 1344 0 
L 684 0 
L 684 794 
z
" transform="scale(0.015625)"/>
        <path id="DejaVuSans-35" d="M 691 4666 
L 3169 4666 
L 3169 4134 
L 1269 4134 
L 1269 2991 
Q 1406 3038 1543 3061 
Q 1681 3084 1819 3084 
Q 2600 3084 3056 2656 
Q 3513 2228 3513 1497 
Q 3513 744 3044 326 
Q 2575 -91 1722 -91 
Q 1428 -91 1123 -41 
Q 819 9 494 109 
L 494 744 
Q 775 591 1075 516 
Q 1375 441 1709 441 
Q 2250 441 2565 725 
Q 2881 1009 2881 1497 
Q 2881 1984 2565 2268 
Q 2250 2553 1709 2553 
Q 1456 2553 1204 2497 
Q 953 2441 691 2322 
L 691 4666 
z
" transform="scale(0.015625)"/>
       </defs>
       <use xlink:href="#DejaVuSans-52"/>
       <use xlink:href="#DejaVuSans-61" x="67.232422"/>
       <use xlink:href="#DejaVuSans-6e" x="128.511719"/>
       <use xlink:href="#DejaVuSans-64" x="191.890625"/>
       <use xlink:href="#DejaVuSans-6f" x="255.367188"/>
       <use xlink:href="#DejaVuSans-6d" x="316.548828"/>
       <use xlink:href="#DejaVuSans-3a" x="413.960938"/>
       <use xlink:href="#DejaVuSans-20" x="447.652344"/>
       <use xlink:href="#DejaVuSans-30" x="479.439453"/>
       <use xlink:href="#DejaVuSans-2e" x="543.0625"/>
       <use xlink:href="#DejaVuSans-35" x="574.849609"/>
      </g>
     </g>
    </g>
    <g id="xtick_7">
     <g id="line2d_7">
      <g>
       <use xlink:href="#m7304424138" x="553.738182" y="337.97" style="stroke: #000000; stroke-width: 0.8"/>
      </g>
     </g>
     <g id="text_7">
      <!-- Defector -->
      <g transform="translate(555.945682 379.51)rotate(-90)scale(0.08 -0.08)">
       <defs>
        <path id="DejaVuSans-66" d="M 2375 4863 
L 2375 4384 
L 1825 4384 
Q 1516 4384 1395 4259 
Q 1275 4134 1275 3809 
L 1275 3500 
L 2222 3500 
L 2222 3053 
L 1275 3053 
L 1275 0 
L 697 0 
L 697 3053 
L 147 3053 
L 147 3500 
L 697 3500 
L 697 3744 
Q 697 4328 969 4595 
Q 1241 4863 1831 4863 
L 2375 4863 
z
" transform="scale(0.015625)"/>
        <path id="DejaVuSans-63" d="M 3122 3366 
L 3122 2828 
Q 2878 2963 2633 3030 
Q 2388 3097 2138 3097 
Q 1578 3097 1268 2742 
Q 959 2388 959 1747 
Q 959 1106 1268 751 
Q 1578 397 2138 397 
Q 2388 397 2633 464 
Q 2878 531 3122 666 
L 3122 134 
Q 2881 22 2623 -34 
Q 2366 -91 2075 -91 
Q 1284 -91 818 406 
Q 353 903 353 1747 
Q 353 2603 823 3093 
Q 1294 3584 2113 3584 
Q 2378 3584 2631 3529 
Q 2884 3475 3122 3366 
z
" transform="scale(0.015625)"/>
       </defs>
       <use xlink:href="#DejaVuSans-44"/>
       <use xlink:href="#DejaVuSans-65" x="77.001953"/>
       <use xlink:href="#DejaVuSans-66" x="138.525391"/>
       <use xlink:href="#DejaVuSans-65" x="173.730469"/>
       <use xlink:href="#DejaVuSans-63" x="235.253906"/>
       <use xlink:href="#DejaVuSans-74" x="290.234375"/>
       <use xlink:href="#DejaVuSans-6f" x="329.443359"/>
       <use xlink:href="#DejaVuSans-72" x="390.625"/>
      </g>
     </g>
    </g>
    <g id="xtick_8">
     <g id="line2d_8">
      <g>
       <use xlink:href="#m7304424138" x="628.603636" y="337.97" style="stroke: #000000; stroke-width: 0.8"/>
      </g>
     </g>
     <g id="text_8">
      <!-- Mediocre QLearner -->
      <g transform="translate(630.811136 420.83375)rotate(-90)scale(0.08 -0.08)">
       <defs>
        <path id="DejaVuSans-4d" d="M 628 4666 
L 1569 4666 
L 2759 1491 
L 3956 4666 
L 4897 4666 
L 4897 0 
L 4281 0 
L 4281 4097 
L 3078 897 
L 2444 897 
L 1241 4097 
L 1241 0 
L 628 0 
L 628 4666 
z
" transform="scale(0.015625)"/>
       </defs>
       <use xlink:href="#DejaVuSans-4d"/>
       <use xlink:href="#DejaVuSans-65" x="86.279297"/>
       <use xlink:href="#DejaVuSans-64" x="147.802734"/>
       <use xlink:href="#DejaVuSans-69" x="211.279297"/>
       <use xlink:href="#DejaVuSans-6f" x="239.0625"/>
       <use xlink:href="#DejaVuSans-63" x="300.244141"/>
       <use xlink:href="#DejaVuSans-72" x="355.224609"/>
       <use xlink:href="#DejaVuSans-65" x="394.087891"/>
       <use xlink:href="#DejaVuSans-20" x="455.611328"/>
       <use xlink:href="#DejaVuSans-51" x="487.398438"/>
       <use xlink:href="#DejaVuSans-4c" x="566.109375"/>
       <use xlink:href="#DejaVuSans-65" x="620.072266"/>
       <use xlink:href="#DejaVuSans-61" x="681.595703"/>
       <use xlink:href="#DejaVuSans-72" x="742.875"/>
       <use xlink:href="#DejaVuSans-6e" x="782.238281"/>
       <use xlink:href="#DejaVuSans-65" x="845.617188"/>
       <use xlink:href="#DejaVuSans-72" x="907.140625"/>
      </g>
     </g>
    </g>
    <g id="xtick_9">
     <g id="line2d_9">
      <g>
       <use xlink:href="#m7304424138" x="703.469091" y="337.97" style="stroke: #000000; stroke-width: 0.8"/>
      </g>
     </g>
     <g id="text_9">
      <!-- Risky QLearner -->
      <g transform="translate(705.676591 405.40875)rotate(-90)scale(0.08 -0.08)">
       <defs>
        <path id="DejaVuSans-73" d="M 2834 3397 
L 2834 2853 
Q 2591 2978 2328 3040 
Q 2066 3103 1784 3103 
Q 1356 3103 1142 2972 
Q 928 2841 928 2578 
Q 928 2378 1081 2264 
Q 1234 2150 1697 2047 
L 1894 2003 
Q 2506 1872 2764 1633 
Q 3022 1394 3022 966 
Q 3022 478 2636 193 
Q 2250 -91 1575 -91 
Q 1294 -91 989 -36 
Q 684 19 347 128 
L 347 722 
Q 666 556 975 473 
Q 1284 391 1588 391 
Q 1994 391 2212 530 
Q 2431 669 2431 922 
Q 2431 1156 2273 1281 
Q 2116 1406 1581 1522 
L 1381 1569 
Q 847 1681 609 1914 
Q 372 2147 372 2553 
Q 372 3047 722 3315 
Q 1072 3584 1716 3584 
Q 2034 3584 2315 3537 
Q 2597 3491 2834 3397 
z
" transform="scale(0.015625)"/>
        <path id="DejaVuSans-6b" d="M 581 4863 
L 1159 4863 
L 1159 1991 
L 2875 3500 
L 3609 3500 
L 1753 1863 
L 3688 0 
L 2938 0 
L 1159 1709 
L 1159 0 
L 581 0 
L 581 4863 
z
" transform="scale(0.015625)"/>
        <path id="DejaVuSans-79" d="M 2059 -325 
Q 1816 -950 1584 -1140 
Q 1353 -1331 966 -1331 
L 506 -1331 
L 506 -850 
L 844 -850 
Q 1081 -850 1212 -737 
Q 1344 -625 1503 -206 
L 1606 56 
L 191 3500 
L 800 3500 
L 1894 763 
L 2988 3500 
L 3597 3500 
L 2059 -325 
z
" transform="scale(0.015625)"/>
       </defs>
       <use xlink:href="#DejaVuSans-52"/>
       <use xlink:href="#DejaVuSans-69" x="69.482422"/>
       <use xlink:href="#DejaVuSans-73" x="97.265625"/>
       <use xlink:href="#DejaVuSans-6b" x="149.365234"/>
       <use xlink:href="#DejaVuSans-79" x="203.650391"/>
       <use xlink:href="#DejaVuSans-20" x="262.830078"/>
       <use xlink:href="#DejaVuSans-51" x="294.617188"/>
       <use xlink:href="#DejaVuSans-4c" x="373.328125"/>
       <use xlink:href="#DejaVuSans-65" x="427.291016"/>
       <use xlink:href="#DejaVuSans-61" x="488.814453"/>
       <use xlink:href="#DejaVuSans-72" x="550.09375"/>
       <use xlink:href="#DejaVuSans-6e" x="589.457031"/>
       <use xlink:href="#DejaVuSans-65" x="652.835938"/>
       <use xlink:href="#DejaVuSans-72" x="714.359375"/>
      </g>
     </g>
    </g>
    <g id="xtick_10">
     <g id="line2d_10">
      <g>
       <use xlink:href="#m7304424138" x="778.334545" y="337.97" style="stroke: #000000; stroke-width: 0.8"/>
      </g>
     </g>
     <g id="text_10">
      <!-- Cooperator -->
      <g transform="translate(780.542045 389.85875)rotate(-90)scale(0.08 -0.08)">
       <defs>
        <path id="DejaVuSans-43" d="M 4122 4306 
L 4122 3641 
Q 3803 3938 3442 4084 
Q 3081 4231 2675 4231 
Q 1875 4231 1450 3742 
Q 1025 3253 1025 2328 
Q 1025 1406 1450 917 
Q 1875 428 2675 428 
Q 3081 428 3442 575 
Q 3803 722 4122 1019 
L 4122 359 
Q 3791 134 3420 21 
Q 3050 -91 2638 -91 
Q 1578 -91 968 557 
Q 359 1206 359 2328 
Q 359 3453 968 4101 
Q 1578 4750 2638 4750 
Q 3056 4750 3426 4639 
Q 3797 4528 4122 4306 
z
" transform="scale(0.015625)"/>
       </defs>
       <use xlink:href="#DejaVuSans-43"/>
       <use xlink:href="#DejaVuSans-6f" x="69.824219"/>
       <use xlink:href="#DejaVuSans-6f" x="131.005859"/>
       <use xlink:href="#DejaVuSans-70" x="192.1875"/>
       <use xlink:href="#DejaVuSans-65" x="255.664062"/>
       <use xlink:href="#DejaVuSans-72" x="317.1875"/>
       <use xlink:href="#DejaVuSans-61" x="358.300781"/>
       <use xlink:href="#DejaVuSans-74" x="419.580078"/>
       <use xlink:href="#DejaVuSans-6f" x="458.789062"/>
       <use xlink:href="#DejaVuSans-72" x="519.970703"/>
      </g>
     </g>
    </g>
   </g>
   <g id="matplotlib.axis_2">
    <g id="ytick_1">
     <g id="line2d_11">
      <defs>
       <path id="md7eef8fb65" d="M 0 0 
L -3.5 0 
" style="stroke: #000000; stroke-width: 0.8"/>
      </defs>
      <g>
       <use xlink:href="#md7eef8fb65" x="29.68" y="295.548636" style="stroke: #000000; stroke-width: 0.8"/>
      </g>
     </g>
     <g id="text_11">
      <!-- 4 -->
      <g transform="translate(10.88625 298.588011)scale(0.08 -0.08)">
       <defs>
        <path id="DejaVuSans-2212" d="M 678 2272 
L 4684 2272 
L 4684 1741 
L 678 1741 
L 678 2272 
z
" transform="scale(0.015625)"/>
        <path id="DejaVuSans-34" d="M 2419 4116 
L 825 1625 
L 2419 1625 
L 2419 4116 
z
M 2253 4666 
L 3047 4666 
L 3047 1625 
L 3713 1625 
L 3713 1100 
L 3047 1100 
L 3047 0 
L 2419 0 
L 2419 1100 
L 313 1100 
L 313 1709 
L 2253 4666 
z
" transform="scale(0.015625)"/>
       </defs>
       <use xlink:href="#DejaVuSans-2212"/>
       <use xlink:href="#DejaVuSans-34" x="83.789062"/>
      </g>
     </g>
    </g>
    <g id="ytick_2">
     <g id="line2d_12">
      <g>
       <use xlink:href="#md7eef8fb65" x="29.68" y="238.986818" style="stroke: #000000; stroke-width: 0.8"/>
      </g>
     </g>
     <g id="text_12">
      <!-- 2 -->
      <g transform="translate(10.88625 242.026193)scale(0.08 -0.08)">
       <defs>
        <path id="DejaVuSans-32" d="M 1228 531 
L 3431 531 
L 3431 0 
L 469 0 
L 469 531 
Q 828 903 1448 1529 
Q 2069 2156 2228 2338 
Q 2531 2678 2651 2914 
Q 2772 3150 2772 3378 
Q 2772 3750 2511 3984 
Q 2250 4219 1831 4219 
Q 1534 4219 1204 4116 
Q 875 4013 500 3803 
L 500 4441 
Q 881 4594 1212 4672 
Q 1544 4750 1819 4750 
Q 2544 4750 2975 4387 
Q 3406 4025 3406 3419 
Q 3406 3131 3298 2873 
Q 3191 2616 2906 2266 
Q 2828 2175 2409 1742 
Q 1991 1309 1228 531 
z
" transform="scale(0.015625)"/>
       </defs>
       <use xlink:href="#DejaVuSans-2212"/>
       <use xlink:href="#DejaVuSans-32" x="83.789062"/>
      </g>
     </g>
    </g>
    <g id="ytick_3">
     <g id="line2d_13">
      <g>
       <use xlink:href="#md7eef8fb65" x="29.68" y="182.425" style="stroke: #000000; stroke-width: 0.8"/>
      </g>
     </g>
     <g id="text_13">
      <!-- 0 -->
      <g transform="translate(17.59 185.464375)scale(0.08 -0.08)">
       <use xlink:href="#DejaVuSans-30"/>
      </g>
     </g>
    </g>
    <g id="ytick_4">
     <g id="line2d_14">
      <g>
       <use xlink:href="#md7eef8fb65" x="29.68" y="125.863182" style="stroke: #000000; stroke-width: 0.8"/>
      </g>
     </g>
     <g id="text_14">
      <!-- 2 -->
      <g transform="translate(17.59 128.902557)scale(0.08 -0.08)">
       <use xlink:href="#DejaVuSans-32"/>
      </g>
     </g>
    </g>
    <g id="ytick_5">
     <g id="line2d_15">
      <g>
       <use xlink:href="#md7eef8fb65" x="29.68" y="69.301364" style="stroke: #000000; stroke-width: 0.8"/>
      </g>
     </g>
     <g id="text_15">
      <!-- 4 -->
      <g transform="translate(17.59 72.340739)scale(0.08 -0.08)">
       <use xlink:href="#DejaVuSans-34"/>
      </g>
     </g>
    </g>
   </g>
   <g id="LineCollection_1">
    <path d="M 95.187273 171.961064 
L 113.903636 171.961064 
" clip-path="url(#paa25ddc349)" style="fill: none; stroke: #1f77b4; stroke-width: 1.5"/>
    <path d="M 170.052727 182.425 
L 188.769091 182.425 
" clip-path="url(#paa25ddc349)" style="fill: none; stroke: #1f77b4; stroke-width: 1.5"/>
    <path d="M 244.918182 182.425 
L 263.634545 182.425 
" clip-path="url(#paa25ddc349)" style="fill: none; stroke: #1f77b4; stroke-width: 1.5"/>
    <path d="M 319.783636 171.678255 
L 338.5 171.678255 
" clip-path="url(#paa25ddc349)" style="fill: none; stroke: #1f77b4; stroke-width: 1.5"/>
    <path d="M 394.649091 182.425 
L 413.365455 182.425 
" clip-path="url(#paa25ddc349)" style="fill: none; stroke: #1f77b4; stroke-width: 1.5"/>
    <path d="M 469.514545 182.425 
L 488.230909 182.425 
" clip-path="url(#paa25ddc349)" style="fill: none; stroke: #1f77b4; stroke-width: 1.5"/>
    <path d="M 544.38 171.678255 
L 563.096364 171.678255 
" clip-path="url(#paa25ddc349)" style="fill: none; stroke: #1f77b4; stroke-width: 1.5"/>
    <path d="M 619.245455 192.888936 
L 637.961818 192.888936 
" clip-path="url(#paa25ddc349)" style="fill: none; stroke: #1f77b4; stroke-width: 1.5"/>
    <path d="M 694.110909 192.888936 
L 712.827273 192.888936 
" clip-path="url(#paa25ddc349)" style="fill: none; stroke: #1f77b4; stroke-width: 1.5"/>
    <path d="M 768.976364 190.626464 
L 787.692727 190.626464 
" clip-path="url(#paa25ddc349)" style="fill: none; stroke: #1f77b4; stroke-width: 1.5"/>
   </g>
   <g id="patch_3">
    <path d="M 29.68 337.97 
L 29.68 26.88 
" style="fill: none; stroke: #000000; stroke-width: 0.8; stroke-linejoin: miter; stroke-linecap: square"/>
   </g>
   <g id="patch_4">
    <path d="M 853.2 337.97 
L 853.2 26.88 
" style="fill: none; stroke: #000000; stroke-width: 0.8; stroke-linejoin: miter; stroke-linecap: square"/>
   </g>
   <g id="patch_5">
    <path d="M 29.68 337.97 
L 853.2 337.97 
" style="fill: none; stroke: #000000; stroke-width: 0.8; stroke-linejoin: miter; stroke-linecap: square"/>
   </g>
   <g id="patch_6">
    <path d="M 29.68 26.88 
L 853.2 26.88 
" style="fill: none; stroke: #000000; stroke-width: 0.8; stroke-linejoin: miter; stroke-linecap: square"/>
   </g>
   <g id="text_16">
    <!-- Payoff differences - turns: 200, repetitions: 500, strategies: 10.  -->
    <g transform="translate(250.417813 20.88)scale(0.12 -0.12)">
     <defs>
      <path id="DejaVuSans-50" d="M 1259 4147 
L 1259 2394 
L 2053 2394 
Q 2494 2394 2734 2622 
Q 2975 2850 2975 3272 
Q 2975 3691 2734 3919 
Q 2494 4147 2053 4147 
L 1259 4147 
z
M 628 4666 
L 2053 4666 
Q 2838 4666 3239 4311 
Q 3641 3956 3641 3272 
Q 3641 2581 3239 2228 
Q 2838 1875 2053 1875 
L 1259 1875 
L 1259 0 
L 628 0 
L 628 4666 
z
" transform="scale(0.015625)"/>
      <path id="DejaVuSans-2d" d="M 313 2009 
L 1997 2009 
L 1997 1497 
L 313 1497 
L 313 2009 
z
" transform="scale(0.015625)"/>
      <path id="DejaVuSans-2c" d="M 750 794 
L 1409 794 
L 1409 256 
L 897 -744 
L 494 -744 
L 750 256 
L 750 794 
z
" transform="scale(0.015625)"/>
      <path id="DejaVuSans-31" d="M 794 531 
L 1825 531 
L 1825 4091 
L 703 3866 
L 703 4441 
L 1819 4666 
L 2450 4666 
L 2450 531 
L 3481 531 
L 3481 0 
L 794 0 
L 794 531 
z
" transform="scale(0.015625)"/>
     </defs>
     <use xlink:href="#DejaVuSans-50"/>
     <use xlink:href="#DejaVuSans-61" x="55.802734"/>
     <use xlink:href="#DejaVuSans-79" x="117.082031"/>
     <use xlink:href="#DejaVuSans-6f" x="176.261719"/>
     <use xlink:href="#DejaVuSans-66" x="237.443359"/>
     <use xlink:href="#DejaVuSans-66" x="272.648438"/>
     <use xlink:href="#DejaVuSans-20" x="307.853516"/>
     <use xlink:href="#DejaVuSans-64" x="339.640625"/>
     <use xlink:href="#DejaVuSans-69" x="403.117188"/>
     <use xlink:href="#DejaVuSans-66" x="430.900391"/>
     <use xlink:href="#DejaVuSans-66" x="466.105469"/>
     <use xlink:href="#DejaVuSans-65" x="501.310547"/>
     <use xlink:href="#DejaVuSans-72" x="562.833984"/>
     <use xlink:href="#DejaVuSans-65" x="601.697266"/>
     <use xlink:href="#DejaVuSans-6e" x="663.220703"/>
     <use xlink:href="#DejaVuSans-63" x="726.599609"/>
     <use xlink:href="#DejaVuSans-65" x="781.580078"/>
     <use xlink:href="#DejaVuSans-73" x="843.103516"/>
     <use xlink:href="#DejaVuSans-20" x="895.203125"/>
     <use xlink:href="#DejaVuSans-2d" x="926.990234"/>
     <use xlink:href="#DejaVuSans-20" x="963.074219"/>
     <use xlink:href="#DejaVuSans-74" x="994.861328"/>
     <use xlink:href="#DejaVuSans-75" x="1034.070312"/>
     <use xlink:href="#DejaVuSans-72" x="1097.449219"/>
     <use xlink:href="#DejaVuSans-6e" x="1136.8125"/>
     <use xlink:href="#DejaVuSans-73" x="1200.191406"/>
     <use xlink:href="#DejaVuSans-3a" x="1252.291016"/>
     <use xlink:href="#DejaVuSans-20" x="1285.982422"/>
     <use xlink:href="#DejaVuSans-32" x="1317.769531"/>
     <use xlink:href="#DejaVuSans-30" x="1381.392578"/>
     <use xlink:href="#DejaVuSans-30" x="1445.015625"/>
     <use xlink:href="#DejaVuSans-2c" x="1508.638672"/>
     <use xlink:href="#DejaVuSans-20" x="1540.425781"/>
     <use xlink:href="#DejaVuSans-72" x="1572.212891"/>
     <use xlink:href="#DejaVuSans-65" x="1611.076172"/>
     <use xlink:href="#DejaVuSans-70" x="1672.599609"/>
     <use xlink:href="#DejaVuSans-65" x="1736.076172"/>
     <use xlink:href="#DejaVuSans-74" x="1797.599609"/>
     <use xlink:href="#DejaVuSans-69" x="1836.808594"/>
     <use xlink:href="#DejaVuSans-74" x="1864.591797"/>
     <use xlink:href="#DejaVuSans-69" x="1903.800781"/>
     <use xlink:href="#DejaVuSans-6f" x="1931.583984"/>
     <use xlink:href="#DejaVuSans-6e" x="1992.765625"/>
     <use xlink:href="#DejaVuSans-73" x="2056.144531"/>
     <use xlink:href="#DejaVuSans-3a" x="2108.244141"/>
     <use xlink:href="#DejaVuSans-20" x="2141.935547"/>
     <use xlink:href="#DejaVuSans-35" x="2173.722656"/>
     <use xlink:href="#DejaVuSans-30" x="2237.345703"/>
     <use xlink:href="#DejaVuSans-30" x="2300.96875"/>
     <use xlink:href="#DejaVuSans-2c" x="2364.591797"/>
     <use xlink:href="#DejaVuSans-20" x="2396.378906"/>
     <use xlink:href="#DejaVuSans-73" x="2428.166016"/>
     <use xlink:href="#DejaVuSans-74" x="2480.265625"/>
     <use xlink:href="#DejaVuSans-72" x="2519.474609"/>
     <use xlink:href="#DejaVuSans-61" x="2560.587891"/>
     <use xlink:href="#DejaVuSans-74" x="2621.867188"/>
     <use xlink:href="#DejaVuSans-65" x="2661.076172"/>
     <use xlink:href="#DejaVuSans-67" x="2722.599609"/>
     <use xlink:href="#DejaVuSans-69" x="2786.076172"/>
     <use xlink:href="#DejaVuSans-65" x="2813.859375"/>
     <use xlink:href="#DejaVuSans-73" x="2875.382812"/>
     <use xlink:href="#DejaVuSans-3a" x="2927.482422"/>
     <use xlink:href="#DejaVuSans-20" x="2961.173828"/>
     <use xlink:href="#DejaVuSans-31" x="2992.960938"/>
     <use xlink:href="#DejaVuSans-30" x="3056.583984"/>
     <use xlink:href="#DejaVuSans-2e" x="3120.207031"/>
     <use xlink:href="#DejaVuSans-20" x="3151.994141"/>
    </g>
   </g>
  </g>
 </g>
 <defs>
  <clipPath id="paa25ddc349">
   <rect x="29.68" y="26.88" width="823.52" height="311.09"/>
  </clipPath>
 </defs>
</svg>
