<?xml version="1.0" encoding="utf-8" standalone="no"?>
<!DOCTYPE svg PUBLIC "-//W3C//DTD SVG 1.1//EN"
  "http://www.w3.org/Graphics/SVG/1.1/DTD/svg11.dtd">
<svg xmlns:xlink="http://www.w3.org/1999/xlink" width="864pt" height="432pt" viewBox="0 0 864 432" xmlns="http://www.w3.org/2000/svg" version="1.1">
 <metadata>
  <rdf:RDF xmlns:dc="http://purl.org/dc/elements/1.1/" xmlns:cc="http://creativecommons.org/ns#" xmlns:rdf="http://www.w3.org/1999/02/22-rdf-syntax-ns#">
   <cc:Work>
    <dc:type rdf:resource="http://purl.org/dc/dcmitype/StillImage"/>
    <dc:date>2022-09-24T19:58:53.407323</dc:date>
    <dc:format>image/svg+xml</dc:format>
    <dc:creator>
     <cc:Agent>
      <dc:title>Matplotlib v3.5.1, https://matplotlib.org/</dc:title>
     </cc:Agent>
    </dc:creator>
   </cc:Work>
  </rdf:RDF>
 </metadata>
 <defs>
  <style type="text/css">*{stroke-linejoin: round; stroke-linecap: butt}</style>
 </defs>
 <g id="figure_1">
  <g id="patch_1">
   <path d="M 0 432 
L 864 432 
L 864 0 
L 0 0 
z
" style="fill: #ffffff"/>
  </g>
  <g id="axes_1">
   <g id="patch_2">
    <path d="M 30.67 337.97 
L 853.2 337.97 
L 853.2 26.88 
L 30.67 26.88 
z
" style="fill: #ffffff"/>
   </g>
   <g id="PolyCollection_1">
    <path d="M 106.618785 170.970503 
L 104.272124 170.970503 
L 103.93555 170.468459 
L 103.524573 169.966415 
L 103.031218 169.464371 
L 102.45084 168.962327 
L 101.783097 168.460283 
L 101.032024 167.958239 
L 100.205095 167.456195 
L 99.311571 166.954151 
L 98.360753 166.452107 
L 97.360891 165.950063 
L 96.319266 165.448019 
L 95.243526 164.945975 
L 94.143823 164.443931 
L 93.034939 163.941887 
L 91.937541 163.439843 
L 90.87798 162.937798 
L 89.886511 162.435754 
L 88.994298 161.93371 
L 88.229824 161.431666 
L 87.615411 160.929622 
L 87.164402 160.427578 
L 86.879374 159.925534 
L 86.751591 159.42349 
L 86.761827 158.921446 
L 86.88261 158.419402 
L 87.081844 157.917358 
L 87.327501 157.415314 
L 87.592723 156.91327 
L 87.860359 156.411226 
L 88.125808 155.909182 
L 88.39731 155.407137 
L 88.693342 154.905093 
L 89.037636 154.403049 
L 89.452991 153.901005 
L 89.955449 153.398961 
L 90.550283 152.896917 
L 91.230664 152.394873 
L 91.979084 151.892829 
L 92.770864 151.390785 
L 93.578637 150.888741 
L 94.376591 150.386697 
L 95.143602 149.884653 
L 95.864783 149.382609 
L 96.531541 148.880565 
L 97.140526 148.378521 
L 97.692058 147.876476 
L 98.188587 147.374432 
L 98.633567 146.872388 
L 99.030939 146.370344 
L 99.385184 145.8683 
L 99.701706 145.366256 
L 99.987261 144.864212 
L 100.250061 144.362168 
L 100.499362 143.860124 
L 100.744477 143.35808 
L 100.993395 142.856036 
L 101.251352 142.353992 
L 101.519759 141.851948 
L 101.795799 141.349904 
L 102.072855 140.84786 
L 102.34171 140.345816 
L 102.592264 139.843771 
L 102.81544 139.341727 
L 103.004858 138.839683 
L 103.157955 138.337639 
L 103.276332 137.835595 
L 103.365278 137.333551 
L 103.432638 136.831507 
L 103.487313 136.329463 
L 103.537789 135.827419 
L 103.591029 135.325375 
L 103.651911 134.823331 
L 103.723207 134.321287 
L 103.805948 133.819243 
L 103.899909 133.317199 
L 104.004003 132.815155 
L 104.116481 132.31311 
L 104.234947 131.811066 
L 104.356337 131.309022 
L 104.47699 130.806978 
L 104.592922 130.304934 
L 104.700303 129.80289 
L 104.796026 129.300846 
L 104.87822 128.798802 
L 104.946534 128.296758 
L 105.002101 127.794714 
L 105.047173 127.29267 
L 105.084527 126.790626 
L 105.116803 126.288582 
L 105.145971 125.786538 
L 105.173052 125.284494 
L 105.198162 124.782449 
L 105.220834 124.280405 
L 105.240473 123.778361 
L 105.256794 123.276317 
L 105.270084 122.774273 
L 105.28123 122.272229 
L 105.291501 121.770185 
L 105.302206 121.268141 
L 105.588703 121.268141 
L 105.588703 121.268141 
L 105.599408 121.770185 
L 105.609679 122.272229 
L 105.620825 122.774273 
L 105.634116 123.276317 
L 105.650436 123.778361 
L 105.670075 124.280405 
L 105.692747 124.782449 
L 105.717857 125.284494 
L 105.744938 125.786538 
L 105.774106 126.288582 
L 105.806382 126.790626 
L 105.843736 127.29267 
L 105.888808 127.794714 
L 105.944375 128.296758 
L 106.012689 128.798802 
L 106.094883 129.300846 
L 106.190606 129.80289 
L 106.297987 130.304934 
L 106.413919 130.806978 
L 106.534572 131.309022 
L 106.655962 131.811066 
L 106.774428 132.31311 
L 106.886906 132.815155 
L 106.991 133.317199 
L 107.084961 133.819243 
L 107.167702 134.321287 
L 107.238999 134.823331 
L 107.29988 135.325375 
L 107.353121 135.827419 
L 107.403597 136.329463 
L 107.458271 136.831507 
L 107.525631 137.333551 
L 107.614577 137.835595 
L 107.732954 138.337639 
L 107.886051 138.839683 
L 108.075469 139.341727 
L 108.298645 139.843771 
L 108.5492 140.345816 
L 108.818054 140.84786 
L 109.09511 141.349904 
L 109.37115 141.851948 
L 109.639557 142.353992 
L 109.897514 142.856036 
L 110.146432 143.35808 
L 110.391547 143.860124 
L 110.640849 144.362168 
L 110.903648 144.864212 
L 111.189203 145.366256 
L 111.505725 145.8683 
L 111.85997 146.370344 
L 112.257343 146.872388 
L 112.702322 147.374432 
L 113.198851 147.876476 
L 113.750384 148.378521 
L 114.359368 148.880565 
L 115.026126 149.382609 
L 115.747307 149.884653 
L 116.514318 150.386697 
L 117.312273 150.888741 
L 118.120045 151.390785 
L 118.911825 151.892829 
L 119.660245 152.394873 
L 120.340626 152.896917 
L 120.93546 153.398961 
L 121.437918 153.901005 
L 121.853273 154.403049 
L 122.197567 154.905093 
L 122.493599 155.407137 
L 122.765101 155.909182 
L 123.03055 156.411226 
L 123.298186 156.91327 
L 123.563408 157.415314 
L 123.809065 157.917358 
L 124.008299 158.419402 
L 124.129082 158.921446 
L 124.139318 159.42349 
L 124.011536 159.925534 
L 123.726507 160.427578 
L 123.275498 160.929622 
L 122.661085 161.431666 
L 121.896611 161.93371 
L 121.004398 162.435754 
L 120.012929 162.937798 
L 118.953368 163.439843 
L 117.85597 163.941887 
L 116.747086 164.443931 
L 115.647383 164.945975 
L 114.571643 165.448019 
L 113.530018 165.950063 
L 112.530156 166.452107 
L 111.579338 166.954151 
L 110.685814 167.456195 
L 109.858885 167.958239 
L 109.107812 168.460283 
L 108.440069 168.962327 
L 107.859691 169.464371 
L 107.366337 169.966415 
L 106.955359 170.468459 
L 106.618785 170.970503 
z
" clip-path="url(#p2a0c9a57d8)" style="fill: #1f77b4; fill-opacity: 0.3"/>
   </g>
   <g id="PolyCollection_2">
    <path d="M 196.21722 169.822847 
L 164.224598 169.822847 
L 163.558435 169.359593 
L 162.971469 168.896339 
L 162.47384 168.433085 
L 162.074335 167.969832 
L 161.780131 167.506578 
L 161.59658 167.043324 
L 161.527045 166.58007 
L 161.572803 166.116816 
L 161.732999 165.653563 
L 162.004677 165.190309 
L 162.38287 164.727055 
L 162.860751 164.263801 
L 163.429837 163.800547 
L 164.080241 163.337294 
L 164.800953 162.87404 
L 165.580155 162.410786 
L 166.405538 161.947532 
L 167.264619 161.484278 
L 168.145054 161.021025 
L 169.03492 160.557771 
L 169.922971 160.094517 
L 170.798854 159.631263 
L 171.653279 159.168009 
L 172.478154 158.704756 
L 173.266659 158.241502 
L 174.013288 157.778248 
L 174.713842 157.314994 
L 175.365384 156.85174 
L 175.966168 156.388486 
L 176.515538 155.925233 
L 177.013803 155.461979 
L 177.462113 154.998725 
L 177.862312 154.535471 
L 178.216802 154.072217 
L 178.528402 153.608964 
L 178.800226 153.14571 
L 179.035558 152.682456 
L 179.23775 152.219202 
L 179.41013 151.755948 
L 179.555926 151.292695 
L 179.678207 150.829441 
L 179.779827 150.366187 
L 179.863396 149.902933 
L 179.931251 149.439679 
L 179.985441 148.976426 
L 180.027713 148.513172 
L 180.059512 148.049918 
L 180.081979 147.586664 
L 180.09595 147.12341 
L 180.101958 146.660157 
L 180.100235 146.196903 
L 180.090717 145.733649 
L 180.073035 145.270395 
L 180.046523 144.807141 
L 180.010213 144.343888 
L 179.962832 143.880634 
L 179.902807 143.41738 
L 179.828267 142.954126 
L 179.737046 142.490872 
L 179.626707 142.027619 
L 179.494555 141.564365 
L 179.337672 141.101111 
L 179.152965 140.637857 
L 178.937215 140.174603 
L 178.687152 139.71135 
L 178.399541 139.248096 
L 178.071278 138.784842 
L 177.699506 138.321588 
L 177.281736 137.858334 
L 176.815984 137.39508 
L 176.300905 136.931827 
L 175.735934 136.468573 
L 175.121423 136.005319 
L 174.458757 135.542065 
L 173.750465 135.078811 
L 173.0003 134.615558 
L 172.213292 134.152304 
L 171.395762 133.68905 
L 170.555297 133.225796 
L 169.700685 132.762542 
L 168.841794 132.299289 
L 167.989417 131.836035 
L 167.155065 131.372781 
L 166.350724 130.909527 
L 165.58858 130.446273 
L 164.880718 129.98302 
L 164.238805 129.519766 
L 163.673778 129.056512 
L 163.195529 128.593258 
L 162.812623 128.130004 
L 162.532037 127.666751 
L 162.358955 127.203497 
L 162.296605 126.740243 
L 162.346158 126.276989 
L 162.506694 125.813735 
L 162.77523 125.350482 
L 163.14681 124.887228 
L 163.614661 124.423974 
L 164.170394 123.96072 
L 196.271424 123.96072 
L 196.271424 123.96072 
L 196.827157 124.423974 
L 197.295008 124.887228 
L 197.666589 125.350482 
L 197.935124 125.813735 
L 198.09566 126.276989 
L 198.145213 126.740243 
L 198.082863 127.203497 
L 197.909781 127.666751 
L 197.629196 128.130004 
L 197.246289 128.593258 
L 196.76804 129.056512 
L 196.203013 129.519766 
L 195.5611 129.98302 
L 194.853238 130.446273 
L 194.091094 130.909527 
L 193.286753 131.372781 
L 192.452401 131.836035 
L 191.600024 132.299289 
L 190.741133 132.762542 
L 189.886521 133.225796 
L 189.046057 133.68905 
L 188.228526 134.152304 
L 187.441518 134.615558 
L 186.691354 135.078811 
L 185.983062 135.542065 
L 185.320395 136.005319 
L 184.705884 136.468573 
L 184.140914 136.931827 
L 183.625834 137.39508 
L 183.160082 137.858334 
L 182.742312 138.321588 
L 182.37054 138.784842 
L 182.042277 139.248096 
L 181.754666 139.71135 
L 181.504604 140.174603 
L 181.288853 140.637857 
L 181.104146 141.101111 
L 180.947264 141.564365 
L 180.815111 142.027619 
L 180.704772 142.490872 
L 180.613552 142.954126 
L 180.539011 143.41738 
L 180.478986 143.880634 
L 180.431605 144.343888 
L 180.395295 144.807141 
L 180.368783 145.270395 
L 180.351102 145.733649 
L 180.341583 146.196903 
L 180.33986 146.660157 
L 180.345868 147.12341 
L 180.359839 147.586664 
L 180.382306 148.049918 
L 180.414105 148.513172 
L 180.456378 148.976426 
L 180.510567 149.439679 
L 180.578422 149.902933 
L 180.661992 150.366187 
L 180.763612 150.829441 
L 180.885892 151.292695 
L 181.031689 151.755948 
L 181.204068 152.219202 
L 181.40626 152.682456 
L 181.641592 153.14571 
L 181.913416 153.608964 
L 182.225017 154.072217 
L 182.579506 154.535471 
L 182.979705 154.998725 
L 183.428015 155.461979 
L 183.926281 155.925233 
L 184.47565 156.388486 
L 185.076434 156.85174 
L 185.727976 157.314994 
L 186.42853 157.778248 
L 187.175159 158.241502 
L 187.963665 158.704756 
L 188.788539 159.168009 
L 189.642965 159.631263 
L 190.518847 160.094517 
L 191.406898 160.557771 
L 192.296764 161.021025 
L 193.177199 161.484278 
L 194.03628 161.947532 
L 194.861663 162.410786 
L 195.640865 162.87404 
L 196.361578 163.337294 
L 197.011981 163.800547 
L 197.581067 164.263801 
L 198.058948 164.727055 
L 198.437142 165.190309 
L 198.70882 165.653563 
L 198.869015 166.116816 
L 198.914773 166.58007 
L 198.845238 167.043324 
L 198.661687 167.506578 
L 198.367483 167.969832 
L 197.967978 168.433085 
L 197.470349 168.896339 
L 196.883383 169.359593 
L 196.21722 169.822847 
z
" clip-path="url(#p2a0c9a57d8)" style="fill: #1f77b4; fill-opacity: 0.3"/>
   </g>
   <g id="PolyCollection_3">
    <path d="M 256.076429 278.982654 
L 253.916298 278.982654 
L 253.663368 276.578995 
L 253.366428 274.175336 
L 253.01986 271.771678 
L 252.618686 269.368019 
L 252.159379 266.964361 
L 251.640608 264.560702 
L 251.063763 262.157044 
L 250.433175 259.753385 
L 249.755993 257.349726 
L 249.04177 254.946068 
L 248.301801 252.542409 
L 247.548314 250.138751 
L 246.793551 247.735092 
L 246.048796 245.331433 
L 245.323395 242.927775 
L 244.62388 240.524116 
L 243.953351 238.120458 
L 243.311324 235.716799 
L 242.694209 233.313141 
L 242.096475 230.909482 
L 241.512353 228.505823 
L 240.937709 226.102165 
L 240.371578 223.698506 
L 239.816886 221.294848 
L 239.280096 218.891189 
L 238.769865 216.487531 
L 238.29517 214.083872 
L 237.863553 211.680213 
L 237.480107 209.276555 
L 237.147502 206.872896 
L 236.866942 204.469238 
L 236.639527 202.065579 
L 236.46734 199.661921 
L 236.353715 197.258262 
L 236.3025 194.854603 
L 236.316622 192.450945 
L 236.39656 190.047286 
L 236.539434 187.643628 
L 236.739174 185.239969 
L 236.987796 182.836311 
L 237.277386 180.432652 
L 237.602085 178.028993 
L 237.959387 175.625335 
L 238.350299 173.221676 
L 238.778329 170.818018 
L 239.247664 168.414359 
L 239.761119 166.0107 
L 240.318488 163.607042 
L 240.915688 161.203383 
L 241.544848 158.799725 
L 242.195184 156.396066 
L 242.854363 153.992408 
L 243.510032 151.588749 
L 244.151248 149.18509 
L 244.76966 146.781432 
L 245.360347 144.377773 
L 245.922227 141.974115 
L 246.457949 139.570456 
L 246.9732 137.166798 
L 247.475439 134.763139 
L 247.972252 132.35948 
L 248.469631 129.955822 
L 248.970597 127.552163 
L 249.47451 125.148505 
L 249.977227 122.744846 
L 250.472031 120.341188 
L 250.950996 117.937529 
L 251.40638 115.53387 
L 251.831661 113.130212 
L 252.222016 110.726553 
L 252.574262 108.322895 
L 252.886479 105.919236 
L 253.157571 103.515578 
L 253.38701 101.111919 
L 253.574838 98.70826 
L 253.721887 96.304602 
L 253.830071 93.900943 
L 253.902566 91.497285 
L 253.943799 89.093626 
L 253.959189 86.689967 
L 253.954743 84.286309 
L 253.93661 81.88265 
L 253.910704 79.478992 
L 253.882469 77.075333 
L 253.856786 74.671675 
L 253.837949 72.268016 
L 253.82964 69.864357 
L 253.834824 67.460699 
L 253.855562 65.05704 
L 253.892785 62.653382 
L 253.946119 60.249723 
L 254.013863 57.846065 
L 254.093168 55.442406 
L 254.180399 53.038747 
L 254.271625 50.635089 
L 254.363104 48.23143 
L 254.451667 45.827772 
L 254.534939 43.424113 
L 254.611367 41.020455 
L 255.381361 41.020455 
L 255.381361 41.020455 
L 255.457788 43.424113 
L 255.54106 45.827772 
L 255.629623 48.23143 
L 255.721102 50.635089 
L 255.812328 53.038747 
L 255.89956 55.442406 
L 255.978864 57.846065 
L 256.046609 60.249723 
L 256.099943 62.653382 
L 256.137165 65.05704 
L 256.157904 67.460699 
L 256.163088 69.864357 
L 256.154779 72.268016 
L 256.135942 74.671675 
L 256.110258 77.075333 
L 256.082024 79.478992 
L 256.056117 81.88265 
L 256.037984 84.286309 
L 256.033539 86.689967 
L 256.048928 89.093626 
L 256.090161 91.497285 
L 256.162657 93.900943 
L 256.27084 96.304602 
L 256.41789 98.70826 
L 256.605717 101.111919 
L 256.835156 103.515578 
L 257.106249 105.919236 
L 257.418465 108.322895 
L 257.770711 110.726553 
L 258.161066 113.130212 
L 258.586347 115.53387 
L 259.041731 117.937529 
L 259.520696 120.341188 
L 260.0155 122.744846 
L 260.518218 125.148505 
L 261.02213 127.552163 
L 261.523096 129.955822 
L 262.020475 132.35948 
L 262.517288 134.763139 
L 263.019527 137.166798 
L 263.534778 139.570456 
L 264.0705 141.974115 
L 264.63238 144.377773 
L 265.223067 146.781432 
L 265.841479 149.18509 
L 266.482695 151.588749 
L 267.138364 153.992408 
L 267.797543 156.396066 
L 268.447879 158.799725 
L 269.077039 161.203383 
L 269.674239 163.607042 
L 270.231608 166.0107 
L 270.745063 168.414359 
L 271.214398 170.818018 
L 271.642428 173.221676 
L 272.03334 175.625335 
L 272.390642 178.028993 
L 272.715341 180.432652 
L 273.004931 182.836311 
L 273.253553 185.239969 
L 273.453293 187.643628 
L 273.596167 190.047286 
L 273.676105 192.450945 
L 273.690227 194.854603 
L 273.639013 197.258262 
L 273.525387 199.661921 
L 273.3532 202.065579 
L 273.125785 204.469238 
L 272.845225 206.872896 
L 272.51262 209.276555 
L 272.129174 211.680213 
L 271.697558 214.083872 
L 271.222863 216.487531 
L 270.712632 218.891189 
L 270.175841 221.294848 
L 269.621149 223.698506 
L 269.055018 226.102165 
L 268.480374 228.505823 
L 267.896252 230.909482 
L 267.298518 233.313141 
L 266.681403 235.716799 
L 266.039376 238.120458 
L 265.368847 240.524116 
L 264.669332 242.927775 
L 263.943931 245.331433 
L 263.199176 247.735092 
L 262.444413 250.138751 
L 261.690926 252.542409 
L 260.950957 254.946068 
L 260.236734 257.349726 
L 259.559553 259.753385 
L 258.928964 262.157044 
L 258.352119 264.560702 
L 257.833348 266.964361 
L 257.374042 269.368019 
L 256.972867 271.771678 
L 256.626299 274.175336 
L 256.329359 276.578995 
L 256.076429 278.982654 
z
" clip-path="url(#p2a0c9a57d8)" style="fill: #1f77b4; fill-opacity: 0.3"/>
   </g>
   <g id="PolyCollection_4">
    <path d="M 329.992619 288.428751 
L 329.551017 288.428751 
L 329.537611 287.141093 
L 329.541101 285.853434 
L 329.560739 284.565776 
L 329.592438 283.278118 
L 329.630071 281.990459 
L 329.66721 280.702801 
L 329.698501 279.415143 
L 329.720115 278.127484 
L 329.72919 276.839826 
L 329.722586 275.552168 
L 329.695558 274.264509 
L 329.64092 272.976851 
L 329.549215 271.689193 
L 329.41013 270.401534 
L 329.215101 269.113876 
L 328.960534 267.826218 
L 328.650651 266.53856 
L 328.298688 265.250901 
L 327.925484 263.963243 
L 327.555409 262.675585 
L 327.21088 261.387926 
L 326.907693 260.100268 
L 326.653448 258.81261 
L 326.449951 257.524951 
L 326.298372 256.237293 
L 326.204172 254.949635 
L 326.17864 253.661976 
L 326.235595 252.374318 
L 326.384509 251.08666 
L 326.623419 249.799001 
L 326.935095 248.511343 
L 327.28803 247.223685 
L 327.641052 245.936027 
L 327.948529 244.648368 
L 328.163363 243.36071 
L 328.23695 242.073052 
L 328.117818 240.785393 
L 327.75201 239.497735 
L 327.087904 238.210077 
L 326.086046 236.922418 
L 324.732054 235.63476 
L 323.048719 234.347102 
L 321.103022 233.059443 
L 319.004966 231.771785 
L 316.897295 230.484127 
L 314.937648 229.196468 
L 313.276676 227.90881 
L 312.036688 226.621152 
L 311.295361 225.333494 
L 311.077955 224.045835 
L 311.359553 222.758177 
L 312.076242 221.470519 
L 313.141433 220.18286 
L 314.461873 218.895202 
L 315.948528 217.607544 
L 317.520633 216.319885 
L 319.105206 215.032227 
L 320.636455 213.744569 
L 322.058356 212.45691 
L 323.330015 211.169252 
L 324.430417 209.881594 
L 325.358964 208.593935 
L 326.130818 207.306277 
L 326.769186 206.018619 
L 327.297996 204.730961 
L 327.737408 203.443302 
L 328.102486 202.155644 
L 328.403774 200.867986 
L 328.648308 199.580327 
L 328.84042 198.292669 
L 328.982565 197.005011 
L 329.07675 195.717352 
L 329.126654 194.429694 
L 329.139753 193.142036 
L 329.128242 191.854377 
L 329.10788 190.566719 
L 329.094891 189.279061 
L 329.102117 187.991402 
L 329.136057 186.703744 
L 329.195936 185.416086 
L 329.274952 184.128427 
L 329.362912 182.840769 
L 329.449162 181.553111 
L 329.524932 180.265453 
L 329.584721 178.977794 
L 329.626727 177.690136 
L 329.652513 176.402478 
L 329.666063 175.114819 
L 329.672423 173.827161 
L 329.676214 172.539503 
L 329.680414 171.251844 
L 329.685818 169.964186 
L 329.691369 168.676528 
L 329.695189 167.388869 
L 329.695859 166.101211 
L 329.693355 164.813553 
L 329.689244 163.525894 
L 329.686095 162.238236 
L 329.686407 160.950578 
L 329.857229 160.950578 
L 329.857229 160.950578 
L 329.857541 162.238236 
L 329.854392 163.525894 
L 329.850282 164.813553 
L 329.847777 166.101211 
L 329.848447 167.388869 
L 329.852267 168.676528 
L 329.857818 169.964186 
L 329.863223 171.251844 
L 329.867422 172.539503 
L 329.871213 173.827161 
L 329.877573 175.114819 
L 329.891123 176.402478 
L 329.91691 177.690136 
L 329.958916 178.977794 
L 330.018704 180.265453 
L 330.094474 181.553111 
L 330.180724 182.840769 
L 330.268684 184.128427 
L 330.3477 185.416086 
L 330.407579 186.703744 
L 330.441519 187.991402 
L 330.448745 189.279061 
L 330.435756 190.566719 
L 330.415394 191.854377 
L 330.403883 193.142036 
L 330.416982 194.429694 
L 330.466886 195.717352 
L 330.561071 197.005011 
L 330.703217 198.292669 
L 330.895329 199.580327 
L 331.139862 200.867986 
L 331.44115 202.155644 
L 331.806229 203.443302 
L 332.245641 204.730961 
L 332.77445 206.018619 
L 333.412818 207.306277 
L 334.184673 208.593935 
L 335.113219 209.881594 
L 336.213621 211.169252 
L 337.48528 212.45691 
L 338.907181 213.744569 
L 340.438431 215.032227 
L 342.023003 216.319885 
L 343.595109 217.607544 
L 345.081763 218.895202 
L 346.402203 220.18286 
L 347.467395 221.470519 
L 348.184084 222.758177 
L 348.465682 224.045835 
L 348.248276 225.333494 
L 347.506949 226.621152 
L 346.266961 227.90881 
L 344.605988 229.196468 
L 342.646341 230.484127 
L 340.538671 231.771785 
L 338.440615 233.059443 
L 336.494917 234.347102 
L 334.811582 235.63476 
L 333.457591 236.922418 
L 332.455732 238.210077 
L 331.791626 239.497735 
L 331.425819 240.785393 
L 331.306686 242.073052 
L 331.380274 243.36071 
L 331.595107 244.648368 
L 331.902585 245.936027 
L 332.255607 247.223685 
L 332.608542 248.511343 
L 332.920218 249.799001 
L 333.159127 251.08666 
L 333.308041 252.374318 
L 333.364996 253.661976 
L 333.339464 254.949635 
L 333.245264 256.237293 
L 333.093685 257.524951 
L 332.890188 258.81261 
L 332.635944 260.100268 
L 332.332757 261.387926 
L 331.988227 262.675585 
L 331.618153 263.963243 
L 331.244948 265.250901 
L 330.892985 266.53856 
L 330.583102 267.826218 
L 330.328536 269.113876 
L 330.133506 270.401534 
L 329.994422 271.689193 
L 329.902716 272.976851 
L 329.848079 274.264509 
L 329.82105 275.552168 
L 329.814447 276.839826 
L 329.823521 278.127484 
L 329.845136 279.415143 
L 329.876427 280.702801 
L 329.913565 281.990459 
L 329.951198 283.278118 
L 329.982898 284.565776 
L 330.002536 285.853434 
L 330.006025 287.141093 
L 329.992619 288.428751 
z
" clip-path="url(#p2a0c9a57d8)" style="fill: #1f77b4; fill-opacity: 0.3"/>
   </g>
   <g id="PolyCollection_5">
    <path d="M 413.030665 244.861938 
L 396.06388 244.861938 
L 394.831228 244.024157 
L 393.560344 243.186377 
L 392.280689 242.348596 
L 391.02573 241.510816 
L 389.831606 240.673035 
L 388.735459 239.835255 
L 387.773546 238.997474 
L 386.979243 238.159694 
L 386.381106 237.321913 
L 386.00114 236.484133 
L 385.853409 235.646353 
L 385.943128 234.808572 
L 386.266293 233.970792 
L 386.809902 233.133011 
L 387.552727 232.295231 
L 388.466586 231.45745 
L 389.517999 230.61967 
L 390.670086 229.781889 
L 391.884556 228.944109 
L 393.123641 228.106328 
L 394.351842 227.268548 
L 395.537363 226.430767 
L 396.653194 225.592987 
L 397.67778 224.755207 
L 398.595301 223.917426 
L 399.395591 223.079646 
L 400.073761 222.241865 
L 400.629591 221.404085 
L 401.066783 220.566304 
L 401.392132 219.728524 
L 401.614706 218.890743 
L 401.745053 218.052963 
L 401.794508 217.215182 
L 401.774586 216.377402 
L 401.696508 215.539621 
L 401.570817 214.701841 
L 401.40712 213.864061 
L 401.213909 213.02628 
L 400.998476 212.1885 
L 400.766884 211.350719 
L 400.524016 210.512939 
L 400.273657 209.675158 
L 400.018625 208.837378 
L 399.760939 207.999597 
L 399.501995 207.161817 
L 399.242774 206.324036 
L 398.984035 205.486256 
L 398.726516 204.648475 
L 398.471095 203.810695 
L 398.218937 202.972915 
L 397.971587 202.135134 
L 397.731022 201.297354 
L 397.499644 200.459573 
L 397.280227 199.621793 
L 397.075819 198.784012 
L 396.8896 197.946232 
L 396.724724 197.108451 
L 396.584137 196.270671 
L 396.470421 195.43289 
L 396.385633 194.59511 
L 396.331202 193.757329 
L 396.307848 192.919549 
L 396.315558 192.081769 
L 396.35361 191.243988 
L 396.420628 190.406208 
L 396.514682 189.568427 
L 396.633403 188.730647 
L 396.774112 187.892866 
L 396.933941 187.055086 
L 397.109949 186.217305 
L 397.299217 185.379525 
L 397.49892 184.541744 
L 397.706382 183.703964 
L 397.919108 182.866183 
L 398.13481 182.028403 
L 398.351415 181.190623 
L 398.567086 180.352842 
L 398.780227 179.515062 
L 398.989512 178.677281 
L 399.193899 177.839501 
L 399.39266 177.00172 
L 399.585398 176.16394 
L 399.772062 175.326159 
L 399.952946 174.488379 
L 400.128671 173.650598 
L 400.300149 172.812818 
L 400.468523 171.975037 
L 400.635094 171.137257 
L 400.801226 170.299477 
L 400.968245 169.461696 
L 401.137341 168.623916 
L 401.309468 167.786135 
L 401.485265 166.948355 
L 401.66499 166.110574 
L 401.848486 165.272794 
L 402.035174 164.435013 
L 402.224071 163.597233 
L 402.413843 162.759452 
L 402.602874 161.921672 
L 406.491672 161.921672 
L 406.491672 161.921672 
L 406.680702 162.759452 
L 406.870474 163.597233 
L 407.059371 164.435013 
L 407.246059 165.272794 
L 407.429555 166.110574 
L 407.60928 166.948355 
L 407.785077 167.786135 
L 407.957205 168.623916 
L 408.126301 169.461696 
L 408.29332 170.299477 
L 408.459451 171.137257 
L 408.626022 171.975037 
L 408.794397 172.812818 
L 408.965875 173.650598 
L 409.1416 174.488379 
L 409.322483 175.326159 
L 409.509148 176.16394 
L 409.701886 177.00172 
L 409.900647 177.839501 
L 410.105034 178.677281 
L 410.314318 179.515062 
L 410.52746 180.352842 
L 410.74313 181.190623 
L 410.959736 182.028403 
L 411.175437 182.866183 
L 411.388164 183.703964 
L 411.595625 184.541744 
L 411.795328 185.379525 
L 411.984596 186.217305 
L 412.160604 187.055086 
L 412.320433 187.892866 
L 412.461142 188.730647 
L 412.579864 189.568427 
L 412.673918 190.406208 
L 412.740936 191.243988 
L 412.778987 192.081769 
L 412.786698 192.919549 
L 412.763344 193.757329 
L 412.708912 194.59511 
L 412.624125 195.43289 
L 412.510408 196.270671 
L 412.369822 197.108451 
L 412.204945 197.946232 
L 412.018727 198.784012 
L 411.814319 199.621793 
L 411.594902 200.459573 
L 411.363523 201.297354 
L 411.122958 202.135134 
L 410.875609 202.972915 
L 410.623451 203.810695 
L 410.36803 204.648475 
L 410.11051 205.486256 
L 409.851772 206.324036 
L 409.59255 207.161817 
L 409.333607 207.999597 
L 409.07592 208.837378 
L 408.820889 209.675158 
L 408.570529 210.512939 
L 408.327661 211.350719 
L 408.09607 212.1885 
L 407.880636 213.02628 
L 407.687426 213.864061 
L 407.523729 214.701841 
L 407.398038 215.539621 
L 407.319959 216.377402 
L 407.300038 217.215182 
L 407.349492 218.052963 
L 407.47984 218.890743 
L 407.702413 219.728524 
L 408.027763 220.566304 
L 408.464954 221.404085 
L 409.020785 222.241865 
L 409.698954 223.079646 
L 410.499245 223.917426 
L 411.416765 224.755207 
L 412.441351 225.592987 
L 413.557182 226.430767 
L 414.742704 227.268548 
L 415.970904 228.106328 
L 417.20999 228.944109 
L 418.424459 229.781889 
L 419.576546 230.61967 
L 420.62796 231.45745 
L 421.541819 232.295231 
L 422.284643 233.133011 
L 422.828252 233.970792 
L 423.151418 234.808572 
L 423.241136 235.646353 
L 423.093405 236.484133 
L 422.713439 237.321913 
L 422.115303 238.159694 
L 421.321 238.997474 
L 420.359087 239.835255 
L 419.26294 240.673035 
L 418.068815 241.510816 
L 416.813856 242.348596 
L 415.534201 243.186377 
L 414.263317 244.024157 
L 413.030665 244.861938 
z
" clip-path="url(#p2a0c9a57d8)" style="fill: #1f77b4; fill-opacity: 0.3"/>
   </g>
   <g id="PolyCollection_6">
    <path d="M 492.116657 250.335377 
L 466.528798 250.335377 
L 464.924269 248.744976 
L 463.472823 247.154576 
L 462.255405 245.564175 
L 461.34329 243.973774 
L 460.790699 242.383374 
L 460.628864 240.792973 
L 460.862434 239.202572 
L 461.468775 237.612172 
L 462.400297 236.021771 
L 463.589461 234.43137 
L 464.955746 232.84097 
L 466.413559 231.250569 
L 467.880029 229.660168 
L 469.281699 228.069767 
L 470.559413 226.479367 
L 471.671031 224.888966 
L 472.591959 223.298565 
L 473.313815 221.708165 
L 473.841734 220.117764 
L 474.190929 218.527363 
L 474.3831 216.936963 
L 474.443153 215.346562 
L 474.396577 213.756161 
L 474.267588 212.16576 
L 474.078062 210.57536 
L 473.847117 208.984959 
L 473.591155 207.394558 
L 473.324158 205.804158 
L 473.058048 204.213757 
L 472.802966 202.623356 
L 472.567395 201.032956 
L 472.35811 199.442555 
L 472.180002 197.852154 
L 472.035856 196.261754 
L 471.926187 194.671353 
L 471.849236 193.080952 
L 471.801203 191.490551 
L 471.776752 189.900151 
L 471.769762 188.30975 
L 471.774266 186.719349 
L 471.785449 185.128949 
L 471.800572 183.538548 
L 471.819658 181.948147 
L 471.845833 180.357747 
L 471.885222 178.767346 
L 471.946396 177.176945 
L 472.039399 175.586545 
L 472.174495 173.996144 
L 472.360773 172.405743 
L 472.604827 170.815342 
L 472.90967 169.224942 
L 473.274051 167.634541 
L 473.692272 166.04414 
L 474.154505 164.45374 
L 474.647587 162.863339 
L 475.156154 161.272938 
L 475.663975 159.682538 
L 476.1553 158.092137 
L 476.616066 156.501736 
L 477.034845 154.911336 
L 477.403436 153.320935 
L 477.717095 151.730534 
L 477.974428 150.140133 
L 478.177002 148.549733 
L 478.328764 146.959332 
L 478.435373 145.368931 
L 478.503501 143.778531 
L 478.540206 142.18813 
L 478.552394 140.597729 
L 478.546419 139.007329 
L 478.527819 137.416928 
L 478.501183 135.826527 
L 478.470127 134.236126 
L 478.437366 132.645726 
L 478.404838 131.055325 
L 478.373857 129.464924 
L 478.345284 127.874524 
L 478.319667 126.284123 
L 478.297369 124.693722 
L 478.278659 123.103322 
L 478.263768 121.512921 
L 478.252929 119.92252 
L 478.246394 118.33212 
L 478.244438 116.741719 
L 478.247356 115.151318 
L 478.255461 113.560917 
L 478.269062 111.970517 
L 478.288451 110.380116 
L 478.313866 108.789715 
L 478.345458 107.199315 
L 478.383247 105.608914 
L 478.42708 104.018513 
L 478.476603 102.428113 
L 478.531234 100.837712 
L 478.590167 99.247311 
L 478.652384 97.656911 
L 478.716704 96.06651 
L 478.781831 94.476109 
L 478.846431 92.885708 
L 479.799023 92.885708 
L 479.799023 92.885708 
L 479.863623 94.476109 
L 479.92875 96.06651 
L 479.99307 97.656911 
L 480.055288 99.247311 
L 480.11422 100.837712 
L 480.168852 102.428113 
L 480.218375 104.018513 
L 480.262208 105.608914 
L 480.299996 107.199315 
L 480.331588 108.789715 
L 480.357003 110.380116 
L 480.376392 111.970517 
L 480.389994 113.560917 
L 480.398098 115.151318 
L 480.401017 116.741719 
L 480.39906 118.33212 
L 480.392525 119.92252 
L 480.381687 121.512921 
L 480.366796 123.103322 
L 480.348085 124.693722 
L 480.325788 126.284123 
L 480.300171 127.874524 
L 480.271597 129.464924 
L 480.240617 131.055325 
L 480.208088 132.645726 
L 480.175328 134.236126 
L 480.144272 135.826527 
L 480.117635 137.416928 
L 480.099036 139.007329 
L 480.093061 140.597729 
L 480.105249 142.18813 
L 480.141953 143.778531 
L 480.210082 145.368931 
L 480.31669 146.959332 
L 480.468453 148.549733 
L 480.671026 150.140133 
L 480.928359 151.730534 
L 481.242019 153.320935 
L 481.610609 154.911336 
L 482.029388 156.501736 
L 482.490155 158.092137 
L 482.981479 159.682538 
L 483.489301 161.272938 
L 483.997868 162.863339 
L 484.49095 164.45374 
L 484.953183 166.04414 
L 485.371403 167.634541 
L 485.735785 169.224942 
L 486.040627 170.815342 
L 486.284681 172.405743 
L 486.47096 173.996144 
L 486.606055 175.586545 
L 486.699059 177.176945 
L 486.760232 178.767346 
L 486.799622 180.357747 
L 486.825796 181.948147 
L 486.844882 183.538548 
L 486.860005 185.128949 
L 486.871189 186.719349 
L 486.875693 188.30975 
L 486.868703 189.900151 
L 486.844251 191.490551 
L 486.796219 193.080952 
L 486.719267 194.671353 
L 486.609598 196.261754 
L 486.465452 197.852154 
L 486.287345 199.442555 
L 486.078059 201.032956 
L 485.842488 202.623356 
L 485.587406 204.213757 
L 485.321297 205.804158 
L 485.0543 207.394558 
L 484.798337 208.984959 
L 484.567392 210.57536 
L 484.377866 212.16576 
L 484.248877 213.756161 
L 484.202301 215.346562 
L 484.262355 216.936963 
L 484.454525 218.527363 
L 484.803721 220.117764 
L 485.33164 221.708165 
L 486.053496 223.298565 
L 486.974424 224.888966 
L 488.086041 226.479367 
L 489.363755 228.069767 
L 490.765425 229.660168 
L 492.231896 231.250569 
L 493.689709 232.84097 
L 495.055994 234.43137 
L 496.245158 236.021771 
L 497.176679 237.612172 
L 497.783021 239.202572 
L 498.016591 240.792973 
L 497.854756 242.383374 
L 497.302165 243.973774 
L 496.39005 245.564175 
L 495.172632 247.154576 
L 493.721185 248.744976 
L 492.116657 250.335377 
z
" clip-path="url(#p2a0c9a57d8)" style="fill: #1f77b4; fill-opacity: 0.3"/>
   </g>
   <g id="PolyCollection_7">
    <path d="M 554.952466 257.44202 
L 553.243897 257.44202 
L 552.963685 257.031825 
L 552.606738 256.621629 
L 552.16032 256.211433 
L 551.614159 255.801237 
L 550.962052 255.391041 
L 550.202923 254.980845 
L 549.341072 254.570649 
L 548.3856 254.160454 
L 547.349312 253.750258 
L 546.247545 253.340062 
L 545.097405 252.929866 
L 543.917615 252.51967 
L 542.72888 252.109474 
L 541.554312 251.699278 
L 540.419372 251.289083 
L 539.350922 250.878887 
L 538.375365 250.468691 
L 537.516289 250.058495 
L 536.792294 249.648299 
L 536.215697 249.238103 
L 535.792441 248.827907 
L 535.523088 248.417711 
L 535.404318 248.007516 
L 535.430229 247.59732 
L 535.592873 247.187124 
L 535.881918 246.776928 
L 536.283764 246.366732 
L 536.780772 245.956536 
L 537.351242 245.54634 
L 537.970518 245.136145 
L 538.613128 244.725949 
L 539.255482 244.315753 
L 539.878435 243.905557 
L 540.469082 243.495361 
L 541.021447 243.085165 
L 541.536058 242.674969 
L 542.018724 242.264774 
L 542.478961 241.854578 
L 542.928424 241.444382 
L 543.379582 241.034186 
L 543.844601 240.62399 
L 544.334316 240.213794 
L 544.857124 239.803598 
L 545.417761 239.393403 
L 546.01608 238.983207 
L 546.646148 238.573011 
L 547.296005 238.162815 
L 547.94839 237.752619 
L 548.582518 237.342423 
L 549.176714 236.932227 
L 549.711414 236.522032 
L 550.171938 236.111836 
L 550.550432 235.70164 
L 550.846601 235.291444 
L 551.067173 234.881248 
L 551.224295 234.471052 
L 551.333323 234.060856 
L 551.410476 233.65066 
L 551.470797 233.240465 
L 551.526664 232.830269 
L 551.586963 232.420073 
L 551.656863 232.009877 
L 551.738068 231.599681 
L 551.829431 231.189485 
L 551.927795 230.779289 
L 552.028982 230.369094 
L 552.128818 229.958898 
L 552.224075 229.548702 
L 552.313144 229.138506 
L 552.39629 228.72831 
L 552.475423 228.318114 
L 552.553423 227.907918 
L 552.633239 227.497723 
L 552.717047 227.087527 
L 552.805722 226.677331 
L 552.898767 226.267135 
L 552.994636 225.856939 
L 553.091287 225.446743 
L 553.18668 225.036547 
L 553.279071 224.626352 
L 553.367006 224.216156 
L 553.449124 223.80596 
L 553.523915 223.395764 
L 553.589607 222.985568 
L 553.644303 222.575372 
L 553.686331 222.165176 
L 553.714744 221.75498 
L 553.729774 221.344785 
L 553.733094 220.934589 
L 553.727766 220.524393 
L 553.71786 220.114197 
L 553.707827 219.704001 
L 553.701781 219.293805 
L 553.70287 218.883609 
L 553.71288 218.473414 
L 553.73214 218.063218 
L 553.759706 217.653022 
L 553.793722 217.242826 
L 553.831854 216.83263 
L 554.36451 216.83263 
L 554.36451 216.83263 
L 554.402641 217.242826 
L 554.436658 217.653022 
L 554.464223 218.063218 
L 554.483484 218.473414 
L 554.493494 218.883609 
L 554.494583 219.293805 
L 554.488537 219.704001 
L 554.478504 220.114197 
L 554.468598 220.524393 
L 554.46327 220.934589 
L 554.46659 221.344785 
L 554.48162 221.75498 
L 554.510033 222.165176 
L 554.552061 222.575372 
L 554.606756 222.985568 
L 554.672449 223.395764 
L 554.747239 223.80596 
L 554.829358 224.216156 
L 554.917293 224.626352 
L 555.009684 225.036547 
L 555.105077 225.446743 
L 555.201727 225.856939 
L 555.297597 226.267135 
L 555.390641 226.677331 
L 555.479317 227.087527 
L 555.563125 227.497723 
L 555.642941 227.907918 
L 555.720941 228.318114 
L 555.800074 228.72831 
L 555.88322 229.138506 
L 555.972288 229.548702 
L 556.067546 229.958898 
L 556.167382 230.369094 
L 556.268568 230.779289 
L 556.366932 231.189485 
L 556.458296 231.599681 
L 556.539501 232.009877 
L 556.6094 232.420073 
L 556.6697 232.830269 
L 556.725567 233.240465 
L 556.785887 233.65066 
L 556.863041 234.060856 
L 556.972068 234.471052 
L 557.129191 234.881248 
L 557.349762 235.291444 
L 557.645932 235.70164 
L 558.024425 236.111836 
L 558.48495 236.522032 
L 559.01965 236.932227 
L 559.613846 237.342423 
L 560.247974 237.752619 
L 560.900358 238.162815 
L 561.550216 238.573011 
L 562.180284 238.983207 
L 562.778603 239.393403 
L 563.339239 239.803598 
L 563.862048 240.213794 
L 564.351763 240.62399 
L 564.816782 241.034186 
L 565.267939 241.444382 
L 565.717403 241.854578 
L 566.177639 242.264774 
L 566.660306 242.674969 
L 567.174916 243.085165 
L 567.727282 243.495361 
L 568.317929 243.905557 
L 568.940882 244.315753 
L 569.583236 244.725949 
L 570.225846 245.136145 
L 570.845122 245.54634 
L 571.415592 245.956536 
L 571.912599 246.366732 
L 572.314446 246.776928 
L 572.603491 247.187124 
L 572.766135 247.59732 
L 572.792045 248.007516 
L 572.673276 248.417711 
L 572.403923 248.827907 
L 571.980667 249.238103 
L 571.40407 249.648299 
L 570.680075 250.058495 
L 569.820998 250.468691 
L 568.845442 250.878887 
L 567.776992 251.289083 
L 566.642052 251.699278 
L 565.467484 252.109474 
L 564.278749 252.51967 
L 563.098959 252.929866 
L 561.948819 253.340062 
L 560.847052 253.750258 
L 559.810764 254.160454 
L 558.855292 254.570649 
L 557.99344 254.980845 
L 557.234312 255.391041 
L 556.582204 255.801237 
L 556.036044 256.211433 
L 555.589625 256.621629 
L 555.232678 257.031825 
L 554.952466 257.44202 
z
" clip-path="url(#p2a0c9a57d8)" style="fill: #1f77b4; fill-opacity: 0.3"/>
   </g>
   <g id="PolyCollection_8">
    <path d="M 639.914342 315.88423 
L 617.832931 315.88423 
L 616.352979 314.743707 
L 614.923914 313.603184 
L 613.60426 312.462661 
L 612.452459 311.322139 
L 611.522599 310.181616 
L 610.860202 309.041093 
L 610.49851 307.90057 
L 610.455712 306.760047 
L 610.733417 305.619524 
L 611.316568 304.479002 
L 612.174789 303.338479 
L 613.265007 302.197956 
L 614.535028 301.057433 
L 615.927656 299.91691 
L 617.384907 298.776387 
L 618.851885 297.635865 
L 620.279992 296.495342 
L 621.629209 295.354819 
L 622.869384 294.214296 
L 623.980523 293.073773 
L 624.952243 291.93325 
L 625.782554 290.792727 
L 626.476238 289.652205 
L 627.043024 288.511682 
L 627.495779 287.371159 
L 627.848848 286.230636 
L 628.116649 285.090113 
L 628.312551 283.94959 
L 628.44805 282.809068 
L 628.532178 281.668545 
L 628.571137 280.528022 
L 628.568062 279.387499 
L 628.522916 278.246976 
L 628.432464 277.106453 
L 628.290345 275.965931 
L 628.087267 274.825408 
L 627.811364 273.684885 
L 627.448782 272.544362 
L 626.984536 271.403839 
L 626.403692 270.263316 
L 625.69285 269.122793 
L 624.841912 267.982271 
L 623.846011 266.841748 
L 622.707427 265.701225 
L 621.437301 264.560702 
L 620.056856 263.420179 
L 618.597918 262.279656 
L 617.102501 261.139134 
L 615.621339 259.998611 
L 614.211365 258.858088 
L 612.932258 257.717565 
L 611.842327 256.577042 
L 610.994128 255.436519 
L 610.430252 254.295997 
L 610.179773 253.155474 
L 610.255757 252.014951 
L 610.654139 250.874428 
L 611.354088 249.733905 
L 612.319833 248.593382 
L 613.503708 247.452859 
L 614.850065 246.312337 
L 616.299607 245.171814 
L 617.793661 244.031291 
L 619.277994 242.890768 
L 620.705815 241.750245 
L 622.039794 240.609722 
L 623.253019 239.4692 
L 624.328973 238.328677 
L 625.260689 237.188154 
L 626.049319 236.047631 
L 626.702363 234.907108 
L 627.231786 233.766585 
L 627.652241 232.626063 
L 627.979507 231.48554 
L 628.229252 230.345017 
L 628.416134 229.204494 
L 628.553223 228.063971 
L 628.651714 226.923448 
L 628.720858 225.782926 
L 628.76805 224.642403 
L 628.799026 223.50188 
L 628.818108 222.361357 
L 628.828466 221.220834 
L 628.83237 220.080311 
L 628.831423 218.939788 
L 628.826758 217.799266 
L 628.819201 216.658743 
L 628.8094 215.51822 
L 628.797923 214.377697 
L 628.785324 213.237174 
L 628.772178 212.096651 
L 628.759095 210.956129 
L 628.746712 209.815606 
L 628.735661 208.675083 
L 628.726538 207.53456 
L 628.719852 206.394037 
L 628.71599 205.253514 
L 628.715181 204.112992 
L 628.717473 202.972469 
L 629.029799 202.972469 
L 629.029799 202.972469 
L 629.032092 204.112992 
L 629.031282 205.253514 
L 629.027421 206.394037 
L 629.020735 207.53456 
L 629.011612 208.675083 
L 629.000561 209.815606 
L 628.988178 210.956129 
L 628.975095 212.096651 
L 628.961949 213.237174 
L 628.94935 214.377697 
L 628.937873 215.51822 
L 628.928072 216.658743 
L 628.920514 217.799266 
L 628.915849 218.939788 
L 628.914903 220.080311 
L 628.918807 221.220834 
L 628.929164 222.361357 
L 628.948247 223.50188 
L 628.979223 224.642403 
L 629.026415 225.782926 
L 629.095559 226.923448 
L 629.19405 228.063971 
L 629.331139 229.204494 
L 629.51802 230.345017 
L 629.767766 231.48554 
L 630.095032 232.626063 
L 630.515486 233.766585 
L 631.04491 234.907108 
L 631.697953 236.047631 
L 632.486584 237.188154 
L 633.4183 238.328677 
L 634.494254 239.4692 
L 635.707479 240.609722 
L 637.041458 241.750245 
L 638.469279 242.890768 
L 639.953612 244.031291 
L 641.447666 245.171814 
L 642.897208 246.312337 
L 644.243565 247.452859 
L 645.42744 248.593382 
L 646.393184 249.733905 
L 647.093134 250.874428 
L 647.491515 252.014951 
L 647.5675 253.155474 
L 647.317021 254.295997 
L 646.753144 255.436519 
L 645.904945 256.577042 
L 644.815015 257.717565 
L 643.535908 258.858088 
L 642.125934 259.998611 
L 640.644771 261.139134 
L 639.149354 262.279656 
L 637.690417 263.420179 
L 636.309972 264.560702 
L 635.039845 265.701225 
L 633.901262 266.841748 
L 632.90536 267.982271 
L 632.054423 269.122793 
L 631.343581 270.263316 
L 630.762736 271.403839 
L 630.298491 272.544362 
L 629.935909 273.684885 
L 629.660006 274.825408 
L 629.456927 275.965931 
L 629.314809 277.106453 
L 629.224357 278.246976 
L 629.179211 279.387499 
L 629.176136 280.528022 
L 629.215094 281.668545 
L 629.299223 282.809068 
L 629.434721 283.94959 
L 629.630624 285.090113 
L 629.898424 286.230636 
L 630.251494 287.371159 
L 630.704249 288.511682 
L 631.271035 289.652205 
L 631.964719 290.792727 
L 632.79503 291.93325 
L 633.766749 293.073773 
L 634.877889 294.214296 
L 636.118063 295.354819 
L 637.467281 296.495342 
L 638.895387 297.635865 
L 640.362366 298.776387 
L 641.819616 299.91691 
L 643.212244 301.057433 
L 644.482265 302.197956 
L 645.572484 303.338479 
L 646.430705 304.479002 
L 647.013856 305.619524 
L 647.291561 306.760047 
L 647.248763 307.90057 
L 646.887071 309.041093 
L 646.224673 310.181616 
L 645.294814 311.322139 
L 644.143012 312.462661 
L 642.823359 313.603184 
L 641.394294 314.743707 
L 639.914342 315.88423 
z
" clip-path="url(#p2a0c9a57d8)" style="fill: #1f77b4; fill-opacity: 0.3"/>
   </g>
   <g id="PolyCollection_9">
    <path d="M 707.762035 322.814311 
L 699.536147 322.814311 
L 698.498933 321.623405 
L 697.313156 320.4325 
L 695.992315 319.241594 
L 694.561206 318.050688 
L 693.056324 316.859783 
L 691.525149 315.668877 
L 690.024212 314.477972 
L 688.615955 313.287066 
L 687.364599 312.09616 
L 686.331346 310.905255 
L 685.569446 309.714349 
L 685.11964 308.523444 
L 685.006553 307.332538 
L 685.236459 306.141632 
L 685.796718 304.950727 
L 686.656939 303.759821 
L 687.771733 302.568916 
L 689.084695 301.37801 
L 690.533134 300.187104 
L 692.053008 298.996199 
L 693.583507 297.805293 
L 695.070864 296.614388 
L 696.471081 295.423482 
L 697.751438 294.232576 
L 698.890813 293.041671 
L 699.878977 291.850765 
L 700.71511 290.65986 
L 701.405838 289.468954 
L 701.963059 288.278048 
L 702.401822 287.087143 
L 702.738415 285.896237 
L 702.98877 284.705332 
L 703.16724 283.514426 
L 703.285702 282.323521 
L 703.352967 281.132615 
L 703.37441 279.941709 
L 703.351778 278.750804 
L 703.283124 277.559898 
L 703.162859 276.368993 
L 702.981938 275.178087 
L 702.728223 273.987181 
L 702.387086 272.796276 
L 701.942313 271.60537 
L 701.37737 270.414465 
L 700.677037 269.223559 
L 699.829376 268.032653 
L 698.827915 266.841748 
L 697.673868 265.650842 
L 696.378143 264.459937 
L 694.962817 263.269031 
L 693.46181 262.078125 
L 691.920476 260.88722 
L 690.393959 259.696314 
L 688.944305 258.505409 
L 687.636478 257.314503 
L 686.533613 256.123597 
L 685.69197 254.932692 
L 685.156166 253.741786 
L 684.955227 252.550881 
L 685.099969 251.359975 
L 685.582023 250.169069 
L 686.37464 248.978164 
L 687.435161 247.787258 
L 688.708832 246.596353 
L 690.133495 245.405447 
L 691.644585 244.214542 
L 693.179888 243.023636 
L 694.683582 241.83273 
L 696.109211 240.641825 
L 697.421455 239.450919 
L 698.596674 238.260014 
L 699.622373 237.069108 
L 700.495861 235.878202 
L 701.222359 234.687297 
L 701.812885 233.496391 
L 702.28216 232.305486 
L 702.64673 231.11458 
L 702.923429 229.923674 
L 703.128247 228.732769 
L 703.275575 227.541863 
L 703.37782 226.350958 
L 703.445289 225.160052 
L 703.486285 223.969146 
L 703.507338 222.778241 
L 703.513504 221.587335 
L 703.508687 220.39643 
L 703.495935 219.205524 
L 703.477707 218.014618 
L 703.456066 216.823713 
L 703.432828 215.632807 
L 703.40964 214.441902 
L 703.388006 213.250996 
L 703.36928 212.06009 
L 703.35462 210.869185 
L 703.344936 209.678279 
L 703.340842 208.487374 
L 703.342614 207.296468 
L 703.350175 206.105563 
L 703.363116 204.914657 
L 703.935066 204.914657 
L 703.935066 204.914657 
L 703.948006 206.105563 
L 703.955568 207.296468 
L 703.957339 208.487374 
L 703.953245 209.678279 
L 703.943562 210.869185 
L 703.928902 212.06009 
L 703.910175 213.250996 
L 703.888542 214.441902 
L 703.865353 215.632807 
L 703.842116 216.823713 
L 703.820475 218.014618 
L 703.802246 219.205524 
L 703.789495 220.39643 
L 703.784677 221.587335 
L 703.790844 222.778241 
L 703.811897 223.969146 
L 703.852892 225.160052 
L 703.920361 226.350958 
L 704.022607 227.541863 
L 704.169935 228.732769 
L 704.374752 229.923674 
L 704.651452 231.11458 
L 705.016022 232.305486 
L 705.485297 233.496391 
L 706.075823 234.687297 
L 706.802321 235.878202 
L 707.675809 237.069108 
L 708.701508 238.260014 
L 709.876726 239.450919 
L 711.188971 240.641825 
L 712.6146 241.83273 
L 714.118293 243.023636 
L 715.653597 244.214542 
L 717.164687 245.405447 
L 718.58935 246.596353 
L 719.863021 247.787258 
L 720.923542 248.978164 
L 721.716159 250.169069 
L 722.198213 251.359975 
L 722.342955 252.550881 
L 722.142016 253.741786 
L 721.606212 254.932692 
L 720.764569 256.123597 
L 719.661703 257.314503 
L 718.353877 258.505409 
L 716.904223 259.696314 
L 715.377706 260.88722 
L 713.836372 262.078125 
L 712.335365 263.269031 
L 710.920039 264.459937 
L 709.624313 265.650842 
L 708.470267 266.841748 
L 707.468806 268.032653 
L 706.621145 269.223559 
L 705.920812 270.414465 
L 705.355869 271.60537 
L 704.911096 272.796276 
L 704.569958 273.987181 
L 704.316244 275.178087 
L 704.135323 276.368993 
L 704.015058 277.559898 
L 703.946404 278.750804 
L 703.923772 279.941709 
L 703.945215 281.132615 
L 704.01248 282.323521 
L 704.130942 283.514426 
L 704.309412 284.705332 
L 704.559767 285.896237 
L 704.896359 287.087143 
L 705.335123 288.278048 
L 705.892344 289.468954 
L 706.583072 290.65986 
L 707.419205 291.850765 
L 708.407369 293.041671 
L 709.546744 294.232576 
L 710.827101 295.423482 
L 712.227318 296.614388 
L 713.714675 297.805293 
L 715.245174 298.996199 
L 716.765048 300.187104 
L 718.213487 301.37801 
L 719.526448 302.568916 
L 720.641243 303.759821 
L 721.501464 304.950727 
L 722.061723 306.141632 
L 722.291629 307.332538 
L 722.178541 308.523444 
L 721.728736 309.714349 
L 720.966836 310.905255 
L 719.933583 312.09616 
L 718.682226 313.287066 
L 717.27397 314.477972 
L 715.773032 315.668877 
L 714.241857 316.859783 
L 712.736976 318.050688 
L 711.305867 319.241594 
L 709.985025 320.4325 
L 708.799249 321.623405 
L 707.762035 322.814311 
z
" clip-path="url(#p2a0c9a57d8)" style="fill: #1f77b4; fill-opacity: 0.3"/>
   </g>
   <g id="PolyCollection_10">
    <path d="M 793.044827 323.829545 
L 763.804264 323.829545 
L 763.088331 323.107244 
L 762.444638 322.384943 
L 761.884999 321.662641 
L 761.41997 320.94034 
L 761.05852 320.218038 
L 760.807742 319.495737 
L 760.672623 318.773436 
L 760.655877 318.051134 
L 760.757859 317.328833 
L 760.976545 316.606531 
L 761.307607 315.88423 
L 761.744549 315.161929 
L 762.278922 314.439627 
L 762.900596 313.717326 
L 763.598078 312.995024 
L 764.358863 312.272723 
L 765.169809 311.550422 
L 766.017508 310.82812 
L 766.888649 310.105819 
L 767.770356 309.383517 
L 768.650489 308.661216 
L 769.517901 307.938914 
L 770.362637 307.216613 
L 771.176087 306.494312 
L 771.951077 305.77201 
L 772.681903 305.049709 
L 773.364325 304.327407 
L 773.995501 303.605106 
L 774.5739 302.882805 
L 775.09917 302.160503 
L 775.571999 301.438202 
L 775.993952 300.7159 
L 776.367308 299.993599 
L 776.694897 299.271298 
L 776.979941 298.548996 
L 777.225915 297.826695 
L 777.436411 297.104393 
L 777.615027 296.382092 
L 777.76527 295.659791 
L 777.89048 294.937489 
L 777.993767 294.215188 
L 778.077965 293.492886 
L 778.145598 292.770585 
L 778.198858 292.048283 
L 778.239592 291.325982 
L 778.269293 290.603681 
L 778.289099 289.881379 
L 778.29979 289.159078 
L 778.30179 288.436776 
L 778.295164 287.714475 
L 778.27962 286.992174 
L 778.254504 286.269872 
L 778.218798 285.547571 
L 778.171122 284.825269 
L 778.109726 284.102968 
L 778.032499 283.380667 
L 777.936973 282.658365 
L 777.820343 281.936064 
L 777.67949 281.213762 
L 777.51102 280.491461 
L 777.31132 279.76916 
L 777.076627 279.046858 
L 776.803119 278.324557 
L 776.487021 277.602255 
L 776.124733 276.879954 
L 775.712973 276.157652 
L 775.248937 275.435351 
L 774.730468 274.71305 
L 774.156229 273.990748 
L 773.525879 273.268447 
L 772.840236 272.546145 
L 772.101424 271.823844 
L 771.312996 271.101543 
L 770.48002 270.379241 
L 769.609126 269.65694 
L 768.708494 268.934638 
L 767.787801 268.212337 
L 766.858091 267.490036 
L 765.931604 266.767734 
L 765.021529 266.045433 
L 764.141719 265.323131 
L 763.306352 264.60083 
L 762.529558 263.878529 
L 761.825031 263.156227 
L 761.205629 262.433926 
L 760.682983 261.711624 
L 760.267136 260.989323 
L 759.966224 260.267022 
L 759.786209 259.54472 
L 759.730682 258.822419 
L 759.800746 258.100117 
L 759.99498 257.377816 
L 760.309483 256.655514 
L 760.738008 255.933213 
L 761.272167 255.210912 
L 761.901704 254.48861 
L 762.614821 253.766309 
L 763.398547 253.044007 
L 764.239126 252.321706 
L 792.609965 252.321706 
L 792.609965 252.321706 
L 793.450544 253.044007 
L 794.23427 253.766309 
L 794.947387 254.48861 
L 795.576924 255.210912 
L 796.111083 255.933213 
L 796.539608 256.655514 
L 796.854111 257.377816 
L 797.048345 258.100117 
L 797.118409 258.822419 
L 797.062882 259.54472 
L 796.882867 260.267022 
L 796.581955 260.989323 
L 796.166108 261.711624 
L 795.643462 262.433926 
L 795.02406 263.156227 
L 794.319533 263.878529 
L 793.542739 264.60083 
L 792.707372 265.323131 
L 791.827562 266.045433 
L 790.917487 266.767734 
L 789.990999 267.490036 
L 789.06129 268.212337 
L 788.140597 268.934638 
L 787.239965 269.65694 
L 786.369071 270.379241 
L 785.536095 271.101543 
L 784.747667 271.823844 
L 784.008855 272.546145 
L 783.323212 273.268447 
L 782.692862 273.990748 
L 782.118623 274.71305 
L 781.600154 275.435351 
L 781.136118 276.157652 
L 780.724358 276.879954 
L 780.36207 277.602255 
L 780.045972 278.324557 
L 779.772464 279.046858 
L 779.537771 279.76916 
L 779.338071 280.491461 
L 779.169601 281.213762 
L 779.028748 281.936064 
L 778.912118 282.658365 
L 778.816592 283.380667 
L 778.739365 284.102968 
L 778.677969 284.825269 
L 778.630292 285.547571 
L 778.594587 286.269872 
L 778.569471 286.992174 
L 778.553927 287.714475 
L 778.547301 288.436776 
L 778.549301 289.159078 
L 778.559992 289.881379 
L 778.579798 290.603681 
L 778.609499 291.325982 
L 778.650233 292.048283 
L 778.703493 292.770585 
L 778.771125 293.492886 
L 778.855324 294.215188 
L 778.958611 294.937489 
L 779.083821 295.659791 
L 779.234064 296.382092 
L 779.41268 297.104393 
L 779.623175 297.826695 
L 779.86915 298.548996 
L 780.154194 299.271298 
L 780.481783 299.993599 
L 780.855139 300.7159 
L 781.277092 301.438202 
L 781.749921 302.160503 
L 782.275191 302.882805 
L 782.853589 303.605106 
L 783.484766 304.327407 
L 784.167187 305.049709 
L 784.898014 305.77201 
L 785.673004 306.494312 
L 786.486454 307.216613 
L 787.33119 307.938914 
L 788.198602 308.661216 
L 789.078735 309.383517 
L 789.960442 310.105819 
L 790.831583 310.82812 
L 791.679282 311.550422 
L 792.490228 312.272723 
L 793.251013 312.995024 
L 793.948495 313.717326 
L 794.570169 314.439627 
L 795.104542 315.161929 
L 795.541484 315.88423 
L 795.872546 316.606531 
L 796.091232 317.328833 
L 796.193214 318.051134 
L 796.176468 318.773436 
L 796.041349 319.495737 
L 795.790571 320.218038 
L 795.429121 320.94034 
L 794.964092 321.662641 
L 794.404453 322.384943 
L 793.76076 323.107244 
L 793.044827 323.829545 
z
" clip-path="url(#p2a0c9a57d8)" style="fill: #1f77b4; fill-opacity: 0.3"/>
   </g>
   <g id="matplotlib.axis_1">
    <g id="xtick_1">
     <g id="line2d_1">
      <defs>
       <path id="m909f41ef32" d="M 0 0 
L 0 3.5 
" style="stroke: #000000; stroke-width: 0.8"/>
      </defs>
      <g>
       <use xlink:href="#m909f41ef32" x="105.445455" y="337.97" style="stroke: #000000; stroke-width: 0.8"/>
      </g>
     </g>
     <g id="text_1">
      <!-- Grudger -->
      <g transform="translate(107.652955 377.89625)rotate(-90)scale(0.08 -0.08)">
       <defs>
        <path id="DejaVuSans-47" d="M 3809 666 
L 3809 1919 
L 2778 1919 
L 2778 2438 
L 4434 2438 
L 4434 434 
Q 4069 175 3628 42 
Q 3188 -91 2688 -91 
Q 1594 -91 976 548 
Q 359 1188 359 2328 
Q 359 3472 976 4111 
Q 1594 4750 2688 4750 
Q 3144 4750 3555 4637 
Q 3966 4525 4313 4306 
L 4313 3634 
Q 3963 3931 3569 4081 
Q 3175 4231 2741 4231 
Q 1884 4231 1454 3753 
Q 1025 3275 1025 2328 
Q 1025 1384 1454 906 
Q 1884 428 2741 428 
Q 3075 428 3337 486 
Q 3600 544 3809 666 
z
" transform="scale(0.015625)"/>
        <path id="DejaVuSans-72" d="M 2631 2963 
Q 2534 3019 2420 3045 
Q 2306 3072 2169 3072 
Q 1681 3072 1420 2755 
Q 1159 2438 1159 1844 
L 1159 0 
L 581 0 
L 581 3500 
L 1159 3500 
L 1159 2956 
Q 1341 3275 1631 3429 
Q 1922 3584 2338 3584 
Q 2397 3584 2469 3576 
Q 2541 3569 2628 3553 
L 2631 2963 
z
" transform="scale(0.015625)"/>
        <path id="DejaVuSans-75" d="M 544 1381 
L 544 3500 
L 1119 3500 
L 1119 1403 
Q 1119 906 1312 657 
Q 1506 409 1894 409 
Q 2359 409 2629 706 
Q 2900 1003 2900 1516 
L 2900 3500 
L 3475 3500 
L 3475 0 
L 2900 0 
L 2900 538 
Q 2691 219 2414 64 
Q 2138 -91 1772 -91 
Q 1169 -91 856 284 
Q 544 659 544 1381 
z
M 1991 3584 
L 1991 3584 
z
" transform="scale(0.015625)"/>
        <path id="DejaVuSans-64" d="M 2906 2969 
L 2906 4863 
L 3481 4863 
L 3481 0 
L 2906 0 
L 2906 525 
Q 2725 213 2448 61 
Q 2172 -91 1784 -91 
Q 1150 -91 751 415 
Q 353 922 353 1747 
Q 353 2572 751 3078 
Q 1150 3584 1784 3584 
Q 2172 3584 2448 3432 
Q 2725 3281 2906 2969 
z
M 947 1747 
Q 947 1113 1208 752 
Q 1469 391 1925 391 
Q 2381 391 2643 752 
Q 2906 1113 2906 1747 
Q 2906 2381 2643 2742 
Q 2381 3103 1925 3103 
Q 1469 3103 1208 2742 
Q 947 2381 947 1747 
z
" transform="scale(0.015625)"/>
        <path id="DejaVuSans-67" d="M 2906 1791 
Q 2906 2416 2648 2759 
Q 2391 3103 1925 3103 
Q 1463 3103 1205 2759 
Q 947 2416 947 1791 
Q 947 1169 1205 825 
Q 1463 481 1925 481 
Q 2391 481 2648 825 
Q 2906 1169 2906 1791 
z
M 3481 434 
Q 3481 -459 3084 -895 
Q 2688 -1331 1869 -1331 
Q 1566 -1331 1297 -1286 
Q 1028 -1241 775 -1147 
L 775 -588 
Q 1028 -725 1275 -790 
Q 1522 -856 1778 -856 
Q 2344 -856 2625 -561 
Q 2906 -266 2906 331 
L 2906 616 
Q 2728 306 2450 153 
Q 2172 0 1784 0 
Q 1141 0 747 490 
Q 353 981 353 1791 
Q 353 2603 747 3093 
Q 1141 3584 1784 3584 
Q 2172 3584 2450 3431 
Q 2728 3278 2906 2969 
L 2906 3500 
L 3481 3500 
L 3481 434 
z
" transform="scale(0.015625)"/>
        <path id="DejaVuSans-65" d="M 3597 1894 
L 3597 1613 
L 953 1613 
Q 991 1019 1311 708 
Q 1631 397 2203 397 
Q 2534 397 2845 478 
Q 3156 559 3463 722 
L 3463 178 
Q 3153 47 2828 -22 
Q 2503 -91 2169 -91 
Q 1331 -91 842 396 
Q 353 884 353 1716 
Q 353 2575 817 3079 
Q 1281 3584 2069 3584 
Q 2775 3584 3186 3129 
Q 3597 2675 3597 1894 
z
M 3022 2063 
Q 3016 2534 2758 2815 
Q 2500 3097 2075 3097 
Q 1594 3097 1305 2825 
Q 1016 2553 972 2059 
L 3022 2063 
z
" transform="scale(0.015625)"/>
       </defs>
       <use xlink:href="#DejaVuSans-47"/>
       <use xlink:href="#DejaVuSans-72" x="77.490234"/>
       <use xlink:href="#DejaVuSans-75" x="118.603516"/>
       <use xlink:href="#DejaVuSans-64" x="181.982422"/>
       <use xlink:href="#DejaVuSans-67" x="245.458984"/>
       <use xlink:href="#DejaVuSans-65" x="308.935547"/>
       <use xlink:href="#DejaVuSans-72" x="370.458984"/>
      </g>
     </g>
    </g>
    <g id="xtick_2">
     <g id="line2d_2">
      <g>
       <use xlink:href="#m909f41ef32" x="180.220909" y="337.97" style="stroke: #000000; stroke-width: 0.8"/>
      </g>
     </g>
     <g id="text_2">
      <!-- Tit For Tat -->
      <g transform="translate(182.428409 384.15)rotate(-90)scale(0.08 -0.08)">
       <defs>
        <path id="DejaVuSans-54" d="M -19 4666 
L 3928 4666 
L 3928 4134 
L 2272 4134 
L 2272 0 
L 1638 0 
L 1638 4134 
L -19 4134 
L -19 4666 
z
" transform="scale(0.015625)"/>
        <path id="DejaVuSans-69" d="M 603 3500 
L 1178 3500 
L 1178 0 
L 603 0 
L 603 3500 
z
M 603 4863 
L 1178 4863 
L 1178 4134 
L 603 4134 
L 603 4863 
z
" transform="scale(0.015625)"/>
        <path id="DejaVuSans-74" d="M 1172 4494 
L 1172 3500 
L 2356 3500 
L 2356 3053 
L 1172 3053 
L 1172 1153 
Q 1172 725 1289 603 
Q 1406 481 1766 481 
L 2356 481 
L 2356 0 
L 1766 0 
Q 1100 0 847 248 
Q 594 497 594 1153 
L 594 3053 
L 172 3053 
L 172 3500 
L 594 3500 
L 594 4494 
L 1172 4494 
z
" transform="scale(0.015625)"/>
        <path id="DejaVuSans-20" transform="scale(0.015625)"/>
        <path id="DejaVuSans-46" d="M 628 4666 
L 3309 4666 
L 3309 4134 
L 1259 4134 
L 1259 2759 
L 3109 2759 
L 3109 2228 
L 1259 2228 
L 1259 0 
L 628 0 
L 628 4666 
z
" transform="scale(0.015625)"/>
        <path id="DejaVuSans-6f" d="M 1959 3097 
Q 1497 3097 1228 2736 
Q 959 2375 959 1747 
Q 959 1119 1226 758 
Q 1494 397 1959 397 
Q 2419 397 2687 759 
Q 2956 1122 2956 1747 
Q 2956 2369 2687 2733 
Q 2419 3097 1959 3097 
z
M 1959 3584 
Q 2709 3584 3137 3096 
Q 3566 2609 3566 1747 
Q 3566 888 3137 398 
Q 2709 -91 1959 -91 
Q 1206 -91 779 398 
Q 353 888 353 1747 
Q 353 2609 779 3096 
Q 1206 3584 1959 3584 
z
" transform="scale(0.015625)"/>
        <path id="DejaVuSans-61" d="M 2194 1759 
Q 1497 1759 1228 1600 
Q 959 1441 959 1056 
Q 959 750 1161 570 
Q 1363 391 1709 391 
Q 2188 391 2477 730 
Q 2766 1069 2766 1631 
L 2766 1759 
L 2194 1759 
z
M 3341 1997 
L 3341 0 
L 2766 0 
L 2766 531 
Q 2569 213 2275 61 
Q 1981 -91 1556 -91 
Q 1019 -91 701 211 
Q 384 513 384 1019 
Q 384 1609 779 1909 
Q 1175 2209 1959 2209 
L 2766 2209 
L 2766 2266 
Q 2766 2663 2505 2880 
Q 2244 3097 1772 3097 
Q 1472 3097 1187 3025 
Q 903 2953 641 2809 
L 641 3341 
Q 956 3463 1253 3523 
Q 1550 3584 1831 3584 
Q 2591 3584 2966 3190 
Q 3341 2797 3341 1997 
z
" transform="scale(0.015625)"/>
       </defs>
       <use xlink:href="#DejaVuSans-54"/>
       <use xlink:href="#DejaVuSans-69" x="57.958984"/>
       <use xlink:href="#DejaVuSans-74" x="85.742188"/>
       <use xlink:href="#DejaVuSans-20" x="124.951172"/>
       <use xlink:href="#DejaVuSans-46" x="156.738281"/>
       <use xlink:href="#DejaVuSans-6f" x="210.632812"/>
       <use xlink:href="#DejaVuSans-72" x="271.814453"/>
       <use xlink:href="#DejaVuSans-20" x="312.927734"/>
       <use xlink:href="#DejaVuSans-54" x="344.714844"/>
       <use xlink:href="#DejaVuSans-61" x="389.298828"/>
       <use xlink:href="#DejaVuSans-74" x="450.578125"/>
      </g>
     </g>
    </g>
    <g id="xtick_3">
     <g id="line2d_3">
      <g>
       <use xlink:href="#m909f41ef32" x="254.996364" y="337.97" style="stroke: #000000; stroke-width: 0.8"/>
      </g>
     </g>
     <g id="text_3">
      <!-- Deep QLearner -->
      <g transform="translate(257.203864 405.46625)rotate(-90)scale(0.08 -0.08)">
       <defs>
        <path id="DejaVuSans-44" d="M 1259 4147 
L 1259 519 
L 2022 519 
Q 2988 519 3436 956 
Q 3884 1394 3884 2338 
Q 3884 3275 3436 3711 
Q 2988 4147 2022 4147 
L 1259 4147 
z
M 628 4666 
L 1925 4666 
Q 3281 4666 3915 4102 
Q 4550 3538 4550 2338 
Q 4550 1131 3912 565 
Q 3275 0 1925 0 
L 628 0 
L 628 4666 
z
" transform="scale(0.015625)"/>
        <path id="DejaVuSans-70" d="M 1159 525 
L 1159 -1331 
L 581 -1331 
L 581 3500 
L 1159 3500 
L 1159 2969 
Q 1341 3281 1617 3432 
Q 1894 3584 2278 3584 
Q 2916 3584 3314 3078 
Q 3713 2572 3713 1747 
Q 3713 922 3314 415 
Q 2916 -91 2278 -91 
Q 1894 -91 1617 61 
Q 1341 213 1159 525 
z
M 3116 1747 
Q 3116 2381 2855 2742 
Q 2594 3103 2138 3103 
Q 1681 3103 1420 2742 
Q 1159 2381 1159 1747 
Q 1159 1113 1420 752 
Q 1681 391 2138 391 
Q 2594 391 2855 752 
Q 3116 1113 3116 1747 
z
" transform="scale(0.015625)"/>
        <path id="DejaVuSans-51" d="M 2522 4238 
Q 1834 4238 1429 3725 
Q 1025 3213 1025 2328 
Q 1025 1447 1429 934 
Q 1834 422 2522 422 
Q 3209 422 3611 934 
Q 4013 1447 4013 2328 
Q 4013 3213 3611 3725 
Q 3209 4238 2522 4238 
z
M 3406 84 
L 4238 -825 
L 3475 -825 
L 2784 -78 
Q 2681 -84 2626 -87 
Q 2572 -91 2522 -91 
Q 1538 -91 948 567 
Q 359 1225 359 2328 
Q 359 3434 948 4092 
Q 1538 4750 2522 4750 
Q 3503 4750 4090 4092 
Q 4678 3434 4678 2328 
Q 4678 1516 4351 937 
Q 4025 359 3406 84 
z
" transform="scale(0.015625)"/>
        <path id="DejaVuSans-4c" d="M 628 4666 
L 1259 4666 
L 1259 531 
L 3531 531 
L 3531 0 
L 628 0 
L 628 4666 
z
" transform="scale(0.015625)"/>
        <path id="DejaVuSans-6e" d="M 3513 2113 
L 3513 0 
L 2938 0 
L 2938 2094 
Q 2938 2591 2744 2837 
Q 2550 3084 2163 3084 
Q 1697 3084 1428 2787 
Q 1159 2491 1159 1978 
L 1159 0 
L 581 0 
L 581 3500 
L 1159 3500 
L 1159 2956 
Q 1366 3272 1645 3428 
Q 1925 3584 2291 3584 
Q 2894 3584 3203 3211 
Q 3513 2838 3513 2113 
z
" transform="scale(0.015625)"/>
       </defs>
       <use xlink:href="#DejaVuSans-44"/>
       <use xlink:href="#DejaVuSans-65" x="77.001953"/>
       <use xlink:href="#DejaVuSans-65" x="138.525391"/>
       <use xlink:href="#DejaVuSans-70" x="200.048828"/>
       <use xlink:href="#DejaVuSans-20" x="263.525391"/>
       <use xlink:href="#DejaVuSans-51" x="295.3125"/>
       <use xlink:href="#DejaVuSans-4c" x="374.023438"/>
       <use xlink:href="#DejaVuSans-65" x="427.986328"/>
       <use xlink:href="#DejaVuSans-61" x="489.509766"/>
       <use xlink:href="#DejaVuSans-72" x="550.789062"/>
       <use xlink:href="#DejaVuSans-6e" x="590.152344"/>
       <use xlink:href="#DejaVuSans-65" x="653.53125"/>
       <use xlink:href="#DejaVuSans-72" x="715.054688"/>
      </g>
     </g>
    </g>
    <g id="xtick_4">
     <g id="line2d_4">
      <g>
       <use xlink:href="#m909f41ef32" x="329.771818" y="337.97" style="stroke: #000000; stroke-width: 0.8"/>
      </g>
     </g>
     <g id="text_4">
      <!-- Adaptive -->
      <g transform="translate(331.979318 380.37875)rotate(-90)scale(0.08 -0.08)">
       <defs>
        <path id="DejaVuSans-41" d="M 2188 4044 
L 1331 1722 
L 3047 1722 
L 2188 4044 
z
M 1831 4666 
L 2547 4666 
L 4325 0 
L 3669 0 
L 3244 1197 
L 1141 1197 
L 716 0 
L 50 0 
L 1831 4666 
z
" transform="scale(0.015625)"/>
        <path id="DejaVuSans-76" d="M 191 3500 
L 800 3500 
L 1894 563 
L 2988 3500 
L 3597 3500 
L 2284 0 
L 1503 0 
L 191 3500 
z
" transform="scale(0.015625)"/>
       </defs>
       <use xlink:href="#DejaVuSans-41"/>
       <use xlink:href="#DejaVuSans-64" x="66.658203"/>
       <use xlink:href="#DejaVuSans-61" x="130.134766"/>
       <use xlink:href="#DejaVuSans-70" x="191.414062"/>
       <use xlink:href="#DejaVuSans-74" x="254.890625"/>
       <use xlink:href="#DejaVuSans-69" x="294.099609"/>
       <use xlink:href="#DejaVuSans-76" x="321.882812"/>
       <use xlink:href="#DejaVuSans-65" x="381.0625"/>
      </g>
     </g>
    </g>
    <g id="xtick_5">
     <g id="line2d_5">
      <g>
       <use xlink:href="#m909f41ef32" x="404.547273" y="337.97" style="stroke: #000000; stroke-width: 0.8"/>
      </g>
     </g>
     <g id="text_5">
      <!-- Alternator -->
      <g transform="translate(406.754773 385.165)rotate(-90)scale(0.08 -0.08)">
       <defs>
        <path id="DejaVuSans-6c" d="M 603 4863 
L 1178 4863 
L 1178 0 
L 603 0 
L 603 4863 
z
" transform="scale(0.015625)"/>
       </defs>
       <use xlink:href="#DejaVuSans-41"/>
       <use xlink:href="#DejaVuSans-6c" x="68.408203"/>
       <use xlink:href="#DejaVuSans-74" x="96.191406"/>
       <use xlink:href="#DejaVuSans-65" x="135.400391"/>
       <use xlink:href="#DejaVuSans-72" x="196.923828"/>
       <use xlink:href="#DejaVuSans-6e" x="236.287109"/>
       <use xlink:href="#DejaVuSans-61" x="299.666016"/>
       <use xlink:href="#DejaVuSans-74" x="360.945312"/>
       <use xlink:href="#DejaVuSans-6f" x="400.154297"/>
       <use xlink:href="#DejaVuSans-72" x="461.335938"/>
      </g>
     </g>
    </g>
    <g id="xtick_6">
     <g id="line2d_6">
      <g>
       <use xlink:href="#m909f41ef32" x="479.322727" y="337.97" style="stroke: #000000; stroke-width: 0.8"/>
      </g>
     </g>
     <g id="text_6">
      <!-- Random: 0.5 -->
      <g transform="translate(481.530227 396.0475)rotate(-90)scale(0.08 -0.08)">
       <defs>
        <path id="DejaVuSans-52" d="M 2841 2188 
Q 3044 2119 3236 1894 
Q 3428 1669 3622 1275 
L 4263 0 
L 3584 0 
L 2988 1197 
Q 2756 1666 2539 1819 
Q 2322 1972 1947 1972 
L 1259 1972 
L 1259 0 
L 628 0 
L 628 4666 
L 2053 4666 
Q 2853 4666 3247 4331 
Q 3641 3997 3641 3322 
Q 3641 2881 3436 2590 
Q 3231 2300 2841 2188 
z
M 1259 4147 
L 1259 2491 
L 2053 2491 
Q 2509 2491 2742 2702 
Q 2975 2913 2975 3322 
Q 2975 3731 2742 3939 
Q 2509 4147 2053 4147 
L 1259 4147 
z
" transform="scale(0.015625)"/>
        <path id="DejaVuSans-6d" d="M 3328 2828 
Q 3544 3216 3844 3400 
Q 4144 3584 4550 3584 
Q 5097 3584 5394 3201 
Q 5691 2819 5691 2113 
L 5691 0 
L 5113 0 
L 5113 2094 
Q 5113 2597 4934 2840 
Q 4756 3084 4391 3084 
Q 3944 3084 3684 2787 
Q 3425 2491 3425 1978 
L 3425 0 
L 2847 0 
L 2847 2094 
Q 2847 2600 2669 2842 
Q 2491 3084 2119 3084 
Q 1678 3084 1418 2786 
Q 1159 2488 1159 1978 
L 1159 0 
L 581 0 
L 581 3500 
L 1159 3500 
L 1159 2956 
Q 1356 3278 1631 3431 
Q 1906 3584 2284 3584 
Q 2666 3584 2933 3390 
Q 3200 3197 3328 2828 
z
" transform="scale(0.015625)"/>
        <path id="DejaVuSans-3a" d="M 750 794 
L 1409 794 
L 1409 0 
L 750 0 
L 750 794 
z
M 750 3309 
L 1409 3309 
L 1409 2516 
L 750 2516 
L 750 3309 
z
" transform="scale(0.015625)"/>
        <path id="DejaVuSans-30" d="M 2034 4250 
Q 1547 4250 1301 3770 
Q 1056 3291 1056 2328 
Q 1056 1369 1301 889 
Q 1547 409 2034 409 
Q 2525 409 2770 889 
Q 3016 1369 3016 2328 
Q 3016 3291 2770 3770 
Q 2525 4250 2034 4250 
z
M 2034 4750 
Q 2819 4750 3233 4129 
Q 3647 3509 3647 2328 
Q 3647 1150 3233 529 
Q 2819 -91 2034 -91 
Q 1250 -91 836 529 
Q 422 1150 422 2328 
Q 422 3509 836 4129 
Q 1250 4750 2034 4750 
z
" transform="scale(0.015625)"/>
        <path id="DejaVuSans-2e" d="M 684 794 
L 1344 794 
L 1344 0 
L 684 0 
L 684 794 
z
" transform="scale(0.015625)"/>
        <path id="DejaVuSans-35" d="M 691 4666 
L 3169 4666 
L 3169 4134 
L 1269 4134 
L 1269 2991 
Q 1406 3038 1543 3061 
Q 1681 3084 1819 3084 
Q 2600 3084 3056 2656 
Q 3513 2228 3513 1497 
Q 3513 744 3044 326 
Q 2575 -91 1722 -91 
Q 1428 -91 1123 -41 
Q 819 9 494 109 
L 494 744 
Q 775 591 1075 516 
Q 1375 441 1709 441 
Q 2250 441 2565 725 
Q 2881 1009 2881 1497 
Q 2881 1984 2565 2268 
Q 2250 2553 1709 2553 
Q 1456 2553 1204 2497 
Q 953 2441 691 2322 
L 691 4666 
z
" transform="scale(0.015625)"/>
       </defs>
       <use xlink:href="#DejaVuSans-52"/>
       <use xlink:href="#DejaVuSans-61" x="67.232422"/>
       <use xlink:href="#DejaVuSans-6e" x="128.511719"/>
       <use xlink:href="#DejaVuSans-64" x="191.890625"/>
       <use xlink:href="#DejaVuSans-6f" x="255.367188"/>
       <use xlink:href="#DejaVuSans-6d" x="316.548828"/>
       <use xlink:href="#DejaVuSans-3a" x="413.960938"/>
       <use xlink:href="#DejaVuSans-20" x="447.652344"/>
       <use xlink:href="#DejaVuSans-30" x="479.439453"/>
       <use xlink:href="#DejaVuSans-2e" x="543.0625"/>
       <use xlink:href="#DejaVuSans-35" x="574.849609"/>
      </g>
     </g>
    </g>
    <g id="xtick_7">
     <g id="line2d_7">
      <g>
       <use xlink:href="#m909f41ef32" x="554.098182" y="337.97" style="stroke: #000000; stroke-width: 0.8"/>
      </g>
     </g>
     <g id="text_7">
      <!-- Defector -->
      <g transform="translate(556.305682 379.51)rotate(-90)scale(0.08 -0.08)">
       <defs>
        <path id="DejaVuSans-66" d="M 2375 4863 
L 2375 4384 
L 1825 4384 
Q 1516 4384 1395 4259 
Q 1275 4134 1275 3809 
L 1275 3500 
L 2222 3500 
L 2222 3053 
L 1275 3053 
L 1275 0 
L 697 0 
L 697 3053 
L 147 3053 
L 147 3500 
L 697 3500 
L 697 3744 
Q 697 4328 969 4595 
Q 1241 4863 1831 4863 
L 2375 4863 
z
" transform="scale(0.015625)"/>
        <path id="DejaVuSans-63" d="M 3122 3366 
L 3122 2828 
Q 2878 2963 2633 3030 
Q 2388 3097 2138 3097 
Q 1578 3097 1268 2742 
Q 959 2388 959 1747 
Q 959 1106 1268 751 
Q 1578 397 2138 397 
Q 2388 397 2633 464 
Q 2878 531 3122 666 
L 3122 134 
Q 2881 22 2623 -34 
Q 2366 -91 2075 -91 
Q 1284 -91 818 406 
Q 353 903 353 1747 
Q 353 2603 823 3093 
Q 1294 3584 2113 3584 
Q 2378 3584 2631 3529 
Q 2884 3475 3122 3366 
z
" transform="scale(0.015625)"/>
       </defs>
       <use xlink:href="#DejaVuSans-44"/>
       <use xlink:href="#DejaVuSans-65" x="77.001953"/>
       <use xlink:href="#DejaVuSans-66" x="138.525391"/>
       <use xlink:href="#DejaVuSans-65" x="173.730469"/>
       <use xlink:href="#DejaVuSans-63" x="235.253906"/>
       <use xlink:href="#DejaVuSans-74" x="290.234375"/>
       <use xlink:href="#DejaVuSans-6f" x="329.443359"/>
       <use xlink:href="#DejaVuSans-72" x="390.625"/>
      </g>
     </g>
    </g>
    <g id="xtick_8">
     <g id="line2d_8">
      <g>
       <use xlink:href="#m909f41ef32" x="628.873636" y="337.97" style="stroke: #000000; stroke-width: 0.8"/>
      </g>
     </g>
     <g id="text_8">
      <!-- Mediocre QLearner -->
      <g transform="translate(631.081136 420.83375)rotate(-90)scale(0.08 -0.08)">
       <defs>
        <path id="DejaVuSans-4d" d="M 628 4666 
L 1569 4666 
L 2759 1491 
L 3956 4666 
L 4897 4666 
L 4897 0 
L 4281 0 
L 4281 4097 
L 3078 897 
L 2444 897 
L 1241 4097 
L 1241 0 
L 628 0 
L 628 4666 
z
" transform="scale(0.015625)"/>
       </defs>
       <use xlink:href="#DejaVuSans-4d"/>
       <use xlink:href="#DejaVuSans-65" x="86.279297"/>
       <use xlink:href="#DejaVuSans-64" x="147.802734"/>
       <use xlink:href="#DejaVuSans-69" x="211.279297"/>
       <use xlink:href="#DejaVuSans-6f" x="239.0625"/>
       <use xlink:href="#DejaVuSans-63" x="300.244141"/>
       <use xlink:href="#DejaVuSans-72" x="355.224609"/>
       <use xlink:href="#DejaVuSans-65" x="394.087891"/>
       <use xlink:href="#DejaVuSans-20" x="455.611328"/>
       <use xlink:href="#DejaVuSans-51" x="487.398438"/>
       <use xlink:href="#DejaVuSans-4c" x="566.109375"/>
       <use xlink:href="#DejaVuSans-65" x="620.072266"/>
       <use xlink:href="#DejaVuSans-61" x="681.595703"/>
       <use xlink:href="#DejaVuSans-72" x="742.875"/>
       <use xlink:href="#DejaVuSans-6e" x="782.238281"/>
       <use xlink:href="#DejaVuSans-65" x="845.617188"/>
       <use xlink:href="#DejaVuSans-72" x="907.140625"/>
      </g>
     </g>
    </g>
    <g id="xtick_9">
     <g id="line2d_9">
      <g>
       <use xlink:href="#m909f41ef32" x="703.649091" y="337.97" style="stroke: #000000; stroke-width: 0.8"/>
      </g>
     </g>
     <g id="text_9">
      <!-- Risky QLearner -->
      <g transform="translate(705.856591 405.40875)rotate(-90)scale(0.08 -0.08)">
       <defs>
        <path id="DejaVuSans-73" d="M 2834 3397 
L 2834 2853 
Q 2591 2978 2328 3040 
Q 2066 3103 1784 3103 
Q 1356 3103 1142 2972 
Q 928 2841 928 2578 
Q 928 2378 1081 2264 
Q 1234 2150 1697 2047 
L 1894 2003 
Q 2506 1872 2764 1633 
Q 3022 1394 3022 966 
Q 3022 478 2636 193 
Q 2250 -91 1575 -91 
Q 1294 -91 989 -36 
Q 684 19 347 128 
L 347 722 
Q 666 556 975 473 
Q 1284 391 1588 391 
Q 1994 391 2212 530 
Q 2431 669 2431 922 
Q 2431 1156 2273 1281 
Q 2116 1406 1581 1522 
L 1381 1569 
Q 847 1681 609 1914 
Q 372 2147 372 2553 
Q 372 3047 722 3315 
Q 1072 3584 1716 3584 
Q 2034 3584 2315 3537 
Q 2597 3491 2834 3397 
z
" transform="scale(0.015625)"/>
        <path id="DejaVuSans-6b" d="M 581 4863 
L 1159 4863 
L 1159 1991 
L 2875 3500 
L 3609 3500 
L 1753 1863 
L 3688 0 
L 2938 0 
L 1159 1709 
L 1159 0 
L 581 0 
L 581 4863 
z
" transform="scale(0.015625)"/>
        <path id="DejaVuSans-79" d="M 2059 -325 
Q 1816 -950 1584 -1140 
Q 1353 -1331 966 -1331 
L 506 -1331 
L 506 -850 
L 844 -850 
Q 1081 -850 1212 -737 
Q 1344 -625 1503 -206 
L 1606 56 
L 191 3500 
L 800 3500 
L 1894 763 
L 2988 3500 
L 3597 3500 
L 2059 -325 
z
" transform="scale(0.015625)"/>
       </defs>
       <use xlink:href="#DejaVuSans-52"/>
       <use xlink:href="#DejaVuSans-69" x="69.482422"/>
       <use xlink:href="#DejaVuSans-73" x="97.265625"/>
       <use xlink:href="#DejaVuSans-6b" x="149.365234"/>
       <use xlink:href="#DejaVuSans-79" x="203.650391"/>
       <use xlink:href="#DejaVuSans-20" x="262.830078"/>
       <use xlink:href="#DejaVuSans-51" x="294.617188"/>
       <use xlink:href="#DejaVuSans-4c" x="373.328125"/>
       <use xlink:href="#DejaVuSans-65" x="427.291016"/>
       <use xlink:href="#DejaVuSans-61" x="488.814453"/>
       <use xlink:href="#DejaVuSans-72" x="550.09375"/>
       <use xlink:href="#DejaVuSans-6e" x="589.457031"/>
       <use xlink:href="#DejaVuSans-65" x="652.835938"/>
       <use xlink:href="#DejaVuSans-72" x="714.359375"/>
      </g>
     </g>
    </g>
    <g id="xtick_10">
     <g id="line2d_10">
      <g>
       <use xlink:href="#m909f41ef32" x="778.424545" y="337.97" style="stroke: #000000; stroke-width: 0.8"/>
      </g>
     </g>
     <g id="text_10">
      <!-- Cooperator -->
      <g transform="translate(780.632045 389.85875)rotate(-90)scale(0.08 -0.08)">
       <defs>
        <path id="DejaVuSans-43" d="M 4122 4306 
L 4122 3641 
Q 3803 3938 3442 4084 
Q 3081 4231 2675 4231 
Q 1875 4231 1450 3742 
Q 1025 3253 1025 2328 
Q 1025 1406 1450 917 
Q 1875 428 2675 428 
Q 3081 428 3442 575 
Q 3803 722 4122 1019 
L 4122 359 
Q 3791 134 3420 21 
Q 3050 -91 2638 -91 
Q 1578 -91 968 557 
Q 359 1206 359 2328 
Q 359 3453 968 4101 
Q 1578 4750 2638 4750 
Q 3056 4750 3426 4639 
Q 3797 4528 4122 4306 
z
" transform="scale(0.015625)"/>
       </defs>
       <use xlink:href="#DejaVuSans-43"/>
       <use xlink:href="#DejaVuSans-6f" x="69.824219"/>
       <use xlink:href="#DejaVuSans-6f" x="131.005859"/>
       <use xlink:href="#DejaVuSans-70" x="192.1875"/>
       <use xlink:href="#DejaVuSans-65" x="255.664062"/>
       <use xlink:href="#DejaVuSans-72" x="317.1875"/>
       <use xlink:href="#DejaVuSans-61" x="358.300781"/>
       <use xlink:href="#DejaVuSans-74" x="419.580078"/>
       <use xlink:href="#DejaVuSans-6f" x="458.789062"/>
       <use xlink:href="#DejaVuSans-72" x="519.970703"/>
      </g>
     </g>
    </g>
   </g>
   <g id="matplotlib.axis_2">
    <g id="ytick_1">
     <g id="line2d_11">
      <defs>
       <path id="md4a5967a41" d="M 0 0 
L -3.5 0 
" style="stroke: #000000; stroke-width: 0.8"/>
      </defs>
      <g>
       <use xlink:href="#md4a5967a41" x="30.67" y="329.126422" style="stroke: #000000; stroke-width: 0.8"/>
      </g>
     </g>
     <g id="text_11">
      <!-- 1.6 -->
      <g transform="translate(10.9475 332.165797)scale(0.08 -0.08)">
       <defs>
        <path id="DejaVuSans-31" d="M 794 531 
L 1825 531 
L 1825 4091 
L 703 3866 
L 703 4441 
L 1819 4666 
L 2450 4666 
L 2450 531 
L 3481 531 
L 3481 0 
L 794 0 
L 794 531 
z
" transform="scale(0.015625)"/>
        <path id="DejaVuSans-36" d="M 2113 2584 
Q 1688 2584 1439 2293 
Q 1191 2003 1191 1497 
Q 1191 994 1439 701 
Q 1688 409 2113 409 
Q 2538 409 2786 701 
Q 3034 994 3034 1497 
Q 3034 2003 2786 2293 
Q 2538 2584 2113 2584 
z
M 3366 4563 
L 3366 3988 
Q 3128 4100 2886 4159 
Q 2644 4219 2406 4219 
Q 1781 4219 1451 3797 
Q 1122 3375 1075 2522 
Q 1259 2794 1537 2939 
Q 1816 3084 2150 3084 
Q 2853 3084 3261 2657 
Q 3669 2231 3669 1497 
Q 3669 778 3244 343 
Q 2819 -91 2113 -91 
Q 1303 -91 875 529 
Q 447 1150 447 2328 
Q 447 3434 972 4092 
Q 1497 4750 2381 4750 
Q 2619 4750 2861 4703 
Q 3103 4656 3366 4563 
z
" transform="scale(0.015625)"/>
       </defs>
       <use xlink:href="#DejaVuSans-31"/>
       <use xlink:href="#DejaVuSans-2e" x="63.623047"/>
       <use xlink:href="#DejaVuSans-36" x="95.410156"/>
      </g>
     </g>
    </g>
    <g id="ytick_2">
     <g id="line2d_12">
      <g>
       <use xlink:href="#md4a5967a41" x="30.67" y="289.399845" style="stroke: #000000; stroke-width: 0.8"/>
      </g>
     </g>
     <g id="text_12">
      <!-- 1.8 -->
      <g transform="translate(10.9475 292.43922)scale(0.08 -0.08)">
       <defs>
        <path id="DejaVuSans-38" d="M 2034 2216 
Q 1584 2216 1326 1975 
Q 1069 1734 1069 1313 
Q 1069 891 1326 650 
Q 1584 409 2034 409 
Q 2484 409 2743 651 
Q 3003 894 3003 1313 
Q 3003 1734 2745 1975 
Q 2488 2216 2034 2216 
z
M 1403 2484 
Q 997 2584 770 2862 
Q 544 3141 544 3541 
Q 544 4100 942 4425 
Q 1341 4750 2034 4750 
Q 2731 4750 3128 4425 
Q 3525 4100 3525 3541 
Q 3525 3141 3298 2862 
Q 3072 2584 2669 2484 
Q 3125 2378 3379 2068 
Q 3634 1759 3634 1313 
Q 3634 634 3220 271 
Q 2806 -91 2034 -91 
Q 1263 -91 848 271 
Q 434 634 434 1313 
Q 434 1759 690 2068 
Q 947 2378 1403 2484 
z
M 1172 3481 
Q 1172 3119 1398 2916 
Q 1625 2713 2034 2713 
Q 2441 2713 2670 2916 
Q 2900 3119 2900 3481 
Q 2900 3844 2670 4047 
Q 2441 4250 2034 4250 
Q 1625 4250 1398 4047 
Q 1172 3844 1172 3481 
z
" transform="scale(0.015625)"/>
       </defs>
       <use xlink:href="#DejaVuSans-31"/>
       <use xlink:href="#DejaVuSans-2e" x="63.623047"/>
       <use xlink:href="#DejaVuSans-38" x="95.410156"/>
      </g>
     </g>
    </g>
    <g id="ytick_3">
     <g id="line2d_13">
      <g>
       <use xlink:href="#md4a5967a41" x="30.67" y="249.673268" style="stroke: #000000; stroke-width: 0.8"/>
      </g>
     </g>
     <g id="text_13">
      <!-- 2.0 -->
      <g transform="translate(10.9475 252.712643)scale(0.08 -0.08)">
       <defs>
        <path id="DejaVuSans-32" d="M 1228 531 
L 3431 531 
L 3431 0 
L 469 0 
L 469 531 
Q 828 903 1448 1529 
Q 2069 2156 2228 2338 
Q 2531 2678 2651 2914 
Q 2772 3150 2772 3378 
Q 2772 3750 2511 3984 
Q 2250 4219 1831 4219 
Q 1534 4219 1204 4116 
Q 875 4013 500 3803 
L 500 4441 
Q 881 4594 1212 4672 
Q 1544 4750 1819 4750 
Q 2544 4750 2975 4387 
Q 3406 4025 3406 3419 
Q 3406 3131 3298 2873 
Q 3191 2616 2906 2266 
Q 2828 2175 2409 1742 
Q 1991 1309 1228 531 
z
" transform="scale(0.015625)"/>
       </defs>
       <use xlink:href="#DejaVuSans-32"/>
       <use xlink:href="#DejaVuSans-2e" x="63.623047"/>
       <use xlink:href="#DejaVuSans-30" x="95.410156"/>
      </g>
     </g>
    </g>
    <g id="ytick_4">
     <g id="line2d_14">
      <g>
       <use xlink:href="#md4a5967a41" x="30.67" y="209.94669" style="stroke: #000000; stroke-width: 0.8"/>
      </g>
     </g>
     <g id="text_14">
      <!-- 2.2 -->
      <g transform="translate(10.9475 212.986065)scale(0.08 -0.08)">
       <use xlink:href="#DejaVuSans-32"/>
       <use xlink:href="#DejaVuSans-2e" x="63.623047"/>
       <use xlink:href="#DejaVuSans-32" x="95.410156"/>
      </g>
     </g>
    </g>
    <g id="ytick_5">
     <g id="line2d_15">
      <g>
       <use xlink:href="#md4a5967a41" x="30.67" y="170.220113" style="stroke: #000000; stroke-width: 0.8"/>
      </g>
     </g>
     <g id="text_15">
      <!-- 2.4 -->
      <g transform="translate(10.9475 173.259488)scale(0.08 -0.08)">
       <defs>
        <path id="DejaVuSans-34" d="M 2419 4116 
L 825 1625 
L 2419 1625 
L 2419 4116 
z
M 2253 4666 
L 3047 4666 
L 3047 1625 
L 3713 1625 
L 3713 1100 
L 3047 1100 
L 3047 0 
L 2419 0 
L 2419 1100 
L 313 1100 
L 313 1709 
L 2253 4666 
z
" transform="scale(0.015625)"/>
       </defs>
       <use xlink:href="#DejaVuSans-32"/>
       <use xlink:href="#DejaVuSans-2e" x="63.623047"/>
       <use xlink:href="#DejaVuSans-34" x="95.410156"/>
      </g>
     </g>
    </g>
    <g id="ytick_6">
     <g id="line2d_16">
      <g>
       <use xlink:href="#md4a5967a41" x="30.67" y="130.493535" style="stroke: #000000; stroke-width: 0.8"/>
      </g>
     </g>
     <g id="text_16">
      <!-- 2.6 -->
      <g transform="translate(10.9475 133.53291)scale(0.08 -0.08)">
       <use xlink:href="#DejaVuSans-32"/>
       <use xlink:href="#DejaVuSans-2e" x="63.623047"/>
       <use xlink:href="#DejaVuSans-36" x="95.410156"/>
      </g>
     </g>
    </g>
    <g id="ytick_7">
     <g id="line2d_17">
      <g>
       <use xlink:href="#md4a5967a41" x="30.67" y="90.766958" style="stroke: #000000; stroke-width: 0.8"/>
      </g>
     </g>
     <g id="text_17">
      <!-- 2.8 -->
      <g transform="translate(10.9475 93.806333)scale(0.08 -0.08)">
       <use xlink:href="#DejaVuSans-32"/>
       <use xlink:href="#DejaVuSans-2e" x="63.623047"/>
       <use xlink:href="#DejaVuSans-38" x="95.410156"/>
      </g>
     </g>
    </g>
    <g id="ytick_8">
     <g id="line2d_18">
      <g>
       <use xlink:href="#md4a5967a41" x="30.67" y="51.04038" style="stroke: #000000; stroke-width: 0.8"/>
      </g>
     </g>
     <g id="text_18">
      <!-- 3.0 -->
      <g transform="translate(10.9475 54.079755)scale(0.08 -0.08)">
       <defs>
        <path id="DejaVuSans-33" d="M 2597 2516 
Q 3050 2419 3304 2112 
Q 3559 1806 3559 1356 
Q 3559 666 3084 287 
Q 2609 -91 1734 -91 
Q 1441 -91 1130 -33 
Q 819 25 488 141 
L 488 750 
Q 750 597 1062 519 
Q 1375 441 1716 441 
Q 2309 441 2620 675 
Q 2931 909 2931 1356 
Q 2931 1769 2642 2001 
Q 2353 2234 1838 2234 
L 1294 2234 
L 1294 2753 
L 1863 2753 
Q 2328 2753 2575 2939 
Q 2822 3125 2822 3475 
Q 2822 3834 2567 4026 
Q 2313 4219 1838 4219 
Q 1578 4219 1281 4162 
Q 984 4106 628 3988 
L 628 4550 
Q 988 4650 1302 4700 
Q 1616 4750 1894 4750 
Q 2613 4750 3031 4423 
Q 3450 4097 3450 3541 
Q 3450 3153 3228 2886 
Q 3006 2619 2597 2516 
z
" transform="scale(0.015625)"/>
       </defs>
       <use xlink:href="#DejaVuSans-33"/>
       <use xlink:href="#DejaVuSans-2e" x="63.623047"/>
       <use xlink:href="#DejaVuSans-30" x="95.410156"/>
      </g>
     </g>
    </g>
   </g>
   <g id="LineCollection_1">
    <path d="M 96.098523 156.448232 
L 114.792386 156.448232 
" clip-path="url(#p2a0c9a57d8)" style="fill: none; stroke: #1f77b4; stroke-width: 1.5"/>
    <path d="M 170.873977 163.908001 
L 189.567841 163.908001 
" clip-path="url(#p2a0c9a57d8)" style="fill: none; stroke: #1f77b4; stroke-width: 1.5"/>
    <path d="M 245.649432 191.164847 
L 264.343295 191.164847 
" clip-path="url(#p2a0c9a57d8)" style="fill: none; stroke: #1f77b4; stroke-width: 1.5"/>
    <path d="M 320.424886 224.38068 
L 339.11875 224.38068 
" clip-path="url(#p2a0c9a57d8)" style="fill: none; stroke: #1f77b4; stroke-width: 1.5"/>
    <path d="M 395.200341 231.774237 
L 413.894205 231.774237 
" clip-path="url(#p2a0c9a57d8)" style="fill: none; stroke: #1f77b4; stroke-width: 1.5"/>
    <path d="M 469.975795 235.437911 
L 488.669659 235.437911 
" clip-path="url(#p2a0c9a57d8)" style="fill: none; stroke: #1f77b4; stroke-width: 1.5"/>
    <path d="M 544.75125 246.142016 
L 563.445114 246.142016 
" clip-path="url(#p2a0c9a57d8)" style="fill: none; stroke: #1f77b4; stroke-width: 1.5"/>
    <path d="M 619.526705 261.282256 
L 638.220568 261.282256 
" clip-path="url(#p2a0c9a57d8)" style="fill: none; stroke: #1f77b4; stroke-width: 1.5"/>
    <path d="M 694.302159 261.414678 
L 712.996023 261.414678 
" clip-path="url(#p2a0c9a57d8)" style="fill: none; stroke: #1f77b4; stroke-width: 1.5"/>
    <path d="M 769.077614 262.120928 
L 787.771477 262.120928 
" clip-path="url(#p2a0c9a57d8)" style="fill: none; stroke: #1f77b4; stroke-width: 1.5"/>
   </g>
   <g id="patch_3">
    <path d="M 30.67 337.97 
L 30.67 26.88 
" style="fill: none; stroke: #000000; stroke-width: 0.8; stroke-linejoin: miter; stroke-linecap: square"/>
   </g>
   <g id="patch_4">
    <path d="M 853.2 337.97 
L 853.2 26.88 
" style="fill: none; stroke: #000000; stroke-width: 0.8; stroke-linejoin: miter; stroke-linecap: square"/>
   </g>
   <g id="patch_5">
    <path d="M 30.67 337.97 
L 853.2 337.97 
" style="fill: none; stroke: #000000; stroke-width: 0.8; stroke-linejoin: miter; stroke-linecap: square"/>
   </g>
   <g id="patch_6">
    <path d="M 30.67 26.88 
L 853.2 26.88 
" style="fill: none; stroke: #000000; stroke-width: 0.8; stroke-linejoin: miter; stroke-linecap: square"/>
   </g>
   <g id="text_19">
    <!-- Payoff - turns: 200, repetitions: 500, strategies: 10.  -->
    <g transform="translate(286.154375 20.88)scale(0.12 -0.12)">
     <defs>
      <path id="DejaVuSans-50" d="M 1259 4147 
L 1259 2394 
L 2053 2394 
Q 2494 2394 2734 2622 
Q 2975 2850 2975 3272 
Q 2975 3691 2734 3919 
Q 2494 4147 2053 4147 
L 1259 4147 
z
M 628 4666 
L 2053 4666 
Q 2838 4666 3239 4311 
Q 3641 3956 3641 3272 
Q 3641 2581 3239 2228 
Q 2838 1875 2053 1875 
L 1259 1875 
L 1259 0 
L 628 0 
L 628 4666 
z
" transform="scale(0.015625)"/>
      <path id="DejaVuSans-2d" d="M 313 2009 
L 1997 2009 
L 1997 1497 
L 313 1497 
L 313 2009 
z
" transform="scale(0.015625)"/>
      <path id="DejaVuSans-2c" d="M 750 794 
L 1409 794 
L 1409 256 
L 897 -744 
L 494 -744 
L 750 256 
L 750 794 
z
" transform="scale(0.015625)"/>
     </defs>
     <use xlink:href="#DejaVuSans-50"/>
     <use xlink:href="#DejaVuSans-61" x="55.802734"/>
     <use xlink:href="#DejaVuSans-79" x="117.082031"/>
     <use xlink:href="#DejaVuSans-6f" x="176.261719"/>
     <use xlink:href="#DejaVuSans-66" x="237.443359"/>
     <use xlink:href="#DejaVuSans-66" x="272.648438"/>
     <use xlink:href="#DejaVuSans-20" x="307.853516"/>
     <use xlink:href="#DejaVuSans-2d" x="339.640625"/>
     <use xlink:href="#DejaVuSans-20" x="375.724609"/>
     <use xlink:href="#DejaVuSans-74" x="407.511719"/>
     <use xlink:href="#DejaVuSans-75" x="446.720703"/>
     <use xlink:href="#DejaVuSans-72" x="510.099609"/>
     <use xlink:href="#DejaVuSans-6e" x="549.462891"/>
     <use xlink:href="#DejaVuSans-73" x="612.841797"/>
     <use xlink:href="#DejaVuSans-3a" x="664.941406"/>
     <use xlink:href="#DejaVuSans-20" x="698.632812"/>
     <use xlink:href="#DejaVuSans-32" x="730.419922"/>
     <use xlink:href="#DejaVuSans-30" x="794.042969"/>
     <use xlink:href="#DejaVuSans-30" x="857.666016"/>
     <use xlink:href="#DejaVuSans-2c" x="921.289062"/>
     <use xlink:href="#DejaVuSans-20" x="953.076172"/>
     <use xlink:href="#DejaVuSans-72" x="984.863281"/>
     <use xlink:href="#DejaVuSans-65" x="1023.726562"/>
     <use xlink:href="#DejaVuSans-70" x="1085.25"/>
     <use xlink:href="#DejaVuSans-65" x="1148.726562"/>
     <use xlink:href="#DejaVuSans-74" x="1210.25"/>
     <use xlink:href="#DejaVuSans-69" x="1249.458984"/>
     <use xlink:href="#DejaVuSans-74" x="1277.242188"/>
     <use xlink:href="#DejaVuSans-69" x="1316.451172"/>
     <use xlink:href="#DejaVuSans-6f" x="1344.234375"/>
     <use xlink:href="#DejaVuSans-6e" x="1405.416016"/>
     <use xlink:href="#DejaVuSans-73" x="1468.794922"/>
     <use xlink:href="#DejaVuSans-3a" x="1520.894531"/>
     <use xlink:href="#DejaVuSans-20" x="1554.585938"/>
     <use xlink:href="#DejaVuSans-35" x="1586.373047"/>
     <use xlink:href="#DejaVuSans-30" x="1649.996094"/>
     <use xlink:href="#DejaVuSans-30" x="1713.619141"/>
     <use xlink:href="#DejaVuSans-2c" x="1777.242188"/>
     <use xlink:href="#DejaVuSans-20" x="1809.029297"/>
     <use xlink:href="#DejaVuSans-73" x="1840.816406"/>
     <use xlink:href="#DejaVuSans-74" x="1892.916016"/>
     <use xlink:href="#DejaVuSans-72" x="1932.125"/>
     <use xlink:href="#DejaVuSans-61" x="1973.238281"/>
     <use xlink:href="#DejaVuSans-74" x="2034.517578"/>
     <use xlink:href="#DejaVuSans-65" x="2073.726562"/>
     <use xlink:href="#DejaVuSans-67" x="2135.25"/>
     <use xlink:href="#DejaVuSans-69" x="2198.726562"/>
     <use xlink:href="#DejaVuSans-65" x="2226.509766"/>
     <use xlink:href="#DejaVuSans-73" x="2288.033203"/>
     <use xlink:href="#DejaVuSans-3a" x="2340.132812"/>
     <use xlink:href="#DejaVuSans-20" x="2373.824219"/>
     <use xlink:href="#DejaVuSans-31" x="2405.611328"/>
     <use xlink:href="#DejaVuSans-30" x="2469.234375"/>
     <use xlink:href="#DejaVuSans-2e" x="2532.857422"/>
     <use xlink:href="#DejaVuSans-20" x="2564.644531"/>
    </g>
   </g>
  </g>
 </g>
 <defs>
  <clipPath id="p2a0c9a57d8">
   <rect x="30.67" y="26.88" width="822.53" height="311.09"/>
  </clipPath>
 </defs>
</svg>
