<?xml version="1.0" encoding="utf-8" standalone="no"?>
<!DOCTYPE svg PUBLIC "-//W3C//DTD SVG 1.1//EN"
  "http://www.w3.org/Graphics/SVG/1.1/DTD/svg11.dtd">
<svg xmlns:xlink="http://www.w3.org/1999/xlink" width="864pt" height="432pt" viewBox="0 0 864 432" xmlns="http://www.w3.org/2000/svg" version="1.1">
 <metadata>
  <rdf:RDF xmlns:dc="http://purl.org/dc/elements/1.1/" xmlns:cc="http://creativecommons.org/ns#" xmlns:rdf="http://www.w3.org/1999/02/22-rdf-syntax-ns#">
   <cc:Work>
    <dc:type rdf:resource="http://purl.org/dc/dcmitype/StillImage"/>
    <dc:date>2022-09-25T00:27:32.623101</dc:date>
    <dc:format>image/svg+xml</dc:format>
    <dc:creator>
     <cc:Agent>
      <dc:title>Matplotlib v3.5.1, https://matplotlib.org/</dc:title>
     </cc:Agent>
    </dc:creator>
   </cc:Work>
  </rdf:RDF>
 </metadata>
 <defs>
  <style type="text/css">*{stroke-linejoin: round; stroke-linecap: butt}</style>
 </defs>
 <g id="figure_1">
  <g id="patch_1">
   <path d="M 0 432 
L 864 432 
L 864 0 
L 0 0 
z
" style="fill: #ffffff"/>
  </g>
  <g id="axes_1">
   <g id="patch_2">
    <path d="M 35.71 337.97 
L 853.2 337.97 
L 853.2 26.88 
L 35.71 26.88 
z
" style="fill: #ffffff"/>
   </g>
   <g id="PolyCollection_1">
    <path d="M 118.391743 154.833869 
L 101.662803 154.833869 
L 101.398215 153.684239 
L 101.135283 152.534608 
L 100.873562 151.384978 
L 100.612521 150.235347 
L 100.351557 149.085717 
L 100.090014 147.936086 
L 99.827208 146.786456 
L 99.562444 145.636826 
L 99.295049 144.487195 
L 99.024387 143.337565 
L 98.749892 142.187934 
L 98.471084 141.038304 
L 98.187597 139.888673 
L 97.899199 138.739043 
L 97.605806 137.589412 
L 97.307499 136.439782 
L 97.004534 135.290152 
L 96.697353 134.140521 
L 96.386583 132.990891 
L 96.073038 131.84126 
L 95.757713 130.69163 
L 95.441777 129.541999 
L 95.126556 128.392369 
L 94.813523 127.242738 
L 94.504274 126.093108 
L 94.200504 124.943477 
L 93.903988 123.793847 
L 93.616548 122.644217 
L 93.340029 121.494586 
L 93.076271 120.344956 
L 92.827073 119.195325 
L 92.594175 118.045695 
L 92.379221 116.896064 
L 92.183738 115.746434 
L 92.00911 114.596803 
L 91.856557 113.447173 
L 91.727112 112.297542 
L 91.621608 111.147912 
L 91.540664 109.998282 
L 91.484673 108.848651 
L 91.453795 107.699021 
L 91.447955 106.54939 
L 91.46684 105.39976 
L 91.509905 104.250129 
L 91.576379 103.100499 
L 91.66527 101.950868 
L 91.775382 100.801238 
L 91.905329 99.651608 
L 92.053551 98.501977 
L 92.218334 97.352347 
L 92.397835 96.202716 
L 92.5901 95.053086 
L 92.793094 93.903455 
L 93.004726 92.753825 
L 93.222874 91.604194 
L 93.445419 90.454564 
L 93.670264 89.304933 
L 93.89537 88.155303 
L 94.11878 87.005673 
L 94.338646 85.856042 
L 94.553254 84.706412 
L 94.761051 83.556781 
L 94.960662 82.407151 
L 95.150913 81.25752 
L 95.330847 80.10789 
L 95.499739 78.958259 
L 95.657105 77.808629 
L 95.802707 76.658999 
L 95.936561 75.509368 
L 96.058934 74.359738 
L 96.17034 73.210107 
L 96.271527 72.060477 
L 96.363472 70.910846 
L 96.447358 69.761216 
L 96.524558 68.611585 
L 96.596609 67.461955 
L 96.665188 66.312324 
L 96.732082 65.162694 
L 96.799157 64.013064 
L 96.868326 62.863433 
L 96.941518 61.713803 
L 97.020642 60.564172 
L 97.107555 59.414542 
L 97.20403 58.264911 
L 97.311726 57.115281 
L 97.432161 55.96565 
L 97.566681 54.81602 
L 97.716446 53.66639 
L 97.882403 52.516759 
L 98.065277 51.367129 
L 98.265555 50.217498 
L 98.483486 49.067868 
L 98.719069 47.918237 
L 98.972067 46.768607 
L 99.242 45.618976 
L 99.528168 44.469346 
L 99.829654 43.319715 
L 100.145347 42.170085 
L 100.47396 41.020455 
L 119.580585 41.020455 
L 119.580585 41.020455 
L 119.909198 42.170085 
L 120.224891 43.319715 
L 120.526377 44.469346 
L 120.812545 45.618976 
L 121.082479 46.768607 
L 121.335476 47.918237 
L 121.57106 49.067868 
L 121.78899 50.217498 
L 121.989269 51.367129 
L 122.172142 52.516759 
L 122.338099 53.66639 
L 122.487864 54.81602 
L 122.622385 55.96565 
L 122.742819 57.115281 
L 122.850516 58.264911 
L 122.946991 59.414542 
L 123.033904 60.564172 
L 123.113027 61.713803 
L 123.186219 62.863433 
L 123.255389 64.013064 
L 123.322463 65.162694 
L 123.389357 66.312324 
L 123.457936 67.461955 
L 123.529987 68.611585 
L 123.607187 69.761216 
L 123.691073 70.910846 
L 123.783018 72.060477 
L 123.884206 73.210107 
L 123.995611 74.359738 
L 124.117984 75.509368 
L 124.251839 76.658999 
L 124.397441 77.808629 
L 124.554806 78.958259 
L 124.723698 80.10789 
L 124.903633 81.25752 
L 125.093884 82.407151 
L 125.293495 83.556781 
L 125.501291 84.706412 
L 125.7159 85.856042 
L 125.935766 87.005673 
L 126.159176 88.155303 
L 126.384282 89.304933 
L 126.609127 90.454564 
L 126.831671 91.604194 
L 127.04982 92.753825 
L 127.261452 93.903455 
L 127.464446 95.053086 
L 127.656711 96.202716 
L 127.836211 97.352347 
L 128.000995 98.501977 
L 128.149217 99.651608 
L 128.279164 100.801238 
L 128.389276 101.950868 
L 128.478167 103.100499 
L 128.54464 104.250129 
L 128.587706 105.39976 
L 128.606591 106.54939 
L 128.600751 107.699021 
L 128.569873 108.848651 
L 128.513881 109.998282 
L 128.432938 111.147912 
L 128.327434 112.297542 
L 128.197989 113.447173 
L 128.045435 114.596803 
L 127.870807 115.746434 
L 127.675324 116.896064 
L 127.46037 118.045695 
L 127.227472 119.195325 
L 126.978275 120.344956 
L 126.714516 121.494586 
L 126.437998 122.644217 
L 126.150558 123.793847 
L 125.854041 124.943477 
L 125.550272 126.093108 
L 125.241022 127.242738 
L 124.927989 128.392369 
L 124.612769 129.541999 
L 124.296832 130.69163 
L 123.981508 131.84126 
L 123.667962 132.990891 
L 123.357193 134.140521 
L 123.050011 135.290152 
L 122.747047 136.439782 
L 122.448739 137.589412 
L 122.155346 138.739043 
L 121.866948 139.888673 
L 121.583462 141.038304 
L 121.304654 142.187934 
L 121.030158 143.337565 
L 120.759496 144.487195 
L 120.492101 145.636826 
L 120.227338 146.786456 
L 119.964531 147.936086 
L 119.702988 149.085717 
L 119.442024 150.235347 
L 119.180983 151.384978 
L 118.919262 152.534608 
L 118.65633 153.684239 
L 118.391743 154.833869 
z
" clip-path="url(#p613908326f)" style="fill: #1f77b4; fill-opacity: 0.3"/>
   </g>
   <g id="PolyCollection_2">
    <path d="M 196.813495 182.425 
L 171.875596 182.425 
L 171.415748 181.545359 
L 170.964613 180.665717 
L 170.52409 179.786076 
L 170.096066 178.906434 
L 169.682395 178.026793 
L 169.284886 177.147151 
L 168.905292 176.26751 
L 168.545287 175.387868 
L 168.20646 174.508227 
L 167.890292 173.628585 
L 167.598153 172.748944 
L 167.331279 171.869302 
L 167.090766 170.989661 
L 166.877557 170.110019 
L 166.692434 169.230378 
L 166.536003 168.350736 
L 166.408695 167.471095 
L 166.310753 166.591453 
L 166.242227 165.711812 
L 166.202975 164.83217 
L 166.192657 163.952529 
L 166.210735 163.072887 
L 166.256475 162.193246 
L 166.328947 161.313604 
L 166.427034 160.433963 
L 166.549434 159.554321 
L 166.694667 158.67468 
L 166.861086 157.795039 
L 167.046888 156.915397 
L 167.250124 156.035756 
L 167.468716 155.156114 
L 167.700466 154.276473 
L 167.943078 153.396831 
L 168.194175 152.51719 
L 168.451312 151.637548 
L 168.712002 150.757907 
L 168.973733 149.878265 
L 169.233989 148.998624 
L 169.490268 148.118982 
L 169.74011 147.239341 
L 169.981114 146.359699 
L 170.210958 145.480058 
L 170.427422 144.600416 
L 170.628406 143.720775 
L 170.811954 142.841133 
L 170.976265 141.961492 
L 171.119714 141.08185 
L 171.240868 140.202209 
L 171.338497 139.322567 
L 171.411588 138.442926 
L 171.459357 137.563284 
L 171.48125 136.683643 
L 171.476957 135.804001 
L 171.446412 134.92436 
L 171.389794 134.044719 
L 171.307528 133.165077 
L 171.200279 132.285436 
L 171.068951 131.405794 
L 170.914674 130.526153 
L 170.738802 129.646511 
L 170.542893 128.76687 
L 170.328701 127.887228 
L 170.09816 127.007587 
L 169.853365 126.127945 
L 169.596556 125.248304 
L 169.3301 124.368662 
L 169.056466 123.489021 
L 168.778207 122.609379 
L 168.497939 121.729738 
L 168.218316 120.850096 
L 167.94201 119.970455 
L 167.671686 119.090813 
L 167.409984 118.211172 
L 167.15949 117.33153 
L 166.922724 116.451889 
L 166.702111 115.572247 
L 166.499965 114.692606 
L 166.318474 113.812964 
L 166.159673 112.933323 
L 166.02544 112.053681 
L 165.917473 111.17404 
L 165.837279 110.294399 
L 165.786165 109.414757 
L 165.765227 108.535116 
L 165.775345 107.655474 
L 165.817172 106.775833 
L 165.891137 105.896191 
L 165.997441 105.01655 
L 166.136054 104.136908 
L 166.306724 103.257267 
L 166.508977 102.377625 
L 166.742124 101.497984 
L 167.005272 100.618342 
L 167.297331 99.738701 
L 167.617025 98.859059 
L 167.962911 97.979418 
L 168.333386 97.099776 
L 168.72671 96.220135 
L 169.141018 95.340493 
L 199.548072 95.340493 
L 199.548072 95.340493 
L 199.962381 96.220135 
L 200.355705 97.099776 
L 200.72618 97.979418 
L 201.072066 98.859059 
L 201.39176 99.738701 
L 201.683819 100.618342 
L 201.946967 101.497984 
L 202.180114 102.377625 
L 202.382367 103.257267 
L 202.553037 104.136908 
L 202.69165 105.01655 
L 202.797954 105.896191 
L 202.871919 106.775833 
L 202.913746 107.655474 
L 202.923864 108.535116 
L 202.902926 109.414757 
L 202.851812 110.294399 
L 202.771618 111.17404 
L 202.66365 112.053681 
L 202.529418 112.933323 
L 202.370617 113.812964 
L 202.189126 114.692606 
L 201.98698 115.572247 
L 201.766367 116.451889 
L 201.529601 117.33153 
L 201.279107 118.211172 
L 201.017405 119.090813 
L 200.747081 119.970455 
L 200.470775 120.850096 
L 200.191152 121.729738 
L 199.910884 122.609379 
L 199.632625 123.489021 
L 199.358991 124.368662 
L 199.092534 125.248304 
L 198.835726 126.127945 
L 198.590931 127.007587 
L 198.36039 127.887228 
L 198.146198 128.76687 
L 197.950289 129.646511 
L 197.774416 130.526153 
L 197.62014 131.405794 
L 197.488812 132.285436 
L 197.381563 133.165077 
L 197.299296 134.044719 
L 197.242679 134.92436 
L 197.212134 135.804001 
L 197.207841 136.683643 
L 197.229734 137.563284 
L 197.277502 138.442926 
L 197.350594 139.322567 
L 197.448223 140.202209 
L 197.569377 141.08185 
L 197.712826 141.961492 
L 197.877137 142.841133 
L 198.060684 143.720775 
L 198.261669 144.600416 
L 198.478133 145.480058 
L 198.707977 146.359699 
L 198.94898 147.239341 
L 199.198823 148.118982 
L 199.455102 148.998624 
L 199.715357 149.878265 
L 199.977089 150.757907 
L 200.237779 151.637548 
L 200.494916 152.51719 
L 200.746013 153.396831 
L 200.988625 154.276473 
L 201.220375 155.156114 
L 201.438966 156.035756 
L 201.642203 156.915397 
L 201.828005 157.795039 
L 201.994424 158.67468 
L 202.139657 159.554321 
L 202.262057 160.433963 
L 202.360144 161.313604 
L 202.432616 162.193246 
L 202.478356 163.072887 
L 202.496434 163.952529 
L 202.486116 164.83217 
L 202.446864 165.711812 
L 202.378338 166.591453 
L 202.280396 167.471095 
L 202.153088 168.350736 
L 201.996657 169.230378 
L 201.811534 170.110019 
L 201.598325 170.989661 
L 201.357812 171.869302 
L 201.090938 172.748944 
L 200.798799 173.628585 
L 200.482631 174.508227 
L 200.143804 175.387868 
L 199.783799 176.26751 
L 199.404204 177.147151 
L 199.006696 178.026793 
L 198.593025 178.906434 
L 198.165 179.786076 
L 197.724478 180.665717 
L 197.273343 181.545359 
L 196.813495 182.425 
z
" clip-path="url(#p613908326f)" style="fill: #1f77b4; fill-opacity: 0.3"/>
   </g>
   <g id="PolyCollection_3">
    <path d="M 266.999603 171.216103 
L 250.324033 171.216103 
L 249.838739 170.35388 
L 249.348099 169.491657 
L 248.853619 168.629435 
L 248.356842 167.767212 
L 247.859348 166.904989 
L 247.362754 166.042766 
L 246.868713 165.180543 
L 246.378908 164.31832 
L 245.895059 163.456098 
L 245.418914 162.593875 
L 244.952251 161.731652 
L 244.496871 160.869429 
L 244.054593 160.007206 
L 243.627243 159.144983 
L 243.216642 158.282761 
L 242.824597 157.420538 
L 242.452876 156.558315 
L 242.103197 155.696092 
L 241.777199 154.833869 
L 241.476428 153.971646 
L 241.202306 153.109424 
L 240.956114 152.247201 
L 240.738965 151.384978 
L 240.551787 150.522755 
L 240.395301 149.660532 
L 240.270009 148.798309 
L 240.176178 147.936086 
L 240.113834 147.073864 
L 240.082762 146.211641 
L 240.0825 145.349418 
L 240.11235 144.487195 
L 240.171387 143.624972 
L 240.258473 142.762749 
L 240.372275 141.900527 
L 240.511288 141.038304 
L 240.673858 140.176081 
L 240.85821 139.313858 
L 241.062475 138.451635 
L 241.284718 137.589412 
L 241.52297 136.72719 
L 241.775254 135.864967 
L 242.039614 135.002744 
L 242.314141 134.140521 
L 242.596997 133.278298 
L 242.886441 132.416075 
L 243.18084 131.553853 
L 243.478696 130.69163 
L 243.778652 129.829407 
L 244.079508 128.967184 
L 244.380225 128.104961 
L 244.679928 127.242738 
L 244.97791 126.380516 
L 245.273627 125.518293 
L 245.566688 124.65607 
L 245.856853 123.793847 
L 246.144011 122.931624 
L 246.428172 122.069401 
L 246.709445 121.207178 
L 246.988021 120.344956 
L 247.264149 119.482733 
L 247.538117 118.62051 
L 247.810229 117.758287 
L 248.080783 116.896064 
L 248.350051 116.033841 
L 248.618262 115.171619 
L 248.885587 114.309396 
L 249.152122 113.447173 
L 249.41788 112.58495 
L 249.68279 111.722727 
L 249.946687 110.860504 
L 250.209319 109.998282 
L 250.47035 109.136059 
L 250.729371 108.273836 
L 250.985909 107.411613 
L 251.239444 106.54939 
L 251.489427 105.687167 
L 251.735291 104.824945 
L 251.976477 103.962722 
L 252.212452 103.100499 
L 252.442719 102.238276 
L 252.666844 101.376053 
L 252.884462 100.51383 
L 253.095293 99.651608 
L 253.299151 98.789385 
L 253.495948 97.927162 
L 253.685697 97.064939 
L 253.868511 96.202716 
L 254.044598 95.340493 
L 254.214257 94.478271 
L 254.37786 93.616048 
L 254.535849 92.753825 
L 254.688713 91.891602 
L 254.836977 91.029379 
L 254.981183 90.167156 
L 255.121872 89.304933 
L 255.259569 88.442711 
L 255.394769 87.580488 
L 255.527916 86.718265 
L 255.659399 85.856042 
L 261.664238 85.856042 
L 261.664238 85.856042 
L 261.79572 86.718265 
L 261.928868 87.580488 
L 262.064067 88.442711 
L 262.201765 89.304933 
L 262.342454 90.167156 
L 262.486659 91.029379 
L 262.634923 91.891602 
L 262.787787 92.753825 
L 262.945776 93.616048 
L 263.10938 94.478271 
L 263.279038 95.340493 
L 263.455125 96.202716 
L 263.637939 97.064939 
L 263.827688 97.927162 
L 264.024485 98.789385 
L 264.228343 99.651608 
L 264.439175 100.51383 
L 264.656793 101.376053 
L 264.880917 102.238276 
L 265.111185 103.100499 
L 265.347159 103.962722 
L 265.588346 104.824945 
L 265.83421 105.687167 
L 266.084192 106.54939 
L 266.337728 107.411613 
L 266.594266 108.273836 
L 266.853286 109.136059 
L 267.114317 109.998282 
L 267.376949 110.860504 
L 267.640846 111.722727 
L 267.905756 112.58495 
L 268.171515 113.447173 
L 268.438049 114.309396 
L 268.705374 115.171619 
L 268.973586 116.033841 
L 269.242854 116.896064 
L 269.513407 117.758287 
L 269.785519 118.62051 
L 270.059487 119.482733 
L 270.335616 120.344956 
L 270.614191 121.207178 
L 270.895465 122.069401 
L 271.179626 122.931624 
L 271.466784 123.793847 
L 271.756948 124.65607 
L 272.05001 125.518293 
L 272.345726 126.380516 
L 272.643708 127.242738 
L 272.943412 128.104961 
L 273.244128 128.967184 
L 273.544984 129.829407 
L 273.844941 130.69163 
L 274.142797 131.553853 
L 274.437196 132.416075 
L 274.726639 133.278298 
L 275.009496 134.140521 
L 275.284023 135.002744 
L 275.548383 135.864967 
L 275.800667 136.72719 
L 276.038919 137.589412 
L 276.261162 138.451635 
L 276.465426 139.313858 
L 276.649778 140.176081 
L 276.812348 141.038304 
L 276.951361 141.900527 
L 277.065163 142.762749 
L 277.152249 143.624972 
L 277.211286 144.487195 
L 277.241136 145.349418 
L 277.240874 146.211641 
L 277.209802 147.073864 
L 277.147459 147.936086 
L 277.053628 148.798309 
L 276.928335 149.660532 
L 276.771849 150.522755 
L 276.584671 151.384978 
L 276.367522 152.247201 
L 276.12133 153.109424 
L 275.847208 153.971646 
L 275.546437 154.833869 
L 275.220439 155.696092 
L 274.87076 156.558315 
L 274.499039 157.420538 
L 274.106994 158.282761 
L 273.696394 159.144983 
L 273.269043 160.007206 
L 272.826765 160.869429 
L 272.371385 161.731652 
L 271.904722 162.593875 
L 271.428577 163.456098 
L 270.944728 164.31832 
L 270.454924 165.180543 
L 269.960882 166.042766 
L 269.464289 166.904989 
L 268.966795 167.767212 
L 268.470017 168.629435 
L 267.975537 169.491657 
L 267.484898 170.35388 
L 266.999603 171.216103 
z
" clip-path="url(#p613908326f)" style="fill: #1f77b4; fill-opacity: 0.3"/>
   </g>
   <g id="PolyCollection_4">
    <path d="M 341.011181 245.367267 
L 324.947001 245.367267 
L 324.643163 244.461498 
L 324.344617 243.555728 
L 324.052362 242.649959 
L 323.767354 241.744189 
L 323.490495 240.83842 
L 323.222627 239.932651 
L 322.96452 239.026881 
L 322.716868 238.121112 
L 322.480279 237.215342 
L 322.255264 236.309573 
L 322.042238 235.403803 
L 321.841506 234.498034 
L 321.65326 233.592264 
L 321.477573 232.686495 
L 321.314396 231.780725 
L 321.163553 230.874956 
L 321.024738 229.969187 
L 320.897516 229.063417 
L 320.781322 228.157648 
L 320.675464 227.251878 
L 320.579126 226.346109 
L 320.491374 225.440339 
L 320.411164 224.53457 
L 320.337352 223.6288 
L 320.268706 222.723031 
L 320.203918 221.817262 
L 320.141624 220.911492 
L 320.080421 220.005723 
L 320.018882 219.099953 
L 319.955584 218.194184 
L 319.889125 217.288414 
L 319.81815 216.382645 
L 319.741371 215.476875 
L 319.657593 214.571106 
L 319.565737 213.665337 
L 319.464856 212.759567 
L 319.35416 211.853798 
L 319.233032 210.948028 
L 319.101041 210.042259 
L 318.957954 209.136489 
L 318.803749 208.23072 
L 318.638613 207.32495 
L 318.462945 206.419181 
L 318.277357 205.513412 
L 318.082661 204.607642 
L 317.879861 203.701873 
L 317.670137 202.796103 
L 317.454829 201.890334 
L 317.235413 200.984564 
L 317.013478 200.078795 
L 316.790701 199.173025 
L 316.568819 198.267256 
L 316.349602 197.361487 
L 316.134822 196.455717 
L 315.92623 195.549948 
L 315.725526 194.644178 
L 315.534336 193.738409 
L 315.35419 192.832639 
L 315.186501 191.92687 
L 315.032551 191.0211 
L 314.893481 190.115331 
L 314.770275 189.209562 
L 314.663761 188.303792 
L 314.574612 187.398023 
L 314.503342 186.492253 
L 314.450315 185.586484 
L 314.41576 184.680714 
L 314.399773 183.774945 
L 314.402338 182.869175 
L 314.423343 181.963406 
L 314.462592 181.057637 
L 314.519827 180.151867 
L 314.594744 179.246098 
L 314.687008 178.340328 
L 314.796271 177.434559 
L 314.922183 176.528789 
L 315.064405 175.62302 
L 315.222618 174.71725 
L 315.396531 173.811481 
L 315.58588 172.905711 
L 315.790434 171.999942 
L 316.009991 171.094173 
L 316.244373 170.188403 
L 316.49342 169.282634 
L 316.756978 168.376864 
L 317.034895 167.471095 
L 317.327002 166.565325 
L 317.633102 165.659556 
L 317.952959 164.753786 
L 318.286284 163.848017 
L 318.632722 162.942248 
L 318.99184 162.036478 
L 319.363121 161.130709 
L 319.74595 160.224939 
L 320.139615 159.31917 
L 320.543299 158.4134 
L 320.956081 157.507631 
L 321.376939 156.601861 
L 321.804752 155.696092 
L 344.15343 155.696092 
L 344.15343 155.696092 
L 344.581243 156.601861 
L 345.002101 157.507631 
L 345.414883 158.4134 
L 345.818567 159.31917 
L 346.212232 160.224939 
L 346.595061 161.130709 
L 346.966341 162.036478 
L 347.32546 162.942248 
L 347.671898 163.848017 
L 348.005223 164.753786 
L 348.32508 165.659556 
L 348.63118 166.565325 
L 348.923286 167.471095 
L 349.201203 168.376864 
L 349.464762 169.282634 
L 349.713809 170.188403 
L 349.948191 171.094173 
L 350.167748 171.999942 
L 350.372302 172.905711 
L 350.561651 173.811481 
L 350.735564 174.71725 
L 350.893777 175.62302 
L 351.035999 176.528789 
L 351.161911 177.434559 
L 351.271173 178.340328 
L 351.363438 179.246098 
L 351.438355 180.151867 
L 351.49559 181.057637 
L 351.534839 181.963406 
L 351.555844 182.869175 
L 351.558409 183.774945 
L 351.542422 184.680714 
L 351.507866 185.586484 
L 351.45484 186.492253 
L 351.38357 187.398023 
L 351.29442 188.303792 
L 351.187907 189.209562 
L 351.064701 190.115331 
L 350.92563 191.0211 
L 350.771681 191.92687 
L 350.603992 192.832639 
L 350.423846 193.738409 
L 350.232655 194.644178 
L 350.031952 195.549948 
L 349.82336 196.455717 
L 349.60858 197.361487 
L 349.389363 198.267256 
L 349.167481 199.173025 
L 348.944704 200.078795 
L 348.722769 200.984564 
L 348.503353 201.890334 
L 348.288045 202.796103 
L 348.078321 203.701873 
L 347.875521 204.607642 
L 347.680825 205.513412 
L 347.495236 206.419181 
L 347.319569 207.32495 
L 347.154432 208.23072 
L 347.000227 209.136489 
L 346.857141 210.042259 
L 346.72515 210.948028 
L 346.604022 211.853798 
L 346.493326 212.759567 
L 346.392445 213.665337 
L 346.300589 214.571106 
L 346.216811 215.476875 
L 346.140032 216.382645 
L 346.069057 217.288414 
L 346.002598 218.194184 
L 345.9393 219.099953 
L 345.877761 220.005723 
L 345.816557 220.911492 
L 345.754264 221.817262 
L 345.689476 222.723031 
L 345.62083 223.6288 
L 345.547017 224.53457 
L 345.466808 225.440339 
L 345.379056 226.346109 
L 345.282718 227.251878 
L 345.17686 228.157648 
L 345.060666 229.063417 
L 344.933444 229.969187 
L 344.794629 230.874956 
L 344.643786 231.780725 
L 344.480609 232.686495 
L 344.304922 233.592264 
L 344.116676 234.498034 
L 343.915943 235.403803 
L 343.702917 236.309573 
L 343.477903 237.215342 
L 343.241313 238.121112 
L 342.993662 239.026881 
L 342.735555 239.932651 
L 342.467687 240.83842 
L 342.190828 241.744189 
L 341.90582 242.649959 
L 341.613565 243.555728 
L 341.315019 244.461498 
L 341.011181 245.367267 
z
" clip-path="url(#p613908326f)" style="fill: #1f77b4; fill-opacity: 0.3"/>
   </g>
   <g id="PolyCollection_5">
    <path d="M 422.137286 215.189468 
L 392.455441 215.189468 
L 392.028692 214.719164 
L 391.619782 214.248861 
L 391.230752 213.778558 
L 390.863574 213.308254 
L 390.520141 212.837951 
L 390.202243 212.367648 
L 389.911557 211.897344 
L 389.649626 211.427041 
L 389.417848 210.956738 
L 389.21746 210.486434 
L 389.049528 210.016131 
L 388.914933 209.545827 
L 388.814365 209.075524 
L 388.748309 208.605221 
L 388.717045 208.134917 
L 388.720643 207.664614 
L 388.758956 207.194311 
L 388.831621 206.724007 
L 388.938063 206.253704 
L 389.077496 205.783401 
L 389.248927 205.313097 
L 389.451164 204.842794 
L 389.682822 204.37249 
L 389.942339 203.902187 
L 390.227979 203.431884 
L 390.537852 202.96158 
L 390.869925 202.491277 
L 391.222035 202.020974 
L 391.591911 201.55067 
L 391.977183 201.080367 
L 392.375407 200.610063 
L 392.784076 200.13976 
L 393.200644 199.669457 
L 393.622539 199.199153 
L 394.047182 198.72885 
L 394.472008 198.258547 
L 394.894478 197.788243 
L 395.312099 197.31794 
L 395.722442 196.847637 
L 396.12315 196.377333 
L 396.511962 195.90703 
L 396.886719 195.436726 
L 397.245381 194.966423 
L 397.586036 194.49612 
L 397.906915 194.025816 
L 398.206394 193.555513 
L 398.483011 193.08521 
L 398.735469 192.614906 
L 398.962641 192.144603 
L 399.16358 191.6743 
L 399.337517 191.203996 
L 399.483872 190.733693 
L 399.602248 190.263389 
L 399.692439 189.793086 
L 399.754424 189.322783 
L 399.788371 188.852479 
L 399.794634 188.382176 
L 399.773746 187.911873 
L 399.726422 187.441569 
L 399.653549 186.971266 
L 399.556182 186.500963 
L 399.435535 186.030659 
L 399.292979 185.560356 
L 399.130026 185.090052 
L 398.948326 184.619749 
L 398.749649 184.149446 
L 398.535883 183.679142 
L 398.309011 183.208839 
L 398.071107 182.738536 
L 397.824318 182.268232 
L 397.570848 181.797929 
L 397.312946 181.327625 
L 397.052886 180.857322 
L 396.792958 180.387019 
L 396.535443 179.916715 
L 396.2826 179.446412 
L 396.036653 178.976109 
L 395.799768 178.505805 
L 395.574038 178.035502 
L 395.361472 177.565199 
L 395.163974 177.094895 
L 394.983331 176.624592 
L 394.821197 176.154288 
L 394.679085 175.683985 
L 394.55835 175.213682 
L 394.460184 174.743378 
L 394.385604 174.273075 
L 394.335446 173.802772 
L 394.31036 173.332468 
L 394.310808 172.862165 
L 394.33706 172.391862 
L 394.389195 171.921558 
L 394.467103 171.451255 
L 394.57049 170.980951 
L 394.698882 170.510648 
L 394.851633 170.040345 
L 395.027934 169.570041 
L 395.226823 169.099738 
L 395.447197 168.629435 
L 419.14553 168.629435 
L 419.14553 168.629435 
L 419.365904 169.099738 
L 419.564793 169.570041 
L 419.741094 170.040345 
L 419.893845 170.510648 
L 420.022237 170.980951 
L 420.125624 171.451255 
L 420.203532 171.921558 
L 420.255667 172.391862 
L 420.281919 172.862165 
L 420.282367 173.332468 
L 420.257281 173.802772 
L 420.207123 174.273075 
L 420.132543 174.743378 
L 420.034377 175.213682 
L 419.913642 175.683985 
L 419.77153 176.154288 
L 419.609397 176.624592 
L 419.428753 177.094895 
L 419.231255 177.565199 
L 419.018689 178.035502 
L 418.79296 178.505805 
L 418.556074 178.976109 
L 418.310127 179.446412 
L 418.057285 179.916715 
L 417.799769 180.387019 
L 417.539841 180.857322 
L 417.279782 181.327625 
L 417.021879 181.797929 
L 416.768409 182.268232 
L 416.52162 182.738536 
L 416.283716 183.208839 
L 416.056845 183.679142 
L 415.843078 184.149446 
L 415.644401 184.619749 
L 415.462701 185.090052 
L 415.299748 185.560356 
L 415.157192 186.030659 
L 415.036546 186.500963 
L 414.939178 186.971266 
L 414.866305 187.441569 
L 414.818981 187.911873 
L 414.798094 188.382176 
L 414.804356 188.852479 
L 414.838303 189.322783 
L 414.900288 189.793086 
L 414.990479 190.263389 
L 415.108855 190.733693 
L 415.25521 191.203996 
L 415.429148 191.6743 
L 415.630086 192.144603 
L 415.857258 192.614906 
L 416.109716 193.08521 
L 416.386333 193.555513 
L 416.685813 194.025816 
L 417.006691 194.49612 
L 417.347346 194.966423 
L 417.706008 195.436726 
L 418.080765 195.90703 
L 418.469577 196.377333 
L 418.870286 196.847637 
L 419.280628 197.31794 
L 419.69825 197.788243 
L 420.120719 198.258547 
L 420.545545 198.72885 
L 420.970188 199.199153 
L 421.392083 199.669457 
L 421.808651 200.13976 
L 422.21732 200.610063 
L 422.615544 201.080367 
L 423.000817 201.55067 
L 423.370692 202.020974 
L 423.722803 202.491277 
L 424.054875 202.96158 
L 424.364748 203.431884 
L 424.650389 203.902187 
L 424.909905 204.37249 
L 425.141564 204.842794 
L 425.3438 205.313097 
L 425.515231 205.783401 
L 425.654664 206.253704 
L 425.761106 206.724007 
L 425.833772 207.194311 
L 425.872084 207.664614 
L 425.875682 208.134917 
L 425.844419 208.605221 
L 425.778363 209.075524 
L 425.677794 209.545827 
L 425.543199 210.016131 
L 425.375267 210.486434 
L 425.17488 210.956738 
L 424.943101 211.427041 
L 424.68117 211.897344 
L 424.390484 212.367648 
L 424.072586 212.837951 
L 423.729153 213.308254 
L 423.361976 213.778558 
L 422.972945 214.248861 
L 422.564035 214.719164 
L 422.137286 215.189468 
z
" clip-path="url(#p613908326f)" style="fill: #1f77b4; fill-opacity: 0.3"/>
   </g>
   <g id="PolyCollection_6">
    <path d="M 497.554252 231.571702 
L 465.67302 231.571702 
L 465.304322 230.744316 
L 464.95905 229.916931 
L 464.638749 229.089545 
L 464.344821 228.26216 
L 464.078517 227.434774 
L 463.84092 226.607388 
L 463.63294 225.780003 
L 463.455304 224.952617 
L 463.308551 224.125232 
L 463.193024 223.297846 
L 463.108874 222.470461 
L 463.056052 221.643075 
L 463.034318 220.81569 
L 463.043236 219.988304 
L 463.082184 219.160918 
L 463.150358 218.333533 
L 463.24678 217.506147 
L 463.370308 216.678762 
L 463.519644 215.851376 
L 463.693349 215.023991 
L 463.889852 214.196605 
L 464.107465 213.36922 
L 464.344398 212.541834 
L 464.598768 211.714449 
L 464.868623 210.887063 
L 465.151947 210.059677 
L 465.446681 209.232292 
L 465.750737 208.404906 
L 466.062013 207.577521 
L 466.378404 206.750135 
L 466.69782 205.92275 
L 467.018198 205.095364 
L 467.337515 204.267979 
L 467.653802 203.440593 
L 467.96515 202.613207 
L 468.26973 201.785822 
L 468.565794 200.958436 
L 468.851691 200.131051 
L 469.125874 199.303665 
L 469.386905 198.47628 
L 469.633466 197.648894 
L 469.864363 196.821509 
L 470.07853 195.994123 
L 470.27504 195.166737 
L 470.4531 194.339352 
L 470.612061 193.511966 
L 470.751418 192.684581 
L 470.870811 191.857195 
L 470.970026 191.02981 
L 471.048996 190.202424 
L 471.107801 189.375039 
L 471.146662 188.547653 
L 471.165945 187.720268 
L 471.166155 186.892882 
L 471.14793 186.065496 
L 471.112042 185.238111 
L 471.059387 184.410725 
L 470.990981 183.58334 
L 470.907952 182.755954 
L 470.811536 181.928569 
L 470.703065 181.101183 
L 470.583958 180.273798 
L 470.455716 179.446412 
L 470.319905 178.619026 
L 470.178153 177.791641 
L 470.032132 176.964255 
L 469.883549 176.13687 
L 469.734135 175.309484 
L 469.585631 174.482099 
L 469.439775 173.654713 
L 469.29829 172.827328 
L 469.162872 171.999942 
L 469.035176 171.172556 
L 468.916801 170.345171 
L 468.809283 169.517785 
L 468.714081 168.6904 
L 468.632563 167.863014 
L 468.565999 167.035629 
L 468.515549 166.208243 
L 468.482256 165.380858 
L 468.467034 164.553472 
L 468.470667 163.726087 
L 468.493799 162.898701 
L 468.53693 162.071315 
L 468.600413 161.24393 
L 468.684456 160.416544 
L 468.789113 159.589159 
L 468.914295 158.761773 
L 469.059764 157.934388 
L 469.22514 157.107002 
L 469.409908 156.279617 
L 469.613421 155.452231 
L 469.834906 154.624845 
L 470.073479 153.79746 
L 470.328146 152.970074 
L 470.597821 152.142689 
L 470.881331 151.315303 
L 471.17743 150.487918 
L 471.484813 149.660532 
L 491.74246 149.660532 
L 491.74246 149.660532 
L 492.049843 150.487918 
L 492.345942 151.315303 
L 492.629452 152.142689 
L 492.899126 152.970074 
L 493.153794 153.79746 
L 493.392366 154.624845 
L 493.613852 155.452231 
L 493.817364 156.279617 
L 494.002132 157.107002 
L 494.167509 157.934388 
L 494.312978 158.761773 
L 494.438159 159.589159 
L 494.542817 160.416544 
L 494.626859 161.24393 
L 494.690343 162.071315 
L 494.733474 162.898701 
L 494.756606 163.726087 
L 494.760239 164.553472 
L 494.745017 165.380858 
L 494.711723 166.208243 
L 494.661274 167.035629 
L 494.59471 167.863014 
L 494.513192 168.6904 
L 494.417989 169.517785 
L 494.310472 170.345171 
L 494.192097 171.172556 
L 494.0644 171.999942 
L 493.928982 172.827328 
L 493.787498 173.654713 
L 493.641642 174.482099 
L 493.493138 175.309484 
L 493.343724 176.13687 
L 493.195141 176.964255 
L 493.04912 177.791641 
L 492.907368 178.619026 
L 492.771557 179.446412 
L 492.643315 180.273798 
L 492.524208 181.101183 
L 492.415737 181.928569 
L 492.319321 182.755954 
L 492.236292 183.58334 
L 492.167886 184.410725 
L 492.115231 185.238111 
L 492.079343 186.065496 
L 492.061118 186.892882 
L 492.061328 187.720268 
L 492.080611 188.547653 
L 492.119472 189.375039 
L 492.178277 190.202424 
L 492.257247 191.02981 
L 492.356462 191.857195 
L 492.475855 192.684581 
L 492.615212 193.511966 
L 492.774173 194.339352 
L 492.952233 195.166737 
L 493.148742 195.994123 
L 493.36291 196.821509 
L 493.593806 197.648894 
L 493.840367 198.47628 
L 494.101398 199.303665 
L 494.375581 200.131051 
L 494.661479 200.958436 
L 494.957543 201.785822 
L 495.262123 202.613207 
L 495.573471 203.440593 
L 495.889757 204.267979 
L 496.209075 205.095364 
L 496.529453 205.92275 
L 496.848869 206.750135 
L 497.16526 207.577521 
L 497.476535 208.404906 
L 497.780592 209.232292 
L 498.075326 210.059677 
L 498.35865 210.887063 
L 498.628504 211.714449 
L 498.882875 212.541834 
L 499.119807 213.36922 
L 499.337421 214.196605 
L 499.533924 215.023991 
L 499.707629 215.851376 
L 499.856965 216.678762 
L 499.980493 217.506147 
L 500.076915 218.333533 
L 500.145089 219.160918 
L 500.184037 219.988304 
L 500.192955 220.81569 
L 500.17122 221.643075 
L 500.118399 222.470461 
L 500.034249 223.297846 
L 499.918722 224.125232 
L 499.771968 224.952617 
L 499.594332 225.780003 
L 499.386353 226.607388 
L 499.148756 227.434774 
L 498.882452 228.26216 
L 498.588524 229.089545 
L 498.268222 229.916931 
L 497.92295 230.744316 
L 497.554252 231.571702 
z
" clip-path="url(#p613908326f)" style="fill: #1f77b4; fill-opacity: 0.3"/>
   </g>
   <g id="PolyCollection_7">
    <path d="M 570.610989 238.469484 
L 541.250829 238.469484 
L 540.81147 237.598552 
L 540.390664 236.72762 
L 539.990467 235.856688 
L 539.612844 234.985756 
L 539.259639 234.114824 
L 538.932566 233.243892 
L 538.63319 232.372959 
L 538.362907 231.502027 
L 538.122937 230.631095 
L 537.914303 229.760163 
L 537.737831 228.889231 
L 537.594131 228.018299 
L 537.483597 227.147366 
L 537.406402 226.276434 
L 537.362492 225.405502 
L 537.351591 224.53457 
L 537.373201 223.663638 
L 537.426606 222.792706 
L 537.510881 221.921773 
L 537.624898 221.050841 
L 537.767337 220.179909 
L 537.9367 219.308977 
L 538.131326 218.438045 
L 538.349401 217.567113 
L 538.588981 216.69618 
L 538.848006 215.825248 
L 539.124317 214.954316 
L 539.415679 214.083384 
L 539.7198 213.212452 
L 540.034348 212.34152 
L 540.35697 211.470588 
L 540.685318 210.599655 
L 541.017057 209.728723 
L 541.349896 208.857791 
L 541.681595 207.986859 
L 542.009988 207.115927 
L 542.332995 206.244995 
L 542.64864 205.374062 
L 542.955061 204.50313 
L 543.250525 203.632198 
L 543.533435 202.761266 
L 543.802343 201.890334 
L 544.055955 201.019402 
L 544.293136 200.148469 
L 544.512917 199.277537 
L 544.7145 198.406605 
L 544.897253 197.535673 
L 545.060715 196.664741 
L 545.204595 195.793809 
L 545.328768 194.922876 
L 545.433269 194.051944 
L 545.518293 193.181012 
L 545.584185 192.31008 
L 545.631435 191.439148 
L 545.660667 190.568216 
L 545.672637 189.697284 
L 545.668215 188.826351 
L 545.648381 187.955419 
L 545.614213 187.084487 
L 545.566876 186.213555 
L 545.507612 185.342623 
L 545.437727 184.471691 
L 545.358583 183.600758 
L 545.271582 182.729826 
L 545.178163 181.858894 
L 545.079782 180.987962 
L 544.977909 180.11703 
L 544.874015 179.246098 
L 544.769562 178.375165 
L 544.665994 177.504233 
L 544.564729 176.633301 
L 544.467153 175.762369 
L 544.374604 174.891437 
L 544.288377 174.020505 
L 544.209705 173.149572 
L 544.139761 172.27864 
L 544.07965 171.407708 
L 544.030402 170.536776 
L 543.992967 169.665844 
L 543.968216 168.794912 
L 543.956929 167.92398 
L 543.959798 167.053047 
L 543.977419 166.182115 
L 544.010295 165.311183 
L 544.058828 164.440251 
L 544.123322 163.569319 
L 544.203981 162.698387 
L 544.300903 161.827454 
L 544.41409 160.956522 
L 544.54344 160.08559 
L 544.688751 159.214658 
L 544.849723 158.343726 
L 545.025961 157.472794 
L 545.216978 156.601861 
L 545.422195 155.730929 
L 545.640951 154.859997 
L 545.872505 153.989065 
L 546.116041 153.118133 
L 546.370677 152.247201 
L 565.491141 152.247201 
L 565.491141 152.247201 
L 565.745777 153.118133 
L 565.989313 153.989065 
L 566.220867 154.859997 
L 566.439623 155.730929 
L 566.64484 156.601861 
L 566.835857 157.472794 
L 567.012095 158.343726 
L 567.173067 159.214658 
L 567.318378 160.08559 
L 567.447728 160.956522 
L 567.560915 161.827454 
L 567.657838 162.698387 
L 567.738496 163.569319 
L 567.80299 164.440251 
L 567.851524 165.311183 
L 567.884399 166.182115 
L 567.902021 167.053047 
L 567.904889 167.92398 
L 567.893602 168.794912 
L 567.868851 169.665844 
L 567.831417 170.536776 
L 567.782168 171.407708 
L 567.722057 172.27864 
L 567.652113 173.149572 
L 567.573442 174.020505 
L 567.487214 174.891437 
L 567.394666 175.762369 
L 567.297089 176.633301 
L 567.195824 177.504233 
L 567.092256 178.375165 
L 566.987803 179.246098 
L 566.883909 180.11703 
L 566.782036 180.987962 
L 566.683655 181.858894 
L 566.590236 182.729826 
L 566.503236 183.600758 
L 566.424091 184.471691 
L 566.354206 185.342623 
L 566.294942 186.213555 
L 566.247605 187.084487 
L 566.213437 187.955419 
L 566.193603 188.826351 
L 566.189181 189.697284 
L 566.201151 190.568216 
L 566.230384 191.439148 
L 566.277633 192.31008 
L 566.343525 193.181012 
L 566.428549 194.051944 
L 566.53305 194.922876 
L 566.657223 195.793809 
L 566.801103 196.664741 
L 566.964565 197.535673 
L 567.147318 198.406605 
L 567.348901 199.277537 
L 567.568683 200.148469 
L 567.805863 201.019402 
L 568.059475 201.890334 
L 568.328383 202.761266 
L 568.611293 203.632198 
L 568.906757 204.50313 
L 569.213179 205.374062 
L 569.528823 206.244995 
L 569.85183 207.115927 
L 570.180223 207.986859 
L 570.511922 208.857791 
L 570.844761 209.728723 
L 571.176501 210.599655 
L 571.504848 211.470588 
L 571.82747 212.34152 
L 572.142018 213.212452 
L 572.446139 214.083384 
L 572.737502 214.954316 
L 573.013813 215.825248 
L 573.272837 216.69618 
L 573.512417 217.567113 
L 573.730492 218.438045 
L 573.925118 219.308977 
L 574.094482 220.179909 
L 574.236921 221.050841 
L 574.350937 221.921773 
L 574.435212 222.792706 
L 574.488617 223.663638 
L 574.510227 224.53457 
L 574.499326 225.405502 
L 574.455417 226.276434 
L 574.378221 227.147366 
L 574.267687 228.018299 
L 574.123987 228.889231 
L 573.947515 229.760163 
L 573.738882 230.631095 
L 573.498911 231.502027 
L 573.228628 232.372959 
L 572.929252 233.243892 
L 572.60218 234.114824 
L 572.248975 234.985756 
L 571.871351 235.856688 
L 571.471154 236.72762 
L 571.050348 237.598552 
L 570.610989 238.469484 
z
" clip-path="url(#p613908326f)" style="fill: #1f77b4; fill-opacity: 0.3"/>
   </g>
   <g id="PolyCollection_8">
    <path d="M 639.673348 312.620649 
L 620.823016 312.620649 
L 620.584825 311.915194 
L 620.357698 311.209738 
L 620.142613 310.504283 
L 619.940504 309.798828 
L 619.752247 309.093373 
L 619.578657 308.387918 
L 619.420483 307.682463 
L 619.278395 306.977008 
L 619.152984 306.271553 
L 619.044752 305.566098 
L 618.954112 304.860643 
L 618.881376 304.155188 
L 618.826758 303.449733 
L 618.790367 302.744278 
L 618.772204 302.038823 
L 618.772162 301.333368 
L 618.790023 300.627913 
L 618.82546 299.922458 
L 618.878032 299.217003 
L 618.947189 298.511548 
L 619.032274 297.806093 
L 619.13252 297.100637 
L 619.247059 296.395182 
L 619.37492 295.689727 
L 619.515039 294.984272 
L 619.666257 294.278817 
L 619.827332 293.573362 
L 619.996939 292.867907 
L 620.173681 292.162452 
L 620.356094 291.456997 
L 620.542655 290.751542 
L 620.73179 290.046087 
L 620.92188 289.340632 
L 621.111276 288.635177 
L 621.298302 287.929722 
L 621.481267 287.224267 
L 621.658477 286.518812 
L 621.82824 285.813357 
L 621.988882 285.107902 
L 622.138753 284.402447 
L 622.276244 283.696992 
L 622.399788 282.991536 
L 622.50788 282.286081 
L 622.599085 281.580626 
L 622.672046 280.875171 
L 622.7255 280.169716 
L 622.758281 279.464261 
L 622.76934 278.758806 
L 622.757745 278.053351 
L 622.722698 277.347896 
L 622.66354 276.642441 
L 622.57976 275.936986 
L 622.471003 275.231531 
L 622.337078 274.526076 
L 622.17796 273.820621 
L 621.993802 273.115166 
L 621.78493 272.409711 
L 621.551855 271.704256 
L 621.295267 270.998801 
L 621.01604 270.293346 
L 620.715228 269.587891 
L 620.394066 268.882435 
L 620.05396 268.17698 
L 619.696488 267.471525 
L 619.323388 266.76607 
L 618.936551 266.060615 
L 618.538012 265.35516 
L 618.129936 264.649705 
L 617.714604 263.94425 
L 617.294403 263.238795 
L 616.871803 262.53334 
L 616.449347 261.827885 
L 616.029628 261.12243 
L 615.61527 260.416975 
L 615.208911 259.71152 
L 614.813181 259.006065 
L 614.43068 258.30061 
L 614.063959 257.595155 
L 613.715498 256.8897 
L 613.387686 256.184245 
L 613.082801 255.47879 
L 612.802991 254.773335 
L 612.550255 254.067879 
L 612.326428 253.362424 
L 612.133163 252.656969 
L 611.971918 251.951514 
L 611.843944 251.246059 
L 611.750277 250.540604 
L 611.691724 249.835149 
L 611.668864 249.129694 
L 611.682039 248.424239 
L 611.731356 247.718784 
L 611.816685 247.013329 
L 611.937664 246.307874 
L 612.093705 245.602419 
L 612.283999 244.896964 
L 612.507527 244.191509 
L 612.763072 243.486054 
L 613.04923 242.780599 
L 647.447133 242.780599 
L 647.447133 242.780599 
L 647.733292 243.486054 
L 647.988837 244.191509 
L 648.212365 244.896964 
L 648.402658 245.602419 
L 648.558699 246.307874 
L 648.679679 247.013329 
L 648.765008 247.718784 
L 648.814325 248.424239 
L 648.8275 249.129694 
L 648.80464 249.835149 
L 648.746087 250.540604 
L 648.652419 251.246059 
L 648.524446 251.951514 
L 648.363201 252.656969 
L 648.169935 253.362424 
L 647.946108 254.067879 
L 647.693373 254.773335 
L 647.413563 255.47879 
L 647.108678 256.184245 
L 646.780866 256.8897 
L 646.432405 257.595155 
L 646.065684 258.30061 
L 645.683182 259.006065 
L 645.287452 259.71152 
L 644.881094 260.416975 
L 644.466736 261.12243 
L 644.047016 261.827885 
L 643.62456 262.53334 
L 643.201961 263.238795 
L 642.781759 263.94425 
L 642.366428 264.649705 
L 641.958351 265.35516 
L 641.559813 266.060615 
L 641.172976 266.76607 
L 640.799876 267.471525 
L 640.442404 268.17698 
L 640.102298 268.882435 
L 639.781135 269.587891 
L 639.480324 270.293346 
L 639.201097 270.998801 
L 638.944509 271.704256 
L 638.711434 272.409711 
L 638.502562 273.115166 
L 638.318403 273.820621 
L 638.159286 274.526076 
L 638.02536 275.231531 
L 637.916604 275.936986 
L 637.832824 276.642441 
L 637.773665 277.347896 
L 637.738619 278.053351 
L 637.727024 278.758806 
L 637.738082 279.464261 
L 637.770864 280.169716 
L 637.824317 280.875171 
L 637.897279 281.580626 
L 637.988484 282.286081 
L 638.096576 282.991536 
L 638.22012 283.696992 
L 638.35761 284.402447 
L 638.507482 285.107902 
L 638.668124 285.813357 
L 638.837887 286.518812 
L 639.015096 287.224267 
L 639.198062 287.929722 
L 639.385088 288.635177 
L 639.574484 289.340632 
L 639.764574 290.046087 
L 639.953708 290.751542 
L 640.140269 291.456997 
L 640.322683 292.162452 
L 640.499425 292.867907 
L 640.669032 293.573362 
L 640.830107 294.278817 
L 640.981325 294.984272 
L 641.121444 295.689727 
L 641.249305 296.395182 
L 641.363844 297.100637 
L 641.46409 297.806093 
L 641.549174 298.511548 
L 641.618332 299.217003 
L 641.670904 299.922458 
L 641.70634 300.627913 
L 641.724202 301.333368 
L 641.72416 302.038823 
L 641.705997 302.744278 
L 641.669605 303.449733 
L 641.614987 304.155188 
L 641.542252 304.860643 
L 641.451611 305.566098 
L 641.34338 306.271553 
L 641.217969 306.977008 
L 641.075881 307.682463 
L 640.917707 308.387918 
L 640.744117 309.093373 
L 640.55586 309.798828 
L 640.35375 310.504283 
L 640.138666 311.209738 
L 639.911539 311.915194 
L 639.673348 312.620649 
z
" clip-path="url(#p613908326f)" style="fill: #1f77b4; fill-opacity: 0.3"/>
   </g>
   <g id="PolyCollection_9">
    <path d="M 716.581079 303.99842 
L 692.54983 303.99842 
L 692.151968 303.188453 
L 691.76598 302.378486 
L 691.393304 301.568519 
L 691.035279 300.758553 
L 690.693127 299.948586 
L 690.367946 299.138619 
L 690.06069 298.328652 
L 689.772166 297.518685 
L 689.503015 296.708718 
L 689.253713 295.898751 
L 689.024559 295.088784 
L 688.815676 294.278817 
L 688.627005 293.46885 
L 688.458307 292.658883 
L 688.309167 291.848917 
L 688.178997 291.03895 
L 688.067041 290.228983 
L 687.972392 289.419016 
L 687.893991 288.609049 
L 687.830653 287.799082 
L 687.78107 286.989115 
L 687.743839 286.179148 
L 687.717469 285.369181 
L 687.700411 284.559214 
L 687.69107 283.749247 
L 687.68783 282.939281 
L 687.689075 282.129314 
L 687.693212 281.319347 
L 687.698689 280.50938 
L 687.704022 279.699413 
L 687.707808 278.889446 
L 687.70875 278.079479 
L 687.705671 277.269512 
L 687.697534 276.459545 
L 687.683449 275.649578 
L 687.662692 274.839611 
L 687.634709 274.029645 
L 687.599125 273.219678 
L 687.555747 272.409711 
L 687.504561 271.599744 
L 687.445736 270.789777 
L 687.379614 269.97981 
L 687.306704 269.169843 
L 687.227669 268.359876 
L 687.143315 267.549909 
L 687.054577 266.739942 
L 686.962495 265.929975 
L 686.868203 265.120009 
L 686.772901 264.310042 
L 686.677841 263.500075 
L 686.584298 262.690108 
L 686.493555 261.880141 
L 686.406875 261.070174 
L 686.325486 260.260207 
L 686.250558 259.45024 
L 686.183187 258.640273 
L 686.124379 257.830306 
L 686.075035 257.020339 
L 686.035941 256.210373 
L 686.00776 255.400406 
L 685.991025 254.590439 
L 685.986136 253.780472 
L 685.993364 252.970505 
L 686.012849 252.160538 
L 686.044607 251.350571 
L 686.088543 250.540604 
L 686.144454 249.730637 
L 686.212049 248.92067 
L 686.290956 248.110703 
L 686.380745 247.300737 
L 686.48094 246.49077 
L 686.591036 245.680803 
L 686.710518 244.870836 
L 686.838876 244.060869 
L 686.975622 243.250902 
L 687.120305 242.440935 
L 687.272519 241.630968 
L 687.431924 240.821001 
L 687.598243 240.011034 
L 687.771278 239.201067 
L 687.950911 238.391101 
L 688.137101 237.581134 
L 688.329889 236.771167 
L 688.529391 235.9612 
L 688.735792 235.151233 
L 688.949334 234.341266 
L 689.170312 233.531299 
L 689.399055 232.721332 
L 689.635915 231.911365 
L 689.88125 231.101398 
L 690.135411 230.291431 
L 690.39872 229.481465 
L 690.671464 228.671498 
L 690.953868 227.861531 
L 691.24609 227.051564 
L 691.548203 226.241597 
L 691.860187 225.43163 
L 692.181914 224.621663 
L 692.513148 223.811696 
L 716.617761 223.811696 
L 716.617761 223.811696 
L 716.948995 224.621663 
L 717.270723 225.43163 
L 717.582706 226.241597 
L 717.884819 227.051564 
L 718.177041 227.861531 
L 718.459445 228.671498 
L 718.732189 229.481465 
L 718.995499 230.291431 
L 719.249659 231.101398 
L 719.494994 231.911365 
L 719.731854 232.721332 
L 719.960597 233.531299 
L 720.181575 234.341266 
L 720.395118 235.151233 
L 720.601518 235.9612 
L 720.80102 236.771167 
L 720.993808 237.581134 
L 721.179998 238.391101 
L 721.359631 239.201067 
L 721.532666 240.011034 
L 721.698985 240.821001 
L 721.85839 241.630968 
L 722.010604 242.440935 
L 722.155287 243.250902 
L 722.292033 244.060869 
L 722.420391 244.870836 
L 722.539873 245.680803 
L 722.649969 246.49077 
L 722.750164 247.300737 
L 722.839953 248.110703 
L 722.91886 248.92067 
L 722.986455 249.730637 
L 723.042366 250.540604 
L 723.086302 251.350571 
L 723.11806 252.160538 
L 723.137545 252.970505 
L 723.144773 253.780472 
L 723.139884 254.590439 
L 723.123149 255.400406 
L 723.094968 256.210373 
L 723.055874 257.020339 
L 723.00653 257.830306 
L 722.947722 258.640273 
L 722.880351 259.45024 
L 722.805423 260.260207 
L 722.724034 261.070174 
L 722.637354 261.880141 
L 722.546611 262.690108 
L 722.453068 263.500075 
L 722.358008 264.310042 
L 722.262706 265.120009 
L 722.168414 265.929975 
L 722.076332 266.739942 
L 721.987594 267.549909 
L 721.90324 268.359876 
L 721.824205 269.169843 
L 721.751295 269.97981 
L 721.685173 270.789777 
L 721.626348 271.599744 
L 721.575162 272.409711 
L 721.531784 273.219678 
L 721.4962 274.029645 
L 721.468218 274.839611 
L 721.44746 275.649578 
L 721.433376 276.459545 
L 721.425238 277.269512 
L 721.422159 278.079479 
L 721.423101 278.889446 
L 721.426887 279.699413 
L 721.43222 280.50938 
L 721.437697 281.319347 
L 721.441834 282.129314 
L 721.443079 282.939281 
L 721.439839 283.749247 
L 721.430498 284.559214 
L 721.41344 285.369181 
L 721.38707 286.179148 
L 721.349839 286.989115 
L 721.300256 287.799082 
L 721.236918 288.609049 
L 721.158517 289.419016 
L 721.063868 290.228983 
L 720.951913 291.03895 
L 720.821742 291.848917 
L 720.672602 292.658883 
L 720.503904 293.46885 
L 720.315233 294.278817 
L 720.10635 295.088784 
L 719.877196 295.898751 
L 719.627894 296.708718 
L 719.358743 297.518685 
L 719.070219 298.328652 
L 718.762964 299.138619 
L 718.437782 299.948586 
L 718.095631 300.758553 
L 717.737605 301.568519 
L 717.364929 302.378486 
L 716.978941 303.188453 
L 716.581079 303.99842 
z
" clip-path="url(#p613908326f)" style="fill: #1f77b4; fill-opacity: 0.3"/>
   </g>
   <g id="PolyCollection_10">
    <path d="M 783.133052 323.829545 
L 774.632402 323.829545 
L 774.497091 322.801846 
L 774.363791 321.774146 
L 774.231287 320.746446 
L 774.098105 319.718746 
L 773.962535 318.691046 
L 773.822657 317.663346 
L 773.67638 316.635646 
L 773.521481 315.607946 
L 773.355663 314.580246 
L 773.176601 313.552546 
L 772.982009 312.524846 
L 772.769696 311.497146 
L 772.537635 310.469446 
L 772.284019 309.441746 
L 772.007324 308.414046 
L 771.706362 307.386346 
L 771.380328 306.358646 
L 771.028847 305.330946 
L 770.651999 304.303246 
L 770.250344 303.275546 
L 769.824932 302.247847 
L 769.377304 301.220147 
L 768.909479 300.192447 
L 768.423927 299.164747 
L 767.923538 298.137047 
L 767.411577 297.109347 
L 766.891627 296.081647 
L 766.367526 295.053947 
L 765.843304 294.026247 
L 765.323107 292.998547 
L 764.81112 291.970847 
L 764.311494 290.943147 
L 763.828272 289.915447 
L 763.365315 288.887747 
L 762.926237 287.860047 
L 762.514343 286.832347 
L 762.13258 285.804647 
L 761.783488 284.776947 
L 761.469171 283.749247 
L 761.191265 282.721548 
L 760.950931 281.693848 
L 760.748847 280.666148 
L 760.58521 279.638448 
L 760.459756 278.610748 
L 760.37178 277.583048 
L 760.320162 276.555348 
L 760.303409 275.527648 
L 760.319694 274.499948 
L 760.366899 273.472248 
L 760.442666 272.444548 
L 760.544445 271.416848 
L 760.669545 270.389148 
L 760.815184 269.361448 
L 760.978539 268.333748 
L 761.156791 267.306048 
L 761.347173 266.278348 
L 761.547007 265.250648 
L 761.753746 264.222948 
L 761.965009 263.195248 
L 762.178608 262.167549 
L 762.39258 261.139849 
L 762.605201 260.112149 
L 762.815015 259.084449 
L 763.020838 258.056749 
L 763.221771 257.029049 
L 763.417206 256.001349 
L 763.606823 254.973649 
L 763.790586 253.945949 
L 763.968735 252.918249 
L 764.141773 251.890549 
L 764.310442 250.862849 
L 764.475709 249.835149 
L 764.638732 248.807449 
L 764.800836 247.779749 
L 764.963475 246.752049 
L 765.1282 245.724349 
L 765.296617 244.696649 
L 765.470352 243.668949 
L 765.651009 242.64125 
L 765.840134 241.61355 
L 766.039174 240.58585 
L 766.249442 239.55815 
L 766.472086 238.53045 
L 766.708063 237.50275 
L 766.958107 236.47505 
L 767.22272 235.44735 
L 767.50215 234.41965 
L 767.79639 233.39195 
L 768.105171 232.36425 
L 768.427971 231.33655 
L 768.764021 230.30885 
L 769.112324 229.28115 
L 769.471669 228.25345 
L 769.840663 227.22575 
L 770.21775 226.19805 
L 770.601246 225.17035 
L 770.989371 224.14265 
L 771.380275 223.114951 
L 771.772079 222.087251 
L 785.993375 222.087251 
L 785.993375 222.087251 
L 786.38518 223.114951 
L 786.776084 224.14265 
L 787.164208 225.17035 
L 787.547705 226.19805 
L 787.924792 227.22575 
L 788.293785 228.25345 
L 788.653131 229.28115 
L 789.001433 230.30885 
L 789.337484 231.33655 
L 789.660284 232.36425 
L 789.969065 233.39195 
L 790.263304 234.41965 
L 790.542735 235.44735 
L 790.807347 236.47505 
L 791.057392 237.50275 
L 791.293368 238.53045 
L 791.516013 239.55815 
L 791.726281 240.58585 
L 791.92532 241.61355 
L 792.114445 242.64125 
L 792.295103 243.668949 
L 792.468838 244.696649 
L 792.637255 245.724349 
L 792.801979 246.752049 
L 792.964618 247.779749 
L 793.126723 248.807449 
L 793.289746 249.835149 
L 793.455013 250.862849 
L 793.623682 251.890549 
L 793.796719 252.918249 
L 793.974869 253.945949 
L 794.158632 254.973649 
L 794.348249 256.001349 
L 794.543684 257.029049 
L 794.744617 258.056749 
L 794.95044 259.084449 
L 795.160253 260.112149 
L 795.372875 261.139849 
L 795.586846 262.167549 
L 795.800446 263.195248 
L 796.011708 264.222948 
L 796.218448 265.250648 
L 796.418282 266.278348 
L 796.608663 267.306048 
L 796.786916 268.333748 
L 796.950271 269.361448 
L 797.09591 270.389148 
L 797.22101 271.416848 
L 797.322789 272.444548 
L 797.398556 273.472248 
L 797.445761 274.499948 
L 797.462045 275.527648 
L 797.445293 276.555348 
L 797.393675 277.583048 
L 797.305698 278.610748 
L 797.180244 279.638448 
L 797.016608 280.666148 
L 796.814523 281.693848 
L 796.574189 282.721548 
L 796.296284 283.749247 
L 795.981966 284.776947 
L 795.632875 285.804647 
L 795.251112 286.832347 
L 794.839218 287.860047 
L 794.400139 288.887747 
L 793.937182 289.915447 
L 793.45396 290.943147 
L 792.954335 291.970847 
L 792.442348 292.998547 
L 791.92215 294.026247 
L 791.397929 295.053947 
L 790.873828 296.081647 
L 790.353877 297.109347 
L 789.841916 298.137047 
L 789.341528 299.164747 
L 788.855976 300.192447 
L 788.38815 301.220147 
L 787.940522 302.247847 
L 787.515111 303.275546 
L 787.113455 304.303246 
L 786.736607 305.330946 
L 786.385126 306.358646 
L 786.059093 307.386346 
L 785.75813 308.414046 
L 785.481435 309.441746 
L 785.22782 310.469446 
L 784.995758 311.497146 
L 784.783446 312.524846 
L 784.588854 313.552546 
L 784.409792 314.580246 
L 784.243973 315.607946 
L 784.089075 316.635646 
L 783.942797 317.663346 
L 783.802919 318.691046 
L 783.667349 319.718746 
L 783.534167 320.746446 
L 783.401663 321.774146 
L 783.268364 322.801846 
L 783.133052 323.829545 
z
" clip-path="url(#p613908326f)" style="fill: #1f77b4; fill-opacity: 0.3"/>
   </g>
   <g id="matplotlib.axis_1">
    <g id="xtick_1">
     <g id="line2d_1">
      <defs>
       <path id="m3413e16283" d="M 0 0 
L 0 3.5 
" style="stroke: #000000; stroke-width: 0.8"/>
      </defs>
      <g>
       <use xlink:href="#m3413e16283" x="110.027273" y="337.97" style="stroke: #000000; stroke-width: 0.8"/>
      </g>
     </g>
     <g id="text_1">
      <!-- Defector -->
      <g transform="translate(112.234773 379.51)rotate(-90)scale(0.08 -0.08)">
       <defs>
        <path id="DejaVuSans-44" d="M 1259 4147 
L 1259 519 
L 2022 519 
Q 2988 519 3436 956 
Q 3884 1394 3884 2338 
Q 3884 3275 3436 3711 
Q 2988 4147 2022 4147 
L 1259 4147 
z
M 628 4666 
L 1925 4666 
Q 3281 4666 3915 4102 
Q 4550 3538 4550 2338 
Q 4550 1131 3912 565 
Q 3275 0 1925 0 
L 628 0 
L 628 4666 
z
" transform="scale(0.015625)"/>
        <path id="DejaVuSans-65" d="M 3597 1894 
L 3597 1613 
L 953 1613 
Q 991 1019 1311 708 
Q 1631 397 2203 397 
Q 2534 397 2845 478 
Q 3156 559 3463 722 
L 3463 178 
Q 3153 47 2828 -22 
Q 2503 -91 2169 -91 
Q 1331 -91 842 396 
Q 353 884 353 1716 
Q 353 2575 817 3079 
Q 1281 3584 2069 3584 
Q 2775 3584 3186 3129 
Q 3597 2675 3597 1894 
z
M 3022 2063 
Q 3016 2534 2758 2815 
Q 2500 3097 2075 3097 
Q 1594 3097 1305 2825 
Q 1016 2553 972 2059 
L 3022 2063 
z
" transform="scale(0.015625)"/>
        <path id="DejaVuSans-66" d="M 2375 4863 
L 2375 4384 
L 1825 4384 
Q 1516 4384 1395 4259 
Q 1275 4134 1275 3809 
L 1275 3500 
L 2222 3500 
L 2222 3053 
L 1275 3053 
L 1275 0 
L 697 0 
L 697 3053 
L 147 3053 
L 147 3500 
L 697 3500 
L 697 3744 
Q 697 4328 969 4595 
Q 1241 4863 1831 4863 
L 2375 4863 
z
" transform="scale(0.015625)"/>
        <path id="DejaVuSans-63" d="M 3122 3366 
L 3122 2828 
Q 2878 2963 2633 3030 
Q 2388 3097 2138 3097 
Q 1578 3097 1268 2742 
Q 959 2388 959 1747 
Q 959 1106 1268 751 
Q 1578 397 2138 397 
Q 2388 397 2633 464 
Q 2878 531 3122 666 
L 3122 134 
Q 2881 22 2623 -34 
Q 2366 -91 2075 -91 
Q 1284 -91 818 406 
Q 353 903 353 1747 
Q 353 2603 823 3093 
Q 1294 3584 2113 3584 
Q 2378 3584 2631 3529 
Q 2884 3475 3122 3366 
z
" transform="scale(0.015625)"/>
        <path id="DejaVuSans-74" d="M 1172 4494 
L 1172 3500 
L 2356 3500 
L 2356 3053 
L 1172 3053 
L 1172 1153 
Q 1172 725 1289 603 
Q 1406 481 1766 481 
L 2356 481 
L 2356 0 
L 1766 0 
Q 1100 0 847 248 
Q 594 497 594 1153 
L 594 3053 
L 172 3053 
L 172 3500 
L 594 3500 
L 594 4494 
L 1172 4494 
z
" transform="scale(0.015625)"/>
        <path id="DejaVuSans-6f" d="M 1959 3097 
Q 1497 3097 1228 2736 
Q 959 2375 959 1747 
Q 959 1119 1226 758 
Q 1494 397 1959 397 
Q 2419 397 2687 759 
Q 2956 1122 2956 1747 
Q 2956 2369 2687 2733 
Q 2419 3097 1959 3097 
z
M 1959 3584 
Q 2709 3584 3137 3096 
Q 3566 2609 3566 1747 
Q 3566 888 3137 398 
Q 2709 -91 1959 -91 
Q 1206 -91 779 398 
Q 353 888 353 1747 
Q 353 2609 779 3096 
Q 1206 3584 1959 3584 
z
" transform="scale(0.015625)"/>
        <path id="DejaVuSans-72" d="M 2631 2963 
Q 2534 3019 2420 3045 
Q 2306 3072 2169 3072 
Q 1681 3072 1420 2755 
Q 1159 2438 1159 1844 
L 1159 0 
L 581 0 
L 581 3500 
L 1159 3500 
L 1159 2956 
Q 1341 3275 1631 3429 
Q 1922 3584 2338 3584 
Q 2397 3584 2469 3576 
Q 2541 3569 2628 3553 
L 2631 2963 
z
" transform="scale(0.015625)"/>
       </defs>
       <use xlink:href="#DejaVuSans-44"/>
       <use xlink:href="#DejaVuSans-65" x="77.001953"/>
       <use xlink:href="#DejaVuSans-66" x="138.525391"/>
       <use xlink:href="#DejaVuSans-65" x="173.730469"/>
       <use xlink:href="#DejaVuSans-63" x="235.253906"/>
       <use xlink:href="#DejaVuSans-74" x="290.234375"/>
       <use xlink:href="#DejaVuSans-6f" x="329.443359"/>
       <use xlink:href="#DejaVuSans-72" x="390.625"/>
      </g>
     </g>
    </g>
    <g id="xtick_2">
     <g id="line2d_2">
      <g>
       <use xlink:href="#m3413e16283" x="184.344545" y="337.97" style="stroke: #000000; stroke-width: 0.8"/>
      </g>
     </g>
     <g id="text_2">
      <!-- Adaptive -->
      <g transform="translate(186.552045 380.37875)rotate(-90)scale(0.08 -0.08)">
       <defs>
        <path id="DejaVuSans-41" d="M 2188 4044 
L 1331 1722 
L 3047 1722 
L 2188 4044 
z
M 1831 4666 
L 2547 4666 
L 4325 0 
L 3669 0 
L 3244 1197 
L 1141 1197 
L 716 0 
L 50 0 
L 1831 4666 
z
" transform="scale(0.015625)"/>
        <path id="DejaVuSans-64" d="M 2906 2969 
L 2906 4863 
L 3481 4863 
L 3481 0 
L 2906 0 
L 2906 525 
Q 2725 213 2448 61 
Q 2172 -91 1784 -91 
Q 1150 -91 751 415 
Q 353 922 353 1747 
Q 353 2572 751 3078 
Q 1150 3584 1784 3584 
Q 2172 3584 2448 3432 
Q 2725 3281 2906 2969 
z
M 947 1747 
Q 947 1113 1208 752 
Q 1469 391 1925 391 
Q 2381 391 2643 752 
Q 2906 1113 2906 1747 
Q 2906 2381 2643 2742 
Q 2381 3103 1925 3103 
Q 1469 3103 1208 2742 
Q 947 2381 947 1747 
z
" transform="scale(0.015625)"/>
        <path id="DejaVuSans-61" d="M 2194 1759 
Q 1497 1759 1228 1600 
Q 959 1441 959 1056 
Q 959 750 1161 570 
Q 1363 391 1709 391 
Q 2188 391 2477 730 
Q 2766 1069 2766 1631 
L 2766 1759 
L 2194 1759 
z
M 3341 1997 
L 3341 0 
L 2766 0 
L 2766 531 
Q 2569 213 2275 61 
Q 1981 -91 1556 -91 
Q 1019 -91 701 211 
Q 384 513 384 1019 
Q 384 1609 779 1909 
Q 1175 2209 1959 2209 
L 2766 2209 
L 2766 2266 
Q 2766 2663 2505 2880 
Q 2244 3097 1772 3097 
Q 1472 3097 1187 3025 
Q 903 2953 641 2809 
L 641 3341 
Q 956 3463 1253 3523 
Q 1550 3584 1831 3584 
Q 2591 3584 2966 3190 
Q 3341 2797 3341 1997 
z
" transform="scale(0.015625)"/>
        <path id="DejaVuSans-70" d="M 1159 525 
L 1159 -1331 
L 581 -1331 
L 581 3500 
L 1159 3500 
L 1159 2969 
Q 1341 3281 1617 3432 
Q 1894 3584 2278 3584 
Q 2916 3584 3314 3078 
Q 3713 2572 3713 1747 
Q 3713 922 3314 415 
Q 2916 -91 2278 -91 
Q 1894 -91 1617 61 
Q 1341 213 1159 525 
z
M 3116 1747 
Q 3116 2381 2855 2742 
Q 2594 3103 2138 3103 
Q 1681 3103 1420 2742 
Q 1159 2381 1159 1747 
Q 1159 1113 1420 752 
Q 1681 391 2138 391 
Q 2594 391 2855 752 
Q 3116 1113 3116 1747 
z
" transform="scale(0.015625)"/>
        <path id="DejaVuSans-69" d="M 603 3500 
L 1178 3500 
L 1178 0 
L 603 0 
L 603 3500 
z
M 603 4863 
L 1178 4863 
L 1178 4134 
L 603 4134 
L 603 4863 
z
" transform="scale(0.015625)"/>
        <path id="DejaVuSans-76" d="M 191 3500 
L 800 3500 
L 1894 563 
L 2988 3500 
L 3597 3500 
L 2284 0 
L 1503 0 
L 191 3500 
z
" transform="scale(0.015625)"/>
       </defs>
       <use xlink:href="#DejaVuSans-41"/>
       <use xlink:href="#DejaVuSans-64" x="66.658203"/>
       <use xlink:href="#DejaVuSans-61" x="130.134766"/>
       <use xlink:href="#DejaVuSans-70" x="191.414062"/>
       <use xlink:href="#DejaVuSans-74" x="254.890625"/>
       <use xlink:href="#DejaVuSans-69" x="294.099609"/>
       <use xlink:href="#DejaVuSans-76" x="321.882812"/>
       <use xlink:href="#DejaVuSans-65" x="381.0625"/>
      </g>
     </g>
    </g>
    <g id="xtick_3">
     <g id="line2d_3">
      <g>
       <use xlink:href="#m3413e16283" x="258.661818" y="337.97" style="stroke: #000000; stroke-width: 0.8"/>
      </g>
     </g>
     <g id="text_3">
      <!-- Grudger -->
      <g transform="translate(260.869318 377.89625)rotate(-90)scale(0.08 -0.08)">
       <defs>
        <path id="DejaVuSans-47" d="M 3809 666 
L 3809 1919 
L 2778 1919 
L 2778 2438 
L 4434 2438 
L 4434 434 
Q 4069 175 3628 42 
Q 3188 -91 2688 -91 
Q 1594 -91 976 548 
Q 359 1188 359 2328 
Q 359 3472 976 4111 
Q 1594 4750 2688 4750 
Q 3144 4750 3555 4637 
Q 3966 4525 4313 4306 
L 4313 3634 
Q 3963 3931 3569 4081 
Q 3175 4231 2741 4231 
Q 1884 4231 1454 3753 
Q 1025 3275 1025 2328 
Q 1025 1384 1454 906 
Q 1884 428 2741 428 
Q 3075 428 3337 486 
Q 3600 544 3809 666 
z
" transform="scale(0.015625)"/>
        <path id="DejaVuSans-75" d="M 544 1381 
L 544 3500 
L 1119 3500 
L 1119 1403 
Q 1119 906 1312 657 
Q 1506 409 1894 409 
Q 2359 409 2629 706 
Q 2900 1003 2900 1516 
L 2900 3500 
L 3475 3500 
L 3475 0 
L 2900 0 
L 2900 538 
Q 2691 219 2414 64 
Q 2138 -91 1772 -91 
Q 1169 -91 856 284 
Q 544 659 544 1381 
z
M 1991 3584 
L 1991 3584 
z
" transform="scale(0.015625)"/>
        <path id="DejaVuSans-67" d="M 2906 1791 
Q 2906 2416 2648 2759 
Q 2391 3103 1925 3103 
Q 1463 3103 1205 2759 
Q 947 2416 947 1791 
Q 947 1169 1205 825 
Q 1463 481 1925 481 
Q 2391 481 2648 825 
Q 2906 1169 2906 1791 
z
M 3481 434 
Q 3481 -459 3084 -895 
Q 2688 -1331 1869 -1331 
Q 1566 -1331 1297 -1286 
Q 1028 -1241 775 -1147 
L 775 -588 
Q 1028 -725 1275 -790 
Q 1522 -856 1778 -856 
Q 2344 -856 2625 -561 
Q 2906 -266 2906 331 
L 2906 616 
Q 2728 306 2450 153 
Q 2172 0 1784 0 
Q 1141 0 747 490 
Q 353 981 353 1791 
Q 353 2603 747 3093 
Q 1141 3584 1784 3584 
Q 2172 3584 2450 3431 
Q 2728 3278 2906 2969 
L 2906 3500 
L 3481 3500 
L 3481 434 
z
" transform="scale(0.015625)"/>
       </defs>
       <use xlink:href="#DejaVuSans-47"/>
       <use xlink:href="#DejaVuSans-72" x="77.490234"/>
       <use xlink:href="#DejaVuSans-75" x="118.603516"/>
       <use xlink:href="#DejaVuSans-64" x="181.982422"/>
       <use xlink:href="#DejaVuSans-67" x="245.458984"/>
       <use xlink:href="#DejaVuSans-65" x="308.935547"/>
       <use xlink:href="#DejaVuSans-72" x="370.458984"/>
      </g>
     </g>
    </g>
    <g id="xtick_4">
     <g id="line2d_4">
      <g>
       <use xlink:href="#m3413e16283" x="332.979091" y="337.97" style="stroke: #000000; stroke-width: 0.8"/>
      </g>
     </g>
     <g id="text_4">
      <!-- Deep QLearner -->
      <g transform="translate(335.186591 405.46625)rotate(-90)scale(0.08 -0.08)">
       <defs>
        <path id="DejaVuSans-20" transform="scale(0.015625)"/>
        <path id="DejaVuSans-51" d="M 2522 4238 
Q 1834 4238 1429 3725 
Q 1025 3213 1025 2328 
Q 1025 1447 1429 934 
Q 1834 422 2522 422 
Q 3209 422 3611 934 
Q 4013 1447 4013 2328 
Q 4013 3213 3611 3725 
Q 3209 4238 2522 4238 
z
M 3406 84 
L 4238 -825 
L 3475 -825 
L 2784 -78 
Q 2681 -84 2626 -87 
Q 2572 -91 2522 -91 
Q 1538 -91 948 567 
Q 359 1225 359 2328 
Q 359 3434 948 4092 
Q 1538 4750 2522 4750 
Q 3503 4750 4090 4092 
Q 4678 3434 4678 2328 
Q 4678 1516 4351 937 
Q 4025 359 3406 84 
z
" transform="scale(0.015625)"/>
        <path id="DejaVuSans-4c" d="M 628 4666 
L 1259 4666 
L 1259 531 
L 3531 531 
L 3531 0 
L 628 0 
L 628 4666 
z
" transform="scale(0.015625)"/>
        <path id="DejaVuSans-6e" d="M 3513 2113 
L 3513 0 
L 2938 0 
L 2938 2094 
Q 2938 2591 2744 2837 
Q 2550 3084 2163 3084 
Q 1697 3084 1428 2787 
Q 1159 2491 1159 1978 
L 1159 0 
L 581 0 
L 581 3500 
L 1159 3500 
L 1159 2956 
Q 1366 3272 1645 3428 
Q 1925 3584 2291 3584 
Q 2894 3584 3203 3211 
Q 3513 2838 3513 2113 
z
" transform="scale(0.015625)"/>
       </defs>
       <use xlink:href="#DejaVuSans-44"/>
       <use xlink:href="#DejaVuSans-65" x="77.001953"/>
       <use xlink:href="#DejaVuSans-65" x="138.525391"/>
       <use xlink:href="#DejaVuSans-70" x="200.048828"/>
       <use xlink:href="#DejaVuSans-20" x="263.525391"/>
       <use xlink:href="#DejaVuSans-51" x="295.3125"/>
       <use xlink:href="#DejaVuSans-4c" x="374.023438"/>
       <use xlink:href="#DejaVuSans-65" x="427.986328"/>
       <use xlink:href="#DejaVuSans-61" x="489.509766"/>
       <use xlink:href="#DejaVuSans-72" x="550.789062"/>
       <use xlink:href="#DejaVuSans-6e" x="590.152344"/>
       <use xlink:href="#DejaVuSans-65" x="653.53125"/>
       <use xlink:href="#DejaVuSans-72" x="715.054688"/>
      </g>
     </g>
    </g>
    <g id="xtick_5">
     <g id="line2d_5">
      <g>
       <use xlink:href="#m3413e16283" x="407.296364" y="337.97" style="stroke: #000000; stroke-width: 0.8"/>
      </g>
     </g>
     <g id="text_5">
      <!-- Tit For Tat -->
      <g transform="translate(409.503864 384.15)rotate(-90)scale(0.08 -0.08)">
       <defs>
        <path id="DejaVuSans-54" d="M -19 4666 
L 3928 4666 
L 3928 4134 
L 2272 4134 
L 2272 0 
L 1638 0 
L 1638 4134 
L -19 4134 
L -19 4666 
z
" transform="scale(0.015625)"/>
        <path id="DejaVuSans-46" d="M 628 4666 
L 3309 4666 
L 3309 4134 
L 1259 4134 
L 1259 2759 
L 3109 2759 
L 3109 2228 
L 1259 2228 
L 1259 0 
L 628 0 
L 628 4666 
z
" transform="scale(0.015625)"/>
       </defs>
       <use xlink:href="#DejaVuSans-54"/>
       <use xlink:href="#DejaVuSans-69" x="57.958984"/>
       <use xlink:href="#DejaVuSans-74" x="85.742188"/>
       <use xlink:href="#DejaVuSans-20" x="124.951172"/>
       <use xlink:href="#DejaVuSans-46" x="156.738281"/>
       <use xlink:href="#DejaVuSans-6f" x="210.632812"/>
       <use xlink:href="#DejaVuSans-72" x="271.814453"/>
       <use xlink:href="#DejaVuSans-20" x="312.927734"/>
       <use xlink:href="#DejaVuSans-54" x="344.714844"/>
       <use xlink:href="#DejaVuSans-61" x="389.298828"/>
       <use xlink:href="#DejaVuSans-74" x="450.578125"/>
      </g>
     </g>
    </g>
    <g id="xtick_6">
     <g id="line2d_6">
      <g>
       <use xlink:href="#m3413e16283" x="481.613636" y="337.97" style="stroke: #000000; stroke-width: 0.8"/>
      </g>
     </g>
     <g id="text_6">
      <!-- Alternator -->
      <g transform="translate(483.821136 385.165)rotate(-90)scale(0.08 -0.08)">
       <defs>
        <path id="DejaVuSans-6c" d="M 603 4863 
L 1178 4863 
L 1178 0 
L 603 0 
L 603 4863 
z
" transform="scale(0.015625)"/>
       </defs>
       <use xlink:href="#DejaVuSans-41"/>
       <use xlink:href="#DejaVuSans-6c" x="68.408203"/>
       <use xlink:href="#DejaVuSans-74" x="96.191406"/>
       <use xlink:href="#DejaVuSans-65" x="135.400391"/>
       <use xlink:href="#DejaVuSans-72" x="196.923828"/>
       <use xlink:href="#DejaVuSans-6e" x="236.287109"/>
       <use xlink:href="#DejaVuSans-61" x="299.666016"/>
       <use xlink:href="#DejaVuSans-74" x="360.945312"/>
       <use xlink:href="#DejaVuSans-6f" x="400.154297"/>
       <use xlink:href="#DejaVuSans-72" x="461.335938"/>
      </g>
     </g>
    </g>
    <g id="xtick_7">
     <g id="line2d_7">
      <g>
       <use xlink:href="#m3413e16283" x="555.930909" y="337.97" style="stroke: #000000; stroke-width: 0.8"/>
      </g>
     </g>
     <g id="text_7">
      <!-- Random: 0.5 -->
      <g transform="translate(558.138409 396.0475)rotate(-90)scale(0.08 -0.08)">
       <defs>
        <path id="DejaVuSans-52" d="M 2841 2188 
Q 3044 2119 3236 1894 
Q 3428 1669 3622 1275 
L 4263 0 
L 3584 0 
L 2988 1197 
Q 2756 1666 2539 1819 
Q 2322 1972 1947 1972 
L 1259 1972 
L 1259 0 
L 628 0 
L 628 4666 
L 2053 4666 
Q 2853 4666 3247 4331 
Q 3641 3997 3641 3322 
Q 3641 2881 3436 2590 
Q 3231 2300 2841 2188 
z
M 1259 4147 
L 1259 2491 
L 2053 2491 
Q 2509 2491 2742 2702 
Q 2975 2913 2975 3322 
Q 2975 3731 2742 3939 
Q 2509 4147 2053 4147 
L 1259 4147 
z
" transform="scale(0.015625)"/>
        <path id="DejaVuSans-6d" d="M 3328 2828 
Q 3544 3216 3844 3400 
Q 4144 3584 4550 3584 
Q 5097 3584 5394 3201 
Q 5691 2819 5691 2113 
L 5691 0 
L 5113 0 
L 5113 2094 
Q 5113 2597 4934 2840 
Q 4756 3084 4391 3084 
Q 3944 3084 3684 2787 
Q 3425 2491 3425 1978 
L 3425 0 
L 2847 0 
L 2847 2094 
Q 2847 2600 2669 2842 
Q 2491 3084 2119 3084 
Q 1678 3084 1418 2786 
Q 1159 2488 1159 1978 
L 1159 0 
L 581 0 
L 581 3500 
L 1159 3500 
L 1159 2956 
Q 1356 3278 1631 3431 
Q 1906 3584 2284 3584 
Q 2666 3584 2933 3390 
Q 3200 3197 3328 2828 
z
" transform="scale(0.015625)"/>
        <path id="DejaVuSans-3a" d="M 750 794 
L 1409 794 
L 1409 0 
L 750 0 
L 750 794 
z
M 750 3309 
L 1409 3309 
L 1409 2516 
L 750 2516 
L 750 3309 
z
" transform="scale(0.015625)"/>
        <path id="DejaVuSans-30" d="M 2034 4250 
Q 1547 4250 1301 3770 
Q 1056 3291 1056 2328 
Q 1056 1369 1301 889 
Q 1547 409 2034 409 
Q 2525 409 2770 889 
Q 3016 1369 3016 2328 
Q 3016 3291 2770 3770 
Q 2525 4250 2034 4250 
z
M 2034 4750 
Q 2819 4750 3233 4129 
Q 3647 3509 3647 2328 
Q 3647 1150 3233 529 
Q 2819 -91 2034 -91 
Q 1250 -91 836 529 
Q 422 1150 422 2328 
Q 422 3509 836 4129 
Q 1250 4750 2034 4750 
z
" transform="scale(0.015625)"/>
        <path id="DejaVuSans-2e" d="M 684 794 
L 1344 794 
L 1344 0 
L 684 0 
L 684 794 
z
" transform="scale(0.015625)"/>
        <path id="DejaVuSans-35" d="M 691 4666 
L 3169 4666 
L 3169 4134 
L 1269 4134 
L 1269 2991 
Q 1406 3038 1543 3061 
Q 1681 3084 1819 3084 
Q 2600 3084 3056 2656 
Q 3513 2228 3513 1497 
Q 3513 744 3044 326 
Q 2575 -91 1722 -91 
Q 1428 -91 1123 -41 
Q 819 9 494 109 
L 494 744 
Q 775 591 1075 516 
Q 1375 441 1709 441 
Q 2250 441 2565 725 
Q 2881 1009 2881 1497 
Q 2881 1984 2565 2268 
Q 2250 2553 1709 2553 
Q 1456 2553 1204 2497 
Q 953 2441 691 2322 
L 691 4666 
z
" transform="scale(0.015625)"/>
       </defs>
       <use xlink:href="#DejaVuSans-52"/>
       <use xlink:href="#DejaVuSans-61" x="67.232422"/>
       <use xlink:href="#DejaVuSans-6e" x="128.511719"/>
       <use xlink:href="#DejaVuSans-64" x="191.890625"/>
       <use xlink:href="#DejaVuSans-6f" x="255.367188"/>
       <use xlink:href="#DejaVuSans-6d" x="316.548828"/>
       <use xlink:href="#DejaVuSans-3a" x="413.960938"/>
       <use xlink:href="#DejaVuSans-20" x="447.652344"/>
       <use xlink:href="#DejaVuSans-30" x="479.439453"/>
       <use xlink:href="#DejaVuSans-2e" x="543.0625"/>
       <use xlink:href="#DejaVuSans-35" x="574.849609"/>
      </g>
     </g>
    </g>
    <g id="xtick_8">
     <g id="line2d_8">
      <g>
       <use xlink:href="#m3413e16283" x="630.248182" y="337.97" style="stroke: #000000; stroke-width: 0.8"/>
      </g>
     </g>
     <g id="text_8">
      <!-- Cooperator -->
      <g transform="translate(632.455682 389.85875)rotate(-90)scale(0.08 -0.08)">
       <defs>
        <path id="DejaVuSans-43" d="M 4122 4306 
L 4122 3641 
Q 3803 3938 3442 4084 
Q 3081 4231 2675 4231 
Q 1875 4231 1450 3742 
Q 1025 3253 1025 2328 
Q 1025 1406 1450 917 
Q 1875 428 2675 428 
Q 3081 428 3442 575 
Q 3803 722 4122 1019 
L 4122 359 
Q 3791 134 3420 21 
Q 3050 -91 2638 -91 
Q 1578 -91 968 557 
Q 359 1206 359 2328 
Q 359 3453 968 4101 
Q 1578 4750 2638 4750 
Q 3056 4750 3426 4639 
Q 3797 4528 4122 4306 
z
" transform="scale(0.015625)"/>
       </defs>
       <use xlink:href="#DejaVuSans-43"/>
       <use xlink:href="#DejaVuSans-6f" x="69.824219"/>
       <use xlink:href="#DejaVuSans-6f" x="131.005859"/>
       <use xlink:href="#DejaVuSans-70" x="192.1875"/>
       <use xlink:href="#DejaVuSans-65" x="255.664062"/>
       <use xlink:href="#DejaVuSans-72" x="317.1875"/>
       <use xlink:href="#DejaVuSans-61" x="358.300781"/>
       <use xlink:href="#DejaVuSans-74" x="419.580078"/>
       <use xlink:href="#DejaVuSans-6f" x="458.789062"/>
       <use xlink:href="#DejaVuSans-72" x="519.970703"/>
      </g>
     </g>
    </g>
    <g id="xtick_9">
     <g id="line2d_9">
      <g>
       <use xlink:href="#m3413e16283" x="704.565455" y="337.97" style="stroke: #000000; stroke-width: 0.8"/>
      </g>
     </g>
     <g id="text_9">
      <!-- Risky QLearner -->
      <g transform="translate(706.772955 405.40875)rotate(-90)scale(0.08 -0.08)">
       <defs>
        <path id="DejaVuSans-73" d="M 2834 3397 
L 2834 2853 
Q 2591 2978 2328 3040 
Q 2066 3103 1784 3103 
Q 1356 3103 1142 2972 
Q 928 2841 928 2578 
Q 928 2378 1081 2264 
Q 1234 2150 1697 2047 
L 1894 2003 
Q 2506 1872 2764 1633 
Q 3022 1394 3022 966 
Q 3022 478 2636 193 
Q 2250 -91 1575 -91 
Q 1294 -91 989 -36 
Q 684 19 347 128 
L 347 722 
Q 666 556 975 473 
Q 1284 391 1588 391 
Q 1994 391 2212 530 
Q 2431 669 2431 922 
Q 2431 1156 2273 1281 
Q 2116 1406 1581 1522 
L 1381 1569 
Q 847 1681 609 1914 
Q 372 2147 372 2553 
Q 372 3047 722 3315 
Q 1072 3584 1716 3584 
Q 2034 3584 2315 3537 
Q 2597 3491 2834 3397 
z
" transform="scale(0.015625)"/>
        <path id="DejaVuSans-6b" d="M 581 4863 
L 1159 4863 
L 1159 1991 
L 2875 3500 
L 3609 3500 
L 1753 1863 
L 3688 0 
L 2938 0 
L 1159 1709 
L 1159 0 
L 581 0 
L 581 4863 
z
" transform="scale(0.015625)"/>
        <path id="DejaVuSans-79" d="M 2059 -325 
Q 1816 -950 1584 -1140 
Q 1353 -1331 966 -1331 
L 506 -1331 
L 506 -850 
L 844 -850 
Q 1081 -850 1212 -737 
Q 1344 -625 1503 -206 
L 1606 56 
L 191 3500 
L 800 3500 
L 1894 763 
L 2988 3500 
L 3597 3500 
L 2059 -325 
z
" transform="scale(0.015625)"/>
       </defs>
       <use xlink:href="#DejaVuSans-52"/>
       <use xlink:href="#DejaVuSans-69" x="69.482422"/>
       <use xlink:href="#DejaVuSans-73" x="97.265625"/>
       <use xlink:href="#DejaVuSans-6b" x="149.365234"/>
       <use xlink:href="#DejaVuSans-79" x="203.650391"/>
       <use xlink:href="#DejaVuSans-20" x="262.830078"/>
       <use xlink:href="#DejaVuSans-51" x="294.617188"/>
       <use xlink:href="#DejaVuSans-4c" x="373.328125"/>
       <use xlink:href="#DejaVuSans-65" x="427.291016"/>
       <use xlink:href="#DejaVuSans-61" x="488.814453"/>
       <use xlink:href="#DejaVuSans-72" x="550.09375"/>
       <use xlink:href="#DejaVuSans-6e" x="589.457031"/>
       <use xlink:href="#DejaVuSans-65" x="652.835938"/>
       <use xlink:href="#DejaVuSans-72" x="714.359375"/>
      </g>
     </g>
    </g>
    <g id="xtick_10">
     <g id="line2d_10">
      <g>
       <use xlink:href="#m3413e16283" x="778.882727" y="337.97" style="stroke: #000000; stroke-width: 0.8"/>
      </g>
     </g>
     <g id="text_10">
      <!-- Mediocre QLearner -->
      <g transform="translate(781.090227 420.83375)rotate(-90)scale(0.08 -0.08)">
       <defs>
        <path id="DejaVuSans-4d" d="M 628 4666 
L 1569 4666 
L 2759 1491 
L 3956 4666 
L 4897 4666 
L 4897 0 
L 4281 0 
L 4281 4097 
L 3078 897 
L 2444 897 
L 1241 4097 
L 1241 0 
L 628 0 
L 628 4666 
z
" transform="scale(0.015625)"/>
       </defs>
       <use xlink:href="#DejaVuSans-4d"/>
       <use xlink:href="#DejaVuSans-65" x="86.279297"/>
       <use xlink:href="#DejaVuSans-64" x="147.802734"/>
       <use xlink:href="#DejaVuSans-69" x="211.279297"/>
       <use xlink:href="#DejaVuSans-6f" x="239.0625"/>
       <use xlink:href="#DejaVuSans-63" x="300.244141"/>
       <use xlink:href="#DejaVuSans-72" x="355.224609"/>
       <use xlink:href="#DejaVuSans-65" x="394.087891"/>
       <use xlink:href="#DejaVuSans-20" x="455.611328"/>
       <use xlink:href="#DejaVuSans-51" x="487.398438"/>
       <use xlink:href="#DejaVuSans-4c" x="566.109375"/>
       <use xlink:href="#DejaVuSans-65" x="620.072266"/>
       <use xlink:href="#DejaVuSans-61" x="681.595703"/>
       <use xlink:href="#DejaVuSans-72" x="742.875"/>
       <use xlink:href="#DejaVuSans-6e" x="782.238281"/>
       <use xlink:href="#DejaVuSans-65" x="845.617188"/>
       <use xlink:href="#DejaVuSans-72" x="907.140625"/>
      </g>
     </g>
    </g>
   </g>
   <g id="matplotlib.axis_2">
    <g id="ytick_1">
     <g id="line2d_11">
      <defs>
       <path id="mca87afc216" d="M 0 0 
L -3.5 0 
" style="stroke: #000000; stroke-width: 0.8"/>
      </defs>
      <g>
       <use xlink:href="#mca87afc216" x="35.71" y="335.900665" style="stroke: #000000; stroke-width: 0.8"/>
      </g>
     </g>
     <g id="text_11">
      <!-- 1.50 -->
      <g transform="translate(10.8975 338.94004)scale(0.08 -0.08)">
       <defs>
        <path id="DejaVuSans-31" d="M 794 531 
L 1825 531 
L 1825 4091 
L 703 3866 
L 703 4441 
L 1819 4666 
L 2450 4666 
L 2450 531 
L 3481 531 
L 3481 0 
L 794 0 
L 794 531 
z
" transform="scale(0.015625)"/>
       </defs>
       <use xlink:href="#DejaVuSans-31"/>
       <use xlink:href="#DejaVuSans-2e" x="63.623047"/>
       <use xlink:href="#DejaVuSans-35" x="95.410156"/>
       <use xlink:href="#DejaVuSans-30" x="159.033203"/>
      </g>
     </g>
    </g>
    <g id="ytick_2">
     <g id="line2d_12">
      <g>
       <use xlink:href="#mca87afc216" x="35.71" y="297.100637" style="stroke: #000000; stroke-width: 0.8"/>
      </g>
     </g>
     <g id="text_12">
      <!-- 1.75 -->
      <g transform="translate(10.8975 300.140012)scale(0.08 -0.08)">
       <defs>
        <path id="DejaVuSans-37" d="M 525 4666 
L 3525 4666 
L 3525 4397 
L 1831 0 
L 1172 0 
L 2766 4134 
L 525 4134 
L 525 4666 
z
" transform="scale(0.015625)"/>
       </defs>
       <use xlink:href="#DejaVuSans-31"/>
       <use xlink:href="#DejaVuSans-2e" x="63.623047"/>
       <use xlink:href="#DejaVuSans-37" x="95.410156"/>
       <use xlink:href="#DejaVuSans-35" x="159.033203"/>
      </g>
     </g>
    </g>
    <g id="ytick_3">
     <g id="line2d_13">
      <g>
       <use xlink:href="#mca87afc216" x="35.71" y="258.30061" style="stroke: #000000; stroke-width: 0.8"/>
      </g>
     </g>
     <g id="text_13">
      <!-- 2.00 -->
      <g transform="translate(10.8975 261.339985)scale(0.08 -0.08)">
       <defs>
        <path id="DejaVuSans-32" d="M 1228 531 
L 3431 531 
L 3431 0 
L 469 0 
L 469 531 
Q 828 903 1448 1529 
Q 2069 2156 2228 2338 
Q 2531 2678 2651 2914 
Q 2772 3150 2772 3378 
Q 2772 3750 2511 3984 
Q 2250 4219 1831 4219 
Q 1534 4219 1204 4116 
Q 875 4013 500 3803 
L 500 4441 
Q 881 4594 1212 4672 
Q 1544 4750 1819 4750 
Q 2544 4750 2975 4387 
Q 3406 4025 3406 3419 
Q 3406 3131 3298 2873 
Q 3191 2616 2906 2266 
Q 2828 2175 2409 1742 
Q 1991 1309 1228 531 
z
" transform="scale(0.015625)"/>
       </defs>
       <use xlink:href="#DejaVuSans-32"/>
       <use xlink:href="#DejaVuSans-2e" x="63.623047"/>
       <use xlink:href="#DejaVuSans-30" x="95.410156"/>
       <use xlink:href="#DejaVuSans-30" x="159.033203"/>
      </g>
     </g>
    </g>
    <g id="ytick_4">
     <g id="line2d_14">
      <g>
       <use xlink:href="#mca87afc216" x="35.71" y="219.500582" style="stroke: #000000; stroke-width: 0.8"/>
      </g>
     </g>
     <g id="text_14">
      <!-- 2.25 -->
      <g transform="translate(10.8975 222.539957)scale(0.08 -0.08)">
       <use xlink:href="#DejaVuSans-32"/>
       <use xlink:href="#DejaVuSans-2e" x="63.623047"/>
       <use xlink:href="#DejaVuSans-32" x="95.410156"/>
       <use xlink:href="#DejaVuSans-35" x="159.033203"/>
      </g>
     </g>
    </g>
    <g id="ytick_5">
     <g id="line2d_15">
      <g>
       <use xlink:href="#mca87afc216" x="35.71" y="180.700554" style="stroke: #000000; stroke-width: 0.8"/>
      </g>
     </g>
     <g id="text_15">
      <!-- 2.50 -->
      <g transform="translate(10.8975 183.739929)scale(0.08 -0.08)">
       <use xlink:href="#DejaVuSans-32"/>
       <use xlink:href="#DejaVuSans-2e" x="63.623047"/>
       <use xlink:href="#DejaVuSans-35" x="95.410156"/>
       <use xlink:href="#DejaVuSans-30" x="159.033203"/>
      </g>
     </g>
    </g>
    <g id="ytick_6">
     <g id="line2d_16">
      <g>
       <use xlink:href="#mca87afc216" x="35.71" y="141.900527" style="stroke: #000000; stroke-width: 0.8"/>
      </g>
     </g>
     <g id="text_16">
      <!-- 2.75 -->
      <g transform="translate(10.8975 144.939902)scale(0.08 -0.08)">
       <use xlink:href="#DejaVuSans-32"/>
       <use xlink:href="#DejaVuSans-2e" x="63.623047"/>
       <use xlink:href="#DejaVuSans-37" x="95.410156"/>
       <use xlink:href="#DejaVuSans-35" x="159.033203"/>
      </g>
     </g>
    </g>
    <g id="ytick_7">
     <g id="line2d_17">
      <g>
       <use xlink:href="#mca87afc216" x="35.71" y="103.100499" style="stroke: #000000; stroke-width: 0.8"/>
      </g>
     </g>
     <g id="text_17">
      <!-- 3.00 -->
      <g transform="translate(10.8975 106.139874)scale(0.08 -0.08)">
       <defs>
        <path id="DejaVuSans-33" d="M 2597 2516 
Q 3050 2419 3304 2112 
Q 3559 1806 3559 1356 
Q 3559 666 3084 287 
Q 2609 -91 1734 -91 
Q 1441 -91 1130 -33 
Q 819 25 488 141 
L 488 750 
Q 750 597 1062 519 
Q 1375 441 1716 441 
Q 2309 441 2620 675 
Q 2931 909 2931 1356 
Q 2931 1769 2642 2001 
Q 2353 2234 1838 2234 
L 1294 2234 
L 1294 2753 
L 1863 2753 
Q 2328 2753 2575 2939 
Q 2822 3125 2822 3475 
Q 2822 3834 2567 4026 
Q 2313 4219 1838 4219 
Q 1578 4219 1281 4162 
Q 984 4106 628 3988 
L 628 4550 
Q 988 4650 1302 4700 
Q 1616 4750 1894 4750 
Q 2613 4750 3031 4423 
Q 3450 4097 3450 3541 
Q 3450 3153 3228 2886 
Q 3006 2619 2597 2516 
z
" transform="scale(0.015625)"/>
       </defs>
       <use xlink:href="#DejaVuSans-33"/>
       <use xlink:href="#DejaVuSans-2e" x="63.623047"/>
       <use xlink:href="#DejaVuSans-30" x="95.410156"/>
       <use xlink:href="#DejaVuSans-30" x="159.033203"/>
      </g>
     </g>
    </g>
    <g id="ytick_8">
     <g id="line2d_18">
      <g>
       <use xlink:href="#mca87afc216" x="35.71" y="64.300471" style="stroke: #000000; stroke-width: 0.8"/>
      </g>
     </g>
     <g id="text_18">
      <!-- 3.25 -->
      <g transform="translate(10.8975 67.339846)scale(0.08 -0.08)">
       <use xlink:href="#DejaVuSans-33"/>
       <use xlink:href="#DejaVuSans-2e" x="63.623047"/>
       <use xlink:href="#DejaVuSans-32" x="95.410156"/>
       <use xlink:href="#DejaVuSans-35" x="159.033203"/>
      </g>
     </g>
    </g>
   </g>
   <g id="LineCollection_1">
    <path d="M 100.737614 101.376053 
L 119.316932 101.376053 
" clip-path="url(#p613908326f)" style="fill: none; stroke: #1f77b4; stroke-width: 1.5"/>
    <path d="M 175.054886 137.589412 
L 193.634205 137.589412 
" clip-path="url(#p613908326f)" style="fill: none; stroke: #1f77b4; stroke-width: 1.5"/>
    <path d="M 249.372159 141.038304 
L 267.951477 141.038304 
" clip-path="url(#p613908326f)" style="fill: none; stroke: #1f77b4; stroke-width: 1.5"/>
    <path d="M 323.689432 191.047228 
L 342.26875 191.047228 
" clip-path="url(#p613908326f)" style="fill: none; stroke: #1f77b4; stroke-width: 1.5"/>
    <path d="M 398.006705 203.54946 
L 416.586023 203.54946 
" clip-path="url(#p613908326f)" style="fill: none; stroke: #1f77b4; stroke-width: 1.5"/>
    <path d="M 472.323977 208.722797 
L 490.903295 208.722797 
" clip-path="url(#p613908326f)" style="fill: none; stroke: #1f77b4; stroke-width: 1.5"/>
    <path d="M 546.64125 214.327245 
L 565.220568 214.327245 
" clip-path="url(#p613908326f)" style="fill: none; stroke: #1f77b4; stroke-width: 1.5"/>
    <path d="M 620.958523 253.127273 
L 639.537841 253.127273 
" clip-path="url(#p613908326f)" style="fill: none; stroke: #1f77b4; stroke-width: 1.5"/>
    <path d="M 695.275795 260.025055 
L 713.855114 260.025055 
" clip-path="url(#p613908326f)" style="fill: none; stroke: #1f77b4; stroke-width: 1.5"/>
    <path d="M 769.593068 271.665064 
L 788.172386 271.665064 
" clip-path="url(#p613908326f)" style="fill: none; stroke: #1f77b4; stroke-width: 1.5"/>
   </g>
   <g id="patch_3">
    <path d="M 35.71 337.97 
L 35.71 26.88 
" style="fill: none; stroke: #000000; stroke-width: 0.8; stroke-linejoin: miter; stroke-linecap: square"/>
   </g>
   <g id="patch_4">
    <path d="M 853.2 337.97 
L 853.2 26.88 
" style="fill: none; stroke: #000000; stroke-width: 0.8; stroke-linejoin: miter; stroke-linecap: square"/>
   </g>
   <g id="patch_5">
    <path d="M 35.71 337.97 
L 853.2 337.97 
" style="fill: none; stroke: #000000; stroke-width: 0.8; stroke-linejoin: miter; stroke-linecap: square"/>
   </g>
   <g id="patch_6">
    <path d="M 35.71 26.88 
L 853.2 26.88 
" style="fill: none; stroke: #000000; stroke-width: 0.8; stroke-linejoin: miter; stroke-linecap: square"/>
   </g>
   <g id="text_19">
    <!-- Payoff - turns: 200, repetitions: 20, strategies: 10.  -->
    <g transform="translate(292.491875 20.88)scale(0.12 -0.12)">
     <defs>
      <path id="DejaVuSans-50" d="M 1259 4147 
L 1259 2394 
L 2053 2394 
Q 2494 2394 2734 2622 
Q 2975 2850 2975 3272 
Q 2975 3691 2734 3919 
Q 2494 4147 2053 4147 
L 1259 4147 
z
M 628 4666 
L 2053 4666 
Q 2838 4666 3239 4311 
Q 3641 3956 3641 3272 
Q 3641 2581 3239 2228 
Q 2838 1875 2053 1875 
L 1259 1875 
L 1259 0 
L 628 0 
L 628 4666 
z
" transform="scale(0.015625)"/>
      <path id="DejaVuSans-2d" d="M 313 2009 
L 1997 2009 
L 1997 1497 
L 313 1497 
L 313 2009 
z
" transform="scale(0.015625)"/>
      <path id="DejaVuSans-2c" d="M 750 794 
L 1409 794 
L 1409 256 
L 897 -744 
L 494 -744 
L 750 256 
L 750 794 
z
" transform="scale(0.015625)"/>
     </defs>
     <use xlink:href="#DejaVuSans-50"/>
     <use xlink:href="#DejaVuSans-61" x="55.802734"/>
     <use xlink:href="#DejaVuSans-79" x="117.082031"/>
     <use xlink:href="#DejaVuSans-6f" x="176.261719"/>
     <use xlink:href="#DejaVuSans-66" x="237.443359"/>
     <use xlink:href="#DejaVuSans-66" x="272.648438"/>
     <use xlink:href="#DejaVuSans-20" x="307.853516"/>
     <use xlink:href="#DejaVuSans-2d" x="339.640625"/>
     <use xlink:href="#DejaVuSans-20" x="375.724609"/>
     <use xlink:href="#DejaVuSans-74" x="407.511719"/>
     <use xlink:href="#DejaVuSans-75" x="446.720703"/>
     <use xlink:href="#DejaVuSans-72" x="510.099609"/>
     <use xlink:href="#DejaVuSans-6e" x="549.462891"/>
     <use xlink:href="#DejaVuSans-73" x="612.841797"/>
     <use xlink:href="#DejaVuSans-3a" x="664.941406"/>
     <use xlink:href="#DejaVuSans-20" x="698.632812"/>
     <use xlink:href="#DejaVuSans-32" x="730.419922"/>
     <use xlink:href="#DejaVuSans-30" x="794.042969"/>
     <use xlink:href="#DejaVuSans-30" x="857.666016"/>
     <use xlink:href="#DejaVuSans-2c" x="921.289062"/>
     <use xlink:href="#DejaVuSans-20" x="953.076172"/>
     <use xlink:href="#DejaVuSans-72" x="984.863281"/>
     <use xlink:href="#DejaVuSans-65" x="1023.726562"/>
     <use xlink:href="#DejaVuSans-70" x="1085.25"/>
     <use xlink:href="#DejaVuSans-65" x="1148.726562"/>
     <use xlink:href="#DejaVuSans-74" x="1210.25"/>
     <use xlink:href="#DejaVuSans-69" x="1249.458984"/>
     <use xlink:href="#DejaVuSans-74" x="1277.242188"/>
     <use xlink:href="#DejaVuSans-69" x="1316.451172"/>
     <use xlink:href="#DejaVuSans-6f" x="1344.234375"/>
     <use xlink:href="#DejaVuSans-6e" x="1405.416016"/>
     <use xlink:href="#DejaVuSans-73" x="1468.794922"/>
     <use xlink:href="#DejaVuSans-3a" x="1520.894531"/>
     <use xlink:href="#DejaVuSans-20" x="1554.585938"/>
     <use xlink:href="#DejaVuSans-32" x="1586.373047"/>
     <use xlink:href="#DejaVuSans-30" x="1649.996094"/>
     <use xlink:href="#DejaVuSans-2c" x="1713.619141"/>
     <use xlink:href="#DejaVuSans-20" x="1745.40625"/>
     <use xlink:href="#DejaVuSans-73" x="1777.193359"/>
     <use xlink:href="#DejaVuSans-74" x="1829.292969"/>
     <use xlink:href="#DejaVuSans-72" x="1868.501953"/>
     <use xlink:href="#DejaVuSans-61" x="1909.615234"/>
     <use xlink:href="#DejaVuSans-74" x="1970.894531"/>
     <use xlink:href="#DejaVuSans-65" x="2010.103516"/>
     <use xlink:href="#DejaVuSans-67" x="2071.626953"/>
     <use xlink:href="#DejaVuSans-69" x="2135.103516"/>
     <use xlink:href="#DejaVuSans-65" x="2162.886719"/>
     <use xlink:href="#DejaVuSans-73" x="2224.410156"/>
     <use xlink:href="#DejaVuSans-3a" x="2276.509766"/>
     <use xlink:href="#DejaVuSans-20" x="2310.201172"/>
     <use xlink:href="#DejaVuSans-31" x="2341.988281"/>
     <use xlink:href="#DejaVuSans-30" x="2405.611328"/>
     <use xlink:href="#DejaVuSans-2e" x="2469.234375"/>
     <use xlink:href="#DejaVuSans-20" x="2501.021484"/>
    </g>
   </g>
  </g>
 </g>
 <defs>
  <clipPath id="p613908326f">
   <rect x="35.71" y="26.88" width="817.49" height="311.09"/>
  </clipPath>
 </defs>
</svg>
