<?xml version="1.0" encoding="utf-8" standalone="no"?>
<!DOCTYPE svg PUBLIC "-//W3C//DTD SVG 1.1//EN"
  "http://www.w3.org/Graphics/SVG/1.1/DTD/svg11.dtd">
<svg xmlns:xlink="http://www.w3.org/1999/xlink" width="864pt" height="432pt" viewBox="0 0 864 432" xmlns="http://www.w3.org/2000/svg" version="1.1">
 <metadata>
  <rdf:RDF xmlns:dc="http://purl.org/dc/elements/1.1/" xmlns:cc="http://creativecommons.org/ns#" xmlns:rdf="http://www.w3.org/1999/02/22-rdf-syntax-ns#">
   <cc:Work>
    <dc:type rdf:resource="http://purl.org/dc/dcmitype/StillImage"/>
    <dc:date>2022-09-25T00:27:33.156122</dc:date>
    <dc:format>image/svg+xml</dc:format>
    <dc:creator>
     <cc:Agent>
      <dc:title>Matplotlib v3.5.1, https://matplotlib.org/</dc:title>
     </cc:Agent>
    </dc:creator>
   </cc:Work>
  </rdf:RDF>
 </metadata>
 <defs>
  <style type="text/css">*{stroke-linejoin: round; stroke-linecap: butt}</style>
 </defs>
 <g id="figure_1">
  <g id="patch_1">
   <path d="M 0 432 
L 864 432 
L 864 0 
L 0 0 
z
" style="fill: #ffffff"/>
  </g>
  <g id="axes_1">
   <g id="patch_2">
    <path d="M 29.68 337.97 
L 853.2 337.97 
L 853.2 26.88 
L 29.68 26.88 
z
" style="fill: #ffffff"/>
   </g>
   <g id="PolyCollection_1">
    <path d="M 122.29802 182.425 
L 86.792889 182.425 
L 86.440466 180.996671 
L 86.167152 179.568343 
L 85.974419 178.140014 
L 85.862239 176.711685 
L 85.829091 175.283356 
L 85.872004 173.855028 
L 85.986648 172.426699 
L 86.167458 170.99837 
L 86.407798 169.570041 
L 86.700152 168.141713 
L 87.036335 166.713384 
L 87.407719 165.285055 
L 87.805458 163.856726 
L 88.220721 162.428398 
L 88.644899 161.000069 
L 89.069807 159.57174 
L 89.487853 158.143411 
L 89.892183 156.715083 
L 90.276787 155.286754 
L 90.636584 153.858425 
L 90.967458 152.430096 
L 91.266275 151.001768 
L 91.530865 149.573439 
L 91.759975 148.14511 
L 91.953209 146.716781 
L 92.110948 145.288453 
L 92.234254 143.860124 
L 92.324783 142.431795 
L 92.38468 141.003466 
L 92.416488 139.575138 
L 92.423063 138.146809 
L 92.40749 136.71848 
L 92.373022 135.290152 
L 92.323011 133.861823 
L 92.260873 132.433494 
L 92.190037 131.005165 
L 92.11392 129.576837 
L 92.035901 128.148508 
L 91.959291 126.720179 
L 91.887319 125.29185 
L 91.8231 123.863522 
L 91.769616 122.435193 
L 91.729683 121.006864 
L 91.70592 119.578535 
L 91.700709 118.150207 
L 91.716158 116.721878 
L 91.75406 115.293549 
L 91.815849 113.86522 
L 91.902563 112.436892 
L 92.014804 111.008563 
L 92.152711 109.580234 
L 92.315933 108.151905 
L 92.503616 106.723577 
L 92.714399 105.295248 
L 92.946416 103.866919 
L 93.197315 102.43859 
L 93.464282 101.010262 
L 93.744083 99.581933 
L 94.033102 98.153604 
L 94.3274 96.725275 
L 94.622773 95.296947 
L 94.914818 93.868618 
L 95.199004 92.440289 
L 95.470738 91.011961 
L 95.725445 89.583632 
L 95.958639 88.155303 
L 96.165998 86.726974 
L 96.343434 85.298646 
L 96.48717 83.870317 
L 96.59381 82.441988 
L 96.660401 81.013659 
L 96.684509 79.585331 
L 96.664274 78.157002 
L 96.598472 76.728673 
L 96.48657 75.300344 
L 96.328769 73.872016 
L 96.126044 72.443687 
L 95.880175 71.015358 
L 95.593759 69.587029 
L 95.270215 68.158701 
L 94.913768 66.730372 
L 94.529419 65.302043 
L 94.122891 63.873714 
L 93.700564 62.445386 
L 93.269376 61.017057 
L 92.836723 59.588728 
L 92.410323 58.160399 
L 91.998078 56.732071 
L 91.607914 55.303742 
L 91.247621 53.875413 
L 90.924679 52.447084 
L 90.646095 51.018756 
L 90.418235 49.590427 
L 90.24668 48.162098 
L 90.136085 46.73377 
L 90.09007 45.305441 
L 90.111131 43.877112 
L 90.200579 42.448783 
L 90.358515 41.020455 
L 118.732394 41.020455 
L 118.732394 41.020455 
L 118.89033 42.448783 
L 118.979778 43.877112 
L 119.000839 45.305441 
L 118.954824 46.73377 
L 118.844229 48.162098 
L 118.672674 49.590427 
L 118.444814 51.018756 
L 118.16623 52.447084 
L 117.843288 53.875413 
L 117.482995 55.303742 
L 117.092831 56.732071 
L 116.680586 58.160399 
L 116.254186 59.588728 
L 115.821533 61.017057 
L 115.390346 62.445386 
L 114.968018 63.873714 
L 114.56149 65.302043 
L 114.177141 66.730372 
L 113.820694 68.158701 
L 113.49715 69.587029 
L 113.210734 71.015358 
L 112.964865 72.443687 
L 112.76214 73.872016 
L 112.604339 75.300344 
L 112.492437 76.728673 
L 112.426635 78.157002 
L 112.4064 79.585331 
L 112.430508 81.013659 
L 112.497099 82.441988 
L 112.603739 83.870317 
L 112.747475 85.298646 
L 112.924912 86.726974 
L 113.13227 88.155303 
L 113.365464 89.583632 
L 113.620171 91.011961 
L 113.891906 92.440289 
L 114.176091 93.868618 
L 114.468136 95.296947 
L 114.76351 96.725275 
L 115.057807 98.153604 
L 115.346826 99.581933 
L 115.626627 101.010262 
L 115.893595 102.43859 
L 116.144493 103.866919 
L 116.37651 105.295248 
L 116.587293 106.723577 
L 116.774976 108.151905 
L 116.938198 109.580234 
L 117.076105 111.008563 
L 117.188346 112.436892 
L 117.27506 113.86522 
L 117.336849 115.293549 
L 117.374751 116.721878 
L 117.3902 118.150207 
L 117.384989 119.578535 
L 117.361226 121.006864 
L 117.321293 122.435193 
L 117.267809 123.863522 
L 117.20359 125.29185 
L 117.131618 126.720179 
L 117.055008 128.148508 
L 116.976989 129.576837 
L 116.900872 131.005165 
L 116.830036 132.433494 
L 116.767898 133.861823 
L 116.717888 135.290152 
L 116.683419 136.71848 
L 116.667846 138.146809 
L 116.674421 139.575138 
L 116.706229 141.003466 
L 116.766126 142.431795 
L 116.856655 143.860124 
L 116.979961 145.288453 
L 117.1377 146.716781 
L 117.330934 148.14511 
L 117.560044 149.573439 
L 117.824634 151.001768 
L 118.123451 152.430096 
L 118.454325 153.858425 
L 118.814122 155.286754 
L 119.198726 156.715083 
L 119.603056 158.143411 
L 120.021102 159.57174 
L 120.44601 161.000069 
L 120.870188 162.428398 
L 121.285451 163.856726 
L 121.68319 165.285055 
L 122.054574 166.713384 
L 122.390757 168.141713 
L 122.683111 169.570041 
L 122.923451 170.99837 
L 123.104261 172.426699 
L 123.218905 173.855028 
L 123.261818 175.283356 
L 123.22867 176.711685 
L 123.11649 178.140014 
L 122.923757 179.568343 
L 122.650443 180.996671 
L 122.29802 182.425 
z
" clip-path="url(#p188546d5cd)" style="fill: #1f77b4; fill-opacity: 0.3"/>
   </g>
   <g id="PolyCollection_2">
    <path d="M 181.210274 274.337955 
L 177.611545 274.337955 
L 177.306451 272.409711 
L 176.960494 270.481467 
L 176.571526 268.553223 
L 176.138128 266.624979 
L 175.659793 264.696736 
L 175.137091 262.768492 
L 174.57182 260.840248 
L 173.967114 258.912004 
L 173.327509 256.98376 
L 172.658959 255.055517 
L 171.968775 253.127273 
L 171.265508 251.199029 
L 170.558754 249.270785 
L 169.858891 247.342541 
L 169.17676 245.414298 
L 168.523281 243.486054 
L 167.909049 241.55781 
L 167.343892 239.629566 
L 166.836447 237.701322 
L 166.393753 235.773079 
L 166.020888 233.844835 
L 165.720684 231.916591 
L 165.493527 229.988347 
L 165.33726 228.060103 
L 165.247213 226.13186 
L 165.216346 224.203616 
L 165.235519 222.275372 
L 165.293873 220.347128 
L 165.379306 218.418884 
L 165.47903 216.49064 
L 165.580165 214.562397 
L 165.670357 212.634153 
L 165.738373 210.705909 
L 165.774638 208.777665 
L 165.771697 206.849421 
L 165.724557 204.921178 
L 165.630895 202.992934 
L 165.491131 201.06469 
L 165.308338 199.136446 
L 165.088024 197.208202 
L 164.837778 195.279959 
L 164.566824 193.351715 
L 164.285499 191.423471 
L 164.004702 189.495227 
L 163.735341 187.566983 
L 163.48782 185.63874 
L 163.271596 183.710496 
L 163.094828 181.782252 
L 162.964132 179.854008 
L 162.884458 177.925764 
L 162.859069 175.997521 
L 162.889628 174.069277 
L 162.976358 172.141033 
L 163.118257 170.212789 
L 163.313348 168.284545 
L 163.558912 166.356302 
L 163.851716 164.428058 
L 164.188183 162.499814 
L 164.564511 160.57157 
L 164.97673 158.643326 
L 165.420691 156.715083 
L 165.892016 154.786839 
L 166.385997 152.858595 
L 166.897475 150.930351 
L 167.420724 149.002107 
L 167.949342 147.073864 
L 168.476173 145.14562 
L 168.993286 143.217376 
L 169.491994 141.289132 
L 169.962944 139.360888 
L 170.396261 137.432645 
L 170.781751 135.504401 
L 171.109162 133.576157 
L 171.368475 131.647913 
L 171.550241 129.719669 
L 171.645931 127.791426 
L 171.648295 125.863182 
L 171.551724 123.934938 
L 171.352586 122.006694 
L 171.04954 120.07845 
L 170.643797 118.150207 
L 170.13933 116.221963 
L 169.542998 114.293719 
L 168.864598 112.365475 
L 168.116802 110.437231 
L 167.314993 108.508988 
L 166.476984 106.580744 
L 165.622618 104.6525 
L 164.773263 102.724256 
L 163.951202 100.796012 
L 163.178947 98.867769 
L 162.478502 96.939525 
L 161.870601 95.011281 
L 161.373961 93.083037 
L 161.004583 91.154793 
L 160.775152 89.22655 
L 160.694545 87.298306 
L 160.767503 85.370062 
L 160.994461 83.441818 
L 197.827357 83.441818 
L 197.827357 83.441818 
L 198.054316 85.370062 
L 198.127273 87.298306 
L 198.046666 89.22655 
L 197.817235 91.154793 
L 197.447857 93.083037 
L 196.951217 95.011281 
L 196.343316 96.939525 
L 195.642872 98.867769 
L 194.870617 100.796012 
L 194.048555 102.724256 
L 193.1992 104.6525 
L 192.344834 106.580744 
L 191.506825 108.508988 
L 190.705016 110.437231 
L 189.95722 112.365475 
L 189.27882 114.293719 
L 188.682488 116.221963 
L 188.178021 118.150207 
L 187.772278 120.07845 
L 187.469232 122.006694 
L 187.270095 123.934938 
L 187.173523 125.863182 
L 187.175887 127.791426 
L 187.271577 129.719669 
L 187.453343 131.647913 
L 187.712656 133.576157 
L 188.040067 135.504401 
L 188.425558 137.432645 
L 188.858874 139.360888 
L 189.329824 141.289132 
L 189.828532 143.217376 
L 190.345645 145.14562 
L 190.872477 147.073864 
L 191.401094 149.002107 
L 191.924343 150.930351 
L 192.435822 152.858595 
L 192.929802 154.786839 
L 193.401127 156.715083 
L 193.845089 158.643326 
L 194.257307 160.57157 
L 194.633635 162.499814 
L 194.970102 164.428058 
L 195.262906 166.356302 
L 195.508471 168.284545 
L 195.703561 170.212789 
L 195.845461 172.141033 
L 195.93219 174.069277 
L 195.962749 175.997521 
L 195.937361 177.925764 
L 195.857686 179.854008 
L 195.726991 181.782252 
L 195.550222 183.710496 
L 195.333998 185.63874 
L 195.086477 187.566983 
L 194.817116 189.495227 
L 194.536319 191.423471 
L 194.254995 193.351715 
L 193.98404 195.279959 
L 193.733794 197.208202 
L 193.51348 199.136446 
L 193.330687 201.06469 
L 193.190923 202.992934 
L 193.097261 204.921178 
L 193.050121 206.849421 
L 193.04718 208.777665 
L 193.083445 210.705909 
L 193.151461 212.634153 
L 193.241653 214.562397 
L 193.342788 216.49064 
L 193.442512 218.418884 
L 193.527945 220.347128 
L 193.586299 222.275372 
L 193.605472 224.203616 
L 193.574605 226.13186 
L 193.484558 228.060103 
L 193.328291 229.988347 
L 193.101134 231.916591 
L 192.80093 233.844835 
L 192.428065 235.773079 
L 191.985371 237.701322 
L 191.477927 239.629566 
L 190.91277 241.55781 
L 190.298537 243.486054 
L 189.645058 245.414298 
L 188.962927 247.342541 
L 188.263065 249.270785 
L 187.55631 251.199029 
L 186.853043 253.127273 
L 186.162859 255.055517 
L 185.494309 256.98376 
L 184.854705 258.912004 
L 184.249998 260.840248 
L 183.684727 262.768492 
L 183.162025 264.696736 
L 182.68369 266.624979 
L 182.250292 268.553223 
L 181.861324 270.481467 
L 181.515367 272.409711 
L 181.210274 274.337955 
z
" clip-path="url(#p188546d5cd)" style="fill: #1f77b4; fill-opacity: 0.3"/>
   </g>
   <g id="PolyCollection_3">
    <path d="M 271.133332 189.495227 
L 237.419395 189.495227 
L 236.682246 188.209731 
L 236.11572 186.924236 
L 235.737692 185.63874 
L 235.56 184.353244 
L 235.587767 183.067748 
L 235.81909 181.782252 
L 236.245131 180.496756 
L 236.850588 179.21126 
L 237.614535 177.925764 
L 238.511544 176.640269 
L 239.513017 175.354773 
L 240.588628 174.069277 
L 241.70776 172.783781 
L 242.840862 171.498285 
L 243.960617 170.212789 
L 245.042883 168.927293 
L 246.06734 167.641798 
L 247.017856 166.356302 
L 247.882562 165.070806 
L 248.653673 163.78531 
L 249.327109 162.499814 
L 249.901956 161.214318 
L 250.37984 159.928822 
L 250.76427 158.643326 
L 251.059988 157.357831 
L 251.272396 156.072335 
L 251.407072 154.786839 
L 251.469401 153.501343 
L 251.464339 152.215847 
L 251.396306 150.930351 
L 251.269204 149.644855 
L 251.086541 148.35936 
L 250.85164 147.073864 
L 250.567923 145.788368 
L 250.23921 144.502872 
L 249.870039 143.217376 
L 249.465944 141.93188 
L 249.03368 140.646384 
L 248.581355 139.360888 
L 248.118453 138.075393 
L 247.655736 136.789897 
L 247.205005 135.504401 
L 246.778745 134.218905 
L 246.389654 132.933409 
L 246.050096 131.647913 
L 245.771503 130.362417 
L 245.563784 129.076921 
L 245.434775 127.791426 
L 245.389781 126.50593 
L 245.431246 125.220434 
L 245.55858 123.934938 
L 245.76817 122.649442 
L 246.053553 121.363946 
L 246.405768 120.07845 
L 246.813837 118.792955 
L 247.265345 117.507459 
L 247.747089 116.221963 
L 248.245724 114.936467 
L 248.748386 113.650971 
L 249.243232 112.365475 
L 249.719884 111.079979 
L 250.169748 109.794483 
L 250.586194 108.508988 
L 250.964613 107.223492 
L 251.302355 105.937996 
L 251.598564 104.6525 
L 251.853942 103.367004 
L 252.070459 102.081508 
L 252.251048 100.796012 
L 252.39929 99.510517 
L 252.519127 98.225021 
L 252.614604 96.939525 
L 252.689662 95.654029 
L 252.747975 94.368533 
L 252.792843 93.083037 
L 252.827129 91.797541 
L 252.853243 90.512045 
L 252.873159 89.22655 
L 252.88846 87.941054 
L 252.900398 86.655558 
L 252.90997 85.370062 
L 252.917993 84.084566 
L 252.925169 82.79907 
L 252.932147 81.513574 
L 252.93957 80.228079 
L 252.948098 78.942583 
L 252.958422 77.657087 
L 252.97126 76.371591 
L 252.987328 75.086095 
L 253.00732 73.800599 
L 253.031856 72.515103 
L 253.061449 71.229607 
L 253.096463 69.944112 
L 253.137076 68.658616 
L 253.183261 67.37312 
L 253.234769 66.087624 
L 253.29114 64.802128 
L 253.35171 63.516632 
L 253.415648 62.231136 
L 255.137079 62.231136 
L 255.137079 62.231136 
L 255.201017 63.516632 
L 255.261587 64.802128 
L 255.317958 66.087624 
L 255.369467 67.37312 
L 255.415651 68.658616 
L 255.456264 69.944112 
L 255.491278 71.229607 
L 255.520872 72.515103 
L 255.545408 73.800599 
L 255.565399 75.086095 
L 255.581468 76.371591 
L 255.594305 77.657087 
L 255.60463 78.942583 
L 255.613157 80.228079 
L 255.62058 81.513574 
L 255.627558 82.79907 
L 255.634734 84.084566 
L 255.642757 85.370062 
L 255.65233 86.655558 
L 255.664268 87.941054 
L 255.679568 89.22655 
L 255.699484 90.512045 
L 255.725598 91.797541 
L 255.759884 93.083037 
L 255.804752 94.368533 
L 255.863065 95.654029 
L 255.938123 96.939525 
L 256.0336 98.225021 
L 256.153437 99.510517 
L 256.301679 100.796012 
L 256.482268 102.081508 
L 256.698786 103.367004 
L 256.954163 104.6525 
L 257.250372 105.937996 
L 257.588114 107.223492 
L 257.966533 108.508988 
L 258.382979 109.794483 
L 258.832843 111.079979 
L 259.309496 112.365475 
L 259.804341 113.650971 
L 260.307003 114.936467 
L 260.805639 116.221963 
L 261.287382 117.507459 
L 261.738891 118.792955 
L 262.146959 120.07845 
L 262.499174 121.363946 
L 262.784558 122.649442 
L 262.994147 123.934938 
L 263.121481 125.220434 
L 263.162946 126.50593 
L 263.117952 127.791426 
L 262.988944 129.076921 
L 262.781225 130.362417 
L 262.502632 131.647913 
L 262.163073 132.933409 
L 261.773982 134.218905 
L 261.347722 135.504401 
L 260.896991 136.789897 
L 260.434274 138.075393 
L 259.971372 139.360888 
L 259.519047 140.646384 
L 259.086783 141.93188 
L 258.682689 143.217376 
L 258.313518 144.502872 
L 257.984805 145.788368 
L 257.701087 147.073864 
L 257.466187 148.35936 
L 257.283523 149.644855 
L 257.156421 150.930351 
L 257.088389 152.215847 
L 257.083326 153.501343 
L 257.145655 154.786839 
L 257.280331 156.072335 
L 257.49274 157.357831 
L 257.788458 158.643326 
L 258.172887 159.928822 
L 258.650772 161.214318 
L 259.225619 162.499814 
L 259.899054 163.78531 
L 260.670165 165.070806 
L 261.534871 166.356302 
L 262.485387 167.641798 
L 263.509844 168.927293 
L 264.59211 170.212789 
L 265.711866 171.498285 
L 266.844967 172.783781 
L 267.964099 174.069277 
L 269.03971 175.354773 
L 270.041184 176.640269 
L 270.938193 177.925764 
L 271.702139 179.21126 
L 272.307596 180.496756 
L 272.733637 181.782252 
L 272.964961 183.067748 
L 272.992727 184.353244 
L 272.815035 185.63874 
L 272.437007 186.924236 
L 271.870481 188.209731 
L 271.133332 189.495227 
z
" clip-path="url(#p188546d5cd)" style="fill: #1f77b4; fill-opacity: 0.3"/>
   </g>
   <g id="PolyCollection_4">
    <path d="M 330.676519 323.829545 
L 327.607118 323.829545 
L 327.524664 320.972888 
L 327.445005 318.11623 
L 327.365958 315.259573 
L 327.285101 312.402916 
L 327.200068 309.546258 
L 327.10884 306.689601 
L 327.01 303.832943 
L 326.902925 300.976286 
L 326.787875 298.119628 
L 326.665991 295.262971 
L 326.539198 292.406313 
L 326.410027 289.549656 
L 326.281399 286.692998 
L 326.156391 283.836341 
L 326.038018 280.979683 
L 325.929047 278.123026 
L 325.831864 275.266368 
L 325.748374 272.409711 
L 325.679933 269.553053 
L 325.627286 266.696396 
L 325.59049 263.839738 
L 325.568789 260.983081 
L 325.56046 258.126423 
L 325.562597 255.269766 
L 325.570874 252.413108 
L 325.579306 249.556451 
L 325.580044 246.699793 
L 325.56325 243.843136 
L 325.517103 240.986478 
L 325.427963 238.129821 
L 325.280751 235.273163 
L 325.059546 232.416506 
L 324.748421 229.559848 
L 324.332494 226.703191 
L 323.799169 223.846534 
L 323.139493 220.989876 
L 322.349534 218.133219 
L 321.431672 215.276561 
L 320.395656 212.419904 
L 319.25927 209.563246 
L 318.048487 206.706589 
L 316.796985 203.849931 
L 315.544956 200.993274 
L 314.33723 198.136616 
L 313.220786 195.279959 
L 312.241811 192.423301 
L 311.44256 189.566644 
L 310.858299 186.709986 
L 310.514622 183.853329 
L 310.425455 180.996671 
L 310.591938 178.140014 
L 311.002344 175.283356 
L 311.63303 172.426699 
L 312.450337 169.570041 
L 313.413229 166.713384 
L 314.476396 163.856726 
L 315.593498 161.000069 
L 316.720246 158.143411 
L 317.817033 155.286754 
L 318.850939 152.430096 
L 319.796987 149.573439 
L 320.638629 146.716781 
L 321.367549 143.860124 
L 321.982893 141.003466 
L 322.490086 138.146809 
L 322.899422 135.290152 
L 323.224575 132.433494 
L 323.481157 129.576837 
L 323.685428 126.720179 
L 323.853202 123.863522 
L 323.99898 121.006864 
L 324.135314 118.150207 
L 324.272371 115.293549 
L 324.417703 112.436892 
L 324.576168 109.580234 
L 324.750002 106.723577 
L 324.939011 103.866919 
L 325.140861 101.010262 
L 325.351454 98.153604 
L 325.565357 95.296947 
L 325.776273 92.440289 
L 325.977533 89.583632 
L 326.162576 86.726974 
L 326.325411 83.870317 
L 326.461031 81.013659 
L 326.565774 78.157002 
L 326.637604 75.300344 
L 326.676303 72.443687 
L 326.683559 69.587029 
L 326.662944 66.730372 
L 326.619767 63.873714 
L 326.560801 61.017057 
L 326.4939 58.160399 
L 326.427524 55.303742 
L 326.370184 52.447084 
L 326.329878 49.590427 
L 326.313533 46.73377 
L 326.326535 43.877112 
L 326.372355 41.020455 
L 331.911281 41.020455 
L 331.911281 41.020455 
L 331.957102 43.877112 
L 331.970103 46.73377 
L 331.953759 49.590427 
L 331.913452 52.447084 
L 331.856112 55.303742 
L 331.789736 58.160399 
L 331.722836 61.017057 
L 331.663869 63.873714 
L 331.620692 66.730372 
L 331.600078 69.587029 
L 331.607334 72.443687 
L 331.646032 75.300344 
L 331.717862 78.157002 
L 331.822605 81.013659 
L 331.958226 83.870317 
L 332.12106 86.726974 
L 332.306104 89.583632 
L 332.507364 92.440289 
L 332.71828 95.296947 
L 332.932182 98.153604 
L 333.142775 101.010262 
L 333.344626 103.866919 
L 333.533635 106.723577 
L 333.707469 109.580234 
L 333.865933 112.436892 
L 334.011265 115.293549 
L 334.148323 118.150207 
L 334.284656 121.006864 
L 334.430434 123.863522 
L 334.598208 126.720179 
L 334.802479 129.576837 
L 335.059061 132.433494 
L 335.384214 135.290152 
L 335.79355 138.146809 
L 336.300743 141.003466 
L 336.916087 143.860124 
L 337.645008 146.716781 
L 338.48665 149.573439 
L 339.432697 152.430096 
L 340.466604 155.286754 
L 341.563391 158.143411 
L 342.690138 161.000069 
L 343.807241 163.856726 
L 344.870408 166.713384 
L 345.8333 169.570041 
L 346.650606 172.426699 
L 347.281292 175.283356 
L 347.691698 178.140014 
L 347.858182 180.996671 
L 347.769014 183.853329 
L 347.425338 186.709986 
L 346.841076 189.566644 
L 346.041826 192.423301 
L 345.06285 195.279959 
L 343.946406 198.136616 
L 342.738681 200.993274 
L 341.486651 203.849931 
L 340.235149 206.706589 
L 339.024367 209.563246 
L 337.887981 212.419904 
L 336.851964 215.276561 
L 335.934103 218.133219 
L 335.144144 220.989876 
L 334.484467 223.846534 
L 333.951143 226.703191 
L 333.535216 229.559848 
L 333.22409 232.416506 
L 333.002885 235.273163 
L 332.855673 238.129821 
L 332.766533 240.986478 
L 332.720386 243.843136 
L 332.703593 246.699793 
L 332.704331 249.556451 
L 332.712763 252.413108 
L 332.72104 255.269766 
L 332.723176 258.126423 
L 332.714847 260.983081 
L 332.693147 263.839738 
L 332.65635 266.696396 
L 332.603704 269.553053 
L 332.535263 272.409711 
L 332.451772 275.266368 
L 332.354589 278.123026 
L 332.245618 280.979683 
L 332.127245 283.836341 
L 332.002238 286.692998 
L 331.87361 289.549656 
L 331.744439 292.406313 
L 331.617645 295.262971 
L 331.495762 298.119628 
L 331.380711 300.976286 
L 331.273636 303.832943 
L 331.174796 306.689601 
L 331.083568 309.546258 
L 330.998535 312.402916 
L 330.917679 315.259573 
L 330.838632 318.11623 
L 330.758972 320.972888 
L 330.676519 323.829545 
z
" clip-path="url(#p188546d5cd)" style="fill: #1f77b4; fill-opacity: 0.3"/>
   </g>
   <g id="PolyCollection_5">
    <path d="M 414.085315 189.495227 
L 393.929231 189.495227 
L 393.947934 189.423811 
L 394.003837 189.352394 
L 394.096319 189.280978 
L 394.224359 189.209562 
L 394.386554 189.138145 
L 394.581145 189.066729 
L 394.806047 188.995312 
L 395.058891 188.923896 
L 395.337057 188.852479 
L 395.637728 188.781063 
L 395.957932 188.709646 
L 396.294592 188.63823 
L 396.644574 188.566814 
L 397.004736 188.495397 
L 397.371974 188.423981 
L 397.743263 188.352564 
L 398.115699 188.281148 
L 398.48653 188.209731 
L 398.853193 188.138315 
L 399.21333 188.066899 
L 399.564817 187.995482 
L 399.90577 187.924066 
L 400.234558 187.852649 
L 400.549808 187.781233 
L 400.850398 187.709816 
L 401.135454 187.6384 
L 401.404342 187.566983 
L 401.656651 187.495567 
L 401.892177 187.424151 
L 402.110907 187.352734 
L 402.312992 187.281318 
L 402.498733 187.209901 
L 402.66855 187.138485 
L 402.822967 187.067068 
L 402.962582 186.995652 
L 403.088049 186.924236 
L 403.200055 186.852819 
L 403.299299 186.781403 
L 403.386476 186.709986 
L 403.462253 186.63857 
L 403.527257 186.567153 
L 403.582062 186.495737 
L 403.627169 186.42432 
L 403.662998 186.352904 
L 403.689877 186.281488 
L 403.708033 186.210071 
L 403.717581 186.138655 
L 403.71852 186.067238 
L 403.710726 185.995822 
L 403.69395 185.924405 
L 403.667811 185.852989 
L 403.631797 185.781573 
L 403.585265 185.710156 
L 403.527443 185.63874 
L 403.457431 185.567323 
L 403.374211 185.495907 
L 403.276649 185.42449 
L 403.16351 185.353074 
L 403.03347 185.281657 
L 402.88513 185.210241 
L 402.717038 185.138825 
L 402.527707 185.067408 
L 402.315645 184.995992 
L 402.079377 184.924575 
L 401.817483 184.853159 
L 401.528628 184.781742 
L 401.211599 184.710326 
L 400.865343 184.63891 
L 400.48901 184.567493 
L 400.081989 184.496077 
L 399.643949 184.42466 
L 399.174881 184.353244 
L 398.675134 184.281827 
L 398.145448 184.210411 
L 397.586982 184.138994 
L 397.001344 184.067578 
L 396.390602 183.996162 
L 395.757302 183.924745 
L 395.104464 183.853329 
L 394.435579 183.781912 
L 393.754591 183.710496 
L 393.065871 183.639079 
L 392.374181 183.567663 
L 391.684626 183.496247 
L 391.002599 183.42483 
L 390.333716 183.353414 
L 389.683742 183.281997 
L 389.058512 183.210581 
L 388.463843 183.139164 
L 387.905451 183.067748 
L 387.388854 182.996331 
L 386.919287 182.924915 
L 386.501609 182.853499 
L 386.140225 182.782082 
L 385.839005 182.710666 
L 385.601216 182.639249 
L 385.429464 182.567833 
L 385.325644 182.496416 
L 385.290909 182.425 
L 422.723636 182.425 
L 422.723636 182.425 
L 422.688901 182.496416 
L 422.585081 182.567833 
L 422.413329 182.639249 
L 422.175541 182.710666 
L 421.874321 182.782082 
L 421.512937 182.853499 
L 421.095259 182.924915 
L 420.625691 182.996331 
L 420.109094 183.067748 
L 419.550702 183.139164 
L 418.956034 183.210581 
L 418.330803 183.281997 
L 417.680829 183.353414 
L 417.011947 183.42483 
L 416.32992 183.496247 
L 415.640365 183.567663 
L 414.948674 183.639079 
L 414.259954 183.710496 
L 413.578966 183.781912 
L 412.910081 183.853329 
L 412.257243 183.924745 
L 411.623943 183.996162 
L 411.013202 184.067578 
L 410.427563 184.138994 
L 409.869098 184.210411 
L 409.339411 184.281827 
L 408.839664 184.353244 
L 408.370597 184.42466 
L 407.932557 184.496077 
L 407.525535 184.567493 
L 407.149202 184.63891 
L 406.802947 184.710326 
L 406.485917 184.781742 
L 406.197062 184.853159 
L 405.935169 184.924575 
L 405.698901 184.995992 
L 405.486838 185.067408 
L 405.297508 185.138825 
L 405.129415 185.210241 
L 404.981076 185.281657 
L 404.851036 185.353074 
L 404.737897 185.42449 
L 404.640335 185.495907 
L 404.557114 185.567323 
L 404.487103 185.63874 
L 404.42928 185.710156 
L 404.382749 185.781573 
L 404.346735 185.852989 
L 404.320596 185.924405 
L 404.303819 185.995822 
L 404.296026 186.067238 
L 404.296965 186.138655 
L 404.306513 186.210071 
L 404.324668 186.281488 
L 404.351548 186.352904 
L 404.387377 186.42432 
L 404.432483 186.495737 
L 404.487288 186.567153 
L 404.552293 186.63857 
L 404.62807 186.709986 
L 404.715246 186.781403 
L 404.814491 186.852819 
L 404.926497 186.924236 
L 405.051963 186.995652 
L 405.191578 187.067068 
L 405.345995 187.138485 
L 405.515813 187.209901 
L 405.701553 187.281318 
L 405.903639 187.352734 
L 406.122368 187.424151 
L 406.357894 187.495567 
L 406.610203 187.566983 
L 406.879092 187.6384 
L 407.164148 187.709816 
L 407.464737 187.781233 
L 407.779987 187.852649 
L 408.108776 187.924066 
L 408.449729 187.995482 
L 408.801215 188.066899 
L 409.161353 188.138315 
L 409.528015 188.209731 
L 409.898847 188.281148 
L 410.271282 188.352564 
L 410.642571 188.423981 
L 411.009809 188.495397 
L 411.369971 188.566814 
L 411.719953 188.63823 
L 412.056613 188.709646 
L 412.376817 188.781063 
L 412.677488 188.852479 
L 412.955655 188.923896 
L 413.208498 188.995312 
L 413.433401 189.066729 
L 413.627992 189.138145 
L 413.790187 189.209562 
L 413.918227 189.280978 
L 414.010709 189.352394 
L 414.066611 189.423811 
L 414.085315 189.495227 
z
" clip-path="url(#p188546d5cd)" style="fill: #1f77b4; fill-opacity: 0.3"/>
   </g>
   <g id="PolyCollection_6">
    <path d="M 492.433088 253.127273 
L 465.312366 253.127273 
L 464.985459 251.698944 
L 464.712501 250.270615 
L 464.494588 248.842287 
L 464.331745 247.413958 
L 464.222928 245.985629 
L 464.166058 244.5573 
L 464.158083 243.128972 
L 464.195069 241.700643 
L 464.27232 240.272314 
L 464.384508 238.843985 
L 464.525828 237.415657 
L 464.690152 235.987328 
L 464.871197 234.558999 
L 465.062677 233.13067 
L 465.258461 231.702342 
L 465.452701 230.274013 
L 465.639958 228.845684 
L 465.815294 227.417355 
L 465.974348 225.989027 
L 466.113387 224.560698 
L 466.229328 223.132369 
L 466.319746 221.70404 
L 466.382857 220.275712 
L 466.417482 218.847383 
L 466.423011 217.419054 
L 466.399345 215.990725 
L 466.346845 214.562397 
L 466.266279 213.134068 
L 466.158774 211.705739 
L 466.025775 210.27741 
L 465.86902 208.849082 
L 465.690512 207.420753 
L 465.492518 205.992424 
L 465.277568 204.564096 
L 465.048456 203.135767 
L 464.808256 201.707438 
L 464.560326 200.279109 
L 464.308315 198.850781 
L 464.056157 197.422452 
L 463.808055 195.994123 
L 463.568444 194.565794 
L 463.341949 193.137466 
L 463.133307 191.709137 
L 462.94729 190.280808 
L 462.788599 188.852479 
L 462.661747 187.424151 
L 462.570939 185.995822 
L 462.519939 184.567493 
L 462.511946 183.139164 
L 462.549472 181.710836 
L 462.634229 180.282507 
L 462.767044 178.854178 
L 462.947782 177.425849 
L 463.175305 175.997521 
L 463.447455 174.569192 
L 463.761058 173.140863 
L 464.111969 171.712534 
L 464.495135 170.284206 
L 464.904684 168.855877 
L 465.334033 167.427548 
L 465.77602 165.999219 
L 466.223041 164.570891 
L 466.667198 163.142562 
L 467.100452 161.714233 
L 467.514777 160.285904 
L 467.902304 158.857576 
L 468.255472 157.429247 
L 468.567158 156.000918 
L 468.830805 154.57259 
L 469.040538 153.144261 
L 469.191272 151.715932 
L 469.278805 150.287603 
L 469.299907 148.859275 
L 469.252389 147.430946 
L 469.135175 146.002617 
L 468.948349 144.574288 
L 468.693196 143.14596 
L 468.372234 141.717631 
L 467.989216 140.289302 
L 467.549129 138.860973 
L 467.05816 137.432645 
L 466.523646 136.004316 
L 465.953993 134.575987 
L 465.358574 133.147658 
L 464.747592 131.71933 
L 464.131918 130.291001 
L 463.522904 128.862672 
L 462.932171 127.434343 
L 462.371377 126.006015 
L 461.851969 124.577686 
L 461.384932 123.149357 
L 460.980533 121.721028 
L 460.648078 120.2927 
L 460.395679 118.864371 
L 460.230057 117.436042 
L 460.156364 116.007713 
L 460.178056 114.579385 
L 460.296806 113.151056 
L 460.512466 111.722727 
L 497.232988 111.722727 
L 497.232988 111.722727 
L 497.448649 113.151056 
L 497.567399 114.579385 
L 497.589091 116.007713 
L 497.515398 117.436042 
L 497.349775 118.864371 
L 497.097377 120.2927 
L 496.764921 121.721028 
L 496.360522 123.149357 
L 495.893485 124.577686 
L 495.374077 126.006015 
L 494.813283 127.434343 
L 494.222551 128.862672 
L 493.613537 130.291001 
L 492.997863 131.71933 
L 492.38688 133.147658 
L 491.791461 134.575987 
L 491.221809 136.004316 
L 490.687294 137.432645 
L 490.196325 138.860973 
L 489.756238 140.289302 
L 489.373221 141.717631 
L 489.052258 143.14596 
L 488.797106 144.574288 
L 488.610279 146.002617 
L 488.493065 147.430946 
L 488.445548 148.859275 
L 488.466649 150.287603 
L 488.554183 151.715932 
L 488.704917 153.144261 
L 488.91465 154.57259 
L 489.178296 156.000918 
L 489.489982 157.429247 
L 489.84315 158.857576 
L 490.230678 160.285904 
L 490.645002 161.714233 
L 491.078257 163.142562 
L 491.522414 164.570891 
L 491.969435 165.999219 
L 492.411422 167.427548 
L 492.840771 168.855877 
L 493.250319 170.284206 
L 493.633485 171.712534 
L 493.984397 173.140863 
L 494.298 174.569192 
L 494.570149 175.997521 
L 494.797673 177.425849 
L 494.978411 178.854178 
L 495.111225 180.282507 
L 495.195983 181.710836 
L 495.233508 183.139164 
L 495.225516 184.567493 
L 495.174516 185.995822 
L 495.083707 187.424151 
L 494.956855 188.852479 
L 494.798164 190.280808 
L 494.612148 191.709137 
L 494.403506 193.137466 
L 494.17701 194.565794 
L 493.9374 195.994123 
L 493.689297 197.422452 
L 493.43714 198.850781 
L 493.185129 200.279109 
L 492.937199 201.707438 
L 492.696999 203.135767 
L 492.467887 204.564096 
L 492.252936 205.992424 
L 492.054943 207.420753 
L 491.876435 208.849082 
L 491.719679 210.27741 
L 491.586681 211.705739 
L 491.479176 213.134068 
L 491.39861 214.562397 
L 491.34611 215.990725 
L 491.322443 217.419054 
L 491.327972 218.847383 
L 491.362598 220.275712 
L 491.425708 221.70404 
L 491.516127 223.132369 
L 491.632068 224.560698 
L 491.771107 225.989027 
L 491.930161 227.417355 
L 492.105497 228.845684 
L 492.292753 230.274013 
L 492.486994 231.702342 
L 492.682777 233.13067 
L 492.874258 234.558999 
L 493.055303 235.987328 
L 493.219627 237.415657 
L 493.360947 238.843985 
L 493.473135 240.272314 
L 493.550386 241.700643 
L 493.587372 243.128972 
L 493.579396 244.5573 
L 493.522526 245.985629 
L 493.41371 247.413958 
L 493.250867 248.842287 
L 493.032954 250.270615 
L 492.759996 251.698944 
L 492.433088 253.127273 
z
" clip-path="url(#p188546d5cd)" style="fill: #1f77b4; fill-opacity: 0.3"/>
   </g>
   <g id="PolyCollection_7">
    <path d="M 559.522182 274.337955 
L 547.954182 274.337955 
L 547.412214 272.338294 
L 546.868098 270.338634 
L 546.327391 268.338974 
L 545.795387 266.339314 
L 545.276944 264.339653 
L 544.776323 262.339993 
L 544.297078 260.340333 
L 543.841989 258.340673 
L 543.413035 256.341012 
L 543.011422 254.341352 
L 542.637648 252.341692 
L 542.291601 250.342032 
L 541.972682 248.342371 
L 541.679936 246.342711 
L 541.412175 244.343051 
L 541.168088 242.343391 
L 540.946321 240.34373 
L 540.745516 238.34407 
L 540.564306 236.34441 
L 540.401278 234.34475 
L 540.254878 232.34509 
L 540.123303 230.345429 
L 540.004375 228.345769 
L 539.895407 226.346109 
L 539.793112 224.346449 
L 539.693539 222.346788 
L 539.592084 220.347128 
L 539.483584 218.347468 
L 539.362493 216.347808 
L 539.223164 214.348147 
L 539.060205 212.348487 
L 538.868914 210.348827 
L 538.645746 208.349167 
L 538.388785 206.349506 
L 538.098175 204.349846 
L 537.776465 202.350186 
L 537.428828 200.350526 
L 537.063104 198.350865 
L 536.689661 196.351205 
L 536.321044 194.351545 
L 535.971442 192.351885 
L 535.655968 190.352225 
L 535.389829 188.352564 
L 535.187413 186.352904 
L 535.061381 184.353244 
L 535.021818 182.353584 
L 535.075521 180.353923 
L 535.22547 178.354263 
L 535.470531 176.354603 
L 535.805417 174.354943 
L 536.220892 172.355282 
L 536.70423 170.355622 
L 537.239855 168.355962 
L 537.810155 166.356302 
L 538.396368 164.356641 
L 538.979513 162.356981 
L 539.541289 160.357321 
L 540.064889 158.357661 
L 540.5357 156.358 
L 540.941841 154.35834 
L 541.274541 152.35868 
L 541.528343 150.35902 
L 541.701144 148.35936 
L 541.794085 146.359699 
L 541.811312 144.360039 
L 541.759632 142.360379 
L 541.64809 140.360719 
L 541.487491 138.361058 
L 541.289885 136.361398 
L 541.068048 134.361738 
L 540.83497 132.362078 
L 540.603375 130.362417 
L 540.385285 128.362757 
L 540.19165 126.363097 
L 540.03205 124.363437 
L 539.914482 122.363776 
L 539.845234 120.364116 
L 539.828849 118.364456 
L 539.868174 116.364796 
L 539.964473 114.365135 
L 540.117601 112.365475 
L 540.326217 110.365815 
L 540.588015 108.366155 
L 540.899944 106.366494 
L 541.258421 104.366834 
L 541.659506 102.367174 
L 542.099029 100.367514 
L 542.57269 98.367854 
L 543.076098 96.368193 
L 543.604796 94.368533 
L 544.154251 92.368873 
L 544.719839 90.369213 
L 545.296834 88.369552 
L 545.880407 86.369892 
L 546.465646 84.370232 
L 547.047607 82.370572 
L 547.621381 80.370911 
L 548.182188 78.371251 
L 548.725487 76.371591 
L 558.750877 76.371591 
L 558.750877 76.371591 
L 559.294175 78.371251 
L 559.854983 80.370911 
L 560.428756 82.370572 
L 561.010717 84.370232 
L 561.595957 86.369892 
L 562.179529 88.369552 
L 562.756525 90.369213 
L 563.322113 92.368873 
L 563.871568 94.368533 
L 564.400266 96.368193 
L 564.903674 98.367854 
L 565.377334 100.367514 
L 565.816858 102.367174 
L 566.217942 104.366834 
L 566.57642 106.366494 
L 566.888349 108.366155 
L 567.150146 110.365815 
L 567.358763 112.365475 
L 567.511891 114.365135 
L 567.608189 116.364796 
L 567.647514 118.364456 
L 567.63113 120.364116 
L 567.561882 122.363776 
L 567.444313 124.363437 
L 567.284713 126.363097 
L 567.091079 128.362757 
L 566.872989 130.362417 
L 566.641394 132.362078 
L 566.408316 134.361738 
L 566.186479 136.361398 
L 565.988873 138.361058 
L 565.828274 140.360719 
L 565.716732 142.360379 
L 565.665052 144.360039 
L 565.682278 146.359699 
L 565.775219 148.35936 
L 565.948021 150.35902 
L 566.201823 152.35868 
L 566.534523 154.35834 
L 566.940664 156.358 
L 567.411474 158.357661 
L 567.935075 160.357321 
L 568.496851 162.356981 
L 569.079996 164.356641 
L 569.666209 166.356302 
L 570.236508 168.355962 
L 570.772134 170.355622 
L 571.255471 172.355282 
L 571.670947 174.354943 
L 572.005832 176.354603 
L 572.250894 178.354263 
L 572.400842 180.353923 
L 572.454545 182.353584 
L 572.414983 184.353244 
L 572.288951 186.352904 
L 572.086535 188.352564 
L 571.820396 190.352225 
L 571.504922 192.351885 
L 571.155319 194.351545 
L 570.786703 196.351205 
L 570.413259 198.350865 
L 570.047535 200.350526 
L 569.699898 202.350186 
L 569.378189 204.349846 
L 569.087579 206.349506 
L 568.830617 208.349167 
L 568.607449 210.348827 
L 568.416159 212.348487 
L 568.2532 214.348147 
L 568.113871 216.347808 
L 567.99278 218.347468 
L 567.884279 220.347128 
L 567.782825 222.346788 
L 567.683251 224.346449 
L 567.580956 226.346109 
L 567.471989 228.345769 
L 567.35306 230.345429 
L 567.221486 232.34509 
L 567.075086 234.34475 
L 566.912057 236.34441 
L 566.730848 238.34407 
L 566.530042 240.34373 
L 566.308275 242.343391 
L 566.064189 244.343051 
L 565.796427 246.342711 
L 565.503681 248.342371 
L 565.184763 250.342032 
L 564.838716 252.341692 
L 564.464941 254.341352 
L 564.063329 256.341012 
L 563.634375 258.340673 
L 563.179285 260.340333 
L 562.700041 262.339993 
L 562.19942 264.339653 
L 561.680976 266.339314 
L 561.148973 268.338974 
L 560.608266 270.338634 
L 560.06415 272.338294 
L 559.522182 274.337955 
z
" clip-path="url(#p188546d5cd)" style="fill: #1f77b4; fill-opacity: 0.3"/>
   </g>
   <g id="PolyCollection_8">
    <path d="M 633.724674 323.829545 
L 623.482599 323.829545 
L 623.442748 322.401217 
L 623.423376 320.972888 
L 623.422848 319.544559 
L 623.439036 318.11623 
L 623.469385 316.687902 
L 623.510982 315.259573 
L 623.560643 313.831244 
L 623.615009 312.402916 
L 623.670646 310.974587 
L 623.724149 309.546258 
L 623.772241 308.117929 
L 623.81187 306.689601 
L 623.840293 305.261272 
L 623.855151 303.832943 
L 623.854525 302.404614 
L 623.836982 300.976286 
L 623.801594 299.547957 
L 623.747948 298.119628 
L 623.676135 296.691299 
L 623.586722 295.262971 
L 623.480712 293.834642 
L 623.359491 292.406313 
L 623.224766 290.977984 
L 623.078502 289.549656 
L 622.922851 288.121327 
L 622.760086 286.692998 
L 622.592534 285.264669 
L 622.422523 283.836341 
L 622.25233 282.408012 
L 622.084145 280.979683 
L 621.920035 279.551354 
L 621.761936 278.123026 
L 621.611633 276.694697 
L 621.470767 275.266368 
L 621.340841 273.838039 
L 621.223225 272.409711 
L 621.11918 270.981382 
L 621.029862 269.553053 
L 620.956342 268.124725 
L 620.899609 266.696396 
L 620.860576 265.268067 
L 620.840074 263.839738 
L 620.838843 262.41141 
L 620.857513 260.983081 
L 620.896579 259.554752 
L 620.956371 258.126423 
L 621.037021 256.698095 
L 621.138427 255.269766 
L 621.260214 253.841437 
L 621.401699 252.413108 
L 621.561866 250.98478 
L 621.739332 249.556451 
L 621.932335 248.128122 
L 622.138722 246.699793 
L 622.355945 245.271465 
L 622.581075 243.843136 
L 622.810813 242.414807 
L 623.041521 240.986478 
L 623.269254 239.55815 
L 623.489802 238.129821 
L 623.698736 236.701492 
L 623.891467 235.273163 
L 624.063298 233.844835 
L 624.209488 232.416506 
L 624.325317 230.988177 
L 624.406154 229.559848 
L 624.447527 228.13152 
L 624.445196 226.703191 
L 624.395229 225.274862 
L 624.29408 223.846534 
L 624.138669 222.418205 
L 623.926464 220.989876 
L 623.655566 219.561547 
L 623.324792 218.133219 
L 622.933755 216.70489 
L 622.482941 215.276561 
L 621.973784 213.848232 
L 621.408721 212.419904 
L 620.791244 210.991575 
L 620.125927 209.563246 
L 619.418437 208.134917 
L 618.675518 206.706589 
L 617.904949 205.27826 
L 617.115474 203.849931 
L 616.316693 202.421602 
L 615.518934 200.993274 
L 614.733083 199.564945 
L 613.970396 198.136616 
L 613.242276 196.708287 
L 612.56004 195.279959 
L 611.934672 193.85163 
L 611.376565 192.423301 
L 610.895275 190.994972 
L 610.499278 189.566644 
L 610.195756 188.138315 
L 609.990402 186.709986 
L 609.887273 185.281657 
L 609.888673 183.853329 
L 609.995094 182.425 
L 647.212179 182.425 
L 647.212179 182.425 
L 647.3186 183.853329 
L 647.32 185.281657 
L 647.216871 186.709986 
L 647.011517 188.138315 
L 646.707995 189.566644 
L 646.311998 190.994972 
L 645.830708 192.423301 
L 645.272601 193.85163 
L 644.647233 195.279959 
L 643.964997 196.708287 
L 643.236877 198.136616 
L 642.474189 199.564945 
L 641.688339 200.993274 
L 640.89058 202.421602 
L 640.091799 203.849931 
L 639.302323 205.27826 
L 638.531755 206.706589 
L 637.788836 208.134917 
L 637.081346 209.563246 
L 636.416029 210.991575 
L 635.798552 212.419904 
L 635.233489 213.848232 
L 634.724332 215.276561 
L 634.273518 216.70489 
L 633.88248 218.133219 
L 633.551706 219.561547 
L 633.280809 220.989876 
L 633.068604 222.418205 
L 632.913192 223.846534 
L 632.812043 225.274862 
L 632.762076 226.703191 
L 632.759746 228.13152 
L 632.801119 229.559848 
L 632.881956 230.988177 
L 632.997785 232.416506 
L 633.143975 233.844835 
L 633.315805 235.273163 
L 633.508536 236.701492 
L 633.717471 238.129821 
L 633.938019 239.55815 
L 634.165752 240.986478 
L 634.39646 242.414807 
L 634.626198 243.843136 
L 634.851328 245.271465 
L 635.068551 246.699793 
L 635.274937 248.128122 
L 635.467941 249.556451 
L 635.645407 250.98478 
L 635.805573 252.413108 
L 635.947059 253.841437 
L 636.068845 255.269766 
L 636.170251 256.698095 
L 636.250902 258.126423 
L 636.310694 259.554752 
L 636.34976 260.983081 
L 636.368429 262.41141 
L 636.367198 263.839738 
L 636.346697 265.268067 
L 636.307663 266.696396 
L 636.250931 268.124725 
L 636.17741 269.553053 
L 636.088093 270.981382 
L 635.984047 272.409711 
L 635.866432 273.838039 
L 635.736505 275.266368 
L 635.59564 276.694697 
L 635.445337 278.123026 
L 635.287237 279.551354 
L 635.123128 280.979683 
L 634.954943 282.408012 
L 634.78475 283.836341 
L 634.614739 285.264669 
L 634.447187 286.692998 
L 634.284422 288.121327 
L 634.128771 289.549656 
L 633.982507 290.977984 
L 633.847782 292.406313 
L 633.72656 293.834642 
L 633.62055 295.262971 
L 633.531138 296.691299 
L 633.459325 298.119628 
L 633.405679 299.547957 
L 633.370291 300.976286 
L 633.352747 302.404614 
L 633.352122 303.832943 
L 633.36698 305.261272 
L 633.395403 306.689601 
L 633.435032 308.117929 
L 633.483124 309.546258 
L 633.536626 310.974587 
L 633.592264 312.402916 
L 633.646629 313.831244 
L 633.69629 315.259573 
L 633.737887 316.687902 
L 633.768236 318.11623 
L 633.784425 319.544559 
L 633.783896 320.972888 
L 633.764525 322.401217 
L 633.724674 323.829545 
z
" clip-path="url(#p188546d5cd)" style="fill: #1f77b4; fill-opacity: 0.3"/>
   </g>
   <g id="PolyCollection_9">
    <path d="M 706.938039 323.829545 
L 700.000142 323.829545 
L 699.865231 322.186967 
L 699.744761 320.544389 
L 699.638477 318.901811 
L 699.545459 317.259233 
L 699.464135 315.616655 
L 699.392328 313.974077 
L 699.327335 312.331499 
L 699.266032 310.688921 
L 699.205012 309.046343 
L 699.140726 307.403765 
L 699.06965 305.761187 
L 698.98845 304.118609 
L 698.894135 302.476031 
L 698.784209 300.833453 
L 698.656788 299.190875 
L 698.510698 297.548297 
L 698.345537 295.905719 
L 698.161694 294.26314 
L 697.960338 292.620562 
L 697.743364 290.977984 
L 697.513306 289.335406 
L 697.273217 287.692828 
L 697.026538 286.05025 
L 696.77694 284.407672 
L 696.528173 282.765094 
L 696.283915 281.122516 
L 696.047639 279.479938 
L 695.822497 277.83736 
L 695.611241 276.194782 
L 695.416164 274.552204 
L 695.23909 272.909626 
L 695.081381 271.267048 
L 694.943979 269.62447 
L 694.827474 267.981892 
L 694.732178 266.339314 
L 694.658216 264.696736 
L 694.605606 263.054157 
L 694.574337 261.411579 
L 694.564424 259.769001 
L 694.575945 258.126423 
L 694.60905 256.483845 
L 694.663948 254.841267 
L 694.740862 253.198689 
L 694.839969 251.556111 
L 694.961316 249.913533 
L 695.10473 248.270955 
L 695.269716 246.628377 
L 695.455369 244.985799 
L 695.660277 243.343221 
L 695.88245 241.700643 
L 696.119261 240.058065 
L 696.367405 238.415487 
L 696.622883 236.772909 
L 696.88101 235.130331 
L 697.136436 233.487753 
L 697.383197 231.845174 
L 697.614786 230.202596 
L 697.824236 228.560018 
L 698.004233 226.91744 
L 698.147236 225.274862 
L 698.245629 223.632284 
L 698.291887 221.989706 
L 698.27876 220.347128 
L 698.199486 218.70455 
L 698.048016 217.061972 
L 697.81926 215.419394 
L 697.509345 213.776816 
L 697.11587 212.134238 
L 696.638165 210.49166 
L 696.077521 208.849082 
L 695.437394 207.206504 
L 694.723558 205.563926 
L 693.944186 203.921348 
L 693.109861 202.27877 
L 692.233489 200.636191 
L 691.330107 198.993613 
L 690.416598 197.351035 
L 689.511285 195.708457 
L 688.633452 194.065879 
L 687.802773 192.423301 
L 687.038689 190.780723 
L 686.359761 189.138145 
L 685.783019 187.495567 
L 685.323349 185.852989 
L 684.992949 184.210411 
L 684.800878 182.567833 
L 684.752727 180.925255 
L 684.850431 179.282677 
L 685.092226 177.640099 
L 685.472764 175.997521 
L 685.983361 174.354943 
L 686.61238 172.712365 
L 687.345721 171.069787 
L 688.16738 169.427208 
L 689.060059 167.78463 
L 690.005799 166.142052 
L 690.986585 164.499474 
L 691.984916 162.856896 
L 692.984305 161.214318 
L 713.953876 161.214318 
L 713.953876 161.214318 
L 714.953266 162.856896 
L 715.951596 164.499474 
L 716.932383 166.142052 
L 717.878123 167.78463 
L 718.770802 169.427208 
L 719.59246 171.069787 
L 720.325801 172.712365 
L 720.954821 174.354943 
L 721.465418 175.997521 
L 721.845955 177.640099 
L 722.087751 179.282677 
L 722.185455 180.925255 
L 722.137304 182.567833 
L 721.945233 184.210411 
L 721.614833 185.852989 
L 721.155163 187.495567 
L 720.578421 189.138145 
L 719.899492 190.780723 
L 719.135409 192.423301 
L 718.304729 194.065879 
L 717.426897 195.708457 
L 716.521584 197.351035 
L 715.608074 198.993613 
L 714.704693 200.636191 
L 713.828321 202.27877 
L 712.993996 203.921348 
L 712.214624 205.563926 
L 711.500787 207.206504 
L 710.860661 208.849082 
L 710.300017 210.49166 
L 709.822312 212.134238 
L 709.428837 213.776816 
L 709.118922 215.419394 
L 708.890166 217.061972 
L 708.738696 218.70455 
L 708.659422 220.347128 
L 708.646295 221.989706 
L 708.692553 223.632284 
L 708.790946 225.274862 
L 708.933949 226.91744 
L 709.113946 228.560018 
L 709.323396 230.202596 
L 709.554985 231.845174 
L 709.801746 233.487753 
L 710.057172 235.130331 
L 710.315298 236.772909 
L 710.570777 238.415487 
L 710.818921 240.058065 
L 711.055732 241.700643 
L 711.277905 243.343221 
L 711.482813 244.985799 
L 711.668466 246.628377 
L 711.833452 248.270955 
L 711.976865 249.913533 
L 712.098212 251.556111 
L 712.197319 253.198689 
L 712.274234 254.841267 
L 712.329132 256.483845 
L 712.362237 258.126423 
L 712.373758 259.769001 
L 712.363845 261.411579 
L 712.332576 263.054157 
L 712.279966 264.696736 
L 712.206004 266.339314 
L 712.110708 267.981892 
L 711.994203 269.62447 
L 711.856801 271.267048 
L 711.699092 272.909626 
L 711.522018 274.552204 
L 711.326941 276.194782 
L 711.115684 277.83736 
L 710.890543 279.479938 
L 710.654266 281.122516 
L 710.410009 282.765094 
L 710.161242 284.407672 
L 709.911644 286.05025 
L 709.664965 287.692828 
L 709.424876 289.335406 
L 709.194817 290.977984 
L 708.977844 292.620562 
L 708.776488 294.26314 
L 708.592645 295.905719 
L 708.427484 297.548297 
L 708.281394 299.190875 
L 708.153973 300.833453 
L 708.044046 302.476031 
L 707.949732 304.118609 
L 707.868532 305.761187 
L 707.797456 307.403765 
L 707.73317 309.046343 
L 707.672149 310.688921 
L 707.610847 312.331499 
L 707.545854 313.974077 
L 707.474047 315.616655 
L 707.392723 317.259233 
L 707.299705 318.901811 
L 707.193421 320.544389 
L 707.07295 322.186967 
L 706.938039 323.829545 
z
" clip-path="url(#p188546d5cd)" style="fill: #1f77b4; fill-opacity: 0.3"/>
   </g>
   <g id="PolyCollection_10">
    <path d="M 782.062916 323.829545 
L 774.606174 323.829545 
L 774.440157 322.186967 
L 774.284587 320.544389 
L 774.139053 318.901811 
L 774.002603 317.259233 
L 773.873784 315.616655 
L 773.750708 313.974077 
L 773.63115 312.331499 
L 773.512662 310.688921 
L 773.392702 309.046343 
L 773.268771 307.403765 
L 773.138553 305.761187 
L 773.000044 304.118609 
L 772.85167 302.476031 
L 772.692379 300.833453 
L 772.521711 299.190875 
L 772.339831 297.548297 
L 772.147535 295.905719 
L 771.94622 294.26314 
L 771.737822 292.620562 
L 771.524728 290.977984 
L 771.309664 289.335406 
L 771.095568 287.692828 
L 770.885455 286.05025 
L 770.682285 284.407672 
L 770.488832 282.765094 
L 770.30758 281.122516 
L 770.140633 279.479938 
L 769.989653 277.83736 
L 769.855838 276.194782 
L 769.739918 274.552204 
L 769.64219 272.909626 
L 769.562578 271.267048 
L 769.500711 269.62447 
L 769.456016 267.981892 
L 769.42782 266.339314 
L 769.415442 264.696736 
L 769.418281 263.054157 
L 769.435879 261.411579 
L 769.46797 259.769001 
L 769.51449 258.126423 
L 769.575565 256.483845 
L 769.651473 254.841267 
L 769.742576 253.198689 
L 769.849232 251.556111 
L 769.9717 249.913533 
L 770.110035 248.270955 
L 770.263979 246.628377 
L 770.432872 244.985799 
L 770.615565 243.343221 
L 770.810357 241.700643 
L 771.014956 240.058065 
L 771.226456 238.415487 
L 771.441338 236.772909 
L 771.655495 235.130331 
L 771.864273 233.487753 
L 772.062524 231.845174 
L 772.244677 230.202596 
L 772.404818 228.560018 
L 772.536777 226.91744 
L 772.634233 225.274862 
L 772.690822 223.632284 
L 772.700263 221.989706 
L 772.656499 220.347128 
L 772.553855 218.70455 
L 772.387218 217.061972 
L 772.152229 215.419394 
L 771.845494 213.776816 
L 771.464812 212.134238 
L 771.009394 210.49166 
L 770.480082 208.849082 
L 769.879546 207.206504 
L 769.212442 205.563926 
L 768.485524 203.921348 
L 767.707686 202.27877 
L 766.889928 200.636191 
L 766.045231 198.993613 
L 765.18834 197.351035 
L 764.335454 195.708457 
L 763.503819 194.065879 
L 762.711257 192.423301 
L 761.975624 190.780723 
L 761.314238 189.138145 
L 760.743293 187.495567 
L 760.277289 185.852989 
L 759.928517 184.210411 
L 759.706608 182.567833 
L 759.618182 180.925255 
L 759.666618 179.282677 
L 759.851946 177.640099 
L 760.170872 175.997521 
L 760.616941 174.354943 
L 761.180808 172.712365 
L 761.850625 171.069787 
L 762.612503 169.427208 
L 763.451036 167.78463 
L 764.349851 166.142052 
L 765.292169 164.499474 
L 766.261336 162.856896 
L 767.241316 161.214318 
L 789.427775 161.214318 
L 789.427775 161.214318 
L 790.407755 162.856896 
L 791.376922 164.499474 
L 792.31924 166.142052 
L 793.218055 167.78463 
L 794.056587 169.427208 
L 794.818466 171.069787 
L 795.488283 172.712365 
L 796.05215 174.354943 
L 796.498219 175.997521 
L 796.817145 177.640099 
L 797.002473 179.282677 
L 797.050909 180.925255 
L 796.962483 182.567833 
L 796.740574 184.210411 
L 796.391802 185.852989 
L 795.925798 187.495567 
L 795.354852 189.138145 
L 794.693466 190.780723 
L 793.957834 192.423301 
L 793.165272 194.065879 
L 792.333637 195.708457 
L 791.48075 197.351035 
L 790.62386 198.993613 
L 789.779163 200.636191 
L 788.961405 202.27877 
L 788.183567 203.921348 
L 787.456649 205.563926 
L 786.789545 207.206504 
L 786.189009 208.849082 
L 785.659697 210.49166 
L 785.204278 212.134238 
L 784.823597 213.776816 
L 784.516862 215.419394 
L 784.281873 217.061972 
L 784.115236 218.70455 
L 784.012592 220.347128 
L 783.968828 221.989706 
L 783.978269 223.632284 
L 784.034858 225.274862 
L 784.132314 226.91744 
L 784.264273 228.560018 
L 784.424413 230.202596 
L 784.606567 231.845174 
L 784.804818 233.487753 
L 785.013596 235.130331 
L 785.227753 236.772909 
L 785.442635 238.415487 
L 785.654135 240.058065 
L 785.858734 241.700643 
L 786.053526 243.343221 
L 786.236219 244.985799 
L 786.405112 246.628377 
L 786.559056 248.270955 
L 786.697391 249.913533 
L 786.819859 251.556111 
L 786.926515 253.198689 
L 787.017617 254.841267 
L 787.093526 256.483845 
L 787.154601 258.126423 
L 787.201121 259.769001 
L 787.233212 261.411579 
L 787.25081 263.054157 
L 787.253649 264.696736 
L 787.241271 266.339314 
L 787.213075 267.981892 
L 787.16838 269.62447 
L 787.106513 271.267048 
L 787.026901 272.909626 
L 786.929173 274.552204 
L 786.813253 276.194782 
L 786.679438 277.83736 
L 786.528458 279.479938 
L 786.361511 281.122516 
L 786.180259 282.765094 
L 785.986806 284.407672 
L 785.783636 286.05025 
L 785.573523 287.692828 
L 785.359427 289.335406 
L 785.144363 290.977984 
L 784.931269 292.620562 
L 784.722871 294.26314 
L 784.521556 295.905719 
L 784.32926 297.548297 
L 784.14738 299.190875 
L 783.976712 300.833453 
L 783.817421 302.476031 
L 783.669047 304.118609 
L 783.530538 305.761187 
L 783.40032 307.403765 
L 783.276389 309.046343 
L 783.156429 310.688921 
L 783.037941 312.331499 
L 782.918383 313.974077 
L 782.795307 315.616655 
L 782.666488 317.259233 
L 782.530038 318.901811 
L 782.384504 320.544389 
L 782.228934 322.186967 
L 782.062916 323.829545 
z
" clip-path="url(#p188546d5cd)" style="fill: #1f77b4; fill-opacity: 0.3"/>
   </g>
   <g id="matplotlib.axis_1">
    <g id="xtick_1">
     <g id="line2d_1">
      <defs>
       <path id="m5a57150253" d="M 0 0 
L 0 3.5 
" style="stroke: #000000; stroke-width: 0.8"/>
      </defs>
      <g>
       <use xlink:href="#m5a57150253" x="104.545455" y="337.97" style="stroke: #000000; stroke-width: 0.8"/>
      </g>
     </g>
     <g id="text_1">
      <!-- Defector -->
      <g transform="translate(106.752955 379.51)rotate(-90)scale(0.08 -0.08)">
       <defs>
        <path id="DejaVuSans-44" d="M 1259 4147 
L 1259 519 
L 2022 519 
Q 2988 519 3436 956 
Q 3884 1394 3884 2338 
Q 3884 3275 3436 3711 
Q 2988 4147 2022 4147 
L 1259 4147 
z
M 628 4666 
L 1925 4666 
Q 3281 4666 3915 4102 
Q 4550 3538 4550 2338 
Q 4550 1131 3912 565 
Q 3275 0 1925 0 
L 628 0 
L 628 4666 
z
" transform="scale(0.015625)"/>
        <path id="DejaVuSans-65" d="M 3597 1894 
L 3597 1613 
L 953 1613 
Q 991 1019 1311 708 
Q 1631 397 2203 397 
Q 2534 397 2845 478 
Q 3156 559 3463 722 
L 3463 178 
Q 3153 47 2828 -22 
Q 2503 -91 2169 -91 
Q 1331 -91 842 396 
Q 353 884 353 1716 
Q 353 2575 817 3079 
Q 1281 3584 2069 3584 
Q 2775 3584 3186 3129 
Q 3597 2675 3597 1894 
z
M 3022 2063 
Q 3016 2534 2758 2815 
Q 2500 3097 2075 3097 
Q 1594 3097 1305 2825 
Q 1016 2553 972 2059 
L 3022 2063 
z
" transform="scale(0.015625)"/>
        <path id="DejaVuSans-66" d="M 2375 4863 
L 2375 4384 
L 1825 4384 
Q 1516 4384 1395 4259 
Q 1275 4134 1275 3809 
L 1275 3500 
L 2222 3500 
L 2222 3053 
L 1275 3053 
L 1275 0 
L 697 0 
L 697 3053 
L 147 3053 
L 147 3500 
L 697 3500 
L 697 3744 
Q 697 4328 969 4595 
Q 1241 4863 1831 4863 
L 2375 4863 
z
" transform="scale(0.015625)"/>
        <path id="DejaVuSans-63" d="M 3122 3366 
L 3122 2828 
Q 2878 2963 2633 3030 
Q 2388 3097 2138 3097 
Q 1578 3097 1268 2742 
Q 959 2388 959 1747 
Q 959 1106 1268 751 
Q 1578 397 2138 397 
Q 2388 397 2633 464 
Q 2878 531 3122 666 
L 3122 134 
Q 2881 22 2623 -34 
Q 2366 -91 2075 -91 
Q 1284 -91 818 406 
Q 353 903 353 1747 
Q 353 2603 823 3093 
Q 1294 3584 2113 3584 
Q 2378 3584 2631 3529 
Q 2884 3475 3122 3366 
z
" transform="scale(0.015625)"/>
        <path id="DejaVuSans-74" d="M 1172 4494 
L 1172 3500 
L 2356 3500 
L 2356 3053 
L 1172 3053 
L 1172 1153 
Q 1172 725 1289 603 
Q 1406 481 1766 481 
L 2356 481 
L 2356 0 
L 1766 0 
Q 1100 0 847 248 
Q 594 497 594 1153 
L 594 3053 
L 172 3053 
L 172 3500 
L 594 3500 
L 594 4494 
L 1172 4494 
z
" transform="scale(0.015625)"/>
        <path id="DejaVuSans-6f" d="M 1959 3097 
Q 1497 3097 1228 2736 
Q 959 2375 959 1747 
Q 959 1119 1226 758 
Q 1494 397 1959 397 
Q 2419 397 2687 759 
Q 2956 1122 2956 1747 
Q 2956 2369 2687 2733 
Q 2419 3097 1959 3097 
z
M 1959 3584 
Q 2709 3584 3137 3096 
Q 3566 2609 3566 1747 
Q 3566 888 3137 398 
Q 2709 -91 1959 -91 
Q 1206 -91 779 398 
Q 353 888 353 1747 
Q 353 2609 779 3096 
Q 1206 3584 1959 3584 
z
" transform="scale(0.015625)"/>
        <path id="DejaVuSans-72" d="M 2631 2963 
Q 2534 3019 2420 3045 
Q 2306 3072 2169 3072 
Q 1681 3072 1420 2755 
Q 1159 2438 1159 1844 
L 1159 0 
L 581 0 
L 581 3500 
L 1159 3500 
L 1159 2956 
Q 1341 3275 1631 3429 
Q 1922 3584 2338 3584 
Q 2397 3584 2469 3576 
Q 2541 3569 2628 3553 
L 2631 2963 
z
" transform="scale(0.015625)"/>
       </defs>
       <use xlink:href="#DejaVuSans-44"/>
       <use xlink:href="#DejaVuSans-65" x="77.001953"/>
       <use xlink:href="#DejaVuSans-66" x="138.525391"/>
       <use xlink:href="#DejaVuSans-65" x="173.730469"/>
       <use xlink:href="#DejaVuSans-63" x="235.253906"/>
       <use xlink:href="#DejaVuSans-74" x="290.234375"/>
       <use xlink:href="#DejaVuSans-6f" x="329.443359"/>
       <use xlink:href="#DejaVuSans-72" x="390.625"/>
      </g>
     </g>
    </g>
    <g id="xtick_2">
     <g id="line2d_2">
      <g>
       <use xlink:href="#m5a57150253" x="179.410909" y="337.97" style="stroke: #000000; stroke-width: 0.8"/>
      </g>
     </g>
     <g id="text_2">
      <!-- Adaptive -->
      <g transform="translate(181.618409 380.37875)rotate(-90)scale(0.08 -0.08)">
       <defs>
        <path id="DejaVuSans-41" d="M 2188 4044 
L 1331 1722 
L 3047 1722 
L 2188 4044 
z
M 1831 4666 
L 2547 4666 
L 4325 0 
L 3669 0 
L 3244 1197 
L 1141 1197 
L 716 0 
L 50 0 
L 1831 4666 
z
" transform="scale(0.015625)"/>
        <path id="DejaVuSans-64" d="M 2906 2969 
L 2906 4863 
L 3481 4863 
L 3481 0 
L 2906 0 
L 2906 525 
Q 2725 213 2448 61 
Q 2172 -91 1784 -91 
Q 1150 -91 751 415 
Q 353 922 353 1747 
Q 353 2572 751 3078 
Q 1150 3584 1784 3584 
Q 2172 3584 2448 3432 
Q 2725 3281 2906 2969 
z
M 947 1747 
Q 947 1113 1208 752 
Q 1469 391 1925 391 
Q 2381 391 2643 752 
Q 2906 1113 2906 1747 
Q 2906 2381 2643 2742 
Q 2381 3103 1925 3103 
Q 1469 3103 1208 2742 
Q 947 2381 947 1747 
z
" transform="scale(0.015625)"/>
        <path id="DejaVuSans-61" d="M 2194 1759 
Q 1497 1759 1228 1600 
Q 959 1441 959 1056 
Q 959 750 1161 570 
Q 1363 391 1709 391 
Q 2188 391 2477 730 
Q 2766 1069 2766 1631 
L 2766 1759 
L 2194 1759 
z
M 3341 1997 
L 3341 0 
L 2766 0 
L 2766 531 
Q 2569 213 2275 61 
Q 1981 -91 1556 -91 
Q 1019 -91 701 211 
Q 384 513 384 1019 
Q 384 1609 779 1909 
Q 1175 2209 1959 2209 
L 2766 2209 
L 2766 2266 
Q 2766 2663 2505 2880 
Q 2244 3097 1772 3097 
Q 1472 3097 1187 3025 
Q 903 2953 641 2809 
L 641 3341 
Q 956 3463 1253 3523 
Q 1550 3584 1831 3584 
Q 2591 3584 2966 3190 
Q 3341 2797 3341 1997 
z
" transform="scale(0.015625)"/>
        <path id="DejaVuSans-70" d="M 1159 525 
L 1159 -1331 
L 581 -1331 
L 581 3500 
L 1159 3500 
L 1159 2969 
Q 1341 3281 1617 3432 
Q 1894 3584 2278 3584 
Q 2916 3584 3314 3078 
Q 3713 2572 3713 1747 
Q 3713 922 3314 415 
Q 2916 -91 2278 -91 
Q 1894 -91 1617 61 
Q 1341 213 1159 525 
z
M 3116 1747 
Q 3116 2381 2855 2742 
Q 2594 3103 2138 3103 
Q 1681 3103 1420 2742 
Q 1159 2381 1159 1747 
Q 1159 1113 1420 752 
Q 1681 391 2138 391 
Q 2594 391 2855 752 
Q 3116 1113 3116 1747 
z
" transform="scale(0.015625)"/>
        <path id="DejaVuSans-69" d="M 603 3500 
L 1178 3500 
L 1178 0 
L 603 0 
L 603 3500 
z
M 603 4863 
L 1178 4863 
L 1178 4134 
L 603 4134 
L 603 4863 
z
" transform="scale(0.015625)"/>
        <path id="DejaVuSans-76" d="M 191 3500 
L 800 3500 
L 1894 563 
L 2988 3500 
L 3597 3500 
L 2284 0 
L 1503 0 
L 191 3500 
z
" transform="scale(0.015625)"/>
       </defs>
       <use xlink:href="#DejaVuSans-41"/>
       <use xlink:href="#DejaVuSans-64" x="66.658203"/>
       <use xlink:href="#DejaVuSans-61" x="130.134766"/>
       <use xlink:href="#DejaVuSans-70" x="191.414062"/>
       <use xlink:href="#DejaVuSans-74" x="254.890625"/>
       <use xlink:href="#DejaVuSans-69" x="294.099609"/>
       <use xlink:href="#DejaVuSans-76" x="321.882812"/>
       <use xlink:href="#DejaVuSans-65" x="381.0625"/>
      </g>
     </g>
    </g>
    <g id="xtick_3">
     <g id="line2d_3">
      <g>
       <use xlink:href="#m5a57150253" x="254.276364" y="337.97" style="stroke: #000000; stroke-width: 0.8"/>
      </g>
     </g>
     <g id="text_3">
      <!-- Grudger -->
      <g transform="translate(256.483864 377.89625)rotate(-90)scale(0.08 -0.08)">
       <defs>
        <path id="DejaVuSans-47" d="M 3809 666 
L 3809 1919 
L 2778 1919 
L 2778 2438 
L 4434 2438 
L 4434 434 
Q 4069 175 3628 42 
Q 3188 -91 2688 -91 
Q 1594 -91 976 548 
Q 359 1188 359 2328 
Q 359 3472 976 4111 
Q 1594 4750 2688 4750 
Q 3144 4750 3555 4637 
Q 3966 4525 4313 4306 
L 4313 3634 
Q 3963 3931 3569 4081 
Q 3175 4231 2741 4231 
Q 1884 4231 1454 3753 
Q 1025 3275 1025 2328 
Q 1025 1384 1454 906 
Q 1884 428 2741 428 
Q 3075 428 3337 486 
Q 3600 544 3809 666 
z
" transform="scale(0.015625)"/>
        <path id="DejaVuSans-75" d="M 544 1381 
L 544 3500 
L 1119 3500 
L 1119 1403 
Q 1119 906 1312 657 
Q 1506 409 1894 409 
Q 2359 409 2629 706 
Q 2900 1003 2900 1516 
L 2900 3500 
L 3475 3500 
L 3475 0 
L 2900 0 
L 2900 538 
Q 2691 219 2414 64 
Q 2138 -91 1772 -91 
Q 1169 -91 856 284 
Q 544 659 544 1381 
z
M 1991 3584 
L 1991 3584 
z
" transform="scale(0.015625)"/>
        <path id="DejaVuSans-67" d="M 2906 1791 
Q 2906 2416 2648 2759 
Q 2391 3103 1925 3103 
Q 1463 3103 1205 2759 
Q 947 2416 947 1791 
Q 947 1169 1205 825 
Q 1463 481 1925 481 
Q 2391 481 2648 825 
Q 2906 1169 2906 1791 
z
M 3481 434 
Q 3481 -459 3084 -895 
Q 2688 -1331 1869 -1331 
Q 1566 -1331 1297 -1286 
Q 1028 -1241 775 -1147 
L 775 -588 
Q 1028 -725 1275 -790 
Q 1522 -856 1778 -856 
Q 2344 -856 2625 -561 
Q 2906 -266 2906 331 
L 2906 616 
Q 2728 306 2450 153 
Q 2172 0 1784 0 
Q 1141 0 747 490 
Q 353 981 353 1791 
Q 353 2603 747 3093 
Q 1141 3584 1784 3584 
Q 2172 3584 2450 3431 
Q 2728 3278 2906 2969 
L 2906 3500 
L 3481 3500 
L 3481 434 
z
" transform="scale(0.015625)"/>
       </defs>
       <use xlink:href="#DejaVuSans-47"/>
       <use xlink:href="#DejaVuSans-72" x="77.490234"/>
       <use xlink:href="#DejaVuSans-75" x="118.603516"/>
       <use xlink:href="#DejaVuSans-64" x="181.982422"/>
       <use xlink:href="#DejaVuSans-67" x="245.458984"/>
       <use xlink:href="#DejaVuSans-65" x="308.935547"/>
       <use xlink:href="#DejaVuSans-72" x="370.458984"/>
      </g>
     </g>
    </g>
    <g id="xtick_4">
     <g id="line2d_4">
      <g>
       <use xlink:href="#m5a57150253" x="329.141818" y="337.97" style="stroke: #000000; stroke-width: 0.8"/>
      </g>
     </g>
     <g id="text_4">
      <!-- Deep QLearner -->
      <g transform="translate(331.349318 405.46625)rotate(-90)scale(0.08 -0.08)">
       <defs>
        <path id="DejaVuSans-20" transform="scale(0.015625)"/>
        <path id="DejaVuSans-51" d="M 2522 4238 
Q 1834 4238 1429 3725 
Q 1025 3213 1025 2328 
Q 1025 1447 1429 934 
Q 1834 422 2522 422 
Q 3209 422 3611 934 
Q 4013 1447 4013 2328 
Q 4013 3213 3611 3725 
Q 3209 4238 2522 4238 
z
M 3406 84 
L 4238 -825 
L 3475 -825 
L 2784 -78 
Q 2681 -84 2626 -87 
Q 2572 -91 2522 -91 
Q 1538 -91 948 567 
Q 359 1225 359 2328 
Q 359 3434 948 4092 
Q 1538 4750 2522 4750 
Q 3503 4750 4090 4092 
Q 4678 3434 4678 2328 
Q 4678 1516 4351 937 
Q 4025 359 3406 84 
z
" transform="scale(0.015625)"/>
        <path id="DejaVuSans-4c" d="M 628 4666 
L 1259 4666 
L 1259 531 
L 3531 531 
L 3531 0 
L 628 0 
L 628 4666 
z
" transform="scale(0.015625)"/>
        <path id="DejaVuSans-6e" d="M 3513 2113 
L 3513 0 
L 2938 0 
L 2938 2094 
Q 2938 2591 2744 2837 
Q 2550 3084 2163 3084 
Q 1697 3084 1428 2787 
Q 1159 2491 1159 1978 
L 1159 0 
L 581 0 
L 581 3500 
L 1159 3500 
L 1159 2956 
Q 1366 3272 1645 3428 
Q 1925 3584 2291 3584 
Q 2894 3584 3203 3211 
Q 3513 2838 3513 2113 
z
" transform="scale(0.015625)"/>
       </defs>
       <use xlink:href="#DejaVuSans-44"/>
       <use xlink:href="#DejaVuSans-65" x="77.001953"/>
       <use xlink:href="#DejaVuSans-65" x="138.525391"/>
       <use xlink:href="#DejaVuSans-70" x="200.048828"/>
       <use xlink:href="#DejaVuSans-20" x="263.525391"/>
       <use xlink:href="#DejaVuSans-51" x="295.3125"/>
       <use xlink:href="#DejaVuSans-4c" x="374.023438"/>
       <use xlink:href="#DejaVuSans-65" x="427.986328"/>
       <use xlink:href="#DejaVuSans-61" x="489.509766"/>
       <use xlink:href="#DejaVuSans-72" x="550.789062"/>
       <use xlink:href="#DejaVuSans-6e" x="590.152344"/>
       <use xlink:href="#DejaVuSans-65" x="653.53125"/>
       <use xlink:href="#DejaVuSans-72" x="715.054688"/>
      </g>
     </g>
    </g>
    <g id="xtick_5">
     <g id="line2d_5">
      <g>
       <use xlink:href="#m5a57150253" x="404.007273" y="337.97" style="stroke: #000000; stroke-width: 0.8"/>
      </g>
     </g>
     <g id="text_5">
      <!-- Tit For Tat -->
      <g transform="translate(406.214773 384.15)rotate(-90)scale(0.08 -0.08)">
       <defs>
        <path id="DejaVuSans-54" d="M -19 4666 
L 3928 4666 
L 3928 4134 
L 2272 4134 
L 2272 0 
L 1638 0 
L 1638 4134 
L -19 4134 
L -19 4666 
z
" transform="scale(0.015625)"/>
        <path id="DejaVuSans-46" d="M 628 4666 
L 3309 4666 
L 3309 4134 
L 1259 4134 
L 1259 2759 
L 3109 2759 
L 3109 2228 
L 1259 2228 
L 1259 0 
L 628 0 
L 628 4666 
z
" transform="scale(0.015625)"/>
       </defs>
       <use xlink:href="#DejaVuSans-54"/>
       <use xlink:href="#DejaVuSans-69" x="57.958984"/>
       <use xlink:href="#DejaVuSans-74" x="85.742188"/>
       <use xlink:href="#DejaVuSans-20" x="124.951172"/>
       <use xlink:href="#DejaVuSans-46" x="156.738281"/>
       <use xlink:href="#DejaVuSans-6f" x="210.632812"/>
       <use xlink:href="#DejaVuSans-72" x="271.814453"/>
       <use xlink:href="#DejaVuSans-20" x="312.927734"/>
       <use xlink:href="#DejaVuSans-54" x="344.714844"/>
       <use xlink:href="#DejaVuSans-61" x="389.298828"/>
       <use xlink:href="#DejaVuSans-74" x="450.578125"/>
      </g>
     </g>
    </g>
    <g id="xtick_6">
     <g id="line2d_6">
      <g>
       <use xlink:href="#m5a57150253" x="478.872727" y="337.97" style="stroke: #000000; stroke-width: 0.8"/>
      </g>
     </g>
     <g id="text_6">
      <!-- Alternator -->
      <g transform="translate(481.080227 385.165)rotate(-90)scale(0.08 -0.08)">
       <defs>
        <path id="DejaVuSans-6c" d="M 603 4863 
L 1178 4863 
L 1178 0 
L 603 0 
L 603 4863 
z
" transform="scale(0.015625)"/>
       </defs>
       <use xlink:href="#DejaVuSans-41"/>
       <use xlink:href="#DejaVuSans-6c" x="68.408203"/>
       <use xlink:href="#DejaVuSans-74" x="96.191406"/>
       <use xlink:href="#DejaVuSans-65" x="135.400391"/>
       <use xlink:href="#DejaVuSans-72" x="196.923828"/>
       <use xlink:href="#DejaVuSans-6e" x="236.287109"/>
       <use xlink:href="#DejaVuSans-61" x="299.666016"/>
       <use xlink:href="#DejaVuSans-74" x="360.945312"/>
       <use xlink:href="#DejaVuSans-6f" x="400.154297"/>
       <use xlink:href="#DejaVuSans-72" x="461.335938"/>
      </g>
     </g>
    </g>
    <g id="xtick_7">
     <g id="line2d_7">
      <g>
       <use xlink:href="#m5a57150253" x="553.738182" y="337.97" style="stroke: #000000; stroke-width: 0.8"/>
      </g>
     </g>
     <g id="text_7">
      <!-- Random: 0.5 -->
      <g transform="translate(555.945682 396.0475)rotate(-90)scale(0.08 -0.08)">
       <defs>
        <path id="DejaVuSans-52" d="M 2841 2188 
Q 3044 2119 3236 1894 
Q 3428 1669 3622 1275 
L 4263 0 
L 3584 0 
L 2988 1197 
Q 2756 1666 2539 1819 
Q 2322 1972 1947 1972 
L 1259 1972 
L 1259 0 
L 628 0 
L 628 4666 
L 2053 4666 
Q 2853 4666 3247 4331 
Q 3641 3997 3641 3322 
Q 3641 2881 3436 2590 
Q 3231 2300 2841 2188 
z
M 1259 4147 
L 1259 2491 
L 2053 2491 
Q 2509 2491 2742 2702 
Q 2975 2913 2975 3322 
Q 2975 3731 2742 3939 
Q 2509 4147 2053 4147 
L 1259 4147 
z
" transform="scale(0.015625)"/>
        <path id="DejaVuSans-6d" d="M 3328 2828 
Q 3544 3216 3844 3400 
Q 4144 3584 4550 3584 
Q 5097 3584 5394 3201 
Q 5691 2819 5691 2113 
L 5691 0 
L 5113 0 
L 5113 2094 
Q 5113 2597 4934 2840 
Q 4756 3084 4391 3084 
Q 3944 3084 3684 2787 
Q 3425 2491 3425 1978 
L 3425 0 
L 2847 0 
L 2847 2094 
Q 2847 2600 2669 2842 
Q 2491 3084 2119 3084 
Q 1678 3084 1418 2786 
Q 1159 2488 1159 1978 
L 1159 0 
L 581 0 
L 581 3500 
L 1159 3500 
L 1159 2956 
Q 1356 3278 1631 3431 
Q 1906 3584 2284 3584 
Q 2666 3584 2933 3390 
Q 3200 3197 3328 2828 
z
" transform="scale(0.015625)"/>
        <path id="DejaVuSans-3a" d="M 750 794 
L 1409 794 
L 1409 0 
L 750 0 
L 750 794 
z
M 750 3309 
L 1409 3309 
L 1409 2516 
L 750 2516 
L 750 3309 
z
" transform="scale(0.015625)"/>
        <path id="DejaVuSans-30" d="M 2034 4250 
Q 1547 4250 1301 3770 
Q 1056 3291 1056 2328 
Q 1056 1369 1301 889 
Q 1547 409 2034 409 
Q 2525 409 2770 889 
Q 3016 1369 3016 2328 
Q 3016 3291 2770 3770 
Q 2525 4250 2034 4250 
z
M 2034 4750 
Q 2819 4750 3233 4129 
Q 3647 3509 3647 2328 
Q 3647 1150 3233 529 
Q 2819 -91 2034 -91 
Q 1250 -91 836 529 
Q 422 1150 422 2328 
Q 422 3509 836 4129 
Q 1250 4750 2034 4750 
z
" transform="scale(0.015625)"/>
        <path id="DejaVuSans-2e" d="M 684 794 
L 1344 794 
L 1344 0 
L 684 0 
L 684 794 
z
" transform="scale(0.015625)"/>
        <path id="DejaVuSans-35" d="M 691 4666 
L 3169 4666 
L 3169 4134 
L 1269 4134 
L 1269 2991 
Q 1406 3038 1543 3061 
Q 1681 3084 1819 3084 
Q 2600 3084 3056 2656 
Q 3513 2228 3513 1497 
Q 3513 744 3044 326 
Q 2575 -91 1722 -91 
Q 1428 -91 1123 -41 
Q 819 9 494 109 
L 494 744 
Q 775 591 1075 516 
Q 1375 441 1709 441 
Q 2250 441 2565 725 
Q 2881 1009 2881 1497 
Q 2881 1984 2565 2268 
Q 2250 2553 1709 2553 
Q 1456 2553 1204 2497 
Q 953 2441 691 2322 
L 691 4666 
z
" transform="scale(0.015625)"/>
       </defs>
       <use xlink:href="#DejaVuSans-52"/>
       <use xlink:href="#DejaVuSans-61" x="67.232422"/>
       <use xlink:href="#DejaVuSans-6e" x="128.511719"/>
       <use xlink:href="#DejaVuSans-64" x="191.890625"/>
       <use xlink:href="#DejaVuSans-6f" x="255.367188"/>
       <use xlink:href="#DejaVuSans-6d" x="316.548828"/>
       <use xlink:href="#DejaVuSans-3a" x="413.960938"/>
       <use xlink:href="#DejaVuSans-20" x="447.652344"/>
       <use xlink:href="#DejaVuSans-30" x="479.439453"/>
       <use xlink:href="#DejaVuSans-2e" x="543.0625"/>
       <use xlink:href="#DejaVuSans-35" x="574.849609"/>
      </g>
     </g>
    </g>
    <g id="xtick_8">
     <g id="line2d_8">
      <g>
       <use xlink:href="#m5a57150253" x="628.603636" y="337.97" style="stroke: #000000; stroke-width: 0.8"/>
      </g>
     </g>
     <g id="text_8">
      <!-- Cooperator -->
      <g transform="translate(630.811136 389.85875)rotate(-90)scale(0.08 -0.08)">
       <defs>
        <path id="DejaVuSans-43" d="M 4122 4306 
L 4122 3641 
Q 3803 3938 3442 4084 
Q 3081 4231 2675 4231 
Q 1875 4231 1450 3742 
Q 1025 3253 1025 2328 
Q 1025 1406 1450 917 
Q 1875 428 2675 428 
Q 3081 428 3442 575 
Q 3803 722 4122 1019 
L 4122 359 
Q 3791 134 3420 21 
Q 3050 -91 2638 -91 
Q 1578 -91 968 557 
Q 359 1206 359 2328 
Q 359 3453 968 4101 
Q 1578 4750 2638 4750 
Q 3056 4750 3426 4639 
Q 3797 4528 4122 4306 
z
" transform="scale(0.015625)"/>
       </defs>
       <use xlink:href="#DejaVuSans-43"/>
       <use xlink:href="#DejaVuSans-6f" x="69.824219"/>
       <use xlink:href="#DejaVuSans-6f" x="131.005859"/>
       <use xlink:href="#DejaVuSans-70" x="192.1875"/>
       <use xlink:href="#DejaVuSans-65" x="255.664062"/>
       <use xlink:href="#DejaVuSans-72" x="317.1875"/>
       <use xlink:href="#DejaVuSans-61" x="358.300781"/>
       <use xlink:href="#DejaVuSans-74" x="419.580078"/>
       <use xlink:href="#DejaVuSans-6f" x="458.789062"/>
       <use xlink:href="#DejaVuSans-72" x="519.970703"/>
      </g>
     </g>
    </g>
    <g id="xtick_9">
     <g id="line2d_9">
      <g>
       <use xlink:href="#m5a57150253" x="703.469091" y="337.97" style="stroke: #000000; stroke-width: 0.8"/>
      </g>
     </g>
     <g id="text_9">
      <!-- Risky QLearner -->
      <g transform="translate(705.676591 405.40875)rotate(-90)scale(0.08 -0.08)">
       <defs>
        <path id="DejaVuSans-73" d="M 2834 3397 
L 2834 2853 
Q 2591 2978 2328 3040 
Q 2066 3103 1784 3103 
Q 1356 3103 1142 2972 
Q 928 2841 928 2578 
Q 928 2378 1081 2264 
Q 1234 2150 1697 2047 
L 1894 2003 
Q 2506 1872 2764 1633 
Q 3022 1394 3022 966 
Q 3022 478 2636 193 
Q 2250 -91 1575 -91 
Q 1294 -91 989 -36 
Q 684 19 347 128 
L 347 722 
Q 666 556 975 473 
Q 1284 391 1588 391 
Q 1994 391 2212 530 
Q 2431 669 2431 922 
Q 2431 1156 2273 1281 
Q 2116 1406 1581 1522 
L 1381 1569 
Q 847 1681 609 1914 
Q 372 2147 372 2553 
Q 372 3047 722 3315 
Q 1072 3584 1716 3584 
Q 2034 3584 2315 3537 
Q 2597 3491 2834 3397 
z
" transform="scale(0.015625)"/>
        <path id="DejaVuSans-6b" d="M 581 4863 
L 1159 4863 
L 1159 1991 
L 2875 3500 
L 3609 3500 
L 1753 1863 
L 3688 0 
L 2938 0 
L 1159 1709 
L 1159 0 
L 581 0 
L 581 4863 
z
" transform="scale(0.015625)"/>
        <path id="DejaVuSans-79" d="M 2059 -325 
Q 1816 -950 1584 -1140 
Q 1353 -1331 966 -1331 
L 506 -1331 
L 506 -850 
L 844 -850 
Q 1081 -850 1212 -737 
Q 1344 -625 1503 -206 
L 1606 56 
L 191 3500 
L 800 3500 
L 1894 763 
L 2988 3500 
L 3597 3500 
L 2059 -325 
z
" transform="scale(0.015625)"/>
       </defs>
       <use xlink:href="#DejaVuSans-52"/>
       <use xlink:href="#DejaVuSans-69" x="69.482422"/>
       <use xlink:href="#DejaVuSans-73" x="97.265625"/>
       <use xlink:href="#DejaVuSans-6b" x="149.365234"/>
       <use xlink:href="#DejaVuSans-79" x="203.650391"/>
       <use xlink:href="#DejaVuSans-20" x="262.830078"/>
       <use xlink:href="#DejaVuSans-51" x="294.617188"/>
       <use xlink:href="#DejaVuSans-4c" x="373.328125"/>
       <use xlink:href="#DejaVuSans-65" x="427.291016"/>
       <use xlink:href="#DejaVuSans-61" x="488.814453"/>
       <use xlink:href="#DejaVuSans-72" x="550.09375"/>
       <use xlink:href="#DejaVuSans-6e" x="589.457031"/>
       <use xlink:href="#DejaVuSans-65" x="652.835938"/>
       <use xlink:href="#DejaVuSans-72" x="714.359375"/>
      </g>
     </g>
    </g>
    <g id="xtick_10">
     <g id="line2d_10">
      <g>
       <use xlink:href="#m5a57150253" x="778.334545" y="337.97" style="stroke: #000000; stroke-width: 0.8"/>
      </g>
     </g>
     <g id="text_10">
      <!-- Mediocre QLearner -->
      <g transform="translate(780.542045 420.83375)rotate(-90)scale(0.08 -0.08)">
       <defs>
        <path id="DejaVuSans-4d" d="M 628 4666 
L 1569 4666 
L 2759 1491 
L 3956 4666 
L 4897 4666 
L 4897 0 
L 4281 0 
L 4281 4097 
L 3078 897 
L 2444 897 
L 1241 4097 
L 1241 0 
L 628 0 
L 628 4666 
z
" transform="scale(0.015625)"/>
       </defs>
       <use xlink:href="#DejaVuSans-4d"/>
       <use xlink:href="#DejaVuSans-65" x="86.279297"/>
       <use xlink:href="#DejaVuSans-64" x="147.802734"/>
       <use xlink:href="#DejaVuSans-69" x="211.279297"/>
       <use xlink:href="#DejaVuSans-6f" x="239.0625"/>
       <use xlink:href="#DejaVuSans-63" x="300.244141"/>
       <use xlink:href="#DejaVuSans-72" x="355.224609"/>
       <use xlink:href="#DejaVuSans-65" x="394.087891"/>
       <use xlink:href="#DejaVuSans-20" x="455.611328"/>
       <use xlink:href="#DejaVuSans-51" x="487.398438"/>
       <use xlink:href="#DejaVuSans-4c" x="566.109375"/>
       <use xlink:href="#DejaVuSans-65" x="620.072266"/>
       <use xlink:href="#DejaVuSans-61" x="681.595703"/>
       <use xlink:href="#DejaVuSans-72" x="742.875"/>
       <use xlink:href="#DejaVuSans-6e" x="782.238281"/>
       <use xlink:href="#DejaVuSans-65" x="845.617188"/>
       <use xlink:href="#DejaVuSans-72" x="907.140625"/>
      </g>
     </g>
    </g>
   </g>
   <g id="matplotlib.axis_2">
    <g id="ytick_1">
     <g id="line2d_11">
      <defs>
       <path id="mc76042318a" d="M 0 0 
L -3.5 0 
" style="stroke: #000000; stroke-width: 0.8"/>
      </defs>
      <g>
       <use xlink:href="#mc76042318a" x="29.68" y="295.548636" style="stroke: #000000; stroke-width: 0.8"/>
      </g>
     </g>
     <g id="text_11">
      <!-- 4 -->
      <g transform="translate(10.88625 298.588011)scale(0.08 -0.08)">
       <defs>
        <path id="DejaVuSans-2212" d="M 678 2272 
L 4684 2272 
L 4684 1741 
L 678 1741 
L 678 2272 
z
" transform="scale(0.015625)"/>
        <path id="DejaVuSans-34" d="M 2419 4116 
L 825 1625 
L 2419 1625 
L 2419 4116 
z
M 2253 4666 
L 3047 4666 
L 3047 1625 
L 3713 1625 
L 3713 1100 
L 3047 1100 
L 3047 0 
L 2419 0 
L 2419 1100 
L 313 1100 
L 313 1709 
L 2253 4666 
z
" transform="scale(0.015625)"/>
       </defs>
       <use xlink:href="#DejaVuSans-2212"/>
       <use xlink:href="#DejaVuSans-34" x="83.789062"/>
      </g>
     </g>
    </g>
    <g id="ytick_2">
     <g id="line2d_12">
      <g>
       <use xlink:href="#mc76042318a" x="29.68" y="238.986818" style="stroke: #000000; stroke-width: 0.8"/>
      </g>
     </g>
     <g id="text_12">
      <!-- 2 -->
      <g transform="translate(10.88625 242.026193)scale(0.08 -0.08)">
       <defs>
        <path id="DejaVuSans-32" d="M 1228 531 
L 3431 531 
L 3431 0 
L 469 0 
L 469 531 
Q 828 903 1448 1529 
Q 2069 2156 2228 2338 
Q 2531 2678 2651 2914 
Q 2772 3150 2772 3378 
Q 2772 3750 2511 3984 
Q 2250 4219 1831 4219 
Q 1534 4219 1204 4116 
Q 875 4013 500 3803 
L 500 4441 
Q 881 4594 1212 4672 
Q 1544 4750 1819 4750 
Q 2544 4750 2975 4387 
Q 3406 4025 3406 3419 
Q 3406 3131 3298 2873 
Q 3191 2616 2906 2266 
Q 2828 2175 2409 1742 
Q 1991 1309 1228 531 
z
" transform="scale(0.015625)"/>
       </defs>
       <use xlink:href="#DejaVuSans-2212"/>
       <use xlink:href="#DejaVuSans-32" x="83.789062"/>
      </g>
     </g>
    </g>
    <g id="ytick_3">
     <g id="line2d_13">
      <g>
       <use xlink:href="#mc76042318a" x="29.68" y="182.425" style="stroke: #000000; stroke-width: 0.8"/>
      </g>
     </g>
     <g id="text_13">
      <!-- 0 -->
      <g transform="translate(17.59 185.464375)scale(0.08 -0.08)">
       <use xlink:href="#DejaVuSans-30"/>
      </g>
     </g>
    </g>
    <g id="ytick_4">
     <g id="line2d_14">
      <g>
       <use xlink:href="#mc76042318a" x="29.68" y="125.863182" style="stroke: #000000; stroke-width: 0.8"/>
      </g>
     </g>
     <g id="text_14">
      <!-- 2 -->
      <g transform="translate(17.59 128.902557)scale(0.08 -0.08)">
       <use xlink:href="#DejaVuSans-32"/>
      </g>
     </g>
    </g>
    <g id="ytick_5">
     <g id="line2d_15">
      <g>
       <use xlink:href="#mc76042318a" x="29.68" y="69.301364" style="stroke: #000000; stroke-width: 0.8"/>
      </g>
     </g>
     <g id="text_15">
      <!-- 4 -->
      <g transform="translate(17.59 72.340739)scale(0.08 -0.08)">
       <use xlink:href="#DejaVuSans-34"/>
      </g>
     </g>
    </g>
   </g>
   <g id="LineCollection_1">
    <path d="M 95.187273 115.257841 
L 113.903636 115.257841 
" clip-path="url(#p188546d5cd)" style="fill: none; stroke: #1f77b4; stroke-width: 1.5"/>
    <path d="M 170.052727 154.144091 
L 188.769091 154.144091 
" clip-path="url(#p188546d5cd)" style="fill: none; stroke: #1f77b4; stroke-width: 1.5"/>
    <path d="M 244.918182 182.425 
L 263.634545 182.425 
" clip-path="url(#p188546d5cd)" style="fill: none; stroke: #1f77b4; stroke-width: 1.5"/>
    <path d="M 319.783636 182.425 
L 338.5 182.425 
" clip-path="url(#p188546d5cd)" style="fill: none; stroke: #1f77b4; stroke-width: 1.5"/>
    <path d="M 394.649091 182.425 
L 413.365455 182.425 
" clip-path="url(#p188546d5cd)" style="fill: none; stroke: #1f77b4; stroke-width: 1.5"/>
    <path d="M 469.514545 182.425 
L 488.230909 182.425 
" clip-path="url(#p188546d5cd)" style="fill: none; stroke: #1f77b4; stroke-width: 1.5"/>
    <path d="M 544.38 182.425 
L 563.096364 182.425 
" clip-path="url(#p188546d5cd)" style="fill: none; stroke: #1f77b4; stroke-width: 1.5"/>
    <path d="M 619.245455 196.565455 
L 637.961818 196.565455 
" clip-path="url(#p188546d5cd)" style="fill: none; stroke: #1f77b4; stroke-width: 1.5"/>
    <path d="M 694.110909 193.030341 
L 712.827273 193.030341 
" clip-path="url(#p188546d5cd)" style="fill: none; stroke: #1f77b4; stroke-width: 1.5"/>
    <path d="M 768.976364 196.565455 
L 787.692727 196.565455 
" clip-path="url(#p188546d5cd)" style="fill: none; stroke: #1f77b4; stroke-width: 1.5"/>
   </g>
   <g id="patch_3">
    <path d="M 29.68 337.97 
L 29.68 26.88 
" style="fill: none; stroke: #000000; stroke-width: 0.8; stroke-linejoin: miter; stroke-linecap: square"/>
   </g>
   <g id="patch_4">
    <path d="M 853.2 337.97 
L 853.2 26.88 
" style="fill: none; stroke: #000000; stroke-width: 0.8; stroke-linejoin: miter; stroke-linecap: square"/>
   </g>
   <g id="patch_5">
    <path d="M 29.68 337.97 
L 853.2 337.97 
" style="fill: none; stroke: #000000; stroke-width: 0.8; stroke-linejoin: miter; stroke-linecap: square"/>
   </g>
   <g id="patch_6">
    <path d="M 29.68 26.88 
L 853.2 26.88 
" style="fill: none; stroke: #000000; stroke-width: 0.8; stroke-linejoin: miter; stroke-linecap: square"/>
   </g>
   <g id="text_16">
    <!-- Payoff differences - turns: 200, repetitions: 20, strategies: 10.  -->
    <g transform="translate(254.235313 20.88)scale(0.12 -0.12)">
     <defs>
      <path id="DejaVuSans-50" d="M 1259 4147 
L 1259 2394 
L 2053 2394 
Q 2494 2394 2734 2622 
Q 2975 2850 2975 3272 
Q 2975 3691 2734 3919 
Q 2494 4147 2053 4147 
L 1259 4147 
z
M 628 4666 
L 2053 4666 
Q 2838 4666 3239 4311 
Q 3641 3956 3641 3272 
Q 3641 2581 3239 2228 
Q 2838 1875 2053 1875 
L 1259 1875 
L 1259 0 
L 628 0 
L 628 4666 
z
" transform="scale(0.015625)"/>
      <path id="DejaVuSans-2d" d="M 313 2009 
L 1997 2009 
L 1997 1497 
L 313 1497 
L 313 2009 
z
" transform="scale(0.015625)"/>
      <path id="DejaVuSans-2c" d="M 750 794 
L 1409 794 
L 1409 256 
L 897 -744 
L 494 -744 
L 750 256 
L 750 794 
z
" transform="scale(0.015625)"/>
      <path id="DejaVuSans-31" d="M 794 531 
L 1825 531 
L 1825 4091 
L 703 3866 
L 703 4441 
L 1819 4666 
L 2450 4666 
L 2450 531 
L 3481 531 
L 3481 0 
L 794 0 
L 794 531 
z
" transform="scale(0.015625)"/>
     </defs>
     <use xlink:href="#DejaVuSans-50"/>
     <use xlink:href="#DejaVuSans-61" x="55.802734"/>
     <use xlink:href="#DejaVuSans-79" x="117.082031"/>
     <use xlink:href="#DejaVuSans-6f" x="176.261719"/>
     <use xlink:href="#DejaVuSans-66" x="237.443359"/>
     <use xlink:href="#DejaVuSans-66" x="272.648438"/>
     <use xlink:href="#DejaVuSans-20" x="307.853516"/>
     <use xlink:href="#DejaVuSans-64" x="339.640625"/>
     <use xlink:href="#DejaVuSans-69" x="403.117188"/>
     <use xlink:href="#DejaVuSans-66" x="430.900391"/>
     <use xlink:href="#DejaVuSans-66" x="466.105469"/>
     <use xlink:href="#DejaVuSans-65" x="501.310547"/>
     <use xlink:href="#DejaVuSans-72" x="562.833984"/>
     <use xlink:href="#DejaVuSans-65" x="601.697266"/>
     <use xlink:href="#DejaVuSans-6e" x="663.220703"/>
     <use xlink:href="#DejaVuSans-63" x="726.599609"/>
     <use xlink:href="#DejaVuSans-65" x="781.580078"/>
     <use xlink:href="#DejaVuSans-73" x="843.103516"/>
     <use xlink:href="#DejaVuSans-20" x="895.203125"/>
     <use xlink:href="#DejaVuSans-2d" x="926.990234"/>
     <use xlink:href="#DejaVuSans-20" x="963.074219"/>
     <use xlink:href="#DejaVuSans-74" x="994.861328"/>
     <use xlink:href="#DejaVuSans-75" x="1034.070312"/>
     <use xlink:href="#DejaVuSans-72" x="1097.449219"/>
     <use xlink:href="#DejaVuSans-6e" x="1136.8125"/>
     <use xlink:href="#DejaVuSans-73" x="1200.191406"/>
     <use xlink:href="#DejaVuSans-3a" x="1252.291016"/>
     <use xlink:href="#DejaVuSans-20" x="1285.982422"/>
     <use xlink:href="#DejaVuSans-32" x="1317.769531"/>
     <use xlink:href="#DejaVuSans-30" x="1381.392578"/>
     <use xlink:href="#DejaVuSans-30" x="1445.015625"/>
     <use xlink:href="#DejaVuSans-2c" x="1508.638672"/>
     <use xlink:href="#DejaVuSans-20" x="1540.425781"/>
     <use xlink:href="#DejaVuSans-72" x="1572.212891"/>
     <use xlink:href="#DejaVuSans-65" x="1611.076172"/>
     <use xlink:href="#DejaVuSans-70" x="1672.599609"/>
     <use xlink:href="#DejaVuSans-65" x="1736.076172"/>
     <use xlink:href="#DejaVuSans-74" x="1797.599609"/>
     <use xlink:href="#DejaVuSans-69" x="1836.808594"/>
     <use xlink:href="#DejaVuSans-74" x="1864.591797"/>
     <use xlink:href="#DejaVuSans-69" x="1903.800781"/>
     <use xlink:href="#DejaVuSans-6f" x="1931.583984"/>
     <use xlink:href="#DejaVuSans-6e" x="1992.765625"/>
     <use xlink:href="#DejaVuSans-73" x="2056.144531"/>
     <use xlink:href="#DejaVuSans-3a" x="2108.244141"/>
     <use xlink:href="#DejaVuSans-20" x="2141.935547"/>
     <use xlink:href="#DejaVuSans-32" x="2173.722656"/>
     <use xlink:href="#DejaVuSans-30" x="2237.345703"/>
     <use xlink:href="#DejaVuSans-2c" x="2300.96875"/>
     <use xlink:href="#DejaVuSans-20" x="2332.755859"/>
     <use xlink:href="#DejaVuSans-73" x="2364.542969"/>
     <use xlink:href="#DejaVuSans-74" x="2416.642578"/>
     <use xlink:href="#DejaVuSans-72" x="2455.851562"/>
     <use xlink:href="#DejaVuSans-61" x="2496.964844"/>
     <use xlink:href="#DejaVuSans-74" x="2558.244141"/>
     <use xlink:href="#DejaVuSans-65" x="2597.453125"/>
     <use xlink:href="#DejaVuSans-67" x="2658.976562"/>
     <use xlink:href="#DejaVuSans-69" x="2722.453125"/>
     <use xlink:href="#DejaVuSans-65" x="2750.236328"/>
     <use xlink:href="#DejaVuSans-73" x="2811.759766"/>
     <use xlink:href="#DejaVuSans-3a" x="2863.859375"/>
     <use xlink:href="#DejaVuSans-20" x="2897.550781"/>
     <use xlink:href="#DejaVuSans-31" x="2929.337891"/>
     <use xlink:href="#DejaVuSans-30" x="2992.960938"/>
     <use xlink:href="#DejaVuSans-2e" x="3056.583984"/>
     <use xlink:href="#DejaVuSans-20" x="3088.371094"/>
    </g>
   </g>
  </g>
 </g>
 <defs>
  <clipPath id="p188546d5cd">
   <rect x="29.68" y="26.88" width="823.52" height="311.09"/>
  </clipPath>
 </defs>
</svg>
