<?xml version="1.0" encoding="utf-8" standalone="no"?>
<!DOCTYPE svg PUBLIC "-//W3C//DTD SVG 1.1//EN"
  "http://www.w3.org/Graphics/SVG/1.1/DTD/svg11.dtd">
<svg xmlns:xlink="http://www.w3.org/1999/xlink" width="864pt" height="432pt" viewBox="0 0 864 432" xmlns="http://www.w3.org/2000/svg" version="1.1">
 <metadata>
  <rdf:RDF xmlns:dc="http://purl.org/dc/elements/1.1/" xmlns:cc="http://creativecommons.org/ns#" xmlns:rdf="http://www.w3.org/1999/02/22-rdf-syntax-ns#">
   <cc:Work>
    <dc:type rdf:resource="http://purl.org/dc/dcmitype/StillImage"/>
    <dc:date>2022-09-11T03:50:05.407751</dc:date>
    <dc:format>image/svg+xml</dc:format>
    <dc:creator>
     <cc:Agent>
      <dc:title>Matplotlib v3.5.1, https://matplotlib.org/</dc:title>
     </cc:Agent>
    </dc:creator>
   </cc:Work>
  </rdf:RDF>
 </metadata>
 <defs>
  <style type="text/css">*{stroke-linejoin: round; stroke-linecap: butt}</style>
 </defs>
 <g id="figure_1">
  <g id="patch_1">
   <path d="M 0 432 
L 864 432 
L 864 0 
L 0 0 
z
" style="fill: #ffffff"/>
  </g>
  <g id="axes_1">
   <g id="patch_2">
    <path d="M 22.93 337.97 
L 853.2 337.97 
L 853.2 26.88 
L 22.93 26.88 
z
" style="fill: #ffffff"/>
   </g>
   <g id="PolyCollection_1">
    <path d="M 117.278864 44.162778 
L 79.539318 44.162778 
L 79.539318 44.162778 
L 79.539318 44.162778 
L 79.539318 44.162778 
L 79.539318 44.162778 
L 79.539318 44.162778 
L 79.539318 44.162778 
L 79.539318 44.162778 
L 79.539318 44.162778 
L 79.539318 44.162778 
L 79.539318 44.162778 
L 79.539318 44.162778 
L 79.539318 44.162778 
L 79.539318 44.162778 
L 79.539318 44.162778 
L 79.539318 44.162778 
L 79.539318 44.162778 
L 79.539318 44.162778 
L 79.539318 44.162778 
L 79.539318 44.162778 
L 79.539318 44.162778 
L 79.539318 44.162778 
L 79.539318 44.162778 
L 79.539318 44.162778 
L 79.539318 44.162778 
L 79.539318 44.162778 
L 79.539318 44.162778 
L 79.539318 44.162778 
L 79.539318 44.162778 
L 79.539318 44.162778 
L 79.539318 44.162778 
L 79.539318 44.162778 
L 79.539318 44.162778 
L 79.539318 44.162778 
L 79.539318 44.162778 
L 79.539318 44.162778 
L 79.539318 44.162778 
L 79.539318 44.162778 
L 79.539318 44.162778 
L 79.539318 44.162778 
L 79.539318 44.162778 
L 79.539318 44.162778 
L 79.539318 44.162778 
L 79.539318 44.162778 
L 79.539318 44.162778 
L 79.539318 44.162778 
L 79.539318 44.162778 
L 79.539318 44.162778 
L 79.539318 44.162778 
L 79.539318 44.162778 
L 79.539318 44.162778 
L 79.539318 44.162778 
L 79.539318 44.162778 
L 79.539318 44.162778 
L 79.539318 44.162778 
L 79.539318 44.162778 
L 79.539318 44.162778 
L 79.539318 44.162778 
L 79.539318 44.162778 
L 79.539318 44.162778 
L 79.539318 44.162778 
L 79.539318 44.162778 
L 79.539318 44.162778 
L 79.539318 44.162778 
L 79.539318 44.162778 
L 79.539318 44.162778 
L 79.539318 44.162778 
L 79.539318 44.162778 
L 79.539318 44.162778 
L 79.539318 44.162778 
L 79.539318 44.162778 
L 79.539318 44.162778 
L 79.539318 44.162778 
L 79.539318 44.162778 
L 79.539318 44.162778 
L 79.539318 44.162778 
L 79.539318 44.162778 
L 79.539318 44.162778 
L 79.539318 44.162778 
L 79.539318 44.162778 
L 79.539318 44.162778 
L 79.539318 44.162778 
L 79.539318 44.162778 
L 79.539318 44.162778 
L 79.539318 44.162778 
L 79.539318 44.162778 
L 79.539318 44.162778 
L 79.539318 44.162778 
L 79.539318 44.162778 
L 79.539318 44.162778 
L 79.539318 44.162778 
L 79.539318 44.162778 
L 79.539318 44.162778 
L 79.539318 44.162778 
L 79.539318 44.162778 
L 79.539318 44.162778 
L 79.539318 44.162778 
L 79.539318 44.162778 
L 79.539318 44.162778 
L 79.539318 44.162778 
L 117.278864 44.162778 
L 117.278864 44.162778 
L 117.278864 44.162778 
L 117.278864 44.162778 
L 117.278864 44.162778 
L 117.278864 44.162778 
L 117.278864 44.162778 
L 117.278864 44.162778 
L 117.278864 44.162778 
L 117.278864 44.162778 
L 117.278864 44.162778 
L 117.278864 44.162778 
L 117.278864 44.162778 
L 117.278864 44.162778 
L 117.278864 44.162778 
L 117.278864 44.162778 
L 117.278864 44.162778 
L 117.278864 44.162778 
L 117.278864 44.162778 
L 117.278864 44.162778 
L 117.278864 44.162778 
L 117.278864 44.162778 
L 117.278864 44.162778 
L 117.278864 44.162778 
L 117.278864 44.162778 
L 117.278864 44.162778 
L 117.278864 44.162778 
L 117.278864 44.162778 
L 117.278864 44.162778 
L 117.278864 44.162778 
L 117.278864 44.162778 
L 117.278864 44.162778 
L 117.278864 44.162778 
L 117.278864 44.162778 
L 117.278864 44.162778 
L 117.278864 44.162778 
L 117.278864 44.162778 
L 117.278864 44.162778 
L 117.278864 44.162778 
L 117.278864 44.162778 
L 117.278864 44.162778 
L 117.278864 44.162778 
L 117.278864 44.162778 
L 117.278864 44.162778 
L 117.278864 44.162778 
L 117.278864 44.162778 
L 117.278864 44.162778 
L 117.278864 44.162778 
L 117.278864 44.162778 
L 117.278864 44.162778 
L 117.278864 44.162778 
L 117.278864 44.162778 
L 117.278864 44.162778 
L 117.278864 44.162778 
L 117.278864 44.162778 
L 117.278864 44.162778 
L 117.278864 44.162778 
L 117.278864 44.162778 
L 117.278864 44.162778 
L 117.278864 44.162778 
L 117.278864 44.162778 
L 117.278864 44.162778 
L 117.278864 44.162778 
L 117.278864 44.162778 
L 117.278864 44.162778 
L 117.278864 44.162778 
L 117.278864 44.162778 
L 117.278864 44.162778 
L 117.278864 44.162778 
L 117.278864 44.162778 
L 117.278864 44.162778 
L 117.278864 44.162778 
L 117.278864 44.162778 
L 117.278864 44.162778 
L 117.278864 44.162778 
L 117.278864 44.162778 
L 117.278864 44.162778 
L 117.278864 44.162778 
L 117.278864 44.162778 
L 117.278864 44.162778 
L 117.278864 44.162778 
L 117.278864 44.162778 
L 117.278864 44.162778 
L 117.278864 44.162778 
L 117.278864 44.162778 
L 117.278864 44.162778 
L 117.278864 44.162778 
L 117.278864 44.162778 
L 117.278864 44.162778 
L 117.278864 44.162778 
L 117.278864 44.162778 
L 117.278864 44.162778 
L 117.278864 44.162778 
L 117.278864 44.162778 
L 117.278864 44.162778 
L 117.278864 44.162778 
L 117.278864 44.162778 
L 117.278864 44.162778 
L 117.278864 44.162778 
L 117.278864 44.162778 
L 117.278864 44.162778 
z
" clip-path="url(#pee67c2e5e3)" style="fill: #1f77b4; fill-opacity: 0.3"/>
   </g>
   <g id="PolyCollection_2">
    <path d="M 192.757955 44.162778 
L 155.018409 44.162778 
L 155.018409 44.162778 
L 155.018409 44.162778 
L 155.018409 44.162778 
L 155.018409 44.162778 
L 155.018409 44.162778 
L 155.018409 44.162778 
L 155.018409 44.162778 
L 155.018409 44.162778 
L 155.018409 44.162778 
L 155.018409 44.162778 
L 155.018409 44.162778 
L 155.018409 44.162778 
L 155.018409 44.162778 
L 155.018409 44.162778 
L 155.018409 44.162778 
L 155.018409 44.162778 
L 155.018409 44.162778 
L 155.018409 44.162778 
L 155.018409 44.162778 
L 155.018409 44.162778 
L 155.018409 44.162778 
L 155.018409 44.162778 
L 155.018409 44.162778 
L 155.018409 44.162778 
L 155.018409 44.162778 
L 155.018409 44.162778 
L 155.018409 44.162778 
L 155.018409 44.162778 
L 155.018409 44.162778 
L 155.018409 44.162778 
L 155.018409 44.162778 
L 155.018409 44.162778 
L 155.018409 44.162778 
L 155.018409 44.162778 
L 155.018409 44.162778 
L 155.018409 44.162778 
L 155.018409 44.162778 
L 155.018409 44.162778 
L 155.018409 44.162778 
L 155.018409 44.162778 
L 155.018409 44.162778 
L 155.018409 44.162778 
L 155.018409 44.162778 
L 155.018409 44.162778 
L 155.018409 44.162778 
L 155.018409 44.162778 
L 155.018409 44.162778 
L 155.018409 44.162778 
L 155.018409 44.162778 
L 155.018409 44.162778 
L 155.018409 44.162778 
L 155.018409 44.162778 
L 155.018409 44.162778 
L 155.018409 44.162778 
L 155.018409 44.162778 
L 155.018409 44.162778 
L 155.018409 44.162778 
L 155.018409 44.162778 
L 155.018409 44.162778 
L 155.018409 44.162778 
L 155.018409 44.162778 
L 155.018409 44.162778 
L 155.018409 44.162778 
L 155.018409 44.162778 
L 155.018409 44.162778 
L 155.018409 44.162778 
L 155.018409 44.162778 
L 155.018409 44.162778 
L 155.018409 44.162778 
L 155.018409 44.162778 
L 155.018409 44.162778 
L 155.018409 44.162778 
L 155.018409 44.162778 
L 155.018409 44.162778 
L 155.018409 44.162778 
L 155.018409 44.162778 
L 155.018409 44.162778 
L 155.018409 44.162778 
L 155.018409 44.162778 
L 155.018409 44.162778 
L 155.018409 44.162778 
L 155.018409 44.162778 
L 155.018409 44.162778 
L 155.018409 44.162778 
L 155.018409 44.162778 
L 155.018409 44.162778 
L 155.018409 44.162778 
L 155.018409 44.162778 
L 155.018409 44.162778 
L 155.018409 44.162778 
L 155.018409 44.162778 
L 155.018409 44.162778 
L 155.018409 44.162778 
L 155.018409 44.162778 
L 155.018409 44.162778 
L 155.018409 44.162778 
L 155.018409 44.162778 
L 155.018409 44.162778 
L 155.018409 44.162778 
L 192.757955 44.162778 
L 192.757955 44.162778 
L 192.757955 44.162778 
L 192.757955 44.162778 
L 192.757955 44.162778 
L 192.757955 44.162778 
L 192.757955 44.162778 
L 192.757955 44.162778 
L 192.757955 44.162778 
L 192.757955 44.162778 
L 192.757955 44.162778 
L 192.757955 44.162778 
L 192.757955 44.162778 
L 192.757955 44.162778 
L 192.757955 44.162778 
L 192.757955 44.162778 
L 192.757955 44.162778 
L 192.757955 44.162778 
L 192.757955 44.162778 
L 192.757955 44.162778 
L 192.757955 44.162778 
L 192.757955 44.162778 
L 192.757955 44.162778 
L 192.757955 44.162778 
L 192.757955 44.162778 
L 192.757955 44.162778 
L 192.757955 44.162778 
L 192.757955 44.162778 
L 192.757955 44.162778 
L 192.757955 44.162778 
L 192.757955 44.162778 
L 192.757955 44.162778 
L 192.757955 44.162778 
L 192.757955 44.162778 
L 192.757955 44.162778 
L 192.757955 44.162778 
L 192.757955 44.162778 
L 192.757955 44.162778 
L 192.757955 44.162778 
L 192.757955 44.162778 
L 192.757955 44.162778 
L 192.757955 44.162778 
L 192.757955 44.162778 
L 192.757955 44.162778 
L 192.757955 44.162778 
L 192.757955 44.162778 
L 192.757955 44.162778 
L 192.757955 44.162778 
L 192.757955 44.162778 
L 192.757955 44.162778 
L 192.757955 44.162778 
L 192.757955 44.162778 
L 192.757955 44.162778 
L 192.757955 44.162778 
L 192.757955 44.162778 
L 192.757955 44.162778 
L 192.757955 44.162778 
L 192.757955 44.162778 
L 192.757955 44.162778 
L 192.757955 44.162778 
L 192.757955 44.162778 
L 192.757955 44.162778 
L 192.757955 44.162778 
L 192.757955 44.162778 
L 192.757955 44.162778 
L 192.757955 44.162778 
L 192.757955 44.162778 
L 192.757955 44.162778 
L 192.757955 44.162778 
L 192.757955 44.162778 
L 192.757955 44.162778 
L 192.757955 44.162778 
L 192.757955 44.162778 
L 192.757955 44.162778 
L 192.757955 44.162778 
L 192.757955 44.162778 
L 192.757955 44.162778 
L 192.757955 44.162778 
L 192.757955 44.162778 
L 192.757955 44.162778 
L 192.757955 44.162778 
L 192.757955 44.162778 
L 192.757955 44.162778 
L 192.757955 44.162778 
L 192.757955 44.162778 
L 192.757955 44.162778 
L 192.757955 44.162778 
L 192.757955 44.162778 
L 192.757955 44.162778 
L 192.757955 44.162778 
L 192.757955 44.162778 
L 192.757955 44.162778 
L 192.757955 44.162778 
L 192.757955 44.162778 
L 192.757955 44.162778 
L 192.757955 44.162778 
L 192.757955 44.162778 
L 192.757955 44.162778 
L 192.757955 44.162778 
L 192.757955 44.162778 
L 192.757955 44.162778 
z
" clip-path="url(#pee67c2e5e3)" style="fill: #1f77b4; fill-opacity: 0.3"/>
   </g>
   <g id="PolyCollection_3">
    <path d="M 249.65463 182.425 
L 249.079916 182.425 
L 249.088019 182.075853 
L 249.110982 181.726706 
L 249.145134 181.377559 
L 249.185441 181.028412 
L 249.22671 180.679265 
L 249.264653 180.330118 
L 249.29652 179.980971 
L 249.321203 179.631824 
L 249.338943 179.282677 
L 249.350821 178.93353 
L 249.35825 178.584383 
L 249.362599 178.235236 
L 249.364987 177.886089 
L 249.366217 177.536942 
L 249.366812 177.187795 
L 249.367083 176.838648 
L 249.367199 176.489501 
L 249.367246 176.140354 
L 249.367263 175.791207 
L 249.36727 175.442059 
L 249.367272 175.092912 
L 249.367272 174.743765 
L 249.367273 174.394618 
L 249.367273 174.045471 
L 249.367273 173.696324 
L 249.367273 173.347177 
L 249.367273 172.99803 
L 249.367273 172.648883 
L 249.367273 172.299736 
L 249.367273 171.950589 
L 249.367273 171.601442 
L 249.367273 171.252295 
L 249.367273 170.903148 
L 249.367273 170.554001 
L 249.367273 170.204854 
L 249.367273 169.855707 
L 249.367273 169.50656 
L 249.367273 169.157413 
L 249.367273 168.808266 
L 249.367273 168.459119 
L 249.367273 168.109972 
L 249.367273 167.760825 
L 249.367273 167.411678 
L 249.367273 167.062531 
L 249.367273 166.713384 
L 249.367273 166.364237 
L 249.367273 166.01509 
L 249.367273 165.665943 
L 249.367273 165.316796 
L 249.367273 164.967649 
L 249.367273 164.618502 
L 249.367273 164.269355 
L 249.367273 163.920208 
L 249.367273 163.571061 
L 249.367273 163.221914 
L 249.367273 162.872767 
L 249.367273 162.52362 
L 249.367273 162.174473 
L 249.367273 161.825325 
L 249.367273 161.476178 
L 249.367273 161.127031 
L 249.367273 160.777884 
L 249.367273 160.428737 
L 249.367273 160.07959 
L 249.367273 159.730443 
L 249.367273 159.381296 
L 249.367273 159.032149 
L 249.367273 158.683002 
L 249.367273 158.333855 
L 249.367273 157.984708 
L 249.367273 157.635561 
L 249.367273 157.286414 
L 249.367273 156.937267 
L 249.367272 156.58812 
L 249.367271 156.238973 
L 249.367268 155.889826 
L 249.367254 155.540679 
L 249.36721 155.191532 
L 249.36707 154.842385 
L 249.366654 154.493238 
L 249.36549 154.144091 
L 249.362422 153.794944 
L 249.354807 153.445797 
L 249.337016 153.09665 
L 249.297921 152.747503 
L 249.217149 152.398356 
L 249.060371 152.049209 
L 248.77475 151.700062 
L 248.286917 151.350915 
L 247.506965 151.001768 
L 246.342041 150.652621 
L 244.721171 150.303474 
L 242.628595 149.954327 
L 240.136954 149.60518 
L 237.426988 149.256033 
L 234.780182 148.906886 
L 232.537484 148.557738 
L 231.029581 148.208591 
L 230.4975 147.859444 
L 268.237045 147.859444 
L 268.237045 147.859444 
L 267.704965 148.208591 
L 266.197062 148.557738 
L 263.954363 148.906886 
L 261.307557 149.256033 
L 258.597591 149.60518 
L 256.10595 149.954327 
L 254.013374 150.303474 
L 252.392505 150.652621 
L 251.22758 151.001768 
L 250.447628 151.350915 
L 249.959795 151.700062 
L 249.674174 152.049209 
L 249.517396 152.398356 
L 249.436624 152.747503 
L 249.397529 153.09665 
L 249.379739 153.445797 
L 249.372123 153.794944 
L 249.369055 154.144091 
L 249.367891 154.493238 
L 249.367475 154.842385 
L 249.367335 155.191532 
L 249.367291 155.540679 
L 249.367278 155.889826 
L 249.367274 156.238973 
L 249.367273 156.58812 
L 249.367273 156.937267 
L 249.367273 157.286414 
L 249.367273 157.635561 
L 249.367273 157.984708 
L 249.367273 158.333855 
L 249.367273 158.683002 
L 249.367273 159.032149 
L 249.367273 159.381296 
L 249.367273 159.730443 
L 249.367273 160.07959 
L 249.367273 160.428737 
L 249.367273 160.777884 
L 249.367273 161.127031 
L 249.367273 161.476178 
L 249.367273 161.825325 
L 249.367273 162.174473 
L 249.367273 162.52362 
L 249.367273 162.872767 
L 249.367273 163.221914 
L 249.367273 163.571061 
L 249.367273 163.920208 
L 249.367273 164.269355 
L 249.367273 164.618502 
L 249.367273 164.967649 
L 249.367273 165.316796 
L 249.367273 165.665943 
L 249.367273 166.01509 
L 249.367273 166.364237 
L 249.367273 166.713384 
L 249.367273 167.062531 
L 249.367273 167.411678 
L 249.367273 167.760825 
L 249.367273 168.109972 
L 249.367273 168.459119 
L 249.367273 168.808266 
L 249.367273 169.157413 
L 249.367273 169.50656 
L 249.367273 169.855707 
L 249.367273 170.204854 
L 249.367273 170.554001 
L 249.367273 170.903148 
L 249.367273 171.252295 
L 249.367273 171.601442 
L 249.367273 171.950589 
L 249.367273 172.299736 
L 249.367273 172.648883 
L 249.367273 172.99803 
L 249.367273 173.347177 
L 249.367273 173.696324 
L 249.367273 174.045471 
L 249.367273 174.394618 
L 249.367273 174.743765 
L 249.367274 175.092912 
L 249.367276 175.442059 
L 249.367282 175.791207 
L 249.3673 176.140354 
L 249.367347 176.489501 
L 249.367463 176.838648 
L 249.367733 177.187795 
L 249.368329 177.536942 
L 249.369559 177.886089 
L 249.371946 178.235236 
L 249.376296 178.584383 
L 249.383725 178.93353 
L 249.395602 179.282677 
L 249.413342 179.631824 
L 249.438026 179.980971 
L 249.469892 180.330118 
L 249.507836 180.679265 
L 249.549104 181.028412 
L 249.589411 181.377559 
L 249.623564 181.726706 
L 249.646527 182.075853 
L 249.65463 182.425 
z
" clip-path="url(#pee67c2e5e3)" style="fill: #1f77b4; fill-opacity: 0.3"/>
   </g>
   <g id="PolyCollection_4">
    <path d="M 326.546432 216.990556 
L 323.146296 216.990556 
L 323.154428 216.292262 
L 323.178673 215.593967 
L 323.218318 214.895673 
L 323.272212 214.197379 
L 323.338817 213.499085 
L 323.416277 212.800791 
L 323.502483 212.102497 
L 323.595161 211.404203 
L 323.691945 210.705909 
L 323.790449 210.007615 
L 323.888332 209.309321 
L 323.983334 208.611027 
L 324.073311 207.912733 
L 324.156233 207.214439 
L 324.230175 206.516145 
L 324.293279 205.817851 
L 324.343706 205.119557 
L 324.37957 204.421263 
L 324.398871 203.722969 
L 324.399419 203.024675 
L 324.378767 202.32638 
L 324.334158 201.628086 
L 324.262489 200.929792 
L 324.160304 200.231498 
L 324.023822 199.533204 
L 323.849008 198.83491 
L 323.631679 198.136616 
L 323.367672 197.438322 
L 323.053045 196.740028 
L 322.684325 196.041734 
L 322.258791 195.34344 
L 321.774778 194.645146 
L 321.231981 193.946852 
L 320.63176 193.248558 
L 319.977393 192.550264 
L 319.274284 191.85197 
L 318.530088 191.153676 
L 317.754735 190.455382 
L 316.960337 189.757088 
L 316.160976 189.058793 
L 315.372361 188.360499 
L 314.611365 187.662205 
L 313.895456 186.963911 
L 313.242058 186.265617 
L 312.667853 185.567323 
L 312.188082 184.869029 
L 311.815878 184.170735 
L 311.561665 183.472441 
L 311.432679 182.774147 
L 311.432619 182.075853 
L 311.561473 181.377559 
L 311.815515 180.679265 
L 312.187479 179.980971 
L 312.666895 179.282677 
L 313.240574 178.584383 
L 313.89319 177.886089 
L 314.607944 177.187795 
L 315.367252 176.489501 
L 316.153418 175.791207 
L 316.949266 175.092912 
L 317.738677 174.394618 
L 318.50702 173.696324 
L 319.241463 172.99803 
L 319.931145 172.299736 
L 320.56722 171.601442 
L 321.142779 170.903148 
L 321.652675 170.204854 
L 322.09326 169.50656 
L 322.462076 168.808266 
L 322.757514 168.109972 
L 322.978473 167.411678 
L 323.124052 166.713384 
L 323.193282 166.01509 
L 323.184933 165.316796 
L 323.097406 164.618502 
L 322.928712 163.920208 
L 322.676559 163.221914 
L 322.338532 162.52362 
L 321.912363 161.825325 
L 321.396284 161.127031 
L 320.78944 160.428737 
L 320.09233 159.730443 
L 319.307267 159.032149 
L 318.438798 158.333855 
L 317.494075 157.635561 
L 316.483121 156.937267 
L 315.418973 156.238973 
L 314.317671 155.540679 
L 313.198071 154.842385 
L 312.081478 154.144091 
L 310.991101 153.445797 
L 309.951342 152.747503 
L 308.986957 152.049209 
L 308.122117 151.350915 
L 307.379437 150.652621 
L 306.779008 149.954327 
L 306.337512 149.256033 
L 306.067455 148.557738 
L 305.976591 147.859444 
L 343.716136 147.859444 
L 343.716136 147.859444 
L 343.625272 148.557738 
L 343.355216 149.256033 
L 342.913719 149.954327 
L 342.313291 150.652621 
L 341.57061 151.350915 
L 340.70577 152.049209 
L 339.741385 152.747503 
L 338.701626 153.445797 
L 337.611249 154.144091 
L 336.494657 154.842385 
L 335.375057 155.540679 
L 334.273755 156.238973 
L 333.209607 156.937267 
L 332.198652 157.635561 
L 331.253929 158.333855 
L 330.385461 159.032149 
L 329.600397 159.730443 
L 328.903288 160.428737 
L 328.296443 161.127031 
L 327.780364 161.825325 
L 327.354195 162.52362 
L 327.016168 163.221914 
L 326.764015 163.920208 
L 326.595322 164.618502 
L 326.507794 165.316796 
L 326.499445 166.01509 
L 326.568675 166.713384 
L 326.714254 167.411678 
L 326.935213 168.109972 
L 327.230651 168.808266 
L 327.599467 169.50656 
L 328.040052 170.204854 
L 328.549948 170.903148 
L 329.125507 171.601442 
L 329.761582 172.299736 
L 330.451264 172.99803 
L 331.185708 173.696324 
L 331.95405 174.394618 
L 332.743461 175.092912 
L 333.539309 175.791207 
L 334.325476 176.489501 
L 335.084783 177.187795 
L 335.799537 177.886089 
L 336.452153 178.584383 
L 337.025832 179.282677 
L 337.505248 179.980971 
L 337.877212 180.679265 
L 338.131254 181.377559 
L 338.260109 182.075853 
L 338.260049 182.774147 
L 338.131062 183.472441 
L 337.87685 184.170735 
L 337.504645 184.869029 
L 337.024875 185.567323 
L 336.45067 186.265617 
L 335.797271 186.963911 
L 335.081363 187.662205 
L 334.320366 188.360499 
L 333.531751 189.058793 
L 332.732391 189.757088 
L 331.937993 190.455382 
L 331.162639 191.153676 
L 330.418443 191.85197 
L 329.715334 192.550264 
L 329.060967 193.248558 
L 328.460746 193.946852 
L 327.91795 194.645146 
L 327.433936 195.34344 
L 327.008403 196.041734 
L 326.639683 196.740028 
L 326.325055 197.438322 
L 326.061048 198.136616 
L 325.84372 198.83491 
L 325.668905 199.533204 
L 325.532424 200.231498 
L 325.430239 200.929792 
L 325.358569 201.628086 
L 325.31396 202.32638 
L 325.293308 203.024675 
L 325.293856 203.722969 
L 325.313157 204.421263 
L 325.349022 205.119557 
L 325.399448 205.817851 
L 325.462552 206.516145 
L 325.536494 207.214439 
L 325.619416 207.912733 
L 325.709393 208.611027 
L 325.804395 209.309321 
L 325.902278 210.007615 
L 326.000783 210.705909 
L 326.097566 211.404203 
L 326.190244 212.102497 
L 326.27645 212.800791 
L 326.35391 213.499085 
L 326.420516 214.197379 
L 326.474409 214.895673 
L 326.514054 215.593967 
L 326.538299 216.292262 
L 326.546432 216.990556 
z
" clip-path="url(#pee67c2e5e3)" style="fill: #1f77b4; fill-opacity: 0.3"/>
   </g>
   <g id="PolyCollection_5">
    <path d="M 413.589147 216.990556 
L 387.061762 216.990556 
L 387.095394 216.292262 
L 387.204006 215.593967 
L 387.385208 214.895673 
L 387.635261 214.197379 
L 387.949146 213.499085 
L 388.320681 212.800791 
L 388.742656 212.102497 
L 389.206988 211.404203 
L 389.704892 210.705909 
L 390.227064 210.007615 
L 390.763862 209.309321 
L 391.305484 208.611027 
L 391.842136 207.912733 
L 392.364196 207.214439 
L 392.86235 206.516145 
L 393.32772 205.817851 
L 393.751972 205.119557 
L 394.127406 204.421263 
L 394.447029 203.722969 
L 394.704621 203.024675 
L 394.894781 202.32638 
L 395.012975 201.628086 
L 395.05557 200.929792 
L 395.019874 200.231498 
L 394.904169 199.533204 
L 394.70775 198.83491 
L 394.430957 198.136616 
L 394.075215 197.438322 
L 393.643066 196.740028 
L 393.138194 196.041734 
L 392.565448 195.34344 
L 391.930845 194.645146 
L 391.241556 193.946852 
L 390.505871 193.248558 
L 389.733136 192.550264 
L 388.933664 191.85197 
L 388.118611 191.153676 
L 387.299819 190.455382 
L 386.489634 189.757088 
L 385.700686 189.058793 
L 384.945654 188.360499 
L 384.237005 187.662205 
L 383.586728 186.963911 
L 383.006059 186.265617 
L 382.505219 185.567323 
L 382.093158 184.869029 
L 381.777338 184.170735 
L 381.563533 183.472441 
L 381.455682 182.774147 
L 381.455785 182.075853 
L 381.563848 181.377559 
L 381.777886 180.679265 
L 382.093974 179.980971 
L 382.506354 179.282677 
L 383.007583 178.584383 
L 383.588729 177.886089 
L 384.239595 177.187795 
L 384.948973 176.489501 
L 385.704903 175.791207 
L 386.494953 175.092912 
L 387.306483 174.394618 
L 388.126908 173.696324 
L 388.943932 172.99803 
L 389.745767 172.299736 
L 390.521317 171.601442 
L 391.260335 170.903148 
L 391.953543 170.204854 
L 392.592722 169.50656 
L 393.170775 168.808266 
L 393.681761 168.109972 
L 394.120906 167.411678 
L 394.484593 166.713384 
L 394.770347 166.01509 
L 394.9768 165.316796 
L 395.103656 164.618502 
L 395.151654 163.920208 
L 395.122527 163.221914 
L 395.018963 162.52362 
L 394.844567 161.825325 
L 394.603825 161.127031 
L 394.302059 160.428737 
L 393.945385 159.730443 
L 393.540663 159.032149 
L 393.095432 158.333855 
L 392.617839 157.635561 
L 392.116548 156.937267 
L 391.600641 156.238973 
L 391.079487 155.540679 
L 390.562613 154.842385 
L 390.05955 154.144091 
L 389.579664 153.445797 
L 389.131989 152.747503 
L 388.725051 152.049209 
L 388.366692 151.350915 
L 388.063906 150.652621 
L 387.82269 149.954327 
L 387.647911 149.256033 
L 387.543198 148.557738 
L 387.510873 147.859444 
L 413.140036 147.859444 
L 413.140036 147.859444 
L 413.107711 148.557738 
L 413.002999 149.256033 
L 412.828219 149.954327 
L 412.587003 150.652621 
L 412.284218 151.350915 
L 411.925858 152.049209 
L 411.51892 152.747503 
L 411.071246 153.445797 
L 410.591359 154.144091 
L 410.088296 154.842385 
L 409.571422 155.540679 
L 409.050268 156.238973 
L 408.534361 156.937267 
L 408.03307 157.635561 
L 407.555477 158.333855 
L 407.110246 159.032149 
L 406.705524 159.730443 
L 406.34885 160.428737 
L 406.047084 161.127031 
L 405.806342 161.825325 
L 405.631946 162.52362 
L 405.528382 163.221914 
L 405.499255 163.920208 
L 405.547253 164.618502 
L 405.67411 165.316796 
L 405.880562 166.01509 
L 406.166316 166.713384 
L 406.530003 167.411678 
L 406.969148 168.109972 
L 407.480134 168.808266 
L 408.058187 169.50656 
L 408.697366 170.204854 
L 409.390574 170.903148 
L 410.129592 171.601442 
L 410.905142 172.299736 
L 411.706977 172.99803 
L 412.524001 173.696324 
L 413.344426 174.394618 
L 414.155957 175.092912 
L 414.946006 175.791207 
L 415.701936 176.489501 
L 416.411314 177.187795 
L 417.06218 177.886089 
L 417.643326 178.584383 
L 418.144555 179.282677 
L 418.556935 179.980971 
L 418.873023 180.679265 
L 419.087061 181.377559 
L 419.195125 182.075853 
L 419.195227 182.774147 
L 419.087376 183.472441 
L 418.873571 184.170735 
L 418.557751 184.869029 
L 418.145691 185.567323 
L 417.64485 186.265617 
L 417.064181 186.963911 
L 416.413904 187.662205 
L 415.705255 188.360499 
L 414.950223 189.058793 
L 414.161275 189.757088 
L 413.35109 190.455382 
L 412.532298 191.153676 
L 411.717245 191.85197 
L 410.917773 192.550264 
L 410.145038 193.248558 
L 409.409353 193.946852 
L 408.720064 194.645146 
L 408.085461 195.34344 
L 407.512715 196.041734 
L 407.007843 196.740028 
L 406.575694 197.438322 
L 406.219952 198.136616 
L 405.943159 198.83491 
L 405.74674 199.533204 
L 405.631035 200.231498 
L 405.595339 200.929792 
L 405.637935 201.628086 
L 405.756128 202.32638 
L 405.946288 203.024675 
L 406.20388 203.722969 
L 406.523504 204.421263 
L 406.898937 205.119557 
L 407.323189 205.817851 
L 407.788559 206.516145 
L 408.286713 207.214439 
L 408.808773 207.912733 
L 409.345425 208.611027 
L 409.887047 209.309321 
L 410.423845 210.007615 
L 410.946017 210.705909 
L 411.443921 211.404203 
L 411.908253 212.102497 
L 412.330228 212.800791 
L 412.701764 213.499085 
L 413.015649 214.197379 
L 413.265701 214.895673 
L 413.446903 215.593967 
L 413.555515 216.292262 
L 413.589147 216.990556 
z
" clip-path="url(#pee67c2e5e3)" style="fill: #1f77b4; fill-opacity: 0.3"/>
   </g>
   <g id="PolyCollection_6">
    <path d="M 482.32352 251.556111 
L 469.285571 251.556111 
L 469.2881 250.159523 
L 469.373726 248.762935 
L 469.5269 247.366347 
L 469.725788 245.969759 
L 469.943245 244.573171 
L 470.148189 243.176582 
L 470.307309 241.779994 
L 470.386989 240.383406 
L 470.355393 238.986818 
L 470.18457 237.59023 
L 469.85253 236.193642 
L 469.345139 234.797054 
L 468.657754 233.400466 
L 467.796448 232.003878 
L 466.778689 230.60729 
L 465.633347 229.210701 
L 464.399911 227.814113 
L 463.126847 226.417525 
L 461.869124 225.020937 
L 460.684976 223.624349 
L 459.632112 222.227761 
L 458.763648 220.831173 
L 458.124096 219.434585 
L 457.745792 218.037997 
L 457.646095 216.641409 
L 457.825666 215.24482 
L 458.267986 213.848232 
L 458.94019 212.451644 
L 459.795118 211.055056 
L 460.774413 209.658468 
L 461.812367 208.26188 
L 462.8402 206.865292 
L 463.790426 205.468704 
L 464.601015 204.072116 
L 465.219106 202.675527 
L 465.604067 201.278939 
L 465.72981 199.882351 
L 465.586262 198.485763 
L 465.179976 197.089175 
L 464.533836 195.692587 
L 463.68589 194.295999 
L 462.687288 192.899411 
L 461.599414 191.502823 
L 460.490293 190.106235 
L 459.430445 188.709646 
L 458.488434 187.313058 
L 457.726407 185.91647 
L 457.195974 184.519882 
L 456.934773 183.123294 
L 456.964042 181.726706 
L 457.287422 180.330118 
L 457.891107 178.93353 
L 458.74532 177.536942 
L 459.806957 176.140354 
L 461.023119 174.743765 
L 462.33518 173.347177 
L 463.68301 171.950589 
L 465.008969 170.554001 
L 466.261379 169.157413 
L 467.397232 167.760825 
L 468.384032 166.364237 
L 469.200734 164.967649 
L 469.837846 163.571061 
L 470.296801 162.174473 
L 470.588769 160.777884 
L 470.733032 159.381296 
L 470.755095 157.984708 
L 470.684649 156.58812 
L 470.553501 155.191532 
L 470.393565 153.794944 
L 470.235004 152.398356 
L 470.104589 151.001768 
L 470.02438 149.60518 
L 470.010752 148.208591 
L 470.073856 146.812003 
L 470.217513 145.415415 
L 470.439539 144.018827 
L 470.732473 142.622239 
L 471.084609 141.225651 
L 471.481255 139.829063 
L 471.906074 138.432475 
L 472.342413 137.035887 
L 472.774489 135.639299 
L 473.188367 134.24271 
L 473.572652 132.846122 
L 473.918898 131.449534 
L 474.221733 130.052946 
L 474.478734 128.656358 
L 474.690116 127.25977 
L 474.858289 125.863182 
L 474.987342 124.466594 
L 475.082516 123.070006 
L 475.1497 121.673418 
L 475.194979 120.276829 
L 475.224258 118.880241 
L 475.24297 117.483653 
L 475.255854 116.087065 
L 475.266823 114.690477 
L 475.27889 113.293889 
L 476.330201 113.293889 
L 476.330201 113.293889 
L 476.342268 114.690477 
L 476.353236 116.087065 
L 476.366121 117.483653 
L 476.384833 118.880241 
L 476.414112 120.276829 
L 476.459391 121.673418 
L 476.526574 123.070006 
L 476.621749 124.466594 
L 476.750802 125.863182 
L 476.918975 127.25977 
L 477.130357 128.656358 
L 477.387358 130.052946 
L 477.690193 131.449534 
L 478.036439 132.846122 
L 478.420724 134.24271 
L 478.834602 135.639299 
L 479.266678 137.035887 
L 479.703017 138.432475 
L 480.127836 139.829063 
L 480.524481 141.225651 
L 480.876618 142.622239 
L 481.169552 144.018827 
L 481.391578 145.415415 
L 481.535235 146.812003 
L 481.598339 148.208591 
L 481.584711 149.60518 
L 481.504501 151.001768 
L 481.374087 152.398356 
L 481.215525 153.794944 
L 481.05559 155.191532 
L 480.924442 156.58812 
L 480.853996 157.984708 
L 480.876058 159.381296 
L 481.020321 160.777884 
L 481.31229 162.174473 
L 481.771245 163.571061 
L 482.408356 164.967649 
L 483.225059 166.364237 
L 484.211859 167.760825 
L 485.347712 169.157413 
L 486.600121 170.554001 
L 487.926081 171.950589 
L 489.273911 173.347177 
L 490.585972 174.743765 
L 491.802134 176.140354 
L 492.863771 177.536942 
L 493.717984 178.93353 
L 494.321669 180.330118 
L 494.645049 181.726706 
L 494.674318 183.123294 
L 494.413117 184.519882 
L 493.882684 185.91647 
L 493.120657 187.313058 
L 492.178646 188.709646 
L 491.118797 190.106235 
L 490.009676 191.502823 
L 488.921803 192.899411 
L 487.923201 194.295999 
L 487.075255 195.692587 
L 486.429115 197.089175 
L 486.022829 198.485763 
L 485.879281 199.882351 
L 486.005024 201.278939 
L 486.389985 202.675527 
L 487.008076 204.072116 
L 487.818665 205.468704 
L 488.768891 206.865292 
L 489.796723 208.26188 
L 490.834678 209.658468 
L 491.813973 211.055056 
L 492.668901 212.451644 
L 493.341105 213.848232 
L 493.783425 215.24482 
L 493.962996 216.641409 
L 493.863299 218.037997 
L 493.484994 219.434585 
L 492.845443 220.831173 
L 491.976979 222.227761 
L 490.924115 223.624349 
L 489.739967 225.020937 
L 488.482244 226.417525 
L 487.20918 227.814113 
L 485.975744 229.210701 
L 484.830402 230.60729 
L 483.812643 232.003878 
L 482.951337 233.400466 
L 482.263952 234.797054 
L 481.756561 236.193642 
L 481.42452 237.59023 
L 481.253698 238.986818 
L 481.222101 240.383406 
L 481.301782 241.779994 
L 481.460902 243.176582 
L 481.665846 244.573171 
L 481.883303 245.969759 
L 482.082191 247.366347 
L 482.235365 248.762935 
L 482.320991 250.159523 
L 482.32352 251.556111 
z
" clip-path="url(#pee67c2e5e3)" style="fill: #1f77b4; fill-opacity: 0.3"/>
   </g>
   <g id="PolyCollection_7">
    <path d="M 552.858244 286.121667 
L 549.709028 286.121667 
L 549.636045 284.375932 
L 549.558999 282.630196 
L 549.470071 280.884461 
L 549.360253 279.138726 
L 549.22005 277.392991 
L 549.040354 275.647256 
L 548.813432 273.901521 
L 548.533929 272.155786 
L 548.199792 270.410051 
L 547.812976 268.664315 
L 547.379841 266.91858 
L 546.911131 265.172845 
L 546.421476 263.42711 
L 545.928401 261.681375 
L 545.450869 259.93564 
L 545.00748 258.189905 
L 544.614452 256.444169 
L 544.283605 254.698434 
L 544.020559 252.952699 
L 543.823386 251.206964 
L 543.681903 249.461229 
L 543.577765 247.715494 
L 543.485437 245.969759 
L 543.374024 244.224024 
L 543.209871 242.478288 
L 542.959724 240.732553 
L 542.594197 238.986818 
L 542.091197 237.241083 
L 541.438977 235.495348 
L 540.638441 233.749613 
L 539.704406 232.003878 
L 538.665598 230.258143 
L 537.563245 228.512407 
L 536.44831 226.766672 
L 535.377528 225.020937 
L 534.408571 223.275202 
L 533.594788 221.529467 
L 532.980038 219.783732 
L 532.594188 218.037997 
L 532.449767 216.292262 
L 532.540193 214.546526 
L 532.839822 212.800791 
L 533.305874 211.055056 
L 533.882083 209.309321 
L 534.503745 207.563586 
L 535.103657 205.817851 
L 535.618383 204.072116 
L 535.99421 202.32638 
L 536.192212 200.580645 
L 536.191933 198.83491 
L 535.993306 197.089175 
L 535.616654 195.34344 
L 535.100734 193.597705 
L 534.499046 191.85197 
L 533.874741 190.106235 
L 533.294646 188.360499 
L 532.822977 186.614764 
L 532.515378 184.869029 
L 532.413864 183.123294 
L 532.543162 181.377559 
L 532.908803 179.631824 
L 533.4971 177.886089 
L 534.276975 176.140354 
L 535.203386 174.394618 
L 536.221941 172.648883 
L 537.274185 170.903148 
L 538.303003 169.157413 
L 539.257598 167.411678 
L 540.097574 165.665943 
L 540.795788 163.920208 
L 541.339786 162.174473 
L 541.731768 160.428737 
L 541.987205 158.683002 
L 542.132325 156.937267 
L 542.200795 155.191532 
L 542.229968 153.445797 
L 542.257084 151.700062 
L 542.315774 149.954327 
L 542.433202 148.208591 
L 542.628042 146.462856 
L 542.909445 144.717121 
L 543.276999 142.971386 
L 543.72161 141.225651 
L 544.227143 139.479916 
L 544.772583 137.734181 
L 545.33446 135.988446 
L 545.88927 134.24271 
L 546.41565 132.496975 
L 546.896126 130.75124 
L 547.318295 129.005505 
L 547.675409 127.25977 
L 547.966349 125.514035 
L 548.19509 123.7683 
L 548.369749 122.022565 
L 548.501368 120.276829 
L 548.60257 118.531094 
L 548.686247 116.785359 
L 548.76438 115.039624 
L 548.847099 113.293889 
L 553.720174 113.293889 
L 553.720174 113.293889 
L 553.802893 115.039624 
L 553.881026 116.785359 
L 553.964703 118.531094 
L 554.065905 120.276829 
L 554.197523 122.022565 
L 554.372183 123.7683 
L 554.600924 125.514035 
L 554.891864 127.25977 
L 555.248977 129.005505 
L 555.671147 130.75124 
L 556.151623 132.496975 
L 556.678003 134.24271 
L 557.232813 135.988446 
L 557.794689 137.734181 
L 558.340129 139.479916 
L 558.845663 141.225651 
L 559.290274 142.971386 
L 559.657828 144.717121 
L 559.939231 146.462856 
L 560.134071 148.208591 
L 560.251498 149.954327 
L 560.310189 151.700062 
L 560.337304 153.445797 
L 560.366478 155.191532 
L 560.434948 156.937267 
L 560.580067 158.683002 
L 560.835504 160.428737 
L 561.227487 162.174473 
L 561.771485 163.920208 
L 562.469699 165.665943 
L 563.309674 167.411678 
L 564.26427 169.157413 
L 565.293088 170.903148 
L 566.345332 172.648883 
L 567.363886 174.394618 
L 568.290298 176.140354 
L 569.070173 177.886089 
L 569.65847 179.631824 
L 570.024111 181.377559 
L 570.153409 183.123294 
L 570.051895 184.869029 
L 569.744296 186.614764 
L 569.272627 188.360499 
L 568.692532 190.106235 
L 568.068227 191.85197 
L 567.466539 193.597705 
L 566.950619 195.34344 
L 566.573967 197.089175 
L 566.37534 198.83491 
L 566.37506 200.580645 
L 566.573063 202.32638 
L 566.94889 204.072116 
L 567.463616 205.817851 
L 568.063528 207.563586 
L 568.685189 209.309321 
L 569.261399 211.055056 
L 569.727451 212.800791 
L 570.02708 214.546526 
L 570.117505 216.292262 
L 569.973084 218.037997 
L 569.587235 219.783732 
L 568.972485 221.529467 
L 568.158701 223.275202 
L 567.189745 225.020937 
L 566.118963 226.766672 
L 565.004027 228.512407 
L 563.901674 230.258143 
L 562.862866 232.003878 
L 561.928832 233.749613 
L 561.128295 235.495348 
L 560.476076 237.241083 
L 559.973076 238.986818 
L 559.607548 240.732553 
L 559.357402 242.478288 
L 559.193248 244.224024 
L 559.081835 245.969759 
L 558.989507 247.715494 
L 558.88537 249.461229 
L 558.743887 251.206964 
L 558.546714 252.952699 
L 558.283668 254.698434 
L 557.95282 256.444169 
L 557.559792 258.189905 
L 557.116404 259.93564 
L 556.638872 261.681375 
L 556.145796 263.42711 
L 555.656142 265.172845 
L 555.187432 266.91858 
L 554.754296 268.664315 
L 554.36748 270.410051 
L 554.033343 272.155786 
L 553.753841 273.901521 
L 553.526918 275.647256 
L 553.347222 277.392991 
L 553.207019 279.138726 
L 553.097202 280.884461 
L 553.008274 282.630196 
L 552.931227 284.375932 
L 552.858244 286.121667 
z
" clip-path="url(#pee67c2e5e3)" style="fill: #1f77b4; fill-opacity: 0.3"/>
   </g>
   <g id="PolyCollection_8">
    <path d="M 626.882917 320.687222 
L 626.642537 320.687222 
L 626.644449 319.639781 
L 626.650004 318.59234 
L 626.658685 317.544899 
L 626.669719 316.497458 
L 626.68218 315.450017 
L 626.695107 314.402576 
L 626.707595 313.355135 
L 626.71884 312.307694 
L 626.728119 311.260253 
L 626.734668 310.212811 
L 626.737459 309.16537 
L 626.734822 308.117929 
L 626.723902 307.070488 
L 626.6999 306.023047 
L 626.655112 304.975606 
L 626.57778 303.928165 
L 626.450906 302.880724 
L 626.251265 301.833283 
L 625.948997 300.785842 
L 625.508274 299.738401 
L 624.88955 298.69096 
L 624.053792 297.643519 
L 622.968748 296.596077 
L 621.616828 295.548636 
L 620.003528 294.501195 
L 618.164751 293.453754 
L 616.171071 292.406313 
L 614.127064 291.358872 
L 612.164546 290.311431 
L 610.429727 289.26399 
L 609.065726 288.216549 
L 608.19324 287.169108 
L 607.892955 286.121667 
L 608.193239 285.074226 
L 609.065725 284.026785 
L 610.429725 282.979343 
L 612.16454 281.931902 
L 614.127049 280.884461 
L 616.171035 279.83702 
L 618.164667 278.789579 
L 620.003336 277.742138 
L 621.616408 276.694697 
L 622.967855 275.647256 
L 624.051954 274.599815 
L 624.885887 273.552374 
L 625.501203 272.504933 
L 625.935779 271.457492 
L 626.227335 270.410051 
L 626.408951 269.362609 
L 626.506547 268.315168 
L 626.537987 267.267727 
L 626.513397 266.220286 
L 626.436301 265.172845 
L 626.305327 264.125404 
L 626.116314 263.077963 
L 625.864717 262.030522 
L 625.54817 260.983081 
L 625.168961 259.93564 
L 624.736085 258.888199 
L 624.266447 257.840758 
L 623.784831 256.793316 
L 623.322366 255.745875 
L 622.913539 254.698434 
L 622.592093 253.650993 
L 622.386477 252.603552 
L 622.31571 251.556111 
L 622.386478 250.50867 
L 622.592096 249.461229 
L 622.913549 248.413788 
L 623.322391 247.366347 
L 623.784894 246.318906 
L 624.2666 245.271465 
L 624.736441 244.224024 
L 625.16977 243.176582 
L 625.549944 242.129141 
L 625.868487 241.0817 
L 626.124073 240.034259 
L 626.320793 238.986818 
L 626.466156 237.939377 
L 626.569207 236.891936 
L 626.639025 235.844495 
L 626.683688 234.797054 
L 626.709714 233.749613 
L 626.721865 232.702172 
L 626.723239 231.654731 
L 626.715516 230.60729 
L 626.69931 229.559848 
L 626.674568 228.512407 
L 626.640983 227.464966 
L 626.598414 226.417525 
L 626.54727 225.370084 
L 626.48882 224.322643 
L 626.425376 223.275202 
L 626.360302 222.227761 
L 626.297811 221.18032 
L 626.242566 220.132879 
L 626.199128 219.085438 
L 626.171342 218.037997 
L 626.161779 216.990556 
L 627.363676 216.990556 
L 627.363676 216.990556 
L 627.354113 218.037997 
L 627.326327 219.085438 
L 627.282889 220.132879 
L 627.227644 221.18032 
L 627.165152 222.227761 
L 627.100078 223.275202 
L 627.036635 224.322643 
L 626.978185 225.370084 
L 626.927041 226.417525 
L 626.884471 227.464966 
L 626.850886 228.512407 
L 626.826144 229.559848 
L 626.809939 230.60729 
L 626.802216 231.654731 
L 626.80359 232.702172 
L 626.815741 233.749613 
L 626.841766 234.797054 
L 626.88643 235.844495 
L 626.956247 236.891936 
L 627.059299 237.939377 
L 627.204661 238.986818 
L 627.401382 240.034259 
L 627.656968 241.0817 
L 627.975511 242.129141 
L 628.355685 243.176582 
L 628.789013 244.224024 
L 629.258855 245.271465 
L 629.740561 246.318906 
L 630.203064 247.366347 
L 630.611906 248.413788 
L 630.933358 249.461229 
L 631.138976 250.50867 
L 631.209744 251.556111 
L 631.138977 252.603552 
L 630.933362 253.650993 
L 630.611916 254.698434 
L 630.203089 255.745875 
L 629.740624 256.793316 
L 629.259007 257.840758 
L 628.78937 258.888199 
L 628.356493 259.93564 
L 627.977284 260.983081 
L 627.660738 262.030522 
L 627.409141 263.077963 
L 627.220127 264.125404 
L 627.089153 265.172845 
L 627.012058 266.220286 
L 626.987468 267.267727 
L 627.018908 268.315168 
L 627.116503 269.362609 
L 627.29812 270.410051 
L 627.589676 271.457492 
L 628.024252 272.504933 
L 628.639567 273.552374 
L 629.4735 274.599815 
L 630.557599 275.647256 
L 631.909046 276.694697 
L 633.522118 277.742138 
L 635.360788 278.789579 
L 637.354419 279.83702 
L 639.398405 280.884461 
L 641.360914 281.931902 
L 643.095729 282.979343 
L 644.45973 284.026785 
L 645.332215 285.074226 
L 645.6325 286.121667 
L 645.332215 287.169108 
L 644.459729 288.216549 
L 643.095727 289.26399 
L 641.360908 290.311431 
L 639.39839 291.358872 
L 637.354383 292.406313 
L 635.360704 293.453754 
L 633.521927 294.501195 
L 631.908626 295.548636 
L 630.556706 296.596077 
L 629.471662 297.643519 
L 628.635905 298.69096 
L 628.017181 299.738401 
L 627.576458 300.785842 
L 627.27419 301.833283 
L 627.074549 302.880724 
L 626.947675 303.928165 
L 626.870342 304.975606 
L 626.825554 306.023047 
L 626.801553 307.070488 
L 626.790632 308.117929 
L 626.787996 309.16537 
L 626.790786 310.212811 
L 626.797336 311.260253 
L 626.806614 312.307694 
L 626.81786 313.355135 
L 626.830347 314.402576 
L 626.843274 315.450017 
L 626.855735 316.497458 
L 626.866769 317.544899 
L 626.875451 318.59234 
L 626.881006 319.639781 
L 626.882917 320.687222 
z
" clip-path="url(#pee67c2e5e3)" style="fill: #1f77b4; fill-opacity: 0.3"/>
   </g>
   <g id="PolyCollection_9">
    <path d="M 721.111591 320.687222 
L 683.372045 320.687222 
L 683.372045 320.687222 
L 683.372045 320.687222 
L 683.372045 320.687222 
L 683.372045 320.687222 
L 683.372045 320.687222 
L 683.372045 320.687222 
L 683.372045 320.687222 
L 683.372045 320.687222 
L 683.372045 320.687222 
L 683.372045 320.687222 
L 683.372045 320.687222 
L 683.372045 320.687222 
L 683.372045 320.687222 
L 683.372045 320.687222 
L 683.372045 320.687222 
L 683.372045 320.687222 
L 683.372045 320.687222 
L 683.372045 320.687222 
L 683.372045 320.687222 
L 683.372045 320.687222 
L 683.372045 320.687222 
L 683.372045 320.687222 
L 683.372045 320.687222 
L 683.372045 320.687222 
L 683.372045 320.687222 
L 683.372045 320.687222 
L 683.372045 320.687222 
L 683.372045 320.687222 
L 683.372045 320.687222 
L 683.372045 320.687222 
L 683.372045 320.687222 
L 683.372045 320.687222 
L 683.372045 320.687222 
L 683.372045 320.687222 
L 683.372045 320.687222 
L 683.372045 320.687222 
L 683.372045 320.687222 
L 683.372045 320.687222 
L 683.372045 320.687222 
L 683.372045 320.687222 
L 683.372045 320.687222 
L 683.372045 320.687222 
L 683.372045 320.687222 
L 683.372045 320.687222 
L 683.372045 320.687222 
L 683.372045 320.687222 
L 683.372045 320.687222 
L 683.372045 320.687222 
L 683.372045 320.687222 
L 683.372045 320.687222 
L 683.372045 320.687222 
L 683.372045 320.687222 
L 683.372045 320.687222 
L 683.372045 320.687222 
L 683.372045 320.687222 
L 683.372045 320.687222 
L 683.372045 320.687222 
L 683.372045 320.687222 
L 683.372045 320.687222 
L 683.372045 320.687222 
L 683.372045 320.687222 
L 683.372045 320.687222 
L 683.372045 320.687222 
L 683.372045 320.687222 
L 683.372045 320.687222 
L 683.372045 320.687222 
L 683.372045 320.687222 
L 683.372045 320.687222 
L 683.372045 320.687222 
L 683.372045 320.687222 
L 683.372045 320.687222 
L 683.372045 320.687222 
L 683.372045 320.687222 
L 683.372045 320.687222 
L 683.372045 320.687222 
L 683.372045 320.687222 
L 683.372045 320.687222 
L 683.372045 320.687222 
L 683.372045 320.687222 
L 683.372045 320.687222 
L 683.372045 320.687222 
L 683.372045 320.687222 
L 683.372045 320.687222 
L 683.372045 320.687222 
L 683.372045 320.687222 
L 683.372045 320.687222 
L 683.372045 320.687222 
L 683.372045 320.687222 
L 683.372045 320.687222 
L 683.372045 320.687222 
L 683.372045 320.687222 
L 683.372045 320.687222 
L 683.372045 320.687222 
L 683.372045 320.687222 
L 683.372045 320.687222 
L 683.372045 320.687222 
L 683.372045 320.687222 
L 683.372045 320.687222 
L 683.372045 320.687222 
L 721.111591 320.687222 
L 721.111591 320.687222 
L 721.111591 320.687222 
L 721.111591 320.687222 
L 721.111591 320.687222 
L 721.111591 320.687222 
L 721.111591 320.687222 
L 721.111591 320.687222 
L 721.111591 320.687222 
L 721.111591 320.687222 
L 721.111591 320.687222 
L 721.111591 320.687222 
L 721.111591 320.687222 
L 721.111591 320.687222 
L 721.111591 320.687222 
L 721.111591 320.687222 
L 721.111591 320.687222 
L 721.111591 320.687222 
L 721.111591 320.687222 
L 721.111591 320.687222 
L 721.111591 320.687222 
L 721.111591 320.687222 
L 721.111591 320.687222 
L 721.111591 320.687222 
L 721.111591 320.687222 
L 721.111591 320.687222 
L 721.111591 320.687222 
L 721.111591 320.687222 
L 721.111591 320.687222 
L 721.111591 320.687222 
L 721.111591 320.687222 
L 721.111591 320.687222 
L 721.111591 320.687222 
L 721.111591 320.687222 
L 721.111591 320.687222 
L 721.111591 320.687222 
L 721.111591 320.687222 
L 721.111591 320.687222 
L 721.111591 320.687222 
L 721.111591 320.687222 
L 721.111591 320.687222 
L 721.111591 320.687222 
L 721.111591 320.687222 
L 721.111591 320.687222 
L 721.111591 320.687222 
L 721.111591 320.687222 
L 721.111591 320.687222 
L 721.111591 320.687222 
L 721.111591 320.687222 
L 721.111591 320.687222 
L 721.111591 320.687222 
L 721.111591 320.687222 
L 721.111591 320.687222 
L 721.111591 320.687222 
L 721.111591 320.687222 
L 721.111591 320.687222 
L 721.111591 320.687222 
L 721.111591 320.687222 
L 721.111591 320.687222 
L 721.111591 320.687222 
L 721.111591 320.687222 
L 721.111591 320.687222 
L 721.111591 320.687222 
L 721.111591 320.687222 
L 721.111591 320.687222 
L 721.111591 320.687222 
L 721.111591 320.687222 
L 721.111591 320.687222 
L 721.111591 320.687222 
L 721.111591 320.687222 
L 721.111591 320.687222 
L 721.111591 320.687222 
L 721.111591 320.687222 
L 721.111591 320.687222 
L 721.111591 320.687222 
L 721.111591 320.687222 
L 721.111591 320.687222 
L 721.111591 320.687222 
L 721.111591 320.687222 
L 721.111591 320.687222 
L 721.111591 320.687222 
L 721.111591 320.687222 
L 721.111591 320.687222 
L 721.111591 320.687222 
L 721.111591 320.687222 
L 721.111591 320.687222 
L 721.111591 320.687222 
L 721.111591 320.687222 
L 721.111591 320.687222 
L 721.111591 320.687222 
L 721.111591 320.687222 
L 721.111591 320.687222 
L 721.111591 320.687222 
L 721.111591 320.687222 
L 721.111591 320.687222 
L 721.111591 320.687222 
L 721.111591 320.687222 
L 721.111591 320.687222 
L 721.111591 320.687222 
L 721.111591 320.687222 
L 721.111591 320.687222 
z
" clip-path="url(#pee67c2e5e3)" style="fill: #1f77b4; fill-opacity: 0.3"/>
   </g>
   <g id="PolyCollection_10">
    <path d="M 796.590682 320.687222 
L 758.851136 320.687222 
L 758.851136 320.687222 
L 758.851136 320.687222 
L 758.851136 320.687222 
L 758.851136 320.687222 
L 758.851136 320.687222 
L 758.851136 320.687222 
L 758.851136 320.687222 
L 758.851136 320.687222 
L 758.851136 320.687222 
L 758.851136 320.687222 
L 758.851136 320.687222 
L 758.851136 320.687222 
L 758.851136 320.687222 
L 758.851136 320.687222 
L 758.851136 320.687222 
L 758.851136 320.687222 
L 758.851136 320.687222 
L 758.851136 320.687222 
L 758.851136 320.687222 
L 758.851136 320.687222 
L 758.851136 320.687222 
L 758.851136 320.687222 
L 758.851136 320.687222 
L 758.851136 320.687222 
L 758.851136 320.687222 
L 758.851136 320.687222 
L 758.851136 320.687222 
L 758.851136 320.687222 
L 758.851136 320.687222 
L 758.851136 320.687222 
L 758.851136 320.687222 
L 758.851136 320.687222 
L 758.851136 320.687222 
L 758.851136 320.687222 
L 758.851136 320.687222 
L 758.851136 320.687222 
L 758.851136 320.687222 
L 758.851136 320.687222 
L 758.851136 320.687222 
L 758.851136 320.687222 
L 758.851136 320.687222 
L 758.851136 320.687222 
L 758.851136 320.687222 
L 758.851136 320.687222 
L 758.851136 320.687222 
L 758.851136 320.687222 
L 758.851136 320.687222 
L 758.851136 320.687222 
L 758.851136 320.687222 
L 758.851136 320.687222 
L 758.851136 320.687222 
L 758.851136 320.687222 
L 758.851136 320.687222 
L 758.851136 320.687222 
L 758.851136 320.687222 
L 758.851136 320.687222 
L 758.851136 320.687222 
L 758.851136 320.687222 
L 758.851136 320.687222 
L 758.851136 320.687222 
L 758.851136 320.687222 
L 758.851136 320.687222 
L 758.851136 320.687222 
L 758.851136 320.687222 
L 758.851136 320.687222 
L 758.851136 320.687222 
L 758.851136 320.687222 
L 758.851136 320.687222 
L 758.851136 320.687222 
L 758.851136 320.687222 
L 758.851136 320.687222 
L 758.851136 320.687222 
L 758.851136 320.687222 
L 758.851136 320.687222 
L 758.851136 320.687222 
L 758.851136 320.687222 
L 758.851136 320.687222 
L 758.851136 320.687222 
L 758.851136 320.687222 
L 758.851136 320.687222 
L 758.851136 320.687222 
L 758.851136 320.687222 
L 758.851136 320.687222 
L 758.851136 320.687222 
L 758.851136 320.687222 
L 758.851136 320.687222 
L 758.851136 320.687222 
L 758.851136 320.687222 
L 758.851136 320.687222 
L 758.851136 320.687222 
L 758.851136 320.687222 
L 758.851136 320.687222 
L 758.851136 320.687222 
L 758.851136 320.687222 
L 758.851136 320.687222 
L 758.851136 320.687222 
L 758.851136 320.687222 
L 758.851136 320.687222 
L 758.851136 320.687222 
L 796.590682 320.687222 
L 796.590682 320.687222 
L 796.590682 320.687222 
L 796.590682 320.687222 
L 796.590682 320.687222 
L 796.590682 320.687222 
L 796.590682 320.687222 
L 796.590682 320.687222 
L 796.590682 320.687222 
L 796.590682 320.687222 
L 796.590682 320.687222 
L 796.590682 320.687222 
L 796.590682 320.687222 
L 796.590682 320.687222 
L 796.590682 320.687222 
L 796.590682 320.687222 
L 796.590682 320.687222 
L 796.590682 320.687222 
L 796.590682 320.687222 
L 796.590682 320.687222 
L 796.590682 320.687222 
L 796.590682 320.687222 
L 796.590682 320.687222 
L 796.590682 320.687222 
L 796.590682 320.687222 
L 796.590682 320.687222 
L 796.590682 320.687222 
L 796.590682 320.687222 
L 796.590682 320.687222 
L 796.590682 320.687222 
L 796.590682 320.687222 
L 796.590682 320.687222 
L 796.590682 320.687222 
L 796.590682 320.687222 
L 796.590682 320.687222 
L 796.590682 320.687222 
L 796.590682 320.687222 
L 796.590682 320.687222 
L 796.590682 320.687222 
L 796.590682 320.687222 
L 796.590682 320.687222 
L 796.590682 320.687222 
L 796.590682 320.687222 
L 796.590682 320.687222 
L 796.590682 320.687222 
L 796.590682 320.687222 
L 796.590682 320.687222 
L 796.590682 320.687222 
L 796.590682 320.687222 
L 796.590682 320.687222 
L 796.590682 320.687222 
L 796.590682 320.687222 
L 796.590682 320.687222 
L 796.590682 320.687222 
L 796.590682 320.687222 
L 796.590682 320.687222 
L 796.590682 320.687222 
L 796.590682 320.687222 
L 796.590682 320.687222 
L 796.590682 320.687222 
L 796.590682 320.687222 
L 796.590682 320.687222 
L 796.590682 320.687222 
L 796.590682 320.687222 
L 796.590682 320.687222 
L 796.590682 320.687222 
L 796.590682 320.687222 
L 796.590682 320.687222 
L 796.590682 320.687222 
L 796.590682 320.687222 
L 796.590682 320.687222 
L 796.590682 320.687222 
L 796.590682 320.687222 
L 796.590682 320.687222 
L 796.590682 320.687222 
L 796.590682 320.687222 
L 796.590682 320.687222 
L 796.590682 320.687222 
L 796.590682 320.687222 
L 796.590682 320.687222 
L 796.590682 320.687222 
L 796.590682 320.687222 
L 796.590682 320.687222 
L 796.590682 320.687222 
L 796.590682 320.687222 
L 796.590682 320.687222 
L 796.590682 320.687222 
L 796.590682 320.687222 
L 796.590682 320.687222 
L 796.590682 320.687222 
L 796.590682 320.687222 
L 796.590682 320.687222 
L 796.590682 320.687222 
L 796.590682 320.687222 
L 796.590682 320.687222 
L 796.590682 320.687222 
L 796.590682 320.687222 
L 796.590682 320.687222 
L 796.590682 320.687222 
L 796.590682 320.687222 
L 796.590682 320.687222 
z
" clip-path="url(#pee67c2e5e3)" style="fill: #1f77b4; fill-opacity: 0.3"/>
   </g>
   <g id="matplotlib.axis_1">
    <g id="xtick_1">
     <g id="line2d_1">
      <defs>
       <path id="m84363cf7f3" d="M 0 0 
L 0 3.5 
" style="stroke: #000000; stroke-width: 0.8"/>
      </defs>
      <g>
       <use xlink:href="#m84363cf7f3" x="98.409091" y="337.97" style="stroke: #000000; stroke-width: 0.8"/>
      </g>
     </g>
     <g id="text_1">
      <!-- Aggravater -->
      <g transform="translate(100.616591 389.77625)rotate(-90)scale(0.08 -0.08)">
       <defs>
        <path id="DejaVuSans-41" d="M 2188 4044 
L 1331 1722 
L 3047 1722 
L 2188 4044 
z
M 1831 4666 
L 2547 4666 
L 4325 0 
L 3669 0 
L 3244 1197 
L 1141 1197 
L 716 0 
L 50 0 
L 1831 4666 
z
" transform="scale(0.015625)"/>
        <path id="DejaVuSans-67" d="M 2906 1791 
Q 2906 2416 2648 2759 
Q 2391 3103 1925 3103 
Q 1463 3103 1205 2759 
Q 947 2416 947 1791 
Q 947 1169 1205 825 
Q 1463 481 1925 481 
Q 2391 481 2648 825 
Q 2906 1169 2906 1791 
z
M 3481 434 
Q 3481 -459 3084 -895 
Q 2688 -1331 1869 -1331 
Q 1566 -1331 1297 -1286 
Q 1028 -1241 775 -1147 
L 775 -588 
Q 1028 -725 1275 -790 
Q 1522 -856 1778 -856 
Q 2344 -856 2625 -561 
Q 2906 -266 2906 331 
L 2906 616 
Q 2728 306 2450 153 
Q 2172 0 1784 0 
Q 1141 0 747 490 
Q 353 981 353 1791 
Q 353 2603 747 3093 
Q 1141 3584 1784 3584 
Q 2172 3584 2450 3431 
Q 2728 3278 2906 2969 
L 2906 3500 
L 3481 3500 
L 3481 434 
z
" transform="scale(0.015625)"/>
        <path id="DejaVuSans-72" d="M 2631 2963 
Q 2534 3019 2420 3045 
Q 2306 3072 2169 3072 
Q 1681 3072 1420 2755 
Q 1159 2438 1159 1844 
L 1159 0 
L 581 0 
L 581 3500 
L 1159 3500 
L 1159 2956 
Q 1341 3275 1631 3429 
Q 1922 3584 2338 3584 
Q 2397 3584 2469 3576 
Q 2541 3569 2628 3553 
L 2631 2963 
z
" transform="scale(0.015625)"/>
        <path id="DejaVuSans-61" d="M 2194 1759 
Q 1497 1759 1228 1600 
Q 959 1441 959 1056 
Q 959 750 1161 570 
Q 1363 391 1709 391 
Q 2188 391 2477 730 
Q 2766 1069 2766 1631 
L 2766 1759 
L 2194 1759 
z
M 3341 1997 
L 3341 0 
L 2766 0 
L 2766 531 
Q 2569 213 2275 61 
Q 1981 -91 1556 -91 
Q 1019 -91 701 211 
Q 384 513 384 1019 
Q 384 1609 779 1909 
Q 1175 2209 1959 2209 
L 2766 2209 
L 2766 2266 
Q 2766 2663 2505 2880 
Q 2244 3097 1772 3097 
Q 1472 3097 1187 3025 
Q 903 2953 641 2809 
L 641 3341 
Q 956 3463 1253 3523 
Q 1550 3584 1831 3584 
Q 2591 3584 2966 3190 
Q 3341 2797 3341 1997 
z
" transform="scale(0.015625)"/>
        <path id="DejaVuSans-76" d="M 191 3500 
L 800 3500 
L 1894 563 
L 2988 3500 
L 3597 3500 
L 2284 0 
L 1503 0 
L 191 3500 
z
" transform="scale(0.015625)"/>
        <path id="DejaVuSans-74" d="M 1172 4494 
L 1172 3500 
L 2356 3500 
L 2356 3053 
L 1172 3053 
L 1172 1153 
Q 1172 725 1289 603 
Q 1406 481 1766 481 
L 2356 481 
L 2356 0 
L 1766 0 
Q 1100 0 847 248 
Q 594 497 594 1153 
L 594 3053 
L 172 3053 
L 172 3500 
L 594 3500 
L 594 4494 
L 1172 4494 
z
" transform="scale(0.015625)"/>
        <path id="DejaVuSans-65" d="M 3597 1894 
L 3597 1613 
L 953 1613 
Q 991 1019 1311 708 
Q 1631 397 2203 397 
Q 2534 397 2845 478 
Q 3156 559 3463 722 
L 3463 178 
Q 3153 47 2828 -22 
Q 2503 -91 2169 -91 
Q 1331 -91 842 396 
Q 353 884 353 1716 
Q 353 2575 817 3079 
Q 1281 3584 2069 3584 
Q 2775 3584 3186 3129 
Q 3597 2675 3597 1894 
z
M 3022 2063 
Q 3016 2534 2758 2815 
Q 2500 3097 2075 3097 
Q 1594 3097 1305 2825 
Q 1016 2553 972 2059 
L 3022 2063 
z
" transform="scale(0.015625)"/>
       </defs>
       <use xlink:href="#DejaVuSans-41"/>
       <use xlink:href="#DejaVuSans-67" x="68.408203"/>
       <use xlink:href="#DejaVuSans-67" x="131.884766"/>
       <use xlink:href="#DejaVuSans-72" x="195.361328"/>
       <use xlink:href="#DejaVuSans-61" x="236.474609"/>
       <use xlink:href="#DejaVuSans-76" x="297.753906"/>
       <use xlink:href="#DejaVuSans-61" x="356.933594"/>
       <use xlink:href="#DejaVuSans-74" x="418.212891"/>
       <use xlink:href="#DejaVuSans-65" x="457.421875"/>
       <use xlink:href="#DejaVuSans-72" x="518.945312"/>
      </g>
     </g>
    </g>
    <g id="xtick_2">
     <g id="line2d_2">
      <g>
       <use xlink:href="#m84363cf7f3" x="173.888182" y="337.97" style="stroke: #000000; stroke-width: 0.8"/>
      </g>
     </g>
     <g id="text_2">
      <!-- Defector -->
      <g transform="translate(176.095682 379.51)rotate(-90)scale(0.08 -0.08)">
       <defs>
        <path id="DejaVuSans-44" d="M 1259 4147 
L 1259 519 
L 2022 519 
Q 2988 519 3436 956 
Q 3884 1394 3884 2338 
Q 3884 3275 3436 3711 
Q 2988 4147 2022 4147 
L 1259 4147 
z
M 628 4666 
L 1925 4666 
Q 3281 4666 3915 4102 
Q 4550 3538 4550 2338 
Q 4550 1131 3912 565 
Q 3275 0 1925 0 
L 628 0 
L 628 4666 
z
" transform="scale(0.015625)"/>
        <path id="DejaVuSans-66" d="M 2375 4863 
L 2375 4384 
L 1825 4384 
Q 1516 4384 1395 4259 
Q 1275 4134 1275 3809 
L 1275 3500 
L 2222 3500 
L 2222 3053 
L 1275 3053 
L 1275 0 
L 697 0 
L 697 3053 
L 147 3053 
L 147 3500 
L 697 3500 
L 697 3744 
Q 697 4328 969 4595 
Q 1241 4863 1831 4863 
L 2375 4863 
z
" transform="scale(0.015625)"/>
        <path id="DejaVuSans-63" d="M 3122 3366 
L 3122 2828 
Q 2878 2963 2633 3030 
Q 2388 3097 2138 3097 
Q 1578 3097 1268 2742 
Q 959 2388 959 1747 
Q 959 1106 1268 751 
Q 1578 397 2138 397 
Q 2388 397 2633 464 
Q 2878 531 3122 666 
L 3122 134 
Q 2881 22 2623 -34 
Q 2366 -91 2075 -91 
Q 1284 -91 818 406 
Q 353 903 353 1747 
Q 353 2603 823 3093 
Q 1294 3584 2113 3584 
Q 2378 3584 2631 3529 
Q 2884 3475 3122 3366 
z
" transform="scale(0.015625)"/>
        <path id="DejaVuSans-6f" d="M 1959 3097 
Q 1497 3097 1228 2736 
Q 959 2375 959 1747 
Q 959 1119 1226 758 
Q 1494 397 1959 397 
Q 2419 397 2687 759 
Q 2956 1122 2956 1747 
Q 2956 2369 2687 2733 
Q 2419 3097 1959 3097 
z
M 1959 3584 
Q 2709 3584 3137 3096 
Q 3566 2609 3566 1747 
Q 3566 888 3137 398 
Q 2709 -91 1959 -91 
Q 1206 -91 779 398 
Q 353 888 353 1747 
Q 353 2609 779 3096 
Q 1206 3584 1959 3584 
z
" transform="scale(0.015625)"/>
       </defs>
       <use xlink:href="#DejaVuSans-44"/>
       <use xlink:href="#DejaVuSans-65" x="77.001953"/>
       <use xlink:href="#DejaVuSans-66" x="138.525391"/>
       <use xlink:href="#DejaVuSans-65" x="173.730469"/>
       <use xlink:href="#DejaVuSans-63" x="235.253906"/>
       <use xlink:href="#DejaVuSans-74" x="290.234375"/>
       <use xlink:href="#DejaVuSans-6f" x="329.443359"/>
       <use xlink:href="#DejaVuSans-72" x="390.625"/>
      </g>
     </g>
    </g>
    <g id="xtick_3">
     <g id="line2d_3">
      <g>
       <use xlink:href="#m84363cf7f3" x="249.367273" y="337.97" style="stroke: #000000; stroke-width: 0.8"/>
      </g>
     </g>
     <g id="text_3">
      <!-- Grudger -->
      <g transform="translate(251.574773 377.89625)rotate(-90)scale(0.08 -0.08)">
       <defs>
        <path id="DejaVuSans-47" d="M 3809 666 
L 3809 1919 
L 2778 1919 
L 2778 2438 
L 4434 2438 
L 4434 434 
Q 4069 175 3628 42 
Q 3188 -91 2688 -91 
Q 1594 -91 976 548 
Q 359 1188 359 2328 
Q 359 3472 976 4111 
Q 1594 4750 2688 4750 
Q 3144 4750 3555 4637 
Q 3966 4525 4313 4306 
L 4313 3634 
Q 3963 3931 3569 4081 
Q 3175 4231 2741 4231 
Q 1884 4231 1454 3753 
Q 1025 3275 1025 2328 
Q 1025 1384 1454 906 
Q 1884 428 2741 428 
Q 3075 428 3337 486 
Q 3600 544 3809 666 
z
" transform="scale(0.015625)"/>
        <path id="DejaVuSans-75" d="M 544 1381 
L 544 3500 
L 1119 3500 
L 1119 1403 
Q 1119 906 1312 657 
Q 1506 409 1894 409 
Q 2359 409 2629 706 
Q 2900 1003 2900 1516 
L 2900 3500 
L 3475 3500 
L 3475 0 
L 2900 0 
L 2900 538 
Q 2691 219 2414 64 
Q 2138 -91 1772 -91 
Q 1169 -91 856 284 
Q 544 659 544 1381 
z
M 1991 3584 
L 1991 3584 
z
" transform="scale(0.015625)"/>
        <path id="DejaVuSans-64" d="M 2906 2969 
L 2906 4863 
L 3481 4863 
L 3481 0 
L 2906 0 
L 2906 525 
Q 2725 213 2448 61 
Q 2172 -91 1784 -91 
Q 1150 -91 751 415 
Q 353 922 353 1747 
Q 353 2572 751 3078 
Q 1150 3584 1784 3584 
Q 2172 3584 2448 3432 
Q 2725 3281 2906 2969 
z
M 947 1747 
Q 947 1113 1208 752 
Q 1469 391 1925 391 
Q 2381 391 2643 752 
Q 2906 1113 2906 1747 
Q 2906 2381 2643 2742 
Q 2381 3103 1925 3103 
Q 1469 3103 1208 2742 
Q 947 2381 947 1747 
z
" transform="scale(0.015625)"/>
       </defs>
       <use xlink:href="#DejaVuSans-47"/>
       <use xlink:href="#DejaVuSans-72" x="77.490234"/>
       <use xlink:href="#DejaVuSans-75" x="118.603516"/>
       <use xlink:href="#DejaVuSans-64" x="181.982422"/>
       <use xlink:href="#DejaVuSans-67" x="245.458984"/>
       <use xlink:href="#DejaVuSans-65" x="308.935547"/>
       <use xlink:href="#DejaVuSans-72" x="370.458984"/>
      </g>
     </g>
    </g>
    <g id="xtick_4">
     <g id="line2d_4">
      <g>
       <use xlink:href="#m84363cf7f3" x="324.846364" y="337.97" style="stroke: #000000; stroke-width: 0.8"/>
      </g>
     </g>
     <g id="text_4">
      <!-- Adaptive -->
      <g transform="translate(327.053864 380.37875)rotate(-90)scale(0.08 -0.08)">
       <defs>
        <path id="DejaVuSans-70" d="M 1159 525 
L 1159 -1331 
L 581 -1331 
L 581 3500 
L 1159 3500 
L 1159 2969 
Q 1341 3281 1617 3432 
Q 1894 3584 2278 3584 
Q 2916 3584 3314 3078 
Q 3713 2572 3713 1747 
Q 3713 922 3314 415 
Q 2916 -91 2278 -91 
Q 1894 -91 1617 61 
Q 1341 213 1159 525 
z
M 3116 1747 
Q 3116 2381 2855 2742 
Q 2594 3103 2138 3103 
Q 1681 3103 1420 2742 
Q 1159 2381 1159 1747 
Q 1159 1113 1420 752 
Q 1681 391 2138 391 
Q 2594 391 2855 752 
Q 3116 1113 3116 1747 
z
" transform="scale(0.015625)"/>
        <path id="DejaVuSans-69" d="M 603 3500 
L 1178 3500 
L 1178 0 
L 603 0 
L 603 3500 
z
M 603 4863 
L 1178 4863 
L 1178 4134 
L 603 4134 
L 603 4863 
z
" transform="scale(0.015625)"/>
       </defs>
       <use xlink:href="#DejaVuSans-41"/>
       <use xlink:href="#DejaVuSans-64" x="66.658203"/>
       <use xlink:href="#DejaVuSans-61" x="130.134766"/>
       <use xlink:href="#DejaVuSans-70" x="191.414062"/>
       <use xlink:href="#DejaVuSans-74" x="254.890625"/>
       <use xlink:href="#DejaVuSans-69" x="294.099609"/>
       <use xlink:href="#DejaVuSans-76" x="321.882812"/>
       <use xlink:href="#DejaVuSans-65" x="381.0625"/>
      </g>
     </g>
    </g>
    <g id="xtick_5">
     <g id="line2d_5">
      <g>
       <use xlink:href="#m84363cf7f3" x="400.325455" y="337.97" style="stroke: #000000; stroke-width: 0.8"/>
      </g>
     </g>
     <g id="text_5">
      <!-- Alternator -->
      <g transform="translate(402.532955 385.165)rotate(-90)scale(0.08 -0.08)">
       <defs>
        <path id="DejaVuSans-6c" d="M 603 4863 
L 1178 4863 
L 1178 0 
L 603 0 
L 603 4863 
z
" transform="scale(0.015625)"/>
        <path id="DejaVuSans-6e" d="M 3513 2113 
L 3513 0 
L 2938 0 
L 2938 2094 
Q 2938 2591 2744 2837 
Q 2550 3084 2163 3084 
Q 1697 3084 1428 2787 
Q 1159 2491 1159 1978 
L 1159 0 
L 581 0 
L 581 3500 
L 1159 3500 
L 1159 2956 
Q 1366 3272 1645 3428 
Q 1925 3584 2291 3584 
Q 2894 3584 3203 3211 
Q 3513 2838 3513 2113 
z
" transform="scale(0.015625)"/>
       </defs>
       <use xlink:href="#DejaVuSans-41"/>
       <use xlink:href="#DejaVuSans-6c" x="68.408203"/>
       <use xlink:href="#DejaVuSans-74" x="96.191406"/>
       <use xlink:href="#DejaVuSans-65" x="135.400391"/>
       <use xlink:href="#DejaVuSans-72" x="196.923828"/>
       <use xlink:href="#DejaVuSans-6e" x="236.287109"/>
       <use xlink:href="#DejaVuSans-61" x="299.666016"/>
       <use xlink:href="#DejaVuSans-74" x="360.945312"/>
       <use xlink:href="#DejaVuSans-6f" x="400.154297"/>
       <use xlink:href="#DejaVuSans-72" x="461.335938"/>
      </g>
     </g>
    </g>
    <g id="xtick_6">
     <g id="line2d_6">
      <g>
       <use xlink:href="#m84363cf7f3" x="475.804545" y="337.97" style="stroke: #000000; stroke-width: 0.8"/>
      </g>
     </g>
     <g id="text_6">
      <!-- Random: 0.5 -->
      <g transform="translate(478.012045 396.0475)rotate(-90)scale(0.08 -0.08)">
       <defs>
        <path id="DejaVuSans-52" d="M 2841 2188 
Q 3044 2119 3236 1894 
Q 3428 1669 3622 1275 
L 4263 0 
L 3584 0 
L 2988 1197 
Q 2756 1666 2539 1819 
Q 2322 1972 1947 1972 
L 1259 1972 
L 1259 0 
L 628 0 
L 628 4666 
L 2053 4666 
Q 2853 4666 3247 4331 
Q 3641 3997 3641 3322 
Q 3641 2881 3436 2590 
Q 3231 2300 2841 2188 
z
M 1259 4147 
L 1259 2491 
L 2053 2491 
Q 2509 2491 2742 2702 
Q 2975 2913 2975 3322 
Q 2975 3731 2742 3939 
Q 2509 4147 2053 4147 
L 1259 4147 
z
" transform="scale(0.015625)"/>
        <path id="DejaVuSans-6d" d="M 3328 2828 
Q 3544 3216 3844 3400 
Q 4144 3584 4550 3584 
Q 5097 3584 5394 3201 
Q 5691 2819 5691 2113 
L 5691 0 
L 5113 0 
L 5113 2094 
Q 5113 2597 4934 2840 
Q 4756 3084 4391 3084 
Q 3944 3084 3684 2787 
Q 3425 2491 3425 1978 
L 3425 0 
L 2847 0 
L 2847 2094 
Q 2847 2600 2669 2842 
Q 2491 3084 2119 3084 
Q 1678 3084 1418 2786 
Q 1159 2488 1159 1978 
L 1159 0 
L 581 0 
L 581 3500 
L 1159 3500 
L 1159 2956 
Q 1356 3278 1631 3431 
Q 1906 3584 2284 3584 
Q 2666 3584 2933 3390 
Q 3200 3197 3328 2828 
z
" transform="scale(0.015625)"/>
        <path id="DejaVuSans-3a" d="M 750 794 
L 1409 794 
L 1409 0 
L 750 0 
L 750 794 
z
M 750 3309 
L 1409 3309 
L 1409 2516 
L 750 2516 
L 750 3309 
z
" transform="scale(0.015625)"/>
        <path id="DejaVuSans-20" transform="scale(0.015625)"/>
        <path id="DejaVuSans-30" d="M 2034 4250 
Q 1547 4250 1301 3770 
Q 1056 3291 1056 2328 
Q 1056 1369 1301 889 
Q 1547 409 2034 409 
Q 2525 409 2770 889 
Q 3016 1369 3016 2328 
Q 3016 3291 2770 3770 
Q 2525 4250 2034 4250 
z
M 2034 4750 
Q 2819 4750 3233 4129 
Q 3647 3509 3647 2328 
Q 3647 1150 3233 529 
Q 2819 -91 2034 -91 
Q 1250 -91 836 529 
Q 422 1150 422 2328 
Q 422 3509 836 4129 
Q 1250 4750 2034 4750 
z
" transform="scale(0.015625)"/>
        <path id="DejaVuSans-2e" d="M 684 794 
L 1344 794 
L 1344 0 
L 684 0 
L 684 794 
z
" transform="scale(0.015625)"/>
        <path id="DejaVuSans-35" d="M 691 4666 
L 3169 4666 
L 3169 4134 
L 1269 4134 
L 1269 2991 
Q 1406 3038 1543 3061 
Q 1681 3084 1819 3084 
Q 2600 3084 3056 2656 
Q 3513 2228 3513 1497 
Q 3513 744 3044 326 
Q 2575 -91 1722 -91 
Q 1428 -91 1123 -41 
Q 819 9 494 109 
L 494 744 
Q 775 591 1075 516 
Q 1375 441 1709 441 
Q 2250 441 2565 725 
Q 2881 1009 2881 1497 
Q 2881 1984 2565 2268 
Q 2250 2553 1709 2553 
Q 1456 2553 1204 2497 
Q 953 2441 691 2322 
L 691 4666 
z
" transform="scale(0.015625)"/>
       </defs>
       <use xlink:href="#DejaVuSans-52"/>
       <use xlink:href="#DejaVuSans-61" x="67.232422"/>
       <use xlink:href="#DejaVuSans-6e" x="128.511719"/>
       <use xlink:href="#DejaVuSans-64" x="191.890625"/>
       <use xlink:href="#DejaVuSans-6f" x="255.367188"/>
       <use xlink:href="#DejaVuSans-6d" x="316.548828"/>
       <use xlink:href="#DejaVuSans-3a" x="413.960938"/>
       <use xlink:href="#DejaVuSans-20" x="447.652344"/>
       <use xlink:href="#DejaVuSans-30" x="479.439453"/>
       <use xlink:href="#DejaVuSans-2e" x="543.0625"/>
       <use xlink:href="#DejaVuSans-35" x="574.849609"/>
      </g>
     </g>
    </g>
    <g id="xtick_7">
     <g id="line2d_7">
      <g>
       <use xlink:href="#m84363cf7f3" x="551.283636" y="337.97" style="stroke: #000000; stroke-width: 0.8"/>
      </g>
     </g>
     <g id="text_7">
      <!-- Deep QLearner -->
      <g transform="translate(553.491136 405.46625)rotate(-90)scale(0.08 -0.08)">
       <defs>
        <path id="DejaVuSans-51" d="M 2522 4238 
Q 1834 4238 1429 3725 
Q 1025 3213 1025 2328 
Q 1025 1447 1429 934 
Q 1834 422 2522 422 
Q 3209 422 3611 934 
Q 4013 1447 4013 2328 
Q 4013 3213 3611 3725 
Q 3209 4238 2522 4238 
z
M 3406 84 
L 4238 -825 
L 3475 -825 
L 2784 -78 
Q 2681 -84 2626 -87 
Q 2572 -91 2522 -91 
Q 1538 -91 948 567 
Q 359 1225 359 2328 
Q 359 3434 948 4092 
Q 1538 4750 2522 4750 
Q 3503 4750 4090 4092 
Q 4678 3434 4678 2328 
Q 4678 1516 4351 937 
Q 4025 359 3406 84 
z
" transform="scale(0.015625)"/>
        <path id="DejaVuSans-4c" d="M 628 4666 
L 1259 4666 
L 1259 531 
L 3531 531 
L 3531 0 
L 628 0 
L 628 4666 
z
" transform="scale(0.015625)"/>
       </defs>
       <use xlink:href="#DejaVuSans-44"/>
       <use xlink:href="#DejaVuSans-65" x="77.001953"/>
       <use xlink:href="#DejaVuSans-65" x="138.525391"/>
       <use xlink:href="#DejaVuSans-70" x="200.048828"/>
       <use xlink:href="#DejaVuSans-20" x="263.525391"/>
       <use xlink:href="#DejaVuSans-51" x="295.3125"/>
       <use xlink:href="#DejaVuSans-4c" x="374.023438"/>
       <use xlink:href="#DejaVuSans-65" x="427.986328"/>
       <use xlink:href="#DejaVuSans-61" x="489.509766"/>
       <use xlink:href="#DejaVuSans-72" x="550.789062"/>
       <use xlink:href="#DejaVuSans-6e" x="590.152344"/>
       <use xlink:href="#DejaVuSans-65" x="653.53125"/>
       <use xlink:href="#DejaVuSans-72" x="715.054688"/>
      </g>
     </g>
    </g>
    <g id="xtick_8">
     <g id="line2d_8">
      <g>
       <use xlink:href="#m84363cf7f3" x="626.762727" y="337.97" style="stroke: #000000; stroke-width: 0.8"/>
      </g>
     </g>
     <g id="text_8">
      <!-- Mediocre QLearner -->
      <g transform="translate(628.970227 420.83375)rotate(-90)scale(0.08 -0.08)">
       <defs>
        <path id="DejaVuSans-4d" d="M 628 4666 
L 1569 4666 
L 2759 1491 
L 3956 4666 
L 4897 4666 
L 4897 0 
L 4281 0 
L 4281 4097 
L 3078 897 
L 2444 897 
L 1241 4097 
L 1241 0 
L 628 0 
L 628 4666 
z
" transform="scale(0.015625)"/>
       </defs>
       <use xlink:href="#DejaVuSans-4d"/>
       <use xlink:href="#DejaVuSans-65" x="86.279297"/>
       <use xlink:href="#DejaVuSans-64" x="147.802734"/>
       <use xlink:href="#DejaVuSans-69" x="211.279297"/>
       <use xlink:href="#DejaVuSans-6f" x="239.0625"/>
       <use xlink:href="#DejaVuSans-63" x="300.244141"/>
       <use xlink:href="#DejaVuSans-72" x="355.224609"/>
       <use xlink:href="#DejaVuSans-65" x="394.087891"/>
       <use xlink:href="#DejaVuSans-20" x="455.611328"/>
       <use xlink:href="#DejaVuSans-51" x="487.398438"/>
       <use xlink:href="#DejaVuSans-4c" x="566.109375"/>
       <use xlink:href="#DejaVuSans-65" x="620.072266"/>
       <use xlink:href="#DejaVuSans-61" x="681.595703"/>
       <use xlink:href="#DejaVuSans-72" x="742.875"/>
       <use xlink:href="#DejaVuSans-6e" x="782.238281"/>
       <use xlink:href="#DejaVuSans-65" x="845.617188"/>
       <use xlink:href="#DejaVuSans-72" x="907.140625"/>
      </g>
     </g>
    </g>
    <g id="xtick_9">
     <g id="line2d_9">
      <g>
       <use xlink:href="#m84363cf7f3" x="702.241818" y="337.97" style="stroke: #000000; stroke-width: 0.8"/>
      </g>
     </g>
     <g id="text_9">
      <!-- Tit For Tat -->
      <g transform="translate(704.449318 384.15)rotate(-90)scale(0.08 -0.08)">
       <defs>
        <path id="DejaVuSans-54" d="M -19 4666 
L 3928 4666 
L 3928 4134 
L 2272 4134 
L 2272 0 
L 1638 0 
L 1638 4134 
L -19 4134 
L -19 4666 
z
" transform="scale(0.015625)"/>
        <path id="DejaVuSans-46" d="M 628 4666 
L 3309 4666 
L 3309 4134 
L 1259 4134 
L 1259 2759 
L 3109 2759 
L 3109 2228 
L 1259 2228 
L 1259 0 
L 628 0 
L 628 4666 
z
" transform="scale(0.015625)"/>
       </defs>
       <use xlink:href="#DejaVuSans-54"/>
       <use xlink:href="#DejaVuSans-69" x="57.958984"/>
       <use xlink:href="#DejaVuSans-74" x="85.742188"/>
       <use xlink:href="#DejaVuSans-20" x="124.951172"/>
       <use xlink:href="#DejaVuSans-46" x="156.738281"/>
       <use xlink:href="#DejaVuSans-6f" x="210.632812"/>
       <use xlink:href="#DejaVuSans-72" x="271.814453"/>
       <use xlink:href="#DejaVuSans-20" x="312.927734"/>
       <use xlink:href="#DejaVuSans-54" x="344.714844"/>
       <use xlink:href="#DejaVuSans-61" x="389.298828"/>
       <use xlink:href="#DejaVuSans-74" x="450.578125"/>
      </g>
     </g>
    </g>
    <g id="xtick_10">
     <g id="line2d_10">
      <g>
       <use xlink:href="#m84363cf7f3" x="777.720909" y="337.97" style="stroke: #000000; stroke-width: 0.8"/>
      </g>
     </g>
     <g id="text_10">
      <!-- Cooperator -->
      <g transform="translate(779.928409 389.85875)rotate(-90)scale(0.08 -0.08)">
       <defs>
        <path id="DejaVuSans-43" d="M 4122 4306 
L 4122 3641 
Q 3803 3938 3442 4084 
Q 3081 4231 2675 4231 
Q 1875 4231 1450 3742 
Q 1025 3253 1025 2328 
Q 1025 1406 1450 917 
Q 1875 428 2675 428 
Q 3081 428 3442 575 
Q 3803 722 4122 1019 
L 4122 359 
Q 3791 134 3420 21 
Q 3050 -91 2638 -91 
Q 1578 -91 968 557 
Q 359 1206 359 2328 
Q 359 3453 968 4101 
Q 1578 4750 2638 4750 
Q 3056 4750 3426 4639 
Q 3797 4528 4122 4306 
z
" transform="scale(0.015625)"/>
       </defs>
       <use xlink:href="#DejaVuSans-43"/>
       <use xlink:href="#DejaVuSans-6f" x="69.824219"/>
       <use xlink:href="#DejaVuSans-6f" x="131.005859"/>
       <use xlink:href="#DejaVuSans-70" x="192.1875"/>
       <use xlink:href="#DejaVuSans-65" x="255.664062"/>
       <use xlink:href="#DejaVuSans-72" x="317.1875"/>
       <use xlink:href="#DejaVuSans-61" x="358.300781"/>
       <use xlink:href="#DejaVuSans-74" x="419.580078"/>
       <use xlink:href="#DejaVuSans-6f" x="458.789062"/>
       <use xlink:href="#DejaVuSans-72" x="519.970703"/>
      </g>
     </g>
    </g>
   </g>
   <g id="matplotlib.axis_2">
    <g id="ytick_1">
     <g id="line2d_11">
      <defs>
       <path id="m3f261a6800" d="M 0 0 
L -3.5 0 
" style="stroke: #000000; stroke-width: 0.8"/>
      </defs>
      <g>
       <use xlink:href="#m3f261a6800" x="22.93" y="320.687222" style="stroke: #000000; stroke-width: 0.8"/>
      </g>
     </g>
     <g id="text_11">
      <!-- 0 -->
      <g transform="translate(10.84 323.726597)scale(0.08 -0.08)">
       <use xlink:href="#DejaVuSans-30"/>
      </g>
     </g>
    </g>
    <g id="ytick_2">
     <g id="line2d_12">
      <g>
       <use xlink:href="#m3f261a6800" x="22.93" y="286.121667" style="stroke: #000000; stroke-width: 0.8"/>
      </g>
     </g>
     <g id="text_12">
      <!-- 1 -->
      <g transform="translate(10.84 289.161042)scale(0.08 -0.08)">
       <defs>
        <path id="DejaVuSans-31" d="M 794 531 
L 1825 531 
L 1825 4091 
L 703 3866 
L 703 4441 
L 1819 4666 
L 2450 4666 
L 2450 531 
L 3481 531 
L 3481 0 
L 794 0 
L 794 531 
z
" transform="scale(0.015625)"/>
       </defs>
       <use xlink:href="#DejaVuSans-31"/>
      </g>
     </g>
    </g>
    <g id="ytick_3">
     <g id="line2d_13">
      <g>
       <use xlink:href="#m3f261a6800" x="22.93" y="251.556111" style="stroke: #000000; stroke-width: 0.8"/>
      </g>
     </g>
     <g id="text_13">
      <!-- 2 -->
      <g transform="translate(10.84 254.595486)scale(0.08 -0.08)">
       <defs>
        <path id="DejaVuSans-32" d="M 1228 531 
L 3431 531 
L 3431 0 
L 469 0 
L 469 531 
Q 828 903 1448 1529 
Q 2069 2156 2228 2338 
Q 2531 2678 2651 2914 
Q 2772 3150 2772 3378 
Q 2772 3750 2511 3984 
Q 2250 4219 1831 4219 
Q 1534 4219 1204 4116 
Q 875 4013 500 3803 
L 500 4441 
Q 881 4594 1212 4672 
Q 1544 4750 1819 4750 
Q 2544 4750 2975 4387 
Q 3406 4025 3406 3419 
Q 3406 3131 3298 2873 
Q 3191 2616 2906 2266 
Q 2828 2175 2409 1742 
Q 1991 1309 1228 531 
z
" transform="scale(0.015625)"/>
       </defs>
       <use xlink:href="#DejaVuSans-32"/>
      </g>
     </g>
    </g>
    <g id="ytick_4">
     <g id="line2d_14">
      <g>
       <use xlink:href="#m3f261a6800" x="22.93" y="216.990556" style="stroke: #000000; stroke-width: 0.8"/>
      </g>
     </g>
     <g id="text_14">
      <!-- 3 -->
      <g transform="translate(10.84 220.029931)scale(0.08 -0.08)">
       <defs>
        <path id="DejaVuSans-33" d="M 2597 2516 
Q 3050 2419 3304 2112 
Q 3559 1806 3559 1356 
Q 3559 666 3084 287 
Q 2609 -91 1734 -91 
Q 1441 -91 1130 -33 
Q 819 25 488 141 
L 488 750 
Q 750 597 1062 519 
Q 1375 441 1716 441 
Q 2309 441 2620 675 
Q 2931 909 2931 1356 
Q 2931 1769 2642 2001 
Q 2353 2234 1838 2234 
L 1294 2234 
L 1294 2753 
L 1863 2753 
Q 2328 2753 2575 2939 
Q 2822 3125 2822 3475 
Q 2822 3834 2567 4026 
Q 2313 4219 1838 4219 
Q 1578 4219 1281 4162 
Q 984 4106 628 3988 
L 628 4550 
Q 988 4650 1302 4700 
Q 1616 4750 1894 4750 
Q 2613 4750 3031 4423 
Q 3450 4097 3450 3541 
Q 3450 3153 3228 2886 
Q 3006 2619 2597 2516 
z
" transform="scale(0.015625)"/>
       </defs>
       <use xlink:href="#DejaVuSans-33"/>
      </g>
     </g>
    </g>
    <g id="ytick_5">
     <g id="line2d_15">
      <g>
       <use xlink:href="#m3f261a6800" x="22.93" y="182.425" style="stroke: #000000; stroke-width: 0.8"/>
      </g>
     </g>
     <g id="text_15">
      <!-- 4 -->
      <g transform="translate(10.84 185.464375)scale(0.08 -0.08)">
       <defs>
        <path id="DejaVuSans-34" d="M 2419 4116 
L 825 1625 
L 2419 1625 
L 2419 4116 
z
M 2253 4666 
L 3047 4666 
L 3047 1625 
L 3713 1625 
L 3713 1100 
L 3047 1100 
L 3047 0 
L 2419 0 
L 2419 1100 
L 313 1100 
L 313 1709 
L 2253 4666 
z
" transform="scale(0.015625)"/>
       </defs>
       <use xlink:href="#DejaVuSans-34"/>
      </g>
     </g>
    </g>
    <g id="ytick_6">
     <g id="line2d_16">
      <g>
       <use xlink:href="#m3f261a6800" x="22.93" y="147.859444" style="stroke: #000000; stroke-width: 0.8"/>
      </g>
     </g>
     <g id="text_16">
      <!-- 5 -->
      <g transform="translate(10.84 150.898819)scale(0.08 -0.08)">
       <use xlink:href="#DejaVuSans-35"/>
      </g>
     </g>
    </g>
    <g id="ytick_7">
     <g id="line2d_17">
      <g>
       <use xlink:href="#m3f261a6800" x="22.93" y="113.293889" style="stroke: #000000; stroke-width: 0.8"/>
      </g>
     </g>
     <g id="text_17">
      <!-- 6 -->
      <g transform="translate(10.84 116.333264)scale(0.08 -0.08)">
       <defs>
        <path id="DejaVuSans-36" d="M 2113 2584 
Q 1688 2584 1439 2293 
Q 1191 2003 1191 1497 
Q 1191 994 1439 701 
Q 1688 409 2113 409 
Q 2538 409 2786 701 
Q 3034 994 3034 1497 
Q 3034 2003 2786 2293 
Q 2538 2584 2113 2584 
z
M 3366 4563 
L 3366 3988 
Q 3128 4100 2886 4159 
Q 2644 4219 2406 4219 
Q 1781 4219 1451 3797 
Q 1122 3375 1075 2522 
Q 1259 2794 1537 2939 
Q 1816 3084 2150 3084 
Q 2853 3084 3261 2657 
Q 3669 2231 3669 1497 
Q 3669 778 3244 343 
Q 2819 -91 2113 -91 
Q 1303 -91 875 529 
Q 447 1150 447 2328 
Q 447 3434 972 4092 
Q 1497 4750 2381 4750 
Q 2619 4750 2861 4703 
Q 3103 4656 3366 4563 
z
" transform="scale(0.015625)"/>
       </defs>
       <use xlink:href="#DejaVuSans-36"/>
      </g>
     </g>
    </g>
    <g id="ytick_8">
     <g id="line2d_18">
      <g>
       <use xlink:href="#m3f261a6800" x="22.93" y="78.728333" style="stroke: #000000; stroke-width: 0.8"/>
      </g>
     </g>
     <g id="text_18">
      <!-- 7 -->
      <g transform="translate(10.84 81.767708)scale(0.08 -0.08)">
       <defs>
        <path id="DejaVuSans-37" d="M 525 4666 
L 3525 4666 
L 3525 4397 
L 1831 0 
L 1172 0 
L 2766 4134 
L 525 4134 
L 525 4666 
z
" transform="scale(0.015625)"/>
       </defs>
       <use xlink:href="#DejaVuSans-37"/>
      </g>
     </g>
    </g>
    <g id="ytick_9">
     <g id="line2d_19">
      <g>
       <use xlink:href="#m3f261a6800" x="22.93" y="44.162778" style="stroke: #000000; stroke-width: 0.8"/>
      </g>
     </g>
     <g id="text_19">
      <!-- 8 -->
      <g transform="translate(10.84 47.202153)scale(0.08 -0.08)">
       <defs>
        <path id="DejaVuSans-38" d="M 2034 2216 
Q 1584 2216 1326 1975 
Q 1069 1734 1069 1313 
Q 1069 891 1326 650 
Q 1584 409 2034 409 
Q 2484 409 2743 651 
Q 3003 894 3003 1313 
Q 3003 1734 2745 1975 
Q 2488 2216 2034 2216 
z
M 1403 2484 
Q 997 2584 770 2862 
Q 544 3141 544 3541 
Q 544 4100 942 4425 
Q 1341 4750 2034 4750 
Q 2731 4750 3128 4425 
Q 3525 4100 3525 3541 
Q 3525 3141 3298 2862 
Q 3072 2584 2669 2484 
Q 3125 2378 3379 2068 
Q 3634 1759 3634 1313 
Q 3634 634 3220 271 
Q 2806 -91 2034 -91 
Q 1263 -91 848 271 
Q 434 634 434 1313 
Q 434 1759 690 2068 
Q 947 2378 1403 2484 
z
M 1172 3481 
Q 1172 3119 1398 2916 
Q 1625 2713 2034 2713 
Q 2441 2713 2670 2916 
Q 2900 3119 2900 3481 
Q 2900 3844 2670 4047 
Q 2441 4250 2034 4250 
Q 1625 4250 1398 4047 
Q 1172 3844 1172 3481 
z
" transform="scale(0.015625)"/>
       </defs>
       <use xlink:href="#DejaVuSans-38"/>
      </g>
     </g>
    </g>
   </g>
   <g id="LineCollection_1">
    <path d="M 88.974205 44.162778 
L 107.843977 44.162778 
" clip-path="url(#pee67c2e5e3)" style="fill: none; stroke: #1f77b4; stroke-width: 1.5"/>
    <path d="M 164.453295 44.162778 
L 183.323068 44.162778 
" clip-path="url(#pee67c2e5e3)" style="fill: none; stroke: #1f77b4; stroke-width: 1.5"/>
    <path d="M 239.932386 147.859444 
L 258.802159 147.859444 
" clip-path="url(#pee67c2e5e3)" style="fill: none; stroke: #1f77b4; stroke-width: 1.5"/>
    <path d="M 315.411477 147.859444 
L 334.28125 147.859444 
" clip-path="url(#pee67c2e5e3)" style="fill: none; stroke: #1f77b4; stroke-width: 1.5"/>
    <path d="M 390.890568 182.425 
L 409.760341 182.425 
" clip-path="url(#pee67c2e5e3)" style="fill: none; stroke: #1f77b4; stroke-width: 1.5"/>
    <path d="M 466.369659 182.425 
L 485.239432 182.425 
" clip-path="url(#pee67c2e5e3)" style="fill: none; stroke: #1f77b4; stroke-width: 1.5"/>
    <path d="M 541.84875 182.425 
L 560.718523 182.425 
" clip-path="url(#pee67c2e5e3)" style="fill: none; stroke: #1f77b4; stroke-width: 1.5"/>
    <path d="M 617.327841 286.121667 
L 636.197614 286.121667 
" clip-path="url(#pee67c2e5e3)" style="fill: none; stroke: #1f77b4; stroke-width: 1.5"/>
    <path d="M 692.806932 320.687222 
L 711.676705 320.687222 
" clip-path="url(#pee67c2e5e3)" style="fill: none; stroke: #1f77b4; stroke-width: 1.5"/>
    <path d="M 768.286023 320.687222 
L 787.155795 320.687222 
" clip-path="url(#pee67c2e5e3)" style="fill: none; stroke: #1f77b4; stroke-width: 1.5"/>
   </g>
   <g id="patch_3">
    <path d="M 22.93 337.97 
L 22.93 26.88 
" style="fill: none; stroke: #000000; stroke-width: 0.8; stroke-linejoin: miter; stroke-linecap: square"/>
   </g>
   <g id="patch_4">
    <path d="M 853.2 337.97 
L 853.2 26.88 
" style="fill: none; stroke: #000000; stroke-width: 0.8; stroke-linejoin: miter; stroke-linecap: square"/>
   </g>
   <g id="patch_5">
    <path d="M 22.93 337.97 
L 853.2 337.97 
" style="fill: none; stroke: #000000; stroke-width: 0.8; stroke-linejoin: miter; stroke-linecap: square"/>
   </g>
   <g id="patch_6">
    <path d="M 22.93 26.88 
L 853.2 26.88 
" style="fill: none; stroke: #000000; stroke-width: 0.8; stroke-linejoin: miter; stroke-linecap: square"/>
   </g>
   <g id="text_20">
    <!-- Wins - turns: 200, repetitions: 200, strategies: 10.  -->
    <g transform="translate(286.363438 20.88)scale(0.12 -0.12)">
     <defs>
      <path id="DejaVuSans-57" d="M 213 4666 
L 850 4666 
L 1831 722 
L 2809 4666 
L 3519 4666 
L 4500 722 
L 5478 4666 
L 6119 4666 
L 4947 0 
L 4153 0 
L 3169 4050 
L 2175 0 
L 1381 0 
L 213 4666 
z
" transform="scale(0.015625)"/>
      <path id="DejaVuSans-73" d="M 2834 3397 
L 2834 2853 
Q 2591 2978 2328 3040 
Q 2066 3103 1784 3103 
Q 1356 3103 1142 2972 
Q 928 2841 928 2578 
Q 928 2378 1081 2264 
Q 1234 2150 1697 2047 
L 1894 2003 
Q 2506 1872 2764 1633 
Q 3022 1394 3022 966 
Q 3022 478 2636 193 
Q 2250 -91 1575 -91 
Q 1294 -91 989 -36 
Q 684 19 347 128 
L 347 722 
Q 666 556 975 473 
Q 1284 391 1588 391 
Q 1994 391 2212 530 
Q 2431 669 2431 922 
Q 2431 1156 2273 1281 
Q 2116 1406 1581 1522 
L 1381 1569 
Q 847 1681 609 1914 
Q 372 2147 372 2553 
Q 372 3047 722 3315 
Q 1072 3584 1716 3584 
Q 2034 3584 2315 3537 
Q 2597 3491 2834 3397 
z
" transform="scale(0.015625)"/>
      <path id="DejaVuSans-2d" d="M 313 2009 
L 1997 2009 
L 1997 1497 
L 313 1497 
L 313 2009 
z
" transform="scale(0.015625)"/>
      <path id="DejaVuSans-2c" d="M 750 794 
L 1409 794 
L 1409 256 
L 897 -744 
L 494 -744 
L 750 256 
L 750 794 
z
" transform="scale(0.015625)"/>
     </defs>
     <use xlink:href="#DejaVuSans-57"/>
     <use xlink:href="#DejaVuSans-69" x="96.626953"/>
     <use xlink:href="#DejaVuSans-6e" x="124.410156"/>
     <use xlink:href="#DejaVuSans-73" x="187.789062"/>
     <use xlink:href="#DejaVuSans-20" x="239.888672"/>
     <use xlink:href="#DejaVuSans-2d" x="271.675781"/>
     <use xlink:href="#DejaVuSans-20" x="307.759766"/>
     <use xlink:href="#DejaVuSans-74" x="339.546875"/>
     <use xlink:href="#DejaVuSans-75" x="378.755859"/>
     <use xlink:href="#DejaVuSans-72" x="442.134766"/>
     <use xlink:href="#DejaVuSans-6e" x="481.498047"/>
     <use xlink:href="#DejaVuSans-73" x="544.876953"/>
     <use xlink:href="#DejaVuSans-3a" x="596.976562"/>
     <use xlink:href="#DejaVuSans-20" x="630.667969"/>
     <use xlink:href="#DejaVuSans-32" x="662.455078"/>
     <use xlink:href="#DejaVuSans-30" x="726.078125"/>
     <use xlink:href="#DejaVuSans-30" x="789.701172"/>
     <use xlink:href="#DejaVuSans-2c" x="853.324219"/>
     <use xlink:href="#DejaVuSans-20" x="885.111328"/>
     <use xlink:href="#DejaVuSans-72" x="916.898438"/>
     <use xlink:href="#DejaVuSans-65" x="955.761719"/>
     <use xlink:href="#DejaVuSans-70" x="1017.285156"/>
     <use xlink:href="#DejaVuSans-65" x="1080.761719"/>
     <use xlink:href="#DejaVuSans-74" x="1142.285156"/>
     <use xlink:href="#DejaVuSans-69" x="1181.494141"/>
     <use xlink:href="#DejaVuSans-74" x="1209.277344"/>
     <use xlink:href="#DejaVuSans-69" x="1248.486328"/>
     <use xlink:href="#DejaVuSans-6f" x="1276.269531"/>
     <use xlink:href="#DejaVuSans-6e" x="1337.451172"/>
     <use xlink:href="#DejaVuSans-73" x="1400.830078"/>
     <use xlink:href="#DejaVuSans-3a" x="1452.929688"/>
     <use xlink:href="#DejaVuSans-20" x="1486.621094"/>
     <use xlink:href="#DejaVuSans-32" x="1518.408203"/>
     <use xlink:href="#DejaVuSans-30" x="1582.03125"/>
     <use xlink:href="#DejaVuSans-30" x="1645.654297"/>
     <use xlink:href="#DejaVuSans-2c" x="1709.277344"/>
     <use xlink:href="#DejaVuSans-20" x="1741.064453"/>
     <use xlink:href="#DejaVuSans-73" x="1772.851562"/>
     <use xlink:href="#DejaVuSans-74" x="1824.951172"/>
     <use xlink:href="#DejaVuSans-72" x="1864.160156"/>
     <use xlink:href="#DejaVuSans-61" x="1905.273438"/>
     <use xlink:href="#DejaVuSans-74" x="1966.552734"/>
     <use xlink:href="#DejaVuSans-65" x="2005.761719"/>
     <use xlink:href="#DejaVuSans-67" x="2067.285156"/>
     <use xlink:href="#DejaVuSans-69" x="2130.761719"/>
     <use xlink:href="#DejaVuSans-65" x="2158.544922"/>
     <use xlink:href="#DejaVuSans-73" x="2220.068359"/>
     <use xlink:href="#DejaVuSans-3a" x="2272.167969"/>
     <use xlink:href="#DejaVuSans-20" x="2305.859375"/>
     <use xlink:href="#DejaVuSans-31" x="2337.646484"/>
     <use xlink:href="#DejaVuSans-30" x="2401.269531"/>
     <use xlink:href="#DejaVuSans-2e" x="2464.892578"/>
     <use xlink:href="#DejaVuSans-20" x="2496.679688"/>
    </g>
   </g>
  </g>
 </g>
 <defs>
  <clipPath id="pee67c2e5e3">
   <rect x="22.93" y="26.88" width="830.27" height="311.09"/>
  </clipPath>
 </defs>
</svg>
