<?xml version="1.0" encoding="utf-8" standalone="no"?>
<!DOCTYPE svg PUBLIC "-//W3C//DTD SVG 1.1//EN"
  "http://www.w3.org/Graphics/SVG/1.1/DTD/svg11.dtd">
<svg xmlns:xlink="http://www.w3.org/1999/xlink" width="864pt" height="432pt" viewBox="0 0 864 432" xmlns="http://www.w3.org/2000/svg" version="1.1">
 <metadata>
  <rdf:RDF xmlns:dc="http://purl.org/dc/elements/1.1/" xmlns:cc="http://creativecommons.org/ns#" xmlns:rdf="http://www.w3.org/1999/02/22-rdf-syntax-ns#">
   <cc:Work>
    <dc:type rdf:resource="http://purl.org/dc/dcmitype/StillImage"/>
    <dc:date>2022-09-11T03:50:05.049008</dc:date>
    <dc:format>image/svg+xml</dc:format>
    <dc:creator>
     <cc:Agent>
      <dc:title>Matplotlib v3.5.1, https://matplotlib.org/</dc:title>
     </cc:Agent>
    </dc:creator>
   </cc:Work>
  </rdf:RDF>
 </metadata>
 <defs>
  <style type="text/css">*{stroke-linejoin: round; stroke-linecap: butt}</style>
 </defs>
 <g id="figure_1">
  <g id="patch_1">
   <path d="M 0 432 
L 864 432 
L 864 0 
L 0 0 
z
" style="fill: #ffffff"/>
  </g>
  <g id="axes_1">
   <g id="patch_2">
    <path d="M 35.71 337.97 
L 853.2 337.97 
L 853.2 26.88 
L 35.71 26.88 
z
" style="fill: #ffffff"/>
   </g>
   <g id="PolyCollection_1">
    <path d="M 116.262124 160.696169 
L 103.792422 160.696169 
L 102.961689 159.487324 
L 102.091795 158.278478 
L 101.193146 157.069632 
L 100.277659 155.860787 
L 99.35843 154.651941 
L 98.449305 153.443096 
L 97.564417 152.23425 
L 96.717682 151.025404 
L 95.922315 149.816559 
L 95.190368 148.607713 
L 94.532344 147.398868 
L 93.956893 146.190022 
L 93.470614 144.981176 
L 93.077971 143.772331 
L 92.781314 142.563485 
L 92.581002 141.35464 
L 92.475606 140.145794 
L 92.462158 138.936948 
L 92.536436 137.728103 
L 92.693238 136.519257 
L 92.926639 135.310411 
L 93.230197 134.101566 
L 93.597103 132.89272 
L 94.020276 131.683875 
L 94.492401 130.475029 
L 95.005916 129.266183 
L 95.552975 128.057338 
L 96.125399 126.848492 
L 96.714626 125.639647 
L 97.311685 124.430801 
L 97.907206 123.221955 
L 98.491462 122.01311 
L 99.054465 120.804264 
L 99.586105 119.595419 
L 100.076324 118.386573 
L 100.515332 117.177727 
L 100.893836 115.968882 
L 101.203295 114.760036 
L 101.436168 113.551191 
L 101.586152 112.342345 
L 101.648406 111.133499 
L 101.61974 109.924654 
L 101.498759 108.715808 
L 101.285975 107.506963 
L 100.983848 106.298117 
L 100.59679 105.089271 
L 100.131107 103.880426 
L 99.594888 102.67158 
L 98.997852 101.462735 
L 98.351149 100.253889 
L 97.667131 99.045043 
L 96.959088 97.836198 
L 96.240976 96.627352 
L 95.527118 95.418507 
L 94.831904 94.209661 
L 94.169489 93.000815 
L 93.553491 91.79197 
L 92.996703 90.583124 
L 92.510814 89.374279 
L 92.106162 88.165433 
L 91.79151 86.956587 
L 91.573857 85.747742 
L 91.458303 84.538896 
L 91.447955 83.330051 
L 91.543885 82.121205 
L 91.745153 80.912359 
L 92.048868 79.703514 
L 92.450311 78.494668 
L 92.943095 77.285823 
L 93.519365 76.076977 
L 94.17002 74.868131 
L 94.884966 73.659286 
L 95.653369 72.45044 
L 96.463919 71.241595 
L 97.305095 70.032749 
L 98.165417 68.823903 
L 99.03369 67.615058 
L 99.899228 66.406212 
L 100.752065 65.197367 
L 101.583127 63.988521 
L 102.384392 62.779675 
L 103.148999 61.57083 
L 103.871335 60.361984 
L 104.547075 59.153139 
L 105.173186 57.944293 
L 105.74789 56.735447 
L 106.270599 55.526602 
L 106.741803 54.317756 
L 107.162953 53.108911 
L 107.536306 51.900065 
L 107.864769 50.691219 
L 108.151734 49.482374 
L 108.400919 48.273528 
L 108.616212 47.064683 
L 108.801532 45.855837 
L 108.960706 44.646991 
L 109.097368 43.438146 
L 109.214878 42.2293 
L 109.316266 41.020455 
L 110.73828 41.020455 
L 110.73828 41.020455 
L 110.839667 42.2293 
L 110.957178 43.438146 
L 111.09384 44.646991 
L 111.253014 45.855837 
L 111.438334 47.064683 
L 111.653627 48.273528 
L 111.902812 49.482374 
L 112.189777 50.691219 
L 112.518239 51.900065 
L 112.891592 53.108911 
L 113.312742 54.317756 
L 113.783947 55.526602 
L 114.306655 56.735447 
L 114.88136 57.944293 
L 115.50747 59.153139 
L 116.183211 60.361984 
L 116.905547 61.57083 
L 117.670154 62.779675 
L 118.471418 63.988521 
L 119.302481 65.197367 
L 120.155317 66.406212 
L 121.020856 67.615058 
L 121.889128 68.823903 
L 122.74945 70.032749 
L 123.590626 71.241595 
L 124.401176 72.45044 
L 125.169579 73.659286 
L 125.884525 74.868131 
L 126.535181 76.076977 
L 127.11145 77.285823 
L 127.604235 78.494668 
L 128.005678 79.703514 
L 128.309393 80.912359 
L 128.51066 82.121205 
L 128.606591 83.330051 
L 128.596242 84.538896 
L 128.480689 85.747742 
L 128.263036 86.956587 
L 127.948383 88.165433 
L 127.543732 89.374279 
L 127.057843 90.583124 
L 126.501054 91.79197 
L 125.885056 93.000815 
L 125.222641 94.209661 
L 124.527427 95.418507 
L 123.813569 96.627352 
L 123.095457 97.836198 
L 122.387415 99.045043 
L 121.703396 100.253889 
L 121.056693 101.462735 
L 120.459657 102.67158 
L 119.923438 103.880426 
L 119.457755 105.089271 
L 119.070698 106.298117 
L 118.768571 107.506963 
L 118.555786 108.715808 
L 118.434806 109.924654 
L 118.406139 111.133499 
L 118.468394 112.342345 
L 118.618378 113.551191 
L 118.85125 114.760036 
L 119.16071 115.968882 
L 119.539214 117.177727 
L 119.978221 118.386573 
L 120.46844 119.595419 
L 121.00008 120.804264 
L 121.563083 122.01311 
L 122.147339 123.221955 
L 122.74286 124.430801 
L 123.33992 125.639647 
L 123.929147 126.848492 
L 124.501571 128.057338 
L 125.04863 129.266183 
L 125.562144 130.475029 
L 126.034269 131.683875 
L 126.457443 132.89272 
L 126.824349 134.101566 
L 127.127906 135.310411 
L 127.361308 136.519257 
L 127.51811 137.728103 
L 127.592387 138.936948 
L 127.57894 140.145794 
L 127.473543 141.35464 
L 127.273232 142.563485 
L 126.976575 143.772331 
L 126.583931 144.981176 
L 126.097652 146.190022 
L 125.522201 147.398868 
L 124.864177 148.607713 
L 124.13223 149.816559 
L 123.336863 151.025404 
L 122.490129 152.23425 
L 121.60524 153.443096 
L 120.696115 154.651941 
L 119.776886 155.860787 
L 118.8614 157.069632 
L 117.96275 158.278478 
L 117.092857 159.487324 
L 116.262124 160.696169 
z
" clip-path="url(#pd3b43df2d4)" style="fill: #1f77b4; fill-opacity: 0.3"/>
   </g>
   <g id="PolyCollection_2">
    <path d="M 195.371795 186.603621 
L 173.317296 186.603621 
L 172.620948 186.203487 
L 171.944488 185.803352 
L 171.296191 185.403217 
L 170.68434 185.003083 
L 170.117051 184.602948 
L 169.602096 184.202813 
L 169.146727 183.802679 
L 168.757505 183.402544 
L 168.440142 183.002409 
L 168.199363 182.602275 
L 168.038786 182.20214 
L 167.960837 181.802006 
L 167.96668 181.401871 
L 168.056197 181.001736 
L 168.227985 180.601602 
L 168.479398 180.201467 
L 168.80661 179.801332 
L 169.204716 179.401198 
L 169.66785 179.001063 
L 170.189333 178.600928 
L 170.761829 178.200794 
L 171.377518 177.800659 
L 172.028271 177.400524 
L 172.705823 177.00039 
L 173.401948 176.600255 
L 174.108615 176.20012 
L 174.818132 175.799986 
L 175.523277 175.399851 
L 176.2174 174.999717 
L 176.894507 174.599582 
L 177.54932 174.199447 
L 178.177313 173.799313 
L 178.774726 173.399178 
L 179.338555 172.999043 
L 179.866525 172.598909 
L 180.357044 172.198774 
L 180.809144 171.798639 
L 181.222413 171.398505 
L 181.596911 170.99837 
L 181.933085 170.598235 
L 182.231686 170.198101 
L 182.493679 169.797966 
L 182.720153 169.397831 
L 182.912245 168.997697 
L 183.071064 168.597562 
L 183.197618 168.197428 
L 183.29276 167.797293 
L 183.357137 167.397158 
L 183.39115 166.997024 
L 183.394927 166.596889 
L 183.36831 166.196754 
L 183.310846 165.79662 
L 183.221799 165.396485 
L 183.100172 164.99635 
L 182.944737 164.596216 
L 182.75408 164.196081 
L 182.526663 163.795946 
L 182.260885 163.395812 
L 181.955164 162.995677 
L 181.60802 162.595542 
L 181.21817 162.195408 
L 180.784622 161.795273 
L 180.306781 161.395139 
L 179.784539 160.995004 
L 179.218379 160.594869 
L 178.609457 160.194735 
L 177.959686 159.7946 
L 177.271795 159.394465 
L 176.549377 158.994331 
L 175.796918 158.594196 
L 175.019794 158.194061 
L 174.224257 157.793927 
L 173.417375 157.393792 
L 172.606964 156.993657 
L 171.801478 156.593523 
L 171.009883 156.193388 
L 170.2415 155.793253 
L 169.505835 155.393119 
L 168.812385 154.992984 
L 168.170445 154.59285 
L 167.588899 154.192715 
L 167.07602 153.79258 
L 166.639272 153.392446 
L 166.285135 152.992311 
L 166.018942 152.592176 
L 165.844749 152.192042 
L 165.765227 151.791907 
L 165.781602 151.391772 
L 165.893615 150.991638 
L 166.099537 150.591503 
L 166.396206 150.191368 
L 166.779114 149.791234 
L 167.242515 149.391099 
L 167.779575 148.990964 
L 168.382532 148.59083 
L 169.042888 148.190695 
L 169.751604 147.790561 
L 170.499306 147.390426 
L 171.276488 146.990291 
L 197.412603 146.990291 
L 197.412603 146.990291 
L 198.189785 147.390426 
L 198.937487 147.790561 
L 199.646203 148.190695 
L 200.306559 148.59083 
L 200.909516 148.990964 
L 201.446576 149.391099 
L 201.909977 149.791234 
L 202.292885 150.191368 
L 202.589554 150.591503 
L 202.795475 150.991638 
L 202.907489 151.391772 
L 202.923864 151.791907 
L 202.844342 152.192042 
L 202.670149 152.592176 
L 202.403956 152.992311 
L 202.049819 153.392446 
L 201.613071 153.79258 
L 201.100191 154.192715 
L 200.518646 154.59285 
L 199.876706 154.992984 
L 199.183256 155.393119 
L 198.447591 155.793253 
L 197.679208 156.193388 
L 196.887613 156.593523 
L 196.082127 156.993657 
L 195.271716 157.393792 
L 194.464834 157.793927 
L 193.669296 158.194061 
L 192.892173 158.594196 
L 192.139714 158.994331 
L 191.417296 159.394465 
L 190.729405 159.7946 
L 190.079634 160.194735 
L 189.470712 160.594869 
L 188.904552 160.995004 
L 188.38231 161.395139 
L 187.904468 161.795273 
L 187.470921 162.195408 
L 187.081071 162.595542 
L 186.733927 162.995677 
L 186.428206 163.395812 
L 186.162428 163.795946 
L 185.935011 164.196081 
L 185.744354 164.596216 
L 185.588919 164.99635 
L 185.467292 165.396485 
L 185.378245 165.79662 
L 185.320781 166.196754 
L 185.294164 166.596889 
L 185.297941 166.997024 
L 185.331954 167.397158 
L 185.396331 167.797293 
L 185.491473 168.197428 
L 185.618027 168.597562 
L 185.776846 168.997697 
L 185.968938 169.397831 
L 186.195412 169.797966 
L 186.457405 170.198101 
L 186.756006 170.598235 
L 187.09218 170.99837 
L 187.466677 171.398505 
L 187.879946 171.798639 
L 188.332047 172.198774 
L 188.822566 172.598909 
L 189.350536 172.999043 
L 189.914365 173.399178 
L 190.511778 173.799313 
L 191.139771 174.199447 
L 191.794584 174.599582 
L 192.471691 174.999717 
L 193.165813 175.399851 
L 193.870959 175.799986 
L 194.580476 176.20012 
L 195.287143 176.600255 
L 195.983268 177.00039 
L 196.66082 177.400524 
L 197.311573 177.800659 
L 197.927262 178.200794 
L 198.499758 178.600928 
L 199.021241 179.001063 
L 199.484375 179.401198 
L 199.882481 179.801332 
L 200.209693 180.201467 
L 200.461106 180.601602 
L 200.632894 181.001736 
L 200.722411 181.401871 
L 200.728254 181.802006 
L 200.650304 182.20214 
L 200.489728 182.602275 
L 200.248949 183.002409 
L 199.931586 183.402544 
L 199.542364 183.802679 
L 199.086995 184.202813 
L 198.57204 184.602948 
L 198.004751 185.003083 
L 197.3929 185.403217 
L 196.744603 185.803352 
L 196.068143 186.203487 
L 195.371795 186.603621 
z
" clip-path="url(#pd3b43df2d4)" style="fill: #1f77b4; fill-opacity: 0.3"/>
   </g>
   <g id="PolyCollection_3">
    <path d="M 264.292321 216.355405 
L 253.031316 216.355405 
L 252.34359 215.104351 
L 251.624497 213.853297 
L 250.878587 212.602243 
L 250.110686 211.35119 
L 249.325869 210.100136 
L 248.529487 208.849082 
L 247.727252 207.598028 
L 246.92536 206.346974 
L 246.130632 205.09592 
L 245.350634 203.844866 
L 244.593757 202.593812 
L 243.869203 201.342758 
L 243.186862 200.091704 
L 242.557067 198.840651 
L 241.990212 197.589597 
L 241.496266 196.338543 
L 241.084208 195.087489 
L 240.761438 193.836435 
L 240.53321 192.585381 
L 240.402165 191.334327 
L 240.367996 190.083273 
L 240.427305 188.832219 
L 240.573659 187.581165 
L 240.797869 186.330112 
L 241.088449 185.079058 
L 241.432233 183.828004 
L 241.81509 182.57695 
L 242.222674 181.325896 
L 242.641148 180.074842 
L 243.057818 178.823788 
L 243.461631 177.572734 
L 243.843511 176.32168 
L 244.196507 175.070626 
L 244.515768 173.819573 
L 244.798357 172.568519 
L 245.042937 171.317465 
L 245.249388 170.066411 
L 245.418364 168.815357 
L 245.550877 167.564303 
L 245.64792 166.313249 
L 245.710172 165.062195 
L 245.73781 163.811141 
L 245.730439 162.560087 
L 245.68714 161.309034 
L 245.606626 160.05798 
L 245.487489 158.806926 
L 245.328511 157.555872 
L 245.128995 156.304818 
L 244.889104 155.053764 
L 244.610143 153.80271 
L 244.294777 152.551656 
L 243.947152 151.300602 
L 243.572899 150.049549 
L 243.179031 148.798495 
L 242.773733 147.547441 
L 242.366063 146.296387 
L 241.965607 145.045333 
L 241.582102 143.794279 
L 241.22508 142.543225 
L 240.903553 141.292171 
L 240.625759 140.041117 
L 240.399 138.790063 
L 240.229553 137.53901 
L 240.122646 136.287956 
L 240.0825 135.036902 
L 240.112389 133.785848 
L 240.214702 132.534794 
L 240.390995 131.28374 
L 240.641997 130.032686 
L 240.967595 128.781632 
L 241.366765 127.530578 
L 241.837499 126.279524 
L 242.376716 125.028471 
L 242.980197 123.777417 
L 243.642549 122.526363 
L 244.357231 121.275309 
L 245.116628 120.024255 
L 245.912196 118.773201 
L 246.734657 117.522147 
L 247.574244 116.271093 
L 248.420969 115.020039 
L 249.264907 113.768985 
L 250.096478 112.517932 
L 250.906705 111.266878 
L 251.687446 110.015824 
L 252.431585 108.76477 
L 253.133181 107.513716 
L 253.787571 106.262662 
L 254.391414 105.011608 
L 254.942707 103.760554 
L 255.440733 102.5095 
L 255.885985 101.258446 
L 256.28004 100.007393 
L 256.625405 98.756339 
L 256.925336 97.505285 
L 257.183647 96.254231 
L 257.404509 95.003177 
L 257.592253 93.752123 
L 257.751193 92.501069 
L 259.572444 92.501069 
L 259.572444 92.501069 
L 259.731384 93.752123 
L 259.919128 95.003177 
L 260.139989 96.254231 
L 260.398301 97.505285 
L 260.698232 98.756339 
L 261.043596 100.007393 
L 261.437651 101.258446 
L 261.882904 102.5095 
L 262.38093 103.760554 
L 262.932222 105.011608 
L 263.536066 106.262662 
L 264.190455 107.513716 
L 264.892052 108.76477 
L 265.636191 110.015824 
L 266.416931 111.266878 
L 267.227158 112.517932 
L 268.058729 113.768985 
L 268.902668 115.020039 
L 269.749392 116.271093 
L 270.588979 117.522147 
L 271.411441 118.773201 
L 272.207008 120.024255 
L 272.966405 121.275309 
L 273.681087 122.526363 
L 274.34344 123.777417 
L 274.94692 125.028471 
L 275.486138 126.279524 
L 275.956872 127.530578 
L 276.356042 128.781632 
L 276.681639 130.032686 
L 276.932642 131.28374 
L 277.108934 132.534794 
L 277.211247 133.785848 
L 277.241136 135.036902 
L 277.200991 136.287956 
L 277.094084 137.53901 
L 276.924636 138.790063 
L 276.697878 140.041117 
L 276.420084 141.292171 
L 276.098556 142.543225 
L 275.741534 143.794279 
L 275.35803 145.045333 
L 274.957573 146.296387 
L 274.549904 147.547441 
L 274.144605 148.798495 
L 273.750738 150.049549 
L 273.376485 151.300602 
L 273.028859 152.551656 
L 272.713494 153.80271 
L 272.434532 155.053764 
L 272.194641 156.304818 
L 271.995126 157.555872 
L 271.836147 158.806926 
L 271.71701 160.05798 
L 271.636496 161.309034 
L 271.593197 162.560087 
L 271.585826 163.811141 
L 271.613464 165.062195 
L 271.675716 166.313249 
L 271.772759 167.564303 
L 271.905272 168.815357 
L 272.074248 170.066411 
L 272.280699 171.317465 
L 272.52528 172.568519 
L 272.807868 173.819573 
L 273.127129 175.070626 
L 273.480125 176.32168 
L 273.862006 177.572734 
L 274.265819 178.823788 
L 274.682488 180.074842 
L 275.100962 181.325896 
L 275.508546 182.57695 
L 275.891403 183.828004 
L 276.235187 185.079058 
L 276.525767 186.330112 
L 276.749977 187.581165 
L 276.896332 188.832219 
L 276.95564 190.083273 
L 276.921471 191.334327 
L 276.790427 192.585381 
L 276.562199 193.836435 
L 276.239428 195.087489 
L 275.82737 196.338543 
L 275.333424 197.589597 
L 274.766569 198.840651 
L 274.136774 200.091704 
L 273.454434 201.342758 
L 272.729879 202.593812 
L 271.973002 203.844866 
L 271.193004 205.09592 
L 270.398276 206.346974 
L 269.596384 207.598028 
L 268.79415 208.849082 
L 267.997767 210.100136 
L 267.21295 211.35119 
L 266.445049 212.602243 
L 265.69914 213.853297 
L 264.980047 215.104351 
L 264.292321 216.355405 
z
" clip-path="url(#pd3b43df2d4)" style="fill: #1f77b4; fill-opacity: 0.3"/>
   </g>
   <g id="PolyCollection_4">
    <path d="M 345.1513 212.343929 
L 320.806882 212.343929 
L 319.727093 211.081056 
L 318.69651 209.818184 
L 317.737469 208.555312 
L 316.870852 207.29244 
L 316.115169 206.029568 
L 315.485777 204.766695 
L 314.994264 203.503823 
L 314.64806 202.240951 
L 314.450273 200.978079 
L 314.399773 199.715206 
L 314.491486 198.452334 
L 314.71688 197.189462 
L 315.064576 195.92659 
L 315.521052 194.663718 
L 316.071355 193.400845 
L 316.699795 192.137973 
L 317.390555 190.875101 
L 318.1282 189.612229 
L 318.898054 188.349356 
L 319.686446 187.086484 
L 320.480834 185.823612 
L 321.269815 184.56074 
L 322.043056 183.297868 
L 322.791169 182.034995 
L 323.50555 180.772123 
L 324.178228 179.509251 
L 324.801713 178.246379 
L 325.368898 176.983506 
L 325.872987 175.720634 
L 326.307485 174.457762 
L 326.666228 173.19489 
L 326.943473 171.932018 
L 327.134017 170.669145 
L 327.233372 169.406273 
L 327.237958 168.143401 
L 327.145336 166.880529 
L 326.954445 165.617656 
L 326.665857 164.354784 
L 326.28202 163.091912 
L 325.807482 161.82904 
L 325.249069 160.566168 
L 324.616006 159.303295 
L 323.919941 158.040423 
L 323.174872 156.777551 
L 322.396939 155.514679 
L 321.604082 154.251806 
L 320.815562 152.988934 
L 320.051349 151.726062 
L 319.331408 150.46319 
L 318.674916 149.200318 
L 318.099454 147.937445 
L 317.620232 146.674573 
L 317.249406 145.411701 
L 316.99554 144.148829 
L 316.863248 142.885956 
L 316.853079 141.623084 
L 316.961619 140.360212 
L 317.181844 139.09734 
L 317.503662 137.834468 
L 317.914632 136.571595 
L 318.400774 135.308723 
L 318.947416 134.045851 
L 319.540011 132.782979 
L 320.164854 131.520107 
L 320.80965 130.257234 
L 321.463904 128.994362 
L 322.11911 127.73149 
L 322.768757 126.468618 
L 323.408162 125.205745 
L 324.034182 123.942873 
L 324.644839 122.680001 
L 325.238928 121.417129 
L 325.815631 120.154257 
L 326.374198 118.891384 
L 326.913712 117.628512 
L 327.432954 116.36564 
L 327.930373 115.102768 
L 328.40414 113.839895 
L 328.852281 112.577023 
L 329.27284 111.314151 
L 329.66407 110.051279 
L 330.024604 108.788407 
L 330.353596 107.525534 
L 330.650812 106.262662 
L 330.916674 104.99979 
L 331.15224 103.736918 
L 331.359143 102.474045 
L 331.539487 101.211173 
L 331.695728 99.948301 
L 331.830534 98.685429 
L 331.946656 97.422557 
L 332.046808 96.159684 
L 332.133567 94.896812 
L 332.209295 93.63394 
L 332.276092 92.371068 
L 332.33576 91.108195 
L 332.389804 89.845323 
L 332.439431 88.582451 
L 332.485576 87.319579 
L 333.472606 87.319579 
L 333.472606 87.319579 
L 333.518751 88.582451 
L 333.568378 89.845323 
L 333.622421 91.108195 
L 333.68209 92.371068 
L 333.748886 93.63394 
L 333.824615 94.896812 
L 333.911374 96.159684 
L 334.011526 97.422557 
L 334.127648 98.685429 
L 334.262454 99.948301 
L 334.418695 101.211173 
L 334.599039 102.474045 
L 334.805941 103.736918 
L 335.041508 104.99979 
L 335.30737 106.262662 
L 335.604586 107.525534 
L 335.933578 108.788407 
L 336.294112 110.051279 
L 336.685342 111.314151 
L 337.105901 112.577023 
L 337.554042 113.839895 
L 338.027809 115.102768 
L 338.525228 116.36564 
L 339.04447 117.628512 
L 339.583984 118.891384 
L 340.142551 120.154257 
L 340.719254 121.417129 
L 341.313343 122.680001 
L 341.924 123.942873 
L 342.550019 125.205745 
L 343.189425 126.468618 
L 343.839072 127.73149 
L 344.494278 128.994362 
L 345.148532 130.257234 
L 345.793328 131.520107 
L 346.418171 132.782979 
L 347.010766 134.045851 
L 347.557408 135.308723 
L 348.043549 136.571595 
L 348.45452 137.834468 
L 348.776338 139.09734 
L 348.996563 140.360212 
L 349.105103 141.623084 
L 349.094934 142.885956 
L 348.962642 144.148829 
L 348.708775 145.411701 
L 348.33795 146.674573 
L 347.858728 147.937445 
L 347.283266 149.200318 
L 346.626773 150.46319 
L 345.906833 151.726062 
L 345.14262 152.988934 
L 344.3541 154.251806 
L 343.561243 155.514679 
L 342.78331 156.777551 
L 342.038241 158.040423 
L 341.342176 159.303295 
L 340.709112 160.566168 
L 340.1507 161.82904 
L 339.676162 163.091912 
L 339.292325 164.354784 
L 339.003737 165.617656 
L 338.812846 166.880529 
L 338.720224 168.143401 
L 338.72481 169.406273 
L 338.824165 170.669145 
L 339.014709 171.932018 
L 339.291954 173.19489 
L 339.650697 174.457762 
L 340.085195 175.720634 
L 340.589284 176.983506 
L 341.156469 178.246379 
L 341.779954 179.509251 
L 342.452631 180.772123 
L 343.167013 182.034995 
L 343.915126 183.297868 
L 344.688367 184.56074 
L 345.477348 185.823612 
L 346.271735 187.086484 
L 347.060128 188.349356 
L 347.829982 189.612229 
L 348.567627 190.875101 
L 349.258387 192.137973 
L 349.886827 193.400845 
L 350.43713 194.663718 
L 350.893605 195.92659 
L 351.241302 197.189462 
L 351.466696 198.452334 
L 351.558409 199.715206 
L 351.507909 200.978079 
L 351.310122 202.240951 
L 350.963918 203.503823 
L 350.472405 204.766695 
L 349.843013 206.029568 
L 349.08733 207.29244 
L 348.220713 208.555312 
L 347.261672 209.818184 
L 346.231088 211.081056 
L 345.1513 212.343929 
z
" clip-path="url(#pd3b43df2d4)" style="fill: #1f77b4; fill-opacity: 0.3"/>
   </g>
   <g id="PolyCollection_5">
    <path d="M 413.988537 244.602885 
L 400.60419 244.602885 
L 399.766771 243.436248 
L 398.892451 242.269611 
L 397.990397 241.102973 
L 397.071055 239.936336 
L 396.145907 238.769699 
L 395.227183 237.603061 
L 394.327528 236.436424 
L 393.459646 235.269787 
L 392.635935 234.103149 
L 391.868139 232.936512 
L 391.167012 231.769875 
L 390.542038 230.603238 
L 390.001198 229.4366 
L 389.550799 228.269963 
L 389.195368 227.103326 
L 388.937614 225.936688 
L 388.778446 224.770051 
L 388.717045 223.603414 
L 388.750979 222.436776 
L 388.876338 221.270139 
L 389.087903 220.103502 
L 389.379303 218.936865 
L 389.74319 217.770227 
L 390.171395 216.60359 
L 390.655079 215.436953 
L 391.18488 214.270315 
L 391.751048 213.103678 
L 392.34357 211.937041 
L 392.952308 210.770403 
L 393.567113 209.603766 
L 394.177963 208.437129 
L 394.775078 207.270491 
L 395.349046 206.103854 
L 395.890935 204.937217 
L 396.392402 203.77058 
L 396.845786 202.603942 
L 397.244198 201.437305 
L 397.581596 200.270668 
L 397.852854 199.10403 
L 398.05383 197.937393 
L 398.181435 196.770756 
L 398.233705 195.604118 
L 398.20988 194.437481 
L 398.110488 193.270844 
L 397.937431 192.104206 
L 397.694058 190.937569 
L 397.385229 189.770932 
L 397.017347 188.604295 
L 396.59834 187.437657 
L 396.137597 186.27102 
L 395.645835 185.104383 
L 395.134901 183.937745 
L 394.617497 182.771108 
L 394.10686 181.604471 
L 393.616375 180.437833 
L 393.159173 179.271196 
L 392.747713 178.104559 
L 392.393375 176.937921 
L 392.106099 175.771284 
L 391.894076 174.604647 
L 391.763508 173.43801 
L 391.718463 172.271372 
L 391.760809 171.104735 
L 391.890241 169.938098 
L 392.104386 168.77146 
L 392.398987 167.604823 
L 392.768135 166.438186 
L 393.204542 165.271548 
L 393.69985 164.104911 
L 394.244935 162.938274 
L 394.830216 161.771637 
L 395.445945 160.604999 
L 396.08247 159.438362 
L 396.730468 158.271725 
L 397.381145 157.105087 
L 398.026397 155.93845 
L 398.658938 154.771813 
L 399.272395 153.605175 
L 399.861378 152.438538 
L 400.421517 151.271901 
L 400.949479 150.105263 
L 401.442966 148.938626 
L 401.900685 147.771989 
L 402.322303 146.605352 
L 402.708379 145.438714 
L 403.06027 144.272077 
L 403.380021 143.10544 
L 403.670232 141.938802 
L 403.933913 140.772165 
L 404.174322 139.605528 
L 404.394804 138.43889 
L 404.598636 137.272253 
L 404.78888 136.105616 
L 404.968261 134.938978 
L 405.139073 133.772341 
L 405.303116 132.605704 
L 405.461669 131.439067 
L 405.6155 130.272429 
L 405.764905 129.105792 
L 408.827822 129.105792 
L 408.827822 129.105792 
L 408.977227 130.272429 
L 409.131058 131.439067 
L 409.289612 132.605704 
L 409.453654 133.772341 
L 409.624466 134.938978 
L 409.803847 136.105616 
L 409.994091 137.272253 
L 410.197923 138.43889 
L 410.418405 139.605528 
L 410.658814 140.772165 
L 410.922495 141.938802 
L 411.212707 143.10544 
L 411.532458 144.272077 
L 411.884348 145.438714 
L 412.270424 146.605352 
L 412.692042 147.771989 
L 413.149761 148.938626 
L 413.643248 150.105263 
L 414.17121 151.271901 
L 414.731349 152.438538 
L 415.320332 153.605175 
L 415.93379 154.771813 
L 416.56633 155.93845 
L 417.211582 157.105087 
L 417.862259 158.271725 
L 418.510257 159.438362 
L 419.146782 160.604999 
L 419.762511 161.771637 
L 420.347792 162.938274 
L 420.892877 164.104911 
L 421.388185 165.271548 
L 421.824592 166.438186 
L 422.19374 167.604823 
L 422.488341 168.77146 
L 422.702487 169.938098 
L 422.831918 171.104735 
L 422.874264 172.271372 
L 422.829219 173.43801 
L 422.698652 174.604647 
L 422.486628 175.771284 
L 422.199353 176.937921 
L 421.845015 178.104559 
L 421.433554 179.271196 
L 420.976352 180.437833 
L 420.485868 181.604471 
L 419.97523 182.771108 
L 419.457827 183.937745 
L 418.946892 185.104383 
L 418.45513 186.27102 
L 417.994387 187.437657 
L 417.57538 188.604295 
L 417.207498 189.770932 
L 416.89867 190.937569 
L 416.655296 192.104206 
L 416.482239 193.270844 
L 416.382847 194.437481 
L 416.359022 195.604118 
L 416.411292 196.770756 
L 416.538897 197.937393 
L 416.739873 199.10403 
L 417.011131 200.270668 
L 417.348529 201.437305 
L 417.746941 202.603942 
L 418.200326 203.77058 
L 418.701792 204.937217 
L 419.243681 206.103854 
L 419.817649 207.270491 
L 420.414764 208.437129 
L 421.025614 209.603766 
L 421.64042 210.770403 
L 422.249157 211.937041 
L 422.84168 213.103678 
L 423.407847 214.270315 
L 423.937648 215.436953 
L 424.421333 216.60359 
L 424.849537 217.770227 
L 425.213424 218.936865 
L 425.504825 220.103502 
L 425.716389 221.270139 
L 425.841749 222.436776 
L 425.875682 223.603414 
L 425.814281 224.770051 
L 425.655113 225.936688 
L 425.397359 227.103326 
L 425.041928 228.269963 
L 424.591529 229.4366 
L 424.050689 230.603238 
L 423.425716 231.769875 
L 422.724588 232.936512 
L 421.956792 234.103149 
L 421.133082 235.269787 
L 420.265199 236.436424 
L 419.365544 237.603061 
L 418.44682 238.769699 
L 417.521672 239.936336 
L 416.60233 241.102973 
L 415.700276 242.269611 
L 414.825956 243.436248 
L 413.988537 244.602885 
z
" clip-path="url(#pd3b43df2d4)" style="fill: #1f77b4; fill-opacity: 0.3"/>
   </g>
   <g id="PolyCollection_6">
    <path d="M 493.499618 265.997426 
L 469.727655 265.997426 
L 468.689049 264.791957 
L 467.69946 263.586489 
L 466.783307 262.38102 
L 465.964521 261.175551 
L 465.265515 259.970082 
L 464.706169 258.764613 
L 464.302896 257.559144 
L 464.067829 256.353675 
L 464.008209 255.148206 
L 464.125997 253.942737 
L 464.417746 252.737268 
L 464.874741 251.531799 
L 465.48339 250.32633 
L 466.225846 249.120861 
L 467.080809 247.915392 
L 468.024455 246.709923 
L 469.031426 245.504454 
L 470.075827 244.298986 
L 471.132147 243.093517 
L 472.176082 241.888048 
L 473.185185 240.682579 
L 474.139356 239.47711 
L 475.021131 238.271641 
L 475.815792 237.066172 
L 476.511324 235.860703 
L 477.098238 234.655234 
L 477.569305 233.449765 
L 477.919253 232.244296 
L 478.144459 231.038827 
L 478.242681 229.833358 
L 478.212864 228.627889 
L 478.05504 227.42242 
L 477.770338 226.216951 
L 477.361093 225.011482 
L 476.831055 223.806014 
L 476.18566 222.600545 
L 475.432342 221.395076 
L 474.580837 220.189607 
L 473.643437 218.984138 
L 472.635158 217.778669 
L 471.573773 216.5732 
L 470.479696 215.367731 
L 469.375674 214.162262 
L 468.286301 212.956793 
L 467.237364 211.751324 
L 466.255023 210.545855 
L 465.364899 209.340386 
L 464.591081 208.134917 
L 463.95515 206.929448 
L 463.475252 205.723979 
L 463.165294 204.518511 
L 463.034318 203.313042 
L 463.086094 202.107573 
L 463.318957 200.902104 
L 463.725905 199.696635 
L 464.294954 198.491166 
L 465.009713 197.285697 
L 465.850158 196.080228 
L 466.793541 194.874759 
L 467.815378 193.66929 
L 468.890465 192.463821 
L 469.993848 191.258352 
L 471.101709 190.052883 
L 472.192119 188.847414 
L 473.245627 187.641945 
L 474.245679 186.436476 
L 475.178844 185.231008 
L 476.034886 184.025539 
L 476.806673 182.82007 
L 477.489969 181.614601 
L 478.083138 180.409132 
L 478.586779 179.203663 
L 479.003352 177.998194 
L 479.336795 176.792725 
L 479.592169 175.587256 
L 479.775355 174.381787 
L 479.892789 173.176318 
L 479.951269 171.970849 
L 479.957801 170.76538 
L 479.919501 169.559911 
L 479.843526 168.354442 
L 479.737033 167.148973 
L 479.60714 165.943505 
L 479.460892 164.738036 
L 479.305212 163.532567 
L 479.14683 162.327098 
L 478.9922 161.121629 
L 478.847388 159.91616 
L 478.717954 158.710691 
L 478.608814 157.505222 
L 478.52412 156.299753 
L 478.467137 155.094284 
L 478.440155 153.888815 
L 478.444425 152.683346 
L 478.480141 151.477877 
L 478.54646 150.272408 
L 478.641571 149.066939 
L 478.762801 147.86147 
L 478.906761 146.656002 
L 484.320512 146.656002 
L 484.320512 146.656002 
L 484.464472 147.86147 
L 484.585702 149.066939 
L 484.680813 150.272408 
L 484.747132 151.477877 
L 484.782848 152.683346 
L 484.787118 153.888815 
L 484.760136 155.094284 
L 484.703153 156.299753 
L 484.618459 157.505222 
L 484.509319 158.710691 
L 484.379885 159.91616 
L 484.235073 161.121629 
L 484.080443 162.327098 
L 483.922061 163.532567 
L 483.76638 164.738036 
L 483.620133 165.943505 
L 483.49024 167.148973 
L 483.383747 168.354442 
L 483.307772 169.559911 
L 483.269472 170.76538 
L 483.276004 171.970849 
L 483.334483 173.176318 
L 483.451918 174.381787 
L 483.635104 175.587256 
L 483.890478 176.792725 
L 484.223921 177.998194 
L 484.640494 179.203663 
L 485.144135 180.409132 
L 485.737303 181.614601 
L 486.4206 182.82007 
L 487.192387 184.025539 
L 488.048429 185.231008 
L 488.981594 186.436476 
L 489.981645 187.641945 
L 491.035154 188.847414 
L 492.125564 190.052883 
L 493.233425 191.258352 
L 494.336808 192.463821 
L 495.411895 193.66929 
L 496.433732 194.874759 
L 497.377114 196.080228 
L 498.21756 197.285697 
L 498.932319 198.491166 
L 499.501367 199.696635 
L 499.908316 200.902104 
L 500.141178 202.107573 
L 500.192955 203.313042 
L 500.061979 204.518511 
L 499.752021 205.723979 
L 499.272123 206.929448 
L 498.636192 208.134917 
L 497.862374 209.340386 
L 496.972249 210.545855 
L 495.989909 211.751324 
L 494.940972 212.956793 
L 493.851599 214.162262 
L 492.747576 215.367731 
L 491.653499 216.5732 
L 490.592115 217.778669 
L 489.583835 218.984138 
L 488.646435 220.189607 
L 487.79493 221.395076 
L 487.041613 222.600545 
L 486.396218 223.806014 
L 485.866179 225.011482 
L 485.456935 226.216951 
L 485.172233 227.42242 
L 485.014409 228.627889 
L 484.984592 229.833358 
L 485.082814 231.038827 
L 485.30802 232.244296 
L 485.657968 233.449765 
L 486.129035 234.655234 
L 486.715949 235.860703 
L 487.411481 237.066172 
L 488.206142 238.271641 
L 489.087916 239.47711 
L 490.042088 240.682579 
L 491.051191 241.888048 
L 492.095125 243.093517 
L 493.151446 244.298986 
L 494.195847 245.504454 
L 495.202818 246.709923 
L 496.146463 247.915392 
L 497.001426 249.120861 
L 497.743883 250.32633 
L 498.352532 251.531799 
L 498.809527 252.737268 
L 499.101276 253.942737 
L 499.219064 255.148206 
L 499.159443 256.353675 
L 498.924376 257.559144 
L 498.521103 258.764613 
L 497.961758 259.970082 
L 497.262751 261.175551 
L 496.443965 262.38102 
L 495.527813 263.586489 
L 494.538224 264.791957 
L 493.499618 265.997426 
z
" clip-path="url(#pd3b43df2d4)" style="fill: #1f77b4; fill-opacity: 0.3"/>
   </g>
   <g id="PolyCollection_7">
    <path d="M 556.493813 323.829545 
L 555.368005 323.829545 
L 555.313925 321.825496 
L 555.261448 319.821446 
L 555.20862 317.817396 
L 555.152365 315.813346 
L 555.088729 313.809296 
L 555.013274 311.805246 
L 554.921595 309.801196 
L 554.809844 307.797146 
L 554.67518 305.793096 
L 554.516032 303.789046 
L 554.332083 301.784997 
L 554.123958 299.780947 
L 553.892634 297.776897 
L 553.638693 295.772847 
L 553.361574 293.768797 
L 553.059056 291.764747 
L 552.727139 289.760697 
L 552.360448 287.756647 
L 551.953138 285.752597 
L 551.500169 283.748547 
L 550.998645 281.744498 
L 550.448928 279.740448 
L 549.855184 277.736398 
L 549.225199 275.732348 
L 548.569446 273.728298 
L 547.899588 271.724248 
L 547.226743 269.720198 
L 546.559919 267.716148 
L 545.904957 265.712098 
L 545.26421 263.708048 
L 544.636991 261.703999 
L 544.020623 259.699949 
L 543.411828 257.695899 
L 542.808107 255.691849 
L 542.208827 253.687799 
L 541.615826 251.683749 
L 541.033484 249.679699 
L 540.468325 247.675649 
L 539.928302 245.671599 
L 539.421952 243.667549 
L 538.957588 241.663499 
L 538.542657 239.65945 
L 538.183354 237.6554 
L 537.884487 235.65135 
L 537.649593 233.6473 
L 537.481225 231.64325 
L 537.381328 229.6392 
L 537.351591 227.63515 
L 537.393664 225.6311 
L 537.509137 223.62705 
L 537.699229 221.623 
L 537.964197 219.618951 
L 538.302562 217.614901 
L 538.710309 215.610851 
L 539.180299 213.606801 
L 539.702066 211.602751 
L 540.262177 209.598701 
L 540.845142 207.594651 
L 541.434791 205.590601 
L 542.015878 203.586551 
L 542.575634 201.582501 
L 543.104983 199.578452 
L 543.599248 197.574402 
L 544.058264 195.570352 
L 544.485963 193.566302 
L 544.889595 191.562252 
L 545.278752 189.558202 
L 545.66437 187.554152 
L 546.057803 185.550102 
L 546.469969 183.546052 
L 546.910562 181.542002 
L 547.387272 179.537953 
L 547.905023 177.533903 
L 548.465274 175.529853 
L 549.065506 173.525803 
L 549.699018 171.521753 
L 550.355159 169.517703 
L 551.020025 167.513653 
L 551.6776 165.509603 
L 552.311178 163.505553 
L 552.904889 161.501503 
L 553.445106 159.497454 
L 553.921532 157.493404 
L 554.327858 155.489354 
L 554.661947 153.485304 
L 554.925575 151.481254 
L 555.123835 149.477204 
L 555.264331 147.473154 
L 555.356295 145.469104 
L 555.409724 143.465054 
L 555.43463 141.461004 
L 555.440435 139.456955 
L 555.43552 137.452905 
L 555.426933 135.448855 
L 555.420227 133.444805 
L 555.419412 131.440755 
L 555.426993 129.436705 
L 555.444088 127.432655 
L 555.470606 125.428605 
L 556.391212 125.428605 
L 556.391212 125.428605 
L 556.41773 127.432655 
L 556.434825 129.436705 
L 556.442406 131.440755 
L 556.441591 133.444805 
L 556.434885 135.448855 
L 556.426298 137.452905 
L 556.421383 139.456955 
L 556.427188 141.461004 
L 556.452095 143.465054 
L 556.505524 145.469104 
L 556.597487 147.473154 
L 556.737984 149.477204 
L 556.936243 151.481254 
L 557.199871 153.485304 
L 557.53396 155.489354 
L 557.940287 157.493404 
L 558.416712 159.497454 
L 558.956929 161.501503 
L 559.550641 163.505553 
L 560.184218 165.509603 
L 560.841793 167.513653 
L 561.50666 169.517703 
L 562.1628 171.521753 
L 562.796312 173.525803 
L 563.396544 175.529853 
L 563.956795 177.533903 
L 564.474546 179.537953 
L 564.951256 181.542002 
L 565.391849 183.546052 
L 565.804015 185.550102 
L 566.197448 187.554152 
L 566.583067 189.558202 
L 566.972223 191.562252 
L 567.375855 193.566302 
L 567.803554 195.570352 
L 568.26257 197.574402 
L 568.756835 199.578452 
L 569.286184 201.582501 
L 569.84594 203.586551 
L 570.427027 205.590601 
L 571.016676 207.594651 
L 571.599641 209.598701 
L 572.159752 211.602751 
L 572.68152 213.606801 
L 573.151509 215.610851 
L 573.559257 217.614901 
L 573.897621 219.618951 
L 574.16259 221.623 
L 574.352681 223.62705 
L 574.468154 225.6311 
L 574.510227 227.63515 
L 574.48049 229.6392 
L 574.380593 231.64325 
L 574.212225 233.6473 
L 573.977331 235.65135 
L 573.678464 237.6554 
L 573.319161 239.65945 
L 572.90423 241.663499 
L 572.439866 243.667549 
L 571.933516 245.671599 
L 571.393494 247.675649 
L 570.828334 249.679699 
L 570.245992 251.683749 
L 569.652991 253.687799 
L 569.053711 255.691849 
L 568.44999 257.695899 
L 567.841195 259.699949 
L 567.224827 261.703999 
L 566.597608 263.708048 
L 565.956861 265.712098 
L 565.301899 267.716148 
L 564.635075 269.720198 
L 563.96223 271.724248 
L 563.292372 273.728298 
L 562.636619 275.732348 
L 562.006634 277.736398 
L 561.41289 279.740448 
L 560.863173 281.744498 
L 560.36165 283.748547 
L 559.90868 285.752597 
L 559.50137 287.756647 
L 559.134679 289.760697 
L 558.802762 291.764747 
L 558.500244 293.768797 
L 558.223125 295.772847 
L 557.969184 297.776897 
L 557.737861 299.780947 
L 557.529735 301.784997 
L 557.345786 303.789046 
L 557.186638 305.793096 
L 557.051975 307.797146 
L 556.940223 309.801196 
L 556.848544 311.805246 
L 556.773089 313.809296 
L 556.709453 315.813346 
L 556.653199 317.817396 
L 556.60037 319.821446 
L 556.547893 321.825496 
L 556.493813 323.829545 
z
" clip-path="url(#pd3b43df2d4)" style="fill: #1f77b4; fill-opacity: 0.3"/>
   </g>
   <g id="PolyCollection_8">
    <path d="M 641.090497 260.983081 
L 619.405866 260.983081 
L 618.614706 260.2858 
L 617.827015 259.588519 
L 617.051074 258.891238 
L 616.295534 258.193957 
L 615.569258 257.496676 
L 614.881158 256.799394 
L 614.240012 256.102113 
L 613.654282 255.404832 
L 613.131928 254.707551 
L 612.680229 254.01027 
L 612.305612 253.312989 
L 612.013503 252.615708 
L 611.808193 251.918427 
L 611.692734 251.221146 
L 611.668864 250.523865 
L 611.736961 249.826584 
L 611.896037 249.129303 
L 612.143758 248.432022 
L 612.476502 247.734741 
L 612.889449 247.03746 
L 613.376698 246.340179 
L 613.931402 245.642898 
L 614.545938 244.945617 
L 615.21207 244.248336 
L 615.921142 243.551054 
L 616.664256 242.853773 
L 617.43246 242.156492 
L 618.21692 241.459211 
L 619.009086 240.76193 
L 619.800832 240.064649 
L 620.584586 239.367368 
L 621.353433 238.670087 
L 622.10119 237.972806 
L 622.822465 237.275525 
L 623.512688 236.578244 
L 624.168111 235.880963 
L 624.785804 235.183682 
L 625.36361 234.486401 
L 625.900102 233.78912 
L 626.394517 233.091839 
L 626.846676 232.394558 
L 627.256905 231.697277 
L 627.625944 230.999996 
L 627.954858 230.302714 
L 628.244946 229.605433 
L 628.497653 228.908152 
L 628.714489 228.210871 
L 628.89695 227.51359 
L 629.046451 226.816309 
L 629.164266 226.119028 
L 629.251478 225.421747 
L 629.308937 224.724466 
L 629.337233 224.027185 
L 629.336674 223.329904 
L 629.307282 222.632623 
L 629.248798 221.935342 
L 629.16069 221.238061 
L 629.042189 220.54078 
L 628.892316 219.843499 
L 628.709938 219.146218 
L 628.493818 218.448937 
L 628.242685 217.751656 
L 627.955307 217.054374 
L 627.630572 216.357093 
L 627.26757 215.659812 
L 626.865687 214.962531 
L 626.424689 214.26525 
L 625.944814 213.567969 
L 625.426848 212.870688 
L 624.872205 212.173407 
L 624.282989 211.476126 
L 623.662044 210.778845 
L 623.012986 210.081564 
L 622.340217 209.384283 
L 621.64892 208.687002 
L 620.945022 207.989721 
L 620.235142 207.29244 
L 619.52651 206.595159 
L 618.826863 205.897878 
L 618.144318 205.200597 
L 617.487227 204.503316 
L 616.864015 203.806035 
L 616.283006 203.108753 
L 615.752242 202.411472 
L 615.2793 201.714191 
L 614.871115 201.01691 
L 614.533814 200.319629 
L 614.27256 199.622348 
L 614.091422 198.925067 
L 613.993273 198.227786 
L 613.97971 197.530505 
L 614.051016 196.833224 
L 614.206144 196.135943 
L 614.442748 195.438662 
L 614.757241 194.741381 
L 615.144884 194.0441 
L 615.599904 193.346819 
L 616.115641 192.649538 
L 616.684705 191.952257 
L 643.811659 191.952257 
L 643.811659 191.952257 
L 644.380723 192.649538 
L 644.896459 193.346819 
L 645.351479 194.0441 
L 645.739122 194.741381 
L 646.053615 195.438662 
L 646.29022 196.135943 
L 646.445348 196.833224 
L 646.516653 197.530505 
L 646.503091 198.227786 
L 646.404942 198.925067 
L 646.223804 199.622348 
L 645.962549 200.319629 
L 645.625248 201.01691 
L 645.217064 201.714191 
L 644.744122 202.411472 
L 644.213357 203.108753 
L 643.632348 203.806035 
L 643.009137 204.503316 
L 642.352046 205.200597 
L 641.669501 205.897878 
L 640.969854 206.595159 
L 640.261222 207.29244 
L 639.551342 207.989721 
L 638.847444 208.687002 
L 638.156146 209.384283 
L 637.483378 210.081564 
L 636.83432 210.778845 
L 636.213374 211.476126 
L 635.624159 212.173407 
L 635.069516 212.870688 
L 634.55155 213.567969 
L 634.071674 214.26525 
L 633.630677 214.962531 
L 633.228794 215.659812 
L 632.865792 216.357093 
L 632.541056 217.054374 
L 632.253678 217.751656 
L 632.002545 218.448937 
L 631.786425 219.146218 
L 631.604047 219.843499 
L 631.454175 220.54078 
L 631.335673 221.238061 
L 631.247566 221.935342 
L 631.189081 222.632623 
L 631.15969 223.329904 
L 631.159131 224.027185 
L 631.187426 224.724466 
L 631.244885 225.421747 
L 631.332097 226.119028 
L 631.449913 226.816309 
L 631.599414 227.51359 
L 631.781875 228.210871 
L 631.998711 228.908152 
L 632.251418 229.605433 
L 632.541506 230.302714 
L 632.87042 230.999996 
L 633.239459 231.697277 
L 633.649688 232.394558 
L 634.101847 233.091839 
L 634.596261 233.78912 
L 635.132754 234.486401 
L 635.71056 235.183682 
L 636.328252 235.880963 
L 636.983676 236.578244 
L 637.673898 237.275525 
L 638.395174 237.972806 
L 639.142931 238.670087 
L 639.911777 239.367368 
L 640.695532 240.064649 
L 641.487278 240.76193 
L 642.279443 241.459211 
L 643.063904 242.156492 
L 643.832108 242.853773 
L 644.575222 243.551054 
L 645.284294 244.248336 
L 645.950426 244.945617 
L 646.564961 245.642898 
L 647.119666 246.340179 
L 647.606914 247.03746 
L 648.019862 247.734741 
L 648.352606 248.432022 
L 648.600326 249.129303 
L 648.759402 249.826584 
L 648.8275 250.523865 
L 648.80363 251.221146 
L 648.688171 251.918427 
L 648.482861 252.615708 
L 648.190752 253.312989 
L 647.816135 254.01027 
L 647.364435 254.707551 
L 646.842082 255.404832 
L 646.256352 256.102113 
L 645.615206 256.799394 
L 644.927106 257.496676 
L 644.20083 258.193957 
L 643.44529 258.891238 
L 642.669349 259.588519 
L 641.881657 260.2858 
L 641.090497 260.983081 
z
" clip-path="url(#pd3b43df2d4)" style="fill: #1f77b4; fill-opacity: 0.3"/>
   </g>
   <g id="PolyCollection_9">
    <path d="M 713.285721 268.504599 
L 695.845188 268.504599 
L 695.048115 267.891735 
L 694.233269 267.27887 
L 693.408276 266.666006 
L 692.581587 266.053141 
L 691.762357 265.440277 
L 690.960291 264.827412 
L 690.185468 264.214548 
L 689.448138 263.601684 
L 688.758501 262.988819 
L 688.126482 262.375955 
L 687.561488 261.76309 
L 687.072184 261.150226 
L 686.666266 260.537361 
L 686.350265 259.924497 
L 686.129371 259.311632 
L 686.007288 258.698768 
L 685.986136 258.085903 
L 686.066387 257.473039 
L 686.246847 256.860174 
L 686.52469 256.24731 
L 686.895528 255.634446 
L 687.353531 255.021581 
L 687.891575 254.408717 
L 688.501429 253.795852 
L 689.173966 253.182988 
L 689.899391 252.570123 
L 690.667473 251.957259 
L 691.467788 251.344394 
L 692.289947 250.73153 
L 693.123814 250.118665 
L 693.959708 249.505801 
L 694.788568 248.892936 
L 695.602102 248.280072 
L 696.392896 247.667208 
L 697.15449 247.054343 
L 697.881426 246.441479 
L 698.569259 245.828614 
L 699.214536 245.21575 
L 699.81476 244.602885 
L 700.368314 243.990021 
L 700.874379 243.377156 
L 701.332836 242.764292 
L 701.74415 242.151427 
L 702.109259 241.538563 
L 702.429451 240.925698 
L 702.706257 240.312834 
L 702.941331 239.69997 
L 703.136358 239.087105 
L 703.292954 238.474241 
L 703.412594 237.861376 
L 703.496544 237.248512 
L 703.545811 236.635647 
L 703.561105 236.022783 
L 703.542825 235.409918 
L 703.49105 234.797054 
L 703.405553 234.184189 
L 703.285826 233.571325 
L 703.131121 232.95846 
L 702.940507 232.345596 
L 702.712932 231.732732 
L 702.447305 231.119867 
L 702.142582 230.507003 
L 701.797858 229.894138 
L 701.41247 229.281274 
L 700.986094 228.668409 
L 700.518852 228.055545 
L 700.011402 227.44268 
L 699.465034 226.829816 
L 698.881742 226.216951 
L 698.264289 225.604087 
L 697.616255 224.991223 
L 696.942054 224.378358 
L 696.246942 223.765494 
L 695.536982 223.152629 
L 694.818995 222.539765 
L 694.100476 221.9269 
L 693.389489 221.314036 
L 692.694525 220.701171 
L 692.024356 220.088307 
L 691.387852 219.475442 
L 690.793794 218.862578 
L 690.250681 218.249713 
L 689.766525 217.636849 
L 689.348663 217.023985 
L 689.003567 216.41112 
L 688.736686 215.798256 
L 688.552298 215.185391 
L 688.453397 214.572527 
L 688.441618 213.959662 
L 688.517186 213.346798 
L 688.678914 212.733933 
L 688.924232 212.121069 
L 689.249254 211.508204 
L 689.648884 210.89534 
L 690.116944 210.282475 
L 690.646337 209.669611 
L 691.229223 209.056747 
L 691.857211 208.443882 
L 692.52156 207.831018 
L 716.609349 207.831018 
L 716.609349 207.831018 
L 717.273698 208.443882 
L 717.901686 209.056747 
L 718.484572 209.669611 
L 719.013965 210.282475 
L 719.482025 210.89534 
L 719.881655 211.508204 
L 720.206677 212.121069 
L 720.451995 212.733933 
L 720.613723 213.346798 
L 720.689291 213.959662 
L 720.677512 214.572527 
L 720.578612 215.185391 
L 720.394223 215.798256 
L 720.127342 216.41112 
L 719.782246 217.023985 
L 719.364384 217.636849 
L 718.880228 218.249713 
L 718.337115 218.862578 
L 717.743057 219.475442 
L 717.106553 220.088307 
L 716.436384 220.701171 
L 715.741421 221.314036 
L 715.030433 221.9269 
L 714.311914 222.539765 
L 713.593927 223.152629 
L 712.883967 223.765494 
L 712.188855 224.378358 
L 711.514654 224.991223 
L 710.86662 225.604087 
L 710.249167 226.216951 
L 709.665875 226.829816 
L 709.119507 227.44268 
L 708.612057 228.055545 
L 708.144815 228.668409 
L 707.718439 229.281274 
L 707.333051 229.894138 
L 706.988327 230.507003 
L 706.683604 231.119867 
L 706.417977 231.732732 
L 706.190403 232.345596 
L 705.999788 232.95846 
L 705.845083 233.571325 
L 705.725356 234.184189 
L 705.639859 234.797054 
L 705.588084 235.409918 
L 705.569804 236.022783 
L 705.585098 236.635647 
L 705.634365 237.248512 
L 705.718315 237.861376 
L 705.837955 238.474241 
L 705.994552 239.087105 
L 706.189578 239.69997 
L 706.424652 240.312834 
L 706.701458 240.925698 
L 707.02165 241.538563 
L 707.386759 242.151427 
L 707.798073 242.764292 
L 708.25653 243.377156 
L 708.762595 243.990021 
L 709.316149 244.602885 
L 709.916373 245.21575 
L 710.561651 245.828614 
L 711.249483 246.441479 
L 711.976419 247.054343 
L 712.738013 247.667208 
L 713.528807 248.280072 
L 714.342341 248.892936 
L 715.171201 249.505801 
L 716.007095 250.118665 
L 716.840963 250.73153 
L 717.663121 251.344394 
L 718.463436 251.957259 
L 719.231518 252.570123 
L 719.956943 253.182988 
L 720.62948 253.795852 
L 721.239335 254.408717 
L 721.777378 255.021581 
L 722.235381 255.634446 
L 722.60622 256.24731 
L 722.884062 256.860174 
L 723.064522 257.473039 
L 723.144773 258.085903 
L 723.123621 258.698768 
L 723.001538 259.311632 
L 722.780644 259.924497 
L 722.464643 260.537361 
L 722.058725 261.150226 
L 721.569421 261.76309 
L 721.004427 262.375955 
L 720.372408 262.988819 
L 719.682771 263.601684 
L 718.945441 264.214548 
L 718.170618 264.827412 
L 717.368552 265.440277 
L 716.549322 266.053141 
L 715.722633 266.666006 
L 714.897641 267.27887 
L 714.082795 267.891735 
L 713.285721 268.504599 
z
" clip-path="url(#pd3b43df2d4)" style="fill: #1f77b4; fill-opacity: 0.3"/>
   </g>
   <g id="PolyCollection_10">
    <path d="M 781.677876 318.648055 
L 776.087578 318.648055 
L 775.489194 317.24674 
L 774.812601 315.845424 
L 774.058515 314.444109 
L 773.229815 313.042793 
L 772.331569 311.641478 
L 771.371 310.240162 
L 770.35743 308.838847 
L 769.302248 307.437532 
L 768.218942 306.036216 
L 767.123184 304.634901 
L 766.032957 303.233585 
L 764.968649 301.83227 
L 763.953007 300.430954 
L 763.010859 299.029639 
L 762.168477 297.628324 
L 761.452542 296.227008 
L 760.888682 294.825693 
L 760.49967 293.424377 
L 760.303409 292.023062 
L 760.310949 290.621746 
L 760.524754 289.220431 
L 760.937502 287.819116 
L 761.531621 286.4178 
L 762.279703 285.016485 
L 763.145825 283.615169 
L 764.087682 282.213854 
L 765.059341 280.812538 
L 766.014335 279.411223 
L 766.90876 278.009907 
L 767.704084 276.608592 
L 768.36937 275.207277 
L 768.882752 273.805961 
L 769.232065 272.404646 
L 769.414664 271.00333 
L 769.436545 269.602015 
L 769.310962 268.200699 
L 769.056771 266.799384 
L 768.696723 265.398069 
L 768.255911 263.996753 
L 767.76051 262.595438 
L 767.236855 261.194122 
L 766.710846 259.792807 
L 766.207583 258.391491 
L 765.751088 256.990176 
L 765.363974 255.588861 
L 765.066949 254.187545 
L 764.878076 252.78623 
L 764.811836 251.384914 
L 764.878071 249.983599 
L 765.080984 248.582283 
L 765.418393 247.180968 
L 765.881434 245.779653 
L 766.454848 244.378337 
L 767.117923 242.977022 
L 767.846035 241.575706 
L 768.612649 240.174391 
L 769.391533 238.773075 
L 770.158911 237.37176 
L 770.895254 235.970445 
L 771.586499 234.569129 
L 772.22453 233.167814 
L 772.806907 231.766498 
L 773.335937 230.365183 
L 773.817285 228.963867 
L 774.258374 227.562552 
L 774.666846 226.161236 
L 775.049315 224.759921 
L 775.410565 223.358606 
L 775.75325 221.95729 
L 776.078049 220.555975 
L 776.384178 219.154659 
L 776.670067 217.753344 
L 776.934061 216.352028 
L 777.174981 214.950713 
L 777.392475 213.549398 
L 777.587115 212.148082 
L 777.760282 210.746767 
L 777.913893 209.345451 
L 778.050073 207.944136 
L 778.170836 206.54282 
L 778.277854 205.141505 
L 778.372334 203.74019 
L 778.455005 202.338874 
L 778.526208 200.937559 
L 778.586035 199.536243 
L 778.634497 198.134928 
L 778.671683 196.733612 
L 778.697888 195.332297 
L 778.713701 193.930982 
L 778.720053 192.529666 
L 778.718224 191.128351 
L 778.70981 189.727035 
L 778.696667 188.32572 
L 778.68081 186.924404 
L 778.664306 185.523089 
L 778.649135 184.121774 
L 778.637056 182.720458 
L 778.629475 181.319143 
L 778.627343 179.917827 
L 779.138111 179.917827 
L 779.138111 179.917827 
L 779.13598 181.319143 
L 779.128399 182.720458 
L 779.116319 184.121774 
L 779.101149 185.523089 
L 779.084645 186.924404 
L 779.068788 188.32572 
L 779.055644 189.727035 
L 779.047231 191.128351 
L 779.045402 192.529666 
L 779.051754 193.930982 
L 779.067567 195.332297 
L 779.093771 196.733612 
L 779.130958 198.134928 
L 779.17942 199.536243 
L 779.239247 200.937559 
L 779.310449 202.338874 
L 779.393121 203.74019 
L 779.4876 205.141505 
L 779.594619 206.54282 
L 779.715382 207.944136 
L 779.851561 209.345451 
L 780.005172 210.746767 
L 780.178339 212.148082 
L 780.37298 213.549398 
L 780.590474 214.950713 
L 780.831394 216.352028 
L 781.095387 217.753344 
L 781.381277 219.154659 
L 781.687405 220.555975 
L 782.012205 221.95729 
L 782.354889 223.358606 
L 782.71614 224.759921 
L 783.098609 226.161236 
L 783.507081 227.562552 
L 783.94817 228.963867 
L 784.429518 230.365183 
L 784.958548 231.766498 
L 785.540924 233.167814 
L 786.178955 234.569129 
L 786.870201 235.970445 
L 787.606544 237.37176 
L 788.373921 238.773075 
L 789.152806 240.174391 
L 789.91942 241.575706 
L 790.647532 242.977022 
L 791.310607 244.378337 
L 791.884021 245.779653 
L 792.347062 247.180968 
L 792.684471 248.582283 
L 792.887383 249.983599 
L 792.953618 251.384914 
L 792.887379 252.78623 
L 792.698506 254.187545 
L 792.40148 255.588861 
L 792.014367 256.990176 
L 791.557871 258.391491 
L 791.054608 259.792807 
L 790.5286 261.194122 
L 790.004944 262.595438 
L 789.509543 263.996753 
L 789.068731 265.398069 
L 788.708683 266.799384 
L 788.454492 268.200699 
L 788.32891 269.602015 
L 788.35079 271.00333 
L 788.533389 272.404646 
L 788.882702 273.805961 
L 789.396084 275.207277 
L 790.061371 276.608592 
L 790.856695 278.009907 
L 791.75112 279.411223 
L 792.706113 280.812538 
L 793.677773 282.213854 
L 794.619629 283.615169 
L 795.485751 285.016485 
L 796.233834 286.4178 
L 796.827953 287.819116 
L 797.2407 289.220431 
L 797.454505 290.621746 
L 797.462045 292.023062 
L 797.265785 293.424377 
L 796.876772 294.825693 
L 796.312913 296.227008 
L 795.596978 297.628324 
L 794.754596 299.029639 
L 793.812447 300.430954 
L 792.796806 301.83227 
L 791.732498 303.233585 
L 790.642271 304.634901 
L 789.546512 306.036216 
L 788.463206 307.437532 
L 787.408025 308.838847 
L 786.394454 310.240162 
L 785.433885 311.641478 
L 784.535639 313.042793 
L 783.70694 314.444109 
L 782.952854 315.845424 
L 782.27626 317.24674 
L 781.677876 318.648055 
z
" clip-path="url(#pd3b43df2d4)" style="fill: #1f77b4; fill-opacity: 0.3"/>
   </g>
   <g id="matplotlib.axis_1">
    <g id="xtick_1">
     <g id="line2d_1">
      <defs>
       <path id="m3a0e6b4254" d="M 0 0 
L 0 3.5 
" style="stroke: #000000; stroke-width: 0.8"/>
      </defs>
      <g>
       <use xlink:href="#m3a0e6b4254" x="110.027273" y="337.97" style="stroke: #000000; stroke-width: 0.8"/>
      </g>
     </g>
     <g id="text_1">
      <!-- Grudger -->
      <g transform="translate(112.234773 377.89625)rotate(-90)scale(0.08 -0.08)">
       <defs>
        <path id="DejaVuSans-47" d="M 3809 666 
L 3809 1919 
L 2778 1919 
L 2778 2438 
L 4434 2438 
L 4434 434 
Q 4069 175 3628 42 
Q 3188 -91 2688 -91 
Q 1594 -91 976 548 
Q 359 1188 359 2328 
Q 359 3472 976 4111 
Q 1594 4750 2688 4750 
Q 3144 4750 3555 4637 
Q 3966 4525 4313 4306 
L 4313 3634 
Q 3963 3931 3569 4081 
Q 3175 4231 2741 4231 
Q 1884 4231 1454 3753 
Q 1025 3275 1025 2328 
Q 1025 1384 1454 906 
Q 1884 428 2741 428 
Q 3075 428 3337 486 
Q 3600 544 3809 666 
z
" transform="scale(0.015625)"/>
        <path id="DejaVuSans-72" d="M 2631 2963 
Q 2534 3019 2420 3045 
Q 2306 3072 2169 3072 
Q 1681 3072 1420 2755 
Q 1159 2438 1159 1844 
L 1159 0 
L 581 0 
L 581 3500 
L 1159 3500 
L 1159 2956 
Q 1341 3275 1631 3429 
Q 1922 3584 2338 3584 
Q 2397 3584 2469 3576 
Q 2541 3569 2628 3553 
L 2631 2963 
z
" transform="scale(0.015625)"/>
        <path id="DejaVuSans-75" d="M 544 1381 
L 544 3500 
L 1119 3500 
L 1119 1403 
Q 1119 906 1312 657 
Q 1506 409 1894 409 
Q 2359 409 2629 706 
Q 2900 1003 2900 1516 
L 2900 3500 
L 3475 3500 
L 3475 0 
L 2900 0 
L 2900 538 
Q 2691 219 2414 64 
Q 2138 -91 1772 -91 
Q 1169 -91 856 284 
Q 544 659 544 1381 
z
M 1991 3584 
L 1991 3584 
z
" transform="scale(0.015625)"/>
        <path id="DejaVuSans-64" d="M 2906 2969 
L 2906 4863 
L 3481 4863 
L 3481 0 
L 2906 0 
L 2906 525 
Q 2725 213 2448 61 
Q 2172 -91 1784 -91 
Q 1150 -91 751 415 
Q 353 922 353 1747 
Q 353 2572 751 3078 
Q 1150 3584 1784 3584 
Q 2172 3584 2448 3432 
Q 2725 3281 2906 2969 
z
M 947 1747 
Q 947 1113 1208 752 
Q 1469 391 1925 391 
Q 2381 391 2643 752 
Q 2906 1113 2906 1747 
Q 2906 2381 2643 2742 
Q 2381 3103 1925 3103 
Q 1469 3103 1208 2742 
Q 947 2381 947 1747 
z
" transform="scale(0.015625)"/>
        <path id="DejaVuSans-67" d="M 2906 1791 
Q 2906 2416 2648 2759 
Q 2391 3103 1925 3103 
Q 1463 3103 1205 2759 
Q 947 2416 947 1791 
Q 947 1169 1205 825 
Q 1463 481 1925 481 
Q 2391 481 2648 825 
Q 2906 1169 2906 1791 
z
M 3481 434 
Q 3481 -459 3084 -895 
Q 2688 -1331 1869 -1331 
Q 1566 -1331 1297 -1286 
Q 1028 -1241 775 -1147 
L 775 -588 
Q 1028 -725 1275 -790 
Q 1522 -856 1778 -856 
Q 2344 -856 2625 -561 
Q 2906 -266 2906 331 
L 2906 616 
Q 2728 306 2450 153 
Q 2172 0 1784 0 
Q 1141 0 747 490 
Q 353 981 353 1791 
Q 353 2603 747 3093 
Q 1141 3584 1784 3584 
Q 2172 3584 2450 3431 
Q 2728 3278 2906 2969 
L 2906 3500 
L 3481 3500 
L 3481 434 
z
" transform="scale(0.015625)"/>
        <path id="DejaVuSans-65" d="M 3597 1894 
L 3597 1613 
L 953 1613 
Q 991 1019 1311 708 
Q 1631 397 2203 397 
Q 2534 397 2845 478 
Q 3156 559 3463 722 
L 3463 178 
Q 3153 47 2828 -22 
Q 2503 -91 2169 -91 
Q 1331 -91 842 396 
Q 353 884 353 1716 
Q 353 2575 817 3079 
Q 1281 3584 2069 3584 
Q 2775 3584 3186 3129 
Q 3597 2675 3597 1894 
z
M 3022 2063 
Q 3016 2534 2758 2815 
Q 2500 3097 2075 3097 
Q 1594 3097 1305 2825 
Q 1016 2553 972 2059 
L 3022 2063 
z
" transform="scale(0.015625)"/>
       </defs>
       <use xlink:href="#DejaVuSans-47"/>
       <use xlink:href="#DejaVuSans-72" x="77.490234"/>
       <use xlink:href="#DejaVuSans-75" x="118.603516"/>
       <use xlink:href="#DejaVuSans-64" x="181.982422"/>
       <use xlink:href="#DejaVuSans-67" x="245.458984"/>
       <use xlink:href="#DejaVuSans-65" x="308.935547"/>
       <use xlink:href="#DejaVuSans-72" x="370.458984"/>
      </g>
     </g>
    </g>
    <g id="xtick_2">
     <g id="line2d_2">
      <g>
       <use xlink:href="#m3a0e6b4254" x="184.344545" y="337.97" style="stroke: #000000; stroke-width: 0.8"/>
      </g>
     </g>
     <g id="text_2">
      <!-- Tit For Tat -->
      <g transform="translate(186.552045 384.15)rotate(-90)scale(0.08 -0.08)">
       <defs>
        <path id="DejaVuSans-54" d="M -19 4666 
L 3928 4666 
L 3928 4134 
L 2272 4134 
L 2272 0 
L 1638 0 
L 1638 4134 
L -19 4134 
L -19 4666 
z
" transform="scale(0.015625)"/>
        <path id="DejaVuSans-69" d="M 603 3500 
L 1178 3500 
L 1178 0 
L 603 0 
L 603 3500 
z
M 603 4863 
L 1178 4863 
L 1178 4134 
L 603 4134 
L 603 4863 
z
" transform="scale(0.015625)"/>
        <path id="DejaVuSans-74" d="M 1172 4494 
L 1172 3500 
L 2356 3500 
L 2356 3053 
L 1172 3053 
L 1172 1153 
Q 1172 725 1289 603 
Q 1406 481 1766 481 
L 2356 481 
L 2356 0 
L 1766 0 
Q 1100 0 847 248 
Q 594 497 594 1153 
L 594 3053 
L 172 3053 
L 172 3500 
L 594 3500 
L 594 4494 
L 1172 4494 
z
" transform="scale(0.015625)"/>
        <path id="DejaVuSans-20" transform="scale(0.015625)"/>
        <path id="DejaVuSans-46" d="M 628 4666 
L 3309 4666 
L 3309 4134 
L 1259 4134 
L 1259 2759 
L 3109 2759 
L 3109 2228 
L 1259 2228 
L 1259 0 
L 628 0 
L 628 4666 
z
" transform="scale(0.015625)"/>
        <path id="DejaVuSans-6f" d="M 1959 3097 
Q 1497 3097 1228 2736 
Q 959 2375 959 1747 
Q 959 1119 1226 758 
Q 1494 397 1959 397 
Q 2419 397 2687 759 
Q 2956 1122 2956 1747 
Q 2956 2369 2687 2733 
Q 2419 3097 1959 3097 
z
M 1959 3584 
Q 2709 3584 3137 3096 
Q 3566 2609 3566 1747 
Q 3566 888 3137 398 
Q 2709 -91 1959 -91 
Q 1206 -91 779 398 
Q 353 888 353 1747 
Q 353 2609 779 3096 
Q 1206 3584 1959 3584 
z
" transform="scale(0.015625)"/>
        <path id="DejaVuSans-61" d="M 2194 1759 
Q 1497 1759 1228 1600 
Q 959 1441 959 1056 
Q 959 750 1161 570 
Q 1363 391 1709 391 
Q 2188 391 2477 730 
Q 2766 1069 2766 1631 
L 2766 1759 
L 2194 1759 
z
M 3341 1997 
L 3341 0 
L 2766 0 
L 2766 531 
Q 2569 213 2275 61 
Q 1981 -91 1556 -91 
Q 1019 -91 701 211 
Q 384 513 384 1019 
Q 384 1609 779 1909 
Q 1175 2209 1959 2209 
L 2766 2209 
L 2766 2266 
Q 2766 2663 2505 2880 
Q 2244 3097 1772 3097 
Q 1472 3097 1187 3025 
Q 903 2953 641 2809 
L 641 3341 
Q 956 3463 1253 3523 
Q 1550 3584 1831 3584 
Q 2591 3584 2966 3190 
Q 3341 2797 3341 1997 
z
" transform="scale(0.015625)"/>
       </defs>
       <use xlink:href="#DejaVuSans-54"/>
       <use xlink:href="#DejaVuSans-69" x="57.958984"/>
       <use xlink:href="#DejaVuSans-74" x="85.742188"/>
       <use xlink:href="#DejaVuSans-20" x="124.951172"/>
       <use xlink:href="#DejaVuSans-46" x="156.738281"/>
       <use xlink:href="#DejaVuSans-6f" x="210.632812"/>
       <use xlink:href="#DejaVuSans-72" x="271.814453"/>
       <use xlink:href="#DejaVuSans-20" x="312.927734"/>
       <use xlink:href="#DejaVuSans-54" x="344.714844"/>
       <use xlink:href="#DejaVuSans-61" x="389.298828"/>
       <use xlink:href="#DejaVuSans-74" x="450.578125"/>
      </g>
     </g>
    </g>
    <g id="xtick_3">
     <g id="line2d_3">
      <g>
       <use xlink:href="#m3a0e6b4254" x="258.661818" y="337.97" style="stroke: #000000; stroke-width: 0.8"/>
      </g>
     </g>
     <g id="text_3">
      <!-- Adaptive -->
      <g transform="translate(260.869318 380.37875)rotate(-90)scale(0.08 -0.08)">
       <defs>
        <path id="DejaVuSans-41" d="M 2188 4044 
L 1331 1722 
L 3047 1722 
L 2188 4044 
z
M 1831 4666 
L 2547 4666 
L 4325 0 
L 3669 0 
L 3244 1197 
L 1141 1197 
L 716 0 
L 50 0 
L 1831 4666 
z
" transform="scale(0.015625)"/>
        <path id="DejaVuSans-70" d="M 1159 525 
L 1159 -1331 
L 581 -1331 
L 581 3500 
L 1159 3500 
L 1159 2969 
Q 1341 3281 1617 3432 
Q 1894 3584 2278 3584 
Q 2916 3584 3314 3078 
Q 3713 2572 3713 1747 
Q 3713 922 3314 415 
Q 2916 -91 2278 -91 
Q 1894 -91 1617 61 
Q 1341 213 1159 525 
z
M 3116 1747 
Q 3116 2381 2855 2742 
Q 2594 3103 2138 3103 
Q 1681 3103 1420 2742 
Q 1159 2381 1159 1747 
Q 1159 1113 1420 752 
Q 1681 391 2138 391 
Q 2594 391 2855 752 
Q 3116 1113 3116 1747 
z
" transform="scale(0.015625)"/>
        <path id="DejaVuSans-76" d="M 191 3500 
L 800 3500 
L 1894 563 
L 2988 3500 
L 3597 3500 
L 2284 0 
L 1503 0 
L 191 3500 
z
" transform="scale(0.015625)"/>
       </defs>
       <use xlink:href="#DejaVuSans-41"/>
       <use xlink:href="#DejaVuSans-64" x="66.658203"/>
       <use xlink:href="#DejaVuSans-61" x="130.134766"/>
       <use xlink:href="#DejaVuSans-70" x="191.414062"/>
       <use xlink:href="#DejaVuSans-74" x="254.890625"/>
       <use xlink:href="#DejaVuSans-69" x="294.099609"/>
       <use xlink:href="#DejaVuSans-76" x="321.882812"/>
       <use xlink:href="#DejaVuSans-65" x="381.0625"/>
      </g>
     </g>
    </g>
    <g id="xtick_4">
     <g id="line2d_4">
      <g>
       <use xlink:href="#m3a0e6b4254" x="332.979091" y="337.97" style="stroke: #000000; stroke-width: 0.8"/>
      </g>
     </g>
     <g id="text_4">
      <!-- Defector -->
      <g transform="translate(335.186591 379.51)rotate(-90)scale(0.08 -0.08)">
       <defs>
        <path id="DejaVuSans-44" d="M 1259 4147 
L 1259 519 
L 2022 519 
Q 2988 519 3436 956 
Q 3884 1394 3884 2338 
Q 3884 3275 3436 3711 
Q 2988 4147 2022 4147 
L 1259 4147 
z
M 628 4666 
L 1925 4666 
Q 3281 4666 3915 4102 
Q 4550 3538 4550 2338 
Q 4550 1131 3912 565 
Q 3275 0 1925 0 
L 628 0 
L 628 4666 
z
" transform="scale(0.015625)"/>
        <path id="DejaVuSans-66" d="M 2375 4863 
L 2375 4384 
L 1825 4384 
Q 1516 4384 1395 4259 
Q 1275 4134 1275 3809 
L 1275 3500 
L 2222 3500 
L 2222 3053 
L 1275 3053 
L 1275 0 
L 697 0 
L 697 3053 
L 147 3053 
L 147 3500 
L 697 3500 
L 697 3744 
Q 697 4328 969 4595 
Q 1241 4863 1831 4863 
L 2375 4863 
z
" transform="scale(0.015625)"/>
        <path id="DejaVuSans-63" d="M 3122 3366 
L 3122 2828 
Q 2878 2963 2633 3030 
Q 2388 3097 2138 3097 
Q 1578 3097 1268 2742 
Q 959 2388 959 1747 
Q 959 1106 1268 751 
Q 1578 397 2138 397 
Q 2388 397 2633 464 
Q 2878 531 3122 666 
L 3122 134 
Q 2881 22 2623 -34 
Q 2366 -91 2075 -91 
Q 1284 -91 818 406 
Q 353 903 353 1747 
Q 353 2603 823 3093 
Q 1294 3584 2113 3584 
Q 2378 3584 2631 3529 
Q 2884 3475 3122 3366 
z
" transform="scale(0.015625)"/>
       </defs>
       <use xlink:href="#DejaVuSans-44"/>
       <use xlink:href="#DejaVuSans-65" x="77.001953"/>
       <use xlink:href="#DejaVuSans-66" x="138.525391"/>
       <use xlink:href="#DejaVuSans-65" x="173.730469"/>
       <use xlink:href="#DejaVuSans-63" x="235.253906"/>
       <use xlink:href="#DejaVuSans-74" x="290.234375"/>
       <use xlink:href="#DejaVuSans-6f" x="329.443359"/>
       <use xlink:href="#DejaVuSans-72" x="390.625"/>
      </g>
     </g>
    </g>
    <g id="xtick_5">
     <g id="line2d_5">
      <g>
       <use xlink:href="#m3a0e6b4254" x="407.296364" y="337.97" style="stroke: #000000; stroke-width: 0.8"/>
      </g>
     </g>
     <g id="text_5">
      <!-- Aggravater -->
      <g transform="translate(409.503864 389.77625)rotate(-90)scale(0.08 -0.08)">
       <use xlink:href="#DejaVuSans-41"/>
       <use xlink:href="#DejaVuSans-67" x="68.408203"/>
       <use xlink:href="#DejaVuSans-67" x="131.884766"/>
       <use xlink:href="#DejaVuSans-72" x="195.361328"/>
       <use xlink:href="#DejaVuSans-61" x="236.474609"/>
       <use xlink:href="#DejaVuSans-76" x="297.753906"/>
       <use xlink:href="#DejaVuSans-61" x="356.933594"/>
       <use xlink:href="#DejaVuSans-74" x="418.212891"/>
       <use xlink:href="#DejaVuSans-65" x="457.421875"/>
       <use xlink:href="#DejaVuSans-72" x="518.945312"/>
      </g>
     </g>
    </g>
    <g id="xtick_6">
     <g id="line2d_6">
      <g>
       <use xlink:href="#m3a0e6b4254" x="481.613636" y="337.97" style="stroke: #000000; stroke-width: 0.8"/>
      </g>
     </g>
     <g id="text_6">
      <!-- Random: 0.5 -->
      <g transform="translate(483.821136 396.0475)rotate(-90)scale(0.08 -0.08)">
       <defs>
        <path id="DejaVuSans-52" d="M 2841 2188 
Q 3044 2119 3236 1894 
Q 3428 1669 3622 1275 
L 4263 0 
L 3584 0 
L 2988 1197 
Q 2756 1666 2539 1819 
Q 2322 1972 1947 1972 
L 1259 1972 
L 1259 0 
L 628 0 
L 628 4666 
L 2053 4666 
Q 2853 4666 3247 4331 
Q 3641 3997 3641 3322 
Q 3641 2881 3436 2590 
Q 3231 2300 2841 2188 
z
M 1259 4147 
L 1259 2491 
L 2053 2491 
Q 2509 2491 2742 2702 
Q 2975 2913 2975 3322 
Q 2975 3731 2742 3939 
Q 2509 4147 2053 4147 
L 1259 4147 
z
" transform="scale(0.015625)"/>
        <path id="DejaVuSans-6e" d="M 3513 2113 
L 3513 0 
L 2938 0 
L 2938 2094 
Q 2938 2591 2744 2837 
Q 2550 3084 2163 3084 
Q 1697 3084 1428 2787 
Q 1159 2491 1159 1978 
L 1159 0 
L 581 0 
L 581 3500 
L 1159 3500 
L 1159 2956 
Q 1366 3272 1645 3428 
Q 1925 3584 2291 3584 
Q 2894 3584 3203 3211 
Q 3513 2838 3513 2113 
z
" transform="scale(0.015625)"/>
        <path id="DejaVuSans-6d" d="M 3328 2828 
Q 3544 3216 3844 3400 
Q 4144 3584 4550 3584 
Q 5097 3584 5394 3201 
Q 5691 2819 5691 2113 
L 5691 0 
L 5113 0 
L 5113 2094 
Q 5113 2597 4934 2840 
Q 4756 3084 4391 3084 
Q 3944 3084 3684 2787 
Q 3425 2491 3425 1978 
L 3425 0 
L 2847 0 
L 2847 2094 
Q 2847 2600 2669 2842 
Q 2491 3084 2119 3084 
Q 1678 3084 1418 2786 
Q 1159 2488 1159 1978 
L 1159 0 
L 581 0 
L 581 3500 
L 1159 3500 
L 1159 2956 
Q 1356 3278 1631 3431 
Q 1906 3584 2284 3584 
Q 2666 3584 2933 3390 
Q 3200 3197 3328 2828 
z
" transform="scale(0.015625)"/>
        <path id="DejaVuSans-3a" d="M 750 794 
L 1409 794 
L 1409 0 
L 750 0 
L 750 794 
z
M 750 3309 
L 1409 3309 
L 1409 2516 
L 750 2516 
L 750 3309 
z
" transform="scale(0.015625)"/>
        <path id="DejaVuSans-30" d="M 2034 4250 
Q 1547 4250 1301 3770 
Q 1056 3291 1056 2328 
Q 1056 1369 1301 889 
Q 1547 409 2034 409 
Q 2525 409 2770 889 
Q 3016 1369 3016 2328 
Q 3016 3291 2770 3770 
Q 2525 4250 2034 4250 
z
M 2034 4750 
Q 2819 4750 3233 4129 
Q 3647 3509 3647 2328 
Q 3647 1150 3233 529 
Q 2819 -91 2034 -91 
Q 1250 -91 836 529 
Q 422 1150 422 2328 
Q 422 3509 836 4129 
Q 1250 4750 2034 4750 
z
" transform="scale(0.015625)"/>
        <path id="DejaVuSans-2e" d="M 684 794 
L 1344 794 
L 1344 0 
L 684 0 
L 684 794 
z
" transform="scale(0.015625)"/>
        <path id="DejaVuSans-35" d="M 691 4666 
L 3169 4666 
L 3169 4134 
L 1269 4134 
L 1269 2991 
Q 1406 3038 1543 3061 
Q 1681 3084 1819 3084 
Q 2600 3084 3056 2656 
Q 3513 2228 3513 1497 
Q 3513 744 3044 326 
Q 2575 -91 1722 -91 
Q 1428 -91 1123 -41 
Q 819 9 494 109 
L 494 744 
Q 775 591 1075 516 
Q 1375 441 1709 441 
Q 2250 441 2565 725 
Q 2881 1009 2881 1497 
Q 2881 1984 2565 2268 
Q 2250 2553 1709 2553 
Q 1456 2553 1204 2497 
Q 953 2441 691 2322 
L 691 4666 
z
" transform="scale(0.015625)"/>
       </defs>
       <use xlink:href="#DejaVuSans-52"/>
       <use xlink:href="#DejaVuSans-61" x="67.232422"/>
       <use xlink:href="#DejaVuSans-6e" x="128.511719"/>
       <use xlink:href="#DejaVuSans-64" x="191.890625"/>
       <use xlink:href="#DejaVuSans-6f" x="255.367188"/>
       <use xlink:href="#DejaVuSans-6d" x="316.548828"/>
       <use xlink:href="#DejaVuSans-3a" x="413.960938"/>
       <use xlink:href="#DejaVuSans-20" x="447.652344"/>
       <use xlink:href="#DejaVuSans-30" x="479.439453"/>
       <use xlink:href="#DejaVuSans-2e" x="543.0625"/>
       <use xlink:href="#DejaVuSans-35" x="574.849609"/>
      </g>
     </g>
    </g>
    <g id="xtick_7">
     <g id="line2d_7">
      <g>
       <use xlink:href="#m3a0e6b4254" x="555.930909" y="337.97" style="stroke: #000000; stroke-width: 0.8"/>
      </g>
     </g>
     <g id="text_7">
      <!-- Deep QLearner -->
      <g transform="translate(558.138409 405.46625)rotate(-90)scale(0.08 -0.08)">
       <defs>
        <path id="DejaVuSans-51" d="M 2522 4238 
Q 1834 4238 1429 3725 
Q 1025 3213 1025 2328 
Q 1025 1447 1429 934 
Q 1834 422 2522 422 
Q 3209 422 3611 934 
Q 4013 1447 4013 2328 
Q 4013 3213 3611 3725 
Q 3209 4238 2522 4238 
z
M 3406 84 
L 4238 -825 
L 3475 -825 
L 2784 -78 
Q 2681 -84 2626 -87 
Q 2572 -91 2522 -91 
Q 1538 -91 948 567 
Q 359 1225 359 2328 
Q 359 3434 948 4092 
Q 1538 4750 2522 4750 
Q 3503 4750 4090 4092 
Q 4678 3434 4678 2328 
Q 4678 1516 4351 937 
Q 4025 359 3406 84 
z
" transform="scale(0.015625)"/>
        <path id="DejaVuSans-4c" d="M 628 4666 
L 1259 4666 
L 1259 531 
L 3531 531 
L 3531 0 
L 628 0 
L 628 4666 
z
" transform="scale(0.015625)"/>
       </defs>
       <use xlink:href="#DejaVuSans-44"/>
       <use xlink:href="#DejaVuSans-65" x="77.001953"/>
       <use xlink:href="#DejaVuSans-65" x="138.525391"/>
       <use xlink:href="#DejaVuSans-70" x="200.048828"/>
       <use xlink:href="#DejaVuSans-20" x="263.525391"/>
       <use xlink:href="#DejaVuSans-51" x="295.3125"/>
       <use xlink:href="#DejaVuSans-4c" x="374.023438"/>
       <use xlink:href="#DejaVuSans-65" x="427.986328"/>
       <use xlink:href="#DejaVuSans-61" x="489.509766"/>
       <use xlink:href="#DejaVuSans-72" x="550.789062"/>
       <use xlink:href="#DejaVuSans-6e" x="590.152344"/>
       <use xlink:href="#DejaVuSans-65" x="653.53125"/>
       <use xlink:href="#DejaVuSans-72" x="715.054688"/>
      </g>
     </g>
    </g>
    <g id="xtick_8">
     <g id="line2d_8">
      <g>
       <use xlink:href="#m3a0e6b4254" x="630.248182" y="337.97" style="stroke: #000000; stroke-width: 0.8"/>
      </g>
     </g>
     <g id="text_8">
      <!-- Alternator -->
      <g transform="translate(632.455682 385.165)rotate(-90)scale(0.08 -0.08)">
       <defs>
        <path id="DejaVuSans-6c" d="M 603 4863 
L 1178 4863 
L 1178 0 
L 603 0 
L 603 4863 
z
" transform="scale(0.015625)"/>
       </defs>
       <use xlink:href="#DejaVuSans-41"/>
       <use xlink:href="#DejaVuSans-6c" x="68.408203"/>
       <use xlink:href="#DejaVuSans-74" x="96.191406"/>
       <use xlink:href="#DejaVuSans-65" x="135.400391"/>
       <use xlink:href="#DejaVuSans-72" x="196.923828"/>
       <use xlink:href="#DejaVuSans-6e" x="236.287109"/>
       <use xlink:href="#DejaVuSans-61" x="299.666016"/>
       <use xlink:href="#DejaVuSans-74" x="360.945312"/>
       <use xlink:href="#DejaVuSans-6f" x="400.154297"/>
       <use xlink:href="#DejaVuSans-72" x="461.335938"/>
      </g>
     </g>
    </g>
    <g id="xtick_9">
     <g id="line2d_9">
      <g>
       <use xlink:href="#m3a0e6b4254" x="704.565455" y="337.97" style="stroke: #000000; stroke-width: 0.8"/>
      </g>
     </g>
     <g id="text_9">
      <!-- Cooperator -->
      <g transform="translate(706.772955 389.85875)rotate(-90)scale(0.08 -0.08)">
       <defs>
        <path id="DejaVuSans-43" d="M 4122 4306 
L 4122 3641 
Q 3803 3938 3442 4084 
Q 3081 4231 2675 4231 
Q 1875 4231 1450 3742 
Q 1025 3253 1025 2328 
Q 1025 1406 1450 917 
Q 1875 428 2675 428 
Q 3081 428 3442 575 
Q 3803 722 4122 1019 
L 4122 359 
Q 3791 134 3420 21 
Q 3050 -91 2638 -91 
Q 1578 -91 968 557 
Q 359 1206 359 2328 
Q 359 3453 968 4101 
Q 1578 4750 2638 4750 
Q 3056 4750 3426 4639 
Q 3797 4528 4122 4306 
z
" transform="scale(0.015625)"/>
       </defs>
       <use xlink:href="#DejaVuSans-43"/>
       <use xlink:href="#DejaVuSans-6f" x="69.824219"/>
       <use xlink:href="#DejaVuSans-6f" x="131.005859"/>
       <use xlink:href="#DejaVuSans-70" x="192.1875"/>
       <use xlink:href="#DejaVuSans-65" x="255.664062"/>
       <use xlink:href="#DejaVuSans-72" x="317.1875"/>
       <use xlink:href="#DejaVuSans-61" x="358.300781"/>
       <use xlink:href="#DejaVuSans-74" x="419.580078"/>
       <use xlink:href="#DejaVuSans-6f" x="458.789062"/>
       <use xlink:href="#DejaVuSans-72" x="519.970703"/>
      </g>
     </g>
    </g>
    <g id="xtick_10">
     <g id="line2d_10">
      <g>
       <use xlink:href="#m3a0e6b4254" x="778.882727" y="337.97" style="stroke: #000000; stroke-width: 0.8"/>
      </g>
     </g>
     <g id="text_10">
      <!-- Mediocre QLearner -->
      <g transform="translate(781.090227 420.83375)rotate(-90)scale(0.08 -0.08)">
       <defs>
        <path id="DejaVuSans-4d" d="M 628 4666 
L 1569 4666 
L 2759 1491 
L 3956 4666 
L 4897 4666 
L 4897 0 
L 4281 0 
L 4281 4097 
L 3078 897 
L 2444 897 
L 1241 4097 
L 1241 0 
L 628 0 
L 628 4666 
z
" transform="scale(0.015625)"/>
       </defs>
       <use xlink:href="#DejaVuSans-4d"/>
       <use xlink:href="#DejaVuSans-65" x="86.279297"/>
       <use xlink:href="#DejaVuSans-64" x="147.802734"/>
       <use xlink:href="#DejaVuSans-69" x="211.279297"/>
       <use xlink:href="#DejaVuSans-6f" x="239.0625"/>
       <use xlink:href="#DejaVuSans-63" x="300.244141"/>
       <use xlink:href="#DejaVuSans-72" x="355.224609"/>
       <use xlink:href="#DejaVuSans-65" x="394.087891"/>
       <use xlink:href="#DejaVuSans-20" x="455.611328"/>
       <use xlink:href="#DejaVuSans-51" x="487.398438"/>
       <use xlink:href="#DejaVuSans-4c" x="566.109375"/>
       <use xlink:href="#DejaVuSans-65" x="620.072266"/>
       <use xlink:href="#DejaVuSans-61" x="681.595703"/>
       <use xlink:href="#DejaVuSans-72" x="742.875"/>
       <use xlink:href="#DejaVuSans-6e" x="782.238281"/>
       <use xlink:href="#DejaVuSans-65" x="845.617188"/>
       <use xlink:href="#DejaVuSans-72" x="907.140625"/>
      </g>
     </g>
    </g>
   </g>
   <g id="matplotlib.axis_2">
    <g id="ytick_1">
     <g id="line2d_11">
      <defs>
       <path id="m404d7c9f1c" d="M 0 0 
L -3.5 0 
" style="stroke: #000000; stroke-width: 0.8"/>
      </defs>
      <g>
       <use xlink:href="#m404d7c9f1c" x="35.71" y="323.160966" style="stroke: #000000; stroke-width: 0.8"/>
      </g>
     </g>
     <g id="text_11">
      <!-- 1.25 -->
      <g transform="translate(10.8975 326.200341)scale(0.08 -0.08)">
       <defs>
        <path id="DejaVuSans-31" d="M 794 531 
L 1825 531 
L 1825 4091 
L 703 3866 
L 703 4441 
L 1819 4666 
L 2450 4666 
L 2450 531 
L 3481 531 
L 3481 0 
L 794 0 
L 794 531 
z
" transform="scale(0.015625)"/>
        <path id="DejaVuSans-32" d="M 1228 531 
L 3431 531 
L 3431 0 
L 469 0 
L 469 531 
Q 828 903 1448 1529 
Q 2069 2156 2228 2338 
Q 2531 2678 2651 2914 
Q 2772 3150 2772 3378 
Q 2772 3750 2511 3984 
Q 2250 4219 1831 4219 
Q 1534 4219 1204 4116 
Q 875 4013 500 3803 
L 500 4441 
Q 881 4594 1212 4672 
Q 1544 4750 1819 4750 
Q 2544 4750 2975 4387 
Q 3406 4025 3406 3419 
Q 3406 3131 3298 2873 
Q 3191 2616 2906 2266 
Q 2828 2175 2409 1742 
Q 1991 1309 1228 531 
z
" transform="scale(0.015625)"/>
       </defs>
       <use xlink:href="#DejaVuSans-31"/>
       <use xlink:href="#DejaVuSans-2e" x="63.623047"/>
       <use xlink:href="#DejaVuSans-32" x="95.410156"/>
       <use xlink:href="#DejaVuSans-35" x="159.033203"/>
      </g>
     </g>
    </g>
    <g id="ytick_2">
     <g id="line2d_12">
      <g>
       <use xlink:href="#m404d7c9f1c" x="35.71" y="285.553374" style="stroke: #000000; stroke-width: 0.8"/>
      </g>
     </g>
     <g id="text_12">
      <!-- 1.50 -->
      <g transform="translate(10.8975 288.592749)scale(0.08 -0.08)">
       <use xlink:href="#DejaVuSans-31"/>
       <use xlink:href="#DejaVuSans-2e" x="63.623047"/>
       <use xlink:href="#DejaVuSans-35" x="95.410156"/>
       <use xlink:href="#DejaVuSans-30" x="159.033203"/>
      </g>
     </g>
    </g>
    <g id="ytick_3">
     <g id="line2d_13">
      <g>
       <use xlink:href="#m404d7c9f1c" x="35.71" y="247.945782" style="stroke: #000000; stroke-width: 0.8"/>
      </g>
     </g>
     <g id="text_13">
      <!-- 1.75 -->
      <g transform="translate(10.8975 250.985157)scale(0.08 -0.08)">
       <defs>
        <path id="DejaVuSans-37" d="M 525 4666 
L 3525 4666 
L 3525 4397 
L 1831 0 
L 1172 0 
L 2766 4134 
L 525 4134 
L 525 4666 
z
" transform="scale(0.015625)"/>
       </defs>
       <use xlink:href="#DejaVuSans-31"/>
       <use xlink:href="#DejaVuSans-2e" x="63.623047"/>
       <use xlink:href="#DejaVuSans-37" x="95.410156"/>
       <use xlink:href="#DejaVuSans-35" x="159.033203"/>
      </g>
     </g>
    </g>
    <g id="ytick_4">
     <g id="line2d_14">
      <g>
       <use xlink:href="#m404d7c9f1c" x="35.71" y="210.33819" style="stroke: #000000; stroke-width: 0.8"/>
      </g>
     </g>
     <g id="text_14">
      <!-- 2.00 -->
      <g transform="translate(10.8975 213.377565)scale(0.08 -0.08)">
       <use xlink:href="#DejaVuSans-32"/>
       <use xlink:href="#DejaVuSans-2e" x="63.623047"/>
       <use xlink:href="#DejaVuSans-30" x="95.410156"/>
       <use xlink:href="#DejaVuSans-30" x="159.033203"/>
      </g>
     </g>
    </g>
    <g id="ytick_5">
     <g id="line2d_15">
      <g>
       <use xlink:href="#m404d7c9f1c" x="35.71" y="172.730599" style="stroke: #000000; stroke-width: 0.8"/>
      </g>
     </g>
     <g id="text_15">
      <!-- 2.25 -->
      <g transform="translate(10.8975 175.769974)scale(0.08 -0.08)">
       <use xlink:href="#DejaVuSans-32"/>
       <use xlink:href="#DejaVuSans-2e" x="63.623047"/>
       <use xlink:href="#DejaVuSans-32" x="95.410156"/>
       <use xlink:href="#DejaVuSans-35" x="159.033203"/>
      </g>
     </g>
    </g>
    <g id="ytick_6">
     <g id="line2d_16">
      <g>
       <use xlink:href="#m404d7c9f1c" x="35.71" y="135.123007" style="stroke: #000000; stroke-width: 0.8"/>
      </g>
     </g>
     <g id="text_16">
      <!-- 2.50 -->
      <g transform="translate(10.8975 138.162382)scale(0.08 -0.08)">
       <use xlink:href="#DejaVuSans-32"/>
       <use xlink:href="#DejaVuSans-2e" x="63.623047"/>
       <use xlink:href="#DejaVuSans-35" x="95.410156"/>
       <use xlink:href="#DejaVuSans-30" x="159.033203"/>
      </g>
     </g>
    </g>
    <g id="ytick_7">
     <g id="line2d_17">
      <g>
       <use xlink:href="#m404d7c9f1c" x="35.71" y="97.515415" style="stroke: #000000; stroke-width: 0.8"/>
      </g>
     </g>
     <g id="text_17">
      <!-- 2.75 -->
      <g transform="translate(10.8975 100.55479)scale(0.08 -0.08)">
       <use xlink:href="#DejaVuSans-32"/>
       <use xlink:href="#DejaVuSans-2e" x="63.623047"/>
       <use xlink:href="#DejaVuSans-37" x="95.410156"/>
       <use xlink:href="#DejaVuSans-35" x="159.033203"/>
      </g>
     </g>
    </g>
    <g id="ytick_8">
     <g id="line2d_18">
      <g>
       <use xlink:href="#m404d7c9f1c" x="35.71" y="59.907823" style="stroke: #000000; stroke-width: 0.8"/>
      </g>
     </g>
     <g id="text_18">
      <!-- 3.00 -->
      <g transform="translate(10.8975 62.947198)scale(0.08 -0.08)">
       <defs>
        <path id="DejaVuSans-33" d="M 2597 2516 
Q 3050 2419 3304 2112 
Q 3559 1806 3559 1356 
Q 3559 666 3084 287 
Q 2609 -91 1734 -91 
Q 1441 -91 1130 -33 
Q 819 25 488 141 
L 488 750 
Q 750 597 1062 519 
Q 1375 441 1716 441 
Q 2309 441 2620 675 
Q 2931 909 2931 1356 
Q 2931 1769 2642 2001 
Q 2353 2234 1838 2234 
L 1294 2234 
L 1294 2753 
L 1863 2753 
Q 2328 2753 2575 2939 
Q 2822 3125 2822 3475 
Q 2822 3834 2567 4026 
Q 2313 4219 1838 4219 
Q 1578 4219 1281 4162 
Q 984 4106 628 3988 
L 628 4550 
Q 988 4650 1302 4700 
Q 1616 4750 1894 4750 
Q 2613 4750 3031 4423 
Q 3450 4097 3450 3541 
Q 3450 3153 3228 2886 
Q 3006 2619 2597 2516 
z
" transform="scale(0.015625)"/>
       </defs>
       <use xlink:href="#DejaVuSans-33"/>
       <use xlink:href="#DejaVuSans-2e" x="63.623047"/>
       <use xlink:href="#DejaVuSans-30" x="95.410156"/>
       <use xlink:href="#DejaVuSans-30" x="159.033203"/>
      </g>
     </g>
    </g>
   </g>
   <g id="LineCollection_1">
    <path d="M 100.737614 106.374092 
L 119.316932 106.374092 
" clip-path="url(#pd3b43df2d4)" style="fill: none; stroke: #1f77b4; stroke-width: 1.5"/>
    <path d="M 175.054886 154.51181 
L 193.634205 154.51181 
" clip-path="url(#pd3b43df2d4)" style="fill: none; stroke: #1f77b4; stroke-width: 1.5"/>
    <path d="M 249.372159 161.114031 
L 267.951477 161.114031 
" clip-path="url(#pd3b43df2d4)" style="fill: none; stroke: #1f77b4; stroke-width: 1.5"/>
    <path d="M 323.689432 176.57493 
L 342.26875 176.57493 
" clip-path="url(#pd3b43df2d4)" style="fill: none; stroke: #1f77b4; stroke-width: 1.5"/>
    <path d="M 398.006705 203.485251 
L 416.586023 203.485251 
" clip-path="url(#pd3b43df2d4)" style="fill: none; stroke: #1f77b4; stroke-width: 1.5"/>
    <path d="M 472.323977 208.081735 
L 490.903295 208.081735 
" clip-path="url(#pd3b43df2d4)" style="fill: none; stroke: #1f77b4; stroke-width: 1.5"/>
    <path d="M 546.64125 226.801958 
L 565.220568 226.801958 
" clip-path="url(#pd3b43df2d4)" style="fill: none; stroke: #1f77b4; stroke-width: 1.5"/>
    <path d="M 620.958523 245.856472 
L 639.537841 245.856472 
" clip-path="url(#pd3b43df2d4)" style="fill: none; stroke: #1f77b4; stroke-width: 1.5"/>
    <path d="M 695.275795 253.71228 
L 713.855114 253.71228 
" clip-path="url(#pd3b43df2d4)" style="fill: none; stroke: #1f77b4; stroke-width: 1.5"/>
    <path d="M 769.593068 278.86758 
L 788.172386 278.86758 
" clip-path="url(#pd3b43df2d4)" style="fill: none; stroke: #1f77b4; stroke-width: 1.5"/>
   </g>
   <g id="patch_3">
    <path d="M 35.71 337.97 
L 35.71 26.88 
" style="fill: none; stroke: #000000; stroke-width: 0.8; stroke-linejoin: miter; stroke-linecap: square"/>
   </g>
   <g id="patch_4">
    <path d="M 853.2 337.97 
L 853.2 26.88 
" style="fill: none; stroke: #000000; stroke-width: 0.8; stroke-linejoin: miter; stroke-linecap: square"/>
   </g>
   <g id="patch_5">
    <path d="M 35.71 337.97 
L 853.2 337.97 
" style="fill: none; stroke: #000000; stroke-width: 0.8; stroke-linejoin: miter; stroke-linecap: square"/>
   </g>
   <g id="patch_6">
    <path d="M 35.71 26.88 
L 853.2 26.88 
" style="fill: none; stroke: #000000; stroke-width: 0.8; stroke-linejoin: miter; stroke-linecap: square"/>
   </g>
   <g id="text_19">
    <!-- Payoff - turns: 200, repetitions: 200, strategies: 10.  -->
    <g transform="translate(288.674375 20.88)scale(0.12 -0.12)">
     <defs>
      <path id="DejaVuSans-50" d="M 1259 4147 
L 1259 2394 
L 2053 2394 
Q 2494 2394 2734 2622 
Q 2975 2850 2975 3272 
Q 2975 3691 2734 3919 
Q 2494 4147 2053 4147 
L 1259 4147 
z
M 628 4666 
L 2053 4666 
Q 2838 4666 3239 4311 
Q 3641 3956 3641 3272 
Q 3641 2581 3239 2228 
Q 2838 1875 2053 1875 
L 1259 1875 
L 1259 0 
L 628 0 
L 628 4666 
z
" transform="scale(0.015625)"/>
      <path id="DejaVuSans-79" d="M 2059 -325 
Q 1816 -950 1584 -1140 
Q 1353 -1331 966 -1331 
L 506 -1331 
L 506 -850 
L 844 -850 
Q 1081 -850 1212 -737 
Q 1344 -625 1503 -206 
L 1606 56 
L 191 3500 
L 800 3500 
L 1894 763 
L 2988 3500 
L 3597 3500 
L 2059 -325 
z
" transform="scale(0.015625)"/>
      <path id="DejaVuSans-2d" d="M 313 2009 
L 1997 2009 
L 1997 1497 
L 313 1497 
L 313 2009 
z
" transform="scale(0.015625)"/>
      <path id="DejaVuSans-73" d="M 2834 3397 
L 2834 2853 
Q 2591 2978 2328 3040 
Q 2066 3103 1784 3103 
Q 1356 3103 1142 2972 
Q 928 2841 928 2578 
Q 928 2378 1081 2264 
Q 1234 2150 1697 2047 
L 1894 2003 
Q 2506 1872 2764 1633 
Q 3022 1394 3022 966 
Q 3022 478 2636 193 
Q 2250 -91 1575 -91 
Q 1294 -91 989 -36 
Q 684 19 347 128 
L 347 722 
Q 666 556 975 473 
Q 1284 391 1588 391 
Q 1994 391 2212 530 
Q 2431 669 2431 922 
Q 2431 1156 2273 1281 
Q 2116 1406 1581 1522 
L 1381 1569 
Q 847 1681 609 1914 
Q 372 2147 372 2553 
Q 372 3047 722 3315 
Q 1072 3584 1716 3584 
Q 2034 3584 2315 3537 
Q 2597 3491 2834 3397 
z
" transform="scale(0.015625)"/>
      <path id="DejaVuSans-2c" d="M 750 794 
L 1409 794 
L 1409 256 
L 897 -744 
L 494 -744 
L 750 256 
L 750 794 
z
" transform="scale(0.015625)"/>
     </defs>
     <use xlink:href="#DejaVuSans-50"/>
     <use xlink:href="#DejaVuSans-61" x="55.802734"/>
     <use xlink:href="#DejaVuSans-79" x="117.082031"/>
     <use xlink:href="#DejaVuSans-6f" x="176.261719"/>
     <use xlink:href="#DejaVuSans-66" x="237.443359"/>
     <use xlink:href="#DejaVuSans-66" x="272.648438"/>
     <use xlink:href="#DejaVuSans-20" x="307.853516"/>
     <use xlink:href="#DejaVuSans-2d" x="339.640625"/>
     <use xlink:href="#DejaVuSans-20" x="375.724609"/>
     <use xlink:href="#DejaVuSans-74" x="407.511719"/>
     <use xlink:href="#DejaVuSans-75" x="446.720703"/>
     <use xlink:href="#DejaVuSans-72" x="510.099609"/>
     <use xlink:href="#DejaVuSans-6e" x="549.462891"/>
     <use xlink:href="#DejaVuSans-73" x="612.841797"/>
     <use xlink:href="#DejaVuSans-3a" x="664.941406"/>
     <use xlink:href="#DejaVuSans-20" x="698.632812"/>
     <use xlink:href="#DejaVuSans-32" x="730.419922"/>
     <use xlink:href="#DejaVuSans-30" x="794.042969"/>
     <use xlink:href="#DejaVuSans-30" x="857.666016"/>
     <use xlink:href="#DejaVuSans-2c" x="921.289062"/>
     <use xlink:href="#DejaVuSans-20" x="953.076172"/>
     <use xlink:href="#DejaVuSans-72" x="984.863281"/>
     <use xlink:href="#DejaVuSans-65" x="1023.726562"/>
     <use xlink:href="#DejaVuSans-70" x="1085.25"/>
     <use xlink:href="#DejaVuSans-65" x="1148.726562"/>
     <use xlink:href="#DejaVuSans-74" x="1210.25"/>
     <use xlink:href="#DejaVuSans-69" x="1249.458984"/>
     <use xlink:href="#DejaVuSans-74" x="1277.242188"/>
     <use xlink:href="#DejaVuSans-69" x="1316.451172"/>
     <use xlink:href="#DejaVuSans-6f" x="1344.234375"/>
     <use xlink:href="#DejaVuSans-6e" x="1405.416016"/>
     <use xlink:href="#DejaVuSans-73" x="1468.794922"/>
     <use xlink:href="#DejaVuSans-3a" x="1520.894531"/>
     <use xlink:href="#DejaVuSans-20" x="1554.585938"/>
     <use xlink:href="#DejaVuSans-32" x="1586.373047"/>
     <use xlink:href="#DejaVuSans-30" x="1649.996094"/>
     <use xlink:href="#DejaVuSans-30" x="1713.619141"/>
     <use xlink:href="#DejaVuSans-2c" x="1777.242188"/>
     <use xlink:href="#DejaVuSans-20" x="1809.029297"/>
     <use xlink:href="#DejaVuSans-73" x="1840.816406"/>
     <use xlink:href="#DejaVuSans-74" x="1892.916016"/>
     <use xlink:href="#DejaVuSans-72" x="1932.125"/>
     <use xlink:href="#DejaVuSans-61" x="1973.238281"/>
     <use xlink:href="#DejaVuSans-74" x="2034.517578"/>
     <use xlink:href="#DejaVuSans-65" x="2073.726562"/>
     <use xlink:href="#DejaVuSans-67" x="2135.25"/>
     <use xlink:href="#DejaVuSans-69" x="2198.726562"/>
     <use xlink:href="#DejaVuSans-65" x="2226.509766"/>
     <use xlink:href="#DejaVuSans-73" x="2288.033203"/>
     <use xlink:href="#DejaVuSans-3a" x="2340.132812"/>
     <use xlink:href="#DejaVuSans-20" x="2373.824219"/>
     <use xlink:href="#DejaVuSans-31" x="2405.611328"/>
     <use xlink:href="#DejaVuSans-30" x="2469.234375"/>
     <use xlink:href="#DejaVuSans-2e" x="2532.857422"/>
     <use xlink:href="#DejaVuSans-20" x="2564.644531"/>
    </g>
   </g>
  </g>
 </g>
 <defs>
  <clipPath id="pd3b43df2d4">
   <rect x="35.71" y="26.88" width="817.49" height="311.09"/>
  </clipPath>
 </defs>
</svg>
