<?xml version="1.0" encoding="utf-8" standalone="no"?>
<!DOCTYPE svg PUBLIC "-//W3C//DTD SVG 1.1//EN"
  "http://www.w3.org/Graphics/SVG/1.1/DTD/svg11.dtd">
<svg xmlns:xlink="http://www.w3.org/1999/xlink" width="864pt" height="432pt" viewBox="0 0 864 432" xmlns="http://www.w3.org/2000/svg" version="1.1">
 <metadata>
  <rdf:RDF xmlns:dc="http://purl.org/dc/elements/1.1/" xmlns:cc="http://creativecommons.org/ns#" xmlns:rdf="http://www.w3.org/1999/02/22-rdf-syntax-ns#">
   <cc:Work>
    <dc:type rdf:resource="http://purl.org/dc/dcmitype/StillImage"/>
    <dc:date>2022-09-11T03:50:05.574934</dc:date>
    <dc:format>image/svg+xml</dc:format>
    <dc:creator>
     <cc:Agent>
      <dc:title>Matplotlib v3.5.1, https://matplotlib.org/</dc:title>
     </cc:Agent>
    </dc:creator>
   </cc:Work>
  </rdf:RDF>
 </metadata>
 <defs>
  <style type="text/css">*{stroke-linejoin: round; stroke-linecap: butt}</style>
 </defs>
 <g id="figure_1">
  <g id="patch_1">
   <path d="M 0 432 
L 864 432 
L 864 0 
L 0 0 
z
" style="fill: #ffffff"/>
  </g>
  <g id="axes_1">
   <g id="patch_2">
    <path d="M 29.68 337.97 
L 853.2 337.97 
L 853.2 26.88 
L 29.68 26.88 
z
" style="fill: #ffffff"/>
   </g>
   <g id="PolyCollection_1">
    <path d="M 123.094099 183.839045 
L 85.99681 183.839045 
L 85.829091 182.425 
L 86.010689 181.010955 
L 86.527261 179.596909 
L 87.345454 178.182864 
L 88.416094 176.768818 
L 89.678732 175.354773 
L 91.066963 173.940727 
L 92.513885 172.526682 
L 93.95709 171.112636 
L 95.342681 169.698591 
L 96.628022 168.284545 
L 97.783087 166.8705 
L 98.790485 165.456455 
L 99.644381 164.042409 
L 100.348615 162.628364 
L 100.914376 161.214318 
L 101.357745 159.800273 
L 101.697386 158.386227 
L 101.952565 156.972182 
L 102.141603 155.558136 
L 102.280791 154.144091 
L 102.383748 152.730045 
L 102.461127 151.316 
L 102.520613 149.901955 
L 102.567099 148.487909 
L 102.60298 147.073864 
L 102.628498 145.659818 
L 102.642089 144.245773 
L 102.640733 142.831727 
L 102.620287 141.417682 
L 102.57581 140.003636 
L 102.501914 138.589591 
L 102.39314 137.175545 
L 102.24439 135.7615 
L 102.051412 134.347455 
L 101.811332 132.933409 
L 101.523208 131.519364 
L 101.188566 130.105318 
L 100.811844 128.691273 
L 100.400691 127.277227 
L 99.966034 125.863182 
L 99.521877 124.449136 
L 99.084766 123.035091 
L 98.672952 121.621045 
L 98.305279 120.207 
L 97.999891 118.792955 
L 97.772875 117.378909 
L 97.636984 115.964864 
L 97.60059 114.550818 
L 97.666985 113.136773 
L 97.834112 111.722727 
L 98.094769 110.308682 
L 98.437245 108.894636 
L 98.846319 107.480591 
L 99.304502 106.066545 
L 99.793361 104.6525 
L 100.294809 103.238455 
L 100.792219 101.824409 
L 101.271272 100.410364 
L 101.720502 98.996318 
L 102.131513 97.582273 
L 102.498919 96.168227 
L 102.820044 94.754182 
L 103.094448 93.340136 
L 103.323379 91.926091 
L 103.509175 90.512045 
L 103.654703 89.098 
L 103.762854 87.683955 
L 103.836137 86.269909 
L 103.876376 84.855864 
L 103.884523 83.441818 
L 103.860611 82.027773 
L 103.803824 80.613727 
L 103.712713 79.199682 
L 103.585534 77.785636 
L 103.420702 76.371591 
L 103.21733 74.957545 
L 102.975809 73.5435 
L 102.698362 72.129455 
L 102.389511 70.715409 
L 102.05637 69.301364 
L 101.708695 67.887318 
L 101.358649 66.473273 
L 101.020254 65.059227 
L 100.708567 63.645182 
L 100.43863 62.231136 
L 100.22431 60.817091 
L 100.077152 59.403045 
L 100.005384 57.989 
L 100.01319 56.574955 
L 100.100358 55.160909 
L 100.262323 53.746864 
L 100.490619 52.332818 
L 100.773657 50.918773 
L 101.097748 49.504727 
L 101.448227 48.090682 
L 101.810566 46.676636 
L 102.171345 45.262591 
L 102.519015 43.848545 
L 106.571894 43.848545 
L 106.571894 43.848545 
L 106.919564 45.262591 
L 107.280343 46.676636 
L 107.642682 48.090682 
L 107.993161 49.504727 
L 108.317252 50.918773 
L 108.60029 52.332818 
L 108.828586 53.746864 
L 108.990551 55.160909 
L 109.077719 56.574955 
L 109.085526 57.989 
L 109.013757 59.403045 
L 108.8666 60.817091 
L 108.65228 62.231136 
L 108.382342 63.645182 
L 108.070655 65.059227 
L 107.732261 66.473273 
L 107.382214 67.887318 
L 107.034539 69.301364 
L 106.701398 70.715409 
L 106.392548 72.129455 
L 106.1151 73.5435 
L 105.873579 74.957545 
L 105.670207 76.371591 
L 105.505375 77.785636 
L 105.378197 79.199682 
L 105.287086 80.613727 
L 105.230298 82.027773 
L 105.206386 83.441818 
L 105.214533 84.855864 
L 105.254772 86.269909 
L 105.328055 87.683955 
L 105.436207 89.098 
L 105.581734 90.512045 
L 105.76753 91.926091 
L 105.996461 93.340136 
L 106.270866 94.754182 
L 106.59199 96.168227 
L 106.959396 97.582273 
L 107.370408 98.996318 
L 107.819637 100.410364 
L 108.29869 101.824409 
L 108.7961 103.238455 
L 109.297548 104.6525 
L 109.786407 106.066545 
L 110.24459 107.480591 
L 110.653664 108.894636 
L 110.99614 110.308682 
L 111.256797 111.722727 
L 111.423924 113.136773 
L 111.490319 114.550818 
L 111.453925 115.964864 
L 111.318034 117.378909 
L 111.091018 118.792955 
L 110.78563 120.207 
L 110.417957 121.621045 
L 110.006143 123.035091 
L 109.569032 124.449136 
L 109.124875 125.863182 
L 108.690219 127.277227 
L 108.279065 128.691273 
L 107.902343 130.105318 
L 107.567701 131.519364 
L 107.279577 132.933409 
L 107.039497 134.347455 
L 106.846519 135.7615 
L 106.697769 137.175545 
L 106.588995 138.589591 
L 106.515099 140.003636 
L 106.470622 141.417682 
L 106.450176 142.831727 
L 106.44882 144.245773 
L 106.462411 145.659818 
L 106.487929 147.073864 
L 106.52381 148.487909 
L 106.570296 149.901955 
L 106.629782 151.316 
L 106.707161 152.730045 
L 106.810118 154.144091 
L 106.949306 155.558136 
L 107.138344 156.972182 
L 107.393523 158.386227 
L 107.733164 159.800273 
L 108.176533 161.214318 
L 108.742294 162.628364 
L 109.446528 164.042409 
L 110.300424 165.456455 
L 111.307822 166.8705 
L 112.462887 168.284545 
L 113.748228 169.698591 
L 115.133819 171.112636 
L 116.577024 172.526682 
L 118.023946 173.940727 
L 119.412177 175.354773 
L 120.674815 176.768818 
L 121.745455 178.182864 
L 122.563648 179.596909 
L 123.08022 181.010955 
L 123.261818 182.425 
L 123.094099 183.839045 
z
" clip-path="url(#pe1b94cd89c)" style="fill: #1f77b4; fill-opacity: 0.3"/>
   </g>
   <g id="PolyCollection_2">
    <path d="M 191.966665 183.839045 
L 166.855153 183.839045 
L 166.910747 183.824762 
L 167.076055 183.810479 
L 167.346724 183.796196 
L 167.715713 183.781912 
L 168.173592 183.767629 
L 168.708949 183.753346 
L 169.308857 183.739062 
L 169.959394 183.724779 
L 170.646173 183.710496 
L 171.354864 183.696213 
L 172.07168 183.681929 
L 172.783792 183.667646 
L 173.479684 183.653363 
L 174.149407 183.639079 
L 174.784749 183.624796 
L 175.379312 183.610513 
L 175.928505 183.59623 
L 176.429464 183.581946 
L 176.880912 183.567663 
L 177.282971 183.55338 
L 177.636951 183.539096 
L 177.945114 183.524813 
L 178.210446 183.51053 
L 178.436436 183.496247 
L 178.626872 183.481963 
L 178.785666 183.46768 
L 178.916704 183.453397 
L 179.023731 183.439113 
L 179.11026 183.42483 
L 179.179514 183.410547 
L 179.234389 183.396264 
L 179.27744 183.38198 
L 179.310883 183.367697 
L 179.336609 183.353414 
L 179.356206 183.33913 
L 179.37099 183.324847 
L 179.382035 183.310564 
L 179.390209 183.296281 
L 179.396199 183.281997 
L 179.400547 183.267714 
L 179.403672 183.253431 
L 179.405896 183.239147 
L 179.407461 183.224864 
L 179.408549 183.210581 
L 179.409293 183.196298 
L 179.409788 183.182014 
L 179.4101 183.167731 
L 179.410272 183.153448 
L 179.410328 183.139164 
L 179.410277 183.124881 
L 179.410108 183.110598 
L 179.409797 183.096315 
L 179.409297 183.082031 
L 179.408537 183.067748 
L 179.407414 183.053465 
L 179.405783 183.039181 
L 179.403444 183.024898 
L 179.400126 183.010615 
L 179.395465 182.996331 
L 179.388983 182.982048 
L 179.380053 182.967765 
L 179.367869 182.953482 
L 179.351403 182.939198 
L 179.329365 182.924915 
L 179.300153 182.910632 
L 179.261805 182.896348 
L 179.211952 182.882065 
L 179.147778 182.867782 
L 179.065978 182.853499 
L 178.962744 182.839215 
L 178.833759 182.824932 
L 178.674218 182.810649 
L 178.478884 182.796365 
L 178.242176 182.782082 
L 177.958301 182.767799 
L 177.621427 182.753516 
L 177.225907 182.739232 
L 176.766541 182.724949 
L 176.238877 182.710666 
L 175.639543 182.696382 
L 174.966588 182.682099 
L 174.219828 182.667816 
L 173.401168 182.653533 
L 172.514877 182.639249 
L 171.567799 182.624966 
L 170.569469 182.610683 
L 169.532131 182.596399 
L 168.470613 182.582116 
L 167.402085 182.567833 
L 166.345667 182.55355 
L 165.321913 182.539266 
L 164.352185 182.524983 
L 163.457926 182.5107 
L 162.65989 182.496416 
L 161.977348 182.482133 
L 161.427311 182.46785 
L 161.023835 182.453567 
L 160.777417 182.439283 
L 160.694545 182.425 
L 198.127273 182.425 
L 198.127273 182.425 
L 198.044402 182.439283 
L 197.797984 182.453567 
L 197.394507 182.46785 
L 196.844471 182.482133 
L 196.161928 182.496416 
L 195.363893 182.5107 
L 194.469634 182.524983 
L 193.499905 182.539266 
L 192.476152 182.55355 
L 191.419733 182.567833 
L 190.351205 182.582116 
L 189.289688 182.596399 
L 188.252349 182.610683 
L 187.25402 182.624966 
L 186.306941 182.639249 
L 185.42065 182.653533 
L 184.60199 182.667816 
L 183.855231 182.682099 
L 183.182275 182.696382 
L 182.582941 182.710666 
L 182.055277 182.724949 
L 181.595911 182.739232 
L 181.200392 182.753516 
L 180.863518 182.767799 
L 180.579642 182.782082 
L 180.342934 182.796365 
L 180.1476 182.810649 
L 179.988059 182.824932 
L 179.859074 182.839215 
L 179.75584 182.853499 
L 179.674041 182.867782 
L 179.609866 182.882065 
L 179.560013 182.896348 
L 179.521665 182.910632 
L 179.492453 182.924915 
L 179.470415 182.939198 
L 179.453949 182.953482 
L 179.441765 182.967765 
L 179.432835 182.982048 
L 179.426353 182.996331 
L 179.421692 183.010615 
L 179.418374 183.024898 
L 179.416035 183.039181 
L 179.414404 183.053465 
L 179.413281 183.067748 
L 179.412522 183.082031 
L 179.412021 183.096315 
L 179.41171 183.110598 
L 179.411542 183.124881 
L 179.41149 183.139164 
L 179.411546 183.153448 
L 179.411719 183.167731 
L 179.412031 183.182014 
L 179.412525 183.196298 
L 179.413269 183.210581 
L 179.414357 183.224864 
L 179.415923 183.239147 
L 179.418146 183.253431 
L 179.421271 183.267714 
L 179.425619 183.281997 
L 179.431609 183.296281 
L 179.439783 183.310564 
L 179.450828 183.324847 
L 179.465612 183.33913 
L 179.485209 183.353414 
L 179.510935 183.367697 
L 179.544378 183.38198 
L 179.587429 183.396264 
L 179.642304 183.410547 
L 179.711558 183.42483 
L 179.798087 183.439113 
L 179.905114 183.453397 
L 180.036152 183.46768 
L 180.194946 183.481963 
L 180.385382 183.496247 
L 180.611372 183.51053 
L 180.876704 183.524813 
L 181.184867 183.539096 
L 181.538847 183.55338 
L 181.940907 183.567663 
L 182.392354 183.581946 
L 182.893314 183.59623 
L 183.442506 183.610513 
L 184.037069 183.624796 
L 184.672411 183.639079 
L 185.342134 183.653363 
L 186.038026 183.667646 
L 186.750139 183.681929 
L 187.466954 183.696213 
L 188.175646 183.710496 
L 188.862424 183.724779 
L 189.512961 183.739062 
L 190.112869 183.753346 
L 190.648226 183.767629 
L 191.106105 183.781912 
L 191.475094 183.796196 
L 191.745764 183.810479 
L 191.911072 183.824762 
L 191.966665 183.839045 
z
" clip-path="url(#pe1b94cd89c)" style="fill: #1f77b4; fill-opacity: 0.3"/>
   </g>
   <g id="PolyCollection_3">
    <path d="M 258.552347 311.103136 
L 250.000381 311.103136 
L 249.85257 308.460728 
L 249.839317 305.81832 
L 249.961778 303.175912 
L 250.208723 300.533504 
L 250.558202 297.891096 
L 250.980692 295.248687 
L 251.44312 292.606279 
L 251.912977 289.963871 
L 252.36182 287.321463 
L 252.767668 284.679055 
L 253.116087 282.036646 
L 253.400054 279.394238 
L 253.618897 276.75183 
L 253.776729 274.109422 
L 253.880753 271.467014 
L 253.939772 268.824606 
L 253.963047 266.182197 
L 253.959553 263.539789 
L 253.937575 260.897381 
L 253.904528 258.254973 
L 253.866874 255.612565 
L 253.830046 252.970157 
L 253.798318 250.327748 
L 253.774593 247.68534 
L 253.760127 245.042932 
L 253.754183 242.400524 
L 253.75363 239.758116 
L 253.752486 237.115708 
L 253.741381 234.473299 
L 253.706978 231.830891 
L 253.631387 229.188483 
L 253.491739 226.546075 
L 253.260147 223.903667 
L 252.904373 221.261258 
L 252.389573 218.61885 
L 251.681378 215.976442 
L 250.750441 213.334034 
L 249.578201 210.691626 
L 248.16325 208.049218 
L 246.527245 205.406809 
L 244.719024 202.764401 
L 242.81557 200.121993 
L 240.918732 197.479585 
L 239.14732 194.837177 
L 237.625102 192.194769 
L 236.466211 189.55236 
L 235.760289 186.909952 
L 235.56 184.267544 
L 235.87332 181.625136 
L 236.662144 178.982728 
L 237.847525 176.34032 
L 239.320529 173.697911 
L 240.95656 171.055503 
L 242.630495 168.413095 
L 244.229974 165.770687 
L 245.664897 163.128279 
L 246.872159 160.485871 
L 247.815788 157.843462 
L 248.483528 155.201054 
L 248.881455 152.558646 
L 249.028273 149.916238 
L 248.950609 147.27383 
L 248.680043 144.631421 
L 248.251959 141.989013 
L 247.705719 139.346605 
L 247.085309 136.704197 
L 246.439508 134.061789 
L 245.820844 131.419381 
L 245.282946 128.776972 
L 244.876448 126.134564 
L 244.644044 123.492156 
L 244.615614 120.849748 
L 244.804449 118.20734 
L 245.205406 115.564932 
L 245.795451 112.922523 
L 246.536551 110.280115 
L 247.380373 107.637707 
L 248.273926 104.995299 
L 249.165141 102.352891 
L 250.007519 99.710483 
L 250.76323 97.068074 
L 251.404478 94.425666 
L 251.91329 91.783258 
L 252.280186 89.14085 
L 252.502328 86.498442 
L 252.581744 83.856034 
L 252.524088 81.213625 
L 252.338166 78.571217 
L 252.036252 75.928809 
L 251.634933 73.286401 
L 251.156078 70.643993 
L 250.627449 68.001584 
L 250.082481 65.359176 
L 249.558917 62.716768 
L 249.096227 60.07436 
L 248.732052 57.431952 
L 248.498153 54.789544 
L 248.416586 52.147135 
L 248.496822 49.504727 
L 260.055905 49.504727 
L 260.055905 49.504727 
L 260.136142 52.147135 
L 260.054575 54.789544 
L 259.820676 57.431952 
L 259.4565 60.07436 
L 258.993811 62.716768 
L 258.470246 65.359176 
L 257.925278 68.001584 
L 257.39665 70.643993 
L 256.917794 73.286401 
L 256.516475 75.928809 
L 256.214562 78.571217 
L 256.02864 81.213625 
L 255.970983 83.856034 
L 256.050399 86.498442 
L 256.272541 89.14085 
L 256.639437 91.783258 
L 257.148249 94.425666 
L 257.789497 97.068074 
L 258.545208 99.710483 
L 259.387586 102.352891 
L 260.278802 104.995299 
L 261.172354 107.637707 
L 262.016177 110.280115 
L 262.757277 112.922523 
L 263.347321 115.564932 
L 263.748278 118.20734 
L 263.937113 120.849748 
L 263.908684 123.492156 
L 263.676279 126.134564 
L 263.269781 128.776972 
L 262.731883 131.419381 
L 262.113219 134.061789 
L 261.467419 136.704197 
L 260.847008 139.346605 
L 260.300768 141.989013 
L 259.872684 144.631421 
L 259.602118 147.27383 
L 259.524454 149.916238 
L 259.671273 152.558646 
L 260.0692 155.201054 
L 260.736939 157.843462 
L 261.680568 160.485871 
L 262.88783 163.128279 
L 264.322753 165.770687 
L 265.922232 168.413095 
L 267.596167 171.055503 
L 269.232199 173.697911 
L 270.705202 176.34032 
L 271.890583 178.982728 
L 272.679407 181.625136 
L 272.992727 184.267544 
L 272.792439 186.909952 
L 272.086516 189.55236 
L 270.927625 192.194769 
L 269.405407 194.837177 
L 267.633996 197.479585 
L 265.737157 200.121993 
L 263.833703 202.764401 
L 262.025482 205.406809 
L 260.389477 208.049218 
L 258.974527 210.691626 
L 257.802287 213.334034 
L 256.871349 215.976442 
L 256.163154 218.61885 
L 255.648354 221.261258 
L 255.292581 223.903667 
L 255.060988 226.546075 
L 254.92134 229.188483 
L 254.845749 231.830891 
L 254.811346 234.473299 
L 254.800242 237.115708 
L 254.799097 239.758116 
L 254.798544 242.400524 
L 254.7926 245.042932 
L 254.778134 247.68534 
L 254.75441 250.327748 
L 254.722681 252.970157 
L 254.685853 255.612565 
L 254.648199 258.254973 
L 254.615152 260.897381 
L 254.593174 263.539789 
L 254.58968 266.182197 
L 254.612955 268.824606 
L 254.671975 271.467014 
L 254.775999 274.109422 
L 254.93383 276.75183 
L 255.152674 279.394238 
L 255.436641 282.036646 
L 255.78506 284.679055 
L 256.190908 287.321463 
L 256.63975 289.963871 
L 257.109607 292.606279 
L 257.572035 295.248687 
L 257.994525 297.891096 
L 258.344004 300.533504 
L 258.59095 303.175912 
L 258.71341 305.81832 
L 258.700158 308.460728 
L 258.552347 311.103136 
z
" clip-path="url(#pe1b94cd89c)" style="fill: #1f77b4; fill-opacity: 0.3"/>
   </g>
   <g id="PolyCollection_4">
    <path d="M 347.366845 182.425 
L 310.916791 182.425 
L 310.528935 180.996671 
L 310.425455 179.568343 
L 310.606921 178.140014 
L 311.060124 176.711685 
L 311.759217 175.283356 
L 312.667821 173.855028 
L 313.741852 172.426699 
L 314.932784 170.99837 
L 316.191006 169.570041 
L 317.468982 168.141713 
L 318.723936 166.713384 
L 319.919887 165.285055 
L 321.028917 163.856726 
L 322.031684 162.428398 
L 322.917217 161.000069 
L 323.682128 159.57174 
L 324.329412 158.143411 
L 324.866977 156.715083 
L 325.306101 155.286754 
L 325.659931 153.858425 
L 325.942156 152.430096 
L 326.165899 151.001768 
L 326.34289 149.573439 
L 326.482898 148.14511 
L 326.593421 146.716781 
L 326.679577 145.288453 
L 326.744177 143.860124 
L 326.787917 142.431795 
L 326.809661 141.003466 
L 326.806792 139.575138 
L 326.775605 138.146809 
L 326.71174 136.71848 
L 326.610644 135.290152 
L 326.468068 133.861823 
L 326.280583 132.433494 
L 326.046105 131.005165 
L 325.764405 129.576837 
L 325.437563 128.148508 
L 325.070323 126.720179 
L 324.670302 125.29185 
L 324.247998 123.863522 
L 323.816571 122.435193 
L 323.391367 121.006864 
L 322.989197 119.578535 
L 322.627415 118.150207 
L 322.322843 116.721878 
L 322.090651 115.293549 
L 321.943283 113.86522 
L 321.889546 112.436892 
L 321.933947 111.008563 
L 322.07636 109.580234 
L 322.312056 108.151905 
L 322.632078 106.723577 
L 323.023949 105.295248 
L 323.472598 103.866919 
L 323.961442 102.43859 
L 324.473487 101.010262 
L 324.992363 99.581933 
L 325.503204 98.153604 
L 325.993306 96.725275 
L 326.452541 95.296947 
L 326.873524 93.868618 
L 327.251555 92.440289 
L 327.584383 91.011961 
L 327.871841 89.583632 
L 328.115403 88.155303 
L 328.31772 86.726974 
L 328.482172 85.298646 
L 328.612461 83.870317 
L 328.712264 82.441988 
L 328.78497 81.013659 
L 328.833466 79.585331 
L 328.860013 78.157002 
L 328.86616 76.728673 
L 328.852726 75.300344 
L 328.819814 73.872016 
L 328.766882 72.443687 
L 328.692838 71.015358 
L 328.596176 69.587029 
L 328.475157 68.158701 
L 328.328013 66.730372 
L 328.153187 65.302043 
L 327.949603 63.873714 
L 327.716945 62.445386 
L 327.45594 61.017057 
L 327.168618 59.588728 
L 326.858533 58.160399 
L 326.530901 56.732071 
L 326.192648 55.303742 
L 325.852321 53.875413 
L 325.519861 52.447084 
L 325.20622 51.018756 
L 324.922838 49.590427 
L 324.681001 48.162098 
L 324.491133 46.73377 
L 324.362068 45.305441 
L 324.300382 43.877112 
L 324.309854 42.448783 
L 324.391104 41.020455 
L 333.892532 41.020455 
L 333.892532 41.020455 
L 333.973782 42.448783 
L 333.983254 43.877112 
L 333.921569 45.305441 
L 333.792503 46.73377 
L 333.602635 48.162098 
L 333.360799 49.590427 
L 333.077416 51.018756 
L 332.763775 52.447084 
L 332.431315 53.875413 
L 332.090988 55.303742 
L 331.752735 56.732071 
L 331.425103 58.160399 
L 331.115018 59.588728 
L 330.827697 61.017057 
L 330.566691 62.445386 
L 330.334033 63.873714 
L 330.130449 65.302043 
L 329.955623 66.730372 
L 329.808479 68.158701 
L 329.68746 69.587029 
L 329.590799 71.015358 
L 329.516754 72.443687 
L 329.463822 73.872016 
L 329.430911 75.300344 
L 329.417476 76.728673 
L 329.423623 78.157002 
L 329.45017 79.585331 
L 329.498667 81.013659 
L 329.571372 82.441988 
L 329.671176 83.870317 
L 329.801464 85.298646 
L 329.965916 86.726974 
L 330.168234 88.155303 
L 330.411796 89.583632 
L 330.699253 91.011961 
L 331.032082 92.440289 
L 331.410112 93.868618 
L 331.831095 95.296947 
L 332.29033 96.725275 
L 332.780432 98.153604 
L 333.291273 99.581933 
L 333.81015 101.010262 
L 334.322194 102.43859 
L 334.811038 103.866919 
L 335.259687 105.295248 
L 335.651558 106.723577 
L 335.971581 108.151905 
L 336.207276 109.580234 
L 336.34969 111.008563 
L 336.39409 112.436892 
L 336.340353 113.86522 
L 336.192985 115.293549 
L 335.960793 116.721878 
L 335.656221 118.150207 
L 335.294439 119.578535 
L 334.89227 121.006864 
L 334.467065 122.435193 
L 334.035638 123.863522 
L 333.613335 125.29185 
L 333.213313 126.720179 
L 332.846074 128.148508 
L 332.519231 129.576837 
L 332.237532 131.005165 
L 332.003053 132.433494 
L 331.815568 133.861823 
L 331.672992 135.290152 
L 331.571896 136.71848 
L 331.508031 138.146809 
L 331.476844 139.575138 
L 331.473975 141.003466 
L 331.495719 142.431795 
L 331.539459 143.860124 
L 331.604059 145.288453 
L 331.690215 146.716781 
L 331.800738 148.14511 
L 331.940747 149.573439 
L 332.117738 151.001768 
L 332.341481 152.430096 
L 332.623705 153.858425 
L 332.977535 155.286754 
L 333.416659 156.715083 
L 333.954224 158.143411 
L 334.601508 159.57174 
L 335.36642 161.000069 
L 336.251952 162.428398 
L 337.254719 163.856726 
L 338.36375 165.285055 
L 339.5597 166.713384 
L 340.814654 168.141713 
L 342.09263 169.570041 
L 343.350852 170.99837 
L 344.541784 172.426699 
L 345.615816 173.855028 
L 346.524419 175.283356 
L 347.223512 176.711685 
L 347.676715 178.140014 
L 347.858182 179.568343 
L 347.754702 180.996671 
L 347.366845 182.425 
z
" clip-path="url(#pe1b94cd89c)" style="fill: #1f77b4; fill-opacity: 0.3"/>
   </g>
   <g id="PolyCollection_5">
    <path d="M 422.22056 182.425 
L 385.793985 182.425 
L 385.290909 181.025238 
L 385.33614 179.625476 
L 385.921375 178.225713 
L 386.991006 176.825951 
L 388.450365 175.426189 
L 390.179046 174.026427 
L 392.046723 172.626665 
L 393.928584 171.226903 
L 395.717949 169.82714 
L 397.334482 168.427378 
L 398.727485 167.027616 
L 399.87476 165.627854 
L 400.778178 164.228092 
L 401.457426 162.82833 
L 401.943296 161.428567 
L 402.271606 160.028805 
L 402.478389 158.629043 
L 402.596598 157.229281 
L 402.654255 155.829519 
L 402.673772 154.429757 
L 402.672109 153.029994 
L 402.661411 151.630232 
L 402.649872 150.23047 
L 402.642588 148.830708 
L 402.642306 147.430946 
L 402.650006 146.031184 
L 402.665314 144.631421 
L 402.686768 143.231659 
L 402.711997 141.831897 
L 402.737819 140.432135 
L 402.760301 139.032373 
L 402.774788 137.632611 
L 402.775905 136.232848 
L 402.757558 134.833086 
L 402.712968 133.433324 
L 402.634791 132.033562 
L 402.515408 130.6338 
L 402.347439 129.234038 
L 402.124548 127.834275 
L 401.842521 126.434513 
L 401.500544 125.034751 
L 401.10252 123.634989 
L 400.658166 122.235227 
L 400.183611 120.835465 
L 399.701203 119.435702 
L 399.238337 118.03594 
L 398.825268 116.636178 
L 398.492094 115.236416 
L 398.265309 113.836654 
L 398.164462 112.436892 
L 398.199545 111.037129 
L 398.369585 109.637367 
L 398.662753 108.237605 
L 399.057957 106.837843 
L 399.527636 105.438081 
L 400.041215 104.038319 
L 400.568617 102.638556 
L 401.083254 101.238794 
L 401.564121 99.839032 
L 401.99679 98.43927 
L 402.373382 97.039508 
L 402.691737 95.639746 
L 402.954083 94.239983 
L 403.165546 92.840221 
L 403.332754 91.440459 
L 403.462708 90.040697 
L 403.562011 88.640935 
L 403.636437 87.241173 
L 403.690788 85.84141 
L 403.728944 84.441648 
L 403.754024 83.041886 
L 403.768577 81.642124 
L 403.774733 80.242362 
L 403.774307 78.8426 
L 403.768831 77.442837 
L 403.759532 76.043075 
L 403.747282 74.643313 
L 403.732542 73.243551 
L 403.715331 71.843789 
L 403.695232 70.444027 
L 403.671466 69.044264 
L 403.643021 67.644502 
L 403.608844 66.24474 
L 403.568083 64.844978 
L 403.520358 63.445216 
L 403.466019 62.045454 
L 403.406354 60.645691 
L 403.343694 59.245929 
L 403.281366 57.846167 
L 403.223486 56.446405 
L 403.174573 55.046643 
L 403.139043 53.646881 
L 403.120652 52.247118 
L 403.121972 50.847356 
L 403.14401 49.447594 
L 403.186035 48.047832 
L 403.245643 46.64807 
L 403.319066 45.248308 
L 403.401647 43.848545 
L 404.612898 43.848545 
L 404.612898 43.848545 
L 404.69548 45.248308 
L 404.768903 46.64807 
L 404.828511 48.047832 
L 404.870535 49.447594 
L 404.892574 50.847356 
L 404.893894 52.247118 
L 404.875503 53.646881 
L 404.839973 55.046643 
L 404.791059 56.446405 
L 404.733179 57.846167 
L 404.670852 59.245929 
L 404.608191 60.645691 
L 404.548526 62.045454 
L 404.494187 63.445216 
L 404.446462 64.844978 
L 404.405701 66.24474 
L 404.371524 67.644502 
L 404.343079 69.044264 
L 404.319314 70.444027 
L 404.299215 71.843789 
L 404.282003 73.243551 
L 404.267263 74.643313 
L 404.255014 76.043075 
L 404.245715 77.442837 
L 404.240239 78.8426 
L 404.239813 80.242362 
L 404.245969 81.642124 
L 404.260521 83.041886 
L 404.285602 84.441648 
L 404.323757 85.84141 
L 404.378108 87.241173 
L 404.452535 88.640935 
L 404.551838 90.040697 
L 404.681792 91.440459 
L 404.848999 92.840221 
L 405.060463 94.239983 
L 405.322809 95.639746 
L 405.641164 97.039508 
L 406.017756 98.43927 
L 406.450424 99.839032 
L 406.931291 101.238794 
L 407.445929 102.638556 
L 407.97333 104.038319 
L 408.48691 105.438081 
L 408.956589 106.837843 
L 409.351793 108.237605 
L 409.64496 109.637367 
L 409.815 111.037129 
L 409.850083 112.436892 
L 409.749236 113.836654 
L 409.522451 115.236416 
L 409.189278 116.636178 
L 408.776208 118.03594 
L 408.313342 119.435702 
L 407.830934 120.835465 
L 407.356379 122.235227 
L 406.912025 123.634989 
L 406.514001 125.034751 
L 406.172025 126.434513 
L 405.889998 127.834275 
L 405.667107 129.234038 
L 405.499138 130.6338 
L 405.379754 132.033562 
L 405.301578 133.433324 
L 405.256987 134.833086 
L 405.238641 136.232848 
L 405.239758 137.632611 
L 405.254245 139.032373 
L 405.276727 140.432135 
L 405.302548 141.831897 
L 405.327777 143.231659 
L 405.349232 144.631421 
L 405.364539 146.031184 
L 405.37224 147.430946 
L 405.371958 148.830708 
L 405.364673 150.23047 
L 405.353134 151.630232 
L 405.342437 153.029994 
L 405.340773 154.429757 
L 405.360291 155.829519 
L 405.417947 157.229281 
L 405.536156 158.629043 
L 405.742939 160.028805 
L 406.07125 161.428567 
L 406.55712 162.82833 
L 407.236367 164.228092 
L 408.139785 165.627854 
L 409.28706 167.027616 
L 410.680064 168.427378 
L 412.296596 169.82714 
L 414.085961 171.226903 
L 415.967822 172.626665 
L 417.835499 174.026427 
L 419.564181 175.426189 
L 421.023539 176.825951 
L 422.09317 178.225713 
L 422.678405 179.625476 
L 422.723636 181.025238 
L 422.22056 182.425 
z
" clip-path="url(#pe1b94cd89c)" style="fill: #1f77b4; fill-opacity: 0.3"/>
   </g>
   <g id="PolyCollection_6">
    <path d="M 482.665429 275.752 
L 475.080026 275.752 
L 474.131578 273.895173 
L 473.046309 272.038345 
L 471.833342 270.181518 
L 470.510627 268.324691 
L 469.105395 266.467863 
L 467.653876 264.611036 
L 466.200191 262.754208 
L 464.794417 260.897381 
L 463.489886 259.040554 
L 462.339931 257.183726 
L 461.394321 255.326899 
L 460.695722 253.470072 
L 460.276523 251.613244 
L 460.156364 249.756417 
L 460.340606 247.89959 
L 460.81993 246.042762 
L 461.571089 244.185935 
L 462.558743 242.329107 
L 463.738169 240.47228 
L 465.058547 238.615453 
L 466.466505 236.758625 
L 467.909538 234.901798 
L 469.339015 233.044971 
L 470.712515 231.188143 
L 471.995347 229.331316 
L 473.161194 227.474489 
L 474.191942 225.617661 
L 475.076799 223.760834 
L 475.810885 221.904006 
L 476.393516 220.047179 
L 476.826379 218.190352 
L 477.11182 216.333524 
L 477.251442 214.476697 
L 477.245169 212.61987 
L 477.090916 210.763042 
L 476.784946 208.906215 
L 476.322949 207.049388 
L 475.70178 205.19256 
L 474.921729 203.335733 
L 473.989053 201.478905 
L 472.918443 199.622078 
L 471.734988 197.765251 
L 470.475219 195.908423 
L 469.186847 194.051596 
L 467.926949 192.194769 
L 466.758583 190.337941 
L 465.746062 188.481114 
L 464.949365 186.624287 
L 464.418394 184.767459 
L 464.187853 182.910632 
L 464.273517 181.053804 
L 464.670451 179.196977 
L 465.353482 177.34015 
L 466.279846 175.483322 
L 467.393625 173.626495 
L 468.631294 171.769668 
L 469.927613 169.91284 
L 471.22105 168.056013 
L 472.458117 166.199185 
L 473.596208 164.342358 
L 474.604804 162.485531 
L 475.465165 160.628703 
L 476.168837 158.771876 
L 476.715395 156.915049 
L 477.109881 155.058221 
L 477.360332 153.201394 
L 477.475731 151.344567 
L 477.464543 149.487739 
L 477.333942 147.630912 
L 477.089692 145.774084 
L 476.736582 143.917257 
L 476.279296 142.06043 
L 475.723513 140.203602 
L 475.077091 138.346775 
L 474.351133 136.489948 
L 473.560793 134.63312 
L 472.725688 132.776293 
L 471.869818 130.919466 
L 471.02096 129.062638 
L 470.209548 127.205811 
L 469.467101 125.348983 
L 468.824351 123.492156 
L 468.309212 121.635329 
L 467.944825 119.778501 
L 467.74786 117.921674 
L 467.727263 116.064847 
L 467.883598 114.208019 
L 468.20904 112.351192 
L 468.688029 110.494365 
L 469.298506 108.637537 
L 470.013603 106.78071 
L 470.80359 104.923882 
L 471.637904 103.067055 
L 472.487051 101.210228 
L 473.324238 99.3534 
L 474.126605 97.496573 
L 474.87602 95.639746 
L 475.559411 93.782918 
L 476.168692 91.926091 
L 481.576763 91.926091 
L 481.576763 91.926091 
L 482.186043 93.782918 
L 482.869435 95.639746 
L 483.61885 97.496573 
L 484.421217 99.3534 
L 485.258403 101.210228 
L 486.107551 103.067055 
L 486.941865 104.923882 
L 487.731852 106.78071 
L 488.446948 108.637537 
L 489.057426 110.494365 
L 489.536414 112.351192 
L 489.861856 114.208019 
L 490.018192 116.064847 
L 489.997595 117.921674 
L 489.800629 119.778501 
L 489.436243 121.635329 
L 488.921104 123.492156 
L 488.278353 125.348983 
L 487.535907 127.205811 
L 486.724494 129.062638 
L 485.875636 130.919466 
L 485.019766 132.776293 
L 484.184661 134.63312 
L 483.394322 136.489948 
L 482.668364 138.346775 
L 482.021942 140.203602 
L 481.466159 142.06043 
L 481.008872 143.917257 
L 480.655763 145.774084 
L 480.411512 147.630912 
L 480.280912 149.487739 
L 480.269724 151.344567 
L 480.385122 153.201394 
L 480.635574 155.058221 
L 481.030059 156.915049 
L 481.576618 158.771876 
L 482.28029 160.628703 
L 483.14065 162.485531 
L 484.149246 164.342358 
L 485.287338 166.199185 
L 486.524405 168.056013 
L 487.817841 169.91284 
L 489.11416 171.769668 
L 490.35183 173.626495 
L 491.465608 175.483322 
L 492.391973 177.34015 
L 493.075004 179.196977 
L 493.471938 181.053804 
L 493.557602 182.910632 
L 493.327061 184.767459 
L 492.79609 186.624287 
L 491.999392 188.481114 
L 490.986871 190.337941 
L 489.818506 192.194769 
L 488.558608 194.051596 
L 487.270236 195.908423 
L 486.010467 197.765251 
L 484.827011 199.622078 
L 483.756401 201.478905 
L 482.823726 203.335733 
L 482.043675 205.19256 
L 481.422506 207.049388 
L 480.960508 208.906215 
L 480.654539 210.763042 
L 480.500285 212.61987 
L 480.494013 214.476697 
L 480.633635 216.333524 
L 480.919076 218.190352 
L 481.351938 220.047179 
L 481.93457 221.904006 
L 482.668656 223.760834 
L 483.553512 225.617661 
L 484.584261 227.474489 
L 485.750108 229.331316 
L 487.032939 231.188143 
L 488.406439 233.044971 
L 489.835916 234.901798 
L 491.278949 236.758625 
L 492.686907 238.615453 
L 494.007286 240.47228 
L 495.186711 242.329107 
L 496.174366 244.185935 
L 496.925525 246.042762 
L 497.404849 247.89959 
L 497.589091 249.756417 
L 497.468932 251.613244 
L 497.049733 253.470072 
L 496.351133 255.326899 
L 495.405523 257.183726 
L 494.255569 259.040554 
L 492.951038 260.897381 
L 491.545263 262.754208 
L 490.091579 264.611036 
L 488.640059 266.467863 
L 487.234827 268.324691 
L 485.912113 270.181518 
L 484.699145 272.038345 
L 483.613876 273.895173 
L 482.665429 275.752 
z
" clip-path="url(#pe1b94cd89c)" style="fill: #1f77b4; fill-opacity: 0.3"/>
   </g>
   <g id="PolyCollection_7">
    <path d="M 558.545994 322.4155 
L 548.93037 322.4155 
L 548.408241 319.587409 
L 547.99373 316.759318 
L 547.717159 313.931227 
L 547.59819 311.103136 
L 547.643176 308.275045 
L 547.844281 305.446955 
L 548.180511 302.618864 
L 548.620394 299.790773 
L 549.125763 296.962682 
L 549.655949 294.134591 
L 550.171698 291.3065 
L 550.638287 288.478409 
L 551.027592 285.650318 
L 551.319106 282.822227 
L 551.500125 279.994136 
L 551.565441 277.166045 
L 551.516843 274.337955 
L 551.362647 271.509864 
L 551.117295 268.681773 
L 550.800919 265.853682 
L 550.438652 263.025591 
L 550.059461 260.1975 
L 549.694364 257.369409 
L 549.374022 254.541318 
L 549.125914 251.713227 
L 548.971436 248.885136 
L 548.923355 246.057045 
L 548.984009 243.228955 
L 549.144519 240.400864 
L 549.385068 237.572773 
L 549.67609 234.744682 
L 549.980092 231.916591 
L 550.253754 229.0885 
L 550.450091 226.260409 
L 550.520628 223.432318 
L 550.417735 220.604227 
L 550.09747 217.776136 
L 549.52323 214.948045 
L 548.670379 212.119955 
L 547.531624 209.291864 
L 546.122455 206.463773 
L 544.48553 203.635682 
L 542.692637 200.807591 
L 540.842966 197.9795 
L 539.056883 195.151409 
L 537.465263 192.323318 
L 536.195455 189.495227 
L 535.355872 186.667136 
L 535.021818 183.839045 
L 535.225149 181.010955 
L 535.949792 178.182864 
L 537.134008 175.354773 
L 538.678942 172.526682 
L 540.461784 169.698591 
L 542.351054 166.8705 
L 544.221312 164.042409 
L 545.965053 161.214318 
L 547.500375 158.386227 
L 548.774078 155.558136 
L 549.760751 152.730045 
L 550.459079 149.901955 
L 550.886721 147.073864 
L 551.075031 144.245773 
L 551.064393 141.417682 
L 550.900511 138.589591 
L 550.631531 135.7615 
L 550.305662 132.933409 
L 549.968919 130.105318 
L 549.662783 127.277227 
L 549.421787 124.449136 
L 549.271293 121.621045 
L 549.225852 118.792955 
L 549.28854 115.964864 
L 549.451508 113.136773 
L 549.697763 110.308682 
L 550.003907 107.480591 
L 550.343395 104.6525 
L 550.689738 101.824409 
L 551.019185 98.996318 
L 551.312519 96.168227 
L 551.555852 93.340136 
L 551.740552 90.512045 
L 551.862541 87.683955 
L 551.921334 84.855864 
L 551.919163 82.027773 
L 551.860388 79.199682 
L 551.751322 76.371591 
L 551.600374 73.5435 
L 551.418348 70.715409 
L 551.21863 67.887318 
L 551.017016 65.059227 
L 550.831015 62.231136 
L 550.678585 59.403045 
L 550.576407 56.574955 
L 550.537978 53.746864 
L 550.571857 50.918773 
L 550.680427 48.090682 
L 550.85946 45.262591 
L 551.098594 42.4345 
L 556.377769 42.4345 
L 556.377769 42.4345 
L 556.616903 45.262591 
L 556.795936 48.090682 
L 556.904507 50.918773 
L 556.938385 53.746864 
L 556.899956 56.574955 
L 556.797778 59.403045 
L 556.645348 62.231136 
L 556.459348 65.059227 
L 556.257734 67.887318 
L 556.058016 70.715409 
L 555.87599 73.5435 
L 555.725042 76.371591 
L 555.615975 79.199682 
L 555.557201 82.027773 
L 555.555029 84.855864 
L 555.613823 87.683955 
L 555.735811 90.512045 
L 555.920512 93.340136 
L 556.163845 96.168227 
L 556.457178 98.996318 
L 556.786626 101.824409 
L 557.132969 104.6525 
L 557.472456 107.480591 
L 557.778601 110.308682 
L 558.024856 113.136773 
L 558.187824 115.964864 
L 558.250512 118.792955 
L 558.205071 121.621045 
L 558.054577 124.449136 
L 557.81358 127.277227 
L 557.507444 130.105318 
L 557.170701 132.933409 
L 556.844832 135.7615 
L 556.575853 138.589591 
L 556.411971 141.417682 
L 556.401333 144.245773 
L 556.589642 147.073864 
L 557.017285 149.901955 
L 557.715612 152.730045 
L 558.702286 155.558136 
L 559.975988 158.386227 
L 561.511311 161.214318 
L 563.255052 164.042409 
L 565.12531 166.8705 
L 567.014579 169.698591 
L 568.797422 172.526682 
L 570.342355 175.354773 
L 571.526571 178.182864 
L 572.251215 181.010955 
L 572.454545 183.839045 
L 572.120491 186.667136 
L 571.280909 189.495227 
L 570.011101 192.323318 
L 568.419481 195.151409 
L 566.633398 197.9795 
L 564.783727 200.807591 
L 562.990834 203.635682 
L 561.353908 206.463773 
L 559.944739 209.291864 
L 558.805985 212.119955 
L 557.953134 214.948045 
L 557.378894 217.776136 
L 557.058629 220.604227 
L 556.955736 223.432318 
L 557.026273 226.260409 
L 557.22261 229.0885 
L 557.496271 231.916591 
L 557.800273 234.744682 
L 558.091296 237.572773 
L 558.331844 240.400864 
L 558.492355 243.228955 
L 558.553009 246.057045 
L 558.504928 248.885136 
L 558.35045 251.713227 
L 558.102342 254.541318 
L 557.782 257.369409 
L 557.416903 260.1975 
L 557.037712 263.025591 
L 556.675444 265.853682 
L 556.359068 268.681773 
L 556.113717 271.509864 
L 555.959521 274.337955 
L 555.910923 277.166045 
L 555.976238 279.994136 
L 556.157258 282.822227 
L 556.448771 285.650318 
L 556.838077 288.478409 
L 557.304666 291.3065 
L 557.820414 294.134591 
L 558.350601 296.962682 
L 558.85597 299.790773 
L 559.295853 302.618864 
L 559.632083 305.446955 
L 559.833188 308.275045 
L 559.878173 311.103136 
L 559.759205 313.931227 
L 559.482634 316.759318 
L 559.068123 319.587409 
L 558.545994 322.4155 
z
" clip-path="url(#pe1b94cd89c)" style="fill: #1f77b4; fill-opacity: 0.3"/>
   </g>
   <g id="PolyCollection_8">
    <path d="M 646.697931 253.127273 
L 610.509341 253.127273 
L 610.080204 251.698944 
L 609.887273 250.270615 
L 609.937364 248.842287 
L 610.227885 247.413958 
L 610.747052 245.985629 
L 611.474672 244.5573 
L 612.383448 243.128972 
L 613.440654 241.700643 
L 614.610071 240.272314 
L 615.853997 238.843985 
L 617.135203 237.415657 
L 618.418675 235.987328 
L 619.673057 234.558999 
L 620.871698 233.13067 
L 621.993301 231.702342 
L 623.022151 230.274013 
L 623.947975 228.845684 
L 624.76549 227.417355 
L 625.473712 225.989027 
L 626.07512 224.560698 
L 626.574731 223.132369 
L 626.979183 221.70404 
L 627.295869 220.275712 
L 627.532168 218.847383 
L 627.694813 217.419054 
L 627.789399 215.990725 
L 627.820056 214.562397 
L 627.789274 213.134068 
L 627.697887 211.705739 
L 627.545207 210.27741 
L 627.329293 208.849082 
L 627.047365 207.420753 
L 626.696317 205.992424 
L 626.27334 204.564096 
L 625.776603 203.135767 
L 625.205968 201.707438 
L 624.563674 200.279109 
L 623.854958 198.850781 
L 623.088529 197.422452 
L 622.276837 195.994123 
L 621.436106 194.565794 
L 620.58605 193.137466 
L 619.749305 191.709137 
L 618.950537 190.280808 
L 618.215313 188.852479 
L 617.568768 187.424151 
L 617.034188 185.995822 
L 616.631612 184.567493 
L 616.376576 183.139164 
L 616.279105 181.710836 
L 616.343054 180.282507 
L 616.565853 178.854178 
L 616.938676 177.425849 
L 617.447037 175.997521 
L 618.071729 174.569192 
L 618.790041 173.140863 
L 619.57713 171.712534 
L 620.407446 170.284206 
L 621.25607 168.855877 
L 622.099893 167.427548 
L 622.91855 165.999219 
L 623.69505 164.570891 
L 624.41612 163.142562 
L 625.072235 161.714233 
L 625.657411 160.285904 
L 626.168781 158.857576 
L 626.606034 157.429247 
L 626.970773 156.000918 
L 627.265859 154.57259 
L 627.494775 153.144261 
L 627.661073 151.715932 
L 627.767919 150.287603 
L 627.817751 148.859275 
L 627.812088 147.430946 
L 627.751453 146.002617 
L 627.635444 144.574288 
L 627.462921 143.14596 
L 627.232308 141.717631 
L 626.941987 140.289302 
L 626.590759 138.860973 
L 626.178354 137.432645 
L 625.705937 136.004316 
L 625.176591 134.575987 
L 624.595723 133.147658 
L 623.971348 131.71933 
L 623.314221 130.291001 
L 622.637789 128.862672 
L 621.957923 127.434343 
L 621.29245 126.006015 
L 620.660478 124.577686 
L 620.081566 123.149357 
L 619.574763 121.721028 
L 619.157609 120.2927 
L 618.84515 118.864371 
L 618.649051 117.436042 
L 618.576889 116.007713 
L 618.631669 114.579385 
L 618.811622 113.151056 
L 619.110293 111.722727 
L 638.09698 111.722727 
L 638.09698 111.722727 
L 638.395651 113.151056 
L 638.575603 114.579385 
L 638.630383 116.007713 
L 638.558222 117.436042 
L 638.362123 118.864371 
L 638.049663 120.2927 
L 637.63251 121.721028 
L 637.125707 123.149357 
L 636.546794 124.577686 
L 635.914823 126.006015 
L 635.249349 127.434343 
L 634.569484 128.862672 
L 633.893052 130.291001 
L 633.235925 131.71933 
L 632.611549 133.147658 
L 632.030681 134.575987 
L 631.501336 136.004316 
L 631.028919 137.432645 
L 630.616513 138.860973 
L 630.265286 140.289302 
L 629.974964 141.717631 
L 629.744352 143.14596 
L 629.571829 144.574288 
L 629.45582 146.002617 
L 629.395185 147.430946 
L 629.389521 148.859275 
L 629.439354 150.287603 
L 629.546199 151.715932 
L 629.712498 153.144261 
L 629.941414 154.57259 
L 630.2365 156.000918 
L 630.601239 157.429247 
L 631.038491 158.857576 
L 631.549861 160.285904 
L 632.135038 161.714233 
L 632.791153 163.142562 
L 633.512222 164.570891 
L 634.288723 165.999219 
L 635.107379 167.427548 
L 635.951203 168.855877 
L 636.799827 170.284206 
L 637.630142 171.712534 
L 638.417232 173.140863 
L 639.135544 174.569192 
L 639.760236 175.997521 
L 640.268597 177.425849 
L 640.64142 178.854178 
L 640.864218 180.282507 
L 640.928168 181.710836 
L 640.830697 183.139164 
L 640.575661 184.567493 
L 640.173085 185.995822 
L 639.638505 187.424151 
L 638.991959 188.852479 
L 638.256736 190.280808 
L 637.457968 191.709137 
L 636.621223 193.137466 
L 635.771167 194.565794 
L 634.930435 195.994123 
L 634.118744 197.422452 
L 633.352314 198.850781 
L 632.643599 200.279109 
L 632.001305 201.707438 
L 631.430669 203.135767 
L 630.933933 204.564096 
L 630.510956 205.992424 
L 630.159908 207.420753 
L 629.87798 208.849082 
L 629.662066 210.27741 
L 629.509385 211.705739 
L 629.417999 213.134068 
L 629.387217 214.562397 
L 629.417874 215.990725 
L 629.51246 217.419054 
L 629.675105 218.847383 
L 629.911404 220.275712 
L 630.22809 221.70404 
L 630.632542 223.132369 
L 631.132153 224.560698 
L 631.73356 225.989027 
L 632.441783 227.417355 
L 633.259297 228.845684 
L 634.185121 230.274013 
L 635.213972 231.702342 
L 636.335575 233.13067 
L 637.534216 234.558999 
L 638.788597 235.987328 
L 640.07207 237.415657 
L 641.353276 238.843985 
L 642.597202 240.272314 
L 643.766619 241.700643 
L 644.823825 243.128972 
L 645.732601 244.5573 
L 646.460221 245.985629 
L 646.979387 247.413958 
L 647.269909 248.842287 
L 647.32 250.270615 
L 647.127069 251.698944 
L 646.697931 253.127273 
z
" clip-path="url(#pe1b94cd89c)" style="fill: #1f77b4; fill-opacity: 0.3"/>
   </g>
   <g id="PolyCollection_9">
    <path d="M 711.357082 323.829545 
L 695.5811 323.829545 
L 695.294044 322.401217 
L 695.094753 320.972888 
L 694.990033 319.544559 
L 694.983535 318.11623 
L 695.075539 316.687902 
L 695.262934 315.259573 
L 695.539384 313.831244 
L 695.895676 312.402916 
L 696.320219 310.974587 
L 696.799654 309.546258 
L 697.319533 308.117929 
L 697.86502 306.689601 
L 698.421564 305.261272 
L 698.975492 303.832943 
L 699.514503 302.404614 
L 700.028033 300.976286 
L 700.507468 299.547957 
L 700.946225 298.119628 
L 701.339696 296.691299 
L 701.68508 295.262971 
L 701.981131 293.834642 
L 702.227846 292.406313 
L 702.426129 290.977984 
L 702.577448 289.549656 
L 702.683532 288.121327 
L 702.7461 286.692998 
L 702.766662 285.264669 
L 702.746386 283.836341 
L 702.686054 282.408012 
L 702.586081 280.979683 
L 702.446621 279.551354 
L 702.267734 278.123026 
L 702.049608 276.694697 
L 701.792816 275.266368 
L 701.498591 273.838039 
L 701.169102 272.409711 
L 700.80769 270.981382 
L 700.41906 269.553053 
L 700.009389 268.124725 
L 699.586338 266.696396 
L 699.158952 265.268067 
L 698.737445 263.839738 
L 698.332864 262.41141 
L 697.956659 260.983081 
L 697.620173 259.554752 
L 697.334086 258.126423 
L 697.107863 256.698095 
L 696.949229 255.269766 
L 696.863732 253.841437 
L 696.854416 252.413108 
L 696.921647 250.98478 
L 697.063081 249.556451 
L 697.273809 248.128122 
L 697.546639 246.699793 
L 697.872509 245.271465 
L 698.240984 243.843136 
L 698.640809 242.414807 
L 699.060462 240.986478 
L 699.488681 239.55815 
L 699.914911 238.129821 
L 700.329662 236.701492 
L 700.724756 235.273163 
L 701.093439 233.844835 
L 701.430391 232.416506 
L 701.731612 230.988177 
L 701.994232 229.559848 
L 702.216238 228.13152 
L 702.396166 226.703191 
L 702.532763 225.274862 
L 702.62466 223.846534 
L 702.670062 222.418205 
L 702.666494 220.989876 
L 702.610607 219.561547 
L 702.498071 218.133219 
L 702.32357 216.70489 
L 702.080908 215.276561 
L 701.763245 213.848232 
L 701.363455 212.419904 
L 700.874616 210.991575 
L 700.290614 209.563246 
L 699.606833 208.134917 
L 698.820912 206.706589 
L 697.933508 205.27826 
L 696.949011 203.849931 
L 695.876151 202.421602 
L 694.728421 200.993274 
L 693.524256 199.564945 
L 692.286915 198.136616 
L 691.044014 196.708287 
L 689.82672 195.279959 
L 688.668601 193.85163 
L 687.604191 192.423301 
L 686.667345 190.994972 
L 685.889493 189.566644 
L 685.297912 188.138315 
L 684.914149 186.709986 
L 684.752727 185.281657 
L 684.820237 183.853329 
L 685.114892 182.425 
L 721.82329 182.425 
L 721.82329 182.425 
L 722.117945 183.853329 
L 722.185455 185.281657 
L 722.024033 186.709986 
L 721.64027 188.138315 
L 721.048689 189.566644 
L 720.270837 190.994972 
L 719.333991 192.423301 
L 718.269581 193.85163 
L 717.111462 195.279959 
L 715.894168 196.708287 
L 714.651267 198.136616 
L 713.413925 199.564945 
L 712.209761 200.993274 
L 711.062031 202.421602 
L 709.989171 203.849931 
L 709.004674 205.27826 
L 708.11727 206.706589 
L 707.331349 208.134917 
L 706.647568 209.563246 
L 706.063565 210.991575 
L 705.574727 212.419904 
L 705.174937 213.848232 
L 704.857274 215.276561 
L 704.614612 216.70489 
L 704.44011 218.133219 
L 704.327575 219.561547 
L 704.271688 220.989876 
L 704.26812 222.418205 
L 704.313522 223.846534 
L 704.405418 225.274862 
L 704.542016 226.703191 
L 704.721943 228.13152 
L 704.94395 229.559848 
L 705.20657 230.988177 
L 705.507791 232.416506 
L 705.844742 233.844835 
L 706.213426 235.273163 
L 706.608519 236.701492 
L 707.023271 238.129821 
L 707.449501 239.55815 
L 707.877719 240.986478 
L 708.297373 242.414807 
L 708.697198 243.843136 
L 709.065673 245.271465 
L 709.391543 246.699793 
L 709.664373 248.128122 
L 709.875101 249.556451 
L 710.016535 250.98478 
L 710.083765 252.413108 
L 710.07445 253.841437 
L 709.988953 255.269766 
L 709.830318 256.698095 
L 709.604096 258.126423 
L 709.318009 259.554752 
L 708.981523 260.983081 
L 708.605318 262.41141 
L 708.200737 263.839738 
L 707.77923 265.268067 
L 707.351844 266.696396 
L 706.928793 268.124725 
L 706.519122 269.553053 
L 706.130492 270.981382 
L 705.76908 272.409711 
L 705.439591 273.838039 
L 705.145366 275.266368 
L 704.888573 276.694697 
L 704.670447 278.123026 
L 704.491561 279.551354 
L 704.352101 280.979683 
L 704.252128 282.408012 
L 704.191796 283.836341 
L 704.17152 285.264669 
L 704.192081 286.692998 
L 704.254649 288.121327 
L 704.360733 289.549656 
L 704.512053 290.977984 
L 704.710335 292.406313 
L 704.957051 293.834642 
L 705.253102 295.262971 
L 705.598486 296.691299 
L 705.991957 298.119628 
L 706.430714 299.547957 
L 706.910149 300.976286 
L 707.423678 302.404614 
L 707.96269 303.832943 
L 708.516617 305.261272 
L 709.073161 306.689601 
L 709.618649 308.117929 
L 710.138528 309.546258 
L 710.617962 310.974587 
L 711.042506 312.402916 
L 711.398798 313.831244 
L 711.675248 315.259573 
L 711.862643 316.687902 
L 711.954647 318.11623 
L 711.948149 319.544559 
L 711.843429 320.972888 
L 711.644138 322.401217 
L 711.357082 323.829545 
z
" clip-path="url(#pe1b94cd89c)" style="fill: #1f77b4; fill-opacity: 0.3"/>
   </g>
   <g id="PolyCollection_10">
    <path d="M 778.707464 323.829545 
L 777.961626 323.829545 
L 777.874092 322.244101 
L 777.778144 320.658656 
L 777.676019 319.073211 
L 777.570428 317.487766 
L 777.464272 315.902321 
L 777.360352 314.316876 
L 777.261145 312.731431 
L 777.168727 311.145986 
L 777.084817 309.560541 
L 777.010899 307.975096 
L 776.948304 306.389652 
L 776.898179 304.804207 
L 776.861321 303.218762 
L 776.837926 301.633317 
L 776.827363 300.047872 
L 776.828087 298.462427 
L 776.83774 296.876982 
L 776.853424 295.291537 
L 776.87205 293.706092 
L 776.890664 292.120647 
L 776.906655 290.535202 
L 776.917829 288.949758 
L 776.922384 287.364313 
L 776.918851 285.778868 
L 776.906062 284.193423 
L 776.883141 282.607978 
L 776.849473 281.022533 
L 776.804566 279.437088 
L 776.747721 277.851643 
L 776.67748 276.266198 
L 776.590885 274.680753 
L 776.482646 273.095309 
L 776.344381 271.509864 
L 776.164071 269.924419 
L 775.925919 268.338974 
L 775.610759 266.753529 
L 775.197211 265.168084 
L 774.663729 263.582639 
L 773.99167 261.997194 
L 773.169278 260.411749 
L 772.196214 258.826304 
L 771.087856 257.24086 
L 769.878263 255.655415 
L 768.620608 254.06997 
L 767.384131 252.484525 
L 766.247384 250.89908 
L 765.288468 249.313635 
L 764.573945 247.72819 
L 764.148689 246.142745 
L 764.028933 244.5573 
L 764.20008 242.971855 
L 764.619667 241.38641 
L 765.224632 239.800966 
L 765.941077 238.215521 
L 766.69435 236.630076 
L 767.417557 235.044631 
L 768.057327 233.459186 
L 768.576529 231.873741 
L 768.954396 230.288296 
L 769.184874 228.702851 
L 769.274136 227.117406 
L 769.237963 225.531961 
L 769.099436 223.946517 
L 768.887091 222.361072 
L 768.633473 220.775627 
L 768.373909 219.190182 
L 768.145229 217.604737 
L 767.984141 216.019292 
L 767.925031 214.433847 
L 767.997072 212.848402 
L 768.220748 211.262957 
L 768.604124 209.677512 
L 769.139391 208.092067 
L 769.800303 206.506623 
L 770.541041 204.921178 
L 771.296941 203.335733 
L 771.987329 201.750288 
L 772.52068 200.164843 
L 772.802274 198.579398 
L 772.744447 196.993953 
L 772.279174 195.408508 
L 771.371971 193.823063 
L 770.034972 192.237618 
L 768.336009 190.652174 
L 766.400106 189.066729 
L 764.400581 187.481284 
L 762.53917 185.895839 
L 761.017675 184.310394 
L 760.006644 182.724949 
L 759.618182 181.139504 
L 759.889437 179.554059 
L 760.780527 177.968614 
L 762.186688 176.383169 
L 763.960676 174.797725 
L 765.939266 173.21228 
L 767.967598 171.626835 
L 769.916916 170.04139 
L 771.693867 168.455945 
L 773.242001 166.8705 
L 783.42709 166.8705 
L 783.42709 166.8705 
L 784.975224 168.455945 
L 786.752175 170.04139 
L 788.701493 171.626835 
L 790.729825 173.21228 
L 792.708415 174.797725 
L 794.482403 176.383169 
L 795.888563 177.968614 
L 796.779654 179.554059 
L 797.050909 181.139504 
L 796.662447 182.724949 
L 795.651416 184.310394 
L 794.129921 185.895839 
L 792.26851 187.481284 
L 790.268985 189.066729 
L 788.333082 190.652174 
L 786.634119 192.237618 
L 785.29712 193.823063 
L 784.389917 195.408508 
L 783.924644 196.993953 
L 783.866816 198.579398 
L 784.148411 200.164843 
L 784.681762 201.750288 
L 785.37215 203.335733 
L 786.12805 204.921178 
L 786.868788 206.506623 
L 787.5297 208.092067 
L 788.064967 209.677512 
L 788.448343 211.262957 
L 788.672019 212.848402 
L 788.74406 214.433847 
L 788.68495 216.019292 
L 788.523862 217.604737 
L 788.295182 219.190182 
L 788.035618 220.775627 
L 787.782 222.361072 
L 787.569655 223.946517 
L 787.431128 225.531961 
L 787.394955 227.117406 
L 787.484217 228.702851 
L 787.714695 230.288296 
L 788.092562 231.873741 
L 788.611764 233.459186 
L 789.251534 235.044631 
L 789.974741 236.630076 
L 790.728014 238.215521 
L 791.444459 239.800966 
L 792.049424 241.38641 
L 792.469011 242.971855 
L 792.640158 244.5573 
L 792.520402 246.142745 
L 792.095145 247.72819 
L 791.380622 249.313635 
L 790.421707 250.89908 
L 789.28496 252.484525 
L 788.048483 254.06997 
L 786.790828 255.655415 
L 785.581235 257.24086 
L 784.472877 258.826304 
L 783.499813 260.411749 
L 782.677421 261.997194 
L 782.005362 263.582639 
L 781.47188 265.168084 
L 781.058331 266.753529 
L 780.743172 268.338974 
L 780.50502 269.924419 
L 780.32471 271.509864 
L 780.186445 273.095309 
L 780.078206 274.680753 
L 779.991611 276.266198 
L 779.92137 277.851643 
L 779.864525 279.437088 
L 779.819618 281.022533 
L 779.78595 282.607978 
L 779.763029 284.193423 
L 779.75024 285.778868 
L 779.746707 287.364313 
L 779.751261 288.949758 
L 779.762436 290.535202 
L 779.778427 292.120647 
L 779.797041 293.706092 
L 779.815667 295.291537 
L 779.83135 296.876982 
L 779.841004 298.462427 
L 779.841727 300.047872 
L 779.831164 301.633317 
L 779.807769 303.218762 
L 779.770912 304.804207 
L 779.720787 306.389652 
L 779.658192 307.975096 
L 779.584274 309.560541 
L 779.500364 311.145986 
L 779.407946 312.731431 
L 779.308739 314.316876 
L 779.204819 315.902321 
L 779.098663 317.487766 
L 778.993072 319.073211 
L 778.890947 320.658656 
L 778.794999 322.244101 
L 778.707464 323.829545 
z
" clip-path="url(#pe1b94cd89c)" style="fill: #1f77b4; fill-opacity: 0.3"/>
   </g>
   <g id="matplotlib.axis_1">
    <g id="xtick_1">
     <g id="line2d_1">
      <defs>
       <path id="m4515a73a05" d="M 0 0 
L 0 3.5 
" style="stroke: #000000; stroke-width: 0.8"/>
      </defs>
      <g>
       <use xlink:href="#m4515a73a05" x="104.545455" y="337.97" style="stroke: #000000; stroke-width: 0.8"/>
      </g>
     </g>
     <g id="text_1">
      <!-- Grudger -->
      <g transform="translate(106.752955 377.89625)rotate(-90)scale(0.08 -0.08)">
       <defs>
        <path id="DejaVuSans-47" d="M 3809 666 
L 3809 1919 
L 2778 1919 
L 2778 2438 
L 4434 2438 
L 4434 434 
Q 4069 175 3628 42 
Q 3188 -91 2688 -91 
Q 1594 -91 976 548 
Q 359 1188 359 2328 
Q 359 3472 976 4111 
Q 1594 4750 2688 4750 
Q 3144 4750 3555 4637 
Q 3966 4525 4313 4306 
L 4313 3634 
Q 3963 3931 3569 4081 
Q 3175 4231 2741 4231 
Q 1884 4231 1454 3753 
Q 1025 3275 1025 2328 
Q 1025 1384 1454 906 
Q 1884 428 2741 428 
Q 3075 428 3337 486 
Q 3600 544 3809 666 
z
" transform="scale(0.015625)"/>
        <path id="DejaVuSans-72" d="M 2631 2963 
Q 2534 3019 2420 3045 
Q 2306 3072 2169 3072 
Q 1681 3072 1420 2755 
Q 1159 2438 1159 1844 
L 1159 0 
L 581 0 
L 581 3500 
L 1159 3500 
L 1159 2956 
Q 1341 3275 1631 3429 
Q 1922 3584 2338 3584 
Q 2397 3584 2469 3576 
Q 2541 3569 2628 3553 
L 2631 2963 
z
" transform="scale(0.015625)"/>
        <path id="DejaVuSans-75" d="M 544 1381 
L 544 3500 
L 1119 3500 
L 1119 1403 
Q 1119 906 1312 657 
Q 1506 409 1894 409 
Q 2359 409 2629 706 
Q 2900 1003 2900 1516 
L 2900 3500 
L 3475 3500 
L 3475 0 
L 2900 0 
L 2900 538 
Q 2691 219 2414 64 
Q 2138 -91 1772 -91 
Q 1169 -91 856 284 
Q 544 659 544 1381 
z
M 1991 3584 
L 1991 3584 
z
" transform="scale(0.015625)"/>
        <path id="DejaVuSans-64" d="M 2906 2969 
L 2906 4863 
L 3481 4863 
L 3481 0 
L 2906 0 
L 2906 525 
Q 2725 213 2448 61 
Q 2172 -91 1784 -91 
Q 1150 -91 751 415 
Q 353 922 353 1747 
Q 353 2572 751 3078 
Q 1150 3584 1784 3584 
Q 2172 3584 2448 3432 
Q 2725 3281 2906 2969 
z
M 947 1747 
Q 947 1113 1208 752 
Q 1469 391 1925 391 
Q 2381 391 2643 752 
Q 2906 1113 2906 1747 
Q 2906 2381 2643 2742 
Q 2381 3103 1925 3103 
Q 1469 3103 1208 2742 
Q 947 2381 947 1747 
z
" transform="scale(0.015625)"/>
        <path id="DejaVuSans-67" d="M 2906 1791 
Q 2906 2416 2648 2759 
Q 2391 3103 1925 3103 
Q 1463 3103 1205 2759 
Q 947 2416 947 1791 
Q 947 1169 1205 825 
Q 1463 481 1925 481 
Q 2391 481 2648 825 
Q 2906 1169 2906 1791 
z
M 3481 434 
Q 3481 -459 3084 -895 
Q 2688 -1331 1869 -1331 
Q 1566 -1331 1297 -1286 
Q 1028 -1241 775 -1147 
L 775 -588 
Q 1028 -725 1275 -790 
Q 1522 -856 1778 -856 
Q 2344 -856 2625 -561 
Q 2906 -266 2906 331 
L 2906 616 
Q 2728 306 2450 153 
Q 2172 0 1784 0 
Q 1141 0 747 490 
Q 353 981 353 1791 
Q 353 2603 747 3093 
Q 1141 3584 1784 3584 
Q 2172 3584 2450 3431 
Q 2728 3278 2906 2969 
L 2906 3500 
L 3481 3500 
L 3481 434 
z
" transform="scale(0.015625)"/>
        <path id="DejaVuSans-65" d="M 3597 1894 
L 3597 1613 
L 953 1613 
Q 991 1019 1311 708 
Q 1631 397 2203 397 
Q 2534 397 2845 478 
Q 3156 559 3463 722 
L 3463 178 
Q 3153 47 2828 -22 
Q 2503 -91 2169 -91 
Q 1331 -91 842 396 
Q 353 884 353 1716 
Q 353 2575 817 3079 
Q 1281 3584 2069 3584 
Q 2775 3584 3186 3129 
Q 3597 2675 3597 1894 
z
M 3022 2063 
Q 3016 2534 2758 2815 
Q 2500 3097 2075 3097 
Q 1594 3097 1305 2825 
Q 1016 2553 972 2059 
L 3022 2063 
z
" transform="scale(0.015625)"/>
       </defs>
       <use xlink:href="#DejaVuSans-47"/>
       <use xlink:href="#DejaVuSans-72" x="77.490234"/>
       <use xlink:href="#DejaVuSans-75" x="118.603516"/>
       <use xlink:href="#DejaVuSans-64" x="181.982422"/>
       <use xlink:href="#DejaVuSans-67" x="245.458984"/>
       <use xlink:href="#DejaVuSans-65" x="308.935547"/>
       <use xlink:href="#DejaVuSans-72" x="370.458984"/>
      </g>
     </g>
    </g>
    <g id="xtick_2">
     <g id="line2d_2">
      <g>
       <use xlink:href="#m4515a73a05" x="179.410909" y="337.97" style="stroke: #000000; stroke-width: 0.8"/>
      </g>
     </g>
     <g id="text_2">
      <!-- Tit For Tat -->
      <g transform="translate(181.618409 384.15)rotate(-90)scale(0.08 -0.08)">
       <defs>
        <path id="DejaVuSans-54" d="M -19 4666 
L 3928 4666 
L 3928 4134 
L 2272 4134 
L 2272 0 
L 1638 0 
L 1638 4134 
L -19 4134 
L -19 4666 
z
" transform="scale(0.015625)"/>
        <path id="DejaVuSans-69" d="M 603 3500 
L 1178 3500 
L 1178 0 
L 603 0 
L 603 3500 
z
M 603 4863 
L 1178 4863 
L 1178 4134 
L 603 4134 
L 603 4863 
z
" transform="scale(0.015625)"/>
        <path id="DejaVuSans-74" d="M 1172 4494 
L 1172 3500 
L 2356 3500 
L 2356 3053 
L 1172 3053 
L 1172 1153 
Q 1172 725 1289 603 
Q 1406 481 1766 481 
L 2356 481 
L 2356 0 
L 1766 0 
Q 1100 0 847 248 
Q 594 497 594 1153 
L 594 3053 
L 172 3053 
L 172 3500 
L 594 3500 
L 594 4494 
L 1172 4494 
z
" transform="scale(0.015625)"/>
        <path id="DejaVuSans-20" transform="scale(0.015625)"/>
        <path id="DejaVuSans-46" d="M 628 4666 
L 3309 4666 
L 3309 4134 
L 1259 4134 
L 1259 2759 
L 3109 2759 
L 3109 2228 
L 1259 2228 
L 1259 0 
L 628 0 
L 628 4666 
z
" transform="scale(0.015625)"/>
        <path id="DejaVuSans-6f" d="M 1959 3097 
Q 1497 3097 1228 2736 
Q 959 2375 959 1747 
Q 959 1119 1226 758 
Q 1494 397 1959 397 
Q 2419 397 2687 759 
Q 2956 1122 2956 1747 
Q 2956 2369 2687 2733 
Q 2419 3097 1959 3097 
z
M 1959 3584 
Q 2709 3584 3137 3096 
Q 3566 2609 3566 1747 
Q 3566 888 3137 398 
Q 2709 -91 1959 -91 
Q 1206 -91 779 398 
Q 353 888 353 1747 
Q 353 2609 779 3096 
Q 1206 3584 1959 3584 
z
" transform="scale(0.015625)"/>
        <path id="DejaVuSans-61" d="M 2194 1759 
Q 1497 1759 1228 1600 
Q 959 1441 959 1056 
Q 959 750 1161 570 
Q 1363 391 1709 391 
Q 2188 391 2477 730 
Q 2766 1069 2766 1631 
L 2766 1759 
L 2194 1759 
z
M 3341 1997 
L 3341 0 
L 2766 0 
L 2766 531 
Q 2569 213 2275 61 
Q 1981 -91 1556 -91 
Q 1019 -91 701 211 
Q 384 513 384 1019 
Q 384 1609 779 1909 
Q 1175 2209 1959 2209 
L 2766 2209 
L 2766 2266 
Q 2766 2663 2505 2880 
Q 2244 3097 1772 3097 
Q 1472 3097 1187 3025 
Q 903 2953 641 2809 
L 641 3341 
Q 956 3463 1253 3523 
Q 1550 3584 1831 3584 
Q 2591 3584 2966 3190 
Q 3341 2797 3341 1997 
z
" transform="scale(0.015625)"/>
       </defs>
       <use xlink:href="#DejaVuSans-54"/>
       <use xlink:href="#DejaVuSans-69" x="57.958984"/>
       <use xlink:href="#DejaVuSans-74" x="85.742188"/>
       <use xlink:href="#DejaVuSans-20" x="124.951172"/>
       <use xlink:href="#DejaVuSans-46" x="156.738281"/>
       <use xlink:href="#DejaVuSans-6f" x="210.632812"/>
       <use xlink:href="#DejaVuSans-72" x="271.814453"/>
       <use xlink:href="#DejaVuSans-20" x="312.927734"/>
       <use xlink:href="#DejaVuSans-54" x="344.714844"/>
       <use xlink:href="#DejaVuSans-61" x="389.298828"/>
       <use xlink:href="#DejaVuSans-74" x="450.578125"/>
      </g>
     </g>
    </g>
    <g id="xtick_3">
     <g id="line2d_3">
      <g>
       <use xlink:href="#m4515a73a05" x="254.276364" y="337.97" style="stroke: #000000; stroke-width: 0.8"/>
      </g>
     </g>
     <g id="text_3">
      <!-- Adaptive -->
      <g transform="translate(256.483864 380.37875)rotate(-90)scale(0.08 -0.08)">
       <defs>
        <path id="DejaVuSans-41" d="M 2188 4044 
L 1331 1722 
L 3047 1722 
L 2188 4044 
z
M 1831 4666 
L 2547 4666 
L 4325 0 
L 3669 0 
L 3244 1197 
L 1141 1197 
L 716 0 
L 50 0 
L 1831 4666 
z
" transform="scale(0.015625)"/>
        <path id="DejaVuSans-70" d="M 1159 525 
L 1159 -1331 
L 581 -1331 
L 581 3500 
L 1159 3500 
L 1159 2969 
Q 1341 3281 1617 3432 
Q 1894 3584 2278 3584 
Q 2916 3584 3314 3078 
Q 3713 2572 3713 1747 
Q 3713 922 3314 415 
Q 2916 -91 2278 -91 
Q 1894 -91 1617 61 
Q 1341 213 1159 525 
z
M 3116 1747 
Q 3116 2381 2855 2742 
Q 2594 3103 2138 3103 
Q 1681 3103 1420 2742 
Q 1159 2381 1159 1747 
Q 1159 1113 1420 752 
Q 1681 391 2138 391 
Q 2594 391 2855 752 
Q 3116 1113 3116 1747 
z
" transform="scale(0.015625)"/>
        <path id="DejaVuSans-76" d="M 191 3500 
L 800 3500 
L 1894 563 
L 2988 3500 
L 3597 3500 
L 2284 0 
L 1503 0 
L 191 3500 
z
" transform="scale(0.015625)"/>
       </defs>
       <use xlink:href="#DejaVuSans-41"/>
       <use xlink:href="#DejaVuSans-64" x="66.658203"/>
       <use xlink:href="#DejaVuSans-61" x="130.134766"/>
       <use xlink:href="#DejaVuSans-70" x="191.414062"/>
       <use xlink:href="#DejaVuSans-74" x="254.890625"/>
       <use xlink:href="#DejaVuSans-69" x="294.099609"/>
       <use xlink:href="#DejaVuSans-76" x="321.882812"/>
       <use xlink:href="#DejaVuSans-65" x="381.0625"/>
      </g>
     </g>
    </g>
    <g id="xtick_4">
     <g id="line2d_4">
      <g>
       <use xlink:href="#m4515a73a05" x="329.141818" y="337.97" style="stroke: #000000; stroke-width: 0.8"/>
      </g>
     </g>
     <g id="text_4">
      <!-- Defector -->
      <g transform="translate(331.349318 379.51)rotate(-90)scale(0.08 -0.08)">
       <defs>
        <path id="DejaVuSans-44" d="M 1259 4147 
L 1259 519 
L 2022 519 
Q 2988 519 3436 956 
Q 3884 1394 3884 2338 
Q 3884 3275 3436 3711 
Q 2988 4147 2022 4147 
L 1259 4147 
z
M 628 4666 
L 1925 4666 
Q 3281 4666 3915 4102 
Q 4550 3538 4550 2338 
Q 4550 1131 3912 565 
Q 3275 0 1925 0 
L 628 0 
L 628 4666 
z
" transform="scale(0.015625)"/>
        <path id="DejaVuSans-66" d="M 2375 4863 
L 2375 4384 
L 1825 4384 
Q 1516 4384 1395 4259 
Q 1275 4134 1275 3809 
L 1275 3500 
L 2222 3500 
L 2222 3053 
L 1275 3053 
L 1275 0 
L 697 0 
L 697 3053 
L 147 3053 
L 147 3500 
L 697 3500 
L 697 3744 
Q 697 4328 969 4595 
Q 1241 4863 1831 4863 
L 2375 4863 
z
" transform="scale(0.015625)"/>
        <path id="DejaVuSans-63" d="M 3122 3366 
L 3122 2828 
Q 2878 2963 2633 3030 
Q 2388 3097 2138 3097 
Q 1578 3097 1268 2742 
Q 959 2388 959 1747 
Q 959 1106 1268 751 
Q 1578 397 2138 397 
Q 2388 397 2633 464 
Q 2878 531 3122 666 
L 3122 134 
Q 2881 22 2623 -34 
Q 2366 -91 2075 -91 
Q 1284 -91 818 406 
Q 353 903 353 1747 
Q 353 2603 823 3093 
Q 1294 3584 2113 3584 
Q 2378 3584 2631 3529 
Q 2884 3475 3122 3366 
z
" transform="scale(0.015625)"/>
       </defs>
       <use xlink:href="#DejaVuSans-44"/>
       <use xlink:href="#DejaVuSans-65" x="77.001953"/>
       <use xlink:href="#DejaVuSans-66" x="138.525391"/>
       <use xlink:href="#DejaVuSans-65" x="173.730469"/>
       <use xlink:href="#DejaVuSans-63" x="235.253906"/>
       <use xlink:href="#DejaVuSans-74" x="290.234375"/>
       <use xlink:href="#DejaVuSans-6f" x="329.443359"/>
       <use xlink:href="#DejaVuSans-72" x="390.625"/>
      </g>
     </g>
    </g>
    <g id="xtick_5">
     <g id="line2d_5">
      <g>
       <use xlink:href="#m4515a73a05" x="404.007273" y="337.97" style="stroke: #000000; stroke-width: 0.8"/>
      </g>
     </g>
     <g id="text_5">
      <!-- Aggravater -->
      <g transform="translate(406.214773 389.77625)rotate(-90)scale(0.08 -0.08)">
       <use xlink:href="#DejaVuSans-41"/>
       <use xlink:href="#DejaVuSans-67" x="68.408203"/>
       <use xlink:href="#DejaVuSans-67" x="131.884766"/>
       <use xlink:href="#DejaVuSans-72" x="195.361328"/>
       <use xlink:href="#DejaVuSans-61" x="236.474609"/>
       <use xlink:href="#DejaVuSans-76" x="297.753906"/>
       <use xlink:href="#DejaVuSans-61" x="356.933594"/>
       <use xlink:href="#DejaVuSans-74" x="418.212891"/>
       <use xlink:href="#DejaVuSans-65" x="457.421875"/>
       <use xlink:href="#DejaVuSans-72" x="518.945312"/>
      </g>
     </g>
    </g>
    <g id="xtick_6">
     <g id="line2d_6">
      <g>
       <use xlink:href="#m4515a73a05" x="478.872727" y="337.97" style="stroke: #000000; stroke-width: 0.8"/>
      </g>
     </g>
     <g id="text_6">
      <!-- Random: 0.5 -->
      <g transform="translate(481.080227 396.0475)rotate(-90)scale(0.08 -0.08)">
       <defs>
        <path id="DejaVuSans-52" d="M 2841 2188 
Q 3044 2119 3236 1894 
Q 3428 1669 3622 1275 
L 4263 0 
L 3584 0 
L 2988 1197 
Q 2756 1666 2539 1819 
Q 2322 1972 1947 1972 
L 1259 1972 
L 1259 0 
L 628 0 
L 628 4666 
L 2053 4666 
Q 2853 4666 3247 4331 
Q 3641 3997 3641 3322 
Q 3641 2881 3436 2590 
Q 3231 2300 2841 2188 
z
M 1259 4147 
L 1259 2491 
L 2053 2491 
Q 2509 2491 2742 2702 
Q 2975 2913 2975 3322 
Q 2975 3731 2742 3939 
Q 2509 4147 2053 4147 
L 1259 4147 
z
" transform="scale(0.015625)"/>
        <path id="DejaVuSans-6e" d="M 3513 2113 
L 3513 0 
L 2938 0 
L 2938 2094 
Q 2938 2591 2744 2837 
Q 2550 3084 2163 3084 
Q 1697 3084 1428 2787 
Q 1159 2491 1159 1978 
L 1159 0 
L 581 0 
L 581 3500 
L 1159 3500 
L 1159 2956 
Q 1366 3272 1645 3428 
Q 1925 3584 2291 3584 
Q 2894 3584 3203 3211 
Q 3513 2838 3513 2113 
z
" transform="scale(0.015625)"/>
        <path id="DejaVuSans-6d" d="M 3328 2828 
Q 3544 3216 3844 3400 
Q 4144 3584 4550 3584 
Q 5097 3584 5394 3201 
Q 5691 2819 5691 2113 
L 5691 0 
L 5113 0 
L 5113 2094 
Q 5113 2597 4934 2840 
Q 4756 3084 4391 3084 
Q 3944 3084 3684 2787 
Q 3425 2491 3425 1978 
L 3425 0 
L 2847 0 
L 2847 2094 
Q 2847 2600 2669 2842 
Q 2491 3084 2119 3084 
Q 1678 3084 1418 2786 
Q 1159 2488 1159 1978 
L 1159 0 
L 581 0 
L 581 3500 
L 1159 3500 
L 1159 2956 
Q 1356 3278 1631 3431 
Q 1906 3584 2284 3584 
Q 2666 3584 2933 3390 
Q 3200 3197 3328 2828 
z
" transform="scale(0.015625)"/>
        <path id="DejaVuSans-3a" d="M 750 794 
L 1409 794 
L 1409 0 
L 750 0 
L 750 794 
z
M 750 3309 
L 1409 3309 
L 1409 2516 
L 750 2516 
L 750 3309 
z
" transform="scale(0.015625)"/>
        <path id="DejaVuSans-30" d="M 2034 4250 
Q 1547 4250 1301 3770 
Q 1056 3291 1056 2328 
Q 1056 1369 1301 889 
Q 1547 409 2034 409 
Q 2525 409 2770 889 
Q 3016 1369 3016 2328 
Q 3016 3291 2770 3770 
Q 2525 4250 2034 4250 
z
M 2034 4750 
Q 2819 4750 3233 4129 
Q 3647 3509 3647 2328 
Q 3647 1150 3233 529 
Q 2819 -91 2034 -91 
Q 1250 -91 836 529 
Q 422 1150 422 2328 
Q 422 3509 836 4129 
Q 1250 4750 2034 4750 
z
" transform="scale(0.015625)"/>
        <path id="DejaVuSans-2e" d="M 684 794 
L 1344 794 
L 1344 0 
L 684 0 
L 684 794 
z
" transform="scale(0.015625)"/>
        <path id="DejaVuSans-35" d="M 691 4666 
L 3169 4666 
L 3169 4134 
L 1269 4134 
L 1269 2991 
Q 1406 3038 1543 3061 
Q 1681 3084 1819 3084 
Q 2600 3084 3056 2656 
Q 3513 2228 3513 1497 
Q 3513 744 3044 326 
Q 2575 -91 1722 -91 
Q 1428 -91 1123 -41 
Q 819 9 494 109 
L 494 744 
Q 775 591 1075 516 
Q 1375 441 1709 441 
Q 2250 441 2565 725 
Q 2881 1009 2881 1497 
Q 2881 1984 2565 2268 
Q 2250 2553 1709 2553 
Q 1456 2553 1204 2497 
Q 953 2441 691 2322 
L 691 4666 
z
" transform="scale(0.015625)"/>
       </defs>
       <use xlink:href="#DejaVuSans-52"/>
       <use xlink:href="#DejaVuSans-61" x="67.232422"/>
       <use xlink:href="#DejaVuSans-6e" x="128.511719"/>
       <use xlink:href="#DejaVuSans-64" x="191.890625"/>
       <use xlink:href="#DejaVuSans-6f" x="255.367188"/>
       <use xlink:href="#DejaVuSans-6d" x="316.548828"/>
       <use xlink:href="#DejaVuSans-3a" x="413.960938"/>
       <use xlink:href="#DejaVuSans-20" x="447.652344"/>
       <use xlink:href="#DejaVuSans-30" x="479.439453"/>
       <use xlink:href="#DejaVuSans-2e" x="543.0625"/>
       <use xlink:href="#DejaVuSans-35" x="574.849609"/>
      </g>
     </g>
    </g>
    <g id="xtick_7">
     <g id="line2d_7">
      <g>
       <use xlink:href="#m4515a73a05" x="553.738182" y="337.97" style="stroke: #000000; stroke-width: 0.8"/>
      </g>
     </g>
     <g id="text_7">
      <!-- Deep QLearner -->
      <g transform="translate(555.945682 405.46625)rotate(-90)scale(0.08 -0.08)">
       <defs>
        <path id="DejaVuSans-51" d="M 2522 4238 
Q 1834 4238 1429 3725 
Q 1025 3213 1025 2328 
Q 1025 1447 1429 934 
Q 1834 422 2522 422 
Q 3209 422 3611 934 
Q 4013 1447 4013 2328 
Q 4013 3213 3611 3725 
Q 3209 4238 2522 4238 
z
M 3406 84 
L 4238 -825 
L 3475 -825 
L 2784 -78 
Q 2681 -84 2626 -87 
Q 2572 -91 2522 -91 
Q 1538 -91 948 567 
Q 359 1225 359 2328 
Q 359 3434 948 4092 
Q 1538 4750 2522 4750 
Q 3503 4750 4090 4092 
Q 4678 3434 4678 2328 
Q 4678 1516 4351 937 
Q 4025 359 3406 84 
z
" transform="scale(0.015625)"/>
        <path id="DejaVuSans-4c" d="M 628 4666 
L 1259 4666 
L 1259 531 
L 3531 531 
L 3531 0 
L 628 0 
L 628 4666 
z
" transform="scale(0.015625)"/>
       </defs>
       <use xlink:href="#DejaVuSans-44"/>
       <use xlink:href="#DejaVuSans-65" x="77.001953"/>
       <use xlink:href="#DejaVuSans-65" x="138.525391"/>
       <use xlink:href="#DejaVuSans-70" x="200.048828"/>
       <use xlink:href="#DejaVuSans-20" x="263.525391"/>
       <use xlink:href="#DejaVuSans-51" x="295.3125"/>
       <use xlink:href="#DejaVuSans-4c" x="374.023438"/>
       <use xlink:href="#DejaVuSans-65" x="427.986328"/>
       <use xlink:href="#DejaVuSans-61" x="489.509766"/>
       <use xlink:href="#DejaVuSans-72" x="550.789062"/>
       <use xlink:href="#DejaVuSans-6e" x="590.152344"/>
       <use xlink:href="#DejaVuSans-65" x="653.53125"/>
       <use xlink:href="#DejaVuSans-72" x="715.054688"/>
      </g>
     </g>
    </g>
    <g id="xtick_8">
     <g id="line2d_8">
      <g>
       <use xlink:href="#m4515a73a05" x="628.603636" y="337.97" style="stroke: #000000; stroke-width: 0.8"/>
      </g>
     </g>
     <g id="text_8">
      <!-- Alternator -->
      <g transform="translate(630.811136 385.165)rotate(-90)scale(0.08 -0.08)">
       <defs>
        <path id="DejaVuSans-6c" d="M 603 4863 
L 1178 4863 
L 1178 0 
L 603 0 
L 603 4863 
z
" transform="scale(0.015625)"/>
       </defs>
       <use xlink:href="#DejaVuSans-41"/>
       <use xlink:href="#DejaVuSans-6c" x="68.408203"/>
       <use xlink:href="#DejaVuSans-74" x="96.191406"/>
       <use xlink:href="#DejaVuSans-65" x="135.400391"/>
       <use xlink:href="#DejaVuSans-72" x="196.923828"/>
       <use xlink:href="#DejaVuSans-6e" x="236.287109"/>
       <use xlink:href="#DejaVuSans-61" x="299.666016"/>
       <use xlink:href="#DejaVuSans-74" x="360.945312"/>
       <use xlink:href="#DejaVuSans-6f" x="400.154297"/>
       <use xlink:href="#DejaVuSans-72" x="461.335938"/>
      </g>
     </g>
    </g>
    <g id="xtick_9">
     <g id="line2d_9">
      <g>
       <use xlink:href="#m4515a73a05" x="703.469091" y="337.97" style="stroke: #000000; stroke-width: 0.8"/>
      </g>
     </g>
     <g id="text_9">
      <!-- Cooperator -->
      <g transform="translate(705.676591 389.85875)rotate(-90)scale(0.08 -0.08)">
       <defs>
        <path id="DejaVuSans-43" d="M 4122 4306 
L 4122 3641 
Q 3803 3938 3442 4084 
Q 3081 4231 2675 4231 
Q 1875 4231 1450 3742 
Q 1025 3253 1025 2328 
Q 1025 1406 1450 917 
Q 1875 428 2675 428 
Q 3081 428 3442 575 
Q 3803 722 4122 1019 
L 4122 359 
Q 3791 134 3420 21 
Q 3050 -91 2638 -91 
Q 1578 -91 968 557 
Q 359 1206 359 2328 
Q 359 3453 968 4101 
Q 1578 4750 2638 4750 
Q 3056 4750 3426 4639 
Q 3797 4528 4122 4306 
z
" transform="scale(0.015625)"/>
       </defs>
       <use xlink:href="#DejaVuSans-43"/>
       <use xlink:href="#DejaVuSans-6f" x="69.824219"/>
       <use xlink:href="#DejaVuSans-6f" x="131.005859"/>
       <use xlink:href="#DejaVuSans-70" x="192.1875"/>
       <use xlink:href="#DejaVuSans-65" x="255.664062"/>
       <use xlink:href="#DejaVuSans-72" x="317.1875"/>
       <use xlink:href="#DejaVuSans-61" x="358.300781"/>
       <use xlink:href="#DejaVuSans-74" x="419.580078"/>
       <use xlink:href="#DejaVuSans-6f" x="458.789062"/>
       <use xlink:href="#DejaVuSans-72" x="519.970703"/>
      </g>
     </g>
    </g>
    <g id="xtick_10">
     <g id="line2d_10">
      <g>
       <use xlink:href="#m4515a73a05" x="778.334545" y="337.97" style="stroke: #000000; stroke-width: 0.8"/>
      </g>
     </g>
     <g id="text_10">
      <!-- Mediocre QLearner -->
      <g transform="translate(780.542045 420.83375)rotate(-90)scale(0.08 -0.08)">
       <defs>
        <path id="DejaVuSans-4d" d="M 628 4666 
L 1569 4666 
L 2759 1491 
L 3956 4666 
L 4897 4666 
L 4897 0 
L 4281 0 
L 4281 4097 
L 3078 897 
L 2444 897 
L 1241 4097 
L 1241 0 
L 628 0 
L 628 4666 
z
" transform="scale(0.015625)"/>
       </defs>
       <use xlink:href="#DejaVuSans-4d"/>
       <use xlink:href="#DejaVuSans-65" x="86.279297"/>
       <use xlink:href="#DejaVuSans-64" x="147.802734"/>
       <use xlink:href="#DejaVuSans-69" x="211.279297"/>
       <use xlink:href="#DejaVuSans-6f" x="239.0625"/>
       <use xlink:href="#DejaVuSans-63" x="300.244141"/>
       <use xlink:href="#DejaVuSans-72" x="355.224609"/>
       <use xlink:href="#DejaVuSans-65" x="394.087891"/>
       <use xlink:href="#DejaVuSans-20" x="455.611328"/>
       <use xlink:href="#DejaVuSans-51" x="487.398438"/>
       <use xlink:href="#DejaVuSans-4c" x="566.109375"/>
       <use xlink:href="#DejaVuSans-65" x="620.072266"/>
       <use xlink:href="#DejaVuSans-61" x="681.595703"/>
       <use xlink:href="#DejaVuSans-72" x="742.875"/>
       <use xlink:href="#DejaVuSans-6e" x="782.238281"/>
       <use xlink:href="#DejaVuSans-65" x="845.617188"/>
       <use xlink:href="#DejaVuSans-72" x="907.140625"/>
      </g>
     </g>
    </g>
   </g>
   <g id="matplotlib.axis_2">
    <g id="ytick_1">
     <g id="line2d_11">
      <defs>
       <path id="m22439f72e6" d="M 0 0 
L -3.5 0 
" style="stroke: #000000; stroke-width: 0.8"/>
      </defs>
      <g>
       <use xlink:href="#m22439f72e6" x="29.68" y="295.548636" style="stroke: #000000; stroke-width: 0.8"/>
      </g>
     </g>
     <g id="text_11">
      <!-- 4 -->
      <g transform="translate(10.88625 298.588011)scale(0.08 -0.08)">
       <defs>
        <path id="DejaVuSans-2212" d="M 678 2272 
L 4684 2272 
L 4684 1741 
L 678 1741 
L 678 2272 
z
" transform="scale(0.015625)"/>
        <path id="DejaVuSans-34" d="M 2419 4116 
L 825 1625 
L 2419 1625 
L 2419 4116 
z
M 2253 4666 
L 3047 4666 
L 3047 1625 
L 3713 1625 
L 3713 1100 
L 3047 1100 
L 3047 0 
L 2419 0 
L 2419 1100 
L 313 1100 
L 313 1709 
L 2253 4666 
z
" transform="scale(0.015625)"/>
       </defs>
       <use xlink:href="#DejaVuSans-2212"/>
       <use xlink:href="#DejaVuSans-34" x="83.789062"/>
      </g>
     </g>
    </g>
    <g id="ytick_2">
     <g id="line2d_12">
      <g>
       <use xlink:href="#m22439f72e6" x="29.68" y="238.986818" style="stroke: #000000; stroke-width: 0.8"/>
      </g>
     </g>
     <g id="text_12">
      <!-- 2 -->
      <g transform="translate(10.88625 242.026193)scale(0.08 -0.08)">
       <defs>
        <path id="DejaVuSans-32" d="M 1228 531 
L 3431 531 
L 3431 0 
L 469 0 
L 469 531 
Q 828 903 1448 1529 
Q 2069 2156 2228 2338 
Q 2531 2678 2651 2914 
Q 2772 3150 2772 3378 
Q 2772 3750 2511 3984 
Q 2250 4219 1831 4219 
Q 1534 4219 1204 4116 
Q 875 4013 500 3803 
L 500 4441 
Q 881 4594 1212 4672 
Q 1544 4750 1819 4750 
Q 2544 4750 2975 4387 
Q 3406 4025 3406 3419 
Q 3406 3131 3298 2873 
Q 3191 2616 2906 2266 
Q 2828 2175 2409 1742 
Q 1991 1309 1228 531 
z
" transform="scale(0.015625)"/>
       </defs>
       <use xlink:href="#DejaVuSans-2212"/>
       <use xlink:href="#DejaVuSans-32" x="83.789062"/>
      </g>
     </g>
    </g>
    <g id="ytick_3">
     <g id="line2d_13">
      <g>
       <use xlink:href="#m22439f72e6" x="29.68" y="182.425" style="stroke: #000000; stroke-width: 0.8"/>
      </g>
     </g>
     <g id="text_13">
      <!-- 0 -->
      <g transform="translate(17.59 185.464375)scale(0.08 -0.08)">
       <use xlink:href="#DejaVuSans-30"/>
      </g>
     </g>
    </g>
    <g id="ytick_4">
     <g id="line2d_14">
      <g>
       <use xlink:href="#m22439f72e6" x="29.68" y="125.863182" style="stroke: #000000; stroke-width: 0.8"/>
      </g>
     </g>
     <g id="text_14">
      <!-- 2 -->
      <g transform="translate(17.59 128.902557)scale(0.08 -0.08)">
       <use xlink:href="#DejaVuSans-32"/>
      </g>
     </g>
    </g>
    <g id="ytick_5">
     <g id="line2d_15">
      <g>
       <use xlink:href="#m22439f72e6" x="29.68" y="69.301364" style="stroke: #000000; stroke-width: 0.8"/>
      </g>
     </g>
     <g id="text_15">
      <!-- 4 -->
      <g transform="translate(17.59 72.340739)scale(0.08 -0.08)">
       <use xlink:href="#DejaVuSans-34"/>
      </g>
     </g>
    </g>
   </g>
   <g id="LineCollection_1">
    <path d="M 95.187273 182.425 
L 113.903636 182.425 
" clip-path="url(#pe1b94cd89c)" style="fill: none; stroke: #1f77b4; stroke-width: 1.5"/>
    <path d="M 170.052727 182.425 
L 188.769091 182.425 
" clip-path="url(#pe1b94cd89c)" style="fill: none; stroke: #1f77b4; stroke-width: 1.5"/>
    <path d="M 244.918182 182.425 
L 263.634545 182.425 
" clip-path="url(#pe1b94cd89c)" style="fill: none; stroke: #1f77b4; stroke-width: 1.5"/>
    <path d="M 319.783636 173.940727 
L 338.5 173.940727 
" clip-path="url(#pe1b94cd89c)" style="fill: none; stroke: #1f77b4; stroke-width: 1.5"/>
    <path d="M 394.649091 179.596909 
L 413.365455 179.596909 
" clip-path="url(#pe1b94cd89c)" style="fill: none; stroke: #1f77b4; stroke-width: 1.5"/>
    <path d="M 469.514545 182.425 
L 488.230909 182.425 
" clip-path="url(#pe1b94cd89c)" style="fill: none; stroke: #1f77b4; stroke-width: 1.5"/>
    <path d="M 544.38 182.425 
L 563.096364 182.425 
" clip-path="url(#pe1b94cd89c)" style="fill: none; stroke: #1f77b4; stroke-width: 1.5"/>
    <path d="M 619.245455 182.425 
L 637.961818 182.425 
" clip-path="url(#pe1b94cd89c)" style="fill: none; stroke: #1f77b4; stroke-width: 1.5"/>
    <path d="M 694.110909 190.909273 
L 712.827273 190.909273 
" clip-path="url(#pe1b94cd89c)" style="fill: none; stroke: #1f77b4; stroke-width: 1.5"/>
    <path d="M 768.976364 216.362091 
L 787.692727 216.362091 
" clip-path="url(#pe1b94cd89c)" style="fill: none; stroke: #1f77b4; stroke-width: 1.5"/>
   </g>
   <g id="patch_3">
    <path d="M 29.68 337.97 
L 29.68 26.88 
" style="fill: none; stroke: #000000; stroke-width: 0.8; stroke-linejoin: miter; stroke-linecap: square"/>
   </g>
   <g id="patch_4">
    <path d="M 853.2 337.97 
L 853.2 26.88 
" style="fill: none; stroke: #000000; stroke-width: 0.8; stroke-linejoin: miter; stroke-linecap: square"/>
   </g>
   <g id="patch_5">
    <path d="M 29.68 337.97 
L 853.2 337.97 
" style="fill: none; stroke: #000000; stroke-width: 0.8; stroke-linejoin: miter; stroke-linecap: square"/>
   </g>
   <g id="patch_6">
    <path d="M 29.68 26.88 
L 853.2 26.88 
" style="fill: none; stroke: #000000; stroke-width: 0.8; stroke-linejoin: miter; stroke-linecap: square"/>
   </g>
   <g id="text_16">
    <!-- Payoff differences - turns: 200, repetitions: 200, strategies: 10.  -->
    <g transform="translate(250.417813 20.88)scale(0.12 -0.12)">
     <defs>
      <path id="DejaVuSans-50" d="M 1259 4147 
L 1259 2394 
L 2053 2394 
Q 2494 2394 2734 2622 
Q 2975 2850 2975 3272 
Q 2975 3691 2734 3919 
Q 2494 4147 2053 4147 
L 1259 4147 
z
M 628 4666 
L 2053 4666 
Q 2838 4666 3239 4311 
Q 3641 3956 3641 3272 
Q 3641 2581 3239 2228 
Q 2838 1875 2053 1875 
L 1259 1875 
L 1259 0 
L 628 0 
L 628 4666 
z
" transform="scale(0.015625)"/>
      <path id="DejaVuSans-79" d="M 2059 -325 
Q 1816 -950 1584 -1140 
Q 1353 -1331 966 -1331 
L 506 -1331 
L 506 -850 
L 844 -850 
Q 1081 -850 1212 -737 
Q 1344 -625 1503 -206 
L 1606 56 
L 191 3500 
L 800 3500 
L 1894 763 
L 2988 3500 
L 3597 3500 
L 2059 -325 
z
" transform="scale(0.015625)"/>
      <path id="DejaVuSans-73" d="M 2834 3397 
L 2834 2853 
Q 2591 2978 2328 3040 
Q 2066 3103 1784 3103 
Q 1356 3103 1142 2972 
Q 928 2841 928 2578 
Q 928 2378 1081 2264 
Q 1234 2150 1697 2047 
L 1894 2003 
Q 2506 1872 2764 1633 
Q 3022 1394 3022 966 
Q 3022 478 2636 193 
Q 2250 -91 1575 -91 
Q 1294 -91 989 -36 
Q 684 19 347 128 
L 347 722 
Q 666 556 975 473 
Q 1284 391 1588 391 
Q 1994 391 2212 530 
Q 2431 669 2431 922 
Q 2431 1156 2273 1281 
Q 2116 1406 1581 1522 
L 1381 1569 
Q 847 1681 609 1914 
Q 372 2147 372 2553 
Q 372 3047 722 3315 
Q 1072 3584 1716 3584 
Q 2034 3584 2315 3537 
Q 2597 3491 2834 3397 
z
" transform="scale(0.015625)"/>
      <path id="DejaVuSans-2d" d="M 313 2009 
L 1997 2009 
L 1997 1497 
L 313 1497 
L 313 2009 
z
" transform="scale(0.015625)"/>
      <path id="DejaVuSans-2c" d="M 750 794 
L 1409 794 
L 1409 256 
L 897 -744 
L 494 -744 
L 750 256 
L 750 794 
z
" transform="scale(0.015625)"/>
      <path id="DejaVuSans-31" d="M 794 531 
L 1825 531 
L 1825 4091 
L 703 3866 
L 703 4441 
L 1819 4666 
L 2450 4666 
L 2450 531 
L 3481 531 
L 3481 0 
L 794 0 
L 794 531 
z
" transform="scale(0.015625)"/>
     </defs>
     <use xlink:href="#DejaVuSans-50"/>
     <use xlink:href="#DejaVuSans-61" x="55.802734"/>
     <use xlink:href="#DejaVuSans-79" x="117.082031"/>
     <use xlink:href="#DejaVuSans-6f" x="176.261719"/>
     <use xlink:href="#DejaVuSans-66" x="237.443359"/>
     <use xlink:href="#DejaVuSans-66" x="272.648438"/>
     <use xlink:href="#DejaVuSans-20" x="307.853516"/>
     <use xlink:href="#DejaVuSans-64" x="339.640625"/>
     <use xlink:href="#DejaVuSans-69" x="403.117188"/>
     <use xlink:href="#DejaVuSans-66" x="430.900391"/>
     <use xlink:href="#DejaVuSans-66" x="466.105469"/>
     <use xlink:href="#DejaVuSans-65" x="501.310547"/>
     <use xlink:href="#DejaVuSans-72" x="562.833984"/>
     <use xlink:href="#DejaVuSans-65" x="601.697266"/>
     <use xlink:href="#DejaVuSans-6e" x="663.220703"/>
     <use xlink:href="#DejaVuSans-63" x="726.599609"/>
     <use xlink:href="#DejaVuSans-65" x="781.580078"/>
     <use xlink:href="#DejaVuSans-73" x="843.103516"/>
     <use xlink:href="#DejaVuSans-20" x="895.203125"/>
     <use xlink:href="#DejaVuSans-2d" x="926.990234"/>
     <use xlink:href="#DejaVuSans-20" x="963.074219"/>
     <use xlink:href="#DejaVuSans-74" x="994.861328"/>
     <use xlink:href="#DejaVuSans-75" x="1034.070312"/>
     <use xlink:href="#DejaVuSans-72" x="1097.449219"/>
     <use xlink:href="#DejaVuSans-6e" x="1136.8125"/>
     <use xlink:href="#DejaVuSans-73" x="1200.191406"/>
     <use xlink:href="#DejaVuSans-3a" x="1252.291016"/>
     <use xlink:href="#DejaVuSans-20" x="1285.982422"/>
     <use xlink:href="#DejaVuSans-32" x="1317.769531"/>
     <use xlink:href="#DejaVuSans-30" x="1381.392578"/>
     <use xlink:href="#DejaVuSans-30" x="1445.015625"/>
     <use xlink:href="#DejaVuSans-2c" x="1508.638672"/>
     <use xlink:href="#DejaVuSans-20" x="1540.425781"/>
     <use xlink:href="#DejaVuSans-72" x="1572.212891"/>
     <use xlink:href="#DejaVuSans-65" x="1611.076172"/>
     <use xlink:href="#DejaVuSans-70" x="1672.599609"/>
     <use xlink:href="#DejaVuSans-65" x="1736.076172"/>
     <use xlink:href="#DejaVuSans-74" x="1797.599609"/>
     <use xlink:href="#DejaVuSans-69" x="1836.808594"/>
     <use xlink:href="#DejaVuSans-74" x="1864.591797"/>
     <use xlink:href="#DejaVuSans-69" x="1903.800781"/>
     <use xlink:href="#DejaVuSans-6f" x="1931.583984"/>
     <use xlink:href="#DejaVuSans-6e" x="1992.765625"/>
     <use xlink:href="#DejaVuSans-73" x="2056.144531"/>
     <use xlink:href="#DejaVuSans-3a" x="2108.244141"/>
     <use xlink:href="#DejaVuSans-20" x="2141.935547"/>
     <use xlink:href="#DejaVuSans-32" x="2173.722656"/>
     <use xlink:href="#DejaVuSans-30" x="2237.345703"/>
     <use xlink:href="#DejaVuSans-30" x="2300.96875"/>
     <use xlink:href="#DejaVuSans-2c" x="2364.591797"/>
     <use xlink:href="#DejaVuSans-20" x="2396.378906"/>
     <use xlink:href="#DejaVuSans-73" x="2428.166016"/>
     <use xlink:href="#DejaVuSans-74" x="2480.265625"/>
     <use xlink:href="#DejaVuSans-72" x="2519.474609"/>
     <use xlink:href="#DejaVuSans-61" x="2560.587891"/>
     <use xlink:href="#DejaVuSans-74" x="2621.867188"/>
     <use xlink:href="#DejaVuSans-65" x="2661.076172"/>
     <use xlink:href="#DejaVuSans-67" x="2722.599609"/>
     <use xlink:href="#DejaVuSans-69" x="2786.076172"/>
     <use xlink:href="#DejaVuSans-65" x="2813.859375"/>
     <use xlink:href="#DejaVuSans-73" x="2875.382812"/>
     <use xlink:href="#DejaVuSans-3a" x="2927.482422"/>
     <use xlink:href="#DejaVuSans-20" x="2961.173828"/>
     <use xlink:href="#DejaVuSans-31" x="2992.960938"/>
     <use xlink:href="#DejaVuSans-30" x="3056.583984"/>
     <use xlink:href="#DejaVuSans-2e" x="3120.207031"/>
     <use xlink:href="#DejaVuSans-20" x="3151.994141"/>
    </g>
   </g>
  </g>
 </g>
 <defs>
  <clipPath id="pe1b94cd89c">
   <rect x="29.68" y="26.88" width="823.52" height="311.09"/>
  </clipPath>
 </defs>
</svg>
