<?xml version="1.0" encoding="utf-8" standalone="no"?>
<!DOCTYPE svg PUBLIC "-//W3C//DTD SVG 1.1//EN"
  "http://www.w3.org/Graphics/SVG/1.1/DTD/svg11.dtd">
<svg xmlns:xlink="http://www.w3.org/1999/xlink" width="864pt" height="432pt" viewBox="0 0 864 432" xmlns="http://www.w3.org/2000/svg" version="1.1">
 <metadata>
  <rdf:RDF xmlns:dc="http://purl.org/dc/elements/1.1/" xmlns:cc="http://creativecommons.org/ns#" xmlns:rdf="http://www.w3.org/1999/02/22-rdf-syntax-ns#">
   <cc:Work>
    <dc:type rdf:resource="http://purl.org/dc/dcmitype/StillImage"/>
    <dc:date>2022-09-25T13:00:27.990791</dc:date>
    <dc:format>image/svg+xml</dc:format>
    <dc:creator>
     <cc:Agent>
      <dc:title>Matplotlib v3.5.1, https://matplotlib.org/</dc:title>
     </cc:Agent>
    </dc:creator>
   </cc:Work>
  </rdf:RDF>
 </metadata>
 <defs>
  <style type="text/css">*{stroke-linejoin: round; stroke-linecap: butt}</style>
 </defs>
 <g id="figure_1">
  <g id="patch_1">
   <path d="M 0 432 
L 864 432 
L 864 0 
L 0 0 
z
" style="fill: #ffffff"/>
  </g>
  <g id="axes_1">
   <g id="patch_2">
    <path d="M 22.93 337.97 
L 853.2 337.97 
L 853.2 26.88 
L 22.93 26.88 
z
" style="fill: #ffffff"/>
   </g>
   <g id="PolyCollection_1">
    <path d="M 106.50468 73.5435 
L 90.313502 73.5435 
L 90.317982 73.229268 
L 90.334543 72.915035 
L 90.363065 72.600803 
L 90.403369 72.286571 
L 90.455216 71.972338 
L 90.51831 71.658106 
L 90.592296 71.343874 
L 90.676767 71.029641 
L 90.771262 70.715409 
L 90.875267 70.401177 
L 90.988224 70.086944 
L 91.109528 69.772712 
L 91.238534 69.45848 
L 91.374556 69.144247 
L 91.516875 68.830015 
L 91.66474 68.515783 
L 91.817373 68.201551 
L 91.973971 67.887318 
L 92.133712 67.573086 
L 92.295756 67.258854 
L 92.459249 66.944621 
L 92.62333 66.630389 
L 92.78713 66.316157 
L 92.949777 66.001924 
L 93.1104 65.687692 
L 93.268131 65.37346 
L 93.422107 65.059227 
L 93.571475 64.744995 
L 93.715392 64.430763 
L 93.85303 64.11653 
L 93.983576 63.802298 
L 94.106234 63.488066 
L 94.220227 63.173833 
L 94.324802 62.859601 
L 94.419226 62.545369 
L 94.502793 62.231136 
L 94.574821 61.916904 
L 94.634658 61.602672 
L 94.681678 61.288439 
L 94.715289 60.974207 
L 94.734927 60.659975 
L 94.740065 60.345742 
L 94.73021 60.03151 
L 94.704904 59.717278 
L 94.663731 59.403045 
L 94.606312 59.088813 
L 94.532314 58.774581 
L 94.441445 58.460348 
L 94.333461 58.146116 
L 94.20817 57.831884 
L 94.065426 57.517652 
L 93.905141 57.203419 
L 93.727282 56.889187 
L 93.531876 56.574955 
L 93.319009 56.260722 
L 93.088834 55.94649 
L 92.841569 55.632258 
L 92.577501 55.318025 
L 92.296988 55.003793 
L 92.000461 54.689561 
L 91.688426 54.375328 
L 91.361465 54.061096 
L 91.020236 53.746864 
L 90.665476 53.432631 
L 90.298 53.118399 
L 89.918702 52.804167 
L 89.528552 52.489934 
L 89.128595 52.175702 
L 88.719951 51.86147 
L 88.303812 51.547237 
L 87.881439 51.233005 
L 87.454155 50.918773 
L 87.023346 50.60454 
L 86.590451 50.290308 
L 86.156961 49.976076 
L 85.724408 49.661843 
L 85.294361 49.347611 
L 84.868419 49.033379 
L 84.4482 48.719146 
L 84.035336 48.404914 
L 83.631462 48.090682 
L 83.238207 47.776449 
L 82.857188 47.462217 
L 82.489994 47.147985 
L 82.138182 46.833753 
L 81.803264 46.51952 
L 81.486699 46.205288 
L 81.189884 45.891056 
L 80.914143 45.576823 
L 80.660718 45.262591 
L 80.430763 44.948359 
L 80.225335 44.634126 
L 80.045385 44.319894 
L 79.891753 44.005662 
L 79.765163 43.691429 
L 79.666215 43.377197 
L 79.595383 43.062965 
L 79.553014 42.748732 
L 79.539318 42.4345 
L 117.278864 42.4345 
L 117.278864 42.4345 
L 117.265168 42.748732 
L 117.222798 43.062965 
L 117.151967 43.377197 
L 117.053019 43.691429 
L 116.926429 44.005662 
L 116.772797 44.319894 
L 116.592847 44.634126 
L 116.387418 44.948359 
L 116.157464 45.262591 
L 115.904039 45.576823 
L 115.628298 45.891056 
L 115.331483 46.205288 
L 115.014918 46.51952 
L 114.68 46.833753 
L 114.328188 47.147985 
L 113.960994 47.462217 
L 113.579974 47.776449 
L 113.18672 48.090682 
L 112.782846 48.404914 
L 112.369982 48.719146 
L 111.949763 49.033379 
L 111.523821 49.347611 
L 111.093774 49.661843 
L 110.661221 49.976076 
L 110.227731 50.290308 
L 109.794836 50.60454 
L 109.364027 50.918773 
L 108.936743 51.233005 
L 108.514369 51.547237 
L 108.098231 51.86147 
L 107.689587 52.175702 
L 107.28963 52.489934 
L 106.899479 52.804167 
L 106.520181 53.118399 
L 106.152706 53.432631 
L 105.797946 53.746864 
L 105.456717 54.061096 
L 105.129755 54.375328 
L 104.81772 54.689561 
L 104.521194 55.003793 
L 104.240681 55.318025 
L 103.976613 55.632258 
L 103.729348 55.94649 
L 103.499173 56.260722 
L 103.286306 56.574955 
L 103.0909 56.889187 
L 102.913041 57.203419 
L 102.752756 57.517652 
L 102.610012 57.831884 
L 102.48472 58.146116 
L 102.376737 58.460348 
L 102.285868 58.774581 
L 102.211869 59.088813 
L 102.154451 59.403045 
L 102.113278 59.717278 
L 102.087972 60.03151 
L 102.078117 60.345742 
L 102.083255 60.659975 
L 102.102893 60.974207 
L 102.136503 61.288439 
L 102.183524 61.602672 
L 102.24336 61.916904 
L 102.315389 62.231136 
L 102.398956 62.545369 
L 102.49338 62.859601 
L 102.597955 63.173833 
L 102.711948 63.488066 
L 102.834606 63.802298 
L 102.965151 64.11653 
L 103.10279 64.430763 
L 103.246707 64.744995 
L 103.396075 65.059227 
L 103.550051 65.37346 
L 103.707782 65.687692 
L 103.868405 66.001924 
L 104.031052 66.316157 
L 104.194852 66.630389 
L 104.358933 66.944621 
L 104.522426 67.258854 
L 104.68447 67.573086 
L 104.84421 67.887318 
L 105.000809 68.201551 
L 105.153442 68.515783 
L 105.301307 68.830015 
L 105.443626 69.144247 
L 105.579648 69.45848 
L 105.708653 69.772712 
L 105.829958 70.086944 
L 105.942915 70.401177 
L 106.04692 70.715409 
L 106.141414 71.029641 
L 106.225886 71.343874 
L 106.299872 71.658106 
L 106.362966 71.972338 
L 106.414813 72.286571 
L 106.455117 72.600803 
L 106.483639 72.915035 
L 106.5002 73.229268 
L 106.50468 73.5435 
z
" clip-path="url(#pa0886234b2)" style="fill: #1f77b4; fill-opacity: 0.3"/>
   </g>
   <g id="PolyCollection_2">
    <path d="M 180.463397 197.9795 
L 167.312967 197.9795 
L 167.260899 197.351035 
L 167.219696 196.722571 
L 167.188069 196.094106 
L 167.16448 195.465641 
L 167.147159 194.837177 
L 167.134115 194.208712 
L 167.123161 193.580247 
L 167.111937 192.951783 
L 167.097943 192.323318 
L 167.078568 191.694854 
L 167.051128 191.066389 
L 167.012907 190.437924 
L 166.961198 189.80946 
L 166.893344 189.180995 
L 166.806785 188.55253 
L 166.699106 187.924066 
L 166.568075 187.295601 
L 166.411695 186.667136 
L 166.228241 186.038672 
L 166.016303 185.410207 
L 165.774821 184.781742 
L 165.503123 184.153278 
L 165.200948 183.524813 
L 164.868473 182.896348 
L 164.506328 182.267884 
L 164.115611 181.639419 
L 163.697889 181.010955 
L 163.255199 180.38249 
L 162.790031 179.754025 
L 162.305319 179.125561 
L 161.804408 178.497096 
L 161.291026 177.868631 
L 160.76924 177.240167 
L 160.243413 176.611702 
L 159.718148 175.983237 
L 159.198227 175.354773 
L 158.688556 174.726308 
L 158.194087 174.097843 
L 157.719756 173.469379 
L 157.270411 172.840914 
L 156.850738 172.212449 
L 156.465191 171.583985 
L 156.117928 170.95552 
L 155.81274 170.327056 
L 155.553001 169.698591 
L 155.341606 169.070126 
L 155.18093 168.441662 
L 155.072789 167.813197 
L 155.018409 167.184732 
L 155.018409 166.556268 
L 155.072789 165.927803 
L 155.18093 165.299338 
L 155.341606 164.670874 
L 155.553001 164.042409 
L 155.81274 163.413944 
L 156.117928 162.78548 
L 156.465191 162.157015 
L 156.850738 161.528551 
L 157.270411 160.900086 
L 157.719756 160.271621 
L 158.194087 159.643157 
L 158.688556 159.014692 
L 159.198227 158.386227 
L 159.718148 157.757763 
L 160.243413 157.129298 
L 160.76924 156.500833 
L 161.291026 155.872369 
L 161.804408 155.243904 
L 162.305319 154.615439 
L 162.790031 153.986975 
L 163.255199 153.35851 
L 163.697889 152.730045 
L 164.115611 152.101581 
L 164.506328 151.473116 
L 164.868473 150.844652 
L 165.200948 150.216187 
L 165.503123 149.587722 
L 165.774821 148.959258 
L 166.016303 148.330793 
L 166.228241 147.702328 
L 166.411695 147.073864 
L 166.568075 146.445399 
L 166.699106 145.816934 
L 166.806785 145.18847 
L 166.893344 144.560005 
L 166.961198 143.93154 
L 167.012907 143.303076 
L 167.051128 142.674611 
L 167.078568 142.046146 
L 167.097943 141.417682 
L 167.111937 140.789217 
L 167.123161 140.160753 
L 167.134115 139.532288 
L 167.147159 138.903823 
L 167.16448 138.275359 
L 167.188069 137.646894 
L 167.219696 137.018429 
L 167.260899 136.389965 
L 167.312967 135.7615 
L 180.463397 135.7615 
L 180.463397 135.7615 
L 180.515465 136.389965 
L 180.556668 137.018429 
L 180.588295 137.646894 
L 180.611883 138.275359 
L 180.629204 138.903823 
L 180.642248 139.532288 
L 180.653203 140.160753 
L 180.664426 140.789217 
L 180.67842 141.417682 
L 180.697796 142.046146 
L 180.725236 142.674611 
L 180.763456 143.303076 
L 180.815166 143.93154 
L 180.88302 144.560005 
L 180.969578 145.18847 
L 181.077258 145.816934 
L 181.208288 146.445399 
L 181.364668 147.073864 
L 181.548123 147.702328 
L 181.760061 148.330793 
L 182.001542 148.959258 
L 182.27324 149.587722 
L 182.575415 150.216187 
L 182.907891 150.844652 
L 183.270036 151.473116 
L 183.660753 152.101581 
L 184.078474 152.730045 
L 184.521165 153.35851 
L 184.986333 153.986975 
L 185.471045 154.615439 
L 185.971956 155.243904 
L 186.485338 155.872369 
L 187.007123 156.500833 
L 187.53295 157.129298 
L 188.058216 157.757763 
L 188.578136 158.386227 
L 189.087808 159.014692 
L 189.582277 159.643157 
L 190.056607 160.271621 
L 190.505952 160.900086 
L 190.925625 161.528551 
L 191.311172 162.157015 
L 191.658436 162.78548 
L 191.963623 163.413944 
L 192.223362 164.042409 
L 192.434757 164.670874 
L 192.595433 165.299338 
L 192.703575 165.927803 
L 192.757955 166.556268 
L 192.757955 167.184732 
L 192.703575 167.813197 
L 192.595433 168.441662 
L 192.434757 169.070126 
L 192.223362 169.698591 
L 191.963623 170.327056 
L 191.658436 170.95552 
L 191.311172 171.583985 
L 190.925625 172.212449 
L 190.505952 172.840914 
L 190.056607 173.469379 
L 189.582277 174.097843 
L 189.087808 174.726308 
L 188.578136 175.354773 
L 188.058216 175.983237 
L 187.53295 176.611702 
L 187.007123 177.240167 
L 186.485338 177.868631 
L 185.971956 178.497096 
L 185.471045 179.125561 
L 184.986333 179.754025 
L 184.521165 180.38249 
L 184.078474 181.010955 
L 183.660753 181.639419 
L 183.270036 182.267884 
L 182.907891 182.896348 
L 182.575415 183.524813 
L 182.27324 184.153278 
L 182.001542 184.781742 
L 181.760061 185.410207 
L 181.548123 186.038672 
L 181.364668 186.667136 
L 181.208288 187.295601 
L 181.077258 187.924066 
L 180.969578 188.55253 
L 180.88302 189.180995 
L 180.815166 189.80946 
L 180.763456 190.437924 
L 180.725236 191.066389 
L 180.697796 191.694854 
L 180.67842 192.323318 
L 180.664426 192.951783 
L 180.653203 193.580247 
L 180.642248 194.208712 
L 180.629204 194.837177 
L 180.611883 195.465641 
L 180.588295 196.094106 
L 180.556668 196.722571 
L 180.515465 197.351035 
L 180.463397 197.9795 
z
" clip-path="url(#pa0886234b2)" style="fill: #1f77b4; fill-opacity: 0.3"/>
   </g>
   <g id="PolyCollection_3">
    <path d="M 258.251996 229.0885 
L 240.482549 229.0885 
L 240.322876 228.145803 
L 240.174062 227.203106 
L 240.035365 226.260409 
L 239.905897 225.317712 
L 239.784646 224.375015 
L 239.670506 223.432318 
L 239.562297 222.489621 
L 239.458802 221.546924 
L 239.358794 220.604227 
L 239.261063 219.66153 
L 239.164448 218.718833 
L 239.06786 217.776136 
L 238.970305 216.833439 
L 238.870903 215.890742 
L 238.768903 214.948045 
L 238.663692 214.005348 
L 238.554802 213.062652 
L 238.441904 212.119955 
L 238.324811 211.177258 
L 238.203457 210.234561 
L 238.077892 209.291864 
L 237.948256 208.349167 
L 237.814759 207.40647 
L 237.677661 206.463773 
L 237.537241 205.521076 
L 237.393772 204.578379 
L 237.2475 203.635682 
L 237.098619 202.692985 
L 236.947252 201.750288 
L 236.793432 200.807591 
L 236.637096 199.864894 
L 236.478075 198.922197 
L 236.316096 197.9795 
L 236.150788 197.036803 
L 235.981694 196.094106 
L 235.808289 195.151409 
L 235.630004 194.208712 
L 235.446254 193.266015 
L 235.256472 192.323318 
L 235.060144 191.380621 
L 234.856847 190.437924 
L 234.646287 189.495227 
L 234.428334 188.55253 
L 234.203063 187.609833 
L 233.97078 186.667136 
L 233.732052 185.724439 
L 233.487725 184.781742 
L 233.238943 183.839045 
L 232.987149 182.896348 
L 232.734085 181.953652 
L 232.48178 181.010955 
L 232.232533 180.068258 
L 231.988878 179.125561 
L 231.753555 178.182864 
L 231.52946 177.240167 
L 231.3196 176.29747 
L 231.127032 175.354773 
L 230.954808 174.412076 
L 230.805912 173.469379 
L 230.683199 172.526682 
L 230.589332 171.583985 
L 230.526728 170.641288 
L 230.4975 169.698591 
L 230.503414 168.755894 
L 230.545843 167.813197 
L 230.625741 166.8705 
L 230.743613 165.927803 
L 230.899506 164.985106 
L 231.093005 164.042409 
L 231.323239 163.099712 
L 231.588897 162.157015 
L 231.888256 161.214318 
L 232.219212 160.271621 
L 232.579326 159.328924 
L 232.965869 158.386227 
L 233.375877 157.44353 
L 233.806208 156.500833 
L 234.253601 155.558136 
L 234.714736 154.615439 
L 235.18629 153.672742 
L 235.664997 152.730045 
L 236.147699 151.787348 
L 236.631394 150.844652 
L 237.113276 149.901955 
L 237.590775 148.959258 
L 238.06158 148.016561 
L 238.523666 147.073864 
L 238.975302 146.131167 
L 239.415058 145.18847 
L 239.841809 144.245773 
L 240.254719 143.303076 
L 240.653233 142.360379 
L 241.037058 141.417682 
L 241.406136 140.474985 
L 241.760619 139.532288 
L 242.100841 138.589591 
L 242.427285 137.646894 
L 242.740553 136.704197 
L 243.041331 135.7615 
L 255.693214 135.7615 
L 255.693214 135.7615 
L 255.993993 136.704197 
L 256.30726 137.646894 
L 256.633704 138.589591 
L 256.973926 139.532288 
L 257.32841 140.474985 
L 257.697487 141.417682 
L 258.081312 142.360379 
L 258.479827 143.303076 
L 258.892737 144.245773 
L 259.319487 145.18847 
L 259.759244 146.131167 
L 260.210879 147.073864 
L 260.672965 148.016561 
L 261.143771 148.959258 
L 261.621269 149.901955 
L 262.103152 150.844652 
L 262.586846 151.787348 
L 263.069548 152.730045 
L 263.548256 153.672742 
L 264.01981 154.615439 
L 264.480944 155.558136 
L 264.928337 156.500833 
L 265.358669 157.44353 
L 265.768677 158.386227 
L 266.155219 159.328924 
L 266.515333 160.271621 
L 266.84629 161.214318 
L 267.145648 162.157015 
L 267.411307 163.099712 
L 267.641541 164.042409 
L 267.83504 164.985106 
L 267.990933 165.927803 
L 268.108805 166.8705 
L 268.188702 167.813197 
L 268.231132 168.755894 
L 268.237045 169.698591 
L 268.207818 170.641288 
L 268.145214 171.583985 
L 268.051347 172.526682 
L 267.928633 173.469379 
L 267.779737 174.412076 
L 267.607513 175.354773 
L 267.414945 176.29747 
L 267.205085 177.240167 
L 266.980991 178.182864 
L 266.745668 179.125561 
L 266.502013 180.068258 
L 266.252765 181.010955 
L 266.000461 181.953652 
L 265.747397 182.896348 
L 265.495603 183.839045 
L 265.246821 184.781742 
L 265.002494 185.724439 
L 264.763765 186.667136 
L 264.531482 187.609833 
L 264.306211 188.55253 
L 264.088259 189.495227 
L 263.877698 190.437924 
L 263.674401 191.380621 
L 263.478074 192.323318 
L 263.288292 193.266015 
L 263.104542 194.208712 
L 262.926256 195.151409 
L 262.752851 196.094106 
L 262.583757 197.036803 
L 262.41845 197.9795 
L 262.256471 198.922197 
L 262.09745 199.864894 
L 261.941114 200.807591 
L 261.787294 201.750288 
L 261.635926 202.692985 
L 261.487046 203.635682 
L 261.340774 204.578379 
L 261.197305 205.521076 
L 261.056884 206.463773 
L 260.919786 207.40647 
L 260.78629 208.349167 
L 260.656653 209.291864 
L 260.531088 210.234561 
L 260.409735 211.177258 
L 260.292641 212.119955 
L 260.179744 213.062652 
L 260.070853 214.005348 
L 259.965643 214.948045 
L 259.863643 215.890742 
L 259.76424 216.833439 
L 259.666685 217.776136 
L 259.570097 218.718833 
L 259.473482 219.66153 
L 259.375752 220.604227 
L 259.275743 221.546924 
L 259.172249 222.489621 
L 259.06404 223.432318 
L 258.949899 224.375015 
L 258.828649 225.317712 
L 258.699181 226.260409 
L 258.560483 227.203106 
L 258.411669 228.145803 
L 258.251996 229.0885 
z
" clip-path="url(#pa0886234b2)" style="fill: #1f77b4; fill-opacity: 0.3"/>
   </g>
   <g id="PolyCollection_4">
    <path d="M 343.716136 166.8705 
L 305.976591 166.8705 
L 306.000345 166.556268 
L 306.071436 166.242035 
L 306.189327 165.927803 
L 306.353133 165.613571 
L 306.561629 165.299338 
L 306.813268 164.985106 
L 307.106196 164.670874 
L 307.438281 164.356641 
L 307.807131 164.042409 
L 308.210131 163.728177 
L 308.644465 163.413944 
L 309.107157 163.099712 
L 309.595098 162.78548 
L 310.105086 162.471247 
L 310.633854 162.157015 
L 311.178111 161.842783 
L 311.734573 161.528551 
L 312.299991 161.214318 
L 312.871188 160.900086 
L 313.445082 160.585854 
L 314.018714 160.271621 
L 314.58927 159.957389 
L 315.154101 159.643157 
L 315.71074 159.328924 
L 316.256918 159.014692 
L 316.790568 158.70046 
L 317.309841 158.386227 
L 317.813102 158.071995 
L 318.298936 157.757763 
L 318.766147 157.44353 
L 319.21375 157.129298 
L 319.640966 156.815066 
L 320.047216 156.500833 
L 320.432104 156.186601 
L 320.795414 155.872369 
L 321.137089 155.558136 
L 321.457219 155.243904 
L 321.756027 154.929672 
L 322.033856 154.615439 
L 322.291147 154.301207 
L 322.52843 153.986975 
L 322.746307 153.672742 
L 322.945434 153.35851 
L 323.126514 153.044278 
L 323.290281 152.730045 
L 323.437484 152.415813 
L 323.568884 152.101581 
L 323.685238 151.787348 
L 323.787294 151.473116 
L 323.875783 151.158884 
L 323.95141 150.844652 
L 324.014856 150.530419 
L 324.066766 150.216187 
L 324.107752 149.901955 
L 324.138391 149.587722 
L 324.159222 149.27349 
L 324.170748 148.959258 
L 324.17344 148.645025 
L 324.167732 148.330793 
L 324.154031 148.016561 
L 324.132717 147.702328 
L 324.104145 147.388096 
L 324.068653 147.073864 
L 324.026564 146.759631 
L 323.97819 146.445399 
L 323.923837 146.131167 
L 323.863812 145.816934 
L 323.798423 145.502702 
L 323.727987 145.18847 
L 323.652831 144.874237 
L 323.573297 144.560005 
L 323.489746 144.245773 
L 323.402558 143.93154 
L 323.312137 143.617308 
L 323.218909 143.303076 
L 323.123327 142.988843 
L 323.025866 142.674611 
L 322.927029 142.360379 
L 322.827338 142.046146 
L 322.72734 141.731914 
L 322.627597 141.417682 
L 322.52869 141.103449 
L 322.43121 140.789217 
L 322.335754 140.474985 
L 322.242925 140.160753 
L 322.153322 139.84652 
L 322.067536 139.532288 
L 321.986146 139.218056 
L 321.909711 138.903823 
L 321.838764 138.589591 
L 321.773811 138.275359 
L 321.715318 137.961126 
L 321.663714 137.646894 
L 321.619378 137.332662 
L 321.582642 137.018429 
L 321.55378 136.704197 
L 321.533011 136.389965 
L 321.520494 136.075732 
L 321.516324 135.7615 
L 328.176403 135.7615 
L 328.176403 135.7615 
L 328.172233 136.075732 
L 328.159716 136.389965 
L 328.138948 136.704197 
L 328.110086 137.018429 
L 328.073349 137.332662 
L 328.029013 137.646894 
L 327.977409 137.961126 
L 327.918917 138.275359 
L 327.853963 138.589591 
L 327.783017 138.903823 
L 327.706581 139.218056 
L 327.625191 139.532288 
L 327.539405 139.84652 
L 327.449802 140.160753 
L 327.356973 140.474985 
L 327.261518 140.789217 
L 327.164037 141.103449 
L 327.06513 141.417682 
L 326.965388 141.731914 
L 326.865389 142.046146 
L 326.765699 142.360379 
L 326.666861 142.674611 
L 326.569401 142.988843 
L 326.473818 143.303076 
L 326.38059 143.617308 
L 326.290169 143.93154 
L 326.202981 144.245773 
L 326.11943 144.560005 
L 326.039896 144.874237 
L 325.96474 145.18847 
L 325.894304 145.502702 
L 325.828915 145.816934 
L 325.76889 146.131167 
L 325.714538 146.445399 
L 325.666163 146.759631 
L 325.624074 147.073864 
L 325.588582 147.388096 
L 325.560011 147.702328 
L 325.538696 148.016561 
L 325.524995 148.330793 
L 325.519288 148.645025 
L 325.521979 148.959258 
L 325.533506 149.27349 
L 325.554337 149.587722 
L 325.584975 149.901955 
L 325.625962 150.216187 
L 325.677871 150.530419 
L 325.741317 150.844652 
L 325.816945 151.158884 
L 325.905433 151.473116 
L 326.007489 151.787348 
L 326.123844 152.101581 
L 326.255243 152.415813 
L 326.402447 152.730045 
L 326.566213 153.044278 
L 326.747293 153.35851 
L 326.946421 153.672742 
L 327.164297 153.986975 
L 327.40158 154.301207 
L 327.658871 154.615439 
L 327.9367 154.929672 
L 328.235509 155.243904 
L 328.555639 155.558136 
L 328.897313 155.872369 
L 329.260623 156.186601 
L 329.645512 156.500833 
L 330.051761 156.815066 
L 330.478977 157.129298 
L 330.92658 157.44353 
L 331.393791 157.757763 
L 331.879626 158.071995 
L 332.382886 158.386227 
L 332.902159 158.70046 
L 333.435809 159.014692 
L 333.981987 159.328924 
L 334.538626 159.643157 
L 335.103457 159.957389 
L 335.674013 160.271621 
L 336.247645 160.585854 
L 336.821539 160.900086 
L 337.392736 161.214318 
L 337.958154 161.528551 
L 338.514616 161.842783 
L 339.058873 162.157015 
L 339.587642 162.471247 
L 340.097629 162.78548 
L 340.58557 163.099712 
L 341.048262 163.413944 
L 341.482597 163.728177 
L 341.885596 164.042409 
L 342.254447 164.356641 
L 342.586531 164.670874 
L 342.879459 164.985106 
L 343.131098 165.299338 
L 343.339594 165.613571 
L 343.5034 165.927803 
L 343.621291 166.242035 
L 343.692382 166.556268 
L 343.716136 166.8705 
z
" clip-path="url(#pa0886234b2)" style="fill: #1f77b4; fill-opacity: 0.3"/>
   </g>
   <g id="PolyCollection_5">
    <path d="M 401.853079 197.9795 
L 398.79783 197.9795 
L 398.78176 197.351035 
L 398.767935 196.722571 
L 398.755457 196.094106 
L 398.743244 195.465641 
L 398.730016 194.837177 
L 398.714302 194.208712 
L 398.694441 193.580247 
L 398.668585 192.951783 
L 398.634711 192.323318 
L 398.590636 191.694854 
L 398.534029 191.066389 
L 398.462435 190.437924 
L 398.373303 189.80946 
L 398.264013 189.180995 
L 398.131911 188.55253 
L 397.974354 187.924066 
L 397.788749 187.295601 
L 397.572604 186.667136 
L 397.323585 186.038672 
L 397.039568 185.410207 
L 396.718702 184.781742 
L 396.359469 184.153278 
L 395.960749 183.524813 
L 395.521879 182.896348 
L 395.042713 182.267884 
L 394.523677 181.639419 
L 393.965819 181.010955 
L 393.37085 180.38249 
L 392.741174 179.754025 
L 392.079905 179.125561 
L 391.390879 178.497096 
L 390.678637 177.868631 
L 389.948404 177.240167 
L 389.206043 176.611702 
L 388.457997 175.983237 
L 387.711208 175.354773 
L 386.973022 174.726308 
L 386.251086 174.097843 
L 385.553216 173.469379 
L 384.887271 172.840914 
L 384.261003 172.212449 
L 383.68192 171.583985 
L 383.157133 170.95552 
L 382.693211 170.327056 
L 382.296046 169.698591 
L 381.970727 169.070126 
L 381.721423 168.441662 
L 381.551291 167.813197 
L 381.462401 167.184732 
L 381.455682 166.556268 
L 381.530896 165.927803 
L 381.686631 165.299338 
L 381.920328 164.670874 
L 382.22832 164.042409 
L 382.605909 163.413944 
L 383.047449 162.78548 
L 383.546458 162.157015 
L 384.095741 161.528551 
L 384.687527 160.900086 
L 385.313609 160.271621 
L 385.965499 159.643157 
L 386.634571 159.014692 
L 387.312213 158.386227 
L 387.989965 157.757763 
L 388.659655 157.129298 
L 389.313519 156.500833 
L 389.94431 155.872369 
L 390.545396 155.243904 
L 391.110837 154.615439 
L 391.635447 153.986975 
L 392.114849 153.35851 
L 392.545504 152.730045 
L 392.92473 152.101581 
L 393.250707 151.473116 
L 393.522468 150.844652 
L 393.739883 150.216187 
L 393.903625 149.587722 
L 394.015132 148.959258 
L 394.07656 148.330793 
L 394.090727 147.702328 
L 394.061052 147.073864 
L 393.991488 146.445399 
L 393.886453 145.816934 
L 393.750751 145.18847 
L 393.589497 144.560005 
L 393.408032 143.93154 
L 393.211846 143.303076 
L 393.006488 142.674611 
L 392.797489 142.046146 
L 392.590272 141.417682 
L 392.390079 140.789217 
L 392.20189 140.160753 
L 392.030352 139.532288 
L 391.879712 138.903823 
L 391.753757 138.275359 
L 391.655766 137.646894 
L 391.588463 137.018429 
L 391.553991 136.389965 
L 391.553889 135.7615 
L 409.097021 135.7615 
L 409.097021 135.7615 
L 409.096918 136.389965 
L 409.062446 137.018429 
L 408.995143 137.646894 
L 408.897152 138.275359 
L 408.771197 138.903823 
L 408.620557 139.532288 
L 408.449019 140.160753 
L 408.26083 140.789217 
L 408.060638 141.417682 
L 407.853421 142.046146 
L 407.644421 142.674611 
L 407.439063 143.303076 
L 407.242877 143.93154 
L 407.061412 144.560005 
L 406.900158 145.18847 
L 406.764456 145.816934 
L 406.659421 146.445399 
L 406.589857 147.073864 
L 406.560182 147.702328 
L 406.574349 148.330793 
L 406.635777 148.959258 
L 406.747284 149.587722 
L 406.911026 150.216187 
L 407.128441 150.844652 
L 407.400202 151.473116 
L 407.726179 152.101581 
L 408.105405 152.730045 
L 408.53606 153.35851 
L 409.015462 153.986975 
L 409.540073 154.615439 
L 410.105513 155.243904 
L 410.706599 155.872369 
L 411.33739 156.500833 
L 411.991254 157.129298 
L 412.660944 157.757763 
L 413.338696 158.386227 
L 414.016338 159.014692 
L 414.68541 159.643157 
L 415.3373 160.271621 
L 415.963382 160.900086 
L 416.555168 161.528551 
L 417.104451 162.157015 
L 417.60346 162.78548 
L 418.045 163.413944 
L 418.422589 164.042409 
L 418.730582 164.670874 
L 418.964278 165.299338 
L 419.120014 165.927803 
L 419.195227 166.556268 
L 419.188508 167.184732 
L 419.099618 167.813197 
L 418.929486 168.441662 
L 418.680182 169.070126 
L 418.354863 169.698591 
L 417.957698 170.327056 
L 417.493776 170.95552 
L 416.968989 171.583985 
L 416.389906 172.212449 
L 415.763639 172.840914 
L 415.097693 173.469379 
L 414.399823 174.097843 
L 413.677887 174.726308 
L 412.939702 175.354773 
L 412.192912 175.983237 
L 411.444866 176.611702 
L 410.702505 177.240167 
L 409.972272 177.868631 
L 409.260031 178.497096 
L 408.571004 179.125561 
L 407.909736 179.754025 
L 407.280059 180.38249 
L 406.68509 181.010955 
L 406.127232 181.639419 
L 405.608196 182.267884 
L 405.12903 182.896348 
L 404.69016 183.524813 
L 404.29144 184.153278 
L 403.932207 184.781742 
L 403.611341 185.410207 
L 403.327324 186.038672 
L 403.078305 186.667136 
L 402.862161 187.295601 
L 402.676555 187.924066 
L 402.518998 188.55253 
L 402.386896 189.180995 
L 402.277606 189.80946 
L 402.188474 190.437924 
L 402.11688 191.066389 
L 402.060273 191.694854 
L 402.016198 192.323318 
L 401.982325 192.951783 
L 401.956468 193.580247 
L 401.936607 194.208712 
L 401.920893 194.837177 
L 401.907665 195.465641 
L 401.895452 196.094106 
L 401.882975 196.722571 
L 401.869149 197.351035 
L 401.853079 197.9795 
z
" clip-path="url(#pa0886234b2)" style="fill: #1f77b4; fill-opacity: 0.3"/>
   </g>
   <g id="PolyCollection_6">
    <path d="M 479.720942 291.3065 
L 471.888149 291.3065 
L 471.695445 289.735338 
L 471.499195 288.164177 
L 471.299348 286.593015 
L 471.09582 285.021854 
L 470.888501 283.450692 
L 470.67726 281.87953 
L 470.461942 280.308369 
L 470.242379 278.737207 
L 470.018388 277.166045 
L 469.789781 275.594884 
L 469.556364 274.023722 
L 469.317947 272.452561 
L 469.074347 270.881399 
L 468.825389 269.310237 
L 468.570919 267.739076 
L 468.310801 266.167914 
L 468.044927 264.596753 
L 467.773219 263.025591 
L 467.495635 261.454429 
L 467.212171 259.883268 
L 466.922869 258.312106 
L 466.627814 256.740944 
L 466.327144 255.169783 
L 466.021047 253.598621 
L 465.709765 252.02746 
L 465.393593 250.456298 
L 465.072883 248.885136 
L 464.748041 247.313975 
L 464.419529 245.742813 
L 464.087858 244.171652 
L 463.753597 242.60049 
L 463.417361 241.029328 
L 463.079818 239.458167 
L 462.74168 237.887005 
L 462.403711 236.315843 
L 462.066717 234.744682 
L 461.731551 233.17352 
L 461.399112 231.602359 
L 461.07034 230.031197 
L 460.746222 228.460035 
L 460.427786 226.888874 
L 460.116101 225.317712 
L 459.812273 223.746551 
L 459.517445 222.175389 
L 459.232785 220.604227 
L 458.959486 219.033066 
L 458.698751 217.461904 
L 458.451785 215.890742 
L 458.21978 214.319581 
L 458.003904 212.748419 
L 457.805277 211.177258 
L 457.624963 209.606096 
L 457.463942 208.034934 
L 457.3231 206.463773 
L 457.203203 204.892611 
L 457.104889 203.321449 
L 457.028645 201.750288 
L 456.9748 200.179126 
L 456.943514 198.607965 
L 456.934773 197.036803 
L 456.948385 195.465641 
L 456.983987 193.89448 
L 457.041045 192.323318 
L 457.11887 190.752157 
L 457.216628 189.180995 
L 457.333361 187.609833 
L 457.468003 186.038672 
L 457.619407 184.46751 
L 457.786362 182.896348 
L 457.967625 181.325187 
L 458.161938 179.754025 
L 458.368057 178.182864 
L 458.584772 176.611702 
L 458.810928 175.04054 
L 459.045443 173.469379 
L 459.287324 171.898217 
L 459.535682 170.327056 
L 459.789736 168.755894 
L 460.048826 167.184732 
L 460.312414 165.613571 
L 460.580085 164.042409 
L 460.851545 162.471247 
L 461.126617 160.900086 
L 461.405232 159.328924 
L 461.68742 157.757763 
L 461.973299 156.186601 
L 462.263062 154.615439 
L 462.556958 153.044278 
L 462.85528 151.473116 
L 463.158345 149.901955 
L 463.466475 148.330793 
L 463.779977 146.759631 
L 464.099129 145.18847 
L 464.424156 143.617308 
L 464.755213 142.046146 
L 465.092372 140.474985 
L 465.435604 138.903823 
L 465.784766 137.332662 
L 466.139593 135.7615 
L 485.469498 135.7615 
L 485.469498 135.7615 
L 485.824325 137.332662 
L 486.173487 138.903823 
L 486.516719 140.474985 
L 486.853878 142.046146 
L 487.184935 143.617308 
L 487.509962 145.18847 
L 487.829113 146.759631 
L 488.142616 148.330793 
L 488.450746 149.901955 
L 488.75381 151.473116 
L 489.052133 153.044278 
L 489.346029 154.615439 
L 489.635792 156.186601 
L 489.921671 157.757763 
L 490.203859 159.328924 
L 490.482474 160.900086 
L 490.757545 162.471247 
L 491.029006 164.042409 
L 491.296677 165.613571 
L 491.560265 167.184732 
L 491.819355 168.755894 
L 492.073409 170.327056 
L 492.321766 171.898217 
L 492.563648 173.469379 
L 492.798163 175.04054 
L 493.024319 176.611702 
L 493.241034 178.182864 
L 493.447153 179.754025 
L 493.641466 181.325187 
L 493.822729 182.896348 
L 493.989684 184.46751 
L 494.141088 186.038672 
L 494.27573 187.609833 
L 494.392463 189.180995 
L 494.490221 190.752157 
L 494.568046 192.323318 
L 494.625104 193.89448 
L 494.660706 195.465641 
L 494.674318 197.036803 
L 494.665577 198.607965 
L 494.634291 200.179126 
L 494.580446 201.750288 
L 494.504202 203.321449 
L 494.405888 204.892611 
L 494.285991 206.463773 
L 494.145148 208.034934 
L 493.984128 209.606096 
L 493.803813 211.177258 
L 493.605187 212.748419 
L 493.389311 214.319581 
L 493.157306 215.890742 
L 492.91034 217.461904 
L 492.649605 219.033066 
L 492.376306 220.604227 
L 492.091646 222.175389 
L 491.796818 223.746551 
L 491.49299 225.317712 
L 491.181305 226.888874 
L 490.862869 228.460035 
L 490.538751 230.031197 
L 490.209979 231.602359 
L 489.877539 233.17352 
L 489.542374 234.744682 
L 489.20538 236.315843 
L 488.867411 237.887005 
L 488.529273 239.458167 
L 488.19173 241.029328 
L 487.855494 242.60049 
L 487.521233 244.171652 
L 487.189562 245.742813 
L 486.86105 247.313975 
L 486.536208 248.885136 
L 486.215498 250.456298 
L 485.899326 252.02746 
L 485.588044 253.598621 
L 485.281947 255.169783 
L 484.981277 256.740944 
L 484.686222 258.312106 
L 484.39692 259.883268 
L 484.113456 261.454429 
L 483.835872 263.025591 
L 483.564164 264.596753 
L 483.29829 266.167914 
L 483.038172 267.739076 
L 482.783702 269.310237 
L 482.534744 270.881399 
L 482.291144 272.452561 
L 482.052727 274.023722 
L 481.81931 275.594884 
L 481.590703 277.166045 
L 481.366712 278.737207 
L 481.147149 280.308369 
L 480.931831 281.87953 
L 480.72059 283.450692 
L 480.513271 285.021854 
L 480.309743 286.593015 
L 480.109896 288.164177 
L 479.913646 289.735338 
L 479.720942 291.3065 
z
" clip-path="url(#pa0886234b2)" style="fill: #1f77b4; fill-opacity: 0.3"/>
   </g>
   <g id="PolyCollection_7">
    <path d="M 556.790253 291.3065 
L 545.77702 291.3065 
L 545.710797 290.678035 
L 545.649813 290.049571 
L 545.592878 289.421106 
L 545.538623 288.792641 
L 545.485513 288.164177 
L 545.43186 287.535712 
L 545.37584 286.907247 
L 545.315516 286.278783 
L 545.248862 285.650318 
L 545.173791 285.021854 
L 545.088182 284.393389 
L 544.989917 283.764924 
L 544.876908 283.13646 
L 544.747139 282.507995 
L 544.598696 281.87953 
L 544.429809 281.251066 
L 544.238881 280.622601 
L 544.02453 279.994136 
L 543.785617 279.365672 
L 543.521283 278.737207 
L 543.230972 278.108742 
L 542.914459 277.480278 
L 542.571873 276.851813 
L 542.20371 276.223348 
L 541.81085 275.594884 
L 541.39456 274.966419 
L 540.956494 274.337955 
L 540.498693 273.70949 
L 540.023568 273.081025 
L 539.533885 272.452561 
L 539.032743 271.824096 
L 538.523539 271.195631 
L 538.009936 270.567167 
L 537.49582 269.938702 
L 536.985253 269.310237 
L 536.482425 268.681773 
L 535.991596 268.053308 
L 535.517042 267.424843 
L 535.062994 266.796379 
L 534.633577 266.167914 
L 534.232753 265.539449 
L 533.86426 264.910985 
L 533.531556 264.28252 
L 533.237765 263.654056 
L 532.985627 263.025591 
L 532.777458 262.397126 
L 532.615106 261.768662 
L 532.499924 261.140197 
L 532.432744 260.511732 
L 532.413864 259.883268 
L 532.443035 259.254803 
L 532.519466 258.626338 
L 532.641834 257.997874 
L 532.808298 257.369409 
L 533.016525 256.740944 
L 533.263728 256.11248 
L 533.546701 255.484015 
L 533.86187 254.855551 
L 534.205341 254.227086 
L 534.57296 253.598621 
L 534.960375 252.970157 
L 535.363094 252.341692 
L 535.776555 251.713227 
L 536.196186 251.084763 
L 536.617476 250.456298 
L 537.036029 249.827833 
L 537.447631 249.199369 
L 537.848304 248.570904 
L 538.234355 247.942439 
L 538.602428 247.313975 
L 538.94954 246.68551 
L 539.273117 246.057045 
L 539.57102 245.428581 
L 539.841569 244.800116 
L 540.083551 244.171652 
L 540.29623 243.543187 
L 540.479343 242.914722 
L 540.633093 242.286258 
L 540.758132 241.657793 
L 540.855541 241.029328 
L 540.926802 240.400864 
L 540.973763 239.772399 
L 540.998605 239.143934 
L 541.003797 238.51547 
L 540.99205 237.887005 
L 540.966273 237.25854 
L 540.929524 236.630076 
L 540.884956 236.001611 
L 540.83577 235.373146 
L 540.785166 234.744682 
L 540.736291 234.116217 
L 540.692199 233.487753 
L 540.655802 232.859288 
L 540.629833 232.230823 
L 540.616812 231.602359 
L 540.619009 230.973894 
L 540.638423 230.345429 
L 540.676759 229.716965 
L 540.735409 229.0885 
L 561.831863 229.0885 
L 561.831863 229.0885 
L 561.890513 229.716965 
L 561.928849 230.345429 
L 561.948264 230.973894 
L 561.950461 231.602359 
L 561.937439 232.230823 
L 561.911471 232.859288 
L 561.875074 233.487753 
L 561.830981 234.116217 
L 561.782107 234.744682 
L 561.731502 235.373146 
L 561.682317 236.001611 
L 561.637749 236.630076 
L 561.600999 237.25854 
L 561.575223 237.887005 
L 561.563476 238.51547 
L 561.568668 239.143934 
L 561.59351 239.772399 
L 561.640471 240.400864 
L 561.711732 241.029328 
L 561.809141 241.657793 
L 561.93418 242.286258 
L 562.08793 242.914722 
L 562.271043 243.543187 
L 562.483722 244.171652 
L 562.725704 244.800116 
L 562.996253 245.428581 
L 563.294156 246.057045 
L 563.617732 246.68551 
L 563.964844 247.313975 
L 564.332918 247.942439 
L 564.718969 248.570904 
L 565.119642 249.199369 
L 565.531244 249.827833 
L 565.949797 250.456298 
L 566.371086 251.084763 
L 566.790718 251.713227 
L 567.204179 252.341692 
L 567.606898 252.970157 
L 567.994313 253.598621 
L 568.361932 254.227086 
L 568.705403 254.855551 
L 569.020571 255.484015 
L 569.303545 256.11248 
L 569.550748 256.740944 
L 569.758975 257.369409 
L 569.925438 257.997874 
L 570.047806 258.626338 
L 570.124238 259.254803 
L 570.153409 259.883268 
L 570.134529 260.511732 
L 570.067349 261.140197 
L 569.952167 261.768662 
L 569.789815 262.397126 
L 569.581645 263.025591 
L 569.329508 263.654056 
L 569.035717 264.28252 
L 568.703012 264.910985 
L 568.334519 265.539449 
L 567.933696 266.167914 
L 567.504279 266.796379 
L 567.05023 267.424843 
L 566.575677 268.053308 
L 566.084848 268.681773 
L 565.58202 269.310237 
L 565.071453 269.938702 
L 564.557337 270.567167 
L 564.043733 271.195631 
L 563.534529 271.824096 
L 563.033387 272.452561 
L 562.543705 273.081025 
L 562.06858 273.70949 
L 561.610779 274.337955 
L 561.172713 274.966419 
L 560.756422 275.594884 
L 560.363562 276.223348 
L 559.9954 276.851813 
L 559.652813 277.480278 
L 559.336301 278.108742 
L 559.045989 278.737207 
L 558.781655 279.365672 
L 558.542743 279.994136 
L 558.328392 280.622601 
L 558.137464 281.251066 
L 557.968576 281.87953 
L 557.820134 282.507995 
L 557.690365 283.13646 
L 557.577356 283.764924 
L 557.47909 284.393389 
L 557.393482 285.021854 
L 557.318411 285.650318 
L 557.251757 286.278783 
L 557.191433 286.907247 
L 557.135413 287.535712 
L 557.081759 288.164177 
L 557.02865 288.792641 
L 556.974395 289.421106 
L 556.91746 290.049571 
L 556.856476 290.678035 
L 556.790253 291.3065 
z
" clip-path="url(#pa0886234b2)" style="fill: #1f77b4; fill-opacity: 0.3"/>
   </g>
   <g id="PolyCollection_8">
    <path d="M 635.550215 291.3065 
L 617.97524 291.3065 
L 617.87102 290.678035 
L 617.774277 290.049571 
L 617.684003 289.421106 
L 617.599051 288.792641 
L 617.518147 288.164177 
L 617.439906 287.535712 
L 617.362849 286.907247 
L 617.285419 286.278783 
L 617.206006 285.650318 
L 617.122969 285.021854 
L 617.034655 284.393389 
L 616.939431 283.764924 
L 616.835706 283.13646 
L 616.721957 282.507995 
L 616.596757 281.87953 
L 616.458797 281.251066 
L 616.306914 280.622601 
L 616.140112 279.994136 
L 615.957583 279.365672 
L 615.75873 278.737207 
L 615.543178 278.108742 
L 615.310793 277.480278 
L 615.06169 276.851813 
L 614.796241 276.223348 
L 614.515078 275.594884 
L 614.219095 274.966419 
L 613.909442 274.337955 
L 613.587519 273.70949 
L 613.25496 273.081025 
L 612.913623 272.452561 
L 612.565567 271.824096 
L 612.21303 271.195631 
L 611.858403 270.567167 
L 611.5042 269.938702 
L 611.153028 269.310237 
L 610.807554 268.681773 
L 610.470467 268.053308 
L 610.144444 267.424843 
L 609.832114 266.796379 
L 609.536018 266.167914 
L 609.258578 265.539449 
L 609.002057 264.910985 
L 608.768529 264.28252 
L 608.559849 263.654056 
L 608.37762 263.025591 
L 608.223176 262.397126 
L 608.097555 261.768662 
L 608.001484 261.140197 
L 607.935367 260.511732 
L 607.899277 259.883268 
L 607.892955 259.254803 
L 607.915806 258.626338 
L 607.966913 257.997874 
L 608.045045 257.369409 
L 608.148674 256.740944 
L 608.275994 256.11248 
L 608.424949 255.484015 
L 608.593261 254.855551 
L 608.778461 254.227086 
L 608.977922 253.598621 
L 609.188902 252.970157 
L 609.408577 252.341692 
L 609.634085 251.713227 
L 609.862564 251.084763 
L 610.091193 250.456298 
L 610.317235 249.827833 
L 610.53807 249.199369 
L 610.751234 248.570904 
L 610.954456 247.942439 
L 611.145684 247.313975 
L 611.323115 246.68551 
L 611.485219 246.057045 
L 611.630759 245.428581 
L 611.758804 244.800116 
L 611.868742 244.171652 
L 611.960283 243.543187 
L 612.033464 242.914722 
L 612.088641 242.286258 
L 612.126483 241.657793 
L 612.147959 241.029328 
L 612.154319 240.400864 
L 612.147076 239.772399 
L 612.127976 239.143934 
L 612.098978 238.51547 
L 612.062216 237.887005 
L 612.01997 237.25854 
L 611.974631 236.630076 
L 611.928667 236.001611 
L 611.884584 235.373146 
L 611.84489 234.744682 
L 611.812064 234.116217 
L 611.788517 233.487753 
L 611.77656 232.859288 
L 611.778374 232.230823 
L 611.795982 231.602359 
L 611.831221 230.973894 
L 611.885724 230.345429 
L 611.960896 229.716965 
L 612.057902 229.0885 
L 641.467553 229.0885 
L 641.467553 229.0885 
L 641.564559 229.716965 
L 641.639731 230.345429 
L 641.694234 230.973894 
L 641.729473 231.602359 
L 641.747081 232.230823 
L 641.748895 232.859288 
L 641.736937 233.487753 
L 641.71339 234.116217 
L 641.680564 234.744682 
L 641.640871 235.373146 
L 641.596787 236.001611 
L 641.550823 236.630076 
L 641.505485 237.25854 
L 641.463239 237.887005 
L 641.426477 238.51547 
L 641.397478 239.143934 
L 641.378379 239.772399 
L 641.371135 240.400864 
L 641.377495 241.029328 
L 641.398971 241.657793 
L 641.436813 242.286258 
L 641.49199 242.914722 
L 641.565171 243.543187 
L 641.656713 244.171652 
L 641.76665 244.800116 
L 641.894695 245.428581 
L 642.040235 246.057045 
L 642.20234 246.68551 
L 642.379771 247.313975 
L 642.570999 247.942439 
L 642.77422 248.570904 
L 642.987385 249.199369 
L 643.20822 249.827833 
L 643.434261 250.456298 
L 643.662891 251.084763 
L 643.891369 251.713227 
L 644.116877 252.341692 
L 644.336553 252.970157 
L 644.547533 253.598621 
L 644.746994 254.227086 
L 644.932193 254.855551 
L 645.100506 255.484015 
L 645.249461 256.11248 
L 645.376781 256.740944 
L 645.480409 257.369409 
L 645.558542 257.997874 
L 645.609649 258.626338 
L 645.6325 259.254803 
L 645.626177 259.883268 
L 645.590088 260.511732 
L 645.523971 261.140197 
L 645.427899 261.768662 
L 645.302278 262.397126 
L 645.147834 263.025591 
L 644.965606 263.654056 
L 644.756925 264.28252 
L 644.523397 264.910985 
L 644.266876 265.539449 
L 643.989436 266.167914 
L 643.693341 266.796379 
L 643.38101 267.424843 
L 643.054988 268.053308 
L 642.717901 268.681773 
L 642.372426 269.310237 
L 642.021255 269.938702 
L 641.667052 270.567167 
L 641.312424 271.195631 
L 640.959887 271.824096 
L 640.611832 272.452561 
L 640.270495 273.081025 
L 639.937936 273.70949 
L 639.616012 274.337955 
L 639.306359 274.966419 
L 639.010377 275.594884 
L 638.729214 276.223348 
L 638.463764 276.851813 
L 638.214661 277.480278 
L 637.982276 278.108742 
L 637.766725 278.737207 
L 637.567871 279.365672 
L 637.385343 279.994136 
L 637.218541 280.622601 
L 637.066657 281.251066 
L 636.928698 281.87953 
L 636.803497 282.507995 
L 636.689749 283.13646 
L 636.586024 283.764924 
L 636.4908 284.393389 
L 636.402486 285.021854 
L 636.319448 285.650318 
L 636.240036 286.278783 
L 636.162606 286.907247 
L 636.085548 287.535712 
L 636.007308 288.164177 
L 635.926404 288.792641 
L 635.841451 289.421106 
L 635.751177 290.049571 
L 635.654434 290.678035 
L 635.550215 291.3065 
z
" clip-path="url(#pa0886234b2)" style="fill: #1f77b4; fill-opacity: 0.3"/>
   </g>
   <g id="PolyCollection_9">
    <path d="M 721.111591 322.4155 
L 683.372045 322.4155 
L 683.372045 322.4155 
L 683.372045 322.4155 
L 683.372045 322.4155 
L 683.372045 322.4155 
L 683.372045 322.4155 
L 683.372045 322.4155 
L 683.372045 322.4155 
L 683.372045 322.4155 
L 683.372045 322.4155 
L 683.372045 322.4155 
L 683.372045 322.4155 
L 683.372045 322.4155 
L 683.372045 322.4155 
L 683.372045 322.4155 
L 683.372045 322.4155 
L 683.372045 322.4155 
L 683.372045 322.4155 
L 683.372045 322.4155 
L 683.372045 322.4155 
L 683.372045 322.4155 
L 683.372045 322.4155 
L 683.372045 322.4155 
L 683.372045 322.4155 
L 683.372045 322.4155 
L 683.372045 322.4155 
L 683.372045 322.4155 
L 683.372045 322.4155 
L 683.372045 322.4155 
L 683.372045 322.4155 
L 683.372045 322.4155 
L 683.372045 322.4155 
L 683.372045 322.4155 
L 683.372045 322.4155 
L 683.372045 322.4155 
L 683.372045 322.4155 
L 683.372045 322.4155 
L 683.372045 322.4155 
L 683.372045 322.4155 
L 683.372045 322.4155 
L 683.372045 322.4155 
L 683.372045 322.4155 
L 683.372045 322.4155 
L 683.372045 322.4155 
L 683.372045 322.4155 
L 683.372045 322.4155 
L 683.372045 322.4155 
L 683.372045 322.4155 
L 683.372045 322.4155 
L 683.372045 322.4155 
L 683.372045 322.4155 
L 683.372045 322.4155 
L 683.372045 322.4155 
L 683.372045 322.4155 
L 683.372045 322.4155 
L 683.372045 322.4155 
L 683.372045 322.4155 
L 683.372045 322.4155 
L 683.372045 322.4155 
L 683.372045 322.4155 
L 683.372045 322.4155 
L 683.372045 322.4155 
L 683.372045 322.4155 
L 683.372045 322.4155 
L 683.372045 322.4155 
L 683.372045 322.4155 
L 683.372045 322.4155 
L 683.372045 322.4155 
L 683.372045 322.4155 
L 683.372045 322.4155 
L 683.372045 322.4155 
L 683.372045 322.4155 
L 683.372045 322.4155 
L 683.372045 322.4155 
L 683.372045 322.4155 
L 683.372045 322.4155 
L 683.372045 322.4155 
L 683.372045 322.4155 
L 683.372045 322.4155 
L 683.372045 322.4155 
L 683.372045 322.4155 
L 683.372045 322.4155 
L 683.372045 322.4155 
L 683.372045 322.4155 
L 683.372045 322.4155 
L 683.372045 322.4155 
L 683.372045 322.4155 
L 683.372045 322.4155 
L 683.372045 322.4155 
L 683.372045 322.4155 
L 683.372045 322.4155 
L 683.372045 322.4155 
L 683.372045 322.4155 
L 683.372045 322.4155 
L 683.372045 322.4155 
L 683.372045 322.4155 
L 683.372045 322.4155 
L 683.372045 322.4155 
L 683.372045 322.4155 
L 683.372045 322.4155 
L 721.111591 322.4155 
L 721.111591 322.4155 
L 721.111591 322.4155 
L 721.111591 322.4155 
L 721.111591 322.4155 
L 721.111591 322.4155 
L 721.111591 322.4155 
L 721.111591 322.4155 
L 721.111591 322.4155 
L 721.111591 322.4155 
L 721.111591 322.4155 
L 721.111591 322.4155 
L 721.111591 322.4155 
L 721.111591 322.4155 
L 721.111591 322.4155 
L 721.111591 322.4155 
L 721.111591 322.4155 
L 721.111591 322.4155 
L 721.111591 322.4155 
L 721.111591 322.4155 
L 721.111591 322.4155 
L 721.111591 322.4155 
L 721.111591 322.4155 
L 721.111591 322.4155 
L 721.111591 322.4155 
L 721.111591 322.4155 
L 721.111591 322.4155 
L 721.111591 322.4155 
L 721.111591 322.4155 
L 721.111591 322.4155 
L 721.111591 322.4155 
L 721.111591 322.4155 
L 721.111591 322.4155 
L 721.111591 322.4155 
L 721.111591 322.4155 
L 721.111591 322.4155 
L 721.111591 322.4155 
L 721.111591 322.4155 
L 721.111591 322.4155 
L 721.111591 322.4155 
L 721.111591 322.4155 
L 721.111591 322.4155 
L 721.111591 322.4155 
L 721.111591 322.4155 
L 721.111591 322.4155 
L 721.111591 322.4155 
L 721.111591 322.4155 
L 721.111591 322.4155 
L 721.111591 322.4155 
L 721.111591 322.4155 
L 721.111591 322.4155 
L 721.111591 322.4155 
L 721.111591 322.4155 
L 721.111591 322.4155 
L 721.111591 322.4155 
L 721.111591 322.4155 
L 721.111591 322.4155 
L 721.111591 322.4155 
L 721.111591 322.4155 
L 721.111591 322.4155 
L 721.111591 322.4155 
L 721.111591 322.4155 
L 721.111591 322.4155 
L 721.111591 322.4155 
L 721.111591 322.4155 
L 721.111591 322.4155 
L 721.111591 322.4155 
L 721.111591 322.4155 
L 721.111591 322.4155 
L 721.111591 322.4155 
L 721.111591 322.4155 
L 721.111591 322.4155 
L 721.111591 322.4155 
L 721.111591 322.4155 
L 721.111591 322.4155 
L 721.111591 322.4155 
L 721.111591 322.4155 
L 721.111591 322.4155 
L 721.111591 322.4155 
L 721.111591 322.4155 
L 721.111591 322.4155 
L 721.111591 322.4155 
L 721.111591 322.4155 
L 721.111591 322.4155 
L 721.111591 322.4155 
L 721.111591 322.4155 
L 721.111591 322.4155 
L 721.111591 322.4155 
L 721.111591 322.4155 
L 721.111591 322.4155 
L 721.111591 322.4155 
L 721.111591 322.4155 
L 721.111591 322.4155 
L 721.111591 322.4155 
L 721.111591 322.4155 
L 721.111591 322.4155 
L 721.111591 322.4155 
L 721.111591 322.4155 
L 721.111591 322.4155 
L 721.111591 322.4155 
L 721.111591 322.4155 
z
" clip-path="url(#pa0886234b2)" style="fill: #1f77b4; fill-opacity: 0.3"/>
   </g>
   <g id="PolyCollection_10">
    <path d="M 796.590682 322.4155 
L 758.851136 322.4155 
L 758.851136 322.4155 
L 758.851136 322.4155 
L 758.851136 322.4155 
L 758.851136 322.4155 
L 758.851136 322.4155 
L 758.851136 322.4155 
L 758.851136 322.4155 
L 758.851136 322.4155 
L 758.851136 322.4155 
L 758.851136 322.4155 
L 758.851136 322.4155 
L 758.851136 322.4155 
L 758.851136 322.4155 
L 758.851136 322.4155 
L 758.851136 322.4155 
L 758.851136 322.4155 
L 758.851136 322.4155 
L 758.851136 322.4155 
L 758.851136 322.4155 
L 758.851136 322.4155 
L 758.851136 322.4155 
L 758.851136 322.4155 
L 758.851136 322.4155 
L 758.851136 322.4155 
L 758.851136 322.4155 
L 758.851136 322.4155 
L 758.851136 322.4155 
L 758.851136 322.4155 
L 758.851136 322.4155 
L 758.851136 322.4155 
L 758.851136 322.4155 
L 758.851136 322.4155 
L 758.851136 322.4155 
L 758.851136 322.4155 
L 758.851136 322.4155 
L 758.851136 322.4155 
L 758.851136 322.4155 
L 758.851136 322.4155 
L 758.851136 322.4155 
L 758.851136 322.4155 
L 758.851136 322.4155 
L 758.851136 322.4155 
L 758.851136 322.4155 
L 758.851136 322.4155 
L 758.851136 322.4155 
L 758.851136 322.4155 
L 758.851136 322.4155 
L 758.851136 322.4155 
L 758.851136 322.4155 
L 758.851136 322.4155 
L 758.851136 322.4155 
L 758.851136 322.4155 
L 758.851136 322.4155 
L 758.851136 322.4155 
L 758.851136 322.4155 
L 758.851136 322.4155 
L 758.851136 322.4155 
L 758.851136 322.4155 
L 758.851136 322.4155 
L 758.851136 322.4155 
L 758.851136 322.4155 
L 758.851136 322.4155 
L 758.851136 322.4155 
L 758.851136 322.4155 
L 758.851136 322.4155 
L 758.851136 322.4155 
L 758.851136 322.4155 
L 758.851136 322.4155 
L 758.851136 322.4155 
L 758.851136 322.4155 
L 758.851136 322.4155 
L 758.851136 322.4155 
L 758.851136 322.4155 
L 758.851136 322.4155 
L 758.851136 322.4155 
L 758.851136 322.4155 
L 758.851136 322.4155 
L 758.851136 322.4155 
L 758.851136 322.4155 
L 758.851136 322.4155 
L 758.851136 322.4155 
L 758.851136 322.4155 
L 758.851136 322.4155 
L 758.851136 322.4155 
L 758.851136 322.4155 
L 758.851136 322.4155 
L 758.851136 322.4155 
L 758.851136 322.4155 
L 758.851136 322.4155 
L 758.851136 322.4155 
L 758.851136 322.4155 
L 758.851136 322.4155 
L 758.851136 322.4155 
L 758.851136 322.4155 
L 758.851136 322.4155 
L 758.851136 322.4155 
L 758.851136 322.4155 
L 758.851136 322.4155 
L 758.851136 322.4155 
L 796.590682 322.4155 
L 796.590682 322.4155 
L 796.590682 322.4155 
L 796.590682 322.4155 
L 796.590682 322.4155 
L 796.590682 322.4155 
L 796.590682 322.4155 
L 796.590682 322.4155 
L 796.590682 322.4155 
L 796.590682 322.4155 
L 796.590682 322.4155 
L 796.590682 322.4155 
L 796.590682 322.4155 
L 796.590682 322.4155 
L 796.590682 322.4155 
L 796.590682 322.4155 
L 796.590682 322.4155 
L 796.590682 322.4155 
L 796.590682 322.4155 
L 796.590682 322.4155 
L 796.590682 322.4155 
L 796.590682 322.4155 
L 796.590682 322.4155 
L 796.590682 322.4155 
L 796.590682 322.4155 
L 796.590682 322.4155 
L 796.590682 322.4155 
L 796.590682 322.4155 
L 796.590682 322.4155 
L 796.590682 322.4155 
L 796.590682 322.4155 
L 796.590682 322.4155 
L 796.590682 322.4155 
L 796.590682 322.4155 
L 796.590682 322.4155 
L 796.590682 322.4155 
L 796.590682 322.4155 
L 796.590682 322.4155 
L 796.590682 322.4155 
L 796.590682 322.4155 
L 796.590682 322.4155 
L 796.590682 322.4155 
L 796.590682 322.4155 
L 796.590682 322.4155 
L 796.590682 322.4155 
L 796.590682 322.4155 
L 796.590682 322.4155 
L 796.590682 322.4155 
L 796.590682 322.4155 
L 796.590682 322.4155 
L 796.590682 322.4155 
L 796.590682 322.4155 
L 796.590682 322.4155 
L 796.590682 322.4155 
L 796.590682 322.4155 
L 796.590682 322.4155 
L 796.590682 322.4155 
L 796.590682 322.4155 
L 796.590682 322.4155 
L 796.590682 322.4155 
L 796.590682 322.4155 
L 796.590682 322.4155 
L 796.590682 322.4155 
L 796.590682 322.4155 
L 796.590682 322.4155 
L 796.590682 322.4155 
L 796.590682 322.4155 
L 796.590682 322.4155 
L 796.590682 322.4155 
L 796.590682 322.4155 
L 796.590682 322.4155 
L 796.590682 322.4155 
L 796.590682 322.4155 
L 796.590682 322.4155 
L 796.590682 322.4155 
L 796.590682 322.4155 
L 796.590682 322.4155 
L 796.590682 322.4155 
L 796.590682 322.4155 
L 796.590682 322.4155 
L 796.590682 322.4155 
L 796.590682 322.4155 
L 796.590682 322.4155 
L 796.590682 322.4155 
L 796.590682 322.4155 
L 796.590682 322.4155 
L 796.590682 322.4155 
L 796.590682 322.4155 
L 796.590682 322.4155 
L 796.590682 322.4155 
L 796.590682 322.4155 
L 796.590682 322.4155 
L 796.590682 322.4155 
L 796.590682 322.4155 
L 796.590682 322.4155 
L 796.590682 322.4155 
L 796.590682 322.4155 
L 796.590682 322.4155 
L 796.590682 322.4155 
L 796.590682 322.4155 
L 796.590682 322.4155 
z
" clip-path="url(#pa0886234b2)" style="fill: #1f77b4; fill-opacity: 0.3"/>
   </g>
   <g id="matplotlib.axis_1">
    <g id="xtick_1">
     <g id="line2d_1">
      <defs>
       <path id="m3d3db9f689" d="M 0 0 
L 0 3.5 
" style="stroke: #000000; stroke-width: 0.8"/>
      </defs>
      <g>
       <use xlink:href="#m3d3db9f689" x="98.409091" y="337.97" style="stroke: #000000; stroke-width: 0.8"/>
      </g>
     </g>
     <g id="text_1">
      <!-- Defector -->
      <g transform="translate(100.616591 379.51)rotate(-90)scale(0.08 -0.08)">
       <defs>
        <path id="DejaVuSans-44" d="M 1259 4147 
L 1259 519 
L 2022 519 
Q 2988 519 3436 956 
Q 3884 1394 3884 2338 
Q 3884 3275 3436 3711 
Q 2988 4147 2022 4147 
L 1259 4147 
z
M 628 4666 
L 1925 4666 
Q 3281 4666 3915 4102 
Q 4550 3538 4550 2338 
Q 4550 1131 3912 565 
Q 3275 0 1925 0 
L 628 0 
L 628 4666 
z
" transform="scale(0.015625)"/>
        <path id="DejaVuSans-65" d="M 3597 1894 
L 3597 1613 
L 953 1613 
Q 991 1019 1311 708 
Q 1631 397 2203 397 
Q 2534 397 2845 478 
Q 3156 559 3463 722 
L 3463 178 
Q 3153 47 2828 -22 
Q 2503 -91 2169 -91 
Q 1331 -91 842 396 
Q 353 884 353 1716 
Q 353 2575 817 3079 
Q 1281 3584 2069 3584 
Q 2775 3584 3186 3129 
Q 3597 2675 3597 1894 
z
M 3022 2063 
Q 3016 2534 2758 2815 
Q 2500 3097 2075 3097 
Q 1594 3097 1305 2825 
Q 1016 2553 972 2059 
L 3022 2063 
z
" transform="scale(0.015625)"/>
        <path id="DejaVuSans-66" d="M 2375 4863 
L 2375 4384 
L 1825 4384 
Q 1516 4384 1395 4259 
Q 1275 4134 1275 3809 
L 1275 3500 
L 2222 3500 
L 2222 3053 
L 1275 3053 
L 1275 0 
L 697 0 
L 697 3053 
L 147 3053 
L 147 3500 
L 697 3500 
L 697 3744 
Q 697 4328 969 4595 
Q 1241 4863 1831 4863 
L 2375 4863 
z
" transform="scale(0.015625)"/>
        <path id="DejaVuSans-63" d="M 3122 3366 
L 3122 2828 
Q 2878 2963 2633 3030 
Q 2388 3097 2138 3097 
Q 1578 3097 1268 2742 
Q 959 2388 959 1747 
Q 959 1106 1268 751 
Q 1578 397 2138 397 
Q 2388 397 2633 464 
Q 2878 531 3122 666 
L 3122 134 
Q 2881 22 2623 -34 
Q 2366 -91 2075 -91 
Q 1284 -91 818 406 
Q 353 903 353 1747 
Q 353 2603 823 3093 
Q 1294 3584 2113 3584 
Q 2378 3584 2631 3529 
Q 2884 3475 3122 3366 
z
" transform="scale(0.015625)"/>
        <path id="DejaVuSans-74" d="M 1172 4494 
L 1172 3500 
L 2356 3500 
L 2356 3053 
L 1172 3053 
L 1172 1153 
Q 1172 725 1289 603 
Q 1406 481 1766 481 
L 2356 481 
L 2356 0 
L 1766 0 
Q 1100 0 847 248 
Q 594 497 594 1153 
L 594 3053 
L 172 3053 
L 172 3500 
L 594 3500 
L 594 4494 
L 1172 4494 
z
" transform="scale(0.015625)"/>
        <path id="DejaVuSans-6f" d="M 1959 3097 
Q 1497 3097 1228 2736 
Q 959 2375 959 1747 
Q 959 1119 1226 758 
Q 1494 397 1959 397 
Q 2419 397 2687 759 
Q 2956 1122 2956 1747 
Q 2956 2369 2687 2733 
Q 2419 3097 1959 3097 
z
M 1959 3584 
Q 2709 3584 3137 3096 
Q 3566 2609 3566 1747 
Q 3566 888 3137 398 
Q 2709 -91 1959 -91 
Q 1206 -91 779 398 
Q 353 888 353 1747 
Q 353 2609 779 3096 
Q 1206 3584 1959 3584 
z
" transform="scale(0.015625)"/>
        <path id="DejaVuSans-72" d="M 2631 2963 
Q 2534 3019 2420 3045 
Q 2306 3072 2169 3072 
Q 1681 3072 1420 2755 
Q 1159 2438 1159 1844 
L 1159 0 
L 581 0 
L 581 3500 
L 1159 3500 
L 1159 2956 
Q 1341 3275 1631 3429 
Q 1922 3584 2338 3584 
Q 2397 3584 2469 3576 
Q 2541 3569 2628 3553 
L 2631 2963 
z
" transform="scale(0.015625)"/>
       </defs>
       <use xlink:href="#DejaVuSans-44"/>
       <use xlink:href="#DejaVuSans-65" x="77.001953"/>
       <use xlink:href="#DejaVuSans-66" x="138.525391"/>
       <use xlink:href="#DejaVuSans-65" x="173.730469"/>
       <use xlink:href="#DejaVuSans-63" x="235.253906"/>
       <use xlink:href="#DejaVuSans-74" x="290.234375"/>
       <use xlink:href="#DejaVuSans-6f" x="329.443359"/>
       <use xlink:href="#DejaVuSans-72" x="390.625"/>
      </g>
     </g>
    </g>
    <g id="xtick_2">
     <g id="line2d_2">
      <g>
       <use xlink:href="#m3d3db9f689" x="173.888182" y="337.97" style="stroke: #000000; stroke-width: 0.8"/>
      </g>
     </g>
     <g id="text_2">
      <!-- Alternator -->
      <g transform="translate(176.095682 385.165)rotate(-90)scale(0.08 -0.08)">
       <defs>
        <path id="DejaVuSans-41" d="M 2188 4044 
L 1331 1722 
L 3047 1722 
L 2188 4044 
z
M 1831 4666 
L 2547 4666 
L 4325 0 
L 3669 0 
L 3244 1197 
L 1141 1197 
L 716 0 
L 50 0 
L 1831 4666 
z
" transform="scale(0.015625)"/>
        <path id="DejaVuSans-6c" d="M 603 4863 
L 1178 4863 
L 1178 0 
L 603 0 
L 603 4863 
z
" transform="scale(0.015625)"/>
        <path id="DejaVuSans-6e" d="M 3513 2113 
L 3513 0 
L 2938 0 
L 2938 2094 
Q 2938 2591 2744 2837 
Q 2550 3084 2163 3084 
Q 1697 3084 1428 2787 
Q 1159 2491 1159 1978 
L 1159 0 
L 581 0 
L 581 3500 
L 1159 3500 
L 1159 2956 
Q 1366 3272 1645 3428 
Q 1925 3584 2291 3584 
Q 2894 3584 3203 3211 
Q 3513 2838 3513 2113 
z
" transform="scale(0.015625)"/>
        <path id="DejaVuSans-61" d="M 2194 1759 
Q 1497 1759 1228 1600 
Q 959 1441 959 1056 
Q 959 750 1161 570 
Q 1363 391 1709 391 
Q 2188 391 2477 730 
Q 2766 1069 2766 1631 
L 2766 1759 
L 2194 1759 
z
M 3341 1997 
L 3341 0 
L 2766 0 
L 2766 531 
Q 2569 213 2275 61 
Q 1981 -91 1556 -91 
Q 1019 -91 701 211 
Q 384 513 384 1019 
Q 384 1609 779 1909 
Q 1175 2209 1959 2209 
L 2766 2209 
L 2766 2266 
Q 2766 2663 2505 2880 
Q 2244 3097 1772 3097 
Q 1472 3097 1187 3025 
Q 903 2953 641 2809 
L 641 3341 
Q 956 3463 1253 3523 
Q 1550 3584 1831 3584 
Q 2591 3584 2966 3190 
Q 3341 2797 3341 1997 
z
" transform="scale(0.015625)"/>
       </defs>
       <use xlink:href="#DejaVuSans-41"/>
       <use xlink:href="#DejaVuSans-6c" x="68.408203"/>
       <use xlink:href="#DejaVuSans-74" x="96.191406"/>
       <use xlink:href="#DejaVuSans-65" x="135.400391"/>
       <use xlink:href="#DejaVuSans-72" x="196.923828"/>
       <use xlink:href="#DejaVuSans-6e" x="236.287109"/>
       <use xlink:href="#DejaVuSans-61" x="299.666016"/>
       <use xlink:href="#DejaVuSans-74" x="360.945312"/>
       <use xlink:href="#DejaVuSans-6f" x="400.154297"/>
       <use xlink:href="#DejaVuSans-72" x="461.335938"/>
      </g>
     </g>
    </g>
    <g id="xtick_3">
     <g id="line2d_3">
      <g>
       <use xlink:href="#m3d3db9f689" x="249.367273" y="337.97" style="stroke: #000000; stroke-width: 0.8"/>
      </g>
     </g>
     <g id="text_3">
      <!-- Random: 0.5 -->
      <g transform="translate(251.574773 396.0475)rotate(-90)scale(0.08 -0.08)">
       <defs>
        <path id="DejaVuSans-52" d="M 2841 2188 
Q 3044 2119 3236 1894 
Q 3428 1669 3622 1275 
L 4263 0 
L 3584 0 
L 2988 1197 
Q 2756 1666 2539 1819 
Q 2322 1972 1947 1972 
L 1259 1972 
L 1259 0 
L 628 0 
L 628 4666 
L 2053 4666 
Q 2853 4666 3247 4331 
Q 3641 3997 3641 3322 
Q 3641 2881 3436 2590 
Q 3231 2300 2841 2188 
z
M 1259 4147 
L 1259 2491 
L 2053 2491 
Q 2509 2491 2742 2702 
Q 2975 2913 2975 3322 
Q 2975 3731 2742 3939 
Q 2509 4147 2053 4147 
L 1259 4147 
z
" transform="scale(0.015625)"/>
        <path id="DejaVuSans-64" d="M 2906 2969 
L 2906 4863 
L 3481 4863 
L 3481 0 
L 2906 0 
L 2906 525 
Q 2725 213 2448 61 
Q 2172 -91 1784 -91 
Q 1150 -91 751 415 
Q 353 922 353 1747 
Q 353 2572 751 3078 
Q 1150 3584 1784 3584 
Q 2172 3584 2448 3432 
Q 2725 3281 2906 2969 
z
M 947 1747 
Q 947 1113 1208 752 
Q 1469 391 1925 391 
Q 2381 391 2643 752 
Q 2906 1113 2906 1747 
Q 2906 2381 2643 2742 
Q 2381 3103 1925 3103 
Q 1469 3103 1208 2742 
Q 947 2381 947 1747 
z
" transform="scale(0.015625)"/>
        <path id="DejaVuSans-6d" d="M 3328 2828 
Q 3544 3216 3844 3400 
Q 4144 3584 4550 3584 
Q 5097 3584 5394 3201 
Q 5691 2819 5691 2113 
L 5691 0 
L 5113 0 
L 5113 2094 
Q 5113 2597 4934 2840 
Q 4756 3084 4391 3084 
Q 3944 3084 3684 2787 
Q 3425 2491 3425 1978 
L 3425 0 
L 2847 0 
L 2847 2094 
Q 2847 2600 2669 2842 
Q 2491 3084 2119 3084 
Q 1678 3084 1418 2786 
Q 1159 2488 1159 1978 
L 1159 0 
L 581 0 
L 581 3500 
L 1159 3500 
L 1159 2956 
Q 1356 3278 1631 3431 
Q 1906 3584 2284 3584 
Q 2666 3584 2933 3390 
Q 3200 3197 3328 2828 
z
" transform="scale(0.015625)"/>
        <path id="DejaVuSans-3a" d="M 750 794 
L 1409 794 
L 1409 0 
L 750 0 
L 750 794 
z
M 750 3309 
L 1409 3309 
L 1409 2516 
L 750 2516 
L 750 3309 
z
" transform="scale(0.015625)"/>
        <path id="DejaVuSans-20" transform="scale(0.015625)"/>
        <path id="DejaVuSans-30" d="M 2034 4250 
Q 1547 4250 1301 3770 
Q 1056 3291 1056 2328 
Q 1056 1369 1301 889 
Q 1547 409 2034 409 
Q 2525 409 2770 889 
Q 3016 1369 3016 2328 
Q 3016 3291 2770 3770 
Q 2525 4250 2034 4250 
z
M 2034 4750 
Q 2819 4750 3233 4129 
Q 3647 3509 3647 2328 
Q 3647 1150 3233 529 
Q 2819 -91 2034 -91 
Q 1250 -91 836 529 
Q 422 1150 422 2328 
Q 422 3509 836 4129 
Q 1250 4750 2034 4750 
z
" transform="scale(0.015625)"/>
        <path id="DejaVuSans-2e" d="M 684 794 
L 1344 794 
L 1344 0 
L 684 0 
L 684 794 
z
" transform="scale(0.015625)"/>
        <path id="DejaVuSans-35" d="M 691 4666 
L 3169 4666 
L 3169 4134 
L 1269 4134 
L 1269 2991 
Q 1406 3038 1543 3061 
Q 1681 3084 1819 3084 
Q 2600 3084 3056 2656 
Q 3513 2228 3513 1497 
Q 3513 744 3044 326 
Q 2575 -91 1722 -91 
Q 1428 -91 1123 -41 
Q 819 9 494 109 
L 494 744 
Q 775 591 1075 516 
Q 1375 441 1709 441 
Q 2250 441 2565 725 
Q 2881 1009 2881 1497 
Q 2881 1984 2565 2268 
Q 2250 2553 1709 2553 
Q 1456 2553 1204 2497 
Q 953 2441 691 2322 
L 691 4666 
z
" transform="scale(0.015625)"/>
       </defs>
       <use xlink:href="#DejaVuSans-52"/>
       <use xlink:href="#DejaVuSans-61" x="67.232422"/>
       <use xlink:href="#DejaVuSans-6e" x="128.511719"/>
       <use xlink:href="#DejaVuSans-64" x="191.890625"/>
       <use xlink:href="#DejaVuSans-6f" x="255.367188"/>
       <use xlink:href="#DejaVuSans-6d" x="316.548828"/>
       <use xlink:href="#DejaVuSans-3a" x="413.960938"/>
       <use xlink:href="#DejaVuSans-20" x="447.652344"/>
       <use xlink:href="#DejaVuSans-30" x="479.439453"/>
       <use xlink:href="#DejaVuSans-2e" x="543.0625"/>
       <use xlink:href="#DejaVuSans-35" x="574.849609"/>
      </g>
     </g>
    </g>
    <g id="xtick_4">
     <g id="line2d_4">
      <g>
       <use xlink:href="#m3d3db9f689" x="324.846364" y="337.97" style="stroke: #000000; stroke-width: 0.8"/>
      </g>
     </g>
     <g id="text_4">
      <!-- Grudger -->
      <g transform="translate(327.053864 377.89625)rotate(-90)scale(0.08 -0.08)">
       <defs>
        <path id="DejaVuSans-47" d="M 3809 666 
L 3809 1919 
L 2778 1919 
L 2778 2438 
L 4434 2438 
L 4434 434 
Q 4069 175 3628 42 
Q 3188 -91 2688 -91 
Q 1594 -91 976 548 
Q 359 1188 359 2328 
Q 359 3472 976 4111 
Q 1594 4750 2688 4750 
Q 3144 4750 3555 4637 
Q 3966 4525 4313 4306 
L 4313 3634 
Q 3963 3931 3569 4081 
Q 3175 4231 2741 4231 
Q 1884 4231 1454 3753 
Q 1025 3275 1025 2328 
Q 1025 1384 1454 906 
Q 1884 428 2741 428 
Q 3075 428 3337 486 
Q 3600 544 3809 666 
z
" transform="scale(0.015625)"/>
        <path id="DejaVuSans-75" d="M 544 1381 
L 544 3500 
L 1119 3500 
L 1119 1403 
Q 1119 906 1312 657 
Q 1506 409 1894 409 
Q 2359 409 2629 706 
Q 2900 1003 2900 1516 
L 2900 3500 
L 3475 3500 
L 3475 0 
L 2900 0 
L 2900 538 
Q 2691 219 2414 64 
Q 2138 -91 1772 -91 
Q 1169 -91 856 284 
Q 544 659 544 1381 
z
M 1991 3584 
L 1991 3584 
z
" transform="scale(0.015625)"/>
        <path id="DejaVuSans-67" d="M 2906 1791 
Q 2906 2416 2648 2759 
Q 2391 3103 1925 3103 
Q 1463 3103 1205 2759 
Q 947 2416 947 1791 
Q 947 1169 1205 825 
Q 1463 481 1925 481 
Q 2391 481 2648 825 
Q 2906 1169 2906 1791 
z
M 3481 434 
Q 3481 -459 3084 -895 
Q 2688 -1331 1869 -1331 
Q 1566 -1331 1297 -1286 
Q 1028 -1241 775 -1147 
L 775 -588 
Q 1028 -725 1275 -790 
Q 1522 -856 1778 -856 
Q 2344 -856 2625 -561 
Q 2906 -266 2906 331 
L 2906 616 
Q 2728 306 2450 153 
Q 2172 0 1784 0 
Q 1141 0 747 490 
Q 353 981 353 1791 
Q 353 2603 747 3093 
Q 1141 3584 1784 3584 
Q 2172 3584 2450 3431 
Q 2728 3278 2906 2969 
L 2906 3500 
L 3481 3500 
L 3481 434 
z
" transform="scale(0.015625)"/>
       </defs>
       <use xlink:href="#DejaVuSans-47"/>
       <use xlink:href="#DejaVuSans-72" x="77.490234"/>
       <use xlink:href="#DejaVuSans-75" x="118.603516"/>
       <use xlink:href="#DejaVuSans-64" x="181.982422"/>
       <use xlink:href="#DejaVuSans-67" x="245.458984"/>
       <use xlink:href="#DejaVuSans-65" x="308.935547"/>
       <use xlink:href="#DejaVuSans-72" x="370.458984"/>
      </g>
     </g>
    </g>
    <g id="xtick_5">
     <g id="line2d_5">
      <g>
       <use xlink:href="#m3d3db9f689" x="400.325455" y="337.97" style="stroke: #000000; stroke-width: 0.8"/>
      </g>
     </g>
     <g id="text_5">
      <!-- Adaptive -->
      <g transform="translate(402.532955 380.37875)rotate(-90)scale(0.08 -0.08)">
       <defs>
        <path id="DejaVuSans-70" d="M 1159 525 
L 1159 -1331 
L 581 -1331 
L 581 3500 
L 1159 3500 
L 1159 2969 
Q 1341 3281 1617 3432 
Q 1894 3584 2278 3584 
Q 2916 3584 3314 3078 
Q 3713 2572 3713 1747 
Q 3713 922 3314 415 
Q 2916 -91 2278 -91 
Q 1894 -91 1617 61 
Q 1341 213 1159 525 
z
M 3116 1747 
Q 3116 2381 2855 2742 
Q 2594 3103 2138 3103 
Q 1681 3103 1420 2742 
Q 1159 2381 1159 1747 
Q 1159 1113 1420 752 
Q 1681 391 2138 391 
Q 2594 391 2855 752 
Q 3116 1113 3116 1747 
z
" transform="scale(0.015625)"/>
        <path id="DejaVuSans-69" d="M 603 3500 
L 1178 3500 
L 1178 0 
L 603 0 
L 603 3500 
z
M 603 4863 
L 1178 4863 
L 1178 4134 
L 603 4134 
L 603 4863 
z
" transform="scale(0.015625)"/>
        <path id="DejaVuSans-76" d="M 191 3500 
L 800 3500 
L 1894 563 
L 2988 3500 
L 3597 3500 
L 2284 0 
L 1503 0 
L 191 3500 
z
" transform="scale(0.015625)"/>
       </defs>
       <use xlink:href="#DejaVuSans-41"/>
       <use xlink:href="#DejaVuSans-64" x="66.658203"/>
       <use xlink:href="#DejaVuSans-61" x="130.134766"/>
       <use xlink:href="#DejaVuSans-70" x="191.414062"/>
       <use xlink:href="#DejaVuSans-74" x="254.890625"/>
       <use xlink:href="#DejaVuSans-69" x="294.099609"/>
       <use xlink:href="#DejaVuSans-76" x="321.882812"/>
       <use xlink:href="#DejaVuSans-65" x="381.0625"/>
      </g>
     </g>
    </g>
    <g id="xtick_6">
     <g id="line2d_6">
      <g>
       <use xlink:href="#m3d3db9f689" x="475.804545" y="337.97" style="stroke: #000000; stroke-width: 0.8"/>
      </g>
     </g>
     <g id="text_6">
      <!-- Deep QLearner -->
      <g transform="translate(478.012045 405.46625)rotate(-90)scale(0.08 -0.08)">
       <defs>
        <path id="DejaVuSans-51" d="M 2522 4238 
Q 1834 4238 1429 3725 
Q 1025 3213 1025 2328 
Q 1025 1447 1429 934 
Q 1834 422 2522 422 
Q 3209 422 3611 934 
Q 4013 1447 4013 2328 
Q 4013 3213 3611 3725 
Q 3209 4238 2522 4238 
z
M 3406 84 
L 4238 -825 
L 3475 -825 
L 2784 -78 
Q 2681 -84 2626 -87 
Q 2572 -91 2522 -91 
Q 1538 -91 948 567 
Q 359 1225 359 2328 
Q 359 3434 948 4092 
Q 1538 4750 2522 4750 
Q 3503 4750 4090 4092 
Q 4678 3434 4678 2328 
Q 4678 1516 4351 937 
Q 4025 359 3406 84 
z
" transform="scale(0.015625)"/>
        <path id="DejaVuSans-4c" d="M 628 4666 
L 1259 4666 
L 1259 531 
L 3531 531 
L 3531 0 
L 628 0 
L 628 4666 
z
" transform="scale(0.015625)"/>
       </defs>
       <use xlink:href="#DejaVuSans-44"/>
       <use xlink:href="#DejaVuSans-65" x="77.001953"/>
       <use xlink:href="#DejaVuSans-65" x="138.525391"/>
       <use xlink:href="#DejaVuSans-70" x="200.048828"/>
       <use xlink:href="#DejaVuSans-20" x="263.525391"/>
       <use xlink:href="#DejaVuSans-51" x="295.3125"/>
       <use xlink:href="#DejaVuSans-4c" x="374.023438"/>
       <use xlink:href="#DejaVuSans-65" x="427.986328"/>
       <use xlink:href="#DejaVuSans-61" x="489.509766"/>
       <use xlink:href="#DejaVuSans-72" x="550.789062"/>
       <use xlink:href="#DejaVuSans-6e" x="590.152344"/>
       <use xlink:href="#DejaVuSans-65" x="653.53125"/>
       <use xlink:href="#DejaVuSans-72" x="715.054688"/>
      </g>
     </g>
    </g>
    <g id="xtick_7">
     <g id="line2d_7">
      <g>
       <use xlink:href="#m3d3db9f689" x="551.283636" y="337.97" style="stroke: #000000; stroke-width: 0.8"/>
      </g>
     </g>
     <g id="text_7">
      <!-- Risky QLearner -->
      <g transform="translate(553.491136 405.40875)rotate(-90)scale(0.08 -0.08)">
       <defs>
        <path id="DejaVuSans-73" d="M 2834 3397 
L 2834 2853 
Q 2591 2978 2328 3040 
Q 2066 3103 1784 3103 
Q 1356 3103 1142 2972 
Q 928 2841 928 2578 
Q 928 2378 1081 2264 
Q 1234 2150 1697 2047 
L 1894 2003 
Q 2506 1872 2764 1633 
Q 3022 1394 3022 966 
Q 3022 478 2636 193 
Q 2250 -91 1575 -91 
Q 1294 -91 989 -36 
Q 684 19 347 128 
L 347 722 
Q 666 556 975 473 
Q 1284 391 1588 391 
Q 1994 391 2212 530 
Q 2431 669 2431 922 
Q 2431 1156 2273 1281 
Q 2116 1406 1581 1522 
L 1381 1569 
Q 847 1681 609 1914 
Q 372 2147 372 2553 
Q 372 3047 722 3315 
Q 1072 3584 1716 3584 
Q 2034 3584 2315 3537 
Q 2597 3491 2834 3397 
z
" transform="scale(0.015625)"/>
        <path id="DejaVuSans-6b" d="M 581 4863 
L 1159 4863 
L 1159 1991 
L 2875 3500 
L 3609 3500 
L 1753 1863 
L 3688 0 
L 2938 0 
L 1159 1709 
L 1159 0 
L 581 0 
L 581 4863 
z
" transform="scale(0.015625)"/>
        <path id="DejaVuSans-79" d="M 2059 -325 
Q 1816 -950 1584 -1140 
Q 1353 -1331 966 -1331 
L 506 -1331 
L 506 -850 
L 844 -850 
Q 1081 -850 1212 -737 
Q 1344 -625 1503 -206 
L 1606 56 
L 191 3500 
L 800 3500 
L 1894 763 
L 2988 3500 
L 3597 3500 
L 2059 -325 
z
" transform="scale(0.015625)"/>
       </defs>
       <use xlink:href="#DejaVuSans-52"/>
       <use xlink:href="#DejaVuSans-69" x="69.482422"/>
       <use xlink:href="#DejaVuSans-73" x="97.265625"/>
       <use xlink:href="#DejaVuSans-6b" x="149.365234"/>
       <use xlink:href="#DejaVuSans-79" x="203.650391"/>
       <use xlink:href="#DejaVuSans-20" x="262.830078"/>
       <use xlink:href="#DejaVuSans-51" x="294.617188"/>
       <use xlink:href="#DejaVuSans-4c" x="373.328125"/>
       <use xlink:href="#DejaVuSans-65" x="427.291016"/>
       <use xlink:href="#DejaVuSans-61" x="488.814453"/>
       <use xlink:href="#DejaVuSans-72" x="550.09375"/>
       <use xlink:href="#DejaVuSans-6e" x="589.457031"/>
       <use xlink:href="#DejaVuSans-65" x="652.835938"/>
       <use xlink:href="#DejaVuSans-72" x="714.359375"/>
      </g>
     </g>
    </g>
    <g id="xtick_8">
     <g id="line2d_8">
      <g>
       <use xlink:href="#m3d3db9f689" x="626.762727" y="337.97" style="stroke: #000000; stroke-width: 0.8"/>
      </g>
     </g>
     <g id="text_8">
      <!-- Mediocre QLearner -->
      <g transform="translate(628.970227 420.83375)rotate(-90)scale(0.08 -0.08)">
       <defs>
        <path id="DejaVuSans-4d" d="M 628 4666 
L 1569 4666 
L 2759 1491 
L 3956 4666 
L 4897 4666 
L 4897 0 
L 4281 0 
L 4281 4097 
L 3078 897 
L 2444 897 
L 1241 4097 
L 1241 0 
L 628 0 
L 628 4666 
z
" transform="scale(0.015625)"/>
       </defs>
       <use xlink:href="#DejaVuSans-4d"/>
       <use xlink:href="#DejaVuSans-65" x="86.279297"/>
       <use xlink:href="#DejaVuSans-64" x="147.802734"/>
       <use xlink:href="#DejaVuSans-69" x="211.279297"/>
       <use xlink:href="#DejaVuSans-6f" x="239.0625"/>
       <use xlink:href="#DejaVuSans-63" x="300.244141"/>
       <use xlink:href="#DejaVuSans-72" x="355.224609"/>
       <use xlink:href="#DejaVuSans-65" x="394.087891"/>
       <use xlink:href="#DejaVuSans-20" x="455.611328"/>
       <use xlink:href="#DejaVuSans-51" x="487.398438"/>
       <use xlink:href="#DejaVuSans-4c" x="566.109375"/>
       <use xlink:href="#DejaVuSans-65" x="620.072266"/>
       <use xlink:href="#DejaVuSans-61" x="681.595703"/>
       <use xlink:href="#DejaVuSans-72" x="742.875"/>
       <use xlink:href="#DejaVuSans-6e" x="782.238281"/>
       <use xlink:href="#DejaVuSans-65" x="845.617188"/>
       <use xlink:href="#DejaVuSans-72" x="907.140625"/>
      </g>
     </g>
    </g>
    <g id="xtick_9">
     <g id="line2d_9">
      <g>
       <use xlink:href="#m3d3db9f689" x="702.241818" y="337.97" style="stroke: #000000; stroke-width: 0.8"/>
      </g>
     </g>
     <g id="text_9">
      <!-- Tit For Tat -->
      <g transform="translate(704.449318 384.15)rotate(-90)scale(0.08 -0.08)">
       <defs>
        <path id="DejaVuSans-54" d="M -19 4666 
L 3928 4666 
L 3928 4134 
L 2272 4134 
L 2272 0 
L 1638 0 
L 1638 4134 
L -19 4134 
L -19 4666 
z
" transform="scale(0.015625)"/>
        <path id="DejaVuSans-46" d="M 628 4666 
L 3309 4666 
L 3309 4134 
L 1259 4134 
L 1259 2759 
L 3109 2759 
L 3109 2228 
L 1259 2228 
L 1259 0 
L 628 0 
L 628 4666 
z
" transform="scale(0.015625)"/>
       </defs>
       <use xlink:href="#DejaVuSans-54"/>
       <use xlink:href="#DejaVuSans-69" x="57.958984"/>
       <use xlink:href="#DejaVuSans-74" x="85.742188"/>
       <use xlink:href="#DejaVuSans-20" x="124.951172"/>
       <use xlink:href="#DejaVuSans-46" x="156.738281"/>
       <use xlink:href="#DejaVuSans-6f" x="210.632812"/>
       <use xlink:href="#DejaVuSans-72" x="271.814453"/>
       <use xlink:href="#DejaVuSans-20" x="312.927734"/>
       <use xlink:href="#DejaVuSans-54" x="344.714844"/>
       <use xlink:href="#DejaVuSans-61" x="389.298828"/>
       <use xlink:href="#DejaVuSans-74" x="450.578125"/>
      </g>
     </g>
    </g>
    <g id="xtick_10">
     <g id="line2d_10">
      <g>
       <use xlink:href="#m3d3db9f689" x="777.720909" y="337.97" style="stroke: #000000; stroke-width: 0.8"/>
      </g>
     </g>
     <g id="text_10">
      <!-- Cooperator -->
      <g transform="translate(779.928409 389.85875)rotate(-90)scale(0.08 -0.08)">
       <defs>
        <path id="DejaVuSans-43" d="M 4122 4306 
L 4122 3641 
Q 3803 3938 3442 4084 
Q 3081 4231 2675 4231 
Q 1875 4231 1450 3742 
Q 1025 3253 1025 2328 
Q 1025 1406 1450 917 
Q 1875 428 2675 428 
Q 3081 428 3442 575 
Q 3803 722 4122 1019 
L 4122 359 
Q 3791 134 3420 21 
Q 3050 -91 2638 -91 
Q 1578 -91 968 557 
Q 359 1206 359 2328 
Q 359 3453 968 4101 
Q 1578 4750 2638 4750 
Q 3056 4750 3426 4639 
Q 3797 4528 4122 4306 
z
" transform="scale(0.015625)"/>
       </defs>
       <use xlink:href="#DejaVuSans-43"/>
       <use xlink:href="#DejaVuSans-6f" x="69.824219"/>
       <use xlink:href="#DejaVuSans-6f" x="131.005859"/>
       <use xlink:href="#DejaVuSans-70" x="192.1875"/>
       <use xlink:href="#DejaVuSans-65" x="255.664062"/>
       <use xlink:href="#DejaVuSans-72" x="317.1875"/>
       <use xlink:href="#DejaVuSans-61" x="358.300781"/>
       <use xlink:href="#DejaVuSans-74" x="419.580078"/>
       <use xlink:href="#DejaVuSans-6f" x="458.789062"/>
       <use xlink:href="#DejaVuSans-72" x="519.970703"/>
      </g>
     </g>
    </g>
   </g>
   <g id="matplotlib.axis_2">
    <g id="ytick_1">
     <g id="line2d_11">
      <defs>
       <path id="m14ef1b49ae" d="M 0 0 
L -3.5 0 
" style="stroke: #000000; stroke-width: 0.8"/>
      </defs>
      <g>
       <use xlink:href="#m14ef1b49ae" x="22.93" y="322.4155" style="stroke: #000000; stroke-width: 0.8"/>
      </g>
     </g>
     <g id="text_11">
      <!-- 0 -->
      <g transform="translate(10.84 325.454875)scale(0.08 -0.08)">
       <use xlink:href="#DejaVuSans-30"/>
      </g>
     </g>
    </g>
    <g id="ytick_2">
     <g id="line2d_12">
      <g>
       <use xlink:href="#m14ef1b49ae" x="22.93" y="260.1975" style="stroke: #000000; stroke-width: 0.8"/>
      </g>
     </g>
     <g id="text_12">
      <!-- 2 -->
      <g transform="translate(10.84 263.236875)scale(0.08 -0.08)">
       <defs>
        <path id="DejaVuSans-32" d="M 1228 531 
L 3431 531 
L 3431 0 
L 469 0 
L 469 531 
Q 828 903 1448 1529 
Q 2069 2156 2228 2338 
Q 2531 2678 2651 2914 
Q 2772 3150 2772 3378 
Q 2772 3750 2511 3984 
Q 2250 4219 1831 4219 
Q 1534 4219 1204 4116 
Q 875 4013 500 3803 
L 500 4441 
Q 881 4594 1212 4672 
Q 1544 4750 1819 4750 
Q 2544 4750 2975 4387 
Q 3406 4025 3406 3419 
Q 3406 3131 3298 2873 
Q 3191 2616 2906 2266 
Q 2828 2175 2409 1742 
Q 1991 1309 1228 531 
z
" transform="scale(0.015625)"/>
       </defs>
       <use xlink:href="#DejaVuSans-32"/>
      </g>
     </g>
    </g>
    <g id="ytick_3">
     <g id="line2d_13">
      <g>
       <use xlink:href="#m14ef1b49ae" x="22.93" y="197.9795" style="stroke: #000000; stroke-width: 0.8"/>
      </g>
     </g>
     <g id="text_13">
      <!-- 4 -->
      <g transform="translate(10.84 201.018875)scale(0.08 -0.08)">
       <defs>
        <path id="DejaVuSans-34" d="M 2419 4116 
L 825 1625 
L 2419 1625 
L 2419 4116 
z
M 2253 4666 
L 3047 4666 
L 3047 1625 
L 3713 1625 
L 3713 1100 
L 3047 1100 
L 3047 0 
L 2419 0 
L 2419 1100 
L 313 1100 
L 313 1709 
L 2253 4666 
z
" transform="scale(0.015625)"/>
       </defs>
       <use xlink:href="#DejaVuSans-34"/>
      </g>
     </g>
    </g>
    <g id="ytick_4">
     <g id="line2d_14">
      <g>
       <use xlink:href="#m14ef1b49ae" x="22.93" y="135.7615" style="stroke: #000000; stroke-width: 0.8"/>
      </g>
     </g>
     <g id="text_14">
      <!-- 6 -->
      <g transform="translate(10.84 138.800875)scale(0.08 -0.08)">
       <defs>
        <path id="DejaVuSans-36" d="M 2113 2584 
Q 1688 2584 1439 2293 
Q 1191 2003 1191 1497 
Q 1191 994 1439 701 
Q 1688 409 2113 409 
Q 2538 409 2786 701 
Q 3034 994 3034 1497 
Q 3034 2003 2786 2293 
Q 2538 2584 2113 2584 
z
M 3366 4563 
L 3366 3988 
Q 3128 4100 2886 4159 
Q 2644 4219 2406 4219 
Q 1781 4219 1451 3797 
Q 1122 3375 1075 2522 
Q 1259 2794 1537 2939 
Q 1816 3084 2150 3084 
Q 2853 3084 3261 2657 
Q 3669 2231 3669 1497 
Q 3669 778 3244 343 
Q 2819 -91 2113 -91 
Q 1303 -91 875 529 
Q 447 1150 447 2328 
Q 447 3434 972 4092 
Q 1497 4750 2381 4750 
Q 2619 4750 2861 4703 
Q 3103 4656 3366 4563 
z
" transform="scale(0.015625)"/>
       </defs>
       <use xlink:href="#DejaVuSans-36"/>
      </g>
     </g>
    </g>
    <g id="ytick_5">
     <g id="line2d_15">
      <g>
       <use xlink:href="#m14ef1b49ae" x="22.93" y="73.5435" style="stroke: #000000; stroke-width: 0.8"/>
      </g>
     </g>
     <g id="text_15">
      <!-- 8 -->
      <g transform="translate(10.84 76.582875)scale(0.08 -0.08)">
       <defs>
        <path id="DejaVuSans-38" d="M 2034 2216 
Q 1584 2216 1326 1975 
Q 1069 1734 1069 1313 
Q 1069 891 1326 650 
Q 1584 409 2034 409 
Q 2484 409 2743 651 
Q 3003 894 3003 1313 
Q 3003 1734 2745 1975 
Q 2488 2216 2034 2216 
z
M 1403 2484 
Q 997 2584 770 2862 
Q 544 3141 544 3541 
Q 544 4100 942 4425 
Q 1341 4750 2034 4750 
Q 2731 4750 3128 4425 
Q 3525 4100 3525 3541 
Q 3525 3141 3298 2862 
Q 3072 2584 2669 2484 
Q 3125 2378 3379 2068 
Q 3634 1759 3634 1313 
Q 3634 634 3220 271 
Q 2806 -91 2034 -91 
Q 1263 -91 848 271 
Q 434 634 434 1313 
Q 434 1759 690 2068 
Q 947 2378 1403 2484 
z
M 1172 3481 
Q 1172 3119 1398 2916 
Q 1625 2713 2034 2713 
Q 2441 2713 2670 2916 
Q 2900 3119 2900 3481 
Q 2900 3844 2670 4047 
Q 2441 4250 2034 4250 
Q 1625 4250 1398 4047 
Q 1172 3844 1172 3481 
z
" transform="scale(0.015625)"/>
       </defs>
       <use xlink:href="#DejaVuSans-38"/>
      </g>
     </g>
    </g>
   </g>
   <g id="LineCollection_1">
    <path d="M 88.974205 42.4345 
L 107.843977 42.4345 
" clip-path="url(#pa0886234b2)" style="fill: none; stroke: #1f77b4; stroke-width: 1.5"/>
    <path d="M 164.453295 166.8705 
L 183.323068 166.8705 
" clip-path="url(#pa0886234b2)" style="fill: none; stroke: #1f77b4; stroke-width: 1.5"/>
    <path d="M 239.932386 166.8705 
L 258.802159 166.8705 
" clip-path="url(#pa0886234b2)" style="fill: none; stroke: #1f77b4; stroke-width: 1.5"/>
    <path d="M 315.411477 166.8705 
L 334.28125 166.8705 
" clip-path="url(#pa0886234b2)" style="fill: none; stroke: #1f77b4; stroke-width: 1.5"/>
    <path d="M 390.890568 166.8705 
L 409.760341 166.8705 
" clip-path="url(#pa0886234b2)" style="fill: none; stroke: #1f77b4; stroke-width: 1.5"/>
    <path d="M 466.369659 197.9795 
L 485.239432 197.9795 
" clip-path="url(#pa0886234b2)" style="fill: none; stroke: #1f77b4; stroke-width: 1.5"/>
    <path d="M 541.84875 260.1975 
L 560.718523 260.1975 
" clip-path="url(#pa0886234b2)" style="fill: none; stroke: #1f77b4; stroke-width: 1.5"/>
    <path d="M 617.327841 260.1975 
L 636.197614 260.1975 
" clip-path="url(#pa0886234b2)" style="fill: none; stroke: #1f77b4; stroke-width: 1.5"/>
    <path d="M 692.806932 322.4155 
L 711.676705 322.4155 
" clip-path="url(#pa0886234b2)" style="fill: none; stroke: #1f77b4; stroke-width: 1.5"/>
    <path d="M 768.286023 322.4155 
L 787.155795 322.4155 
" clip-path="url(#pa0886234b2)" style="fill: none; stroke: #1f77b4; stroke-width: 1.5"/>
   </g>
   <g id="patch_3">
    <path d="M 22.93 337.97 
L 22.93 26.88 
" style="fill: none; stroke: #000000; stroke-width: 0.8; stroke-linejoin: miter; stroke-linecap: square"/>
   </g>
   <g id="patch_4">
    <path d="M 853.2 337.97 
L 853.2 26.88 
" style="fill: none; stroke: #000000; stroke-width: 0.8; stroke-linejoin: miter; stroke-linecap: square"/>
   </g>
   <g id="patch_5">
    <path d="M 22.93 337.97 
L 853.2 337.97 
" style="fill: none; stroke: #000000; stroke-width: 0.8; stroke-linejoin: miter; stroke-linecap: square"/>
   </g>
   <g id="patch_6">
    <path d="M 22.93 26.88 
L 853.2 26.88 
" style="fill: none; stroke: #000000; stroke-width: 0.8; stroke-linejoin: miter; stroke-linecap: square"/>
   </g>
   <g id="text_16">
    <!-- Wins - turns: 200, repetitions: 20, strategies: 10.  -->
    <g transform="translate(290.180938 20.88)scale(0.12 -0.12)">
     <defs>
      <path id="DejaVuSans-57" d="M 213 4666 
L 850 4666 
L 1831 722 
L 2809 4666 
L 3519 4666 
L 4500 722 
L 5478 4666 
L 6119 4666 
L 4947 0 
L 4153 0 
L 3169 4050 
L 2175 0 
L 1381 0 
L 213 4666 
z
" transform="scale(0.015625)"/>
      <path id="DejaVuSans-2d" d="M 313 2009 
L 1997 2009 
L 1997 1497 
L 313 1497 
L 313 2009 
z
" transform="scale(0.015625)"/>
      <path id="DejaVuSans-2c" d="M 750 794 
L 1409 794 
L 1409 256 
L 897 -744 
L 494 -744 
L 750 256 
L 750 794 
z
" transform="scale(0.015625)"/>
      <path id="DejaVuSans-31" d="M 794 531 
L 1825 531 
L 1825 4091 
L 703 3866 
L 703 4441 
L 1819 4666 
L 2450 4666 
L 2450 531 
L 3481 531 
L 3481 0 
L 794 0 
L 794 531 
z
" transform="scale(0.015625)"/>
     </defs>
     <use xlink:href="#DejaVuSans-57"/>
     <use xlink:href="#DejaVuSans-69" x="96.626953"/>
     <use xlink:href="#DejaVuSans-6e" x="124.410156"/>
     <use xlink:href="#DejaVuSans-73" x="187.789062"/>
     <use xlink:href="#DejaVuSans-20" x="239.888672"/>
     <use xlink:href="#DejaVuSans-2d" x="271.675781"/>
     <use xlink:href="#DejaVuSans-20" x="307.759766"/>
     <use xlink:href="#DejaVuSans-74" x="339.546875"/>
     <use xlink:href="#DejaVuSans-75" x="378.755859"/>
     <use xlink:href="#DejaVuSans-72" x="442.134766"/>
     <use xlink:href="#DejaVuSans-6e" x="481.498047"/>
     <use xlink:href="#DejaVuSans-73" x="544.876953"/>
     <use xlink:href="#DejaVuSans-3a" x="596.976562"/>
     <use xlink:href="#DejaVuSans-20" x="630.667969"/>
     <use xlink:href="#DejaVuSans-32" x="662.455078"/>
     <use xlink:href="#DejaVuSans-30" x="726.078125"/>
     <use xlink:href="#DejaVuSans-30" x="789.701172"/>
     <use xlink:href="#DejaVuSans-2c" x="853.324219"/>
     <use xlink:href="#DejaVuSans-20" x="885.111328"/>
     <use xlink:href="#DejaVuSans-72" x="916.898438"/>
     <use xlink:href="#DejaVuSans-65" x="955.761719"/>
     <use xlink:href="#DejaVuSans-70" x="1017.285156"/>
     <use xlink:href="#DejaVuSans-65" x="1080.761719"/>
     <use xlink:href="#DejaVuSans-74" x="1142.285156"/>
     <use xlink:href="#DejaVuSans-69" x="1181.494141"/>
     <use xlink:href="#DejaVuSans-74" x="1209.277344"/>
     <use xlink:href="#DejaVuSans-69" x="1248.486328"/>
     <use xlink:href="#DejaVuSans-6f" x="1276.269531"/>
     <use xlink:href="#DejaVuSans-6e" x="1337.451172"/>
     <use xlink:href="#DejaVuSans-73" x="1400.830078"/>
     <use xlink:href="#DejaVuSans-3a" x="1452.929688"/>
     <use xlink:href="#DejaVuSans-20" x="1486.621094"/>
     <use xlink:href="#DejaVuSans-32" x="1518.408203"/>
     <use xlink:href="#DejaVuSans-30" x="1582.03125"/>
     <use xlink:href="#DejaVuSans-2c" x="1645.654297"/>
     <use xlink:href="#DejaVuSans-20" x="1677.441406"/>
     <use xlink:href="#DejaVuSans-73" x="1709.228516"/>
     <use xlink:href="#DejaVuSans-74" x="1761.328125"/>
     <use xlink:href="#DejaVuSans-72" x="1800.537109"/>
     <use xlink:href="#DejaVuSans-61" x="1841.650391"/>
     <use xlink:href="#DejaVuSans-74" x="1902.929688"/>
     <use xlink:href="#DejaVuSans-65" x="1942.138672"/>
     <use xlink:href="#DejaVuSans-67" x="2003.662109"/>
     <use xlink:href="#DejaVuSans-69" x="2067.138672"/>
     <use xlink:href="#DejaVuSans-65" x="2094.921875"/>
     <use xlink:href="#DejaVuSans-73" x="2156.445312"/>
     <use xlink:href="#DejaVuSans-3a" x="2208.544922"/>
     <use xlink:href="#DejaVuSans-20" x="2242.236328"/>
     <use xlink:href="#DejaVuSans-31" x="2274.023438"/>
     <use xlink:href="#DejaVuSans-30" x="2337.646484"/>
     <use xlink:href="#DejaVuSans-2e" x="2401.269531"/>
     <use xlink:href="#DejaVuSans-20" x="2433.056641"/>
    </g>
   </g>
  </g>
 </g>
 <defs>
  <clipPath id="pa0886234b2">
   <rect x="22.93" y="26.88" width="830.27" height="311.09"/>
  </clipPath>
 </defs>
</svg>
