<?xml version="1.0" encoding="utf-8" standalone="no"?>
<!DOCTYPE svg PUBLIC "-//W3C//DTD SVG 1.1//EN"
  "http://www.w3.org/Graphics/SVG/1.1/DTD/svg11.dtd">
<svg xmlns:xlink="http://www.w3.org/1999/xlink" width="864pt" height="432pt" viewBox="0 0 864 432" xmlns="http://www.w3.org/2000/svg" version="1.1">
 <metadata>
  <rdf:RDF xmlns:dc="http://purl.org/dc/elements/1.1/" xmlns:cc="http://creativecommons.org/ns#" xmlns:rdf="http://www.w3.org/1999/02/22-rdf-syntax-ns#">
   <cc:Work>
    <dc:type rdf:resource="http://purl.org/dc/dcmitype/StillImage"/>
    <dc:date>2022-09-25T13:00:27.639183</dc:date>
    <dc:format>image/svg+xml</dc:format>
    <dc:creator>
     <cc:Agent>
      <dc:title>Matplotlib v3.5.1, https://matplotlib.org/</dc:title>
     </cc:Agent>
    </dc:creator>
   </cc:Work>
  </rdf:RDF>
 </metadata>
 <defs>
  <style type="text/css">*{stroke-linejoin: round; stroke-linecap: butt}</style>
 </defs>
 <g id="figure_1">
  <g id="patch_1">
   <path d="M 0 432 
L 864 432 
L 864 0 
L 0 0 
z
" style="fill: #ffffff"/>
  </g>
  <g id="axes_1">
   <g id="patch_2">
    <path d="M 30.67 337.97 
L 853.2 337.97 
L 853.2 26.88 
L 30.67 26.88 
z
" style="fill: #ffffff"/>
   </g>
   <g id="PolyCollection_1">
    <path d="M 115.954239 137.288082 
L 94.93667 137.288082 
L 94.527314 136.607278 
L 94.122165 135.926474 
L 93.722374 135.245671 
L 93.329055 134.564867 
L 92.943283 133.884063 
L 92.566081 133.203259 
L 92.198423 132.522456 
L 91.841225 131.841652 
L 91.495344 131.160848 
L 91.161571 130.480044 
L 90.840631 129.799241 
L 90.53318 129.118437 
L 90.239802 128.437633 
L 89.96101 127.756829 
L 89.697237 127.076026 
L 89.448843 126.395222 
L 89.216105 125.714418 
L 88.999221 125.033614 
L 88.798304 124.352811 
L 88.613383 123.672007 
L 88.444398 122.991203 
L 88.291202 122.310399 
L 88.153556 121.629596 
L 88.031132 120.948792 
L 87.923506 120.267988 
L 87.830168 119.587184 
L 87.750513 118.906381 
L 87.68385 118.225577 
L 87.629404 117.544773 
L 87.58632 116.863969 
L 87.553668 116.183166 
L 87.530452 115.502362 
L 87.515619 114.821558 
L 87.50807 114.140754 
L 87.506671 113.459951 
L 87.510264 112.779147 
L 87.517685 112.098343 
L 87.527777 111.417539 
L 87.539404 110.736736 
L 87.55147 110.055932 
L 87.562932 109.375128 
L 87.572817 108.694324 
L 87.580234 108.013521 
L 87.584394 107.332717 
L 87.584612 106.651913 
L 87.580327 105.971109 
L 87.571105 105.290306 
L 87.556646 104.609502 
L 87.53679 103.928698 
L 87.511516 103.247894 
L 87.480941 102.567091 
L 87.445317 101.886287 
L 87.405026 101.205483 
L 87.360569 100.524679 
L 87.312556 99.843876 
L 87.261697 99.163072 
L 87.208784 98.482268 
L 87.154678 97.801464 
L 87.100297 97.120661 
L 87.046593 96.439857 
L 86.994543 95.759053 
L 86.945132 95.078249 
L 86.899338 94.397446 
L 86.858119 93.716642 
L 86.822405 93.035838 
L 86.793082 92.355034 
L 86.770991 91.674231 
L 86.756918 90.993427 
L 86.751591 90.312623 
L 86.75568 89.631819 
L 86.769795 88.951016 
L 86.794489 88.270212 
L 86.830258 87.589408 
L 86.877552 86.908604 
L 86.936773 86.227801 
L 87.008283 85.546997 
L 87.092414 84.866193 
L 87.189466 84.185389 
L 87.299719 83.504586 
L 87.423431 82.823782 
L 87.560849 82.142978 
L 87.712202 81.462174 
L 87.877708 80.781371 
L 88.05757 80.100567 
L 88.251975 79.419763 
L 88.461088 78.738959 
L 88.685046 78.058156 
L 88.923954 77.377352 
L 89.177875 76.696548 
L 89.446821 76.015744 
L 89.730744 75.334941 
L 90.029529 74.654137 
L 90.342982 73.973333 
L 90.670823 73.292529 
L 91.012676 72.611726 
L 91.368067 71.930922 
L 91.736417 71.250118 
L 92.117036 70.569314 
L 92.509127 69.888511 
L 118.381782 69.888511 
L 118.381782 69.888511 
L 118.773873 70.569314 
L 119.154493 71.250118 
L 119.522842 71.930922 
L 119.878233 72.611726 
L 120.220086 73.292529 
L 120.547927 73.973333 
L 120.86138 74.654137 
L 121.160165 75.334941 
L 121.444089 76.015744 
L 121.713034 76.696548 
L 121.966955 77.377352 
L 122.205863 78.058156 
L 122.429821 78.738959 
L 122.638934 79.419763 
L 122.833339 80.100567 
L 123.013201 80.781371 
L 123.178707 81.462174 
L 123.33006 82.142978 
L 123.467478 82.823782 
L 123.591191 83.504586 
L 123.701443 84.185389 
L 123.798495 84.866193 
L 123.882626 85.546997 
L 123.954136 86.227801 
L 124.013357 86.908604 
L 124.060651 87.589408 
L 124.09642 88.270212 
L 124.121114 88.951016 
L 124.135229 89.631819 
L 124.139318 90.312623 
L 124.133992 90.993427 
L 124.119918 91.674231 
L 124.097827 92.355034 
L 124.068504 93.035838 
L 124.03279 93.716642 
L 123.991571 94.397446 
L 123.945777 95.078249 
L 123.896366 95.759053 
L 123.844316 96.439857 
L 123.790612 97.120661 
L 123.736231 97.801464 
L 123.682125 98.482268 
L 123.629212 99.163072 
L 123.578353 99.843876 
L 123.530341 100.524679 
L 123.485883 101.205483 
L 123.445592 101.886287 
L 123.409969 102.567091 
L 123.379393 103.247894 
L 123.354119 103.928698 
L 123.334263 104.609502 
L 123.319805 105.290306 
L 123.310582 105.971109 
L 123.306297 106.651913 
L 123.306515 107.332717 
L 123.310675 108.013521 
L 123.318093 108.694324 
L 123.327977 109.375128 
L 123.339439 110.055932 
L 123.351505 110.736736 
L 123.363132 111.417539 
L 123.373224 112.098343 
L 123.380645 112.779147 
L 123.384238 113.459951 
L 123.382839 114.140754 
L 123.37529 114.821558 
L 123.360458 115.502362 
L 123.337241 116.183166 
L 123.304589 116.863969 
L 123.261505 117.544773 
L 123.207059 118.225577 
L 123.140396 118.906381 
L 123.060741 119.587184 
L 122.967403 120.267988 
L 122.859777 120.948792 
L 122.737353 121.629596 
L 122.599707 122.310399 
L 122.446511 122.991203 
L 122.277526 123.672007 
L 122.092605 124.352811 
L 121.891688 125.033614 
L 121.674804 125.714418 
L 121.442066 126.395222 
L 121.193672 127.076026 
L 120.929899 127.756829 
L 120.651107 128.437633 
L 120.35773 129.118437 
L 120.050279 129.799241 
L 119.729338 130.480044 
L 119.395565 131.160848 
L 119.049684 131.841652 
L 118.692486 132.522456 
L 118.324828 133.203259 
L 117.947627 133.884063 
L 117.561854 134.564867 
L 117.168535 135.245671 
L 116.768744 135.926474 
L 116.363595 136.607278 
L 115.954239 137.288082 
z
" clip-path="url(#pef147dba5b)" style="fill: #1f77b4; fill-opacity: 0.3"/>
   </g>
   <g id="PolyCollection_2">
    <path d="M 198.468045 157.838223 
L 161.973773 157.838223 
L 161.827111 157.288391 
L 161.708771 156.738559 
L 161.61928 156.188726 
L 161.559024 155.638894 
L 161.528248 155.089061 
L 161.527045 154.539229 
L 161.555365 153.989396 
L 161.613006 153.439564 
L 161.699619 152.889732 
L 161.814711 152.339899 
L 161.957643 151.790067 
L 162.127639 151.240234 
L 162.32379 150.690402 
L 162.545059 150.140569 
L 162.790287 149.590737 
L 163.058204 149.040905 
L 163.347434 148.491072 
L 163.656507 147.94124 
L 163.983865 147.391407 
L 164.327878 146.841575 
L 164.686847 146.291742 
L 165.05902 145.74191 
L 165.442603 145.192078 
L 165.835767 144.642245 
L 166.23666 144.092413 
L 166.643422 143.54258 
L 167.054191 142.992748 
L 167.467112 142.442915 
L 167.880351 141.893083 
L 168.292104 141.343251 
L 168.700601 140.793418 
L 169.104119 140.243586 
L 169.50099 139.693753 
L 169.889604 139.143921 
L 170.268421 138.594088 
L 170.63597 138.044256 
L 170.990863 137.494424 
L 171.33179 136.944591 
L 171.657533 136.394759 
L 171.966961 135.844926 
L 172.259038 135.295094 
L 172.532822 134.745261 
L 172.78747 134.195429 
L 173.022236 133.645597 
L 173.236477 133.095764 
L 173.429646 132.545932 
L 173.601298 131.996099 
L 173.75109 131.446267 
L 173.878776 130.896434 
L 173.984208 130.346602 
L 174.067338 129.79677 
L 174.128212 129.246937 
L 174.166974 128.697105 
L 174.183858 128.147272 
L 174.17919 127.59744 
L 174.153387 127.047607 
L 174.106951 126.497775 
L 174.040471 125.947943 
L 173.954615 125.39811 
L 173.850134 124.848278 
L 173.727854 124.298445 
L 173.588673 123.748613 
L 173.433563 123.19878 
L 173.263558 122.648948 
L 173.079758 122.099115 
L 172.88332 121.549283 
L 172.675456 120.999451 
L 172.457427 120.449618 
L 172.230539 119.899786 
L 171.996135 119.349953 
L 171.755596 118.800121 
L 171.510326 118.250288 
L 171.261754 117.700456 
L 171.011322 117.150624 
L 170.760481 116.600791 
L 170.510684 116.050959 
L 170.263376 115.501126 
L 170.019992 114.951294 
L 169.781946 114.401461 
L 169.550622 113.851629 
L 169.327371 113.301797 
L 169.113501 112.751964 
L 168.91027 112.202132 
L 168.718878 111.652299 
L 168.540464 111.102467 
L 168.376094 110.552634 
L 168.226759 110.002802 
L 168.093367 109.45297 
L 167.976739 108.903137 
L 167.877604 108.353305 
L 167.796596 107.803472 
L 167.734247 107.25364 
L 167.690988 106.703807 
L 167.667147 106.153975 
L 167.662943 105.604143 
L 167.678491 105.05431 
L 167.713801 104.504478 
L 167.768776 103.954645 
L 167.843216 103.404813 
L 192.598602 103.404813 
L 192.598602 103.404813 
L 192.673042 103.954645 
L 192.728017 104.504478 
L 192.763327 105.05431 
L 192.778875 105.604143 
L 192.774671 106.153975 
L 192.75083 106.703807 
L 192.707571 107.25364 
L 192.645222 107.803472 
L 192.564214 108.353305 
L 192.465079 108.903137 
L 192.348452 109.45297 
L 192.215059 110.002802 
L 192.065724 110.552634 
L 191.901354 111.102467 
L 191.72294 111.652299 
L 191.531548 112.202132 
L 191.328317 112.751964 
L 191.114447 113.301797 
L 190.891196 113.851629 
L 190.659873 114.401461 
L 190.421826 114.951294 
L 190.178442 115.501126 
L 189.931135 116.050959 
L 189.681337 116.600791 
L 189.430496 117.150624 
L 189.180064 117.700456 
L 188.931492 118.250288 
L 188.686222 118.800121 
L 188.445683 119.349953 
L 188.21128 119.899786 
L 187.984391 120.449618 
L 187.766362 120.999451 
L 187.558498 121.549283 
L 187.36206 122.099115 
L 187.17826 122.648948 
L 187.008255 123.19878 
L 186.853145 123.748613 
L 186.713964 124.298445 
L 186.591684 124.848278 
L 186.487203 125.39811 
L 186.401347 125.947943 
L 186.334867 126.497775 
L 186.288431 127.047607 
L 186.262628 127.59744 
L 186.25796 128.147272 
L 186.274844 128.697105 
L 186.313606 129.246937 
L 186.374481 129.79677 
L 186.45761 130.346602 
L 186.563043 130.896434 
L 186.690728 131.446267 
L 186.84052 131.996099 
L 187.012173 132.545932 
L 187.205342 133.095764 
L 187.419582 133.645597 
L 187.654349 134.195429 
L 187.908996 134.745261 
L 188.18278 135.295094 
L 188.474857 135.844926 
L 188.784285 136.394759 
L 189.110028 136.944591 
L 189.450956 137.494424 
L 189.805848 138.044256 
L 190.173398 138.594088 
L 190.552214 139.143921 
L 190.940828 139.693753 
L 191.337699 140.243586 
L 191.741218 140.793418 
L 192.149714 141.343251 
L 192.561467 141.893083 
L 192.974706 142.442915 
L 193.387627 142.992748 
L 193.798396 143.54258 
L 194.205158 144.092413 
L 194.606052 144.642245 
L 194.999215 145.192078 
L 195.382798 145.74191 
L 195.754971 146.291742 
L 196.11394 146.841575 
L 196.457953 147.391407 
L 196.785311 147.94124 
L 197.094384 148.491072 
L 197.383614 149.040905 
L 197.651531 149.590737 
L 197.896759 150.140569 
L 198.118028 150.690402 
L 198.314179 151.240234 
L 198.484176 151.790067 
L 198.627107 152.339899 
L 198.742199 152.889732 
L 198.828812 153.439564 
L 198.886453 153.989396 
L 198.914773 154.539229 
L 198.91357 155.089061 
L 198.882794 155.638894 
L 198.822539 156.188726 
L 198.733048 156.738559 
L 198.614707 157.288391 
L 198.468045 157.838223 
z
" clip-path="url(#pef147dba5b)" style="fill: #1f77b4; fill-opacity: 0.3"/>
   </g>
   <g id="PolyCollection_3">
    <path d="M 267.060681 238.815567 
L 242.932047 238.815567 
L 242.827196 237.908652 
L 242.740592 237.001738 
L 242.672594 236.094823 
L 242.623464 235.187909 
L 242.593371 234.280994 
L 242.582385 233.374079 
L 242.590478 232.467165 
L 242.617521 231.56025 
L 242.663282 230.653335 
L 242.727432 229.746421 
L 242.809543 228.839506 
L 242.909089 227.932592 
L 243.025451 227.025677 
L 243.157919 226.118762 
L 243.305695 225.211848 
L 243.4679 224.304933 
L 243.643576 223.398019 
L 243.831694 222.491104 
L 244.031155 221.584189 
L 244.240804 220.677275 
L 244.459428 219.77036 
L 244.685769 218.863445 
L 244.918526 217.956531 
L 245.156365 217.049616 
L 245.397925 216.142702 
L 245.641823 215.235787 
L 245.886665 214.328872 
L 246.131049 213.421958 
L 246.373574 212.515043 
L 246.612844 211.608129 
L 246.847478 210.701214 
L 247.076112 209.794299 
L 247.297408 208.887385 
L 247.51006 207.98047 
L 247.712794 207.073555 
L 247.90438 206.166641 
L 248.083634 205.259726 
L 248.24942 204.352812 
L 248.40066 203.445897 
L 248.536331 202.538982 
L 248.655476 201.632068 
L 248.757204 200.725153 
L 248.840691 199.818238 
L 248.905188 198.911324 
L 248.950023 198.004409 
L 248.974601 197.097495 
L 248.978409 196.19058 
L 248.96102 195.283665 
L 248.922091 194.376751 
L 248.861369 193.469836 
L 248.778693 192.562922 
L 248.673993 191.656007 
L 248.547294 190.749092 
L 248.398718 189.842178 
L 248.228484 188.935263 
L 248.03691 188.028348 
L 247.824411 187.121434 
L 247.591506 186.214519 
L 247.338808 185.307605 
L 247.067036 184.40069 
L 246.777003 183.493775 
L 246.469623 182.586861 
L 246.145903 181.679946 
L 245.806948 180.773032 
L 245.453951 179.866117 
L 245.088196 178.959202 
L 244.711048 178.052288 
L 244.323954 177.145373 
L 243.928436 176.238458 
L 243.526083 175.331544 
L 243.118548 174.424629 
L 242.707537 173.517715 
L 242.294806 172.6108 
L 241.882149 171.703885 
L 241.471391 170.796971 
L 241.064378 169.890056 
L 240.662967 168.983142 
L 240.269018 168.076227 
L 239.884379 167.169312 
L 239.51088 166.262398 
L 239.15032 165.355483 
L 238.804456 164.448568 
L 238.474992 163.541654 
L 238.16357 162.634739 
L 237.871757 161.727825 
L 237.601036 160.82091 
L 237.352797 159.913995 
L 237.128326 159.007081 
L 236.928798 158.100166 
L 236.755268 157.193252 
L 236.608665 156.286337 
L 236.489785 155.379422 
L 236.399286 154.472508 
L 236.337683 153.565593 
L 236.305347 152.658678 
L 236.3025 151.751764 
L 236.329216 150.844849 
L 236.385422 149.937935 
L 236.470895 149.03102 
L 273.521833 149.03102 
L 273.521833 149.03102 
L 273.607306 149.937935 
L 273.663511 150.844849 
L 273.690227 151.751764 
L 273.68738 152.658678 
L 273.655044 153.565593 
L 273.593442 154.472508 
L 273.502942 155.379422 
L 273.384062 156.286337 
L 273.23746 157.193252 
L 273.06393 158.100166 
L 272.864402 159.007081 
L 272.639931 159.913995 
L 272.391691 160.82091 
L 272.12097 161.727825 
L 271.829157 162.634739 
L 271.517735 163.541654 
L 271.188272 164.448568 
L 270.842408 165.355483 
L 270.481848 166.262398 
L 270.108349 167.169312 
L 269.72371 168.076227 
L 269.32976 168.983142 
L 268.92835 169.890056 
L 268.521337 170.796971 
L 268.110579 171.703885 
L 267.697922 172.6108 
L 267.285191 173.517715 
L 266.87418 174.424629 
L 266.466644 175.331544 
L 266.064291 176.238458 
L 265.668773 177.145373 
L 265.28168 178.052288 
L 264.904532 178.959202 
L 264.538776 179.866117 
L 264.185779 180.773032 
L 263.846824 181.679946 
L 263.523105 182.586861 
L 263.215724 183.493775 
L 262.925691 184.40069 
L 262.653919 185.307605 
L 262.401222 186.214519 
L 262.168316 187.121434 
L 261.955818 188.028348 
L 261.764243 188.935263 
L 261.594009 189.842178 
L 261.445434 190.749092 
L 261.318735 191.656007 
L 261.214034 192.562922 
L 261.131358 193.469836 
L 261.070636 194.376751 
L 261.031707 195.283665 
L 261.014318 196.19058 
L 261.018126 197.097495 
L 261.042704 198.004409 
L 261.087539 198.911324 
L 261.152037 199.818238 
L 261.235524 200.725153 
L 261.337251 201.632068 
L 261.456396 202.538982 
L 261.592068 203.445897 
L 261.743307 204.352812 
L 261.909093 205.259726 
L 262.088347 206.166641 
L 262.279933 207.073555 
L 262.482668 207.98047 
L 262.695319 208.887385 
L 262.916615 209.794299 
L 263.14525 210.701214 
L 263.379883 211.608129 
L 263.619154 212.515043 
L 263.861678 213.421958 
L 264.106062 214.328872 
L 264.350904 215.235787 
L 264.594803 216.142702 
L 264.836362 217.049616 
L 265.074201 217.956531 
L 265.306958 218.863445 
L 265.533299 219.77036 
L 265.751923 220.677275 
L 265.961572 221.584189 
L 266.161034 222.491104 
L 266.349151 223.398019 
L 266.524827 224.304933 
L 266.687032 225.211848 
L 266.834808 226.118762 
L 266.967276 227.025677 
L 267.083638 227.932592 
L 267.183184 228.839506 
L 267.265295 229.746421 
L 267.329445 230.653335 
L 267.375207 231.56025 
L 267.402249 232.467165 
L 267.410342 233.374079 
L 267.399357 234.280994 
L 267.369264 235.187909 
L 267.320134 236.094823 
L 267.252135 237.001738 
L 267.165532 237.908652 
L 267.060681 238.815567 
z
" clip-path="url(#pef147dba5b)" style="fill: #1f77b4; fill-opacity: 0.3"/>
   </g>
   <g id="PolyCollection_4">
    <path d="M 336.41064 237.103055 
L 323.132996 237.103055 
L 322.626124 235.99227 
L 322.100117 234.881485 
L 321.556144 233.7707 
L 320.995681 232.659915 
L 320.420548 231.54913 
L 319.83293 230.438345 
L 319.235397 229.32756 
L 318.630913 228.216775 
L 318.022824 227.10599 
L 317.414844 225.995205 
L 316.81102 224.884419 
L 316.215677 223.773634 
L 315.633353 222.662849 
L 315.068719 221.552064 
L 314.526482 220.441279 
L 314.011285 219.330494 
L 313.527594 218.219709 
L 313.079584 217.108924 
L 312.671036 215.998139 
L 312.305227 214.887354 
L 311.984843 213.776569 
L 311.711901 212.665784 
L 311.487701 211.554999 
L 311.312785 210.444214 
L 311.18694 209.333428 
L 311.109212 208.222643 
L 311.077955 207.111858 
L 311.0909 206.001073 
L 311.14525 204.890288 
L 311.23779 203.779503 
L 311.365009 202.668718 
L 311.523233 201.557933 
L 311.708762 200.447148 
L 311.917995 199.336363 
L 312.147554 198.225578 
L 312.394385 197.114793 
L 312.655847 196.004008 
L 312.929767 194.893223 
L 313.214481 193.782438 
L 313.508838 192.671652 
L 313.812181 191.560867 
L 314.124305 190.450082 
L 314.445389 189.339297 
L 314.775911 188.228512 
L 315.116553 187.117727 
L 315.468094 186.006942 
L 315.831303 184.896157 
L 316.20684 183.785372 
L 316.595154 182.674587 
L 316.996414 181.563802 
L 317.410438 180.453017 
L 317.836658 179.342232 
L 318.274098 178.231447 
L 318.721378 177.120662 
L 319.17674 176.009876 
L 319.638088 174.899091 
L 320.10305 173.788306 
L 320.569047 172.677521 
L 321.033377 171.566736 
L 321.493294 170.455951 
L 321.94609 169.345166 
L 322.389171 168.234381 
L 322.820128 167.123596 
L 323.236789 166.012811 
L 323.637263 164.902026 
L 324.019969 163.791241 
L 324.383648 162.680456 
L 324.727365 161.569671 
L 325.050495 160.458885 
L 325.352698 159.3481 
L 325.633893 158.237315 
L 325.89422 157.12653 
L 326.134003 156.015745 
L 326.353713 154.90496 
L 326.553934 153.794175 
L 326.735333 152.68339 
L 326.898635 151.572605 
L 327.044609 150.46182 
L 327.174055 149.351035 
L 327.287802 148.24025 
L 327.386704 147.129465 
L 327.471655 146.01868 
L 327.543587 144.907895 
L 327.603488 143.797109 
L 327.652404 142.686324 
L 327.69145 141.575539 
L 327.72181 140.464754 
L 327.744737 139.353969 
L 327.761545 138.243184 
L 327.773598 137.132399 
L 327.782293 136.021614 
L 327.789033 134.910829 
L 327.795209 133.800044 
L 327.802165 132.689259 
L 327.811171 131.578474 
L 327.823392 130.467689 
L 327.839861 129.356904 
L 327.861455 128.246119 
L 327.88887 127.135333 
L 331.654766 127.135333 
L 331.654766 127.135333 
L 331.682182 128.246119 
L 331.703775 129.356904 
L 331.720244 130.467689 
L 331.732465 131.578474 
L 331.741471 132.689259 
L 331.748427 133.800044 
L 331.754603 134.910829 
L 331.761344 136.021614 
L 331.770038 137.132399 
L 331.782091 138.243184 
L 331.798899 139.353969 
L 331.821826 140.464754 
L 331.852186 141.575539 
L 331.891232 142.686324 
L 331.940148 143.797109 
L 332.000049 144.907895 
L 332.071982 146.01868 
L 332.156932 147.129465 
L 332.255835 148.24025 
L 332.369581 149.351035 
L 332.499027 150.46182 
L 332.645002 151.572605 
L 332.808304 152.68339 
L 332.989702 153.794175 
L 333.189923 154.90496 
L 333.409633 156.015745 
L 333.649416 157.12653 
L 333.909743 158.237315 
L 334.190939 159.3481 
L 334.493142 160.458885 
L 334.816271 161.569671 
L 335.159988 162.680456 
L 335.523668 163.791241 
L 335.906374 164.902026 
L 336.306847 166.012811 
L 336.723508 167.123596 
L 337.154465 168.234381 
L 337.597547 169.345166 
L 338.050342 170.455951 
L 338.510259 171.566736 
L 338.974589 172.677521 
L 339.440587 173.788306 
L 339.905548 174.899091 
L 340.366896 176.009876 
L 340.822258 177.120662 
L 341.269539 178.231447 
L 341.706979 179.342232 
L 342.133199 180.453017 
L 342.547222 181.563802 
L 342.948482 182.674587 
L 343.336797 183.785372 
L 343.712333 184.896157 
L 344.075543 186.006942 
L 344.427084 187.117727 
L 344.767726 188.228512 
L 345.098248 189.339297 
L 345.419331 190.450082 
L 345.731455 191.560867 
L 346.034798 192.671652 
L 346.329155 193.782438 
L 346.613869 194.893223 
L 346.88779 196.004008 
L 347.149251 197.114793 
L 347.396083 198.225578 
L 347.625641 199.336363 
L 347.834875 200.447148 
L 348.020403 201.557933 
L 348.178628 202.668718 
L 348.305846 203.779503 
L 348.398386 204.890288 
L 348.452736 206.001073 
L 348.465682 207.111858 
L 348.434425 208.222643 
L 348.356696 209.333428 
L 348.230851 210.444214 
L 348.055936 211.554999 
L 347.831735 212.665784 
L 347.558794 213.776569 
L 347.238409 214.887354 
L 346.8726 215.998139 
L 346.464052 217.108924 
L 346.016043 218.219709 
L 345.532351 219.330494 
L 345.017154 220.441279 
L 344.474917 221.552064 
L 343.910283 222.662849 
L 343.327959 223.773634 
L 342.732616 224.884419 
L 342.128792 225.995205 
L 341.520813 227.10599 
L 340.912724 228.216775 
L 340.308239 229.32756 
L 339.710707 230.438345 
L 339.123089 231.54913 
L 338.547955 232.659915 
L 337.987493 233.7707 
L 337.443519 234.881485 
L 336.917513 235.99227 
L 336.41064 237.103055 
z
" clip-path="url(#pef147dba5b)" style="fill: #1f77b4; fill-opacity: 0.3"/>
   </g>
   <g id="PolyCollection_5">
    <path d="M 417.745417 236.980733 
L 391.349128 236.980733 
L 390.817462 236.442021 
L 390.303095 235.903308 
L 389.808848 235.364596 
L 389.337356 234.825884 
L 388.891022 234.287172 
L 388.471985 233.74846 
L 388.082079 233.209747 
L 387.722814 232.671035 
L 387.395343 232.132323 
L 387.100452 231.593611 
L 386.838548 231.054898 
L 386.609655 230.516186 
L 386.413419 229.977474 
L 386.249119 229.438762 
L 386.115688 228.90005 
L 386.011732 228.361337 
L 385.935569 227.822625 
L 385.885259 227.283913 
L 385.858647 226.745201 
L 385.853409 226.206488 
L 385.867095 225.667776 
L 385.897178 225.129064 
L 385.941105 224.590352 
L 385.996337 224.05164 
L 386.060401 223.512927 
L 386.130924 222.974215 
L 386.205678 222.435503 
L 386.282605 221.896791 
L 386.359849 221.358078 
L 386.435776 220.819366 
L 386.508989 220.280654 
L 386.578339 219.741942 
L 386.642926 219.20323 
L 386.702099 218.664517 
L 386.755448 218.125805 
L 386.802793 217.587093 
L 386.844168 217.048381 
L 386.879803 216.509668 
L 386.910101 215.970956 
L 386.935619 215.432244 
L 386.957042 214.893532 
L 386.975163 214.35482 
L 386.990854 213.816107 
L 387.005051 213.277395 
L 387.01873 212.738683 
L 387.032888 212.199971 
L 387.048532 211.661258 
L 387.066657 211.122546 
L 387.088242 210.583834 
L 387.114234 210.045122 
L 387.145546 209.506409 
L 387.183045 208.967697 
L 387.227554 208.428985 
L 387.279845 207.890273 
L 387.340636 207.351561 
L 387.410593 206.812848 
L 387.490328 206.274136 
L 387.580397 205.735424 
L 387.681301 205.196712 
L 387.793481 204.657999 
L 387.917326 204.119287 
L 388.053161 203.580575 
L 388.201253 203.041863 
L 388.361806 202.503151 
L 388.53496 201.964438 
L 388.720788 201.425726 
L 388.919296 200.887014 
L 389.13042 200.348302 
L 389.354022 199.809589 
L 389.589896 199.270877 
L 389.837759 198.732165 
L 390.097259 198.193453 
L 390.36797 197.654741 
L 390.649398 197.116028 
L 390.940982 196.577316 
L 391.2421 196.038604 
L 391.552071 195.499892 
L 391.87016 194.961179 
L 392.195589 194.422467 
L 392.527538 193.883755 
L 392.86516 193.345043 
L 393.207579 192.806331 
L 393.553909 192.267618 
L 393.903253 191.728906 
L 394.254718 191.190194 
L 394.607419 190.651482 
L 394.960487 190.112769 
L 395.313078 189.574057 
L 395.664377 189.035345 
L 396.013604 188.496633 
L 396.360019 187.957921 
L 396.702923 187.419208 
L 397.041664 186.880496 
L 397.375639 186.341784 
L 397.704291 185.803072 
L 398.027108 185.264359 
L 398.34363 184.725647 
L 398.653438 184.186935 
L 398.956159 183.648223 
L 410.138387 183.648223 
L 410.138387 183.648223 
L 410.441107 184.186935 
L 410.750915 184.725647 
L 411.067437 185.264359 
L 411.390255 185.803072 
L 411.718906 186.341784 
L 412.052881 186.880496 
L 412.391623 187.419208 
L 412.734527 187.957921 
L 413.080941 188.496633 
L 413.430168 189.035345 
L 413.781467 189.574057 
L 414.134058 190.112769 
L 414.487127 190.651482 
L 414.839827 191.190194 
L 415.191292 191.728906 
L 415.540637 192.267618 
L 415.886966 192.806331 
L 416.229386 193.345043 
L 416.567007 193.883755 
L 416.898957 194.422467 
L 417.224385 194.961179 
L 417.542475 195.499892 
L 417.852445 196.038604 
L 418.153563 196.577316 
L 418.445148 197.116028 
L 418.726576 197.654741 
L 418.997287 198.193453 
L 419.256786 198.732165 
L 419.50465 199.270877 
L 419.740523 199.809589 
L 419.964126 200.348302 
L 420.175249 200.887014 
L 420.373757 201.425726 
L 420.559586 201.964438 
L 420.732739 202.503151 
L 420.893292 203.041863 
L 421.041384 203.580575 
L 421.177219 204.119287 
L 421.301064 204.657999 
L 421.413245 205.196712 
L 421.514148 205.735424 
L 421.604217 206.274136 
L 421.683952 206.812848 
L 421.75391 207.351561 
L 421.814701 207.890273 
L 421.866991 208.428985 
L 421.9115 208.967697 
L 421.949 209.506409 
L 421.980311 210.045122 
L 422.006304 210.583834 
L 422.027889 211.122546 
L 422.046014 211.661258 
L 422.061657 212.199971 
L 422.075816 212.738683 
L 422.089494 213.277395 
L 422.103691 213.816107 
L 422.119383 214.35482 
L 422.137503 214.893532 
L 422.158927 215.432244 
L 422.184445 215.970956 
L 422.214743 216.509668 
L 422.250377 217.048381 
L 422.291752 217.587093 
L 422.339097 218.125805 
L 422.392446 218.664517 
L 422.451619 219.20323 
L 422.516206 219.741942 
L 422.585556 220.280654 
L 422.65877 220.819366 
L 422.734697 221.358078 
L 422.811941 221.896791 
L 422.888868 222.435503 
L 422.963621 222.974215 
L 423.034145 223.512927 
L 423.098208 224.05164 
L 423.153441 224.590352 
L 423.197367 225.129064 
L 423.227451 225.667776 
L 423.241136 226.206488 
L 423.235898 226.745201 
L 423.209287 227.283913 
L 423.158976 227.822625 
L 423.082813 228.361337 
L 422.978858 228.90005 
L 422.845426 229.438762 
L 422.681126 229.977474 
L 422.48489 230.516186 
L 422.255997 231.054898 
L 421.994093 231.593611 
L 421.699203 232.132323 
L 421.371732 232.671035 
L 421.012466 233.209747 
L 420.622561 233.74846 
L 420.203523 234.287172 
L 419.757189 234.825884 
L 419.285697 235.364596 
L 418.791451 235.903308 
L 418.277083 236.442021 
L 417.745417 236.980733 
z
" clip-path="url(#pef147dba5b)" style="fill: #1f77b4; fill-opacity: 0.3"/>
   </g>
   <g id="PolyCollection_6">
    <path d="M 496.467992 235.879832 
L 462.177463 235.879832 
L 461.888273 234.86048 
L 461.626062 233.841128 
L 461.39217 232.821776 
L 461.187799 231.802423 
L 461.014004 230.783071 
L 460.871676 229.763719 
L 460.76154 228.744367 
L 460.684146 227.725014 
L 460.639859 226.705662 
L 460.628864 225.68631 
L 460.651151 224.666958 
L 460.706526 223.647605 
L 460.794603 222.628253 
L 460.914811 221.608901 
L 461.066394 220.589549 
L 461.248419 219.570196 
L 461.459783 218.550844 
L 461.699221 217.531492 
L 461.965311 216.51214 
L 462.256491 215.492787 
L 462.571067 214.473435 
L 462.907228 213.454083 
L 463.263054 212.434731 
L 463.636536 211.415378 
L 464.025588 210.396026 
L 464.42806 209.376674 
L 464.841755 208.357321 
L 465.264443 207.337969 
L 465.693875 206.318617 
L 466.127799 205.299265 
L 466.563972 204.279912 
L 467.000176 203.26056 
L 467.434227 202.241208 
L 467.863993 201.221856 
L 468.287399 200.202503 
L 468.702443 199.183151 
L 469.107202 198.163799 
L 469.499843 197.144447 
L 469.878631 196.125094 
L 470.241936 195.105742 
L 470.588237 194.08639 
L 470.916132 193.067038 
L 471.224337 192.047685 
L 471.511694 191.028333 
L 471.777173 190.008981 
L 472.019871 188.989629 
L 472.239019 187.970276 
L 472.43398 186.950924 
L 472.604246 185.931572 
L 472.749446 184.91222 
L 472.869337 183.892867 
L 472.963808 182.873515 
L 473.032879 181.854163 
L 473.076693 180.83481 
L 473.095523 179.815458 
L 473.089761 178.796106 
L 473.05992 177.776754 
L 473.006631 176.757401 
L 472.930636 175.738049 
L 472.832789 174.718697 
L 472.714046 173.699345 
L 472.575468 172.679992 
L 472.418209 171.66064 
L 472.243516 170.641288 
L 472.052722 169.621936 
L 471.847236 168.602583 
L 471.628544 167.583231 
L 471.398197 166.563879 
L 471.157803 165.544527 
L 470.909025 164.525174 
L 470.653565 163.505822 
L 470.393161 162.48647 
L 470.129578 161.467118 
L 469.864593 160.447765 
L 469.599993 159.428413 
L 469.337558 158.409061 
L 469.079056 157.389709 
L 468.826228 156.370356 
L 468.580783 155.351004 
L 468.344383 154.331652 
L 468.118633 153.312299 
L 467.905073 152.292947 
L 467.705167 151.273595 
L 467.520294 150.254243 
L 467.351737 149.23489 
L 467.200679 148.215538 
L 467.068189 147.196186 
L 466.95522 146.176834 
L 466.862603 145.157481 
L 466.791039 144.138129 
L 466.741095 143.118777 
L 466.713203 142.099425 
L 466.707659 141.080072 
L 466.724617 140.06072 
L 466.764095 139.041368 
L 466.825974 138.022016 
L 466.909998 137.002663 
L 467.015784 135.983311 
L 467.142821 134.963959 
L 491.502633 134.963959 
L 491.502633 134.963959 
L 491.62967 135.983311 
L 491.735456 137.002663 
L 491.819481 138.022016 
L 491.881359 139.041368 
L 491.920837 140.06072 
L 491.937796 141.080072 
L 491.932251 142.099425 
L 491.90436 143.118777 
L 491.854416 144.138129 
L 491.782851 145.157481 
L 491.690234 146.176834 
L 491.577266 147.196186 
L 491.444776 148.215538 
L 491.293717 149.23489 
L 491.125161 150.254243 
L 490.940288 151.273595 
L 490.740382 152.292947 
L 490.526822 153.312299 
L 490.301072 154.331652 
L 490.064671 155.351004 
L 489.819226 156.370356 
L 489.566399 157.389709 
L 489.307897 158.409061 
L 489.045462 159.428413 
L 488.780861 160.447765 
L 488.515877 161.467118 
L 488.252293 162.48647 
L 487.99189 163.505822 
L 487.73643 164.525174 
L 487.487651 165.544527 
L 487.247258 166.563879 
L 487.01691 167.583231 
L 486.798219 168.602583 
L 486.592733 169.621936 
L 486.401938 170.641288 
L 486.227245 171.66064 
L 486.069987 172.679992 
L 485.931408 173.699345 
L 485.812666 174.718697 
L 485.714818 175.738049 
L 485.638823 176.757401 
L 485.585534 177.776754 
L 485.555694 178.796106 
L 485.549932 179.815458 
L 485.568761 180.83481 
L 485.612576 181.854163 
L 485.681646 182.873515 
L 485.776118 183.892867 
L 485.896009 184.91222 
L 486.041209 185.931572 
L 486.211475 186.950924 
L 486.406435 187.970276 
L 486.625583 188.989629 
L 486.868282 190.008981 
L 487.13376 191.028333 
L 487.421118 192.047685 
L 487.729323 193.067038 
L 488.057217 194.08639 
L 488.403519 195.105742 
L 488.766824 196.125094 
L 489.145612 197.144447 
L 489.538253 198.163799 
L 489.943012 199.183151 
L 490.358055 200.202503 
L 490.781461 201.221856 
L 491.211227 202.241208 
L 491.645279 203.26056 
L 492.081482 204.279912 
L 492.517655 205.299265 
L 492.951579 206.318617 
L 493.381011 207.337969 
L 493.803699 208.357321 
L 494.217394 209.376674 
L 494.619866 210.396026 
L 495.008918 211.415378 
L 495.382401 212.434731 
L 495.738227 213.454083 
L 496.074387 214.473435 
L 496.388964 215.492787 
L 496.680144 216.51214 
L 496.946234 217.531492 
L 497.185671 218.550844 
L 497.397036 219.570196 
L 497.579061 220.589549 
L 497.730644 221.608901 
L 497.850851 222.628253 
L 497.938928 223.647605 
L 497.994303 224.666958 
L 498.016591 225.68631 
L 498.005595 226.705662 
L 497.961309 227.725014 
L 497.883914 228.744367 
L 497.773779 229.763719 
L 497.631451 230.783071 
L 497.457655 231.802423 
L 497.253285 232.821776 
L 497.019393 233.841128 
L 496.757181 234.86048 
L 496.467992 235.879832 
z
" clip-path="url(#pef147dba5b)" style="fill: #1f77b4; fill-opacity: 0.3"/>
   </g>
   <g id="PolyCollection_7">
    <path d="M 564.515649 302.912437 
L 543.680715 302.912437 
L 543.092238 300.267064 
L 542.507321 297.62169 
L 541.929104 294.976316 
L 541.360682 292.330943 
L 540.805071 289.685569 
L 540.265173 287.040196 
L 539.74375 284.394822 
L 539.243396 281.749449 
L 538.766522 279.104075 
L 538.315338 276.458701 
L 537.891842 273.813328 
L 537.497819 271.167954 
L 537.134833 268.522581 
L 536.804231 265.877207 
L 536.507143 263.231834 
L 536.244486 260.58646 
L 536.01697 257.941087 
L 535.825103 255.295713 
L 535.669189 252.650339 
L 535.549338 250.004966 
L 535.465463 247.359592 
L 535.417282 244.714219 
L 535.404318 242.068845 
L 535.425899 239.423472 
L 535.481158 236.778098 
L 535.569034 234.132725 
L 535.688273 231.487351 
L 535.837437 228.841977 
L 536.01491 226.196604 
L 536.218909 223.55123 
L 536.447502 220.905857 
L 536.698623 218.260483 
L 536.970101 215.61511 
L 537.259683 212.969736 
L 537.565064 210.324362 
L 537.883916 207.678989 
L 538.213926 205.033615 
L 538.552823 202.388242 
L 538.89841 199.742868 
L 539.248597 197.097495 
L 539.601422 194.452121 
L 539.955075 191.806748 
L 540.307919 189.161374 
L 540.658498 186.516 
L 541.005544 183.870627 
L 541.347986 181.225253 
L 541.684942 178.57988 
L 542.015714 175.934506 
L 542.339777 173.289133 
L 542.65677 170.643759 
L 542.966475 167.998385 
L 543.268804 165.353012 
L 543.563779 162.707638 
L 543.851518 160.062265 
L 544.132217 157.416891 
L 544.406131 154.771518 
L 544.673567 152.126144 
L 544.934863 149.480771 
L 545.190381 146.835397 
L 545.440493 144.190023 
L 545.685576 141.54465 
L 545.925997 138.899276 
L 546.162112 136.253903 
L 546.394248 133.608529 
L 546.622706 130.963156 
L 546.847744 128.317782 
L 547.069579 125.672408 
L 547.288369 123.027035 
L 547.504218 120.381661 
L 547.717163 117.736288 
L 547.927176 115.090914 
L 548.134158 112.445541 
L 548.337942 109.800167 
L 548.538299 107.154794 
L 548.734935 104.50942 
L 548.927512 101.864046 
L 549.115646 99.218673 
L 549.298933 96.573299 
L 549.476956 93.927926 
L 549.649305 91.282552 
L 549.815597 88.637179 
L 549.975489 85.991805 
L 550.1287 83.346432 
L 550.275025 80.701058 
L 550.414346 78.055684 
L 550.546645 75.410311 
L 550.672009 72.764937 
L 550.790634 70.119564 
L 550.902822 67.47419 
L 551.008978 64.828817 
L 551.109597 62.183443 
L 551.205253 59.538069 
L 551.296582 56.892696 
L 551.384265 54.247322 
L 551.469005 51.601949 
L 551.551504 48.956575 
L 551.63245 46.311202 
L 551.712486 43.665828 
L 551.7922 41.020455 
L 556.404163 41.020455 
L 556.404163 41.020455 
L 556.483877 43.665828 
L 556.563914 46.311202 
L 556.644859 48.956575 
L 556.727359 51.601949 
L 556.812098 54.247322 
L 556.899781 56.892696 
L 556.991111 59.538069 
L 557.086767 62.183443 
L 557.187386 64.828817 
L 557.293542 67.47419 
L 557.40573 70.119564 
L 557.524355 72.764937 
L 557.649719 75.410311 
L 557.782018 78.055684 
L 557.921339 80.701058 
L 558.067663 83.346432 
L 558.220875 85.991805 
L 558.380767 88.637179 
L 558.547059 91.282552 
L 558.719408 93.927926 
L 558.897431 96.573299 
L 559.080717 99.218673 
L 559.268852 101.864046 
L 559.461428 104.50942 
L 559.658065 107.154794 
L 559.858421 109.800167 
L 560.062206 112.445541 
L 560.269188 115.090914 
L 560.479201 117.736288 
L 560.692146 120.381661 
L 560.907995 123.027035 
L 561.126785 125.672408 
L 561.348619 128.317782 
L 561.573658 130.963156 
L 561.802116 133.608529 
L 562.034252 136.253903 
L 562.270366 138.899276 
L 562.510788 141.54465 
L 562.755871 144.190023 
L 563.005983 146.835397 
L 563.2615 149.480771 
L 563.522796 152.126144 
L 563.790232 154.771518 
L 564.064147 157.416891 
L 564.344846 160.062265 
L 564.632585 162.707638 
L 564.92756 165.353012 
L 565.229888 167.998385 
L 565.539593 170.643759 
L 565.856586 173.289133 
L 566.18065 175.934506 
L 566.511422 178.57988 
L 566.848378 181.225253 
L 567.19082 183.870627 
L 567.537866 186.516 
L 567.888444 189.161374 
L 568.241288 191.806748 
L 568.594942 194.452121 
L 568.947767 197.097495 
L 569.297954 199.742868 
L 569.643541 202.388242 
L 569.982438 205.033615 
L 570.312448 207.678989 
L 570.6313 210.324362 
L 570.93668 212.969736 
L 571.226262 215.61511 
L 571.497741 218.260483 
L 571.748862 220.905857 
L 571.977454 223.55123 
L 572.181453 226.196604 
L 572.358926 228.841977 
L 572.508091 231.487351 
L 572.62733 234.132725 
L 572.715205 236.778098 
L 572.770464 239.423472 
L 572.792045 242.068845 
L 572.779082 244.714219 
L 572.730901 247.359592 
L 572.647026 250.004966 
L 572.527175 252.650339 
L 572.371261 255.295713 
L 572.179393 257.941087 
L 571.951878 260.58646 
L 571.689221 263.231834 
L 571.392132 265.877207 
L 571.06153 268.522581 
L 570.698545 271.167954 
L 570.304522 273.813328 
L 569.881026 276.458701 
L 569.429841 279.104075 
L 568.952967 281.749449 
L 568.452614 284.394822 
L 567.93119 287.040196 
L 567.391293 289.685569 
L 566.835682 292.330943 
L 566.26726 294.976316 
L 565.689043 297.62169 
L 565.104126 300.267064 
L 564.515649 302.912437 
z
" clip-path="url(#pef147dba5b)" style="fill: #1f77b4; fill-opacity: 0.3"/>
   </g>
   <g id="PolyCollection_8">
    <path d="M 637.497098 312.20893 
L 620.250175 312.20893 
L 620.015809 311.355145 
L 619.796992 310.50136 
L 619.595146 309.647575 
L 619.411595 308.793791 
L 619.247544 307.940006 
L 619.104067 307.086221 
L 618.982093 306.232437 
L 618.882389 305.378652 
L 618.80555 304.524867 
L 618.75199 303.671082 
L 618.721931 302.817298 
L 618.7154 301.963513 
L 618.732218 301.109728 
L 618.772007 300.255943 
L 618.834181 299.402159 
L 618.917955 298.548374 
L 619.022343 297.694589 
L 619.146168 296.840804 
L 619.288069 295.98702 
L 619.446511 295.133235 
L 619.619795 294.27945 
L 619.806073 293.425665 
L 620.003361 292.571881 
L 620.209556 291.718096 
L 620.422448 290.864311 
L 620.639746 290.010526 
L 620.859086 289.156742 
L 621.078056 288.302957 
L 621.294214 287.449172 
L 621.505103 286.595387 
L 621.708273 285.741603 
L 621.901301 284.887818 
L 622.081804 284.034033 
L 622.247462 283.180248 
L 622.396036 282.326464 
L 622.525379 281.472679 
L 622.633462 280.618894 
L 622.718382 279.76511 
L 622.778382 278.911325 
L 622.811863 278.05754 
L 622.817402 277.203755 
L 622.793761 276.349971 
L 622.739903 275.496186 
L 622.655003 274.642401 
L 622.538456 273.788616 
L 622.389889 272.934832 
L 622.209172 272.081047 
L 621.99642 271.227262 
L 621.752002 270.373477 
L 621.476544 269.519693 
L 621.170933 268.665908 
L 620.836316 267.812123 
L 620.4741 266.958338 
L 620.085947 266.104554 
L 619.673771 265.250769 
L 619.239724 264.396984 
L 618.786193 263.543199 
L 618.31578 262.689415 
L 617.83129 261.83563 
L 617.33571 260.981845 
L 616.832191 260.12806 
L 616.32402 259.274276 
L 615.814601 258.420491 
L 615.307418 257.566706 
L 614.806016 256.712922 
L 614.31396 255.859137 
L 613.83481 255.005352 
L 613.372083 254.151567 
L 612.929224 253.297783 
L 612.509568 252.443998 
L 612.116309 251.590213 
L 611.75247 250.736428 
L 611.420871 249.882644 
L 611.124098 249.028859 
L 610.864481 248.175074 
L 610.644068 247.321289 
L 610.464605 246.467505 
L 610.32752 245.61372 
L 610.233908 244.759935 
L 610.184523 243.90615 
L 610.179773 243.052366 
L 610.219718 242.198581 
L 610.304074 241.344796 
L 610.432219 240.491011 
L 610.603203 239.637227 
L 610.815767 238.783442 
L 611.068355 237.929657 
L 611.35914 237.075872 
L 611.686048 236.222088 
L 612.046781 235.368303 
L 612.438847 234.514518 
L 612.859592 233.660734 
L 613.306229 232.806949 
L 613.775869 231.953164 
L 614.265552 231.099379 
L 614.77228 230.245595 
L 615.293047 229.39181 
L 615.824867 228.538025 
L 616.364802 227.68424 
L 641.382471 227.68424 
L 641.382471 227.68424 
L 641.922406 228.538025 
L 642.454226 229.39181 
L 642.974993 230.245595 
L 643.481721 231.099379 
L 643.971404 231.953164 
L 644.441043 232.806949 
L 644.88768 233.660734 
L 645.308426 234.514518 
L 645.700492 235.368303 
L 646.061225 236.222088 
L 646.388133 237.075872 
L 646.678918 237.929657 
L 646.931506 238.783442 
L 647.14407 239.637227 
L 647.315054 240.491011 
L 647.443199 241.344796 
L 647.527555 242.198581 
L 647.5675 243.052366 
L 647.56275 243.90615 
L 647.513365 244.759935 
L 647.419753 245.61372 
L 647.282667 246.467505 
L 647.103204 247.321289 
L 646.882791 248.175074 
L 646.623174 249.028859 
L 646.326402 249.882644 
L 645.994802 250.736428 
L 645.630964 251.590213 
L 645.237705 252.443998 
L 644.818049 253.297783 
L 644.375189 254.151567 
L 643.912463 255.005352 
L 643.433313 255.859137 
L 642.941257 256.712922 
L 642.439854 257.566706 
L 641.932672 258.420491 
L 641.423252 259.274276 
L 640.915082 260.12806 
L 640.411563 260.981845 
L 639.915983 261.83563 
L 639.431493 262.689415 
L 638.96108 263.543199 
L 638.507548 264.396984 
L 638.073502 265.250769 
L 637.661325 266.104554 
L 637.273173 266.958338 
L 636.910957 267.812123 
L 636.57634 268.665908 
L 636.270729 269.519693 
L 635.995271 270.373477 
L 635.750852 271.227262 
L 635.5381 272.081047 
L 635.357383 272.934832 
L 635.208817 273.788616 
L 635.09227 274.642401 
L 635.007369 275.496186 
L 634.953512 276.349971 
L 634.929871 277.203755 
L 634.93541 278.05754 
L 634.968891 278.911325 
L 635.028891 279.76511 
L 635.11381 280.618894 
L 635.221893 281.472679 
L 635.351237 282.326464 
L 635.499811 283.180248 
L 635.665469 284.034033 
L 635.845972 284.887818 
L 636.038999 285.741603 
L 636.24217 286.595387 
L 636.453059 287.449172 
L 636.669217 288.302957 
L 636.888187 289.156742 
L 637.107527 290.010526 
L 637.324825 290.864311 
L 637.537717 291.718096 
L 637.743911 292.571881 
L 637.941199 293.425665 
L 638.127477 294.27945 
L 638.300761 295.133235 
L 638.459203 295.98702 
L 638.601105 296.840804 
L 638.72493 297.694589 
L 638.829318 298.548374 
L 638.913091 299.402159 
L 638.975266 300.255943 
L 639.015054 301.109728 
L 639.031873 301.963513 
L 639.025341 302.817298 
L 638.995283 303.671082 
L 638.941723 304.524867 
L 638.864884 305.378652 
L 638.76518 306.232437 
L 638.643206 307.086221 
L 638.499729 307.940006 
L 638.335678 308.793791 
L 638.152126 309.647575 
L 637.950281 310.50136 
L 637.731464 311.355145 
L 637.497098 312.20893 
z
" clip-path="url(#pef147dba5b)" style="fill: #1f77b4; fill-opacity: 0.3"/>
   </g>
   <g id="PolyCollection_9">
    <path d="M 715.968452 323.829545 
L 691.32973 323.829545 
L 691.258568 323.010357 
L 691.206502 322.191168 
L 691.173715 321.37198 
L 691.16029 320.552791 
L 691.166207 319.733603 
L 691.191347 318.914414 
L 691.235486 318.095226 
L 691.298299 317.276037 
L 691.37936 316.456849 
L 691.478144 315.63766 
L 691.594031 314.818471 
L 691.726307 313.999283 
L 691.874172 313.180094 
L 692.036738 312.360906 
L 692.213041 311.541717 
L 692.40204 310.722529 
L 692.602629 309.90334 
L 692.813639 309.084152 
L 693.033846 308.264963 
L 693.261977 307.445775 
L 693.496718 306.626586 
L 693.73672 305.807398 
L 693.980607 304.988209 
L 694.226982 304.16902 
L 694.474437 303.349832 
L 694.721555 302.530643 
L 694.966919 301.711455 
L 695.209122 300.892266 
L 695.446769 300.073078 
L 695.678483 299.253889 
L 695.902916 298.434701 
L 696.118748 297.615512 
L 696.3247 296.796324 
L 696.51953 295.977135 
L 696.702046 295.157946 
L 696.871107 294.338758 
L 697.025626 293.519569 
L 697.164579 292.700381 
L 697.287002 291.881192 
L 697.391999 291.062004 
L 697.478747 290.242815 
L 697.546494 289.423627 
L 697.594564 288.604438 
L 697.622363 287.78525 
L 697.629376 286.966061 
L 697.615175 286.146872 
L 697.579417 285.327684 
L 697.521847 284.508495 
L 697.442304 283.689307 
L 697.340715 282.870118 
L 697.217104 282.05093 
L 697.07159 281.231741 
L 696.904389 280.412553 
L 696.715813 279.593364 
L 696.506275 278.774176 
L 696.276285 277.954987 
L 696.026453 277.135798 
L 695.757485 276.31661 
L 695.470188 275.497421 
L 695.165465 274.678233 
L 694.844314 273.859044 
L 694.507824 273.039856 
L 694.157179 272.220667 
L 693.793646 271.401479 
L 693.418578 270.58229 
L 693.033405 269.763102 
L 692.639635 268.943913 
L 692.23884 268.124725 
L 691.832656 267.305536 
L 691.422775 266.486347 
L 691.010936 265.667159 
L 690.598919 264.84797 
L 690.188532 264.028782 
L 689.781608 263.209593 
L 689.379992 262.390405 
L 688.98553 261.571216 
L 688.600061 260.752028 
L 688.225406 259.932839 
L 687.863358 259.113651 
L 687.515667 258.294462 
L 687.184035 257.475273 
L 686.870104 256.656085 
L 686.575441 255.836896 
L 686.301533 255.017708 
L 686.049777 254.198519 
L 685.821468 253.379331 
L 685.617792 252.560142 
L 685.439818 251.740954 
L 685.288491 250.921765 
L 685.164626 250.102577 
L 685.0689 249.283388 
L 685.001853 248.464199 
L 684.963879 247.645011 
L 684.955227 246.825822 
L 684.976 246.006634 
L 685.026153 245.187445 
L 685.105494 244.368257 
L 685.213689 243.549068 
L 685.350263 242.72988 
L 721.947919 242.72988 
L 721.947919 242.72988 
L 722.084492 243.549068 
L 722.192688 244.368257 
L 722.272029 245.187445 
L 722.322181 246.006634 
L 722.342955 246.825822 
L 722.334303 247.645011 
L 722.296329 248.464199 
L 722.229282 249.283388 
L 722.133556 250.102577 
L 722.00969 250.921765 
L 721.858363 251.740954 
L 721.680389 252.560142 
L 721.476713 253.379331 
L 721.248404 254.198519 
L 720.996649 255.017708 
L 720.722741 255.836896 
L 720.428078 256.656085 
L 720.114147 257.475273 
L 719.782515 258.294462 
L 719.434824 259.113651 
L 719.072776 259.932839 
L 718.698121 260.752028 
L 718.312652 261.571216 
L 717.91819 262.390405 
L 717.516574 263.209593 
L 717.10965 264.028782 
L 716.699263 264.84797 
L 716.287245 265.667159 
L 715.875407 266.486347 
L 715.465526 267.305536 
L 715.059342 268.124725 
L 714.658547 268.943913 
L 714.264776 269.763102 
L 713.879604 270.58229 
L 713.504536 271.401479 
L 713.141003 272.220667 
L 712.790357 273.039856 
L 712.453868 273.859044 
L 712.132717 274.678233 
L 711.827993 275.497421 
L 711.540697 276.31661 
L 711.271729 277.135798 
L 711.021896 277.954987 
L 710.791906 278.774176 
L 710.582369 279.593364 
L 710.393793 280.412553 
L 710.226592 281.231741 
L 710.081078 282.05093 
L 709.957467 282.870118 
L 709.855878 283.689307 
L 709.776334 284.508495 
L 709.718765 285.327684 
L 709.683007 286.146872 
L 709.668805 286.966061 
L 709.675819 287.78525 
L 709.703618 288.604438 
L 709.751688 289.423627 
L 709.819435 290.242815 
L 709.906182 291.062004 
L 710.01118 291.881192 
L 710.133603 292.700381 
L 710.272556 293.519569 
L 710.427075 294.338758 
L 710.596136 295.157946 
L 710.778652 295.977135 
L 710.973482 296.796324 
L 711.179433 297.615512 
L 711.395266 298.434701 
L 711.619699 299.253889 
L 711.851413 300.073078 
L 712.08906 300.892266 
L 712.331263 301.711455 
L 712.576627 302.530643 
L 712.823745 303.349832 
L 713.071199 304.16902 
L 713.317575 304.988209 
L 713.561462 305.807398 
L 713.801464 306.626586 
L 714.036205 307.445775 
L 714.264336 308.264963 
L 714.484542 309.084152 
L 714.695552 309.90334 
L 714.896142 310.722529 
L 715.085141 311.541717 
L 715.261444 312.360906 
L 715.42401 313.180094 
L 715.571875 313.999283 
L 715.704151 314.818471 
L 715.820038 315.63766 
L 715.918822 316.456849 
L 715.999883 317.276037 
L 716.062695 318.095226 
L 716.106834 318.914414 
L 716.131974 319.733603 
L 716.137892 320.552791 
L 716.124467 321.37198 
L 716.09168 322.191168 
L 716.039614 323.010357 
L 715.968452 323.829545 
z
" clip-path="url(#pef147dba5b)" style="fill: #1f77b4; fill-opacity: 0.3"/>
   </g>
   <g id="PolyCollection_10">
    <path d="M 789.674721 311.230352 
L 767.17437 311.230352 
L 766.848543 310.47912 
L 766.535872 309.727888 
L 766.237761 308.976656 
L 765.955551 308.225425 
L 765.690499 307.474193 
L 765.443772 306.722961 
L 765.216435 305.971729 
L 765.009439 305.220498 
L 764.823612 304.469266 
L 764.659651 303.718034 
L 764.518117 302.966803 
L 764.399426 302.215571 
L 764.303844 301.464339 
L 764.231487 300.713107 
L 764.182316 299.961876 
L 764.15614 299.210644 
L 764.152611 298.459412 
L 764.171231 297.70818 
L 764.211354 296.956949 
L 764.272188 296.205717 
L 764.352804 295.454485 
L 764.452143 294.703254 
L 764.569018 293.952022 
L 764.702129 293.20079 
L 764.850067 292.449558 
L 765.011329 291.698327 
L 765.184325 290.947095 
L 765.367386 290.195863 
L 765.558784 289.444631 
L 765.756733 288.6934 
L 765.959408 287.942168 
L 766.164954 287.190936 
L 766.371498 286.439705 
L 766.577161 285.688473 
L 766.780066 284.937241 
L 766.978358 284.186009 
L 767.170205 283.434778 
L 767.353817 282.683546 
L 767.527451 281.932314 
L 767.689427 281.181082 
L 767.838134 280.429851 
L 767.972042 279.678619 
L 768.089711 278.927387 
L 768.1898 278.176156 
L 768.271078 277.424924 
L 768.33243 276.673692 
L 768.372867 275.92246 
L 768.391532 275.171229 
L 768.387711 274.419997 
L 768.360835 273.668765 
L 768.310488 272.917534 
L 768.236415 272.166302 
L 768.138523 271.41507 
L 768.016888 270.663838 
L 767.871756 269.912607 
L 767.703546 269.161375 
L 767.512851 268.410143 
L 767.300441 267.658911 
L 767.067256 266.90768 
L 766.814408 266.156448 
L 766.543178 265.405216 
L 766.255008 264.653985 
L 765.951496 263.902753 
L 765.634389 263.151521 
L 765.305574 262.400289 
L 764.967065 261.649058 
L 764.620993 260.897826 
L 764.269594 260.146594 
L 763.915191 259.395362 
L 763.56018 258.644131 
L 763.207014 257.892899 
L 762.858182 257.141667 
L 762.516195 256.390436 
L 762.183562 255.639204 
L 761.862773 254.887972 
L 761.556279 254.13674 
L 761.266469 253.385509 
L 760.995652 252.634277 
L 760.746041 251.883045 
L 760.519725 251.131813 
L 760.318659 250.380582 
L 760.144645 249.62935 
L 759.999311 248.878118 
L 759.884105 248.126887 
L 759.800274 247.375655 
L 759.748859 246.624423 
L 759.730682 245.873191 
L 759.746342 245.12196 
L 759.796209 244.370728 
L 759.880421 243.619496 
L 759.998884 242.868264 
L 760.151275 242.117033 
L 760.337044 241.365801 
L 760.555425 240.614569 
L 760.805439 239.863338 
L 761.085909 239.112106 
L 761.395471 238.360874 
L 761.73259 237.609642 
L 762.09557 236.858411 
L 794.753521 236.858411 
L 794.753521 236.858411 
L 795.116501 237.609642 
L 795.45362 238.360874 
L 795.763182 239.112106 
L 796.043652 239.863338 
L 796.293666 240.614569 
L 796.512047 241.365801 
L 796.697816 242.117033 
L 796.850206 242.868264 
L 796.968669 243.619496 
L 797.052881 244.370728 
L 797.102749 245.12196 
L 797.118409 245.873191 
L 797.100232 246.624423 
L 797.048817 247.375655 
L 796.964986 248.126887 
L 796.84978 248.878118 
L 796.704446 249.62935 
L 796.530432 250.380582 
L 796.329366 251.131813 
L 796.10305 251.883045 
L 795.853439 252.634277 
L 795.582622 253.385509 
L 795.292812 254.13674 
L 794.986317 254.887972 
L 794.665529 255.639204 
L 794.332896 256.390436 
L 793.990909 257.141667 
L 793.642077 257.892899 
L 793.28891 258.644131 
L 792.9339 259.395362 
L 792.579497 260.146594 
L 792.228098 260.897826 
L 791.882026 261.649058 
L 791.543517 262.400289 
L 791.214702 263.151521 
L 790.897595 263.902753 
L 790.594083 264.653985 
L 790.305913 265.405216 
L 790.034683 266.156448 
L 789.781835 266.90768 
L 789.54865 267.658911 
L 789.33624 268.410143 
L 789.145545 269.161375 
L 788.977335 269.912607 
L 788.832203 270.663838 
L 788.710568 271.41507 
L 788.612676 272.166302 
L 788.538603 272.917534 
L 788.488256 273.668765 
L 788.46138 274.419997 
L 788.457559 275.171229 
L 788.476224 275.92246 
L 788.516661 276.673692 
L 788.578013 277.424924 
L 788.659291 278.176156 
L 788.75938 278.927387 
L 788.877049 279.678619 
L 789.010956 280.429851 
L 789.159664 281.181082 
L 789.32164 281.932314 
L 789.495274 282.683546 
L 789.678886 283.434778 
L 789.870733 284.186009 
L 790.069024 284.937241 
L 790.27193 285.688473 
L 790.477593 286.439705 
L 790.684137 287.190936 
L 790.889683 287.942168 
L 791.092358 288.6934 
L 791.290307 289.444631 
L 791.481705 290.195863 
L 791.664766 290.947095 
L 791.837761 291.698327 
L 791.999024 292.449558 
L 792.146962 293.20079 
L 792.280073 293.952022 
L 792.396948 294.703254 
L 792.496286 295.454485 
L 792.576903 296.205717 
L 792.637737 296.956949 
L 792.67786 297.70818 
L 792.69648 298.459412 
L 792.692951 299.210644 
L 792.666775 299.961876 
L 792.617604 300.713107 
L 792.545247 301.464339 
L 792.449665 302.215571 
L 792.330974 302.966803 
L 792.18944 303.718034 
L 792.025479 304.469266 
L 791.839652 305.220498 
L 791.632656 305.971729 
L 791.405319 306.722961 
L 791.158592 307.474193 
L 790.89354 308.225425 
L 790.61133 308.976656 
L 790.313219 309.727888 
L 790.000548 310.47912 
L 789.674721 311.230352 
z
" clip-path="url(#pef147dba5b)" style="fill: #1f77b4; fill-opacity: 0.3"/>
   </g>
   <g id="matplotlib.axis_1">
    <g id="xtick_1">
     <g id="line2d_1">
      <defs>
       <path id="mb3c497c2b4" d="M 0 0 
L 0 3.5 
" style="stroke: #000000; stroke-width: 0.8"/>
      </defs>
      <g>
       <use xlink:href="#mb3c497c2b4" x="105.445455" y="337.97" style="stroke: #000000; stroke-width: 0.8"/>
      </g>
     </g>
     <g id="text_1">
      <!-- Grudger -->
      <g transform="translate(107.652955 377.89625)rotate(-90)scale(0.08 -0.08)">
       <defs>
        <path id="DejaVuSans-47" d="M 3809 666 
L 3809 1919 
L 2778 1919 
L 2778 2438 
L 4434 2438 
L 4434 434 
Q 4069 175 3628 42 
Q 3188 -91 2688 -91 
Q 1594 -91 976 548 
Q 359 1188 359 2328 
Q 359 3472 976 4111 
Q 1594 4750 2688 4750 
Q 3144 4750 3555 4637 
Q 3966 4525 4313 4306 
L 4313 3634 
Q 3963 3931 3569 4081 
Q 3175 4231 2741 4231 
Q 1884 4231 1454 3753 
Q 1025 3275 1025 2328 
Q 1025 1384 1454 906 
Q 1884 428 2741 428 
Q 3075 428 3337 486 
Q 3600 544 3809 666 
z
" transform="scale(0.015625)"/>
        <path id="DejaVuSans-72" d="M 2631 2963 
Q 2534 3019 2420 3045 
Q 2306 3072 2169 3072 
Q 1681 3072 1420 2755 
Q 1159 2438 1159 1844 
L 1159 0 
L 581 0 
L 581 3500 
L 1159 3500 
L 1159 2956 
Q 1341 3275 1631 3429 
Q 1922 3584 2338 3584 
Q 2397 3584 2469 3576 
Q 2541 3569 2628 3553 
L 2631 2963 
z
" transform="scale(0.015625)"/>
        <path id="DejaVuSans-75" d="M 544 1381 
L 544 3500 
L 1119 3500 
L 1119 1403 
Q 1119 906 1312 657 
Q 1506 409 1894 409 
Q 2359 409 2629 706 
Q 2900 1003 2900 1516 
L 2900 3500 
L 3475 3500 
L 3475 0 
L 2900 0 
L 2900 538 
Q 2691 219 2414 64 
Q 2138 -91 1772 -91 
Q 1169 -91 856 284 
Q 544 659 544 1381 
z
M 1991 3584 
L 1991 3584 
z
" transform="scale(0.015625)"/>
        <path id="DejaVuSans-64" d="M 2906 2969 
L 2906 4863 
L 3481 4863 
L 3481 0 
L 2906 0 
L 2906 525 
Q 2725 213 2448 61 
Q 2172 -91 1784 -91 
Q 1150 -91 751 415 
Q 353 922 353 1747 
Q 353 2572 751 3078 
Q 1150 3584 1784 3584 
Q 2172 3584 2448 3432 
Q 2725 3281 2906 2969 
z
M 947 1747 
Q 947 1113 1208 752 
Q 1469 391 1925 391 
Q 2381 391 2643 752 
Q 2906 1113 2906 1747 
Q 2906 2381 2643 2742 
Q 2381 3103 1925 3103 
Q 1469 3103 1208 2742 
Q 947 2381 947 1747 
z
" transform="scale(0.015625)"/>
        <path id="DejaVuSans-67" d="M 2906 1791 
Q 2906 2416 2648 2759 
Q 2391 3103 1925 3103 
Q 1463 3103 1205 2759 
Q 947 2416 947 1791 
Q 947 1169 1205 825 
Q 1463 481 1925 481 
Q 2391 481 2648 825 
Q 2906 1169 2906 1791 
z
M 3481 434 
Q 3481 -459 3084 -895 
Q 2688 -1331 1869 -1331 
Q 1566 -1331 1297 -1286 
Q 1028 -1241 775 -1147 
L 775 -588 
Q 1028 -725 1275 -790 
Q 1522 -856 1778 -856 
Q 2344 -856 2625 -561 
Q 2906 -266 2906 331 
L 2906 616 
Q 2728 306 2450 153 
Q 2172 0 1784 0 
Q 1141 0 747 490 
Q 353 981 353 1791 
Q 353 2603 747 3093 
Q 1141 3584 1784 3584 
Q 2172 3584 2450 3431 
Q 2728 3278 2906 2969 
L 2906 3500 
L 3481 3500 
L 3481 434 
z
" transform="scale(0.015625)"/>
        <path id="DejaVuSans-65" d="M 3597 1894 
L 3597 1613 
L 953 1613 
Q 991 1019 1311 708 
Q 1631 397 2203 397 
Q 2534 397 2845 478 
Q 3156 559 3463 722 
L 3463 178 
Q 3153 47 2828 -22 
Q 2503 -91 2169 -91 
Q 1331 -91 842 396 
Q 353 884 353 1716 
Q 353 2575 817 3079 
Q 1281 3584 2069 3584 
Q 2775 3584 3186 3129 
Q 3597 2675 3597 1894 
z
M 3022 2063 
Q 3016 2534 2758 2815 
Q 2500 3097 2075 3097 
Q 1594 3097 1305 2825 
Q 1016 2553 972 2059 
L 3022 2063 
z
" transform="scale(0.015625)"/>
       </defs>
       <use xlink:href="#DejaVuSans-47"/>
       <use xlink:href="#DejaVuSans-72" x="77.490234"/>
       <use xlink:href="#DejaVuSans-75" x="118.603516"/>
       <use xlink:href="#DejaVuSans-64" x="181.982422"/>
       <use xlink:href="#DejaVuSans-67" x="245.458984"/>
       <use xlink:href="#DejaVuSans-65" x="308.935547"/>
       <use xlink:href="#DejaVuSans-72" x="370.458984"/>
      </g>
     </g>
    </g>
    <g id="xtick_2">
     <g id="line2d_2">
      <g>
       <use xlink:href="#mb3c497c2b4" x="180.220909" y="337.97" style="stroke: #000000; stroke-width: 0.8"/>
      </g>
     </g>
     <g id="text_2">
      <!-- Tit For Tat -->
      <g transform="translate(182.428409 384.15)rotate(-90)scale(0.08 -0.08)">
       <defs>
        <path id="DejaVuSans-54" d="M -19 4666 
L 3928 4666 
L 3928 4134 
L 2272 4134 
L 2272 0 
L 1638 0 
L 1638 4134 
L -19 4134 
L -19 4666 
z
" transform="scale(0.015625)"/>
        <path id="DejaVuSans-69" d="M 603 3500 
L 1178 3500 
L 1178 0 
L 603 0 
L 603 3500 
z
M 603 4863 
L 1178 4863 
L 1178 4134 
L 603 4134 
L 603 4863 
z
" transform="scale(0.015625)"/>
        <path id="DejaVuSans-74" d="M 1172 4494 
L 1172 3500 
L 2356 3500 
L 2356 3053 
L 1172 3053 
L 1172 1153 
Q 1172 725 1289 603 
Q 1406 481 1766 481 
L 2356 481 
L 2356 0 
L 1766 0 
Q 1100 0 847 248 
Q 594 497 594 1153 
L 594 3053 
L 172 3053 
L 172 3500 
L 594 3500 
L 594 4494 
L 1172 4494 
z
" transform="scale(0.015625)"/>
        <path id="DejaVuSans-20" transform="scale(0.015625)"/>
        <path id="DejaVuSans-46" d="M 628 4666 
L 3309 4666 
L 3309 4134 
L 1259 4134 
L 1259 2759 
L 3109 2759 
L 3109 2228 
L 1259 2228 
L 1259 0 
L 628 0 
L 628 4666 
z
" transform="scale(0.015625)"/>
        <path id="DejaVuSans-6f" d="M 1959 3097 
Q 1497 3097 1228 2736 
Q 959 2375 959 1747 
Q 959 1119 1226 758 
Q 1494 397 1959 397 
Q 2419 397 2687 759 
Q 2956 1122 2956 1747 
Q 2956 2369 2687 2733 
Q 2419 3097 1959 3097 
z
M 1959 3584 
Q 2709 3584 3137 3096 
Q 3566 2609 3566 1747 
Q 3566 888 3137 398 
Q 2709 -91 1959 -91 
Q 1206 -91 779 398 
Q 353 888 353 1747 
Q 353 2609 779 3096 
Q 1206 3584 1959 3584 
z
" transform="scale(0.015625)"/>
        <path id="DejaVuSans-61" d="M 2194 1759 
Q 1497 1759 1228 1600 
Q 959 1441 959 1056 
Q 959 750 1161 570 
Q 1363 391 1709 391 
Q 2188 391 2477 730 
Q 2766 1069 2766 1631 
L 2766 1759 
L 2194 1759 
z
M 3341 1997 
L 3341 0 
L 2766 0 
L 2766 531 
Q 2569 213 2275 61 
Q 1981 -91 1556 -91 
Q 1019 -91 701 211 
Q 384 513 384 1019 
Q 384 1609 779 1909 
Q 1175 2209 1959 2209 
L 2766 2209 
L 2766 2266 
Q 2766 2663 2505 2880 
Q 2244 3097 1772 3097 
Q 1472 3097 1187 3025 
Q 903 2953 641 2809 
L 641 3341 
Q 956 3463 1253 3523 
Q 1550 3584 1831 3584 
Q 2591 3584 2966 3190 
Q 3341 2797 3341 1997 
z
" transform="scale(0.015625)"/>
       </defs>
       <use xlink:href="#DejaVuSans-54"/>
       <use xlink:href="#DejaVuSans-69" x="57.958984"/>
       <use xlink:href="#DejaVuSans-74" x="85.742188"/>
       <use xlink:href="#DejaVuSans-20" x="124.951172"/>
       <use xlink:href="#DejaVuSans-46" x="156.738281"/>
       <use xlink:href="#DejaVuSans-6f" x="210.632812"/>
       <use xlink:href="#DejaVuSans-72" x="271.814453"/>
       <use xlink:href="#DejaVuSans-20" x="312.927734"/>
       <use xlink:href="#DejaVuSans-54" x="344.714844"/>
       <use xlink:href="#DejaVuSans-61" x="389.298828"/>
       <use xlink:href="#DejaVuSans-74" x="450.578125"/>
      </g>
     </g>
    </g>
    <g id="xtick_3">
     <g id="line2d_3">
      <g>
       <use xlink:href="#mb3c497c2b4" x="254.996364" y="337.97" style="stroke: #000000; stroke-width: 0.8"/>
      </g>
     </g>
     <g id="text_3">
      <!-- Random: 0.5 -->
      <g transform="translate(257.203864 396.0475)rotate(-90)scale(0.08 -0.08)">
       <defs>
        <path id="DejaVuSans-52" d="M 2841 2188 
Q 3044 2119 3236 1894 
Q 3428 1669 3622 1275 
L 4263 0 
L 3584 0 
L 2988 1197 
Q 2756 1666 2539 1819 
Q 2322 1972 1947 1972 
L 1259 1972 
L 1259 0 
L 628 0 
L 628 4666 
L 2053 4666 
Q 2853 4666 3247 4331 
Q 3641 3997 3641 3322 
Q 3641 2881 3436 2590 
Q 3231 2300 2841 2188 
z
M 1259 4147 
L 1259 2491 
L 2053 2491 
Q 2509 2491 2742 2702 
Q 2975 2913 2975 3322 
Q 2975 3731 2742 3939 
Q 2509 4147 2053 4147 
L 1259 4147 
z
" transform="scale(0.015625)"/>
        <path id="DejaVuSans-6e" d="M 3513 2113 
L 3513 0 
L 2938 0 
L 2938 2094 
Q 2938 2591 2744 2837 
Q 2550 3084 2163 3084 
Q 1697 3084 1428 2787 
Q 1159 2491 1159 1978 
L 1159 0 
L 581 0 
L 581 3500 
L 1159 3500 
L 1159 2956 
Q 1366 3272 1645 3428 
Q 1925 3584 2291 3584 
Q 2894 3584 3203 3211 
Q 3513 2838 3513 2113 
z
" transform="scale(0.015625)"/>
        <path id="DejaVuSans-6d" d="M 3328 2828 
Q 3544 3216 3844 3400 
Q 4144 3584 4550 3584 
Q 5097 3584 5394 3201 
Q 5691 2819 5691 2113 
L 5691 0 
L 5113 0 
L 5113 2094 
Q 5113 2597 4934 2840 
Q 4756 3084 4391 3084 
Q 3944 3084 3684 2787 
Q 3425 2491 3425 1978 
L 3425 0 
L 2847 0 
L 2847 2094 
Q 2847 2600 2669 2842 
Q 2491 3084 2119 3084 
Q 1678 3084 1418 2786 
Q 1159 2488 1159 1978 
L 1159 0 
L 581 0 
L 581 3500 
L 1159 3500 
L 1159 2956 
Q 1356 3278 1631 3431 
Q 1906 3584 2284 3584 
Q 2666 3584 2933 3390 
Q 3200 3197 3328 2828 
z
" transform="scale(0.015625)"/>
        <path id="DejaVuSans-3a" d="M 750 794 
L 1409 794 
L 1409 0 
L 750 0 
L 750 794 
z
M 750 3309 
L 1409 3309 
L 1409 2516 
L 750 2516 
L 750 3309 
z
" transform="scale(0.015625)"/>
        <path id="DejaVuSans-30" d="M 2034 4250 
Q 1547 4250 1301 3770 
Q 1056 3291 1056 2328 
Q 1056 1369 1301 889 
Q 1547 409 2034 409 
Q 2525 409 2770 889 
Q 3016 1369 3016 2328 
Q 3016 3291 2770 3770 
Q 2525 4250 2034 4250 
z
M 2034 4750 
Q 2819 4750 3233 4129 
Q 3647 3509 3647 2328 
Q 3647 1150 3233 529 
Q 2819 -91 2034 -91 
Q 1250 -91 836 529 
Q 422 1150 422 2328 
Q 422 3509 836 4129 
Q 1250 4750 2034 4750 
z
" transform="scale(0.015625)"/>
        <path id="DejaVuSans-2e" d="M 684 794 
L 1344 794 
L 1344 0 
L 684 0 
L 684 794 
z
" transform="scale(0.015625)"/>
        <path id="DejaVuSans-35" d="M 691 4666 
L 3169 4666 
L 3169 4134 
L 1269 4134 
L 1269 2991 
Q 1406 3038 1543 3061 
Q 1681 3084 1819 3084 
Q 2600 3084 3056 2656 
Q 3513 2228 3513 1497 
Q 3513 744 3044 326 
Q 2575 -91 1722 -91 
Q 1428 -91 1123 -41 
Q 819 9 494 109 
L 494 744 
Q 775 591 1075 516 
Q 1375 441 1709 441 
Q 2250 441 2565 725 
Q 2881 1009 2881 1497 
Q 2881 1984 2565 2268 
Q 2250 2553 1709 2553 
Q 1456 2553 1204 2497 
Q 953 2441 691 2322 
L 691 4666 
z
" transform="scale(0.015625)"/>
       </defs>
       <use xlink:href="#DejaVuSans-52"/>
       <use xlink:href="#DejaVuSans-61" x="67.232422"/>
       <use xlink:href="#DejaVuSans-6e" x="128.511719"/>
       <use xlink:href="#DejaVuSans-64" x="191.890625"/>
       <use xlink:href="#DejaVuSans-6f" x="255.367188"/>
       <use xlink:href="#DejaVuSans-6d" x="316.548828"/>
       <use xlink:href="#DejaVuSans-3a" x="413.960938"/>
       <use xlink:href="#DejaVuSans-20" x="447.652344"/>
       <use xlink:href="#DejaVuSans-30" x="479.439453"/>
       <use xlink:href="#DejaVuSans-2e" x="543.0625"/>
       <use xlink:href="#DejaVuSans-35" x="574.849609"/>
      </g>
     </g>
    </g>
    <g id="xtick_4">
     <g id="line2d_4">
      <g>
       <use xlink:href="#mb3c497c2b4" x="329.771818" y="337.97" style="stroke: #000000; stroke-width: 0.8"/>
      </g>
     </g>
     <g id="text_4">
      <!-- Adaptive -->
      <g transform="translate(331.979318 380.37875)rotate(-90)scale(0.08 -0.08)">
       <defs>
        <path id="DejaVuSans-41" d="M 2188 4044 
L 1331 1722 
L 3047 1722 
L 2188 4044 
z
M 1831 4666 
L 2547 4666 
L 4325 0 
L 3669 0 
L 3244 1197 
L 1141 1197 
L 716 0 
L 50 0 
L 1831 4666 
z
" transform="scale(0.015625)"/>
        <path id="DejaVuSans-70" d="M 1159 525 
L 1159 -1331 
L 581 -1331 
L 581 3500 
L 1159 3500 
L 1159 2969 
Q 1341 3281 1617 3432 
Q 1894 3584 2278 3584 
Q 2916 3584 3314 3078 
Q 3713 2572 3713 1747 
Q 3713 922 3314 415 
Q 2916 -91 2278 -91 
Q 1894 -91 1617 61 
Q 1341 213 1159 525 
z
M 3116 1747 
Q 3116 2381 2855 2742 
Q 2594 3103 2138 3103 
Q 1681 3103 1420 2742 
Q 1159 2381 1159 1747 
Q 1159 1113 1420 752 
Q 1681 391 2138 391 
Q 2594 391 2855 752 
Q 3116 1113 3116 1747 
z
" transform="scale(0.015625)"/>
        <path id="DejaVuSans-76" d="M 191 3500 
L 800 3500 
L 1894 563 
L 2988 3500 
L 3597 3500 
L 2284 0 
L 1503 0 
L 191 3500 
z
" transform="scale(0.015625)"/>
       </defs>
       <use xlink:href="#DejaVuSans-41"/>
       <use xlink:href="#DejaVuSans-64" x="66.658203"/>
       <use xlink:href="#DejaVuSans-61" x="130.134766"/>
       <use xlink:href="#DejaVuSans-70" x="191.414062"/>
       <use xlink:href="#DejaVuSans-74" x="254.890625"/>
       <use xlink:href="#DejaVuSans-69" x="294.099609"/>
       <use xlink:href="#DejaVuSans-76" x="321.882812"/>
       <use xlink:href="#DejaVuSans-65" x="381.0625"/>
      </g>
     </g>
    </g>
    <g id="xtick_5">
     <g id="line2d_5">
      <g>
       <use xlink:href="#mb3c497c2b4" x="404.547273" y="337.97" style="stroke: #000000; stroke-width: 0.8"/>
      </g>
     </g>
     <g id="text_5">
      <!-- Defector -->
      <g transform="translate(406.754773 379.51)rotate(-90)scale(0.08 -0.08)">
       <defs>
        <path id="DejaVuSans-44" d="M 1259 4147 
L 1259 519 
L 2022 519 
Q 2988 519 3436 956 
Q 3884 1394 3884 2338 
Q 3884 3275 3436 3711 
Q 2988 4147 2022 4147 
L 1259 4147 
z
M 628 4666 
L 1925 4666 
Q 3281 4666 3915 4102 
Q 4550 3538 4550 2338 
Q 4550 1131 3912 565 
Q 3275 0 1925 0 
L 628 0 
L 628 4666 
z
" transform="scale(0.015625)"/>
        <path id="DejaVuSans-66" d="M 2375 4863 
L 2375 4384 
L 1825 4384 
Q 1516 4384 1395 4259 
Q 1275 4134 1275 3809 
L 1275 3500 
L 2222 3500 
L 2222 3053 
L 1275 3053 
L 1275 0 
L 697 0 
L 697 3053 
L 147 3053 
L 147 3500 
L 697 3500 
L 697 3744 
Q 697 4328 969 4595 
Q 1241 4863 1831 4863 
L 2375 4863 
z
" transform="scale(0.015625)"/>
        <path id="DejaVuSans-63" d="M 3122 3366 
L 3122 2828 
Q 2878 2963 2633 3030 
Q 2388 3097 2138 3097 
Q 1578 3097 1268 2742 
Q 959 2388 959 1747 
Q 959 1106 1268 751 
Q 1578 397 2138 397 
Q 2388 397 2633 464 
Q 2878 531 3122 666 
L 3122 134 
Q 2881 22 2623 -34 
Q 2366 -91 2075 -91 
Q 1284 -91 818 406 
Q 353 903 353 1747 
Q 353 2603 823 3093 
Q 1294 3584 2113 3584 
Q 2378 3584 2631 3529 
Q 2884 3475 3122 3366 
z
" transform="scale(0.015625)"/>
       </defs>
       <use xlink:href="#DejaVuSans-44"/>
       <use xlink:href="#DejaVuSans-65" x="77.001953"/>
       <use xlink:href="#DejaVuSans-66" x="138.525391"/>
       <use xlink:href="#DejaVuSans-65" x="173.730469"/>
       <use xlink:href="#DejaVuSans-63" x="235.253906"/>
       <use xlink:href="#DejaVuSans-74" x="290.234375"/>
       <use xlink:href="#DejaVuSans-6f" x="329.443359"/>
       <use xlink:href="#DejaVuSans-72" x="390.625"/>
      </g>
     </g>
    </g>
    <g id="xtick_6">
     <g id="line2d_6">
      <g>
       <use xlink:href="#mb3c497c2b4" x="479.322727" y="337.97" style="stroke: #000000; stroke-width: 0.8"/>
      </g>
     </g>
     <g id="text_6">
      <!-- Alternator -->
      <g transform="translate(481.530227 385.165)rotate(-90)scale(0.08 -0.08)">
       <defs>
        <path id="DejaVuSans-6c" d="M 603 4863 
L 1178 4863 
L 1178 0 
L 603 0 
L 603 4863 
z
" transform="scale(0.015625)"/>
       </defs>
       <use xlink:href="#DejaVuSans-41"/>
       <use xlink:href="#DejaVuSans-6c" x="68.408203"/>
       <use xlink:href="#DejaVuSans-74" x="96.191406"/>
       <use xlink:href="#DejaVuSans-65" x="135.400391"/>
       <use xlink:href="#DejaVuSans-72" x="196.923828"/>
       <use xlink:href="#DejaVuSans-6e" x="236.287109"/>
       <use xlink:href="#DejaVuSans-61" x="299.666016"/>
       <use xlink:href="#DejaVuSans-74" x="360.945312"/>
       <use xlink:href="#DejaVuSans-6f" x="400.154297"/>
       <use xlink:href="#DejaVuSans-72" x="461.335938"/>
      </g>
     </g>
    </g>
    <g id="xtick_7">
     <g id="line2d_7">
      <g>
       <use xlink:href="#mb3c497c2b4" x="554.098182" y="337.97" style="stroke: #000000; stroke-width: 0.8"/>
      </g>
     </g>
     <g id="text_7">
      <!-- Deep QLearner -->
      <g transform="translate(556.305682 405.46625)rotate(-90)scale(0.08 -0.08)">
       <defs>
        <path id="DejaVuSans-51" d="M 2522 4238 
Q 1834 4238 1429 3725 
Q 1025 3213 1025 2328 
Q 1025 1447 1429 934 
Q 1834 422 2522 422 
Q 3209 422 3611 934 
Q 4013 1447 4013 2328 
Q 4013 3213 3611 3725 
Q 3209 4238 2522 4238 
z
M 3406 84 
L 4238 -825 
L 3475 -825 
L 2784 -78 
Q 2681 -84 2626 -87 
Q 2572 -91 2522 -91 
Q 1538 -91 948 567 
Q 359 1225 359 2328 
Q 359 3434 948 4092 
Q 1538 4750 2522 4750 
Q 3503 4750 4090 4092 
Q 4678 3434 4678 2328 
Q 4678 1516 4351 937 
Q 4025 359 3406 84 
z
" transform="scale(0.015625)"/>
        <path id="DejaVuSans-4c" d="M 628 4666 
L 1259 4666 
L 1259 531 
L 3531 531 
L 3531 0 
L 628 0 
L 628 4666 
z
" transform="scale(0.015625)"/>
       </defs>
       <use xlink:href="#DejaVuSans-44"/>
       <use xlink:href="#DejaVuSans-65" x="77.001953"/>
       <use xlink:href="#DejaVuSans-65" x="138.525391"/>
       <use xlink:href="#DejaVuSans-70" x="200.048828"/>
       <use xlink:href="#DejaVuSans-20" x="263.525391"/>
       <use xlink:href="#DejaVuSans-51" x="295.3125"/>
       <use xlink:href="#DejaVuSans-4c" x="374.023438"/>
       <use xlink:href="#DejaVuSans-65" x="427.986328"/>
       <use xlink:href="#DejaVuSans-61" x="489.509766"/>
       <use xlink:href="#DejaVuSans-72" x="550.789062"/>
       <use xlink:href="#DejaVuSans-6e" x="590.152344"/>
       <use xlink:href="#DejaVuSans-65" x="653.53125"/>
       <use xlink:href="#DejaVuSans-72" x="715.054688"/>
      </g>
     </g>
    </g>
    <g id="xtick_8">
     <g id="line2d_8">
      <g>
       <use xlink:href="#mb3c497c2b4" x="628.873636" y="337.97" style="stroke: #000000; stroke-width: 0.8"/>
      </g>
     </g>
     <g id="text_8">
      <!-- Risky QLearner -->
      <g transform="translate(631.081136 405.40875)rotate(-90)scale(0.08 -0.08)">
       <defs>
        <path id="DejaVuSans-73" d="M 2834 3397 
L 2834 2853 
Q 2591 2978 2328 3040 
Q 2066 3103 1784 3103 
Q 1356 3103 1142 2972 
Q 928 2841 928 2578 
Q 928 2378 1081 2264 
Q 1234 2150 1697 2047 
L 1894 2003 
Q 2506 1872 2764 1633 
Q 3022 1394 3022 966 
Q 3022 478 2636 193 
Q 2250 -91 1575 -91 
Q 1294 -91 989 -36 
Q 684 19 347 128 
L 347 722 
Q 666 556 975 473 
Q 1284 391 1588 391 
Q 1994 391 2212 530 
Q 2431 669 2431 922 
Q 2431 1156 2273 1281 
Q 2116 1406 1581 1522 
L 1381 1569 
Q 847 1681 609 1914 
Q 372 2147 372 2553 
Q 372 3047 722 3315 
Q 1072 3584 1716 3584 
Q 2034 3584 2315 3537 
Q 2597 3491 2834 3397 
z
" transform="scale(0.015625)"/>
        <path id="DejaVuSans-6b" d="M 581 4863 
L 1159 4863 
L 1159 1991 
L 2875 3500 
L 3609 3500 
L 1753 1863 
L 3688 0 
L 2938 0 
L 1159 1709 
L 1159 0 
L 581 0 
L 581 4863 
z
" transform="scale(0.015625)"/>
        <path id="DejaVuSans-79" d="M 2059 -325 
Q 1816 -950 1584 -1140 
Q 1353 -1331 966 -1331 
L 506 -1331 
L 506 -850 
L 844 -850 
Q 1081 -850 1212 -737 
Q 1344 -625 1503 -206 
L 1606 56 
L 191 3500 
L 800 3500 
L 1894 763 
L 2988 3500 
L 3597 3500 
L 2059 -325 
z
" transform="scale(0.015625)"/>
       </defs>
       <use xlink:href="#DejaVuSans-52"/>
       <use xlink:href="#DejaVuSans-69" x="69.482422"/>
       <use xlink:href="#DejaVuSans-73" x="97.265625"/>
       <use xlink:href="#DejaVuSans-6b" x="149.365234"/>
       <use xlink:href="#DejaVuSans-79" x="203.650391"/>
       <use xlink:href="#DejaVuSans-20" x="262.830078"/>
       <use xlink:href="#DejaVuSans-51" x="294.617188"/>
       <use xlink:href="#DejaVuSans-4c" x="373.328125"/>
       <use xlink:href="#DejaVuSans-65" x="427.291016"/>
       <use xlink:href="#DejaVuSans-61" x="488.814453"/>
       <use xlink:href="#DejaVuSans-72" x="550.09375"/>
       <use xlink:href="#DejaVuSans-6e" x="589.457031"/>
       <use xlink:href="#DejaVuSans-65" x="652.835938"/>
       <use xlink:href="#DejaVuSans-72" x="714.359375"/>
      </g>
     </g>
    </g>
    <g id="xtick_9">
     <g id="line2d_9">
      <g>
       <use xlink:href="#mb3c497c2b4" x="703.649091" y="337.97" style="stroke: #000000; stroke-width: 0.8"/>
      </g>
     </g>
     <g id="text_9">
      <!-- Cooperator -->
      <g transform="translate(705.856591 389.85875)rotate(-90)scale(0.08 -0.08)">
       <defs>
        <path id="DejaVuSans-43" d="M 4122 4306 
L 4122 3641 
Q 3803 3938 3442 4084 
Q 3081 4231 2675 4231 
Q 1875 4231 1450 3742 
Q 1025 3253 1025 2328 
Q 1025 1406 1450 917 
Q 1875 428 2675 428 
Q 3081 428 3442 575 
Q 3803 722 4122 1019 
L 4122 359 
Q 3791 134 3420 21 
Q 3050 -91 2638 -91 
Q 1578 -91 968 557 
Q 359 1206 359 2328 
Q 359 3453 968 4101 
Q 1578 4750 2638 4750 
Q 3056 4750 3426 4639 
Q 3797 4528 4122 4306 
z
" transform="scale(0.015625)"/>
       </defs>
       <use xlink:href="#DejaVuSans-43"/>
       <use xlink:href="#DejaVuSans-6f" x="69.824219"/>
       <use xlink:href="#DejaVuSans-6f" x="131.005859"/>
       <use xlink:href="#DejaVuSans-70" x="192.1875"/>
       <use xlink:href="#DejaVuSans-65" x="255.664062"/>
       <use xlink:href="#DejaVuSans-72" x="317.1875"/>
       <use xlink:href="#DejaVuSans-61" x="358.300781"/>
       <use xlink:href="#DejaVuSans-74" x="419.580078"/>
       <use xlink:href="#DejaVuSans-6f" x="458.789062"/>
       <use xlink:href="#DejaVuSans-72" x="519.970703"/>
      </g>
     </g>
    </g>
    <g id="xtick_10">
     <g id="line2d_10">
      <g>
       <use xlink:href="#mb3c497c2b4" x="778.424545" y="337.97" style="stroke: #000000; stroke-width: 0.8"/>
      </g>
     </g>
     <g id="text_10">
      <!-- Mediocre QLearner -->
      <g transform="translate(780.632045 420.83375)rotate(-90)scale(0.08 -0.08)">
       <defs>
        <path id="DejaVuSans-4d" d="M 628 4666 
L 1569 4666 
L 2759 1491 
L 3956 4666 
L 4897 4666 
L 4897 0 
L 4281 0 
L 4281 4097 
L 3078 897 
L 2444 897 
L 1241 4097 
L 1241 0 
L 628 0 
L 628 4666 
z
" transform="scale(0.015625)"/>
       </defs>
       <use xlink:href="#DejaVuSans-4d"/>
       <use xlink:href="#DejaVuSans-65" x="86.279297"/>
       <use xlink:href="#DejaVuSans-64" x="147.802734"/>
       <use xlink:href="#DejaVuSans-69" x="211.279297"/>
       <use xlink:href="#DejaVuSans-6f" x="239.0625"/>
       <use xlink:href="#DejaVuSans-63" x="300.244141"/>
       <use xlink:href="#DejaVuSans-72" x="355.224609"/>
       <use xlink:href="#DejaVuSans-65" x="394.087891"/>
       <use xlink:href="#DejaVuSans-20" x="455.611328"/>
       <use xlink:href="#DejaVuSans-51" x="487.398438"/>
       <use xlink:href="#DejaVuSans-4c" x="566.109375"/>
       <use xlink:href="#DejaVuSans-65" x="620.072266"/>
       <use xlink:href="#DejaVuSans-61" x="681.595703"/>
       <use xlink:href="#DejaVuSans-72" x="742.875"/>
       <use xlink:href="#DejaVuSans-6e" x="782.238281"/>
       <use xlink:href="#DejaVuSans-65" x="845.617188"/>
       <use xlink:href="#DejaVuSans-72" x="907.140625"/>
      </g>
     </g>
    </g>
   </g>
   <g id="matplotlib.axis_2">
    <g id="ytick_1">
     <g id="line2d_11">
      <defs>
       <path id="m700a1405a1" d="M 0 0 
L -3.5 0 
" style="stroke: #000000; stroke-width: 0.8"/>
      </defs>
      <g>
       <use xlink:href="#m700a1405a1" x="30.67" y="330.434948" style="stroke: #000000; stroke-width: 0.8"/>
      </g>
     </g>
     <g id="text_11">
      <!-- 1.6 -->
      <g transform="translate(10.9475 333.474323)scale(0.08 -0.08)">
       <defs>
        <path id="DejaVuSans-31" d="M 794 531 
L 1825 531 
L 1825 4091 
L 703 3866 
L 703 4441 
L 1819 4666 
L 2450 4666 
L 2450 531 
L 3481 531 
L 3481 0 
L 794 0 
L 794 531 
z
" transform="scale(0.015625)"/>
        <path id="DejaVuSans-36" d="M 2113 2584 
Q 1688 2584 1439 2293 
Q 1191 2003 1191 1497 
Q 1191 994 1439 701 
Q 1688 409 2113 409 
Q 2538 409 2786 701 
Q 3034 994 3034 1497 
Q 3034 2003 2786 2293 
Q 2538 2584 2113 2584 
z
M 3366 4563 
L 3366 3988 
Q 3128 4100 2886 4159 
Q 2644 4219 2406 4219 
Q 1781 4219 1451 3797 
Q 1122 3375 1075 2522 
Q 1259 2794 1537 2939 
Q 1816 3084 2150 3084 
Q 2853 3084 3261 2657 
Q 3669 2231 3669 1497 
Q 3669 778 3244 343 
Q 2819 -91 2113 -91 
Q 1303 -91 875 529 
Q 447 1150 447 2328 
Q 447 3434 972 4092 
Q 1497 4750 2381 4750 
Q 2619 4750 2861 4703 
Q 3103 4656 3366 4563 
z
" transform="scale(0.015625)"/>
       </defs>
       <use xlink:href="#DejaVuSans-31"/>
       <use xlink:href="#DejaVuSans-2e" x="63.623047"/>
       <use xlink:href="#DejaVuSans-36" x="95.410156"/>
      </g>
     </g>
    </g>
    <g id="ytick_2">
     <g id="line2d_12">
      <g>
       <use xlink:href="#m700a1405a1" x="30.67" y="286.39893" style="stroke: #000000; stroke-width: 0.8"/>
      </g>
     </g>
     <g id="text_12">
      <!-- 1.8 -->
      <g transform="translate(10.9475 289.438305)scale(0.08 -0.08)">
       <defs>
        <path id="DejaVuSans-38" d="M 2034 2216 
Q 1584 2216 1326 1975 
Q 1069 1734 1069 1313 
Q 1069 891 1326 650 
Q 1584 409 2034 409 
Q 2484 409 2743 651 
Q 3003 894 3003 1313 
Q 3003 1734 2745 1975 
Q 2488 2216 2034 2216 
z
M 1403 2484 
Q 997 2584 770 2862 
Q 544 3141 544 3541 
Q 544 4100 942 4425 
Q 1341 4750 2034 4750 
Q 2731 4750 3128 4425 
Q 3525 4100 3525 3541 
Q 3525 3141 3298 2862 
Q 3072 2584 2669 2484 
Q 3125 2378 3379 2068 
Q 3634 1759 3634 1313 
Q 3634 634 3220 271 
Q 2806 -91 2034 -91 
Q 1263 -91 848 271 
Q 434 634 434 1313 
Q 434 1759 690 2068 
Q 947 2378 1403 2484 
z
M 1172 3481 
Q 1172 3119 1398 2916 
Q 1625 2713 2034 2713 
Q 2441 2713 2670 2916 
Q 2900 3119 2900 3481 
Q 2900 3844 2670 4047 
Q 2441 4250 2034 4250 
Q 1625 4250 1398 4047 
Q 1172 3844 1172 3481 
z
" transform="scale(0.015625)"/>
       </defs>
       <use xlink:href="#DejaVuSans-31"/>
       <use xlink:href="#DejaVuSans-2e" x="63.623047"/>
       <use xlink:href="#DejaVuSans-38" x="95.410156"/>
      </g>
     </g>
    </g>
    <g id="ytick_3">
     <g id="line2d_13">
      <g>
       <use xlink:href="#m700a1405a1" x="30.67" y="242.362913" style="stroke: #000000; stroke-width: 0.8"/>
      </g>
     </g>
     <g id="text_13">
      <!-- 2.0 -->
      <g transform="translate(10.9475 245.402288)scale(0.08 -0.08)">
       <defs>
        <path id="DejaVuSans-32" d="M 1228 531 
L 3431 531 
L 3431 0 
L 469 0 
L 469 531 
Q 828 903 1448 1529 
Q 2069 2156 2228 2338 
Q 2531 2678 2651 2914 
Q 2772 3150 2772 3378 
Q 2772 3750 2511 3984 
Q 2250 4219 1831 4219 
Q 1534 4219 1204 4116 
Q 875 4013 500 3803 
L 500 4441 
Q 881 4594 1212 4672 
Q 1544 4750 1819 4750 
Q 2544 4750 2975 4387 
Q 3406 4025 3406 3419 
Q 3406 3131 3298 2873 
Q 3191 2616 2906 2266 
Q 2828 2175 2409 1742 
Q 1991 1309 1228 531 
z
" transform="scale(0.015625)"/>
       </defs>
       <use xlink:href="#DejaVuSans-32"/>
       <use xlink:href="#DejaVuSans-2e" x="63.623047"/>
       <use xlink:href="#DejaVuSans-30" x="95.410156"/>
      </g>
     </g>
    </g>
    <g id="ytick_4">
     <g id="line2d_14">
      <g>
       <use xlink:href="#m700a1405a1" x="30.67" y="198.326895" style="stroke: #000000; stroke-width: 0.8"/>
      </g>
     </g>
     <g id="text_14">
      <!-- 2.2 -->
      <g transform="translate(10.9475 201.36627)scale(0.08 -0.08)">
       <use xlink:href="#DejaVuSans-32"/>
       <use xlink:href="#DejaVuSans-2e" x="63.623047"/>
       <use xlink:href="#DejaVuSans-32" x="95.410156"/>
      </g>
     </g>
    </g>
    <g id="ytick_5">
     <g id="line2d_15">
      <g>
       <use xlink:href="#m700a1405a1" x="30.67" y="154.290878" style="stroke: #000000; stroke-width: 0.8"/>
      </g>
     </g>
     <g id="text_15">
      <!-- 2.4 -->
      <g transform="translate(10.9475 157.330253)scale(0.08 -0.08)">
       <defs>
        <path id="DejaVuSans-34" d="M 2419 4116 
L 825 1625 
L 2419 1625 
L 2419 4116 
z
M 2253 4666 
L 3047 4666 
L 3047 1625 
L 3713 1625 
L 3713 1100 
L 3047 1100 
L 3047 0 
L 2419 0 
L 2419 1100 
L 313 1100 
L 313 1709 
L 2253 4666 
z
" transform="scale(0.015625)"/>
       </defs>
       <use xlink:href="#DejaVuSans-32"/>
       <use xlink:href="#DejaVuSans-2e" x="63.623047"/>
       <use xlink:href="#DejaVuSans-34" x="95.410156"/>
      </g>
     </g>
    </g>
    <g id="ytick_6">
     <g id="line2d_16">
      <g>
       <use xlink:href="#m700a1405a1" x="30.67" y="110.25486" style="stroke: #000000; stroke-width: 0.8"/>
      </g>
     </g>
     <g id="text_16">
      <!-- 2.6 -->
      <g transform="translate(10.9475 113.294235)scale(0.08 -0.08)">
       <use xlink:href="#DejaVuSans-32"/>
       <use xlink:href="#DejaVuSans-2e" x="63.623047"/>
       <use xlink:href="#DejaVuSans-36" x="95.410156"/>
      </g>
     </g>
    </g>
    <g id="ytick_7">
     <g id="line2d_17">
      <g>
       <use xlink:href="#m700a1405a1" x="30.67" y="66.218842" style="stroke: #000000; stroke-width: 0.8"/>
      </g>
     </g>
     <g id="text_17">
      <!-- 2.8 -->
      <g transform="translate(10.9475 69.258217)scale(0.08 -0.08)">
       <use xlink:href="#DejaVuSans-32"/>
       <use xlink:href="#DejaVuSans-2e" x="63.623047"/>
       <use xlink:href="#DejaVuSans-38" x="95.410156"/>
      </g>
     </g>
    </g>
   </g>
   <g id="LineCollection_1">
    <path d="M 96.098523 98.267277 
L 114.792386 98.267277 
" clip-path="url(#pef147dba5b)" style="fill: none; stroke: #1f77b4; stroke-width: 1.5"/>
    <path d="M 170.873977 152.761849 
L 189.567841 152.761849 
" clip-path="url(#pef147dba5b)" style="fill: none; stroke: #1f77b4; stroke-width: 1.5"/>
    <path d="M 245.649432 154.4132 
L 264.343295 154.4132 
" clip-path="url(#pef147dba5b)" style="fill: none; stroke: #1f77b4; stroke-width: 1.5"/>
    <path d="M 320.424886 205.972037 
L 339.11875 205.972037 
" clip-path="url(#pef147dba5b)" style="fill: none; stroke: #1f77b4; stroke-width: 1.5"/>
    <path d="M 395.200341 215.452013 
L 413.894205 215.452013 
" clip-path="url(#pef147dba5b)" style="fill: none; stroke: #1f77b4; stroke-width: 1.5"/>
    <path d="M 469.975795 221.873932 
L 488.669659 221.873932 
" clip-path="url(#pef147dba5b)" style="fill: none; stroke: #1f77b4; stroke-width: 1.5"/>
    <path d="M 544.75125 224.687345 
L 563.445114 224.687345 
" clip-path="url(#pef147dba5b)" style="fill: none; stroke: #1f77b4; stroke-width: 1.5"/>
    <path d="M 619.526705 247.928576 
L 638.220568 247.928576 
" clip-path="url(#pef147dba5b)" style="fill: none; stroke: #1f77b4; stroke-width: 1.5"/>
    <path d="M 694.302159 250.252699 
L 712.996023 250.252699 
" clip-path="url(#pef147dba5b)" style="fill: none; stroke: #1f77b4; stroke-width: 1.5"/>
    <path d="M 769.077614 256.124168 
L 787.771477 256.124168 
" clip-path="url(#pef147dba5b)" style="fill: none; stroke: #1f77b4; stroke-width: 1.5"/>
   </g>
   <g id="patch_3">
    <path d="M 30.67 337.97 
L 30.67 26.88 
" style="fill: none; stroke: #000000; stroke-width: 0.8; stroke-linejoin: miter; stroke-linecap: square"/>
   </g>
   <g id="patch_4">
    <path d="M 853.2 337.97 
L 853.2 26.88 
" style="fill: none; stroke: #000000; stroke-width: 0.8; stroke-linejoin: miter; stroke-linecap: square"/>
   </g>
   <g id="patch_5">
    <path d="M 30.67 337.97 
L 853.2 337.97 
" style="fill: none; stroke: #000000; stroke-width: 0.8; stroke-linejoin: miter; stroke-linecap: square"/>
   </g>
   <g id="patch_6">
    <path d="M 30.67 26.88 
L 853.2 26.88 
" style="fill: none; stroke: #000000; stroke-width: 0.8; stroke-linejoin: miter; stroke-linecap: square"/>
   </g>
   <g id="text_18">
    <!-- Payoff - turns: 200, repetitions: 20, strategies: 10.  -->
    <g transform="translate(289.971875 20.88)scale(0.12 -0.12)">
     <defs>
      <path id="DejaVuSans-50" d="M 1259 4147 
L 1259 2394 
L 2053 2394 
Q 2494 2394 2734 2622 
Q 2975 2850 2975 3272 
Q 2975 3691 2734 3919 
Q 2494 4147 2053 4147 
L 1259 4147 
z
M 628 4666 
L 2053 4666 
Q 2838 4666 3239 4311 
Q 3641 3956 3641 3272 
Q 3641 2581 3239 2228 
Q 2838 1875 2053 1875 
L 1259 1875 
L 1259 0 
L 628 0 
L 628 4666 
z
" transform="scale(0.015625)"/>
      <path id="DejaVuSans-2d" d="M 313 2009 
L 1997 2009 
L 1997 1497 
L 313 1497 
L 313 2009 
z
" transform="scale(0.015625)"/>
      <path id="DejaVuSans-2c" d="M 750 794 
L 1409 794 
L 1409 256 
L 897 -744 
L 494 -744 
L 750 256 
L 750 794 
z
" transform="scale(0.015625)"/>
     </defs>
     <use xlink:href="#DejaVuSans-50"/>
     <use xlink:href="#DejaVuSans-61" x="55.802734"/>
     <use xlink:href="#DejaVuSans-79" x="117.082031"/>
     <use xlink:href="#DejaVuSans-6f" x="176.261719"/>
     <use xlink:href="#DejaVuSans-66" x="237.443359"/>
     <use xlink:href="#DejaVuSans-66" x="272.648438"/>
     <use xlink:href="#DejaVuSans-20" x="307.853516"/>
     <use xlink:href="#DejaVuSans-2d" x="339.640625"/>
     <use xlink:href="#DejaVuSans-20" x="375.724609"/>
     <use xlink:href="#DejaVuSans-74" x="407.511719"/>
     <use xlink:href="#DejaVuSans-75" x="446.720703"/>
     <use xlink:href="#DejaVuSans-72" x="510.099609"/>
     <use xlink:href="#DejaVuSans-6e" x="549.462891"/>
     <use xlink:href="#DejaVuSans-73" x="612.841797"/>
     <use xlink:href="#DejaVuSans-3a" x="664.941406"/>
     <use xlink:href="#DejaVuSans-20" x="698.632812"/>
     <use xlink:href="#DejaVuSans-32" x="730.419922"/>
     <use xlink:href="#DejaVuSans-30" x="794.042969"/>
     <use xlink:href="#DejaVuSans-30" x="857.666016"/>
     <use xlink:href="#DejaVuSans-2c" x="921.289062"/>
     <use xlink:href="#DejaVuSans-20" x="953.076172"/>
     <use xlink:href="#DejaVuSans-72" x="984.863281"/>
     <use xlink:href="#DejaVuSans-65" x="1023.726562"/>
     <use xlink:href="#DejaVuSans-70" x="1085.25"/>
     <use xlink:href="#DejaVuSans-65" x="1148.726562"/>
     <use xlink:href="#DejaVuSans-74" x="1210.25"/>
     <use xlink:href="#DejaVuSans-69" x="1249.458984"/>
     <use xlink:href="#DejaVuSans-74" x="1277.242188"/>
     <use xlink:href="#DejaVuSans-69" x="1316.451172"/>
     <use xlink:href="#DejaVuSans-6f" x="1344.234375"/>
     <use xlink:href="#DejaVuSans-6e" x="1405.416016"/>
     <use xlink:href="#DejaVuSans-73" x="1468.794922"/>
     <use xlink:href="#DejaVuSans-3a" x="1520.894531"/>
     <use xlink:href="#DejaVuSans-20" x="1554.585938"/>
     <use xlink:href="#DejaVuSans-32" x="1586.373047"/>
     <use xlink:href="#DejaVuSans-30" x="1649.996094"/>
     <use xlink:href="#DejaVuSans-2c" x="1713.619141"/>
     <use xlink:href="#DejaVuSans-20" x="1745.40625"/>
     <use xlink:href="#DejaVuSans-73" x="1777.193359"/>
     <use xlink:href="#DejaVuSans-74" x="1829.292969"/>
     <use xlink:href="#DejaVuSans-72" x="1868.501953"/>
     <use xlink:href="#DejaVuSans-61" x="1909.615234"/>
     <use xlink:href="#DejaVuSans-74" x="1970.894531"/>
     <use xlink:href="#DejaVuSans-65" x="2010.103516"/>
     <use xlink:href="#DejaVuSans-67" x="2071.626953"/>
     <use xlink:href="#DejaVuSans-69" x="2135.103516"/>
     <use xlink:href="#DejaVuSans-65" x="2162.886719"/>
     <use xlink:href="#DejaVuSans-73" x="2224.410156"/>
     <use xlink:href="#DejaVuSans-3a" x="2276.509766"/>
     <use xlink:href="#DejaVuSans-20" x="2310.201172"/>
     <use xlink:href="#DejaVuSans-31" x="2341.988281"/>
     <use xlink:href="#DejaVuSans-30" x="2405.611328"/>
     <use xlink:href="#DejaVuSans-2e" x="2469.234375"/>
     <use xlink:href="#DejaVuSans-20" x="2501.021484"/>
    </g>
   </g>
  </g>
 </g>
 <defs>
  <clipPath id="pef147dba5b">
   <rect x="30.67" y="26.88" width="822.53" height="311.09"/>
  </clipPath>
 </defs>
</svg>
