<?xml version="1.0" encoding="utf-8" standalone="no"?>
<!DOCTYPE svg PUBLIC "-//W3C//DTD SVG 1.1//EN"
  "http://www.w3.org/Graphics/SVG/1.1/DTD/svg11.dtd">
<svg xmlns:xlink="http://www.w3.org/1999/xlink" width="864pt" height="432pt" viewBox="0 0 864 432" xmlns="http://www.w3.org/2000/svg" version="1.1">
 <metadata>
  <rdf:RDF xmlns:dc="http://purl.org/dc/elements/1.1/" xmlns:cc="http://creativecommons.org/ns#" xmlns:rdf="http://www.w3.org/1999/02/22-rdf-syntax-ns#">
   <cc:Work>
    <dc:type rdf:resource="http://purl.org/dc/dcmitype/StillImage"/>
    <dc:date>2022-09-20T03:36:49.007860</dc:date>
    <dc:format>image/svg+xml</dc:format>
    <dc:creator>
     <cc:Agent>
      <dc:title>Matplotlib v3.5.1, https://matplotlib.org/</dc:title>
     </cc:Agent>
    </dc:creator>
   </cc:Work>
  </rdf:RDF>
 </metadata>
 <defs>
  <style type="text/css">*{stroke-linejoin: round; stroke-linecap: butt}</style>
 </defs>
 <g id="figure_1">
  <g id="patch_1">
   <path d="M 0 432 
L 864 432 
L 864 0 
L 0 0 
z
" style="fill: #ffffff"/>
  </g>
  <g id="axes_1">
   <g id="patch_2">
    <path d="M 35.71 337.97 
L 853.2 337.97 
L 853.2 26.88 
L 35.71 26.88 
z
" style="fill: #ffffff"/>
   </g>
   <g id="PolyCollection_1">
    <path d="M 117.805319 167.511941 
L 102.249227 167.511941 
L 101.501413 166.234249 
L 100.736661 164.956558 
L 99.961318 163.678866 
L 99.182146 162.401174 
L 98.406209 161.123482 
L 97.640764 159.84579 
L 96.893131 158.568099 
L 96.170569 157.290407 
L 95.480146 156.012715 
L 94.828606 154.735023 
L 94.222229 153.457332 
L 93.666704 152.17964 
L 93.166992 150.901948 
L 92.727205 149.624256 
L 92.350502 148.346564 
L 92.038991 147.068873 
L 91.793676 145.791181 
L 91.614422 144.513489 
L 91.499964 143.235797 
L 91.447955 141.958106 
L 91.455059 140.680414 
L 91.517083 139.402722 
L 91.629141 138.12503 
L 91.78585 136.847338 
L 91.981542 135.569647 
L 92.210475 134.291955 
L 92.467042 133.014263 
L 92.745953 131.736571 
L 93.042388 130.458879 
L 93.352096 129.181188 
L 93.671457 127.903496 
L 93.997481 126.625804 
L 94.327763 125.348112 
L 94.660387 124.070421 
L 94.993801 122.792729 
L 95.326664 121.515037 
L 95.657685 120.237345 
L 95.985468 118.959653 
L 96.30838 117.681962 
L 96.624445 116.40427 
L 96.931288 115.126578 
L 97.226124 113.848886 
L 97.505798 112.571194 
L 97.766879 111.293503 
L 98.005793 110.015811 
L 98.218998 108.738119 
L 98.403174 107.460427 
L 98.555433 106.182736 
L 98.673521 104.905044 
L 98.756003 103.627352 
L 98.802419 102.34966 
L 98.813404 101.071968 
L 98.79075 99.794277 
L 98.737429 98.516585 
L 98.65755 97.238893 
L 98.556267 95.961201 
L 98.439636 94.683509 
L 98.314429 93.405818 
L 98.18791 92.128126 
L 98.067592 90.850434 
L 97.960971 89.572742 
L 97.875268 88.295051 
L 97.817167 87.017359 
L 97.792589 85.739667 
L 97.806489 84.461975 
L 97.862692 83.184283 
L 97.963783 81.906592 
L 98.111048 80.6289 
L 98.304468 79.351208 
L 98.542766 78.073516 
L 98.82351 76.795825 
L 99.143254 75.518133 
L 99.497716 74.240441 
L 99.88198 72.962749 
L 100.290709 71.685057 
L 100.71836 70.407366 
L 101.159386 69.129674 
L 101.608421 67.851982 
L 102.06043 66.57429 
L 102.510832 65.296598 
L 102.955584 64.018907 
L 103.391228 62.741215 
L 103.814914 61.463523 
L 104.224381 60.185831 
L 104.617927 58.90814 
L 104.994358 57.630448 
L 105.352928 56.352756 
L 105.693275 55.075064 
L 106.015355 53.797372 
L 106.319378 52.519681 
L 106.605758 51.241989 
L 106.875059 49.964297 
L 107.127951 48.686605 
L 107.365175 47.408913 
L 107.587512 46.131222 
L 107.795755 44.85353 
L 107.990684 43.575838 
L 108.173054 42.298146 
L 108.343571 41.020455 
L 111.710974 41.020455 
L 111.710974 41.020455 
L 111.881492 42.298146 
L 112.063861 43.575838 
L 112.258791 44.85353 
L 112.467033 46.131222 
L 112.689371 47.408913 
L 112.926595 48.686605 
L 113.179487 49.964297 
L 113.448787 51.241989 
L 113.735168 52.519681 
L 114.039191 53.797372 
L 114.36127 55.075064 
L 114.701617 56.352756 
L 115.060188 57.630448 
L 115.436619 58.90814 
L 115.830165 60.185831 
L 116.239631 61.463523 
L 116.663317 62.741215 
L 117.098962 64.018907 
L 117.543713 65.296598 
L 117.994115 66.57429 
L 118.446124 67.851982 
L 118.895159 69.129674 
L 119.336186 70.407366 
L 119.763837 71.685057 
L 120.172566 72.962749 
L 120.556829 74.240441 
L 120.911292 75.518133 
L 121.231036 76.795825 
L 121.51178 78.073516 
L 121.750078 79.351208 
L 121.943497 80.6289 
L 122.090763 81.906592 
L 122.191854 83.184283 
L 122.248056 84.461975 
L 122.261956 85.739667 
L 122.237379 87.017359 
L 122.179278 88.295051 
L 122.093574 89.572742 
L 121.986954 90.850434 
L 121.866636 92.128126 
L 121.740117 93.405818 
L 121.614909 94.683509 
L 121.498278 95.961201 
L 121.396995 97.238893 
L 121.317116 98.516585 
L 121.263796 99.794277 
L 121.241142 101.071968 
L 121.252126 102.34966 
L 121.298542 103.627352 
L 121.381024 104.905044 
L 121.499112 106.182736 
L 121.651371 107.460427 
L 121.835547 108.738119 
L 122.048752 110.015811 
L 122.287667 111.293503 
L 122.548748 112.571194 
L 122.828422 113.848886 
L 123.123257 115.126578 
L 123.4301 116.40427 
L 123.746165 117.681962 
L 124.069077 118.959653 
L 124.39686 120.237345 
L 124.727881 121.515037 
L 125.060744 122.792729 
L 125.394159 124.070421 
L 125.726783 125.348112 
L 126.057065 126.625804 
L 126.383089 127.903496 
L 126.70245 129.181188 
L 127.012158 130.458879 
L 127.308592 131.736571 
L 127.587504 133.014263 
L 127.844071 134.291955 
L 128.073003 135.569647 
L 128.268695 136.847338 
L 128.425405 138.12503 
L 128.537463 139.402722 
L 128.599487 140.680414 
L 128.606591 141.958106 
L 128.554582 143.235797 
L 128.440123 144.513489 
L 128.260869 145.791181 
L 128.015554 147.068873 
L 127.704044 148.346564 
L 127.32734 149.624256 
L 126.887554 150.901948 
L 126.387841 152.17964 
L 125.832316 153.457332 
L 125.22594 154.735023 
L 124.574399 156.012715 
L 123.883977 157.290407 
L 123.161415 158.568099 
L 122.413781 159.84579 
L 121.648336 161.123482 
L 120.8724 162.401174 
L 120.093227 163.678866 
L 119.317884 164.956558 
L 118.553133 166.234249 
L 117.805319 167.511941 
z
" clip-path="url(#pe6b3aca10d)" style="fill: #1f77b4; fill-opacity: 0.3"/>
   </g>
   <g id="PolyCollection_2">
    <path d="M 185.488205 258.607373 
L 183.200885 258.607373 
L 183.053638 256.817878 
L 182.889771 255.028384 
L 182.707664 253.238889 
L 182.505809 251.449395 
L 182.282853 249.6599 
L 182.037607 247.870406 
L 181.769014 246.080911 
L 181.476073 244.291417 
L 181.157727 242.501923 
L 180.812731 240.712428 
L 180.439518 238.922934 
L 180.036102 237.133439 
L 179.600021 235.343945 
L 179.128378 233.55445 
L 178.617973 231.764956 
L 178.065551 229.975461 
L 177.468157 228.185967 
L 176.823573 226.396472 
L 176.130826 224.606978 
L 175.390694 222.817483 
L 174.606177 221.027989 
L 173.782877 219.238495 
L 172.929215 217.449 
L 172.056463 215.659506 
L 171.178552 213.870011 
L 170.311651 212.080517 
L 169.473524 210.291022 
L 168.682718 208.501528 
L 167.957631 206.712033 
L 167.315519 204.922539 
L 166.771551 203.133044 
L 166.337962 201.34355 
L 166.023376 199.554055 
L 165.832363 197.764561 
L 165.765227 195.975067 
L 165.818064 194.185572 
L 165.983026 192.396078 
L 166.248792 190.606583 
L 166.601165 188.817089 
L 167.023759 187.027594 
L 167.498711 185.2381 
L 168.007382 183.448605 
L 168.531024 181.659111 
L 169.051369 179.869616 
L 169.551162 178.080122 
L 170.014626 176.290628 
L 170.427852 174.501133 
L 170.779147 172.711639 
L 171.059312 170.922144 
L 171.261868 169.13265 
L 171.383219 167.343155 
L 171.422737 165.553661 
L 171.382775 163.764166 
L 171.268581 161.974672 
L 171.088135 160.185177 
L 170.851891 158.395683 
L 170.572433 156.606188 
L 170.264072 154.816694 
L 169.942368 153.0272 
L 169.623613 151.237705 
L 169.324279 149.448211 
L 169.060448 147.658716 
L 168.847241 145.869222 
L 168.698262 144.079727 
L 168.625078 142.290233 
L 168.636771 140.500738 
L 168.739566 138.711244 
L 168.936584 136.921749 
L 169.227729 135.132255 
L 169.609727 133.34276 
L 170.076328 131.553266 
L 170.618657 129.763772 
L 171.225699 127.974277 
L 171.884889 126.184783 
L 172.582749 124.395288 
L 173.305557 122.605794 
L 174.03996 120.816299 
L 174.773525 119.026805 
L 175.495175 117.23731 
L 176.195498 115.447816 
L 176.866914 113.658321 
L 177.503723 111.868827 
L 178.102026 110.079333 
L 178.659568 108.289838 
L 179.175518 106.500344 
L 179.650218 104.710849 
L 180.084924 102.921355 
L 180.481563 101.13186 
L 180.842519 99.342366 
L 181.17045 97.552871 
L 181.468145 95.763377 
L 181.738411 93.973882 
L 181.983995 92.184388 
L 182.207518 90.394893 
L 182.411431 88.605399 
L 182.597983 86.815905 
L 182.769194 85.02641 
L 182.926835 83.236916 
L 183.072417 81.447421 
L 185.616674 81.447421 
L 185.616674 81.447421 
L 185.762256 83.236916 
L 185.919897 85.02641 
L 186.091108 86.815905 
L 186.27766 88.605399 
L 186.481573 90.394893 
L 186.705096 92.184388 
L 186.950679 93.973882 
L 187.220946 95.763377 
L 187.518641 97.552871 
L 187.846572 99.342366 
L 188.207528 101.13186 
L 188.604167 102.921355 
L 189.038873 104.710849 
L 189.513573 106.500344 
L 190.029523 108.289838 
L 190.587065 110.079333 
L 191.185367 111.868827 
L 191.822176 113.658321 
L 192.493593 115.447816 
L 193.193916 117.23731 
L 193.915566 119.026805 
L 194.649131 120.816299 
L 195.383534 122.605794 
L 196.106342 124.395288 
L 196.804202 126.184783 
L 197.463391 127.974277 
L 198.070434 129.763772 
L 198.612763 131.553266 
L 199.079364 133.34276 
L 199.461362 135.132255 
L 199.752507 136.921749 
L 199.949525 138.711244 
L 200.05232 140.500738 
L 200.064013 142.290233 
L 199.990829 144.079727 
L 199.84185 145.869222 
L 199.628643 147.658716 
L 199.364812 149.448211 
L 199.065478 151.237705 
L 198.746723 153.0272 
L 198.425019 154.816694 
L 198.116658 156.606188 
L 197.8372 158.395683 
L 197.600956 160.185177 
L 197.42051 161.974672 
L 197.306316 163.764166 
L 197.266354 165.553661 
L 197.305872 167.343155 
L 197.427223 169.13265 
L 197.629779 170.922144 
L 197.909944 172.711639 
L 198.261238 174.501133 
L 198.674465 176.290628 
L 199.137928 178.080122 
L 199.637722 179.869616 
L 200.158067 181.659111 
L 200.681708 183.448605 
L 201.19038 185.2381 
L 201.665331 187.027594 
L 202.087925 188.817089 
L 202.440299 190.606583 
L 202.706065 192.396078 
L 202.871027 194.185572 
L 202.923864 195.975067 
L 202.856728 197.764561 
L 202.665714 199.554055 
L 202.351129 201.34355 
L 201.91754 203.133044 
L 201.373572 204.922539 
L 200.73146 206.712033 
L 200.006372 208.501528 
L 199.215567 210.291022 
L 198.37744 212.080517 
L 197.510538 213.870011 
L 196.632628 215.659506 
L 195.759876 217.449 
L 194.906214 219.238495 
L 194.082914 221.027989 
L 193.298397 222.817483 
L 192.558265 224.606978 
L 191.865517 226.396472 
L 191.220934 228.185967 
L 190.623539 229.975461 
L 190.071118 231.764956 
L 189.560713 233.55445 
L 189.08907 235.343945 
L 188.652989 237.133439 
L 188.249572 238.922934 
L 187.87636 240.712428 
L 187.531364 242.501923 
L 187.213018 244.291417 
L 186.920077 246.080911 
L 186.651484 247.870406 
L 186.406238 249.6599 
L 186.183282 251.449395 
L 185.981427 253.238889 
L 185.79932 255.028384 
L 185.635453 256.817878 
L 185.488205 258.607373 
z
" clip-path="url(#pe6b3aca10d)" style="fill: #1f77b4; fill-opacity: 0.3"/>
   </g>
   <g id="PolyCollection_3">
    <path d="M 273.645591 187.276236 
L 243.678046 187.276236 
L 243.094696 186.862438 
L 242.548888 186.44864 
L 242.046052 186.034842 
L 241.59131 185.621044 
L 241.189383 185.207246 
L 240.844517 184.793449 
L 240.560402 184.379651 
L 240.340109 183.965853 
L 240.186034 183.552055 
L 240.099855 183.138257 
L 240.0825 182.724459 
L 240.134132 182.310661 
L 240.254146 181.896863 
L 240.441177 181.483065 
L 240.693129 181.069267 
L 241.007214 180.655469 
L 241.379999 180.241672 
L 241.807469 179.827874 
L 242.285098 179.414076 
L 242.807926 179.000278 
L 243.370645 178.58648 
L 243.967682 178.172682 
L 244.59329 177.758884 
L 245.241635 177.345086 
L 245.906882 176.931288 
L 246.583273 176.51749 
L 247.265207 176.103692 
L 247.9473 175.689895 
L 248.624452 175.276097 
L 249.291889 174.862299 
L 249.945207 174.448501 
L 250.580402 174.034703 
L 251.193884 173.620905 
L 251.78249 173.207107 
L 252.343485 172.793309 
L 252.874546 172.379511 
L 253.373751 171.965713 
L 253.839554 171.551916 
L 254.270751 171.138118 
L 254.66645 170.72432 
L 255.026034 170.310522 
L 255.349116 169.896724 
L 255.635505 169.482926 
L 255.885163 169.069128 
L 256.098168 168.65533 
L 256.274679 168.241532 
L 256.414903 167.827734 
L 256.51907 167.413936 
L 256.587409 167.000139 
L 256.620133 166.586341 
L 256.617424 166.172543 
L 256.579437 165.758745 
L 256.506292 165.344947 
L 256.398089 164.931149 
L 256.254917 164.517351 
L 256.076876 164.103553 
L 255.864098 163.689755 
L 255.61678 163.275957 
L 255.33521 162.862159 
L 255.019802 162.448362 
L 254.671137 162.034564 
L 254.28999 161.620766 
L 253.877374 161.206968 
L 253.434565 160.79317 
L 252.963141 160.379372 
L 252.464998 159.965574 
L 251.942379 159.551776 
L 251.397885 159.137978 
L 250.834479 158.72418 
L 250.25549 158.310382 
L 249.664602 157.896585 
L 249.065832 157.482787 
L 248.463507 157.068989 
L 247.862224 156.655191 
L 247.266808 156.241393 
L 246.682254 155.827595 
L 246.113671 155.413797 
L 245.566213 154.999999 
L 245.045009 154.586201 
L 244.555086 154.172403 
L 244.101295 153.758605 
L 243.688231 153.344808 
L 243.320164 152.93101 
L 243.000962 152.517212 
L 242.734027 152.103414 
L 242.522239 151.689616 
L 242.367901 151.275818 
L 242.272702 150.86202 
L 242.237686 150.448222 
L 242.26323 150.034424 
L 242.349045 149.620626 
L 242.494176 149.206829 
L 242.697023 148.793031 
L 242.955367 148.379233 
L 243.266416 147.965435 
L 243.626851 147.551637 
L 244.032888 147.137839 
L 244.480339 146.724041 
L 244.96469 146.310243 
L 272.358946 146.310243 
L 272.358946 146.310243 
L 272.843298 146.724041 
L 273.290749 147.137839 
L 273.696785 147.551637 
L 274.05722 147.965435 
L 274.368269 148.379233 
L 274.626614 148.793031 
L 274.82946 149.206829 
L 274.974591 149.620626 
L 275.060406 150.034424 
L 275.085951 150.448222 
L 275.050934 150.86202 
L 274.955735 151.275818 
L 274.801397 151.689616 
L 274.589609 152.103414 
L 274.322674 152.517212 
L 274.003472 152.93101 
L 273.635405 153.344808 
L 273.222342 153.758605 
L 272.76855 154.172403 
L 272.278627 154.586201 
L 271.757423 154.999999 
L 271.209966 155.413797 
L 270.641383 155.827595 
L 270.056829 156.241393 
L 269.461412 156.655191 
L 268.860129 157.068989 
L 268.257804 157.482787 
L 267.659035 157.896585 
L 267.068146 158.310382 
L 266.489158 158.72418 
L 265.925752 159.137978 
L 265.381257 159.551776 
L 264.858638 159.965574 
L 264.360496 160.379372 
L 263.889071 160.79317 
L 263.446263 161.206968 
L 263.033646 161.620766 
L 262.6525 162.034564 
L 262.303834 162.448362 
L 261.988427 162.862159 
L 261.706856 163.275957 
L 261.459538 163.689755 
L 261.246761 164.103553 
L 261.068719 164.517351 
L 260.925547 164.931149 
L 260.817344 165.344947 
L 260.744199 165.758745 
L 260.706212 166.172543 
L 260.703504 166.586341 
L 260.736227 167.000139 
L 260.804566 167.413936 
L 260.908734 167.827734 
L 261.048958 168.241532 
L 261.225468 168.65533 
L 261.438473 169.069128 
L 261.688131 169.482926 
L 261.97452 169.896724 
L 262.297602 170.310522 
L 262.657186 170.72432 
L 263.052886 171.138118 
L 263.484083 171.551916 
L 263.949885 171.965713 
L 264.449091 172.379511 
L 264.980152 172.793309 
L 265.541146 173.207107 
L 266.129753 173.620905 
L 266.743235 174.034703 
L 267.378429 174.448501 
L 268.031748 174.862299 
L 268.699185 175.276097 
L 269.376336 175.689895 
L 270.05843 176.103692 
L 270.740363 176.51749 
L 271.416754 176.931288 
L 272.082001 177.345086 
L 272.730346 177.758884 
L 273.355954 178.172682 
L 273.952991 178.58648 
L 274.51571 179.000278 
L 275.038539 179.414076 
L 275.516168 179.827874 
L 275.943637 180.241672 
L 276.316422 180.655469 
L 276.630507 181.069267 
L 276.88246 181.483065 
L 277.069491 181.896863 
L 277.189504 182.310661 
L 277.241136 182.724459 
L 277.223782 183.138257 
L 277.137602 183.552055 
L 276.983527 183.965853 
L 276.763234 184.379651 
L 276.479119 184.793449 
L 276.134253 185.207246 
L 275.732326 185.621044 
L 275.277584 186.034842 
L 274.774748 186.44864 
L 274.22894 186.862438 
L 273.645591 187.276236 
z
" clip-path="url(#pe6b3aca10d)" style="fill: #1f77b4; fill-opacity: 0.3"/>
   </g>
   <g id="PolyCollection_4">
    <path d="M 347.71882 246.030094 
L 318.239362 246.030094 
L 317.373569 244.794145 
L 316.59487 243.558196 
L 315.920771 242.322247 
L 315.366878 241.086298 
L 314.946292 239.850349 
L 314.669077 238.6144 
L 314.541847 237.378451 
L 314.567474 236.142502 
L 314.744948 234.906553 
L 315.069385 233.670604 
L 315.53219 232.434655 
L 316.121356 231.198706 
L 316.82189 229.962757 
L 317.616327 228.726808 
L 318.485323 227.490859 
L 319.408274 226.25491 
L 320.363945 225.018961 
L 321.331074 223.783012 
L 322.288924 222.547063 
L 323.217762 221.311114 
L 324.099259 220.075165 
L 324.916791 218.839216 
L 325.655659 217.603267 
L 326.303214 216.367318 
L 326.848915 215.131369 
L 327.284331 213.89542 
L 327.603097 212.659471 
L 327.800848 211.423522 
L 327.875151 210.187573 
L 327.825434 208.951624 
L 327.652939 207.715675 
L 327.360685 206.479726 
L 326.953455 205.243777 
L 326.437799 204.007828 
L 325.822039 202.771879 
L 325.116264 201.53593 
L 324.33231 200.299981 
L 323.483705 199.064032 
L 322.585558 197.828083 
L 321.654402 196.592134 
L 320.70796 195.356185 
L 319.76485 194.120236 
L 318.844219 192.884287 
L 317.965326 191.648338 
L 317.147069 190.412389 
L 316.407491 189.17644 
L 315.763275 187.940491 
L 315.229253 186.704542 
L 314.817949 185.468593 
L 314.539187 184.232643 
L 314.399773 182.996694 
L 314.403281 181.760745 
L 314.549944 180.524796 
L 314.836662 179.288847 
L 315.25713 178.052898 
L 315.802077 176.816949 
L 316.459608 175.581 
L 317.215634 174.345051 
L 318.054361 173.109102 
L 318.958832 171.873153 
L 319.911478 170.637204 
L 320.894667 169.401255 
L 321.891224 168.165306 
L 322.884896 166.929357 
L 323.860751 165.693408 
L 324.805499 164.457459 
L 325.707725 163.22151 
L 326.558026 161.985561 
L 327.349068 160.749612 
L 328.075562 159.513663 
L 328.734161 158.277714 
L 329.323315 157.041765 
L 329.843067 155.805816 
L 330.294834 154.569867 
L 330.681168 153.333918 
L 331.005522 152.097969 
L 331.27202 150.86202 
L 331.485255 149.626071 
L 331.650105 148.390122 
L 331.771588 147.154173 
L 331.854737 145.918224 
L 331.90451 144.682275 
L 331.925727 143.446326 
L 331.923021 142.210377 
L 331.900816 140.974428 
L 331.863313 139.738479 
L 331.814473 138.50253 
L 331.75802 137.266581 
L 331.697428 136.030632 
L 331.635915 134.794683 
L 331.576419 133.558734 
L 331.521589 132.322785 
L 331.473753 131.086836 
L 331.434896 129.850887 
L 331.406637 128.614938 
L 331.390203 127.378989 
L 331.38642 126.14304 
L 331.395704 124.907091 
L 331.418065 123.671142 
L 334.540117 123.671142 
L 334.540117 123.671142 
L 334.562478 124.907091 
L 334.571762 126.14304 
L 334.567979 127.378989 
L 334.551545 128.614938 
L 334.523285 129.850887 
L 334.484429 131.086836 
L 334.436593 132.322785 
L 334.381763 133.558734 
L 334.322267 134.794683 
L 334.260753 136.030632 
L 334.200162 137.266581 
L 334.143709 138.50253 
L 334.094869 139.738479 
L 334.057365 140.974428 
L 334.035161 142.210377 
L 334.032455 143.446326 
L 334.053672 144.682275 
L 334.103445 145.918224 
L 334.186594 147.154173 
L 334.308077 148.390122 
L 334.472927 149.626071 
L 334.686162 150.86202 
L 334.95266 152.097969 
L 335.277013 153.333918 
L 335.663348 154.569867 
L 336.115115 155.805816 
L 336.634867 157.041765 
L 337.22402 158.277714 
L 337.88262 159.513663 
L 338.609114 160.749612 
L 339.400156 161.985561 
L 340.250457 163.22151 
L 341.152683 164.457459 
L 342.097431 165.693408 
L 343.073286 166.929357 
L 344.066957 168.165306 
L 345.063514 169.401255 
L 346.046704 170.637204 
L 346.999349 171.873153 
L 347.90382 173.109102 
L 348.742548 174.345051 
L 349.498573 175.581 
L 350.156105 176.816949 
L 350.701052 178.052898 
L 351.12152 179.288847 
L 351.408238 180.524796 
L 351.554901 181.760745 
L 351.558409 182.996694 
L 351.418995 184.232643 
L 351.140233 185.468593 
L 350.728929 186.704542 
L 350.194907 187.940491 
L 349.550691 189.17644 
L 348.811113 190.412389 
L 347.992856 191.648338 
L 347.113963 192.884287 
L 346.193332 194.120236 
L 345.250222 195.356185 
L 344.30378 196.592134 
L 343.372624 197.828083 
L 342.474477 199.064032 
L 341.625872 200.299981 
L 340.841918 201.53593 
L 340.136143 202.771879 
L 339.520382 204.007828 
L 339.004727 205.243777 
L 338.597497 206.479726 
L 338.305242 207.715675 
L 338.132747 208.951624 
L 338.083031 210.187573 
L 338.157334 211.423522 
L 338.355085 212.659471 
L 338.67385 213.89542 
L 339.109266 215.131369 
L 339.654968 216.367318 
L 340.302522 217.603267 
L 341.04139 218.839216 
L 341.858923 220.075165 
L 342.74042 221.311114 
L 343.669258 222.547063 
L 344.627108 223.783012 
L 345.594237 225.018961 
L 346.549908 226.25491 
L 347.472859 227.490859 
L 348.341855 228.726808 
L 349.136292 229.962757 
L 349.836826 231.198706 
L 350.425992 232.434655 
L 350.888797 233.670604 
L 351.213234 234.906553 
L 351.390707 236.142502 
L 351.416335 237.378451 
L 351.289105 238.6144 
L 351.01189 239.850349 
L 350.591304 241.086298 
L 350.037411 242.322247 
L 349.363312 243.558196 
L 348.584613 244.794145 
L 347.71882 246.030094 
z
" clip-path="url(#pe6b3aca10d)" style="fill: #1f77b4; fill-opacity: 0.3"/>
   </g>
   <g id="PolyCollection_5">
    <path d="M 418.063068 231.296711 
L 396.529659 231.296711 
L 395.790941 230.026279 
L 395.06671 228.755846 
L 394.363062 227.485414 
L 393.685628 226.214982 
L 393.039484 224.94455 
L 392.429084 223.674118 
L 391.858236 222.403686 
L 391.330101 221.133253 
L 390.847216 219.862821 
L 390.411543 218.592389 
L 390.024526 217.321957 
L 389.687153 216.051525 
L 389.400022 214.781093 
L 389.163391 213.51066 
L 388.977223 212.240228 
L 388.841205 210.969796 
L 388.754763 209.699364 
L 388.717045 208.428932 
L 388.726909 207.158499 
L 388.782883 205.888067 
L 388.88314 204.617635 
L 389.025464 203.347203 
L 389.207228 202.076771 
L 389.425389 200.806339 
L 389.676492 199.535906 
L 389.956703 198.265474 
L 390.261855 196.995042 
L 390.587516 195.72461 
L 390.929073 194.454178 
L 391.281821 193.183746 
L 391.64107 191.913313 
L 392.002238 190.642881 
L 392.360955 189.372449 
L 392.713148 188.102017 
L 393.055112 186.831585 
L 393.383576 185.561153 
L 393.695738 184.29072 
L 393.989297 183.020288 
L 394.262455 181.749856 
L 394.513922 180.479424 
L 394.742893 179.208992 
L 394.949031 177.93856 
L 395.132438 176.668127 
L 395.293624 175.397695 
L 395.433481 174.127263 
L 395.553254 172.856831 
L 395.654511 171.586399 
L 395.739123 170.315966 
L 395.809234 169.045534 
L 395.867236 167.775102 
L 395.915737 166.50467 
L 395.957524 165.234238 
L 395.99552 163.963806 
L 396.03273 162.693373 
L 396.07218 161.422941 
L 396.116847 160.152509 
L 396.169581 158.882077 
L 396.233029 157.611645 
L 396.309546 156.341213 
L 396.401124 155.07078 
L 396.509318 153.800348 
L 396.635191 152.529916 
L 396.779267 151.259484 
L 396.941516 149.989052 
L 397.12135 148.71862 
L 397.317651 147.448187 
L 397.528814 146.177755 
L 397.752823 144.907323 
L 397.987338 143.636891 
L 398.229799 142.366459 
L 398.477537 141.096027 
L 398.727897 139.825594 
L 398.978348 138.555162 
L 399.226593 137.28473 
L 399.470657 136.014298 
L 399.708964 134.743866 
L 399.940386 133.473434 
L 400.164272 132.203001 
L 400.380445 130.932569 
L 400.589183 129.662137 
L 400.791172 128.391705 
L 400.987441 127.121273 
L 401.179287 125.85084 
L 401.368182 124.580408 
L 401.55568 123.309976 
L 401.743328 122.039544 
L 401.932575 120.769112 
L 402.124697 119.49868 
L 402.320728 118.228247 
L 402.521415 116.957815 
L 402.727182 115.687383 
L 402.938115 114.416951 
L 403.153964 113.146519 
L 403.374161 111.876087 
L 403.597847 110.605654 
L 403.823918 109.335222 
L 404.051071 108.06479 
L 404.277859 106.794358 
L 404.50275 105.523926 
L 410.089977 105.523926 
L 410.089977 105.523926 
L 410.314868 106.794358 
L 410.541656 108.06479 
L 410.768809 109.335222 
L 410.99488 110.605654 
L 411.218567 111.876087 
L 411.438763 113.146519 
L 411.654613 114.416951 
L 411.865545 115.687383 
L 412.071312 116.957815 
L 412.271999 118.228247 
L 412.46803 119.49868 
L 412.660152 120.769112 
L 412.8494 122.039544 
L 413.037048 123.309976 
L 413.224546 124.580408 
L 413.41344 125.85084 
L 413.605286 127.121273 
L 413.801556 128.391705 
L 414.003544 129.662137 
L 414.212282 130.932569 
L 414.428455 132.203001 
L 414.652341 133.473434 
L 414.883763 134.743866 
L 415.12207 136.014298 
L 415.366134 137.28473 
L 415.614379 138.555162 
L 415.86483 139.825594 
L 416.11519 141.096027 
L 416.362928 142.366459 
L 416.605389 143.636891 
L 416.839904 144.907323 
L 417.063914 146.177755 
L 417.275077 147.448187 
L 417.471377 148.71862 
L 417.651211 149.989052 
L 417.81346 151.259484 
L 417.957537 152.529916 
L 418.083409 153.800348 
L 418.191604 155.07078 
L 418.283182 156.341213 
L 418.359699 157.611645 
L 418.423146 158.882077 
L 418.47588 160.152509 
L 418.520547 161.422941 
L 418.559997 162.693373 
L 418.597207 163.963806 
L 418.635203 165.234238 
L 418.67699 166.50467 
L 418.725491 167.775102 
L 418.783493 169.045534 
L 418.853604 170.315966 
L 418.938216 171.586399 
L 419.039473 172.856831 
L 419.159246 174.127263 
L 419.299103 175.397695 
L 419.46029 176.668127 
L 419.643696 177.93856 
L 419.849834 179.208992 
L 420.078805 180.479424 
L 420.330272 181.749856 
L 420.603431 183.020288 
L 420.896989 184.29072 
L 421.209151 185.561153 
L 421.537615 186.831585 
L 421.87958 188.102017 
L 422.231772 189.372449 
L 422.590489 190.642881 
L 422.951658 191.913313 
L 423.310906 193.183746 
L 423.663654 194.454178 
L 424.005211 195.72461 
L 424.330873 196.995042 
L 424.636025 198.265474 
L 424.916235 199.535906 
L 425.167338 200.806339 
L 425.385499 202.076771 
L 425.567264 203.347203 
L 425.709588 204.617635 
L 425.809845 205.888067 
L 425.865819 207.158499 
L 425.875682 208.428932 
L 425.837964 209.699364 
L 425.751522 210.969796 
L 425.615504 212.240228 
L 425.429336 213.51066 
L 425.192705 214.781093 
L 424.905574 216.051525 
L 424.568201 217.321957 
L 424.181184 218.592389 
L 423.745511 219.862821 
L 423.262626 221.133253 
L 422.734491 222.403686 
L 422.163644 223.674118 
L 421.553244 224.94455 
L 420.907099 226.214982 
L 420.229666 227.485414 
L 419.526017 228.755846 
L 418.801786 230.026279 
L 418.063068 231.296711 
z
" clip-path="url(#pe6b3aca10d)" style="fill: #1f77b4; fill-opacity: 0.3"/>
   </g>
   <g id="PolyCollection_6">
    <path d="M 484.157782 287.355438 
L 479.06949 287.355438 
L 478.68605 285.549609 
L 478.26875 283.743781 
L 477.818138 281.937952 
L 477.335202 280.132123 
L 476.821347 278.326295 
L 476.27836 276.520466 
L 475.708388 274.714638 
L 475.113937 272.908809 
L 474.497883 271.102981 
L 473.863528 269.297152 
L 473.214662 267.491323 
L 472.55564 265.685495 
L 471.891444 263.879666 
L 471.227698 262.073838 
L 470.570619 260.268009 
L 469.926873 258.46218 
L 469.303328 256.656352 
L 468.706708 254.850523 
L 468.143171 253.044695 
L 467.617852 251.238866 
L 467.134425 249.433037 
L 466.69475 247.627209 
L 466.298662 245.82138 
L 465.943952 244.015552 
L 465.626565 242.209723 
L 465.341015 240.403895 
L 465.080982 238.598066 
L 464.84003 236.792237 
L 464.612357 234.986409 
L 464.393494 233.18058 
L 464.180849 231.374752 
L 463.974036 229.568923 
L 463.774932 227.763094 
L 463.587464 225.957266 
L 463.417142 224.151437 
L 463.270408 222.345609 
L 463.15388 220.53978 
L 463.073591 218.733951 
L 463.034318 216.928123 
L 463.03908 215.122294 
L 463.088862 213.316466 
L 463.18259 211.510637 
L 463.317355 209.704809 
L 463.488836 207.89898 
L 463.691868 206.093151 
L 463.92109 204.287323 
L 464.171565 202.481494 
L 464.439326 200.675666 
L 464.721769 198.869837 
L 465.017851 197.064008 
L 465.328096 195.25818 
L 465.654391 193.452351 
L 465.999624 191.646523 
L 466.367207 189.840694 
L 466.760543 188.034865 
L 467.182502 186.229037 
L 467.634976 184.423208 
L 468.118544 182.61738 
L 468.632291 180.811551 
L 469.173784 179.005723 
L 469.739199 177.199894 
L 470.323571 175.394065 
L 470.921125 173.588237 
L 471.525646 171.782408 
L 472.130843 169.97658 
L 472.730671 168.170751 
L 473.319582 166.364922 
L 473.892697 164.559094 
L 474.445897 162.753265 
L 474.975846 160.947437 
L 475.479967 159.141608 
L 475.956384 157.33578 
L 476.403856 155.529951 
L 476.821717 153.724122 
L 477.209828 151.918294 
L 477.568534 150.112465 
L 477.898628 148.306637 
L 478.201315 146.500808 
L 478.478151 144.694979 
L 478.730971 142.889151 
L 478.961789 141.083322 
L 479.172684 139.277494 
L 479.365677 137.471665 
L 479.542616 135.665836 
L 479.705093 133.860008 
L 479.85438 132.054179 
L 479.99143 130.248351 
L 480.116911 128.442522 
L 480.231289 126.636694 
L 480.334931 124.830865 
L 480.428226 123.025036 
L 480.511691 121.219208 
L 480.586049 119.413379 
L 480.652274 117.607551 
L 480.71158 115.801722 
L 480.765367 113.995893 
L 480.815133 112.190065 
L 480.862359 110.384236 
L 480.908389 108.578408 
L 482.318883 108.578408 
L 482.318883 108.578408 
L 482.364914 110.384236 
L 482.41214 112.190065 
L 482.461906 113.995893 
L 482.515693 115.801722 
L 482.574999 117.607551 
L 482.641224 119.413379 
L 482.715582 121.219208 
L 482.799046 123.025036 
L 482.892341 124.830865 
L 482.995983 126.636694 
L 483.110361 128.442522 
L 483.235843 130.248351 
L 483.372893 132.054179 
L 483.52218 133.860008 
L 483.684656 135.665836 
L 483.861596 137.471665 
L 484.054588 139.277494 
L 484.265483 141.083322 
L 484.496301 142.889151 
L 484.749122 144.694979 
L 485.025958 146.500808 
L 485.328645 148.306637 
L 485.658739 150.112465 
L 486.017445 151.918294 
L 486.405556 153.724122 
L 486.823417 155.529951 
L 487.270889 157.33578 
L 487.747305 159.141608 
L 488.251427 160.947437 
L 488.781376 162.753265 
L 489.334576 164.559094 
L 489.90769 166.364922 
L 490.496601 168.170751 
L 491.09643 169.97658 
L 491.701627 171.782408 
L 492.306148 173.588237 
L 492.903702 175.394065 
L 493.488074 177.199894 
L 494.053489 179.005723 
L 494.594982 180.811551 
L 495.108728 182.61738 
L 495.592297 184.423208 
L 496.044771 186.229037 
L 496.46673 188.034865 
L 496.860065 189.840694 
L 497.227649 191.646523 
L 497.572882 193.452351 
L 497.899177 195.25818 
L 498.209422 197.064008 
L 498.505504 198.869837 
L 498.787946 200.675666 
L 499.055708 202.481494 
L 499.306183 204.287323 
L 499.535405 206.093151 
L 499.738437 207.89898 
L 499.909917 209.704809 
L 500.044682 211.510637 
L 500.138411 213.316466 
L 500.188193 215.122294 
L 500.192955 216.928123 
L 500.153682 218.733951 
L 500.073393 220.53978 
L 499.956865 222.345609 
L 499.810131 224.151437 
L 499.639809 225.957266 
L 499.452341 227.763094 
L 499.253237 229.568923 
L 499.046423 231.374752 
L 498.833778 233.18058 
L 498.614915 234.986409 
L 498.387243 236.792237 
L 498.146291 238.598066 
L 497.886258 240.403895 
L 497.600708 242.209723 
L 497.283321 244.015552 
L 496.928611 245.82138 
L 496.532523 247.627209 
L 496.092848 249.433037 
L 495.609421 251.238866 
L 495.084102 253.044695 
L 494.520565 254.850523 
L 493.923945 256.656352 
L 493.3004 258.46218 
L 492.656654 260.268009 
L 491.999575 262.073838 
L 491.335829 263.879666 
L 490.671633 265.685495 
L 490.012611 267.491323 
L 489.363744 269.297152 
L 488.72939 271.102981 
L 488.113336 272.908809 
L 487.518885 274.714638 
L 486.948913 276.520466 
L 486.405926 278.326295 
L 485.89207 280.132123 
L 485.409135 281.937952 
L 484.958523 283.743781 
L 484.541223 285.549609 
L 484.157782 287.355438 
z
" clip-path="url(#pe6b3aca10d)" style="fill: #1f77b4; fill-opacity: 0.3"/>
   </g>
   <g id="PolyCollection_7">
    <path d="M 568.929169 241.538209 
L 542.932649 241.538209 
L 542.255825 240.794099 
L 541.599458 240.049988 
L 540.969749 239.305878 
L 540.372867 238.561768 
L 539.814857 237.817658 
L 539.301534 237.073547 
L 538.838384 236.329437 
L 538.43047 235.585327 
L 538.082337 234.841217 
L 537.797929 234.097106 
L 537.580516 233.352996 
L 537.43263 232.608886 
L 537.356014 231.864775 
L 537.351591 231.120665 
L 537.419443 230.376555 
L 537.558807 229.632445 
L 537.768091 228.888334 
L 538.044901 228.144224 
L 538.386085 227.400114 
L 538.787792 226.656004 
L 539.245542 225.911893 
L 539.754306 225.167783 
L 540.308593 224.423673 
L 540.902551 223.679562 
L 541.530057 222.935452 
L 542.184824 222.191342 
L 542.860493 221.447232 
L 543.550734 220.703121 
L 544.249328 219.959011 
L 544.950255 219.214901 
L 545.647765 218.470791 
L 546.336437 217.72668 
L 547.011234 216.98257 
L 547.667542 216.23846 
L 548.301196 215.494349 
L 548.908498 214.750239 
L 549.486221 214.006129 
L 550.031603 213.262019 
L 550.542332 212.517908 
L 551.016523 211.773798 
L 551.452687 211.029688 
L 551.849698 210.285578 
L 552.206748 209.541467 
L 552.523312 208.797357 
L 552.799102 208.053247 
L 553.034024 207.309136 
L 553.228141 206.565026 
L 553.381635 205.820916 
L 553.494775 205.076806 
L 553.567892 204.332695 
L 553.601354 203.588585 
L 553.595555 202.844475 
L 553.550904 202.100365 
L 553.467825 201.356254 
L 553.346761 200.612144 
L 553.188187 199.868034 
L 552.992624 199.123923 
L 552.760663 198.379813 
L 552.492988 197.635703 
L 552.19041 196.891593 
L 551.853893 196.147482 
L 551.484589 195.403372 
L 551.083869 194.659262 
L 550.653352 193.915152 
L 550.194935 193.171041 
L 549.710816 192.426931 
L 549.20351 191.682821 
L 548.675865 190.93871 
L 548.131062 190.1946 
L 547.572618 189.45049 
L 547.004373 188.70638 
L 546.430466 187.962269 
L 545.855314 187.218159 
L 545.283566 186.474049 
L 544.720063 185.729939 
L 544.169781 184.985828 
L 543.637771 184.241718 
L 543.129094 183.497608 
L 542.648745 182.753497 
L 542.201585 182.009387 
L 541.792259 181.265277 
L 541.425125 180.521167 
L 541.104182 179.777056 
L 540.832996 179.032946 
L 540.614641 178.288836 
L 540.451641 177.544726 
L 540.345925 176.800615 
L 540.29879 176.056505 
L 540.310873 175.312395 
L 540.38214 174.568284 
L 540.511886 173.824174 
L 540.698745 173.080064 
L 540.940712 172.335954 
L 541.235184 171.591843 
L 541.579002 170.847733 
L 541.96851 170.103623 
L 542.399617 169.359513 
L 542.867872 168.615402 
L 543.368539 167.871292 
L 568.493279 167.871292 
L 568.493279 167.871292 
L 568.993946 168.615402 
L 569.462201 169.359513 
L 569.893308 170.103623 
L 570.282816 170.847733 
L 570.626634 171.591843 
L 570.921106 172.335954 
L 571.163074 173.080064 
L 571.349932 173.824174 
L 571.479678 174.568284 
L 571.550946 175.312395 
L 571.563028 176.056505 
L 571.515893 176.800615 
L 571.410177 177.544726 
L 571.247178 178.288836 
L 571.028822 179.032946 
L 570.757636 179.777056 
L 570.436693 180.521167 
L 570.06956 181.265277 
L 569.660233 182.009387 
L 569.213073 182.753497 
L 568.732724 183.497608 
L 568.224047 184.241718 
L 567.692037 184.985828 
L 567.141756 185.729939 
L 566.578252 186.474049 
L 566.006504 187.218159 
L 565.431352 187.962269 
L 564.857446 188.70638 
L 564.2892 189.45049 
L 563.730756 190.1946 
L 563.185954 190.93871 
L 562.658308 191.682821 
L 562.151002 192.426931 
L 561.666883 193.171041 
L 561.208466 193.915152 
L 560.777949 194.659262 
L 560.377229 195.403372 
L 560.007925 196.147482 
L 559.671408 196.891593 
L 559.36883 197.635703 
L 559.101156 198.379813 
L 558.869194 199.123923 
L 558.673631 199.868034 
L 558.515057 200.612144 
L 558.393993 201.356254 
L 558.310914 202.100365 
L 558.266263 202.844475 
L 558.260464 203.588585 
L 558.293926 204.332695 
L 558.367043 205.076806 
L 558.480184 205.820916 
L 558.633677 206.565026 
L 558.827794 207.309136 
L 559.062716 208.053247 
L 559.338506 208.797357 
L 559.65507 209.541467 
L 560.012121 210.285578 
L 560.409131 211.029688 
L 560.845295 211.773798 
L 561.319486 212.517908 
L 561.830215 213.262019 
L 562.375597 214.006129 
L 562.95332 214.750239 
L 563.560622 215.494349 
L 564.194277 216.23846 
L 564.850584 216.98257 
L 565.525381 217.72668 
L 566.214053 218.470791 
L 566.911563 219.214901 
L 567.61249 219.959011 
L 568.311085 220.703121 
L 569.001325 221.447232 
L 569.676994 222.191342 
L 570.331761 222.935452 
L 570.959267 223.679562 
L 571.553225 224.423673 
L 572.107512 225.167783 
L 572.616276 225.911893 
L 573.074026 226.656004 
L 573.475733 227.400114 
L 573.816917 228.144224 
L 574.093727 228.888334 
L 574.303011 229.632445 
L 574.442376 230.376555 
L 574.510227 231.120665 
L 574.505804 231.864775 
L 574.429188 232.608886 
L 574.281302 233.352996 
L 574.063889 234.097106 
L 573.779481 234.841217 
L 573.431348 235.585327 
L 573.023434 236.329437 
L 572.560284 237.073547 
L 572.046961 237.817658 
L 571.488951 238.561768 
L 570.892069 239.305878 
L 570.26236 240.049988 
L 569.605994 240.794099 
L 568.929169 241.538209 
z
" clip-path="url(#pe6b3aca10d)" style="fill: #1f77b4; fill-opacity: 0.3"/>
   </g>
   <g id="PolyCollection_8">
    <path d="M 632.676969 323.829545 
L 627.819395 323.829545 
L 627.484416 322.695231 
L 627.10805 321.560917 
L 626.685517 320.426602 
L 626.212462 319.292288 
L 625.685437 318.157973 
L 625.102436 317.023659 
L 624.463417 315.889344 
L 623.770796 314.75503 
L 623.029823 313.620716 
L 622.248817 312.486401 
L 621.439197 311.352087 
L 620.615294 310.217772 
L 619.793926 309.083458 
L 618.993753 307.949143 
L 618.23444 306.814829 
L 617.535682 305.680514 
L 616.916162 304.5462 
L 616.39252 303.411886 
L 615.978405 302.277571 
L 615.683688 301.143257 
L 615.5139 300.008942 
L 615.46992 298.874628 
L 615.547955 297.740313 
L 615.739776 296.605999 
L 616.033209 295.471684 
L 616.412821 294.33737 
L 616.86074 293.203056 
L 617.357541 292.068741 
L 617.883148 290.934427 
L 618.41766 289.800112 
L 618.942082 288.665798 
L 619.438902 287.531483 
L 619.89251 286.397169 
L 620.289453 285.262855 
L 620.618537 284.12854 
L 620.870805 282.994226 
L 621.039425 281.859911 
L 621.11953 280.725597 
L 621.108046 279.591282 
L 621.003538 278.456968 
L 620.806118 277.322653 
L 620.517411 276.188339 
L 620.140601 275.054025 
L 619.680533 273.91971 
L 619.143873 272.785396 
L 618.539269 271.651081 
L 617.877508 270.516767 
L 617.171593 269.382452 
L 616.43674 268.248138 
L 615.690221 267.113823 
L 614.951062 265.979509 
L 614.239572 264.845195 
L 613.576704 263.71088 
L 612.983302 262.576566 
L 612.479233 261.442251 
L 612.082512 260.307937 
L 611.808441 259.173622 
L 611.668864 258.039308 
L 611.671574 256.904994 
L 611.819946 255.770679 
L 612.112804 254.636365 
L 612.54455 253.50205 
L 613.10553 252.367736 
L 613.782609 251.233421 
L 614.559897 250.099107 
L 615.419571 248.964792 
L 616.342722 247.830478 
L 617.31018 246.696164 
L 618.303244 245.561849 
L 619.304303 244.427535 
L 620.297313 243.29322 
L 621.268127 242.158906 
L 622.204684 241.024591 
L 623.097083 239.890277 
L 623.937548 238.755963 
L 624.72032 237.621648 
L 625.441499 236.487334 
L 626.098856 235.353019 
L 626.691628 234.218705 
L 627.220314 233.08439 
L 627.686477 231.950076 
L 628.092564 230.815761 
L 628.441727 229.681447 
L 628.73768 228.547133 
L 628.984555 227.412818 
L 629.186782 226.278504 
L 629.348983 225.144189 
L 629.475877 224.009875 
L 629.572195 222.87556 
L 629.642606 221.741246 
L 629.691647 220.606931 
L 629.723658 219.472617 
L 629.742719 218.338303 
L 629.752596 217.203988 
L 629.756676 216.069674 
L 629.757927 214.935359 
L 629.758849 213.801045 
L 629.761452 212.66673 
L 629.767235 211.532416 
L 630.729129 211.532416 
L 630.729129 211.532416 
L 630.734912 212.66673 
L 630.737514 213.801045 
L 630.738437 214.935359 
L 630.739688 216.069674 
L 630.743768 217.203988 
L 630.753644 218.338303 
L 630.772706 219.472617 
L 630.804717 220.606931 
L 630.853757 221.741246 
L 630.924168 222.87556 
L 631.020486 224.009875 
L 631.14738 225.144189 
L 631.309581 226.278504 
L 631.511809 227.412818 
L 631.758684 228.547133 
L 632.054637 229.681447 
L 632.4038 230.815761 
L 632.809886 231.950076 
L 633.27605 233.08439 
L 633.804735 234.218705 
L 634.397507 235.353019 
L 635.054865 236.487334 
L 635.776044 237.621648 
L 636.558816 238.755963 
L 637.399281 239.890277 
L 638.29168 241.024591 
L 639.228237 242.158906 
L 640.19905 243.29322 
L 641.19206 244.427535 
L 642.19312 245.561849 
L 643.186184 246.696164 
L 644.153642 247.830478 
L 645.076793 248.964792 
L 645.936466 250.099107 
L 646.713754 251.233421 
L 647.390834 252.367736 
L 647.951814 253.50205 
L 648.38356 254.636365 
L 648.676418 255.770679 
L 648.82479 256.904994 
L 648.8275 258.039308 
L 648.687923 259.173622 
L 648.413852 260.307937 
L 648.017131 261.442251 
L 647.513062 262.576566 
L 646.919659 263.71088 
L 646.256792 264.845195 
L 645.545301 265.979509 
L 644.806142 267.113823 
L 644.059623 268.248138 
L 643.32477 269.382452 
L 642.618856 270.516767 
L 641.957094 271.651081 
L 641.352491 272.785396 
L 640.81583 273.91971 
L 640.355763 275.054025 
L 639.978953 276.188339 
L 639.690246 277.322653 
L 639.492826 278.456968 
L 639.388318 279.591282 
L 639.376833 280.725597 
L 639.456939 281.859911 
L 639.625559 282.994226 
L 639.877827 284.12854 
L 640.206911 285.262855 
L 640.603854 286.397169 
L 641.057462 287.531483 
L 641.554282 288.665798 
L 642.078703 289.800112 
L 642.613216 290.934427 
L 643.138823 292.068741 
L 643.635624 293.203056 
L 644.083542 294.33737 
L 644.463155 295.471684 
L 644.756588 296.605999 
L 644.948409 297.740313 
L 645.026443 298.874628 
L 644.982464 300.008942 
L 644.812675 301.143257 
L 644.517959 302.277571 
L 644.103843 303.411886 
L 643.580202 304.5462 
L 642.960682 305.680514 
L 642.261924 306.814829 
L 641.50261 307.949143 
L 640.702438 309.083458 
L 639.88107 310.217772 
L 639.057167 311.352087 
L 638.247547 312.486401 
L 637.466541 313.620716 
L 636.725568 314.75503 
L 636.032947 315.889344 
L 635.393928 317.023659 
L 634.810926 318.157973 
L 634.283902 319.292288 
L 633.810847 320.426602 
L 633.388314 321.560917 
L 633.011948 322.695231 
L 632.676969 323.829545 
z
" clip-path="url(#pe6b3aca10d)" style="fill: #1f77b4; fill-opacity: 0.3"/>
   </g>
   <g id="PolyCollection_9">
    <path d="M 710.304233 317.181555 
L 698.826676 317.181555 
L 698.007003 316.023647 
L 697.134801 314.865739 
L 696.218804 313.707831 
L 695.269983 312.549923 
L 694.301418 311.392014 
L 693.328063 310.234106 
L 692.366405 309.076198 
L 691.43402 307.91829 
L 690.549031 306.760382 
L 689.729508 305.602474 
L 688.992809 304.444565 
L 688.3549 303.286657 
L 687.829686 302.128749 
L 687.428383 300.970841 
L 687.158959 299.812933 
L 687.025687 298.655025 
L 687.028828 297.497116 
L 687.164469 296.339208 
L 687.424544 295.1813 
L 687.797034 294.023392 
L 688.266349 292.865484 
L 688.81388 291.707575 
L 689.418695 290.549667 
L 690.058346 289.391759 
L 690.709731 288.233851 
L 691.34998 287.075943 
L 691.957294 285.918035 
L 692.511704 284.760126 
L 692.995693 283.602218 
L 693.394677 282.44431 
L 693.697301 281.286402 
L 693.895581 280.128494 
L 693.984886 278.970585 
L 693.963805 277.812677 
L 693.833926 276.654769 
L 693.599571 275.496861 
L 693.26751 274.338953 
L 692.846708 273.181045 
L 692.348083 272.023136 
L 691.784314 270.865228 
L 691.169661 269.70732 
L 690.519801 268.549412 
L 689.851636 267.391504 
L 689.183057 266.233595 
L 688.532645 265.075687 
L 687.919289 263.917779 
L 687.361727 262.759871 
L 686.878012 261.601963 
L 686.484934 260.444055 
L 686.197423 259.286146 
L 686.027976 258.128238 
L 685.986136 256.97033 
L 686.078074 255.812422 
L 686.30629 254.654514 
L 686.669469 253.496606 
L 687.162494 252.338697 
L 687.776621 251.180789 
L 688.499814 250.022881 
L 689.317213 248.864973 
L 690.21172 247.707065 
L 691.164673 246.549156 
L 692.156559 245.391248 
L 693.167754 244.23334 
L 694.17923 243.075432 
L 695.173212 241.917524 
L 696.133739 240.759616 
L 697.047117 239.601707 
L 697.90224 238.443799 
L 698.690761 237.285891 
L 699.407133 236.127983 
L 700.048506 234.970075 
L 700.614516 233.812166 
L 701.106974 232.654258 
L 701.529493 231.49635 
L 701.887076 230.338442 
L 702.185701 229.180534 
L 702.43192 228.022626 
L 702.632502 226.864717 
L 702.794124 225.706809 
L 702.923138 224.548901 
L 703.025394 223.390993 
L 703.106133 222.233085 
L 703.16994 221.075176 
L 703.220739 219.917268 
L 703.261828 218.75936 
L 703.295941 217.601452 
L 703.325322 216.443544 
L 703.351804 215.285636 
L 703.37688 214.127727 
L 703.401775 212.969819 
L 703.427496 211.811911 
L 703.454873 210.654003 
L 703.484582 209.496095 
L 703.51716 208.338187 
L 703.553007 207.180278 
L 703.592377 206.02237 
L 703.635377 204.864462 
L 703.681952 203.706554 
L 703.731885 202.548646 
L 705.399024 202.548646 
L 705.399024 202.548646 
L 705.448957 203.706554 
L 705.495532 204.864462 
L 705.538532 206.02237 
L 705.577902 207.180278 
L 705.613749 208.338187 
L 705.646327 209.496095 
L 705.676036 210.654003 
L 705.703413 211.811911 
L 705.729134 212.969819 
L 705.754029 214.127727 
L 705.779105 215.285636 
L 705.805587 216.443544 
L 705.834968 217.601452 
L 705.869082 218.75936 
L 705.91017 219.917268 
L 705.960969 221.075176 
L 706.024776 222.233085 
L 706.105515 223.390993 
L 706.207771 224.548901 
L 706.336785 225.706809 
L 706.498407 226.864717 
L 706.698989 228.022626 
L 706.945208 229.180534 
L 707.243833 230.338442 
L 707.601416 231.49635 
L 708.023935 232.654258 
L 708.516393 233.812166 
L 709.082403 234.970075 
L 709.723776 236.127983 
L 710.440148 237.285891 
L 711.228669 238.443799 
L 712.083792 239.601707 
L 712.997171 240.759616 
L 713.957697 241.917524 
L 714.951679 243.075432 
L 715.963156 244.23334 
L 716.97435 245.391248 
L 717.966236 246.549156 
L 718.919189 247.707065 
L 719.813696 248.864973 
L 720.631095 250.022881 
L 721.354288 251.180789 
L 721.968415 252.338697 
L 722.46144 253.496606 
L 722.824619 254.654514 
L 723.052835 255.812422 
L 723.144773 256.97033 
L 723.102933 258.128238 
L 722.933486 259.286146 
L 722.645975 260.444055 
L 722.252897 261.601963 
L 721.769182 262.759871 
L 721.21162 263.917779 
L 720.598264 265.075687 
L 719.947852 266.233595 
L 719.279273 267.391504 
L 718.611108 268.549412 
L 717.961248 269.70732 
L 717.346596 270.865228 
L 716.782826 272.023136 
L 716.284201 273.181045 
L 715.863399 274.338953 
L 715.531339 275.496861 
L 715.296983 276.654769 
L 715.167104 277.812677 
L 715.146023 278.970585 
L 715.235328 280.128494 
L 715.433608 281.286402 
L 715.736232 282.44431 
L 716.135216 283.602218 
L 716.619205 284.760126 
L 717.173615 285.918035 
L 717.780929 287.075943 
L 718.421178 288.233851 
L 719.072563 289.391759 
L 719.712214 290.549667 
L 720.317029 291.707575 
L 720.86456 292.865484 
L 721.333875 294.023392 
L 721.706365 295.1813 
L 721.966441 296.339208 
L 722.102082 297.497116 
L 722.105222 298.655025 
L 721.97195 299.812933 
L 721.702526 300.970841 
L 721.301223 302.128749 
L 720.776009 303.286657 
L 720.1381 304.444565 
L 719.401401 305.602474 
L 718.581878 306.760382 
L 717.69689 307.91829 
L 716.764504 309.076198 
L 715.802846 310.234106 
L 714.829492 311.392014 
L 713.860926 312.549923 
L 712.912105 313.707831 
L 711.996108 314.865739 
L 711.123906 316.023647 
L 710.304233 317.181555 
z
" clip-path="url(#pe6b3aca10d)" style="fill: #1f77b4; fill-opacity: 0.3"/>
   </g>
   <g id="PolyCollection_10">
    <path d="M 791.500484 309.994539 
L 766.26497 309.994539 
L 765.573526 309.357508 
L 764.899429 308.720477 
L 764.249037 308.083446 
L 763.62874 307.446415 
L 763.044854 306.809384 
L 762.503522 306.172353 
L 762.010605 305.535322 
L 761.571577 304.898291 
L 761.191427 304.26126 
L 760.874562 303.624229 
L 760.624727 302.987198 
L 760.444926 302.350167 
L 760.337366 301.713136 
L 760.303409 301.076105 
L 760.343544 300.439074 
L 760.457375 299.802043 
L 760.643626 299.165012 
L 760.900164 298.527981 
L 761.224036 297.89095 
L 761.611529 297.253919 
L 762.058234 296.616888 
L 762.559129 295.979857 
L 763.108674 295.342826 
L 763.700905 294.705795 
L 764.329539 294.068764 
L 764.988086 293.431733 
L 765.669949 292.794702 
L 766.368531 292.157671 
L 767.07733 291.52064 
L 767.790037 290.883609 
L 768.500607 290.246578 
L 769.203341 289.609547 
L 769.892937 288.972516 
L 770.564538 288.335485 
L 771.213768 287.698454 
L 771.836749 287.061423 
L 772.430111 286.424393 
L 772.990986 285.787362 
L 773.516997 285.150331 
L 774.006228 284.5133 
L 774.457198 283.876269 
L 774.868818 283.239238 
L 775.240352 282.602207 
L 775.571368 281.965176 
L 775.861693 281.328145 
L 776.111367 280.691114 
L 776.320597 280.054083 
L 776.489716 279.417052 
L 776.619149 278.780021 
L 776.70938 278.14299 
L 776.760927 277.505959 
L 776.774325 276.868928 
L 776.750116 276.231897 
L 776.688846 275.594866 
L 776.591066 274.957835 
L 776.457344 274.320804 
L 776.288283 273.683773 
L 776.084538 273.046742 
L 775.846847 272.409711 
L 775.57606 271.77268 
L 775.273167 271.135649 
L 774.939333 270.498618 
L 774.575932 269.861587 
L 774.184575 269.224556 
L 773.767137 268.587525 
L 773.325781 267.950494 
L 772.862978 267.313463 
L 772.381514 266.676432 
L 771.884496 266.039401 
L 771.375346 265.40237 
L 770.857791 264.765339 
L 770.335833 264.128308 
L 769.813729 263.491277 
L 769.295941 262.854246 
L 768.787093 262.217215 
L 768.291914 261.580184 
L 767.815174 260.943153 
L 767.361622 260.306122 
L 766.935911 259.669091 
L 766.542523 259.03206 
L 766.185704 258.395029 
L 765.869383 257.757998 
L 765.597111 257.120967 
L 765.371992 256.483936 
L 765.196632 255.846905 
L 765.073087 255.209874 
L 765.002824 254.572843 
L 764.986698 253.935812 
L 765.02493 253.298781 
L 765.117107 252.66175 
L 765.262188 252.024719 
L 765.458522 251.387688 
L 765.703884 250.750657 
L 765.995512 250.113626 
L 766.330163 249.476595 
L 766.704168 248.839564 
L 767.113505 248.202533 
L 767.553864 247.565502 
L 768.020727 246.928471 
L 789.744727 246.928471 
L 789.744727 246.928471 
L 790.21159 247.565502 
L 790.65195 248.202533 
L 791.061286 248.839564 
L 791.435292 249.476595 
L 791.769942 250.113626 
L 792.061571 250.750657 
L 792.306932 251.387688 
L 792.503267 252.024719 
L 792.648347 252.66175 
L 792.740524 253.298781 
L 792.778757 253.935812 
L 792.76263 254.572843 
L 792.692368 255.209874 
L 792.568822 255.846905 
L 792.393462 256.483936 
L 792.168344 257.120967 
L 791.896071 257.757998 
L 791.579751 258.395029 
L 791.222931 259.03206 
L 790.829544 259.669091 
L 790.403832 260.306122 
L 789.95028 260.943153 
L 789.473541 261.580184 
L 788.978361 262.217215 
L 788.469513 262.854246 
L 787.951725 263.491277 
L 787.429621 264.128308 
L 786.907664 264.765339 
L 786.390108 265.40237 
L 785.880958 266.039401 
L 785.38394 266.676432 
L 784.902476 267.313463 
L 784.439673 267.950494 
L 783.998318 268.587525 
L 783.58088 269.224556 
L 783.189522 269.861587 
L 782.826122 270.498618 
L 782.492288 271.135649 
L 782.189395 271.77268 
L 781.918607 272.409711 
L 781.680917 273.046742 
L 781.477172 273.683773 
L 781.30811 274.320804 
L 781.174388 274.957835 
L 781.076608 275.594866 
L 781.015338 276.231897 
L 780.99113 276.868928 
L 781.004528 277.505959 
L 781.056074 278.14299 
L 781.146305 278.780021 
L 781.275738 279.417052 
L 781.444858 280.054083 
L 781.654087 280.691114 
L 781.903762 281.328145 
L 782.194087 281.965176 
L 782.525103 282.602207 
L 782.896637 283.239238 
L 783.308257 283.876269 
L 783.759227 284.5133 
L 784.248458 285.150331 
L 784.774468 285.787362 
L 785.335344 286.424393 
L 785.928706 287.061423 
L 786.551687 287.698454 
L 787.200917 288.335485 
L 787.872518 288.972516 
L 788.562113 289.609547 
L 789.264847 290.246578 
L 789.975418 290.883609 
L 790.688124 291.52064 
L 791.396924 292.157671 
L 792.095505 292.794702 
L 792.777368 293.431733 
L 793.435915 294.068764 
L 794.06455 294.705795 
L 794.65678 295.342826 
L 795.206325 295.979857 
L 795.707221 296.616888 
L 796.153926 297.253919 
L 796.541418 297.89095 
L 796.865291 298.527981 
L 797.121828 299.165012 
L 797.308079 299.802043 
L 797.42191 300.439074 
L 797.462045 301.076105 
L 797.428088 301.713136 
L 797.320528 302.350167 
L 797.140728 302.987198 
L 796.890893 303.624229 
L 796.574028 304.26126 
L 796.193878 304.898291 
L 795.75485 305.535322 
L 795.261932 306.172353 
L 794.720601 306.809384 
L 794.136715 307.446415 
L 793.516417 308.083446 
L 792.866026 308.720477 
L 792.191929 309.357508 
L 791.500484 309.994539 
z
" clip-path="url(#pe6b3aca10d)" style="fill: #1f77b4; fill-opacity: 0.3"/>
   </g>
   <g id="matplotlib.axis_1">
    <g id="xtick_1">
     <g id="line2d_1">
      <defs>
       <path id="m0cc78e800c" d="M 0 0 
L 0 3.5 
" style="stroke: #000000; stroke-width: 0.8"/>
      </defs>
      <g>
       <use xlink:href="#m0cc78e800c" x="110.027273" y="337.97" style="stroke: #000000; stroke-width: 0.8"/>
      </g>
     </g>
     <g id="text_1">
      <!-- Grudger -->
      <g transform="translate(112.234773 377.89625)rotate(-90)scale(0.08 -0.08)">
       <defs>
        <path id="DejaVuSans-47" d="M 3809 666 
L 3809 1919 
L 2778 1919 
L 2778 2438 
L 4434 2438 
L 4434 434 
Q 4069 175 3628 42 
Q 3188 -91 2688 -91 
Q 1594 -91 976 548 
Q 359 1188 359 2328 
Q 359 3472 976 4111 
Q 1594 4750 2688 4750 
Q 3144 4750 3555 4637 
Q 3966 4525 4313 4306 
L 4313 3634 
Q 3963 3931 3569 4081 
Q 3175 4231 2741 4231 
Q 1884 4231 1454 3753 
Q 1025 3275 1025 2328 
Q 1025 1384 1454 906 
Q 1884 428 2741 428 
Q 3075 428 3337 486 
Q 3600 544 3809 666 
z
" transform="scale(0.015625)"/>
        <path id="DejaVuSans-72" d="M 2631 2963 
Q 2534 3019 2420 3045 
Q 2306 3072 2169 3072 
Q 1681 3072 1420 2755 
Q 1159 2438 1159 1844 
L 1159 0 
L 581 0 
L 581 3500 
L 1159 3500 
L 1159 2956 
Q 1341 3275 1631 3429 
Q 1922 3584 2338 3584 
Q 2397 3584 2469 3576 
Q 2541 3569 2628 3553 
L 2631 2963 
z
" transform="scale(0.015625)"/>
        <path id="DejaVuSans-75" d="M 544 1381 
L 544 3500 
L 1119 3500 
L 1119 1403 
Q 1119 906 1312 657 
Q 1506 409 1894 409 
Q 2359 409 2629 706 
Q 2900 1003 2900 1516 
L 2900 3500 
L 3475 3500 
L 3475 0 
L 2900 0 
L 2900 538 
Q 2691 219 2414 64 
Q 2138 -91 1772 -91 
Q 1169 -91 856 284 
Q 544 659 544 1381 
z
M 1991 3584 
L 1991 3584 
z
" transform="scale(0.015625)"/>
        <path id="DejaVuSans-64" d="M 2906 2969 
L 2906 4863 
L 3481 4863 
L 3481 0 
L 2906 0 
L 2906 525 
Q 2725 213 2448 61 
Q 2172 -91 1784 -91 
Q 1150 -91 751 415 
Q 353 922 353 1747 
Q 353 2572 751 3078 
Q 1150 3584 1784 3584 
Q 2172 3584 2448 3432 
Q 2725 3281 2906 2969 
z
M 947 1747 
Q 947 1113 1208 752 
Q 1469 391 1925 391 
Q 2381 391 2643 752 
Q 2906 1113 2906 1747 
Q 2906 2381 2643 2742 
Q 2381 3103 1925 3103 
Q 1469 3103 1208 2742 
Q 947 2381 947 1747 
z
" transform="scale(0.015625)"/>
        <path id="DejaVuSans-67" d="M 2906 1791 
Q 2906 2416 2648 2759 
Q 2391 3103 1925 3103 
Q 1463 3103 1205 2759 
Q 947 2416 947 1791 
Q 947 1169 1205 825 
Q 1463 481 1925 481 
Q 2391 481 2648 825 
Q 2906 1169 2906 1791 
z
M 3481 434 
Q 3481 -459 3084 -895 
Q 2688 -1331 1869 -1331 
Q 1566 -1331 1297 -1286 
Q 1028 -1241 775 -1147 
L 775 -588 
Q 1028 -725 1275 -790 
Q 1522 -856 1778 -856 
Q 2344 -856 2625 -561 
Q 2906 -266 2906 331 
L 2906 616 
Q 2728 306 2450 153 
Q 2172 0 1784 0 
Q 1141 0 747 490 
Q 353 981 353 1791 
Q 353 2603 747 3093 
Q 1141 3584 1784 3584 
Q 2172 3584 2450 3431 
Q 2728 3278 2906 2969 
L 2906 3500 
L 3481 3500 
L 3481 434 
z
" transform="scale(0.015625)"/>
        <path id="DejaVuSans-65" d="M 3597 1894 
L 3597 1613 
L 953 1613 
Q 991 1019 1311 708 
Q 1631 397 2203 397 
Q 2534 397 2845 478 
Q 3156 559 3463 722 
L 3463 178 
Q 3153 47 2828 -22 
Q 2503 -91 2169 -91 
Q 1331 -91 842 396 
Q 353 884 353 1716 
Q 353 2575 817 3079 
Q 1281 3584 2069 3584 
Q 2775 3584 3186 3129 
Q 3597 2675 3597 1894 
z
M 3022 2063 
Q 3016 2534 2758 2815 
Q 2500 3097 2075 3097 
Q 1594 3097 1305 2825 
Q 1016 2553 972 2059 
L 3022 2063 
z
" transform="scale(0.015625)"/>
       </defs>
       <use xlink:href="#DejaVuSans-47"/>
       <use xlink:href="#DejaVuSans-72" x="77.490234"/>
       <use xlink:href="#DejaVuSans-75" x="118.603516"/>
       <use xlink:href="#DejaVuSans-64" x="181.982422"/>
       <use xlink:href="#DejaVuSans-67" x="245.458984"/>
       <use xlink:href="#DejaVuSans-65" x="308.935547"/>
       <use xlink:href="#DejaVuSans-72" x="370.458984"/>
      </g>
     </g>
    </g>
    <g id="xtick_2">
     <g id="line2d_2">
      <g>
       <use xlink:href="#m0cc78e800c" x="184.344545" y="337.97" style="stroke: #000000; stroke-width: 0.8"/>
      </g>
     </g>
     <g id="text_2">
      <!-- Adaptive -->
      <g transform="translate(186.552045 380.37875)rotate(-90)scale(0.08 -0.08)">
       <defs>
        <path id="DejaVuSans-41" d="M 2188 4044 
L 1331 1722 
L 3047 1722 
L 2188 4044 
z
M 1831 4666 
L 2547 4666 
L 4325 0 
L 3669 0 
L 3244 1197 
L 1141 1197 
L 716 0 
L 50 0 
L 1831 4666 
z
" transform="scale(0.015625)"/>
        <path id="DejaVuSans-61" d="M 2194 1759 
Q 1497 1759 1228 1600 
Q 959 1441 959 1056 
Q 959 750 1161 570 
Q 1363 391 1709 391 
Q 2188 391 2477 730 
Q 2766 1069 2766 1631 
L 2766 1759 
L 2194 1759 
z
M 3341 1997 
L 3341 0 
L 2766 0 
L 2766 531 
Q 2569 213 2275 61 
Q 1981 -91 1556 -91 
Q 1019 -91 701 211 
Q 384 513 384 1019 
Q 384 1609 779 1909 
Q 1175 2209 1959 2209 
L 2766 2209 
L 2766 2266 
Q 2766 2663 2505 2880 
Q 2244 3097 1772 3097 
Q 1472 3097 1187 3025 
Q 903 2953 641 2809 
L 641 3341 
Q 956 3463 1253 3523 
Q 1550 3584 1831 3584 
Q 2591 3584 2966 3190 
Q 3341 2797 3341 1997 
z
" transform="scale(0.015625)"/>
        <path id="DejaVuSans-70" d="M 1159 525 
L 1159 -1331 
L 581 -1331 
L 581 3500 
L 1159 3500 
L 1159 2969 
Q 1341 3281 1617 3432 
Q 1894 3584 2278 3584 
Q 2916 3584 3314 3078 
Q 3713 2572 3713 1747 
Q 3713 922 3314 415 
Q 2916 -91 2278 -91 
Q 1894 -91 1617 61 
Q 1341 213 1159 525 
z
M 3116 1747 
Q 3116 2381 2855 2742 
Q 2594 3103 2138 3103 
Q 1681 3103 1420 2742 
Q 1159 2381 1159 1747 
Q 1159 1113 1420 752 
Q 1681 391 2138 391 
Q 2594 391 2855 752 
Q 3116 1113 3116 1747 
z
" transform="scale(0.015625)"/>
        <path id="DejaVuSans-74" d="M 1172 4494 
L 1172 3500 
L 2356 3500 
L 2356 3053 
L 1172 3053 
L 1172 1153 
Q 1172 725 1289 603 
Q 1406 481 1766 481 
L 2356 481 
L 2356 0 
L 1766 0 
Q 1100 0 847 248 
Q 594 497 594 1153 
L 594 3053 
L 172 3053 
L 172 3500 
L 594 3500 
L 594 4494 
L 1172 4494 
z
" transform="scale(0.015625)"/>
        <path id="DejaVuSans-69" d="M 603 3500 
L 1178 3500 
L 1178 0 
L 603 0 
L 603 3500 
z
M 603 4863 
L 1178 4863 
L 1178 4134 
L 603 4134 
L 603 4863 
z
" transform="scale(0.015625)"/>
        <path id="DejaVuSans-76" d="M 191 3500 
L 800 3500 
L 1894 563 
L 2988 3500 
L 3597 3500 
L 2284 0 
L 1503 0 
L 191 3500 
z
" transform="scale(0.015625)"/>
       </defs>
       <use xlink:href="#DejaVuSans-41"/>
       <use xlink:href="#DejaVuSans-64" x="66.658203"/>
       <use xlink:href="#DejaVuSans-61" x="130.134766"/>
       <use xlink:href="#DejaVuSans-70" x="191.414062"/>
       <use xlink:href="#DejaVuSans-74" x="254.890625"/>
       <use xlink:href="#DejaVuSans-69" x="294.099609"/>
       <use xlink:href="#DejaVuSans-76" x="321.882812"/>
       <use xlink:href="#DejaVuSans-65" x="381.0625"/>
      </g>
     </g>
    </g>
    <g id="xtick_3">
     <g id="line2d_3">
      <g>
       <use xlink:href="#m0cc78e800c" x="258.661818" y="337.97" style="stroke: #000000; stroke-width: 0.8"/>
      </g>
     </g>
     <g id="text_3">
      <!-- Tit For Tat -->
      <g transform="translate(260.869318 384.15)rotate(-90)scale(0.08 -0.08)">
       <defs>
        <path id="DejaVuSans-54" d="M -19 4666 
L 3928 4666 
L 3928 4134 
L 2272 4134 
L 2272 0 
L 1638 0 
L 1638 4134 
L -19 4134 
L -19 4666 
z
" transform="scale(0.015625)"/>
        <path id="DejaVuSans-20" transform="scale(0.015625)"/>
        <path id="DejaVuSans-46" d="M 628 4666 
L 3309 4666 
L 3309 4134 
L 1259 4134 
L 1259 2759 
L 3109 2759 
L 3109 2228 
L 1259 2228 
L 1259 0 
L 628 0 
L 628 4666 
z
" transform="scale(0.015625)"/>
        <path id="DejaVuSans-6f" d="M 1959 3097 
Q 1497 3097 1228 2736 
Q 959 2375 959 1747 
Q 959 1119 1226 758 
Q 1494 397 1959 397 
Q 2419 397 2687 759 
Q 2956 1122 2956 1747 
Q 2956 2369 2687 2733 
Q 2419 3097 1959 3097 
z
M 1959 3584 
Q 2709 3584 3137 3096 
Q 3566 2609 3566 1747 
Q 3566 888 3137 398 
Q 2709 -91 1959 -91 
Q 1206 -91 779 398 
Q 353 888 353 1747 
Q 353 2609 779 3096 
Q 1206 3584 1959 3584 
z
" transform="scale(0.015625)"/>
       </defs>
       <use xlink:href="#DejaVuSans-54"/>
       <use xlink:href="#DejaVuSans-69" x="57.958984"/>
       <use xlink:href="#DejaVuSans-74" x="85.742188"/>
       <use xlink:href="#DejaVuSans-20" x="124.951172"/>
       <use xlink:href="#DejaVuSans-46" x="156.738281"/>
       <use xlink:href="#DejaVuSans-6f" x="210.632812"/>
       <use xlink:href="#DejaVuSans-72" x="271.814453"/>
       <use xlink:href="#DejaVuSans-20" x="312.927734"/>
       <use xlink:href="#DejaVuSans-54" x="344.714844"/>
       <use xlink:href="#DejaVuSans-61" x="389.298828"/>
       <use xlink:href="#DejaVuSans-74" x="450.578125"/>
      </g>
     </g>
    </g>
    <g id="xtick_4">
     <g id="line2d_4">
      <g>
       <use xlink:href="#m0cc78e800c" x="332.979091" y="337.97" style="stroke: #000000; stroke-width: 0.8"/>
      </g>
     </g>
     <g id="text_4">
      <!-- Random: 0.5 -->
      <g transform="translate(335.186591 396.0475)rotate(-90)scale(0.08 -0.08)">
       <defs>
        <path id="DejaVuSans-52" d="M 2841 2188 
Q 3044 2119 3236 1894 
Q 3428 1669 3622 1275 
L 4263 0 
L 3584 0 
L 2988 1197 
Q 2756 1666 2539 1819 
Q 2322 1972 1947 1972 
L 1259 1972 
L 1259 0 
L 628 0 
L 628 4666 
L 2053 4666 
Q 2853 4666 3247 4331 
Q 3641 3997 3641 3322 
Q 3641 2881 3436 2590 
Q 3231 2300 2841 2188 
z
M 1259 4147 
L 1259 2491 
L 2053 2491 
Q 2509 2491 2742 2702 
Q 2975 2913 2975 3322 
Q 2975 3731 2742 3939 
Q 2509 4147 2053 4147 
L 1259 4147 
z
" transform="scale(0.015625)"/>
        <path id="DejaVuSans-6e" d="M 3513 2113 
L 3513 0 
L 2938 0 
L 2938 2094 
Q 2938 2591 2744 2837 
Q 2550 3084 2163 3084 
Q 1697 3084 1428 2787 
Q 1159 2491 1159 1978 
L 1159 0 
L 581 0 
L 581 3500 
L 1159 3500 
L 1159 2956 
Q 1366 3272 1645 3428 
Q 1925 3584 2291 3584 
Q 2894 3584 3203 3211 
Q 3513 2838 3513 2113 
z
" transform="scale(0.015625)"/>
        <path id="DejaVuSans-6d" d="M 3328 2828 
Q 3544 3216 3844 3400 
Q 4144 3584 4550 3584 
Q 5097 3584 5394 3201 
Q 5691 2819 5691 2113 
L 5691 0 
L 5113 0 
L 5113 2094 
Q 5113 2597 4934 2840 
Q 4756 3084 4391 3084 
Q 3944 3084 3684 2787 
Q 3425 2491 3425 1978 
L 3425 0 
L 2847 0 
L 2847 2094 
Q 2847 2600 2669 2842 
Q 2491 3084 2119 3084 
Q 1678 3084 1418 2786 
Q 1159 2488 1159 1978 
L 1159 0 
L 581 0 
L 581 3500 
L 1159 3500 
L 1159 2956 
Q 1356 3278 1631 3431 
Q 1906 3584 2284 3584 
Q 2666 3584 2933 3390 
Q 3200 3197 3328 2828 
z
" transform="scale(0.015625)"/>
        <path id="DejaVuSans-3a" d="M 750 794 
L 1409 794 
L 1409 0 
L 750 0 
L 750 794 
z
M 750 3309 
L 1409 3309 
L 1409 2516 
L 750 2516 
L 750 3309 
z
" transform="scale(0.015625)"/>
        <path id="DejaVuSans-30" d="M 2034 4250 
Q 1547 4250 1301 3770 
Q 1056 3291 1056 2328 
Q 1056 1369 1301 889 
Q 1547 409 2034 409 
Q 2525 409 2770 889 
Q 3016 1369 3016 2328 
Q 3016 3291 2770 3770 
Q 2525 4250 2034 4250 
z
M 2034 4750 
Q 2819 4750 3233 4129 
Q 3647 3509 3647 2328 
Q 3647 1150 3233 529 
Q 2819 -91 2034 -91 
Q 1250 -91 836 529 
Q 422 1150 422 2328 
Q 422 3509 836 4129 
Q 1250 4750 2034 4750 
z
" transform="scale(0.015625)"/>
        <path id="DejaVuSans-2e" d="M 684 794 
L 1344 794 
L 1344 0 
L 684 0 
L 684 794 
z
" transform="scale(0.015625)"/>
        <path id="DejaVuSans-35" d="M 691 4666 
L 3169 4666 
L 3169 4134 
L 1269 4134 
L 1269 2991 
Q 1406 3038 1543 3061 
Q 1681 3084 1819 3084 
Q 2600 3084 3056 2656 
Q 3513 2228 3513 1497 
Q 3513 744 3044 326 
Q 2575 -91 1722 -91 
Q 1428 -91 1123 -41 
Q 819 9 494 109 
L 494 744 
Q 775 591 1075 516 
Q 1375 441 1709 441 
Q 2250 441 2565 725 
Q 2881 1009 2881 1497 
Q 2881 1984 2565 2268 
Q 2250 2553 1709 2553 
Q 1456 2553 1204 2497 
Q 953 2441 691 2322 
L 691 4666 
z
" transform="scale(0.015625)"/>
       </defs>
       <use xlink:href="#DejaVuSans-52"/>
       <use xlink:href="#DejaVuSans-61" x="67.232422"/>
       <use xlink:href="#DejaVuSans-6e" x="128.511719"/>
       <use xlink:href="#DejaVuSans-64" x="191.890625"/>
       <use xlink:href="#DejaVuSans-6f" x="255.367188"/>
       <use xlink:href="#DejaVuSans-6d" x="316.548828"/>
       <use xlink:href="#DejaVuSans-3a" x="413.960938"/>
       <use xlink:href="#DejaVuSans-20" x="447.652344"/>
       <use xlink:href="#DejaVuSans-30" x="479.439453"/>
       <use xlink:href="#DejaVuSans-2e" x="543.0625"/>
       <use xlink:href="#DejaVuSans-35" x="574.849609"/>
      </g>
     </g>
    </g>
    <g id="xtick_5">
     <g id="line2d_5">
      <g>
       <use xlink:href="#m0cc78e800c" x="407.296364" y="337.97" style="stroke: #000000; stroke-width: 0.8"/>
      </g>
     </g>
     <g id="text_5">
      <!-- Defector -->
      <g transform="translate(409.503864 379.51)rotate(-90)scale(0.08 -0.08)">
       <defs>
        <path id="DejaVuSans-44" d="M 1259 4147 
L 1259 519 
L 2022 519 
Q 2988 519 3436 956 
Q 3884 1394 3884 2338 
Q 3884 3275 3436 3711 
Q 2988 4147 2022 4147 
L 1259 4147 
z
M 628 4666 
L 1925 4666 
Q 3281 4666 3915 4102 
Q 4550 3538 4550 2338 
Q 4550 1131 3912 565 
Q 3275 0 1925 0 
L 628 0 
L 628 4666 
z
" transform="scale(0.015625)"/>
        <path id="DejaVuSans-66" d="M 2375 4863 
L 2375 4384 
L 1825 4384 
Q 1516 4384 1395 4259 
Q 1275 4134 1275 3809 
L 1275 3500 
L 2222 3500 
L 2222 3053 
L 1275 3053 
L 1275 0 
L 697 0 
L 697 3053 
L 147 3053 
L 147 3500 
L 697 3500 
L 697 3744 
Q 697 4328 969 4595 
Q 1241 4863 1831 4863 
L 2375 4863 
z
" transform="scale(0.015625)"/>
        <path id="DejaVuSans-63" d="M 3122 3366 
L 3122 2828 
Q 2878 2963 2633 3030 
Q 2388 3097 2138 3097 
Q 1578 3097 1268 2742 
Q 959 2388 959 1747 
Q 959 1106 1268 751 
Q 1578 397 2138 397 
Q 2388 397 2633 464 
Q 2878 531 3122 666 
L 3122 134 
Q 2881 22 2623 -34 
Q 2366 -91 2075 -91 
Q 1284 -91 818 406 
Q 353 903 353 1747 
Q 353 2603 823 3093 
Q 1294 3584 2113 3584 
Q 2378 3584 2631 3529 
Q 2884 3475 3122 3366 
z
" transform="scale(0.015625)"/>
       </defs>
       <use xlink:href="#DejaVuSans-44"/>
       <use xlink:href="#DejaVuSans-65" x="77.001953"/>
       <use xlink:href="#DejaVuSans-66" x="138.525391"/>
       <use xlink:href="#DejaVuSans-65" x="173.730469"/>
       <use xlink:href="#DejaVuSans-63" x="235.253906"/>
       <use xlink:href="#DejaVuSans-74" x="290.234375"/>
       <use xlink:href="#DejaVuSans-6f" x="329.443359"/>
       <use xlink:href="#DejaVuSans-72" x="390.625"/>
      </g>
     </g>
    </g>
    <g id="xtick_6">
     <g id="line2d_6">
      <g>
       <use xlink:href="#m0cc78e800c" x="481.613636" y="337.97" style="stroke: #000000; stroke-width: 0.8"/>
      </g>
     </g>
     <g id="text_6">
      <!-- Deep QLearner -->
      <g transform="translate(483.821136 405.46625)rotate(-90)scale(0.08 -0.08)">
       <defs>
        <path id="DejaVuSans-51" d="M 2522 4238 
Q 1834 4238 1429 3725 
Q 1025 3213 1025 2328 
Q 1025 1447 1429 934 
Q 1834 422 2522 422 
Q 3209 422 3611 934 
Q 4013 1447 4013 2328 
Q 4013 3213 3611 3725 
Q 3209 4238 2522 4238 
z
M 3406 84 
L 4238 -825 
L 3475 -825 
L 2784 -78 
Q 2681 -84 2626 -87 
Q 2572 -91 2522 -91 
Q 1538 -91 948 567 
Q 359 1225 359 2328 
Q 359 3434 948 4092 
Q 1538 4750 2522 4750 
Q 3503 4750 4090 4092 
Q 4678 3434 4678 2328 
Q 4678 1516 4351 937 
Q 4025 359 3406 84 
z
" transform="scale(0.015625)"/>
        <path id="DejaVuSans-4c" d="M 628 4666 
L 1259 4666 
L 1259 531 
L 3531 531 
L 3531 0 
L 628 0 
L 628 4666 
z
" transform="scale(0.015625)"/>
       </defs>
       <use xlink:href="#DejaVuSans-44"/>
       <use xlink:href="#DejaVuSans-65" x="77.001953"/>
       <use xlink:href="#DejaVuSans-65" x="138.525391"/>
       <use xlink:href="#DejaVuSans-70" x="200.048828"/>
       <use xlink:href="#DejaVuSans-20" x="263.525391"/>
       <use xlink:href="#DejaVuSans-51" x="295.3125"/>
       <use xlink:href="#DejaVuSans-4c" x="374.023438"/>
       <use xlink:href="#DejaVuSans-65" x="427.986328"/>
       <use xlink:href="#DejaVuSans-61" x="489.509766"/>
       <use xlink:href="#DejaVuSans-72" x="550.789062"/>
       <use xlink:href="#DejaVuSans-6e" x="590.152344"/>
       <use xlink:href="#DejaVuSans-65" x="653.53125"/>
       <use xlink:href="#DejaVuSans-72" x="715.054688"/>
      </g>
     </g>
    </g>
    <g id="xtick_7">
     <g id="line2d_7">
      <g>
       <use xlink:href="#m0cc78e800c" x="555.930909" y="337.97" style="stroke: #000000; stroke-width: 0.8"/>
      </g>
     </g>
     <g id="text_7">
      <!-- Alternator -->
      <g transform="translate(558.138409 385.165)rotate(-90)scale(0.08 -0.08)">
       <defs>
        <path id="DejaVuSans-6c" d="M 603 4863 
L 1178 4863 
L 1178 0 
L 603 0 
L 603 4863 
z
" transform="scale(0.015625)"/>
       </defs>
       <use xlink:href="#DejaVuSans-41"/>
       <use xlink:href="#DejaVuSans-6c" x="68.408203"/>
       <use xlink:href="#DejaVuSans-74" x="96.191406"/>
       <use xlink:href="#DejaVuSans-65" x="135.400391"/>
       <use xlink:href="#DejaVuSans-72" x="196.923828"/>
       <use xlink:href="#DejaVuSans-6e" x="236.287109"/>
       <use xlink:href="#DejaVuSans-61" x="299.666016"/>
       <use xlink:href="#DejaVuSans-74" x="360.945312"/>
       <use xlink:href="#DejaVuSans-6f" x="400.154297"/>
       <use xlink:href="#DejaVuSans-72" x="461.335938"/>
      </g>
     </g>
    </g>
    <g id="xtick_8">
     <g id="line2d_8">
      <g>
       <use xlink:href="#m0cc78e800c" x="630.248182" y="337.97" style="stroke: #000000; stroke-width: 0.8"/>
      </g>
     </g>
     <g id="text_8">
      <!-- Risky QLearner -->
      <g transform="translate(632.455682 405.40875)rotate(-90)scale(0.08 -0.08)">
       <defs>
        <path id="DejaVuSans-73" d="M 2834 3397 
L 2834 2853 
Q 2591 2978 2328 3040 
Q 2066 3103 1784 3103 
Q 1356 3103 1142 2972 
Q 928 2841 928 2578 
Q 928 2378 1081 2264 
Q 1234 2150 1697 2047 
L 1894 2003 
Q 2506 1872 2764 1633 
Q 3022 1394 3022 966 
Q 3022 478 2636 193 
Q 2250 -91 1575 -91 
Q 1294 -91 989 -36 
Q 684 19 347 128 
L 347 722 
Q 666 556 975 473 
Q 1284 391 1588 391 
Q 1994 391 2212 530 
Q 2431 669 2431 922 
Q 2431 1156 2273 1281 
Q 2116 1406 1581 1522 
L 1381 1569 
Q 847 1681 609 1914 
Q 372 2147 372 2553 
Q 372 3047 722 3315 
Q 1072 3584 1716 3584 
Q 2034 3584 2315 3537 
Q 2597 3491 2834 3397 
z
" transform="scale(0.015625)"/>
        <path id="DejaVuSans-6b" d="M 581 4863 
L 1159 4863 
L 1159 1991 
L 2875 3500 
L 3609 3500 
L 1753 1863 
L 3688 0 
L 2938 0 
L 1159 1709 
L 1159 0 
L 581 0 
L 581 4863 
z
" transform="scale(0.015625)"/>
        <path id="DejaVuSans-79" d="M 2059 -325 
Q 1816 -950 1584 -1140 
Q 1353 -1331 966 -1331 
L 506 -1331 
L 506 -850 
L 844 -850 
Q 1081 -850 1212 -737 
Q 1344 -625 1503 -206 
L 1606 56 
L 191 3500 
L 800 3500 
L 1894 763 
L 2988 3500 
L 3597 3500 
L 2059 -325 
z
" transform="scale(0.015625)"/>
       </defs>
       <use xlink:href="#DejaVuSans-52"/>
       <use xlink:href="#DejaVuSans-69" x="69.482422"/>
       <use xlink:href="#DejaVuSans-73" x="97.265625"/>
       <use xlink:href="#DejaVuSans-6b" x="149.365234"/>
       <use xlink:href="#DejaVuSans-79" x="203.650391"/>
       <use xlink:href="#DejaVuSans-20" x="262.830078"/>
       <use xlink:href="#DejaVuSans-51" x="294.617188"/>
       <use xlink:href="#DejaVuSans-4c" x="373.328125"/>
       <use xlink:href="#DejaVuSans-65" x="427.291016"/>
       <use xlink:href="#DejaVuSans-61" x="488.814453"/>
       <use xlink:href="#DejaVuSans-72" x="550.09375"/>
       <use xlink:href="#DejaVuSans-6e" x="589.457031"/>
       <use xlink:href="#DejaVuSans-65" x="652.835938"/>
       <use xlink:href="#DejaVuSans-72" x="714.359375"/>
      </g>
     </g>
    </g>
    <g id="xtick_9">
     <g id="line2d_9">
      <g>
       <use xlink:href="#m0cc78e800c" x="704.565455" y="337.97" style="stroke: #000000; stroke-width: 0.8"/>
      </g>
     </g>
     <g id="text_9">
      <!-- Mediocre QLearner -->
      <g transform="translate(706.772955 420.83375)rotate(-90)scale(0.08 -0.08)">
       <defs>
        <path id="DejaVuSans-4d" d="M 628 4666 
L 1569 4666 
L 2759 1491 
L 3956 4666 
L 4897 4666 
L 4897 0 
L 4281 0 
L 4281 4097 
L 3078 897 
L 2444 897 
L 1241 4097 
L 1241 0 
L 628 0 
L 628 4666 
z
" transform="scale(0.015625)"/>
       </defs>
       <use xlink:href="#DejaVuSans-4d"/>
       <use xlink:href="#DejaVuSans-65" x="86.279297"/>
       <use xlink:href="#DejaVuSans-64" x="147.802734"/>
       <use xlink:href="#DejaVuSans-69" x="211.279297"/>
       <use xlink:href="#DejaVuSans-6f" x="239.0625"/>
       <use xlink:href="#DejaVuSans-63" x="300.244141"/>
       <use xlink:href="#DejaVuSans-72" x="355.224609"/>
       <use xlink:href="#DejaVuSans-65" x="394.087891"/>
       <use xlink:href="#DejaVuSans-20" x="455.611328"/>
       <use xlink:href="#DejaVuSans-51" x="487.398438"/>
       <use xlink:href="#DejaVuSans-4c" x="566.109375"/>
       <use xlink:href="#DejaVuSans-65" x="620.072266"/>
       <use xlink:href="#DejaVuSans-61" x="681.595703"/>
       <use xlink:href="#DejaVuSans-72" x="742.875"/>
       <use xlink:href="#DejaVuSans-6e" x="782.238281"/>
       <use xlink:href="#DejaVuSans-65" x="845.617188"/>
       <use xlink:href="#DejaVuSans-72" x="907.140625"/>
      </g>
     </g>
    </g>
    <g id="xtick_10">
     <g id="line2d_10">
      <g>
       <use xlink:href="#m0cc78e800c" x="778.882727" y="337.97" style="stroke: #000000; stroke-width: 0.8"/>
      </g>
     </g>
     <g id="text_10">
      <!-- Cooperator -->
      <g transform="translate(781.090227 389.85875)rotate(-90)scale(0.08 -0.08)">
       <defs>
        <path id="DejaVuSans-43" d="M 4122 4306 
L 4122 3641 
Q 3803 3938 3442 4084 
Q 3081 4231 2675 4231 
Q 1875 4231 1450 3742 
Q 1025 3253 1025 2328 
Q 1025 1406 1450 917 
Q 1875 428 2675 428 
Q 3081 428 3442 575 
Q 3803 722 4122 1019 
L 4122 359 
Q 3791 134 3420 21 
Q 3050 -91 2638 -91 
Q 1578 -91 968 557 
Q 359 1206 359 2328 
Q 359 3453 968 4101 
Q 1578 4750 2638 4750 
Q 3056 4750 3426 4639 
Q 3797 4528 4122 4306 
z
" transform="scale(0.015625)"/>
       </defs>
       <use xlink:href="#DejaVuSans-43"/>
       <use xlink:href="#DejaVuSans-6f" x="69.824219"/>
       <use xlink:href="#DejaVuSans-6f" x="131.005859"/>
       <use xlink:href="#DejaVuSans-70" x="192.1875"/>
       <use xlink:href="#DejaVuSans-65" x="255.664062"/>
       <use xlink:href="#DejaVuSans-72" x="317.1875"/>
       <use xlink:href="#DejaVuSans-61" x="358.300781"/>
       <use xlink:href="#DejaVuSans-74" x="419.580078"/>
       <use xlink:href="#DejaVuSans-6f" x="458.789062"/>
       <use xlink:href="#DejaVuSans-72" x="519.970703"/>
      </g>
     </g>
    </g>
   </g>
   <g id="matplotlib.axis_2">
    <g id="ytick_1">
     <g id="line2d_11">
      <defs>
       <path id="m6809e6f2e8" d="M 0 0 
L -3.5 0 
" style="stroke: #000000; stroke-width: 0.8"/>
      </defs>
      <g>
       <use xlink:href="#m6809e6f2e8" x="35.71" y="329.399483" style="stroke: #000000; stroke-width: 0.8"/>
      </g>
     </g>
     <g id="text_11">
      <!-- 1.50 -->
      <g transform="translate(10.8975 332.438858)scale(0.08 -0.08)">
       <defs>
        <path id="DejaVuSans-31" d="M 794 531 
L 1825 531 
L 1825 4091 
L 703 3866 
L 703 4441 
L 1819 4666 
L 2450 4666 
L 2450 531 
L 3481 531 
L 3481 0 
L 794 0 
L 794 531 
z
" transform="scale(0.015625)"/>
       </defs>
       <use xlink:href="#DejaVuSans-31"/>
       <use xlink:href="#DejaVuSans-2e" x="63.623047"/>
       <use xlink:href="#DejaVuSans-35" x="95.410156"/>
       <use xlink:href="#DejaVuSans-30" x="159.033203"/>
      </g>
     </g>
    </g>
    <g id="ytick_2">
     <g id="line2d_12">
      <g>
       <use xlink:href="#m6809e6f2e8" x="35.71" y="288.972516" style="stroke: #000000; stroke-width: 0.8"/>
      </g>
     </g>
     <g id="text_12">
      <!-- 1.75 -->
      <g transform="translate(10.8975 292.011891)scale(0.08 -0.08)">
       <defs>
        <path id="DejaVuSans-37" d="M 525 4666 
L 3525 4666 
L 3525 4397 
L 1831 0 
L 1172 0 
L 2766 4134 
L 525 4134 
L 525 4666 
z
" transform="scale(0.015625)"/>
       </defs>
       <use xlink:href="#DejaVuSans-31"/>
       <use xlink:href="#DejaVuSans-2e" x="63.623047"/>
       <use xlink:href="#DejaVuSans-37" x="95.410156"/>
       <use xlink:href="#DejaVuSans-35" x="159.033203"/>
      </g>
     </g>
    </g>
    <g id="ytick_3">
     <g id="line2d_13">
      <g>
       <use xlink:href="#m6809e6f2e8" x="35.71" y="248.54555" style="stroke: #000000; stroke-width: 0.8"/>
      </g>
     </g>
     <g id="text_13">
      <!-- 2.00 -->
      <g transform="translate(10.8975 251.584925)scale(0.08 -0.08)">
       <defs>
        <path id="DejaVuSans-32" d="M 1228 531 
L 3431 531 
L 3431 0 
L 469 0 
L 469 531 
Q 828 903 1448 1529 
Q 2069 2156 2228 2338 
Q 2531 2678 2651 2914 
Q 2772 3150 2772 3378 
Q 2772 3750 2511 3984 
Q 2250 4219 1831 4219 
Q 1534 4219 1204 4116 
Q 875 4013 500 3803 
L 500 4441 
Q 881 4594 1212 4672 
Q 1544 4750 1819 4750 
Q 2544 4750 2975 4387 
Q 3406 4025 3406 3419 
Q 3406 3131 3298 2873 
Q 3191 2616 2906 2266 
Q 2828 2175 2409 1742 
Q 1991 1309 1228 531 
z
" transform="scale(0.015625)"/>
       </defs>
       <use xlink:href="#DejaVuSans-32"/>
       <use xlink:href="#DejaVuSans-2e" x="63.623047"/>
       <use xlink:href="#DejaVuSans-30" x="95.410156"/>
       <use xlink:href="#DejaVuSans-30" x="159.033203"/>
      </g>
     </g>
    </g>
    <g id="ytick_4">
     <g id="line2d_14">
      <g>
       <use xlink:href="#m6809e6f2e8" x="35.71" y="208.118583" style="stroke: #000000; stroke-width: 0.8"/>
      </g>
     </g>
     <g id="text_14">
      <!-- 2.25 -->
      <g transform="translate(10.8975 211.157958)scale(0.08 -0.08)">
       <use xlink:href="#DejaVuSans-32"/>
       <use xlink:href="#DejaVuSans-2e" x="63.623047"/>
       <use xlink:href="#DejaVuSans-32" x="95.410156"/>
       <use xlink:href="#DejaVuSans-35" x="159.033203"/>
      </g>
     </g>
    </g>
    <g id="ytick_5">
     <g id="line2d_15">
      <g>
       <use xlink:href="#m6809e6f2e8" x="35.71" y="167.691617" style="stroke: #000000; stroke-width: 0.8"/>
      </g>
     </g>
     <g id="text_15">
      <!-- 2.50 -->
      <g transform="translate(10.8975 170.730992)scale(0.08 -0.08)">
       <use xlink:href="#DejaVuSans-32"/>
       <use xlink:href="#DejaVuSans-2e" x="63.623047"/>
       <use xlink:href="#DejaVuSans-35" x="95.410156"/>
       <use xlink:href="#DejaVuSans-30" x="159.033203"/>
      </g>
     </g>
    </g>
    <g id="ytick_6">
     <g id="line2d_16">
      <g>
       <use xlink:href="#m6809e6f2e8" x="35.71" y="127.26465" style="stroke: #000000; stroke-width: 0.8"/>
      </g>
     </g>
     <g id="text_16">
      <!-- 2.75 -->
      <g transform="translate(10.8975 130.304025)scale(0.08 -0.08)">
       <use xlink:href="#DejaVuSans-32"/>
       <use xlink:href="#DejaVuSans-2e" x="63.623047"/>
       <use xlink:href="#DejaVuSans-37" x="95.410156"/>
       <use xlink:href="#DejaVuSans-35" x="159.033203"/>
      </g>
     </g>
    </g>
    <g id="ytick_7">
     <g id="line2d_17">
      <g>
       <use xlink:href="#m6809e6f2e8" x="35.71" y="86.837683" style="stroke: #000000; stroke-width: 0.8"/>
      </g>
     </g>
     <g id="text_17">
      <!-- 3.00 -->
      <g transform="translate(10.8975 89.877058)scale(0.08 -0.08)">
       <defs>
        <path id="DejaVuSans-33" d="M 2597 2516 
Q 3050 2419 3304 2112 
Q 3559 1806 3559 1356 
Q 3559 666 3084 287 
Q 2609 -91 1734 -91 
Q 1441 -91 1130 -33 
Q 819 25 488 141 
L 488 750 
Q 750 597 1062 519 
Q 1375 441 1716 441 
Q 2309 441 2620 675 
Q 2931 909 2931 1356 
Q 2931 1769 2642 2001 
Q 2353 2234 1838 2234 
L 1294 2234 
L 1294 2753 
L 1863 2753 
Q 2328 2753 2575 2939 
Q 2822 3125 2822 3475 
Q 2822 3834 2567 4026 
Q 2313 4219 1838 4219 
Q 1578 4219 1281 4162 
Q 984 4106 628 3988 
L 628 4550 
Q 988 4650 1302 4700 
Q 1616 4750 1894 4750 
Q 2613 4750 3031 4423 
Q 3450 4097 3450 3541 
Q 3450 3153 3228 2886 
Q 3006 2619 2597 2516 
z
" transform="scale(0.015625)"/>
       </defs>
       <use xlink:href="#DejaVuSans-33"/>
       <use xlink:href="#DejaVuSans-2e" x="63.623047"/>
       <use xlink:href="#DejaVuSans-30" x="95.410156"/>
       <use xlink:href="#DejaVuSans-30" x="159.033203"/>
      </g>
     </g>
    </g>
    <g id="ytick_8">
     <g id="line2d_18">
      <g>
       <use xlink:href="#m6809e6f2e8" x="35.71" y="46.410717" style="stroke: #000000; stroke-width: 0.8"/>
      </g>
     </g>
     <g id="text_18">
      <!-- 3.25 -->
      <g transform="translate(10.8975 49.450092)scale(0.08 -0.08)">
       <use xlink:href="#DejaVuSans-33"/>
       <use xlink:href="#DejaVuSans-2e" x="63.623047"/>
       <use xlink:href="#DejaVuSans-32" x="95.410156"/>
       <use xlink:href="#DejaVuSans-35" x="159.033203"/>
      </g>
     </g>
    </g>
   </g>
   <g id="LineCollection_1">
    <path d="M 100.737614 123.311791 
L 119.316932 123.311791 
" clip-path="url(#pe6b3aca10d)" style="fill: none; stroke: #1f77b4; stroke-width: 1.5"/>
    <path d="M 175.054886 177.483926 
L 193.634205 177.483926 
" clip-path="url(#pe6b3aca10d)" style="fill: none; stroke: #1f77b4; stroke-width: 1.5"/>
    <path d="M 249.372159 179.550193 
L 267.951477 179.550193 
" clip-path="url(#pe6b3aca10d)" style="fill: none; stroke: #1f77b4; stroke-width: 1.5"/>
    <path d="M 323.689432 190.510393 
L 342.26875 190.510393 
" clip-path="url(#pe6b3aca10d)" style="fill: none; stroke: #1f77b4; stroke-width: 1.5"/>
    <path d="M 398.006705 193.205524 
L 416.586023 193.205524 
" clip-path="url(#pe6b3aca10d)" style="fill: none; stroke: #1f77b4; stroke-width: 1.5"/>
    <path d="M 472.323977 215.844626 
L 490.903295 215.844626 
" clip-path="url(#pe6b3aca10d)" style="fill: none; stroke: #1f77b4; stroke-width: 1.5"/>
    <path d="M 546.64125 225.008072 
L 565.220568 225.008072 
" clip-path="url(#pe6b3aca10d)" style="fill: none; stroke: #1f77b4; stroke-width: 1.5"/>
    <path d="M 620.958523 268.938709 
L 639.537841 268.938709 
" clip-path="url(#pe6b3aca10d)" style="fill: none; stroke: #1f77b4; stroke-width: 1.5"/>
    <path d="M 695.275795 272.981405 
L 713.855114 272.981405 
" clip-path="url(#pe6b3aca10d)" style="fill: none; stroke: #1f77b4; stroke-width: 1.5"/>
    <path d="M 769.593068 297.327423 
L 788.172386 297.327423 
" clip-path="url(#pe6b3aca10d)" style="fill: none; stroke: #1f77b4; stroke-width: 1.5"/>
   </g>
   <g id="patch_3">
    <path d="M 35.71 337.97 
L 35.71 26.88 
" style="fill: none; stroke: #000000; stroke-width: 0.8; stroke-linejoin: miter; stroke-linecap: square"/>
   </g>
   <g id="patch_4">
    <path d="M 853.2 337.97 
L 853.2 26.88 
" style="fill: none; stroke: #000000; stroke-width: 0.8; stroke-linejoin: miter; stroke-linecap: square"/>
   </g>
   <g id="patch_5">
    <path d="M 35.71 337.97 
L 853.2 337.97 
" style="fill: none; stroke: #000000; stroke-width: 0.8; stroke-linejoin: miter; stroke-linecap: square"/>
   </g>
   <g id="patch_6">
    <path d="M 35.71 26.88 
L 853.2 26.88 
" style="fill: none; stroke: #000000; stroke-width: 0.8; stroke-linejoin: miter; stroke-linecap: square"/>
   </g>
   <g id="text_19">
    <!-- Payoff - turns: 200, repetitions: 100, strategies: 10.  -->
    <g transform="translate(288.674375 20.88)scale(0.12 -0.12)">
     <defs>
      <path id="DejaVuSans-50" d="M 1259 4147 
L 1259 2394 
L 2053 2394 
Q 2494 2394 2734 2622 
Q 2975 2850 2975 3272 
Q 2975 3691 2734 3919 
Q 2494 4147 2053 4147 
L 1259 4147 
z
M 628 4666 
L 2053 4666 
Q 2838 4666 3239 4311 
Q 3641 3956 3641 3272 
Q 3641 2581 3239 2228 
Q 2838 1875 2053 1875 
L 1259 1875 
L 1259 0 
L 628 0 
L 628 4666 
z
" transform="scale(0.015625)"/>
      <path id="DejaVuSans-2d" d="M 313 2009 
L 1997 2009 
L 1997 1497 
L 313 1497 
L 313 2009 
z
" transform="scale(0.015625)"/>
      <path id="DejaVuSans-2c" d="M 750 794 
L 1409 794 
L 1409 256 
L 897 -744 
L 494 -744 
L 750 256 
L 750 794 
z
" transform="scale(0.015625)"/>
     </defs>
     <use xlink:href="#DejaVuSans-50"/>
     <use xlink:href="#DejaVuSans-61" x="55.802734"/>
     <use xlink:href="#DejaVuSans-79" x="117.082031"/>
     <use xlink:href="#DejaVuSans-6f" x="176.261719"/>
     <use xlink:href="#DejaVuSans-66" x="237.443359"/>
     <use xlink:href="#DejaVuSans-66" x="272.648438"/>
     <use xlink:href="#DejaVuSans-20" x="307.853516"/>
     <use xlink:href="#DejaVuSans-2d" x="339.640625"/>
     <use xlink:href="#DejaVuSans-20" x="375.724609"/>
     <use xlink:href="#DejaVuSans-74" x="407.511719"/>
     <use xlink:href="#DejaVuSans-75" x="446.720703"/>
     <use xlink:href="#DejaVuSans-72" x="510.099609"/>
     <use xlink:href="#DejaVuSans-6e" x="549.462891"/>
     <use xlink:href="#DejaVuSans-73" x="612.841797"/>
     <use xlink:href="#DejaVuSans-3a" x="664.941406"/>
     <use xlink:href="#DejaVuSans-20" x="698.632812"/>
     <use xlink:href="#DejaVuSans-32" x="730.419922"/>
     <use xlink:href="#DejaVuSans-30" x="794.042969"/>
     <use xlink:href="#DejaVuSans-30" x="857.666016"/>
     <use xlink:href="#DejaVuSans-2c" x="921.289062"/>
     <use xlink:href="#DejaVuSans-20" x="953.076172"/>
     <use xlink:href="#DejaVuSans-72" x="984.863281"/>
     <use xlink:href="#DejaVuSans-65" x="1023.726562"/>
     <use xlink:href="#DejaVuSans-70" x="1085.25"/>
     <use xlink:href="#DejaVuSans-65" x="1148.726562"/>
     <use xlink:href="#DejaVuSans-74" x="1210.25"/>
     <use xlink:href="#DejaVuSans-69" x="1249.458984"/>
     <use xlink:href="#DejaVuSans-74" x="1277.242188"/>
     <use xlink:href="#DejaVuSans-69" x="1316.451172"/>
     <use xlink:href="#DejaVuSans-6f" x="1344.234375"/>
     <use xlink:href="#DejaVuSans-6e" x="1405.416016"/>
     <use xlink:href="#DejaVuSans-73" x="1468.794922"/>
     <use xlink:href="#DejaVuSans-3a" x="1520.894531"/>
     <use xlink:href="#DejaVuSans-20" x="1554.585938"/>
     <use xlink:href="#DejaVuSans-31" x="1586.373047"/>
     <use xlink:href="#DejaVuSans-30" x="1649.996094"/>
     <use xlink:href="#DejaVuSans-30" x="1713.619141"/>
     <use xlink:href="#DejaVuSans-2c" x="1777.242188"/>
     <use xlink:href="#DejaVuSans-20" x="1809.029297"/>
     <use xlink:href="#DejaVuSans-73" x="1840.816406"/>
     <use xlink:href="#DejaVuSans-74" x="1892.916016"/>
     <use xlink:href="#DejaVuSans-72" x="1932.125"/>
     <use xlink:href="#DejaVuSans-61" x="1973.238281"/>
     <use xlink:href="#DejaVuSans-74" x="2034.517578"/>
     <use xlink:href="#DejaVuSans-65" x="2073.726562"/>
     <use xlink:href="#DejaVuSans-67" x="2135.25"/>
     <use xlink:href="#DejaVuSans-69" x="2198.726562"/>
     <use xlink:href="#DejaVuSans-65" x="2226.509766"/>
     <use xlink:href="#DejaVuSans-73" x="2288.033203"/>
     <use xlink:href="#DejaVuSans-3a" x="2340.132812"/>
     <use xlink:href="#DejaVuSans-20" x="2373.824219"/>
     <use xlink:href="#DejaVuSans-31" x="2405.611328"/>
     <use xlink:href="#DejaVuSans-30" x="2469.234375"/>
     <use xlink:href="#DejaVuSans-2e" x="2532.857422"/>
     <use xlink:href="#DejaVuSans-20" x="2564.644531"/>
    </g>
   </g>
  </g>
 </g>
 <defs>
  <clipPath id="pe6b3aca10d">
   <rect x="35.71" y="26.88" width="817.49" height="311.09"/>
  </clipPath>
 </defs>
</svg>
