<?xml version="1.0" encoding="utf-8" standalone="no"?>
<!DOCTYPE svg PUBLIC "-//W3C//DTD SVG 1.1//EN"
  "http://www.w3.org/Graphics/SVG/1.1/DTD/svg11.dtd">
<svg xmlns:xlink="http://www.w3.org/1999/xlink" width="864pt" height="432pt" viewBox="0 0 864 432" xmlns="http://www.w3.org/2000/svg" version="1.1">
 <metadata>
  <rdf:RDF xmlns:dc="http://purl.org/dc/elements/1.1/" xmlns:cc="http://creativecommons.org/ns#" xmlns:rdf="http://www.w3.org/1999/02/22-rdf-syntax-ns#">
   <cc:Work>
    <dc:type rdf:resource="http://purl.org/dc/dcmitype/StillImage"/>
    <dc:date>2022-09-20T03:36:49.513580</dc:date>
    <dc:format>image/svg+xml</dc:format>
    <dc:creator>
     <cc:Agent>
      <dc:title>Matplotlib v3.5.1, https://matplotlib.org/</dc:title>
     </cc:Agent>
    </dc:creator>
   </cc:Work>
  </rdf:RDF>
 </metadata>
 <defs>
  <style type="text/css">*{stroke-linejoin: round; stroke-linecap: butt}</style>
 </defs>
 <g id="figure_1">
  <g id="patch_1">
   <path d="M 0 432 
L 864 432 
L 864 0 
L 0 0 
z
" style="fill: #ffffff"/>
  </g>
  <g id="axes_1">
   <g id="patch_2">
    <path d="M 29.68 337.97 
L 853.2 337.97 
L 853.2 26.88 
L 29.68 26.88 
z
" style="fill: #ffffff"/>
   </g>
   <g id="PolyCollection_1">
    <path d="M 122.95817 183.839045 
L 86.132739 183.839045 
L 85.84638 182.439283 
L 85.829091 181.039521 
L 86.074205 179.639759 
L 86.56238 178.239997 
L 87.263198 176.840235 
L 88.137596 175.440472 
L 89.140879 174.04071 
L 90.225974 172.640948 
L 91.346641 171.241186 
L 92.460323 169.841424 
L 93.530417 168.441662 
L 94.527828 167.041899 
L 95.431744 165.642137 
L 96.229672 164.242375 
L 96.916835 162.842613 
L 97.495087 161.442851 
L 97.971516 160.043089 
L 98.35691 158.643326 
L 98.664236 157.243564 
L 98.907257 155.843802 
L 99.099364 154.44404 
L 99.252664 153.044278 
L 99.377346 151.644516 
L 99.481289 150.244753 
L 99.569899 148.844991 
L 99.646127 147.445229 
L 99.710631 146.045467 
L 99.762034 144.645705 
L 99.797278 143.245943 
L 99.812014 141.84618 
L 99.801049 140.446418 
L 99.758822 139.046656 
L 99.679895 137.646894 
L 99.559479 136.247132 
L 99.39394 134.84737 
L 99.181309 133.447607 
L 98.921731 132.047845 
L 98.617846 130.648083 
L 98.275048 129.248321 
L 97.901588 127.848559 
L 97.508489 126.448797 
L 97.109245 125.049034 
L 96.719296 123.649272 
L 96.355296 122.24951 
L 96.034219 120.849748 
L 95.772348 119.449986 
L 95.584236 118.050224 
L 95.48174 116.650461 
L 95.473191 115.250699 
L 95.562806 113.850937 
L 95.750397 112.451175 
L 96.03139 111.051413 
L 96.397175 109.651651 
L 96.835733 108.251888 
L 97.332488 106.852126 
L 97.871286 105.452364 
L 98.43542 104.052602 
L 99.008598 102.65284 
L 99.57578 101.253078 
L 100.123826 99.853315 
L 100.641915 98.453553 
L 101.121733 97.053791 
L 101.557435 95.654029 
L 101.94544 94.254267 
L 102.284069 92.854505 
L 102.573109 91.454742 
L 102.813347 90.05498 
L 103.006111 88.655218 
L 103.152874 87.255456 
L 103.25494 85.855694 
L 103.313248 84.455932 
L 103.328285 83.056169 
L 103.300132 81.656407 
L 103.228629 80.256645 
L 103.113638 78.856883 
L 102.955395 77.457121 
L 102.754907 76.057359 
L 102.514359 74.657596 
L 102.237487 73.257834 
L 101.929861 71.858072 
L 101.599039 70.45831 
L 101.254549 69.058548 
L 100.907674 67.658786 
L 100.571036 66.259023 
L 100.257987 64.859261 
L 99.981864 63.459499 
L 99.755149 62.059737 
L 99.588629 60.659975 
L 99.490628 59.260213 
L 99.466393 57.86045 
L 99.517708 56.460688 
L 99.642765 55.060926 
L 99.836324 53.661164 
L 100.090123 52.261402 
L 100.393516 50.86164 
L 100.734255 49.461877 
L 101.099344 48.062115 
L 101.475881 46.662353 
L 101.85181 45.262591 
L 107.239099 45.262591 
L 107.239099 45.262591 
L 107.615028 46.662353 
L 107.991565 48.062115 
L 108.356654 49.461877 
L 108.697394 50.86164 
L 109.000786 52.261402 
L 109.254585 53.661164 
L 109.448144 55.060926 
L 109.573201 56.460688 
L 109.624516 57.86045 
L 109.600281 59.260213 
L 109.50228 60.659975 
L 109.33576 62.059737 
L 109.109045 63.459499 
L 108.832922 64.859261 
L 108.519873 66.259023 
L 108.183235 67.658786 
L 107.836361 69.058548 
L 107.49187 70.45831 
L 107.161048 71.858072 
L 106.853422 73.257834 
L 106.57655 74.657596 
L 106.336003 76.057359 
L 106.135514 77.457121 
L 105.977271 78.856883 
L 105.86228 80.256645 
L 105.790777 81.656407 
L 105.762624 83.056169 
L 105.777661 84.455932 
L 105.835969 85.855694 
L 105.938035 87.255456 
L 106.084798 88.655218 
L 106.277562 90.05498 
L 106.5178 91.454742 
L 106.80684 92.854505 
L 107.145469 94.254267 
L 107.533474 95.654029 
L 107.969177 97.053791 
L 108.448994 98.453553 
L 108.967083 99.853315 
L 109.51513 101.253078 
L 110.082312 102.65284 
L 110.655489 104.052602 
L 111.219623 105.452364 
L 111.758421 106.852126 
L 112.255176 108.251888 
L 112.693734 109.651651 
L 113.059519 111.051413 
L 113.340512 112.451175 
L 113.528103 113.850937 
L 113.617718 115.250699 
L 113.609169 116.650461 
L 113.506673 118.050224 
L 113.318562 119.449986 
L 113.05669 120.849748 
L 112.735613 122.24951 
L 112.371613 123.649272 
L 111.981664 125.049034 
L 111.58242 126.448797 
L 111.189321 127.848559 
L 110.815862 129.248321 
L 110.473063 130.648083 
L 110.169178 132.047845 
L 109.9096 133.447607 
L 109.696969 134.84737 
L 109.531431 136.247132 
L 109.411014 137.646894 
L 109.332087 139.046656 
L 109.28986 140.446418 
L 109.278896 141.84618 
L 109.293632 143.245943 
L 109.328875 144.645705 
L 109.380279 146.045467 
L 109.444782 147.445229 
L 109.52101 148.844991 
L 109.60962 150.244753 
L 109.713563 151.644516 
L 109.838245 153.044278 
L 109.991545 154.44404 
L 110.183652 155.843802 
L 110.426673 157.243564 
L 110.733999 158.643326 
L 111.119393 160.043089 
L 111.595822 161.442851 
L 112.174074 162.842613 
L 112.861237 164.242375 
L 113.659165 165.642137 
L 114.563081 167.041899 
L 115.560492 168.441662 
L 116.630586 169.841424 
L 117.744268 171.241186 
L 118.864935 172.640948 
L 119.95003 174.04071 
L 120.953313 175.440472 
L 121.827712 176.840235 
L 122.528529 178.239997 
L 123.016704 179.639759 
L 123.261818 181.039521 
L 123.244529 182.439283 
L 122.95817 183.839045 
z
" clip-path="url(#pea1762af79)" style="fill: #1f77b4; fill-opacity: 0.3"/>
   </g>
   <g id="PolyCollection_2">
    <path d="M 184.67811 308.275045 
L 174.143708 308.275045 
L 174.138136 305.661204 
L 174.251077 303.047362 
L 174.474699 300.433521 
L 174.793977 297.819679 
L 175.188279 295.205837 
L 175.633486 292.591996 
L 176.104313 289.978154 
L 176.576541 287.364313 
L 177.028883 284.750471 
L 177.444304 282.136629 
L 177.810726 279.522788 
L 178.121137 276.908946 
L 178.373195 274.295105 
L 178.5685 271.681263 
L 178.711662 269.067421 
L 178.809335 266.45358 
L 178.869305 263.839738 
L 178.899705 261.225897 
L 178.908366 258.612055 
L 178.902312 255.998213 
L 178.887355 253.384372 
L 178.86775 250.77053 
L 178.845901 248.156689 
L 178.822062 245.542847 
L 178.794043 242.929006 
L 178.756916 240.315164 
L 178.702748 237.701322 
L 178.620402 235.087481 
L 178.495471 232.473639 
L 178.310434 229.859798 
L 178.04513 227.245956 
L 177.677653 224.632114 
L 177.18574 222.018273 
L 176.548693 219.404431 
L 175.749766 216.79059 
L 174.778886 214.176748 
L 173.635411 211.562906 
L 172.330592 208.949065 
L 170.889273 206.335223 
L 169.350422 203.721382 
L 167.766139 201.10754 
L 166.198967 198.493698 
L 164.717578 195.879857 
L 163.391171 193.266015 
L 162.28318 190.652174 
L 161.445069 188.038332 
L 160.911061 185.42449 
L 160.694545 182.810649 
L 160.786719 180.196807 
L 161.157636 177.582966 
L 161.759518 174.969124 
L 162.531807 172.355282 
L 163.407208 169.741441 
L 164.317875 167.127599 
L 165.200951 164.513758 
L 166.00287 161.899916 
L 166.682116 159.286074 
L 167.210432 156.672233 
L 167.57271 154.058391 
L 167.76598 151.44455 
L 167.797929 148.830708 
L 167.685304 146.216866 
L 167.452444 143.603025 
L 167.129962 140.989183 
L 166.753494 138.375342 
L 166.362307 135.7615 
L 165.997605 133.147658 
L 165.700388 130.533817 
L 165.508918 127.919975 
L 165.455954 125.306134 
L 165.566053 122.692292 
L 165.853314 120.07845 
L 166.319912 117.464609 
L 166.955676 114.850767 
L 167.73883 112.236926 
L 168.637813 109.623084 
L 169.613949 107.009242 
L 170.624623 104.395401 
L 171.626539 101.781559 
L 172.578702 99.167718 
L 173.444834 96.553876 
L 174.19506 93.940034 
L 174.806845 91.326193 
L 175.265297 88.712351 
L 175.563007 86.09851 
L 175.699638 83.484668 
L 175.681441 80.870826 
L 175.520813 78.256985 
L 175.235911 75.643143 
L 174.850263 73.029302 
L 174.392229 70.41546 
L 173.894163 67.801618 
L 173.391156 65.187777 
L 172.919293 62.573935 
L 172.513489 59.960094 
L 172.205061 57.346252 
L 172.019319 54.73241 
L 171.973468 52.118569 
L 172.075152 49.504727 
L 186.746666 49.504727 
L 186.746666 49.504727 
L 186.84835 52.118569 
L 186.802499 54.73241 
L 186.616757 57.346252 
L 186.30833 59.960094 
L 185.902525 62.573935 
L 185.430662 65.187777 
L 184.927655 67.801618 
L 184.429589 70.41546 
L 183.971555 73.029302 
L 183.585907 75.643143 
L 183.301005 78.256985 
L 183.140377 80.870826 
L 183.12218 83.484668 
L 183.258811 86.09851 
L 183.556522 88.712351 
L 184.014974 91.326193 
L 184.626758 93.940034 
L 185.376984 96.553876 
L 186.243116 99.167718 
L 187.195279 101.781559 
L 188.197195 104.395401 
L 189.207869 107.009242 
L 190.184006 109.623084 
L 191.082988 112.236926 
L 191.866142 114.850767 
L 192.501907 117.464609 
L 192.968504 120.07845 
L 193.255766 122.692292 
L 193.365864 125.306134 
L 193.3129 127.919975 
L 193.12143 130.533817 
L 192.824213 133.147658 
L 192.459511 135.7615 
L 192.068324 138.375342 
L 191.691856 140.989183 
L 191.369374 143.603025 
L 191.136514 146.216866 
L 191.023889 148.830708 
L 191.055838 151.44455 
L 191.249108 154.058391 
L 191.611386 156.672233 
L 192.139702 159.286074 
L 192.818949 161.899916 
L 193.620867 164.513758 
L 194.503943 167.127599 
L 195.41461 169.741441 
L 196.290011 172.355282 
L 197.0623 174.969124 
L 197.664182 177.582966 
L 198.035099 180.196807 
L 198.127273 182.810649 
L 197.910758 185.42449 
L 197.376749 188.038332 
L 196.538638 190.652174 
L 195.430647 193.266015 
L 194.104241 195.879857 
L 192.622851 198.493698 
L 191.055679 201.10754 
L 189.471396 203.721382 
L 187.932545 206.335223 
L 186.491226 208.949065 
L 185.186407 211.562906 
L 184.042933 214.176748 
L 183.072052 216.79059 
L 182.273125 219.404431 
L 181.636078 222.018273 
L 181.144165 224.632114 
L 180.776688 227.245956 
L 180.511384 229.859798 
L 180.326347 232.473639 
L 180.201416 235.087481 
L 180.11907 237.701322 
L 180.064902 240.315164 
L 180.027775 242.929006 
L 179.999756 245.542847 
L 179.975917 248.156689 
L 179.954068 250.77053 
L 179.934464 253.384372 
L 179.919506 255.998213 
L 179.913452 258.612055 
L 179.922113 261.225897 
L 179.952513 263.839738 
L 180.012483 266.45358 
L 180.110156 269.067421 
L 180.253318 271.681263 
L 180.448623 274.295105 
L 180.700681 276.908946 
L 181.011092 279.522788 
L 181.377515 282.136629 
L 181.792935 284.750471 
L 182.245277 287.364313 
L 182.717505 289.978154 
L 183.188333 292.591996 
L 183.633539 295.205837 
L 184.027841 297.819679 
L 184.347119 300.433521 
L 184.570742 303.047362 
L 184.683682 305.661204 
L 184.67811 308.275045 
z
" clip-path="url(#pea1762af79)" style="fill: #1f77b4; fill-opacity: 0.3"/>
   </g>
   <g id="PolyCollection_3">
    <path d="M 262.764017 183.839045 
L 245.78871 183.839045 
L 245.820588 183.824762 
L 245.915506 183.810479 
L 246.071341 183.796196 
L 246.284642 183.781912 
L 246.550758 183.767629 
L 246.864008 183.753346 
L 247.217877 183.739062 
L 247.605247 183.724779 
L 248.01863 183.710496 
L 248.450408 183.696213 
L 248.89306 183.681929 
L 249.339374 183.667646 
L 249.782633 183.653363 
L 250.216761 183.639079 
L 250.636445 183.624796 
L 251.037212 183.610513 
L 251.415464 183.59623 
L 251.768491 183.581946 
L 252.094439 183.567663 
L 252.392255 183.55338 
L 252.66162 183.539096 
L 252.902851 183.524813 
L 253.116803 183.51053 
L 253.304767 183.496247 
L 253.468366 183.481963 
L 253.609456 183.46768 
L 253.730037 183.453397 
L 253.832171 183.439113 
L 253.917919 183.42483 
L 253.989283 183.410547 
L 254.048162 183.396264 
L 254.096326 183.38198 
L 254.135388 183.367697 
L 254.166802 183.353414 
L 254.191854 183.33913 
L 254.211664 183.324847 
L 254.2272 183.310564 
L 254.23928 183.296281 
L 254.248596 183.281997 
L 254.255716 183.267714 
L 254.261109 183.253431 
L 254.265153 183.239147 
L 254.268148 183.224864 
L 254.27033 183.210581 
L 254.271878 183.196298 
L 254.272926 183.182014 
L 254.273567 183.167731 
L 254.273855 183.153448 
L 254.273815 183.139164 
L 254.273436 183.124881 
L 254.272673 183.110598 
L 254.271445 183.096315 
L 254.269626 183.082031 
L 254.267036 183.067748 
L 254.263432 183.053465 
L 254.258494 183.039181 
L 254.251804 183.024898 
L 254.242831 183.010615 
L 254.2309 182.996331 
L 254.215174 182.982048 
L 254.194617 182.967765 
L 254.167968 182.953482 
L 254.133704 182.939198 
L 254.090015 182.924915 
L 254.034771 182.910632 
L 253.965497 182.896348 
L 253.879358 182.882065 
L 253.773151 182.867782 
L 253.643314 182.853499 
L 253.485948 182.839215 
L 253.296862 182.824932 
L 253.071643 182.810649 
L 252.805748 182.796365 
L 252.494626 182.782082 
L 252.133869 182.767799 
L 251.719384 182.753516 
L 251.247592 182.739232 
L 250.715648 182.724949 
L 250.121663 182.710666 
L 249.464939 182.696382 
L 248.746184 182.682099 
L 247.967714 182.667816 
L 247.133619 182.653533 
L 246.249877 182.639249 
L 245.324419 182.624966 
L 244.36711 182.610683 
L 243.389669 182.596399 
L 242.405488 182.582116 
L 241.429384 182.567833 
L 240.477259 182.55355 
L 239.565696 182.539266 
L 238.711495 182.524983 
L 237.931168 182.5107 
L 237.240413 182.496416 
L 236.653592 182.482133 
L 236.183237 182.46785 
L 235.839601 182.453567 
L 235.630295 182.439283 
L 235.56 182.425 
L 272.992727 182.425 
L 272.992727 182.425 
L 272.922432 182.439283 
L 272.713126 182.453567 
L 272.369491 182.46785 
L 271.899135 182.482133 
L 271.312314 182.496416 
L 270.621559 182.5107 
L 269.841232 182.524983 
L 268.987032 182.539266 
L 268.075469 182.55355 
L 267.123343 182.567833 
L 266.147239 182.582116 
L 265.163058 182.596399 
L 264.185617 182.610683 
L 263.228309 182.624966 
L 262.30285 182.639249 
L 261.419109 182.653533 
L 260.585013 182.667816 
L 259.806543 182.682099 
L 259.087788 182.696382 
L 258.431064 182.710666 
L 257.83708 182.724949 
L 257.305135 182.739232 
L 256.833344 182.753516 
L 256.418858 182.767799 
L 256.058101 182.782082 
L 255.74698 182.796365 
L 255.481085 182.810649 
L 255.255865 182.824932 
L 255.066779 182.839215 
L 254.909413 182.853499 
L 254.779576 182.867782 
L 254.673369 182.882065 
L 254.58723 182.896348 
L 254.517956 182.910632 
L 254.462712 182.924915 
L 254.419023 182.939198 
L 254.38476 182.953482 
L 254.35811 182.967765 
L 254.337553 182.982048 
L 254.321827 182.996331 
L 254.309897 183.010615 
L 254.300923 183.024898 
L 254.294234 183.039181 
L 254.289295 183.053465 
L 254.285692 183.067748 
L 254.283102 183.082031 
L 254.281282 183.096315 
L 254.280054 183.110598 
L 254.279292 183.124881 
L 254.278912 183.139164 
L 254.278872 183.153448 
L 254.279161 183.167731 
L 254.279801 183.182014 
L 254.280849 183.196298 
L 254.282397 183.210581 
L 254.284579 183.224864 
L 254.287574 183.239147 
L 254.291618 183.253431 
L 254.297011 183.267714 
L 254.304132 183.281997 
L 254.313447 183.296281 
L 254.325528 183.310564 
L 254.341063 183.324847 
L 254.360873 183.33913 
L 254.385925 183.353414 
L 254.417339 183.367697 
L 254.456402 183.38198 
L 254.504565 183.396264 
L 254.563444 183.410547 
L 254.634808 183.42483 
L 254.720556 183.439113 
L 254.822691 183.453397 
L 254.943271 183.46768 
L 255.084361 183.481963 
L 255.24796 183.496247 
L 255.435924 183.51053 
L 255.649876 183.524813 
L 255.891107 183.539096 
L 256.160472 183.55338 
L 256.458289 183.567663 
L 256.784236 183.581946 
L 257.137263 183.59623 
L 257.515515 183.610513 
L 257.916282 183.624796 
L 258.335967 183.639079 
L 258.770095 183.653363 
L 259.213353 183.667646 
L 259.659668 183.681929 
L 260.102319 183.696213 
L 260.534097 183.710496 
L 260.94748 183.724779 
L 261.334851 183.739062 
L 261.68872 183.753346 
L 262.001969 183.767629 
L 262.268085 183.781912 
L 262.481386 183.796196 
L 262.637221 183.810479 
L 262.732139 183.824762 
L 262.764017 183.839045 
z
" clip-path="url(#pea1762af79)" style="fill: #1f77b4; fill-opacity: 0.3"/>
   </g>
   <g id="PolyCollection_4">
    <path d="M 337.703279 268.681773 
L 320.580357 268.681773 
L 319.406618 266.896362 
L 318.207275 265.110951 
L 317.009662 263.32554 
L 315.844077 261.540129 
L 314.74258 259.754718 
L 313.737577 257.969307 
L 312.860262 256.183896 
L 312.139029 254.398485 
L 311.597949 252.613074 
L 311.255441 250.827663 
L 311.123227 249.042253 
L 311.205649 247.256842 
L 311.499414 245.471431 
L 311.99376 243.68602 
L 312.671052 241.900609 
L 313.507739 240.115198 
L 314.475591 238.329787 
L 315.543126 236.544376 
L 316.677093 234.758965 
L 317.843927 232.973554 
L 319.011043 231.188143 
L 320.147905 229.402732 
L 321.22682 227.617321 
L 322.223409 225.83191 
L 323.116791 224.0465 
L 323.889505 222.261089 
L 324.527227 220.475678 
L 325.018393 218.690267 
L 325.353788 216.904856 
L 325.526223 215.119445 
L 325.530366 213.334034 
L 325.362802 211.548623 
L 325.022345 209.763212 
L 324.510599 207.977801 
L 323.83273 206.19239 
L 322.998346 204.406979 
L 322.022374 202.621568 
L 320.925777 200.836157 
L 319.735961 199.050747 
L 318.486722 197.265336 
L 317.217629 195.479925 
L 315.972779 193.694514 
L 314.798951 191.909103 
L 313.743245 190.123692 
L 312.850378 188.338281 
L 312.159865 186.55287 
L 311.703348 184.767459 
L 311.502348 182.982048 
L 311.566666 181.196637 
L 311.893626 179.411226 
L 312.468218 177.625815 
L 313.264156 175.840404 
L 314.245719 174.054994 
L 315.370182 172.269583 
L 316.590597 170.484172 
L 317.858624 168.698761 
L 319.127184 166.91335 
L 320.352683 165.127939 
L 321.496681 163.342528 
L 322.526932 161.557117 
L 323.417793 159.771706 
L 324.150102 157.986295 
L 324.710639 156.200884 
L 325.091348 154.415473 
L 325.288468 152.630062 
L 325.301734 150.844652 
L 325.133749 149.059241 
L 324.789617 147.27383 
L 324.276828 145.488419 
L 323.605401 143.703008 
L 322.788195 141.917597 
L 321.841309 140.132186 
L 320.78445 138.346775 
L 319.641174 136.561364 
L 318.438887 134.775953 
L 317.208544 132.990542 
L 315.984001 131.205131 
L 314.801025 129.41972 
L 313.695998 127.634309 
L 312.704397 125.848899 
L 311.859157 124.063488 
L 311.189046 122.278077 
L 310.717179 120.492666 
L 310.459803 118.707255 
L 310.425455 116.921844 
L 310.614558 115.136433 
L 311.019501 113.351022 
L 311.625174 111.565611 
L 312.409932 109.7802 
L 313.346894 107.994789 
L 314.405463 106.209378 
L 315.552973 104.423967 
L 316.756318 102.638556 
L 317.983474 100.853146 
L 319.204806 99.067735 
L 320.394119 97.282324 
L 321.529388 95.496913 
L 322.593182 93.711502 
L 323.572783 91.926091 
L 334.710854 91.926091 
L 334.710854 91.926091 
L 335.690454 93.711502 
L 336.754248 95.496913 
L 337.889517 97.282324 
L 339.07883 99.067735 
L 340.300163 100.853146 
L 341.527318 102.638556 
L 342.730664 104.423967 
L 343.878174 106.209378 
L 344.936743 107.994789 
L 345.873704 109.7802 
L 346.658463 111.565611 
L 347.264135 113.351022 
L 347.669078 115.136433 
L 347.858182 116.921844 
L 347.823834 118.707255 
L 347.566458 120.492666 
L 347.09459 122.278077 
L 346.424479 124.063488 
L 345.57924 125.848899 
L 344.587639 127.634309 
L 343.482611 129.41972 
L 342.299636 131.205131 
L 341.075093 132.990542 
L 339.84475 134.775953 
L 338.642462 136.561364 
L 337.499186 138.346775 
L 336.442327 140.132186 
L 335.495441 141.917597 
L 334.678236 143.703008 
L 334.006809 145.488419 
L 333.49402 147.27383 
L 333.149887 149.059241 
L 332.981902 150.844652 
L 332.995168 152.630062 
L 333.192289 154.415473 
L 333.572998 156.200884 
L 334.133535 157.986295 
L 334.865843 159.771706 
L 335.756704 161.557117 
L 336.786955 163.342528 
L 337.930954 165.127939 
L 339.156452 166.91335 
L 340.425012 168.698761 
L 341.69304 170.484172 
L 342.913454 172.269583 
L 344.037918 174.054994 
L 345.01948 175.840404 
L 345.815418 177.625815 
L 346.39001 179.411226 
L 346.71697 181.196637 
L 346.781289 182.982048 
L 346.580288 184.767459 
L 346.123771 186.55287 
L 345.433258 188.338281 
L 344.540391 190.123692 
L 343.484685 191.909103 
L 342.310857 193.694514 
L 341.066007 195.479925 
L 339.796914 197.265336 
L 338.547676 199.050747 
L 337.357859 200.836157 
L 336.261262 202.621568 
L 335.28529 204.406979 
L 334.450906 206.19239 
L 333.773037 207.977801 
L 333.261292 209.763212 
L 332.920834 211.548623 
L 332.75327 213.334034 
L 332.757413 215.119445 
L 332.929848 216.904856 
L 333.265243 218.690267 
L 333.756409 220.475678 
L 334.394132 222.261089 
L 335.166845 224.0465 
L 336.060228 225.83191 
L 337.056816 227.617321 
L 338.135731 229.402732 
L 339.272594 231.188143 
L 340.439709 232.973554 
L 341.606543 234.758965 
L 342.740511 236.544376 
L 343.808045 238.329787 
L 344.775898 240.115198 
L 345.612584 241.900609 
L 346.289877 243.68602 
L 346.784222 245.471431 
L 347.077987 247.256842 
L 347.16041 249.042253 
L 347.028195 250.827663 
L 346.685688 252.613074 
L 346.144607 254.398485 
L 345.423374 256.183896 
L 344.54606 257.969307 
L 343.541056 259.754718 
L 342.439559 261.540129 
L 341.273974 263.32554 
L 340.076362 265.110951 
L 338.877018 266.896362 
L 337.703279 268.681773 
z
" clip-path="url(#pea1762af79)" style="fill: #1f77b4; fill-opacity: 0.3"/>
   </g>
   <g id="PolyCollection_5">
    <path d="M 421.879098 182.425 
L 386.135447 182.425 
L 385.636963 180.996671 
L 385.353964 179.568343 
L 385.290909 178.140014 
L 385.443105 176.711685 
L 385.797099 175.283356 
L 386.331669 173.855028 
L 387.019304 172.426699 
L 387.828059 170.99837 
L 388.723604 169.570041 
L 389.671304 168.141713 
L 390.638166 166.713384 
L 391.594495 165.285055 
L 392.515165 163.856726 
L 393.38044 162.428398 
L 394.176319 161.000069 
L 394.89444 159.57174 
L 395.531594 158.143411 
L 396.088944 156.715083 
L 396.571047 155.286754 
L 396.984777 153.858425 
L 397.338263 152.430096 
L 397.639899 151.001768 
L 397.897513 149.573439 
L 398.117721 148.14511 
L 398.305488 146.716781 
L 398.4639 145.288453 
L 398.594124 143.860124 
L 398.695547 142.431795 
L 398.766043 141.003466 
L 398.802349 139.575138 
L 398.800526 138.146809 
L 398.756448 136.71848 
L 398.666328 135.290152 
L 398.527225 133.861823 
L 398.337528 132.433494 
L 398.097389 131.005165 
L 397.80907 129.576837 
L 397.477193 128.148508 
L 397.108862 126.720179 
L 396.713631 125.29185 
L 396.303318 123.863522 
L 395.891636 122.435193 
L 395.493671 121.006864 
L 395.125216 119.578535 
L 394.801993 118.150207 
L 394.538828 116.721878 
L 394.348821 115.293549 
L 394.242587 113.86522 
L 394.227624 112.436892 
L 394.307863 111.008563 
L 394.483445 109.580234 
L 394.750733 108.151905 
L 395.102562 106.723577 
L 395.528717 105.295248 
L 396.016565 103.866919 
L 396.551819 102.43859 
L 397.119349 101.010262 
L 397.703977 99.581933 
L 398.291214 98.153604 
L 398.867869 96.725275 
L 399.42252 95.296947 
L 399.945819 93.868618 
L 400.430634 92.440289 
L 400.87204 91.011961 
L 401.267192 89.583632 
L 401.615093 88.155303 
L 401.916294 86.726974 
L 402.172567 85.298646 
L 402.386557 83.870317 
L 402.561447 82.441988 
L 402.700647 81.013659 
L 402.807524 79.585331 
L 402.885163 78.157002 
L 402.936188 76.728673 
L 402.962622 75.300344 
L 402.965805 73.872016 
L 402.94636 72.443687 
L 402.904219 71.015358 
L 402.838703 69.587029 
L 402.748658 68.158701 
L 402.632653 66.730372 
L 402.489222 65.302043 
L 402.317148 63.873714 
L 402.115773 62.445386 
L 401.885319 61.017057 
L 401.62718 59.588728 
L 401.344172 58.160399 
L 401.040707 56.732071 
L 400.722862 55.303742 
L 400.39832 53.875413 
L 400.076175 52.447084 
L 399.766597 51.018756 
L 399.48037 49.590427 
L 399.228325 48.162098 
L 399.020723 46.73377 
L 398.866614 45.305441 
L 398.773241 43.877112 
L 398.745548 42.448783 
L 398.785821 41.020455 
L 409.228724 41.020455 
L 409.228724 41.020455 
L 409.268997 42.448783 
L 409.241304 43.877112 
L 409.147932 45.305441 
L 408.993822 46.73377 
L 408.78622 48.162098 
L 408.534176 49.590427 
L 408.247948 51.018756 
L 407.93837 52.447084 
L 407.616225 53.875413 
L 407.291683 55.303742 
L 406.973839 56.732071 
L 406.670374 58.160399 
L 406.387366 59.588728 
L 406.129226 61.017057 
L 405.898772 62.445386 
L 405.697398 63.873714 
L 405.525323 65.302043 
L 405.381892 66.730372 
L 405.265888 68.158701 
L 405.175843 69.587029 
L 405.110326 71.015358 
L 405.068186 72.443687 
L 405.048741 73.872016 
L 405.051924 75.300344 
L 405.078358 76.728673 
L 405.129383 78.157002 
L 405.207022 79.585331 
L 405.313898 81.013659 
L 405.453099 82.441988 
L 405.627989 83.870317 
L 405.841978 85.298646 
L 406.098252 86.726974 
L 406.399453 88.155303 
L 406.747353 89.583632 
L 407.142505 91.011961 
L 407.583912 92.440289 
L 408.068726 93.868618 
L 408.592025 95.296947 
L 409.146676 96.725275 
L 409.723331 98.153604 
L 410.310568 99.581933 
L 410.895197 101.010262 
L 411.462726 102.43859 
L 411.997981 103.866919 
L 412.485829 105.295248 
L 412.911983 106.723577 
L 413.263813 108.151905 
L 413.5311 109.580234 
L 413.706682 111.008563 
L 413.786922 112.436892 
L 413.771958 113.86522 
L 413.665724 115.293549 
L 413.475717 116.721878 
L 413.212553 118.150207 
L 412.88933 119.578535 
L 412.520874 121.006864 
L 412.12291 122.435193 
L 411.711228 123.863522 
L 411.300914 125.29185 
L 410.905684 126.720179 
L 410.537352 128.148508 
L 410.205475 129.576837 
L 409.917156 131.005165 
L 409.677017 132.433494 
L 409.487321 133.861823 
L 409.348218 135.290152 
L 409.258098 136.71848 
L 409.21402 138.146809 
L 409.212196 139.575138 
L 409.248503 141.003466 
L 409.318998 142.431795 
L 409.420421 143.860124 
L 409.550646 145.288453 
L 409.709057 146.716781 
L 409.896825 148.14511 
L 410.117033 149.573439 
L 410.374647 151.001768 
L 410.676282 152.430096 
L 411.029768 153.858425 
L 411.443499 155.286754 
L 411.925601 156.715083 
L 412.482951 158.143411 
L 413.120105 159.57174 
L 413.838226 161.000069 
L 414.634105 162.428398 
L 415.49938 163.856726 
L 416.42005 165.285055 
L 417.376379 166.713384 
L 418.343241 168.141713 
L 419.290942 169.570041 
L 420.186486 170.99837 
L 420.995241 172.426699 
L 421.682876 173.855028 
L 422.217446 175.283356 
L 422.571441 176.711685 
L 422.723636 178.140014 
L 422.660582 179.568343 
L 422.377583 180.996671 
L 421.879098 182.425 
z
" clip-path="url(#pea1762af79)" style="fill: #1f77b4; fill-opacity: 0.3"/>
   </g>
   <g id="PolyCollection_6">
    <path d="M 481.576519 322.4155 
L 476.168936 322.4155 
L 475.882253 319.573126 
L 475.641465 316.730752 
L 475.46054 313.888377 
L 475.349484 311.046003 
L 475.31311 308.203629 
L 475.350349 305.361255 
L 475.454243 302.518881 
L 475.612565 299.676506 
L 475.808994 296.834132 
L 476.024628 293.991758 
L 476.239632 291.149384 
L 476.434828 288.30701 
L 476.593064 285.464635 
L 476.700301 282.622261 
L 476.746399 279.779887 
L 476.725649 276.937513 
L 476.637079 274.095139 
L 476.484581 271.252764 
L 476.276827 268.41039 
L 476.026931 265.568016 
L 475.751782 262.725642 
L 475.470986 259.883268 
L 475.205392 257.040893 
L 474.975281 254.198519 
L 474.798336 251.356145 
L 474.687629 248.513771 
L 474.649841 245.671397 
L 474.683947 242.829022 
L 474.780517 239.986648 
L 474.921697 237.144274 
L 475.081843 234.3019 
L 475.228701 231.459526 
L 475.325038 228.617152 
L 475.330629 225.774777 
L 475.204589 222.932403 
L 474.908107 220.090029 
L 474.407629 217.247655 
L 473.678513 214.405281 
L 472.708998 211.562906 
L 471.504142 208.720532 
L 470.089139 205.878158 
L 468.511255 203.035784 
L 466.839621 200.19341 
L 465.162268 197.351035 
L 463.580183 194.508661 
L 462.198692 191.666287 
L 461.117055 188.823913 
L 460.417652 185.981539 
L 460.156364 183.139164 
L 460.355727 180.29679 
L 461.002024 177.454416 
L 462.046803 174.612042 
L 463.412589 171.769668 
L 465.001792 168.927293 
L 466.707374 166.084919 
L 468.423621 163.242545 
L 470.055548 160.400171 
L 471.525886 157.557797 
L 472.779138 154.715422 
L 473.782771 151.873048 
L 474.526009 149.030674 
L 475.016958 146.1883 
L 475.278807 143.345926 
L 475.345743 140.503551 
L 475.259001 137.661177 
L 475.063266 134.818803 
L 474.803491 131.976429 
L 474.522115 129.134055 
L 474.25666 126.29168 
L 474.037754 123.449306 
L 473.887657 120.606932 
L 473.819436 117.764558 
L 473.836859 114.922184 
L 473.935085 112.079809 
L 474.102053 109.237435 
L 474.320431 106.395061 
L 474.569865 103.552687 
L 474.82925 100.710313 
L 475.078769 97.867938 
L 475.301487 95.025564 
L 475.484408 92.18319 
L 475.618976 89.340816 
L 475.701113 86.498442 
L 475.730911 83.656067 
L 475.712142 80.813693 
L 475.651692 77.971319 
L 475.559003 75.128945 
L 475.445553 72.286571 
L 475.324313 69.444197 
L 475.209149 66.601822 
L 475.114098 63.759448 
L 475.052487 60.917074 
L 475.035942 58.0747 
L 475.073363 55.232326 
L 475.170021 52.389951 
L 475.326917 49.547577 
L 475.540553 46.705203 
L 475.803199 43.862829 
L 476.103633 41.020455 
L 481.641822 41.020455 
L 481.641822 41.020455 
L 481.942256 43.862829 
L 482.204901 46.705203 
L 482.418538 49.547577 
L 482.575433 52.389951 
L 482.672091 55.232326 
L 482.709513 58.0747 
L 482.692967 60.917074 
L 482.631356 63.759448 
L 482.536305 66.601822 
L 482.421142 69.444197 
L 482.299902 72.286571 
L 482.186451 75.128945 
L 482.093763 77.971319 
L 482.033312 80.813693 
L 482.014543 83.656067 
L 482.044342 86.498442 
L 482.126478 89.340816 
L 482.261046 92.18319 
L 482.443967 95.025564 
L 482.666686 97.867938 
L 482.916204 100.710313 
L 483.175589 103.552687 
L 483.425023 106.395061 
L 483.643401 109.237435 
L 483.81037 112.079809 
L 483.908595 114.922184 
L 483.926019 117.764558 
L 483.857797 120.606932 
L 483.707701 123.449306 
L 483.488794 126.29168 
L 483.223339 129.134055 
L 482.941963 131.976429 
L 482.682188 134.818803 
L 482.486453 137.661177 
L 482.399711 140.503551 
L 482.466648 143.345926 
L 482.728497 146.1883 
L 483.219445 149.030674 
L 483.962683 151.873048 
L 484.966316 154.715422 
L 486.219569 157.557797 
L 487.689906 160.400171 
L 489.321833 163.242545 
L 491.03808 166.084919 
L 492.743663 168.927293 
L 494.332866 171.769668 
L 495.698651 174.612042 
L 496.74343 177.454416 
L 497.389727 180.29679 
L 497.589091 183.139164 
L 497.327802 185.981539 
L 496.628399 188.823913 
L 495.546763 191.666287 
L 494.165271 194.508661 
L 492.583186 197.351035 
L 490.905834 200.19341 
L 489.2342 203.035784 
L 487.656316 205.878158 
L 486.241312 208.720532 
L 485.036456 211.562906 
L 484.066941 214.405281 
L 483.337825 217.247655 
L 482.837348 220.090029 
L 482.540866 222.932403 
L 482.414826 225.774777 
L 482.420416 228.617152 
L 482.516754 231.459526 
L 482.663612 234.3019 
L 482.823757 237.144274 
L 482.964938 239.986648 
L 483.061507 242.829022 
L 483.095613 245.671397 
L 483.057826 248.513771 
L 482.947119 251.356145 
L 482.770174 254.198519 
L 482.540062 257.040893 
L 482.274469 259.883268 
L 481.993673 262.725642 
L 481.718524 265.568016 
L 481.468628 268.41039 
L 481.260873 271.252764 
L 481.108375 274.095139 
L 481.019806 276.937513 
L 480.999056 279.779887 
L 481.045154 282.622261 
L 481.152391 285.464635 
L 481.310627 288.30701 
L 481.505823 291.149384 
L 481.720827 293.991758 
L 481.93646 296.834132 
L 482.132889 299.676506 
L 482.291212 302.518881 
L 482.395105 305.361255 
L 482.432345 308.203629 
L 482.39597 311.046003 
L 482.284915 313.888377 
L 482.103989 316.730752 
L 481.863202 319.573126 
L 481.576519 322.4155 
z
" clip-path="url(#pea1762af79)" style="fill: #1f77b4; fill-opacity: 0.3"/>
   </g>
   <g id="PolyCollection_7">
    <path d="M 571.595819 253.127273 
L 535.880545 253.127273 
L 535.420212 251.698944 
L 535.131245 250.270615 
L 535.021818 248.842287 
L 535.094915 247.413958 
L 535.348187 245.985629 
L 535.774071 244.5573 
L 536.360147 243.128972 
L 537.089728 241.700643 
L 537.942617 240.272314 
L 538.896007 238.843985 
L 539.925448 237.415657 
L 541.005827 235.987328 
L 542.112306 234.558999 
L 543.221163 233.13067 
L 544.310497 231.702342 
L 545.360769 230.274013 
L 546.355157 228.845684 
L 547.279735 227.417355 
L 548.123473 225.989027 
L 548.878089 224.560698 
L 549.537773 223.132369 
L 550.09883 221.70404 
L 550.559267 220.275712 
L 550.918366 218.847383 
L 551.176287 217.419054 
L 551.333719 215.990725 
L 551.391609 214.562397 
L 551.350992 213.134068 
L 551.212932 211.705739 
L 550.978565 210.27741 
L 550.649257 208.849082 
L 550.226848 207.420753 
L 549.713972 205.992424 
L 549.114414 204.564096 
L 548.433483 203.135767 
L 547.678363 201.707438 
L 546.858397 200.279109 
L 545.985284 198.850781 
L 545.073141 197.422452 
L 544.138425 195.994123 
L 543.199682 194.565794 
L 542.277133 193.137466 
L 541.392108 191.709137 
L 540.566338 190.280808 
L 539.821153 188.852479 
L 539.176625 187.424151 
L 538.650711 185.995822 
L 538.258444 184.567493 
L 538.01124 183.139164 
L 537.916348 181.710836 
L 537.976503 180.282507 
L 538.189793 178.854178 
L 538.549744 177.425849 
L 539.045641 175.997521 
L 539.663025 174.569192 
L 540.384366 173.140863 
L 541.189842 171.712534 
L 542.058173 170.284206 
L 542.967472 168.855877 
L 543.896041 167.427548 
L 544.823078 165.999219 
L 545.729261 164.570891 
L 546.597174 163.142562 
L 547.411585 161.714233 
L 548.159554 160.285904 
L 548.830409 158.857576 
L 549.4156 157.429247 
L 549.908456 156.000918 
L 550.303906 154.57259 
L 550.598169 153.144261 
L 550.788468 151.715932 
L 550.872794 150.287603 
L 550.849741 148.859275 
L 550.718433 147.430946 
L 550.47855 146.002617 
L 550.130452 144.574288 
L 549.675395 143.14596 
L 549.115817 141.717631 
L 548.455666 140.289302 
L 547.700748 138.860973 
L 546.859049 137.432645 
L 545.941006 136.004316 
L 544.959673 134.575987 
L 543.930778 133.147658 
L 542.872614 131.71933 
L 541.805779 130.291001 
L 540.752736 128.862672 
L 539.73722 127.434343 
L 538.783499 126.006015 
L 537.915535 124.577686 
L 537.156075 123.149357 
L 536.52574 121.721028 
L 536.042146 120.2927 
L 535.719136 118.864371 
L 535.566152 117.436042 
L 535.587807 116.007713 
L 535.783665 114.579385 
L 536.148276 113.151056 
L 536.671428 111.722727 
L 570.804936 111.722727 
L 570.804936 111.722727 
L 571.328088 113.151056 
L 571.692698 114.579385 
L 571.888557 116.007713 
L 571.910211 117.436042 
L 571.757228 118.864371 
L 571.434218 120.2927 
L 570.950624 121.721028 
L 570.320288 123.149357 
L 569.560829 124.577686 
L 568.692864 126.006015 
L 567.739143 127.434343 
L 566.723627 128.862672 
L 565.670584 130.291001 
L 564.603749 131.71933 
L 563.545586 133.147658 
L 562.516691 134.575987 
L 561.535358 136.004316 
L 560.617314 137.432645 
L 559.775616 138.860973 
L 559.020698 140.289302 
L 558.360547 141.717631 
L 557.800968 143.14596 
L 557.345912 144.574288 
L 556.997814 146.002617 
L 556.75793 147.430946 
L 556.626622 148.859275 
L 556.603569 150.287603 
L 556.687896 151.715932 
L 556.878195 153.144261 
L 557.172458 154.57259 
L 557.567908 156.000918 
L 558.060764 157.429247 
L 558.645954 158.857576 
L 559.31681 160.285904 
L 560.064779 161.714233 
L 560.87919 163.142562 
L 561.747103 164.570891 
L 562.653286 165.999219 
L 563.580323 167.427548 
L 564.508892 168.855877 
L 565.418191 170.284206 
L 566.286522 171.712534 
L 567.091997 173.140863 
L 567.813339 174.569192 
L 568.430723 175.997521 
L 568.926619 177.425849 
L 569.286571 178.854178 
L 569.49986 180.282507 
L 569.560016 181.710836 
L 569.465124 183.139164 
L 569.217919 184.567493 
L 568.825653 185.995822 
L 568.299739 187.424151 
L 567.655211 188.852479 
L 566.910026 190.280808 
L 566.084256 191.709137 
L 565.199231 193.137466 
L 564.276682 194.565794 
L 563.337938 195.994123 
L 562.403223 197.422452 
L 561.49108 198.850781 
L 560.617967 200.279109 
L 559.798001 201.707438 
L 559.042881 203.135767 
L 558.36195 204.564096 
L 557.762391 205.992424 
L 557.249515 207.420753 
L 556.827107 208.849082 
L 556.497799 210.27741 
L 556.263432 211.705739 
L 556.125371 213.134068 
L 556.084755 214.562397 
L 556.142645 215.990725 
L 556.300076 217.419054 
L 556.557998 218.847383 
L 556.917097 220.275712 
L 557.377533 221.70404 
L 557.93859 223.132369 
L 558.598275 224.560698 
L 559.35289 225.989027 
L 560.196629 227.417355 
L 561.121207 228.845684 
L 562.115595 230.274013 
L 563.165866 231.702342 
L 564.255201 233.13067 
L 565.364058 234.558999 
L 566.470537 235.987328 
L 567.550916 237.415657 
L 568.580357 238.843985 
L 569.533747 240.272314 
L 570.386636 241.700643 
L 571.116216 243.128972 
L 571.702293 244.5573 
L 572.128176 245.985629 
L 572.381449 247.413958 
L 572.454545 248.842287 
L 572.345119 250.270615 
L 572.056152 251.698944 
L 571.595819 253.127273 
z
" clip-path="url(#pea1762af79)" style="fill: #1f77b4; fill-opacity: 0.3"/>
   </g>
   <g id="PolyCollection_8">
    <path d="M 628.95164 322.4155 
L 628.255633 322.4155 
L 628.196975 320.872905 
L 628.134742 319.33031 
L 628.069518 317.787715 
L 628.001895 316.24512 
L 627.932463 314.702525 
L 627.861795 313.15993 
L 627.790457 311.617335 
L 627.719009 310.07474 
L 627.648025 308.532145 
L 627.578124 306.98955 
L 627.509999 305.446955 
L 627.444457 303.90436 
L 627.382436 302.361764 
L 627.324988 300.819169 
L 627.273223 299.276574 
L 627.228207 297.733979 
L 627.190821 296.191384 
L 627.161618 294.648789 
L 627.140697 293.106194 
L 627.12763 291.563599 
L 627.121441 290.021004 
L 627.12066 288.478409 
L 627.123413 286.935814 
L 627.127518 285.393219 
L 627.130575 283.850624 
L 627.129992 282.308029 
L 627.122967 280.765434 
L 627.106394 279.222839 
L 627.076734 277.680244 
L 627.02984 276.137649 
L 626.960795 274.595054 
L 626.863759 273.052459 
L 626.731897 271.509864 
L 626.557415 269.967269 
L 626.331777 268.424674 
L 626.046156 266.882079 
L 625.692179 265.339483 
L 625.262971 263.796888 
L 624.754475 262.254293 
L 624.166913 260.711698 
L 623.506213 259.169103 
L 622.785126 257.626508 
L 622.02375 256.083913 
L 621.249213 254.541318 
L 620.494329 252.998723 
L 619.795253 251.456128 
L 619.1883 249.913533 
L 618.706312 248.370938 
L 618.375059 246.828343 
L 618.210245 245.285748 
L 618.215579 243.743153 
L 618.382245 242.200558 
L 618.689856 240.657963 
L 619.108734 239.115368 
L 619.603146 237.572773 
L 620.135006 236.030178 
L 620.667508 234.487583 
L 621.168236 232.944988 
L 621.611444 231.402393 
L 621.979355 229.859798 
L 622.262514 228.317202 
L 622.459359 226.774607 
L 622.575217 225.232012 
L 622.620977 223.689417 
L 622.611624 222.146822 
L 622.564761 220.604227 
L 622.499168 219.061632 
L 622.433401 217.519037 
L 622.384378 215.976442 
L 622.365941 214.433847 
L 622.387359 212.891252 
L 622.451855 211.348657 
L 622.555234 209.806062 
L 622.684805 208.263467 
L 622.818817 206.720872 
L 622.926653 205.178277 
L 622.970042 203.635682 
L 622.90548 202.093087 
L 622.68796 200.550492 
L 622.275909 199.007897 
L 621.637027 197.465302 
L 620.754399 195.922707 
L 619.63207 194.380112 
L 618.299049 192.837517 
L 616.810772 191.294921 
L 615.247231 189.752326 
L 613.70748 188.209731 
L 612.300815 186.667136 
L 611.135595 185.124541 
L 610.307244 183.581946 
L 609.887273 182.039351 
L 609.915049 180.496756 
L 610.39368 178.954161 
L 611.290567 177.411566 
L 612.542433 175.868971 
L 614.063784 174.326376 
L 615.757318 172.783781 
L 617.524576 171.241186 
L 619.275306 169.698591 
L 637.931967 169.698591 
L 637.931967 169.698591 
L 639.682697 171.241186 
L 641.449954 172.783781 
L 643.143489 174.326376 
L 644.66484 175.868971 
L 645.916706 177.411566 
L 646.813593 178.954161 
L 647.292223 180.496756 
L 647.32 182.039351 
L 646.900028 183.581946 
L 646.071678 185.124541 
L 644.906457 186.667136 
L 643.499792 188.209731 
L 641.960042 189.752326 
L 640.3965 191.294921 
L 638.908223 192.837517 
L 637.575203 194.380112 
L 636.452874 195.922707 
L 635.570246 197.465302 
L 634.931363 199.007897 
L 634.519313 200.550492 
L 634.301792 202.093087 
L 634.237231 203.635682 
L 634.28062 205.178277 
L 634.388456 206.720872 
L 634.522468 208.263467 
L 634.652039 209.806062 
L 634.755417 211.348657 
L 634.819913 212.891252 
L 634.841332 214.433847 
L 634.822895 215.976442 
L 634.773872 217.519037 
L 634.708104 219.061632 
L 634.642512 220.604227 
L 634.595649 222.146822 
L 634.586296 223.689417 
L 634.632056 225.232012 
L 634.747914 226.774607 
L 634.944759 228.317202 
L 635.227918 229.859798 
L 635.595828 231.402393 
L 636.039037 232.944988 
L 636.539765 234.487583 
L 637.072267 236.030178 
L 637.604127 237.572773 
L 638.098539 239.115368 
L 638.517417 240.657963 
L 638.825028 242.200558 
L 638.991694 243.743153 
L 638.997028 245.285748 
L 638.832213 246.828343 
L 638.500961 248.370938 
L 638.018972 249.913533 
L 637.41202 251.456128 
L 636.712944 252.998723 
L 635.95806 254.541318 
L 635.183522 256.083913 
L 634.422147 257.626508 
L 633.70106 259.169103 
L 633.04036 260.711698 
L 632.452798 262.254293 
L 631.944302 263.796888 
L 631.515094 265.339483 
L 631.161116 266.882079 
L 630.875496 268.424674 
L 630.649858 269.967269 
L 630.475376 271.509864 
L 630.343514 273.052459 
L 630.246478 274.595054 
L 630.177432 276.137649 
L 630.130539 277.680244 
L 630.100879 279.222839 
L 630.084306 280.765434 
L 630.07728 282.308029 
L 630.076698 283.850624 
L 630.079754 285.393219 
L 630.08386 286.935814 
L 630.086613 288.478409 
L 630.085832 290.021004 
L 630.079643 291.563599 
L 630.066575 293.106194 
L 630.045655 294.648789 
L 630.016452 296.191384 
L 629.979066 297.733979 
L 629.934049 299.276574 
L 629.882285 300.819169 
L 629.824837 302.361764 
L 629.762815 303.90436 
L 629.697274 305.446955 
L 629.629149 306.98955 
L 629.559247 308.532145 
L 629.488264 310.07474 
L 629.416816 311.617335 
L 629.345478 313.15993 
L 629.27481 314.702525 
L 629.205377 316.24512 
L 629.137755 317.787715 
L 629.072531 319.33031 
L 629.010297 320.872905 
L 628.95164 322.4155 
z
" clip-path="url(#pea1762af79)" style="fill: #1f77b4; fill-opacity: 0.3"/>
   </g>
   <g id="PolyCollection_9">
    <path d="M 704.124845 311.103136 
L 702.813337 311.103136 
L 702.746436 309.660524 
L 702.684285 308.217912 
L 702.62763 306.7753 
L 702.576702 305.332688 
L 702.531311 303.890076 
L 702.491008 302.447464 
L 702.455292 301.004852 
L 702.423792 299.56224 
L 702.396419 298.119628 
L 702.373429 296.677016 
L 702.355399 295.234404 
L 702.343099 293.791792 
L 702.337299 292.34918 
L 702.338519 290.906568 
L 702.34679 289.463956 
L 702.361438 288.021344 
L 702.380948 286.578732 
L 702.402918 285.13612 
L 702.424113 283.693508 
L 702.44061 282.250896 
L 702.448008 280.808284 
L 702.441669 279.365672 
L 702.416949 277.92306 
L 702.369387 276.480448 
L 702.294796 275.037836 
L 702.189272 273.595224 
L 702.049085 272.152612 
L 701.870496 270.71 
L 701.649555 269.267388 
L 701.381953 267.824775 
L 701.063027 266.382163 
L 700.688015 264.939551 
L 700.252623 263.496939 
L 699.75392 262.054327 
L 699.1915 260.611715 
L 698.568761 259.169103 
L 697.894082 257.726491 
L 697.181634 256.283879 
L 696.451576 254.841267 
L 695.729429 253.398655 
L 695.044588 251.956043 
L 694.428026 250.513431 
L 693.909476 249.070819 
L 693.514426 247.628207 
L 693.261394 246.185595 
L 693.159868 244.742983 
L 693.209239 243.300371 
L 693.398859 241.857759 
L 693.709189 240.415147 
L 694.113831 238.972535 
L 694.58212 237.529923 
L 695.081899 236.087311 
L 695.582127 234.644699 
L 696.05507 233.202087 
L 696.477885 231.759475 
L 696.833589 230.316863 
L 697.111445 228.874251 
L 697.306878 227.431639 
L 697.421065 225.989027 
L 697.460311 224.546415 
L 697.435297 223.103803 
L 697.360244 221.661191 
L 697.251998 220.218579 
L 697.129008 218.775966 
L 697.010188 217.333354 
L 696.913626 215.890742 
L 696.855184 214.44813 
L 696.84702 213.005518 
L 696.896125 211.562906 
L 697.00297 210.120294 
L 697.160403 208.677682 
L 697.352919 207.23507 
L 697.55647 205.792458 
L 697.73894 204.349846 
L 697.861467 202.907234 
L 697.880713 201.464622 
L 697.752165 200.02201 
L 697.434413 198.579398 
L 696.89419 197.136786 
L 696.111753 195.694174 
L 695.08594 194.251562 
L 693.838102 192.80895 
L 692.414019 191.366338 
L 690.88307 189.923726 
L 689.334228 188.481114 
L 687.868954 187.038502 
L 686.591649 185.59589 
L 685.598862 184.153278 
L 684.968793 182.710666 
L 684.752727 181.268054 
L 684.969719 179.825442 
L 685.605341 178.38283 
L 686.614555 176.940218 
L 687.928088 175.497606 
L 689.461106 174.054994 
L 691.122759 172.612382 
L 692.825148 171.16977 
L 694.490616 169.727157 
L 696.056671 168.284545 
L 710.88151 168.284545 
L 710.88151 168.284545 
L 712.447566 169.727157 
L 714.113034 171.16977 
L 715.815423 172.612382 
L 717.477075 174.054994 
L 719.010094 175.497606 
L 720.323626 176.940218 
L 721.332841 178.38283 
L 721.968463 179.825442 
L 722.185455 181.268054 
L 721.969389 182.710666 
L 721.33932 184.153278 
L 720.346532 185.59589 
L 719.069228 187.038502 
L 717.603954 188.481114 
L 716.055112 189.923726 
L 714.524163 191.366338 
L 713.10008 192.80895 
L 711.852241 194.251562 
L 710.826429 195.694174 
L 710.043992 197.136786 
L 709.503769 198.579398 
L 709.186017 200.02201 
L 709.057468 201.464622 
L 709.076715 202.907234 
L 709.199242 204.349846 
L 709.381712 205.792458 
L 709.585263 207.23507 
L 709.777779 208.677682 
L 709.935211 210.120294 
L 710.042056 211.562906 
L 710.091161 213.005518 
L 710.082998 214.44813 
L 710.024556 215.890742 
L 709.927994 217.333354 
L 709.809173 218.775966 
L 709.686184 220.218579 
L 709.577938 221.661191 
L 709.502885 223.103803 
L 709.477871 224.546415 
L 709.517117 225.989027 
L 709.631304 227.431639 
L 709.826737 228.874251 
L 710.104593 230.316863 
L 710.460297 231.759475 
L 710.883112 233.202087 
L 711.356054 234.644699 
L 711.856283 236.087311 
L 712.356061 237.529923 
L 712.824351 238.972535 
L 713.228993 240.415147 
L 713.539323 241.857759 
L 713.728943 243.300371 
L 713.778314 244.742983 
L 713.676788 246.185595 
L 713.423755 247.628207 
L 713.028706 249.070819 
L 712.510155 250.513431 
L 711.893594 251.956043 
L 711.208753 253.398655 
L 710.486606 254.841267 
L 709.756548 256.283879 
L 709.0441 257.726491 
L 708.369421 259.169103 
L 707.746682 260.611715 
L 707.184262 262.054327 
L 706.685559 263.496939 
L 706.250167 264.939551 
L 705.875154 266.382163 
L 705.556229 267.824775 
L 705.288627 269.267388 
L 705.067686 270.71 
L 704.889097 272.152612 
L 704.748909 273.595224 
L 704.643386 275.037836 
L 704.568795 276.480448 
L 704.521232 277.92306 
L 704.496513 279.365672 
L 704.490174 280.808284 
L 704.497572 282.250896 
L 704.514069 283.693508 
L 704.535264 285.13612 
L 704.557234 286.578732 
L 704.576744 288.021344 
L 704.591392 289.463956 
L 704.599663 290.906568 
L 704.600883 292.34918 
L 704.595082 293.791792 
L 704.582783 295.234404 
L 704.564752 296.677016 
L 704.541763 298.119628 
L 704.51439 299.56224 
L 704.48289 301.004852 
L 704.447173 302.447464 
L 704.406871 303.890076 
L 704.36148 305.332688 
L 704.310552 306.7753 
L 704.253897 308.217912 
L 704.191746 309.660524 
L 704.124845 311.103136 
z
" clip-path="url(#pea1762af79)" style="fill: #1f77b4; fill-opacity: 0.3"/>
   </g>
   <g id="PolyCollection_10">
    <path d="M 786.626342 323.829545 
L 770.042749 323.829545 
L 769.805247 322.401217 
L 769.640575 320.972888 
L 769.553114 319.544559 
L 769.545192 318.11623 
L 769.616978 316.687902 
L 769.766466 315.259573 
L 769.989557 313.831244 
L 770.280235 312.402916 
L 770.630818 310.974587 
L 771.032272 309.546258 
L 771.474573 308.117929 
L 771.947088 306.689601 
L 772.438959 305.261272 
L 772.939468 303.832943 
L 773.438362 302.404614 
L 773.926128 300.976286 
L 774.394205 299.547957 
L 774.835126 298.119628 
L 775.242597 296.691299 
L 775.611507 295.262971 
L 775.937891 293.834642 
L 776.218835 292.406313 
L 776.452369 290.977984 
L 776.637324 289.549656 
L 776.773199 288.121327 
L 776.86003 286.692998 
L 776.898286 285.264669 
L 776.888786 283.836341 
L 776.832655 282.408012 
L 776.731312 280.979683 
L 776.58649 279.551354 
L 776.400291 278.123026 
L 776.175256 276.694697 
L 775.914447 275.266368 
L 775.621534 273.838039 
L 775.300863 272.409711 
L 774.957513 270.981382 
L 774.597302 269.553053 
L 774.226768 268.124725 
L 773.853088 266.696396 
L 773.483959 265.268067 
L 773.127415 263.839738 
L 772.791617 262.41141 
L 772.484597 260.983081 
L 772.213982 259.554752 
L 771.986719 258.126423 
L 771.808797 256.698095 
L 771.685008 255.269766 
L 771.618742 253.841437 
L 771.611839 252.413108 
L 771.664508 250.98478 
L 771.775312 249.556451 
L 771.941225 248.128122 
L 772.157759 246.699793 
L 772.419143 245.271465 
L 772.718551 243.843136 
L 773.048357 242.414807 
L 773.400409 240.986478 
L 773.766291 239.55815 
L 774.137572 238.129821 
L 774.506016 236.701492 
L 774.863758 235.273163 
L 775.203414 233.844835 
L 775.518152 232.416506 
L 775.801706 230.988177 
L 776.048342 229.559848 
L 776.252793 228.13152 
L 776.410168 226.703191 
L 776.515848 225.274862 
L 776.56539 223.846534 
L 776.554453 222.418205 
L 776.478753 220.989876 
L 776.334065 219.561547 
L 776.116289 218.133219 
L 775.821563 216.70489 
L 775.446449 215.276561 
L 774.988174 213.848232 
L 774.444922 212.419904 
L 773.81616 210.991575 
L 773.102984 209.563246 
L 772.308454 208.134917 
L 771.437905 206.706589 
L 770.499194 205.27826 
L 769.502858 203.849931 
L 768.462168 202.421602 
L 767.393043 200.993274 
L 766.313829 199.564945 
L 765.244913 198.136616 
L 764.208205 196.708287 
L 763.22648 195.279959 
L 762.322615 193.85163 
L 761.518758 192.423301 
L 760.835462 190.994972 
L 760.290843 189.566644 
L 759.899804 188.138315 
L 759.673369 186.709986 
L 759.618182 185.281657 
L 759.736187 183.853329 
L 760.024528 182.425 
L 796.644563 182.425 
L 796.644563 182.425 
L 796.932904 183.853329 
L 797.050909 185.281657 
L 796.995722 186.709986 
L 796.769287 188.138315 
L 796.378248 189.566644 
L 795.833629 190.994972 
L 795.150333 192.423301 
L 794.346476 193.85163 
L 793.442611 195.279959 
L 792.460886 196.708287 
L 791.424178 198.136616 
L 790.355262 199.564945 
L 789.276048 200.993274 
L 788.206923 202.421602 
L 787.166233 203.849931 
L 786.169897 205.27826 
L 785.231186 206.706589 
L 784.360637 208.134917 
L 783.566107 209.563246 
L 782.852931 210.991575 
L 782.224169 212.419904 
L 781.680917 213.848232 
L 781.222642 215.276561 
L 780.847528 216.70489 
L 780.552801 218.133219 
L 780.335025 219.561547 
L 780.190338 220.989876 
L 780.114638 222.418205 
L 780.103701 223.846534 
L 780.153243 225.274862 
L 780.258923 226.703191 
L 780.416297 228.13152 
L 780.620749 229.559848 
L 780.867385 230.988177 
L 781.150939 232.416506 
L 781.465677 233.844835 
L 781.805333 235.273163 
L 782.163075 236.701492 
L 782.531519 238.129821 
L 782.9028 239.55815 
L 783.268682 240.986478 
L 783.620734 242.414807 
L 783.95054 243.843136 
L 784.249948 245.271465 
L 784.511332 246.699793 
L 784.727866 248.128122 
L 784.893779 249.556451 
L 785.004583 250.98478 
L 785.057252 252.413108 
L 785.050349 253.841437 
L 784.984083 255.269766 
L 784.860294 256.698095 
L 784.682372 258.126423 
L 784.455109 259.554752 
L 784.184494 260.983081 
L 783.877474 262.41141 
L 783.541676 263.839738 
L 783.185132 265.268067 
L 782.816002 266.696396 
L 782.442323 268.124725 
L 782.071789 269.553053 
L 781.711578 270.981382 
L 781.368228 272.409711 
L 781.047557 273.838039 
L 780.754644 275.266368 
L 780.493835 276.694697 
L 780.2688 278.123026 
L 780.082601 279.551354 
L 779.937779 280.979683 
L 779.836436 282.408012 
L 779.780305 283.836341 
L 779.770805 285.264669 
L 779.809061 286.692998 
L 779.895892 288.121327 
L 780.031767 289.549656 
L 780.216722 290.977984 
L 780.450256 292.406313 
L 780.7312 293.834642 
L 781.057584 295.262971 
L 781.426494 296.691299 
L 781.833964 298.119628 
L 782.274885 299.547957 
L 782.742962 300.976286 
L 783.230729 302.404614 
L 783.729623 303.832943 
L 784.230132 305.261272 
L 784.722003 306.689601 
L 785.194518 308.117929 
L 785.636818 309.546258 
L 786.038273 310.974587 
L 786.388856 312.402916 
L 786.679534 313.831244 
L 786.902625 315.259573 
L 787.052113 316.687902 
L 787.123899 318.11623 
L 787.115977 319.544559 
L 787.028516 320.972888 
L 786.863843 322.401217 
L 786.626342 323.829545 
z
" clip-path="url(#pea1762af79)" style="fill: #1f77b4; fill-opacity: 0.3"/>
   </g>
   <g id="matplotlib.axis_1">
    <g id="xtick_1">
     <g id="line2d_1">
      <defs>
       <path id="m36b548299e" d="M 0 0 
L 0 3.5 
" style="stroke: #000000; stroke-width: 0.8"/>
      </defs>
      <g>
       <use xlink:href="#m36b548299e" x="104.545455" y="337.97" style="stroke: #000000; stroke-width: 0.8"/>
      </g>
     </g>
     <g id="text_1">
      <!-- Grudger -->
      <g transform="translate(106.752955 377.89625)rotate(-90)scale(0.08 -0.08)">
       <defs>
        <path id="DejaVuSans-47" d="M 3809 666 
L 3809 1919 
L 2778 1919 
L 2778 2438 
L 4434 2438 
L 4434 434 
Q 4069 175 3628 42 
Q 3188 -91 2688 -91 
Q 1594 -91 976 548 
Q 359 1188 359 2328 
Q 359 3472 976 4111 
Q 1594 4750 2688 4750 
Q 3144 4750 3555 4637 
Q 3966 4525 4313 4306 
L 4313 3634 
Q 3963 3931 3569 4081 
Q 3175 4231 2741 4231 
Q 1884 4231 1454 3753 
Q 1025 3275 1025 2328 
Q 1025 1384 1454 906 
Q 1884 428 2741 428 
Q 3075 428 3337 486 
Q 3600 544 3809 666 
z
" transform="scale(0.015625)"/>
        <path id="DejaVuSans-72" d="M 2631 2963 
Q 2534 3019 2420 3045 
Q 2306 3072 2169 3072 
Q 1681 3072 1420 2755 
Q 1159 2438 1159 1844 
L 1159 0 
L 581 0 
L 581 3500 
L 1159 3500 
L 1159 2956 
Q 1341 3275 1631 3429 
Q 1922 3584 2338 3584 
Q 2397 3584 2469 3576 
Q 2541 3569 2628 3553 
L 2631 2963 
z
" transform="scale(0.015625)"/>
        <path id="DejaVuSans-75" d="M 544 1381 
L 544 3500 
L 1119 3500 
L 1119 1403 
Q 1119 906 1312 657 
Q 1506 409 1894 409 
Q 2359 409 2629 706 
Q 2900 1003 2900 1516 
L 2900 3500 
L 3475 3500 
L 3475 0 
L 2900 0 
L 2900 538 
Q 2691 219 2414 64 
Q 2138 -91 1772 -91 
Q 1169 -91 856 284 
Q 544 659 544 1381 
z
M 1991 3584 
L 1991 3584 
z
" transform="scale(0.015625)"/>
        <path id="DejaVuSans-64" d="M 2906 2969 
L 2906 4863 
L 3481 4863 
L 3481 0 
L 2906 0 
L 2906 525 
Q 2725 213 2448 61 
Q 2172 -91 1784 -91 
Q 1150 -91 751 415 
Q 353 922 353 1747 
Q 353 2572 751 3078 
Q 1150 3584 1784 3584 
Q 2172 3584 2448 3432 
Q 2725 3281 2906 2969 
z
M 947 1747 
Q 947 1113 1208 752 
Q 1469 391 1925 391 
Q 2381 391 2643 752 
Q 2906 1113 2906 1747 
Q 2906 2381 2643 2742 
Q 2381 3103 1925 3103 
Q 1469 3103 1208 2742 
Q 947 2381 947 1747 
z
" transform="scale(0.015625)"/>
        <path id="DejaVuSans-67" d="M 2906 1791 
Q 2906 2416 2648 2759 
Q 2391 3103 1925 3103 
Q 1463 3103 1205 2759 
Q 947 2416 947 1791 
Q 947 1169 1205 825 
Q 1463 481 1925 481 
Q 2391 481 2648 825 
Q 2906 1169 2906 1791 
z
M 3481 434 
Q 3481 -459 3084 -895 
Q 2688 -1331 1869 -1331 
Q 1566 -1331 1297 -1286 
Q 1028 -1241 775 -1147 
L 775 -588 
Q 1028 -725 1275 -790 
Q 1522 -856 1778 -856 
Q 2344 -856 2625 -561 
Q 2906 -266 2906 331 
L 2906 616 
Q 2728 306 2450 153 
Q 2172 0 1784 0 
Q 1141 0 747 490 
Q 353 981 353 1791 
Q 353 2603 747 3093 
Q 1141 3584 1784 3584 
Q 2172 3584 2450 3431 
Q 2728 3278 2906 2969 
L 2906 3500 
L 3481 3500 
L 3481 434 
z
" transform="scale(0.015625)"/>
        <path id="DejaVuSans-65" d="M 3597 1894 
L 3597 1613 
L 953 1613 
Q 991 1019 1311 708 
Q 1631 397 2203 397 
Q 2534 397 2845 478 
Q 3156 559 3463 722 
L 3463 178 
Q 3153 47 2828 -22 
Q 2503 -91 2169 -91 
Q 1331 -91 842 396 
Q 353 884 353 1716 
Q 353 2575 817 3079 
Q 1281 3584 2069 3584 
Q 2775 3584 3186 3129 
Q 3597 2675 3597 1894 
z
M 3022 2063 
Q 3016 2534 2758 2815 
Q 2500 3097 2075 3097 
Q 1594 3097 1305 2825 
Q 1016 2553 972 2059 
L 3022 2063 
z
" transform="scale(0.015625)"/>
       </defs>
       <use xlink:href="#DejaVuSans-47"/>
       <use xlink:href="#DejaVuSans-72" x="77.490234"/>
       <use xlink:href="#DejaVuSans-75" x="118.603516"/>
       <use xlink:href="#DejaVuSans-64" x="181.982422"/>
       <use xlink:href="#DejaVuSans-67" x="245.458984"/>
       <use xlink:href="#DejaVuSans-65" x="308.935547"/>
       <use xlink:href="#DejaVuSans-72" x="370.458984"/>
      </g>
     </g>
    </g>
    <g id="xtick_2">
     <g id="line2d_2">
      <g>
       <use xlink:href="#m36b548299e" x="179.410909" y="337.97" style="stroke: #000000; stroke-width: 0.8"/>
      </g>
     </g>
     <g id="text_2">
      <!-- Adaptive -->
      <g transform="translate(181.618409 380.37875)rotate(-90)scale(0.08 -0.08)">
       <defs>
        <path id="DejaVuSans-41" d="M 2188 4044 
L 1331 1722 
L 3047 1722 
L 2188 4044 
z
M 1831 4666 
L 2547 4666 
L 4325 0 
L 3669 0 
L 3244 1197 
L 1141 1197 
L 716 0 
L 50 0 
L 1831 4666 
z
" transform="scale(0.015625)"/>
        <path id="DejaVuSans-61" d="M 2194 1759 
Q 1497 1759 1228 1600 
Q 959 1441 959 1056 
Q 959 750 1161 570 
Q 1363 391 1709 391 
Q 2188 391 2477 730 
Q 2766 1069 2766 1631 
L 2766 1759 
L 2194 1759 
z
M 3341 1997 
L 3341 0 
L 2766 0 
L 2766 531 
Q 2569 213 2275 61 
Q 1981 -91 1556 -91 
Q 1019 -91 701 211 
Q 384 513 384 1019 
Q 384 1609 779 1909 
Q 1175 2209 1959 2209 
L 2766 2209 
L 2766 2266 
Q 2766 2663 2505 2880 
Q 2244 3097 1772 3097 
Q 1472 3097 1187 3025 
Q 903 2953 641 2809 
L 641 3341 
Q 956 3463 1253 3523 
Q 1550 3584 1831 3584 
Q 2591 3584 2966 3190 
Q 3341 2797 3341 1997 
z
" transform="scale(0.015625)"/>
        <path id="DejaVuSans-70" d="M 1159 525 
L 1159 -1331 
L 581 -1331 
L 581 3500 
L 1159 3500 
L 1159 2969 
Q 1341 3281 1617 3432 
Q 1894 3584 2278 3584 
Q 2916 3584 3314 3078 
Q 3713 2572 3713 1747 
Q 3713 922 3314 415 
Q 2916 -91 2278 -91 
Q 1894 -91 1617 61 
Q 1341 213 1159 525 
z
M 3116 1747 
Q 3116 2381 2855 2742 
Q 2594 3103 2138 3103 
Q 1681 3103 1420 2742 
Q 1159 2381 1159 1747 
Q 1159 1113 1420 752 
Q 1681 391 2138 391 
Q 2594 391 2855 752 
Q 3116 1113 3116 1747 
z
" transform="scale(0.015625)"/>
        <path id="DejaVuSans-74" d="M 1172 4494 
L 1172 3500 
L 2356 3500 
L 2356 3053 
L 1172 3053 
L 1172 1153 
Q 1172 725 1289 603 
Q 1406 481 1766 481 
L 2356 481 
L 2356 0 
L 1766 0 
Q 1100 0 847 248 
Q 594 497 594 1153 
L 594 3053 
L 172 3053 
L 172 3500 
L 594 3500 
L 594 4494 
L 1172 4494 
z
" transform="scale(0.015625)"/>
        <path id="DejaVuSans-69" d="M 603 3500 
L 1178 3500 
L 1178 0 
L 603 0 
L 603 3500 
z
M 603 4863 
L 1178 4863 
L 1178 4134 
L 603 4134 
L 603 4863 
z
" transform="scale(0.015625)"/>
        <path id="DejaVuSans-76" d="M 191 3500 
L 800 3500 
L 1894 563 
L 2988 3500 
L 3597 3500 
L 2284 0 
L 1503 0 
L 191 3500 
z
" transform="scale(0.015625)"/>
       </defs>
       <use xlink:href="#DejaVuSans-41"/>
       <use xlink:href="#DejaVuSans-64" x="66.658203"/>
       <use xlink:href="#DejaVuSans-61" x="130.134766"/>
       <use xlink:href="#DejaVuSans-70" x="191.414062"/>
       <use xlink:href="#DejaVuSans-74" x="254.890625"/>
       <use xlink:href="#DejaVuSans-69" x="294.099609"/>
       <use xlink:href="#DejaVuSans-76" x="321.882812"/>
       <use xlink:href="#DejaVuSans-65" x="381.0625"/>
      </g>
     </g>
    </g>
    <g id="xtick_3">
     <g id="line2d_3">
      <g>
       <use xlink:href="#m36b548299e" x="254.276364" y="337.97" style="stroke: #000000; stroke-width: 0.8"/>
      </g>
     </g>
     <g id="text_3">
      <!-- Tit For Tat -->
      <g transform="translate(256.483864 384.15)rotate(-90)scale(0.08 -0.08)">
       <defs>
        <path id="DejaVuSans-54" d="M -19 4666 
L 3928 4666 
L 3928 4134 
L 2272 4134 
L 2272 0 
L 1638 0 
L 1638 4134 
L -19 4134 
L -19 4666 
z
" transform="scale(0.015625)"/>
        <path id="DejaVuSans-20" transform="scale(0.015625)"/>
        <path id="DejaVuSans-46" d="M 628 4666 
L 3309 4666 
L 3309 4134 
L 1259 4134 
L 1259 2759 
L 3109 2759 
L 3109 2228 
L 1259 2228 
L 1259 0 
L 628 0 
L 628 4666 
z
" transform="scale(0.015625)"/>
        <path id="DejaVuSans-6f" d="M 1959 3097 
Q 1497 3097 1228 2736 
Q 959 2375 959 1747 
Q 959 1119 1226 758 
Q 1494 397 1959 397 
Q 2419 397 2687 759 
Q 2956 1122 2956 1747 
Q 2956 2369 2687 2733 
Q 2419 3097 1959 3097 
z
M 1959 3584 
Q 2709 3584 3137 3096 
Q 3566 2609 3566 1747 
Q 3566 888 3137 398 
Q 2709 -91 1959 -91 
Q 1206 -91 779 398 
Q 353 888 353 1747 
Q 353 2609 779 3096 
Q 1206 3584 1959 3584 
z
" transform="scale(0.015625)"/>
       </defs>
       <use xlink:href="#DejaVuSans-54"/>
       <use xlink:href="#DejaVuSans-69" x="57.958984"/>
       <use xlink:href="#DejaVuSans-74" x="85.742188"/>
       <use xlink:href="#DejaVuSans-20" x="124.951172"/>
       <use xlink:href="#DejaVuSans-46" x="156.738281"/>
       <use xlink:href="#DejaVuSans-6f" x="210.632812"/>
       <use xlink:href="#DejaVuSans-72" x="271.814453"/>
       <use xlink:href="#DejaVuSans-20" x="312.927734"/>
       <use xlink:href="#DejaVuSans-54" x="344.714844"/>
       <use xlink:href="#DejaVuSans-61" x="389.298828"/>
       <use xlink:href="#DejaVuSans-74" x="450.578125"/>
      </g>
     </g>
    </g>
    <g id="xtick_4">
     <g id="line2d_4">
      <g>
       <use xlink:href="#m36b548299e" x="329.141818" y="337.97" style="stroke: #000000; stroke-width: 0.8"/>
      </g>
     </g>
     <g id="text_4">
      <!-- Random: 0.5 -->
      <g transform="translate(331.349318 396.0475)rotate(-90)scale(0.08 -0.08)">
       <defs>
        <path id="DejaVuSans-52" d="M 2841 2188 
Q 3044 2119 3236 1894 
Q 3428 1669 3622 1275 
L 4263 0 
L 3584 0 
L 2988 1197 
Q 2756 1666 2539 1819 
Q 2322 1972 1947 1972 
L 1259 1972 
L 1259 0 
L 628 0 
L 628 4666 
L 2053 4666 
Q 2853 4666 3247 4331 
Q 3641 3997 3641 3322 
Q 3641 2881 3436 2590 
Q 3231 2300 2841 2188 
z
M 1259 4147 
L 1259 2491 
L 2053 2491 
Q 2509 2491 2742 2702 
Q 2975 2913 2975 3322 
Q 2975 3731 2742 3939 
Q 2509 4147 2053 4147 
L 1259 4147 
z
" transform="scale(0.015625)"/>
        <path id="DejaVuSans-6e" d="M 3513 2113 
L 3513 0 
L 2938 0 
L 2938 2094 
Q 2938 2591 2744 2837 
Q 2550 3084 2163 3084 
Q 1697 3084 1428 2787 
Q 1159 2491 1159 1978 
L 1159 0 
L 581 0 
L 581 3500 
L 1159 3500 
L 1159 2956 
Q 1366 3272 1645 3428 
Q 1925 3584 2291 3584 
Q 2894 3584 3203 3211 
Q 3513 2838 3513 2113 
z
" transform="scale(0.015625)"/>
        <path id="DejaVuSans-6d" d="M 3328 2828 
Q 3544 3216 3844 3400 
Q 4144 3584 4550 3584 
Q 5097 3584 5394 3201 
Q 5691 2819 5691 2113 
L 5691 0 
L 5113 0 
L 5113 2094 
Q 5113 2597 4934 2840 
Q 4756 3084 4391 3084 
Q 3944 3084 3684 2787 
Q 3425 2491 3425 1978 
L 3425 0 
L 2847 0 
L 2847 2094 
Q 2847 2600 2669 2842 
Q 2491 3084 2119 3084 
Q 1678 3084 1418 2786 
Q 1159 2488 1159 1978 
L 1159 0 
L 581 0 
L 581 3500 
L 1159 3500 
L 1159 2956 
Q 1356 3278 1631 3431 
Q 1906 3584 2284 3584 
Q 2666 3584 2933 3390 
Q 3200 3197 3328 2828 
z
" transform="scale(0.015625)"/>
        <path id="DejaVuSans-3a" d="M 750 794 
L 1409 794 
L 1409 0 
L 750 0 
L 750 794 
z
M 750 3309 
L 1409 3309 
L 1409 2516 
L 750 2516 
L 750 3309 
z
" transform="scale(0.015625)"/>
        <path id="DejaVuSans-30" d="M 2034 4250 
Q 1547 4250 1301 3770 
Q 1056 3291 1056 2328 
Q 1056 1369 1301 889 
Q 1547 409 2034 409 
Q 2525 409 2770 889 
Q 3016 1369 3016 2328 
Q 3016 3291 2770 3770 
Q 2525 4250 2034 4250 
z
M 2034 4750 
Q 2819 4750 3233 4129 
Q 3647 3509 3647 2328 
Q 3647 1150 3233 529 
Q 2819 -91 2034 -91 
Q 1250 -91 836 529 
Q 422 1150 422 2328 
Q 422 3509 836 4129 
Q 1250 4750 2034 4750 
z
" transform="scale(0.015625)"/>
        <path id="DejaVuSans-2e" d="M 684 794 
L 1344 794 
L 1344 0 
L 684 0 
L 684 794 
z
" transform="scale(0.015625)"/>
        <path id="DejaVuSans-35" d="M 691 4666 
L 3169 4666 
L 3169 4134 
L 1269 4134 
L 1269 2991 
Q 1406 3038 1543 3061 
Q 1681 3084 1819 3084 
Q 2600 3084 3056 2656 
Q 3513 2228 3513 1497 
Q 3513 744 3044 326 
Q 2575 -91 1722 -91 
Q 1428 -91 1123 -41 
Q 819 9 494 109 
L 494 744 
Q 775 591 1075 516 
Q 1375 441 1709 441 
Q 2250 441 2565 725 
Q 2881 1009 2881 1497 
Q 2881 1984 2565 2268 
Q 2250 2553 1709 2553 
Q 1456 2553 1204 2497 
Q 953 2441 691 2322 
L 691 4666 
z
" transform="scale(0.015625)"/>
       </defs>
       <use xlink:href="#DejaVuSans-52"/>
       <use xlink:href="#DejaVuSans-61" x="67.232422"/>
       <use xlink:href="#DejaVuSans-6e" x="128.511719"/>
       <use xlink:href="#DejaVuSans-64" x="191.890625"/>
       <use xlink:href="#DejaVuSans-6f" x="255.367188"/>
       <use xlink:href="#DejaVuSans-6d" x="316.548828"/>
       <use xlink:href="#DejaVuSans-3a" x="413.960938"/>
       <use xlink:href="#DejaVuSans-20" x="447.652344"/>
       <use xlink:href="#DejaVuSans-30" x="479.439453"/>
       <use xlink:href="#DejaVuSans-2e" x="543.0625"/>
       <use xlink:href="#DejaVuSans-35" x="574.849609"/>
      </g>
     </g>
    </g>
    <g id="xtick_5">
     <g id="line2d_5">
      <g>
       <use xlink:href="#m36b548299e" x="404.007273" y="337.97" style="stroke: #000000; stroke-width: 0.8"/>
      </g>
     </g>
     <g id="text_5">
      <!-- Defector -->
      <g transform="translate(406.214773 379.51)rotate(-90)scale(0.08 -0.08)">
       <defs>
        <path id="DejaVuSans-44" d="M 1259 4147 
L 1259 519 
L 2022 519 
Q 2988 519 3436 956 
Q 3884 1394 3884 2338 
Q 3884 3275 3436 3711 
Q 2988 4147 2022 4147 
L 1259 4147 
z
M 628 4666 
L 1925 4666 
Q 3281 4666 3915 4102 
Q 4550 3538 4550 2338 
Q 4550 1131 3912 565 
Q 3275 0 1925 0 
L 628 0 
L 628 4666 
z
" transform="scale(0.015625)"/>
        <path id="DejaVuSans-66" d="M 2375 4863 
L 2375 4384 
L 1825 4384 
Q 1516 4384 1395 4259 
Q 1275 4134 1275 3809 
L 1275 3500 
L 2222 3500 
L 2222 3053 
L 1275 3053 
L 1275 0 
L 697 0 
L 697 3053 
L 147 3053 
L 147 3500 
L 697 3500 
L 697 3744 
Q 697 4328 969 4595 
Q 1241 4863 1831 4863 
L 2375 4863 
z
" transform="scale(0.015625)"/>
        <path id="DejaVuSans-63" d="M 3122 3366 
L 3122 2828 
Q 2878 2963 2633 3030 
Q 2388 3097 2138 3097 
Q 1578 3097 1268 2742 
Q 959 2388 959 1747 
Q 959 1106 1268 751 
Q 1578 397 2138 397 
Q 2388 397 2633 464 
Q 2878 531 3122 666 
L 3122 134 
Q 2881 22 2623 -34 
Q 2366 -91 2075 -91 
Q 1284 -91 818 406 
Q 353 903 353 1747 
Q 353 2603 823 3093 
Q 1294 3584 2113 3584 
Q 2378 3584 2631 3529 
Q 2884 3475 3122 3366 
z
" transform="scale(0.015625)"/>
       </defs>
       <use xlink:href="#DejaVuSans-44"/>
       <use xlink:href="#DejaVuSans-65" x="77.001953"/>
       <use xlink:href="#DejaVuSans-66" x="138.525391"/>
       <use xlink:href="#DejaVuSans-65" x="173.730469"/>
       <use xlink:href="#DejaVuSans-63" x="235.253906"/>
       <use xlink:href="#DejaVuSans-74" x="290.234375"/>
       <use xlink:href="#DejaVuSans-6f" x="329.443359"/>
       <use xlink:href="#DejaVuSans-72" x="390.625"/>
      </g>
     </g>
    </g>
    <g id="xtick_6">
     <g id="line2d_6">
      <g>
       <use xlink:href="#m36b548299e" x="478.872727" y="337.97" style="stroke: #000000; stroke-width: 0.8"/>
      </g>
     </g>
     <g id="text_6">
      <!-- Deep QLearner -->
      <g transform="translate(481.080227 405.46625)rotate(-90)scale(0.08 -0.08)">
       <defs>
        <path id="DejaVuSans-51" d="M 2522 4238 
Q 1834 4238 1429 3725 
Q 1025 3213 1025 2328 
Q 1025 1447 1429 934 
Q 1834 422 2522 422 
Q 3209 422 3611 934 
Q 4013 1447 4013 2328 
Q 4013 3213 3611 3725 
Q 3209 4238 2522 4238 
z
M 3406 84 
L 4238 -825 
L 3475 -825 
L 2784 -78 
Q 2681 -84 2626 -87 
Q 2572 -91 2522 -91 
Q 1538 -91 948 567 
Q 359 1225 359 2328 
Q 359 3434 948 4092 
Q 1538 4750 2522 4750 
Q 3503 4750 4090 4092 
Q 4678 3434 4678 2328 
Q 4678 1516 4351 937 
Q 4025 359 3406 84 
z
" transform="scale(0.015625)"/>
        <path id="DejaVuSans-4c" d="M 628 4666 
L 1259 4666 
L 1259 531 
L 3531 531 
L 3531 0 
L 628 0 
L 628 4666 
z
" transform="scale(0.015625)"/>
       </defs>
       <use xlink:href="#DejaVuSans-44"/>
       <use xlink:href="#DejaVuSans-65" x="77.001953"/>
       <use xlink:href="#DejaVuSans-65" x="138.525391"/>
       <use xlink:href="#DejaVuSans-70" x="200.048828"/>
       <use xlink:href="#DejaVuSans-20" x="263.525391"/>
       <use xlink:href="#DejaVuSans-51" x="295.3125"/>
       <use xlink:href="#DejaVuSans-4c" x="374.023438"/>
       <use xlink:href="#DejaVuSans-65" x="427.986328"/>
       <use xlink:href="#DejaVuSans-61" x="489.509766"/>
       <use xlink:href="#DejaVuSans-72" x="550.789062"/>
       <use xlink:href="#DejaVuSans-6e" x="590.152344"/>
       <use xlink:href="#DejaVuSans-65" x="653.53125"/>
       <use xlink:href="#DejaVuSans-72" x="715.054688"/>
      </g>
     </g>
    </g>
    <g id="xtick_7">
     <g id="line2d_7">
      <g>
       <use xlink:href="#m36b548299e" x="553.738182" y="337.97" style="stroke: #000000; stroke-width: 0.8"/>
      </g>
     </g>
     <g id="text_7">
      <!-- Alternator -->
      <g transform="translate(555.945682 385.165)rotate(-90)scale(0.08 -0.08)">
       <defs>
        <path id="DejaVuSans-6c" d="M 603 4863 
L 1178 4863 
L 1178 0 
L 603 0 
L 603 4863 
z
" transform="scale(0.015625)"/>
       </defs>
       <use xlink:href="#DejaVuSans-41"/>
       <use xlink:href="#DejaVuSans-6c" x="68.408203"/>
       <use xlink:href="#DejaVuSans-74" x="96.191406"/>
       <use xlink:href="#DejaVuSans-65" x="135.400391"/>
       <use xlink:href="#DejaVuSans-72" x="196.923828"/>
       <use xlink:href="#DejaVuSans-6e" x="236.287109"/>
       <use xlink:href="#DejaVuSans-61" x="299.666016"/>
       <use xlink:href="#DejaVuSans-74" x="360.945312"/>
       <use xlink:href="#DejaVuSans-6f" x="400.154297"/>
       <use xlink:href="#DejaVuSans-72" x="461.335938"/>
      </g>
     </g>
    </g>
    <g id="xtick_8">
     <g id="line2d_8">
      <g>
       <use xlink:href="#m36b548299e" x="628.603636" y="337.97" style="stroke: #000000; stroke-width: 0.8"/>
      </g>
     </g>
     <g id="text_8">
      <!-- Risky QLearner -->
      <g transform="translate(630.811136 405.40875)rotate(-90)scale(0.08 -0.08)">
       <defs>
        <path id="DejaVuSans-73" d="M 2834 3397 
L 2834 2853 
Q 2591 2978 2328 3040 
Q 2066 3103 1784 3103 
Q 1356 3103 1142 2972 
Q 928 2841 928 2578 
Q 928 2378 1081 2264 
Q 1234 2150 1697 2047 
L 1894 2003 
Q 2506 1872 2764 1633 
Q 3022 1394 3022 966 
Q 3022 478 2636 193 
Q 2250 -91 1575 -91 
Q 1294 -91 989 -36 
Q 684 19 347 128 
L 347 722 
Q 666 556 975 473 
Q 1284 391 1588 391 
Q 1994 391 2212 530 
Q 2431 669 2431 922 
Q 2431 1156 2273 1281 
Q 2116 1406 1581 1522 
L 1381 1569 
Q 847 1681 609 1914 
Q 372 2147 372 2553 
Q 372 3047 722 3315 
Q 1072 3584 1716 3584 
Q 2034 3584 2315 3537 
Q 2597 3491 2834 3397 
z
" transform="scale(0.015625)"/>
        <path id="DejaVuSans-6b" d="M 581 4863 
L 1159 4863 
L 1159 1991 
L 2875 3500 
L 3609 3500 
L 1753 1863 
L 3688 0 
L 2938 0 
L 1159 1709 
L 1159 0 
L 581 0 
L 581 4863 
z
" transform="scale(0.015625)"/>
        <path id="DejaVuSans-79" d="M 2059 -325 
Q 1816 -950 1584 -1140 
Q 1353 -1331 966 -1331 
L 506 -1331 
L 506 -850 
L 844 -850 
Q 1081 -850 1212 -737 
Q 1344 -625 1503 -206 
L 1606 56 
L 191 3500 
L 800 3500 
L 1894 763 
L 2988 3500 
L 3597 3500 
L 2059 -325 
z
" transform="scale(0.015625)"/>
       </defs>
       <use xlink:href="#DejaVuSans-52"/>
       <use xlink:href="#DejaVuSans-69" x="69.482422"/>
       <use xlink:href="#DejaVuSans-73" x="97.265625"/>
       <use xlink:href="#DejaVuSans-6b" x="149.365234"/>
       <use xlink:href="#DejaVuSans-79" x="203.650391"/>
       <use xlink:href="#DejaVuSans-20" x="262.830078"/>
       <use xlink:href="#DejaVuSans-51" x="294.617188"/>
       <use xlink:href="#DejaVuSans-4c" x="373.328125"/>
       <use xlink:href="#DejaVuSans-65" x="427.291016"/>
       <use xlink:href="#DejaVuSans-61" x="488.814453"/>
       <use xlink:href="#DejaVuSans-72" x="550.09375"/>
       <use xlink:href="#DejaVuSans-6e" x="589.457031"/>
       <use xlink:href="#DejaVuSans-65" x="652.835938"/>
       <use xlink:href="#DejaVuSans-72" x="714.359375"/>
      </g>
     </g>
    </g>
    <g id="xtick_9">
     <g id="line2d_9">
      <g>
       <use xlink:href="#m36b548299e" x="703.469091" y="337.97" style="stroke: #000000; stroke-width: 0.8"/>
      </g>
     </g>
     <g id="text_9">
      <!-- Mediocre QLearner -->
      <g transform="translate(705.676591 420.83375)rotate(-90)scale(0.08 -0.08)">
       <defs>
        <path id="DejaVuSans-4d" d="M 628 4666 
L 1569 4666 
L 2759 1491 
L 3956 4666 
L 4897 4666 
L 4897 0 
L 4281 0 
L 4281 4097 
L 3078 897 
L 2444 897 
L 1241 4097 
L 1241 0 
L 628 0 
L 628 4666 
z
" transform="scale(0.015625)"/>
       </defs>
       <use xlink:href="#DejaVuSans-4d"/>
       <use xlink:href="#DejaVuSans-65" x="86.279297"/>
       <use xlink:href="#DejaVuSans-64" x="147.802734"/>
       <use xlink:href="#DejaVuSans-69" x="211.279297"/>
       <use xlink:href="#DejaVuSans-6f" x="239.0625"/>
       <use xlink:href="#DejaVuSans-63" x="300.244141"/>
       <use xlink:href="#DejaVuSans-72" x="355.224609"/>
       <use xlink:href="#DejaVuSans-65" x="394.087891"/>
       <use xlink:href="#DejaVuSans-20" x="455.611328"/>
       <use xlink:href="#DejaVuSans-51" x="487.398438"/>
       <use xlink:href="#DejaVuSans-4c" x="566.109375"/>
       <use xlink:href="#DejaVuSans-65" x="620.072266"/>
       <use xlink:href="#DejaVuSans-61" x="681.595703"/>
       <use xlink:href="#DejaVuSans-72" x="742.875"/>
       <use xlink:href="#DejaVuSans-6e" x="782.238281"/>
       <use xlink:href="#DejaVuSans-65" x="845.617188"/>
       <use xlink:href="#DejaVuSans-72" x="907.140625"/>
      </g>
     </g>
    </g>
    <g id="xtick_10">
     <g id="line2d_10">
      <g>
       <use xlink:href="#m36b548299e" x="778.334545" y="337.97" style="stroke: #000000; stroke-width: 0.8"/>
      </g>
     </g>
     <g id="text_10">
      <!-- Cooperator -->
      <g transform="translate(780.542045 389.85875)rotate(-90)scale(0.08 -0.08)">
       <defs>
        <path id="DejaVuSans-43" d="M 4122 4306 
L 4122 3641 
Q 3803 3938 3442 4084 
Q 3081 4231 2675 4231 
Q 1875 4231 1450 3742 
Q 1025 3253 1025 2328 
Q 1025 1406 1450 917 
Q 1875 428 2675 428 
Q 3081 428 3442 575 
Q 3803 722 4122 1019 
L 4122 359 
Q 3791 134 3420 21 
Q 3050 -91 2638 -91 
Q 1578 -91 968 557 
Q 359 1206 359 2328 
Q 359 3453 968 4101 
Q 1578 4750 2638 4750 
Q 3056 4750 3426 4639 
Q 3797 4528 4122 4306 
z
" transform="scale(0.015625)"/>
       </defs>
       <use xlink:href="#DejaVuSans-43"/>
       <use xlink:href="#DejaVuSans-6f" x="69.824219"/>
       <use xlink:href="#DejaVuSans-6f" x="131.005859"/>
       <use xlink:href="#DejaVuSans-70" x="192.1875"/>
       <use xlink:href="#DejaVuSans-65" x="255.664062"/>
       <use xlink:href="#DejaVuSans-72" x="317.1875"/>
       <use xlink:href="#DejaVuSans-61" x="358.300781"/>
       <use xlink:href="#DejaVuSans-74" x="419.580078"/>
       <use xlink:href="#DejaVuSans-6f" x="458.789062"/>
       <use xlink:href="#DejaVuSans-72" x="519.970703"/>
      </g>
     </g>
    </g>
   </g>
   <g id="matplotlib.axis_2">
    <g id="ytick_1">
     <g id="line2d_11">
      <defs>
       <path id="m3a7fff6941" d="M 0 0 
L -3.5 0 
" style="stroke: #000000; stroke-width: 0.8"/>
      </defs>
      <g>
       <use xlink:href="#m3a7fff6941" x="29.68" y="295.548636" style="stroke: #000000; stroke-width: 0.8"/>
      </g>
     </g>
     <g id="text_11">
      <!-- 4 -->
      <g transform="translate(10.88625 298.588011)scale(0.08 -0.08)">
       <defs>
        <path id="DejaVuSans-2212" d="M 678 2272 
L 4684 2272 
L 4684 1741 
L 678 1741 
L 678 2272 
z
" transform="scale(0.015625)"/>
        <path id="DejaVuSans-34" d="M 2419 4116 
L 825 1625 
L 2419 1625 
L 2419 4116 
z
M 2253 4666 
L 3047 4666 
L 3047 1625 
L 3713 1625 
L 3713 1100 
L 3047 1100 
L 3047 0 
L 2419 0 
L 2419 1100 
L 313 1100 
L 313 1709 
L 2253 4666 
z
" transform="scale(0.015625)"/>
       </defs>
       <use xlink:href="#DejaVuSans-2212"/>
       <use xlink:href="#DejaVuSans-34" x="83.789062"/>
      </g>
     </g>
    </g>
    <g id="ytick_2">
     <g id="line2d_12">
      <g>
       <use xlink:href="#m3a7fff6941" x="29.68" y="238.986818" style="stroke: #000000; stroke-width: 0.8"/>
      </g>
     </g>
     <g id="text_12">
      <!-- 2 -->
      <g transform="translate(10.88625 242.026193)scale(0.08 -0.08)">
       <defs>
        <path id="DejaVuSans-32" d="M 1228 531 
L 3431 531 
L 3431 0 
L 469 0 
L 469 531 
Q 828 903 1448 1529 
Q 2069 2156 2228 2338 
Q 2531 2678 2651 2914 
Q 2772 3150 2772 3378 
Q 2772 3750 2511 3984 
Q 2250 4219 1831 4219 
Q 1534 4219 1204 4116 
Q 875 4013 500 3803 
L 500 4441 
Q 881 4594 1212 4672 
Q 1544 4750 1819 4750 
Q 2544 4750 2975 4387 
Q 3406 4025 3406 3419 
Q 3406 3131 3298 2873 
Q 3191 2616 2906 2266 
Q 2828 2175 2409 1742 
Q 1991 1309 1228 531 
z
" transform="scale(0.015625)"/>
       </defs>
       <use xlink:href="#DejaVuSans-2212"/>
       <use xlink:href="#DejaVuSans-32" x="83.789062"/>
      </g>
     </g>
    </g>
    <g id="ytick_3">
     <g id="line2d_13">
      <g>
       <use xlink:href="#m3a7fff6941" x="29.68" y="182.425" style="stroke: #000000; stroke-width: 0.8"/>
      </g>
     </g>
     <g id="text_13">
      <!-- 0 -->
      <g transform="translate(17.59 185.464375)scale(0.08 -0.08)">
       <use xlink:href="#DejaVuSans-30"/>
      </g>
     </g>
    </g>
    <g id="ytick_4">
     <g id="line2d_14">
      <g>
       <use xlink:href="#m3a7fff6941" x="29.68" y="125.863182" style="stroke: #000000; stroke-width: 0.8"/>
      </g>
     </g>
     <g id="text_14">
      <!-- 2 -->
      <g transform="translate(17.59 128.902557)scale(0.08 -0.08)">
       <use xlink:href="#DejaVuSans-32"/>
      </g>
     </g>
    </g>
    <g id="ytick_5">
     <g id="line2d_15">
      <g>
       <use xlink:href="#m3a7fff6941" x="29.68" y="69.301364" style="stroke: #000000; stroke-width: 0.8"/>
      </g>
     </g>
     <g id="text_15">
      <!-- 4 -->
      <g transform="translate(17.59 72.340739)scale(0.08 -0.08)">
       <use xlink:href="#DejaVuSans-34"/>
      </g>
     </g>
    </g>
   </g>
   <g id="LineCollection_1">
    <path d="M 95.187273 159.09325 
L 113.903636 159.09325 
" clip-path="url(#pea1762af79)" style="fill: none; stroke: #1f77b4; stroke-width: 1.5"/>
    <path d="M 170.052727 155.558136 
L 188.769091 155.558136 
" clip-path="url(#pea1762af79)" style="fill: none; stroke: #1f77b4; stroke-width: 1.5"/>
    <path d="M 244.918182 182.425 
L 263.634545 182.425 
" clip-path="url(#pea1762af79)" style="fill: none; stroke: #1f77b4; stroke-width: 1.5"/>
    <path d="M 319.783636 182.425 
L 338.5 182.425 
" clip-path="url(#pea1762af79)" style="fill: none; stroke: #1f77b4; stroke-width: 1.5"/>
    <path d="M 394.649091 152.730045 
L 413.365455 152.730045 
" clip-path="url(#pea1762af79)" style="fill: none; stroke: #1f77b4; stroke-width: 1.5"/>
    <path d="M 469.514545 182.425 
L 488.230909 182.425 
" clip-path="url(#pea1762af79)" style="fill: none; stroke: #1f77b4; stroke-width: 1.5"/>
    <path d="M 544.38 181.010955 
L 563.096364 181.010955 
" clip-path="url(#pea1762af79)" style="fill: none; stroke: #1f77b4; stroke-width: 1.5"/>
    <path d="M 619.245455 207.877818 
L 637.961818 207.877818 
" clip-path="url(#pea1762af79)" style="fill: none; stroke: #1f77b4; stroke-width: 1.5"/>
    <path d="M 694.110909 207.877818 
L 712.827273 207.877818 
" clip-path="url(#pea1762af79)" style="fill: none; stroke: #1f77b4; stroke-width: 1.5"/>
    <path d="M 768.976364 192.323318 
L 787.692727 192.323318 
" clip-path="url(#pea1762af79)" style="fill: none; stroke: #1f77b4; stroke-width: 1.5"/>
   </g>
   <g id="patch_3">
    <path d="M 29.68 337.97 
L 29.68 26.88 
" style="fill: none; stroke: #000000; stroke-width: 0.8; stroke-linejoin: miter; stroke-linecap: square"/>
   </g>
   <g id="patch_4">
    <path d="M 853.2 337.97 
L 853.2 26.88 
" style="fill: none; stroke: #000000; stroke-width: 0.8; stroke-linejoin: miter; stroke-linecap: square"/>
   </g>
   <g id="patch_5">
    <path d="M 29.68 337.97 
L 853.2 337.97 
" style="fill: none; stroke: #000000; stroke-width: 0.8; stroke-linejoin: miter; stroke-linecap: square"/>
   </g>
   <g id="patch_6">
    <path d="M 29.68 26.88 
L 853.2 26.88 
" style="fill: none; stroke: #000000; stroke-width: 0.8; stroke-linejoin: miter; stroke-linecap: square"/>
   </g>
   <g id="text_16">
    <!-- Payoff differences - turns: 200, repetitions: 100, strategies: 10.  -->
    <g transform="translate(250.417813 20.88)scale(0.12 -0.12)">
     <defs>
      <path id="DejaVuSans-50" d="M 1259 4147 
L 1259 2394 
L 2053 2394 
Q 2494 2394 2734 2622 
Q 2975 2850 2975 3272 
Q 2975 3691 2734 3919 
Q 2494 4147 2053 4147 
L 1259 4147 
z
M 628 4666 
L 2053 4666 
Q 2838 4666 3239 4311 
Q 3641 3956 3641 3272 
Q 3641 2581 3239 2228 
Q 2838 1875 2053 1875 
L 1259 1875 
L 1259 0 
L 628 0 
L 628 4666 
z
" transform="scale(0.015625)"/>
      <path id="DejaVuSans-2d" d="M 313 2009 
L 1997 2009 
L 1997 1497 
L 313 1497 
L 313 2009 
z
" transform="scale(0.015625)"/>
      <path id="DejaVuSans-2c" d="M 750 794 
L 1409 794 
L 1409 256 
L 897 -744 
L 494 -744 
L 750 256 
L 750 794 
z
" transform="scale(0.015625)"/>
      <path id="DejaVuSans-31" d="M 794 531 
L 1825 531 
L 1825 4091 
L 703 3866 
L 703 4441 
L 1819 4666 
L 2450 4666 
L 2450 531 
L 3481 531 
L 3481 0 
L 794 0 
L 794 531 
z
" transform="scale(0.015625)"/>
     </defs>
     <use xlink:href="#DejaVuSans-50"/>
     <use xlink:href="#DejaVuSans-61" x="55.802734"/>
     <use xlink:href="#DejaVuSans-79" x="117.082031"/>
     <use xlink:href="#DejaVuSans-6f" x="176.261719"/>
     <use xlink:href="#DejaVuSans-66" x="237.443359"/>
     <use xlink:href="#DejaVuSans-66" x="272.648438"/>
     <use xlink:href="#DejaVuSans-20" x="307.853516"/>
     <use xlink:href="#DejaVuSans-64" x="339.640625"/>
     <use xlink:href="#DejaVuSans-69" x="403.117188"/>
     <use xlink:href="#DejaVuSans-66" x="430.900391"/>
     <use xlink:href="#DejaVuSans-66" x="466.105469"/>
     <use xlink:href="#DejaVuSans-65" x="501.310547"/>
     <use xlink:href="#DejaVuSans-72" x="562.833984"/>
     <use xlink:href="#DejaVuSans-65" x="601.697266"/>
     <use xlink:href="#DejaVuSans-6e" x="663.220703"/>
     <use xlink:href="#DejaVuSans-63" x="726.599609"/>
     <use xlink:href="#DejaVuSans-65" x="781.580078"/>
     <use xlink:href="#DejaVuSans-73" x="843.103516"/>
     <use xlink:href="#DejaVuSans-20" x="895.203125"/>
     <use xlink:href="#DejaVuSans-2d" x="926.990234"/>
     <use xlink:href="#DejaVuSans-20" x="963.074219"/>
     <use xlink:href="#DejaVuSans-74" x="994.861328"/>
     <use xlink:href="#DejaVuSans-75" x="1034.070312"/>
     <use xlink:href="#DejaVuSans-72" x="1097.449219"/>
     <use xlink:href="#DejaVuSans-6e" x="1136.8125"/>
     <use xlink:href="#DejaVuSans-73" x="1200.191406"/>
     <use xlink:href="#DejaVuSans-3a" x="1252.291016"/>
     <use xlink:href="#DejaVuSans-20" x="1285.982422"/>
     <use xlink:href="#DejaVuSans-32" x="1317.769531"/>
     <use xlink:href="#DejaVuSans-30" x="1381.392578"/>
     <use xlink:href="#DejaVuSans-30" x="1445.015625"/>
     <use xlink:href="#DejaVuSans-2c" x="1508.638672"/>
     <use xlink:href="#DejaVuSans-20" x="1540.425781"/>
     <use xlink:href="#DejaVuSans-72" x="1572.212891"/>
     <use xlink:href="#DejaVuSans-65" x="1611.076172"/>
     <use xlink:href="#DejaVuSans-70" x="1672.599609"/>
     <use xlink:href="#DejaVuSans-65" x="1736.076172"/>
     <use xlink:href="#DejaVuSans-74" x="1797.599609"/>
     <use xlink:href="#DejaVuSans-69" x="1836.808594"/>
     <use xlink:href="#DejaVuSans-74" x="1864.591797"/>
     <use xlink:href="#DejaVuSans-69" x="1903.800781"/>
     <use xlink:href="#DejaVuSans-6f" x="1931.583984"/>
     <use xlink:href="#DejaVuSans-6e" x="1992.765625"/>
     <use xlink:href="#DejaVuSans-73" x="2056.144531"/>
     <use xlink:href="#DejaVuSans-3a" x="2108.244141"/>
     <use xlink:href="#DejaVuSans-20" x="2141.935547"/>
     <use xlink:href="#DejaVuSans-31" x="2173.722656"/>
     <use xlink:href="#DejaVuSans-30" x="2237.345703"/>
     <use xlink:href="#DejaVuSans-30" x="2300.96875"/>
     <use xlink:href="#DejaVuSans-2c" x="2364.591797"/>
     <use xlink:href="#DejaVuSans-20" x="2396.378906"/>
     <use xlink:href="#DejaVuSans-73" x="2428.166016"/>
     <use xlink:href="#DejaVuSans-74" x="2480.265625"/>
     <use xlink:href="#DejaVuSans-72" x="2519.474609"/>
     <use xlink:href="#DejaVuSans-61" x="2560.587891"/>
     <use xlink:href="#DejaVuSans-74" x="2621.867188"/>
     <use xlink:href="#DejaVuSans-65" x="2661.076172"/>
     <use xlink:href="#DejaVuSans-67" x="2722.599609"/>
     <use xlink:href="#DejaVuSans-69" x="2786.076172"/>
     <use xlink:href="#DejaVuSans-65" x="2813.859375"/>
     <use xlink:href="#DejaVuSans-73" x="2875.382812"/>
     <use xlink:href="#DejaVuSans-3a" x="2927.482422"/>
     <use xlink:href="#DejaVuSans-20" x="2961.173828"/>
     <use xlink:href="#DejaVuSans-31" x="2992.960938"/>
     <use xlink:href="#DejaVuSans-30" x="3056.583984"/>
     <use xlink:href="#DejaVuSans-2e" x="3120.207031"/>
     <use xlink:href="#DejaVuSans-20" x="3151.994141"/>
    </g>
   </g>
  </g>
 </g>
 <defs>
  <clipPath id="pea1762af79">
   <rect x="29.68" y="26.88" width="823.52" height="311.09"/>
  </clipPath>
 </defs>
</svg>
