<?xml version="1.0" encoding="utf-8" standalone="no"?>
<!DOCTYPE svg PUBLIC "-//W3C//DTD SVG 1.1//EN"
  "http://www.w3.org/Graphics/SVG/1.1/DTD/svg11.dtd">
<svg xmlns:xlink="http://www.w3.org/1999/xlink" width="864pt" height="432pt" viewBox="0 0 864 432" xmlns="http://www.w3.org/2000/svg" version="1.1">
 <metadata>
  <rdf:RDF xmlns:dc="http://purl.org/dc/elements/1.1/" xmlns:cc="http://creativecommons.org/ns#" xmlns:rdf="http://www.w3.org/1999/02/22-rdf-syntax-ns#">
   <cc:Work>
    <dc:type rdf:resource="http://purl.org/dc/dcmitype/StillImage"/>
    <dc:date>2022-09-20T03:36:49.361811</dc:date>
    <dc:format>image/svg+xml</dc:format>
    <dc:creator>
     <cc:Agent>
      <dc:title>Matplotlib v3.5.1, https://matplotlib.org/</dc:title>
     </cc:Agent>
    </dc:creator>
   </cc:Work>
  </rdf:RDF>
 </metadata>
 <defs>
  <style type="text/css">*{stroke-linejoin: round; stroke-linecap: butt}</style>
 </defs>
 <g id="figure_1">
  <g id="patch_1">
   <path d="M 0 432 
L 864 432 
L 864 0 
L 0 0 
z
" style="fill: #ffffff"/>
  </g>
  <g id="axes_1">
   <g id="patch_2">
    <path d="M 22.93 337.97 
L 853.2 337.97 
L 853.2 26.88 
L 22.93 26.88 
z
" style="fill: #ffffff"/>
   </g>
   <g id="PolyCollection_1">
    <path d="M 117.278864 42.4345 
L 79.539318 42.4345 
L 79.539318 42.4345 
L 79.539318 42.4345 
L 79.539318 42.4345 
L 79.539318 42.4345 
L 79.539318 42.4345 
L 79.539318 42.4345 
L 79.539318 42.4345 
L 79.539318 42.4345 
L 79.539318 42.4345 
L 79.539318 42.4345 
L 79.539318 42.4345 
L 79.539318 42.4345 
L 79.539318 42.4345 
L 79.539318 42.4345 
L 79.539318 42.4345 
L 79.539318 42.4345 
L 79.539318 42.4345 
L 79.539318 42.4345 
L 79.539318 42.4345 
L 79.539318 42.4345 
L 79.539318 42.4345 
L 79.539318 42.4345 
L 79.539318 42.4345 
L 79.539318 42.4345 
L 79.539318 42.4345 
L 79.539318 42.4345 
L 79.539318 42.4345 
L 79.539318 42.4345 
L 79.539318 42.4345 
L 79.539318 42.4345 
L 79.539318 42.4345 
L 79.539318 42.4345 
L 79.539318 42.4345 
L 79.539318 42.4345 
L 79.539318 42.4345 
L 79.539318 42.4345 
L 79.539318 42.4345 
L 79.539318 42.4345 
L 79.539318 42.4345 
L 79.539318 42.4345 
L 79.539318 42.4345 
L 79.539318 42.4345 
L 79.539318 42.4345 
L 79.539318 42.4345 
L 79.539318 42.4345 
L 79.539318 42.4345 
L 79.539318 42.4345 
L 79.539318 42.4345 
L 79.539318 42.4345 
L 79.539318 42.4345 
L 79.539318 42.4345 
L 79.539318 42.4345 
L 79.539318 42.4345 
L 79.539318 42.4345 
L 79.539318 42.4345 
L 79.539318 42.4345 
L 79.539318 42.4345 
L 79.539318 42.4345 
L 79.539318 42.4345 
L 79.539318 42.4345 
L 79.539318 42.4345 
L 79.539318 42.4345 
L 79.539318 42.4345 
L 79.539318 42.4345 
L 79.539318 42.4345 
L 79.539318 42.4345 
L 79.539318 42.4345 
L 79.539318 42.4345 
L 79.539318 42.4345 
L 79.539318 42.4345 
L 79.539318 42.4345 
L 79.539318 42.4345 
L 79.539318 42.4345 
L 79.539318 42.4345 
L 79.539318 42.4345 
L 79.539318 42.4345 
L 79.539318 42.4345 
L 79.539318 42.4345 
L 79.539318 42.4345 
L 79.539318 42.4345 
L 79.539318 42.4345 
L 79.539318 42.4345 
L 79.539318 42.4345 
L 79.539318 42.4345 
L 79.539318 42.4345 
L 79.539318 42.4345 
L 79.539318 42.4345 
L 79.539318 42.4345 
L 79.539318 42.4345 
L 79.539318 42.4345 
L 79.539318 42.4345 
L 79.539318 42.4345 
L 79.539318 42.4345 
L 79.539318 42.4345 
L 79.539318 42.4345 
L 79.539318 42.4345 
L 79.539318 42.4345 
L 79.539318 42.4345 
L 79.539318 42.4345 
L 117.278864 42.4345 
L 117.278864 42.4345 
L 117.278864 42.4345 
L 117.278864 42.4345 
L 117.278864 42.4345 
L 117.278864 42.4345 
L 117.278864 42.4345 
L 117.278864 42.4345 
L 117.278864 42.4345 
L 117.278864 42.4345 
L 117.278864 42.4345 
L 117.278864 42.4345 
L 117.278864 42.4345 
L 117.278864 42.4345 
L 117.278864 42.4345 
L 117.278864 42.4345 
L 117.278864 42.4345 
L 117.278864 42.4345 
L 117.278864 42.4345 
L 117.278864 42.4345 
L 117.278864 42.4345 
L 117.278864 42.4345 
L 117.278864 42.4345 
L 117.278864 42.4345 
L 117.278864 42.4345 
L 117.278864 42.4345 
L 117.278864 42.4345 
L 117.278864 42.4345 
L 117.278864 42.4345 
L 117.278864 42.4345 
L 117.278864 42.4345 
L 117.278864 42.4345 
L 117.278864 42.4345 
L 117.278864 42.4345 
L 117.278864 42.4345 
L 117.278864 42.4345 
L 117.278864 42.4345 
L 117.278864 42.4345 
L 117.278864 42.4345 
L 117.278864 42.4345 
L 117.278864 42.4345 
L 117.278864 42.4345 
L 117.278864 42.4345 
L 117.278864 42.4345 
L 117.278864 42.4345 
L 117.278864 42.4345 
L 117.278864 42.4345 
L 117.278864 42.4345 
L 117.278864 42.4345 
L 117.278864 42.4345 
L 117.278864 42.4345 
L 117.278864 42.4345 
L 117.278864 42.4345 
L 117.278864 42.4345 
L 117.278864 42.4345 
L 117.278864 42.4345 
L 117.278864 42.4345 
L 117.278864 42.4345 
L 117.278864 42.4345 
L 117.278864 42.4345 
L 117.278864 42.4345 
L 117.278864 42.4345 
L 117.278864 42.4345 
L 117.278864 42.4345 
L 117.278864 42.4345 
L 117.278864 42.4345 
L 117.278864 42.4345 
L 117.278864 42.4345 
L 117.278864 42.4345 
L 117.278864 42.4345 
L 117.278864 42.4345 
L 117.278864 42.4345 
L 117.278864 42.4345 
L 117.278864 42.4345 
L 117.278864 42.4345 
L 117.278864 42.4345 
L 117.278864 42.4345 
L 117.278864 42.4345 
L 117.278864 42.4345 
L 117.278864 42.4345 
L 117.278864 42.4345 
L 117.278864 42.4345 
L 117.278864 42.4345 
L 117.278864 42.4345 
L 117.278864 42.4345 
L 117.278864 42.4345 
L 117.278864 42.4345 
L 117.278864 42.4345 
L 117.278864 42.4345 
L 117.278864 42.4345 
L 117.278864 42.4345 
L 117.278864 42.4345 
L 117.278864 42.4345 
L 117.278864 42.4345 
L 117.278864 42.4345 
L 117.278864 42.4345 
L 117.278864 42.4345 
L 117.278864 42.4345 
L 117.278864 42.4345 
L 117.278864 42.4345 
L 117.278864 42.4345 
z
" clip-path="url(#pd216b3ebfd)" style="fill: #1f77b4; fill-opacity: 0.3"/>
   </g>
   <g id="PolyCollection_2">
    <path d="M 174.674422 166.8705 
L 173.101941 166.8705 
L 173.108439 166.556268 
L 173.127612 166.242035 
L 173.158524 165.927803 
L 173.199702 165.613571 
L 173.24925 165.299338 
L 173.304991 164.985106 
L 173.364632 164.670874 
L 173.42591 164.356641 
L 173.486734 164.042409 
L 173.545293 163.728177 
L 173.600132 163.413944 
L 173.650183 163.099712 
L 173.694774 162.78548 
L 173.733597 162.471247 
L 173.766661 162.157015 
L 173.794226 161.842783 
L 173.816734 161.528551 
L 173.834744 161.214318 
L 173.848872 160.900086 
L 173.859741 160.585854 
L 173.867943 160.271621 
L 173.874017 159.957389 
L 173.878431 159.643157 
L 173.88158 159.328924 
L 173.883786 159.014692 
L 173.885303 158.70046 
L 173.886327 158.386227 
L 173.887007 158.071995 
L 173.88745 157.757763 
L 173.887733 157.44353 
L 173.887911 157.129298 
L 173.888021 156.815066 
L 173.888088 156.500833 
L 173.888128 156.186601 
L 173.888152 155.872369 
L 173.888165 155.558136 
L 173.888173 155.243904 
L 173.888177 154.929672 
L 173.888179 154.615439 
L 173.88818 154.301207 
L 173.888181 153.986975 
L 173.888181 153.672742 
L 173.888182 153.35851 
L 173.888182 153.044278 
L 173.888182 152.730045 
L 173.888182 152.415813 
L 173.888182 152.101581 
L 173.888182 151.787348 
L 173.888182 151.473116 
L 173.888182 151.158884 
L 173.888182 150.844652 
L 173.888182 150.530419 
L 173.888181 150.216187 
L 173.888181 149.901955 
L 173.88818 149.587722 
L 173.888178 149.27349 
L 173.888174 148.959258 
L 173.888165 148.645025 
L 173.88815 148.330793 
L 173.88812 148.016561 
L 173.888064 147.702328 
L 173.887962 147.388096 
L 173.887779 147.073864 
L 173.887456 146.759631 
L 173.886895 146.445399 
L 173.885938 146.131167 
L 173.884334 145.816934 
L 173.881691 145.502702 
L 173.877414 145.18847 
L 173.870611 144.874237 
L 173.859984 144.560005 
L 173.843674 144.245773 
L 173.819087 143.93154 
L 173.782682 143.617308 
L 173.729748 143.303076 
L 173.65417 142.988843 
L 173.548229 142.674611 
L 173.402456 142.360379 
L 173.205597 142.046146 
L 172.944744 141.731914 
L 172.605667 141.417682 
L 172.173422 141.103449 
L 171.633236 140.789217 
L 170.971689 140.474985 
L 170.17815 140.160753 
L 169.246383 139.84652 
L 168.176198 139.532288 
L 166.974975 139.218056 
L 165.658859 138.903823 
L 164.253429 138.589591 
L 162.793649 138.275359 
L 161.322982 137.961126 
L 159.891608 137.646894 
L 158.553809 137.332662 
L 157.364674 137.018429 
L 156.376396 136.704197 
L 155.634496 136.389965 
L 155.174353 136.075732 
L 155.018409 135.7615 
L 192.757955 135.7615 
L 192.757955 135.7615 
L 192.60201 136.075732 
L 192.141867 136.389965 
L 191.399968 136.704197 
L 190.41169 137.018429 
L 189.222555 137.332662 
L 187.884756 137.646894 
L 186.453382 137.961126 
L 184.982715 138.275359 
L 183.522935 138.589591 
L 182.117504 138.903823 
L 180.801389 139.218056 
L 179.600165 139.532288 
L 178.529981 139.84652 
L 177.598213 140.160753 
L 176.804674 140.474985 
L 176.143127 140.789217 
L 175.602941 141.103449 
L 175.170696 141.417682 
L 174.83162 141.731914 
L 174.570766 142.046146 
L 174.373908 142.360379 
L 174.228134 142.674611 
L 174.122193 142.988843 
L 174.046616 143.303076 
L 173.993681 143.617308 
L 173.957277 143.93154 
L 173.932689 144.245773 
L 173.916379 144.560005 
L 173.905752 144.874237 
L 173.89895 145.18847 
L 173.894673 145.502702 
L 173.89203 145.816934 
L 173.890426 146.131167 
L 173.889469 146.445399 
L 173.888908 146.759631 
L 173.888584 147.073864 
L 173.888402 147.388096 
L 173.8883 147.702328 
L 173.888244 148.016561 
L 173.888214 148.330793 
L 173.888198 148.645025 
L 173.88819 148.959258 
L 173.888186 149.27349 
L 173.888184 149.587722 
L 173.888183 149.901955 
L 173.888182 150.216187 
L 173.888182 150.530419 
L 173.888182 150.844652 
L 173.888182 151.158884 
L 173.888182 151.473116 
L 173.888182 151.787348 
L 173.888182 152.101581 
L 173.888182 152.415813 
L 173.888182 152.730045 
L 173.888182 153.044278 
L 173.888182 153.35851 
L 173.888182 153.672742 
L 173.888183 153.986975 
L 173.888183 154.301207 
L 173.888184 154.615439 
L 173.888187 154.929672 
L 173.888191 155.243904 
L 173.888199 155.558136 
L 173.888212 155.872369 
L 173.888235 156.186601 
L 173.888275 156.500833 
L 173.888342 156.815066 
L 173.888452 157.129298 
L 173.88863 157.44353 
L 173.888914 157.757763 
L 173.889357 158.071995 
L 173.890036 158.386227 
L 173.891061 158.70046 
L 173.892578 159.014692 
L 173.894783 159.328924 
L 173.897932 159.643157 
L 173.902347 159.957389 
L 173.90842 160.271621 
L 173.916623 160.585854 
L 173.927492 160.900086 
L 173.94162 161.214318 
L 173.95963 161.528551 
L 173.982138 161.842783 
L 174.009702 162.157015 
L 174.042766 162.471247 
L 174.08159 162.78548 
L 174.126181 163.099712 
L 174.176232 163.413944 
L 174.23107 163.728177 
L 174.28963 164.042409 
L 174.350454 164.356641 
L 174.411732 164.670874 
L 174.471372 164.985106 
L 174.527114 165.299338 
L 174.576661 165.613571 
L 174.61784 165.927803 
L 174.648752 166.242035 
L 174.667925 166.556268 
L 174.674422 166.8705 
z
" clip-path="url(#pd216b3ebfd)" style="fill: #1f77b4; fill-opacity: 0.3"/>
   </g>
   <g id="PolyCollection_3">
    <path d="M 251.149226 197.9795 
L 247.58532 197.9795 
L 247.590951 197.351035 
L 247.609063 196.722571 
L 247.639118 196.094106 
L 247.680279 195.465641 
L 247.731424 194.837177 
L 247.791165 194.208712 
L 247.857876 193.580247 
L 247.929717 192.951783 
L 248.004665 192.323318 
L 248.080534 191.694854 
L 248.155007 191.066389 
L 248.225643 190.437924 
L 248.289901 189.80946 
L 248.34514 189.180995 
L 248.388622 188.55253 
L 248.417516 187.924066 
L 248.42889 187.295601 
L 248.419713 186.667136 
L 248.386851 186.038672 
L 248.327082 185.410207 
L 248.237113 184.781742 
L 248.113611 184.153278 
L 247.953256 183.524813 
L 247.752806 182.896348 
L 247.50919 182.267884 
L 247.219609 181.639419 
L 246.881671 181.010955 
L 246.493527 180.38249 
L 246.054026 179.754025 
L 245.562874 179.125561 
L 245.020788 178.497096 
L 244.42964 177.868631 
L 243.79258 177.240167 
L 243.114127 176.611702 
L 242.400225 175.983237 
L 241.658247 175.354773 
L 240.896945 174.726308 
L 240.126343 174.097843 
L 239.357568 173.469379 
L 238.602624 172.840914 
L 237.874112 172.212449 
L 237.184898 171.583985 
L 236.547759 170.95552 
L 235.974992 170.327056 
L 235.478034 169.698591 
L 235.067082 169.070126 
L 234.750746 168.441662 
L 234.535752 167.813197 
L 234.426697 167.184732 
L 234.42588 166.556268 
L 234.533212 165.927803 
L 234.746209 165.299338 
L 235.060069 164.670874 
L 235.467825 164.042409 
L 235.960576 163.413944 
L 236.527766 162.78548 
L 237.157513 162.157015 
L 237.836963 161.528551 
L 238.552656 160.900086 
L 239.290884 160.271621 
L 240.038023 159.643157 
L 240.780834 159.014692 
L 241.506719 158.386227 
L 242.20392 157.757763 
L 242.861664 157.129298 
L 243.470255 156.500833 
L 244.021114 155.872369 
L 244.50677 155.243904 
L 244.920822 154.615439 
L 245.257876 153.986975 
L 245.513468 153.35851 
L 245.683986 152.730045 
L 245.766607 152.101581 
L 245.759251 151.473116 
L 245.660562 150.844652 
L 245.469922 150.216187 
L 245.187499 149.587722 
L 244.814326 148.959258 
L 244.352405 148.330793 
L 243.804832 147.702328 
L 243.175927 147.073864 
L 242.471362 146.445399 
L 241.698273 145.816934 
L 240.865334 145.18847 
L 239.982795 144.560005 
L 239.062455 143.93154 
L 238.117577 143.303076 
L 237.162728 142.674611 
L 236.213548 142.046146 
L 235.286448 141.417682 
L 234.398244 140.789217 
L 233.565744 140.160753 
L 232.805293 139.532288 
L 232.132304 138.903823 
L 231.56079 138.275359 
L 231.102927 137.646894 
L 230.768647 137.018429 
L 230.565321 136.389965 
L 230.4975 135.7615 
L 268.237045 135.7615 
L 268.237045 135.7615 
L 268.169224 136.389965 
L 267.965898 137.018429 
L 267.631619 137.646894 
L 267.173755 138.275359 
L 266.602242 138.903823 
L 265.929253 139.532288 
L 265.168801 140.160753 
L 264.336301 140.789217 
L 263.448098 141.417682 
L 262.520997 142.046146 
L 261.571818 142.674611 
L 260.616969 143.303076 
L 259.672091 143.93154 
L 258.751751 144.560005 
L 257.869211 145.18847 
L 257.036272 145.816934 
L 256.263183 146.445399 
L 255.558618 147.073864 
L 254.929713 147.702328 
L 254.38214 148.330793 
L 253.92022 148.959258 
L 253.547047 149.587722 
L 253.264624 150.216187 
L 253.073984 150.844652 
L 252.975294 151.473116 
L 252.967938 152.101581 
L 253.050559 152.730045 
L 253.221078 153.35851 
L 253.476669 153.986975 
L 253.813723 154.615439 
L 254.227776 155.243904 
L 254.713431 155.872369 
L 255.26429 156.500833 
L 255.872882 157.129298 
L 256.530626 157.757763 
L 257.227826 158.386227 
L 257.953711 159.014692 
L 258.696523 159.643157 
L 259.443661 160.271621 
L 260.181889 160.900086 
L 260.897583 161.528551 
L 261.577033 162.157015 
L 262.206779 162.78548 
L 262.773969 163.413944 
L 263.26672 164.042409 
L 263.674477 164.670874 
L 263.988337 165.299338 
L 264.201334 165.927803 
L 264.308666 166.556268 
L 264.307849 167.184732 
L 264.198794 167.813197 
L 263.9838 168.441662 
L 263.667464 169.070126 
L 263.256511 169.698591 
L 262.759553 170.327056 
L 262.186787 170.95552 
L 261.549647 171.583985 
L 260.860434 172.212449 
L 260.131921 172.840914 
L 259.376978 173.469379 
L 258.608203 174.097843 
L 257.8376 174.726308 
L 257.076298 175.354773 
L 256.33432 175.983237 
L 255.620418 176.611702 
L 254.941966 177.240167 
L 254.304905 177.868631 
L 253.713757 178.497096 
L 253.171671 179.125561 
L 252.680519 179.754025 
L 252.241018 180.38249 
L 251.852874 181.010955 
L 251.514936 181.639419 
L 251.225356 182.267884 
L 250.981739 182.896348 
L 250.78129 183.524813 
L 250.620935 184.153278 
L 250.497433 184.781742 
L 250.407464 185.410207 
L 250.347695 186.038672 
L 250.314833 186.667136 
L 250.305655 187.295601 
L 250.317029 187.924066 
L 250.345924 188.55253 
L 250.389406 189.180995 
L 250.444644 189.80946 
L 250.508902 190.437924 
L 250.579539 191.066389 
L 250.654011 191.694854 
L 250.729881 192.323318 
L 250.804828 192.951783 
L 250.87667 193.580247 
L 250.943381 194.208712 
L 251.003122 194.837177 
L 251.054266 195.465641 
L 251.095427 196.094106 
L 251.125482 196.722571 
L 251.143594 197.351035 
L 251.149226 197.9795 
z
" clip-path="url(#pd216b3ebfd)" style="fill: #1f77b4; fill-opacity: 0.3"/>
   </g>
   <g id="PolyCollection_4">
    <path d="M 333.749466 197.9795 
L 315.943261 197.9795 
L 315.956988 197.351035 
L 316.014027 196.722571 
L 316.112761 196.094106 
L 316.250792 195.465641 
L 316.424968 194.837177 
L 316.631439 194.208712 
L 316.865709 193.580247 
L 317.122717 192.951783 
L 317.396915 192.323318 
L 317.68236 191.694854 
L 317.972805 191.066389 
L 318.261799 190.437924 
L 318.542782 189.80946 
L 318.809182 189.180995 
L 319.054507 188.55253 
L 319.272439 187.924066 
L 319.456915 187.295601 
L 319.602212 186.667136 
L 319.703025 186.038672 
L 319.754543 185.410207 
L 319.752514 184.781742 
L 319.693323 184.153278 
L 319.574046 183.524813 
L 319.39252 182.896348 
L 319.1474 182.267884 
L 318.83821 181.639419 
L 318.465396 181.010955 
L 318.030363 180.38249 
L 317.535512 179.754025 
L 316.984257 179.125561 
L 316.381033 178.497096 
L 315.731285 177.868631 
L 315.04144 177.240167 
L 314.318853 176.611702 
L 313.571739 175.983237 
L 312.809072 175.354773 
L 312.040467 174.726308 
L 311.276035 174.097843 
L 310.52622 173.469379 
L 309.801616 172.840914 
L 309.11277 172.212449 
L 308.469976 171.583985 
L 307.883064 170.95552 
L 307.361189 170.327056 
L 306.912634 169.698591 
L 306.544617 169.070126 
L 306.26313 168.441662 
L 306.072795 167.813197 
L 305.976753 167.184732 
L 305.976591 166.556268 
L 306.0723 165.927803 
L 306.262276 165.299338 
L 306.543363 164.670874 
L 306.910918 164.042409 
L 307.358931 163.413944 
L 307.880161 162.78548 
L 308.466301 162.157015 
L 309.10817 161.528551 
L 309.795907 160.900086 
L 310.519187 160.271621 
L 311.267427 159.643157 
L 312.029993 159.014692 
L 312.796399 158.386227 
L 313.556489 157.757763 
L 314.300599 157.129298 
L 315.019707 156.500833 
L 315.705546 155.872369 
L 316.350707 155.243904 
L 316.948714 154.615439 
L 317.49407 153.986975 
L 317.982296 153.35851 
L 318.409933 152.730045 
L 318.774547 152.101581 
L 319.074702 151.473116 
L 319.309937 150.844652 
L 319.48072 150.216187 
L 319.588405 149.587722 
L 319.635176 148.959258 
L 319.623995 148.330793 
L 319.558535 147.702328 
L 319.443121 147.073864 
L 319.282656 146.445399 
L 319.082556 145.816934 
L 318.848674 145.18847 
L 318.587217 144.560005 
L 318.304663 143.93154 
L 318.007676 143.303076 
L 317.703011 142.674611 
L 317.397414 142.046146 
L 317.097529 141.417682 
L 316.80979 140.789217 
L 316.540328 140.160753 
L 316.294864 139.532288 
L 316.078621 138.903823 
L 315.896239 138.275359 
L 315.751691 137.646894 
L 315.648229 137.018429 
L 315.588323 136.389965 
L 315.573637 135.7615 
L 334.119091 135.7615 
L 334.119091 135.7615 
L 334.104404 136.389965 
L 334.044498 137.018429 
L 333.941036 137.646894 
L 333.796489 138.275359 
L 333.614106 138.903823 
L 333.397864 139.532288 
L 333.152399 140.160753 
L 332.882937 140.789217 
L 332.595199 141.417682 
L 332.295313 142.046146 
L 331.989717 142.674611 
L 331.685051 143.303076 
L 331.388064 143.93154 
L 331.10551 144.560005 
L 330.844053 145.18847 
L 330.610171 145.816934 
L 330.410072 146.445399 
L 330.249607 147.073864 
L 330.134192 147.702328 
L 330.068732 148.330793 
L 330.057551 148.959258 
L 330.104322 149.587722 
L 330.212007 150.216187 
L 330.38279 150.844652 
L 330.618025 151.473116 
L 330.918181 152.101581 
L 331.282794 152.730045 
L 331.710432 153.35851 
L 332.198657 153.986975 
L 332.744014 154.615439 
L 333.34202 155.243904 
L 333.987182 155.872369 
L 334.67302 156.500833 
L 335.392128 157.129298 
L 336.136239 157.757763 
L 336.896328 158.386227 
L 337.662734 159.014692 
L 338.4253 159.643157 
L 339.17354 160.271621 
L 339.89682 160.900086 
L 340.584558 161.528551 
L 341.226426 162.157015 
L 341.812567 162.78548 
L 342.333796 163.413944 
L 342.78181 164.042409 
L 343.149365 164.670874 
L 343.430451 165.299338 
L 343.620428 165.927803 
L 343.716136 166.556268 
L 343.715974 167.184732 
L 343.619932 167.813197 
L 343.429597 168.441662 
L 343.14811 169.070126 
L 342.780093 169.698591 
L 342.331538 170.327056 
L 341.809663 170.95552 
L 341.222751 171.583985 
L 340.579957 172.212449 
L 339.891111 172.840914 
L 339.166507 173.469379 
L 338.416692 174.097843 
L 337.65226 174.726308 
L 336.883655 175.354773 
L 336.120988 175.983237 
L 335.373874 176.611702 
L 334.651287 177.240167 
L 333.961442 177.868631 
L 333.311694 178.497096 
L 332.70847 179.125561 
L 332.157215 179.754025 
L 331.662364 180.38249 
L 331.227332 181.010955 
L 330.854517 181.639419 
L 330.545327 182.267884 
L 330.300207 182.896348 
L 330.118682 183.524813 
L 329.999405 184.153278 
L 329.940213 184.781742 
L 329.938185 185.410207 
L 329.989702 186.038672 
L 330.090515 186.667136 
L 330.235812 187.295601 
L 330.420288 187.924066 
L 330.63822 188.55253 
L 330.883545 189.180995 
L 331.149945 189.80946 
L 331.430928 190.437924 
L 331.719922 191.066389 
L 332.010367 191.694854 
L 332.295812 192.323318 
L 332.57001 192.951783 
L 332.827019 193.580247 
L 333.061289 194.208712 
L 333.267759 194.837177 
L 333.441935 195.465641 
L 333.579966 196.094106 
L 333.678701 196.722571 
L 333.73574 197.351035 
L 333.749466 197.9795 
z
" clip-path="url(#pd216b3ebfd)" style="fill: #1f77b4; fill-opacity: 0.3"/>
   </g>
   <g id="PolyCollection_5">
    <path d="M 404.872391 229.0885 
L 395.778518 229.0885 
L 395.697524 227.831571 
L 395.637601 226.574641 
L 395.586446 225.317712 
L 395.528626 224.060783 
L 395.44619 222.803854 
L 395.319532 221.546924 
L 395.128475 220.289995 
L 394.853523 219.033066 
L 394.477234 217.776136 
L 393.985629 216.519207 
L 393.369542 215.262278 
L 392.625828 214.005348 
L 391.758321 212.748419 
L 390.77843 211.49149 
L 389.70531 210.234561 
L 388.565516 208.977631 
L 387.392132 207.720702 
L 386.223356 206.463773 
L 385.100608 205.206843 
L 384.066262 203.949914 
L 383.161132 202.692985 
L 382.421898 201.436056 
L 381.878669 200.179126 
L 381.552878 198.922197 
L 381.455682 197.665268 
L 381.587021 196.408338 
L 381.935416 195.151409 
L 382.478538 193.89448 
L 383.184505 192.637551 
L 384.013817 191.380621 
L 384.921777 190.123692 
L 385.861214 188.866763 
L 386.785315 187.609833 
L 387.650369 186.352904 
L 388.418236 185.095975 
L 389.058398 183.839045 
L 389.549484 182.582116 
L 389.880183 181.325187 
L 390.049531 180.068258 
L 390.066569 178.811328 
L 389.949425 177.554399 
L 389.72389 176.29747 
L 389.421579 175.04054 
L 389.077815 173.783611 
L 388.729343 172.526682 
L 388.412042 171.269753 
L 388.158753 170.012823 
L 387.997376 168.755894 
L 387.949344 167.498965 
L 388.02856 166.242035 
L 388.240878 164.985106 
L 388.584111 163.728177 
L 389.048584 162.471247 
L 389.618132 161.214318 
L 390.271484 159.957389 
L 390.983878 158.70046 
L 391.728813 157.44353 
L 392.479767 156.186601 
L 393.211799 154.929672 
L 393.902903 153.672742 
L 394.535056 152.415813 
L 395.094926 151.158884 
L 395.574211 149.901955 
L 395.969633 148.645025 
L 396.282632 147.388096 
L 396.518793 146.131167 
L 396.687096 144.874237 
L 396.79903 143.617308 
L 396.867653 142.360379 
L 396.906652 141.103449 
L 396.929467 139.84652 
L 396.948508 138.589591 
L 396.974516 137.332662 
L 397.016092 136.075732 
L 397.079394 134.818803 
L 397.168024 133.561874 
L 397.283083 132.304944 
L 397.423375 131.048015 
L 397.585749 129.791086 
L 397.765523 128.534157 
L 397.95697 127.277227 
L 398.153815 126.020298 
L 398.349726 124.763369 
L 398.538744 123.506439 
L 398.715648 122.24951 
L 398.876223 120.992581 
L 399.017442 119.735652 
L 399.137544 118.478722 
L 399.236017 117.221793 
L 399.313514 115.964864 
L 399.371698 114.707934 
L 399.413039 113.451005 
L 399.440592 112.194076 
L 399.457755 110.937146 
L 399.468032 109.680217 
L 399.474823 108.423288 
L 399.481231 107.166359 
L 399.489911 105.909429 
L 399.502969 104.6525 
L 401.14794 104.6525 
L 401.14794 104.6525 
L 401.160998 105.909429 
L 401.169678 107.166359 
L 401.176086 108.423288 
L 401.182877 109.680217 
L 401.193154 110.937146 
L 401.210317 112.194076 
L 401.23787 113.451005 
L 401.279211 114.707934 
L 401.337395 115.964864 
L 401.414892 117.221793 
L 401.513365 118.478722 
L 401.633467 119.735652 
L 401.774686 120.992581 
L 401.935262 122.24951 
L 402.112165 123.506439 
L 402.301183 124.763369 
L 402.497094 126.020298 
L 402.69394 127.277227 
L 402.885386 128.534157 
L 403.06516 129.791086 
L 403.227534 131.048015 
L 403.367827 132.304944 
L 403.482885 133.561874 
L 403.571515 134.818803 
L 403.634817 136.075732 
L 403.676393 137.332662 
L 403.702401 138.589591 
L 403.721442 139.84652 
L 403.744257 141.103449 
L 403.783257 142.360379 
L 403.851879 143.617308 
L 403.963813 144.874237 
L 404.132116 146.131167 
L 404.368277 147.388096 
L 404.681276 148.645025 
L 405.076698 149.901955 
L 405.555983 151.158884 
L 406.115854 152.415813 
L 406.748007 153.672742 
L 407.43911 154.929672 
L 408.171142 156.186601 
L 408.922096 157.44353 
L 409.667031 158.70046 
L 410.379425 159.957389 
L 411.032777 161.214318 
L 411.602325 162.471247 
L 412.066798 163.728177 
L 412.410031 164.985106 
L 412.622349 166.242035 
L 412.701566 167.498965 
L 412.653533 168.755894 
L 412.492156 170.012823 
L 412.238867 171.269753 
L 411.921566 172.526682 
L 411.573094 173.783611 
L 411.22933 175.04054 
L 410.92702 176.29747 
L 410.701484 177.554399 
L 410.584341 178.811328 
L 410.601378 180.068258 
L 410.770726 181.325187 
L 411.101425 182.582116 
L 411.592511 183.839045 
L 412.232674 185.095975 
L 413.00054 186.352904 
L 413.865594 187.609833 
L 414.789695 188.866763 
L 415.729132 190.123692 
L 416.637092 191.380621 
L 417.466404 192.637551 
L 418.172371 193.89448 
L 418.715493 195.151409 
L 419.063888 196.408338 
L 419.195227 197.665268 
L 419.098031 198.922197 
L 418.77224 200.179126 
L 418.229011 201.436056 
L 417.489777 202.692985 
L 416.584647 203.949914 
L 415.550301 205.206843 
L 414.427553 206.463773 
L 413.258777 207.720702 
L 412.085393 208.977631 
L 410.945599 210.234561 
L 409.872479 211.49149 
L 408.892588 212.748419 
L 408.025081 214.005348 
L 407.281368 215.262278 
L 406.66528 216.519207 
L 406.173675 217.776136 
L 405.797386 219.033066 
L 405.522434 220.289995 
L 405.331377 221.546924 
L 405.204719 222.803854 
L 405.122283 224.060783 
L 405.064463 225.317712 
L 405.013308 226.574641 
L 404.953385 227.831571 
L 404.872391 229.0885 
z
" clip-path="url(#pd216b3ebfd)" style="fill: #1f77b4; fill-opacity: 0.3"/>
   </g>
   <g id="PolyCollection_6">
    <path d="M 476.724755 291.3065 
L 474.884336 291.3065 
L 474.768261 289.421106 
L 474.637125 287.535712 
L 474.489477 285.650318 
L 474.324398 283.764924 
L 474.141709 281.87953 
L 473.942147 279.994136 
L 473.727459 278.108742 
L 473.500406 276.223348 
L 473.264659 274.337955 
L 473.024564 272.452561 
L 472.784816 270.567167 
L 472.55004 268.681773 
L 472.324341 266.796379 
L 472.11086 264.910985 
L 471.911401 263.025591 
L 471.726176 261.140197 
L 471.553715 259.254803 
L 471.39096 257.369409 
L 471.233546 255.484015 
L 471.076244 253.598621 
L 470.913507 251.713227 
L 470.740071 249.827833 
L 470.551497 247.942439 
L 470.3446 246.057045 
L 470.117689 244.171652 
L 469.870559 242.286258 
L 469.604244 240.400864 
L 469.320542 238.51547 
L 469.021374 236.630076 
L 468.708083 234.744682 
L 468.380774 232.859288 
L 468.037819 230.973894 
L 467.675637 229.0885 
L 467.288814 227.203106 
L 466.8706 225.317712 
L 466.413759 223.432318 
L 465.911678 221.546924 
L 465.359624 219.66153 
L 464.75596 217.776136 
L 464.103153 215.890742 
L 463.408399 214.005348 
L 462.683725 212.119955 
L 461.945504 210.234561 
L 461.213366 208.349167 
L 460.508616 206.463773 
L 459.852293 204.578379 
L 459.263105 202.692985 
L 458.7555 200.807591 
L 458.33811 198.922197 
L 458.012818 197.036803 
L 457.774567 195.151409 
L 457.612003 193.266015 
L 457.508887 191.380621 
L 457.446133 189.495227 
L 457.404233 187.609833 
L 457.365782 185.724439 
L 457.317774 183.839045 
L 457.253384 181.953652 
L 457.172996 180.068258 
L 457.08435 178.182864 
L 457.001766 176.29747 
L 456.944551 174.412076 
L 456.934773 172.526682 
L 456.994689 170.641288 
L 457.144135 168.755894 
L 457.398193 166.8705 
L 457.765421 164.985106 
L 458.24683 163.099712 
L 458.835714 161.214318 
L 459.518317 159.328924 
L 460.275225 157.44353 
L 461.083284 155.558136 
L 461.917793 153.672742 
L 462.754703 151.787348 
L 463.572566 149.901955 
L 464.354038 148.016561 
L 465.086802 146.131167 
L 465.763862 144.245773 
L 466.383237 142.360379 
L 466.947173 140.474985 
L 467.461004 138.589591 
L 467.931866 136.704197 
L 468.367427 134.818803 
L 468.774791 132.933409 
L 469.159697 131.048015 
L 469.526068 129.162621 
L 469.875918 127.277227 
L 470.209582 125.391833 
L 470.52618 123.506439 
L 470.824223 121.621045 
L 471.102241 119.735652 
L 471.359344 117.850258 
L 471.595632 115.964864 
L 471.812409 114.07947 
L 472.012187 112.194076 
L 472.198493 110.308682 
L 472.375521 108.423288 
L 472.547704 106.537894 
L 472.719244 104.6525 
L 478.889847 104.6525 
L 478.889847 104.6525 
L 479.061387 106.537894 
L 479.23357 108.423288 
L 479.410598 110.308682 
L 479.596903 112.194076 
L 479.796682 114.07947 
L 480.013459 115.964864 
L 480.249747 117.850258 
L 480.50685 119.735652 
L 480.784868 121.621045 
L 481.082911 123.506439 
L 481.399509 125.391833 
L 481.733173 127.277227 
L 482.083023 129.162621 
L 482.449394 131.048015 
L 482.8343 132.933409 
L 483.241664 134.818803 
L 483.677225 136.704197 
L 484.148087 138.589591 
L 484.661918 140.474985 
L 485.225853 142.360379 
L 485.845229 144.245773 
L 486.522289 146.131167 
L 487.255053 148.016561 
L 488.036525 149.901955 
L 488.854388 151.787348 
L 489.691298 153.672742 
L 490.525807 155.558136 
L 491.333866 157.44353 
L 492.090774 159.328924 
L 492.773377 161.214318 
L 493.362261 163.099712 
L 493.84367 164.985106 
L 494.210898 166.8705 
L 494.464956 168.755894 
L 494.614402 170.641288 
L 494.674318 172.526682 
L 494.66454 174.412076 
L 494.607325 176.29747 
L 494.524741 178.182864 
L 494.436095 180.068258 
L 494.355707 181.953652 
L 494.291317 183.839045 
L 494.243309 185.724439 
L 494.204858 187.609833 
L 494.162958 189.495227 
L 494.100203 191.380621 
L 493.997088 193.266015 
L 493.834524 195.151409 
L 493.596273 197.036803 
L 493.27098 198.922197 
L 492.853591 200.807591 
L 492.345986 202.692985 
L 491.756798 204.578379 
L 491.100475 206.463773 
L 490.395725 208.349167 
L 489.663587 210.234561 
L 488.925365 212.119955 
L 488.200692 214.005348 
L 487.505938 215.890742 
L 486.853131 217.776136 
L 486.249467 219.66153 
L 485.697412 221.546924 
L 485.195332 223.432318 
L 484.738491 225.317712 
L 484.320277 227.203106 
L 483.933454 229.0885 
L 483.571272 230.973894 
L 483.228317 232.859288 
L 482.901008 234.744682 
L 482.587717 236.630076 
L 482.288549 238.51547 
L 482.004847 240.400864 
L 481.738532 242.286258 
L 481.491402 244.171652 
L 481.264491 246.057045 
L 481.057594 247.942439 
L 480.86902 249.827833 
L 480.695584 251.713227 
L 480.532847 253.598621 
L 480.375544 255.484015 
L 480.218131 257.369409 
L 480.055376 259.254803 
L 479.882915 261.140197 
L 479.69769 263.025591 
L 479.498231 264.910985 
L 479.28475 266.796379 
L 479.059051 268.681773 
L 478.824275 270.567167 
L 478.584527 272.452561 
L 478.344432 274.337955 
L 478.108685 276.223348 
L 477.881632 278.108742 
L 477.666944 279.994136 
L 477.467382 281.87953 
L 477.284693 283.764924 
L 477.119614 285.650318 
L 476.971966 287.535712 
L 476.84083 289.421106 
L 476.724755 291.3065 
z
" clip-path="url(#pd216b3ebfd)" style="fill: #1f77b4; fill-opacity: 0.3"/>
   </g>
   <g id="PolyCollection_7">
    <path d="M 570.153409 291.3065 
L 532.413864 291.3065 
L 532.456854 290.678035 
L 532.598196 290.049571 
L 532.834978 289.421106 
L 533.16265 288.792641 
L 533.575116 288.164177 
L 534.064861 287.535712 
L 534.623111 286.907247 
L 535.240018 286.278783 
L 535.904863 285.650318 
L 536.60627 285.021854 
L 537.332433 284.393389 
L 538.071331 283.764924 
L 538.810949 283.13646 
L 539.539474 282.507995 
L 540.245487 281.87953 
L 540.918128 281.251066 
L 541.547247 280.622601 
L 542.123529 279.994136 
L 542.638595 279.365672 
L 543.085095 278.737207 
L 543.45677 278.108742 
L 543.748502 277.480278 
L 543.956352 276.851813 
L 544.077586 276.223348 
L 544.110689 275.594884 
L 544.055371 274.966419 
L 543.912568 274.337955 
L 543.684434 273.70949 
L 543.374324 273.081025 
L 542.986773 272.452561 
L 542.527463 271.824096 
L 542.003173 271.195631 
L 541.421721 270.567167 
L 540.791885 269.938702 
L 540.123313 269.310237 
L 539.426402 268.681773 
L 538.712163 268.053308 
L 537.992069 267.424843 
L 537.277876 266.796379 
L 536.581433 266.167914 
L 535.914477 265.539449 
L 535.288417 264.910985 
L 534.714119 264.28252 
L 534.201691 263.654056 
L 533.760271 263.025591 
L 533.397842 262.397126 
L 533.121059 261.768662 
L 532.935104 261.140197 
L 532.843584 260.511732 
L 532.848451 259.883268 
L 532.94997 259.254803 
L 533.146733 258.626338 
L 533.4357 257.997874 
L 533.812291 257.369409 
L 534.270514 256.740944 
L 534.803115 256.11248 
L 535.401769 255.484015 
L 536.05728 254.855551 
L 536.7598 254.227086 
L 537.499054 253.598621 
L 538.264564 252.970157 
L 539.045867 252.341692 
L 539.832719 251.713227 
L 540.615282 251.084763 
L 541.38429 250.456298 
L 542.131183 249.827833 
L 542.84823 249.199369 
L 543.528602 248.570904 
L 544.166441 247.942439 
L 544.756888 247.313975 
L 545.296089 246.68551 
L 545.78119 246.057045 
L 546.210303 245.428581 
L 546.582464 244.800116 
L 546.897578 244.171652 
L 547.156354 243.543187 
L 547.360242 242.914722 
L 547.511354 242.286258 
L 547.612401 241.657793 
L 547.666616 241.029328 
L 547.677683 240.400864 
L 547.649675 239.772399 
L 547.58698 239.143934 
L 547.494238 238.51547 
L 547.376279 237.887005 
L 547.238059 237.25854 
L 547.084593 236.630076 
L 546.920897 236.001611 
L 546.75192 235.373146 
L 546.582481 234.744682 
L 546.417209 234.116217 
L 546.260476 233.487753 
L 546.116341 232.859288 
L 545.98849 232.230823 
L 545.880189 231.602359 
L 545.794232 230.973894 
L 545.732911 230.345429 
L 545.697984 229.716965 
L 545.690657 229.0885 
L 556.876616 229.0885 
L 556.876616 229.0885 
L 556.869288 229.716965 
L 556.834361 230.345429 
L 556.773041 230.973894 
L 556.687084 231.602359 
L 556.578782 232.230823 
L 556.450932 232.859288 
L 556.306796 233.487753 
L 556.150064 234.116217 
L 555.984792 234.744682 
L 555.815353 235.373146 
L 555.646376 236.001611 
L 555.48268 236.630076 
L 555.329214 237.25854 
L 555.190994 237.887005 
L 555.073035 238.51547 
L 554.980293 239.143934 
L 554.917597 239.772399 
L 554.889589 240.400864 
L 554.900657 241.029328 
L 554.954872 241.657793 
L 555.055919 242.286258 
L 555.207031 242.914722 
L 555.410918 243.543187 
L 555.669695 244.171652 
L 555.984809 244.800116 
L 556.35697 245.428581 
L 556.786083 246.057045 
L 557.271184 246.68551 
L 557.810385 247.313975 
L 558.400831 247.942439 
L 559.038671 248.570904 
L 559.719043 249.199369 
L 560.436089 249.827833 
L 561.182983 250.456298 
L 561.95199 251.084763 
L 562.734554 251.713227 
L 563.521406 252.341692 
L 564.302709 252.970157 
L 565.068219 253.598621 
L 565.807473 254.227086 
L 566.509993 254.855551 
L 567.165504 255.484015 
L 567.764158 256.11248 
L 568.296759 256.740944 
L 568.754981 257.369409 
L 569.131573 257.997874 
L 569.42054 258.626338 
L 569.617302 259.254803 
L 569.718822 259.883268 
L 569.723689 260.511732 
L 569.632168 261.140197 
L 569.446214 261.768662 
L 569.16943 262.397126 
L 568.807002 263.025591 
L 568.365582 263.654056 
L 567.853153 264.28252 
L 567.278856 264.910985 
L 566.652796 265.539449 
L 565.985839 266.167914 
L 565.289396 266.796379 
L 564.575203 267.424843 
L 563.855109 268.053308 
L 563.140871 268.681773 
L 562.443959 269.310237 
L 561.775387 269.938702 
L 561.145552 270.567167 
L 560.5641 271.195631 
L 560.039809 271.824096 
L 559.580499 272.452561 
L 559.192949 273.081025 
L 558.882839 273.70949 
L 558.654704 274.337955 
L 558.511901 274.966419 
L 558.456584 275.594884 
L 558.489687 276.223348 
L 558.610921 276.851813 
L 558.818771 277.480278 
L 559.110503 278.108742 
L 559.482177 278.737207 
L 559.928678 279.365672 
L 560.443744 279.994136 
L 561.020025 280.622601 
L 561.649145 281.251066 
L 562.321786 281.87953 
L 563.027799 282.507995 
L 563.756324 283.13646 
L 564.495942 283.764924 
L 565.23484 284.393389 
L 565.961003 285.021854 
L 566.66241 285.650318 
L 567.327254 286.278783 
L 567.944162 286.907247 
L 568.502412 287.535712 
L 568.992157 288.164177 
L 569.404623 288.792641 
L 569.732295 289.421106 
L 569.969077 290.049571 
L 570.110419 290.678035 
L 570.153409 291.3065 
z
" clip-path="url(#pd216b3ebfd)" style="fill: #1f77b4; fill-opacity: 0.3"/>
   </g>
   <g id="PolyCollection_8">
    <path d="M 642.938697 291.3065 
L 610.586757 291.3065 
L 610.684368 290.363803 
L 610.98523 289.421106 
L 611.475707 288.478409 
L 612.134451 287.535712 
L 612.933497 286.593015 
L 613.839686 285.650318 
L 614.816289 284.707621 
L 615.8247 283.764924 
L 616.826083 282.822227 
L 617.78286 281.87953 
L 618.65998 280.936833 
L 619.425927 279.994136 
L 620.053466 279.051439 
L 620.52017 278.108742 
L 620.808757 277.166045 
L 620.907316 276.223348 
L 620.809468 275.280652 
L 620.514499 274.337955 
L 620.027496 273.395258 
L 619.359461 272.452561 
L 618.527371 271.509864 
L 617.554131 270.567167 
L 616.468338 269.62447 
L 615.303799 268.681773 
L 614.098731 267.739076 
L 612.894631 266.796379 
L 611.734808 265.853682 
L 610.66263 264.910985 
L 609.719583 263.968288 
L 608.943251 263.025591 
L 608.365378 262.082894 
L 608.010167 261.140197 
L 607.892955 260.1975 
L 608.019387 259.254803 
L 608.385177 258.312106 
L 608.976465 257.369409 
L 609.770761 256.426712 
L 610.738383 255.484015 
L 611.844279 254.541318 
L 613.050071 253.598621 
L 614.316159 252.655924 
L 615.603738 251.713227 
L 616.876578 250.77053 
L 618.102464 249.827833 
L 619.254238 248.885136 
L 620.310421 247.942439 
L 621.255422 246.999742 
L 622.079402 246.057045 
L 622.777849 245.114348 
L 623.350962 244.171652 
L 623.802913 243.228955 
L 624.14108 242.286258 
L 624.375305 241.343561 
L 624.517203 240.400864 
L 624.579576 239.458167 
L 624.57591 238.51547 
L 624.519954 237.572773 
L 624.42537 236.630076 
L 624.305431 235.687379 
L 624.172745 234.744682 
L 624.038996 233.801985 
L 623.914697 232.859288 
L 623.80896 231.916591 
L 623.729289 230.973894 
L 623.681407 230.031197 
L 623.66915 229.0885 
L 623.694424 228.145803 
L 623.757241 227.203106 
L 623.855851 226.260409 
L 623.986947 225.317712 
L 624.14594 224.375015 
L 624.327294 223.432318 
L 624.524876 222.489621 
L 624.732328 221.546924 
L 624.943399 220.604227 
L 625.15225 219.66153 
L 625.353694 218.718833 
L 625.543368 217.776136 
L 625.717836 216.833439 
L 625.874623 215.890742 
L 626.012188 214.948045 
L 626.129855 214.005348 
L 626.227705 213.062652 
L 626.30645 212.119955 
L 626.367304 211.177258 
L 626.411856 210.234561 
L 626.441951 209.291864 
L 626.459592 208.349167 
L 626.466858 207.40647 
L 626.465833 206.463773 
L 626.458556 205.521076 
L 626.446974 204.578379 
L 626.432911 203.635682 
L 626.418031 202.692985 
L 626.403816 201.750288 
L 626.391537 200.807591 
L 626.382236 199.864894 
L 626.376709 198.922197 
L 626.375495 197.9795 
L 627.14996 197.9795 
L 627.14996 197.9795 
L 627.148746 198.922197 
L 627.143219 199.864894 
L 627.133918 200.807591 
L 627.121639 201.750288 
L 627.107424 202.692985 
L 627.092544 203.635682 
L 627.07848 204.578379 
L 627.066898 205.521076 
L 627.059621 206.463773 
L 627.058596 207.40647 
L 627.065862 208.349167 
L 627.083504 209.291864 
L 627.113599 210.234561 
L 627.15815 211.177258 
L 627.219005 212.119955 
L 627.29775 213.062652 
L 627.395599 214.005348 
L 627.513267 214.948045 
L 627.650832 215.890742 
L 627.807618 216.833439 
L 627.982086 217.776136 
L 628.171761 218.718833 
L 628.373205 219.66153 
L 628.582056 220.604227 
L 628.793127 221.546924 
L 629.000578 222.489621 
L 629.198161 223.432318 
L 629.379514 224.375015 
L 629.538508 225.317712 
L 629.669603 226.260409 
L 629.768214 227.203106 
L 629.831031 228.145803 
L 629.856304 229.0885 
L 629.844048 230.031197 
L 629.796166 230.973894 
L 629.716494 231.916591 
L 629.610758 232.859288 
L 629.486459 233.801985 
L 629.352709 234.744682 
L 629.220023 235.687379 
L 629.100084 236.630076 
L 629.005501 237.572773 
L 628.949544 238.51547 
L 628.945878 239.458167 
L 629.008252 240.400864 
L 629.15015 241.343561 
L 629.384374 242.286258 
L 629.722542 243.228955 
L 630.174492 244.171652 
L 630.747605 245.114348 
L 631.446053 246.057045 
L 632.270033 246.999742 
L 633.215034 247.942439 
L 634.271216 248.885136 
L 635.422991 249.827833 
L 636.648876 250.77053 
L 637.921716 251.713227 
L 639.209296 252.655924 
L 640.475384 253.598621 
L 641.681175 254.541318 
L 642.787072 255.484015 
L 643.754694 256.426712 
L 644.54899 257.369409 
L 645.140277 258.312106 
L 645.506067 259.254803 
L 645.6325 260.1975 
L 645.515288 261.140197 
L 645.160077 262.082894 
L 644.582204 263.025591 
L 643.805871 263.968288 
L 642.862824 264.910985 
L 641.790647 265.853682 
L 640.630824 266.796379 
L 639.426724 267.739076 
L 638.221656 268.681773 
L 637.057117 269.62447 
L 635.971324 270.567167 
L 634.998084 271.509864 
L 634.165994 272.452561 
L 633.497958 273.395258 
L 633.010956 274.337955 
L 632.715987 275.280652 
L 632.618138 276.223348 
L 632.716698 277.166045 
L 633.005285 278.108742 
L 633.471989 279.051439 
L 634.099528 279.994136 
L 634.865474 280.936833 
L 635.742594 281.87953 
L 636.699372 282.822227 
L 637.700755 283.764924 
L 638.709166 284.707621 
L 639.685769 285.650318 
L 640.591958 286.593015 
L 641.391004 287.535712 
L 642.049748 288.478409 
L 642.540225 289.421106 
L 642.841087 290.363803 
L 642.938697 291.3065 
z
" clip-path="url(#pd216b3ebfd)" style="fill: #1f77b4; fill-opacity: 0.3"/>
   </g>
   <g id="PolyCollection_9">
    <path d="M 721.111591 322.4155 
L 683.372045 322.4155 
L 683.372045 322.4155 
L 683.372045 322.4155 
L 683.372045 322.4155 
L 683.372045 322.4155 
L 683.372045 322.4155 
L 683.372045 322.4155 
L 683.372045 322.4155 
L 683.372045 322.4155 
L 683.372045 322.4155 
L 683.372045 322.4155 
L 683.372045 322.4155 
L 683.372045 322.4155 
L 683.372045 322.4155 
L 683.372045 322.4155 
L 683.372045 322.4155 
L 683.372045 322.4155 
L 683.372045 322.4155 
L 683.372045 322.4155 
L 683.372045 322.4155 
L 683.372045 322.4155 
L 683.372045 322.4155 
L 683.372045 322.4155 
L 683.372045 322.4155 
L 683.372045 322.4155 
L 683.372045 322.4155 
L 683.372045 322.4155 
L 683.372045 322.4155 
L 683.372045 322.4155 
L 683.372045 322.4155 
L 683.372045 322.4155 
L 683.372045 322.4155 
L 683.372045 322.4155 
L 683.372045 322.4155 
L 683.372045 322.4155 
L 683.372045 322.4155 
L 683.372045 322.4155 
L 683.372045 322.4155 
L 683.372045 322.4155 
L 683.372045 322.4155 
L 683.372045 322.4155 
L 683.372045 322.4155 
L 683.372045 322.4155 
L 683.372045 322.4155 
L 683.372045 322.4155 
L 683.372045 322.4155 
L 683.372045 322.4155 
L 683.372045 322.4155 
L 683.372045 322.4155 
L 683.372045 322.4155 
L 683.372045 322.4155 
L 683.372045 322.4155 
L 683.372045 322.4155 
L 683.372045 322.4155 
L 683.372045 322.4155 
L 683.372045 322.4155 
L 683.372045 322.4155 
L 683.372045 322.4155 
L 683.372045 322.4155 
L 683.372045 322.4155 
L 683.372045 322.4155 
L 683.372045 322.4155 
L 683.372045 322.4155 
L 683.372045 322.4155 
L 683.372045 322.4155 
L 683.372045 322.4155 
L 683.372045 322.4155 
L 683.372045 322.4155 
L 683.372045 322.4155 
L 683.372045 322.4155 
L 683.372045 322.4155 
L 683.372045 322.4155 
L 683.372045 322.4155 
L 683.372045 322.4155 
L 683.372045 322.4155 
L 683.372045 322.4155 
L 683.372045 322.4155 
L 683.372045 322.4155 
L 683.372045 322.4155 
L 683.372045 322.4155 
L 683.372045 322.4155 
L 683.372045 322.4155 
L 683.372045 322.4155 
L 683.372045 322.4155 
L 683.372045 322.4155 
L 683.372045 322.4155 
L 683.372045 322.4155 
L 683.372045 322.4155 
L 683.372045 322.4155 
L 683.372045 322.4155 
L 683.372045 322.4155 
L 683.372045 322.4155 
L 683.372045 322.4155 
L 683.372045 322.4155 
L 683.372045 322.4155 
L 683.372045 322.4155 
L 683.372045 322.4155 
L 683.372045 322.4155 
L 683.372045 322.4155 
L 683.372045 322.4155 
L 721.111591 322.4155 
L 721.111591 322.4155 
L 721.111591 322.4155 
L 721.111591 322.4155 
L 721.111591 322.4155 
L 721.111591 322.4155 
L 721.111591 322.4155 
L 721.111591 322.4155 
L 721.111591 322.4155 
L 721.111591 322.4155 
L 721.111591 322.4155 
L 721.111591 322.4155 
L 721.111591 322.4155 
L 721.111591 322.4155 
L 721.111591 322.4155 
L 721.111591 322.4155 
L 721.111591 322.4155 
L 721.111591 322.4155 
L 721.111591 322.4155 
L 721.111591 322.4155 
L 721.111591 322.4155 
L 721.111591 322.4155 
L 721.111591 322.4155 
L 721.111591 322.4155 
L 721.111591 322.4155 
L 721.111591 322.4155 
L 721.111591 322.4155 
L 721.111591 322.4155 
L 721.111591 322.4155 
L 721.111591 322.4155 
L 721.111591 322.4155 
L 721.111591 322.4155 
L 721.111591 322.4155 
L 721.111591 322.4155 
L 721.111591 322.4155 
L 721.111591 322.4155 
L 721.111591 322.4155 
L 721.111591 322.4155 
L 721.111591 322.4155 
L 721.111591 322.4155 
L 721.111591 322.4155 
L 721.111591 322.4155 
L 721.111591 322.4155 
L 721.111591 322.4155 
L 721.111591 322.4155 
L 721.111591 322.4155 
L 721.111591 322.4155 
L 721.111591 322.4155 
L 721.111591 322.4155 
L 721.111591 322.4155 
L 721.111591 322.4155 
L 721.111591 322.4155 
L 721.111591 322.4155 
L 721.111591 322.4155 
L 721.111591 322.4155 
L 721.111591 322.4155 
L 721.111591 322.4155 
L 721.111591 322.4155 
L 721.111591 322.4155 
L 721.111591 322.4155 
L 721.111591 322.4155 
L 721.111591 322.4155 
L 721.111591 322.4155 
L 721.111591 322.4155 
L 721.111591 322.4155 
L 721.111591 322.4155 
L 721.111591 322.4155 
L 721.111591 322.4155 
L 721.111591 322.4155 
L 721.111591 322.4155 
L 721.111591 322.4155 
L 721.111591 322.4155 
L 721.111591 322.4155 
L 721.111591 322.4155 
L 721.111591 322.4155 
L 721.111591 322.4155 
L 721.111591 322.4155 
L 721.111591 322.4155 
L 721.111591 322.4155 
L 721.111591 322.4155 
L 721.111591 322.4155 
L 721.111591 322.4155 
L 721.111591 322.4155 
L 721.111591 322.4155 
L 721.111591 322.4155 
L 721.111591 322.4155 
L 721.111591 322.4155 
L 721.111591 322.4155 
L 721.111591 322.4155 
L 721.111591 322.4155 
L 721.111591 322.4155 
L 721.111591 322.4155 
L 721.111591 322.4155 
L 721.111591 322.4155 
L 721.111591 322.4155 
L 721.111591 322.4155 
L 721.111591 322.4155 
L 721.111591 322.4155 
L 721.111591 322.4155 
L 721.111591 322.4155 
L 721.111591 322.4155 
z
" clip-path="url(#pd216b3ebfd)" style="fill: #1f77b4; fill-opacity: 0.3"/>
   </g>
   <g id="PolyCollection_10">
    <path d="M 796.590682 322.4155 
L 758.851136 322.4155 
L 758.851136 322.4155 
L 758.851136 322.4155 
L 758.851136 322.4155 
L 758.851136 322.4155 
L 758.851136 322.4155 
L 758.851136 322.4155 
L 758.851136 322.4155 
L 758.851136 322.4155 
L 758.851136 322.4155 
L 758.851136 322.4155 
L 758.851136 322.4155 
L 758.851136 322.4155 
L 758.851136 322.4155 
L 758.851136 322.4155 
L 758.851136 322.4155 
L 758.851136 322.4155 
L 758.851136 322.4155 
L 758.851136 322.4155 
L 758.851136 322.4155 
L 758.851136 322.4155 
L 758.851136 322.4155 
L 758.851136 322.4155 
L 758.851136 322.4155 
L 758.851136 322.4155 
L 758.851136 322.4155 
L 758.851136 322.4155 
L 758.851136 322.4155 
L 758.851136 322.4155 
L 758.851136 322.4155 
L 758.851136 322.4155 
L 758.851136 322.4155 
L 758.851136 322.4155 
L 758.851136 322.4155 
L 758.851136 322.4155 
L 758.851136 322.4155 
L 758.851136 322.4155 
L 758.851136 322.4155 
L 758.851136 322.4155 
L 758.851136 322.4155 
L 758.851136 322.4155 
L 758.851136 322.4155 
L 758.851136 322.4155 
L 758.851136 322.4155 
L 758.851136 322.4155 
L 758.851136 322.4155 
L 758.851136 322.4155 
L 758.851136 322.4155 
L 758.851136 322.4155 
L 758.851136 322.4155 
L 758.851136 322.4155 
L 758.851136 322.4155 
L 758.851136 322.4155 
L 758.851136 322.4155 
L 758.851136 322.4155 
L 758.851136 322.4155 
L 758.851136 322.4155 
L 758.851136 322.4155 
L 758.851136 322.4155 
L 758.851136 322.4155 
L 758.851136 322.4155 
L 758.851136 322.4155 
L 758.851136 322.4155 
L 758.851136 322.4155 
L 758.851136 322.4155 
L 758.851136 322.4155 
L 758.851136 322.4155 
L 758.851136 322.4155 
L 758.851136 322.4155 
L 758.851136 322.4155 
L 758.851136 322.4155 
L 758.851136 322.4155 
L 758.851136 322.4155 
L 758.851136 322.4155 
L 758.851136 322.4155 
L 758.851136 322.4155 
L 758.851136 322.4155 
L 758.851136 322.4155 
L 758.851136 322.4155 
L 758.851136 322.4155 
L 758.851136 322.4155 
L 758.851136 322.4155 
L 758.851136 322.4155 
L 758.851136 322.4155 
L 758.851136 322.4155 
L 758.851136 322.4155 
L 758.851136 322.4155 
L 758.851136 322.4155 
L 758.851136 322.4155 
L 758.851136 322.4155 
L 758.851136 322.4155 
L 758.851136 322.4155 
L 758.851136 322.4155 
L 758.851136 322.4155 
L 758.851136 322.4155 
L 758.851136 322.4155 
L 758.851136 322.4155 
L 758.851136 322.4155 
L 758.851136 322.4155 
L 758.851136 322.4155 
L 796.590682 322.4155 
L 796.590682 322.4155 
L 796.590682 322.4155 
L 796.590682 322.4155 
L 796.590682 322.4155 
L 796.590682 322.4155 
L 796.590682 322.4155 
L 796.590682 322.4155 
L 796.590682 322.4155 
L 796.590682 322.4155 
L 796.590682 322.4155 
L 796.590682 322.4155 
L 796.590682 322.4155 
L 796.590682 322.4155 
L 796.590682 322.4155 
L 796.590682 322.4155 
L 796.590682 322.4155 
L 796.590682 322.4155 
L 796.590682 322.4155 
L 796.590682 322.4155 
L 796.590682 322.4155 
L 796.590682 322.4155 
L 796.590682 322.4155 
L 796.590682 322.4155 
L 796.590682 322.4155 
L 796.590682 322.4155 
L 796.590682 322.4155 
L 796.590682 322.4155 
L 796.590682 322.4155 
L 796.590682 322.4155 
L 796.590682 322.4155 
L 796.590682 322.4155 
L 796.590682 322.4155 
L 796.590682 322.4155 
L 796.590682 322.4155 
L 796.590682 322.4155 
L 796.590682 322.4155 
L 796.590682 322.4155 
L 796.590682 322.4155 
L 796.590682 322.4155 
L 796.590682 322.4155 
L 796.590682 322.4155 
L 796.590682 322.4155 
L 796.590682 322.4155 
L 796.590682 322.4155 
L 796.590682 322.4155 
L 796.590682 322.4155 
L 796.590682 322.4155 
L 796.590682 322.4155 
L 796.590682 322.4155 
L 796.590682 322.4155 
L 796.590682 322.4155 
L 796.590682 322.4155 
L 796.590682 322.4155 
L 796.590682 322.4155 
L 796.590682 322.4155 
L 796.590682 322.4155 
L 796.590682 322.4155 
L 796.590682 322.4155 
L 796.590682 322.4155 
L 796.590682 322.4155 
L 796.590682 322.4155 
L 796.590682 322.4155 
L 796.590682 322.4155 
L 796.590682 322.4155 
L 796.590682 322.4155 
L 796.590682 322.4155 
L 796.590682 322.4155 
L 796.590682 322.4155 
L 796.590682 322.4155 
L 796.590682 322.4155 
L 796.590682 322.4155 
L 796.590682 322.4155 
L 796.590682 322.4155 
L 796.590682 322.4155 
L 796.590682 322.4155 
L 796.590682 322.4155 
L 796.590682 322.4155 
L 796.590682 322.4155 
L 796.590682 322.4155 
L 796.590682 322.4155 
L 796.590682 322.4155 
L 796.590682 322.4155 
L 796.590682 322.4155 
L 796.590682 322.4155 
L 796.590682 322.4155 
L 796.590682 322.4155 
L 796.590682 322.4155 
L 796.590682 322.4155 
L 796.590682 322.4155 
L 796.590682 322.4155 
L 796.590682 322.4155 
L 796.590682 322.4155 
L 796.590682 322.4155 
L 796.590682 322.4155 
L 796.590682 322.4155 
L 796.590682 322.4155 
L 796.590682 322.4155 
L 796.590682 322.4155 
L 796.590682 322.4155 
L 796.590682 322.4155 
z
" clip-path="url(#pd216b3ebfd)" style="fill: #1f77b4; fill-opacity: 0.3"/>
   </g>
   <g id="matplotlib.axis_1">
    <g id="xtick_1">
     <g id="line2d_1">
      <defs>
       <path id="m7f5b5eed45" d="M 0 0 
L 0 3.5 
" style="stroke: #000000; stroke-width: 0.8"/>
      </defs>
      <g>
       <use xlink:href="#m7f5b5eed45" x="98.409091" y="337.97" style="stroke: #000000; stroke-width: 0.8"/>
      </g>
     </g>
     <g id="text_1">
      <!-- Defector -->
      <g transform="translate(100.616591 379.51)rotate(-90)scale(0.08 -0.08)">
       <defs>
        <path id="DejaVuSans-44" d="M 1259 4147 
L 1259 519 
L 2022 519 
Q 2988 519 3436 956 
Q 3884 1394 3884 2338 
Q 3884 3275 3436 3711 
Q 2988 4147 2022 4147 
L 1259 4147 
z
M 628 4666 
L 1925 4666 
Q 3281 4666 3915 4102 
Q 4550 3538 4550 2338 
Q 4550 1131 3912 565 
Q 3275 0 1925 0 
L 628 0 
L 628 4666 
z
" transform="scale(0.015625)"/>
        <path id="DejaVuSans-65" d="M 3597 1894 
L 3597 1613 
L 953 1613 
Q 991 1019 1311 708 
Q 1631 397 2203 397 
Q 2534 397 2845 478 
Q 3156 559 3463 722 
L 3463 178 
Q 3153 47 2828 -22 
Q 2503 -91 2169 -91 
Q 1331 -91 842 396 
Q 353 884 353 1716 
Q 353 2575 817 3079 
Q 1281 3584 2069 3584 
Q 2775 3584 3186 3129 
Q 3597 2675 3597 1894 
z
M 3022 2063 
Q 3016 2534 2758 2815 
Q 2500 3097 2075 3097 
Q 1594 3097 1305 2825 
Q 1016 2553 972 2059 
L 3022 2063 
z
" transform="scale(0.015625)"/>
        <path id="DejaVuSans-66" d="M 2375 4863 
L 2375 4384 
L 1825 4384 
Q 1516 4384 1395 4259 
Q 1275 4134 1275 3809 
L 1275 3500 
L 2222 3500 
L 2222 3053 
L 1275 3053 
L 1275 0 
L 697 0 
L 697 3053 
L 147 3053 
L 147 3500 
L 697 3500 
L 697 3744 
Q 697 4328 969 4595 
Q 1241 4863 1831 4863 
L 2375 4863 
z
" transform="scale(0.015625)"/>
        <path id="DejaVuSans-63" d="M 3122 3366 
L 3122 2828 
Q 2878 2963 2633 3030 
Q 2388 3097 2138 3097 
Q 1578 3097 1268 2742 
Q 959 2388 959 1747 
Q 959 1106 1268 751 
Q 1578 397 2138 397 
Q 2388 397 2633 464 
Q 2878 531 3122 666 
L 3122 134 
Q 2881 22 2623 -34 
Q 2366 -91 2075 -91 
Q 1284 -91 818 406 
Q 353 903 353 1747 
Q 353 2603 823 3093 
Q 1294 3584 2113 3584 
Q 2378 3584 2631 3529 
Q 2884 3475 3122 3366 
z
" transform="scale(0.015625)"/>
        <path id="DejaVuSans-74" d="M 1172 4494 
L 1172 3500 
L 2356 3500 
L 2356 3053 
L 1172 3053 
L 1172 1153 
Q 1172 725 1289 603 
Q 1406 481 1766 481 
L 2356 481 
L 2356 0 
L 1766 0 
Q 1100 0 847 248 
Q 594 497 594 1153 
L 594 3053 
L 172 3053 
L 172 3500 
L 594 3500 
L 594 4494 
L 1172 4494 
z
" transform="scale(0.015625)"/>
        <path id="DejaVuSans-6f" d="M 1959 3097 
Q 1497 3097 1228 2736 
Q 959 2375 959 1747 
Q 959 1119 1226 758 
Q 1494 397 1959 397 
Q 2419 397 2687 759 
Q 2956 1122 2956 1747 
Q 2956 2369 2687 2733 
Q 2419 3097 1959 3097 
z
M 1959 3584 
Q 2709 3584 3137 3096 
Q 3566 2609 3566 1747 
Q 3566 888 3137 398 
Q 2709 -91 1959 -91 
Q 1206 -91 779 398 
Q 353 888 353 1747 
Q 353 2609 779 3096 
Q 1206 3584 1959 3584 
z
" transform="scale(0.015625)"/>
        <path id="DejaVuSans-72" d="M 2631 2963 
Q 2534 3019 2420 3045 
Q 2306 3072 2169 3072 
Q 1681 3072 1420 2755 
Q 1159 2438 1159 1844 
L 1159 0 
L 581 0 
L 581 3500 
L 1159 3500 
L 1159 2956 
Q 1341 3275 1631 3429 
Q 1922 3584 2338 3584 
Q 2397 3584 2469 3576 
Q 2541 3569 2628 3553 
L 2631 2963 
z
" transform="scale(0.015625)"/>
       </defs>
       <use xlink:href="#DejaVuSans-44"/>
       <use xlink:href="#DejaVuSans-65" x="77.001953"/>
       <use xlink:href="#DejaVuSans-66" x="138.525391"/>
       <use xlink:href="#DejaVuSans-65" x="173.730469"/>
       <use xlink:href="#DejaVuSans-63" x="235.253906"/>
       <use xlink:href="#DejaVuSans-74" x="290.234375"/>
       <use xlink:href="#DejaVuSans-6f" x="329.443359"/>
       <use xlink:href="#DejaVuSans-72" x="390.625"/>
      </g>
     </g>
    </g>
    <g id="xtick_2">
     <g id="line2d_2">
      <g>
       <use xlink:href="#m7f5b5eed45" x="173.888182" y="337.97" style="stroke: #000000; stroke-width: 0.8"/>
      </g>
     </g>
     <g id="text_2">
      <!-- Grudger -->
      <g transform="translate(176.095682 377.89625)rotate(-90)scale(0.08 -0.08)">
       <defs>
        <path id="DejaVuSans-47" d="M 3809 666 
L 3809 1919 
L 2778 1919 
L 2778 2438 
L 4434 2438 
L 4434 434 
Q 4069 175 3628 42 
Q 3188 -91 2688 -91 
Q 1594 -91 976 548 
Q 359 1188 359 2328 
Q 359 3472 976 4111 
Q 1594 4750 2688 4750 
Q 3144 4750 3555 4637 
Q 3966 4525 4313 4306 
L 4313 3634 
Q 3963 3931 3569 4081 
Q 3175 4231 2741 4231 
Q 1884 4231 1454 3753 
Q 1025 3275 1025 2328 
Q 1025 1384 1454 906 
Q 1884 428 2741 428 
Q 3075 428 3337 486 
Q 3600 544 3809 666 
z
" transform="scale(0.015625)"/>
        <path id="DejaVuSans-75" d="M 544 1381 
L 544 3500 
L 1119 3500 
L 1119 1403 
Q 1119 906 1312 657 
Q 1506 409 1894 409 
Q 2359 409 2629 706 
Q 2900 1003 2900 1516 
L 2900 3500 
L 3475 3500 
L 3475 0 
L 2900 0 
L 2900 538 
Q 2691 219 2414 64 
Q 2138 -91 1772 -91 
Q 1169 -91 856 284 
Q 544 659 544 1381 
z
M 1991 3584 
L 1991 3584 
z
" transform="scale(0.015625)"/>
        <path id="DejaVuSans-64" d="M 2906 2969 
L 2906 4863 
L 3481 4863 
L 3481 0 
L 2906 0 
L 2906 525 
Q 2725 213 2448 61 
Q 2172 -91 1784 -91 
Q 1150 -91 751 415 
Q 353 922 353 1747 
Q 353 2572 751 3078 
Q 1150 3584 1784 3584 
Q 2172 3584 2448 3432 
Q 2725 3281 2906 2969 
z
M 947 1747 
Q 947 1113 1208 752 
Q 1469 391 1925 391 
Q 2381 391 2643 752 
Q 2906 1113 2906 1747 
Q 2906 2381 2643 2742 
Q 2381 3103 1925 3103 
Q 1469 3103 1208 2742 
Q 947 2381 947 1747 
z
" transform="scale(0.015625)"/>
        <path id="DejaVuSans-67" d="M 2906 1791 
Q 2906 2416 2648 2759 
Q 2391 3103 1925 3103 
Q 1463 3103 1205 2759 
Q 947 2416 947 1791 
Q 947 1169 1205 825 
Q 1463 481 1925 481 
Q 2391 481 2648 825 
Q 2906 1169 2906 1791 
z
M 3481 434 
Q 3481 -459 3084 -895 
Q 2688 -1331 1869 -1331 
Q 1566 -1331 1297 -1286 
Q 1028 -1241 775 -1147 
L 775 -588 
Q 1028 -725 1275 -790 
Q 1522 -856 1778 -856 
Q 2344 -856 2625 -561 
Q 2906 -266 2906 331 
L 2906 616 
Q 2728 306 2450 153 
Q 2172 0 1784 0 
Q 1141 0 747 490 
Q 353 981 353 1791 
Q 353 2603 747 3093 
Q 1141 3584 1784 3584 
Q 2172 3584 2450 3431 
Q 2728 3278 2906 2969 
L 2906 3500 
L 3481 3500 
L 3481 434 
z
" transform="scale(0.015625)"/>
       </defs>
       <use xlink:href="#DejaVuSans-47"/>
       <use xlink:href="#DejaVuSans-72" x="77.490234"/>
       <use xlink:href="#DejaVuSans-75" x="118.603516"/>
       <use xlink:href="#DejaVuSans-64" x="181.982422"/>
       <use xlink:href="#DejaVuSans-67" x="245.458984"/>
       <use xlink:href="#DejaVuSans-65" x="308.935547"/>
       <use xlink:href="#DejaVuSans-72" x="370.458984"/>
      </g>
     </g>
    </g>
    <g id="xtick_3">
     <g id="line2d_3">
      <g>
       <use xlink:href="#m7f5b5eed45" x="249.367273" y="337.97" style="stroke: #000000; stroke-width: 0.8"/>
      </g>
     </g>
     <g id="text_3">
      <!-- Adaptive -->
      <g transform="translate(251.574773 380.37875)rotate(-90)scale(0.08 -0.08)">
       <defs>
        <path id="DejaVuSans-41" d="M 2188 4044 
L 1331 1722 
L 3047 1722 
L 2188 4044 
z
M 1831 4666 
L 2547 4666 
L 4325 0 
L 3669 0 
L 3244 1197 
L 1141 1197 
L 716 0 
L 50 0 
L 1831 4666 
z
" transform="scale(0.015625)"/>
        <path id="DejaVuSans-61" d="M 2194 1759 
Q 1497 1759 1228 1600 
Q 959 1441 959 1056 
Q 959 750 1161 570 
Q 1363 391 1709 391 
Q 2188 391 2477 730 
Q 2766 1069 2766 1631 
L 2766 1759 
L 2194 1759 
z
M 3341 1997 
L 3341 0 
L 2766 0 
L 2766 531 
Q 2569 213 2275 61 
Q 1981 -91 1556 -91 
Q 1019 -91 701 211 
Q 384 513 384 1019 
Q 384 1609 779 1909 
Q 1175 2209 1959 2209 
L 2766 2209 
L 2766 2266 
Q 2766 2663 2505 2880 
Q 2244 3097 1772 3097 
Q 1472 3097 1187 3025 
Q 903 2953 641 2809 
L 641 3341 
Q 956 3463 1253 3523 
Q 1550 3584 1831 3584 
Q 2591 3584 2966 3190 
Q 3341 2797 3341 1997 
z
" transform="scale(0.015625)"/>
        <path id="DejaVuSans-70" d="M 1159 525 
L 1159 -1331 
L 581 -1331 
L 581 3500 
L 1159 3500 
L 1159 2969 
Q 1341 3281 1617 3432 
Q 1894 3584 2278 3584 
Q 2916 3584 3314 3078 
Q 3713 2572 3713 1747 
Q 3713 922 3314 415 
Q 2916 -91 2278 -91 
Q 1894 -91 1617 61 
Q 1341 213 1159 525 
z
M 3116 1747 
Q 3116 2381 2855 2742 
Q 2594 3103 2138 3103 
Q 1681 3103 1420 2742 
Q 1159 2381 1159 1747 
Q 1159 1113 1420 752 
Q 1681 391 2138 391 
Q 2594 391 2855 752 
Q 3116 1113 3116 1747 
z
" transform="scale(0.015625)"/>
        <path id="DejaVuSans-69" d="M 603 3500 
L 1178 3500 
L 1178 0 
L 603 0 
L 603 3500 
z
M 603 4863 
L 1178 4863 
L 1178 4134 
L 603 4134 
L 603 4863 
z
" transform="scale(0.015625)"/>
        <path id="DejaVuSans-76" d="M 191 3500 
L 800 3500 
L 1894 563 
L 2988 3500 
L 3597 3500 
L 2284 0 
L 1503 0 
L 191 3500 
z
" transform="scale(0.015625)"/>
       </defs>
       <use xlink:href="#DejaVuSans-41"/>
       <use xlink:href="#DejaVuSans-64" x="66.658203"/>
       <use xlink:href="#DejaVuSans-61" x="130.134766"/>
       <use xlink:href="#DejaVuSans-70" x="191.414062"/>
       <use xlink:href="#DejaVuSans-74" x="254.890625"/>
       <use xlink:href="#DejaVuSans-69" x="294.099609"/>
       <use xlink:href="#DejaVuSans-76" x="321.882812"/>
       <use xlink:href="#DejaVuSans-65" x="381.0625"/>
      </g>
     </g>
    </g>
    <g id="xtick_4">
     <g id="line2d_4">
      <g>
       <use xlink:href="#m7f5b5eed45" x="324.846364" y="337.97" style="stroke: #000000; stroke-width: 0.8"/>
      </g>
     </g>
     <g id="text_4">
      <!-- Alternator -->
      <g transform="translate(327.053864 385.165)rotate(-90)scale(0.08 -0.08)">
       <defs>
        <path id="DejaVuSans-6c" d="M 603 4863 
L 1178 4863 
L 1178 0 
L 603 0 
L 603 4863 
z
" transform="scale(0.015625)"/>
        <path id="DejaVuSans-6e" d="M 3513 2113 
L 3513 0 
L 2938 0 
L 2938 2094 
Q 2938 2591 2744 2837 
Q 2550 3084 2163 3084 
Q 1697 3084 1428 2787 
Q 1159 2491 1159 1978 
L 1159 0 
L 581 0 
L 581 3500 
L 1159 3500 
L 1159 2956 
Q 1366 3272 1645 3428 
Q 1925 3584 2291 3584 
Q 2894 3584 3203 3211 
Q 3513 2838 3513 2113 
z
" transform="scale(0.015625)"/>
       </defs>
       <use xlink:href="#DejaVuSans-41"/>
       <use xlink:href="#DejaVuSans-6c" x="68.408203"/>
       <use xlink:href="#DejaVuSans-74" x="96.191406"/>
       <use xlink:href="#DejaVuSans-65" x="135.400391"/>
       <use xlink:href="#DejaVuSans-72" x="196.923828"/>
       <use xlink:href="#DejaVuSans-6e" x="236.287109"/>
       <use xlink:href="#DejaVuSans-61" x="299.666016"/>
       <use xlink:href="#DejaVuSans-74" x="360.945312"/>
       <use xlink:href="#DejaVuSans-6f" x="400.154297"/>
       <use xlink:href="#DejaVuSans-72" x="461.335938"/>
      </g>
     </g>
    </g>
    <g id="xtick_5">
     <g id="line2d_5">
      <g>
       <use xlink:href="#m7f5b5eed45" x="400.325455" y="337.97" style="stroke: #000000; stroke-width: 0.8"/>
      </g>
     </g>
     <g id="text_5">
      <!-- Random: 0.5 -->
      <g transform="translate(402.532955 396.0475)rotate(-90)scale(0.08 -0.08)">
       <defs>
        <path id="DejaVuSans-52" d="M 2841 2188 
Q 3044 2119 3236 1894 
Q 3428 1669 3622 1275 
L 4263 0 
L 3584 0 
L 2988 1197 
Q 2756 1666 2539 1819 
Q 2322 1972 1947 1972 
L 1259 1972 
L 1259 0 
L 628 0 
L 628 4666 
L 2053 4666 
Q 2853 4666 3247 4331 
Q 3641 3997 3641 3322 
Q 3641 2881 3436 2590 
Q 3231 2300 2841 2188 
z
M 1259 4147 
L 1259 2491 
L 2053 2491 
Q 2509 2491 2742 2702 
Q 2975 2913 2975 3322 
Q 2975 3731 2742 3939 
Q 2509 4147 2053 4147 
L 1259 4147 
z
" transform="scale(0.015625)"/>
        <path id="DejaVuSans-6d" d="M 3328 2828 
Q 3544 3216 3844 3400 
Q 4144 3584 4550 3584 
Q 5097 3584 5394 3201 
Q 5691 2819 5691 2113 
L 5691 0 
L 5113 0 
L 5113 2094 
Q 5113 2597 4934 2840 
Q 4756 3084 4391 3084 
Q 3944 3084 3684 2787 
Q 3425 2491 3425 1978 
L 3425 0 
L 2847 0 
L 2847 2094 
Q 2847 2600 2669 2842 
Q 2491 3084 2119 3084 
Q 1678 3084 1418 2786 
Q 1159 2488 1159 1978 
L 1159 0 
L 581 0 
L 581 3500 
L 1159 3500 
L 1159 2956 
Q 1356 3278 1631 3431 
Q 1906 3584 2284 3584 
Q 2666 3584 2933 3390 
Q 3200 3197 3328 2828 
z
" transform="scale(0.015625)"/>
        <path id="DejaVuSans-3a" d="M 750 794 
L 1409 794 
L 1409 0 
L 750 0 
L 750 794 
z
M 750 3309 
L 1409 3309 
L 1409 2516 
L 750 2516 
L 750 3309 
z
" transform="scale(0.015625)"/>
        <path id="DejaVuSans-20" transform="scale(0.015625)"/>
        <path id="DejaVuSans-30" d="M 2034 4250 
Q 1547 4250 1301 3770 
Q 1056 3291 1056 2328 
Q 1056 1369 1301 889 
Q 1547 409 2034 409 
Q 2525 409 2770 889 
Q 3016 1369 3016 2328 
Q 3016 3291 2770 3770 
Q 2525 4250 2034 4250 
z
M 2034 4750 
Q 2819 4750 3233 4129 
Q 3647 3509 3647 2328 
Q 3647 1150 3233 529 
Q 2819 -91 2034 -91 
Q 1250 -91 836 529 
Q 422 1150 422 2328 
Q 422 3509 836 4129 
Q 1250 4750 2034 4750 
z
" transform="scale(0.015625)"/>
        <path id="DejaVuSans-2e" d="M 684 794 
L 1344 794 
L 1344 0 
L 684 0 
L 684 794 
z
" transform="scale(0.015625)"/>
        <path id="DejaVuSans-35" d="M 691 4666 
L 3169 4666 
L 3169 4134 
L 1269 4134 
L 1269 2991 
Q 1406 3038 1543 3061 
Q 1681 3084 1819 3084 
Q 2600 3084 3056 2656 
Q 3513 2228 3513 1497 
Q 3513 744 3044 326 
Q 2575 -91 1722 -91 
Q 1428 -91 1123 -41 
Q 819 9 494 109 
L 494 744 
Q 775 591 1075 516 
Q 1375 441 1709 441 
Q 2250 441 2565 725 
Q 2881 1009 2881 1497 
Q 2881 1984 2565 2268 
Q 2250 2553 1709 2553 
Q 1456 2553 1204 2497 
Q 953 2441 691 2322 
L 691 4666 
z
" transform="scale(0.015625)"/>
       </defs>
       <use xlink:href="#DejaVuSans-52"/>
       <use xlink:href="#DejaVuSans-61" x="67.232422"/>
       <use xlink:href="#DejaVuSans-6e" x="128.511719"/>
       <use xlink:href="#DejaVuSans-64" x="191.890625"/>
       <use xlink:href="#DejaVuSans-6f" x="255.367188"/>
       <use xlink:href="#DejaVuSans-6d" x="316.548828"/>
       <use xlink:href="#DejaVuSans-3a" x="413.960938"/>
       <use xlink:href="#DejaVuSans-20" x="447.652344"/>
       <use xlink:href="#DejaVuSans-30" x="479.439453"/>
       <use xlink:href="#DejaVuSans-2e" x="543.0625"/>
       <use xlink:href="#DejaVuSans-35" x="574.849609"/>
      </g>
     </g>
    </g>
    <g id="xtick_6">
     <g id="line2d_6">
      <g>
       <use xlink:href="#m7f5b5eed45" x="475.804545" y="337.97" style="stroke: #000000; stroke-width: 0.8"/>
      </g>
     </g>
     <g id="text_6">
      <!-- Deep QLearner -->
      <g transform="translate(478.012045 405.46625)rotate(-90)scale(0.08 -0.08)">
       <defs>
        <path id="DejaVuSans-51" d="M 2522 4238 
Q 1834 4238 1429 3725 
Q 1025 3213 1025 2328 
Q 1025 1447 1429 934 
Q 1834 422 2522 422 
Q 3209 422 3611 934 
Q 4013 1447 4013 2328 
Q 4013 3213 3611 3725 
Q 3209 4238 2522 4238 
z
M 3406 84 
L 4238 -825 
L 3475 -825 
L 2784 -78 
Q 2681 -84 2626 -87 
Q 2572 -91 2522 -91 
Q 1538 -91 948 567 
Q 359 1225 359 2328 
Q 359 3434 948 4092 
Q 1538 4750 2522 4750 
Q 3503 4750 4090 4092 
Q 4678 3434 4678 2328 
Q 4678 1516 4351 937 
Q 4025 359 3406 84 
z
" transform="scale(0.015625)"/>
        <path id="DejaVuSans-4c" d="M 628 4666 
L 1259 4666 
L 1259 531 
L 3531 531 
L 3531 0 
L 628 0 
L 628 4666 
z
" transform="scale(0.015625)"/>
       </defs>
       <use xlink:href="#DejaVuSans-44"/>
       <use xlink:href="#DejaVuSans-65" x="77.001953"/>
       <use xlink:href="#DejaVuSans-65" x="138.525391"/>
       <use xlink:href="#DejaVuSans-70" x="200.048828"/>
       <use xlink:href="#DejaVuSans-20" x="263.525391"/>
       <use xlink:href="#DejaVuSans-51" x="295.3125"/>
       <use xlink:href="#DejaVuSans-4c" x="374.023438"/>
       <use xlink:href="#DejaVuSans-65" x="427.986328"/>
       <use xlink:href="#DejaVuSans-61" x="489.509766"/>
       <use xlink:href="#DejaVuSans-72" x="550.789062"/>
       <use xlink:href="#DejaVuSans-6e" x="590.152344"/>
       <use xlink:href="#DejaVuSans-65" x="653.53125"/>
       <use xlink:href="#DejaVuSans-72" x="715.054688"/>
      </g>
     </g>
    </g>
    <g id="xtick_7">
     <g id="line2d_7">
      <g>
       <use xlink:href="#m7f5b5eed45" x="551.283636" y="337.97" style="stroke: #000000; stroke-width: 0.8"/>
      </g>
     </g>
     <g id="text_7">
      <!-- Risky QLearner -->
      <g transform="translate(553.491136 405.40875)rotate(-90)scale(0.08 -0.08)">
       <defs>
        <path id="DejaVuSans-73" d="M 2834 3397 
L 2834 2853 
Q 2591 2978 2328 3040 
Q 2066 3103 1784 3103 
Q 1356 3103 1142 2972 
Q 928 2841 928 2578 
Q 928 2378 1081 2264 
Q 1234 2150 1697 2047 
L 1894 2003 
Q 2506 1872 2764 1633 
Q 3022 1394 3022 966 
Q 3022 478 2636 193 
Q 2250 -91 1575 -91 
Q 1294 -91 989 -36 
Q 684 19 347 128 
L 347 722 
Q 666 556 975 473 
Q 1284 391 1588 391 
Q 1994 391 2212 530 
Q 2431 669 2431 922 
Q 2431 1156 2273 1281 
Q 2116 1406 1581 1522 
L 1381 1569 
Q 847 1681 609 1914 
Q 372 2147 372 2553 
Q 372 3047 722 3315 
Q 1072 3584 1716 3584 
Q 2034 3584 2315 3537 
Q 2597 3491 2834 3397 
z
" transform="scale(0.015625)"/>
        <path id="DejaVuSans-6b" d="M 581 4863 
L 1159 4863 
L 1159 1991 
L 2875 3500 
L 3609 3500 
L 1753 1863 
L 3688 0 
L 2938 0 
L 1159 1709 
L 1159 0 
L 581 0 
L 581 4863 
z
" transform="scale(0.015625)"/>
        <path id="DejaVuSans-79" d="M 2059 -325 
Q 1816 -950 1584 -1140 
Q 1353 -1331 966 -1331 
L 506 -1331 
L 506 -850 
L 844 -850 
Q 1081 -850 1212 -737 
Q 1344 -625 1503 -206 
L 1606 56 
L 191 3500 
L 800 3500 
L 1894 763 
L 2988 3500 
L 3597 3500 
L 2059 -325 
z
" transform="scale(0.015625)"/>
       </defs>
       <use xlink:href="#DejaVuSans-52"/>
       <use xlink:href="#DejaVuSans-69" x="69.482422"/>
       <use xlink:href="#DejaVuSans-73" x="97.265625"/>
       <use xlink:href="#DejaVuSans-6b" x="149.365234"/>
       <use xlink:href="#DejaVuSans-79" x="203.650391"/>
       <use xlink:href="#DejaVuSans-20" x="262.830078"/>
       <use xlink:href="#DejaVuSans-51" x="294.617188"/>
       <use xlink:href="#DejaVuSans-4c" x="373.328125"/>
       <use xlink:href="#DejaVuSans-65" x="427.291016"/>
       <use xlink:href="#DejaVuSans-61" x="488.814453"/>
       <use xlink:href="#DejaVuSans-72" x="550.09375"/>
       <use xlink:href="#DejaVuSans-6e" x="589.457031"/>
       <use xlink:href="#DejaVuSans-65" x="652.835938"/>
       <use xlink:href="#DejaVuSans-72" x="714.359375"/>
      </g>
     </g>
    </g>
    <g id="xtick_8">
     <g id="line2d_8">
      <g>
       <use xlink:href="#m7f5b5eed45" x="626.762727" y="337.97" style="stroke: #000000; stroke-width: 0.8"/>
      </g>
     </g>
     <g id="text_8">
      <!-- Mediocre QLearner -->
      <g transform="translate(628.970227 420.83375)rotate(-90)scale(0.08 -0.08)">
       <defs>
        <path id="DejaVuSans-4d" d="M 628 4666 
L 1569 4666 
L 2759 1491 
L 3956 4666 
L 4897 4666 
L 4897 0 
L 4281 0 
L 4281 4097 
L 3078 897 
L 2444 897 
L 1241 4097 
L 1241 0 
L 628 0 
L 628 4666 
z
" transform="scale(0.015625)"/>
       </defs>
       <use xlink:href="#DejaVuSans-4d"/>
       <use xlink:href="#DejaVuSans-65" x="86.279297"/>
       <use xlink:href="#DejaVuSans-64" x="147.802734"/>
       <use xlink:href="#DejaVuSans-69" x="211.279297"/>
       <use xlink:href="#DejaVuSans-6f" x="239.0625"/>
       <use xlink:href="#DejaVuSans-63" x="300.244141"/>
       <use xlink:href="#DejaVuSans-72" x="355.224609"/>
       <use xlink:href="#DejaVuSans-65" x="394.087891"/>
       <use xlink:href="#DejaVuSans-20" x="455.611328"/>
       <use xlink:href="#DejaVuSans-51" x="487.398438"/>
       <use xlink:href="#DejaVuSans-4c" x="566.109375"/>
       <use xlink:href="#DejaVuSans-65" x="620.072266"/>
       <use xlink:href="#DejaVuSans-61" x="681.595703"/>
       <use xlink:href="#DejaVuSans-72" x="742.875"/>
       <use xlink:href="#DejaVuSans-6e" x="782.238281"/>
       <use xlink:href="#DejaVuSans-65" x="845.617188"/>
       <use xlink:href="#DejaVuSans-72" x="907.140625"/>
      </g>
     </g>
    </g>
    <g id="xtick_9">
     <g id="line2d_9">
      <g>
       <use xlink:href="#m7f5b5eed45" x="702.241818" y="337.97" style="stroke: #000000; stroke-width: 0.8"/>
      </g>
     </g>
     <g id="text_9">
      <!-- Tit For Tat -->
      <g transform="translate(704.449318 384.15)rotate(-90)scale(0.08 -0.08)">
       <defs>
        <path id="DejaVuSans-54" d="M -19 4666 
L 3928 4666 
L 3928 4134 
L 2272 4134 
L 2272 0 
L 1638 0 
L 1638 4134 
L -19 4134 
L -19 4666 
z
" transform="scale(0.015625)"/>
        <path id="DejaVuSans-46" d="M 628 4666 
L 3309 4666 
L 3309 4134 
L 1259 4134 
L 1259 2759 
L 3109 2759 
L 3109 2228 
L 1259 2228 
L 1259 0 
L 628 0 
L 628 4666 
z
" transform="scale(0.015625)"/>
       </defs>
       <use xlink:href="#DejaVuSans-54"/>
       <use xlink:href="#DejaVuSans-69" x="57.958984"/>
       <use xlink:href="#DejaVuSans-74" x="85.742188"/>
       <use xlink:href="#DejaVuSans-20" x="124.951172"/>
       <use xlink:href="#DejaVuSans-46" x="156.738281"/>
       <use xlink:href="#DejaVuSans-6f" x="210.632812"/>
       <use xlink:href="#DejaVuSans-72" x="271.814453"/>
       <use xlink:href="#DejaVuSans-20" x="312.927734"/>
       <use xlink:href="#DejaVuSans-54" x="344.714844"/>
       <use xlink:href="#DejaVuSans-61" x="389.298828"/>
       <use xlink:href="#DejaVuSans-74" x="450.578125"/>
      </g>
     </g>
    </g>
    <g id="xtick_10">
     <g id="line2d_10">
      <g>
       <use xlink:href="#m7f5b5eed45" x="777.720909" y="337.97" style="stroke: #000000; stroke-width: 0.8"/>
      </g>
     </g>
     <g id="text_10">
      <!-- Cooperator -->
      <g transform="translate(779.928409 389.85875)rotate(-90)scale(0.08 -0.08)">
       <defs>
        <path id="DejaVuSans-43" d="M 4122 4306 
L 4122 3641 
Q 3803 3938 3442 4084 
Q 3081 4231 2675 4231 
Q 1875 4231 1450 3742 
Q 1025 3253 1025 2328 
Q 1025 1406 1450 917 
Q 1875 428 2675 428 
Q 3081 428 3442 575 
Q 3803 722 4122 1019 
L 4122 359 
Q 3791 134 3420 21 
Q 3050 -91 2638 -91 
Q 1578 -91 968 557 
Q 359 1206 359 2328 
Q 359 3453 968 4101 
Q 1578 4750 2638 4750 
Q 3056 4750 3426 4639 
Q 3797 4528 4122 4306 
z
" transform="scale(0.015625)"/>
       </defs>
       <use xlink:href="#DejaVuSans-43"/>
       <use xlink:href="#DejaVuSans-6f" x="69.824219"/>
       <use xlink:href="#DejaVuSans-6f" x="131.005859"/>
       <use xlink:href="#DejaVuSans-70" x="192.1875"/>
       <use xlink:href="#DejaVuSans-65" x="255.664062"/>
       <use xlink:href="#DejaVuSans-72" x="317.1875"/>
       <use xlink:href="#DejaVuSans-61" x="358.300781"/>
       <use xlink:href="#DejaVuSans-74" x="419.580078"/>
       <use xlink:href="#DejaVuSans-6f" x="458.789062"/>
       <use xlink:href="#DejaVuSans-72" x="519.970703"/>
      </g>
     </g>
    </g>
   </g>
   <g id="matplotlib.axis_2">
    <g id="ytick_1">
     <g id="line2d_11">
      <defs>
       <path id="m29c32d8afb" d="M 0 0 
L -3.5 0 
" style="stroke: #000000; stroke-width: 0.8"/>
      </defs>
      <g>
       <use xlink:href="#m29c32d8afb" x="22.93" y="322.4155" style="stroke: #000000; stroke-width: 0.8"/>
      </g>
     </g>
     <g id="text_11">
      <!-- 0 -->
      <g transform="translate(10.84 325.454875)scale(0.08 -0.08)">
       <use xlink:href="#DejaVuSans-30"/>
      </g>
     </g>
    </g>
    <g id="ytick_2">
     <g id="line2d_12">
      <g>
       <use xlink:href="#m29c32d8afb" x="22.93" y="260.1975" style="stroke: #000000; stroke-width: 0.8"/>
      </g>
     </g>
     <g id="text_12">
      <!-- 2 -->
      <g transform="translate(10.84 263.236875)scale(0.08 -0.08)">
       <defs>
        <path id="DejaVuSans-32" d="M 1228 531 
L 3431 531 
L 3431 0 
L 469 0 
L 469 531 
Q 828 903 1448 1529 
Q 2069 2156 2228 2338 
Q 2531 2678 2651 2914 
Q 2772 3150 2772 3378 
Q 2772 3750 2511 3984 
Q 2250 4219 1831 4219 
Q 1534 4219 1204 4116 
Q 875 4013 500 3803 
L 500 4441 
Q 881 4594 1212 4672 
Q 1544 4750 1819 4750 
Q 2544 4750 2975 4387 
Q 3406 4025 3406 3419 
Q 3406 3131 3298 2873 
Q 3191 2616 2906 2266 
Q 2828 2175 2409 1742 
Q 1991 1309 1228 531 
z
" transform="scale(0.015625)"/>
       </defs>
       <use xlink:href="#DejaVuSans-32"/>
      </g>
     </g>
    </g>
    <g id="ytick_3">
     <g id="line2d_13">
      <g>
       <use xlink:href="#m29c32d8afb" x="22.93" y="197.9795" style="stroke: #000000; stroke-width: 0.8"/>
      </g>
     </g>
     <g id="text_13">
      <!-- 4 -->
      <g transform="translate(10.84 201.018875)scale(0.08 -0.08)">
       <defs>
        <path id="DejaVuSans-34" d="M 2419 4116 
L 825 1625 
L 2419 1625 
L 2419 4116 
z
M 2253 4666 
L 3047 4666 
L 3047 1625 
L 3713 1625 
L 3713 1100 
L 3047 1100 
L 3047 0 
L 2419 0 
L 2419 1100 
L 313 1100 
L 313 1709 
L 2253 4666 
z
" transform="scale(0.015625)"/>
       </defs>
       <use xlink:href="#DejaVuSans-34"/>
      </g>
     </g>
    </g>
    <g id="ytick_4">
     <g id="line2d_14">
      <g>
       <use xlink:href="#m29c32d8afb" x="22.93" y="135.7615" style="stroke: #000000; stroke-width: 0.8"/>
      </g>
     </g>
     <g id="text_14">
      <!-- 6 -->
      <g transform="translate(10.84 138.800875)scale(0.08 -0.08)">
       <defs>
        <path id="DejaVuSans-36" d="M 2113 2584 
Q 1688 2584 1439 2293 
Q 1191 2003 1191 1497 
Q 1191 994 1439 701 
Q 1688 409 2113 409 
Q 2538 409 2786 701 
Q 3034 994 3034 1497 
Q 3034 2003 2786 2293 
Q 2538 2584 2113 2584 
z
M 3366 4563 
L 3366 3988 
Q 3128 4100 2886 4159 
Q 2644 4219 2406 4219 
Q 1781 4219 1451 3797 
Q 1122 3375 1075 2522 
Q 1259 2794 1537 2939 
Q 1816 3084 2150 3084 
Q 2853 3084 3261 2657 
Q 3669 2231 3669 1497 
Q 3669 778 3244 343 
Q 2819 -91 2113 -91 
Q 1303 -91 875 529 
Q 447 1150 447 2328 
Q 447 3434 972 4092 
Q 1497 4750 2381 4750 
Q 2619 4750 2861 4703 
Q 3103 4656 3366 4563 
z
" transform="scale(0.015625)"/>
       </defs>
       <use xlink:href="#DejaVuSans-36"/>
      </g>
     </g>
    </g>
    <g id="ytick_5">
     <g id="line2d_15">
      <g>
       <use xlink:href="#m29c32d8afb" x="22.93" y="73.5435" style="stroke: #000000; stroke-width: 0.8"/>
      </g>
     </g>
     <g id="text_15">
      <!-- 8 -->
      <g transform="translate(10.84 76.582875)scale(0.08 -0.08)">
       <defs>
        <path id="DejaVuSans-38" d="M 2034 2216 
Q 1584 2216 1326 1975 
Q 1069 1734 1069 1313 
Q 1069 891 1326 650 
Q 1584 409 2034 409 
Q 2484 409 2743 651 
Q 3003 894 3003 1313 
Q 3003 1734 2745 1975 
Q 2488 2216 2034 2216 
z
M 1403 2484 
Q 997 2584 770 2862 
Q 544 3141 544 3541 
Q 544 4100 942 4425 
Q 1341 4750 2034 4750 
Q 2731 4750 3128 4425 
Q 3525 4100 3525 3541 
Q 3525 3141 3298 2862 
Q 3072 2584 2669 2484 
Q 3125 2378 3379 2068 
Q 3634 1759 3634 1313 
Q 3634 634 3220 271 
Q 2806 -91 2034 -91 
Q 1263 -91 848 271 
Q 434 634 434 1313 
Q 434 1759 690 2068 
Q 947 2378 1403 2484 
z
M 1172 3481 
Q 1172 3119 1398 2916 
Q 1625 2713 2034 2713 
Q 2441 2713 2670 2916 
Q 2900 3119 2900 3481 
Q 2900 3844 2670 4047 
Q 2441 4250 2034 4250 
Q 1625 4250 1398 4047 
Q 1172 3844 1172 3481 
z
" transform="scale(0.015625)"/>
       </defs>
       <use xlink:href="#DejaVuSans-38"/>
      </g>
     </g>
    </g>
   </g>
   <g id="LineCollection_1">
    <path d="M 88.974205 42.4345 
L 107.843977 42.4345 
" clip-path="url(#pd216b3ebfd)" style="fill: none; stroke: #1f77b4; stroke-width: 1.5"/>
    <path d="M 164.453295 135.7615 
L 183.323068 135.7615 
" clip-path="url(#pd216b3ebfd)" style="fill: none; stroke: #1f77b4; stroke-width: 1.5"/>
    <path d="M 239.932386 135.7615 
L 258.802159 135.7615 
" clip-path="url(#pd216b3ebfd)" style="fill: none; stroke: #1f77b4; stroke-width: 1.5"/>
    <path d="M 315.411477 166.8705 
L 334.28125 166.8705 
" clip-path="url(#pd216b3ebfd)" style="fill: none; stroke: #1f77b4; stroke-width: 1.5"/>
    <path d="M 390.890568 197.9795 
L 409.760341 197.9795 
" clip-path="url(#pd216b3ebfd)" style="fill: none; stroke: #1f77b4; stroke-width: 1.5"/>
    <path d="M 466.369659 197.9795 
L 485.239432 197.9795 
" clip-path="url(#pd216b3ebfd)" style="fill: none; stroke: #1f77b4; stroke-width: 1.5"/>
    <path d="M 541.84875 260.1975 
L 560.718523 260.1975 
" clip-path="url(#pd216b3ebfd)" style="fill: none; stroke: #1f77b4; stroke-width: 1.5"/>
    <path d="M 617.327841 260.1975 
L 636.197614 260.1975 
" clip-path="url(#pd216b3ebfd)" style="fill: none; stroke: #1f77b4; stroke-width: 1.5"/>
    <path d="M 692.806932 322.4155 
L 711.676705 322.4155 
" clip-path="url(#pd216b3ebfd)" style="fill: none; stroke: #1f77b4; stroke-width: 1.5"/>
    <path d="M 768.286023 322.4155 
L 787.155795 322.4155 
" clip-path="url(#pd216b3ebfd)" style="fill: none; stroke: #1f77b4; stroke-width: 1.5"/>
   </g>
   <g id="patch_3">
    <path d="M 22.93 337.97 
L 22.93 26.88 
" style="fill: none; stroke: #000000; stroke-width: 0.8; stroke-linejoin: miter; stroke-linecap: square"/>
   </g>
   <g id="patch_4">
    <path d="M 853.2 337.97 
L 853.2 26.88 
" style="fill: none; stroke: #000000; stroke-width: 0.8; stroke-linejoin: miter; stroke-linecap: square"/>
   </g>
   <g id="patch_5">
    <path d="M 22.93 337.97 
L 853.2 337.97 
" style="fill: none; stroke: #000000; stroke-width: 0.8; stroke-linejoin: miter; stroke-linecap: square"/>
   </g>
   <g id="patch_6">
    <path d="M 22.93 26.88 
L 853.2 26.88 
" style="fill: none; stroke: #000000; stroke-width: 0.8; stroke-linejoin: miter; stroke-linecap: square"/>
   </g>
   <g id="text_16">
    <!-- Wins - turns: 200, repetitions: 100, strategies: 10.  -->
    <g transform="translate(286.363438 20.88)scale(0.12 -0.12)">
     <defs>
      <path id="DejaVuSans-57" d="M 213 4666 
L 850 4666 
L 1831 722 
L 2809 4666 
L 3519 4666 
L 4500 722 
L 5478 4666 
L 6119 4666 
L 4947 0 
L 4153 0 
L 3169 4050 
L 2175 0 
L 1381 0 
L 213 4666 
z
" transform="scale(0.015625)"/>
      <path id="DejaVuSans-2d" d="M 313 2009 
L 1997 2009 
L 1997 1497 
L 313 1497 
L 313 2009 
z
" transform="scale(0.015625)"/>
      <path id="DejaVuSans-2c" d="M 750 794 
L 1409 794 
L 1409 256 
L 897 -744 
L 494 -744 
L 750 256 
L 750 794 
z
" transform="scale(0.015625)"/>
      <path id="DejaVuSans-31" d="M 794 531 
L 1825 531 
L 1825 4091 
L 703 3866 
L 703 4441 
L 1819 4666 
L 2450 4666 
L 2450 531 
L 3481 531 
L 3481 0 
L 794 0 
L 794 531 
z
" transform="scale(0.015625)"/>
     </defs>
     <use xlink:href="#DejaVuSans-57"/>
     <use xlink:href="#DejaVuSans-69" x="96.626953"/>
     <use xlink:href="#DejaVuSans-6e" x="124.410156"/>
     <use xlink:href="#DejaVuSans-73" x="187.789062"/>
     <use xlink:href="#DejaVuSans-20" x="239.888672"/>
     <use xlink:href="#DejaVuSans-2d" x="271.675781"/>
     <use xlink:href="#DejaVuSans-20" x="307.759766"/>
     <use xlink:href="#DejaVuSans-74" x="339.546875"/>
     <use xlink:href="#DejaVuSans-75" x="378.755859"/>
     <use xlink:href="#DejaVuSans-72" x="442.134766"/>
     <use xlink:href="#DejaVuSans-6e" x="481.498047"/>
     <use xlink:href="#DejaVuSans-73" x="544.876953"/>
     <use xlink:href="#DejaVuSans-3a" x="596.976562"/>
     <use xlink:href="#DejaVuSans-20" x="630.667969"/>
     <use xlink:href="#DejaVuSans-32" x="662.455078"/>
     <use xlink:href="#DejaVuSans-30" x="726.078125"/>
     <use xlink:href="#DejaVuSans-30" x="789.701172"/>
     <use xlink:href="#DejaVuSans-2c" x="853.324219"/>
     <use xlink:href="#DejaVuSans-20" x="885.111328"/>
     <use xlink:href="#DejaVuSans-72" x="916.898438"/>
     <use xlink:href="#DejaVuSans-65" x="955.761719"/>
     <use xlink:href="#DejaVuSans-70" x="1017.285156"/>
     <use xlink:href="#DejaVuSans-65" x="1080.761719"/>
     <use xlink:href="#DejaVuSans-74" x="1142.285156"/>
     <use xlink:href="#DejaVuSans-69" x="1181.494141"/>
     <use xlink:href="#DejaVuSans-74" x="1209.277344"/>
     <use xlink:href="#DejaVuSans-69" x="1248.486328"/>
     <use xlink:href="#DejaVuSans-6f" x="1276.269531"/>
     <use xlink:href="#DejaVuSans-6e" x="1337.451172"/>
     <use xlink:href="#DejaVuSans-73" x="1400.830078"/>
     <use xlink:href="#DejaVuSans-3a" x="1452.929688"/>
     <use xlink:href="#DejaVuSans-20" x="1486.621094"/>
     <use xlink:href="#DejaVuSans-31" x="1518.408203"/>
     <use xlink:href="#DejaVuSans-30" x="1582.03125"/>
     <use xlink:href="#DejaVuSans-30" x="1645.654297"/>
     <use xlink:href="#DejaVuSans-2c" x="1709.277344"/>
     <use xlink:href="#DejaVuSans-20" x="1741.064453"/>
     <use xlink:href="#DejaVuSans-73" x="1772.851562"/>
     <use xlink:href="#DejaVuSans-74" x="1824.951172"/>
     <use xlink:href="#DejaVuSans-72" x="1864.160156"/>
     <use xlink:href="#DejaVuSans-61" x="1905.273438"/>
     <use xlink:href="#DejaVuSans-74" x="1966.552734"/>
     <use xlink:href="#DejaVuSans-65" x="2005.761719"/>
     <use xlink:href="#DejaVuSans-67" x="2067.285156"/>
     <use xlink:href="#DejaVuSans-69" x="2130.761719"/>
     <use xlink:href="#DejaVuSans-65" x="2158.544922"/>
     <use xlink:href="#DejaVuSans-73" x="2220.068359"/>
     <use xlink:href="#DejaVuSans-3a" x="2272.167969"/>
     <use xlink:href="#DejaVuSans-20" x="2305.859375"/>
     <use xlink:href="#DejaVuSans-31" x="2337.646484"/>
     <use xlink:href="#DejaVuSans-30" x="2401.269531"/>
     <use xlink:href="#DejaVuSans-2e" x="2464.892578"/>
     <use xlink:href="#DejaVuSans-20" x="2496.679688"/>
    </g>
   </g>
  </g>
 </g>
 <defs>
  <clipPath id="pd216b3ebfd">
   <rect x="22.93" y="26.88" width="830.27" height="311.09"/>
  </clipPath>
 </defs>
</svg>
