<?xml version="1.0" encoding="utf-8" standalone="no"?>
<!DOCTYPE svg PUBLIC "-//W3C//DTD SVG 1.1//EN"
  "http://www.w3.org/Graphics/SVG/1.1/DTD/svg11.dtd">
<svg xmlns:xlink="http://www.w3.org/1999/xlink" width="864pt" height="432pt" viewBox="0 0 864 432" xmlns="http://www.w3.org/2000/svg" version="1.1">
 <metadata>
  <rdf:RDF xmlns:dc="http://purl.org/dc/elements/1.1/" xmlns:cc="http://creativecommons.org/ns#" xmlns:rdf="http://www.w3.org/1999/02/22-rdf-syntax-ns#">
   <cc:Work>
    <dc:type rdf:resource="http://purl.org/dc/dcmitype/StillImage"/>
    <dc:date>2022-09-25T00:27:33.002045</dc:date>
    <dc:format>image/svg+xml</dc:format>
    <dc:creator>
     <cc:Agent>
      <dc:title>Matplotlib v3.5.1, https://matplotlib.org/</dc:title>
     </cc:Agent>
    </dc:creator>
   </cc:Work>
  </rdf:RDF>
 </metadata>
 <defs>
  <style type="text/css">*{stroke-linejoin: round; stroke-linecap: butt}</style>
 </defs>
 <g id="figure_1">
  <g id="patch_1">
   <path d="M 0 432 
L 864 432 
L 864 0 
L 0 0 
z
" style="fill: #ffffff"/>
  </g>
  <g id="axes_1">
   <g id="patch_2">
    <path d="M 22.93 337.97 
L 853.2 337.97 
L 853.2 26.88 
L 22.93 26.88 
z
" style="fill: #ffffff"/>
   </g>
   <g id="PolyCollection_1">
    <path d="M 111.003771 73.5435 
L 85.814411 73.5435 
L 85.819058 73.229268 
L 85.840005 72.915035 
L 85.877096 72.600803 
L 85.930103 72.286571 
L 85.998726 71.972338 
L 86.082596 71.658106 
L 86.181275 71.343874 
L 86.294259 71.029641 
L 86.420978 70.715409 
L 86.560802 70.401177 
L 86.713041 70.086944 
L 86.876952 69.772712 
L 87.051739 69.45848 
L 87.236556 69.144247 
L 87.430517 68.830015 
L 87.632692 68.515783 
L 87.842119 68.201551 
L 88.057803 67.887318 
L 88.278722 67.573086 
L 88.503834 67.258854 
L 88.732076 66.944621 
L 88.962377 66.630389 
L 89.193652 66.316157 
L 89.424816 66.001924 
L 89.654781 65.687692 
L 89.882467 65.37346 
L 90.106799 65.059227 
L 90.326716 64.744995 
L 90.541174 64.430763 
L 90.749148 64.11653 
L 90.949636 63.802298 
L 91.141664 63.488066 
L 91.324286 63.173833 
L 91.496592 62.859601 
L 91.657704 62.545369 
L 91.806784 62.231136 
L 91.943035 61.916904 
L 92.065702 61.602672 
L 92.174077 61.288439 
L 92.267499 60.974207 
L 92.345355 60.659975 
L 92.407085 60.345742 
L 92.45218 60.03151 
L 92.480188 59.717278 
L 92.490713 59.403045 
L 92.483415 59.088813 
L 92.458014 58.774581 
L 92.414291 58.460348 
L 92.35209 58.146116 
L 92.271316 57.831884 
L 92.171938 57.517652 
L 92.053992 57.203419 
L 91.917578 56.889187 
L 91.762866 56.574955 
L 91.590089 56.260722 
L 91.399553 55.94649 
L 91.191628 55.632258 
L 90.966756 55.318025 
L 90.725446 55.003793 
L 90.468276 54.689561 
L 90.195892 54.375328 
L 89.909007 54.061096 
L 89.6084 53.746864 
L 89.294916 53.432631 
L 88.969463 53.118399 
L 88.63301 52.804167 
L 88.286585 52.489934 
L 87.931273 52.175702 
L 87.568214 51.86147 
L 87.198595 51.547237 
L 86.82365 51.233005 
L 86.444658 50.918773 
L 86.062933 50.60454 
L 85.679822 50.290308 
L 85.296699 49.976076 
L 84.914962 49.661843 
L 84.536023 49.347611 
L 84.161305 49.033379 
L 83.792234 48.719146 
L 83.430235 48.404914 
L 83.076719 48.090682 
L 82.733084 47.776449 
L 82.400704 47.462217 
L 82.080921 47.147985 
L 81.77504 46.833753 
L 81.484323 46.51952 
L 81.209978 46.205288 
L 80.953159 45.891056 
L 80.714952 45.576823 
L 80.496376 45.262591 
L 80.298374 44.948359 
L 80.121805 44.634126 
L 79.967447 44.319894 
L 79.835983 44.005662 
L 79.728005 43.691429 
L 79.644007 43.377197 
L 79.584382 43.062965 
L 79.549423 42.748732 
L 79.539318 42.4345 
L 117.278864 42.4345 
L 117.278864 42.4345 
L 117.268759 42.748732 
L 117.2338 43.062965 
L 117.174175 43.377197 
L 117.090177 43.691429 
L 116.982199 44.005662 
L 116.850735 44.319894 
L 116.696377 44.634126 
L 116.519808 44.948359 
L 116.321805 45.262591 
L 116.10323 45.576823 
L 115.865023 45.891056 
L 115.608203 46.205288 
L 115.333859 46.51952 
L 115.043141 46.833753 
L 114.737261 47.147985 
L 114.417478 47.462217 
L 114.085098 47.776449 
L 113.741463 48.090682 
L 113.387947 48.404914 
L 113.025947 48.719146 
L 112.656877 49.033379 
L 112.282159 49.347611 
L 111.90322 49.661843 
L 111.521483 49.976076 
L 111.13836 50.290308 
L 110.755249 50.60454 
L 110.373523 50.918773 
L 109.994531 51.233005 
L 109.619587 51.547237 
L 109.249968 51.86147 
L 108.886908 52.175702 
L 108.531597 52.489934 
L 108.185172 52.804167 
L 107.848719 53.118399 
L 107.523266 53.432631 
L 107.209782 53.746864 
L 106.909175 54.061096 
L 106.62229 54.375328 
L 106.349905 54.689561 
L 106.092735 55.003793 
L 105.851426 55.318025 
L 105.626554 55.632258 
L 105.418629 55.94649 
L 105.228092 56.260722 
L 105.055316 56.574955 
L 104.900603 56.889187 
L 104.76419 57.203419 
L 104.646244 57.517652 
L 104.546866 57.831884 
L 104.466092 58.146116 
L 104.40389 58.460348 
L 104.360168 58.774581 
L 104.334767 59.088813 
L 104.327469 59.403045 
L 104.337993 59.717278 
L 104.366002 60.03151 
L 104.411097 60.345742 
L 104.472827 60.659975 
L 104.550683 60.974207 
L 104.644104 61.288439 
L 104.75248 61.602672 
L 104.875147 61.916904 
L 105.011398 62.231136 
L 105.160478 62.545369 
L 105.32159 62.859601 
L 105.493895 63.173833 
L 105.676518 63.488066 
L 105.868546 63.802298 
L 106.069034 64.11653 
L 106.277008 64.430763 
L 106.491466 64.744995 
L 106.711383 65.059227 
L 106.935715 65.37346 
L 107.163401 65.687692 
L 107.393366 66.001924 
L 107.62453 66.316157 
L 107.855805 66.630389 
L 108.086105 66.944621 
L 108.314348 67.258854 
L 108.53946 67.573086 
L 108.760379 67.887318 
L 108.976063 68.201551 
L 109.18549 68.515783 
L 109.387665 68.830015 
L 109.581626 69.144247 
L 109.766443 69.45848 
L 109.94123 69.772712 
L 110.105141 70.086944 
L 110.25738 70.401177 
L 110.397204 70.715409 
L 110.523923 71.029641 
L 110.636906 71.343874 
L 110.735586 71.658106 
L 110.819456 71.972338 
L 110.888079 72.286571 
L 110.941086 72.600803 
L 110.978177 72.915035 
L 110.999124 73.229268 
L 111.003771 73.5435 
z
" clip-path="url(#p424a37f1fd)" style="fill: #1f77b4; fill-opacity: 0.3"/>
   </g>
   <g id="PolyCollection_2">
    <path d="M 185.499043 197.9795 
L 162.277321 197.9795 
L 162.191512 197.351035 
L 162.122858 196.722571 
L 162.070137 196.094106 
L 162.031891 195.465641 
L 162.006446 194.837177 
L 161.991925 194.208712 
L 161.986275 193.580247 
L 161.987291 192.951783 
L 161.992645 192.323318 
L 161.999919 191.694854 
L 162.006636 191.066389 
L 162.010302 190.437924 
L 162.008436 189.80946 
L 161.998611 189.180995 
L 161.978495 188.55253 
L 161.945883 187.924066 
L 161.898736 187.295601 
L 161.835218 186.667136 
L 161.753724 186.038672 
L 161.652915 185.410207 
L 161.531739 184.781742 
L 161.389459 184.153278 
L 161.225669 183.524813 
L 161.040305 182.896348 
L 160.833661 182.267884 
L 160.606387 181.639419 
L 160.359489 181.010955 
L 160.094323 180.38249 
L 159.812583 179.754025 
L 159.516283 179.125561 
L 159.207735 178.497096 
L 158.889519 177.868631 
L 158.564457 177.240167 
L 158.235571 176.611702 
L 157.906049 175.983237 
L 157.579199 175.354773 
L 157.258406 174.726308 
L 156.947087 174.097843 
L 156.648642 173.469379 
L 156.366409 172.840914 
L 156.103613 172.212449 
L 155.863327 171.583985 
L 155.648424 170.95552 
L 155.461536 170.327056 
L 155.305022 169.698591 
L 155.180927 169.070126 
L 155.090959 168.441662 
L 155.036465 167.813197 
L 155.018409 167.184732 
L 155.037362 166.556268 
L 155.093493 165.927803 
L 155.186571 165.299338 
L 155.315968 164.670874 
L 155.480669 164.042409 
L 155.679288 163.413944 
L 155.910094 162.78548 
L 156.171029 162.157015 
L 156.45975 161.528551 
L 156.773652 160.900086 
L 157.109915 160.271621 
L 157.465541 159.643157 
L 157.837397 159.014692 
L 158.222258 158.386227 
L 158.616853 157.757763 
L 159.017908 157.129298 
L 159.422192 156.500833 
L 159.826554 155.872369 
L 160.227969 155.243904 
L 160.623567 154.615439 
L 161.010677 153.986975 
L 161.386846 153.35851 
L 161.749874 152.730045 
L 162.097831 152.101581 
L 162.429076 151.473116 
L 162.742269 150.844652 
L 163.036378 150.216187 
L 163.310682 149.587722 
L 163.564772 148.959258 
L 163.798541 148.330793 
L 164.012177 147.702328 
L 164.206144 147.073864 
L 164.381172 146.445399 
L 164.538226 145.816934 
L 164.678491 145.18847 
L 164.803341 144.560005 
L 164.914312 143.93154 
L 165.013071 143.303076 
L 165.101389 142.674611 
L 165.181109 142.046146 
L 165.254115 141.417682 
L 165.322303 140.789217 
L 165.38755 140.160753 
L 165.45169 139.532288 
L 165.516487 138.903823 
L 165.58361 138.275359 
L 165.654613 137.646894 
L 165.730918 137.018429 
L 165.813797 136.389965 
L 165.904361 135.7615 
L 181.872002 135.7615 
L 181.872002 135.7615 
L 181.962566 136.389965 
L 182.045446 137.018429 
L 182.121751 137.646894 
L 182.192754 138.275359 
L 182.259877 138.903823 
L 182.324673 139.532288 
L 182.388814 140.160753 
L 182.454061 140.789217 
L 182.522249 141.417682 
L 182.595255 142.046146 
L 182.674975 142.674611 
L 182.763293 143.303076 
L 182.862052 143.93154 
L 182.973022 144.560005 
L 183.097872 145.18847 
L 183.238138 145.816934 
L 183.395192 146.445399 
L 183.570219 147.073864 
L 183.764187 147.702328 
L 183.977822 148.330793 
L 184.211592 148.959258 
L 184.465682 149.587722 
L 184.739986 150.216187 
L 185.034095 150.844652 
L 185.347288 151.473116 
L 185.678533 152.101581 
L 186.02649 152.730045 
L 186.389518 153.35851 
L 186.765687 153.986975 
L 187.152796 154.615439 
L 187.548395 155.243904 
L 187.949809 155.872369 
L 188.354172 156.500833 
L 188.758456 157.129298 
L 189.159511 157.757763 
L 189.554106 158.386227 
L 189.938967 159.014692 
L 190.310822 159.643157 
L 190.666448 160.271621 
L 191.002712 160.900086 
L 191.316614 161.528551 
L 191.605334 162.157015 
L 191.86627 162.78548 
L 192.097075 163.413944 
L 192.295695 164.042409 
L 192.460395 164.670874 
L 192.589792 165.299338 
L 192.682871 165.927803 
L 192.739002 166.556268 
L 192.757955 167.184732 
L 192.739898 167.813197 
L 192.685404 168.441662 
L 192.595437 169.070126 
L 192.471342 169.698591 
L 192.314827 170.327056 
L 192.12794 170.95552 
L 191.913036 171.583985 
L 191.672751 172.212449 
L 191.409955 172.840914 
L 191.127721 173.469379 
L 190.829277 174.097843 
L 190.517958 174.726308 
L 190.197165 175.354773 
L 189.870315 175.983237 
L 189.540793 176.611702 
L 189.211907 177.240167 
L 188.886845 177.868631 
L 188.568629 178.497096 
L 188.26008 179.125561 
L 187.96378 179.754025 
L 187.682041 180.38249 
L 187.416875 181.010955 
L 187.169977 181.639419 
L 186.942702 182.267884 
L 186.736058 182.896348 
L 186.550695 183.524813 
L 186.386904 184.153278 
L 186.244624 184.781742 
L 186.123449 185.410207 
L 186.022639 186.038672 
L 185.941146 186.667136 
L 185.877627 187.295601 
L 185.830481 187.924066 
L 185.797868 188.55253 
L 185.777752 189.180995 
L 185.767928 189.80946 
L 185.766062 190.437924 
L 185.769727 191.066389 
L 185.776445 191.694854 
L 185.783719 192.323318 
L 185.789073 192.951783 
L 185.790089 193.580247 
L 185.784439 194.208712 
L 185.769918 194.837177 
L 185.744473 195.465641 
L 185.706227 196.094106 
L 185.653505 196.722571 
L 185.584851 197.351035 
L 185.499043 197.9795 
z
" clip-path="url(#p424a37f1fd)" style="fill: #1f77b4; fill-opacity: 0.3"/>
   </g>
   <g id="PolyCollection_3">
    <path d="M 256.065708 197.9795 
L 242.668837 197.9795 
L 242.578691 197.351035 
L 242.493159 196.722571 
L 242.411174 196.094106 
L 242.331526 195.465641 
L 242.25288 194.837177 
L 242.173791 194.208712 
L 242.092715 193.580247 
L 242.008034 192.951783 
L 241.918077 192.323318 
L 241.82114 191.694854 
L 241.715515 191.066389 
L 241.599514 190.437924 
L 241.471498 189.80946 
L 241.329904 189.180995 
L 241.173273 188.55253 
L 241.00028 187.924066 
L 240.809756 187.295601 
L 240.600721 186.667136 
L 240.372401 186.038672 
L 240.124255 185.410207 
L 239.855991 184.781742 
L 239.567586 184.153278 
L 239.259293 183.524813 
L 238.931658 182.896348 
L 238.585516 182.267884 
L 238.222002 181.639419 
L 237.842537 181.010955 
L 237.448828 180.38249 
L 237.042851 179.754025 
L 236.626835 179.125561 
L 236.203238 178.497096 
L 235.774724 177.868631 
L 235.344133 177.240167 
L 234.914444 176.611702 
L 234.488742 175.983237 
L 234.070174 175.354773 
L 233.661913 174.726308 
L 233.267111 174.097843 
L 232.888857 173.469379 
L 232.530131 172.840914 
L 232.193761 172.212449 
L 231.882384 171.583985 
L 231.598401 170.95552 
L 231.343941 170.327056 
L 231.120829 169.698591 
L 230.930553 169.070126 
L 230.774241 168.441662 
L 230.652635 167.813197 
L 230.566085 167.184732 
L 230.514529 166.556268 
L 230.4975 165.927803 
L 230.514119 165.299338 
L 230.563113 164.670874 
L 230.642822 164.042409 
L 230.751228 163.413944 
L 230.885974 162.78548 
L 231.044402 162.157015 
L 231.223587 161.528551 
L 231.420379 160.900086 
L 231.631447 160.271621 
L 231.853328 159.643157 
L 232.082474 159.014692 
L 232.315307 158.386227 
L 232.548268 157.757763 
L 232.777871 157.129298 
L 233.00075 156.500833 
L 233.213713 155.872369 
L 233.413783 155.243904 
L 233.598247 154.615439 
L 233.764689 153.986975 
L 233.911027 153.35851 
L 234.035546 152.730045 
L 234.136915 152.101581 
L 234.214213 151.473116 
L 234.266933 150.844652 
L 234.294997 150.216187 
L 234.298745 149.587722 
L 234.278937 148.959258 
L 234.236736 148.330793 
L 234.173689 147.702328 
L 234.091704 147.073864 
L 233.99302 146.445399 
L 233.880172 145.816934 
L 233.755951 145.18847 
L 233.623368 144.560005 
L 233.485602 143.93154 
L 233.345958 143.303076 
L 233.207817 142.674611 
L 233.074587 142.046146 
L 232.949656 141.417682 
L 232.836342 140.789217 
L 232.737849 140.160753 
L 232.657223 139.532288 
L 232.597308 138.903823 
L 232.560716 138.275359 
L 232.549784 137.646894 
L 232.566555 137.018429 
L 232.612749 136.389965 
L 232.689745 135.7615 
L 266.044801 135.7615 
L 266.044801 135.7615 
L 266.121796 136.389965 
L 266.16799 137.018429 
L 266.184761 137.646894 
L 266.17383 138.275359 
L 266.137237 138.903823 
L 266.077323 139.532288 
L 265.996696 140.160753 
L 265.898204 140.789217 
L 265.78489 141.417682 
L 265.659958 142.046146 
L 265.526728 142.674611 
L 265.388587 143.303076 
L 265.248943 143.93154 
L 265.111177 144.560005 
L 264.978594 145.18847 
L 264.854374 145.816934 
L 264.741525 146.445399 
L 264.642841 147.073864 
L 264.560857 147.702328 
L 264.49781 148.330793 
L 264.455609 148.959258 
L 264.435801 149.587722 
L 264.439549 150.216187 
L 264.467612 150.844652 
L 264.520333 151.473116 
L 264.59763 152.101581 
L 264.699 152.730045 
L 264.823518 153.35851 
L 264.969857 153.986975 
L 265.136298 154.615439 
L 265.320762 155.243904 
L 265.520833 155.872369 
L 265.733796 156.500833 
L 265.956675 157.129298 
L 266.186277 157.757763 
L 266.419239 158.386227 
L 266.652072 159.014692 
L 266.881218 159.643157 
L 267.103098 160.271621 
L 267.314167 160.900086 
L 267.510959 161.528551 
L 267.690144 162.157015 
L 267.848572 162.78548 
L 267.983318 163.413944 
L 268.091723 164.042409 
L 268.171432 164.670874 
L 268.220426 165.299338 
L 268.237045 165.927803 
L 268.220016 166.556268 
L 268.168461 167.184732 
L 268.08191 167.813197 
L 267.960305 168.441662 
L 267.803992 169.070126 
L 267.613716 169.698591 
L 267.390604 170.327056 
L 267.136145 170.95552 
L 266.852161 171.583985 
L 266.540784 172.212449 
L 266.204415 172.840914 
L 265.845688 173.469379 
L 265.467434 174.097843 
L 265.072633 174.726308 
L 264.664372 175.354773 
L 264.245804 175.983237 
L 263.820101 176.611702 
L 263.390412 177.240167 
L 262.959821 177.868631 
L 262.531308 178.497096 
L 262.107711 179.125561 
L 261.691694 179.754025 
L 261.285717 180.38249 
L 260.892008 181.010955 
L 260.512544 181.639419 
L 260.149029 182.267884 
L 259.802888 182.896348 
L 259.475252 183.524813 
L 259.16696 184.153278 
L 258.878554 184.781742 
L 258.610291 185.410207 
L 258.362145 186.038672 
L 258.133825 186.667136 
L 257.924789 187.295601 
L 257.734266 187.924066 
L 257.561272 188.55253 
L 257.404641 189.180995 
L 257.263047 189.80946 
L 257.135031 190.437924 
L 257.01903 191.066389 
L 256.913405 191.694854 
L 256.816469 192.323318 
L 256.726511 192.951783 
L 256.641831 193.580247 
L 256.560755 194.208712 
L 256.481665 194.837177 
L 256.40302 195.465641 
L 256.323372 196.094106 
L 256.241386 196.722571 
L 256.155855 197.351035 
L 256.065708 197.9795 
z
" clip-path="url(#p424a37f1fd)" style="fill: #1f77b4; fill-opacity: 0.3"/>
   </g>
   <g id="PolyCollection_4">
    <path d="M 329.527773 229.0885 
L 320.164954 229.0885 
L 319.745131 227.831571 
L 319.293783 226.574641 
L 318.810282 225.317712 
L 318.294497 224.060783 
L 317.746886 222.803854 
L 317.168572 221.546924 
L 316.561398 220.289995 
L 315.927975 219.033066 
L 315.271699 217.776136 
L 314.596747 216.519207 
L 313.90804 215.262278 
L 313.21118 214.005348 
L 312.512356 212.748419 
L 311.818225 211.49149 
L 311.135761 210.234561 
L 310.472088 208.977631 
L 309.834298 207.720702 
L 309.229261 206.463773 
L 308.663427 205.206843 
L 308.142641 203.949914 
L 307.671976 202.692985 
L 307.255578 201.436056 
L 306.896549 200.179126 
L 306.596865 198.922197 
L 306.357324 197.665268 
L 306.177553 196.408338 
L 306.05604 195.151409 
L 305.990219 193.89448 
L 305.976591 192.637551 
L 306.010871 191.380621 
L 306.088171 190.123692 
L 306.203192 188.866763 
L 306.350429 187.609833 
L 306.524376 186.352904 
L 306.719718 185.095975 
L 306.931505 183.839045 
L 307.155303 182.582116 
L 307.387312 181.325187 
L 307.624441 180.068258 
L 307.864356 178.811328 
L 308.105477 177.554399 
L 308.346948 176.29747 
L 308.588563 175.04054 
L 308.830677 173.783611 
L 309.074078 172.526682 
L 309.319863 171.269753 
L 309.569295 170.012823 
L 309.823666 168.755894 
L 310.084172 167.498965 
L 310.3518 166.242035 
L 310.627236 164.985106 
L 310.910805 163.728177 
L 311.20243 162.471247 
L 311.501624 161.214318 
L 311.80751 159.957389 
L 312.118866 158.70046 
L 312.434183 157.44353 
L 312.75175 156.186601 
L 313.069741 154.929672 
L 313.386311 153.672742 
L 313.699689 152.415813 
L 314.008259 151.158884 
L 314.310638 149.901955 
L 314.60573 148.645025 
L 314.892768 147.388096 
L 315.171328 146.131167 
L 315.441335 144.874237 
L 315.703035 143.617308 
L 315.956962 142.360379 
L 316.203885 141.103449 
L 316.444747 139.84652 
L 316.680595 138.589591 
L 316.912512 137.332662 
L 317.141547 136.075732 
L 317.368654 134.818803 
L 317.59464 133.561874 
L 317.820123 132.304944 
L 318.045504 131.048015 
L 318.270956 129.791086 
L 318.49642 128.534157 
L 318.721625 127.277227 
L 318.94611 126.020298 
L 319.169259 124.763369 
L 319.390346 123.506439 
L 319.608577 122.24951 
L 319.823142 120.992581 
L 320.033257 119.735652 
L 320.238205 118.478722 
L 320.437376 117.221793 
L 320.630287 115.964864 
L 320.81661 114.707934 
L 320.99617 113.451005 
L 321.168956 112.194076 
L 321.335103 110.937146 
L 321.494882 109.680217 
L 321.648676 108.423288 
L 321.796951 107.166359 
L 321.940228 105.909429 
L 322.079054 104.6525 
L 327.613674 104.6525 
L 327.613674 104.6525 
L 327.752499 105.909429 
L 327.895777 107.166359 
L 328.044051 108.423288 
L 328.197845 109.680217 
L 328.357624 110.937146 
L 328.523772 112.194076 
L 328.696557 113.451005 
L 328.876118 114.707934 
L 329.06244 115.964864 
L 329.255352 117.221793 
L 329.454522 118.478722 
L 329.659471 119.735652 
L 329.869585 120.992581 
L 330.08415 122.24951 
L 330.302381 123.506439 
L 330.523468 124.763369 
L 330.746617 126.020298 
L 330.971102 127.277227 
L 331.196307 128.534157 
L 331.421771 129.791086 
L 331.647223 131.048015 
L 331.872604 132.304944 
L 332.098087 133.561874 
L 332.324073 134.818803 
L 332.551181 136.075732 
L 332.780215 137.332662 
L 333.012132 138.589591 
L 333.24798 139.84652 
L 333.488842 141.103449 
L 333.735765 142.360379 
L 333.989692 143.617308 
L 334.251392 144.874237 
L 334.521399 146.131167 
L 334.79996 147.388096 
L 335.086997 148.645025 
L 335.382089 149.901955 
L 335.684468 151.158884 
L 335.993038 152.415813 
L 336.306416 153.672742 
L 336.622987 154.929672 
L 336.940978 156.186601 
L 337.258544 157.44353 
L 337.573861 158.70046 
L 337.885217 159.957389 
L 338.191104 161.214318 
L 338.490298 162.471247 
L 338.781922 163.728177 
L 339.065491 164.985106 
L 339.340927 166.242035 
L 339.608555 167.498965 
L 339.869061 168.755894 
L 340.123433 170.012823 
L 340.372864 171.269753 
L 340.61865 172.526682 
L 340.862051 173.783611 
L 341.104164 175.04054 
L 341.34578 176.29747 
L 341.58725 177.554399 
L 341.828371 178.811328 
L 342.068286 180.068258 
L 342.305415 181.325187 
L 342.537424 182.582116 
L 342.761222 183.839045 
L 342.973009 185.095975 
L 343.168351 186.352904 
L 343.342298 187.609833 
L 343.489535 188.866763 
L 343.604556 190.123692 
L 343.681856 191.380621 
L 343.716136 192.637551 
L 343.702508 193.89448 
L 343.636688 195.151409 
L 343.515175 196.408338 
L 343.335403 197.665268 
L 343.095863 198.922197 
L 342.796178 200.179126 
L 342.437149 201.436056 
L 342.020751 202.692985 
L 341.550086 203.949914 
L 341.029301 205.206843 
L 340.463466 206.463773 
L 339.858429 207.720702 
L 339.22064 208.977631 
L 338.556967 210.234561 
L 337.874502 211.49149 
L 337.180371 212.748419 
L 336.481547 214.005348 
L 335.784687 215.262278 
L 335.09598 216.519207 
L 334.421028 217.776136 
L 333.764752 219.033066 
L 333.131329 220.289995 
L 332.524155 221.546924 
L 331.945841 222.803854 
L 331.398231 224.060783 
L 330.882446 225.317712 
L 330.398944 226.574641 
L 329.947597 227.831571 
L 329.527773 229.0885 
z
" clip-path="url(#p424a37f1fd)" style="fill: #1f77b4; fill-opacity: 0.3"/>
   </g>
   <g id="PolyCollection_5">
    <path d="M 408.309275 229.0885 
L 392.341634 229.0885 
L 392.25107 228.460035 
L 392.168191 227.831571 
L 392.091886 227.203106 
L 392.020882 226.574641 
L 391.95376 225.946177 
L 391.888963 225.317712 
L 391.824823 224.689247 
L 391.759575 224.060783 
L 391.691388 223.432318 
L 391.618382 222.803854 
L 391.538661 222.175389 
L 391.450343 221.546924 
L 391.351584 220.91846 
L 391.240614 220.289995 
L 391.115764 219.66153 
L 390.975499 219.033066 
L 390.818444 218.404601 
L 390.643417 217.776136 
L 390.449449 217.147672 
L 390.235814 216.519207 
L 390.002045 215.890742 
L 389.747955 215.262278 
L 389.47365 214.633813 
L 389.179542 214.005348 
L 388.866349 213.376884 
L 388.535104 212.748419 
L 388.187146 212.119955 
L 387.824118 211.49149 
L 387.447949 210.863025 
L 387.06084 210.234561 
L 386.665241 209.606096 
L 386.263827 208.977631 
L 385.859465 208.349167 
L 385.455181 207.720702 
L 385.054125 207.092237 
L 384.65953 206.463773 
L 384.27467 205.835308 
L 383.902814 205.206843 
L 383.547188 204.578379 
L 383.210925 203.949914 
L 382.897023 203.321449 
L 382.608302 202.692985 
L 382.347366 202.06452 
L 382.116561 201.436056 
L 381.917942 200.807591 
L 381.753241 200.179126 
L 381.623844 199.550662 
L 381.530766 198.922197 
L 381.474634 198.293732 
L 381.455682 197.665268 
L 381.473738 197.036803 
L 381.528232 196.408338 
L 381.6182 195.779874 
L 381.742295 195.151409 
L 381.898809 194.522944 
L 382.085697 193.89448 
L 382.3006 193.266015 
L 382.540886 192.637551 
L 382.803681 192.009086 
L 383.085915 191.380621 
L 383.38436 190.752157 
L 383.695679 190.123692 
L 384.016471 189.495227 
L 384.343321 188.866763 
L 384.672844 188.238298 
L 385.001729 187.609833 
L 385.326792 186.981369 
L 385.645007 186.352904 
L 385.953556 185.724439 
L 386.249856 185.095975 
L 386.531596 184.46751 
L 386.796761 183.839045 
L 387.04366 183.210581 
L 387.270934 182.582116 
L 387.477578 181.953652 
L 387.662941 181.325187 
L 387.826732 180.696722 
L 387.969012 180.068258 
L 388.090188 179.439793 
L 388.190997 178.811328 
L 388.272491 178.182864 
L 388.336009 177.554399 
L 388.383156 176.925934 
L 388.415768 176.29747 
L 388.435884 175.669005 
L 388.445708 175.04054 
L 388.447575 174.412076 
L 388.443909 173.783611 
L 388.437191 173.155146 
L 388.429918 172.526682 
L 388.424564 171.898217 
L 388.423548 171.269753 
L 388.429197 170.641288 
L 388.443718 170.012823 
L 388.469164 169.384359 
L 388.507409 168.755894 
L 388.560131 168.127429 
L 388.628785 167.498965 
L 388.714593 166.8705 
L 411.936316 166.8705 
L 411.936316 166.8705 
L 412.022124 167.498965 
L 412.090778 168.127429 
L 412.1435 168.755894 
L 412.181745 169.384359 
L 412.207191 170.012823 
L 412.221712 170.641288 
L 412.227361 171.269753 
L 412.226345 171.898217 
L 412.220991 172.526682 
L 412.213718 173.155146 
L 412.207 173.783611 
L 412.203334 174.412076 
L 412.205201 175.04054 
L 412.215025 175.669005 
L 412.235141 176.29747 
L 412.267754 176.925934 
L 412.3149 177.554399 
L 412.378418 178.182864 
L 412.459912 178.811328 
L 412.560721 179.439793 
L 412.681897 180.068258 
L 412.824177 180.696722 
L 412.987968 181.325187 
L 413.173331 181.953652 
L 413.379975 182.582116 
L 413.607249 183.210581 
L 413.854148 183.839045 
L 414.119313 184.46751 
L 414.401053 185.095975 
L 414.697353 185.724439 
L 415.005902 186.352904 
L 415.324117 186.981369 
L 415.64918 187.609833 
L 415.978065 188.238298 
L 416.307588 188.866763 
L 416.634438 189.495227 
L 416.955231 190.123692 
L 417.266549 190.752157 
L 417.564994 191.380621 
L 417.847228 192.009086 
L 418.110023 192.637551 
L 418.350309 193.266015 
L 418.565212 193.89448 
L 418.7521 194.522944 
L 418.908615 195.151409 
L 419.03271 195.779874 
L 419.122677 196.408338 
L 419.177171 197.036803 
L 419.195227 197.665268 
L 419.176275 198.293732 
L 419.120144 198.922197 
L 419.027065 199.550662 
L 418.897668 200.179126 
L 418.732968 200.807591 
L 418.534348 201.436056 
L 418.303543 202.06452 
L 418.042607 202.692985 
L 417.753887 203.321449 
L 417.439984 203.949914 
L 417.103721 204.578379 
L 416.748095 205.206843 
L 416.376239 205.835308 
L 415.991379 206.463773 
L 415.596784 207.092237 
L 415.195728 207.720702 
L 414.791445 208.349167 
L 414.387082 208.977631 
L 413.985668 209.606096 
L 413.590069 210.234561 
L 413.20296 210.863025 
L 412.826791 211.49149 
L 412.463763 212.119955 
L 412.115806 212.748419 
L 411.78456 213.376884 
L 411.471368 214.005348 
L 411.177259 214.633813 
L 410.902954 215.262278 
L 410.648864 215.890742 
L 410.415095 216.519207 
L 410.20146 217.147672 
L 410.007492 217.776136 
L 409.832465 218.404601 
L 409.67541 219.033066 
L 409.535145 219.66153 
L 409.410295 220.289995 
L 409.299325 220.91846 
L 409.200566 221.546924 
L 409.112248 222.175389 
L 409.032527 222.803854 
L 408.959521 223.432318 
L 408.891334 224.060783 
L 408.826087 224.689247 
L 408.761946 225.317712 
L 408.697149 225.946177 
L 408.630027 226.574641 
L 408.559023 227.203106 
L 408.482718 227.831571 
L 408.399839 228.460035 
L 408.309275 229.0885 
z
" clip-path="url(#p424a37f1fd)" style="fill: #1f77b4; fill-opacity: 0.3"/>
   </g>
   <g id="PolyCollection_6">
    <path d="M 481.383671 260.1975 
L 470.22542 260.1975 
L 469.811849 258.940571 
L 469.377563 257.683641 
L 468.923025 256.426712 
L 468.448998 255.169783 
L 467.956568 253.912854 
L 467.44716 252.655924 
L 466.922545 251.398995 
L 466.384837 250.142066 
L 465.836482 248.885136 
L 465.280232 247.628207 
L 464.719118 246.371278 
L 464.156402 245.114348 
L 463.595524 243.857419 
L 463.040047 242.60049 
L 462.493585 241.343561 
L 461.959732 240.086631 
L 461.44199 238.829702 
L 460.943696 237.572773 
L 460.467948 236.315843 
L 460.017542 235.058914 
L 459.594914 233.801985 
L 459.202094 232.545056 
L 458.840666 231.288126 
L 458.51175 230.031197 
L 458.215991 228.774268 
L 457.953567 227.517338 
L 457.724205 226.260409 
L 457.527221 225.00348 
L 457.361558 223.746551 
L 457.225846 222.489621 
L 457.118465 221.232692 
L 457.037606 219.975763 
L 456.981348 218.718833 
L 456.947721 217.461904 
L 456.934773 216.204975 
L 456.940626 214.948045 
L 456.963531 213.691116 
L 457.001899 212.434187 
L 457.054338 211.177258 
L 457.119665 209.920328 
L 457.19691 208.663399 
L 457.285308 207.40647 
L 457.384287 206.14954 
L 457.493435 204.892611 
L 457.612472 203.635682 
L 457.741212 202.378753 
L 457.879524 201.121823 
L 458.027293 199.864894 
L 458.184384 198.607965 
L 458.350612 197.351035 
L 458.525717 196.094106 
L 458.709347 194.837177 
L 458.901047 193.580247 
L 459.100258 192.323318 
L 459.306329 191.066389 
L 459.518526 189.80946 
L 459.736056 188.55253 
L 459.958091 187.295601 
L 460.183797 186.038672 
L 460.412363 184.781742 
L 460.64303 183.524813 
L 460.875115 182.267884 
L 461.108036 181.010955 
L 461.341324 179.754025 
L 461.574638 178.497096 
L 461.807764 177.240167 
L 462.040615 175.983237 
L 462.27322 174.726308 
L 462.505707 173.469379 
L 462.738287 172.212449 
L 462.971225 170.95552 
L 463.204819 169.698591 
L 463.439373 168.441662 
L 463.675171 167.184732 
L 463.912454 165.927803 
L 464.151404 164.670874 
L 464.392129 163.413944 
L 464.634652 162.157015 
L 464.878912 160.900086 
L 465.124762 159.643157 
L 465.371978 158.386227 
L 465.620272 157.129298 
L 465.869308 155.872369 
L 466.11872 154.615439 
L 466.368129 153.35851 
L 466.617168 152.101581 
L 466.865499 150.844652 
L 467.112827 149.587722 
L 467.358918 148.330793 
L 467.603607 147.073864 
L 467.846802 145.816934 
L 468.088487 144.560005 
L 468.328716 143.303076 
L 468.567609 142.046146 
L 468.805334 140.789217 
L 469.042094 139.532288 
L 469.278112 138.275359 
L 469.513609 137.018429 
L 469.748785 135.7615 
L 481.860306 135.7615 
L 481.860306 135.7615 
L 482.095482 137.018429 
L 482.330979 138.275359 
L 482.566997 139.532288 
L 482.803757 140.789217 
L 483.041482 142.046146 
L 483.280375 143.303076 
L 483.520604 144.560005 
L 483.762289 145.816934 
L 484.005484 147.073864 
L 484.250173 148.330793 
L 484.496264 149.587722 
L 484.743592 150.844652 
L 484.991923 152.101581 
L 485.240962 153.35851 
L 485.490371 154.615439 
L 485.739783 155.872369 
L 485.988819 157.129298 
L 486.237113 158.386227 
L 486.484329 159.643157 
L 486.730179 160.900086 
L 486.974438 162.157015 
L 487.216962 163.413944 
L 487.457687 164.670874 
L 487.696637 165.927803 
L 487.93392 167.184732 
L 488.169718 168.441662 
L 488.404271 169.698591 
L 488.637866 170.95552 
L 488.870804 172.212449 
L 489.103383 173.469379 
L 489.335871 174.726308 
L 489.568475 175.983237 
L 489.801327 177.240167 
L 490.034453 178.497096 
L 490.267766 179.754025 
L 490.501055 181.010955 
L 490.733976 182.267884 
L 490.966061 183.524813 
L 491.196728 184.781742 
L 491.425294 186.038672 
L 491.651 187.295601 
L 491.873035 188.55253 
L 492.090565 189.80946 
L 492.302762 191.066389 
L 492.508833 192.323318 
L 492.708044 193.580247 
L 492.899744 194.837177 
L 493.083373 196.094106 
L 493.258479 197.351035 
L 493.424707 198.607965 
L 493.581798 199.864894 
L 493.729567 201.121823 
L 493.867879 202.378753 
L 493.996619 203.635682 
L 494.115656 204.892611 
L 494.224804 206.14954 
L 494.323783 207.40647 
L 494.412181 208.663399 
L 494.489426 209.920328 
L 494.554752 211.177258 
L 494.607192 212.434187 
L 494.64556 213.691116 
L 494.668465 214.948045 
L 494.674318 216.204975 
L 494.66137 217.461904 
L 494.627743 218.718833 
L 494.571485 219.975763 
L 494.490626 221.232692 
L 494.383244 222.489621 
L 494.247533 223.746551 
L 494.08187 225.00348 
L 493.884886 226.260409 
L 493.655524 227.517338 
L 493.393099 228.774268 
L 493.097341 230.031197 
L 492.768425 231.288126 
L 492.406997 232.545056 
L 492.014177 233.801985 
L 491.591549 235.058914 
L 491.141143 236.315843 
L 490.665395 237.572773 
L 490.167101 238.829702 
L 489.649359 240.086631 
L 489.115506 241.343561 
L 488.569044 242.60049 
L 488.013567 243.857419 
L 487.452689 245.114348 
L 486.889973 246.371278 
L 486.328859 247.628207 
L 485.772609 248.885136 
L 485.224254 250.142066 
L 484.686546 251.398995 
L 484.161931 252.655924 
L 483.652523 253.912854 
L 483.160093 255.169783 
L 482.686066 256.426712 
L 482.231528 257.683641 
L 481.797242 258.940571 
L 481.383671 260.1975 
z
" clip-path="url(#p424a37f1fd)" style="fill: #1f77b4; fill-opacity: 0.3"/>
   </g>
   <g id="PolyCollection_7">
    <path d="M 560.47034 322.4155 
L 542.096933 322.4155 
L 541.852017 321.158571 
L 541.619836 319.901641 
L 541.399555 318.644712 
L 541.190109 317.387783 
L 540.990246 316.130854 
L 540.798578 314.873924 
L 540.613627 313.616995 
L 540.433874 312.360066 
L 540.25781 311.103136 
L 540.083971 309.846207 
L 539.910976 308.589278 
L 539.737556 307.332348 
L 539.562567 306.075419 
L 539.385007 304.81849 
L 539.204011 303.561561 
L 539.018849 302.304631 
L 538.828908 301.047702 
L 538.633684 299.790773 
L 538.432755 298.533843 
L 538.225766 297.276914 
L 538.012413 296.019985 
L 537.792432 294.763056 
L 537.565593 293.506126 
L 537.331705 292.249197 
L 537.090629 290.992268 
L 536.8423 289.735338 
L 536.586759 288.478409 
L 536.324191 287.22148 
L 536.054971 285.964551 
L 535.779712 284.707621 
L 535.499316 283.450692 
L 535.215019 282.193763 
L 534.928431 280.936833 
L 534.641571 279.679904 
L 534.356881 278.422975 
L 534.077232 277.166045 
L 533.80591 275.909116 
L 533.546583 274.652187 
L 533.30325 273.395258 
L 533.080169 272.138328 
L 532.881775 270.881399 
L 532.712574 269.62447 
L 532.577031 268.36754 
L 532.479451 267.110611 
L 532.423857 265.853682 
L 532.413864 264.596753 
L 532.452566 263.339823 
L 532.542434 262.082894 
L 532.685224 260.825965 
L 532.881904 259.569035 
L 533.132615 258.312106 
L 533.436636 257.055177 
L 533.792391 255.798247 
L 534.19747 254.541318 
L 534.648683 253.284389 
L 535.142124 252.02746 
L 535.673268 250.77053 
L 536.237072 249.513601 
L 536.828092 248.256672 
L 537.440611 246.999742 
L 538.068767 245.742813 
L 538.706673 244.485884 
L 539.348547 243.228955 
L 539.988818 241.972025 
L 540.622227 240.715096 
L 541.243914 239.458167 
L 541.849489 238.201237 
L 542.43508 236.944308 
L 542.99737 235.687379 
L 543.533618 234.430449 
L 544.041657 233.17352 
L 544.519887 231.916591 
L 544.967247 230.659662 
L 545.383184 229.402732 
L 545.767608 228.145803 
L 546.120849 226.888874 
L 546.4436 225.631944 
L 546.736873 224.375015 
L 547.001941 223.118086 
L 547.240288 221.861157 
L 547.45357 220.604227 
L 547.643562 219.347298 
L 547.812128 218.090369 
L 547.961182 216.833439 
L 548.092658 215.57651 
L 548.208489 214.319581 
L 548.310581 213.062652 
L 548.400793 211.805722 
L 548.480926 210.548793 
L 548.552704 209.291864 
L 548.617766 208.034934 
L 548.677652 206.778005 
L 548.733794 205.521076 
L 548.787509 204.264146 
L 548.839991 203.007217 
L 548.8923 201.750288 
L 548.945363 200.493359 
L 548.999965 199.236429 
L 549.05675 197.9795 
L 553.510523 197.9795 
L 553.510523 197.9795 
L 553.567307 199.236429 
L 553.62191 200.493359 
L 553.674973 201.750288 
L 553.727282 203.007217 
L 553.779763 204.264146 
L 553.833479 205.521076 
L 553.889621 206.778005 
L 553.949507 208.034934 
L 554.014569 209.291864 
L 554.086347 210.548793 
L 554.16648 211.805722 
L 554.256692 213.062652 
L 554.358783 214.319581 
L 554.474615 215.57651 
L 554.606091 216.833439 
L 554.755145 218.090369 
L 554.923711 219.347298 
L 555.113703 220.604227 
L 555.326984 221.861157 
L 555.565332 223.118086 
L 555.830399 224.375015 
L 556.123672 225.631944 
L 556.446424 226.888874 
L 556.799665 228.145803 
L 557.184089 229.402732 
L 557.600025 230.659662 
L 558.047386 231.916591 
L 558.525616 233.17352 
L 559.033655 234.430449 
L 559.569903 235.687379 
L 560.132193 236.944308 
L 560.717783 238.201237 
L 561.323358 239.458167 
L 561.945046 240.715096 
L 562.578455 241.972025 
L 563.218726 243.228955 
L 563.8606 244.485884 
L 564.498506 245.742813 
L 565.126661 246.999742 
L 565.739181 248.256672 
L 566.330201 249.513601 
L 566.894004 250.77053 
L 567.425148 252.02746 
L 567.91859 253.284389 
L 568.369803 254.541318 
L 568.774882 255.798247 
L 569.130637 257.055177 
L 569.434658 258.312106 
L 569.685368 259.569035 
L 569.882049 260.825965 
L 570.024838 262.082894 
L 570.114707 263.339823 
L 570.153409 264.596753 
L 570.143416 265.853682 
L 570.087821 267.110611 
L 569.990242 268.36754 
L 569.854699 269.62447 
L 569.685497 270.881399 
L 569.487103 272.138328 
L 569.264023 273.395258 
L 569.020689 274.652187 
L 568.761362 275.909116 
L 568.490041 277.166045 
L 568.210392 278.422975 
L 567.925702 279.679904 
L 567.638842 280.936833 
L 567.352254 282.193763 
L 567.067957 283.450692 
L 566.78756 284.707621 
L 566.512302 285.964551 
L 566.243081 287.22148 
L 565.980513 288.478409 
L 565.724972 289.735338 
L 565.476644 290.992268 
L 565.235568 292.249197 
L 565.00168 293.506126 
L 564.774841 294.763056 
L 564.55486 296.019985 
L 564.341507 297.276914 
L 564.134518 298.533843 
L 563.933589 299.790773 
L 563.738364 301.047702 
L 563.548424 302.304631 
L 563.363261 303.561561 
L 563.182265 304.81849 
L 563.004705 306.075419 
L 562.829717 307.332348 
L 562.656296 308.589278 
L 562.483302 309.846207 
L 562.309462 311.103136 
L 562.133398 312.360066 
L 561.953646 313.616995 
L 561.768695 314.873924 
L 561.577027 316.130854 
L 561.377164 317.387783 
L 561.167718 318.644712 
L 560.947436 319.901641 
L 560.715256 321.158571 
L 560.47034 322.4155 
z
" clip-path="url(#p424a37f1fd)" style="fill: #1f77b4; fill-opacity: 0.3"/>
   </g>
   <g id="PolyCollection_8">
    <path d="M 636.483584 322.4155 
L 617.04187 322.4155 
L 616.654712 321.158571 
L 616.26651 319.901641 
L 615.875668 318.644712 
L 615.480591 317.387783 
L 615.079805 316.130854 
L 614.672095 314.873924 
L 614.256633 313.616995 
L 613.833093 312.360066 
L 613.401753 311.103136 
L 612.963572 309.846207 
L 612.520236 308.589278 
L 612.074175 307.332348 
L 611.628533 306.075419 
L 611.187114 304.81849 
L 610.754284 303.561561 
L 610.334842 302.304631 
L 609.933864 301.047702 
L 609.556527 299.790773 
L 609.207915 298.533843 
L 608.892831 297.276914 
L 608.615605 296.019985 
L 608.379923 294.763056 
L 608.188681 293.506126 
L 608.043867 292.249197 
L 607.946485 290.992268 
L 607.896521 289.735338 
L 607.892955 288.478409 
L 607.933814 287.22148 
L 608.016275 285.964551 
L 608.136797 284.707621 
L 608.29129 283.450692 
L 608.475303 282.193763 
L 608.684226 280.936833 
L 608.913495 279.679904 
L 609.158786 278.422975 
L 609.4162 277.166045 
L 609.682408 275.909116 
L 609.954778 274.652187 
L 610.23145 273.395258 
L 610.511379 272.138328 
L 610.794328 270.881399 
L 611.080824 269.62447 
L 611.372074 268.36754 
L 611.669844 267.110611 
L 611.976323 265.853682 
L 612.293956 264.596753 
L 612.625275 263.339823 
L 612.972731 262.082894 
L 613.338526 260.825965 
L 613.72447 259.569035 
L 614.131852 258.312106 
L 614.561343 257.055177 
L 615.012932 255.798247 
L 615.485886 254.541318 
L 615.978756 253.284389 
L 616.489399 252.02746 
L 617.015042 250.77053 
L 617.552365 249.513601 
L 618.097598 248.256672 
L 618.646641 246.999742 
L 619.195187 245.742813 
L 619.738845 244.485884 
L 620.273265 243.228955 
L 620.79425 241.972025 
L 621.297858 240.715096 
L 621.780492 239.458167 
L 622.238969 238.201237 
L 622.670569 236.944308 
L 623.073074 235.687379 
L 623.444781 234.430449 
L 623.784504 233.17352 
L 624.09156 231.916591 
L 624.365746 230.659662 
L 624.607301 229.402732 
L 624.816868 228.145803 
L 624.995447 226.888874 
L 625.144352 225.631944 
L 625.265157 224.375015 
L 625.359656 223.118086 
L 625.429819 221.861157 
L 625.477748 220.604227 
L 625.505647 219.347298 
L 625.515785 218.090369 
L 625.510467 216.833439 
L 625.492011 215.57651 
L 625.46272 214.319581 
L 625.424863 213.062652 
L 625.380654 211.805722 
L 625.332231 210.548793 
L 625.281638 209.291864 
L 625.230807 208.034934 
L 625.18154 206.778005 
L 625.135488 205.521076 
L 625.094139 204.264146 
L 625.058802 203.007217 
L 625.030591 201.750288 
L 625.010418 200.493359 
L 624.998982 199.236429 
L 624.996769 197.9795 
L 628.528686 197.9795 
L 628.528686 197.9795 
L 628.526473 199.236429 
L 628.515037 200.493359 
L 628.494863 201.750288 
L 628.466652 203.007217 
L 628.431315 204.264146 
L 628.389967 205.521076 
L 628.343915 206.778005 
L 628.294647 208.034934 
L 628.243817 209.291864 
L 628.193224 210.548793 
L 628.144801 211.805722 
L 628.100592 213.062652 
L 628.062735 214.319581 
L 628.033444 215.57651 
L 628.014988 216.833439 
L 628.00967 218.090369 
L 628.019808 219.347298 
L 628.047707 220.604227 
L 628.095636 221.861157 
L 628.165798 223.118086 
L 628.260298 224.375015 
L 628.381103 225.631944 
L 628.530007 226.888874 
L 628.708587 228.145803 
L 628.918154 229.402732 
L 629.159709 230.659662 
L 629.433894 231.916591 
L 629.740951 233.17352 
L 630.080674 234.430449 
L 630.452381 235.687379 
L 630.854885 236.944308 
L 631.286486 238.201237 
L 631.744962 239.458167 
L 632.227597 240.715096 
L 632.731205 241.972025 
L 633.252189 243.228955 
L 633.786609 244.485884 
L 634.330267 245.742813 
L 634.878813 246.999742 
L 635.427857 248.256672 
L 635.97309 249.513601 
L 636.510412 250.77053 
L 637.036056 252.02746 
L 637.546699 253.284389 
L 638.039568 254.541318 
L 638.512523 255.798247 
L 638.964111 257.055177 
L 639.393603 258.312106 
L 639.800984 259.569035 
L 640.186928 260.825965 
L 640.552724 262.082894 
L 640.90018 263.339823 
L 641.231499 264.596753 
L 641.549131 265.853682 
L 641.85561 267.110611 
L 642.153381 268.36754 
L 642.44463 269.62447 
L 642.731126 270.881399 
L 643.014076 272.138328 
L 643.294005 273.395258 
L 643.570677 274.652187 
L 643.843046 275.909116 
L 644.109255 277.166045 
L 644.366668 278.422975 
L 644.61196 279.679904 
L 644.841229 280.936833 
L 645.050152 282.193763 
L 645.234165 283.450692 
L 645.388658 284.707621 
L 645.50918 285.964551 
L 645.591641 287.22148 
L 645.6325 288.478409 
L 645.628933 289.735338 
L 645.578969 290.992268 
L 645.481587 292.249197 
L 645.336773 293.506126 
L 645.145532 294.763056 
L 644.90985 296.019985 
L 644.632624 297.276914 
L 644.31754 298.533843 
L 643.968928 299.790773 
L 643.59159 301.047702 
L 643.190613 302.304631 
L 642.771171 303.561561 
L 642.338341 304.81849 
L 641.896922 306.075419 
L 641.45128 307.332348 
L 641.005218 308.589278 
L 640.561883 309.846207 
L 640.123702 311.103136 
L 639.692361 312.360066 
L 639.268821 313.616995 
L 638.853359 314.873924 
L 638.44565 316.130854 
L 638.044864 317.387783 
L 637.649786 318.644712 
L 637.258945 319.901641 
L 636.870742 321.158571 
L 636.483584 322.4155 
z
" clip-path="url(#p424a37f1fd)" style="fill: #1f77b4; fill-opacity: 0.3"/>
   </g>
   <g id="PolyCollection_9">
    <path d="M 721.111591 322.4155 
L 683.372045 322.4155 
L 683.372045 322.4155 
L 683.372045 322.4155 
L 683.372045 322.4155 
L 683.372045 322.4155 
L 683.372045 322.4155 
L 683.372045 322.4155 
L 683.372045 322.4155 
L 683.372045 322.4155 
L 683.372045 322.4155 
L 683.372045 322.4155 
L 683.372045 322.4155 
L 683.372045 322.4155 
L 683.372045 322.4155 
L 683.372045 322.4155 
L 683.372045 322.4155 
L 683.372045 322.4155 
L 683.372045 322.4155 
L 683.372045 322.4155 
L 683.372045 322.4155 
L 683.372045 322.4155 
L 683.372045 322.4155 
L 683.372045 322.4155 
L 683.372045 322.4155 
L 683.372045 322.4155 
L 683.372045 322.4155 
L 683.372045 322.4155 
L 683.372045 322.4155 
L 683.372045 322.4155 
L 683.372045 322.4155 
L 683.372045 322.4155 
L 683.372045 322.4155 
L 683.372045 322.4155 
L 683.372045 322.4155 
L 683.372045 322.4155 
L 683.372045 322.4155 
L 683.372045 322.4155 
L 683.372045 322.4155 
L 683.372045 322.4155 
L 683.372045 322.4155 
L 683.372045 322.4155 
L 683.372045 322.4155 
L 683.372045 322.4155 
L 683.372045 322.4155 
L 683.372045 322.4155 
L 683.372045 322.4155 
L 683.372045 322.4155 
L 683.372045 322.4155 
L 683.372045 322.4155 
L 683.372045 322.4155 
L 683.372045 322.4155 
L 683.372045 322.4155 
L 683.372045 322.4155 
L 683.372045 322.4155 
L 683.372045 322.4155 
L 683.372045 322.4155 
L 683.372045 322.4155 
L 683.372045 322.4155 
L 683.372045 322.4155 
L 683.372045 322.4155 
L 683.372045 322.4155 
L 683.372045 322.4155 
L 683.372045 322.4155 
L 683.372045 322.4155 
L 683.372045 322.4155 
L 683.372045 322.4155 
L 683.372045 322.4155 
L 683.372045 322.4155 
L 683.372045 322.4155 
L 683.372045 322.4155 
L 683.372045 322.4155 
L 683.372045 322.4155 
L 683.372045 322.4155 
L 683.372045 322.4155 
L 683.372045 322.4155 
L 683.372045 322.4155 
L 683.372045 322.4155 
L 683.372045 322.4155 
L 683.372045 322.4155 
L 683.372045 322.4155 
L 683.372045 322.4155 
L 683.372045 322.4155 
L 683.372045 322.4155 
L 683.372045 322.4155 
L 683.372045 322.4155 
L 683.372045 322.4155 
L 683.372045 322.4155 
L 683.372045 322.4155 
L 683.372045 322.4155 
L 683.372045 322.4155 
L 683.372045 322.4155 
L 683.372045 322.4155 
L 683.372045 322.4155 
L 683.372045 322.4155 
L 683.372045 322.4155 
L 683.372045 322.4155 
L 683.372045 322.4155 
L 683.372045 322.4155 
L 683.372045 322.4155 
L 683.372045 322.4155 
L 721.111591 322.4155 
L 721.111591 322.4155 
L 721.111591 322.4155 
L 721.111591 322.4155 
L 721.111591 322.4155 
L 721.111591 322.4155 
L 721.111591 322.4155 
L 721.111591 322.4155 
L 721.111591 322.4155 
L 721.111591 322.4155 
L 721.111591 322.4155 
L 721.111591 322.4155 
L 721.111591 322.4155 
L 721.111591 322.4155 
L 721.111591 322.4155 
L 721.111591 322.4155 
L 721.111591 322.4155 
L 721.111591 322.4155 
L 721.111591 322.4155 
L 721.111591 322.4155 
L 721.111591 322.4155 
L 721.111591 322.4155 
L 721.111591 322.4155 
L 721.111591 322.4155 
L 721.111591 322.4155 
L 721.111591 322.4155 
L 721.111591 322.4155 
L 721.111591 322.4155 
L 721.111591 322.4155 
L 721.111591 322.4155 
L 721.111591 322.4155 
L 721.111591 322.4155 
L 721.111591 322.4155 
L 721.111591 322.4155 
L 721.111591 322.4155 
L 721.111591 322.4155 
L 721.111591 322.4155 
L 721.111591 322.4155 
L 721.111591 322.4155 
L 721.111591 322.4155 
L 721.111591 322.4155 
L 721.111591 322.4155 
L 721.111591 322.4155 
L 721.111591 322.4155 
L 721.111591 322.4155 
L 721.111591 322.4155 
L 721.111591 322.4155 
L 721.111591 322.4155 
L 721.111591 322.4155 
L 721.111591 322.4155 
L 721.111591 322.4155 
L 721.111591 322.4155 
L 721.111591 322.4155 
L 721.111591 322.4155 
L 721.111591 322.4155 
L 721.111591 322.4155 
L 721.111591 322.4155 
L 721.111591 322.4155 
L 721.111591 322.4155 
L 721.111591 322.4155 
L 721.111591 322.4155 
L 721.111591 322.4155 
L 721.111591 322.4155 
L 721.111591 322.4155 
L 721.111591 322.4155 
L 721.111591 322.4155 
L 721.111591 322.4155 
L 721.111591 322.4155 
L 721.111591 322.4155 
L 721.111591 322.4155 
L 721.111591 322.4155 
L 721.111591 322.4155 
L 721.111591 322.4155 
L 721.111591 322.4155 
L 721.111591 322.4155 
L 721.111591 322.4155 
L 721.111591 322.4155 
L 721.111591 322.4155 
L 721.111591 322.4155 
L 721.111591 322.4155 
L 721.111591 322.4155 
L 721.111591 322.4155 
L 721.111591 322.4155 
L 721.111591 322.4155 
L 721.111591 322.4155 
L 721.111591 322.4155 
L 721.111591 322.4155 
L 721.111591 322.4155 
L 721.111591 322.4155 
L 721.111591 322.4155 
L 721.111591 322.4155 
L 721.111591 322.4155 
L 721.111591 322.4155 
L 721.111591 322.4155 
L 721.111591 322.4155 
L 721.111591 322.4155 
L 721.111591 322.4155 
L 721.111591 322.4155 
L 721.111591 322.4155 
L 721.111591 322.4155 
L 721.111591 322.4155 
z
" clip-path="url(#p424a37f1fd)" style="fill: #1f77b4; fill-opacity: 0.3"/>
   </g>
   <g id="PolyCollection_10">
    <path d="M 796.590682 322.4155 
L 758.851136 322.4155 
L 758.851136 322.4155 
L 758.851136 322.4155 
L 758.851136 322.4155 
L 758.851136 322.4155 
L 758.851136 322.4155 
L 758.851136 322.4155 
L 758.851136 322.4155 
L 758.851136 322.4155 
L 758.851136 322.4155 
L 758.851136 322.4155 
L 758.851136 322.4155 
L 758.851136 322.4155 
L 758.851136 322.4155 
L 758.851136 322.4155 
L 758.851136 322.4155 
L 758.851136 322.4155 
L 758.851136 322.4155 
L 758.851136 322.4155 
L 758.851136 322.4155 
L 758.851136 322.4155 
L 758.851136 322.4155 
L 758.851136 322.4155 
L 758.851136 322.4155 
L 758.851136 322.4155 
L 758.851136 322.4155 
L 758.851136 322.4155 
L 758.851136 322.4155 
L 758.851136 322.4155 
L 758.851136 322.4155 
L 758.851136 322.4155 
L 758.851136 322.4155 
L 758.851136 322.4155 
L 758.851136 322.4155 
L 758.851136 322.4155 
L 758.851136 322.4155 
L 758.851136 322.4155 
L 758.851136 322.4155 
L 758.851136 322.4155 
L 758.851136 322.4155 
L 758.851136 322.4155 
L 758.851136 322.4155 
L 758.851136 322.4155 
L 758.851136 322.4155 
L 758.851136 322.4155 
L 758.851136 322.4155 
L 758.851136 322.4155 
L 758.851136 322.4155 
L 758.851136 322.4155 
L 758.851136 322.4155 
L 758.851136 322.4155 
L 758.851136 322.4155 
L 758.851136 322.4155 
L 758.851136 322.4155 
L 758.851136 322.4155 
L 758.851136 322.4155 
L 758.851136 322.4155 
L 758.851136 322.4155 
L 758.851136 322.4155 
L 758.851136 322.4155 
L 758.851136 322.4155 
L 758.851136 322.4155 
L 758.851136 322.4155 
L 758.851136 322.4155 
L 758.851136 322.4155 
L 758.851136 322.4155 
L 758.851136 322.4155 
L 758.851136 322.4155 
L 758.851136 322.4155 
L 758.851136 322.4155 
L 758.851136 322.4155 
L 758.851136 322.4155 
L 758.851136 322.4155 
L 758.851136 322.4155 
L 758.851136 322.4155 
L 758.851136 322.4155 
L 758.851136 322.4155 
L 758.851136 322.4155 
L 758.851136 322.4155 
L 758.851136 322.4155 
L 758.851136 322.4155 
L 758.851136 322.4155 
L 758.851136 322.4155 
L 758.851136 322.4155 
L 758.851136 322.4155 
L 758.851136 322.4155 
L 758.851136 322.4155 
L 758.851136 322.4155 
L 758.851136 322.4155 
L 758.851136 322.4155 
L 758.851136 322.4155 
L 758.851136 322.4155 
L 758.851136 322.4155 
L 758.851136 322.4155 
L 758.851136 322.4155 
L 758.851136 322.4155 
L 758.851136 322.4155 
L 758.851136 322.4155 
L 758.851136 322.4155 
L 758.851136 322.4155 
L 796.590682 322.4155 
L 796.590682 322.4155 
L 796.590682 322.4155 
L 796.590682 322.4155 
L 796.590682 322.4155 
L 796.590682 322.4155 
L 796.590682 322.4155 
L 796.590682 322.4155 
L 796.590682 322.4155 
L 796.590682 322.4155 
L 796.590682 322.4155 
L 796.590682 322.4155 
L 796.590682 322.4155 
L 796.590682 322.4155 
L 796.590682 322.4155 
L 796.590682 322.4155 
L 796.590682 322.4155 
L 796.590682 322.4155 
L 796.590682 322.4155 
L 796.590682 322.4155 
L 796.590682 322.4155 
L 796.590682 322.4155 
L 796.590682 322.4155 
L 796.590682 322.4155 
L 796.590682 322.4155 
L 796.590682 322.4155 
L 796.590682 322.4155 
L 796.590682 322.4155 
L 796.590682 322.4155 
L 796.590682 322.4155 
L 796.590682 322.4155 
L 796.590682 322.4155 
L 796.590682 322.4155 
L 796.590682 322.4155 
L 796.590682 322.4155 
L 796.590682 322.4155 
L 796.590682 322.4155 
L 796.590682 322.4155 
L 796.590682 322.4155 
L 796.590682 322.4155 
L 796.590682 322.4155 
L 796.590682 322.4155 
L 796.590682 322.4155 
L 796.590682 322.4155 
L 796.590682 322.4155 
L 796.590682 322.4155 
L 796.590682 322.4155 
L 796.590682 322.4155 
L 796.590682 322.4155 
L 796.590682 322.4155 
L 796.590682 322.4155 
L 796.590682 322.4155 
L 796.590682 322.4155 
L 796.590682 322.4155 
L 796.590682 322.4155 
L 796.590682 322.4155 
L 796.590682 322.4155 
L 796.590682 322.4155 
L 796.590682 322.4155 
L 796.590682 322.4155 
L 796.590682 322.4155 
L 796.590682 322.4155 
L 796.590682 322.4155 
L 796.590682 322.4155 
L 796.590682 322.4155 
L 796.590682 322.4155 
L 796.590682 322.4155 
L 796.590682 322.4155 
L 796.590682 322.4155 
L 796.590682 322.4155 
L 796.590682 322.4155 
L 796.590682 322.4155 
L 796.590682 322.4155 
L 796.590682 322.4155 
L 796.590682 322.4155 
L 796.590682 322.4155 
L 796.590682 322.4155 
L 796.590682 322.4155 
L 796.590682 322.4155 
L 796.590682 322.4155 
L 796.590682 322.4155 
L 796.590682 322.4155 
L 796.590682 322.4155 
L 796.590682 322.4155 
L 796.590682 322.4155 
L 796.590682 322.4155 
L 796.590682 322.4155 
L 796.590682 322.4155 
L 796.590682 322.4155 
L 796.590682 322.4155 
L 796.590682 322.4155 
L 796.590682 322.4155 
L 796.590682 322.4155 
L 796.590682 322.4155 
L 796.590682 322.4155 
L 796.590682 322.4155 
L 796.590682 322.4155 
L 796.590682 322.4155 
L 796.590682 322.4155 
L 796.590682 322.4155 
L 796.590682 322.4155 
z
" clip-path="url(#p424a37f1fd)" style="fill: #1f77b4; fill-opacity: 0.3"/>
   </g>
   <g id="matplotlib.axis_1">
    <g id="xtick_1">
     <g id="line2d_1">
      <defs>
       <path id="mc68e8534a6" d="M 0 0 
L 0 3.5 
" style="stroke: #000000; stroke-width: 0.8"/>
      </defs>
      <g>
       <use xlink:href="#mc68e8534a6" x="98.409091" y="337.97" style="stroke: #000000; stroke-width: 0.8"/>
      </g>
     </g>
     <g id="text_1">
      <!-- Defector -->
      <g transform="translate(100.616591 379.51)rotate(-90)scale(0.08 -0.08)">
       <defs>
        <path id="DejaVuSans-44" d="M 1259 4147 
L 1259 519 
L 2022 519 
Q 2988 519 3436 956 
Q 3884 1394 3884 2338 
Q 3884 3275 3436 3711 
Q 2988 4147 2022 4147 
L 1259 4147 
z
M 628 4666 
L 1925 4666 
Q 3281 4666 3915 4102 
Q 4550 3538 4550 2338 
Q 4550 1131 3912 565 
Q 3275 0 1925 0 
L 628 0 
L 628 4666 
z
" transform="scale(0.015625)"/>
        <path id="DejaVuSans-65" d="M 3597 1894 
L 3597 1613 
L 953 1613 
Q 991 1019 1311 708 
Q 1631 397 2203 397 
Q 2534 397 2845 478 
Q 3156 559 3463 722 
L 3463 178 
Q 3153 47 2828 -22 
Q 2503 -91 2169 -91 
Q 1331 -91 842 396 
Q 353 884 353 1716 
Q 353 2575 817 3079 
Q 1281 3584 2069 3584 
Q 2775 3584 3186 3129 
Q 3597 2675 3597 1894 
z
M 3022 2063 
Q 3016 2534 2758 2815 
Q 2500 3097 2075 3097 
Q 1594 3097 1305 2825 
Q 1016 2553 972 2059 
L 3022 2063 
z
" transform="scale(0.015625)"/>
        <path id="DejaVuSans-66" d="M 2375 4863 
L 2375 4384 
L 1825 4384 
Q 1516 4384 1395 4259 
Q 1275 4134 1275 3809 
L 1275 3500 
L 2222 3500 
L 2222 3053 
L 1275 3053 
L 1275 0 
L 697 0 
L 697 3053 
L 147 3053 
L 147 3500 
L 697 3500 
L 697 3744 
Q 697 4328 969 4595 
Q 1241 4863 1831 4863 
L 2375 4863 
z
" transform="scale(0.015625)"/>
        <path id="DejaVuSans-63" d="M 3122 3366 
L 3122 2828 
Q 2878 2963 2633 3030 
Q 2388 3097 2138 3097 
Q 1578 3097 1268 2742 
Q 959 2388 959 1747 
Q 959 1106 1268 751 
Q 1578 397 2138 397 
Q 2388 397 2633 464 
Q 2878 531 3122 666 
L 3122 134 
Q 2881 22 2623 -34 
Q 2366 -91 2075 -91 
Q 1284 -91 818 406 
Q 353 903 353 1747 
Q 353 2603 823 3093 
Q 1294 3584 2113 3584 
Q 2378 3584 2631 3529 
Q 2884 3475 3122 3366 
z
" transform="scale(0.015625)"/>
        <path id="DejaVuSans-74" d="M 1172 4494 
L 1172 3500 
L 2356 3500 
L 2356 3053 
L 1172 3053 
L 1172 1153 
Q 1172 725 1289 603 
Q 1406 481 1766 481 
L 2356 481 
L 2356 0 
L 1766 0 
Q 1100 0 847 248 
Q 594 497 594 1153 
L 594 3053 
L 172 3053 
L 172 3500 
L 594 3500 
L 594 4494 
L 1172 4494 
z
" transform="scale(0.015625)"/>
        <path id="DejaVuSans-6f" d="M 1959 3097 
Q 1497 3097 1228 2736 
Q 959 2375 959 1747 
Q 959 1119 1226 758 
Q 1494 397 1959 397 
Q 2419 397 2687 759 
Q 2956 1122 2956 1747 
Q 2956 2369 2687 2733 
Q 2419 3097 1959 3097 
z
M 1959 3584 
Q 2709 3584 3137 3096 
Q 3566 2609 3566 1747 
Q 3566 888 3137 398 
Q 2709 -91 1959 -91 
Q 1206 -91 779 398 
Q 353 888 353 1747 
Q 353 2609 779 3096 
Q 1206 3584 1959 3584 
z
" transform="scale(0.015625)"/>
        <path id="DejaVuSans-72" d="M 2631 2963 
Q 2534 3019 2420 3045 
Q 2306 3072 2169 3072 
Q 1681 3072 1420 2755 
Q 1159 2438 1159 1844 
L 1159 0 
L 581 0 
L 581 3500 
L 1159 3500 
L 1159 2956 
Q 1341 3275 1631 3429 
Q 1922 3584 2338 3584 
Q 2397 3584 2469 3576 
Q 2541 3569 2628 3553 
L 2631 2963 
z
" transform="scale(0.015625)"/>
       </defs>
       <use xlink:href="#DejaVuSans-44"/>
       <use xlink:href="#DejaVuSans-65" x="77.001953"/>
       <use xlink:href="#DejaVuSans-66" x="138.525391"/>
       <use xlink:href="#DejaVuSans-65" x="173.730469"/>
       <use xlink:href="#DejaVuSans-63" x="235.253906"/>
       <use xlink:href="#DejaVuSans-74" x="290.234375"/>
       <use xlink:href="#DejaVuSans-6f" x="329.443359"/>
       <use xlink:href="#DejaVuSans-72" x="390.625"/>
      </g>
     </g>
    </g>
    <g id="xtick_2">
     <g id="line2d_2">
      <g>
       <use xlink:href="#mc68e8534a6" x="173.888182" y="337.97" style="stroke: #000000; stroke-width: 0.8"/>
      </g>
     </g>
     <g id="text_2">
      <!-- Alternator -->
      <g transform="translate(176.095682 385.165)rotate(-90)scale(0.08 -0.08)">
       <defs>
        <path id="DejaVuSans-41" d="M 2188 4044 
L 1331 1722 
L 3047 1722 
L 2188 4044 
z
M 1831 4666 
L 2547 4666 
L 4325 0 
L 3669 0 
L 3244 1197 
L 1141 1197 
L 716 0 
L 50 0 
L 1831 4666 
z
" transform="scale(0.015625)"/>
        <path id="DejaVuSans-6c" d="M 603 4863 
L 1178 4863 
L 1178 0 
L 603 0 
L 603 4863 
z
" transform="scale(0.015625)"/>
        <path id="DejaVuSans-6e" d="M 3513 2113 
L 3513 0 
L 2938 0 
L 2938 2094 
Q 2938 2591 2744 2837 
Q 2550 3084 2163 3084 
Q 1697 3084 1428 2787 
Q 1159 2491 1159 1978 
L 1159 0 
L 581 0 
L 581 3500 
L 1159 3500 
L 1159 2956 
Q 1366 3272 1645 3428 
Q 1925 3584 2291 3584 
Q 2894 3584 3203 3211 
Q 3513 2838 3513 2113 
z
" transform="scale(0.015625)"/>
        <path id="DejaVuSans-61" d="M 2194 1759 
Q 1497 1759 1228 1600 
Q 959 1441 959 1056 
Q 959 750 1161 570 
Q 1363 391 1709 391 
Q 2188 391 2477 730 
Q 2766 1069 2766 1631 
L 2766 1759 
L 2194 1759 
z
M 3341 1997 
L 3341 0 
L 2766 0 
L 2766 531 
Q 2569 213 2275 61 
Q 1981 -91 1556 -91 
Q 1019 -91 701 211 
Q 384 513 384 1019 
Q 384 1609 779 1909 
Q 1175 2209 1959 2209 
L 2766 2209 
L 2766 2266 
Q 2766 2663 2505 2880 
Q 2244 3097 1772 3097 
Q 1472 3097 1187 3025 
Q 903 2953 641 2809 
L 641 3341 
Q 956 3463 1253 3523 
Q 1550 3584 1831 3584 
Q 2591 3584 2966 3190 
Q 3341 2797 3341 1997 
z
" transform="scale(0.015625)"/>
       </defs>
       <use xlink:href="#DejaVuSans-41"/>
       <use xlink:href="#DejaVuSans-6c" x="68.408203"/>
       <use xlink:href="#DejaVuSans-74" x="96.191406"/>
       <use xlink:href="#DejaVuSans-65" x="135.400391"/>
       <use xlink:href="#DejaVuSans-72" x="196.923828"/>
       <use xlink:href="#DejaVuSans-6e" x="236.287109"/>
       <use xlink:href="#DejaVuSans-61" x="299.666016"/>
       <use xlink:href="#DejaVuSans-74" x="360.945312"/>
       <use xlink:href="#DejaVuSans-6f" x="400.154297"/>
       <use xlink:href="#DejaVuSans-72" x="461.335938"/>
      </g>
     </g>
    </g>
    <g id="xtick_3">
     <g id="line2d_3">
      <g>
       <use xlink:href="#mc68e8534a6" x="249.367273" y="337.97" style="stroke: #000000; stroke-width: 0.8"/>
      </g>
     </g>
     <g id="text_3">
      <!-- Adaptive -->
      <g transform="translate(251.574773 380.37875)rotate(-90)scale(0.08 -0.08)">
       <defs>
        <path id="DejaVuSans-64" d="M 2906 2969 
L 2906 4863 
L 3481 4863 
L 3481 0 
L 2906 0 
L 2906 525 
Q 2725 213 2448 61 
Q 2172 -91 1784 -91 
Q 1150 -91 751 415 
Q 353 922 353 1747 
Q 353 2572 751 3078 
Q 1150 3584 1784 3584 
Q 2172 3584 2448 3432 
Q 2725 3281 2906 2969 
z
M 947 1747 
Q 947 1113 1208 752 
Q 1469 391 1925 391 
Q 2381 391 2643 752 
Q 2906 1113 2906 1747 
Q 2906 2381 2643 2742 
Q 2381 3103 1925 3103 
Q 1469 3103 1208 2742 
Q 947 2381 947 1747 
z
" transform="scale(0.015625)"/>
        <path id="DejaVuSans-70" d="M 1159 525 
L 1159 -1331 
L 581 -1331 
L 581 3500 
L 1159 3500 
L 1159 2969 
Q 1341 3281 1617 3432 
Q 1894 3584 2278 3584 
Q 2916 3584 3314 3078 
Q 3713 2572 3713 1747 
Q 3713 922 3314 415 
Q 2916 -91 2278 -91 
Q 1894 -91 1617 61 
Q 1341 213 1159 525 
z
M 3116 1747 
Q 3116 2381 2855 2742 
Q 2594 3103 2138 3103 
Q 1681 3103 1420 2742 
Q 1159 2381 1159 1747 
Q 1159 1113 1420 752 
Q 1681 391 2138 391 
Q 2594 391 2855 752 
Q 3116 1113 3116 1747 
z
" transform="scale(0.015625)"/>
        <path id="DejaVuSans-69" d="M 603 3500 
L 1178 3500 
L 1178 0 
L 603 0 
L 603 3500 
z
M 603 4863 
L 1178 4863 
L 1178 4134 
L 603 4134 
L 603 4863 
z
" transform="scale(0.015625)"/>
        <path id="DejaVuSans-76" d="M 191 3500 
L 800 3500 
L 1894 563 
L 2988 3500 
L 3597 3500 
L 2284 0 
L 1503 0 
L 191 3500 
z
" transform="scale(0.015625)"/>
       </defs>
       <use xlink:href="#DejaVuSans-41"/>
       <use xlink:href="#DejaVuSans-64" x="66.658203"/>
       <use xlink:href="#DejaVuSans-61" x="130.134766"/>
       <use xlink:href="#DejaVuSans-70" x="191.414062"/>
       <use xlink:href="#DejaVuSans-74" x="254.890625"/>
       <use xlink:href="#DejaVuSans-69" x="294.099609"/>
       <use xlink:href="#DejaVuSans-76" x="321.882812"/>
       <use xlink:href="#DejaVuSans-65" x="381.0625"/>
      </g>
     </g>
    </g>
    <g id="xtick_4">
     <g id="line2d_4">
      <g>
       <use xlink:href="#mc68e8534a6" x="324.846364" y="337.97" style="stroke: #000000; stroke-width: 0.8"/>
      </g>
     </g>
     <g id="text_4">
      <!-- Random: 0.5 -->
      <g transform="translate(327.053864 396.0475)rotate(-90)scale(0.08 -0.08)">
       <defs>
        <path id="DejaVuSans-52" d="M 2841 2188 
Q 3044 2119 3236 1894 
Q 3428 1669 3622 1275 
L 4263 0 
L 3584 0 
L 2988 1197 
Q 2756 1666 2539 1819 
Q 2322 1972 1947 1972 
L 1259 1972 
L 1259 0 
L 628 0 
L 628 4666 
L 2053 4666 
Q 2853 4666 3247 4331 
Q 3641 3997 3641 3322 
Q 3641 2881 3436 2590 
Q 3231 2300 2841 2188 
z
M 1259 4147 
L 1259 2491 
L 2053 2491 
Q 2509 2491 2742 2702 
Q 2975 2913 2975 3322 
Q 2975 3731 2742 3939 
Q 2509 4147 2053 4147 
L 1259 4147 
z
" transform="scale(0.015625)"/>
        <path id="DejaVuSans-6d" d="M 3328 2828 
Q 3544 3216 3844 3400 
Q 4144 3584 4550 3584 
Q 5097 3584 5394 3201 
Q 5691 2819 5691 2113 
L 5691 0 
L 5113 0 
L 5113 2094 
Q 5113 2597 4934 2840 
Q 4756 3084 4391 3084 
Q 3944 3084 3684 2787 
Q 3425 2491 3425 1978 
L 3425 0 
L 2847 0 
L 2847 2094 
Q 2847 2600 2669 2842 
Q 2491 3084 2119 3084 
Q 1678 3084 1418 2786 
Q 1159 2488 1159 1978 
L 1159 0 
L 581 0 
L 581 3500 
L 1159 3500 
L 1159 2956 
Q 1356 3278 1631 3431 
Q 1906 3584 2284 3584 
Q 2666 3584 2933 3390 
Q 3200 3197 3328 2828 
z
" transform="scale(0.015625)"/>
        <path id="DejaVuSans-3a" d="M 750 794 
L 1409 794 
L 1409 0 
L 750 0 
L 750 794 
z
M 750 3309 
L 1409 3309 
L 1409 2516 
L 750 2516 
L 750 3309 
z
" transform="scale(0.015625)"/>
        <path id="DejaVuSans-20" transform="scale(0.015625)"/>
        <path id="DejaVuSans-30" d="M 2034 4250 
Q 1547 4250 1301 3770 
Q 1056 3291 1056 2328 
Q 1056 1369 1301 889 
Q 1547 409 2034 409 
Q 2525 409 2770 889 
Q 3016 1369 3016 2328 
Q 3016 3291 2770 3770 
Q 2525 4250 2034 4250 
z
M 2034 4750 
Q 2819 4750 3233 4129 
Q 3647 3509 3647 2328 
Q 3647 1150 3233 529 
Q 2819 -91 2034 -91 
Q 1250 -91 836 529 
Q 422 1150 422 2328 
Q 422 3509 836 4129 
Q 1250 4750 2034 4750 
z
" transform="scale(0.015625)"/>
        <path id="DejaVuSans-2e" d="M 684 794 
L 1344 794 
L 1344 0 
L 684 0 
L 684 794 
z
" transform="scale(0.015625)"/>
        <path id="DejaVuSans-35" d="M 691 4666 
L 3169 4666 
L 3169 4134 
L 1269 4134 
L 1269 2991 
Q 1406 3038 1543 3061 
Q 1681 3084 1819 3084 
Q 2600 3084 3056 2656 
Q 3513 2228 3513 1497 
Q 3513 744 3044 326 
Q 2575 -91 1722 -91 
Q 1428 -91 1123 -41 
Q 819 9 494 109 
L 494 744 
Q 775 591 1075 516 
Q 1375 441 1709 441 
Q 2250 441 2565 725 
Q 2881 1009 2881 1497 
Q 2881 1984 2565 2268 
Q 2250 2553 1709 2553 
Q 1456 2553 1204 2497 
Q 953 2441 691 2322 
L 691 4666 
z
" transform="scale(0.015625)"/>
       </defs>
       <use xlink:href="#DejaVuSans-52"/>
       <use xlink:href="#DejaVuSans-61" x="67.232422"/>
       <use xlink:href="#DejaVuSans-6e" x="128.511719"/>
       <use xlink:href="#DejaVuSans-64" x="191.890625"/>
       <use xlink:href="#DejaVuSans-6f" x="255.367188"/>
       <use xlink:href="#DejaVuSans-6d" x="316.548828"/>
       <use xlink:href="#DejaVuSans-3a" x="413.960938"/>
       <use xlink:href="#DejaVuSans-20" x="447.652344"/>
       <use xlink:href="#DejaVuSans-30" x="479.439453"/>
       <use xlink:href="#DejaVuSans-2e" x="543.0625"/>
       <use xlink:href="#DejaVuSans-35" x="574.849609"/>
      </g>
     </g>
    </g>
    <g id="xtick_5">
     <g id="line2d_5">
      <g>
       <use xlink:href="#mc68e8534a6" x="400.325455" y="337.97" style="stroke: #000000; stroke-width: 0.8"/>
      </g>
     </g>
     <g id="text_5">
      <!-- Grudger -->
      <g transform="translate(402.532955 377.89625)rotate(-90)scale(0.08 -0.08)">
       <defs>
        <path id="DejaVuSans-47" d="M 3809 666 
L 3809 1919 
L 2778 1919 
L 2778 2438 
L 4434 2438 
L 4434 434 
Q 4069 175 3628 42 
Q 3188 -91 2688 -91 
Q 1594 -91 976 548 
Q 359 1188 359 2328 
Q 359 3472 976 4111 
Q 1594 4750 2688 4750 
Q 3144 4750 3555 4637 
Q 3966 4525 4313 4306 
L 4313 3634 
Q 3963 3931 3569 4081 
Q 3175 4231 2741 4231 
Q 1884 4231 1454 3753 
Q 1025 3275 1025 2328 
Q 1025 1384 1454 906 
Q 1884 428 2741 428 
Q 3075 428 3337 486 
Q 3600 544 3809 666 
z
" transform="scale(0.015625)"/>
        <path id="DejaVuSans-75" d="M 544 1381 
L 544 3500 
L 1119 3500 
L 1119 1403 
Q 1119 906 1312 657 
Q 1506 409 1894 409 
Q 2359 409 2629 706 
Q 2900 1003 2900 1516 
L 2900 3500 
L 3475 3500 
L 3475 0 
L 2900 0 
L 2900 538 
Q 2691 219 2414 64 
Q 2138 -91 1772 -91 
Q 1169 -91 856 284 
Q 544 659 544 1381 
z
M 1991 3584 
L 1991 3584 
z
" transform="scale(0.015625)"/>
        <path id="DejaVuSans-67" d="M 2906 1791 
Q 2906 2416 2648 2759 
Q 2391 3103 1925 3103 
Q 1463 3103 1205 2759 
Q 947 2416 947 1791 
Q 947 1169 1205 825 
Q 1463 481 1925 481 
Q 2391 481 2648 825 
Q 2906 1169 2906 1791 
z
M 3481 434 
Q 3481 -459 3084 -895 
Q 2688 -1331 1869 -1331 
Q 1566 -1331 1297 -1286 
Q 1028 -1241 775 -1147 
L 775 -588 
Q 1028 -725 1275 -790 
Q 1522 -856 1778 -856 
Q 2344 -856 2625 -561 
Q 2906 -266 2906 331 
L 2906 616 
Q 2728 306 2450 153 
Q 2172 0 1784 0 
Q 1141 0 747 490 
Q 353 981 353 1791 
Q 353 2603 747 3093 
Q 1141 3584 1784 3584 
Q 2172 3584 2450 3431 
Q 2728 3278 2906 2969 
L 2906 3500 
L 3481 3500 
L 3481 434 
z
" transform="scale(0.015625)"/>
       </defs>
       <use xlink:href="#DejaVuSans-47"/>
       <use xlink:href="#DejaVuSans-72" x="77.490234"/>
       <use xlink:href="#DejaVuSans-75" x="118.603516"/>
       <use xlink:href="#DejaVuSans-64" x="181.982422"/>
       <use xlink:href="#DejaVuSans-67" x="245.458984"/>
       <use xlink:href="#DejaVuSans-65" x="308.935547"/>
       <use xlink:href="#DejaVuSans-72" x="370.458984"/>
      </g>
     </g>
    </g>
    <g id="xtick_6">
     <g id="line2d_6">
      <g>
       <use xlink:href="#mc68e8534a6" x="475.804545" y="337.97" style="stroke: #000000; stroke-width: 0.8"/>
      </g>
     </g>
     <g id="text_6">
      <!-- Deep QLearner -->
      <g transform="translate(478.012045 405.46625)rotate(-90)scale(0.08 -0.08)">
       <defs>
        <path id="DejaVuSans-51" d="M 2522 4238 
Q 1834 4238 1429 3725 
Q 1025 3213 1025 2328 
Q 1025 1447 1429 934 
Q 1834 422 2522 422 
Q 3209 422 3611 934 
Q 4013 1447 4013 2328 
Q 4013 3213 3611 3725 
Q 3209 4238 2522 4238 
z
M 3406 84 
L 4238 -825 
L 3475 -825 
L 2784 -78 
Q 2681 -84 2626 -87 
Q 2572 -91 2522 -91 
Q 1538 -91 948 567 
Q 359 1225 359 2328 
Q 359 3434 948 4092 
Q 1538 4750 2522 4750 
Q 3503 4750 4090 4092 
Q 4678 3434 4678 2328 
Q 4678 1516 4351 937 
Q 4025 359 3406 84 
z
" transform="scale(0.015625)"/>
        <path id="DejaVuSans-4c" d="M 628 4666 
L 1259 4666 
L 1259 531 
L 3531 531 
L 3531 0 
L 628 0 
L 628 4666 
z
" transform="scale(0.015625)"/>
       </defs>
       <use xlink:href="#DejaVuSans-44"/>
       <use xlink:href="#DejaVuSans-65" x="77.001953"/>
       <use xlink:href="#DejaVuSans-65" x="138.525391"/>
       <use xlink:href="#DejaVuSans-70" x="200.048828"/>
       <use xlink:href="#DejaVuSans-20" x="263.525391"/>
       <use xlink:href="#DejaVuSans-51" x="295.3125"/>
       <use xlink:href="#DejaVuSans-4c" x="374.023438"/>
       <use xlink:href="#DejaVuSans-65" x="427.986328"/>
       <use xlink:href="#DejaVuSans-61" x="489.509766"/>
       <use xlink:href="#DejaVuSans-72" x="550.789062"/>
       <use xlink:href="#DejaVuSans-6e" x="590.152344"/>
       <use xlink:href="#DejaVuSans-65" x="653.53125"/>
       <use xlink:href="#DejaVuSans-72" x="715.054688"/>
      </g>
     </g>
    </g>
    <g id="xtick_7">
     <g id="line2d_7">
      <g>
       <use xlink:href="#mc68e8534a6" x="551.283636" y="337.97" style="stroke: #000000; stroke-width: 0.8"/>
      </g>
     </g>
     <g id="text_7">
      <!-- Mediocre QLearner -->
      <g transform="translate(553.491136 420.83375)rotate(-90)scale(0.08 -0.08)">
       <defs>
        <path id="DejaVuSans-4d" d="M 628 4666 
L 1569 4666 
L 2759 1491 
L 3956 4666 
L 4897 4666 
L 4897 0 
L 4281 0 
L 4281 4097 
L 3078 897 
L 2444 897 
L 1241 4097 
L 1241 0 
L 628 0 
L 628 4666 
z
" transform="scale(0.015625)"/>
       </defs>
       <use xlink:href="#DejaVuSans-4d"/>
       <use xlink:href="#DejaVuSans-65" x="86.279297"/>
       <use xlink:href="#DejaVuSans-64" x="147.802734"/>
       <use xlink:href="#DejaVuSans-69" x="211.279297"/>
       <use xlink:href="#DejaVuSans-6f" x="239.0625"/>
       <use xlink:href="#DejaVuSans-63" x="300.244141"/>
       <use xlink:href="#DejaVuSans-72" x="355.224609"/>
       <use xlink:href="#DejaVuSans-65" x="394.087891"/>
       <use xlink:href="#DejaVuSans-20" x="455.611328"/>
       <use xlink:href="#DejaVuSans-51" x="487.398438"/>
       <use xlink:href="#DejaVuSans-4c" x="566.109375"/>
       <use xlink:href="#DejaVuSans-65" x="620.072266"/>
       <use xlink:href="#DejaVuSans-61" x="681.595703"/>
       <use xlink:href="#DejaVuSans-72" x="742.875"/>
       <use xlink:href="#DejaVuSans-6e" x="782.238281"/>
       <use xlink:href="#DejaVuSans-65" x="845.617188"/>
       <use xlink:href="#DejaVuSans-72" x="907.140625"/>
      </g>
     </g>
    </g>
    <g id="xtick_8">
     <g id="line2d_8">
      <g>
       <use xlink:href="#mc68e8534a6" x="626.762727" y="337.97" style="stroke: #000000; stroke-width: 0.8"/>
      </g>
     </g>
     <g id="text_8">
      <!-- Risky QLearner -->
      <g transform="translate(628.970227 405.40875)rotate(-90)scale(0.08 -0.08)">
       <defs>
        <path id="DejaVuSans-73" d="M 2834 3397 
L 2834 2853 
Q 2591 2978 2328 3040 
Q 2066 3103 1784 3103 
Q 1356 3103 1142 2972 
Q 928 2841 928 2578 
Q 928 2378 1081 2264 
Q 1234 2150 1697 2047 
L 1894 2003 
Q 2506 1872 2764 1633 
Q 3022 1394 3022 966 
Q 3022 478 2636 193 
Q 2250 -91 1575 -91 
Q 1294 -91 989 -36 
Q 684 19 347 128 
L 347 722 
Q 666 556 975 473 
Q 1284 391 1588 391 
Q 1994 391 2212 530 
Q 2431 669 2431 922 
Q 2431 1156 2273 1281 
Q 2116 1406 1581 1522 
L 1381 1569 
Q 847 1681 609 1914 
Q 372 2147 372 2553 
Q 372 3047 722 3315 
Q 1072 3584 1716 3584 
Q 2034 3584 2315 3537 
Q 2597 3491 2834 3397 
z
" transform="scale(0.015625)"/>
        <path id="DejaVuSans-6b" d="M 581 4863 
L 1159 4863 
L 1159 1991 
L 2875 3500 
L 3609 3500 
L 1753 1863 
L 3688 0 
L 2938 0 
L 1159 1709 
L 1159 0 
L 581 0 
L 581 4863 
z
" transform="scale(0.015625)"/>
        <path id="DejaVuSans-79" d="M 2059 -325 
Q 1816 -950 1584 -1140 
Q 1353 -1331 966 -1331 
L 506 -1331 
L 506 -850 
L 844 -850 
Q 1081 -850 1212 -737 
Q 1344 -625 1503 -206 
L 1606 56 
L 191 3500 
L 800 3500 
L 1894 763 
L 2988 3500 
L 3597 3500 
L 2059 -325 
z
" transform="scale(0.015625)"/>
       </defs>
       <use xlink:href="#DejaVuSans-52"/>
       <use xlink:href="#DejaVuSans-69" x="69.482422"/>
       <use xlink:href="#DejaVuSans-73" x="97.265625"/>
       <use xlink:href="#DejaVuSans-6b" x="149.365234"/>
       <use xlink:href="#DejaVuSans-79" x="203.650391"/>
       <use xlink:href="#DejaVuSans-20" x="262.830078"/>
       <use xlink:href="#DejaVuSans-51" x="294.617188"/>
       <use xlink:href="#DejaVuSans-4c" x="373.328125"/>
       <use xlink:href="#DejaVuSans-65" x="427.291016"/>
       <use xlink:href="#DejaVuSans-61" x="488.814453"/>
       <use xlink:href="#DejaVuSans-72" x="550.09375"/>
       <use xlink:href="#DejaVuSans-6e" x="589.457031"/>
       <use xlink:href="#DejaVuSans-65" x="652.835938"/>
       <use xlink:href="#DejaVuSans-72" x="714.359375"/>
      </g>
     </g>
    </g>
    <g id="xtick_9">
     <g id="line2d_9">
      <g>
       <use xlink:href="#mc68e8534a6" x="702.241818" y="337.97" style="stroke: #000000; stroke-width: 0.8"/>
      </g>
     </g>
     <g id="text_9">
      <!-- Tit For Tat -->
      <g transform="translate(704.449318 384.15)rotate(-90)scale(0.08 -0.08)">
       <defs>
        <path id="DejaVuSans-54" d="M -19 4666 
L 3928 4666 
L 3928 4134 
L 2272 4134 
L 2272 0 
L 1638 0 
L 1638 4134 
L -19 4134 
L -19 4666 
z
" transform="scale(0.015625)"/>
        <path id="DejaVuSans-46" d="M 628 4666 
L 3309 4666 
L 3309 4134 
L 1259 4134 
L 1259 2759 
L 3109 2759 
L 3109 2228 
L 1259 2228 
L 1259 0 
L 628 0 
L 628 4666 
z
" transform="scale(0.015625)"/>
       </defs>
       <use xlink:href="#DejaVuSans-54"/>
       <use xlink:href="#DejaVuSans-69" x="57.958984"/>
       <use xlink:href="#DejaVuSans-74" x="85.742188"/>
       <use xlink:href="#DejaVuSans-20" x="124.951172"/>
       <use xlink:href="#DejaVuSans-46" x="156.738281"/>
       <use xlink:href="#DejaVuSans-6f" x="210.632812"/>
       <use xlink:href="#DejaVuSans-72" x="271.814453"/>
       <use xlink:href="#DejaVuSans-20" x="312.927734"/>
       <use xlink:href="#DejaVuSans-54" x="344.714844"/>
       <use xlink:href="#DejaVuSans-61" x="389.298828"/>
       <use xlink:href="#DejaVuSans-74" x="450.578125"/>
      </g>
     </g>
    </g>
    <g id="xtick_10">
     <g id="line2d_10">
      <g>
       <use xlink:href="#mc68e8534a6" x="777.720909" y="337.97" style="stroke: #000000; stroke-width: 0.8"/>
      </g>
     </g>
     <g id="text_10">
      <!-- Cooperator -->
      <g transform="translate(779.928409 389.85875)rotate(-90)scale(0.08 -0.08)">
       <defs>
        <path id="DejaVuSans-43" d="M 4122 4306 
L 4122 3641 
Q 3803 3938 3442 4084 
Q 3081 4231 2675 4231 
Q 1875 4231 1450 3742 
Q 1025 3253 1025 2328 
Q 1025 1406 1450 917 
Q 1875 428 2675 428 
Q 3081 428 3442 575 
Q 3803 722 4122 1019 
L 4122 359 
Q 3791 134 3420 21 
Q 3050 -91 2638 -91 
Q 1578 -91 968 557 
Q 359 1206 359 2328 
Q 359 3453 968 4101 
Q 1578 4750 2638 4750 
Q 3056 4750 3426 4639 
Q 3797 4528 4122 4306 
z
" transform="scale(0.015625)"/>
       </defs>
       <use xlink:href="#DejaVuSans-43"/>
       <use xlink:href="#DejaVuSans-6f" x="69.824219"/>
       <use xlink:href="#DejaVuSans-6f" x="131.005859"/>
       <use xlink:href="#DejaVuSans-70" x="192.1875"/>
       <use xlink:href="#DejaVuSans-65" x="255.664062"/>
       <use xlink:href="#DejaVuSans-72" x="317.1875"/>
       <use xlink:href="#DejaVuSans-61" x="358.300781"/>
       <use xlink:href="#DejaVuSans-74" x="419.580078"/>
       <use xlink:href="#DejaVuSans-6f" x="458.789062"/>
       <use xlink:href="#DejaVuSans-72" x="519.970703"/>
      </g>
     </g>
    </g>
   </g>
   <g id="matplotlib.axis_2">
    <g id="ytick_1">
     <g id="line2d_11">
      <defs>
       <path id="mb32e01ed14" d="M 0 0 
L -3.5 0 
" style="stroke: #000000; stroke-width: 0.8"/>
      </defs>
      <g>
       <use xlink:href="#mb32e01ed14" x="22.93" y="322.4155" style="stroke: #000000; stroke-width: 0.8"/>
      </g>
     </g>
     <g id="text_11">
      <!-- 0 -->
      <g transform="translate(10.84 325.454875)scale(0.08 -0.08)">
       <use xlink:href="#DejaVuSans-30"/>
      </g>
     </g>
    </g>
    <g id="ytick_2">
     <g id="line2d_12">
      <g>
       <use xlink:href="#mb32e01ed14" x="22.93" y="260.1975" style="stroke: #000000; stroke-width: 0.8"/>
      </g>
     </g>
     <g id="text_12">
      <!-- 2 -->
      <g transform="translate(10.84 263.236875)scale(0.08 -0.08)">
       <defs>
        <path id="DejaVuSans-32" d="M 1228 531 
L 3431 531 
L 3431 0 
L 469 0 
L 469 531 
Q 828 903 1448 1529 
Q 2069 2156 2228 2338 
Q 2531 2678 2651 2914 
Q 2772 3150 2772 3378 
Q 2772 3750 2511 3984 
Q 2250 4219 1831 4219 
Q 1534 4219 1204 4116 
Q 875 4013 500 3803 
L 500 4441 
Q 881 4594 1212 4672 
Q 1544 4750 1819 4750 
Q 2544 4750 2975 4387 
Q 3406 4025 3406 3419 
Q 3406 3131 3298 2873 
Q 3191 2616 2906 2266 
Q 2828 2175 2409 1742 
Q 1991 1309 1228 531 
z
" transform="scale(0.015625)"/>
       </defs>
       <use xlink:href="#DejaVuSans-32"/>
      </g>
     </g>
    </g>
    <g id="ytick_3">
     <g id="line2d_13">
      <g>
       <use xlink:href="#mb32e01ed14" x="22.93" y="197.9795" style="stroke: #000000; stroke-width: 0.8"/>
      </g>
     </g>
     <g id="text_13">
      <!-- 4 -->
      <g transform="translate(10.84 201.018875)scale(0.08 -0.08)">
       <defs>
        <path id="DejaVuSans-34" d="M 2419 4116 
L 825 1625 
L 2419 1625 
L 2419 4116 
z
M 2253 4666 
L 3047 4666 
L 3047 1625 
L 3713 1625 
L 3713 1100 
L 3047 1100 
L 3047 0 
L 2419 0 
L 2419 1100 
L 313 1100 
L 313 1709 
L 2253 4666 
z
" transform="scale(0.015625)"/>
       </defs>
       <use xlink:href="#DejaVuSans-34"/>
      </g>
     </g>
    </g>
    <g id="ytick_4">
     <g id="line2d_14">
      <g>
       <use xlink:href="#mb32e01ed14" x="22.93" y="135.7615" style="stroke: #000000; stroke-width: 0.8"/>
      </g>
     </g>
     <g id="text_14">
      <!-- 6 -->
      <g transform="translate(10.84 138.800875)scale(0.08 -0.08)">
       <defs>
        <path id="DejaVuSans-36" d="M 2113 2584 
Q 1688 2584 1439 2293 
Q 1191 2003 1191 1497 
Q 1191 994 1439 701 
Q 1688 409 2113 409 
Q 2538 409 2786 701 
Q 3034 994 3034 1497 
Q 3034 2003 2786 2293 
Q 2538 2584 2113 2584 
z
M 3366 4563 
L 3366 3988 
Q 3128 4100 2886 4159 
Q 2644 4219 2406 4219 
Q 1781 4219 1451 3797 
Q 1122 3375 1075 2522 
Q 1259 2794 1537 2939 
Q 1816 3084 2150 3084 
Q 2853 3084 3261 2657 
Q 3669 2231 3669 1497 
Q 3669 778 3244 343 
Q 2819 -91 2113 -91 
Q 1303 -91 875 529 
Q 447 1150 447 2328 
Q 447 3434 972 4092 
Q 1497 4750 2381 4750 
Q 2619 4750 2861 4703 
Q 3103 4656 3366 4563 
z
" transform="scale(0.015625)"/>
       </defs>
       <use xlink:href="#DejaVuSans-36"/>
      </g>
     </g>
    </g>
    <g id="ytick_5">
     <g id="line2d_15">
      <g>
       <use xlink:href="#mb32e01ed14" x="22.93" y="73.5435" style="stroke: #000000; stroke-width: 0.8"/>
      </g>
     </g>
     <g id="text_15">
      <!-- 8 -->
      <g transform="translate(10.84 76.582875)scale(0.08 -0.08)">
       <defs>
        <path id="DejaVuSans-38" d="M 2034 2216 
Q 1584 2216 1326 1975 
Q 1069 1734 1069 1313 
Q 1069 891 1326 650 
Q 1584 409 2034 409 
Q 2484 409 2743 651 
Q 3003 894 3003 1313 
Q 3003 1734 2745 1975 
Q 2488 2216 2034 2216 
z
M 1403 2484 
Q 997 2584 770 2862 
Q 544 3141 544 3541 
Q 544 4100 942 4425 
Q 1341 4750 2034 4750 
Q 2731 4750 3128 4425 
Q 3525 4100 3525 3541 
Q 3525 3141 3298 2862 
Q 3072 2584 2669 2484 
Q 3125 2378 3379 2068 
Q 3634 1759 3634 1313 
Q 3634 634 3220 271 
Q 2806 -91 2034 -91 
Q 1263 -91 848 271 
Q 434 634 434 1313 
Q 434 1759 690 2068 
Q 947 2378 1403 2484 
z
M 1172 3481 
Q 1172 3119 1398 2916 
Q 1625 2713 2034 2713 
Q 2441 2713 2670 2916 
Q 2900 3119 2900 3481 
Q 2900 3844 2670 4047 
Q 2441 4250 2034 4250 
Q 1625 4250 1398 4047 
Q 1172 3844 1172 3481 
z
" transform="scale(0.015625)"/>
       </defs>
       <use xlink:href="#DejaVuSans-38"/>
      </g>
     </g>
    </g>
   </g>
   <g id="LineCollection_1">
    <path d="M 88.974205 42.4345 
L 107.843977 42.4345 
" clip-path="url(#p424a37f1fd)" style="fill: none; stroke: #1f77b4; stroke-width: 1.5"/>
    <path d="M 164.453295 166.8705 
L 183.323068 166.8705 
" clip-path="url(#p424a37f1fd)" style="fill: none; stroke: #1f77b4; stroke-width: 1.5"/>
    <path d="M 239.932386 166.8705 
L 258.802159 166.8705 
" clip-path="url(#p424a37f1fd)" style="fill: none; stroke: #1f77b4; stroke-width: 1.5"/>
    <path d="M 315.411477 182.425 
L 334.28125 182.425 
" clip-path="url(#p424a37f1fd)" style="fill: none; stroke: #1f77b4; stroke-width: 1.5"/>
    <path d="M 390.890568 197.9795 
L 409.760341 197.9795 
" clip-path="url(#p424a37f1fd)" style="fill: none; stroke: #1f77b4; stroke-width: 1.5"/>
    <path d="M 466.369659 197.9795 
L 485.239432 197.9795 
" clip-path="url(#p424a37f1fd)" style="fill: none; stroke: #1f77b4; stroke-width: 1.5"/>
    <path d="M 541.84875 260.1975 
L 560.718523 260.1975 
" clip-path="url(#p424a37f1fd)" style="fill: none; stroke: #1f77b4; stroke-width: 1.5"/>
    <path d="M 617.327841 291.3065 
L 636.197614 291.3065 
" clip-path="url(#p424a37f1fd)" style="fill: none; stroke: #1f77b4; stroke-width: 1.5"/>
    <path d="M 692.806932 322.4155 
L 711.676705 322.4155 
" clip-path="url(#p424a37f1fd)" style="fill: none; stroke: #1f77b4; stroke-width: 1.5"/>
    <path d="M 768.286023 322.4155 
L 787.155795 322.4155 
" clip-path="url(#p424a37f1fd)" style="fill: none; stroke: #1f77b4; stroke-width: 1.5"/>
   </g>
   <g id="patch_3">
    <path d="M 22.93 337.97 
L 22.93 26.88 
" style="fill: none; stroke: #000000; stroke-width: 0.8; stroke-linejoin: miter; stroke-linecap: square"/>
   </g>
   <g id="patch_4">
    <path d="M 853.2 337.97 
L 853.2 26.88 
" style="fill: none; stroke: #000000; stroke-width: 0.8; stroke-linejoin: miter; stroke-linecap: square"/>
   </g>
   <g id="patch_5">
    <path d="M 22.93 337.97 
L 853.2 337.97 
" style="fill: none; stroke: #000000; stroke-width: 0.8; stroke-linejoin: miter; stroke-linecap: square"/>
   </g>
   <g id="patch_6">
    <path d="M 22.93 26.88 
L 853.2 26.88 
" style="fill: none; stroke: #000000; stroke-width: 0.8; stroke-linejoin: miter; stroke-linecap: square"/>
   </g>
   <g id="text_16">
    <!-- Wins - turns: 200, repetitions: 20, strategies: 10.  -->
    <g transform="translate(290.180938 20.88)scale(0.12 -0.12)">
     <defs>
      <path id="DejaVuSans-57" d="M 213 4666 
L 850 4666 
L 1831 722 
L 2809 4666 
L 3519 4666 
L 4500 722 
L 5478 4666 
L 6119 4666 
L 4947 0 
L 4153 0 
L 3169 4050 
L 2175 0 
L 1381 0 
L 213 4666 
z
" transform="scale(0.015625)"/>
      <path id="DejaVuSans-2d" d="M 313 2009 
L 1997 2009 
L 1997 1497 
L 313 1497 
L 313 2009 
z
" transform="scale(0.015625)"/>
      <path id="DejaVuSans-2c" d="M 750 794 
L 1409 794 
L 1409 256 
L 897 -744 
L 494 -744 
L 750 256 
L 750 794 
z
" transform="scale(0.015625)"/>
      <path id="DejaVuSans-31" d="M 794 531 
L 1825 531 
L 1825 4091 
L 703 3866 
L 703 4441 
L 1819 4666 
L 2450 4666 
L 2450 531 
L 3481 531 
L 3481 0 
L 794 0 
L 794 531 
z
" transform="scale(0.015625)"/>
     </defs>
     <use xlink:href="#DejaVuSans-57"/>
     <use xlink:href="#DejaVuSans-69" x="96.626953"/>
     <use xlink:href="#DejaVuSans-6e" x="124.410156"/>
     <use xlink:href="#DejaVuSans-73" x="187.789062"/>
     <use xlink:href="#DejaVuSans-20" x="239.888672"/>
     <use xlink:href="#DejaVuSans-2d" x="271.675781"/>
     <use xlink:href="#DejaVuSans-20" x="307.759766"/>
     <use xlink:href="#DejaVuSans-74" x="339.546875"/>
     <use xlink:href="#DejaVuSans-75" x="378.755859"/>
     <use xlink:href="#DejaVuSans-72" x="442.134766"/>
     <use xlink:href="#DejaVuSans-6e" x="481.498047"/>
     <use xlink:href="#DejaVuSans-73" x="544.876953"/>
     <use xlink:href="#DejaVuSans-3a" x="596.976562"/>
     <use xlink:href="#DejaVuSans-20" x="630.667969"/>
     <use xlink:href="#DejaVuSans-32" x="662.455078"/>
     <use xlink:href="#DejaVuSans-30" x="726.078125"/>
     <use xlink:href="#DejaVuSans-30" x="789.701172"/>
     <use xlink:href="#DejaVuSans-2c" x="853.324219"/>
     <use xlink:href="#DejaVuSans-20" x="885.111328"/>
     <use xlink:href="#DejaVuSans-72" x="916.898438"/>
     <use xlink:href="#DejaVuSans-65" x="955.761719"/>
     <use xlink:href="#DejaVuSans-70" x="1017.285156"/>
     <use xlink:href="#DejaVuSans-65" x="1080.761719"/>
     <use xlink:href="#DejaVuSans-74" x="1142.285156"/>
     <use xlink:href="#DejaVuSans-69" x="1181.494141"/>
     <use xlink:href="#DejaVuSans-74" x="1209.277344"/>
     <use xlink:href="#DejaVuSans-69" x="1248.486328"/>
     <use xlink:href="#DejaVuSans-6f" x="1276.269531"/>
     <use xlink:href="#DejaVuSans-6e" x="1337.451172"/>
     <use xlink:href="#DejaVuSans-73" x="1400.830078"/>
     <use xlink:href="#DejaVuSans-3a" x="1452.929688"/>
     <use xlink:href="#DejaVuSans-20" x="1486.621094"/>
     <use xlink:href="#DejaVuSans-32" x="1518.408203"/>
     <use xlink:href="#DejaVuSans-30" x="1582.03125"/>
     <use xlink:href="#DejaVuSans-2c" x="1645.654297"/>
     <use xlink:href="#DejaVuSans-20" x="1677.441406"/>
     <use xlink:href="#DejaVuSans-73" x="1709.228516"/>
     <use xlink:href="#DejaVuSans-74" x="1761.328125"/>
     <use xlink:href="#DejaVuSans-72" x="1800.537109"/>
     <use xlink:href="#DejaVuSans-61" x="1841.650391"/>
     <use xlink:href="#DejaVuSans-74" x="1902.929688"/>
     <use xlink:href="#DejaVuSans-65" x="1942.138672"/>
     <use xlink:href="#DejaVuSans-67" x="2003.662109"/>
     <use xlink:href="#DejaVuSans-69" x="2067.138672"/>
     <use xlink:href="#DejaVuSans-65" x="2094.921875"/>
     <use xlink:href="#DejaVuSans-73" x="2156.445312"/>
     <use xlink:href="#DejaVuSans-3a" x="2208.544922"/>
     <use xlink:href="#DejaVuSans-20" x="2242.236328"/>
     <use xlink:href="#DejaVuSans-31" x="2274.023438"/>
     <use xlink:href="#DejaVuSans-30" x="2337.646484"/>
     <use xlink:href="#DejaVuSans-2e" x="2401.269531"/>
     <use xlink:href="#DejaVuSans-20" x="2433.056641"/>
    </g>
   </g>
  </g>
 </g>
 <defs>
  <clipPath id="p424a37f1fd">
   <rect x="22.93" y="26.88" width="830.27" height="311.09"/>
  </clipPath>
 </defs>
</svg>
