<?xml version="1.0" encoding="utf-8" standalone="no"?>
<!DOCTYPE svg PUBLIC "-//W3C//DTD SVG 1.1//EN"
  "http://www.w3.org/Graphics/SVG/1.1/DTD/svg11.dtd">
<svg xmlns:xlink="http://www.w3.org/1999/xlink" width="864pt" height="432pt" viewBox="0 0 864 432" xmlns="http://www.w3.org/2000/svg" version="1.1">
 <metadata>
  <rdf:RDF xmlns:dc="http://purl.org/dc/elements/1.1/" xmlns:cc="http://creativecommons.org/ns#" xmlns:rdf="http://www.w3.org/1999/02/22-rdf-syntax-ns#">
   <cc:Work>
    <dc:type rdf:resource="http://purl.org/dc/dcmitype/StillImage"/>
    <dc:date>2022-09-19T20:24:49.798287</dc:date>
    <dc:format>image/svg+xml</dc:format>
    <dc:creator>
     <cc:Agent>
      <dc:title>Matplotlib v3.5.1, https://matplotlib.org/</dc:title>
     </cc:Agent>
    </dc:creator>
   </cc:Work>
  </rdf:RDF>
 </metadata>
 <defs>
  <style type="text/css">*{stroke-linejoin: round; stroke-linecap: butt}</style>
 </defs>
 <g id="figure_1">
  <g id="patch_1">
   <path d="M 0 432 
L 864 432 
L 864 0 
L 0 0 
z
" style="fill: #ffffff"/>
  </g>
  <g id="axes_1">
   <g id="patch_2">
    <path d="M 22.93 337.97 
L 853.2 337.97 
L 853.2 26.88 
L 22.93 26.88 
z
" style="fill: #ffffff"/>
   </g>
   <g id="PolyCollection_1">
    <path d="M 117.278864 42.4345 
L 79.539318 42.4345 
L 79.539318 42.4345 
L 79.539318 42.4345 
L 79.539318 42.4345 
L 79.539318 42.4345 
L 79.539318 42.4345 
L 79.539318 42.4345 
L 79.539318 42.4345 
L 79.539318 42.4345 
L 79.539318 42.4345 
L 79.539318 42.4345 
L 79.539318 42.4345 
L 79.539318 42.4345 
L 79.539318 42.4345 
L 79.539318 42.4345 
L 79.539318 42.4345 
L 79.539318 42.4345 
L 79.539318 42.4345 
L 79.539318 42.4345 
L 79.539318 42.4345 
L 79.539318 42.4345 
L 79.539318 42.4345 
L 79.539318 42.4345 
L 79.539318 42.4345 
L 79.539318 42.4345 
L 79.539318 42.4345 
L 79.539318 42.4345 
L 79.539318 42.4345 
L 79.539318 42.4345 
L 79.539318 42.4345 
L 79.539318 42.4345 
L 79.539318 42.4345 
L 79.539318 42.4345 
L 79.539318 42.4345 
L 79.539318 42.4345 
L 79.539318 42.4345 
L 79.539318 42.4345 
L 79.539318 42.4345 
L 79.539318 42.4345 
L 79.539318 42.4345 
L 79.539318 42.4345 
L 79.539318 42.4345 
L 79.539318 42.4345 
L 79.539318 42.4345 
L 79.539318 42.4345 
L 79.539318 42.4345 
L 79.539318 42.4345 
L 79.539318 42.4345 
L 79.539318 42.4345 
L 79.539318 42.4345 
L 79.539318 42.4345 
L 79.539318 42.4345 
L 79.539318 42.4345 
L 79.539318 42.4345 
L 79.539318 42.4345 
L 79.539318 42.4345 
L 79.539318 42.4345 
L 79.539318 42.4345 
L 79.539318 42.4345 
L 79.539318 42.4345 
L 79.539318 42.4345 
L 79.539318 42.4345 
L 79.539318 42.4345 
L 79.539318 42.4345 
L 79.539318 42.4345 
L 79.539318 42.4345 
L 79.539318 42.4345 
L 79.539318 42.4345 
L 79.539318 42.4345 
L 79.539318 42.4345 
L 79.539318 42.4345 
L 79.539318 42.4345 
L 79.539318 42.4345 
L 79.539318 42.4345 
L 79.539318 42.4345 
L 79.539318 42.4345 
L 79.539318 42.4345 
L 79.539318 42.4345 
L 79.539318 42.4345 
L 79.539318 42.4345 
L 79.539318 42.4345 
L 79.539318 42.4345 
L 79.539318 42.4345 
L 79.539318 42.4345 
L 79.539318 42.4345 
L 79.539318 42.4345 
L 79.539318 42.4345 
L 79.539318 42.4345 
L 79.539318 42.4345 
L 79.539318 42.4345 
L 79.539318 42.4345 
L 79.539318 42.4345 
L 79.539318 42.4345 
L 79.539318 42.4345 
L 79.539318 42.4345 
L 79.539318 42.4345 
L 79.539318 42.4345 
L 79.539318 42.4345 
L 79.539318 42.4345 
L 79.539318 42.4345 
L 117.278864 42.4345 
L 117.278864 42.4345 
L 117.278864 42.4345 
L 117.278864 42.4345 
L 117.278864 42.4345 
L 117.278864 42.4345 
L 117.278864 42.4345 
L 117.278864 42.4345 
L 117.278864 42.4345 
L 117.278864 42.4345 
L 117.278864 42.4345 
L 117.278864 42.4345 
L 117.278864 42.4345 
L 117.278864 42.4345 
L 117.278864 42.4345 
L 117.278864 42.4345 
L 117.278864 42.4345 
L 117.278864 42.4345 
L 117.278864 42.4345 
L 117.278864 42.4345 
L 117.278864 42.4345 
L 117.278864 42.4345 
L 117.278864 42.4345 
L 117.278864 42.4345 
L 117.278864 42.4345 
L 117.278864 42.4345 
L 117.278864 42.4345 
L 117.278864 42.4345 
L 117.278864 42.4345 
L 117.278864 42.4345 
L 117.278864 42.4345 
L 117.278864 42.4345 
L 117.278864 42.4345 
L 117.278864 42.4345 
L 117.278864 42.4345 
L 117.278864 42.4345 
L 117.278864 42.4345 
L 117.278864 42.4345 
L 117.278864 42.4345 
L 117.278864 42.4345 
L 117.278864 42.4345 
L 117.278864 42.4345 
L 117.278864 42.4345 
L 117.278864 42.4345 
L 117.278864 42.4345 
L 117.278864 42.4345 
L 117.278864 42.4345 
L 117.278864 42.4345 
L 117.278864 42.4345 
L 117.278864 42.4345 
L 117.278864 42.4345 
L 117.278864 42.4345 
L 117.278864 42.4345 
L 117.278864 42.4345 
L 117.278864 42.4345 
L 117.278864 42.4345 
L 117.278864 42.4345 
L 117.278864 42.4345 
L 117.278864 42.4345 
L 117.278864 42.4345 
L 117.278864 42.4345 
L 117.278864 42.4345 
L 117.278864 42.4345 
L 117.278864 42.4345 
L 117.278864 42.4345 
L 117.278864 42.4345 
L 117.278864 42.4345 
L 117.278864 42.4345 
L 117.278864 42.4345 
L 117.278864 42.4345 
L 117.278864 42.4345 
L 117.278864 42.4345 
L 117.278864 42.4345 
L 117.278864 42.4345 
L 117.278864 42.4345 
L 117.278864 42.4345 
L 117.278864 42.4345 
L 117.278864 42.4345 
L 117.278864 42.4345 
L 117.278864 42.4345 
L 117.278864 42.4345 
L 117.278864 42.4345 
L 117.278864 42.4345 
L 117.278864 42.4345 
L 117.278864 42.4345 
L 117.278864 42.4345 
L 117.278864 42.4345 
L 117.278864 42.4345 
L 117.278864 42.4345 
L 117.278864 42.4345 
L 117.278864 42.4345 
L 117.278864 42.4345 
L 117.278864 42.4345 
L 117.278864 42.4345 
L 117.278864 42.4345 
L 117.278864 42.4345 
L 117.278864 42.4345 
L 117.278864 42.4345 
L 117.278864 42.4345 
L 117.278864 42.4345 
L 117.278864 42.4345 
z
" clip-path="url(#pd1e47d2d99)" style="fill: #1f77b4; fill-opacity: 0.3"/>
   </g>
   <g id="PolyCollection_2">
    <path d="M 174.471783 166.8705 
L 173.304581 166.8705 
L 173.310937 166.556268 
L 173.329592 166.242035 
L 173.359355 165.927803 
L 173.398377 165.613571 
L 173.444348 165.299338 
L 173.494717 164.985106 
L 173.546926 164.670874 
L 173.598619 164.356641 
L 173.647804 164.042409 
L 173.692958 163.728177 
L 173.733064 163.413944 
L 173.767601 163.099712 
L 173.796479 162.78548 
L 173.819952 162.471247 
L 173.838516 162.157015 
L 173.852813 161.842783 
L 173.863539 161.528551 
L 173.871385 161.214318 
L 173.876981 160.900086 
L 173.880874 160.585854 
L 173.883517 160.271621 
L 173.885269 159.957389 
L 173.886402 159.643157 
L 173.887118 159.328924 
L 173.88756 159.014692 
L 173.887826 158.70046 
L 173.887983 158.386227 
L 173.888073 158.071995 
L 173.888123 157.757763 
L 173.888151 157.44353 
L 173.888166 157.129298 
L 173.888174 156.815066 
L 173.888178 156.500833 
L 173.88818 156.186601 
L 173.888181 155.872369 
L 173.888181 155.558136 
L 173.888182 155.243904 
L 173.888182 154.929672 
L 173.888182 154.615439 
L 173.888182 154.301207 
L 173.888182 153.986975 
L 173.888182 153.672742 
L 173.888182 153.35851 
L 173.888182 153.044278 
L 173.888182 152.730045 
L 173.888182 152.415813 
L 173.888182 152.101581 
L 173.888182 151.787348 
L 173.888182 151.473116 
L 173.888182 151.158884 
L 173.888182 150.844652 
L 173.888182 150.530419 
L 173.888182 150.216187 
L 173.888182 149.901955 
L 173.888182 149.587722 
L 173.888182 149.27349 
L 173.888182 148.959258 
L 173.888182 148.645025 
L 173.888181 148.330793 
L 173.888181 148.016561 
L 173.888179 147.702328 
L 173.888176 147.388096 
L 173.888169 147.073864 
L 173.888154 146.759631 
L 173.888122 146.445399 
L 173.888057 146.131167 
L 173.887927 145.816934 
L 173.887674 145.502702 
L 173.887192 145.18847 
L 173.886293 144.874237 
L 173.884657 144.560005 
L 173.881744 144.245773 
L 173.876678 143.93154 
L 173.868074 143.617308 
L 173.853794 143.303076 
L 173.830647 142.988843 
L 173.794005 142.674611 
L 173.737366 142.360379 
L 173.651897 142.046146 
L 173.526012 141.731914 
L 173.345084 141.417682 
L 173.091413 141.103449 
L 172.74458 140.789217 
L 172.28233 140.474985 
L 171.682086 140.160753 
L 170.923134 139.84652 
L 169.989413 139.532288 
L 168.872714 139.218056 
L 167.575936 138.903823 
L 166.11597 138.589591 
L 164.525642 138.275359 
L 162.85423 137.961126 
L 161.166139 137.646894 
L 159.537552 137.332662 
L 158.051163 137.018429 
L 156.789438 136.704197 
L 155.827117 136.389965 
L 155.223919 136.075732 
L 155.018409 135.7615 
L 192.757955 135.7615 
L 192.757955 135.7615 
L 192.552445 136.075732 
L 191.949247 136.389965 
L 190.986926 136.704197 
L 189.7252 137.018429 
L 188.238812 137.332662 
L 186.610225 137.646894 
L 184.922134 137.961126 
L 183.250722 138.275359 
L 181.660393 138.589591 
L 180.200427 138.903823 
L 178.90365 139.218056 
L 177.78695 139.532288 
L 176.85323 139.84652 
L 176.094278 140.160753 
L 175.494033 140.474985 
L 175.031783 140.789217 
L 174.684951 141.103449 
L 174.43128 141.417682 
L 174.250352 141.731914 
L 174.124466 142.046146 
L 174.038998 142.360379 
L 173.982359 142.674611 
L 173.945717 142.988843 
L 173.92257 143.303076 
L 173.90829 143.617308 
L 173.899685 143.93154 
L 173.89462 144.245773 
L 173.891707 144.560005 
L 173.89007 144.874237 
L 173.889172 145.18847 
L 173.888689 145.502702 
L 173.888436 145.816934 
L 173.888307 146.131167 
L 173.888242 146.445399 
L 173.88821 146.759631 
L 173.888195 147.073864 
L 173.888188 147.388096 
L 173.888184 147.702328 
L 173.888183 148.016561 
L 173.888182 148.330793 
L 173.888182 148.645025 
L 173.888182 148.959258 
L 173.888182 149.27349 
L 173.888182 149.587722 
L 173.888182 149.901955 
L 173.888182 150.216187 
L 173.888182 150.530419 
L 173.888182 150.844652 
L 173.888182 151.158884 
L 173.888182 151.473116 
L 173.888182 151.787348 
L 173.888182 152.101581 
L 173.888182 152.415813 
L 173.888182 152.730045 
L 173.888182 153.044278 
L 173.888182 153.35851 
L 173.888182 153.672742 
L 173.888182 153.986975 
L 173.888182 154.301207 
L 173.888182 154.615439 
L 173.888182 154.929672 
L 173.888182 155.243904 
L 173.888182 155.558136 
L 173.888183 155.872369 
L 173.888184 156.186601 
L 173.888186 156.500833 
L 173.88819 156.815066 
L 173.888198 157.129298 
L 173.888212 157.44353 
L 173.88824 157.757763 
L 173.888291 158.071995 
L 173.888381 158.386227 
L 173.888538 158.70046 
L 173.888804 159.014692 
L 173.889245 159.328924 
L 173.889961 159.643157 
L 173.891095 159.957389 
L 173.892846 160.271621 
L 173.89549 160.585854 
L 173.899383 160.900086 
L 173.904979 161.214318 
L 173.912824 161.528551 
L 173.923551 161.842783 
L 173.937847 162.157015 
L 173.956412 162.471247 
L 173.979884 162.78548 
L 174.008762 163.099712 
L 174.043299 163.413944 
L 174.083406 163.728177 
L 174.128559 164.042409 
L 174.177745 164.356641 
L 174.229438 164.670874 
L 174.281647 164.985106 
L 174.332016 165.299338 
L 174.377987 165.613571 
L 174.417009 165.927803 
L 174.446771 166.242035 
L 174.465427 166.556268 
L 174.471783 166.8705 
z
" clip-path="url(#pd1e47d2d99)" style="fill: #1f77b4; fill-opacity: 0.3"/>
   </g>
   <g id="PolyCollection_3">
    <path d="M 251.634547 197.9795 
L 247.099998 197.9795 
L 247.106521 197.351035 
L 247.128106 196.722571 
L 247.164102 196.094106 
L 247.213502 195.465641 
L 247.274963 194.837177 
L 247.346824 194.208712 
L 247.427136 193.580247 
L 247.513689 192.951783 
L 247.604048 192.323318 
L 247.69558 191.694854 
L 247.785484 191.066389 
L 247.870814 190.437924 
L 247.948501 189.80946 
L 248.015366 189.180995 
L 248.068135 188.55253 
L 248.103442 187.924066 
L 248.117838 187.295601 
L 248.107804 186.667136 
L 248.069756 186.038672 
L 248.000074 185.410207 
L 247.895125 184.781742 
L 247.751314 184.153278 
L 247.56514 183.524813 
L 247.333276 182.896348 
L 247.052665 182.267884 
L 246.720634 181.639419 
L 246.335025 181.010955 
L 245.894333 180.38249 
L 245.397863 179.754025 
L 244.845875 179.125561 
L 244.23973 178.497096 
L 243.582021 177.868631 
L 242.87668 177.240167 
L 242.129049 176.611702 
L 241.345914 175.983237 
L 240.53549 175.354773 
L 239.70735 174.726308 
L 238.872299 174.097843 
L 238.042192 173.469379 
L 237.229691 172.840914 
L 236.447976 172.212449 
L 235.710416 171.583985 
L 235.030201 170.95552 
L 234.419967 170.327056 
L 233.891413 169.698591 
L 233.454933 169.070126 
L 233.119276 168.441662 
L 232.891257 167.813197 
L 232.775522 167.184732 
L 232.774382 166.556268 
L 232.887724 165.927803 
L 233.113007 165.299338 
L 233.445331 164.670874 
L 233.877588 164.042409 
L 234.400682 163.413944 
L 235.003799 162.78548 
L 235.674727 162.157015 
L 236.400204 161.528551 
L 237.166278 160.900086 
L 237.958661 160.271621 
L 238.76307 159.643157 
L 239.565532 159.014692 
L 240.352654 158.386227 
L 241.111841 157.757763 
L 241.831464 157.129298 
L 242.500978 156.500833 
L 243.110987 155.872369 
L 243.653271 155.243904 
L 244.12077 154.615439 
L 244.507553 153.986975 
L 244.808756 153.35851 
L 245.020533 152.730045 
L 245.139993 152.101581 
L 245.165164 151.473116 
L 245.094971 150.844652 
L 244.929236 150.216187 
L 244.668707 149.587722 
L 244.315108 148.959258 
L 243.871213 148.330793 
L 243.340926 147.702328 
L 242.729374 147.073864 
L 242.042989 146.445399 
L 241.289572 145.816934 
L 240.478334 145.18847 
L 239.619891 144.560005 
L 238.726218 143.93154 
L 237.810538 143.303076 
L 236.887162 142.674611 
L 235.971261 142.046146 
L 235.078581 141.417682 
L 234.22511 140.789217 
L 233.426705 140.160753 
L 232.698682 139.532288 
L 232.055406 138.903823 
L 231.509884 138.275359 
L 231.073373 137.646894 
L 230.75504 137.018429 
L 230.56168 136.389965 
L 230.4975 135.7615 
L 268.237045 135.7615 
L 268.237045 135.7615 
L 268.172865 136.389965 
L 267.979505 137.018429 
L 267.661173 137.646894 
L 267.224661 138.275359 
L 266.679139 138.903823 
L 266.035864 139.532288 
L 265.307841 140.160753 
L 264.509435 140.789217 
L 263.655965 141.417682 
L 262.763285 142.046146 
L 261.847383 142.674611 
L 260.924008 143.303076 
L 260.008328 143.93154 
L 259.114654 144.560005 
L 258.256211 145.18847 
L 257.444973 145.816934 
L 256.691556 146.445399 
L 256.005171 147.073864 
L 255.393619 147.702328 
L 254.863333 148.330793 
L 254.419437 148.959258 
L 254.065839 149.587722 
L 253.805309 150.216187 
L 253.639574 150.844652 
L 253.569381 151.473116 
L 253.594553 152.101581 
L 253.714012 152.730045 
L 253.925789 153.35851 
L 254.226993 153.986975 
L 254.613775 154.615439 
L 255.081275 155.243904 
L 255.623558 155.872369 
L 256.233568 156.500833 
L 256.903081 157.129298 
L 257.622705 157.757763 
L 258.381891 158.386227 
L 259.169013 159.014692 
L 259.971475 159.643157 
L 260.775884 160.271621 
L 261.568268 160.900086 
L 262.334341 161.528551 
L 263.059819 162.157015 
L 263.730746 162.78548 
L 264.333863 163.413944 
L 264.856957 164.042409 
L 265.289215 164.670874 
L 265.621539 165.299338 
L 265.846821 165.927803 
L 265.960163 166.556268 
L 265.959023 167.184732 
L 265.843288 167.813197 
L 265.61527 168.441662 
L 265.279613 169.070126 
L 264.843132 169.698591 
L 264.314578 170.327056 
L 263.704345 170.95552 
L 263.02413 171.583985 
L 262.286569 172.212449 
L 261.504855 172.840914 
L 260.692354 173.469379 
L 259.862247 174.097843 
L 259.027196 174.726308 
L 258.199055 175.354773 
L 257.388631 175.983237 
L 256.605496 176.611702 
L 255.857865 177.240167 
L 255.152524 177.868631 
L 254.494816 178.497096 
L 253.888671 179.125561 
L 253.336682 179.754025 
L 252.840212 180.38249 
L 252.399521 181.010955 
L 252.013911 181.639419 
L 251.68188 182.267884 
L 251.401269 182.896348 
L 251.169405 183.524813 
L 250.983231 184.153278 
L 250.83942 184.781742 
L 250.734472 185.410207 
L 250.664789 186.038672 
L 250.626742 186.667136 
L 250.616707 187.295601 
L 250.631104 187.924066 
L 250.66641 188.55253 
L 250.719179 189.180995 
L 250.786045 189.80946 
L 250.863732 190.437924 
L 250.949062 191.066389 
L 251.038965 191.694854 
L 251.130497 192.323318 
L 251.220856 192.951783 
L 251.30741 193.580247 
L 251.387722 194.208712 
L 251.459583 194.837177 
L 251.521044 195.465641 
L 251.570444 196.094106 
L 251.606439 196.722571 
L 251.628025 197.351035 
L 251.634547 197.9795 
z
" clip-path="url(#pd1e47d2d99)" style="fill: #1f77b4; fill-opacity: 0.3"/>
   </g>
   <g id="PolyCollection_4">
    <path d="M 336.713706 197.9795 
L 312.979021 197.9795 
L 312.986336 197.351035 
L 313.041912 196.722571 
L 313.143933 196.094106 
L 313.289804 195.465641 
L 313.476177 194.837177 
L 313.698993 194.208712 
L 313.95355 193.580247 
L 314.234565 192.951783 
L 314.536256 192.323318 
L 314.852439 191.694854 
L 315.176615 191.066389 
L 315.502075 190.437924 
L 315.822007 189.80946 
L 316.129596 189.180995 
L 316.418128 188.55253 
L 316.681098 187.924066 
L 316.912304 187.295601 
L 317.105942 186.667136 
L 317.256697 186.038672 
L 317.359824 185.410207 
L 317.411226 184.781742 
L 317.407521 184.153278 
L 317.346102 183.524813 
L 317.225193 182.896348 
L 317.043887 182.267884 
L 316.802179 181.639419 
L 316.50099 181.010955 
L 316.142178 180.38249 
L 315.728532 179.754025 
L 315.26376 179.125561 
L 314.75246 178.497096 
L 314.200073 177.868631 
L 313.61283 177.240167 
L 312.997671 176.611702 
L 312.362163 175.983237 
L 311.714393 175.354773 
L 311.062851 174.726308 
L 310.416302 174.097843 
L 309.783648 173.469379 
L 309.173779 172.840914 
L 308.595419 172.212449 
L 308.056978 171.583985 
L 307.566392 170.95552 
L 307.130978 170.327056 
L 306.757295 169.698591 
L 306.451016 169.070126 
L 306.216813 168.441662 
L 306.058268 167.813197 
L 305.977794 167.184732 
L 305.976591 166.556268 
L 306.054615 165.927803 
L 306.210582 165.299338 
L 306.441987 164.670874 
L 306.74516 164.042409 
L 307.115331 163.413944 
L 307.546728 162.78548 
L 308.032685 162.157015 
L 308.565773 161.528551 
L 309.137934 160.900086 
L 309.740636 160.271621 
L 310.365018 159.643157 
L 311.002052 159.014692 
L 311.642694 158.386227 
L 312.27803 157.757763 
L 312.89942 157.129298 
L 313.498628 156.500833 
L 314.067943 155.872369 
L 314.600282 155.243904 
L 315.089286 154.615439 
L 315.529397 153.986975 
L 315.915916 153.35851 
L 316.245059 152.730045 
L 316.513985 152.101581 
L 316.720816 151.473116 
L 316.864645 150.844652 
L 316.945527 150.216187 
L 316.964465 149.587722 
L 316.923376 148.959258 
L 316.825053 148.330793 
L 316.673111 147.702328 
L 316.471932 147.073864 
L 316.226593 146.445399 
L 315.942784 145.816934 
L 315.626728 145.18847 
L 315.285085 144.560005 
L 314.924849 143.93154 
L 314.553248 143.303076 
L 314.177628 142.674611 
L 313.805342 142.046146 
L 313.443637 141.417682 
L 313.09954 140.789217 
L 312.779745 140.160753 
L 312.490508 139.532288 
L 312.237547 138.903823 
L 312.025953 138.275359 
L 311.86011 137.646894 
L 311.743631 137.018429 
L 311.679302 136.389965 
L 311.669056 135.7615 
L 338.023671 135.7615 
L 338.023671 135.7615 
L 338.013425 136.389965 
L 337.949097 137.018429 
L 337.832617 137.646894 
L 337.666774 138.275359 
L 337.455181 138.903823 
L 337.20222 139.532288 
L 336.912982 140.160753 
L 336.593187 140.789217 
L 336.24909 141.417682 
L 335.887386 142.046146 
L 335.5151 142.674611 
L 335.139479 143.303076 
L 334.767878 143.93154 
L 334.407643 144.560005 
L 334.065999 145.18847 
L 333.749944 145.816934 
L 333.466135 146.445399 
L 333.220795 147.073864 
L 333.019616 147.702328 
L 332.867675 148.330793 
L 332.769351 148.959258 
L 332.728262 149.587722 
L 332.7472 150.216187 
L 332.828083 150.844652 
L 332.971911 151.473116 
L 333.178742 152.101581 
L 333.447668 152.730045 
L 333.776811 153.35851 
L 334.163331 153.986975 
L 334.603441 154.615439 
L 335.092445 155.243904 
L 335.624784 155.872369 
L 336.194099 156.500833 
L 336.793308 157.129298 
L 337.414698 157.757763 
L 338.050033 158.386227 
L 338.690675 159.014692 
L 339.327709 159.643157 
L 339.952092 160.271621 
L 340.554793 160.900086 
L 341.126954 161.528551 
L 341.660042 162.157015 
L 342.145999 162.78548 
L 342.577396 163.413944 
L 342.947567 164.042409 
L 343.25074 164.670874 
L 343.482146 165.299338 
L 343.638112 165.927803 
L 343.716136 166.556268 
L 343.714933 167.184732 
L 343.63446 167.813197 
L 343.475914 168.441662 
L 343.241712 169.070126 
L 342.935432 169.698591 
L 342.56175 170.327056 
L 342.126336 170.95552 
L 341.635749 171.583985 
L 341.097308 172.212449 
L 340.518948 172.840914 
L 339.909079 173.469379 
L 339.276425 174.097843 
L 338.629876 174.726308 
L 337.978334 175.354773 
L 337.330564 175.983237 
L 336.695056 176.611702 
L 336.079897 177.240167 
L 335.492654 177.868631 
L 334.940267 178.497096 
L 334.428967 179.125561 
L 333.964195 179.754025 
L 333.550549 180.38249 
L 333.191737 181.010955 
L 332.890549 181.639419 
L 332.64884 182.267884 
L 332.467534 182.896348 
L 332.346625 183.524813 
L 332.285207 184.153278 
L 332.281501 184.781742 
L 332.332903 185.410207 
L 332.43603 186.038672 
L 332.586785 186.667136 
L 332.780423 187.295601 
L 333.011629 187.924066 
L 333.274599 188.55253 
L 333.563132 189.180995 
L 333.87072 189.80946 
L 334.190652 190.437924 
L 334.516113 191.066389 
L 334.840288 191.694854 
L 335.156471 192.323318 
L 335.458163 192.951783 
L 335.739177 193.580247 
L 335.993734 194.208712 
L 336.216551 194.837177 
L 336.402923 195.465641 
L 336.548794 196.094106 
L 336.650815 196.722571 
L 336.706391 197.351035 
L 336.713706 197.9795 
z
" clip-path="url(#pd1e47d2d99)" style="fill: #1f77b4; fill-opacity: 0.3"/>
   </g>
   <g id="PolyCollection_5">
    <path d="M 401.56646 260.1975 
L 399.084449 260.1975 
L 398.98529 258.626338 
L 398.871244 257.055177 
L 398.736425 255.484015 
L 398.57462 253.912854 
L 398.379817 252.341692 
L 398.146815 250.77053 
L 397.871871 249.199369 
L 397.553324 247.628207 
L 397.192118 246.057045 
L 396.792149 244.485884 
L 396.360375 242.914722 
L 395.906626 241.343561 
L 395.443092 239.772399 
L 394.983504 238.201237 
L 394.542024 236.630076 
L 394.131959 235.058914 
L 393.764378 233.487753 
L 393.446798 231.916591 
L 393.182066 230.345429 
L 392.96759 228.774268 
L 392.795042 227.203106 
L 392.650611 225.631944 
L 392.515838 224.060783 
L 392.369012 222.489621 
L 392.187027 220.91846 
L 391.94756 219.347298 
L 391.631382 217.776136 
L 391.224561 216.204975 
L 390.720337 214.633813 
L 390.120455 213.062652 
L 389.435756 211.49149 
L 388.685927 209.920328 
L 387.89836 208.349167 
L 387.106174 206.778005 
L 386.345537 205.206843 
L 385.652515 203.635682 
L 385.059741 202.06452 
L 384.593223 200.493359 
L 384.269637 198.922197 
L 384.094388 197.351035 
L 384.060691 195.779874 
L 384.149796 194.208712 
L 384.332385 192.637551 
L 384.571053 191.066389 
L 384.823647 189.495227 
L 385.047176 187.924066 
L 385.201902 186.352904 
L 385.255235 184.781742 
L 385.185035 183.210581 
L 384.981992 181.639419 
L 384.650839 180.068258 
L 384.210257 178.497096 
L 383.691471 176.925934 
L 383.135661 175.354773 
L 382.590412 173.783611 
L 382.105564 172.212449 
L 381.728838 170.641288 
L 381.501675 169.070126 
L 381.455682 167.498965 
L 381.610011 165.927803 
L 381.969924 164.356641 
L 382.526629 162.78548 
L 383.25839 161.214318 
L 384.13274 159.643157 
L 385.109542 158.071995 
L 386.144583 156.500833 
L 387.193302 154.929672 
L 388.214317 153.35851 
L 389.172422 151.787348 
L 390.040814 150.216187 
L 390.802405 148.645025 
L 391.450169 147.073864 
L 391.986582 145.502702 
L 392.422286 143.93154 
L 392.774172 142.360379 
L 393.063125 140.789217 
L 393.311654 139.218056 
L 393.541662 137.646894 
L 393.772525 136.075732 
L 394.019635 134.504571 
L 394.293485 132.933409 
L 394.599326 131.362247 
L 394.937355 129.791086 
L 395.303353 128.219924 
L 395.689658 126.648763 
L 396.086343 125.077601 
L 396.48245 123.506439 
L 396.867165 121.935278 
L 397.230816 120.364116 
L 397.565638 118.792955 
L 397.86625 117.221793 
L 398.129842 115.650631 
L 398.356102 114.07947 
L 398.54692 112.508308 
L 398.705935 110.937146 
L 398.837992 109.365985 
L 398.948568 107.794823 
L 399.043232 106.223662 
L 399.127187 104.6525 
L 401.523722 104.6525 
L 401.523722 104.6525 
L 401.607677 106.223662 
L 401.702341 107.794823 
L 401.812917 109.365985 
L 401.944974 110.937146 
L 402.103989 112.508308 
L 402.294807 114.07947 
L 402.521067 115.650631 
L 402.784659 117.221793 
L 403.085271 118.792955 
L 403.420093 120.364116 
L 403.783744 121.935278 
L 404.168459 123.506439 
L 404.564566 125.077601 
L 404.961251 126.648763 
L 405.347556 128.219924 
L 405.713554 129.791086 
L 406.051583 131.362247 
L 406.357424 132.933409 
L 406.631274 134.504571 
L 406.878384 136.075732 
L 407.109247 137.646894 
L 407.339255 139.218056 
L 407.587784 140.789217 
L 407.876737 142.360379 
L 408.228623 143.93154 
L 408.664327 145.502702 
L 409.20074 147.073864 
L 409.848504 148.645025 
L 410.610095 150.216187 
L 411.478487 151.787348 
L 412.436592 153.35851 
L 413.457607 154.929672 
L 414.506326 156.500833 
L 415.541367 158.071995 
L 416.518169 159.643157 
L 417.392519 161.214318 
L 418.12428 162.78548 
L 418.680985 164.356641 
L 419.040898 165.927803 
L 419.195227 167.498965 
L 419.149234 169.070126 
L 418.922071 170.641288 
L 418.545345 172.212449 
L 418.060497 173.783611 
L 417.515248 175.354773 
L 416.959438 176.925934 
L 416.440653 178.497096 
L 416.00007 180.068258 
L 415.668917 181.639419 
L 415.465874 183.210581 
L 415.395674 184.781742 
L 415.449007 186.352904 
L 415.603733 187.924066 
L 415.827262 189.495227 
L 416.079856 191.066389 
L 416.318524 192.637551 
L 416.501113 194.208712 
L 416.590218 195.779874 
L 416.556521 197.351035 
L 416.381272 198.922197 
L 416.057686 200.493359 
L 415.591168 202.06452 
L 414.998394 203.635682 
L 414.305372 205.206843 
L 413.544735 206.778005 
L 412.752549 208.349167 
L 411.964982 209.920328 
L 411.215153 211.49149 
L 410.530454 213.062652 
L 409.930572 214.633813 
L 409.426349 216.204975 
L 409.019527 217.776136 
L 408.703349 219.347298 
L 408.463882 220.91846 
L 408.281897 222.489621 
L 408.135071 224.060783 
L 408.000299 225.631944 
L 407.855867 227.203106 
L 407.68332 228.774268 
L 407.468843 230.345429 
L 407.204111 231.916591 
L 406.886531 233.487753 
L 406.51895 235.058914 
L 406.108885 236.630076 
L 405.667405 238.201237 
L 405.207817 239.772399 
L 404.744284 241.343561 
L 404.290534 242.914722 
L 403.85876 244.485884 
L 403.458791 246.057045 
L 403.097585 247.628207 
L 402.779038 249.199369 
L 402.504094 250.77053 
L 402.271092 252.341692 
L 402.076289 253.912854 
L 401.914484 255.484015 
L 401.779665 257.055177 
L 401.665619 258.626338 
L 401.56646 260.1975 
z
" clip-path="url(#pd1e47d2d99)" style="fill: #1f77b4; fill-opacity: 0.3"/>
   </g>
   <g id="PolyCollection_6">
    <path d="M 481.401614 229.0885 
L 470.207477 229.0885 
L 470.157489 227.831571 
L 470.152546 226.574641 
L 470.178898 225.317712 
L 470.218517 224.060783 
L 470.249826 222.803854 
L 470.248748 221.546924 
L 470.190018 220.289995 
L 470.04871 219.033066 
L 469.801888 217.776136 
L 469.430311 216.519207 
L 468.920077 215.262278 
L 468.264107 214.005348 
L 467.463341 212.748419 
L 466.527547 211.49149 
L 465.475622 210.234561 
L 464.335313 208.977631 
L 463.142301 207.720702 
L 461.938649 206.463773 
L 460.770653 205.206843 
L 459.686214 203.949914 
L 458.731896 202.692985 
L 457.949866 201.436056 
L 457.374976 200.179126 
L 457.032217 198.922197 
L 456.934773 197.665268 
L 457.082854 196.408338 
L 457.463425 195.151409 
L 458.050857 193.89448 
L 458.808466 192.637551 
L 459.690803 191.380621 
L 460.646527 190.123692 
L 461.621621 188.866763 
L 462.56273 187.609833 
L 463.420377 186.352904 
L 464.151843 185.095975 
L 464.723562 183.839045 
L 465.112877 182.582116 
L 465.30911 181.325187 
L 465.313883 180.068258 
L 465.140721 178.811328 
L 464.813968 177.554399 
L 464.367089 176.29747 
L 463.840463 175.04054 
L 463.278805 173.783611 
L 462.728356 172.526682 
L 462.234022 171.269753 
L 461.83664 170.012823 
L 461.570548 168.755894 
L 461.461635 167.498965 
L 461.525986 166.242035 
L 461.769233 164.985106 
L 462.186625 163.728177 
L 462.76381 162.471247 
L 463.478231 161.214318 
L 464.301004 159.957389 
L 465.199118 158.70046 
L 466.13775 157.44353 
L 467.082533 156.186601 
L 468.001588 154.929672 
L 468.867213 153.672742 
L 469.65712 152.415813 
L 470.355201 151.158884 
L 470.951802 149.901955 
L 471.443571 148.645025 
L 471.832923 147.388096 
L 472.127221 146.131167 
L 472.33776 144.874237 
L 472.478639 143.617308 
L 472.5656 142.360379 
L 472.61492 141.103449 
L 472.642391 139.84652 
L 472.662457 138.589591 
L 472.687522 137.332662 
L 472.727459 136.075732 
L 472.78933 134.818803 
L 472.877305 133.561874 
L 472.992776 132.304944 
L 473.134624 131.048015 
L 473.299633 129.791086 
L 473.482981 128.534157 
L 473.678781 127.277227 
L 473.880634 126.020298 
L 474.082134 124.763369 
L 474.277316 123.506439 
L 474.461011 122.24951 
L 474.629095 120.992581 
L 474.778631 119.735652 
L 474.907915 118.478722 
L 475.016425 117.221793 
L 475.1047 115.964864 
L 475.174176 114.707934 
L 475.226976 113.451005 
L 475.265696 112.194076 
L 475.293193 110.937146 
L 475.312378 109.680217 
L 475.326053 108.423288 
L 475.33676 107.166359 
L 475.346676 105.909429 
L 475.357546 104.6525 
L 476.251545 104.6525 
L 476.251545 104.6525 
L 476.262415 105.909429 
L 476.272331 107.166359 
L 476.283038 108.423288 
L 476.296713 109.680217 
L 476.315898 110.937146 
L 476.343394 112.194076 
L 476.382115 113.451005 
L 476.434915 114.707934 
L 476.504391 115.964864 
L 476.592666 117.221793 
L 476.701175 118.478722 
L 476.830459 119.735652 
L 476.979996 120.992581 
L 477.14808 122.24951 
L 477.331775 123.506439 
L 477.526957 124.763369 
L 477.728457 126.020298 
L 477.930309 127.277227 
L 478.12611 128.534157 
L 478.309458 129.791086 
L 478.474467 131.048015 
L 478.616315 132.304944 
L 478.731785 133.561874 
L 478.819761 134.818803 
L 478.881632 136.075732 
L 478.921569 137.332662 
L 478.946634 138.589591 
L 478.9667 139.84652 
L 478.994171 141.103449 
L 479.043491 142.360379 
L 479.130452 143.617308 
L 479.271331 144.874237 
L 479.48187 146.131167 
L 479.776168 147.388096 
L 480.16552 148.645025 
L 480.657289 149.901955 
L 481.25389 151.158884 
L 481.951971 152.415813 
L 482.741878 153.672742 
L 483.607503 154.929672 
L 484.526558 156.186601 
L 485.47134 157.44353 
L 486.409973 158.70046 
L 487.308087 159.957389 
L 488.13086 161.214318 
L 488.845281 162.471247 
L 489.422466 163.728177 
L 489.839858 164.985106 
L 490.083104 166.242035 
L 490.147456 167.498965 
L 490.038542 168.755894 
L 489.772451 170.012823 
L 489.375069 171.269753 
L 488.880735 172.526682 
L 488.330286 173.783611 
L 487.768628 175.04054 
L 487.242002 176.29747 
L 486.795123 177.554399 
L 486.46837 178.811328 
L 486.295208 180.068258 
L 486.299981 181.325187 
L 486.496213 182.582116 
L 486.885529 183.839045 
L 487.457248 185.095975 
L 488.188714 186.352904 
L 489.046361 187.609833 
L 489.98747 188.866763 
L 490.962564 190.123692 
L 491.918287 191.380621 
L 492.800625 192.637551 
L 493.558234 193.89448 
L 494.145666 195.151409 
L 494.526237 196.408338 
L 494.674318 197.665268 
L 494.576874 198.922197 
L 494.234115 200.179126 
L 493.659225 201.436056 
L 492.877195 202.692985 
L 491.922877 203.949914 
L 490.838438 205.206843 
L 489.670442 206.463773 
L 488.46679 207.720702 
L 487.273778 208.977631 
L 486.133469 210.234561 
L 485.081543 211.49149 
L 484.14575 212.748419 
L 483.344984 214.005348 
L 482.689014 215.262278 
L 482.17878 216.519207 
L 481.807203 217.776136 
L 481.560381 219.033066 
L 481.419073 220.289995 
L 481.360343 221.546924 
L 481.359265 222.803854 
L 481.390574 224.060783 
L 481.430193 225.317712 
L 481.456545 226.574641 
L 481.451601 227.831571 
L 481.401614 229.0885 
z
" clip-path="url(#pd1e47d2d99)" style="fill: #1f77b4; fill-opacity: 0.3"/>
   </g>
   <g id="PolyCollection_7">
    <path d="M 570.153409 291.3065 
L 532.413864 291.3065 
L 532.482109 290.363803 
L 532.72845 289.421106 
L 533.141844 288.478409 
L 533.705538 287.535712 
L 534.397693 286.593015 
L 535.192237 285.650318 
L 536.059877 284.707621 
L 536.969228 283.764924 
L 537.887997 282.822227 
L 538.784162 281.87953 
L 539.627093 280.936833 
L 540.388577 279.994136 
L 541.043724 279.051439 
L 541.571716 278.108742 
L 541.956404 277.166045 
L 542.186741 276.223348 
L 542.257056 275.280652 
L 542.167171 274.337955 
L 541.922365 273.395258 
L 541.533189 272.452561 
L 541.015132 271.509864 
L 540.388149 270.567167 
L 539.676033 269.62447 
L 538.905665 268.681773 
L 538.106131 267.739076 
L 537.307735 266.796379 
L 536.54094 265.853682 
L 535.835261 264.910985 
L 535.218166 263.968288 
L 534.714033 263.025591 
L 534.343211 262.082894 
L 534.121238 261.140197 
L 534.058268 260.1975 
L 534.158724 259.254803 
L 534.42122 258.312106 
L 534.838741 257.369409 
L 535.399074 256.426712 
L 536.085469 255.484015 
L 536.877476 254.541318 
L 537.751921 253.598621 
L 538.683947 252.655924 
L 539.648081 251.713227 
L 540.619246 250.77053 
L 541.573697 249.827833 
L 542.489811 248.885136 
L 543.348737 247.942439 
L 544.134862 246.999742 
L 544.836106 246.057045 
L 545.44406 245.114348 
L 545.953956 244.171652 
L 546.36453 243.228955 
L 546.677756 242.286258 
L 546.89852 241.343561 
L 547.034216 240.400864 
L 547.094321 239.458167 
L 547.089928 238.51547 
L 547.033286 237.572773 
L 546.937331 236.630076 
L 546.815233 235.687379 
L 546.679959 234.744682 
L 546.543863 233.801985 
L 546.418319 232.859288 
L 546.313387 231.916591 
L 546.237547 230.973894 
L 546.19749 230.031197 
L 546.197978 229.0885 
L 546.241791 228.145803 
L 546.32974 227.203106 
L 546.460769 226.260409 
L 546.632119 225.317712 
L 546.839564 224.375015 
L 547.077684 223.432318 
L 547.340181 222.489621 
L 547.620206 221.546924 
L 547.910688 220.604227 
L 548.204637 219.66153 
L 548.495427 218.718833 
L 548.777026 217.776136 
L 549.044181 216.833439 
L 549.292547 215.890742 
L 549.518763 214.948045 
L 549.720477 214.005348 
L 549.896326 213.062652 
L 550.045878 212.119955 
L 550.169545 211.177258 
L 550.268477 210.234561 
L 550.34444 209.291864 
L 550.399687 208.349167 
L 550.436836 207.40647 
L 550.458742 206.463773 
L 550.468382 205.521076 
L 550.46875 204.578379 
L 550.46276 203.635682 
L 550.453161 202.692985 
L 550.442467 201.750288 
L 550.432901 200.807591 
L 550.426344 199.864894 
L 550.424311 198.922197 
L 550.42793 197.9795 
L 552.139343 197.9795 
L 552.139343 197.9795 
L 552.142962 198.922197 
L 552.140929 199.864894 
L 552.134372 200.807591 
L 552.124806 201.750288 
L 552.114112 202.692985 
L 552.104513 203.635682 
L 552.098522 204.578379 
L 552.09889 205.521076 
L 552.108531 206.463773 
L 552.130436 207.40647 
L 552.167585 208.349167 
L 552.222833 209.291864 
L 552.298795 210.234561 
L 552.397728 211.177258 
L 552.521395 212.119955 
L 552.670947 213.062652 
L 552.846795 214.005348 
L 553.04851 214.948045 
L 553.274726 215.890742 
L 553.523092 216.833439 
L 553.790247 217.776136 
L 554.071846 218.718833 
L 554.362636 219.66153 
L 554.656585 220.604227 
L 554.947067 221.546924 
L 555.227092 222.489621 
L 555.489589 223.432318 
L 555.727709 224.375015 
L 555.935153 225.317712 
L 556.106504 226.260409 
L 556.237533 227.203106 
L 556.325482 228.145803 
L 556.369294 229.0885 
L 556.369783 230.031197 
L 556.329725 230.973894 
L 556.253886 231.916591 
L 556.148954 232.859288 
L 556.023409 233.801985 
L 555.887314 234.744682 
L 555.75204 235.687379 
L 555.629942 236.630076 
L 555.533987 237.572773 
L 555.477345 238.51547 
L 555.472952 239.458167 
L 555.533056 240.400864 
L 555.668753 241.343561 
L 555.889516 242.286258 
L 556.202743 243.228955 
L 556.613316 244.171652 
L 557.123213 245.114348 
L 557.731166 246.057045 
L 558.432411 246.999742 
L 559.218535 247.942439 
L 560.077462 248.885136 
L 560.993576 249.827833 
L 561.948026 250.77053 
L 562.919192 251.713227 
L 563.883325 252.655924 
L 564.815352 253.598621 
L 565.689796 254.541318 
L 566.481804 255.484015 
L 567.168199 256.426712 
L 567.728532 257.369409 
L 568.146053 258.312106 
L 568.408549 259.254803 
L 568.509005 260.1975 
L 568.446034 261.140197 
L 568.224062 262.082894 
L 567.85324 263.025591 
L 567.349107 263.968288 
L 566.732012 264.910985 
L 566.026333 265.853682 
L 565.259538 266.796379 
L 564.461142 267.739076 
L 563.661608 268.681773 
L 562.89124 269.62447 
L 562.179124 270.567167 
L 561.55214 271.509864 
L 561.034084 272.452561 
L 560.644908 273.395258 
L 560.400101 274.337955 
L 560.310217 275.280652 
L 560.380532 276.223348 
L 560.610869 277.166045 
L 560.995557 278.108742 
L 561.523549 279.051439 
L 562.178696 279.994136 
L 562.94018 280.936833 
L 563.78311 281.87953 
L 564.679275 282.822227 
L 565.598045 283.764924 
L 566.507396 284.707621 
L 567.375035 285.650318 
L 568.16958 286.593015 
L 568.861735 287.535712 
L 569.425428 288.478409 
L 569.838822 289.421106 
L 570.085164 290.363803 
L 570.153409 291.3065 
z
" clip-path="url(#pd1e47d2d99)" style="fill: #1f77b4; fill-opacity: 0.3"/>
   </g>
   <g id="PolyCollection_8">
    <path d="M 644.10724 291.3065 
L 609.418215 291.3065 
L 609.478587 290.678035 
L 609.66046 290.049571 
L 609.959775 289.421106 
L 610.36998 288.792641 
L 610.882239 288.164177 
L 611.485711 287.535712 
L 612.167885 286.907247 
L 612.914952 286.278783 
L 613.712204 285.650318 
L 614.544434 285.021854 
L 615.396322 284.393389 
L 616.252791 283.764924 
L 617.099325 283.13646 
L 617.922225 282.507995 
L 618.70882 281.87953 
L 619.447611 281.251066 
L 620.128354 280.622601 
L 620.742096 279.994136 
L 621.281165 279.365672 
L 621.739122 278.737207 
L 622.11069 278.108742 
L 622.391677 277.480278 
L 622.578892 276.851813 
L 622.670077 276.223348 
L 622.66386 275.594884 
L 622.55973 274.966419 
L 622.358043 274.337955 
L 622.060063 273.70949 
L 621.668027 273.081025 
L 621.185226 272.452561 
L 620.616113 271.824096 
L 619.966397 271.195631 
L 619.243144 270.567167 
L 618.454843 269.938702 
L 617.611443 269.310237 
L 616.724347 268.681773 
L 615.806338 268.053308 
L 614.871461 267.424843 
L 613.934821 266.796379 
L 613.012325 266.167914 
L 612.120367 265.539449 
L 611.275448 264.910985 
L 610.493773 264.28252 
L 609.790808 263.654056 
L 609.180847 263.025591 
L 608.676579 262.397126 
L 608.2887 261.768662 
L 608.025572 261.140197 
L 607.892955 260.511732 
L 607.893818 259.883268 
L 608.028251 259.254803 
L 608.293469 258.626338 
L 608.683917 257.997874 
L 609.191469 257.369409 
L 609.805715 256.740944 
L 610.51431 256.11248 
L 611.303392 255.484015 
L 612.158018 254.855551 
L 613.062631 254.227086 
L 614.001514 253.598621 
L 614.959225 252.970157 
L 615.920991 252.341692 
L 616.873053 251.713227 
L 617.802941 251.084763 
L 618.699691 250.456298 
L 619.553981 249.827833 
L 620.358205 249.199369 
L 621.106477 248.570904 
L 621.794582 247.942439 
L 622.419873 247.313975 
L 622.981134 246.68551 
L 623.478418 246.057045 
L 623.912864 245.428581 
L 624.28651 244.800116 
L 624.602113 244.171652 
L 624.862975 243.543187 
L 625.07279 242.914722 
L 625.23551 242.286258 
L 625.355229 241.657793 
L 625.4361 241.029328 
L 625.482262 240.400864 
L 625.4978 239.772399 
L 625.486707 239.143934 
L 625.452872 238.51547 
L 625.400068 237.887005 
L 625.33195 237.25854 
L 625.252053 236.630076 
L 625.163787 236.001611 
L 625.070436 235.373146 
L 624.975137 234.744682 
L 624.880872 234.116217 
L 624.790438 233.487753 
L 624.706423 232.859288 
L 624.631171 232.230823 
L 624.566753 231.602359 
L 624.514929 230.973894 
L 624.477127 230.345429 
L 624.454412 229.716965 
L 624.447471 229.0885 
L 629.077984 229.0885 
L 629.077984 229.0885 
L 629.071043 229.716965 
L 629.048327 230.345429 
L 629.010525 230.973894 
L 628.958702 231.602359 
L 628.894283 232.230823 
L 628.819031 232.859288 
L 628.735016 233.487753 
L 628.644583 234.116217 
L 628.550318 234.744682 
L 628.455019 235.373146 
L 628.361667 236.001611 
L 628.273402 236.630076 
L 628.193504 237.25854 
L 628.125386 237.887005 
L 628.072582 238.51547 
L 628.038747 239.143934 
L 628.027654 239.772399 
L 628.043192 240.400864 
L 628.089355 241.029328 
L 628.170225 241.657793 
L 628.289944 242.286258 
L 628.452664 242.914722 
L 628.66248 243.543187 
L 628.923342 244.171652 
L 629.238945 244.800116 
L 629.61259 245.428581 
L 630.047036 246.057045 
L 630.544321 246.68551 
L 631.105582 247.313975 
L 631.730873 247.942439 
L 632.418977 248.570904 
L 633.167249 249.199369 
L 633.971473 249.827833 
L 634.825763 250.456298 
L 635.722513 251.084763 
L 636.652401 251.713227 
L 637.604463 252.341692 
L 638.56623 252.970157 
L 639.523941 253.598621 
L 640.462824 254.227086 
L 641.367436 254.855551 
L 642.222062 255.484015 
L 643.011144 256.11248 
L 643.71974 256.740944 
L 644.333986 257.369409 
L 644.841538 257.997874 
L 645.231985 258.626338 
L 645.497203 259.254803 
L 645.631637 259.883268 
L 645.6325 260.511732 
L 645.499883 261.140197 
L 645.236755 261.768662 
L 644.848876 262.397126 
L 644.344608 263.025591 
L 643.734646 263.654056 
L 643.031682 264.28252 
L 642.250007 264.910985 
L 641.405088 265.539449 
L 640.513129 266.167914 
L 639.590634 266.796379 
L 638.653993 267.424843 
L 637.719116 268.053308 
L 636.801108 268.681773 
L 635.914011 269.310237 
L 635.070612 269.938702 
L 634.282311 270.567167 
L 633.559058 271.195631 
L 632.909342 271.824096 
L 632.340228 272.452561 
L 631.857428 273.081025 
L 631.465391 273.70949 
L 631.167412 274.337955 
L 630.965725 274.966419 
L 630.861594 275.594884 
L 630.855377 276.223348 
L 630.946562 276.851813 
L 631.133777 277.480278 
L 631.414764 278.108742 
L 631.786333 278.737207 
L 632.24429 279.365672 
L 632.783359 279.994136 
L 633.397101 280.622601 
L 634.077844 281.251066 
L 634.816634 281.87953 
L 635.60323 282.507995 
L 636.42613 283.13646 
L 637.272663 283.764924 
L 638.129133 284.393389 
L 638.981021 285.021854 
L 639.813251 285.650318 
L 640.610503 286.278783 
L 641.357569 286.907247 
L 642.039743 287.535712 
L 642.643216 288.164177 
L 643.155475 288.792641 
L 643.56568 289.421106 
L 643.864994 290.049571 
L 644.046867 290.678035 
L 644.10724 291.3065 
z
" clip-path="url(#pd1e47d2d99)" style="fill: #1f77b4; fill-opacity: 0.3"/>
   </g>
   <g id="PolyCollection_9">
    <path d="M 721.111591 322.4155 
L 683.372045 322.4155 
L 683.372045 322.4155 
L 683.372045 322.4155 
L 683.372045 322.4155 
L 683.372045 322.4155 
L 683.372045 322.4155 
L 683.372045 322.4155 
L 683.372045 322.4155 
L 683.372045 322.4155 
L 683.372045 322.4155 
L 683.372045 322.4155 
L 683.372045 322.4155 
L 683.372045 322.4155 
L 683.372045 322.4155 
L 683.372045 322.4155 
L 683.372045 322.4155 
L 683.372045 322.4155 
L 683.372045 322.4155 
L 683.372045 322.4155 
L 683.372045 322.4155 
L 683.372045 322.4155 
L 683.372045 322.4155 
L 683.372045 322.4155 
L 683.372045 322.4155 
L 683.372045 322.4155 
L 683.372045 322.4155 
L 683.372045 322.4155 
L 683.372045 322.4155 
L 683.372045 322.4155 
L 683.372045 322.4155 
L 683.372045 322.4155 
L 683.372045 322.4155 
L 683.372045 322.4155 
L 683.372045 322.4155 
L 683.372045 322.4155 
L 683.372045 322.4155 
L 683.372045 322.4155 
L 683.372045 322.4155 
L 683.372045 322.4155 
L 683.372045 322.4155 
L 683.372045 322.4155 
L 683.372045 322.4155 
L 683.372045 322.4155 
L 683.372045 322.4155 
L 683.372045 322.4155 
L 683.372045 322.4155 
L 683.372045 322.4155 
L 683.372045 322.4155 
L 683.372045 322.4155 
L 683.372045 322.4155 
L 683.372045 322.4155 
L 683.372045 322.4155 
L 683.372045 322.4155 
L 683.372045 322.4155 
L 683.372045 322.4155 
L 683.372045 322.4155 
L 683.372045 322.4155 
L 683.372045 322.4155 
L 683.372045 322.4155 
L 683.372045 322.4155 
L 683.372045 322.4155 
L 683.372045 322.4155 
L 683.372045 322.4155 
L 683.372045 322.4155 
L 683.372045 322.4155 
L 683.372045 322.4155 
L 683.372045 322.4155 
L 683.372045 322.4155 
L 683.372045 322.4155 
L 683.372045 322.4155 
L 683.372045 322.4155 
L 683.372045 322.4155 
L 683.372045 322.4155 
L 683.372045 322.4155 
L 683.372045 322.4155 
L 683.372045 322.4155 
L 683.372045 322.4155 
L 683.372045 322.4155 
L 683.372045 322.4155 
L 683.372045 322.4155 
L 683.372045 322.4155 
L 683.372045 322.4155 
L 683.372045 322.4155 
L 683.372045 322.4155 
L 683.372045 322.4155 
L 683.372045 322.4155 
L 683.372045 322.4155 
L 683.372045 322.4155 
L 683.372045 322.4155 
L 683.372045 322.4155 
L 683.372045 322.4155 
L 683.372045 322.4155 
L 683.372045 322.4155 
L 683.372045 322.4155 
L 683.372045 322.4155 
L 683.372045 322.4155 
L 683.372045 322.4155 
L 683.372045 322.4155 
L 683.372045 322.4155 
L 683.372045 322.4155 
L 721.111591 322.4155 
L 721.111591 322.4155 
L 721.111591 322.4155 
L 721.111591 322.4155 
L 721.111591 322.4155 
L 721.111591 322.4155 
L 721.111591 322.4155 
L 721.111591 322.4155 
L 721.111591 322.4155 
L 721.111591 322.4155 
L 721.111591 322.4155 
L 721.111591 322.4155 
L 721.111591 322.4155 
L 721.111591 322.4155 
L 721.111591 322.4155 
L 721.111591 322.4155 
L 721.111591 322.4155 
L 721.111591 322.4155 
L 721.111591 322.4155 
L 721.111591 322.4155 
L 721.111591 322.4155 
L 721.111591 322.4155 
L 721.111591 322.4155 
L 721.111591 322.4155 
L 721.111591 322.4155 
L 721.111591 322.4155 
L 721.111591 322.4155 
L 721.111591 322.4155 
L 721.111591 322.4155 
L 721.111591 322.4155 
L 721.111591 322.4155 
L 721.111591 322.4155 
L 721.111591 322.4155 
L 721.111591 322.4155 
L 721.111591 322.4155 
L 721.111591 322.4155 
L 721.111591 322.4155 
L 721.111591 322.4155 
L 721.111591 322.4155 
L 721.111591 322.4155 
L 721.111591 322.4155 
L 721.111591 322.4155 
L 721.111591 322.4155 
L 721.111591 322.4155 
L 721.111591 322.4155 
L 721.111591 322.4155 
L 721.111591 322.4155 
L 721.111591 322.4155 
L 721.111591 322.4155 
L 721.111591 322.4155 
L 721.111591 322.4155 
L 721.111591 322.4155 
L 721.111591 322.4155 
L 721.111591 322.4155 
L 721.111591 322.4155 
L 721.111591 322.4155 
L 721.111591 322.4155 
L 721.111591 322.4155 
L 721.111591 322.4155 
L 721.111591 322.4155 
L 721.111591 322.4155 
L 721.111591 322.4155 
L 721.111591 322.4155 
L 721.111591 322.4155 
L 721.111591 322.4155 
L 721.111591 322.4155 
L 721.111591 322.4155 
L 721.111591 322.4155 
L 721.111591 322.4155 
L 721.111591 322.4155 
L 721.111591 322.4155 
L 721.111591 322.4155 
L 721.111591 322.4155 
L 721.111591 322.4155 
L 721.111591 322.4155 
L 721.111591 322.4155 
L 721.111591 322.4155 
L 721.111591 322.4155 
L 721.111591 322.4155 
L 721.111591 322.4155 
L 721.111591 322.4155 
L 721.111591 322.4155 
L 721.111591 322.4155 
L 721.111591 322.4155 
L 721.111591 322.4155 
L 721.111591 322.4155 
L 721.111591 322.4155 
L 721.111591 322.4155 
L 721.111591 322.4155 
L 721.111591 322.4155 
L 721.111591 322.4155 
L 721.111591 322.4155 
L 721.111591 322.4155 
L 721.111591 322.4155 
L 721.111591 322.4155 
L 721.111591 322.4155 
L 721.111591 322.4155 
L 721.111591 322.4155 
L 721.111591 322.4155 
L 721.111591 322.4155 
L 721.111591 322.4155 
z
" clip-path="url(#pd1e47d2d99)" style="fill: #1f77b4; fill-opacity: 0.3"/>
   </g>
   <g id="PolyCollection_10">
    <path d="M 796.590682 322.4155 
L 758.851136 322.4155 
L 758.851136 322.4155 
L 758.851136 322.4155 
L 758.851136 322.4155 
L 758.851136 322.4155 
L 758.851136 322.4155 
L 758.851136 322.4155 
L 758.851136 322.4155 
L 758.851136 322.4155 
L 758.851136 322.4155 
L 758.851136 322.4155 
L 758.851136 322.4155 
L 758.851136 322.4155 
L 758.851136 322.4155 
L 758.851136 322.4155 
L 758.851136 322.4155 
L 758.851136 322.4155 
L 758.851136 322.4155 
L 758.851136 322.4155 
L 758.851136 322.4155 
L 758.851136 322.4155 
L 758.851136 322.4155 
L 758.851136 322.4155 
L 758.851136 322.4155 
L 758.851136 322.4155 
L 758.851136 322.4155 
L 758.851136 322.4155 
L 758.851136 322.4155 
L 758.851136 322.4155 
L 758.851136 322.4155 
L 758.851136 322.4155 
L 758.851136 322.4155 
L 758.851136 322.4155 
L 758.851136 322.4155 
L 758.851136 322.4155 
L 758.851136 322.4155 
L 758.851136 322.4155 
L 758.851136 322.4155 
L 758.851136 322.4155 
L 758.851136 322.4155 
L 758.851136 322.4155 
L 758.851136 322.4155 
L 758.851136 322.4155 
L 758.851136 322.4155 
L 758.851136 322.4155 
L 758.851136 322.4155 
L 758.851136 322.4155 
L 758.851136 322.4155 
L 758.851136 322.4155 
L 758.851136 322.4155 
L 758.851136 322.4155 
L 758.851136 322.4155 
L 758.851136 322.4155 
L 758.851136 322.4155 
L 758.851136 322.4155 
L 758.851136 322.4155 
L 758.851136 322.4155 
L 758.851136 322.4155 
L 758.851136 322.4155 
L 758.851136 322.4155 
L 758.851136 322.4155 
L 758.851136 322.4155 
L 758.851136 322.4155 
L 758.851136 322.4155 
L 758.851136 322.4155 
L 758.851136 322.4155 
L 758.851136 322.4155 
L 758.851136 322.4155 
L 758.851136 322.4155 
L 758.851136 322.4155 
L 758.851136 322.4155 
L 758.851136 322.4155 
L 758.851136 322.4155 
L 758.851136 322.4155 
L 758.851136 322.4155 
L 758.851136 322.4155 
L 758.851136 322.4155 
L 758.851136 322.4155 
L 758.851136 322.4155 
L 758.851136 322.4155 
L 758.851136 322.4155 
L 758.851136 322.4155 
L 758.851136 322.4155 
L 758.851136 322.4155 
L 758.851136 322.4155 
L 758.851136 322.4155 
L 758.851136 322.4155 
L 758.851136 322.4155 
L 758.851136 322.4155 
L 758.851136 322.4155 
L 758.851136 322.4155 
L 758.851136 322.4155 
L 758.851136 322.4155 
L 758.851136 322.4155 
L 758.851136 322.4155 
L 758.851136 322.4155 
L 758.851136 322.4155 
L 758.851136 322.4155 
L 758.851136 322.4155 
L 758.851136 322.4155 
L 796.590682 322.4155 
L 796.590682 322.4155 
L 796.590682 322.4155 
L 796.590682 322.4155 
L 796.590682 322.4155 
L 796.590682 322.4155 
L 796.590682 322.4155 
L 796.590682 322.4155 
L 796.590682 322.4155 
L 796.590682 322.4155 
L 796.590682 322.4155 
L 796.590682 322.4155 
L 796.590682 322.4155 
L 796.590682 322.4155 
L 796.590682 322.4155 
L 796.590682 322.4155 
L 796.590682 322.4155 
L 796.590682 322.4155 
L 796.590682 322.4155 
L 796.590682 322.4155 
L 796.590682 322.4155 
L 796.590682 322.4155 
L 796.590682 322.4155 
L 796.590682 322.4155 
L 796.590682 322.4155 
L 796.590682 322.4155 
L 796.590682 322.4155 
L 796.590682 322.4155 
L 796.590682 322.4155 
L 796.590682 322.4155 
L 796.590682 322.4155 
L 796.590682 322.4155 
L 796.590682 322.4155 
L 796.590682 322.4155 
L 796.590682 322.4155 
L 796.590682 322.4155 
L 796.590682 322.4155 
L 796.590682 322.4155 
L 796.590682 322.4155 
L 796.590682 322.4155 
L 796.590682 322.4155 
L 796.590682 322.4155 
L 796.590682 322.4155 
L 796.590682 322.4155 
L 796.590682 322.4155 
L 796.590682 322.4155 
L 796.590682 322.4155 
L 796.590682 322.4155 
L 796.590682 322.4155 
L 796.590682 322.4155 
L 796.590682 322.4155 
L 796.590682 322.4155 
L 796.590682 322.4155 
L 796.590682 322.4155 
L 796.590682 322.4155 
L 796.590682 322.4155 
L 796.590682 322.4155 
L 796.590682 322.4155 
L 796.590682 322.4155 
L 796.590682 322.4155 
L 796.590682 322.4155 
L 796.590682 322.4155 
L 796.590682 322.4155 
L 796.590682 322.4155 
L 796.590682 322.4155 
L 796.590682 322.4155 
L 796.590682 322.4155 
L 796.590682 322.4155 
L 796.590682 322.4155 
L 796.590682 322.4155 
L 796.590682 322.4155 
L 796.590682 322.4155 
L 796.590682 322.4155 
L 796.590682 322.4155 
L 796.590682 322.4155 
L 796.590682 322.4155 
L 796.590682 322.4155 
L 796.590682 322.4155 
L 796.590682 322.4155 
L 796.590682 322.4155 
L 796.590682 322.4155 
L 796.590682 322.4155 
L 796.590682 322.4155 
L 796.590682 322.4155 
L 796.590682 322.4155 
L 796.590682 322.4155 
L 796.590682 322.4155 
L 796.590682 322.4155 
L 796.590682 322.4155 
L 796.590682 322.4155 
L 796.590682 322.4155 
L 796.590682 322.4155 
L 796.590682 322.4155 
L 796.590682 322.4155 
L 796.590682 322.4155 
L 796.590682 322.4155 
L 796.590682 322.4155 
L 796.590682 322.4155 
L 796.590682 322.4155 
L 796.590682 322.4155 
L 796.590682 322.4155 
z
" clip-path="url(#pd1e47d2d99)" style="fill: #1f77b4; fill-opacity: 0.3"/>
   </g>
   <g id="matplotlib.axis_1">
    <g id="xtick_1">
     <g id="line2d_1">
      <defs>
       <path id="m9e8a0aeaa1" d="M 0 0 
L 0 3.5 
" style="stroke: #000000; stroke-width: 0.8"/>
      </defs>
      <g>
       <use xlink:href="#m9e8a0aeaa1" x="98.409091" y="337.97" style="stroke: #000000; stroke-width: 0.8"/>
      </g>
     </g>
     <g id="text_1">
      <!-- Defector -->
      <g transform="translate(100.616591 379.51)rotate(-90)scale(0.08 -0.08)">
       <defs>
        <path id="DejaVuSans-44" d="M 1259 4147 
L 1259 519 
L 2022 519 
Q 2988 519 3436 956 
Q 3884 1394 3884 2338 
Q 3884 3275 3436 3711 
Q 2988 4147 2022 4147 
L 1259 4147 
z
M 628 4666 
L 1925 4666 
Q 3281 4666 3915 4102 
Q 4550 3538 4550 2338 
Q 4550 1131 3912 565 
Q 3275 0 1925 0 
L 628 0 
L 628 4666 
z
" transform="scale(0.015625)"/>
        <path id="DejaVuSans-65" d="M 3597 1894 
L 3597 1613 
L 953 1613 
Q 991 1019 1311 708 
Q 1631 397 2203 397 
Q 2534 397 2845 478 
Q 3156 559 3463 722 
L 3463 178 
Q 3153 47 2828 -22 
Q 2503 -91 2169 -91 
Q 1331 -91 842 396 
Q 353 884 353 1716 
Q 353 2575 817 3079 
Q 1281 3584 2069 3584 
Q 2775 3584 3186 3129 
Q 3597 2675 3597 1894 
z
M 3022 2063 
Q 3016 2534 2758 2815 
Q 2500 3097 2075 3097 
Q 1594 3097 1305 2825 
Q 1016 2553 972 2059 
L 3022 2063 
z
" transform="scale(0.015625)"/>
        <path id="DejaVuSans-66" d="M 2375 4863 
L 2375 4384 
L 1825 4384 
Q 1516 4384 1395 4259 
Q 1275 4134 1275 3809 
L 1275 3500 
L 2222 3500 
L 2222 3053 
L 1275 3053 
L 1275 0 
L 697 0 
L 697 3053 
L 147 3053 
L 147 3500 
L 697 3500 
L 697 3744 
Q 697 4328 969 4595 
Q 1241 4863 1831 4863 
L 2375 4863 
z
" transform="scale(0.015625)"/>
        <path id="DejaVuSans-63" d="M 3122 3366 
L 3122 2828 
Q 2878 2963 2633 3030 
Q 2388 3097 2138 3097 
Q 1578 3097 1268 2742 
Q 959 2388 959 1747 
Q 959 1106 1268 751 
Q 1578 397 2138 397 
Q 2388 397 2633 464 
Q 2878 531 3122 666 
L 3122 134 
Q 2881 22 2623 -34 
Q 2366 -91 2075 -91 
Q 1284 -91 818 406 
Q 353 903 353 1747 
Q 353 2603 823 3093 
Q 1294 3584 2113 3584 
Q 2378 3584 2631 3529 
Q 2884 3475 3122 3366 
z
" transform="scale(0.015625)"/>
        <path id="DejaVuSans-74" d="M 1172 4494 
L 1172 3500 
L 2356 3500 
L 2356 3053 
L 1172 3053 
L 1172 1153 
Q 1172 725 1289 603 
Q 1406 481 1766 481 
L 2356 481 
L 2356 0 
L 1766 0 
Q 1100 0 847 248 
Q 594 497 594 1153 
L 594 3053 
L 172 3053 
L 172 3500 
L 594 3500 
L 594 4494 
L 1172 4494 
z
" transform="scale(0.015625)"/>
        <path id="DejaVuSans-6f" d="M 1959 3097 
Q 1497 3097 1228 2736 
Q 959 2375 959 1747 
Q 959 1119 1226 758 
Q 1494 397 1959 397 
Q 2419 397 2687 759 
Q 2956 1122 2956 1747 
Q 2956 2369 2687 2733 
Q 2419 3097 1959 3097 
z
M 1959 3584 
Q 2709 3584 3137 3096 
Q 3566 2609 3566 1747 
Q 3566 888 3137 398 
Q 2709 -91 1959 -91 
Q 1206 -91 779 398 
Q 353 888 353 1747 
Q 353 2609 779 3096 
Q 1206 3584 1959 3584 
z
" transform="scale(0.015625)"/>
        <path id="DejaVuSans-72" d="M 2631 2963 
Q 2534 3019 2420 3045 
Q 2306 3072 2169 3072 
Q 1681 3072 1420 2755 
Q 1159 2438 1159 1844 
L 1159 0 
L 581 0 
L 581 3500 
L 1159 3500 
L 1159 2956 
Q 1341 3275 1631 3429 
Q 1922 3584 2338 3584 
Q 2397 3584 2469 3576 
Q 2541 3569 2628 3553 
L 2631 2963 
z
" transform="scale(0.015625)"/>
       </defs>
       <use xlink:href="#DejaVuSans-44"/>
       <use xlink:href="#DejaVuSans-65" x="77.001953"/>
       <use xlink:href="#DejaVuSans-66" x="138.525391"/>
       <use xlink:href="#DejaVuSans-65" x="173.730469"/>
       <use xlink:href="#DejaVuSans-63" x="235.253906"/>
       <use xlink:href="#DejaVuSans-74" x="290.234375"/>
       <use xlink:href="#DejaVuSans-6f" x="329.443359"/>
       <use xlink:href="#DejaVuSans-72" x="390.625"/>
      </g>
     </g>
    </g>
    <g id="xtick_2">
     <g id="line2d_2">
      <g>
       <use xlink:href="#m9e8a0aeaa1" x="173.888182" y="337.97" style="stroke: #000000; stroke-width: 0.8"/>
      </g>
     </g>
     <g id="text_2">
      <!-- Grudger -->
      <g transform="translate(176.095682 377.89625)rotate(-90)scale(0.08 -0.08)">
       <defs>
        <path id="DejaVuSans-47" d="M 3809 666 
L 3809 1919 
L 2778 1919 
L 2778 2438 
L 4434 2438 
L 4434 434 
Q 4069 175 3628 42 
Q 3188 -91 2688 -91 
Q 1594 -91 976 548 
Q 359 1188 359 2328 
Q 359 3472 976 4111 
Q 1594 4750 2688 4750 
Q 3144 4750 3555 4637 
Q 3966 4525 4313 4306 
L 4313 3634 
Q 3963 3931 3569 4081 
Q 3175 4231 2741 4231 
Q 1884 4231 1454 3753 
Q 1025 3275 1025 2328 
Q 1025 1384 1454 906 
Q 1884 428 2741 428 
Q 3075 428 3337 486 
Q 3600 544 3809 666 
z
" transform="scale(0.015625)"/>
        <path id="DejaVuSans-75" d="M 544 1381 
L 544 3500 
L 1119 3500 
L 1119 1403 
Q 1119 906 1312 657 
Q 1506 409 1894 409 
Q 2359 409 2629 706 
Q 2900 1003 2900 1516 
L 2900 3500 
L 3475 3500 
L 3475 0 
L 2900 0 
L 2900 538 
Q 2691 219 2414 64 
Q 2138 -91 1772 -91 
Q 1169 -91 856 284 
Q 544 659 544 1381 
z
M 1991 3584 
L 1991 3584 
z
" transform="scale(0.015625)"/>
        <path id="DejaVuSans-64" d="M 2906 2969 
L 2906 4863 
L 3481 4863 
L 3481 0 
L 2906 0 
L 2906 525 
Q 2725 213 2448 61 
Q 2172 -91 1784 -91 
Q 1150 -91 751 415 
Q 353 922 353 1747 
Q 353 2572 751 3078 
Q 1150 3584 1784 3584 
Q 2172 3584 2448 3432 
Q 2725 3281 2906 2969 
z
M 947 1747 
Q 947 1113 1208 752 
Q 1469 391 1925 391 
Q 2381 391 2643 752 
Q 2906 1113 2906 1747 
Q 2906 2381 2643 2742 
Q 2381 3103 1925 3103 
Q 1469 3103 1208 2742 
Q 947 2381 947 1747 
z
" transform="scale(0.015625)"/>
        <path id="DejaVuSans-67" d="M 2906 1791 
Q 2906 2416 2648 2759 
Q 2391 3103 1925 3103 
Q 1463 3103 1205 2759 
Q 947 2416 947 1791 
Q 947 1169 1205 825 
Q 1463 481 1925 481 
Q 2391 481 2648 825 
Q 2906 1169 2906 1791 
z
M 3481 434 
Q 3481 -459 3084 -895 
Q 2688 -1331 1869 -1331 
Q 1566 -1331 1297 -1286 
Q 1028 -1241 775 -1147 
L 775 -588 
Q 1028 -725 1275 -790 
Q 1522 -856 1778 -856 
Q 2344 -856 2625 -561 
Q 2906 -266 2906 331 
L 2906 616 
Q 2728 306 2450 153 
Q 2172 0 1784 0 
Q 1141 0 747 490 
Q 353 981 353 1791 
Q 353 2603 747 3093 
Q 1141 3584 1784 3584 
Q 2172 3584 2450 3431 
Q 2728 3278 2906 2969 
L 2906 3500 
L 3481 3500 
L 3481 434 
z
" transform="scale(0.015625)"/>
       </defs>
       <use xlink:href="#DejaVuSans-47"/>
       <use xlink:href="#DejaVuSans-72" x="77.490234"/>
       <use xlink:href="#DejaVuSans-75" x="118.603516"/>
       <use xlink:href="#DejaVuSans-64" x="181.982422"/>
       <use xlink:href="#DejaVuSans-67" x="245.458984"/>
       <use xlink:href="#DejaVuSans-65" x="308.935547"/>
       <use xlink:href="#DejaVuSans-72" x="370.458984"/>
      </g>
     </g>
    </g>
    <g id="xtick_3">
     <g id="line2d_3">
      <g>
       <use xlink:href="#m9e8a0aeaa1" x="249.367273" y="337.97" style="stroke: #000000; stroke-width: 0.8"/>
      </g>
     </g>
     <g id="text_3">
      <!-- Adaptive -->
      <g transform="translate(251.574773 380.37875)rotate(-90)scale(0.08 -0.08)">
       <defs>
        <path id="DejaVuSans-41" d="M 2188 4044 
L 1331 1722 
L 3047 1722 
L 2188 4044 
z
M 1831 4666 
L 2547 4666 
L 4325 0 
L 3669 0 
L 3244 1197 
L 1141 1197 
L 716 0 
L 50 0 
L 1831 4666 
z
" transform="scale(0.015625)"/>
        <path id="DejaVuSans-61" d="M 2194 1759 
Q 1497 1759 1228 1600 
Q 959 1441 959 1056 
Q 959 750 1161 570 
Q 1363 391 1709 391 
Q 2188 391 2477 730 
Q 2766 1069 2766 1631 
L 2766 1759 
L 2194 1759 
z
M 3341 1997 
L 3341 0 
L 2766 0 
L 2766 531 
Q 2569 213 2275 61 
Q 1981 -91 1556 -91 
Q 1019 -91 701 211 
Q 384 513 384 1019 
Q 384 1609 779 1909 
Q 1175 2209 1959 2209 
L 2766 2209 
L 2766 2266 
Q 2766 2663 2505 2880 
Q 2244 3097 1772 3097 
Q 1472 3097 1187 3025 
Q 903 2953 641 2809 
L 641 3341 
Q 956 3463 1253 3523 
Q 1550 3584 1831 3584 
Q 2591 3584 2966 3190 
Q 3341 2797 3341 1997 
z
" transform="scale(0.015625)"/>
        <path id="DejaVuSans-70" d="M 1159 525 
L 1159 -1331 
L 581 -1331 
L 581 3500 
L 1159 3500 
L 1159 2969 
Q 1341 3281 1617 3432 
Q 1894 3584 2278 3584 
Q 2916 3584 3314 3078 
Q 3713 2572 3713 1747 
Q 3713 922 3314 415 
Q 2916 -91 2278 -91 
Q 1894 -91 1617 61 
Q 1341 213 1159 525 
z
M 3116 1747 
Q 3116 2381 2855 2742 
Q 2594 3103 2138 3103 
Q 1681 3103 1420 2742 
Q 1159 2381 1159 1747 
Q 1159 1113 1420 752 
Q 1681 391 2138 391 
Q 2594 391 2855 752 
Q 3116 1113 3116 1747 
z
" transform="scale(0.015625)"/>
        <path id="DejaVuSans-69" d="M 603 3500 
L 1178 3500 
L 1178 0 
L 603 0 
L 603 3500 
z
M 603 4863 
L 1178 4863 
L 1178 4134 
L 603 4134 
L 603 4863 
z
" transform="scale(0.015625)"/>
        <path id="DejaVuSans-76" d="M 191 3500 
L 800 3500 
L 1894 563 
L 2988 3500 
L 3597 3500 
L 2284 0 
L 1503 0 
L 191 3500 
z
" transform="scale(0.015625)"/>
       </defs>
       <use xlink:href="#DejaVuSans-41"/>
       <use xlink:href="#DejaVuSans-64" x="66.658203"/>
       <use xlink:href="#DejaVuSans-61" x="130.134766"/>
       <use xlink:href="#DejaVuSans-70" x="191.414062"/>
       <use xlink:href="#DejaVuSans-74" x="254.890625"/>
       <use xlink:href="#DejaVuSans-69" x="294.099609"/>
       <use xlink:href="#DejaVuSans-76" x="321.882812"/>
       <use xlink:href="#DejaVuSans-65" x="381.0625"/>
      </g>
     </g>
    </g>
    <g id="xtick_4">
     <g id="line2d_4">
      <g>
       <use xlink:href="#m9e8a0aeaa1" x="324.846364" y="337.97" style="stroke: #000000; stroke-width: 0.8"/>
      </g>
     </g>
     <g id="text_4">
      <!-- Alternator -->
      <g transform="translate(327.053864 385.165)rotate(-90)scale(0.08 -0.08)">
       <defs>
        <path id="DejaVuSans-6c" d="M 603 4863 
L 1178 4863 
L 1178 0 
L 603 0 
L 603 4863 
z
" transform="scale(0.015625)"/>
        <path id="DejaVuSans-6e" d="M 3513 2113 
L 3513 0 
L 2938 0 
L 2938 2094 
Q 2938 2591 2744 2837 
Q 2550 3084 2163 3084 
Q 1697 3084 1428 2787 
Q 1159 2491 1159 1978 
L 1159 0 
L 581 0 
L 581 3500 
L 1159 3500 
L 1159 2956 
Q 1366 3272 1645 3428 
Q 1925 3584 2291 3584 
Q 2894 3584 3203 3211 
Q 3513 2838 3513 2113 
z
" transform="scale(0.015625)"/>
       </defs>
       <use xlink:href="#DejaVuSans-41"/>
       <use xlink:href="#DejaVuSans-6c" x="68.408203"/>
       <use xlink:href="#DejaVuSans-74" x="96.191406"/>
       <use xlink:href="#DejaVuSans-65" x="135.400391"/>
       <use xlink:href="#DejaVuSans-72" x="196.923828"/>
       <use xlink:href="#DejaVuSans-6e" x="236.287109"/>
       <use xlink:href="#DejaVuSans-61" x="299.666016"/>
       <use xlink:href="#DejaVuSans-74" x="360.945312"/>
       <use xlink:href="#DejaVuSans-6f" x="400.154297"/>
       <use xlink:href="#DejaVuSans-72" x="461.335938"/>
      </g>
     </g>
    </g>
    <g id="xtick_5">
     <g id="line2d_5">
      <g>
       <use xlink:href="#m9e8a0aeaa1" x="400.325455" y="337.97" style="stroke: #000000; stroke-width: 0.8"/>
      </g>
     </g>
     <g id="text_5">
      <!-- Deep QLearner -->
      <g transform="translate(402.532955 405.46625)rotate(-90)scale(0.08 -0.08)">
       <defs>
        <path id="DejaVuSans-20" transform="scale(0.015625)"/>
        <path id="DejaVuSans-51" d="M 2522 4238 
Q 1834 4238 1429 3725 
Q 1025 3213 1025 2328 
Q 1025 1447 1429 934 
Q 1834 422 2522 422 
Q 3209 422 3611 934 
Q 4013 1447 4013 2328 
Q 4013 3213 3611 3725 
Q 3209 4238 2522 4238 
z
M 3406 84 
L 4238 -825 
L 3475 -825 
L 2784 -78 
Q 2681 -84 2626 -87 
Q 2572 -91 2522 -91 
Q 1538 -91 948 567 
Q 359 1225 359 2328 
Q 359 3434 948 4092 
Q 1538 4750 2522 4750 
Q 3503 4750 4090 4092 
Q 4678 3434 4678 2328 
Q 4678 1516 4351 937 
Q 4025 359 3406 84 
z
" transform="scale(0.015625)"/>
        <path id="DejaVuSans-4c" d="M 628 4666 
L 1259 4666 
L 1259 531 
L 3531 531 
L 3531 0 
L 628 0 
L 628 4666 
z
" transform="scale(0.015625)"/>
       </defs>
       <use xlink:href="#DejaVuSans-44"/>
       <use xlink:href="#DejaVuSans-65" x="77.001953"/>
       <use xlink:href="#DejaVuSans-65" x="138.525391"/>
       <use xlink:href="#DejaVuSans-70" x="200.048828"/>
       <use xlink:href="#DejaVuSans-20" x="263.525391"/>
       <use xlink:href="#DejaVuSans-51" x="295.3125"/>
       <use xlink:href="#DejaVuSans-4c" x="374.023438"/>
       <use xlink:href="#DejaVuSans-65" x="427.986328"/>
       <use xlink:href="#DejaVuSans-61" x="489.509766"/>
       <use xlink:href="#DejaVuSans-72" x="550.789062"/>
       <use xlink:href="#DejaVuSans-6e" x="590.152344"/>
       <use xlink:href="#DejaVuSans-65" x="653.53125"/>
       <use xlink:href="#DejaVuSans-72" x="715.054688"/>
      </g>
     </g>
    </g>
    <g id="xtick_6">
     <g id="line2d_6">
      <g>
       <use xlink:href="#m9e8a0aeaa1" x="475.804545" y="337.97" style="stroke: #000000; stroke-width: 0.8"/>
      </g>
     </g>
     <g id="text_6">
      <!-- Random: 0.5 -->
      <g transform="translate(478.012045 396.0475)rotate(-90)scale(0.08 -0.08)">
       <defs>
        <path id="DejaVuSans-52" d="M 2841 2188 
Q 3044 2119 3236 1894 
Q 3428 1669 3622 1275 
L 4263 0 
L 3584 0 
L 2988 1197 
Q 2756 1666 2539 1819 
Q 2322 1972 1947 1972 
L 1259 1972 
L 1259 0 
L 628 0 
L 628 4666 
L 2053 4666 
Q 2853 4666 3247 4331 
Q 3641 3997 3641 3322 
Q 3641 2881 3436 2590 
Q 3231 2300 2841 2188 
z
M 1259 4147 
L 1259 2491 
L 2053 2491 
Q 2509 2491 2742 2702 
Q 2975 2913 2975 3322 
Q 2975 3731 2742 3939 
Q 2509 4147 2053 4147 
L 1259 4147 
z
" transform="scale(0.015625)"/>
        <path id="DejaVuSans-6d" d="M 3328 2828 
Q 3544 3216 3844 3400 
Q 4144 3584 4550 3584 
Q 5097 3584 5394 3201 
Q 5691 2819 5691 2113 
L 5691 0 
L 5113 0 
L 5113 2094 
Q 5113 2597 4934 2840 
Q 4756 3084 4391 3084 
Q 3944 3084 3684 2787 
Q 3425 2491 3425 1978 
L 3425 0 
L 2847 0 
L 2847 2094 
Q 2847 2600 2669 2842 
Q 2491 3084 2119 3084 
Q 1678 3084 1418 2786 
Q 1159 2488 1159 1978 
L 1159 0 
L 581 0 
L 581 3500 
L 1159 3500 
L 1159 2956 
Q 1356 3278 1631 3431 
Q 1906 3584 2284 3584 
Q 2666 3584 2933 3390 
Q 3200 3197 3328 2828 
z
" transform="scale(0.015625)"/>
        <path id="DejaVuSans-3a" d="M 750 794 
L 1409 794 
L 1409 0 
L 750 0 
L 750 794 
z
M 750 3309 
L 1409 3309 
L 1409 2516 
L 750 2516 
L 750 3309 
z
" transform="scale(0.015625)"/>
        <path id="DejaVuSans-30" d="M 2034 4250 
Q 1547 4250 1301 3770 
Q 1056 3291 1056 2328 
Q 1056 1369 1301 889 
Q 1547 409 2034 409 
Q 2525 409 2770 889 
Q 3016 1369 3016 2328 
Q 3016 3291 2770 3770 
Q 2525 4250 2034 4250 
z
M 2034 4750 
Q 2819 4750 3233 4129 
Q 3647 3509 3647 2328 
Q 3647 1150 3233 529 
Q 2819 -91 2034 -91 
Q 1250 -91 836 529 
Q 422 1150 422 2328 
Q 422 3509 836 4129 
Q 1250 4750 2034 4750 
z
" transform="scale(0.015625)"/>
        <path id="DejaVuSans-2e" d="M 684 794 
L 1344 794 
L 1344 0 
L 684 0 
L 684 794 
z
" transform="scale(0.015625)"/>
        <path id="DejaVuSans-35" d="M 691 4666 
L 3169 4666 
L 3169 4134 
L 1269 4134 
L 1269 2991 
Q 1406 3038 1543 3061 
Q 1681 3084 1819 3084 
Q 2600 3084 3056 2656 
Q 3513 2228 3513 1497 
Q 3513 744 3044 326 
Q 2575 -91 1722 -91 
Q 1428 -91 1123 -41 
Q 819 9 494 109 
L 494 744 
Q 775 591 1075 516 
Q 1375 441 1709 441 
Q 2250 441 2565 725 
Q 2881 1009 2881 1497 
Q 2881 1984 2565 2268 
Q 2250 2553 1709 2553 
Q 1456 2553 1204 2497 
Q 953 2441 691 2322 
L 691 4666 
z
" transform="scale(0.015625)"/>
       </defs>
       <use xlink:href="#DejaVuSans-52"/>
       <use xlink:href="#DejaVuSans-61" x="67.232422"/>
       <use xlink:href="#DejaVuSans-6e" x="128.511719"/>
       <use xlink:href="#DejaVuSans-64" x="191.890625"/>
       <use xlink:href="#DejaVuSans-6f" x="255.367188"/>
       <use xlink:href="#DejaVuSans-6d" x="316.548828"/>
       <use xlink:href="#DejaVuSans-3a" x="413.960938"/>
       <use xlink:href="#DejaVuSans-20" x="447.652344"/>
       <use xlink:href="#DejaVuSans-30" x="479.439453"/>
       <use xlink:href="#DejaVuSans-2e" x="543.0625"/>
       <use xlink:href="#DejaVuSans-35" x="574.849609"/>
      </g>
     </g>
    </g>
    <g id="xtick_7">
     <g id="line2d_7">
      <g>
       <use xlink:href="#m9e8a0aeaa1" x="551.283636" y="337.97" style="stroke: #000000; stroke-width: 0.8"/>
      </g>
     </g>
     <g id="text_7">
      <!-- Risky QLearner -->
      <g transform="translate(553.491136 405.40875)rotate(-90)scale(0.08 -0.08)">
       <defs>
        <path id="DejaVuSans-73" d="M 2834 3397 
L 2834 2853 
Q 2591 2978 2328 3040 
Q 2066 3103 1784 3103 
Q 1356 3103 1142 2972 
Q 928 2841 928 2578 
Q 928 2378 1081 2264 
Q 1234 2150 1697 2047 
L 1894 2003 
Q 2506 1872 2764 1633 
Q 3022 1394 3022 966 
Q 3022 478 2636 193 
Q 2250 -91 1575 -91 
Q 1294 -91 989 -36 
Q 684 19 347 128 
L 347 722 
Q 666 556 975 473 
Q 1284 391 1588 391 
Q 1994 391 2212 530 
Q 2431 669 2431 922 
Q 2431 1156 2273 1281 
Q 2116 1406 1581 1522 
L 1381 1569 
Q 847 1681 609 1914 
Q 372 2147 372 2553 
Q 372 3047 722 3315 
Q 1072 3584 1716 3584 
Q 2034 3584 2315 3537 
Q 2597 3491 2834 3397 
z
" transform="scale(0.015625)"/>
        <path id="DejaVuSans-6b" d="M 581 4863 
L 1159 4863 
L 1159 1991 
L 2875 3500 
L 3609 3500 
L 1753 1863 
L 3688 0 
L 2938 0 
L 1159 1709 
L 1159 0 
L 581 0 
L 581 4863 
z
" transform="scale(0.015625)"/>
        <path id="DejaVuSans-79" d="M 2059 -325 
Q 1816 -950 1584 -1140 
Q 1353 -1331 966 -1331 
L 506 -1331 
L 506 -850 
L 844 -850 
Q 1081 -850 1212 -737 
Q 1344 -625 1503 -206 
L 1606 56 
L 191 3500 
L 800 3500 
L 1894 763 
L 2988 3500 
L 3597 3500 
L 2059 -325 
z
" transform="scale(0.015625)"/>
       </defs>
       <use xlink:href="#DejaVuSans-52"/>
       <use xlink:href="#DejaVuSans-69" x="69.482422"/>
       <use xlink:href="#DejaVuSans-73" x="97.265625"/>
       <use xlink:href="#DejaVuSans-6b" x="149.365234"/>
       <use xlink:href="#DejaVuSans-79" x="203.650391"/>
       <use xlink:href="#DejaVuSans-20" x="262.830078"/>
       <use xlink:href="#DejaVuSans-51" x="294.617188"/>
       <use xlink:href="#DejaVuSans-4c" x="373.328125"/>
       <use xlink:href="#DejaVuSans-65" x="427.291016"/>
       <use xlink:href="#DejaVuSans-61" x="488.814453"/>
       <use xlink:href="#DejaVuSans-72" x="550.09375"/>
       <use xlink:href="#DejaVuSans-6e" x="589.457031"/>
       <use xlink:href="#DejaVuSans-65" x="652.835938"/>
       <use xlink:href="#DejaVuSans-72" x="714.359375"/>
      </g>
     </g>
    </g>
    <g id="xtick_8">
     <g id="line2d_8">
      <g>
       <use xlink:href="#m9e8a0aeaa1" x="626.762727" y="337.97" style="stroke: #000000; stroke-width: 0.8"/>
      </g>
     </g>
     <g id="text_8">
      <!-- Mediocre QLearner -->
      <g transform="translate(628.970227 420.83375)rotate(-90)scale(0.08 -0.08)">
       <defs>
        <path id="DejaVuSans-4d" d="M 628 4666 
L 1569 4666 
L 2759 1491 
L 3956 4666 
L 4897 4666 
L 4897 0 
L 4281 0 
L 4281 4097 
L 3078 897 
L 2444 897 
L 1241 4097 
L 1241 0 
L 628 0 
L 628 4666 
z
" transform="scale(0.015625)"/>
       </defs>
       <use xlink:href="#DejaVuSans-4d"/>
       <use xlink:href="#DejaVuSans-65" x="86.279297"/>
       <use xlink:href="#DejaVuSans-64" x="147.802734"/>
       <use xlink:href="#DejaVuSans-69" x="211.279297"/>
       <use xlink:href="#DejaVuSans-6f" x="239.0625"/>
       <use xlink:href="#DejaVuSans-63" x="300.244141"/>
       <use xlink:href="#DejaVuSans-72" x="355.224609"/>
       <use xlink:href="#DejaVuSans-65" x="394.087891"/>
       <use xlink:href="#DejaVuSans-20" x="455.611328"/>
       <use xlink:href="#DejaVuSans-51" x="487.398438"/>
       <use xlink:href="#DejaVuSans-4c" x="566.109375"/>
       <use xlink:href="#DejaVuSans-65" x="620.072266"/>
       <use xlink:href="#DejaVuSans-61" x="681.595703"/>
       <use xlink:href="#DejaVuSans-72" x="742.875"/>
       <use xlink:href="#DejaVuSans-6e" x="782.238281"/>
       <use xlink:href="#DejaVuSans-65" x="845.617188"/>
       <use xlink:href="#DejaVuSans-72" x="907.140625"/>
      </g>
     </g>
    </g>
    <g id="xtick_9">
     <g id="line2d_9">
      <g>
       <use xlink:href="#m9e8a0aeaa1" x="702.241818" y="337.97" style="stroke: #000000; stroke-width: 0.8"/>
      </g>
     </g>
     <g id="text_9">
      <!-- Tit For Tat -->
      <g transform="translate(704.449318 384.15)rotate(-90)scale(0.08 -0.08)">
       <defs>
        <path id="DejaVuSans-54" d="M -19 4666 
L 3928 4666 
L 3928 4134 
L 2272 4134 
L 2272 0 
L 1638 0 
L 1638 4134 
L -19 4134 
L -19 4666 
z
" transform="scale(0.015625)"/>
        <path id="DejaVuSans-46" d="M 628 4666 
L 3309 4666 
L 3309 4134 
L 1259 4134 
L 1259 2759 
L 3109 2759 
L 3109 2228 
L 1259 2228 
L 1259 0 
L 628 0 
L 628 4666 
z
" transform="scale(0.015625)"/>
       </defs>
       <use xlink:href="#DejaVuSans-54"/>
       <use xlink:href="#DejaVuSans-69" x="57.958984"/>
       <use xlink:href="#DejaVuSans-74" x="85.742188"/>
       <use xlink:href="#DejaVuSans-20" x="124.951172"/>
       <use xlink:href="#DejaVuSans-46" x="156.738281"/>
       <use xlink:href="#DejaVuSans-6f" x="210.632812"/>
       <use xlink:href="#DejaVuSans-72" x="271.814453"/>
       <use xlink:href="#DejaVuSans-20" x="312.927734"/>
       <use xlink:href="#DejaVuSans-54" x="344.714844"/>
       <use xlink:href="#DejaVuSans-61" x="389.298828"/>
       <use xlink:href="#DejaVuSans-74" x="450.578125"/>
      </g>
     </g>
    </g>
    <g id="xtick_10">
     <g id="line2d_10">
      <g>
       <use xlink:href="#m9e8a0aeaa1" x="777.720909" y="337.97" style="stroke: #000000; stroke-width: 0.8"/>
      </g>
     </g>
     <g id="text_10">
      <!-- Cooperator -->
      <g transform="translate(779.928409 389.85875)rotate(-90)scale(0.08 -0.08)">
       <defs>
        <path id="DejaVuSans-43" d="M 4122 4306 
L 4122 3641 
Q 3803 3938 3442 4084 
Q 3081 4231 2675 4231 
Q 1875 4231 1450 3742 
Q 1025 3253 1025 2328 
Q 1025 1406 1450 917 
Q 1875 428 2675 428 
Q 3081 428 3442 575 
Q 3803 722 4122 1019 
L 4122 359 
Q 3791 134 3420 21 
Q 3050 -91 2638 -91 
Q 1578 -91 968 557 
Q 359 1206 359 2328 
Q 359 3453 968 4101 
Q 1578 4750 2638 4750 
Q 3056 4750 3426 4639 
Q 3797 4528 4122 4306 
z
" transform="scale(0.015625)"/>
       </defs>
       <use xlink:href="#DejaVuSans-43"/>
       <use xlink:href="#DejaVuSans-6f" x="69.824219"/>
       <use xlink:href="#DejaVuSans-6f" x="131.005859"/>
       <use xlink:href="#DejaVuSans-70" x="192.1875"/>
       <use xlink:href="#DejaVuSans-65" x="255.664062"/>
       <use xlink:href="#DejaVuSans-72" x="317.1875"/>
       <use xlink:href="#DejaVuSans-61" x="358.300781"/>
       <use xlink:href="#DejaVuSans-74" x="419.580078"/>
       <use xlink:href="#DejaVuSans-6f" x="458.789062"/>
       <use xlink:href="#DejaVuSans-72" x="519.970703"/>
      </g>
     </g>
    </g>
   </g>
   <g id="matplotlib.axis_2">
    <g id="ytick_1">
     <g id="line2d_11">
      <defs>
       <path id="m830ee07f80" d="M 0 0 
L -3.5 0 
" style="stroke: #000000; stroke-width: 0.8"/>
      </defs>
      <g>
       <use xlink:href="#m830ee07f80" x="22.93" y="322.4155" style="stroke: #000000; stroke-width: 0.8"/>
      </g>
     </g>
     <g id="text_11">
      <!-- 0 -->
      <g transform="translate(10.84 325.454875)scale(0.08 -0.08)">
       <use xlink:href="#DejaVuSans-30"/>
      </g>
     </g>
    </g>
    <g id="ytick_2">
     <g id="line2d_12">
      <g>
       <use xlink:href="#m830ee07f80" x="22.93" y="260.1975" style="stroke: #000000; stroke-width: 0.8"/>
      </g>
     </g>
     <g id="text_12">
      <!-- 2 -->
      <g transform="translate(10.84 263.236875)scale(0.08 -0.08)">
       <defs>
        <path id="DejaVuSans-32" d="M 1228 531 
L 3431 531 
L 3431 0 
L 469 0 
L 469 531 
Q 828 903 1448 1529 
Q 2069 2156 2228 2338 
Q 2531 2678 2651 2914 
Q 2772 3150 2772 3378 
Q 2772 3750 2511 3984 
Q 2250 4219 1831 4219 
Q 1534 4219 1204 4116 
Q 875 4013 500 3803 
L 500 4441 
Q 881 4594 1212 4672 
Q 1544 4750 1819 4750 
Q 2544 4750 2975 4387 
Q 3406 4025 3406 3419 
Q 3406 3131 3298 2873 
Q 3191 2616 2906 2266 
Q 2828 2175 2409 1742 
Q 1991 1309 1228 531 
z
" transform="scale(0.015625)"/>
       </defs>
       <use xlink:href="#DejaVuSans-32"/>
      </g>
     </g>
    </g>
    <g id="ytick_3">
     <g id="line2d_13">
      <g>
       <use xlink:href="#m830ee07f80" x="22.93" y="197.9795" style="stroke: #000000; stroke-width: 0.8"/>
      </g>
     </g>
     <g id="text_13">
      <!-- 4 -->
      <g transform="translate(10.84 201.018875)scale(0.08 -0.08)">
       <defs>
        <path id="DejaVuSans-34" d="M 2419 4116 
L 825 1625 
L 2419 1625 
L 2419 4116 
z
M 2253 4666 
L 3047 4666 
L 3047 1625 
L 3713 1625 
L 3713 1100 
L 3047 1100 
L 3047 0 
L 2419 0 
L 2419 1100 
L 313 1100 
L 313 1709 
L 2253 4666 
z
" transform="scale(0.015625)"/>
       </defs>
       <use xlink:href="#DejaVuSans-34"/>
      </g>
     </g>
    </g>
    <g id="ytick_4">
     <g id="line2d_14">
      <g>
       <use xlink:href="#m830ee07f80" x="22.93" y="135.7615" style="stroke: #000000; stroke-width: 0.8"/>
      </g>
     </g>
     <g id="text_14">
      <!-- 6 -->
      <g transform="translate(10.84 138.800875)scale(0.08 -0.08)">
       <defs>
        <path id="DejaVuSans-36" d="M 2113 2584 
Q 1688 2584 1439 2293 
Q 1191 2003 1191 1497 
Q 1191 994 1439 701 
Q 1688 409 2113 409 
Q 2538 409 2786 701 
Q 3034 994 3034 1497 
Q 3034 2003 2786 2293 
Q 2538 2584 2113 2584 
z
M 3366 4563 
L 3366 3988 
Q 3128 4100 2886 4159 
Q 2644 4219 2406 4219 
Q 1781 4219 1451 3797 
Q 1122 3375 1075 2522 
Q 1259 2794 1537 2939 
Q 1816 3084 2150 3084 
Q 2853 3084 3261 2657 
Q 3669 2231 3669 1497 
Q 3669 778 3244 343 
Q 2819 -91 2113 -91 
Q 1303 -91 875 529 
Q 447 1150 447 2328 
Q 447 3434 972 4092 
Q 1497 4750 2381 4750 
Q 2619 4750 2861 4703 
Q 3103 4656 3366 4563 
z
" transform="scale(0.015625)"/>
       </defs>
       <use xlink:href="#DejaVuSans-36"/>
      </g>
     </g>
    </g>
    <g id="ytick_5">
     <g id="line2d_15">
      <g>
       <use xlink:href="#m830ee07f80" x="22.93" y="73.5435" style="stroke: #000000; stroke-width: 0.8"/>
      </g>
     </g>
     <g id="text_15">
      <!-- 8 -->
      <g transform="translate(10.84 76.582875)scale(0.08 -0.08)">
       <defs>
        <path id="DejaVuSans-38" d="M 2034 2216 
Q 1584 2216 1326 1975 
Q 1069 1734 1069 1313 
Q 1069 891 1326 650 
Q 1584 409 2034 409 
Q 2484 409 2743 651 
Q 3003 894 3003 1313 
Q 3003 1734 2745 1975 
Q 2488 2216 2034 2216 
z
M 1403 2484 
Q 997 2584 770 2862 
Q 544 3141 544 3541 
Q 544 4100 942 4425 
Q 1341 4750 2034 4750 
Q 2731 4750 3128 4425 
Q 3525 4100 3525 3541 
Q 3525 3141 3298 2862 
Q 3072 2584 2669 2484 
Q 3125 2378 3379 2068 
Q 3634 1759 3634 1313 
Q 3634 634 3220 271 
Q 2806 -91 2034 -91 
Q 1263 -91 848 271 
Q 434 634 434 1313 
Q 434 1759 690 2068 
Q 947 2378 1403 2484 
z
M 1172 3481 
Q 1172 3119 1398 2916 
Q 1625 2713 2034 2713 
Q 2441 2713 2670 2916 
Q 2900 3119 2900 3481 
Q 2900 3844 2670 4047 
Q 2441 4250 2034 4250 
Q 1625 4250 1398 4047 
Q 1172 3844 1172 3481 
z
" transform="scale(0.015625)"/>
       </defs>
       <use xlink:href="#DejaVuSans-38"/>
      </g>
     </g>
    </g>
   </g>
   <g id="LineCollection_1">
    <path d="M 88.974205 42.4345 
L 107.843977 42.4345 
" clip-path="url(#pd1e47d2d99)" style="fill: none; stroke: #1f77b4; stroke-width: 1.5"/>
    <path d="M 164.453295 135.7615 
L 183.323068 135.7615 
" clip-path="url(#pd1e47d2d99)" style="fill: none; stroke: #1f77b4; stroke-width: 1.5"/>
    <path d="M 239.932386 151.316 
L 258.802159 151.316 
" clip-path="url(#pd1e47d2d99)" style="fill: none; stroke: #1f77b4; stroke-width: 1.5"/>
    <path d="M 315.411477 166.8705 
L 334.28125 166.8705 
" clip-path="url(#pd1e47d2d99)" style="fill: none; stroke: #1f77b4; stroke-width: 1.5"/>
    <path d="M 390.890568 166.8705 
L 409.760341 166.8705 
" clip-path="url(#pd1e47d2d99)" style="fill: none; stroke: #1f77b4; stroke-width: 1.5"/>
    <path d="M 466.369659 197.9795 
L 485.239432 197.9795 
" clip-path="url(#pd1e47d2d99)" style="fill: none; stroke: #1f77b4; stroke-width: 1.5"/>
    <path d="M 541.84875 260.1975 
L 560.718523 260.1975 
" clip-path="url(#pd1e47d2d99)" style="fill: none; stroke: #1f77b4; stroke-width: 1.5"/>
    <path d="M 617.327841 260.1975 
L 636.197614 260.1975 
" clip-path="url(#pd1e47d2d99)" style="fill: none; stroke: #1f77b4; stroke-width: 1.5"/>
    <path d="M 692.806932 322.4155 
L 711.676705 322.4155 
" clip-path="url(#pd1e47d2d99)" style="fill: none; stroke: #1f77b4; stroke-width: 1.5"/>
    <path d="M 768.286023 322.4155 
L 787.155795 322.4155 
" clip-path="url(#pd1e47d2d99)" style="fill: none; stroke: #1f77b4; stroke-width: 1.5"/>
   </g>
   <g id="patch_3">
    <path d="M 22.93 337.97 
L 22.93 26.88 
" style="fill: none; stroke: #000000; stroke-width: 0.8; stroke-linejoin: miter; stroke-linecap: square"/>
   </g>
   <g id="patch_4">
    <path d="M 853.2 337.97 
L 853.2 26.88 
" style="fill: none; stroke: #000000; stroke-width: 0.8; stroke-linejoin: miter; stroke-linecap: square"/>
   </g>
   <g id="patch_5">
    <path d="M 22.93 337.97 
L 853.2 337.97 
" style="fill: none; stroke: #000000; stroke-width: 0.8; stroke-linejoin: miter; stroke-linecap: square"/>
   </g>
   <g id="patch_6">
    <path d="M 22.93 26.88 
L 853.2 26.88 
" style="fill: none; stroke: #000000; stroke-width: 0.8; stroke-linejoin: miter; stroke-linecap: square"/>
   </g>
   <g id="text_16">
    <!-- Wins - turns: 200, repetitions: 100, strategies: 10.  -->
    <g transform="translate(286.363438 20.88)scale(0.12 -0.12)">
     <defs>
      <path id="DejaVuSans-57" d="M 213 4666 
L 850 4666 
L 1831 722 
L 2809 4666 
L 3519 4666 
L 4500 722 
L 5478 4666 
L 6119 4666 
L 4947 0 
L 4153 0 
L 3169 4050 
L 2175 0 
L 1381 0 
L 213 4666 
z
" transform="scale(0.015625)"/>
      <path id="DejaVuSans-2d" d="M 313 2009 
L 1997 2009 
L 1997 1497 
L 313 1497 
L 313 2009 
z
" transform="scale(0.015625)"/>
      <path id="DejaVuSans-2c" d="M 750 794 
L 1409 794 
L 1409 256 
L 897 -744 
L 494 -744 
L 750 256 
L 750 794 
z
" transform="scale(0.015625)"/>
      <path id="DejaVuSans-31" d="M 794 531 
L 1825 531 
L 1825 4091 
L 703 3866 
L 703 4441 
L 1819 4666 
L 2450 4666 
L 2450 531 
L 3481 531 
L 3481 0 
L 794 0 
L 794 531 
z
" transform="scale(0.015625)"/>
     </defs>
     <use xlink:href="#DejaVuSans-57"/>
     <use xlink:href="#DejaVuSans-69" x="96.626953"/>
     <use xlink:href="#DejaVuSans-6e" x="124.410156"/>
     <use xlink:href="#DejaVuSans-73" x="187.789062"/>
     <use xlink:href="#DejaVuSans-20" x="239.888672"/>
     <use xlink:href="#DejaVuSans-2d" x="271.675781"/>
     <use xlink:href="#DejaVuSans-20" x="307.759766"/>
     <use xlink:href="#DejaVuSans-74" x="339.546875"/>
     <use xlink:href="#DejaVuSans-75" x="378.755859"/>
     <use xlink:href="#DejaVuSans-72" x="442.134766"/>
     <use xlink:href="#DejaVuSans-6e" x="481.498047"/>
     <use xlink:href="#DejaVuSans-73" x="544.876953"/>
     <use xlink:href="#DejaVuSans-3a" x="596.976562"/>
     <use xlink:href="#DejaVuSans-20" x="630.667969"/>
     <use xlink:href="#DejaVuSans-32" x="662.455078"/>
     <use xlink:href="#DejaVuSans-30" x="726.078125"/>
     <use xlink:href="#DejaVuSans-30" x="789.701172"/>
     <use xlink:href="#DejaVuSans-2c" x="853.324219"/>
     <use xlink:href="#DejaVuSans-20" x="885.111328"/>
     <use xlink:href="#DejaVuSans-72" x="916.898438"/>
     <use xlink:href="#DejaVuSans-65" x="955.761719"/>
     <use xlink:href="#DejaVuSans-70" x="1017.285156"/>
     <use xlink:href="#DejaVuSans-65" x="1080.761719"/>
     <use xlink:href="#DejaVuSans-74" x="1142.285156"/>
     <use xlink:href="#DejaVuSans-69" x="1181.494141"/>
     <use xlink:href="#DejaVuSans-74" x="1209.277344"/>
     <use xlink:href="#DejaVuSans-69" x="1248.486328"/>
     <use xlink:href="#DejaVuSans-6f" x="1276.269531"/>
     <use xlink:href="#DejaVuSans-6e" x="1337.451172"/>
     <use xlink:href="#DejaVuSans-73" x="1400.830078"/>
     <use xlink:href="#DejaVuSans-3a" x="1452.929688"/>
     <use xlink:href="#DejaVuSans-20" x="1486.621094"/>
     <use xlink:href="#DejaVuSans-31" x="1518.408203"/>
     <use xlink:href="#DejaVuSans-30" x="1582.03125"/>
     <use xlink:href="#DejaVuSans-30" x="1645.654297"/>
     <use xlink:href="#DejaVuSans-2c" x="1709.277344"/>
     <use xlink:href="#DejaVuSans-20" x="1741.064453"/>
     <use xlink:href="#DejaVuSans-73" x="1772.851562"/>
     <use xlink:href="#DejaVuSans-74" x="1824.951172"/>
     <use xlink:href="#DejaVuSans-72" x="1864.160156"/>
     <use xlink:href="#DejaVuSans-61" x="1905.273438"/>
     <use xlink:href="#DejaVuSans-74" x="1966.552734"/>
     <use xlink:href="#DejaVuSans-65" x="2005.761719"/>
     <use xlink:href="#DejaVuSans-67" x="2067.285156"/>
     <use xlink:href="#DejaVuSans-69" x="2130.761719"/>
     <use xlink:href="#DejaVuSans-65" x="2158.544922"/>
     <use xlink:href="#DejaVuSans-73" x="2220.068359"/>
     <use xlink:href="#DejaVuSans-3a" x="2272.167969"/>
     <use xlink:href="#DejaVuSans-20" x="2305.859375"/>
     <use xlink:href="#DejaVuSans-31" x="2337.646484"/>
     <use xlink:href="#DejaVuSans-30" x="2401.269531"/>
     <use xlink:href="#DejaVuSans-2e" x="2464.892578"/>
     <use xlink:href="#DejaVuSans-20" x="2496.679688"/>
    </g>
   </g>
  </g>
 </g>
 <defs>
  <clipPath id="pd1e47d2d99">
   <rect x="22.93" y="26.88" width="830.27" height="311.09"/>
  </clipPath>
 </defs>
</svg>
