<?xml version="1.0" encoding="utf-8" standalone="no"?>
<!DOCTYPE svg PUBLIC "-//W3C//DTD SVG 1.1//EN"
  "http://www.w3.org/Graphics/SVG/1.1/DTD/svg11.dtd">
<svg xmlns:xlink="http://www.w3.org/1999/xlink" width="864pt" height="432pt" viewBox="0 0 864 432" xmlns="http://www.w3.org/2000/svg" version="1.1">
 <metadata>
  <rdf:RDF xmlns:dc="http://purl.org/dc/elements/1.1/" xmlns:cc="http://creativecommons.org/ns#" xmlns:rdf="http://www.w3.org/1999/02/22-rdf-syntax-ns#">
   <cc:Work>
    <dc:type rdf:resource="http://purl.org/dc/dcmitype/StillImage"/>
    <dc:date>2022-09-19T20:24:49.958981</dc:date>
    <dc:format>image/svg+xml</dc:format>
    <dc:creator>
     <cc:Agent>
      <dc:title>Matplotlib v3.5.1, https://matplotlib.org/</dc:title>
     </cc:Agent>
    </dc:creator>
   </cc:Work>
  </rdf:RDF>
 </metadata>
 <defs>
  <style type="text/css">*{stroke-linejoin: round; stroke-linecap: butt}</style>
 </defs>
 <g id="figure_1">
  <g id="patch_1">
   <path d="M 0 432 
L 864 432 
L 864 0 
L 0 0 
z
" style="fill: #ffffff"/>
  </g>
  <g id="axes_1">
   <g id="patch_2">
    <path d="M 29.68 337.97 
L 853.2 337.97 
L 853.2 26.88 
L 29.68 26.88 
z
" style="fill: #ffffff"/>
   </g>
   <g id="PolyCollection_1">
    <path d="M 122.965161 183.839045 
L 86.125748 183.839045 
L 85.842107 182.453567 
L 85.829091 181.068088 
L 86.079096 179.682609 
L 86.571618 178.29713 
L 87.274981 176.911651 
L 88.148914 175.526172 
L 89.147697 174.140693 
L 90.22355 172.755214 
L 91.329923 171.369736 
L 92.424385 169.984257 
L 93.470895 168.598778 
L 94.441288 167.213299 
L 95.315959 165.82782 
L 96.083776 164.442341 
L 96.741352 163.056862 
L 97.291836 161.671383 
L 97.743422 160.285904 
L 98.107741 158.900426 
L 98.39831 157.514947 
L 98.629151 156.129468 
L 98.813658 154.743989 
L 98.963736 153.35851 
L 99.089237 151.973031 
L 99.197636 150.587552 
L 99.293934 149.202073 
L 99.380718 147.816595 
L 99.458349 146.431116 
L 99.525231 145.045637 
L 99.578133 143.660158 
L 99.61255 142.274679 
L 99.623093 140.8892 
L 99.603902 139.503721 
L 99.54909 138.118242 
L 99.453213 136.732764 
L 99.311761 135.347285 
L 99.121657 133.961806 
L 98.881747 132.576327 
L 98.593239 131.190848 
L 98.260058 129.805369 
L 97.889065 128.41989 
L 97.490108 127.034411 
L 97.075847 125.648933 
L 96.661354 124.263454 
L 96.263471 122.877975 
L 95.899958 121.492496 
L 95.588484 120.107017 
L 95.345527 118.721538 
L 95.185288 117.336059 
L 95.118711 115.95058 
L 95.152706 114.565101 
L 95.289652 113.179623 
L 95.527239 111.794144 
L 95.858654 110.408665 
L 96.273103 109.023186 
L 96.756607 107.637707 
L 97.29299 106.252228 
L 97.864966 104.866749 
L 98.455217 103.48127 
L 99.047366 102.095792 
L 99.626776 100.710313 
L 100.18111 99.324834 
L 100.700647 97.939355 
L 101.178344 96.553876 
L 101.609683 95.168397 
L 101.992341 93.782918 
L 102.32575 92.397439 
L 102.610593 91.011961 
L 102.848296 89.626482 
L 103.040573 88.241003 
L 103.189042 86.855524 
L 103.294951 85.470045 
L 103.359028 84.084566 
L 103.381452 82.699087 
L 103.361951 81.313608 
L 103.300009 79.928129 
L 103.195171 78.542651 
L 103.04741 77.157172 
L 102.857536 75.771693 
L 102.627595 74.386214 
L 102.361237 73.000735 
L 102.063972 71.615256 
L 101.74331 70.229777 
L 101.40872 68.844298 
L 101.071402 67.45882 
L 100.743859 66.073341 
L 100.439289 64.687862 
L 100.170839 63.302383 
L 99.950779 61.916904 
L 99.789675 60.531425 
L 99.695634 59.145946 
L 99.67371 57.760467 
L 99.725535 56.374989 
L 99.849202 54.98951 
L 100.039432 53.604031 
L 100.287994 52.218552 
L 100.584341 50.833073 
L 100.91639 49.447594 
L 101.271361 48.062115 
L 101.636613 46.676636 
L 107.454296 46.676636 
L 107.454296 46.676636 
L 107.819548 48.062115 
L 108.174519 49.447594 
L 108.506568 50.833073 
L 108.802915 52.218552 
L 109.051477 53.604031 
L 109.241707 54.98951 
L 109.365374 56.374989 
L 109.417199 57.760467 
L 109.395275 59.145946 
L 109.301234 60.531425 
L 109.14013 61.916904 
L 108.92007 63.302383 
L 108.65162 64.687862 
L 108.34705 66.073341 
L 108.019507 67.45882 
L 107.682189 68.844298 
L 107.347599 70.229777 
L 107.026937 71.615256 
L 106.729672 73.000735 
L 106.463314 74.386214 
L 106.233374 75.771693 
L 106.043499 77.157172 
L 105.895738 78.542651 
L 105.7909 79.928129 
L 105.728958 81.313608 
L 105.709457 82.699087 
L 105.731881 84.084566 
L 105.795958 85.470045 
L 105.901867 86.855524 
L 106.050336 88.241003 
L 106.242613 89.626482 
L 106.480316 91.011961 
L 106.765159 92.397439 
L 107.098568 93.782918 
L 107.481226 95.168397 
L 107.912565 96.553876 
L 108.390262 97.939355 
L 108.909799 99.324834 
L 109.464133 100.710313 
L 110.043543 102.095792 
L 110.635692 103.48127 
L 111.225943 104.866749 
L 111.797919 106.252228 
L 112.334302 107.637707 
L 112.817806 109.023186 
L 113.232255 110.408665 
L 113.56367 111.794144 
L 113.801257 113.179623 
L 113.938203 114.565101 
L 113.972198 115.95058 
L 113.905621 117.336059 
L 113.745382 118.721538 
L 113.502425 120.107017 
L 113.190951 121.492496 
L 112.827438 122.877975 
L 112.429555 124.263454 
L 112.015062 125.648933 
L 111.600801 127.034411 
L 111.201844 128.41989 
L 110.830851 129.805369 
L 110.49767 131.190848 
L 110.209162 132.576327 
L 109.969252 133.961806 
L 109.779149 135.347285 
L 109.637696 136.732764 
L 109.54182 138.118242 
L 109.487008 139.503721 
L 109.467816 140.8892 
L 109.478359 142.274679 
L 109.512776 143.660158 
L 109.565678 145.045637 
L 109.63256 146.431116 
L 109.710191 147.816595 
L 109.796975 149.202073 
L 109.893273 150.587552 
L 110.001672 151.973031 
L 110.127173 153.35851 
L 110.277251 154.743989 
L 110.461758 156.129468 
L 110.6926 157.514947 
L 110.983168 158.900426 
L 111.347487 160.285904 
L 111.799073 161.671383 
L 112.349558 163.056862 
L 113.007133 164.442341 
L 113.77495 165.82782 
L 114.649621 167.213299 
L 115.620014 168.598778 
L 116.666524 169.984257 
L 117.760986 171.369736 
L 118.867359 172.755214 
L 119.943212 174.140693 
L 120.941995 175.526172 
L 121.815928 176.911651 
L 122.519292 178.29713 
L 123.011813 179.682609 
L 123.261818 181.068088 
L 123.248802 182.453567 
L 122.965161 183.839045 
z
" clip-path="url(#pca440708ac)" style="fill: #1f77b4; fill-opacity: 0.3"/>
   </g>
   <g id="PolyCollection_2">
    <path d="M 187.81971 183.839045 
L 171.002108 183.839045 
L 171.033801 183.824762 
L 171.128167 183.810479 
L 171.283086 183.796196 
L 171.495117 183.781912 
L 171.759621 183.767629 
L 172.070931 183.753346 
L 172.422553 183.739062 
L 172.807392 183.724779 
L 173.217986 183.710496 
L 173.646749 183.696213 
L 174.086193 183.681929 
L 174.529144 183.667646 
L 174.968921 183.653363 
L 175.399491 183.639079 
L 175.815581 183.624796 
L 176.212757 183.610513 
L 176.587461 183.59623 
L 176.937019 183.581946 
L 177.259608 183.567663 
L 177.554208 183.55338 
L 177.820522 183.539096 
L 178.058888 183.524813 
L 178.270175 183.51053 
L 178.455685 183.496247 
L 178.617045 183.481963 
L 178.756111 183.46768 
L 178.87488 183.453397 
L 178.975408 183.439113 
L 179.059744 183.42483 
L 179.129879 183.410547 
L 179.187699 183.396264 
L 179.234956 183.38198 
L 179.273252 183.367697 
L 179.304022 183.353414 
L 179.328538 183.33913 
L 179.347906 183.324847 
L 179.363081 183.310564 
L 179.374869 183.296281 
L 179.38395 183.281997 
L 179.390885 183.267714 
L 179.396132 183.253431 
L 179.400061 183.239147 
L 179.402969 183.224864 
L 179.405084 183.210581 
L 179.406584 183.196298 
L 179.407598 183.182014 
L 179.408216 183.167731 
L 179.408493 183.153448 
L 179.408451 183.139164 
L 179.40808 183.124881 
L 179.407336 183.110598 
L 179.406138 183.096315 
L 179.404362 183.082031 
L 179.401832 183.067748 
L 179.398308 183.053465 
L 179.393475 183.039181 
L 179.38692 183.024898 
L 179.378118 183.010615 
L 179.366404 182.996331 
L 179.350946 182.982048 
L 179.330718 182.967765 
L 179.304469 182.953482 
L 179.270687 182.939198 
L 179.227572 182.924915 
L 179.173003 182.910632 
L 179.104513 182.896348 
L 179.019274 182.882065 
L 178.914087 182.867782 
L 178.785392 182.853499 
L 178.629285 182.839215 
L 178.441567 182.824932 
L 178.217812 182.810649 
L 177.953455 182.796365 
L 177.64392 182.782082 
L 177.284764 182.767799 
L 176.871855 182.753516 
L 176.401571 182.739232 
L 175.871016 182.724949 
L 175.278252 182.710666 
L 174.622529 182.696382 
L 173.904508 182.682099 
L 173.126461 182.667816 
L 172.292441 182.653533 
L 171.408405 182.639249 
L 170.482269 182.624966 
L 169.523903 182.610683 
L 168.545044 182.596399 
L 167.559122 182.582116 
L 166.581004 182.567833 
L 165.626661 182.55355 
L 164.712757 182.539266 
L 163.85618 182.524983 
L 163.073538 182.5107 
L 162.380622 182.496416 
L 161.791887 182.482133 
L 161.319947 182.46785 
L 160.975128 182.453567 
L 160.765089 182.439283 
L 160.694545 182.425 
L 198.127273 182.425 
L 198.127273 182.425 
L 198.056729 182.439283 
L 197.846691 182.453567 
L 197.501871 182.46785 
L 197.029931 182.482133 
L 196.441196 182.496416 
L 195.748281 182.5107 
L 194.965638 182.524983 
L 194.109061 182.539266 
L 193.195157 182.55355 
L 192.240814 182.567833 
L 191.262697 182.582116 
L 190.276774 182.596399 
L 189.297915 182.610683 
L 188.33955 182.624966 
L 187.413413 182.639249 
L 186.529377 182.653533 
L 185.695358 182.667816 
L 184.91731 182.682099 
L 184.199289 182.696382 
L 183.543566 182.710666 
L 182.950802 182.724949 
L 182.420247 182.739232 
L 181.949963 182.753516 
L 181.537054 182.767799 
L 181.177898 182.782082 
L 180.868363 182.796365 
L 180.604006 182.810649 
L 180.380251 182.824932 
L 180.192533 182.839215 
L 180.036426 182.853499 
L 179.907731 182.867782 
L 179.802545 182.882065 
L 179.717306 182.896348 
L 179.648815 182.910632 
L 179.594246 182.924915 
L 179.551131 182.939198 
L 179.517349 182.953482 
L 179.4911 182.967765 
L 179.470873 182.982048 
L 179.455415 182.996331 
L 179.4437 183.010615 
L 179.434898 183.024898 
L 179.428344 183.039181 
L 179.42351 183.053465 
L 179.419986 183.067748 
L 179.417456 183.082031 
L 179.41568 183.096315 
L 179.414482 183.110598 
L 179.413738 183.124881 
L 179.413367 183.139164 
L 179.413325 183.153448 
L 179.413602 183.167731 
L 179.41422 183.182014 
L 179.415234 183.196298 
L 179.416734 183.210581 
L 179.418849 183.224864 
L 179.421757 183.239147 
L 179.425687 183.253431 
L 179.430934 183.267714 
L 179.437868 183.281997 
L 179.446949 183.296281 
L 179.458737 183.310564 
L 179.473912 183.324847 
L 179.493281 183.33913 
L 179.517796 183.353414 
L 179.548567 183.367697 
L 179.586862 183.38198 
L 179.634119 183.396264 
L 179.691939 183.410547 
L 179.762074 183.42483 
L 179.846411 183.439113 
L 179.946938 183.453397 
L 180.065707 183.46768 
L 180.204774 183.481963 
L 180.366134 183.496247 
L 180.551643 183.51053 
L 180.762931 183.524813 
L 181.001296 183.539096 
L 181.26761 183.55338 
L 181.56221 183.567663 
L 181.8848 183.581946 
L 182.234357 183.59623 
L 182.609061 183.610513 
L 183.006237 183.624796 
L 183.422327 183.639079 
L 183.852897 183.653363 
L 184.292675 183.667646 
L 184.735625 183.681929 
L 185.175069 183.696213 
L 185.603832 183.710496 
L 186.014427 183.724779 
L 186.399265 183.739062 
L 186.750888 183.753346 
L 187.062197 183.767629 
L 187.326701 183.781912 
L 187.538732 183.796196 
L 187.693652 183.810479 
L 187.788017 183.824762 
L 187.81971 183.839045 
z
" clip-path="url(#pca440708ac)" style="fill: #1f77b4; fill-opacity: 0.3"/>
   </g>
   <g id="PolyCollection_3">
    <path d="M 259.511896 308.275045 
L 249.040832 308.275045 
L 249.034727 305.661204 
L 249.146279 303.047362 
L 249.367759 300.433521 
L 249.684298 297.819679 
L 250.075461 295.205837 
L 250.517338 292.591996 
L 250.98485 289.978154 
L 251.453953 287.364313 
L 251.903498 284.750471 
L 252.31654 282.136629 
L 252.681046 279.522788 
L 252.990004 276.908946 
L 253.241042 274.295105 
L 253.435705 271.681263 
L 253.578536 269.067421 
L 253.676117 266.45358 
L 253.736167 263.839738 
L 253.766752 261.225897 
L 253.775647 258.612055 
L 253.769826 255.998213 
L 253.755051 253.384372 
L 253.735537 250.77053 
L 253.713642 248.156689 
L 253.689569 245.542847 
L 253.661072 242.929006 
L 253.623156 240.315164 
L 253.567805 237.701322 
L 253.483789 235.087481 
L 253.356594 232.473639 
L 253.168587 229.859798 
L 252.899502 227.245956 
L 252.527349 224.632114 
L 252.029825 222.018273 
L 251.386258 219.404431 
L 250.580023 216.79059 
L 249.601271 214.176748 
L 248.449713 211.562906 
L 247.137071 208.949065 
L 245.688764 206.335223 
L 244.144408 203.721382 
L 242.556778 201.10754 
L 240.989063 198.493698 
L 239.510494 195.879857 
L 238.190688 193.266015 
L 237.09332 190.652174 
L 236.269889 188.038332 
L 235.754441 185.42449 
L 235.56 182.810649 
L 235.677217 180.196807 
L 236.075464 177.582966 
L 236.706174 174.969124 
L 237.507926 172.355282 
L 238.412519 169.741441 
L 239.351187 167.127599 
L 240.26017 164.513758 
L 241.085056 161.899916 
L 241.783586 159.286074 
L 242.326909 156.672233 
L 242.69953 154.058391 
L 242.898335 151.44455 
L 242.931138 148.830708 
L 242.815084 146.216866 
L 242.575145 143.603025 
L 242.242744 140.989183 
L 241.854416 138.375342 
L 241.450315 135.7615 
L 241.072415 133.147658 
L 240.762283 130.533817 
L 240.558482 127.919975 
L 240.493771 125.306134 
L 240.59243 122.692292 
L 240.868041 120.07845 
L 241.322111 117.464609 
L 241.94375 114.850767 
L 242.710521 112.236926 
L 243.590372 109.623084 
L 244.544396 107.009242 
L 245.530069 104.395401 
L 246.504538 101.781559 
L 247.427601 99.167718 
L 248.264077 96.553876 
L 248.985412 93.940034 
L 249.570526 91.326193 
L 250.005992 88.712351 
L 250.285757 86.09851 
L 250.410614 83.484668 
L 250.387618 80.870826 
L 250.229561 78.256985 
L 249.954546 75.643143 
L 249.585575 73.029302 
L 249.150041 70.41546 
L 248.678953 67.801618 
L 248.205772 65.187777 
L 247.764794 62.573935 
L 247.389129 59.960094 
L 247.108424 57.346252 
L 246.946575 54.73241 
L 246.919745 52.118569 
L 247.034969 49.504727 
L 261.517758 49.504727 
L 261.517758 49.504727 
L 261.632982 52.118569 
L 261.606152 54.73241 
L 261.444303 57.346252 
L 261.163598 59.960094 
L 260.787934 62.573935 
L 260.346956 65.187777 
L 259.873774 67.801618 
L 259.402686 70.41546 
L 258.967152 73.029302 
L 258.598182 75.643143 
L 258.323166 78.256985 
L 258.16511 80.870826 
L 258.142113 83.484668 
L 258.26697 86.09851 
L 258.546735 88.712351 
L 258.982201 91.326193 
L 259.567315 93.940034 
L 260.288651 96.553876 
L 261.125126 99.167718 
L 262.04819 101.781559 
L 263.022659 104.395401 
L 264.008331 107.009242 
L 264.962356 109.623084 
L 265.842206 112.236926 
L 266.608977 114.850767 
L 267.230616 117.464609 
L 267.684686 120.07845 
L 267.960297 122.692292 
L 268.058956 125.306134 
L 267.994246 127.919975 
L 267.790444 130.533817 
L 267.480312 133.147658 
L 267.102412 135.7615 
L 266.698311 138.375342 
L 266.309983 140.989183 
L 265.977582 143.603025 
L 265.737643 146.216866 
L 265.621589 148.830708 
L 265.654392 151.44455 
L 265.853198 154.058391 
L 266.225818 156.672233 
L 266.769141 159.286074 
L 267.467671 161.899916 
L 268.292558 164.513758 
L 269.20154 167.127599 
L 270.140208 169.741441 
L 271.044802 172.355282 
L 271.846554 174.969124 
L 272.477263 177.582966 
L 272.87551 180.196807 
L 272.992727 182.810649 
L 272.798286 185.42449 
L 272.282839 188.038332 
L 271.459407 190.652174 
L 270.362039 193.266015 
L 269.042234 195.879857 
L 267.563664 198.493698 
L 265.995949 201.10754 
L 264.408319 203.721382 
L 262.863964 206.335223 
L 261.415657 208.949065 
L 260.103014 211.562906 
L 258.951456 214.176748 
L 257.972704 216.79059 
L 257.166469 219.404431 
L 256.522902 222.018273 
L 256.025379 224.632114 
L 255.653225 227.245956 
L 255.38414 229.859798 
L 255.196133 232.473639 
L 255.068938 235.087481 
L 254.984922 237.701322 
L 254.929572 240.315164 
L 254.891655 242.929006 
L 254.863158 245.542847 
L 254.839086 248.156689 
L 254.81719 250.77053 
L 254.797676 253.384372 
L 254.782901 255.998213 
L 254.77708 258.612055 
L 254.785975 261.225897 
L 254.81656 263.839738 
L 254.87661 266.45358 
L 254.974192 269.067421 
L 255.117023 271.681263 
L 255.311685 274.295105 
L 255.562723 276.908946 
L 255.871681 279.522788 
L 256.236187 282.136629 
L 256.649229 284.750471 
L 257.098774 287.364313 
L 257.567877 289.978154 
L 258.035389 292.591996 
L 258.477266 295.205837 
L 258.868429 297.819679 
L 259.184968 300.433521 
L 259.406448 303.047362 
L 259.518 305.661204 
L 259.511896 308.275045 
z
" clip-path="url(#pca440708ac)" style="fill: #1f77b4; fill-opacity: 0.3"/>
   </g>
   <g id="PolyCollection_4">
    <path d="M 337.891197 268.681773 
L 320.39244 268.681773 
L 319.194352 266.896362 
L 317.970546 265.110951 
L 316.748934 263.32554 
L 315.560396 261.540129 
L 314.437558 259.754718 
L 313.413338 257.969307 
L 312.519364 256.183896 
L 311.784366 254.398485 
L 311.232649 252.613074 
L 310.882757 250.827663 
L 310.74644 249.042253 
L 310.827985 247.256842 
L 311.123979 245.471431 
L 311.623492 243.68602 
L 312.308695 241.900609 
L 313.155816 240.115198 
L 314.136398 238.329787 
L 315.21871 236.544376 
L 316.369242 234.758965 
L 317.554138 232.973554 
L 318.740493 231.188143 
L 319.89742 229.402732 
L 320.996833 227.617321 
L 322.013935 225.83191 
L 322.927404 224.0465 
L 323.719331 222.261089 
L 324.374957 220.475678 
L 324.882309 218.690267 
L 325.231807 216.904856 
L 325.415961 215.119445 
L 325.429208 213.334034 
L 325.267986 211.548623 
L 324.931046 209.763212 
L 324.420022 207.977801 
L 323.740199 206.19239 
L 322.901388 204.406979 
L 321.918798 202.621568 
L 320.81375 200.836157 
L 319.614065 199.050747 
L 318.354006 197.265336 
L 317.073638 195.479925 
L 315.817572 193.694514 
L 314.633098 191.909103 
L 313.567801 190.123692 
L 312.666841 188.338281 
L 311.97011 186.55287 
L 311.509551 184.767459 
L 311.306892 182.982048 
L 311.372048 181.196637 
L 311.702347 179.411226 
L 312.282693 177.625815 
L 313.086623 175.840404 
L 314.078164 174.054994 
L 315.214289 172.269583 
L 316.447708 170.484172 
L 317.729734 168.698761 
L 319.012946 166.91335 
L 320.253438 165.127939 
L 321.412502 163.342528 
L 322.457676 161.557117 
L 323.363158 159.771706 
L 324.109683 157.986295 
L 324.683976 156.200884 
L 325.077962 154.415473 
L 325.287882 152.630062 
L 325.313477 150.844652 
L 325.157349 149.059241 
L 324.82457 147.27383 
L 324.322566 145.488419 
L 323.661245 143.703008 
L 322.85331 141.917597 
L 321.914657 140.132186 
L 320.864759 138.346775 
L 319.726909 136.561364 
L 318.528244 134.775953 
L 317.299461 132.990542 
L 316.07419 131.205131 
L 314.888024 129.41972 
L 313.777242 127.634309 
L 312.777314 125.848899 
L 311.921271 124.063488 
L 311.238089 122.278077 
L 310.751207 120.492666 
L 310.477309 118.707255 
L 310.425455 116.921844 
L 310.596665 115.136433 
L 310.98396 113.351022 
L 311.572868 111.565611 
L 312.342343 109.7802 
L 313.266031 107.994789 
L 314.313758 106.209378 
L 315.453149 104.423967 
L 316.651244 102.638556 
L 317.876017 100.853146 
L 319.097692 99.067735 
L 320.28981 97.282324 
L 321.429988 95.496913 
L 322.500372 93.711502 
L 323.487791 91.926091 
L 334.795846 91.926091 
L 334.795846 91.926091 
L 335.783264 93.711502 
L 336.853649 95.496913 
L 337.993826 97.282324 
L 339.185944 99.067735 
L 340.40762 100.853146 
L 341.632392 102.638556 
L 342.830487 104.423967 
L 343.969878 106.209378 
L 345.017605 107.994789 
L 345.941293 109.7802 
L 346.710769 111.565611 
L 347.299676 113.351022 
L 347.686972 115.136433 
L 347.858182 116.921844 
L 347.806328 118.707255 
L 347.532429 120.492666 
L 347.045548 122.278077 
L 346.362365 124.063488 
L 345.506322 125.848899 
L 344.506394 127.634309 
L 343.395613 129.41972 
L 342.209446 131.205131 
L 340.984175 132.990542 
L 339.755393 134.775953 
L 338.556728 136.561364 
L 337.418878 138.346775 
L 336.368979 140.132186 
L 335.430326 141.917597 
L 334.622391 143.703008 
L 333.96107 145.488419 
L 333.459066 147.27383 
L 333.126287 149.059241 
L 332.970159 150.844652 
L 332.995755 152.630062 
L 333.205674 154.415473 
L 333.59966 156.200884 
L 334.173953 157.986295 
L 334.920478 159.771706 
L 335.82596 161.557117 
L 336.871134 163.342528 
L 338.030198 165.127939 
L 339.27069 166.91335 
L 340.553902 168.698761 
L 341.835928 170.484172 
L 343.069348 172.269583 
L 344.205473 174.054994 
L 345.197014 175.840404 
L 346.000943 177.625815 
L 346.581289 179.411226 
L 346.911588 181.196637 
L 346.976744 182.982048 
L 346.774086 184.767459 
L 346.313527 186.55287 
L 345.616796 188.338281 
L 344.715835 190.123692 
L 343.650538 191.909103 
L 342.466064 193.694514 
L 341.209998 195.479925 
L 339.929631 197.265336 
L 338.669571 199.050747 
L 337.469887 200.836157 
L 336.364838 202.621568 
L 335.382249 204.406979 
L 334.543437 206.19239 
L 333.863614 207.977801 
L 333.352591 209.763212 
L 333.015651 211.548623 
L 332.854428 213.334034 
L 332.867676 215.119445 
L 333.051829 216.904856 
L 333.401328 218.690267 
L 333.908679 220.475678 
L 334.564306 222.261089 
L 335.356233 224.0465 
L 336.269702 225.83191 
L 337.286803 227.617321 
L 338.386216 229.402732 
L 339.543143 231.188143 
L 340.729499 232.973554 
L 341.914395 234.758965 
L 343.064926 236.544376 
L 344.147239 238.329787 
L 345.12782 240.115198 
L 345.974942 241.900609 
L 346.660144 243.68602 
L 347.159658 245.471431 
L 347.455651 247.256842 
L 347.537197 249.042253 
L 347.400879 250.827663 
L 347.050987 252.613074 
L 346.49927 254.398485 
L 345.764273 256.183896 
L 344.870299 257.969307 
L 343.846078 259.754718 
L 342.72324 261.540129 
L 341.534703 263.32554 
L 340.31309 265.110951 
L 339.089285 266.896362 
L 337.891197 268.681773 
z
" clip-path="url(#pca440708ac)" style="fill: #1f77b4; fill-opacity: 0.3"/>
   </g>
   <g id="PolyCollection_5">
    <path d="M 421.82906 182.425 
L 386.185485 182.425 
L 385.674414 180.996671 
L 385.374637 179.568343 
L 385.290909 178.140014 
L 385.41908 176.711685 
L 385.746468 175.283356 
L 386.252803 173.855028 
L 386.911659 172.426699 
L 387.69223 170.99837 
L 388.561318 169.570041 
L 389.485341 168.141713 
L 390.432212 166.713384 
L 391.372952 165.285055 
L 392.282923 163.856726 
L 393.14263 162.428398 
L 393.938069 161.000069 
L 394.660646 159.57174 
L 395.306726 158.143411 
L 395.876894 156.715083 
L 396.375025 155.286754 
L 396.807264 153.858425 
L 397.181011 152.430096 
L 397.503985 151.001768 
L 397.783422 149.573439 
L 398.025463 148.14511 
L 398.234726 146.716781 
L 398.414078 145.288453 
L 398.564589 143.860124 
L 398.685646 142.431795 
L 398.775195 141.003466 
L 398.830085 139.575138 
L 398.846495 138.146809 
L 398.820397 136.71848 
L 398.748053 135.290152 
L 398.626511 133.861823 
L 398.454081 132.433494 
L 398.230768 131.005165 
L 397.958634 129.576837 
L 397.642062 128.148508 
L 397.287903 126.720179 
L 396.905465 125.29185 
L 396.50635 123.863522 
L 396.104103 122.435193 
L 395.713703 121.006864 
L 395.350905 119.578535 
L 395.031462 118.150207 
L 394.770294 116.721878 
L 394.58065 115.293549 
L 394.473332 113.86522 
L 394.456053 112.436892 
L 394.532967 111.008563 
L 394.704436 109.580234 
L 394.967027 108.151905 
L 395.313763 106.723577 
L 395.734582 105.295248 
L 396.216982 103.866919 
L 396.746778 102.43859 
L 397.308914 101.010262 
L 397.888269 99.581933 
L 398.470385 98.153604 
L 399.042092 96.725275 
L 399.59197 95.296947 
L 400.110658 93.868618 
L 400.590993 92.440289 
L 401.028004 91.011961 
L 401.418775 89.583632 
L 401.762215 88.155303 
L 402.058761 86.726974 
L 402.310046 85.298646 
L 402.518556 83.870317 
L 402.687301 82.441988 
L 402.819512 81.013659 
L 402.918377 79.585331 
L 402.986816 78.157002 
L 403.027316 76.728673 
L 403.0418 75.300344 
L 403.031564 73.872016 
L 402.997249 72.443687 
L 402.938885 71.015358 
L 402.855975 69.587029 
L 402.747634 68.158701 
L 402.612788 66.730372 
L 402.450407 65.302043 
L 402.259774 63.873714 
L 402.040774 62.445386 
L 401.794188 61.017057 
L 401.521951 59.588728 
L 401.22737 58.160399 
L 400.915259 56.732071 
L 400.59198 55.303742 
L 400.265361 53.875413 
L 399.944479 52.447084 
L 399.639331 51.018756 
L 399.36037 49.590427 
L 399.117971 48.162098 
L 398.921833 46.73377 
L 398.780386 45.305441 
L 398.700237 43.877112 
L 398.685717 42.448783 
L 398.738563 41.020455 
L 409.275982 41.020455 
L 409.275982 41.020455 
L 409.328828 42.448783 
L 409.314308 43.877112 
L 409.234159 45.305441 
L 409.092712 46.73377 
L 408.896575 48.162098 
L 408.654176 49.590427 
L 408.375215 51.018756 
L 408.070066 52.447084 
L 407.749185 53.875413 
L 407.422565 55.303742 
L 407.099287 56.732071 
L 406.787176 58.160399 
L 406.492594 59.588728 
L 406.220357 61.017057 
L 405.973771 62.445386 
L 405.754772 63.873714 
L 405.564138 65.302043 
L 405.401757 66.730372 
L 405.266912 68.158701 
L 405.158571 69.587029 
L 405.07566 71.015358 
L 405.017296 72.443687 
L 404.982982 73.872016 
L 404.972745 75.300344 
L 404.98723 76.728673 
L 405.027729 78.157002 
L 405.096169 79.585331 
L 405.195033 81.013659 
L 405.327244 82.441988 
L 405.495989 83.870317 
L 405.704499 85.298646 
L 405.955784 86.726974 
L 406.25233 88.155303 
L 406.59577 89.583632 
L 406.986541 91.011961 
L 407.423552 92.440289 
L 407.903888 93.868618 
L 408.422576 95.296947 
L 408.972454 96.725275 
L 409.544161 98.153604 
L 410.126277 99.581933 
L 410.705631 101.010262 
L 411.267767 102.43859 
L 411.797563 103.866919 
L 412.279964 105.295248 
L 412.700783 106.723577 
L 413.047518 108.151905 
L 413.31011 109.580234 
L 413.481578 111.008563 
L 413.558493 112.436892 
L 413.541213 113.86522 
L 413.433896 115.293549 
L 413.244252 116.721878 
L 412.983084 118.150207 
L 412.663641 119.578535 
L 412.300842 121.006864 
L 411.910442 122.435193 
L 411.508195 123.863522 
L 411.10908 125.29185 
L 410.726643 126.720179 
L 410.372484 128.148508 
L 410.055912 129.576837 
L 409.783777 131.005165 
L 409.560464 132.433494 
L 409.388034 133.861823 
L 409.266492 135.290152 
L 409.194148 136.71848 
L 409.16805 138.146809 
L 409.18446 139.575138 
L 409.239351 141.003466 
L 409.328899 142.431795 
L 409.449956 143.860124 
L 409.600467 145.288453 
L 409.779819 146.716781 
L 409.989082 148.14511 
L 410.231123 149.573439 
L 410.510561 151.001768 
L 410.833534 152.430096 
L 411.207282 153.858425 
L 411.639521 155.286754 
L 412.137651 156.715083 
L 412.707819 158.143411 
L 413.3539 159.57174 
L 414.076477 161.000069 
L 414.871916 162.428398 
L 415.731623 163.856726 
L 416.641593 165.285055 
L 417.582333 166.713384 
L 418.529205 168.141713 
L 419.453228 169.570041 
L 420.322316 170.99837 
L 421.102886 172.426699 
L 421.761742 173.855028 
L 422.268078 175.283356 
L 422.595466 176.711685 
L 422.723636 178.140014 
L 422.639908 179.568343 
L 422.340132 180.996671 
L 421.82906 182.425 
z
" clip-path="url(#pca440708ac)" style="fill: #1f77b4; fill-opacity: 0.3"/>
   </g>
   <g id="PolyCollection_6">
    <path d="M 481.427025 322.4155 
L 476.31843 322.4155 
L 476.045658 319.573126 
L 475.816825 316.730752 
L 475.645119 313.888377 
L 475.539803 311.046003 
L 475.505048 308.203629 
L 475.539341 305.361255 
L 475.635538 302.518881 
L 475.781542 299.676506 
L 475.961492 296.834132 
L 476.157252 293.991758 
L 476.350006 291.149384 
L 476.52175 288.30701 
L 476.656568 285.464635 
L 476.741607 282.622261 
L 476.767782 279.779887 
L 476.730239 276.937513 
L 476.628633 274.095139 
L 476.467242 271.252764 
L 476.254891 268.41039 
L 476.004626 265.568016 
L 475.733048 262.725642 
L 475.459255 259.883268 
L 475.203367 257.040893 
L 474.984704 254.198519 
L 474.819788 251.356145 
L 474.720373 248.513771 
L 474.691753 245.671397 
L 474.731565 242.829022 
L 474.829225 239.986648 
L 474.966048 237.144274 
L 475.115996 234.3019 
L 475.24695 231.459526 
L 475.322375 228.617152 
L 475.303294 225.774777 
L 475.150543 222.932403 
L 474.827364 220.090029 
L 474.3024 217.247655 
L 473.553108 214.405281 
L 472.569483 211.562906 
L 471.357769 208.720532 
L 469.943608 205.878158 
L 468.373925 203.035784 
L 466.716775 200.19341 
L 465.058566 197.351035 
L 463.498372 194.508661 
L 462.139613 191.666287 
L 461.079912 188.823913 
L 460.40044 185.981539 
L 460.156364 183.139164 
L 460.369942 180.29679 
L 461.02749 177.454416 
L 462.080751 174.612042 
L 463.452477 171.769668 
L 465.045277 168.927293 
L 466.75228 166.084919 
L 468.467952 163.242545 
L 470.097563 160.400171 
L 471.564207 157.557797 
L 472.812851 154.715422 
L 473.811447 151.873048 
L 474.54963 149.030674 
L 475.035721 146.1883 
L 475.292847 143.345926 
L 475.354825 140.503551 
L 475.262269 137.661177 
L 475.059121 134.818803 
L 474.789649 131.976429 
L 474.495863 129.134055 
L 474.215285 126.29168 
L 473.979078 123.449306 
L 473.810582 120.606932 
L 473.724388 117.764558 
L 473.72606 114.922184 
L 473.812576 112.079809 
L 473.973461 109.237435 
L 474.192511 106.395061 
L 474.449885 103.552687 
L 474.724312 100.710313 
L 474.995158 97.867938 
L 475.244129 95.025564 
L 475.45649 92.18319 
L 475.62175 89.340816 
L 475.733877 86.498442 
L 475.79114 83.656067 
L 475.79572 80.813693 
L 475.753222 77.971319 
L 475.672163 75.128945 
L 475.563467 72.286571 
L 475.43995 69.444197 
L 475.315731 66.601822 
L 475.205508 63.759448 
L 475.12367 60.917074 
L 475.083248 58.0747 
L 475.094814 55.232326 
L 475.165436 52.389951 
L 475.29789 49.547577 
L 475.490251 46.705203 
L 475.736006 43.862829 
L 476.024687 41.020455 
L 481.720767 41.020455 
L 481.720767 41.020455 
L 482.009448 43.862829 
L 482.255204 46.705203 
L 482.447565 49.547577 
L 482.580018 52.389951 
L 482.650641 55.232326 
L 482.662206 58.0747 
L 482.621785 60.917074 
L 482.539946 63.759448 
L 482.429724 66.601822 
L 482.305504 69.444197 
L 482.181987 72.286571 
L 482.073291 75.128945 
L 481.992232 77.971319 
L 481.949735 80.813693 
L 481.954315 83.656067 
L 482.011577 86.498442 
L 482.123704 89.340816 
L 482.288965 92.18319 
L 482.501325 95.025564 
L 482.750296 97.867938 
L 483.021143 100.710313 
L 483.29557 103.552687 
L 483.552944 106.395061 
L 483.771993 109.237435 
L 483.932878 112.079809 
L 484.019394 114.922184 
L 484.021067 117.764558 
L 483.934873 120.606932 
L 483.766376 123.449306 
L 483.530169 126.29168 
L 483.249592 129.134055 
L 482.955805 131.976429 
L 482.686333 134.818803 
L 482.483185 137.661177 
L 482.39063 140.503551 
L 482.452608 143.345926 
L 482.709733 146.1883 
L 483.195824 149.030674 
L 483.934007 151.873048 
L 484.932604 154.715422 
L 486.181247 157.557797 
L 487.647892 160.400171 
L 489.277503 163.242545 
L 490.993175 166.084919 
L 492.700178 168.927293 
L 494.292978 171.769668 
L 495.664703 174.612042 
L 496.717964 177.454416 
L 497.375512 180.29679 
L 497.589091 183.139164 
L 497.345014 185.981539 
L 496.665542 188.823913 
L 495.605841 191.666287 
L 494.247083 194.508661 
L 492.686889 197.351035 
L 491.028679 200.19341 
L 489.37153 203.035784 
L 487.801846 205.878158 
L 486.387686 208.720532 
L 485.175972 211.562906 
L 484.192347 214.405281 
L 483.443055 217.247655 
L 482.918091 220.090029 
L 482.594912 222.932403 
L 482.442161 225.774777 
L 482.423079 228.617152 
L 482.498505 231.459526 
L 482.629459 234.3019 
L 482.779406 237.144274 
L 482.916229 239.986648 
L 483.01389 242.829022 
L 483.053702 245.671397 
L 483.025082 248.513771 
L 482.925667 251.356145 
L 482.760751 254.198519 
L 482.542087 257.040893 
L 482.286199 259.883268 
L 482.012407 262.725642 
L 481.740829 265.568016 
L 481.490563 268.41039 
L 481.278212 271.252764 
L 481.116822 274.095139 
L 481.015216 276.937513 
L 480.977672 279.779887 
L 481.003847 282.622261 
L 481.088886 285.464635 
L 481.223704 288.30701 
L 481.395449 291.149384 
L 481.588202 293.991758 
L 481.783962 296.834132 
L 481.963912 299.676506 
L 482.109917 302.518881 
L 482.206114 305.361255 
L 482.240407 308.203629 
L 482.205652 311.046003 
L 482.100335 313.888377 
L 481.92863 316.730752 
L 481.699797 319.573126 
L 481.427025 322.4155 
z
" clip-path="url(#pca440708ac)" style="fill: #1f77b4; fill-opacity: 0.3"/>
   </g>
   <g id="PolyCollection_7">
    <path d="M 571.645175 253.127273 
L 535.831189 253.127273 
L 535.386481 251.698944 
L 535.114133 250.270615 
L 535.021818 248.842287 
L 535.111995 247.413958 
L 535.381789 245.985629 
L 535.823137 244.5573 
L 536.423174 243.128972 
L 537.164837 241.700643 
L 538.027646 240.272314 
L 538.988608 238.843985 
L 540.023191 237.415657 
L 541.106302 235.987328 
L 542.213213 234.558999 
L 543.320393 233.13067 
L 544.406191 231.702342 
L 545.451361 230.274013 
L 546.439399 228.845684 
L 547.356697 227.417355 
L 548.192533 225.989027 
L 548.938902 224.560698 
L 549.590236 223.132369 
L 550.143038 221.70404 
L 550.595462 220.275712 
L 550.946895 218.847383 
L 551.197557 217.419054 
L 551.348156 215.990725 
L 551.399629 214.562397 
L 551.352981 213.134068 
L 551.209224 211.705739 
L 550.96944 210.27741 
L 550.634938 208.849082 
L 550.207507 207.420753 
L 549.689735 205.992424 
L 549.085377 204.564096 
L 548.399726 203.135767 
L 547.639959 201.707438 
L 546.815432 200.279109 
L 545.937862 198.850781 
L 545.0214 197.422452 
L 544.082539 195.994123 
L 543.139867 194.565794 
L 542.213651 193.137466 
L 541.325264 191.709137 
L 540.496479 190.280808 
L 539.748663 188.852479 
L 539.101923 187.424151 
L 538.574242 185.995822 
L 538.180675 184.567493 
L 537.932651 183.139164 
L 537.837428 181.710836 
L 537.897743 180.282507 
L 538.111675 178.854178 
L 538.472739 177.425849 
L 538.970197 175.997521 
L 539.58956 174.569192 
L 540.313259 173.140863 
L 541.12142 171.712534 
L 541.992707 170.284206 
L 542.905162 168.855877 
L 543.83701 167.427548 
L 544.767363 165.999219 
L 545.676803 164.570891 
L 546.54782 163.142562 
L 547.365077 161.714233 
L 548.115535 160.285904 
L 548.788424 158.857576 
L 549.3751 157.429247 
L 549.86881 156.000918 
L 550.264412 154.57259 
L 550.558066 153.144261 
L 550.746957 151.715932 
L 550.829054 150.287603 
L 550.802951 148.859275 
L 550.667792 147.430946 
L 550.423298 146.002617 
L 550.069891 144.574288 
L 549.608904 143.14596 
L 549.042866 141.717631 
L 548.375831 140.289302 
L 547.613712 138.860973 
L 546.764611 137.432645 
L 545.839072 136.004316 
L 544.850257 134.575987 
L 543.813987 133.147658 
L 542.748644 131.71933 
L 541.674898 130.291001 
L 540.615277 128.862672 
L 539.593573 127.434343 
L 538.634102 126.006015 
L 537.760875 124.577686 
L 536.996687 123.149357 
L 536.36221 121.721028 
L 535.875119 120.2927 
L 535.549322 118.864371 
L 535.394332 117.436042 
L 535.414831 116.007713 
L 535.610458 114.579385 
L 535.975827 113.151056 
L 536.50078 111.722727 
L 570.975584 111.722727 
L 570.975584 111.722727 
L 571.500537 113.151056 
L 571.865906 114.579385 
L 572.061533 116.007713 
L 572.082032 117.436042 
L 571.927041 118.864371 
L 571.601244 120.2927 
L 571.114154 121.721028 
L 570.479677 123.149357 
L 569.715489 124.577686 
L 568.842261 126.006015 
L 567.882791 127.434343 
L 566.861086 128.862672 
L 565.801466 130.291001 
L 564.72772 131.71933 
L 563.662377 133.147658 
L 562.626107 134.575987 
L 561.637292 136.004316 
L 560.711753 137.432645 
L 559.862651 138.860973 
L 559.100533 140.289302 
L 558.433497 141.717631 
L 557.86746 143.14596 
L 557.406473 144.574288 
L 557.053065 146.002617 
L 556.808571 147.430946 
L 556.673412 148.859275 
L 556.64731 150.287603 
L 556.729407 151.715932 
L 556.918298 153.144261 
L 557.211952 154.57259 
L 557.607553 156.000918 
L 558.101264 157.429247 
L 558.687939 158.857576 
L 559.360829 160.285904 
L 560.111287 161.714233 
L 560.928544 163.142562 
L 561.79956 164.570891 
L 562.709001 165.999219 
L 563.639354 167.427548 
L 564.571201 168.855877 
L 565.483657 170.284206 
L 566.354943 171.712534 
L 567.163105 173.140863 
L 567.886804 174.569192 
L 568.506167 175.997521 
L 569.003624 177.425849 
L 569.364689 178.854178 
L 569.578621 180.282507 
L 569.638935 181.710836 
L 569.543713 183.139164 
L 569.295688 184.567493 
L 568.902121 185.995822 
L 568.37444 187.424151 
L 567.7277 188.852479 
L 566.979885 190.280808 
L 566.1511 191.709137 
L 565.262713 193.137466 
L 564.336497 194.565794 
L 563.393825 195.994123 
L 562.454963 197.422452 
L 561.538501 198.850781 
L 560.660932 200.279109 
L 559.836404 201.707438 
L 559.076638 203.135767 
L 558.390986 204.564096 
L 557.786628 205.992424 
L 557.268857 207.420753 
L 556.841426 208.849082 
L 556.506924 210.27741 
L 556.26714 211.705739 
L 556.123383 213.134068 
L 556.076734 214.562397 
L 556.128208 215.990725 
L 556.278807 217.419054 
L 556.529468 218.847383 
L 556.880902 220.275712 
L 557.333326 221.70404 
L 557.886128 223.132369 
L 558.537462 224.560698 
L 559.283831 225.989027 
L 560.119667 227.417355 
L 561.036965 228.845684 
L 562.025003 230.274013 
L 563.070173 231.702342 
L 564.155971 233.13067 
L 565.263151 234.558999 
L 566.370062 235.987328 
L 567.453172 237.415657 
L 568.487756 238.843985 
L 569.448718 240.272314 
L 570.311526 241.700643 
L 571.053189 243.128972 
L 571.653227 244.5573 
L 572.094575 245.985629 
L 572.364369 247.413958 
L 572.454545 248.842287 
L 572.362231 250.270615 
L 572.089883 251.698944 
L 571.645175 253.127273 
z
" clip-path="url(#pca440708ac)" style="fill: #1f77b4; fill-opacity: 0.3"/>
   </g>
   <g id="PolyCollection_8">
    <path d="M 629.043862 322.4155 
L 628.16341 322.4155 
L 628.087718 320.872905 
L 628.008594 319.33031 
L 627.927679 317.787715 
L 627.846722 316.24512 
L 627.767455 314.702525 
L 627.69145 313.15993 
L 627.619993 311.617335 
L 627.553977 310.07474 
L 627.493843 308.532145 
L 627.439592 306.98955 
L 627.390859 305.446955 
L 627.347056 303.90436 
L 627.307547 302.361764 
L 627.271826 300.819169 
L 627.239653 299.276574 
L 627.211122 297.733979 
L 627.186635 296.191384 
L 627.166791 294.648789 
L 627.152215 293.106194 
L 627.143357 291.563599 
L 627.140305 290.021004 
L 627.142641 288.478409 
L 627.149362 286.935814 
L 627.158857 285.393219 
L 627.168935 283.850624 
L 627.176868 282.308029 
L 627.179421 280.765434 
L 627.172856 279.222839 
L 627.152888 277.680244 
L 627.114601 276.137649 
L 627.052332 274.595054 
L 626.959573 273.052459 
L 626.828922 271.509864 
L 626.652145 269.967269 
L 626.420431 268.424674 
L 626.12488 266.882079 
L 625.757294 265.339483 
L 625.311248 263.796888 
L 624.783416 262.254293 
L 624.175003 260.711698 
L 623.493102 259.169103 
L 622.751703 257.626508 
L 621.972088 256.083913 
L 621.182371 254.541318 
L 620.416048 252.998723 
L 619.709565 251.456128 
L 619.09912 249.913533 
L 618.617057 248.370938 
L 618.288368 246.828343 
L 618.127816 245.285748 
L 618.138148 243.743153 
L 618.309695 242.200558 
L 618.621422 240.657963 
L 619.043255 239.115368 
L 619.539327 237.572773 
L 620.071634 236.030178 
L 620.603602 234.487583 
L 621.103124 232.944988 
L 621.544759 231.402393 
L 621.910981 229.859798 
L 622.192505 228.317202 
L 622.387838 226.774607 
L 622.502301 225.232012 
L 622.546709 223.689417 
L 622.535942 222.146822 
L 622.487481 220.604227 
L 622.419986 219.061632 
L 622.351898 217.519037 
L 622.30003 215.976442 
L 622.278119 214.433847 
L 622.295334 212.891252 
L 622.3548 211.348657 
L 622.452251 209.806062 
L 622.574987 208.263467 
L 622.701355 206.720872 
L 622.801005 205.178277 
L 622.836153 203.635682 
L 622.764037 202.093087 
L 622.540627 200.550492 
L 622.125493 199.007897 
L 621.487479 197.465302 
L 620.610625 195.922707 
L 619.499493 194.380112 
L 618.18296 192.837517 
L 616.715541 191.294921 
L 615.175512 189.752326 
L 613.659568 188.209731 
L 612.274305 186.667136 
L 611.125458 185.124541 
L 610.306348 183.581946 
L 609.887273 182.039351 
L 609.907517 180.496756 
L 610.371255 178.954161 
L 611.247932 177.411566 
L 612.476935 175.868971 
L 613.975629 174.326376 
L 615.649328 172.783781 
L 617.401593 171.241186 
L 619.143393 169.698591 
L 638.06388 169.698591 
L 638.06388 169.698591 
L 639.805679 171.241186 
L 641.557945 172.783781 
L 643.231644 174.326376 
L 644.730338 175.868971 
L 645.959341 177.411566 
L 646.836018 178.954161 
L 647.299756 180.496756 
L 647.32 182.039351 
L 646.900924 183.581946 
L 646.081814 185.124541 
L 644.932968 186.667136 
L 643.547705 188.209731 
L 642.031761 189.752326 
L 640.491732 191.294921 
L 639.024313 192.837517 
L 637.70778 194.380112 
L 636.596647 195.922707 
L 635.719793 197.465302 
L 635.08178 199.007897 
L 634.666645 200.550492 
L 634.443236 202.093087 
L 634.37112 203.635682 
L 634.406268 205.178277 
L 634.505918 206.720872 
L 634.632286 208.263467 
L 634.755022 209.806062 
L 634.852473 211.348657 
L 634.911939 212.891252 
L 634.929154 214.433847 
L 634.907243 215.976442 
L 634.855375 217.519037 
L 634.787287 219.061632 
L 634.719791 220.604227 
L 634.67133 222.146822 
L 634.660563 223.689417 
L 634.704972 225.232012 
L 634.819434 226.774607 
L 635.014768 228.317202 
L 635.296292 229.859798 
L 635.662514 231.402393 
L 636.104149 232.944988 
L 636.60367 234.487583 
L 637.135639 236.030178 
L 637.667946 237.572773 
L 638.164018 239.115368 
L 638.585851 240.657963 
L 638.897577 242.200558 
L 639.069125 243.743153 
L 639.079457 245.285748 
L 638.918904 246.828343 
L 638.590216 248.370938 
L 638.108153 249.913533 
L 637.497708 251.456128 
L 636.791225 252.998723 
L 636.024902 254.541318 
L 635.235185 256.083913 
L 634.45557 257.626508 
L 633.714171 259.169103 
L 633.03227 260.711698 
L 632.423857 262.254293 
L 631.896025 263.796888 
L 631.449979 265.339483 
L 631.082392 266.882079 
L 630.786842 268.424674 
L 630.555128 269.967269 
L 630.378351 271.509864 
L 630.247699 273.052459 
L 630.154941 274.595054 
L 630.092672 276.137649 
L 630.054384 277.680244 
L 630.034417 279.222839 
L 630.027852 280.765434 
L 630.030405 282.308029 
L 630.038338 283.850624 
L 630.048416 285.393219 
L 630.057911 286.935814 
L 630.064631 288.478409 
L 630.066967 290.021004 
L 630.063915 291.563599 
L 630.055058 293.106194 
L 630.040482 294.648789 
L 630.020638 296.191384 
L 629.996151 297.733979 
L 629.96762 299.276574 
L 629.935447 300.819169 
L 629.899726 302.361764 
L 629.860217 303.90436 
L 629.816413 305.446955 
L 629.76768 306.98955 
L 629.713429 308.532145 
L 629.653296 310.07474 
L 629.58728 311.617335 
L 629.515823 313.15993 
L 629.439818 314.702525 
L 629.36055 316.24512 
L 629.279594 317.787715 
L 629.198679 319.33031 
L 629.119554 320.872905 
L 629.043862 322.4155 
z
" clip-path="url(#pca440708ac)" style="fill: #1f77b4; fill-opacity: 0.3"/>
   </g>
   <g id="PolyCollection_9">
    <path d="M 703.874811 313.931227 
L 703.06337 313.931227 
L 702.996938 312.460049 
L 702.92847 310.98887 
L 702.859335 309.517691 
L 702.790908 308.046513 
L 702.724528 306.575334 
L 702.661473 305.104156 
L 702.602955 303.632977 
L 702.550115 302.161798 
L 702.504005 300.69062 
L 702.465557 299.219441 
L 702.435524 297.748263 
L 702.414405 296.277084 
L 702.402352 294.805905 
L 702.399089 293.334727 
L 702.40383 291.863548 
L 702.41523 290.39237 
L 702.431368 288.921191 
L 702.449759 287.450012 
L 702.46741 285.978834 
L 702.480912 284.507655 
L 702.486554 283.036477 
L 702.480471 281.565298 
L 702.4588 280.094119 
L 702.41782 278.622941 
L 702.354073 277.151762 
L 702.264405 275.680584 
L 702.145931 274.209405 
L 701.995892 272.738226 
L 701.811417 271.267048 
L 701.589248 269.795869 
L 701.325486 268.324691 
L 701.015482 266.853512 
L 700.653991 265.382333 
L 700.235675 263.911155 
L 699.756022 262.439976 
L 699.21262 260.968798 
L 698.606667 259.497619 
L 697.944454 258.02644 
L 697.238524 256.555262 
L 696.508179 255.084083 
L 695.779074 253.612904 
L 695.081775 252.141726 
L 694.449335 250.670547 
L 693.914155 249.199369 
L 693.504549 247.72819 
L 693.24154 246.257011 
L 693.136388 244.785833 
L 693.189233 243.314654 
L 693.389064 241.843476 
L 693.71497 240.372297 
L 694.138423 238.901118 
L 694.626231 237.42994 
L 695.143684 235.958761 
L 695.657502 234.487583 
L 696.138257 233.016404 
L 696.562105 231.545225 
L 696.911789 230.074047 
L 697.176983 228.602868 
L 697.354132 227.13169 
L 697.445926 225.660511 
L 697.460572 224.189332 
L 697.410916 222.718154 
L 697.313484 221.246975 
L 697.187411 219.775797 
L 697.053239 218.304618 
L 696.93156 216.833439 
L 696.841489 215.362261 
L 696.799023 213.891082 
L 696.815346 212.419904 
L 696.895203 210.948725 
L 697.035475 209.477546 
L 697.224119 208.006368 
L 697.439627 206.535189 
L 697.651194 205.064011 
L 697.81976 203.592832 
L 697.900089 202.121653 
L 697.844001 200.650475 
L 697.604755 199.179296 
L 697.14243 197.708118 
L 696.429883 196.236939 
L 695.458638 194.76576 
L 694.243795 193.294582 
L 692.826955 191.823403 
L 691.27621 190.352225 
L 689.682584 188.881046 
L 688.152848 187.409867 
L 686.799306 185.938689 
L 685.727837 184.46751 
L 685.025943 182.996331 
L 684.752727 181.525153 
L 684.932432 180.053974 
L 685.55257 178.582796 
L 686.566818 177.111617 
L 687.901969 175.640438 
L 689.467593 174.16926 
L 691.166692 172.698081 
L 692.905687 171.226903 
L 694.602444 169.755724 
L 696.191583 168.284545 
L 710.746599 168.284545 
L 710.746599 168.284545 
L 712.335738 169.755724 
L 714.032495 171.226903 
L 715.77149 172.698081 
L 717.470589 174.16926 
L 719.036213 175.640438 
L 720.371364 177.111617 
L 721.385611 178.582796 
L 722.00575 180.053974 
L 722.185455 181.525153 
L 721.912239 182.996331 
L 721.210345 184.46751 
L 720.138876 185.938689 
L 718.785334 187.409867 
L 717.255598 188.881046 
L 715.661972 190.352225 
L 714.111227 191.823403 
L 712.694387 193.294582 
L 711.479544 194.76576 
L 710.508299 196.236939 
L 709.795752 197.708118 
L 709.333427 199.179296 
L 709.094181 200.650475 
L 709.038093 202.121653 
L 709.118421 203.592832 
L 709.286988 205.064011 
L 709.498555 206.535189 
L 709.714063 208.006368 
L 709.902707 209.477546 
L 710.042979 210.948725 
L 710.122836 212.419904 
L 710.139159 213.891082 
L 710.096693 215.362261 
L 710.006622 216.833439 
L 709.884942 218.304618 
L 709.750771 219.775797 
L 709.624698 221.246975 
L 709.527265 222.718154 
L 709.47761 224.189332 
L 709.492255 225.660511 
L 709.58405 227.13169 
L 709.761198 228.602868 
L 710.026393 230.074047 
L 710.376077 231.545225 
L 710.799925 233.016404 
L 711.28068 234.487583 
L 711.794498 235.958761 
L 712.311951 237.42994 
L 712.799759 238.901118 
L 713.223212 240.372297 
L 713.549117 241.843476 
L 713.748949 243.314654 
L 713.801794 244.785833 
L 713.696642 246.257011 
L 713.433633 247.72819 
L 713.024027 249.199369 
L 712.488847 250.670547 
L 711.856407 252.141726 
L 711.159108 253.612904 
L 710.430003 255.084083 
L 709.699658 256.555262 
L 708.993728 258.02644 
L 708.331515 259.497619 
L 707.725562 260.968798 
L 707.18216 262.439976 
L 706.702507 263.911155 
L 706.284191 265.382333 
L 705.9227 266.853512 
L 705.612696 268.324691 
L 705.348934 269.795869 
L 705.126765 271.267048 
L 704.94229 272.738226 
L 704.79225 274.209405 
L 704.673777 275.680584 
L 704.584109 277.151762 
L 704.520362 278.622941 
L 704.479382 280.094119 
L 704.45771 281.565298 
L 704.451628 283.036477 
L 704.45727 284.507655 
L 704.470771 285.978834 
L 704.488423 287.450012 
L 704.506814 288.921191 
L 704.522951 290.39237 
L 704.534352 291.863548 
L 704.539092 293.334727 
L 704.535829 294.805905 
L 704.523777 296.277084 
L 704.502658 297.748263 
L 704.472625 299.219441 
L 704.434177 300.69062 
L 704.388067 302.161798 
L 704.335227 303.632977 
L 704.276709 305.104156 
L 704.213654 306.575334 
L 704.147274 308.046513 
L 704.078847 309.517691 
L 704.009712 310.98887 
L 703.941243 312.460049 
L 703.874811 313.931227 
z
" clip-path="url(#pca440708ac)" style="fill: #1f77b4; fill-opacity: 0.3"/>
   </g>
   <g id="PolyCollection_10">
    <path d="M 786.669113 323.829545 
L 769.999978 323.829545 
L 769.770217 322.401217 
L 769.614199 320.972888 
L 769.5361 319.544559 
L 769.538011 318.11623 
L 769.619843 316.687902 
L 769.779321 315.259573 
L 770.012083 313.831244 
L 770.311858 312.402916 
L 770.670737 310.974587 
L 771.07949 309.546258 
L 771.527941 308.117929 
L 772.005349 306.689601 
L 772.500798 305.261272 
L 773.003557 303.832943 
L 773.50341 302.404614 
L 773.990916 300.976286 
L 774.457623 299.547957 
L 774.8962 298.119628 
L 775.300505 296.691299 
L 775.665592 295.262971 
L 775.987661 293.834642 
L 776.263962 292.406313 
L 776.492676 290.977984 
L 776.672773 289.549656 
L 776.803875 288.121327 
L 776.886122 286.692998 
L 776.920068 285.264669 
L 776.9066 283.836341 
L 776.846895 282.408012 
L 776.742406 280.979683 
L 776.59489 279.551354 
L 776.40646 278.123026 
L 776.179656 276.694697 
L 775.917533 275.266368 
L 775.623742 273.838039 
L 775.302608 272.409711 
L 774.959174 270.981382 
L 774.599221 269.553053 
L 774.22924 268.124725 
L 773.856357 266.696396 
L 773.488209 265.268067 
L 773.132769 263.839738 
L 772.798133 262.41141 
L 772.492268 260.983081 
L 772.222738 259.554752 
L 771.99643 258.126423 
L 771.819284 256.698095 
L 771.696049 255.269766 
L 771.630084 253.841437 
L 771.623215 252.413108 
L 771.675645 250.98478 
L 771.785949 249.556451 
L 771.951127 248.128122 
L 772.166727 246.699793 
L 772.427022 245.271465 
L 772.725242 243.843136 
L 773.05382 242.414807 
L 773.404662 240.986478 
L 773.769411 239.55815 
L 774.139694 238.129821 
L 774.507326 236.701492 
L 774.864484 235.273163 
L 775.203825 233.844835 
L 775.518544 232.416506 
L 775.802397 230.988177 
L 776.049666 229.559848 
L 776.25509 228.13152 
L 776.413777 226.703191 
L 776.521105 225.274862 
L 776.572619 223.846534 
L 776.56396 222.418205 
L 776.490821 220.989876 
L 776.348948 219.561547 
L 776.134201 218.133219 
L 775.842675 216.70489 
L 775.470878 215.276561 
L 775.015976 213.848232 
L 774.476082 212.419904 
L 773.850585 210.991575 
L 773.140494 209.563246 
L 772.34878 208.134917 
L 771.480685 206.706589 
L 770.543971 205.27826 
L 769.549083 203.849931 
L 768.50921 202.421602 
L 767.440196 200.993274 
L 766.360326 199.564945 
L 765.289948 198.136616 
L 764.250949 196.708287 
L 763.266106 195.279959 
L 762.358325 193.85163 
L 761.549805 192.423301 
L 760.861176 190.994972 
L 760.310657 189.566644 
L 759.91327 188.138315 
L 759.680181 186.709986 
L 759.618182 185.281657 
L 759.729377 183.853329 
L 760.011069 182.425 
L 796.658022 182.425 
L 796.658022 182.425 
L 796.939714 183.853329 
L 797.050909 185.281657 
L 796.98891 186.709986 
L 796.755821 188.138315 
L 796.358434 189.566644 
L 795.807915 190.994972 
L 795.119286 192.423301 
L 794.310766 193.85163 
L 793.402984 195.279959 
L 792.418142 196.708287 
L 791.379143 198.136616 
L 790.308765 199.564945 
L 789.228895 200.993274 
L 788.159881 202.421602 
L 787.120008 203.849931 
L 786.12512 205.27826 
L 785.188406 206.706589 
L 784.320311 208.134917 
L 783.528597 209.563246 
L 782.818506 210.991575 
L 782.193009 212.419904 
L 781.653115 213.848232 
L 781.198213 215.276561 
L 780.826416 216.70489 
L 780.53489 218.133219 
L 780.320143 219.561547 
L 780.17827 220.989876 
L 780.105131 222.418205 
L 780.096472 223.846534 
L 780.147986 225.274862 
L 780.255314 226.703191 
L 780.414001 228.13152 
L 780.619425 229.559848 
L 780.866693 230.988177 
L 781.150547 232.416506 
L 781.465266 233.844835 
L 781.804606 235.273163 
L 782.161765 236.701492 
L 782.529397 238.129821 
L 782.89968 239.55815 
L 783.264429 240.986478 
L 783.615271 242.414807 
L 783.943849 243.843136 
L 784.242068 245.271465 
L 784.502364 246.699793 
L 784.717964 248.128122 
L 784.883142 249.556451 
L 784.993446 250.98478 
L 785.045876 252.413108 
L 785.039007 253.841437 
L 784.973042 255.269766 
L 784.849807 256.698095 
L 784.672661 258.126423 
L 784.446353 259.554752 
L 784.176823 260.983081 
L 783.870958 262.41141 
L 783.536322 263.839738 
L 783.180882 265.268067 
L 782.812734 266.696396 
L 782.43985 268.124725 
L 782.069869 269.553053 
L 781.709917 270.981382 
L 781.366483 272.409711 
L 781.045348 273.838039 
L 780.751558 275.266368 
L 780.489435 276.694697 
L 780.262631 278.123026 
L 780.074201 279.551354 
L 779.926685 280.979683 
L 779.822196 282.408012 
L 779.762491 283.836341 
L 779.749023 285.264669 
L 779.782969 286.692998 
L 779.865216 288.121327 
L 779.996318 289.549656 
L 780.176415 290.977984 
L 780.405129 292.406313 
L 780.68143 293.834642 
L 781.003499 295.262971 
L 781.368586 296.691299 
L 781.772891 298.119628 
L 782.211468 299.547957 
L 782.678175 300.976286 
L 783.165681 302.404614 
L 783.665533 303.832943 
L 784.168293 305.261272 
L 784.663741 306.689601 
L 785.14115 308.117929 
L 785.589601 309.546258 
L 785.998354 310.974587 
L 786.357233 312.402916 
L 786.657008 313.831244 
L 786.88977 315.259573 
L 787.049248 316.687902 
L 787.13108 318.11623 
L 787.132991 319.544559 
L 787.054892 320.972888 
L 786.898873 322.401217 
L 786.669113 323.829545 
z
" clip-path="url(#pca440708ac)" style="fill: #1f77b4; fill-opacity: 0.3"/>
   </g>
   <g id="matplotlib.axis_1">
    <g id="xtick_1">
     <g id="line2d_1">
      <defs>
       <path id="mf93f948d63" d="M 0 0 
L 0 3.5 
" style="stroke: #000000; stroke-width: 0.8"/>
      </defs>
      <g>
       <use xlink:href="#mf93f948d63" x="104.545455" y="337.97" style="stroke: #000000; stroke-width: 0.8"/>
      </g>
     </g>
     <g id="text_1">
      <!-- Grudger -->
      <g transform="translate(106.752955 377.89625)rotate(-90)scale(0.08 -0.08)">
       <defs>
        <path id="DejaVuSans-47" d="M 3809 666 
L 3809 1919 
L 2778 1919 
L 2778 2438 
L 4434 2438 
L 4434 434 
Q 4069 175 3628 42 
Q 3188 -91 2688 -91 
Q 1594 -91 976 548 
Q 359 1188 359 2328 
Q 359 3472 976 4111 
Q 1594 4750 2688 4750 
Q 3144 4750 3555 4637 
Q 3966 4525 4313 4306 
L 4313 3634 
Q 3963 3931 3569 4081 
Q 3175 4231 2741 4231 
Q 1884 4231 1454 3753 
Q 1025 3275 1025 2328 
Q 1025 1384 1454 906 
Q 1884 428 2741 428 
Q 3075 428 3337 486 
Q 3600 544 3809 666 
z
" transform="scale(0.015625)"/>
        <path id="DejaVuSans-72" d="M 2631 2963 
Q 2534 3019 2420 3045 
Q 2306 3072 2169 3072 
Q 1681 3072 1420 2755 
Q 1159 2438 1159 1844 
L 1159 0 
L 581 0 
L 581 3500 
L 1159 3500 
L 1159 2956 
Q 1341 3275 1631 3429 
Q 1922 3584 2338 3584 
Q 2397 3584 2469 3576 
Q 2541 3569 2628 3553 
L 2631 2963 
z
" transform="scale(0.015625)"/>
        <path id="DejaVuSans-75" d="M 544 1381 
L 544 3500 
L 1119 3500 
L 1119 1403 
Q 1119 906 1312 657 
Q 1506 409 1894 409 
Q 2359 409 2629 706 
Q 2900 1003 2900 1516 
L 2900 3500 
L 3475 3500 
L 3475 0 
L 2900 0 
L 2900 538 
Q 2691 219 2414 64 
Q 2138 -91 1772 -91 
Q 1169 -91 856 284 
Q 544 659 544 1381 
z
M 1991 3584 
L 1991 3584 
z
" transform="scale(0.015625)"/>
        <path id="DejaVuSans-64" d="M 2906 2969 
L 2906 4863 
L 3481 4863 
L 3481 0 
L 2906 0 
L 2906 525 
Q 2725 213 2448 61 
Q 2172 -91 1784 -91 
Q 1150 -91 751 415 
Q 353 922 353 1747 
Q 353 2572 751 3078 
Q 1150 3584 1784 3584 
Q 2172 3584 2448 3432 
Q 2725 3281 2906 2969 
z
M 947 1747 
Q 947 1113 1208 752 
Q 1469 391 1925 391 
Q 2381 391 2643 752 
Q 2906 1113 2906 1747 
Q 2906 2381 2643 2742 
Q 2381 3103 1925 3103 
Q 1469 3103 1208 2742 
Q 947 2381 947 1747 
z
" transform="scale(0.015625)"/>
        <path id="DejaVuSans-67" d="M 2906 1791 
Q 2906 2416 2648 2759 
Q 2391 3103 1925 3103 
Q 1463 3103 1205 2759 
Q 947 2416 947 1791 
Q 947 1169 1205 825 
Q 1463 481 1925 481 
Q 2391 481 2648 825 
Q 2906 1169 2906 1791 
z
M 3481 434 
Q 3481 -459 3084 -895 
Q 2688 -1331 1869 -1331 
Q 1566 -1331 1297 -1286 
Q 1028 -1241 775 -1147 
L 775 -588 
Q 1028 -725 1275 -790 
Q 1522 -856 1778 -856 
Q 2344 -856 2625 -561 
Q 2906 -266 2906 331 
L 2906 616 
Q 2728 306 2450 153 
Q 2172 0 1784 0 
Q 1141 0 747 490 
Q 353 981 353 1791 
Q 353 2603 747 3093 
Q 1141 3584 1784 3584 
Q 2172 3584 2450 3431 
Q 2728 3278 2906 2969 
L 2906 3500 
L 3481 3500 
L 3481 434 
z
" transform="scale(0.015625)"/>
        <path id="DejaVuSans-65" d="M 3597 1894 
L 3597 1613 
L 953 1613 
Q 991 1019 1311 708 
Q 1631 397 2203 397 
Q 2534 397 2845 478 
Q 3156 559 3463 722 
L 3463 178 
Q 3153 47 2828 -22 
Q 2503 -91 2169 -91 
Q 1331 -91 842 396 
Q 353 884 353 1716 
Q 353 2575 817 3079 
Q 1281 3584 2069 3584 
Q 2775 3584 3186 3129 
Q 3597 2675 3597 1894 
z
M 3022 2063 
Q 3016 2534 2758 2815 
Q 2500 3097 2075 3097 
Q 1594 3097 1305 2825 
Q 1016 2553 972 2059 
L 3022 2063 
z
" transform="scale(0.015625)"/>
       </defs>
       <use xlink:href="#DejaVuSans-47"/>
       <use xlink:href="#DejaVuSans-72" x="77.490234"/>
       <use xlink:href="#DejaVuSans-75" x="118.603516"/>
       <use xlink:href="#DejaVuSans-64" x="181.982422"/>
       <use xlink:href="#DejaVuSans-67" x="245.458984"/>
       <use xlink:href="#DejaVuSans-65" x="308.935547"/>
       <use xlink:href="#DejaVuSans-72" x="370.458984"/>
      </g>
     </g>
    </g>
    <g id="xtick_2">
     <g id="line2d_2">
      <g>
       <use xlink:href="#mf93f948d63" x="179.410909" y="337.97" style="stroke: #000000; stroke-width: 0.8"/>
      </g>
     </g>
     <g id="text_2">
      <!-- Tit For Tat -->
      <g transform="translate(181.618409 384.15)rotate(-90)scale(0.08 -0.08)">
       <defs>
        <path id="DejaVuSans-54" d="M -19 4666 
L 3928 4666 
L 3928 4134 
L 2272 4134 
L 2272 0 
L 1638 0 
L 1638 4134 
L -19 4134 
L -19 4666 
z
" transform="scale(0.015625)"/>
        <path id="DejaVuSans-69" d="M 603 3500 
L 1178 3500 
L 1178 0 
L 603 0 
L 603 3500 
z
M 603 4863 
L 1178 4863 
L 1178 4134 
L 603 4134 
L 603 4863 
z
" transform="scale(0.015625)"/>
        <path id="DejaVuSans-74" d="M 1172 4494 
L 1172 3500 
L 2356 3500 
L 2356 3053 
L 1172 3053 
L 1172 1153 
Q 1172 725 1289 603 
Q 1406 481 1766 481 
L 2356 481 
L 2356 0 
L 1766 0 
Q 1100 0 847 248 
Q 594 497 594 1153 
L 594 3053 
L 172 3053 
L 172 3500 
L 594 3500 
L 594 4494 
L 1172 4494 
z
" transform="scale(0.015625)"/>
        <path id="DejaVuSans-20" transform="scale(0.015625)"/>
        <path id="DejaVuSans-46" d="M 628 4666 
L 3309 4666 
L 3309 4134 
L 1259 4134 
L 1259 2759 
L 3109 2759 
L 3109 2228 
L 1259 2228 
L 1259 0 
L 628 0 
L 628 4666 
z
" transform="scale(0.015625)"/>
        <path id="DejaVuSans-6f" d="M 1959 3097 
Q 1497 3097 1228 2736 
Q 959 2375 959 1747 
Q 959 1119 1226 758 
Q 1494 397 1959 397 
Q 2419 397 2687 759 
Q 2956 1122 2956 1747 
Q 2956 2369 2687 2733 
Q 2419 3097 1959 3097 
z
M 1959 3584 
Q 2709 3584 3137 3096 
Q 3566 2609 3566 1747 
Q 3566 888 3137 398 
Q 2709 -91 1959 -91 
Q 1206 -91 779 398 
Q 353 888 353 1747 
Q 353 2609 779 3096 
Q 1206 3584 1959 3584 
z
" transform="scale(0.015625)"/>
        <path id="DejaVuSans-61" d="M 2194 1759 
Q 1497 1759 1228 1600 
Q 959 1441 959 1056 
Q 959 750 1161 570 
Q 1363 391 1709 391 
Q 2188 391 2477 730 
Q 2766 1069 2766 1631 
L 2766 1759 
L 2194 1759 
z
M 3341 1997 
L 3341 0 
L 2766 0 
L 2766 531 
Q 2569 213 2275 61 
Q 1981 -91 1556 -91 
Q 1019 -91 701 211 
Q 384 513 384 1019 
Q 384 1609 779 1909 
Q 1175 2209 1959 2209 
L 2766 2209 
L 2766 2266 
Q 2766 2663 2505 2880 
Q 2244 3097 1772 3097 
Q 1472 3097 1187 3025 
Q 903 2953 641 2809 
L 641 3341 
Q 956 3463 1253 3523 
Q 1550 3584 1831 3584 
Q 2591 3584 2966 3190 
Q 3341 2797 3341 1997 
z
" transform="scale(0.015625)"/>
       </defs>
       <use xlink:href="#DejaVuSans-54"/>
       <use xlink:href="#DejaVuSans-69" x="57.958984"/>
       <use xlink:href="#DejaVuSans-74" x="85.742188"/>
       <use xlink:href="#DejaVuSans-20" x="124.951172"/>
       <use xlink:href="#DejaVuSans-46" x="156.738281"/>
       <use xlink:href="#DejaVuSans-6f" x="210.632812"/>
       <use xlink:href="#DejaVuSans-72" x="271.814453"/>
       <use xlink:href="#DejaVuSans-20" x="312.927734"/>
       <use xlink:href="#DejaVuSans-54" x="344.714844"/>
       <use xlink:href="#DejaVuSans-61" x="389.298828"/>
       <use xlink:href="#DejaVuSans-74" x="450.578125"/>
      </g>
     </g>
    </g>
    <g id="xtick_3">
     <g id="line2d_3">
      <g>
       <use xlink:href="#mf93f948d63" x="254.276364" y="337.97" style="stroke: #000000; stroke-width: 0.8"/>
      </g>
     </g>
     <g id="text_3">
      <!-- Adaptive -->
      <g transform="translate(256.483864 380.37875)rotate(-90)scale(0.08 -0.08)">
       <defs>
        <path id="DejaVuSans-41" d="M 2188 4044 
L 1331 1722 
L 3047 1722 
L 2188 4044 
z
M 1831 4666 
L 2547 4666 
L 4325 0 
L 3669 0 
L 3244 1197 
L 1141 1197 
L 716 0 
L 50 0 
L 1831 4666 
z
" transform="scale(0.015625)"/>
        <path id="DejaVuSans-70" d="M 1159 525 
L 1159 -1331 
L 581 -1331 
L 581 3500 
L 1159 3500 
L 1159 2969 
Q 1341 3281 1617 3432 
Q 1894 3584 2278 3584 
Q 2916 3584 3314 3078 
Q 3713 2572 3713 1747 
Q 3713 922 3314 415 
Q 2916 -91 2278 -91 
Q 1894 -91 1617 61 
Q 1341 213 1159 525 
z
M 3116 1747 
Q 3116 2381 2855 2742 
Q 2594 3103 2138 3103 
Q 1681 3103 1420 2742 
Q 1159 2381 1159 1747 
Q 1159 1113 1420 752 
Q 1681 391 2138 391 
Q 2594 391 2855 752 
Q 3116 1113 3116 1747 
z
" transform="scale(0.015625)"/>
        <path id="DejaVuSans-76" d="M 191 3500 
L 800 3500 
L 1894 563 
L 2988 3500 
L 3597 3500 
L 2284 0 
L 1503 0 
L 191 3500 
z
" transform="scale(0.015625)"/>
       </defs>
       <use xlink:href="#DejaVuSans-41"/>
       <use xlink:href="#DejaVuSans-64" x="66.658203"/>
       <use xlink:href="#DejaVuSans-61" x="130.134766"/>
       <use xlink:href="#DejaVuSans-70" x="191.414062"/>
       <use xlink:href="#DejaVuSans-74" x="254.890625"/>
       <use xlink:href="#DejaVuSans-69" x="294.099609"/>
       <use xlink:href="#DejaVuSans-76" x="321.882812"/>
       <use xlink:href="#DejaVuSans-65" x="381.0625"/>
      </g>
     </g>
    </g>
    <g id="xtick_4">
     <g id="line2d_4">
      <g>
       <use xlink:href="#mf93f948d63" x="329.141818" y="337.97" style="stroke: #000000; stroke-width: 0.8"/>
      </g>
     </g>
     <g id="text_4">
      <!-- Random: 0.5 -->
      <g transform="translate(331.349318 396.0475)rotate(-90)scale(0.08 -0.08)">
       <defs>
        <path id="DejaVuSans-52" d="M 2841 2188 
Q 3044 2119 3236 1894 
Q 3428 1669 3622 1275 
L 4263 0 
L 3584 0 
L 2988 1197 
Q 2756 1666 2539 1819 
Q 2322 1972 1947 1972 
L 1259 1972 
L 1259 0 
L 628 0 
L 628 4666 
L 2053 4666 
Q 2853 4666 3247 4331 
Q 3641 3997 3641 3322 
Q 3641 2881 3436 2590 
Q 3231 2300 2841 2188 
z
M 1259 4147 
L 1259 2491 
L 2053 2491 
Q 2509 2491 2742 2702 
Q 2975 2913 2975 3322 
Q 2975 3731 2742 3939 
Q 2509 4147 2053 4147 
L 1259 4147 
z
" transform="scale(0.015625)"/>
        <path id="DejaVuSans-6e" d="M 3513 2113 
L 3513 0 
L 2938 0 
L 2938 2094 
Q 2938 2591 2744 2837 
Q 2550 3084 2163 3084 
Q 1697 3084 1428 2787 
Q 1159 2491 1159 1978 
L 1159 0 
L 581 0 
L 581 3500 
L 1159 3500 
L 1159 2956 
Q 1366 3272 1645 3428 
Q 1925 3584 2291 3584 
Q 2894 3584 3203 3211 
Q 3513 2838 3513 2113 
z
" transform="scale(0.015625)"/>
        <path id="DejaVuSans-6d" d="M 3328 2828 
Q 3544 3216 3844 3400 
Q 4144 3584 4550 3584 
Q 5097 3584 5394 3201 
Q 5691 2819 5691 2113 
L 5691 0 
L 5113 0 
L 5113 2094 
Q 5113 2597 4934 2840 
Q 4756 3084 4391 3084 
Q 3944 3084 3684 2787 
Q 3425 2491 3425 1978 
L 3425 0 
L 2847 0 
L 2847 2094 
Q 2847 2600 2669 2842 
Q 2491 3084 2119 3084 
Q 1678 3084 1418 2786 
Q 1159 2488 1159 1978 
L 1159 0 
L 581 0 
L 581 3500 
L 1159 3500 
L 1159 2956 
Q 1356 3278 1631 3431 
Q 1906 3584 2284 3584 
Q 2666 3584 2933 3390 
Q 3200 3197 3328 2828 
z
" transform="scale(0.015625)"/>
        <path id="DejaVuSans-3a" d="M 750 794 
L 1409 794 
L 1409 0 
L 750 0 
L 750 794 
z
M 750 3309 
L 1409 3309 
L 1409 2516 
L 750 2516 
L 750 3309 
z
" transform="scale(0.015625)"/>
        <path id="DejaVuSans-30" d="M 2034 4250 
Q 1547 4250 1301 3770 
Q 1056 3291 1056 2328 
Q 1056 1369 1301 889 
Q 1547 409 2034 409 
Q 2525 409 2770 889 
Q 3016 1369 3016 2328 
Q 3016 3291 2770 3770 
Q 2525 4250 2034 4250 
z
M 2034 4750 
Q 2819 4750 3233 4129 
Q 3647 3509 3647 2328 
Q 3647 1150 3233 529 
Q 2819 -91 2034 -91 
Q 1250 -91 836 529 
Q 422 1150 422 2328 
Q 422 3509 836 4129 
Q 1250 4750 2034 4750 
z
" transform="scale(0.015625)"/>
        <path id="DejaVuSans-2e" d="M 684 794 
L 1344 794 
L 1344 0 
L 684 0 
L 684 794 
z
" transform="scale(0.015625)"/>
        <path id="DejaVuSans-35" d="M 691 4666 
L 3169 4666 
L 3169 4134 
L 1269 4134 
L 1269 2991 
Q 1406 3038 1543 3061 
Q 1681 3084 1819 3084 
Q 2600 3084 3056 2656 
Q 3513 2228 3513 1497 
Q 3513 744 3044 326 
Q 2575 -91 1722 -91 
Q 1428 -91 1123 -41 
Q 819 9 494 109 
L 494 744 
Q 775 591 1075 516 
Q 1375 441 1709 441 
Q 2250 441 2565 725 
Q 2881 1009 2881 1497 
Q 2881 1984 2565 2268 
Q 2250 2553 1709 2553 
Q 1456 2553 1204 2497 
Q 953 2441 691 2322 
L 691 4666 
z
" transform="scale(0.015625)"/>
       </defs>
       <use xlink:href="#DejaVuSans-52"/>
       <use xlink:href="#DejaVuSans-61" x="67.232422"/>
       <use xlink:href="#DejaVuSans-6e" x="128.511719"/>
       <use xlink:href="#DejaVuSans-64" x="191.890625"/>
       <use xlink:href="#DejaVuSans-6f" x="255.367188"/>
       <use xlink:href="#DejaVuSans-6d" x="316.548828"/>
       <use xlink:href="#DejaVuSans-3a" x="413.960938"/>
       <use xlink:href="#DejaVuSans-20" x="447.652344"/>
       <use xlink:href="#DejaVuSans-30" x="479.439453"/>
       <use xlink:href="#DejaVuSans-2e" x="543.0625"/>
       <use xlink:href="#DejaVuSans-35" x="574.849609"/>
      </g>
     </g>
    </g>
    <g id="xtick_5">
     <g id="line2d_5">
      <g>
       <use xlink:href="#mf93f948d63" x="404.007273" y="337.97" style="stroke: #000000; stroke-width: 0.8"/>
      </g>
     </g>
     <g id="text_5">
      <!-- Defector -->
      <g transform="translate(406.214773 379.51)rotate(-90)scale(0.08 -0.08)">
       <defs>
        <path id="DejaVuSans-44" d="M 1259 4147 
L 1259 519 
L 2022 519 
Q 2988 519 3436 956 
Q 3884 1394 3884 2338 
Q 3884 3275 3436 3711 
Q 2988 4147 2022 4147 
L 1259 4147 
z
M 628 4666 
L 1925 4666 
Q 3281 4666 3915 4102 
Q 4550 3538 4550 2338 
Q 4550 1131 3912 565 
Q 3275 0 1925 0 
L 628 0 
L 628 4666 
z
" transform="scale(0.015625)"/>
        <path id="DejaVuSans-66" d="M 2375 4863 
L 2375 4384 
L 1825 4384 
Q 1516 4384 1395 4259 
Q 1275 4134 1275 3809 
L 1275 3500 
L 2222 3500 
L 2222 3053 
L 1275 3053 
L 1275 0 
L 697 0 
L 697 3053 
L 147 3053 
L 147 3500 
L 697 3500 
L 697 3744 
Q 697 4328 969 4595 
Q 1241 4863 1831 4863 
L 2375 4863 
z
" transform="scale(0.015625)"/>
        <path id="DejaVuSans-63" d="M 3122 3366 
L 3122 2828 
Q 2878 2963 2633 3030 
Q 2388 3097 2138 3097 
Q 1578 3097 1268 2742 
Q 959 2388 959 1747 
Q 959 1106 1268 751 
Q 1578 397 2138 397 
Q 2388 397 2633 464 
Q 2878 531 3122 666 
L 3122 134 
Q 2881 22 2623 -34 
Q 2366 -91 2075 -91 
Q 1284 -91 818 406 
Q 353 903 353 1747 
Q 353 2603 823 3093 
Q 1294 3584 2113 3584 
Q 2378 3584 2631 3529 
Q 2884 3475 3122 3366 
z
" transform="scale(0.015625)"/>
       </defs>
       <use xlink:href="#DejaVuSans-44"/>
       <use xlink:href="#DejaVuSans-65" x="77.001953"/>
       <use xlink:href="#DejaVuSans-66" x="138.525391"/>
       <use xlink:href="#DejaVuSans-65" x="173.730469"/>
       <use xlink:href="#DejaVuSans-63" x="235.253906"/>
       <use xlink:href="#DejaVuSans-74" x="290.234375"/>
       <use xlink:href="#DejaVuSans-6f" x="329.443359"/>
       <use xlink:href="#DejaVuSans-72" x="390.625"/>
      </g>
     </g>
    </g>
    <g id="xtick_6">
     <g id="line2d_6">
      <g>
       <use xlink:href="#mf93f948d63" x="478.872727" y="337.97" style="stroke: #000000; stroke-width: 0.8"/>
      </g>
     </g>
     <g id="text_6">
      <!-- Deep QLearner -->
      <g transform="translate(481.080227 405.46625)rotate(-90)scale(0.08 -0.08)">
       <defs>
        <path id="DejaVuSans-51" d="M 2522 4238 
Q 1834 4238 1429 3725 
Q 1025 3213 1025 2328 
Q 1025 1447 1429 934 
Q 1834 422 2522 422 
Q 3209 422 3611 934 
Q 4013 1447 4013 2328 
Q 4013 3213 3611 3725 
Q 3209 4238 2522 4238 
z
M 3406 84 
L 4238 -825 
L 3475 -825 
L 2784 -78 
Q 2681 -84 2626 -87 
Q 2572 -91 2522 -91 
Q 1538 -91 948 567 
Q 359 1225 359 2328 
Q 359 3434 948 4092 
Q 1538 4750 2522 4750 
Q 3503 4750 4090 4092 
Q 4678 3434 4678 2328 
Q 4678 1516 4351 937 
Q 4025 359 3406 84 
z
" transform="scale(0.015625)"/>
        <path id="DejaVuSans-4c" d="M 628 4666 
L 1259 4666 
L 1259 531 
L 3531 531 
L 3531 0 
L 628 0 
L 628 4666 
z
" transform="scale(0.015625)"/>
       </defs>
       <use xlink:href="#DejaVuSans-44"/>
       <use xlink:href="#DejaVuSans-65" x="77.001953"/>
       <use xlink:href="#DejaVuSans-65" x="138.525391"/>
       <use xlink:href="#DejaVuSans-70" x="200.048828"/>
       <use xlink:href="#DejaVuSans-20" x="263.525391"/>
       <use xlink:href="#DejaVuSans-51" x="295.3125"/>
       <use xlink:href="#DejaVuSans-4c" x="374.023438"/>
       <use xlink:href="#DejaVuSans-65" x="427.986328"/>
       <use xlink:href="#DejaVuSans-61" x="489.509766"/>
       <use xlink:href="#DejaVuSans-72" x="550.789062"/>
       <use xlink:href="#DejaVuSans-6e" x="590.152344"/>
       <use xlink:href="#DejaVuSans-65" x="653.53125"/>
       <use xlink:href="#DejaVuSans-72" x="715.054688"/>
      </g>
     </g>
    </g>
    <g id="xtick_7">
     <g id="line2d_7">
      <g>
       <use xlink:href="#mf93f948d63" x="553.738182" y="337.97" style="stroke: #000000; stroke-width: 0.8"/>
      </g>
     </g>
     <g id="text_7">
      <!-- Alternator -->
      <g transform="translate(555.945682 385.165)rotate(-90)scale(0.08 -0.08)">
       <defs>
        <path id="DejaVuSans-6c" d="M 603 4863 
L 1178 4863 
L 1178 0 
L 603 0 
L 603 4863 
z
" transform="scale(0.015625)"/>
       </defs>
       <use xlink:href="#DejaVuSans-41"/>
       <use xlink:href="#DejaVuSans-6c" x="68.408203"/>
       <use xlink:href="#DejaVuSans-74" x="96.191406"/>
       <use xlink:href="#DejaVuSans-65" x="135.400391"/>
       <use xlink:href="#DejaVuSans-72" x="196.923828"/>
       <use xlink:href="#DejaVuSans-6e" x="236.287109"/>
       <use xlink:href="#DejaVuSans-61" x="299.666016"/>
       <use xlink:href="#DejaVuSans-74" x="360.945312"/>
       <use xlink:href="#DejaVuSans-6f" x="400.154297"/>
       <use xlink:href="#DejaVuSans-72" x="461.335938"/>
      </g>
     </g>
    </g>
    <g id="xtick_8">
     <g id="line2d_8">
      <g>
       <use xlink:href="#mf93f948d63" x="628.603636" y="337.97" style="stroke: #000000; stroke-width: 0.8"/>
      </g>
     </g>
     <g id="text_8">
      <!-- Risky QLearner -->
      <g transform="translate(630.811136 405.40875)rotate(-90)scale(0.08 -0.08)">
       <defs>
        <path id="DejaVuSans-73" d="M 2834 3397 
L 2834 2853 
Q 2591 2978 2328 3040 
Q 2066 3103 1784 3103 
Q 1356 3103 1142 2972 
Q 928 2841 928 2578 
Q 928 2378 1081 2264 
Q 1234 2150 1697 2047 
L 1894 2003 
Q 2506 1872 2764 1633 
Q 3022 1394 3022 966 
Q 3022 478 2636 193 
Q 2250 -91 1575 -91 
Q 1294 -91 989 -36 
Q 684 19 347 128 
L 347 722 
Q 666 556 975 473 
Q 1284 391 1588 391 
Q 1994 391 2212 530 
Q 2431 669 2431 922 
Q 2431 1156 2273 1281 
Q 2116 1406 1581 1522 
L 1381 1569 
Q 847 1681 609 1914 
Q 372 2147 372 2553 
Q 372 3047 722 3315 
Q 1072 3584 1716 3584 
Q 2034 3584 2315 3537 
Q 2597 3491 2834 3397 
z
" transform="scale(0.015625)"/>
        <path id="DejaVuSans-6b" d="M 581 4863 
L 1159 4863 
L 1159 1991 
L 2875 3500 
L 3609 3500 
L 1753 1863 
L 3688 0 
L 2938 0 
L 1159 1709 
L 1159 0 
L 581 0 
L 581 4863 
z
" transform="scale(0.015625)"/>
        <path id="DejaVuSans-79" d="M 2059 -325 
Q 1816 -950 1584 -1140 
Q 1353 -1331 966 -1331 
L 506 -1331 
L 506 -850 
L 844 -850 
Q 1081 -850 1212 -737 
Q 1344 -625 1503 -206 
L 1606 56 
L 191 3500 
L 800 3500 
L 1894 763 
L 2988 3500 
L 3597 3500 
L 2059 -325 
z
" transform="scale(0.015625)"/>
       </defs>
       <use xlink:href="#DejaVuSans-52"/>
       <use xlink:href="#DejaVuSans-69" x="69.482422"/>
       <use xlink:href="#DejaVuSans-73" x="97.265625"/>
       <use xlink:href="#DejaVuSans-6b" x="149.365234"/>
       <use xlink:href="#DejaVuSans-79" x="203.650391"/>
       <use xlink:href="#DejaVuSans-20" x="262.830078"/>
       <use xlink:href="#DejaVuSans-51" x="294.617188"/>
       <use xlink:href="#DejaVuSans-4c" x="373.328125"/>
       <use xlink:href="#DejaVuSans-65" x="427.291016"/>
       <use xlink:href="#DejaVuSans-61" x="488.814453"/>
       <use xlink:href="#DejaVuSans-72" x="550.09375"/>
       <use xlink:href="#DejaVuSans-6e" x="589.457031"/>
       <use xlink:href="#DejaVuSans-65" x="652.835938"/>
       <use xlink:href="#DejaVuSans-72" x="714.359375"/>
      </g>
     </g>
    </g>
    <g id="xtick_9">
     <g id="line2d_9">
      <g>
       <use xlink:href="#mf93f948d63" x="703.469091" y="337.97" style="stroke: #000000; stroke-width: 0.8"/>
      </g>
     </g>
     <g id="text_9">
      <!-- Mediocre QLearner -->
      <g transform="translate(705.676591 420.83375)rotate(-90)scale(0.08 -0.08)">
       <defs>
        <path id="DejaVuSans-4d" d="M 628 4666 
L 1569 4666 
L 2759 1491 
L 3956 4666 
L 4897 4666 
L 4897 0 
L 4281 0 
L 4281 4097 
L 3078 897 
L 2444 897 
L 1241 4097 
L 1241 0 
L 628 0 
L 628 4666 
z
" transform="scale(0.015625)"/>
       </defs>
       <use xlink:href="#DejaVuSans-4d"/>
       <use xlink:href="#DejaVuSans-65" x="86.279297"/>
       <use xlink:href="#DejaVuSans-64" x="147.802734"/>
       <use xlink:href="#DejaVuSans-69" x="211.279297"/>
       <use xlink:href="#DejaVuSans-6f" x="239.0625"/>
       <use xlink:href="#DejaVuSans-63" x="300.244141"/>
       <use xlink:href="#DejaVuSans-72" x="355.224609"/>
       <use xlink:href="#DejaVuSans-65" x="394.087891"/>
       <use xlink:href="#DejaVuSans-20" x="455.611328"/>
       <use xlink:href="#DejaVuSans-51" x="487.398438"/>
       <use xlink:href="#DejaVuSans-4c" x="566.109375"/>
       <use xlink:href="#DejaVuSans-65" x="620.072266"/>
       <use xlink:href="#DejaVuSans-61" x="681.595703"/>
       <use xlink:href="#DejaVuSans-72" x="742.875"/>
       <use xlink:href="#DejaVuSans-6e" x="782.238281"/>
       <use xlink:href="#DejaVuSans-65" x="845.617188"/>
       <use xlink:href="#DejaVuSans-72" x="907.140625"/>
      </g>
     </g>
    </g>
    <g id="xtick_10">
     <g id="line2d_10">
      <g>
       <use xlink:href="#mf93f948d63" x="778.334545" y="337.97" style="stroke: #000000; stroke-width: 0.8"/>
      </g>
     </g>
     <g id="text_10">
      <!-- Cooperator -->
      <g transform="translate(780.542045 389.85875)rotate(-90)scale(0.08 -0.08)">
       <defs>
        <path id="DejaVuSans-43" d="M 4122 4306 
L 4122 3641 
Q 3803 3938 3442 4084 
Q 3081 4231 2675 4231 
Q 1875 4231 1450 3742 
Q 1025 3253 1025 2328 
Q 1025 1406 1450 917 
Q 1875 428 2675 428 
Q 3081 428 3442 575 
Q 3803 722 4122 1019 
L 4122 359 
Q 3791 134 3420 21 
Q 3050 -91 2638 -91 
Q 1578 -91 968 557 
Q 359 1206 359 2328 
Q 359 3453 968 4101 
Q 1578 4750 2638 4750 
Q 3056 4750 3426 4639 
Q 3797 4528 4122 4306 
z
" transform="scale(0.015625)"/>
       </defs>
       <use xlink:href="#DejaVuSans-43"/>
       <use xlink:href="#DejaVuSans-6f" x="69.824219"/>
       <use xlink:href="#DejaVuSans-6f" x="131.005859"/>
       <use xlink:href="#DejaVuSans-70" x="192.1875"/>
       <use xlink:href="#DejaVuSans-65" x="255.664062"/>
       <use xlink:href="#DejaVuSans-72" x="317.1875"/>
       <use xlink:href="#DejaVuSans-61" x="358.300781"/>
       <use xlink:href="#DejaVuSans-74" x="419.580078"/>
       <use xlink:href="#DejaVuSans-6f" x="458.789062"/>
       <use xlink:href="#DejaVuSans-72" x="519.970703"/>
      </g>
     </g>
    </g>
   </g>
   <g id="matplotlib.axis_2">
    <g id="ytick_1">
     <g id="line2d_11">
      <defs>
       <path id="m1418ee8970" d="M 0 0 
L -3.5 0 
" style="stroke: #000000; stroke-width: 0.8"/>
      </defs>
      <g>
       <use xlink:href="#m1418ee8970" x="29.68" y="295.548636" style="stroke: #000000; stroke-width: 0.8"/>
      </g>
     </g>
     <g id="text_11">
      <!-- 4 -->
      <g transform="translate(10.88625 298.588011)scale(0.08 -0.08)">
       <defs>
        <path id="DejaVuSans-2212" d="M 678 2272 
L 4684 2272 
L 4684 1741 
L 678 1741 
L 678 2272 
z
" transform="scale(0.015625)"/>
        <path id="DejaVuSans-34" d="M 2419 4116 
L 825 1625 
L 2419 1625 
L 2419 4116 
z
M 2253 4666 
L 3047 4666 
L 3047 1625 
L 3713 1625 
L 3713 1100 
L 3047 1100 
L 3047 0 
L 2419 0 
L 2419 1100 
L 313 1100 
L 313 1709 
L 2253 4666 
z
" transform="scale(0.015625)"/>
       </defs>
       <use xlink:href="#DejaVuSans-2212"/>
       <use xlink:href="#DejaVuSans-34" x="83.789062"/>
      </g>
     </g>
    </g>
    <g id="ytick_2">
     <g id="line2d_12">
      <g>
       <use xlink:href="#m1418ee8970" x="29.68" y="238.986818" style="stroke: #000000; stroke-width: 0.8"/>
      </g>
     </g>
     <g id="text_12">
      <!-- 2 -->
      <g transform="translate(10.88625 242.026193)scale(0.08 -0.08)">
       <defs>
        <path id="DejaVuSans-32" d="M 1228 531 
L 3431 531 
L 3431 0 
L 469 0 
L 469 531 
Q 828 903 1448 1529 
Q 2069 2156 2228 2338 
Q 2531 2678 2651 2914 
Q 2772 3150 2772 3378 
Q 2772 3750 2511 3984 
Q 2250 4219 1831 4219 
Q 1534 4219 1204 4116 
Q 875 4013 500 3803 
L 500 4441 
Q 881 4594 1212 4672 
Q 1544 4750 1819 4750 
Q 2544 4750 2975 4387 
Q 3406 4025 3406 3419 
Q 3406 3131 3298 2873 
Q 3191 2616 2906 2266 
Q 2828 2175 2409 1742 
Q 1991 1309 1228 531 
z
" transform="scale(0.015625)"/>
       </defs>
       <use xlink:href="#DejaVuSans-2212"/>
       <use xlink:href="#DejaVuSans-32" x="83.789062"/>
      </g>
     </g>
    </g>
    <g id="ytick_3">
     <g id="line2d_13">
      <g>
       <use xlink:href="#m1418ee8970" x="29.68" y="182.425" style="stroke: #000000; stroke-width: 0.8"/>
      </g>
     </g>
     <g id="text_13">
      <!-- 0 -->
      <g transform="translate(17.59 185.464375)scale(0.08 -0.08)">
       <use xlink:href="#DejaVuSans-30"/>
      </g>
     </g>
    </g>
    <g id="ytick_4">
     <g id="line2d_14">
      <g>
       <use xlink:href="#m1418ee8970" x="29.68" y="125.863182" style="stroke: #000000; stroke-width: 0.8"/>
      </g>
     </g>
     <g id="text_14">
      <!-- 2 -->
      <g transform="translate(17.59 128.902557)scale(0.08 -0.08)">
       <use xlink:href="#DejaVuSans-32"/>
      </g>
     </g>
    </g>
    <g id="ytick_5">
     <g id="line2d_15">
      <g>
       <use xlink:href="#m1418ee8970" x="29.68" y="69.301364" style="stroke: #000000; stroke-width: 0.8"/>
      </g>
     </g>
     <g id="text_15">
      <!-- 4 -->
      <g transform="translate(17.59 72.340739)scale(0.08 -0.08)">
       <use xlink:href="#DejaVuSans-34"/>
      </g>
     </g>
    </g>
   </g>
   <g id="LineCollection_1">
    <path d="M 95.187273 157.679205 
L 113.903636 157.679205 
" clip-path="url(#pca440708ac)" style="fill: none; stroke: #1f77b4; stroke-width: 1.5"/>
    <path d="M 170.052727 182.425 
L 188.769091 182.425 
" clip-path="url(#pca440708ac)" style="fill: none; stroke: #1f77b4; stroke-width: 1.5"/>
    <path d="M 244.918182 156.972182 
L 263.634545 156.972182 
" clip-path="url(#pca440708ac)" style="fill: none; stroke: #1f77b4; stroke-width: 1.5"/>
    <path d="M 319.783636 182.425 
L 338.5 182.425 
" clip-path="url(#pca440708ac)" style="fill: none; stroke: #1f77b4; stroke-width: 1.5"/>
    <path d="M 394.649091 154.144091 
L 413.365455 154.144091 
" clip-path="url(#pca440708ac)" style="fill: none; stroke: #1f77b4; stroke-width: 1.5"/>
    <path d="M 469.514545 182.425 
L 488.230909 182.425 
" clip-path="url(#pca440708ac)" style="fill: none; stroke: #1f77b4; stroke-width: 1.5"/>
    <path d="M 544.38 181.010955 
L 563.096364 181.010955 
" clip-path="url(#pca440708ac)" style="fill: none; stroke: #1f77b4; stroke-width: 1.5"/>
    <path d="M 619.245455 207.877818 
L 637.961818 207.877818 
" clip-path="url(#pca440708ac)" style="fill: none; stroke: #1f77b4; stroke-width: 1.5"/>
    <path d="M 694.110909 207.877818 
L 712.827273 207.877818 
" clip-path="url(#pca440708ac)" style="fill: none; stroke: #1f77b4; stroke-width: 1.5"/>
    <path d="M 768.976364 192.323318 
L 787.692727 192.323318 
" clip-path="url(#pca440708ac)" style="fill: none; stroke: #1f77b4; stroke-width: 1.5"/>
   </g>
   <g id="patch_3">
    <path d="M 29.68 337.97 
L 29.68 26.88 
" style="fill: none; stroke: #000000; stroke-width: 0.8; stroke-linejoin: miter; stroke-linecap: square"/>
   </g>
   <g id="patch_4">
    <path d="M 853.2 337.97 
L 853.2 26.88 
" style="fill: none; stroke: #000000; stroke-width: 0.8; stroke-linejoin: miter; stroke-linecap: square"/>
   </g>
   <g id="patch_5">
    <path d="M 29.68 337.97 
L 853.2 337.97 
" style="fill: none; stroke: #000000; stroke-width: 0.8; stroke-linejoin: miter; stroke-linecap: square"/>
   </g>
   <g id="patch_6">
    <path d="M 29.68 26.88 
L 853.2 26.88 
" style="fill: none; stroke: #000000; stroke-width: 0.8; stroke-linejoin: miter; stroke-linecap: square"/>
   </g>
   <g id="text_16">
    <!-- Payoff differences - turns: 200, repetitions: 100, strategies: 10.  -->
    <g transform="translate(250.417813 20.88)scale(0.12 -0.12)">
     <defs>
      <path id="DejaVuSans-50" d="M 1259 4147 
L 1259 2394 
L 2053 2394 
Q 2494 2394 2734 2622 
Q 2975 2850 2975 3272 
Q 2975 3691 2734 3919 
Q 2494 4147 2053 4147 
L 1259 4147 
z
M 628 4666 
L 2053 4666 
Q 2838 4666 3239 4311 
Q 3641 3956 3641 3272 
Q 3641 2581 3239 2228 
Q 2838 1875 2053 1875 
L 1259 1875 
L 1259 0 
L 628 0 
L 628 4666 
z
" transform="scale(0.015625)"/>
      <path id="DejaVuSans-2d" d="M 313 2009 
L 1997 2009 
L 1997 1497 
L 313 1497 
L 313 2009 
z
" transform="scale(0.015625)"/>
      <path id="DejaVuSans-2c" d="M 750 794 
L 1409 794 
L 1409 256 
L 897 -744 
L 494 -744 
L 750 256 
L 750 794 
z
" transform="scale(0.015625)"/>
      <path id="DejaVuSans-31" d="M 794 531 
L 1825 531 
L 1825 4091 
L 703 3866 
L 703 4441 
L 1819 4666 
L 2450 4666 
L 2450 531 
L 3481 531 
L 3481 0 
L 794 0 
L 794 531 
z
" transform="scale(0.015625)"/>
     </defs>
     <use xlink:href="#DejaVuSans-50"/>
     <use xlink:href="#DejaVuSans-61" x="55.802734"/>
     <use xlink:href="#DejaVuSans-79" x="117.082031"/>
     <use xlink:href="#DejaVuSans-6f" x="176.261719"/>
     <use xlink:href="#DejaVuSans-66" x="237.443359"/>
     <use xlink:href="#DejaVuSans-66" x="272.648438"/>
     <use xlink:href="#DejaVuSans-20" x="307.853516"/>
     <use xlink:href="#DejaVuSans-64" x="339.640625"/>
     <use xlink:href="#DejaVuSans-69" x="403.117188"/>
     <use xlink:href="#DejaVuSans-66" x="430.900391"/>
     <use xlink:href="#DejaVuSans-66" x="466.105469"/>
     <use xlink:href="#DejaVuSans-65" x="501.310547"/>
     <use xlink:href="#DejaVuSans-72" x="562.833984"/>
     <use xlink:href="#DejaVuSans-65" x="601.697266"/>
     <use xlink:href="#DejaVuSans-6e" x="663.220703"/>
     <use xlink:href="#DejaVuSans-63" x="726.599609"/>
     <use xlink:href="#DejaVuSans-65" x="781.580078"/>
     <use xlink:href="#DejaVuSans-73" x="843.103516"/>
     <use xlink:href="#DejaVuSans-20" x="895.203125"/>
     <use xlink:href="#DejaVuSans-2d" x="926.990234"/>
     <use xlink:href="#DejaVuSans-20" x="963.074219"/>
     <use xlink:href="#DejaVuSans-74" x="994.861328"/>
     <use xlink:href="#DejaVuSans-75" x="1034.070312"/>
     <use xlink:href="#DejaVuSans-72" x="1097.449219"/>
     <use xlink:href="#DejaVuSans-6e" x="1136.8125"/>
     <use xlink:href="#DejaVuSans-73" x="1200.191406"/>
     <use xlink:href="#DejaVuSans-3a" x="1252.291016"/>
     <use xlink:href="#DejaVuSans-20" x="1285.982422"/>
     <use xlink:href="#DejaVuSans-32" x="1317.769531"/>
     <use xlink:href="#DejaVuSans-30" x="1381.392578"/>
     <use xlink:href="#DejaVuSans-30" x="1445.015625"/>
     <use xlink:href="#DejaVuSans-2c" x="1508.638672"/>
     <use xlink:href="#DejaVuSans-20" x="1540.425781"/>
     <use xlink:href="#DejaVuSans-72" x="1572.212891"/>
     <use xlink:href="#DejaVuSans-65" x="1611.076172"/>
     <use xlink:href="#DejaVuSans-70" x="1672.599609"/>
     <use xlink:href="#DejaVuSans-65" x="1736.076172"/>
     <use xlink:href="#DejaVuSans-74" x="1797.599609"/>
     <use xlink:href="#DejaVuSans-69" x="1836.808594"/>
     <use xlink:href="#DejaVuSans-74" x="1864.591797"/>
     <use xlink:href="#DejaVuSans-69" x="1903.800781"/>
     <use xlink:href="#DejaVuSans-6f" x="1931.583984"/>
     <use xlink:href="#DejaVuSans-6e" x="1992.765625"/>
     <use xlink:href="#DejaVuSans-73" x="2056.144531"/>
     <use xlink:href="#DejaVuSans-3a" x="2108.244141"/>
     <use xlink:href="#DejaVuSans-20" x="2141.935547"/>
     <use xlink:href="#DejaVuSans-31" x="2173.722656"/>
     <use xlink:href="#DejaVuSans-30" x="2237.345703"/>
     <use xlink:href="#DejaVuSans-30" x="2300.96875"/>
     <use xlink:href="#DejaVuSans-2c" x="2364.591797"/>
     <use xlink:href="#DejaVuSans-20" x="2396.378906"/>
     <use xlink:href="#DejaVuSans-73" x="2428.166016"/>
     <use xlink:href="#DejaVuSans-74" x="2480.265625"/>
     <use xlink:href="#DejaVuSans-72" x="2519.474609"/>
     <use xlink:href="#DejaVuSans-61" x="2560.587891"/>
     <use xlink:href="#DejaVuSans-74" x="2621.867188"/>
     <use xlink:href="#DejaVuSans-65" x="2661.076172"/>
     <use xlink:href="#DejaVuSans-67" x="2722.599609"/>
     <use xlink:href="#DejaVuSans-69" x="2786.076172"/>
     <use xlink:href="#DejaVuSans-65" x="2813.859375"/>
     <use xlink:href="#DejaVuSans-73" x="2875.382812"/>
     <use xlink:href="#DejaVuSans-3a" x="2927.482422"/>
     <use xlink:href="#DejaVuSans-20" x="2961.173828"/>
     <use xlink:href="#DejaVuSans-31" x="2992.960938"/>
     <use xlink:href="#DejaVuSans-30" x="3056.583984"/>
     <use xlink:href="#DejaVuSans-2e" x="3120.207031"/>
     <use xlink:href="#DejaVuSans-20" x="3151.994141"/>
    </g>
   </g>
  </g>
 </g>
 <defs>
  <clipPath id="pca440708ac">
   <rect x="29.68" y="26.88" width="823.52" height="311.09"/>
  </clipPath>
 </defs>
</svg>
