<?xml version="1.0" encoding="utf-8" standalone="no"?>
<!DOCTYPE svg PUBLIC "-//W3C//DTD SVG 1.1//EN"
  "http://www.w3.org/Graphics/SVG/1.1/DTD/svg11.dtd">
<svg xmlns:xlink="http://www.w3.org/1999/xlink" width="864pt" height="432pt" viewBox="0 0 864 432" xmlns="http://www.w3.org/2000/svg" version="1.1">
 <metadata>
  <rdf:RDF xmlns:dc="http://purl.org/dc/elements/1.1/" xmlns:cc="http://creativecommons.org/ns#" xmlns:rdf="http://www.w3.org/1999/02/22-rdf-syntax-ns#">
   <cc:Work>
    <dc:type rdf:resource="http://purl.org/dc/dcmitype/StillImage"/>
    <dc:date>2022-09-19T20:24:49.406778</dc:date>
    <dc:format>image/svg+xml</dc:format>
    <dc:creator>
     <cc:Agent>
      <dc:title>Matplotlib v3.5.1, https://matplotlib.org/</dc:title>
     </cc:Agent>
    </dc:creator>
   </cc:Work>
  </rdf:RDF>
 </metadata>
 <defs>
  <style type="text/css">*{stroke-linejoin: round; stroke-linecap: butt}</style>
 </defs>
 <g id="figure_1">
  <g id="patch_1">
   <path d="M 0 432 
L 864 432 
L 864 0 
L 0 0 
z
" style="fill: #ffffff"/>
  </g>
  <g id="axes_1">
   <g id="patch_2">
    <path d="M 35.71 337.97 
L 853.2 337.97 
L 853.2 26.88 
L 35.71 26.88 
z
" style="fill: #ffffff"/>
   </g>
   <g id="PolyCollection_1">
    <path d="M 114.592372 169.961909 
L 105.462174 169.961909 
L 104.906516 168.65947 
L 104.31711 167.357031 
L 103.696815 166.054592 
L 103.049144 164.752153 
L 102.378202 163.449714 
L 101.688615 162.147275 
L 100.98544 160.844836 
L 100.274064 159.542397 
L 99.560096 158.239958 
L 98.84926 156.93752 
L 98.147285 155.635081 
L 97.45981 154.332642 
L 96.792289 153.030203 
L 96.149907 151.727764 
L 95.5375 150.425325 
L 94.959487 149.122886 
L 94.419795 147.820447 
L 93.921797 146.518008 
L 93.468244 145.215569 
L 93.061204 143.91313 
L 92.702001 142.610691 
L 92.39117 141.308252 
L 92.128428 140.005813 
L 91.912666 138.703374 
L 91.741973 137.400936 
L 91.613693 136.098497 
L 91.524527 134.796058 
L 91.470664 133.493619 
L 91.447955 132.19118 
L 91.452105 130.888741 
L 91.478885 129.586302 
L 91.524335 128.283863 
L 91.584955 126.981424 
L 91.657857 125.678985 
L 91.740875 124.376546 
L 91.832607 123.074107 
L 91.932398 121.771668 
L 92.040251 120.469229 
L 92.156682 119.16679 
L 92.282527 117.864352 
L 92.41871 116.561913 
L 92.566009 115.259474 
L 92.72482 113.957035 
L 92.894958 112.654596 
L 93.075504 111.352157 
L 93.264716 110.049718 
L 93.46001 108.747279 
L 93.658014 107.44484 
L 93.854703 106.142401 
L 94.045581 104.839962 
L 94.225924 103.537523 
L 94.391051 102.235084 
L 94.536598 100.932645 
L 94.658794 99.630207 
L 94.754705 98.327768 
L 94.822435 97.025329 
L 94.861276 95.72289 
L 94.871792 94.420451 
L 94.855845 93.118012 
L 94.816548 91.815573 
L 94.758171 90.513134 
L 94.685991 89.210695 
L 94.606104 87.908256 
L 94.525209 86.605817 
L 94.450379 85.303378 
L 94.38882 84.000939 
L 94.347641 82.6985 
L 94.333631 81.396061 
L 94.353059 80.093623 
L 94.411488 78.791184 
L 94.513625 77.488745 
L 94.663193 76.186306 
L 94.862827 74.883867 
L 95.114013 73.581428 
L 95.417045 72.278989 
L 95.771021 70.97655 
L 96.173871 69.674111 
L 96.622415 68.371672 
L 97.112463 67.069233 
L 97.638937 65.766794 
L 98.196028 64.464355 
L 98.777381 63.161916 
L 99.376289 61.859477 
L 99.985914 60.557039 
L 100.59949 59.2546 
L 101.210536 57.952161 
L 101.813041 56.649722 
L 102.401619 55.347283 
L 102.971639 54.044844 
L 103.519305 52.742405 
L 104.041698 51.439966 
L 104.53677 50.137527 
L 105.003304 48.835088 
L 105.440832 47.532649 
L 105.849536 46.23021 
L 106.23012 44.927771 
L 106.583681 43.625332 
L 106.911583 42.322893 
L 107.215332 41.020455 
L 112.839214 41.020455 
L 112.839214 41.020455 
L 113.142962 42.322893 
L 113.470864 43.625332 
L 113.824426 44.927771 
L 114.20501 46.23021 
L 114.613713 47.532649 
L 115.051242 48.835088 
L 115.517775 50.137527 
L 116.012847 51.439966 
L 116.53524 52.742405 
L 117.082906 54.044844 
L 117.652926 55.347283 
L 118.241505 56.649722 
L 118.844009 57.952161 
L 119.455056 59.2546 
L 120.068632 60.557039 
L 120.678256 61.859477 
L 121.277165 63.161916 
L 121.858517 64.464355 
L 122.415608 65.766794 
L 122.942082 67.069233 
L 123.43213 68.371672 
L 123.880675 69.674111 
L 124.283524 70.97655 
L 124.6375 72.278989 
L 124.940532 73.581428 
L 125.191718 74.883867 
L 125.391353 76.186306 
L 125.54092 77.488745 
L 125.643058 78.791184 
L 125.701487 80.093623 
L 125.720914 81.396061 
L 125.706905 82.6985 
L 125.665726 84.000939 
L 125.604167 85.303378 
L 125.529336 86.605817 
L 125.448442 87.908256 
L 125.368555 89.210695 
L 125.296375 90.513134 
L 125.237998 91.815573 
L 125.198701 93.118012 
L 125.182753 94.420451 
L 125.19327 95.72289 
L 125.232111 97.025329 
L 125.299841 98.327768 
L 125.395752 99.630207 
L 125.517948 100.932645 
L 125.663495 102.235084 
L 125.828621 103.537523 
L 126.008965 104.839962 
L 126.199843 106.142401 
L 126.396531 107.44484 
L 126.594536 108.747279 
L 126.789829 110.049718 
L 126.979041 111.352157 
L 127.159588 112.654596 
L 127.329725 113.957035 
L 127.488536 115.259474 
L 127.635835 116.561913 
L 127.772019 117.864352 
L 127.897863 119.16679 
L 128.014294 120.469229 
L 128.122147 121.771668 
L 128.221938 123.074107 
L 128.313671 124.376546 
L 128.396689 125.678985 
L 128.469591 126.981424 
L 128.53021 128.283863 
L 128.57566 129.586302 
L 128.60244 130.888741 
L 128.606591 132.19118 
L 128.583882 133.493619 
L 128.530019 134.796058 
L 128.440852 136.098497 
L 128.312573 137.400936 
L 128.141879 138.703374 
L 127.926118 140.005813 
L 127.663376 141.308252 
L 127.352545 142.610691 
L 126.993341 143.91313 
L 126.586301 145.215569 
L 126.132749 146.518008 
L 125.634751 147.820447 
L 125.095059 149.122886 
L 124.517045 150.425325 
L 123.904638 151.727764 
L 123.262256 153.030203 
L 122.594736 154.332642 
L 121.907261 155.635081 
L 121.205286 156.93752 
L 120.494449 158.239958 
L 119.780481 159.542397 
L 119.069106 160.844836 
L 118.365931 162.147275 
L 117.676344 163.449714 
L 117.005401 164.752153 
L 116.35773 166.054592 
L 115.737436 167.357031 
L 115.148029 168.65947 
L 114.592372 169.961909 
z
" clip-path="url(#p34526222db)" style="fill: #1f77b4; fill-opacity: 0.3"/>
   </g>
   <g id="PolyCollection_2">
    <path d="M 199.667207 182.143878 
L 169.021884 182.143878 
L 168.470374 181.712255 
L 167.958054 181.280633 
L 167.489916 180.849011 
L 167.07062 180.417389 
L 166.704416 179.985767 
L 166.395073 179.554144 
L 166.145813 179.122522 
L 165.959257 178.6909 
L 165.837379 178.259278 
L 165.781466 177.827656 
L 165.792102 177.396033 
L 165.869154 176.964411 
L 166.011774 176.532789 
L 166.218413 176.101167 
L 166.486853 175.669545 
L 166.814239 175.237922 
L 167.197135 174.8063 
L 167.631577 174.374678 
L 168.113146 173.943056 
L 168.637034 173.511434 
L 169.198125 173.079811 
L 169.791077 172.648189 
L 170.410399 172.216567 
L 171.050533 171.784945 
L 171.70593 171.353323 
L 172.371126 170.9217 
L 173.040806 170.490078 
L 173.709867 170.058456 
L 174.373467 169.626834 
L 175.027075 169.195212 
L 175.6665 168.763589 
L 176.28792 168.331967 
L 176.887899 167.900345 
L 177.463391 167.468723 
L 178.011741 167.0371 
L 178.530676 166.605478 
L 179.018288 166.173856 
L 179.47301 165.742234 
L 179.89359 165.310612 
L 180.279062 164.878989 
L 180.628702 164.447367 
L 180.942004 164.015745 
L 181.218634 163.584123 
L 181.458395 163.152501 
L 181.661198 162.720878 
L 181.827022 162.289256 
L 181.955891 161.857634 
L 182.047848 161.426012 
L 182.102932 160.99439 
L 182.12117 160.562767 
L 182.102562 160.131145 
L 182.047084 159.699523 
L 181.954686 159.267901 
L 181.825303 158.836279 
L 181.658874 158.404656 
L 181.455354 157.973034 
L 181.214747 157.541412 
L 180.937129 157.10979 
L 180.622685 156.678168 
L 180.271742 156.246545 
L 179.884806 155.814923 
L 179.462599 155.383301 
L 179.006096 154.951679 
L 178.51656 154.520057 
L 177.995574 154.088434 
L 177.445066 153.656812 
L 176.867336 153.22519 
L 176.265069 152.793568 
L 175.641345 152.361946 
L 174.999638 151.930323 
L 174.343812 151.498701 
L 173.678099 151.067079 
L 173.007075 150.635457 
L 172.335624 150.203835 
L 171.668894 149.772212 
L 171.01224 149.34059 
L 170.371165 148.908968 
L 169.751252 148.477346 
L 169.158085 148.045724 
L 168.597181 147.614101 
L 168.073896 147.182479 
L 167.593357 146.750857 
L 167.160369 146.319235 
L 166.779346 145.887612 
L 166.454237 145.45599 
L 166.188455 145.024368 
L 165.984823 144.592746 
L 165.845522 144.161124 
L 165.772057 143.729501 
L 165.765227 143.297879 
L 165.825113 142.866257 
L 165.951077 142.434635 
L 166.14177 142.003013 
L 166.395165 141.57139 
L 166.708583 141.139768 
L 167.078747 140.708146 
L 167.501838 140.276524 
L 167.973558 139.844902 
L 168.489208 139.413279 
L 200.199883 139.413279 
L 200.199883 139.413279 
L 200.715532 139.844902 
L 201.187253 140.276524 
L 201.610344 140.708146 
L 201.980508 141.139768 
L 202.293926 141.57139 
L 202.54732 142.003013 
L 202.738014 142.434635 
L 202.863978 142.866257 
L 202.923864 143.297879 
L 202.917034 143.729501 
L 202.843569 144.161124 
L 202.704268 144.592746 
L 202.500636 145.024368 
L 202.234854 145.45599 
L 201.909744 145.887612 
L 201.528722 146.319235 
L 201.095734 146.750857 
L 200.615194 147.182479 
L 200.09191 147.614101 
L 199.531005 148.045724 
L 198.937839 148.477346 
L 198.317926 148.908968 
L 197.676851 149.34059 
L 197.020197 149.772212 
L 196.353466 150.203835 
L 195.682016 150.635457 
L 195.010992 151.067079 
L 194.345279 151.498701 
L 193.689452 151.930323 
L 193.047746 152.361946 
L 192.424022 152.793568 
L 191.821755 153.22519 
L 191.244025 153.656812 
L 190.693517 154.088434 
L 190.172531 154.520057 
L 189.682995 154.951679 
L 189.226492 155.383301 
L 188.804285 155.814923 
L 188.417349 156.246545 
L 188.066406 156.678168 
L 187.751962 157.10979 
L 187.474344 157.541412 
L 187.233737 157.973034 
L 187.030217 158.404656 
L 186.863787 158.836279 
L 186.734405 159.267901 
L 186.642007 159.699523 
L 186.586529 160.131145 
L 186.567921 160.562767 
L 186.586159 160.99439 
L 186.641243 161.426012 
L 186.7332 161.857634 
L 186.862069 162.289256 
L 187.027893 162.720878 
L 187.230696 163.152501 
L 187.470457 163.584123 
L 187.747086 164.015745 
L 188.060388 164.447367 
L 188.410029 164.878989 
L 188.7955 165.310612 
L 189.216081 165.742234 
L 189.670803 166.173856 
L 190.158415 166.605478 
L 190.67735 167.0371 
L 191.2257 167.468723 
L 191.801192 167.900345 
L 192.401171 168.331967 
L 193.022591 168.763589 
L 193.662016 169.195212 
L 194.315624 169.626834 
L 194.979224 170.058456 
L 195.648284 170.490078 
L 196.317965 170.9217 
L 196.983161 171.353323 
L 197.638558 171.784945 
L 198.278692 172.216567 
L 198.898014 172.648189 
L 199.490966 173.079811 
L 200.052057 173.511434 
L 200.575945 173.943056 
L 201.057513 174.374678 
L 201.491956 174.8063 
L 201.874852 175.237922 
L 202.202238 175.669545 
L 202.470678 176.101167 
L 202.677317 176.532789 
L 202.819937 176.964411 
L 202.896989 177.396033 
L 202.907625 177.827656 
L 202.851712 178.259278 
L 202.729834 178.6909 
L 202.543278 179.122522 
L 202.294018 179.554144 
L 201.984675 179.985767 
L 201.618471 180.417389 
L 201.199175 180.849011 
L 200.731037 181.280633 
L 200.218717 181.712255 
L 199.667207 182.143878 
z
" clip-path="url(#p34526222db)" style="fill: #1f77b4; fill-opacity: 0.3"/>
   </g>
   <g id="PolyCollection_3">
    <path d="M 265.960959 232.183657 
L 251.362678 232.183657 
L 250.683321 230.566967 
L 249.984261 228.950277 
L 249.269498 227.333587 
L 248.543417 225.716896 
L 247.810789 224.100206 
L 247.076777 222.483516 
L 246.346936 220.866826 
L 245.6272 219.250136 
L 244.92386 217.633445 
L 244.243506 216.016755 
L 243.592953 214.400065 
L 242.979129 212.783375 
L 242.40893 211.166685 
L 241.889047 209.549995 
L 241.425766 207.933304 
L 241.024758 206.316614 
L 240.690853 204.699924 
L 240.427834 203.083234 
L 240.238248 201.466544 
L 240.123249 199.849853 
L 240.0825 198.233163 
L 240.114119 196.616473 
L 240.2147 194.999783 
L 240.379388 193.383093 
L 240.602022 191.766402 
L 240.87533 190.149712 
L 241.191162 188.533022 
L 241.540754 186.916332 
L 241.915009 185.299642 
L 242.304765 183.682952 
L 242.701056 182.066261 
L 243.095336 180.449571 
L 243.479667 178.832881 
L 243.846865 177.216191 
L 244.190592 175.599501 
L 244.505415 173.98281 
L 244.786814 172.36612 
L 245.031163 170.74943 
L 245.235691 169.13274 
L 245.398417 167.51605 
L 245.518088 165.89936 
L 245.594117 164.282669 
L 245.626526 162.665979 
L 245.615903 161.049289 
L 245.563377 159.432599 
L 245.47061 157.815909 
L 245.339798 156.199218 
L 245.173698 154.582528 
L 244.975649 152.965838 
L 244.74961 151.349148 
L 244.500187 149.732458 
L 244.232645 148.115767 
L 243.952917 146.499077 
L 243.667569 144.882387 
L 243.383747 143.265697 
L 243.109077 141.649007 
L 242.851536 140.032317 
L 242.619273 138.415626 
L 242.420408 136.798936 
L 242.262792 135.182246 
L 242.153755 133.565556 
L 242.099854 131.948866 
L 242.106616 130.332175 
L 242.178323 128.715485 
L 242.317819 127.098795 
L 242.526386 125.482105 
L 242.803659 123.865415 
L 243.147631 122.248724 
L 243.554704 120.632034 
L 244.019826 119.015344 
L 244.536668 117.398654 
L 245.097863 115.781964 
L 245.695275 114.165274 
L 246.320287 112.548583 
L 246.964098 110.931893 
L 247.618012 109.315203 
L 248.273695 107.698513 
L 248.923416 106.081823 
L 249.560231 104.465132 
L 250.17813 102.848442 
L 250.772133 101.231752 
L 251.338334 99.615062 
L 251.873907 97.998372 
L 252.377066 96.381681 
L 252.846991 94.764991 
L 253.283729 93.148301 
L 253.688069 91.531611 
L 254.061413 89.914921 
L 254.405633 88.298231 
L 254.722934 86.68154 
L 255.015719 85.06485 
L 255.286465 83.44816 
L 255.537619 81.83147 
L 255.771506 80.21478 
L 255.990256 78.598089 
L 256.195749 76.981399 
L 256.389586 75.364709 
L 256.573073 73.748019 
L 256.747218 72.131329 
L 260.576418 72.131329 
L 260.576418 72.131329 
L 260.750564 73.748019 
L 260.93405 75.364709 
L 261.127888 76.981399 
L 261.333381 78.598089 
L 261.55213 80.21478 
L 261.786017 81.83147 
L 262.037172 83.44816 
L 262.307918 85.06485 
L 262.600702 86.68154 
L 262.918003 88.298231 
L 263.262224 89.914921 
L 263.635568 91.531611 
L 264.039908 93.148301 
L 264.476645 94.764991 
L 264.94657 96.381681 
L 265.449729 97.998372 
L 265.985303 99.615062 
L 266.551504 101.231752 
L 267.145506 102.848442 
L 267.763406 104.465132 
L 268.400221 106.081823 
L 269.049942 107.698513 
L 269.705625 109.315203 
L 270.359538 110.931893 
L 271.00335 112.548583 
L 271.628362 114.165274 
L 272.225774 115.781964 
L 272.786969 117.398654 
L 273.30381 119.015344 
L 273.768932 120.632034 
L 274.176006 122.248724 
L 274.519977 123.865415 
L 274.797251 125.482105 
L 275.005817 127.098795 
L 275.145314 128.715485 
L 275.21702 130.332175 
L 275.223782 131.948866 
L 275.169881 133.565556 
L 275.060845 135.182246 
L 274.903228 136.798936 
L 274.704363 138.415626 
L 274.472101 140.032317 
L 274.214559 141.649007 
L 273.93989 143.265697 
L 273.656067 144.882387 
L 273.37072 146.499077 
L 273.090991 148.115767 
L 272.82345 149.732458 
L 272.574026 151.349148 
L 272.347987 152.965838 
L 272.149939 154.582528 
L 271.983838 156.199218 
L 271.853027 157.815909 
L 271.760259 159.432599 
L 271.707733 161.049289 
L 271.69711 162.665979 
L 271.729519 164.282669 
L 271.805548 165.89936 
L 271.92522 167.51605 
L 272.087945 169.13274 
L 272.292473 170.74943 
L 272.536823 172.36612 
L 272.818221 173.98281 
L 273.133044 175.599501 
L 273.476772 177.216191 
L 273.843969 178.832881 
L 274.228301 180.449571 
L 274.62258 182.066261 
L 275.018871 183.682952 
L 275.408627 185.299642 
L 275.782882 186.916332 
L 276.132475 188.533022 
L 276.448306 190.149712 
L 276.721614 191.766402 
L 276.944249 193.383093 
L 277.108937 194.999783 
L 277.209517 196.616473 
L 277.241136 198.233163 
L 277.200387 199.849853 
L 277.085389 201.466544 
L 276.895802 203.083234 
L 276.632784 204.699924 
L 276.298879 206.316614 
L 275.89787 207.933304 
L 275.43459 209.549995 
L 274.914706 211.166685 
L 274.344507 212.783375 
L 273.730683 214.400065 
L 273.08013 216.016755 
L 272.399776 217.633445 
L 271.696436 219.250136 
L 270.976701 220.866826 
L 270.246859 222.483516 
L 269.512848 224.100206 
L 268.78022 225.716896 
L 268.054138 227.333587 
L 267.339375 228.950277 
L 266.640315 230.566967 
L 265.960959 232.183657 
z
" clip-path="url(#p34526222db)" style="fill: #1f77b4; fill-opacity: 0.3"/>
   </g>
   <g id="PolyCollection_4">
    <path d="M 348.479046 242.491477 
L 317.479136 242.491477 
L 316.649848 241.228793 
L 315.926888 239.966108 
L 315.327505 238.703424 
L 314.866276 237.44074 
L 314.554509 236.178056 
L 314.399773 234.915371 
L 314.405579 233.652687 
L 314.571234 232.390003 
L 314.891873 231.127319 
L 315.358658 229.864634 
L 315.959145 228.60195 
L 316.677776 227.339266 
L 317.496486 226.076582 
L 318.395371 224.813897 
L 319.353388 223.551213 
L 320.349046 222.288529 
L 321.361063 221.025845 
L 322.368938 219.76316 
L 323.353441 218.500476 
L 324.29699 217.237792 
L 325.183911 215.975108 
L 326.000591 214.712423 
L 326.735523 213.449739 
L 327.379266 212.187055 
L 327.924338 210.924371 
L 328.36506 209.661686 
L 328.697379 208.399002 
L 328.918691 207.136318 
L 329.027679 205.873633 
L 329.024182 204.610949 
L 328.909117 203.348265 
L 328.684436 202.085581 
L 328.353141 200.822896 
L 327.91934 199.560212 
L 327.38833 198.297528 
L 326.766707 197.034844 
L 326.06248 195.772159 
L 325.285158 194.509475 
L 324.445825 193.246791 
L 323.557149 191.984107 
L 322.63334 190.721422 
L 321.690025 189.458738 
L 320.744051 188.196054 
L 319.813203 186.93337 
L 318.915838 185.670685 
L 318.070455 184.408001 
L 317.29521 183.145317 
L 316.607392 181.882633 
L 316.022884 180.619948 
L 315.555639 179.357264 
L 315.217194 178.09458 
L 315.016245 176.831896 
L 314.958314 175.569211 
L 315.045525 174.306527 
L 315.2765 173.043843 
L 315.646395 171.781159 
L 316.14706 170.518474 
L 316.767338 169.25579 
L 317.493467 167.993106 
L 318.309588 166.730422 
L 319.198315 165.467737 
L 320.141347 164.205053 
L 321.120092 162.942369 
L 322.11627 161.679685 
L 323.112469 160.417 
L 324.092627 159.154316 
L 325.042428 157.891632 
L 325.949596 156.628948 
L 326.804076 155.366263 
L 327.598116 154.103579 
L 328.32625 152.840895 
L 328.985188 151.57821 
L 329.57364 150.315526 
L 330.092088 149.052842 
L 330.542519 147.790158 
L 330.928143 146.527473 
L 331.253113 145.264789 
L 331.522254 144.002105 
L 331.740819 142.739421 
L 331.914274 141.476736 
L 332.04812 140.214052 
L 332.147745 138.951368 
L 332.218322 137.688684 
L 332.264727 136.425999 
L 332.291486 135.163315 
L 332.30275 133.900631 
L 332.30228 132.637947 
L 332.293444 131.375262 
L 332.279225 130.112578 
L 332.26223 128.849894 
L 332.244702 127.58721 
L 332.228532 126.324525 
L 332.215273 125.061841 
L 332.20615 123.799157 
L 332.202078 122.536473 
L 332.203673 121.273788 
L 332.211275 120.011104 
L 332.224962 118.74842 
L 332.244583 117.485736 
L 333.713599 117.485736 
L 333.713599 117.485736 
L 333.73322 118.74842 
L 333.746907 120.011104 
L 333.754508 121.273788 
L 333.756104 122.536473 
L 333.752032 123.799157 
L 333.742909 125.061841 
L 333.729649 126.324525 
L 333.713479 127.58721 
L 333.695951 128.849894 
L 333.678957 130.112578 
L 333.664738 131.375262 
L 333.655902 132.637947 
L 333.655432 133.900631 
L 333.666696 135.163315 
L 333.693455 136.425999 
L 333.739859 137.688684 
L 333.810437 138.951368 
L 333.910062 140.214052 
L 334.043907 141.476736 
L 334.217363 142.739421 
L 334.435928 144.002105 
L 334.705069 145.264789 
L 335.030039 146.527473 
L 335.415663 147.790158 
L 335.866094 149.052842 
L 336.384542 150.315526 
L 336.972994 151.57821 
L 337.631932 152.840895 
L 338.360066 154.103579 
L 339.154106 155.366263 
L 340.008586 156.628948 
L 340.915753 157.891632 
L 341.865555 159.154316 
L 342.845713 160.417 
L 343.841912 161.679685 
L 344.83809 162.942369 
L 345.816835 164.205053 
L 346.759867 165.467737 
L 347.648594 166.730422 
L 348.464715 167.993106 
L 349.190844 169.25579 
L 349.811121 170.518474 
L 350.311787 171.781159 
L 350.681682 173.043843 
L 350.912657 174.306527 
L 350.999868 175.569211 
L 350.941937 176.831896 
L 350.740988 178.09458 
L 350.402543 179.357264 
L 349.935298 180.619948 
L 349.35079 181.882633 
L 348.662972 183.145317 
L 347.887727 184.408001 
L 347.042344 185.670685 
L 346.144979 186.93337 
L 345.21413 188.196054 
L 344.268157 189.458738 
L 343.324842 190.721422 
L 342.401033 191.984107 
L 341.512357 193.246791 
L 340.673024 194.509475 
L 339.895702 195.772159 
L 339.191474 197.034844 
L 338.569852 198.297528 
L 338.038842 199.560212 
L 337.60504 200.822896 
L 337.273746 202.085581 
L 337.049065 203.348265 
L 336.934 204.610949 
L 336.930503 205.873633 
L 337.03949 207.136318 
L 337.260803 208.399002 
L 337.593122 209.661686 
L 338.033844 210.924371 
L 338.578916 212.187055 
L 339.222659 213.449739 
L 339.95759 214.712423 
L 340.77427 215.975108 
L 341.661192 217.237792 
L 342.604741 218.500476 
L 343.589244 219.76316 
L 344.597119 221.025845 
L 345.609136 222.288529 
L 346.604794 223.551213 
L 347.562811 224.813897 
L 348.461696 226.076582 
L 349.280406 227.339266 
L 349.999037 228.60195 
L 350.599524 229.864634 
L 351.066309 231.127319 
L 351.386948 232.390003 
L 351.552603 233.652687 
L 351.558409 234.915371 
L 351.403673 236.178056 
L 351.091906 237.44074 
L 350.630677 238.703424 
L 350.031294 239.966108 
L 349.308333 241.228793 
L 348.479046 242.491477 
z
" clip-path="url(#p34526222db)" style="fill: #1f77b4; fill-opacity: 0.3"/>
   </g>
   <g id="PolyCollection_5">
    <path d="M 416.509994 230.871753 
L 398.082733 230.871753 
L 397.252471 229.372434 
L 396.421074 227.873114 
L 395.597593 226.373795 
L 394.791001 224.874476 
L 394.009963 223.375157 
L 393.262626 221.875837 
L 392.556438 220.376518 
L 391.898009 218.877199 
L 391.29302 217.37788 
L 390.746161 215.87856 
L 390.261127 214.379241 
L 389.840633 212.879922 
L 389.486465 211.380603 
L 389.199547 209.881284 
L 388.980021 208.381964 
L 388.827321 206.882645 
L 388.740251 205.383326 
L 388.717045 203.884007 
L 388.755424 202.384687 
L 388.852629 200.885368 
L 389.005453 199.386049 
L 389.210259 197.88673 
L 389.463005 196.38741 
L 389.759258 194.888091 
L 390.094227 193.388772 
L 390.4628 191.889453 
L 390.859596 190.390133 
L 391.279028 188.890814 
L 391.71538 187.391495 
L 392.16289 185.892176 
L 392.615844 184.392856 
L 393.068658 182.893537 
L 393.515976 181.394218 
L 393.952743 179.894899 
L 394.374277 178.39558 
L 394.776331 176.89626 
L 395.155142 175.396941 
L 395.50747 173.897622 
L 395.830633 172.398303 
L 396.122533 170.898983 
L 396.381685 169.399664 
L 396.607248 167.900345 
L 396.799046 166.401026 
L 396.957602 164.901706 
L 397.084166 163.402387 
L 397.180732 161.903068 
L 397.25005 160.403749 
L 397.295615 158.904429 
L 397.321638 157.40511 
L 397.332977 155.905791 
L 397.335046 154.406472 
L 397.333672 152.907153 
L 397.334934 151.407833 
L 397.344951 149.908514 
L 397.369664 148.409195 
L 397.414592 146.909876 
L 397.484592 145.410556 
L 397.583638 143.911237 
L 397.714621 142.411918 
L 397.879204 140.912599 
L 398.077724 139.413279 
L 398.309169 137.91396 
L 398.571216 136.414641 
L 398.860345 134.915322 
L 399.172012 133.416002 
L 399.50088 131.916683 
L 399.841087 130.417364 
L 400.186538 128.918045 
L 400.531199 127.418726 
L 400.869381 125.919406 
L 401.195987 124.420087 
L 401.506725 122.920768 
L 401.798253 121.421449 
L 402.068272 119.922129 
L 402.31555 118.42281 
L 402.539894 116.923491 
L 402.74206 115.424172 
L 402.923623 113.924852 
L 403.086817 112.425533 
L 403.234353 110.926214 
L 403.369231 109.426895 
L 403.494559 107.927575 
L 403.613386 106.428256 
L 403.728554 104.928937 
L 403.842589 103.429618 
L 403.957615 101.930299 
L 404.075298 100.430979 
L 404.196832 98.93166 
L 404.322937 97.432341 
L 404.453893 95.933022 
L 404.589581 94.433702 
L 404.729545 92.934383 
L 404.873053 91.435064 
L 405.019165 89.935745 
L 405.1668 88.436425 
L 405.314793 86.937106 
L 405.461954 85.437787 
L 405.607113 83.938468 
L 405.749155 82.439148 
L 408.843573 82.439148 
L 408.843573 82.439148 
L 408.985614 83.938468 
L 409.130773 85.437787 
L 409.277934 86.937106 
L 409.425928 88.436425 
L 409.573562 89.935745 
L 409.719674 91.435064 
L 409.863182 92.934383 
L 410.003146 94.433702 
L 410.138835 95.933022 
L 410.269791 97.432341 
L 410.395896 98.93166 
L 410.517429 100.430979 
L 410.635113 101.930299 
L 410.750138 103.429618 
L 410.864173 104.928937 
L 410.979342 106.428256 
L 411.098168 107.927575 
L 411.223496 109.426895 
L 411.358375 110.926214 
L 411.505911 112.425533 
L 411.669105 113.924852 
L 411.850667 115.424172 
L 412.052833 116.923491 
L 412.277177 118.42281 
L 412.524456 119.922129 
L 412.794474 121.421449 
L 413.086002 122.920768 
L 413.39674 124.420087 
L 413.723347 125.919406 
L 414.061528 127.418726 
L 414.406189 128.918045 
L 414.75164 130.417364 
L 415.091847 131.916683 
L 415.420715 133.416002 
L 415.732382 134.915322 
L 416.021511 136.414641 
L 416.283558 137.91396 
L 416.515003 139.413279 
L 416.713524 140.912599 
L 416.878106 142.411918 
L 417.009089 143.911237 
L 417.108135 145.410556 
L 417.178135 146.909876 
L 417.223063 148.409195 
L 417.247776 149.908514 
L 417.257794 151.407833 
L 417.259055 152.907153 
L 417.257682 154.406472 
L 417.25975 155.905791 
L 417.27109 157.40511 
L 417.297112 158.904429 
L 417.342678 160.403749 
L 417.411995 161.903068 
L 417.508561 163.402387 
L 417.635125 164.901706 
L 417.793682 166.401026 
L 417.985479 167.900345 
L 418.211042 169.399664 
L 418.470195 170.898983 
L 418.762095 172.398303 
L 419.085257 173.897622 
L 419.437585 175.396941 
L 419.816396 176.89626 
L 420.218451 178.39558 
L 420.639984 179.894899 
L 421.076751 181.394218 
L 421.524069 182.893537 
L 421.976884 184.392856 
L 422.429837 185.892176 
L 422.877348 187.391495 
L 423.3137 188.890814 
L 423.733132 190.390133 
L 424.129928 191.889453 
L 424.498501 193.388772 
L 424.83347 194.888091 
L 425.129722 196.38741 
L 425.382468 197.88673 
L 425.587275 199.386049 
L 425.740098 200.885368 
L 425.837303 202.384687 
L 425.875682 203.884007 
L 425.852477 205.383326 
L 425.765406 206.882645 
L 425.612706 208.381964 
L 425.39318 209.881284 
L 425.106263 211.380603 
L 424.752094 212.879922 
L 424.3316 214.379241 
L 423.846566 215.87856 
L 423.299708 217.37788 
L 422.694718 218.877199 
L 422.03629 220.376518 
L 421.330101 221.875837 
L 420.582764 223.375157 
L 419.801727 224.874476 
L 418.995135 226.373795 
L 418.171653 227.873114 
L 417.340256 229.372434 
L 416.509994 230.871753 
z
" clip-path="url(#p34526222db)" style="fill: #1f77b4; fill-opacity: 0.3"/>
   </g>
   <g id="PolyCollection_6">
    <path d="M 482.584967 308.648938 
L 480.642306 308.648938 
L 480.546948 306.844833 
L 480.445949 305.040728 
L 480.338487 303.236623 
L 480.223568 301.432518 
L 480.100061 299.628413 
L 479.966732 297.824308 
L 479.822292 296.020203 
L 479.665455 294.216097 
L 479.495002 292.411992 
L 479.309856 290.607887 
L 479.109159 288.803782 
L 478.892363 286.999677 
L 478.659316 285.195572 
L 478.410344 283.391467 
L 478.146323 281.587362 
L 477.868724 279.783257 
L 477.579632 277.979152 
L 477.281713 276.175047 
L 476.978142 274.370941 
L 476.672461 272.566836 
L 476.368397 270.762731 
L 476.069623 268.958626 
L 475.779478 267.154521 
L 475.500674 265.350416 
L 475.234999 263.546311 
L 474.983043 261.742206 
L 474.743982 259.938101 
L 474.515432 258.133996 
L 474.293403 256.329891 
L 474.072367 254.525785 
L 473.845454 252.72168 
L 473.604762 250.917575 
L 473.341791 249.11347 
L 473.047965 247.309365 
L 472.715219 245.50526 
L 472.336612 243.701155 
L 471.906923 241.89705 
L 471.423182 240.092945 
L 470.885092 238.28884 
L 470.295315 236.484735 
L 469.659572 234.680629 
L 468.986558 232.876524 
L 468.287672 231.072419 
L 467.576563 229.268314 
L 466.868527 227.464209 
L 466.1798 225.660104 
L 465.526779 223.855999 
L 464.92524 222.051894 
L 464.389582 220.247789 
L 463.932167 218.443684 
L 463.562766 216.639579 
L 463.288164 214.835473 
L 463.111922 213.031368 
L 463.034318 211.227263 
L 463.052455 209.423158 
L 463.160522 207.619053 
L 463.350205 205.814948 
L 463.611194 204.010843 
L 463.931788 202.206738 
L 464.299532 200.402633 
L 464.701872 198.598528 
L 465.126768 196.794423 
L 465.563243 194.990317 
L 466.001831 193.186212 
L 466.434881 191.382107 
L 466.856727 189.578002 
L 467.263699 187.773897 
L 467.653989 185.969792 
L 468.027402 184.165687 
L 468.385012 182.361582 
L 468.72878 180.557477 
L 469.061162 178.753372 
L 469.384759 176.949267 
L 469.702039 175.145161 
L 470.015158 173.341056 
L 470.325873 171.536951 
L 470.635567 169.732846 
L 470.945336 167.928741 
L 471.256133 166.124636 
L 471.568925 164.320531 
L 471.884818 162.516426 
L 472.205149 160.712321 
L 472.531497 158.908216 
L 472.865623 157.104111 
L 473.20934 155.300005 
L 473.564329 153.4959 
L 473.931927 151.691795 
L 474.312918 149.88769 
L 474.707347 148.083585 
L 475.114404 146.27948 
L 475.53236 144.475375 
L 475.958602 142.67127 
L 476.389733 140.867165 
L 476.821743 139.06306 
L 477.250228 137.258955 
L 477.670628 135.454849 
L 478.078479 133.650744 
L 478.46963 131.846639 
L 478.840439 130.042534 
L 484.386834 130.042534 
L 484.386834 130.042534 
L 484.757643 131.846639 
L 485.148794 133.650744 
L 485.556645 135.454849 
L 485.977045 137.258955 
L 486.405529 139.06306 
L 486.83754 140.867165 
L 487.268671 142.67127 
L 487.694913 144.475375 
L 488.112869 146.27948 
L 488.519925 148.083585 
L 488.914355 149.88769 
L 489.295345 151.691795 
L 489.662944 153.4959 
L 490.017933 155.300005 
L 490.361649 157.104111 
L 490.695775 158.908216 
L 491.022123 160.712321 
L 491.342455 162.516426 
L 491.658348 164.320531 
L 491.971139 166.124636 
L 492.281937 167.928741 
L 492.591706 169.732846 
L 492.901399 171.536951 
L 493.212115 173.341056 
L 493.525233 175.145161 
L 493.842514 176.949267 
L 494.166111 178.753372 
L 494.498493 180.557477 
L 494.842261 182.361582 
L 495.199871 184.165687 
L 495.573284 185.969792 
L 495.963574 187.773897 
L 496.370545 189.578002 
L 496.792392 191.382107 
L 497.225442 193.186212 
L 497.664029 194.990317 
L 498.100505 196.794423 
L 498.525401 198.598528 
L 498.92774 200.402633 
L 499.295485 202.206738 
L 499.616079 204.010843 
L 499.877068 205.814948 
L 500.066751 207.619053 
L 500.174818 209.423158 
L 500.192955 211.227263 
L 500.115351 213.031368 
L 499.939109 214.835473 
L 499.664506 216.639579 
L 499.295106 218.443684 
L 498.837691 220.247789 
L 498.302033 222.051894 
L 497.700493 223.855999 
L 497.047473 225.660104 
L 496.358745 227.464209 
L 495.65071 229.268314 
L 494.939601 231.072419 
L 494.240715 232.876524 
L 493.567701 234.680629 
L 492.931957 236.484735 
L 492.34218 238.28884 
L 491.804091 240.092945 
L 491.32035 241.89705 
L 490.890661 243.701155 
L 490.512054 245.50526 
L 490.179308 247.309365 
L 489.885482 249.11347 
L 489.622511 250.917575 
L 489.381819 252.72168 
L 489.154905 254.525785 
L 488.93387 256.329891 
L 488.711841 258.133996 
L 488.483291 259.938101 
L 488.24423 261.742206 
L 487.992274 263.546311 
L 487.726598 265.350416 
L 487.447795 267.154521 
L 487.15765 268.958626 
L 486.858875 270.762731 
L 486.554812 272.566836 
L 486.249131 274.370941 
L 485.945559 276.175047 
L 485.647641 277.979152 
L 485.358548 279.783257 
L 485.08095 281.587362 
L 484.816928 283.391467 
L 484.567957 285.195572 
L 484.33491 286.999677 
L 484.118114 288.803782 
L 483.917417 290.607887 
L 483.73227 292.411992 
L 483.561818 294.216097 
L 483.404981 296.020203 
L 483.260541 297.824308 
L 483.127212 299.628413 
L 483.003705 301.432518 
L 482.888786 303.236623 
L 482.781324 305.040728 
L 482.680325 306.844833 
L 482.584967 308.648938 
z
" clip-path="url(#p34526222db)" style="fill: #1f77b4; fill-opacity: 0.3"/>
   </g>
   <g id="PolyCollection_7">
    <path d="M 569.156008 239.867668 
L 542.70581 239.867668 
L 542.061249 239.078254 
L 541.43737 238.28884 
L 540.839657 237.499425 
L 540.273544 236.710011 
L 539.744334 235.920597 
L 539.257117 235.131182 
L 538.816689 234.341768 
L 538.427475 233.552354 
L 538.093455 232.76294 
L 537.818096 231.973525 
L 537.604293 231.184111 
L 537.454317 230.394697 
L 537.369778 229.605282 
L 537.351591 228.815868 
L 537.399965 228.026454 
L 537.514394 227.23704 
L 537.693667 226.447625 
L 537.935888 225.658211 
L 538.23851 224.868797 
L 538.598373 224.079382 
L 539.011764 223.289968 
L 539.474473 222.500554 
L 539.981865 221.711139 
L 540.528952 220.921725 
L 541.110472 220.132311 
L 541.720968 219.342897 
L 542.354868 218.553482 
L 543.006563 217.764068 
L 543.670481 216.974654 
L 544.341159 216.185239 
L 545.013302 215.395825 
L 545.681846 214.606411 
L 546.341999 213.816997 
L 546.989286 213.027582 
L 547.619576 212.238168 
L 548.229106 211.448754 
L 548.814488 210.659339 
L 549.372716 209.869925 
L 549.901159 209.080511 
L 550.39755 208.291096 
L 550.859962 207.501682 
L 551.286789 206.712268 
L 551.676714 205.922854 
L 552.028675 205.133439 
L 552.341837 204.344025 
L 552.615549 203.554611 
L 552.849318 202.765196 
L 553.042774 201.975782 
L 553.195639 201.186368 
L 553.307706 200.396953 
L 553.378816 199.607539 
L 553.408847 198.818125 
L 553.3977 198.028711 
L 553.345301 197.239296 
L 553.251605 196.449882 
L 553.116605 195.660468 
L 552.940353 194.871053 
L 552.722977 194.081639 
L 552.464713 193.292225 
L 552.165938 192.502811 
L 551.827204 191.713396 
L 551.449274 190.923982 
L 551.033165 190.134568 
L 550.580185 189.345153 
L 550.091965 188.555739 
L 549.570498 187.766325 
L 549.018165 186.97691 
L 548.437752 186.187496 
L 547.832474 185.398082 
L 547.205972 184.608668 
L 546.562313 183.819253 
L 545.905973 183.029839 
L 545.241815 182.240425 
L 544.575051 181.45101 
L 543.911192 180.661596 
L 543.255994 179.872182 
L 542.615389 179.082768 
L 541.995406 178.293353 
L 541.402094 177.503939 
L 540.841428 176.714525 
L 540.319218 175.92511 
L 539.841015 175.135696 
L 539.412022 174.346282 
L 539.036998 173.556867 
L 538.720181 172.767453 
L 538.465204 171.978039 
L 538.275035 171.188625 
L 538.151916 170.39921 
L 538.097326 169.609796 
L 538.111948 168.820382 
L 538.195659 168.030967 
L 538.34753 167.241553 
L 538.565847 166.452139 
L 538.848139 165.662725 
L 539.19123 164.87331 
L 539.591294 164.083896 
L 540.043931 163.294482 
L 540.544244 162.505067 
L 541.086928 161.715653 
L 570.77489 161.715653 
L 570.77489 161.715653 
L 571.317574 162.505067 
L 571.817887 163.294482 
L 572.270524 164.083896 
L 572.670589 164.87331 
L 573.013679 165.662725 
L 573.295971 166.452139 
L 573.514288 167.241553 
L 573.666159 168.030967 
L 573.74987 168.820382 
L 573.764492 169.609796 
L 573.709902 170.39921 
L 573.586784 171.188625 
L 573.396614 171.978039 
L 573.141637 172.767453 
L 572.82482 173.556867 
L 572.449796 174.346282 
L 572.020803 175.135696 
L 571.542601 175.92511 
L 571.02039 176.714525 
L 570.459724 177.503939 
L 569.866412 178.293353 
L 569.24643 179.082768 
L 568.605824 179.872182 
L 567.950626 180.661596 
L 567.286767 181.45101 
L 566.620003 182.240425 
L 565.955845 183.029839 
L 565.299506 183.819253 
L 564.655846 184.608668 
L 564.029344 185.398082 
L 563.424066 186.187496 
L 562.843654 186.97691 
L 562.29132 187.766325 
L 561.769853 188.555739 
L 561.281633 189.345153 
L 560.828653 190.134568 
L 560.412544 190.923982 
L 560.034615 191.713396 
L 559.69588 192.502811 
L 559.397105 193.292225 
L 559.138842 194.081639 
L 558.921465 194.871053 
L 558.745213 195.660468 
L 558.610213 196.449882 
L 558.516517 197.239296 
L 558.464119 198.028711 
L 558.452971 198.818125 
L 558.483002 199.607539 
L 558.554112 200.396953 
L 558.666179 201.186368 
L 558.819044 201.975782 
L 559.0125 202.765196 
L 559.246269 203.554611 
L 559.519982 204.344025 
L 559.833143 205.133439 
L 560.185104 205.922854 
L 560.575029 206.712268 
L 561.001856 207.501682 
L 561.464269 208.291096 
L 561.960659 209.080511 
L 562.489102 209.869925 
L 563.04733 210.659339 
L 563.632712 211.448754 
L 564.242242 212.238168 
L 564.872532 213.027582 
L 565.519819 213.816997 
L 566.179973 214.606411 
L 566.848516 215.395825 
L 567.52066 216.185239 
L 568.191337 216.974654 
L 568.855256 217.764068 
L 569.506951 218.553482 
L 570.14085 219.342897 
L 570.751346 220.132311 
L 571.332866 220.921725 
L 571.879953 221.711139 
L 572.387345 222.500554 
L 572.850054 223.289968 
L 573.263445 224.079382 
L 573.623309 224.868797 
L 573.92593 225.658211 
L 574.168151 226.447625 
L 574.347424 227.23704 
L 574.461853 228.026454 
L 574.510227 228.815868 
L 574.492041 229.605282 
L 574.407501 230.394697 
L 574.257525 231.184111 
L 574.043722 231.973525 
L 573.768363 232.76294 
L 573.434343 233.552354 
L 573.045129 234.341768 
L 572.604701 235.131182 
L 572.117484 235.920597 
L 571.588274 236.710011 
L 571.022161 237.499425 
L 570.424448 238.28884 
L 569.800569 239.078254 
L 569.156008 239.867668 
z
" clip-path="url(#p34526222db)" style="fill: #1f77b4; fill-opacity: 0.3"/>
   </g>
   <g id="PolyCollection_8">
    <path d="M 635.363576 323.829545 
L 625.132788 323.829545 
L 624.50708 322.648264 
L 623.834744 321.466982 
L 623.117192 320.2857 
L 622.35702 319.104418 
L 621.55818 317.923136 
L 620.726122 316.741855 
L 619.867888 315.560573 
L 618.992145 314.379291 
L 618.10915 313.198009 
L 617.230627 312.016727 
L 616.369553 310.835445 
L 615.539858 309.654164 
L 614.756044 308.472882 
L 614.03273 307.2916 
L 613.384158 306.110318 
L 612.823659 304.929036 
L 612.363131 303.747754 
L 612.012545 302.566473 
L 611.779499 301.385191 
L 611.668864 300.203909 
L 611.68252 299.022627 
L 611.819216 297.841345 
L 612.074542 296.660064 
L 612.441028 295.478782 
L 612.908357 294.2975 
L 613.463672 293.116218 
L 614.09198 291.934936 
L 614.776606 290.753654 
L 615.499703 289.572373 
L 616.242765 288.391091 
L 616.987154 287.209809 
L 617.714596 286.028527 
L 618.407648 284.847245 
L 619.050115 283.665963 
L 619.62741 282.484682 
L 620.126855 281.3034 
L 620.537923 280.122118 
L 620.852412 278.940836 
L 621.064563 277.759554 
L 621.171129 276.578273 
L 621.171383 275.396991 
L 621.067088 274.215709 
L 620.862419 273.034427 
L 620.563852 271.853145 
L 620.180005 270.671863 
L 619.721447 269.490582 
L 619.200467 268.3093 
L 618.630809 267.128018 
L 618.027358 265.946736 
L 617.405805 264.765454 
L 616.782262 263.584173 
L 616.17287 262.402891 
L 615.59337 261.221609 
L 615.058686 260.040327 
L 614.582511 258.859045 
L 614.176918 257.677763 
L 613.852023 256.496482 
L 613.615711 255.3152 
L 613.473431 254.133918 
L 613.428098 252.952636 
L 613.48008 251.771354 
L 613.627293 250.590072 
L 613.865386 249.408791 
L 614.188019 248.227509 
L 614.587202 247.046227 
L 615.05369 245.864945 
L 615.577398 244.683663 
L 616.147825 243.502382 
L 616.754448 242.3211 
L 617.387078 241.139818 
L 618.036159 239.958536 
L 618.692997 238.777254 
L 619.349909 237.595972 
L 620.000301 236.414691 
L 620.638681 235.233409 
L 621.260606 234.052127 
L 621.862588 232.870845 
L 622.441975 231.689563 
L 622.996806 230.508281 
L 623.525679 229.327 
L 624.027623 228.145718 
L 624.501997 226.964436 
L 624.94841 225.783154 
L 625.366673 224.601872 
L 625.756781 223.420591 
L 626.118909 222.239309 
L 626.45343 221.058027 
L 626.760941 219.876745 
L 627.042285 218.695463 
L 627.29857 217.514181 
L 627.531171 216.3329 
L 627.74172 215.151618 
L 627.932073 213.970336 
L 628.104259 212.789054 
L 628.260422 211.607772 
L 628.402743 210.426491 
L 628.533361 209.245209 
L 628.654297 208.063927 
L 628.767382 206.882645 
L 631.728981 206.882645 
L 631.728981 206.882645 
L 631.842067 208.063927 
L 631.963002 209.245209 
L 632.09362 210.426491 
L 632.235941 211.607772 
L 632.392105 212.789054 
L 632.564291 213.970336 
L 632.754643 215.151618 
L 632.965192 216.3329 
L 633.197794 217.514181 
L 633.454079 218.695463 
L 633.735423 219.876745 
L 634.042934 221.058027 
L 634.377455 222.239309 
L 634.739583 223.420591 
L 635.12969 224.601872 
L 635.547954 225.783154 
L 635.994367 226.964436 
L 636.46874 228.145718 
L 636.970685 229.327 
L 637.499558 230.508281 
L 638.054389 231.689563 
L 638.633775 232.870845 
L 639.235758 234.052127 
L 639.857683 235.233409 
L 640.496063 236.414691 
L 641.146455 237.595972 
L 641.803366 238.777254 
L 642.460204 239.958536 
L 643.109286 241.139818 
L 643.741916 242.3211 
L 644.348538 243.502382 
L 644.918965 244.683663 
L 645.442674 245.864945 
L 645.909162 247.046227 
L 646.308345 248.227509 
L 646.630977 249.408791 
L 646.869071 250.590072 
L 647.016283 251.771354 
L 647.068266 252.952636 
L 647.022933 254.133918 
L 646.880653 255.3152 
L 646.64434 256.496482 
L 646.319446 257.677763 
L 645.913853 258.859045 
L 645.437677 260.040327 
L 644.902994 261.221609 
L 644.323494 262.402891 
L 643.714101 263.584173 
L 643.090559 264.765454 
L 642.469005 265.946736 
L 641.865555 267.128018 
L 641.295896 268.3093 
L 640.774917 269.490582 
L 640.316359 270.671863 
L 639.932511 271.853145 
L 639.633944 273.034427 
L 639.429276 274.215709 
L 639.324981 275.396991 
L 639.325234 276.578273 
L 639.4318 277.759554 
L 639.643952 278.940836 
L 639.95844 280.122118 
L 640.369508 281.3034 
L 640.868954 282.484682 
L 641.446249 283.665963 
L 642.088715 284.847245 
L 642.781768 286.028527 
L 643.50921 287.209809 
L 644.253598 288.391091 
L 644.996661 289.572373 
L 645.719757 290.753654 
L 646.404384 291.934936 
L 647.032692 293.116218 
L 647.588007 294.2975 
L 648.055335 295.478782 
L 648.421822 296.660064 
L 648.677148 297.841345 
L 648.813844 299.022627 
L 648.8275 300.203909 
L 648.716864 301.385191 
L 648.483819 302.566473 
L 648.133232 303.747754 
L 647.672705 304.929036 
L 647.112206 306.110318 
L 646.463633 307.2916 
L 645.74032 308.472882 
L 644.956505 309.654164 
L 644.12681 310.835445 
L 643.265736 312.016727 
L 642.387213 313.198009 
L 641.504219 314.379291 
L 640.628476 315.560573 
L 639.770241 316.741855 
L 638.938184 317.923136 
L 638.139344 319.104418 
L 637.379172 320.2857 
L 636.66162 321.466982 
L 635.989284 322.648264 
L 635.363576 323.829545 
z
" clip-path="url(#p34526222db)" style="fill: #1f77b4; fill-opacity: 0.3"/>
   </g>
   <g id="PolyCollection_9">
    <path d="M 713.866777 315.395875 
L 695.264132 315.395875 
L 694.279016 314.208914 
L 693.284957 313.021953 
L 692.297616 311.834992 
L 691.333664 310.648031 
L 690.410287 309.461069 
L 689.544634 308.274108 
L 688.753236 307.087147 
L 688.051417 305.900186 
L 687.45273 304.713225 
L 686.96845 303.526264 
L 686.607134 302.339303 
L 686.374292 301.152342 
L 686.272165 299.965381 
L 686.299632 298.77842 
L 686.452246 297.591459 
L 686.722396 296.404498 
L 687.099578 295.217537 
L 687.57077 294.030576 
L 688.12088 292.843615 
L 688.733257 291.656654 
L 689.390221 290.469692 
L 690.0736 289.282731 
L 690.765253 288.09577 
L 691.447543 286.908809 
L 692.103757 285.721848 
L 692.718453 284.534887 
L 693.277732 283.347926 
L 693.76943 282.160965 
L 694.183241 280.974004 
L 694.510773 279.787043 
L 694.74556 278.600082 
L 694.883042 277.413121 
L 694.920527 276.22616 
L 694.857162 275.039199 
L 694.693907 273.852238 
L 694.433538 272.665277 
L 694.080664 271.478315 
L 693.64176 270.291354 
L 693.125206 269.104393 
L 692.541306 267.917432 
L 691.902271 266.730471 
L 691.222148 265.54351 
L 690.516668 264.356549 
L 689.803012 263.169588 
L 689.099466 261.982627 
L 688.424988 260.795666 
L 687.798684 259.608705 
L 687.239213 258.421744 
L 686.764146 257.234783 
L 686.389324 256.047822 
L 686.128232 254.860861 
L 685.991437 253.6739 
L 685.986136 252.486938 
L 686.115817 251.299977 
L 686.380084 250.113016 
L 686.774651 248.926055 
L 687.291503 247.739094 
L 687.919235 246.552133 
L 688.643535 245.365172 
L 689.447804 244.178211 
L 690.31386 242.99125 
L 691.22271 241.804289 
L 692.155319 240.617328 
L 693.093367 239.430367 
L 694.019918 238.243406 
L 694.919997 237.056445 
L 695.781022 235.869484 
L 696.593094 234.682523 
L 697.349118 233.495561 
L 698.044775 232.3086 
L 698.678347 231.121639 
L 699.250422 229.934678 
L 699.763507 228.747717 
L 700.221585 227.560756 
L 700.629644 226.373795 
L 700.993218 225.186834 
L 701.31797 223.999873 
L 701.609331 222.812912 
L 701.872225 221.625951 
L 702.110875 220.43899 
L 702.328708 219.252029 
L 702.528334 218.065068 
L 702.711601 216.878107 
L 702.879707 215.691146 
L 703.033343 214.504184 
L 703.172868 213.317223 
L 703.29847 212.130262 
L 703.410321 210.943301 
L 703.50871 209.75634 
L 703.594127 208.569379 
L 703.667325 207.382418 
L 703.729333 206.195457 
L 703.781433 205.008496 
L 703.825116 203.821535 
L 703.862005 202.634574 
L 703.893774 201.447613 
L 703.922056 200.260652 
L 703.948365 199.073691 
L 703.974019 197.88673 
L 705.15689 197.88673 
L 705.15689 197.88673 
L 705.182544 199.073691 
L 705.208853 200.260652 
L 705.237136 201.447613 
L 705.268904 202.634574 
L 705.305793 203.821535 
L 705.349476 205.008496 
L 705.401576 206.195457 
L 705.463584 207.382418 
L 705.536782 208.569379 
L 705.6222 209.75634 
L 705.720588 210.943301 
L 705.832439 212.130262 
L 705.958041 213.317223 
L 706.097566 214.504184 
L 706.251202 215.691146 
L 706.419308 216.878107 
L 706.602575 218.065068 
L 706.802201 219.252029 
L 707.020034 220.43899 
L 707.258684 221.625951 
L 707.521578 222.812912 
L 707.812939 223.999873 
L 708.137691 225.186834 
L 708.501265 226.373795 
L 708.909324 227.560756 
L 709.367402 228.747717 
L 709.880487 229.934678 
L 710.452562 231.121639 
L 711.086134 232.3086 
L 711.781791 233.495561 
L 712.537815 234.682523 
L 713.349887 235.869484 
L 714.210912 237.056445 
L 715.110991 238.243406 
L 716.037542 239.430367 
L 716.97559 240.617328 
L 717.908199 241.804289 
L 718.817049 242.99125 
L 719.683105 244.178211 
L 720.487374 245.365172 
L 721.211675 246.552133 
L 721.839406 247.739094 
L 722.356258 248.926055 
L 722.750825 250.113016 
L 723.015092 251.299977 
L 723.144773 252.486938 
L 723.139472 253.6739 
L 723.002678 254.860861 
L 722.741585 256.047822 
L 722.366763 257.234783 
L 721.891696 258.421744 
L 721.332225 259.608705 
L 720.705921 260.795666 
L 720.031443 261.982627 
L 719.327897 263.169588 
L 718.614241 264.356549 
L 717.908761 265.54351 
L 717.228638 266.730471 
L 716.589603 267.917432 
L 716.005703 269.104393 
L 715.489149 270.291354 
L 715.050245 271.478315 
L 714.697371 272.665277 
L 714.437002 273.852238 
L 714.273747 275.039199 
L 714.210382 276.22616 
L 714.247868 277.413121 
L 714.385349 278.600082 
L 714.620136 279.787043 
L 714.947668 280.974004 
L 715.361479 282.160965 
L 715.853177 283.347926 
L 716.412456 284.534887 
L 717.027152 285.721848 
L 717.683366 286.908809 
L 718.365656 288.09577 
L 719.057309 289.282731 
L 719.740688 290.469692 
L 720.397652 291.656654 
L 721.010029 292.843615 
L 721.56014 294.030576 
L 722.031331 295.217537 
L 722.408513 296.404498 
L 722.678663 297.591459 
L 722.831278 298.77842 
L 722.858744 299.965381 
L 722.756617 301.152342 
L 722.523775 302.339303 
L 722.162459 303.526264 
L 721.678179 304.713225 
L 721.079492 305.900186 
L 720.377673 307.087147 
L 719.586275 308.274108 
L 718.720622 309.461069 
L 717.797245 310.648031 
L 716.833293 311.834992 
L 715.845952 313.021953 
L 714.851893 314.208914 
L 713.866777 315.395875 
z
" clip-path="url(#p34526222db)" style="fill: #1f77b4; fill-opacity: 0.3"/>
   </g>
   <g id="PolyCollection_10">
    <path d="M 793.079667 309.398598 
L 764.685787 309.398598 
L 764.075149 308.751165 
L 763.493505 308.103731 
L 762.946218 307.456298 
L 762.438475 306.808865 
L 761.975206 306.161431 
L 761.561004 305.513998 
L 761.200052 304.866565 
L 760.896051 304.219131 
L 760.652156 303.571698 
L 760.470922 302.924265 
L 760.354262 302.276831 
L 760.303409 301.629398 
L 760.318898 300.981965 
L 760.400552 300.334532 
L 760.547489 299.687098 
L 760.758136 299.039665 
L 761.030254 298.392232 
L 761.36098 297.744798 
L 761.746875 297.097365 
L 762.183979 296.449932 
L 762.667884 295.802498 
L 763.193798 295.155065 
L 763.756629 294.507632 
L 764.351058 293.860198 
L 764.971624 293.212765 
L 765.6128 292.565332 
L 766.269072 291.917899 
L 766.935009 291.270465 
L 767.605335 290.623032 
L 768.274983 289.975599 
L 768.939154 289.328165 
L 769.593356 288.680732 
L 770.233446 288.033299 
L 770.855649 287.385865 
L 771.456581 286.738432 
L 772.033258 286.090999 
L 772.583092 285.443565 
L 773.103884 284.796132 
L 773.593814 284.148699 
L 774.051412 283.501266 
L 774.475541 282.853832 
L 774.865359 282.206399 
L 775.220291 281.558966 
L 775.539989 280.911532 
L 775.824304 280.264099 
L 776.073242 279.616666 
L 776.286934 278.969232 
L 776.465607 278.321799 
L 776.609549 277.674366 
L 776.719088 277.026932 
L 776.794569 276.379499 
L 776.836339 275.732066 
L 776.844737 275.084633 
L 776.820087 274.437199 
L 776.762696 273.789766 
L 776.672861 273.142333 
L 776.55088 272.494899 
L 776.397062 271.847466 
L 776.211751 271.200033 
L 775.995343 270.552599 
L 775.748316 269.905166 
L 775.471256 269.257733 
L 775.164885 268.610299 
L 774.830091 267.962866 
L 774.467957 267.315433 
L 774.079788 266.668 
L 773.667136 266.020566 
L 773.23182 265.373133 
L 772.775947 264.7257 
L 772.301918 264.078266 
L 771.812438 263.430833 
L 771.310512 262.7834 
L 770.799436 262.135966 
L 770.282786 261.488533 
L 769.764386 260.8411 
L 769.248284 260.193667 
L 768.738707 259.546233 
L 768.240021 258.8988 
L 767.756671 258.251367 
L 767.293132 257.603933 
L 766.85384 256.9565 
L 766.443133 256.309067 
L 766.065177 255.661633 
L 765.72391 255.0142 
L 765.422966 254.366767 
L 765.165622 253.719333 
L 764.954734 253.0719 
L 764.792693 252.424467 
L 764.681372 251.777034 
L 764.622099 251.1296 
L 764.61563 250.482167 
L 764.66213 249.834734 
L 764.761172 249.1873 
L 764.911743 248.539867 
L 765.112262 247.892434 
L 765.360605 247.245 
L 765.654148 246.597567 
L 765.989809 245.950134 
L 766.364103 245.3027 
L 791.401351 245.3027 
L 791.401351 245.3027 
L 791.775646 245.950134 
L 792.111306 246.597567 
L 792.404849 247.245 
L 792.653193 247.892434 
L 792.853711 248.539867 
L 793.004282 249.1873 
L 793.103324 249.834734 
L 793.149824 250.482167 
L 793.143355 251.1296 
L 793.084083 251.777034 
L 792.972762 252.424467 
L 792.81072 253.0719 
L 792.599833 253.719333 
L 792.342488 254.366767 
L 792.041545 255.0142 
L 791.700277 255.661633 
L 791.322322 256.309067 
L 790.911614 256.9565 
L 790.472323 257.603933 
L 790.008784 258.251367 
L 789.525434 258.8988 
L 789.026747 259.546233 
L 788.517171 260.193667 
L 788.001068 260.8411 
L 787.482669 261.488533 
L 786.966018 262.135966 
L 786.454943 262.7834 
L 785.953016 263.430833 
L 785.463536 264.078266 
L 784.989508 264.7257 
L 784.533634 265.373133 
L 784.098319 266.020566 
L 783.685666 266.668 
L 783.297497 267.315433 
L 782.935363 267.962866 
L 782.600569 268.610299 
L 782.294198 269.257733 
L 782.017139 269.905166 
L 781.770112 270.552599 
L 781.553704 271.200033 
L 781.368392 271.847466 
L 781.214574 272.494899 
L 781.092593 273.142333 
L 781.002759 273.789766 
L 780.945368 274.437199 
L 780.920717 275.084633 
L 780.929116 275.732066 
L 780.970886 276.379499 
L 781.046367 277.026932 
L 781.155905 277.674366 
L 781.299847 278.321799 
L 781.47852 278.969232 
L 781.692213 279.616666 
L 781.941151 280.264099 
L 782.225465 280.911532 
L 782.545164 281.558966 
L 782.900095 282.206399 
L 783.289913 282.853832 
L 783.714042 283.501266 
L 784.171641 284.148699 
L 784.66157 284.796132 
L 785.182363 285.443565 
L 785.732196 286.090999 
L 786.308873 286.738432 
L 786.909806 287.385865 
L 787.532009 288.033299 
L 788.172098 288.680732 
L 788.826301 289.328165 
L 789.490471 289.975599 
L 790.160119 290.623032 
L 790.830445 291.270465 
L 791.496383 291.917899 
L 792.152655 292.565332 
L 792.793831 293.212765 
L 793.414397 293.860198 
L 794.008826 294.507632 
L 794.571656 295.155065 
L 795.097571 295.802498 
L 795.581475 296.449932 
L 796.01858 297.097365 
L 796.404474 297.744798 
L 796.7352 298.392232 
L 797.007319 299.039665 
L 797.217965 299.687098 
L 797.364903 300.334532 
L 797.446557 300.981965 
L 797.462045 301.629398 
L 797.411193 302.276831 
L 797.294533 302.924265 
L 797.113299 303.571698 
L 796.869403 304.219131 
L 796.565402 304.866565 
L 796.20445 305.513998 
L 795.790249 306.161431 
L 795.32698 306.808865 
L 794.819237 307.456298 
L 794.27195 308.103731 
L 793.690306 308.751165 
L 793.079667 309.398598 
z
" clip-path="url(#p34526222db)" style="fill: #1f77b4; fill-opacity: 0.3"/>
   </g>
   <g id="matplotlib.axis_1">
    <g id="xtick_1">
     <g id="line2d_1">
      <defs>
       <path id="m7721b422b0" d="M 0 0 
L 0 3.5 
" style="stroke: #000000; stroke-width: 0.8"/>
      </defs>
      <g>
       <use xlink:href="#m7721b422b0" x="110.027273" y="337.97" style="stroke: #000000; stroke-width: 0.8"/>
      </g>
     </g>
     <g id="text_1">
      <!-- Grudger -->
      <g transform="translate(112.234773 377.89625)rotate(-90)scale(0.08 -0.08)">
       <defs>
        <path id="DejaVuSans-47" d="M 3809 666 
L 3809 1919 
L 2778 1919 
L 2778 2438 
L 4434 2438 
L 4434 434 
Q 4069 175 3628 42 
Q 3188 -91 2688 -91 
Q 1594 -91 976 548 
Q 359 1188 359 2328 
Q 359 3472 976 4111 
Q 1594 4750 2688 4750 
Q 3144 4750 3555 4637 
Q 3966 4525 4313 4306 
L 4313 3634 
Q 3963 3931 3569 4081 
Q 3175 4231 2741 4231 
Q 1884 4231 1454 3753 
Q 1025 3275 1025 2328 
Q 1025 1384 1454 906 
Q 1884 428 2741 428 
Q 3075 428 3337 486 
Q 3600 544 3809 666 
z
" transform="scale(0.015625)"/>
        <path id="DejaVuSans-72" d="M 2631 2963 
Q 2534 3019 2420 3045 
Q 2306 3072 2169 3072 
Q 1681 3072 1420 2755 
Q 1159 2438 1159 1844 
L 1159 0 
L 581 0 
L 581 3500 
L 1159 3500 
L 1159 2956 
Q 1341 3275 1631 3429 
Q 1922 3584 2338 3584 
Q 2397 3584 2469 3576 
Q 2541 3569 2628 3553 
L 2631 2963 
z
" transform="scale(0.015625)"/>
        <path id="DejaVuSans-75" d="M 544 1381 
L 544 3500 
L 1119 3500 
L 1119 1403 
Q 1119 906 1312 657 
Q 1506 409 1894 409 
Q 2359 409 2629 706 
Q 2900 1003 2900 1516 
L 2900 3500 
L 3475 3500 
L 3475 0 
L 2900 0 
L 2900 538 
Q 2691 219 2414 64 
Q 2138 -91 1772 -91 
Q 1169 -91 856 284 
Q 544 659 544 1381 
z
M 1991 3584 
L 1991 3584 
z
" transform="scale(0.015625)"/>
        <path id="DejaVuSans-64" d="M 2906 2969 
L 2906 4863 
L 3481 4863 
L 3481 0 
L 2906 0 
L 2906 525 
Q 2725 213 2448 61 
Q 2172 -91 1784 -91 
Q 1150 -91 751 415 
Q 353 922 353 1747 
Q 353 2572 751 3078 
Q 1150 3584 1784 3584 
Q 2172 3584 2448 3432 
Q 2725 3281 2906 2969 
z
M 947 1747 
Q 947 1113 1208 752 
Q 1469 391 1925 391 
Q 2381 391 2643 752 
Q 2906 1113 2906 1747 
Q 2906 2381 2643 2742 
Q 2381 3103 1925 3103 
Q 1469 3103 1208 2742 
Q 947 2381 947 1747 
z
" transform="scale(0.015625)"/>
        <path id="DejaVuSans-67" d="M 2906 1791 
Q 2906 2416 2648 2759 
Q 2391 3103 1925 3103 
Q 1463 3103 1205 2759 
Q 947 2416 947 1791 
Q 947 1169 1205 825 
Q 1463 481 1925 481 
Q 2391 481 2648 825 
Q 2906 1169 2906 1791 
z
M 3481 434 
Q 3481 -459 3084 -895 
Q 2688 -1331 1869 -1331 
Q 1566 -1331 1297 -1286 
Q 1028 -1241 775 -1147 
L 775 -588 
Q 1028 -725 1275 -790 
Q 1522 -856 1778 -856 
Q 2344 -856 2625 -561 
Q 2906 -266 2906 331 
L 2906 616 
Q 2728 306 2450 153 
Q 2172 0 1784 0 
Q 1141 0 747 490 
Q 353 981 353 1791 
Q 353 2603 747 3093 
Q 1141 3584 1784 3584 
Q 2172 3584 2450 3431 
Q 2728 3278 2906 2969 
L 2906 3500 
L 3481 3500 
L 3481 434 
z
" transform="scale(0.015625)"/>
        <path id="DejaVuSans-65" d="M 3597 1894 
L 3597 1613 
L 953 1613 
Q 991 1019 1311 708 
Q 1631 397 2203 397 
Q 2534 397 2845 478 
Q 3156 559 3463 722 
L 3463 178 
Q 3153 47 2828 -22 
Q 2503 -91 2169 -91 
Q 1331 -91 842 396 
Q 353 884 353 1716 
Q 353 2575 817 3079 
Q 1281 3584 2069 3584 
Q 2775 3584 3186 3129 
Q 3597 2675 3597 1894 
z
M 3022 2063 
Q 3016 2534 2758 2815 
Q 2500 3097 2075 3097 
Q 1594 3097 1305 2825 
Q 1016 2553 972 2059 
L 3022 2063 
z
" transform="scale(0.015625)"/>
       </defs>
       <use xlink:href="#DejaVuSans-47"/>
       <use xlink:href="#DejaVuSans-72" x="77.490234"/>
       <use xlink:href="#DejaVuSans-75" x="118.603516"/>
       <use xlink:href="#DejaVuSans-64" x="181.982422"/>
       <use xlink:href="#DejaVuSans-67" x="245.458984"/>
       <use xlink:href="#DejaVuSans-65" x="308.935547"/>
       <use xlink:href="#DejaVuSans-72" x="370.458984"/>
      </g>
     </g>
    </g>
    <g id="xtick_2">
     <g id="line2d_2">
      <g>
       <use xlink:href="#m7721b422b0" x="184.344545" y="337.97" style="stroke: #000000; stroke-width: 0.8"/>
      </g>
     </g>
     <g id="text_2">
      <!-- Tit For Tat -->
      <g transform="translate(186.552045 384.15)rotate(-90)scale(0.08 -0.08)">
       <defs>
        <path id="DejaVuSans-54" d="M -19 4666 
L 3928 4666 
L 3928 4134 
L 2272 4134 
L 2272 0 
L 1638 0 
L 1638 4134 
L -19 4134 
L -19 4666 
z
" transform="scale(0.015625)"/>
        <path id="DejaVuSans-69" d="M 603 3500 
L 1178 3500 
L 1178 0 
L 603 0 
L 603 3500 
z
M 603 4863 
L 1178 4863 
L 1178 4134 
L 603 4134 
L 603 4863 
z
" transform="scale(0.015625)"/>
        <path id="DejaVuSans-74" d="M 1172 4494 
L 1172 3500 
L 2356 3500 
L 2356 3053 
L 1172 3053 
L 1172 1153 
Q 1172 725 1289 603 
Q 1406 481 1766 481 
L 2356 481 
L 2356 0 
L 1766 0 
Q 1100 0 847 248 
Q 594 497 594 1153 
L 594 3053 
L 172 3053 
L 172 3500 
L 594 3500 
L 594 4494 
L 1172 4494 
z
" transform="scale(0.015625)"/>
        <path id="DejaVuSans-20" transform="scale(0.015625)"/>
        <path id="DejaVuSans-46" d="M 628 4666 
L 3309 4666 
L 3309 4134 
L 1259 4134 
L 1259 2759 
L 3109 2759 
L 3109 2228 
L 1259 2228 
L 1259 0 
L 628 0 
L 628 4666 
z
" transform="scale(0.015625)"/>
        <path id="DejaVuSans-6f" d="M 1959 3097 
Q 1497 3097 1228 2736 
Q 959 2375 959 1747 
Q 959 1119 1226 758 
Q 1494 397 1959 397 
Q 2419 397 2687 759 
Q 2956 1122 2956 1747 
Q 2956 2369 2687 2733 
Q 2419 3097 1959 3097 
z
M 1959 3584 
Q 2709 3584 3137 3096 
Q 3566 2609 3566 1747 
Q 3566 888 3137 398 
Q 2709 -91 1959 -91 
Q 1206 -91 779 398 
Q 353 888 353 1747 
Q 353 2609 779 3096 
Q 1206 3584 1959 3584 
z
" transform="scale(0.015625)"/>
        <path id="DejaVuSans-61" d="M 2194 1759 
Q 1497 1759 1228 1600 
Q 959 1441 959 1056 
Q 959 750 1161 570 
Q 1363 391 1709 391 
Q 2188 391 2477 730 
Q 2766 1069 2766 1631 
L 2766 1759 
L 2194 1759 
z
M 3341 1997 
L 3341 0 
L 2766 0 
L 2766 531 
Q 2569 213 2275 61 
Q 1981 -91 1556 -91 
Q 1019 -91 701 211 
Q 384 513 384 1019 
Q 384 1609 779 1909 
Q 1175 2209 1959 2209 
L 2766 2209 
L 2766 2266 
Q 2766 2663 2505 2880 
Q 2244 3097 1772 3097 
Q 1472 3097 1187 3025 
Q 903 2953 641 2809 
L 641 3341 
Q 956 3463 1253 3523 
Q 1550 3584 1831 3584 
Q 2591 3584 2966 3190 
Q 3341 2797 3341 1997 
z
" transform="scale(0.015625)"/>
       </defs>
       <use xlink:href="#DejaVuSans-54"/>
       <use xlink:href="#DejaVuSans-69" x="57.958984"/>
       <use xlink:href="#DejaVuSans-74" x="85.742188"/>
       <use xlink:href="#DejaVuSans-20" x="124.951172"/>
       <use xlink:href="#DejaVuSans-46" x="156.738281"/>
       <use xlink:href="#DejaVuSans-6f" x="210.632812"/>
       <use xlink:href="#DejaVuSans-72" x="271.814453"/>
       <use xlink:href="#DejaVuSans-20" x="312.927734"/>
       <use xlink:href="#DejaVuSans-54" x="344.714844"/>
       <use xlink:href="#DejaVuSans-61" x="389.298828"/>
       <use xlink:href="#DejaVuSans-74" x="450.578125"/>
      </g>
     </g>
    </g>
    <g id="xtick_3">
     <g id="line2d_3">
      <g>
       <use xlink:href="#m7721b422b0" x="258.661818" y="337.97" style="stroke: #000000; stroke-width: 0.8"/>
      </g>
     </g>
     <g id="text_3">
      <!-- Adaptive -->
      <g transform="translate(260.869318 380.37875)rotate(-90)scale(0.08 -0.08)">
       <defs>
        <path id="DejaVuSans-41" d="M 2188 4044 
L 1331 1722 
L 3047 1722 
L 2188 4044 
z
M 1831 4666 
L 2547 4666 
L 4325 0 
L 3669 0 
L 3244 1197 
L 1141 1197 
L 716 0 
L 50 0 
L 1831 4666 
z
" transform="scale(0.015625)"/>
        <path id="DejaVuSans-70" d="M 1159 525 
L 1159 -1331 
L 581 -1331 
L 581 3500 
L 1159 3500 
L 1159 2969 
Q 1341 3281 1617 3432 
Q 1894 3584 2278 3584 
Q 2916 3584 3314 3078 
Q 3713 2572 3713 1747 
Q 3713 922 3314 415 
Q 2916 -91 2278 -91 
Q 1894 -91 1617 61 
Q 1341 213 1159 525 
z
M 3116 1747 
Q 3116 2381 2855 2742 
Q 2594 3103 2138 3103 
Q 1681 3103 1420 2742 
Q 1159 2381 1159 1747 
Q 1159 1113 1420 752 
Q 1681 391 2138 391 
Q 2594 391 2855 752 
Q 3116 1113 3116 1747 
z
" transform="scale(0.015625)"/>
        <path id="DejaVuSans-76" d="M 191 3500 
L 800 3500 
L 1894 563 
L 2988 3500 
L 3597 3500 
L 2284 0 
L 1503 0 
L 191 3500 
z
" transform="scale(0.015625)"/>
       </defs>
       <use xlink:href="#DejaVuSans-41"/>
       <use xlink:href="#DejaVuSans-64" x="66.658203"/>
       <use xlink:href="#DejaVuSans-61" x="130.134766"/>
       <use xlink:href="#DejaVuSans-70" x="191.414062"/>
       <use xlink:href="#DejaVuSans-74" x="254.890625"/>
       <use xlink:href="#DejaVuSans-69" x="294.099609"/>
       <use xlink:href="#DejaVuSans-76" x="321.882812"/>
       <use xlink:href="#DejaVuSans-65" x="381.0625"/>
      </g>
     </g>
    </g>
    <g id="xtick_4">
     <g id="line2d_4">
      <g>
       <use xlink:href="#m7721b422b0" x="332.979091" y="337.97" style="stroke: #000000; stroke-width: 0.8"/>
      </g>
     </g>
     <g id="text_4">
      <!-- Random: 0.5 -->
      <g transform="translate(335.186591 396.0475)rotate(-90)scale(0.08 -0.08)">
       <defs>
        <path id="DejaVuSans-52" d="M 2841 2188 
Q 3044 2119 3236 1894 
Q 3428 1669 3622 1275 
L 4263 0 
L 3584 0 
L 2988 1197 
Q 2756 1666 2539 1819 
Q 2322 1972 1947 1972 
L 1259 1972 
L 1259 0 
L 628 0 
L 628 4666 
L 2053 4666 
Q 2853 4666 3247 4331 
Q 3641 3997 3641 3322 
Q 3641 2881 3436 2590 
Q 3231 2300 2841 2188 
z
M 1259 4147 
L 1259 2491 
L 2053 2491 
Q 2509 2491 2742 2702 
Q 2975 2913 2975 3322 
Q 2975 3731 2742 3939 
Q 2509 4147 2053 4147 
L 1259 4147 
z
" transform="scale(0.015625)"/>
        <path id="DejaVuSans-6e" d="M 3513 2113 
L 3513 0 
L 2938 0 
L 2938 2094 
Q 2938 2591 2744 2837 
Q 2550 3084 2163 3084 
Q 1697 3084 1428 2787 
Q 1159 2491 1159 1978 
L 1159 0 
L 581 0 
L 581 3500 
L 1159 3500 
L 1159 2956 
Q 1366 3272 1645 3428 
Q 1925 3584 2291 3584 
Q 2894 3584 3203 3211 
Q 3513 2838 3513 2113 
z
" transform="scale(0.015625)"/>
        <path id="DejaVuSans-6d" d="M 3328 2828 
Q 3544 3216 3844 3400 
Q 4144 3584 4550 3584 
Q 5097 3584 5394 3201 
Q 5691 2819 5691 2113 
L 5691 0 
L 5113 0 
L 5113 2094 
Q 5113 2597 4934 2840 
Q 4756 3084 4391 3084 
Q 3944 3084 3684 2787 
Q 3425 2491 3425 1978 
L 3425 0 
L 2847 0 
L 2847 2094 
Q 2847 2600 2669 2842 
Q 2491 3084 2119 3084 
Q 1678 3084 1418 2786 
Q 1159 2488 1159 1978 
L 1159 0 
L 581 0 
L 581 3500 
L 1159 3500 
L 1159 2956 
Q 1356 3278 1631 3431 
Q 1906 3584 2284 3584 
Q 2666 3584 2933 3390 
Q 3200 3197 3328 2828 
z
" transform="scale(0.015625)"/>
        <path id="DejaVuSans-3a" d="M 750 794 
L 1409 794 
L 1409 0 
L 750 0 
L 750 794 
z
M 750 3309 
L 1409 3309 
L 1409 2516 
L 750 2516 
L 750 3309 
z
" transform="scale(0.015625)"/>
        <path id="DejaVuSans-30" d="M 2034 4250 
Q 1547 4250 1301 3770 
Q 1056 3291 1056 2328 
Q 1056 1369 1301 889 
Q 1547 409 2034 409 
Q 2525 409 2770 889 
Q 3016 1369 3016 2328 
Q 3016 3291 2770 3770 
Q 2525 4250 2034 4250 
z
M 2034 4750 
Q 2819 4750 3233 4129 
Q 3647 3509 3647 2328 
Q 3647 1150 3233 529 
Q 2819 -91 2034 -91 
Q 1250 -91 836 529 
Q 422 1150 422 2328 
Q 422 3509 836 4129 
Q 1250 4750 2034 4750 
z
" transform="scale(0.015625)"/>
        <path id="DejaVuSans-2e" d="M 684 794 
L 1344 794 
L 1344 0 
L 684 0 
L 684 794 
z
" transform="scale(0.015625)"/>
        <path id="DejaVuSans-35" d="M 691 4666 
L 3169 4666 
L 3169 4134 
L 1269 4134 
L 1269 2991 
Q 1406 3038 1543 3061 
Q 1681 3084 1819 3084 
Q 2600 3084 3056 2656 
Q 3513 2228 3513 1497 
Q 3513 744 3044 326 
Q 2575 -91 1722 -91 
Q 1428 -91 1123 -41 
Q 819 9 494 109 
L 494 744 
Q 775 591 1075 516 
Q 1375 441 1709 441 
Q 2250 441 2565 725 
Q 2881 1009 2881 1497 
Q 2881 1984 2565 2268 
Q 2250 2553 1709 2553 
Q 1456 2553 1204 2497 
Q 953 2441 691 2322 
L 691 4666 
z
" transform="scale(0.015625)"/>
       </defs>
       <use xlink:href="#DejaVuSans-52"/>
       <use xlink:href="#DejaVuSans-61" x="67.232422"/>
       <use xlink:href="#DejaVuSans-6e" x="128.511719"/>
       <use xlink:href="#DejaVuSans-64" x="191.890625"/>
       <use xlink:href="#DejaVuSans-6f" x="255.367188"/>
       <use xlink:href="#DejaVuSans-6d" x="316.548828"/>
       <use xlink:href="#DejaVuSans-3a" x="413.960938"/>
       <use xlink:href="#DejaVuSans-20" x="447.652344"/>
       <use xlink:href="#DejaVuSans-30" x="479.439453"/>
       <use xlink:href="#DejaVuSans-2e" x="543.0625"/>
       <use xlink:href="#DejaVuSans-35" x="574.849609"/>
      </g>
     </g>
    </g>
    <g id="xtick_5">
     <g id="line2d_5">
      <g>
       <use xlink:href="#m7721b422b0" x="407.296364" y="337.97" style="stroke: #000000; stroke-width: 0.8"/>
      </g>
     </g>
     <g id="text_5">
      <!-- Defector -->
      <g transform="translate(409.503864 379.51)rotate(-90)scale(0.08 -0.08)">
       <defs>
        <path id="DejaVuSans-44" d="M 1259 4147 
L 1259 519 
L 2022 519 
Q 2988 519 3436 956 
Q 3884 1394 3884 2338 
Q 3884 3275 3436 3711 
Q 2988 4147 2022 4147 
L 1259 4147 
z
M 628 4666 
L 1925 4666 
Q 3281 4666 3915 4102 
Q 4550 3538 4550 2338 
Q 4550 1131 3912 565 
Q 3275 0 1925 0 
L 628 0 
L 628 4666 
z
" transform="scale(0.015625)"/>
        <path id="DejaVuSans-66" d="M 2375 4863 
L 2375 4384 
L 1825 4384 
Q 1516 4384 1395 4259 
Q 1275 4134 1275 3809 
L 1275 3500 
L 2222 3500 
L 2222 3053 
L 1275 3053 
L 1275 0 
L 697 0 
L 697 3053 
L 147 3053 
L 147 3500 
L 697 3500 
L 697 3744 
Q 697 4328 969 4595 
Q 1241 4863 1831 4863 
L 2375 4863 
z
" transform="scale(0.015625)"/>
        <path id="DejaVuSans-63" d="M 3122 3366 
L 3122 2828 
Q 2878 2963 2633 3030 
Q 2388 3097 2138 3097 
Q 1578 3097 1268 2742 
Q 959 2388 959 1747 
Q 959 1106 1268 751 
Q 1578 397 2138 397 
Q 2388 397 2633 464 
Q 2878 531 3122 666 
L 3122 134 
Q 2881 22 2623 -34 
Q 2366 -91 2075 -91 
Q 1284 -91 818 406 
Q 353 903 353 1747 
Q 353 2603 823 3093 
Q 1294 3584 2113 3584 
Q 2378 3584 2631 3529 
Q 2884 3475 3122 3366 
z
" transform="scale(0.015625)"/>
       </defs>
       <use xlink:href="#DejaVuSans-44"/>
       <use xlink:href="#DejaVuSans-65" x="77.001953"/>
       <use xlink:href="#DejaVuSans-66" x="138.525391"/>
       <use xlink:href="#DejaVuSans-65" x="173.730469"/>
       <use xlink:href="#DejaVuSans-63" x="235.253906"/>
       <use xlink:href="#DejaVuSans-74" x="290.234375"/>
       <use xlink:href="#DejaVuSans-6f" x="329.443359"/>
       <use xlink:href="#DejaVuSans-72" x="390.625"/>
      </g>
     </g>
    </g>
    <g id="xtick_6">
     <g id="line2d_6">
      <g>
       <use xlink:href="#m7721b422b0" x="481.613636" y="337.97" style="stroke: #000000; stroke-width: 0.8"/>
      </g>
     </g>
     <g id="text_6">
      <!-- Deep QLearner -->
      <g transform="translate(483.821136 405.46625)rotate(-90)scale(0.08 -0.08)">
       <defs>
        <path id="DejaVuSans-51" d="M 2522 4238 
Q 1834 4238 1429 3725 
Q 1025 3213 1025 2328 
Q 1025 1447 1429 934 
Q 1834 422 2522 422 
Q 3209 422 3611 934 
Q 4013 1447 4013 2328 
Q 4013 3213 3611 3725 
Q 3209 4238 2522 4238 
z
M 3406 84 
L 4238 -825 
L 3475 -825 
L 2784 -78 
Q 2681 -84 2626 -87 
Q 2572 -91 2522 -91 
Q 1538 -91 948 567 
Q 359 1225 359 2328 
Q 359 3434 948 4092 
Q 1538 4750 2522 4750 
Q 3503 4750 4090 4092 
Q 4678 3434 4678 2328 
Q 4678 1516 4351 937 
Q 4025 359 3406 84 
z
" transform="scale(0.015625)"/>
        <path id="DejaVuSans-4c" d="M 628 4666 
L 1259 4666 
L 1259 531 
L 3531 531 
L 3531 0 
L 628 0 
L 628 4666 
z
" transform="scale(0.015625)"/>
       </defs>
       <use xlink:href="#DejaVuSans-44"/>
       <use xlink:href="#DejaVuSans-65" x="77.001953"/>
       <use xlink:href="#DejaVuSans-65" x="138.525391"/>
       <use xlink:href="#DejaVuSans-70" x="200.048828"/>
       <use xlink:href="#DejaVuSans-20" x="263.525391"/>
       <use xlink:href="#DejaVuSans-51" x="295.3125"/>
       <use xlink:href="#DejaVuSans-4c" x="374.023438"/>
       <use xlink:href="#DejaVuSans-65" x="427.986328"/>
       <use xlink:href="#DejaVuSans-61" x="489.509766"/>
       <use xlink:href="#DejaVuSans-72" x="550.789062"/>
       <use xlink:href="#DejaVuSans-6e" x="590.152344"/>
       <use xlink:href="#DejaVuSans-65" x="653.53125"/>
       <use xlink:href="#DejaVuSans-72" x="715.054688"/>
      </g>
     </g>
    </g>
    <g id="xtick_7">
     <g id="line2d_7">
      <g>
       <use xlink:href="#m7721b422b0" x="555.930909" y="337.97" style="stroke: #000000; stroke-width: 0.8"/>
      </g>
     </g>
     <g id="text_7">
      <!-- Alternator -->
      <g transform="translate(558.138409 385.165)rotate(-90)scale(0.08 -0.08)">
       <defs>
        <path id="DejaVuSans-6c" d="M 603 4863 
L 1178 4863 
L 1178 0 
L 603 0 
L 603 4863 
z
" transform="scale(0.015625)"/>
       </defs>
       <use xlink:href="#DejaVuSans-41"/>
       <use xlink:href="#DejaVuSans-6c" x="68.408203"/>
       <use xlink:href="#DejaVuSans-74" x="96.191406"/>
       <use xlink:href="#DejaVuSans-65" x="135.400391"/>
       <use xlink:href="#DejaVuSans-72" x="196.923828"/>
       <use xlink:href="#DejaVuSans-6e" x="236.287109"/>
       <use xlink:href="#DejaVuSans-61" x="299.666016"/>
       <use xlink:href="#DejaVuSans-74" x="360.945312"/>
       <use xlink:href="#DejaVuSans-6f" x="400.154297"/>
       <use xlink:href="#DejaVuSans-72" x="461.335938"/>
      </g>
     </g>
    </g>
    <g id="xtick_8">
     <g id="line2d_8">
      <g>
       <use xlink:href="#m7721b422b0" x="630.248182" y="337.97" style="stroke: #000000; stroke-width: 0.8"/>
      </g>
     </g>
     <g id="text_8">
      <!-- Risky QLearner -->
      <g transform="translate(632.455682 405.40875)rotate(-90)scale(0.08 -0.08)">
       <defs>
        <path id="DejaVuSans-73" d="M 2834 3397 
L 2834 2853 
Q 2591 2978 2328 3040 
Q 2066 3103 1784 3103 
Q 1356 3103 1142 2972 
Q 928 2841 928 2578 
Q 928 2378 1081 2264 
Q 1234 2150 1697 2047 
L 1894 2003 
Q 2506 1872 2764 1633 
Q 3022 1394 3022 966 
Q 3022 478 2636 193 
Q 2250 -91 1575 -91 
Q 1294 -91 989 -36 
Q 684 19 347 128 
L 347 722 
Q 666 556 975 473 
Q 1284 391 1588 391 
Q 1994 391 2212 530 
Q 2431 669 2431 922 
Q 2431 1156 2273 1281 
Q 2116 1406 1581 1522 
L 1381 1569 
Q 847 1681 609 1914 
Q 372 2147 372 2553 
Q 372 3047 722 3315 
Q 1072 3584 1716 3584 
Q 2034 3584 2315 3537 
Q 2597 3491 2834 3397 
z
" transform="scale(0.015625)"/>
        <path id="DejaVuSans-6b" d="M 581 4863 
L 1159 4863 
L 1159 1991 
L 2875 3500 
L 3609 3500 
L 1753 1863 
L 3688 0 
L 2938 0 
L 1159 1709 
L 1159 0 
L 581 0 
L 581 4863 
z
" transform="scale(0.015625)"/>
        <path id="DejaVuSans-79" d="M 2059 -325 
Q 1816 -950 1584 -1140 
Q 1353 -1331 966 -1331 
L 506 -1331 
L 506 -850 
L 844 -850 
Q 1081 -850 1212 -737 
Q 1344 -625 1503 -206 
L 1606 56 
L 191 3500 
L 800 3500 
L 1894 763 
L 2988 3500 
L 3597 3500 
L 2059 -325 
z
" transform="scale(0.015625)"/>
       </defs>
       <use xlink:href="#DejaVuSans-52"/>
       <use xlink:href="#DejaVuSans-69" x="69.482422"/>
       <use xlink:href="#DejaVuSans-73" x="97.265625"/>
       <use xlink:href="#DejaVuSans-6b" x="149.365234"/>
       <use xlink:href="#DejaVuSans-79" x="203.650391"/>
       <use xlink:href="#DejaVuSans-20" x="262.830078"/>
       <use xlink:href="#DejaVuSans-51" x="294.617188"/>
       <use xlink:href="#DejaVuSans-4c" x="373.328125"/>
       <use xlink:href="#DejaVuSans-65" x="427.291016"/>
       <use xlink:href="#DejaVuSans-61" x="488.814453"/>
       <use xlink:href="#DejaVuSans-72" x="550.09375"/>
       <use xlink:href="#DejaVuSans-6e" x="589.457031"/>
       <use xlink:href="#DejaVuSans-65" x="652.835938"/>
       <use xlink:href="#DejaVuSans-72" x="714.359375"/>
      </g>
     </g>
    </g>
    <g id="xtick_9">
     <g id="line2d_9">
      <g>
       <use xlink:href="#m7721b422b0" x="704.565455" y="337.97" style="stroke: #000000; stroke-width: 0.8"/>
      </g>
     </g>
     <g id="text_9">
      <!-- Mediocre QLearner -->
      <g transform="translate(706.772955 420.83375)rotate(-90)scale(0.08 -0.08)">
       <defs>
        <path id="DejaVuSans-4d" d="M 628 4666 
L 1569 4666 
L 2759 1491 
L 3956 4666 
L 4897 4666 
L 4897 0 
L 4281 0 
L 4281 4097 
L 3078 897 
L 2444 897 
L 1241 4097 
L 1241 0 
L 628 0 
L 628 4666 
z
" transform="scale(0.015625)"/>
       </defs>
       <use xlink:href="#DejaVuSans-4d"/>
       <use xlink:href="#DejaVuSans-65" x="86.279297"/>
       <use xlink:href="#DejaVuSans-64" x="147.802734"/>
       <use xlink:href="#DejaVuSans-69" x="211.279297"/>
       <use xlink:href="#DejaVuSans-6f" x="239.0625"/>
       <use xlink:href="#DejaVuSans-63" x="300.244141"/>
       <use xlink:href="#DejaVuSans-72" x="355.224609"/>
       <use xlink:href="#DejaVuSans-65" x="394.087891"/>
       <use xlink:href="#DejaVuSans-20" x="455.611328"/>
       <use xlink:href="#DejaVuSans-51" x="487.398438"/>
       <use xlink:href="#DejaVuSans-4c" x="566.109375"/>
       <use xlink:href="#DejaVuSans-65" x="620.072266"/>
       <use xlink:href="#DejaVuSans-61" x="681.595703"/>
       <use xlink:href="#DejaVuSans-72" x="742.875"/>
       <use xlink:href="#DejaVuSans-6e" x="782.238281"/>
       <use xlink:href="#DejaVuSans-65" x="845.617188"/>
       <use xlink:href="#DejaVuSans-72" x="907.140625"/>
      </g>
     </g>
    </g>
    <g id="xtick_10">
     <g id="line2d_10">
      <g>
       <use xlink:href="#m7721b422b0" x="778.882727" y="337.97" style="stroke: #000000; stroke-width: 0.8"/>
      </g>
     </g>
     <g id="text_10">
      <!-- Cooperator -->
      <g transform="translate(781.090227 389.85875)rotate(-90)scale(0.08 -0.08)">
       <defs>
        <path id="DejaVuSans-43" d="M 4122 4306 
L 4122 3641 
Q 3803 3938 3442 4084 
Q 3081 4231 2675 4231 
Q 1875 4231 1450 3742 
Q 1025 3253 1025 2328 
Q 1025 1406 1450 917 
Q 1875 428 2675 428 
Q 3081 428 3442 575 
Q 3803 722 4122 1019 
L 4122 359 
Q 3791 134 3420 21 
Q 3050 -91 2638 -91 
Q 1578 -91 968 557 
Q 359 1206 359 2328 
Q 359 3453 968 4101 
Q 1578 4750 2638 4750 
Q 3056 4750 3426 4639 
Q 3797 4528 4122 4306 
z
" transform="scale(0.015625)"/>
       </defs>
       <use xlink:href="#DejaVuSans-43"/>
       <use xlink:href="#DejaVuSans-6f" x="69.824219"/>
       <use xlink:href="#DejaVuSans-6f" x="131.005859"/>
       <use xlink:href="#DejaVuSans-70" x="192.1875"/>
       <use xlink:href="#DejaVuSans-65" x="255.664062"/>
       <use xlink:href="#DejaVuSans-72" x="317.1875"/>
       <use xlink:href="#DejaVuSans-61" x="358.300781"/>
       <use xlink:href="#DejaVuSans-74" x="419.580078"/>
       <use xlink:href="#DejaVuSans-6f" x="458.789062"/>
       <use xlink:href="#DejaVuSans-72" x="519.970703"/>
      </g>
     </g>
    </g>
   </g>
   <g id="matplotlib.axis_2">
    <g id="ytick_1">
     <g id="line2d_11">
      <defs>
       <path id="m8f270755f8" d="M 0 0 
L -3.5 0 
" style="stroke: #000000; stroke-width: 0.8"/>
      </defs>
      <g>
       <use xlink:href="#m8f270755f8" x="35.71" y="330.201652" style="stroke: #000000; stroke-width: 0.8"/>
      </g>
     </g>
     <g id="text_11">
      <!-- 1.50 -->
      <g transform="translate(10.8975 333.241027)scale(0.08 -0.08)">
       <defs>
        <path id="DejaVuSans-31" d="M 794 531 
L 1825 531 
L 1825 4091 
L 703 3866 
L 703 4441 
L 1819 4666 
L 2450 4666 
L 2450 531 
L 3481 531 
L 3481 0 
L 794 0 
L 794 531 
z
" transform="scale(0.015625)"/>
       </defs>
       <use xlink:href="#DejaVuSans-31"/>
       <use xlink:href="#DejaVuSans-2e" x="63.623047"/>
       <use xlink:href="#DejaVuSans-35" x="95.410156"/>
       <use xlink:href="#DejaVuSans-30" x="159.033203"/>
      </g>
     </g>
    </g>
    <g id="ytick_2">
     <g id="line2d_12">
      <g>
       <use xlink:href="#m8f270755f8" x="35.71" y="288.033299" style="stroke: #000000; stroke-width: 0.8"/>
      </g>
     </g>
     <g id="text_12">
      <!-- 1.75 -->
      <g transform="translate(10.8975 291.072674)scale(0.08 -0.08)">
       <defs>
        <path id="DejaVuSans-37" d="M 525 4666 
L 3525 4666 
L 3525 4397 
L 1831 0 
L 1172 0 
L 2766 4134 
L 525 4134 
L 525 4666 
z
" transform="scale(0.015625)"/>
       </defs>
       <use xlink:href="#DejaVuSans-31"/>
       <use xlink:href="#DejaVuSans-2e" x="63.623047"/>
       <use xlink:href="#DejaVuSans-37" x="95.410156"/>
       <use xlink:href="#DejaVuSans-35" x="159.033203"/>
      </g>
     </g>
    </g>
    <g id="ytick_3">
     <g id="line2d_13">
      <g>
       <use xlink:href="#m8f270755f8" x="35.71" y="245.864945" style="stroke: #000000; stroke-width: 0.8"/>
      </g>
     </g>
     <g id="text_13">
      <!-- 2.00 -->
      <g transform="translate(10.8975 248.90432)scale(0.08 -0.08)">
       <defs>
        <path id="DejaVuSans-32" d="M 1228 531 
L 3431 531 
L 3431 0 
L 469 0 
L 469 531 
Q 828 903 1448 1529 
Q 2069 2156 2228 2338 
Q 2531 2678 2651 2914 
Q 2772 3150 2772 3378 
Q 2772 3750 2511 3984 
Q 2250 4219 1831 4219 
Q 1534 4219 1204 4116 
Q 875 4013 500 3803 
L 500 4441 
Q 881 4594 1212 4672 
Q 1544 4750 1819 4750 
Q 2544 4750 2975 4387 
Q 3406 4025 3406 3419 
Q 3406 3131 3298 2873 
Q 3191 2616 2906 2266 
Q 2828 2175 2409 1742 
Q 1991 1309 1228 531 
z
" transform="scale(0.015625)"/>
       </defs>
       <use xlink:href="#DejaVuSans-32"/>
       <use xlink:href="#DejaVuSans-2e" x="63.623047"/>
       <use xlink:href="#DejaVuSans-30" x="95.410156"/>
       <use xlink:href="#DejaVuSans-30" x="159.033203"/>
      </g>
     </g>
    </g>
    <g id="ytick_4">
     <g id="line2d_14">
      <g>
       <use xlink:href="#m8f270755f8" x="35.71" y="203.696592" style="stroke: #000000; stroke-width: 0.8"/>
      </g>
     </g>
     <g id="text_14">
      <!-- 2.25 -->
      <g transform="translate(10.8975 206.735967)scale(0.08 -0.08)">
       <use xlink:href="#DejaVuSans-32"/>
       <use xlink:href="#DejaVuSans-2e" x="63.623047"/>
       <use xlink:href="#DejaVuSans-32" x="95.410156"/>
       <use xlink:href="#DejaVuSans-35" x="159.033203"/>
      </g>
     </g>
    </g>
    <g id="ytick_5">
     <g id="line2d_15">
      <g>
       <use xlink:href="#m8f270755f8" x="35.71" y="161.528238" style="stroke: #000000; stroke-width: 0.8"/>
      </g>
     </g>
     <g id="text_15">
      <!-- 2.50 -->
      <g transform="translate(10.8975 164.567613)scale(0.08 -0.08)">
       <use xlink:href="#DejaVuSans-32"/>
       <use xlink:href="#DejaVuSans-2e" x="63.623047"/>
       <use xlink:href="#DejaVuSans-35" x="95.410156"/>
       <use xlink:href="#DejaVuSans-30" x="159.033203"/>
      </g>
     </g>
    </g>
    <g id="ytick_6">
     <g id="line2d_16">
      <g>
       <use xlink:href="#m8f270755f8" x="35.71" y="119.359885" style="stroke: #000000; stroke-width: 0.8"/>
      </g>
     </g>
     <g id="text_16">
      <!-- 2.75 -->
      <g transform="translate(10.8975 122.39926)scale(0.08 -0.08)">
       <use xlink:href="#DejaVuSans-32"/>
       <use xlink:href="#DejaVuSans-2e" x="63.623047"/>
       <use xlink:href="#DejaVuSans-37" x="95.410156"/>
       <use xlink:href="#DejaVuSans-35" x="159.033203"/>
      </g>
     </g>
    </g>
    <g id="ytick_7">
     <g id="line2d_17">
      <g>
       <use xlink:href="#m8f270755f8" x="35.71" y="77.191531" style="stroke: #000000; stroke-width: 0.8"/>
      </g>
     </g>
     <g id="text_17">
      <!-- 3.00 -->
      <g transform="translate(10.8975 80.230906)scale(0.08 -0.08)">
       <defs>
        <path id="DejaVuSans-33" d="M 2597 2516 
Q 3050 2419 3304 2112 
Q 3559 1806 3559 1356 
Q 3559 666 3084 287 
Q 2609 -91 1734 -91 
Q 1441 -91 1130 -33 
Q 819 25 488 141 
L 488 750 
Q 750 597 1062 519 
Q 1375 441 1716 441 
Q 2309 441 2620 675 
Q 2931 909 2931 1356 
Q 2931 1769 2642 2001 
Q 2353 2234 1838 2234 
L 1294 2234 
L 1294 2753 
L 1863 2753 
Q 2328 2753 2575 2939 
Q 2822 3125 2822 3475 
Q 2822 3834 2567 4026 
Q 2313 4219 1838 4219 
Q 1578 4219 1281 4162 
Q 984 4106 628 3988 
L 628 4550 
Q 988 4650 1302 4700 
Q 1616 4750 1894 4750 
Q 2613 4750 3031 4423 
Q 3450 4097 3450 3541 
Q 3450 3153 3228 2886 
Q 3006 2619 2597 2516 
z
" transform="scale(0.015625)"/>
       </defs>
       <use xlink:href="#DejaVuSans-33"/>
       <use xlink:href="#DejaVuSans-2e" x="63.623047"/>
       <use xlink:href="#DejaVuSans-30" x="95.410156"/>
       <use xlink:href="#DejaVuSans-30" x="159.033203"/>
      </g>
     </g>
    </g>
    <g id="ytick_8">
     <g id="line2d_18">
      <g>
       <use xlink:href="#m8f270755f8" x="35.71" y="35.023178" style="stroke: #000000; stroke-width: 0.8"/>
      </g>
     </g>
     <g id="text_18">
      <!-- 3.25 -->
      <g transform="translate(10.8975 38.062553)scale(0.08 -0.08)">
       <use xlink:href="#DejaVuSans-33"/>
       <use xlink:href="#DejaVuSans-2e" x="63.623047"/>
       <use xlink:href="#DejaVuSans-32" x="95.410156"/>
       <use xlink:href="#DejaVuSans-35" x="159.033203"/>
      </g>
     </g>
    </g>
   </g>
   <g id="LineCollection_1">
    <path d="M 100.737614 112.987778 
L 119.316932 112.987778 
" clip-path="url(#p34526222db)" style="fill: none; stroke: #1f77b4; stroke-width: 1.5"/>
    <path d="M 175.054886 160.591164 
L 193.634205 160.591164 
" clip-path="url(#p34526222db)" style="fill: none; stroke: #1f77b4; stroke-width: 1.5"/>
    <path d="M 249.372159 169.305957 
L 267.951477 169.305957 
" clip-path="url(#p34526222db)" style="fill: none; stroke: #1f77b4; stroke-width: 1.5"/>
    <path d="M 323.689432 187.016665 
L 342.26875 187.016665 
" clip-path="url(#p34526222db)" style="fill: none; stroke: #1f77b4; stroke-width: 1.5"/>
    <path d="M 398.006705 190.390133 
L 416.586023 190.390133 
" clip-path="url(#p34526222db)" style="fill: none; stroke: #1f77b4; stroke-width: 1.5"/>
    <path d="M 472.323977 208.007134 
L 490.903295 208.007134 
" clip-path="url(#p34526222db)" style="fill: none; stroke: #1f77b4; stroke-width: 1.5"/>
    <path d="M 546.64125 220.282811 
L 565.220568 220.282811 
" clip-path="url(#p34526222db)" style="fill: none; stroke: #1f77b4; stroke-width: 1.5"/>
    <path d="M 620.958523 270.978542 
L 639.537841 270.978542 
" clip-path="url(#p34526222db)" style="fill: none; stroke: #1f77b4; stroke-width: 1.5"/>
    <path d="M 695.275795 272.477862 
L 713.855114 272.477862 
" clip-path="url(#p34526222db)" style="fill: none; stroke: #1f77b4; stroke-width: 1.5"/>
    <path d="M 769.593068 297.029214 
L 788.172386 297.029214 
" clip-path="url(#p34526222db)" style="fill: none; stroke: #1f77b4; stroke-width: 1.5"/>
   </g>
   <g id="patch_3">
    <path d="M 35.71 337.97 
L 35.71 26.88 
" style="fill: none; stroke: #000000; stroke-width: 0.8; stroke-linejoin: miter; stroke-linecap: square"/>
   </g>
   <g id="patch_4">
    <path d="M 853.2 337.97 
L 853.2 26.88 
" style="fill: none; stroke: #000000; stroke-width: 0.8; stroke-linejoin: miter; stroke-linecap: square"/>
   </g>
   <g id="patch_5">
    <path d="M 35.71 337.97 
L 853.2 337.97 
" style="fill: none; stroke: #000000; stroke-width: 0.8; stroke-linejoin: miter; stroke-linecap: square"/>
   </g>
   <g id="patch_6">
    <path d="M 35.71 26.88 
L 853.2 26.88 
" style="fill: none; stroke: #000000; stroke-width: 0.8; stroke-linejoin: miter; stroke-linecap: square"/>
   </g>
   <g id="text_19">
    <!-- Payoff - turns: 200, repetitions: 100, strategies: 10.  -->
    <g transform="translate(288.674375 20.88)scale(0.12 -0.12)">
     <defs>
      <path id="DejaVuSans-50" d="M 1259 4147 
L 1259 2394 
L 2053 2394 
Q 2494 2394 2734 2622 
Q 2975 2850 2975 3272 
Q 2975 3691 2734 3919 
Q 2494 4147 2053 4147 
L 1259 4147 
z
M 628 4666 
L 2053 4666 
Q 2838 4666 3239 4311 
Q 3641 3956 3641 3272 
Q 3641 2581 3239 2228 
Q 2838 1875 2053 1875 
L 1259 1875 
L 1259 0 
L 628 0 
L 628 4666 
z
" transform="scale(0.015625)"/>
      <path id="DejaVuSans-2d" d="M 313 2009 
L 1997 2009 
L 1997 1497 
L 313 1497 
L 313 2009 
z
" transform="scale(0.015625)"/>
      <path id="DejaVuSans-2c" d="M 750 794 
L 1409 794 
L 1409 256 
L 897 -744 
L 494 -744 
L 750 256 
L 750 794 
z
" transform="scale(0.015625)"/>
     </defs>
     <use xlink:href="#DejaVuSans-50"/>
     <use xlink:href="#DejaVuSans-61" x="55.802734"/>
     <use xlink:href="#DejaVuSans-79" x="117.082031"/>
     <use xlink:href="#DejaVuSans-6f" x="176.261719"/>
     <use xlink:href="#DejaVuSans-66" x="237.443359"/>
     <use xlink:href="#DejaVuSans-66" x="272.648438"/>
     <use xlink:href="#DejaVuSans-20" x="307.853516"/>
     <use xlink:href="#DejaVuSans-2d" x="339.640625"/>
     <use xlink:href="#DejaVuSans-20" x="375.724609"/>
     <use xlink:href="#DejaVuSans-74" x="407.511719"/>
     <use xlink:href="#DejaVuSans-75" x="446.720703"/>
     <use xlink:href="#DejaVuSans-72" x="510.099609"/>
     <use xlink:href="#DejaVuSans-6e" x="549.462891"/>
     <use xlink:href="#DejaVuSans-73" x="612.841797"/>
     <use xlink:href="#DejaVuSans-3a" x="664.941406"/>
     <use xlink:href="#DejaVuSans-20" x="698.632812"/>
     <use xlink:href="#DejaVuSans-32" x="730.419922"/>
     <use xlink:href="#DejaVuSans-30" x="794.042969"/>
     <use xlink:href="#DejaVuSans-30" x="857.666016"/>
     <use xlink:href="#DejaVuSans-2c" x="921.289062"/>
     <use xlink:href="#DejaVuSans-20" x="953.076172"/>
     <use xlink:href="#DejaVuSans-72" x="984.863281"/>
     <use xlink:href="#DejaVuSans-65" x="1023.726562"/>
     <use xlink:href="#DejaVuSans-70" x="1085.25"/>
     <use xlink:href="#DejaVuSans-65" x="1148.726562"/>
     <use xlink:href="#DejaVuSans-74" x="1210.25"/>
     <use xlink:href="#DejaVuSans-69" x="1249.458984"/>
     <use xlink:href="#DejaVuSans-74" x="1277.242188"/>
     <use xlink:href="#DejaVuSans-69" x="1316.451172"/>
     <use xlink:href="#DejaVuSans-6f" x="1344.234375"/>
     <use xlink:href="#DejaVuSans-6e" x="1405.416016"/>
     <use xlink:href="#DejaVuSans-73" x="1468.794922"/>
     <use xlink:href="#DejaVuSans-3a" x="1520.894531"/>
     <use xlink:href="#DejaVuSans-20" x="1554.585938"/>
     <use xlink:href="#DejaVuSans-31" x="1586.373047"/>
     <use xlink:href="#DejaVuSans-30" x="1649.996094"/>
     <use xlink:href="#DejaVuSans-30" x="1713.619141"/>
     <use xlink:href="#DejaVuSans-2c" x="1777.242188"/>
     <use xlink:href="#DejaVuSans-20" x="1809.029297"/>
     <use xlink:href="#DejaVuSans-73" x="1840.816406"/>
     <use xlink:href="#DejaVuSans-74" x="1892.916016"/>
     <use xlink:href="#DejaVuSans-72" x="1932.125"/>
     <use xlink:href="#DejaVuSans-61" x="1973.238281"/>
     <use xlink:href="#DejaVuSans-74" x="2034.517578"/>
     <use xlink:href="#DejaVuSans-65" x="2073.726562"/>
     <use xlink:href="#DejaVuSans-67" x="2135.25"/>
     <use xlink:href="#DejaVuSans-69" x="2198.726562"/>
     <use xlink:href="#DejaVuSans-65" x="2226.509766"/>
     <use xlink:href="#DejaVuSans-73" x="2288.033203"/>
     <use xlink:href="#DejaVuSans-3a" x="2340.132812"/>
     <use xlink:href="#DejaVuSans-20" x="2373.824219"/>
     <use xlink:href="#DejaVuSans-31" x="2405.611328"/>
     <use xlink:href="#DejaVuSans-30" x="2469.234375"/>
     <use xlink:href="#DejaVuSans-2e" x="2532.857422"/>
     <use xlink:href="#DejaVuSans-20" x="2564.644531"/>
    </g>
   </g>
  </g>
 </g>
 <defs>
  <clipPath id="p34526222db">
   <rect x="35.71" y="26.88" width="817.49" height="311.09"/>
  </clipPath>
 </defs>
</svg>
