<?xml version="1.0" encoding="utf-8" standalone="no"?>
<!DOCTYPE svg PUBLIC "-//W3C//DTD SVG 1.1//EN"
  "http://www.w3.org/Graphics/SVG/1.1/DTD/svg11.dtd">
<svg xmlns:xlink="http://www.w3.org/1999/xlink" width="864pt" height="432pt" viewBox="0 0 864 432" xmlns="http://www.w3.org/2000/svg" version="1.1">
 <metadata>
  <rdf:RDF xmlns:dc="http://purl.org/dc/elements/1.1/" xmlns:cc="http://creativecommons.org/ns#" xmlns:rdf="http://www.w3.org/1999/02/22-rdf-syntax-ns#">
   <cc:Work>
    <dc:type rdf:resource="http://purl.org/dc/dcmitype/StillImage"/>
    <dc:date>2022-09-13T19:49:27.309883</dc:date>
    <dc:format>image/svg+xml</dc:format>
    <dc:creator>
     <cc:Agent>
      <dc:title>Matplotlib v3.5.1, https://matplotlib.org/</dc:title>
     </cc:Agent>
    </dc:creator>
   </cc:Work>
  </rdf:RDF>
 </metadata>
 <defs>
  <style type="text/css">*{stroke-linejoin: round; stroke-linecap: butt}</style>
 </defs>
 <g id="figure_1">
  <g id="patch_1">
   <path d="M 0 432 
L 864 432 
L 864 0 
L 0 0 
z
" style="fill: #ffffff"/>
  </g>
  <g id="axes_1">
   <g id="patch_2">
    <path d="M 29.68 337.97 
L 853.2 337.97 
L 853.2 26.88 
L 29.68 26.88 
z
" style="fill: #ffffff"/>
   </g>
   <g id="PolyCollection_1">
    <path d="M 122.729333 183.132023 
L 86.361576 183.132023 
L 85.984684 181.782252 
L 85.829091 180.432481 
L 85.889119 179.082711 
L 86.14986 177.73294 
L 86.588646 176.383169 
L 87.177045 175.033399 
L 87.883162 173.683628 
L 88.674005 172.333857 
L 89.517691 170.984087 
L 90.385289 169.634316 
L 91.252186 168.284545 
L 92.098888 166.934775 
L 92.911283 165.585004 
L 93.680408 164.235233 
L 94.401847 162.885463 
L 95.07486 161.535692 
L 95.701413 160.185921 
L 96.285185 158.836151 
L 96.830685 157.48638 
L 97.342509 156.13661 
L 97.82479 154.786839 
L 98.280826 153.437068 
L 98.712879 152.087298 
L 99.122104 150.737527 
L 99.508568 149.387756 
L 99.871335 148.037986 
L 100.20857 146.688215 
L 100.517653 145.338444 
L 100.795298 143.988674 
L 101.03766 142.638903 
L 101.240456 141.289132 
L 101.399103 139.939362 
L 101.508896 138.589591 
L 101.565229 137.23982 
L 101.563879 135.89005 
L 101.501346 134.540279 
L 101.375248 133.190508 
L 101.18474 131.840738 
L 100.930944 130.490967 
L 100.617329 129.141196 
L 100.250011 127.791426 
L 99.837918 126.441655 
L 99.392775 125.091884 
L 98.928883 123.742114 
L 98.462669 122.392343 
L 98.012014 121.042572 
L 97.595401 119.692802 
L 97.230915 118.343031 
L 96.935202 116.99326 
L 96.722437 115.64349 
L 96.603431 114.293719 
L 96.584932 112.943948 
L 96.669202 111.594178 
L 96.853909 110.244407 
L 97.132345 108.894636 
L 97.493939 107.544866 
L 97.925028 106.195095 
L 98.409802 104.845324 
L 98.93133 103.495554 
L 99.472591 102.145783 
L 100.017412 100.796012 
L 100.551255 99.446242 
L 101.061794 98.096471 
L 101.53928 96.7467 
L 101.976676 95.39693 
L 102.369596 94.047159 
L 102.716075 92.697388 
L 103.016222 91.347618 
L 103.271796 89.997847 
L 103.485756 88.648076 
L 103.661814 87.298306 
L 103.80402 85.948535 
L 103.916405 84.598764 
L 104.002681 83.248994 
L 104.066016 81.899223 
L 104.108871 80.549452 
L 104.132895 79.199682 
L 104.138894 77.849911 
L 104.126847 76.50014 
L 104.095985 75.15037 
L 104.044926 73.800599 
L 103.971869 72.450829 
L 103.874835 71.101058 
L 103.751965 69.751287 
L 103.601845 68.401517 
L 103.423848 67.051746 
L 103.218466 65.701975 
L 102.987602 64.352205 
L 102.734779 63.002434 
L 102.46525 61.652663 
L 102.185957 60.302893 
L 101.905349 58.953122 
L 101.633028 57.603351 
L 101.379266 56.253581 
L 101.154395 54.90381 
L 100.968145 53.554039 
L 100.82897 52.204269 
L 100.743441 50.854498 
L 100.71575 49.504727 
L 108.375159 49.504727 
L 108.375159 49.504727 
L 108.347468 50.854498 
L 108.261939 52.204269 
L 108.122764 53.554039 
L 107.936514 54.90381 
L 107.711643 56.253581 
L 107.457881 57.603351 
L 107.18556 58.953122 
L 106.904952 60.302893 
L 106.625659 61.652663 
L 106.35613 63.002434 
L 106.103307 64.352205 
L 105.872443 65.701975 
L 105.667061 67.051746 
L 105.489064 68.401517 
L 105.338944 69.751287 
L 105.216074 71.101058 
L 105.11904 72.450829 
L 105.045983 73.800599 
L 104.994925 75.15037 
L 104.964063 76.50014 
L 104.952015 77.849911 
L 104.958014 79.199682 
L 104.982038 80.549452 
L 105.024893 81.899223 
L 105.088228 83.248994 
L 105.174505 84.598764 
L 105.286889 85.948535 
L 105.429095 87.298306 
L 105.605153 88.648076 
L 105.819113 89.997847 
L 106.074687 91.347618 
L 106.374834 92.697388 
L 106.721313 94.047159 
L 107.114233 95.39693 
L 107.551629 96.7467 
L 108.029115 98.096471 
L 108.539654 99.446242 
L 109.073497 100.796012 
L 109.618318 102.145783 
L 110.159579 103.495554 
L 110.681107 104.845324 
L 111.165881 106.195095 
L 111.59697 107.544866 
L 111.958564 108.894636 
L 112.237 110.244407 
L 112.421708 111.594178 
L 112.505977 112.943948 
L 112.487478 114.293719 
L 112.368472 115.64349 
L 112.155707 116.99326 
L 111.859994 118.343031 
L 111.495508 119.692802 
L 111.078895 121.042572 
L 110.62824 122.392343 
L 110.162026 123.742114 
L 109.698135 125.091884 
L 109.252992 126.441655 
L 108.840898 127.791426 
L 108.47358 129.141196 
L 108.159965 130.490967 
L 107.906169 131.840738 
L 107.715661 133.190508 
L 107.589563 134.540279 
L 107.52703 135.89005 
L 107.52568 137.23982 
L 107.582013 138.589591 
L 107.691806 139.939362 
L 107.850453 141.289132 
L 108.053249 142.638903 
L 108.295611 143.988674 
L 108.573256 145.338444 
L 108.882339 146.688215 
L 109.219574 148.037986 
L 109.582341 149.387756 
L 109.968805 150.737527 
L 110.37803 152.087298 
L 110.810083 153.437068 
L 111.266119 154.786839 
L 111.7484 156.13661 
L 112.260224 157.48638 
L 112.805724 158.836151 
L 113.389496 160.185921 
L 114.016049 161.535692 
L 114.689062 162.885463 
L 115.410501 164.235233 
L 116.179626 165.585004 
L 116.992021 166.934775 
L 117.838724 168.284545 
L 118.70562 169.634316 
L 119.573219 170.984087 
L 120.416904 172.333857 
L 121.207747 173.683628 
L 121.913864 175.033399 
L 122.502263 176.383169 
L 122.941049 177.73294 
L 123.20179 179.082711 
L 123.261818 180.432481 
L 123.106226 181.782252 
L 122.729333 183.132023 
z
" clip-path="url(#p6e73c20967)" style="fill: #1f77b4; fill-opacity: 0.3"/>
   </g>
   <g id="PolyCollection_2">
    <path d="M 188.097713 183.132023 
L 170.724105 183.132023 
L 170.756452 183.124881 
L 170.852772 183.117739 
L 171.01093 183.110598 
L 171.227452 183.103456 
L 171.497658 183.096315 
L 171.815823 183.089173 
L 172.175384 183.082031 
L 172.569162 183.07489 
L 172.9896 183.067748 
L 173.429001 183.060606 
L 173.879759 183.053465 
L 174.334568 183.046323 
L 174.786612 183.039181 
L 175.229716 183.03204 
L 175.658464 183.024898 
L 176.068281 183.017756 
L 176.455475 183.010615 
L 176.817242 183.003473 
L 177.151646 182.996331 
L 177.457565 182.98919 
L 177.734614 182.982048 
L 177.983062 182.974907 
L 178.203727 182.967765 
L 178.397877 182.960623 
L 178.567122 182.953482 
L 178.713315 182.94634 
L 178.838466 182.939198 
L 178.944657 182.932057 
L 179.033971 182.924915 
L 179.108442 182.917773 
L 179.170004 182.910632 
L 179.220462 182.90349 
L 179.26147 182.896348 
L 179.294519 182.889207 
L 179.320932 182.882065 
L 179.341866 182.874924 
L 179.35832 182.867782 
L 179.371146 182.86064 
L 179.38106 182.853499 
L 179.388657 182.846357 
L 179.394426 182.839215 
L 179.398762 182.832074 
L 179.401982 182.824932 
L 179.404333 182.81779 
L 179.406007 182.810649 
L 179.407143 182.803507 
L 179.407841 182.796365 
L 179.408159 182.789224 
L 179.408124 182.782082 
L 179.407725 182.774941 
L 179.406917 182.767799 
L 179.405614 182.760657 
L 179.403685 182.753516 
L 179.400943 182.746374 
L 179.397138 182.739232 
L 179.391937 182.732091 
L 179.384909 182.724949 
L 179.375506 182.717807 
L 179.363038 182.710666 
L 179.346643 182.703524 
L 179.325267 182.696382 
L 179.297621 182.689241 
L 179.262162 182.682099 
L 179.217054 182.674958 
L 179.160143 182.667816 
L 179.088935 182.660674 
L 179.000578 182.653533 
L 178.891862 182.646391 
L 178.759222 182.639249 
L 178.598769 182.632108 
L 178.406334 182.624966 
L 178.177539 182.617824 
L 177.907891 182.610683 
L 177.592906 182.603541 
L 177.228257 182.596399 
L 176.809947 182.589258 
L 176.334506 182.582116 
L 175.799207 182.574975 
L 175.202284 182.567833 
L 174.54316 182.560691 
L 173.822661 182.55355 
L 173.043206 182.546408 
L 172.208969 182.539266 
L 171.325988 182.532125 
L 170.402218 182.524983 
L 169.447518 182.517841 
L 168.473556 182.5107 
L 167.493636 182.503558 
L 166.522445 182.496416 
L 165.575722 182.489275 
L 164.669857 182.482133 
L 163.821433 182.474992 
L 163.046732 182.46785 
L 162.361223 182.460708 
L 161.779045 182.453567 
L 161.312531 182.446425 
L 160.971769 182.439283 
L 160.76424 182.432142 
L 160.694545 182.425 
L 198.127273 182.425 
L 198.127273 182.425 
L 198.057579 182.432142 
L 197.850049 182.439283 
L 197.509287 182.446425 
L 197.042773 182.453567 
L 196.460596 182.460708 
L 195.775086 182.46785 
L 195.000385 182.474992 
L 194.151961 182.482133 
L 193.246096 182.489275 
L 192.299373 182.496416 
L 191.328183 182.503558 
L 190.348262 182.5107 
L 189.3743 182.517841 
L 188.4196 182.524983 
L 187.49583 182.532125 
L 186.612849 182.539266 
L 185.778612 182.546408 
L 184.999157 182.55355 
L 184.278658 182.560691 
L 183.619534 182.567833 
L 183.022611 182.574975 
L 182.487312 182.582116 
L 182.011871 182.589258 
L 181.593561 182.596399 
L 181.228912 182.603541 
L 180.913927 182.610683 
L 180.644279 182.617824 
L 180.415484 182.624966 
L 180.223049 182.632108 
L 180.062596 182.639249 
L 179.929956 182.646391 
L 179.82124 182.653533 
L 179.732884 182.660674 
L 179.661675 182.667816 
L 179.604764 182.674958 
L 179.559656 182.682099 
L 179.524197 182.689241 
L 179.496552 182.696382 
L 179.475175 182.703524 
L 179.458781 182.710666 
L 179.446312 182.717807 
L 179.436909 182.724949 
L 179.429881 182.732091 
L 179.42468 182.739232 
L 179.420875 182.746374 
L 179.418134 182.753516 
L 179.416204 182.760657 
L 179.414901 182.767799 
L 179.414093 182.774941 
L 179.413694 182.782082 
L 179.413659 182.789224 
L 179.413977 182.796365 
L 179.414675 182.803507 
L 179.415811 182.810649 
L 179.417485 182.81779 
L 179.419837 182.824932 
L 179.423056 182.832074 
L 179.427393 182.839215 
L 179.433161 182.846357 
L 179.440758 182.853499 
L 179.450672 182.86064 
L 179.463498 182.867782 
L 179.479952 182.874924 
L 179.500886 182.882065 
L 179.527299 182.889207 
L 179.560348 182.896348 
L 179.601356 182.90349 
L 179.651814 182.910632 
L 179.713376 182.917773 
L 179.787847 182.924915 
L 179.877161 182.932057 
L 179.983352 182.939198 
L 180.108503 182.94634 
L 180.254697 182.953482 
L 180.423941 182.960623 
L 180.618091 182.967765 
L 180.838756 182.974907 
L 181.087204 182.982048 
L 181.364253 182.98919 
L 181.670172 182.996331 
L 182.004576 183.003473 
L 182.366344 183.010615 
L 182.753537 183.017756 
L 183.163354 183.024898 
L 183.592102 183.03204 
L 184.035206 183.039181 
L 184.48725 183.046323 
L 184.942059 183.053465 
L 185.392817 183.060606 
L 185.832218 183.067748 
L 186.252657 183.07489 
L 186.646435 183.082031 
L 187.005996 183.089173 
L 187.32416 183.096315 
L 187.594366 183.103456 
L 187.810888 183.110598 
L 187.969046 183.117739 
L 188.065366 183.124881 
L 188.097713 183.132023 
z
" clip-path="url(#p6e73c20967)" style="fill: #1f77b4; fill-opacity: 0.3"/>
   </g>
   <g id="PolyCollection_3">
    <path d="M 263.515839 267.97475 
L 245.036888 267.97475 
L 243.866311 266.28218 
L 242.689012 264.589611 
L 241.534118 262.897041 
L 240.43297 261.204472 
L 239.417787 259.511902 
L 238.520128 257.819333 
L 237.769299 256.126763 
L 237.190766 254.434194 
L 236.804736 252.741624 
L 236.624986 251.049054 
L 236.658044 249.356485 
L 236.902787 247.663915 
L 237.350487 245.971346 
L 237.985306 244.278776 
L 238.785186 242.586207 
L 239.723073 240.893637 
L 240.768363 239.201067 
L 241.888465 237.508498 
L 243.050352 235.815928 
L 244.221997 234.123359 
L 245.373588 232.430789 
L 246.478464 230.73822 
L 247.513715 229.04565 
L 248.46046 227.353081 
L 249.303796 225.660511 
L 250.032494 223.967941 
L 250.638485 222.275372 
L 251.116236 220.582802 
L 251.462095 218.890233 
L 251.673691 217.197663 
L 251.749461 215.505094 
L 251.688381 213.812524 
L 251.489913 212.119955 
L 251.154216 210.427385 
L 250.682576 208.734815 
L 250.078039 207.042246 
L 249.346176 205.349676 
L 248.495875 203.657107 
L 247.540084 201.964537 
L 246.496368 200.271968 
L 245.387195 198.579398 
L 244.239846 196.886829 
L 243.085908 195.194259 
L 241.960309 193.501689 
L 240.899941 191.80912 
L 239.941933 190.11655 
L 239.121695 188.423981 
L 238.47089 186.731411 
L 238.015502 185.038842 
L 237.77417 183.346272 
L 237.756961 181.653702 
L 237.964669 179.961133 
L 238.388745 178.268563 
L 239.011832 176.575994 
L 239.808871 174.883424 
L 240.748668 173.190855 
L 241.795767 171.498285 
L 242.912467 169.805716 
L 244.060801 168.113146 
L 245.204319 166.420576 
L 246.309548 164.728007 
L 247.347053 163.035437 
L 248.292047 161.342868 
L 249.124586 159.650298 
L 249.829383 157.957729 
L 250.395351 156.265159 
L 250.81496 154.57259 
L 251.083543 152.88002 
L 251.198642 151.18745 
L 251.159492 149.494881 
L 250.966699 147.802311 
L 250.622159 146.109742 
L 250.129207 144.417172 
L 249.492972 142.724603 
L 248.720882 141.032033 
L 247.82325 139.339463 
L 246.813834 137.646894 
L 245.710291 135.954324 
L 244.534437 134.261755 
L 243.312219 132.569185 
L 242.073368 130.876616 
L 240.850698 129.184046 
L 239.67906 127.491477 
L 238.594009 125.798907 
L 237.63024 124.106337 
L 236.819929 122.413768 
L 236.191072 120.721198 
L 235.765973 119.028629 
L 235.56 117.336059 
L 235.580705 115.64349 
L 235.8274 113.95092 
L 236.291216 112.258351 
L 236.955644 110.565781 
L 237.79752 108.873211 
L 238.788366 107.180642 
L 239.895993 105.488072 
L 241.086222 103.795503 
L 242.324617 102.102933 
L 243.578095 100.410364 
L 264.974632 100.410364 
L 264.974632 100.410364 
L 266.228111 102.102933 
L 267.466506 103.795503 
L 268.656734 105.488072 
L 269.764361 107.180642 
L 270.755208 108.873211 
L 271.597083 110.565781 
L 272.261511 112.258351 
L 272.725327 113.95092 
L 272.972022 115.64349 
L 272.992727 117.336059 
L 272.786754 119.028629 
L 272.361655 120.721198 
L 271.732798 122.413768 
L 270.922487 124.106337 
L 269.958719 125.798907 
L 268.873667 127.491477 
L 267.70203 129.184046 
L 266.479359 130.876616 
L 265.240508 132.569185 
L 264.01829 134.261755 
L 262.842436 135.954324 
L 261.738894 137.646894 
L 260.729477 139.339463 
L 259.831845 141.032033 
L 259.059755 142.724603 
L 258.42352 144.417172 
L 257.930568 146.109742 
L 257.586029 147.802311 
L 257.393236 149.494881 
L 257.354085 151.18745 
L 257.469184 152.88002 
L 257.737768 154.57259 
L 258.157377 156.265159 
L 258.723344 157.957729 
L 259.428142 159.650298 
L 260.26068 161.342868 
L 261.205675 163.035437 
L 262.243179 164.728007 
L 263.348409 166.420576 
L 264.491926 168.113146 
L 265.64026 169.805716 
L 266.756961 171.498285 
L 267.80406 173.190855 
L 268.743856 174.883424 
L 269.540895 176.575994 
L 270.163982 178.268563 
L 270.588058 179.961133 
L 270.795767 181.653702 
L 270.778557 183.346272 
L 270.537226 185.038842 
L 270.081837 186.731411 
L 269.431033 188.423981 
L 268.610795 190.11655 
L 267.652786 191.80912 
L 266.592418 193.501689 
L 265.466819 195.194259 
L 264.312881 196.886829 
L 263.165533 198.579398 
L 262.056359 200.271968 
L 261.012644 201.964537 
L 260.056852 203.657107 
L 259.206552 205.349676 
L 258.474688 207.042246 
L 257.870151 208.734815 
L 257.398511 210.427385 
L 257.062814 212.119955 
L 256.864347 213.812524 
L 256.803266 215.505094 
L 256.879036 217.197663 
L 257.090632 218.890233 
L 257.436491 220.582802 
L 257.914242 222.275372 
L 258.520233 223.967941 
L 259.248931 225.660511 
L 260.092268 227.353081 
L 261.039012 229.04565 
L 262.074263 230.73822 
L 263.179139 232.430789 
L 264.33073 234.123359 
L 265.502375 235.815928 
L 266.664263 237.508498 
L 267.784364 239.201067 
L 268.829654 240.893637 
L 269.767541 242.586207 
L 270.567422 244.278776 
L 271.20224 245.971346 
L 271.649941 247.663915 
L 271.894683 249.356485 
L 271.927741 251.049054 
L 271.747991 252.741624 
L 271.361962 254.434194 
L 270.783428 256.126763 
L 270.032599 257.819333 
L 269.134941 259.511902 
L 268.119757 261.204472 
L 267.01861 262.897041 
L 265.863715 264.589611 
L 264.686417 266.28218 
L 263.515839 267.97475 
z
" clip-path="url(#p6e73c20967)" style="fill: #1f77b4; fill-opacity: 0.3"/>
   </g>
   <g id="PolyCollection_4">
    <path d="M 333.935309 315.345273 
L 324.348328 315.345273 
L 324.397952 312.617165 
L 324.56376 309.889057 
L 324.833329 307.160949 
L 325.187158 304.432841 
L 325.600915 301.704733 
L 326.048103 298.976625 
L 326.502721 296.248517 
L 326.941561 293.52041 
L 327.345879 290.792302 
L 327.702309 288.064194 
L 328.003038 285.336086 
L 328.245374 282.607978 
L 328.430895 279.87987 
L 328.564386 277.151762 
L 328.652765 274.423654 
L 328.704106 271.695546 
L 328.726849 268.967438 
L 328.729204 266.239331 
L 328.718724 263.511223 
L 328.702012 260.783115 
L 328.684508 258.055007 
L 328.670331 255.326899 
L 328.662139 252.598791 
L 328.66101 249.870683 
L 328.666312 247.142575 
L 328.675568 244.414467 
L 328.684299 241.68636 
L 328.685821 238.958252 
L 328.671008 236.230144 
L 328.628034 233.502036 
L 328.542145 230.773928 
L 328.395576 228.04582 
L 328.167732 225.317712 
L 327.835818 222.589604 
L 327.376059 219.861496 
L 326.76561 217.133388 
L 325.98515 214.405281 
L 325.022001 211.677173 
L 323.873422 208.949065 
L 322.549613 206.220957 
L 321.075816 203.492849 
L 319.492975 200.764741 
L 317.856483 198.036633 
L 316.232898 195.308525 
L 314.694767 192.580417 
L 313.314152 189.852309 
L 312.155689 187.124202 
L 311.270207 184.396094 
L 310.68985 181.667986 
L 310.425455 178.939878 
L 310.466471 176.21177 
L 310.78333 173.483662 
L 311.331691 170.755554 
L 312.057746 168.027446 
L 312.90369 165.299338 
L 313.812548 162.57123 
L 314.731845 159.843123 
L 315.61594 157.115015 
L 316.427154 154.386907 
L 317.136072 151.658799 
L 317.721465 148.930691 
L 318.170226 146.202583 
L 318.477559 143.474475 
L 318.647404 140.746367 
L 318.692896 138.018259 
L 318.636509 135.290152 
L 318.509491 132.562044 
L 318.350304 129.833936 
L 318.20197 127.105828 
L 318.108447 124.37772 
L 318.110436 121.649612 
L 318.241163 118.921504 
L 318.522777 116.193396 
L 318.963934 113.465288 
L 319.558947 110.73718 
L 320.288635 108.009073 
L 321.122713 105.280965 
L 322.023293 102.552857 
L 322.948934 99.824749 
L 323.858628 97.096641 
L 324.71517 94.368533 
L 325.48756 91.640425 
L 326.152291 88.912317 
L 326.693594 86.184209 
L 327.102898 83.456101 
L 327.377837 80.727994 
L 327.521172 77.999886 
L 327.539891 75.271778 
L 327.444665 72.54367 
L 327.24964 69.815562 
L 326.972458 67.087454 
L 326.634273 64.359346 
L 326.25951 61.631238 
L 325.875156 58.90313 
L 325.509475 56.175022 
L 325.190185 53.446915 
L 324.94227 50.718807 
L 324.785745 47.990699 
L 324.733723 45.262591 
L 333.549913 45.262591 
L 333.549913 45.262591 
L 333.497891 47.990699 
L 333.341366 50.718807 
L 333.093451 53.446915 
L 332.774161 56.175022 
L 332.40848 58.90313 
L 332.024126 61.631238 
L 331.649363 64.359346 
L 331.311179 67.087454 
L 331.033997 69.815562 
L 330.838971 72.54367 
L 330.743745 75.271778 
L 330.762465 77.999886 
L 330.905799 80.727994 
L 331.180738 83.456101 
L 331.590042 86.184209 
L 332.131346 88.912317 
L 332.796077 91.640425 
L 333.568467 94.368533 
L 334.425008 97.096641 
L 335.334702 99.824749 
L 336.260344 102.552857 
L 337.160923 105.280965 
L 337.995001 108.009073 
L 338.72469 110.73718 
L 339.319702 113.465288 
L 339.760859 116.193396 
L 340.042473 118.921504 
L 340.1732 121.649612 
L 340.175189 124.37772 
L 340.081667 127.105828 
L 339.933332 129.833936 
L 339.774146 132.562044 
L 339.647127 135.290152 
L 339.59074 138.018259 
L 339.636233 140.746367 
L 339.806078 143.474475 
L 340.113411 146.202583 
L 340.562172 148.930691 
L 341.147564 151.658799 
L 341.856483 154.386907 
L 342.667697 157.115015 
L 343.551792 159.843123 
L 344.471089 162.57123 
L 345.379946 165.299338 
L 346.225891 168.027446 
L 346.951946 170.755554 
L 347.500306 173.483662 
L 347.817166 176.21177 
L 347.858182 178.939878 
L 347.593786 181.667986 
L 347.01343 184.396094 
L 346.127947 187.124202 
L 344.969485 189.852309 
L 343.588869 192.580417 
L 342.050738 195.308525 
L 340.427153 198.036633 
L 338.790662 200.764741 
L 337.20782 203.492849 
L 335.734024 206.220957 
L 334.410214 208.949065 
L 333.261636 211.677173 
L 332.298486 214.405281 
L 331.518026 217.133388 
L 330.907577 219.861496 
L 330.447818 222.589604 
L 330.115905 225.317712 
L 329.888061 228.04582 
L 329.741491 230.773928 
L 329.655603 233.502036 
L 329.612629 236.230144 
L 329.597816 238.958252 
L 329.599338 241.68636 
L 329.608068 244.414467 
L 329.617325 247.142575 
L 329.622626 249.870683 
L 329.621497 252.598791 
L 329.613306 255.326899 
L 329.599128 258.055007 
L 329.581624 260.783115 
L 329.564912 263.511223 
L 329.554432 266.239331 
L 329.556787 268.967438 
L 329.57953 271.695546 
L 329.630871 274.423654 
L 329.71925 277.151762 
L 329.852742 279.87987 
L 330.038262 282.607978 
L 330.280598 285.336086 
L 330.581328 288.064194 
L 330.937757 290.792302 
L 331.342075 293.52041 
L 331.780916 296.248517 
L 332.235533 298.976625 
L 332.682721 301.704733 
L 333.096478 304.432841 
L 333.450307 307.160949 
L 333.719877 309.889057 
L 333.885684 312.617165 
L 333.935309 315.345273 
z
" clip-path="url(#p6e73c20967)" style="fill: #1f77b4; fill-opacity: 0.3"/>
   </g>
   <g id="PolyCollection_5">
    <path d="M 404.16794 301.911841 
L 403.846606 301.911841 
L 403.815428 299.297999 
L 403.780319 296.684158 
L 403.740205 294.070316 
L 403.693206 291.456475 
L 403.636334 288.842633 
L 403.565225 286.228791 
L 403.473986 283.61495 
L 403.355248 281.001108 
L 403.200531 278.387267 
L 403.001007 275.773425 
L 402.748684 273.159583 
L 402.437931 270.545742 
L 402.067186 267.9319 
L 401.640526 265.318059 
L 401.168768 262.704217 
L 400.66971 260.090375 
L 400.167274 257.476534 
L 399.689475 254.862692 
L 399.265391 252.248851 
L 398.921575 249.635009 
L 398.678507 247.021167 
L 398.547723 244.407326 
L 398.530142 241.793484 
L 398.615833 239.179643 
L 398.78515 236.565801 
L 399.010853 233.951959 
L 399.260625 231.338118 
L 399.49941 228.724276 
L 399.691122 226.110435 
L 399.799595 223.496593 
L 399.788984 220.882751 
L 399.624112 218.26891 
L 399.271425 215.655068 
L 398.701154 213.041227 
L 397.891044 210.427385 
L 396.8315 207.813543 
L 395.531514 205.199702 
L 394.024146 202.58586 
L 392.370034 199.972019 
L 390.65742 197.358177 
L 388.997564 194.744335 
L 387.515307 192.130494 
L 386.335585 189.516652 
L 385.567826 186.902811 
L 385.290909 184.288969 
L 385.541566 181.675127 
L 386.308598 179.061286 
L 387.534156 176.447444 
L 389.121865 173.833603 
L 390.950139 171.219761 
L 392.888051 168.605919 
L 394.810788 165.992078 
L 396.61209 163.378236 
L 398.212039 160.764395 
L 399.559714 158.150553 
L 400.631358 155.536711 
L 401.425467 152.92287 
L 401.956515 150.309028 
L 402.248901 147.695187 
L 402.332234 145.081345 
L 402.238444 142.467503 
L 402.000629 139.853662 
L 401.653062 137.23982 
L 401.231588 134.625979 
L 400.773626 132.012137 
L 400.317256 129.398295 
L 399.899195 126.784454 
L 399.551925 124.170612 
L 399.300501 121.556771 
L 399.1598 118.942929 
L 399.132903 116.329087 
L 399.211066 113.715246 
L 399.375389 111.101404 
L 399.599921 108.487563 
L 399.855583 105.873721 
L 400.114217 103.259879 
L 400.352031 100.646038 
L 400.551953 98.032196 
L 400.704626 95.418355 
L 400.808109 92.804513 
L 400.866514 90.190671 
L 400.887999 87.57683 
L 400.882537 84.962988 
L 400.859879 82.349147 
L 400.828036 79.735305 
L 400.792472 77.121463 
L 400.756106 74.507622 
L 400.720013 71.89378 
L 400.684652 69.279939 
L 400.651266 66.666097 
L 400.623099 64.052256 
L 400.606057 61.438414 
L 400.608585 58.824572 
L 400.640688 56.210731 
L 400.712277 53.596889 
L 400.83119 50.983048 
L 401.00136 48.369206 
L 401.221584 45.755364 
L 401.485207 43.141523 
L 406.529339 43.141523 
L 406.529339 43.141523 
L 406.792962 45.755364 
L 407.013186 48.369206 
L 407.183356 50.983048 
L 407.302268 53.596889 
L 407.373857 56.210731 
L 407.40596 58.824572 
L 407.408488 61.438414 
L 407.391447 64.052256 
L 407.363279 66.666097 
L 407.329894 69.279939 
L 407.294532 71.89378 
L 407.25844 74.507622 
L 407.222073 77.121463 
L 407.18651 79.735305 
L 407.154666 82.349147 
L 407.132008 84.962988 
L 407.126546 87.57683 
L 407.148031 90.190671 
L 407.206437 92.804513 
L 407.309919 95.418355 
L 407.462593 98.032196 
L 407.662514 100.646038 
L 407.900329 103.259879 
L 408.158963 105.873721 
L 408.414625 108.487563 
L 408.639156 111.101404 
L 408.80348 113.715246 
L 408.881642 116.329087 
L 408.854746 118.942929 
L 408.714045 121.556771 
L 408.46262 124.170612 
L 408.11535 126.784454 
L 407.69729 129.398295 
L 407.240919 132.012137 
L 406.782957 134.625979 
L 406.361483 137.23982 
L 406.013916 139.853662 
L 405.776101 142.467503 
L 405.682311 145.081345 
L 405.765644 147.695187 
L 406.058031 150.309028 
L 406.589078 152.92287 
L 407.383187 155.536711 
L 408.454832 158.150553 
L 409.802506 160.764395 
L 411.402455 163.378236 
L 413.203758 165.992078 
L 415.126494 168.605919 
L 417.064407 171.219761 
L 418.89268 173.833603 
L 420.480389 176.447444 
L 421.705948 179.061286 
L 422.472979 181.675127 
L 422.723636 184.288969 
L 422.44672 186.902811 
L 421.678961 189.516652 
L 420.499238 192.130494 
L 419.016981 194.744335 
L 417.357126 197.358177 
L 415.644512 199.972019 
L 413.9904 202.58586 
L 412.483031 205.199702 
L 411.183046 207.813543 
L 410.123502 210.427385 
L 409.313391 213.041227 
L 408.743121 215.655068 
L 408.390433 218.26891 
L 408.225562 220.882751 
L 408.214951 223.496593 
L 408.323424 226.110435 
L 408.515135 228.724276 
L 408.75392 231.338118 
L 409.003693 233.951959 
L 409.229395 236.565801 
L 409.398712 239.179643 
L 409.484403 241.793484 
L 409.466822 244.407326 
L 409.336039 247.021167 
L 409.092971 249.635009 
L 408.749155 252.248851 
L 408.32507 254.862692 
L 407.847271 257.476534 
L 407.344835 260.090375 
L 406.845777 262.704217 
L 406.374019 265.318059 
L 405.94736 267.9319 
L 405.576614 270.545742 
L 405.265862 273.159583 
L 405.013538 275.773425 
L 404.814015 278.387267 
L 404.659297 281.001108 
L 404.540559 283.61495 
L 404.449321 286.228791 
L 404.378212 288.842633 
L 404.321339 291.456475 
L 404.27434 294.070316 
L 404.234227 296.684158 
L 404.199117 299.297999 
L 404.16794 301.911841 
z
" clip-path="url(#p6e73c20967)" style="fill: #1f77b4; fill-opacity: 0.3"/>
   </g>
   <g id="PolyCollection_6">
    <path d="M 496.603532 182.425 
L 461.141922 182.425 
L 460.588713 180.996671 
L 460.259319 179.568343 
L 460.156364 178.140014 
L 460.272412 176.711685 
L 460.590948 175.283356 
L 461.088018 173.855028 
L 461.734336 172.426699 
L 462.497623 170.99837 
L 463.344919 169.570041 
L 464.24467 168.141713 
L 465.168404 166.713384 
L 466.091894 165.285055 
L 466.995784 163.856726 
L 467.865702 162.428398 
L 468.691948 161.000069 
L 469.468872 159.57174 
L 470.194072 158.143411 
L 470.867526 156.715083 
L 471.490764 155.286754 
L 472.066145 153.858425 
L 472.596275 152.430096 
L 473.083578 151.001768 
L 473.530011 149.573439 
L 473.936889 148.14511 
L 474.304799 146.716781 
L 474.633574 145.288453 
L 474.922301 143.860124 
L 475.16936 142.431795 
L 475.372494 141.003466 
L 475.528909 139.575138 
L 475.635431 138.146809 
L 475.688717 136.71848 
L 475.685549 135.290152 
L 475.62319 133.861823 
L 475.49982 132.433494 
L 475.315001 131.005165 
L 475.070162 129.576837 
L 474.769041 128.148508 
L 474.418037 126.720179 
L 474.026406 125.29185 
L 473.60627 123.863522 
L 473.172379 122.435193 
L 472.741618 121.006864 
L 472.332271 119.578535 
L 471.963076 118.150207 
L 471.652134 116.721878 
L 471.415772 115.293549 
L 471.267447 113.86522 
L 471.216816 112.436892 
L 471.269042 111.008563 
L 471.42444 109.580234 
L 471.678466 108.151905 
L 472.022083 106.723577 
L 472.442444 105.295248 
L 472.92383 103.866919 
L 473.448755 102.43859 
L 473.999117 101.010262 
L 474.557309 99.581933 
L 475.107179 98.153604 
L 475.634791 96.725275 
L 476.128925 95.296947 
L 476.581332 93.868618 
L 476.98673 92.440289 
L 477.342603 91.011961 
L 477.648846 89.583632 
L 477.907302 88.155303 
L 478.121266 86.726974 
L 478.294984 85.298646 
L 478.433201 83.870317 
L 478.540766 82.441988 
L 478.622316 81.013659 
L 478.682041 79.585331 
L 478.723516 78.157002 
L 478.749598 76.728673 
L 478.762367 75.300344 
L 478.763106 73.872016 
L 478.752311 72.443687 
L 478.729722 71.015358 
L 478.694381 69.587029 
L 478.64472 68.158701 
L 478.578676 66.730372 
L 478.493864 65.302043 
L 478.387781 63.873714 
L 478.258073 62.445386 
L 478.102839 61.017057 
L 477.920964 59.588728 
L 477.712455 58.160399 
L 477.478758 56.732071 
L 477.222995 55.303742 
L 476.950106 53.875413 
L 476.666852 52.447084 
L 476.381642 51.018756 
L 476.104195 49.590427 
L 475.845036 48.162098 
L 475.614855 46.73377 
L 475.423788 45.305441 
L 475.280685 43.877112 
L 475.192432 42.448783 
L 475.163407 41.020455 
L 482.582048 41.020455 
L 482.582048 41.020455 
L 482.553022 42.448783 
L 482.464769 43.877112 
L 482.321666 45.305441 
L 482.1306 46.73377 
L 481.900418 48.162098 
L 481.641259 49.590427 
L 481.363813 51.018756 
L 481.078602 52.447084 
L 480.795348 53.875413 
L 480.52246 55.303742 
L 480.266696 56.732071 
L 480.032999 58.160399 
L 479.824491 59.588728 
L 479.642615 61.017057 
L 479.487381 62.445386 
L 479.357674 63.873714 
L 479.251591 65.302043 
L 479.166778 66.730372 
L 479.100735 68.158701 
L 479.051073 69.587029 
L 479.015733 71.015358 
L 478.993144 72.443687 
L 478.982348 73.872016 
L 478.983087 75.300344 
L 478.995856 76.728673 
L 479.021938 78.157002 
L 479.063414 79.585331 
L 479.123139 81.013659 
L 479.204689 82.441988 
L 479.312253 83.870317 
L 479.45047 85.298646 
L 479.624189 86.726974 
L 479.838153 88.155303 
L 480.096609 89.583632 
L 480.402851 91.011961 
L 480.758725 92.440289 
L 481.164123 93.868618 
L 481.616529 95.296947 
L 482.110664 96.725275 
L 482.638275 98.153604 
L 483.188146 99.581933 
L 483.746337 101.010262 
L 484.2967 102.43859 
L 484.821624 103.866919 
L 485.30301 105.295248 
L 485.723371 106.723577 
L 486.066989 108.151905 
L 486.321015 109.580234 
L 486.476413 111.008563 
L 486.528639 112.436892 
L 486.478007 113.86522 
L 486.329683 115.293549 
L 486.093321 116.721878 
L 485.782379 118.150207 
L 485.413183 119.578535 
L 485.003836 121.006864 
L 484.573075 122.435193 
L 484.139184 123.863522 
L 483.719049 125.29185 
L 483.327418 126.720179 
L 482.976413 128.148508 
L 482.675293 129.576837 
L 482.430454 131.005165 
L 482.245635 132.433494 
L 482.122264 133.861823 
L 482.059906 135.290152 
L 482.056737 136.71848 
L 482.110024 138.146809 
L 482.216545 139.575138 
L 482.372961 141.003466 
L 482.576095 142.431795 
L 482.823154 143.860124 
L 483.111881 145.288453 
L 483.440656 146.716781 
L 483.808566 148.14511 
L 484.215443 149.573439 
L 484.661876 151.001768 
L 485.149179 152.430096 
L 485.679309 153.858425 
L 486.254691 155.286754 
L 486.877929 156.715083 
L 487.551383 158.143411 
L 488.276582 159.57174 
L 489.053507 161.000069 
L 489.879753 162.428398 
L 490.749671 163.856726 
L 491.653561 165.285055 
L 492.57705 166.713384 
L 493.500784 168.141713 
L 494.400535 169.570041 
L 495.247831 170.99837 
L 496.011118 172.426699 
L 496.657437 173.855028 
L 497.154507 175.283356 
L 497.473043 176.711685 
L 497.589091 178.140014 
L 497.486136 179.568343 
L 497.156741 180.996671 
L 496.603532 182.425 
z
" clip-path="url(#p6e73c20967)" style="fill: #1f77b4; fill-opacity: 0.3"/>
   </g>
   <g id="PolyCollection_7">
    <path d="M 572.110669 253.127273 
L 535.365695 253.127273 
L 535.102407 251.698944 
L 535.021818 250.270615 
L 535.126114 248.842287 
L 535.412003 247.413958 
L 535.870883 245.985629 
L 536.489261 244.5573 
L 537.249402 243.128972 
L 538.130155 241.700643 
L 539.107904 240.272314 
L 540.157587 238.843985 
L 541.253709 237.415657 
L 542.371299 235.987328 
L 543.486754 234.558999 
L 544.578535 233.13067 
L 545.627678 231.702342 
L 546.61812 230.274013 
L 547.536824 228.845684 
L 548.373742 227.417355 
L 549.121609 225.989027 
L 549.775631 224.560698 
L 550.333074 223.132369 
L 550.792823 221.70404 
L 551.154924 220.275712 
L 551.420154 218.847383 
L 551.589655 217.419054 
L 551.664647 215.990725 
L 551.646245 214.562397 
L 551.535378 213.134068 
L 551.332835 211.705739 
L 551.039405 210.27741 
L 550.656121 208.849082 
L 550.184581 207.420753 
L 549.627315 205.992424 
L 548.988176 204.564096 
L 548.272727 203.135767 
L 547.488565 201.707438 
L 546.645582 200.279109 
L 545.756099 198.850781 
L 544.83487 197.422452 
L 543.898927 195.994123 
L 542.967258 194.565794 
L 542.060326 193.137466 
L 541.199444 191.709137 
L 540.406031 190.280808 
L 539.70079 188.852479 
L 539.102852 187.424151 
L 538.628947 185.995822 
L 538.292643 184.567493 
L 538.103715 183.139164 
L 538.067674 181.710836 
L 538.185504 180.282507 
L 538.453609 178.854178 
L 538.86399 177.425849 
L 539.404616 175.997521 
L 540.059991 174.569192 
L 540.811854 173.140863 
L 541.639972 171.712534 
L 542.522981 170.284206 
L 543.439211 168.855877 
L 544.367451 167.427548 
L 545.287612 165.999219 
L 546.181261 164.570891 
L 547.031998 163.142562 
L 547.825677 161.714233 
L 548.55047 160.285904 
L 549.196798 158.857576 
L 549.75715 157.429247 
L 550.225815 156.000918 
L 550.598576 154.57259 
L 550.872394 153.144261 
L 551.045109 151.715932 
L 551.115201 150.287603 
L 551.081628 148.859275 
L 550.943752 147.430946 
L 550.701376 146.002617 
L 550.354865 144.574288 
L 549.905376 143.14596 
L 549.355141 141.717631 
L 548.707809 140.289302 
L 547.968795 138.860973 
L 547.145614 137.432645 
L 546.248149 136.004316 
L 545.288839 134.575987 
L 544.282735 133.147658 
L 543.247411 131.71933 
L 542.202715 130.291001 
L 541.170349 128.862672 
L 540.173295 127.434343 
L 539.235103 126.006015 
L 538.379069 124.577686 
L 537.627359 123.149357 
L 537.000115 121.721028 
L 536.514611 120.2927 
L 536.184491 118.864371 
L 536.019164 117.436042 
L 536.02338 116.007713 
L 536.197014 114.579385 
L 536.535089 113.151056 
L 537.028013 111.722727 
L 570.44835 111.722727 
L 570.44835 111.722727 
L 570.941275 113.151056 
L 571.279349 114.579385 
L 571.452984 116.007713 
L 571.457199 117.436042 
L 571.291873 118.864371 
L 570.961753 120.2927 
L 570.476248 121.721028 
L 569.849005 123.149357 
L 569.097295 124.577686 
L 568.24126 126.006015 
L 567.303068 127.434343 
L 566.306015 128.862672 
L 565.273649 130.291001 
L 564.228953 131.71933 
L 563.193629 133.147658 
L 562.187524 134.575987 
L 561.228214 136.004316 
L 560.33075 137.432645 
L 559.507568 138.860973 
L 558.768555 140.289302 
L 558.121223 141.717631 
L 557.570988 143.14596 
L 557.121498 144.574288 
L 556.774988 146.002617 
L 556.532611 147.430946 
L 556.394736 148.859275 
L 556.361163 150.287603 
L 556.431255 151.715932 
L 556.60397 153.144261 
L 556.877787 154.57259 
L 557.250549 156.000918 
L 557.719214 157.429247 
L 558.279565 158.857576 
L 558.925894 160.285904 
L 559.650687 161.714233 
L 560.444366 163.142562 
L 561.295103 164.570891 
L 562.188752 165.999219 
L 563.108913 167.427548 
L 564.037152 168.855877 
L 564.953382 170.284206 
L 565.836392 171.712534 
L 566.66451 173.140863 
L 567.416372 174.569192 
L 568.071748 175.997521 
L 568.612374 177.425849 
L 569.022754 178.854178 
L 569.29086 180.282507 
L 569.40869 181.710836 
L 569.372649 183.139164 
L 569.183721 184.567493 
L 568.847417 185.995822 
L 568.373512 187.424151 
L 567.775574 188.852479 
L 567.070332 190.280808 
L 566.27692 191.709137 
L 565.416038 193.137466 
L 564.509106 194.565794 
L 563.577436 195.994123 
L 562.641493 197.422452 
L 561.720265 198.850781 
L 560.830782 200.279109 
L 559.987799 201.707438 
L 559.203637 203.135767 
L 558.488187 204.564096 
L 557.849049 205.992424 
L 557.291782 207.420753 
L 556.820242 208.849082 
L 556.436959 210.27741 
L 556.143529 211.705739 
L 555.940986 213.134068 
L 555.830119 214.562397 
L 555.811717 215.990725 
L 555.886709 217.419054 
L 556.05621 218.847383 
L 556.32144 220.275712 
L 556.68354 221.70404 
L 557.14329 223.132369 
L 557.700733 224.560698 
L 558.354754 225.989027 
L 559.102622 227.417355 
L 559.93954 228.845684 
L 560.858244 230.274013 
L 561.848685 231.702342 
L 562.897829 233.13067 
L 563.98961 234.558999 
L 565.105065 235.987328 
L 566.222654 237.415657 
L 567.318776 238.843985 
L 568.368459 240.272314 
L 569.346209 241.700643 
L 570.226961 243.128972 
L 570.987103 244.5573 
L 571.605481 245.985629 
L 572.06436 247.413958 
L 572.350249 248.842287 
L 572.454545 250.270615 
L 572.373957 251.698944 
L 572.110669 253.127273 
z
" clip-path="url(#p6e73c20967)" style="fill: #1f77b4; fill-opacity: 0.3"/>
   </g>
   <g id="PolyCollection_8">
    <path d="M 628.84581 308.982068 
L 628.361463 308.982068 
L 628.330657 307.582306 
L 628.297854 306.182544 
L 628.262106 304.782782 
L 628.222407 303.38302 
L 628.17792 301.983257 
L 628.128211 300.583495 
L 628.07342 299.183733 
L 628.014327 297.783971 
L 627.952323 296.384209 
L 627.889271 294.984447 
L 627.82732 293.584684 
L 627.768689 292.184922 
L 627.715496 290.78516 
L 627.669614 289.385398 
L 627.63259 287.985636 
L 627.605586 286.585874 
L 627.589338 285.186111 
L 627.584096 283.786349 
L 627.589562 282.386587 
L 627.604805 280.986825 
L 627.628195 279.587063 
L 627.657358 278.187301 
L 627.689166 276.787538 
L 627.719745 275.387776 
L 627.744489 273.988014 
L 627.758039 272.588252 
L 627.754205 271.18849 
L 627.725831 269.788728 
L 627.664633 268.388965 
L 627.5611 266.989203 
L 627.404567 265.589441 
L 627.18361 264.189679 
L 626.886882 262.789917 
L 626.504471 261.390154 
L 626.029736 259.990392 
L 625.461466 258.59063 
L 624.806041 257.190868 
L 624.07916 255.791106 
L 623.306652 254.391344 
L 622.523954 252.991581 
L 621.773986 251.591819 
L 621.10348 250.192057 
L 620.558123 248.792295 
L 620.177173 247.392533 
L 619.98843 245.992771 
L 620.004429 244.593008 
L 620.220556 243.193246 
L 620.615442 241.793484 
L 621.153556 240.393722 
L 621.789531 238.99396 
L 622.473457 237.594198 
L 623.156261 236.194435 
L 623.794385 234.794673 
L 624.353174 233.394911 
L 624.808687 231.995149 
L 625.147953 230.595387 
L 625.367897 229.195625 
L 625.473347 227.795862 
L 625.474545 226.3961 
L 625.384586 224.996338 
L 625.217128 223.596576 
L 624.98462 222.196814 
L 624.697207 220.797052 
L 624.362375 219.397289 
L 623.985306 217.997527 
L 623.569842 216.597765 
L 623.119858 215.198003 
L 622.640798 213.798241 
L 622.141043 212.398479 
L 621.632772 210.998716 
L 621.131999 209.598954 
L 620.657514 208.199192 
L 620.228659 206.79943 
L 619.862033 205.399668 
L 619.567524 203.999906 
L 619.344328 202.600143 
L 619.177818 201.200381 
L 619.038227 199.800619 
L 618.881965 198.400857 
L 618.656072 197.001095 
L 618.305686 195.601333 
L 617.783734 194.20157 
L 617.06134 192.801808 
L 616.136976 191.402046 
L 615.042243 190.002284 
L 613.842613 188.602522 
L 612.632284 187.20276 
L 611.523518 185.802997 
L 610.63206 184.403235 
L 610.061182 183.003473 
L 609.887273 181.603711 
L 610.149611 180.203949 
L 610.846051 178.804187 
L 611.935053 177.404424 
L 613.343222 176.004662 
L 614.976512 174.6049 
L 616.732811 173.205138 
L 618.513694 171.805376 
L 620.233707 170.405614 
L 636.973566 170.405614 
L 636.973566 170.405614 
L 638.693578 171.805376 
L 640.474461 173.205138 
L 642.230761 174.6049 
L 643.864051 176.004662 
L 645.272219 177.404424 
L 646.361222 178.804187 
L 647.057662 180.203949 
L 647.32 181.603711 
L 647.14609 183.003473 
L 646.575213 184.403235 
L 645.683755 185.802997 
L 644.574988 187.20276 
L 643.364659 188.602522 
L 642.16503 190.002284 
L 641.070297 191.402046 
L 640.145932 192.801808 
L 639.423539 194.20157 
L 638.901586 195.601333 
L 638.551201 197.001095 
L 638.325308 198.400857 
L 638.169046 199.800619 
L 638.029454 201.200381 
L 637.862945 202.600143 
L 637.639749 203.999906 
L 637.34524 205.399668 
L 636.978614 206.79943 
L 636.549759 208.199192 
L 636.075274 209.598954 
L 635.5745 210.998716 
L 635.06623 212.398479 
L 634.566475 213.798241 
L 634.087415 215.198003 
L 633.637431 216.597765 
L 633.221967 217.997527 
L 632.844898 219.397289 
L 632.510066 220.797052 
L 632.222653 222.196814 
L 631.990144 223.596576 
L 631.822687 224.996338 
L 631.732728 226.3961 
L 631.733926 227.795862 
L 631.839376 229.195625 
L 632.05932 230.595387 
L 632.398585 231.995149 
L 632.854099 233.394911 
L 633.412887 234.794673 
L 634.051012 236.194435 
L 634.733816 237.594198 
L 635.417742 238.99396 
L 636.053717 240.393722 
L 636.591831 241.793484 
L 636.986717 243.193246 
L 637.202844 244.593008 
L 637.218843 245.992771 
L 637.0301 247.392533 
L 636.649149 248.792295 
L 636.103793 250.192057 
L 635.433287 251.591819 
L 634.683319 252.991581 
L 633.90062 254.391344 
L 633.128113 255.791106 
L 632.401232 257.190868 
L 631.745807 258.59063 
L 631.177537 259.990392 
L 630.702802 261.390154 
L 630.320391 262.789917 
L 630.023663 264.189679 
L 629.802706 265.589441 
L 629.646173 266.989203 
L 629.542639 268.388965 
L 629.481441 269.788728 
L 629.453067 271.18849 
L 629.449234 272.588252 
L 629.462784 273.988014 
L 629.487528 275.387776 
L 629.518106 276.787538 
L 629.549914 278.187301 
L 629.579078 279.587063 
L 629.602468 280.986825 
L 629.617711 282.386587 
L 629.623176 283.786349 
L 629.617935 285.186111 
L 629.601686 286.585874 
L 629.574683 287.985636 
L 629.537659 289.385398 
L 629.491777 290.78516 
L 629.438584 292.184922 
L 629.379953 293.584684 
L 629.318001 294.984447 
L 629.25495 296.384209 
L 629.192946 297.783971 
L 629.133853 299.183733 
L 629.079061 300.583495 
L 629.029353 301.983257 
L 628.984866 303.38302 
L 628.945166 304.782782 
L 628.909419 306.182544 
L 628.876616 307.582306 
L 628.84581 308.982068 
z
" clip-path="url(#p6e73c20967)" style="fill: #1f77b4; fill-opacity: 0.3"/>
   </g>
   <g id="PolyCollection_9">
    <path d="M 703.838692 309.689091 
L 703.099489 309.689091 
L 703.024861 308.282187 
L 702.943684 306.875283 
L 702.857483 305.468379 
L 702.768229 304.061476 
L 702.678242 302.654572 
L 702.590043 301.247668 
L 702.506178 299.840764 
L 702.429039 298.43386 
L 702.360696 297.026957 
L 702.302776 295.620053 
L 702.256389 294.213149 
L 702.222112 292.806245 
L 702.200007 291.399341 
L 702.18969 289.992438 
L 702.190388 288.585534 
L 702.201016 287.17863 
L 702.220222 285.771726 
L 702.246417 284.364822 
L 702.277783 282.957919 
L 702.312255 281.551015 
L 702.347488 280.144111 
L 702.380808 278.737207 
L 702.409139 277.330303 
L 702.42891 275.923399 
L 702.435941 274.516496 
L 702.425285 273.109592 
L 702.391072 271.702688 
L 702.326346 270.295784 
L 702.222971 268.88888 
L 702.071677 267.481977 
L 701.86234 266.075073 
L 701.584602 264.668169 
L 701.228899 263.261265 
L 700.787928 261.854361 
L 700.25844 260.447458 
L 699.643195 259.040554 
L 698.952729 257.63365 
L 698.206551 256.226746 
L 697.433358 254.819842 
L 696.669961 253.412938 
L 695.958777 252.006035 
L 695.344053 250.599131 
L 694.867225 249.192227 
L 694.56209 247.785323 
L 694.450552 246.378419 
L 694.539701 244.971516 
L 694.820728 243.564612 
L 695.269898 242.157708 
L 695.851385 240.750804 
L 696.521465 239.3439 
L 697.233335 237.936997 
L 697.94177 236.530093 
L 698.606952 235.123189 
L 699.197043 233.716285 
L 699.689336 232.309381 
L 700.070137 230.902478 
L 700.333689 229.495574 
L 700.480554 228.08867 
L 700.515861 226.681766 
L 700.447718 225.274862 
L 700.285973 223.867958 
L 700.041366 222.461055 
L 699.725043 221.054151 
L 699.348334 219.647247 
L 698.922714 218.240343 
L 698.459874 216.833439 
L 697.971849 215.426536 
L 697.471153 214.019632 
L 696.970837 212.612728 
L 696.484358 211.205824 
L 696.025106 209.79892 
L 695.605458 208.392017 
L 695.235273 206.985113 
L 694.919892 205.578209 
L 694.657881 204.171305 
L 694.438961 202.764401 
L 694.242699 201.357497 
L 694.038607 199.950594 
L 693.788152 198.54369 
L 693.448919 197.136786 
L 692.980725 195.729882 
L 692.352993 194.322978 
L 691.552235 192.916075 
L 690.588209 191.509171 
L 689.497337 190.102267 
L 688.342273 188.695363 
L 687.207166 187.288459 
L 686.188979 185.881556 
L 685.386039 184.474652 
L 684.885635 183.067748 
L 684.752727 181.660844 
L 685.02168 180.25394 
L 685.692324 178.847037 
L 686.730839 177.440133 
L 688.075052 176.033229 
L 689.642963 174.626325 
L 691.342922 173.219421 
L 693.083751 171.812517 
L 694.783378 170.405614 
L 712.154804 170.405614 
L 712.154804 170.405614 
L 713.854431 171.812517 
L 715.59526 173.219421 
L 717.295219 174.626325 
L 718.86313 176.033229 
L 720.207342 177.440133 
L 721.245858 178.847037 
L 721.916502 180.25394 
L 722.185455 181.660844 
L 722.052547 183.067748 
L 721.552142 184.474652 
L 720.749202 185.881556 
L 719.731015 187.288459 
L 718.595909 188.695363 
L 717.440845 190.102267 
L 716.349973 191.509171 
L 715.385947 192.916075 
L 714.585189 194.322978 
L 713.957457 195.729882 
L 713.489263 197.136786 
L 713.15003 198.54369 
L 712.899575 199.950594 
L 712.695483 201.357497 
L 712.499221 202.764401 
L 712.280301 204.171305 
L 712.01829 205.578209 
L 711.702909 206.985113 
L 711.332724 208.392017 
L 710.913076 209.79892 
L 710.453824 211.205824 
L 709.967344 212.612728 
L 709.467029 214.019632 
L 708.966333 215.426536 
L 708.478308 216.833439 
L 708.015468 218.240343 
L 707.589848 219.647247 
L 707.213139 221.054151 
L 706.896816 222.461055 
L 706.652209 223.867958 
L 706.490464 225.274862 
L 706.422321 226.681766 
L 706.457628 228.08867 
L 706.604493 229.495574 
L 706.868045 230.902478 
L 707.248846 232.309381 
L 707.741139 233.716285 
L 708.331229 235.123189 
L 708.996412 236.530093 
L 709.704846 237.936997 
L 710.416716 239.3439 
L 711.086797 240.750804 
L 711.668284 242.157708 
L 712.117454 243.564612 
L 712.398481 244.971516 
L 712.48763 246.378419 
L 712.376092 247.785323 
L 712.070956 249.192227 
L 711.594129 250.599131 
L 710.979405 252.006035 
L 710.268221 253.412938 
L 709.504824 254.819842 
L 708.731631 256.226746 
L 707.985453 257.63365 
L 707.294987 259.040554 
L 706.679742 260.447458 
L 706.150254 261.854361 
L 705.709283 263.261265 
L 705.35358 264.668169 
L 705.075841 266.075073 
L 704.866504 267.481977 
L 704.715211 268.88888 
L 704.611836 270.295784 
L 704.54711 271.702688 
L 704.512897 273.109592 
L 704.502241 274.516496 
L 704.509271 275.923399 
L 704.529043 277.330303 
L 704.557374 278.737207 
L 704.590694 280.144111 
L 704.625927 281.551015 
L 704.660399 282.957919 
L 704.691765 284.364822 
L 704.71796 285.771726 
L 704.737166 287.17863 
L 704.747794 288.585534 
L 704.748492 289.992438 
L 704.738174 291.399341 
L 704.71607 292.806245 
L 704.681792 294.213149 
L 704.635406 295.620053 
L 704.577486 297.026957 
L 704.509143 298.43386 
L 704.432003 299.840764 
L 704.348139 301.247668 
L 704.259939 302.654572 
L 704.169952 304.061476 
L 704.080699 305.468379 
L 703.994498 306.875283 
L 703.913321 308.282187 
L 703.838692 309.689091 
z
" clip-path="url(#p6e73c20967)" style="fill: #1f77b4; fill-opacity: 0.3"/>
   </g>
   <g id="PolyCollection_10">
    <path d="M 786.83136 323.829545 
L 769.837731 323.829545 
L 769.69463 322.401217 
L 769.631986 320.972888 
L 769.651502 319.544559 
L 769.752554 318.11623 
L 769.932218 316.687902 
L 770.185412 315.259573 
L 770.505119 313.831244 
L 770.882709 312.402916 
L 771.308309 310.974587 
L 771.771212 309.546258 
L 772.260308 308.117929 
L 772.764486 306.689601 
L 773.273016 305.261272 
L 773.775871 303.832943 
L 774.263982 302.404614 
L 774.729417 300.976286 
L 775.165487 299.547957 
L 775.566774 298.119628 
L 775.929086 296.691299 
L 776.24937 295.262971 
L 776.525566 293.834642 
L 776.756447 292.406313 
L 776.941444 290.977984 
L 777.080473 289.549656 
L 777.173782 288.121327 
L 777.22183 286.692998 
L 777.225195 285.264669 
L 777.184538 283.836341 
L 777.100593 282.408012 
L 776.974221 280.979683 
L 776.806481 279.551354 
L 776.598745 278.123026 
L 776.352829 276.694697 
L 776.071129 275.266368 
L 775.75675 273.838039 
L 775.413621 272.409711 
L 775.04657 270.981382 
L 774.661361 269.553053 
L 774.264666 268.124725 
L 773.863988 266.696396 
L 773.467514 265.268067 
L 773.083912 263.839738 
L 772.722076 262.41141 
L 772.390824 260.983081 
L 772.098576 259.554752 
L 771.853025 258.126423 
L 771.660813 256.698095 
L 771.527252 255.269766 
L 771.456077 253.841437 
L 771.449283 252.413108 
L 771.507025 250.98478 
L 771.62761 249.556451 
L 771.807567 248.128122 
L 772.041796 246.699793 
L 772.323783 245.271465 
L 772.645873 243.843136 
L 772.999564 242.414807 
L 773.375831 240.986478 
L 773.76543 239.55815 
L 774.159182 238.129821 
L 774.548222 236.701492 
L 774.92418 235.273163 
L 775.279319 233.844835 
L 775.606598 232.416506 
L 775.899681 230.988177 
L 776.152887 229.559848 
L 776.361108 228.13152 
L 776.519685 226.703191 
L 776.624287 225.274862 
L 776.670787 223.846534 
L 776.65516 222.418205 
L 776.573428 220.989876 
L 776.421643 219.561547 
L 776.195944 218.133219 
L 775.892672 216.70489 
L 775.508557 215.276561 
L 775.040968 213.848232 
L 774.488212 212.419904 
L 773.849871 210.991575 
L 773.127162 209.563246 
L 772.323284 208.134917 
L 771.443725 206.706589 
L 770.49652 205.27826 
L 769.4924 203.849931 
L 768.444841 202.421602 
L 767.369967 200.993274 
L 766.286305 199.564945 
L 765.214396 198.136616 
L 764.176246 196.708287 
L 763.194661 195.279959 
L 762.292473 193.85163 
L 761.491701 192.423301 
L 760.812688 190.994972 
L 760.273271 189.566644 
L 759.888012 188.138315 
L 759.667563 186.709986 
L 759.618182 185.281657 
L 759.741443 183.853329 
L 760.034158 182.425 
L 796.634933 182.425 
L 796.634933 182.425 
L 796.927648 183.853329 
L 797.050909 185.281657 
L 797.001528 186.709986 
L 796.781079 188.138315 
L 796.39582 189.566644 
L 795.856403 190.994972 
L 795.17739 192.423301 
L 794.376618 193.85163 
L 793.47443 195.279959 
L 792.492845 196.708287 
L 791.454695 198.136616 
L 790.382786 199.564945 
L 789.299124 200.993274 
L 788.22425 202.421602 
L 787.176691 203.849931 
L 786.172571 205.27826 
L 785.225365 206.706589 
L 784.345807 208.134917 
L 783.541928 209.563246 
L 782.81922 210.991575 
L 782.180879 212.419904 
L 781.628122 213.848232 
L 781.160534 215.276561 
L 780.776419 216.70489 
L 780.473147 218.133219 
L 780.247448 219.561547 
L 780.095663 220.989876 
L 780.013931 222.418205 
L 779.998304 223.846534 
L 780.044804 225.274862 
L 780.149406 226.703191 
L 780.307983 228.13152 
L 780.516204 229.559848 
L 780.76941 230.988177 
L 781.062493 232.416506 
L 781.389772 233.844835 
L 781.744911 235.273163 
L 782.120869 236.701492 
L 782.509908 238.129821 
L 782.903661 239.55815 
L 783.29326 240.986478 
L 783.669527 242.414807 
L 784.023218 243.843136 
L 784.345308 245.271465 
L 784.627295 246.699793 
L 784.861524 248.128122 
L 785.041481 249.556451 
L 785.162066 250.98478 
L 785.219808 252.413108 
L 785.213014 253.841437 
L 785.141839 255.269766 
L 785.008277 256.698095 
L 784.816066 258.126423 
L 784.570515 259.554752 
L 784.278267 260.983081 
L 783.947014 262.41141 
L 783.585178 263.839738 
L 783.201577 265.268067 
L 782.805103 266.696396 
L 782.404425 268.124725 
L 782.00773 269.553053 
L 781.62252 270.981382 
L 781.25547 272.409711 
L 780.912341 273.838039 
L 780.597962 275.266368 
L 780.316262 276.694697 
L 780.070346 278.123026 
L 779.86261 279.551354 
L 779.69487 280.979683 
L 779.568498 282.408012 
L 779.484553 283.836341 
L 779.443896 285.264669 
L 779.447261 286.692998 
L 779.495309 288.121327 
L 779.588618 289.549656 
L 779.727647 290.977984 
L 779.912644 292.406313 
L 780.143525 293.834642 
L 780.419721 295.262971 
L 780.740005 296.691299 
L 781.102317 298.119628 
L 781.503604 299.547957 
L 781.939674 300.976286 
L 782.405109 302.404614 
L 782.89322 303.832943 
L 783.396075 305.261272 
L 783.904605 306.689601 
L 784.408783 308.117929 
L 784.897878 309.546258 
L 785.360782 310.974587 
L 785.786382 312.402916 
L 786.163972 313.831244 
L 786.483679 315.259573 
L 786.736873 316.687902 
L 786.916537 318.11623 
L 787.017589 319.544559 
L 787.037105 320.972888 
L 786.974461 322.401217 
L 786.83136 323.829545 
z
" clip-path="url(#p6e73c20967)" style="fill: #1f77b4; fill-opacity: 0.3"/>
   </g>
   <g id="matplotlib.axis_1">
    <g id="xtick_1">
     <g id="line2d_1">
      <defs>
       <path id="mb88e7f0f9c" d="M 0 0 
L 0 3.5 
" style="stroke: #000000; stroke-width: 0.8"/>
      </defs>
      <g>
       <use xlink:href="#mb88e7f0f9c" x="104.545455" y="337.97" style="stroke: #000000; stroke-width: 0.8"/>
      </g>
     </g>
     <g id="text_1">
      <!-- Grudger -->
      <g transform="translate(106.752955 377.89625)rotate(-90)scale(0.08 -0.08)">
       <defs>
        <path id="DejaVuSans-47" d="M 3809 666 
L 3809 1919 
L 2778 1919 
L 2778 2438 
L 4434 2438 
L 4434 434 
Q 4069 175 3628 42 
Q 3188 -91 2688 -91 
Q 1594 -91 976 548 
Q 359 1188 359 2328 
Q 359 3472 976 4111 
Q 1594 4750 2688 4750 
Q 3144 4750 3555 4637 
Q 3966 4525 4313 4306 
L 4313 3634 
Q 3963 3931 3569 4081 
Q 3175 4231 2741 4231 
Q 1884 4231 1454 3753 
Q 1025 3275 1025 2328 
Q 1025 1384 1454 906 
Q 1884 428 2741 428 
Q 3075 428 3337 486 
Q 3600 544 3809 666 
z
" transform="scale(0.015625)"/>
        <path id="DejaVuSans-72" d="M 2631 2963 
Q 2534 3019 2420 3045 
Q 2306 3072 2169 3072 
Q 1681 3072 1420 2755 
Q 1159 2438 1159 1844 
L 1159 0 
L 581 0 
L 581 3500 
L 1159 3500 
L 1159 2956 
Q 1341 3275 1631 3429 
Q 1922 3584 2338 3584 
Q 2397 3584 2469 3576 
Q 2541 3569 2628 3553 
L 2631 2963 
z
" transform="scale(0.015625)"/>
        <path id="DejaVuSans-75" d="M 544 1381 
L 544 3500 
L 1119 3500 
L 1119 1403 
Q 1119 906 1312 657 
Q 1506 409 1894 409 
Q 2359 409 2629 706 
Q 2900 1003 2900 1516 
L 2900 3500 
L 3475 3500 
L 3475 0 
L 2900 0 
L 2900 538 
Q 2691 219 2414 64 
Q 2138 -91 1772 -91 
Q 1169 -91 856 284 
Q 544 659 544 1381 
z
M 1991 3584 
L 1991 3584 
z
" transform="scale(0.015625)"/>
        <path id="DejaVuSans-64" d="M 2906 2969 
L 2906 4863 
L 3481 4863 
L 3481 0 
L 2906 0 
L 2906 525 
Q 2725 213 2448 61 
Q 2172 -91 1784 -91 
Q 1150 -91 751 415 
Q 353 922 353 1747 
Q 353 2572 751 3078 
Q 1150 3584 1784 3584 
Q 2172 3584 2448 3432 
Q 2725 3281 2906 2969 
z
M 947 1747 
Q 947 1113 1208 752 
Q 1469 391 1925 391 
Q 2381 391 2643 752 
Q 2906 1113 2906 1747 
Q 2906 2381 2643 2742 
Q 2381 3103 1925 3103 
Q 1469 3103 1208 2742 
Q 947 2381 947 1747 
z
" transform="scale(0.015625)"/>
        <path id="DejaVuSans-67" d="M 2906 1791 
Q 2906 2416 2648 2759 
Q 2391 3103 1925 3103 
Q 1463 3103 1205 2759 
Q 947 2416 947 1791 
Q 947 1169 1205 825 
Q 1463 481 1925 481 
Q 2391 481 2648 825 
Q 2906 1169 2906 1791 
z
M 3481 434 
Q 3481 -459 3084 -895 
Q 2688 -1331 1869 -1331 
Q 1566 -1331 1297 -1286 
Q 1028 -1241 775 -1147 
L 775 -588 
Q 1028 -725 1275 -790 
Q 1522 -856 1778 -856 
Q 2344 -856 2625 -561 
Q 2906 -266 2906 331 
L 2906 616 
Q 2728 306 2450 153 
Q 2172 0 1784 0 
Q 1141 0 747 490 
Q 353 981 353 1791 
Q 353 2603 747 3093 
Q 1141 3584 1784 3584 
Q 2172 3584 2450 3431 
Q 2728 3278 2906 2969 
L 2906 3500 
L 3481 3500 
L 3481 434 
z
" transform="scale(0.015625)"/>
        <path id="DejaVuSans-65" d="M 3597 1894 
L 3597 1613 
L 953 1613 
Q 991 1019 1311 708 
Q 1631 397 2203 397 
Q 2534 397 2845 478 
Q 3156 559 3463 722 
L 3463 178 
Q 3153 47 2828 -22 
Q 2503 -91 2169 -91 
Q 1331 -91 842 396 
Q 353 884 353 1716 
Q 353 2575 817 3079 
Q 1281 3584 2069 3584 
Q 2775 3584 3186 3129 
Q 3597 2675 3597 1894 
z
M 3022 2063 
Q 3016 2534 2758 2815 
Q 2500 3097 2075 3097 
Q 1594 3097 1305 2825 
Q 1016 2553 972 2059 
L 3022 2063 
z
" transform="scale(0.015625)"/>
       </defs>
       <use xlink:href="#DejaVuSans-47"/>
       <use xlink:href="#DejaVuSans-72" x="77.490234"/>
       <use xlink:href="#DejaVuSans-75" x="118.603516"/>
       <use xlink:href="#DejaVuSans-64" x="181.982422"/>
       <use xlink:href="#DejaVuSans-67" x="245.458984"/>
       <use xlink:href="#DejaVuSans-65" x="308.935547"/>
       <use xlink:href="#DejaVuSans-72" x="370.458984"/>
      </g>
     </g>
    </g>
    <g id="xtick_2">
     <g id="line2d_2">
      <g>
       <use xlink:href="#mb88e7f0f9c" x="179.410909" y="337.97" style="stroke: #000000; stroke-width: 0.8"/>
      </g>
     </g>
     <g id="text_2">
      <!-- Tit For Tat -->
      <g transform="translate(181.618409 384.15)rotate(-90)scale(0.08 -0.08)">
       <defs>
        <path id="DejaVuSans-54" d="M -19 4666 
L 3928 4666 
L 3928 4134 
L 2272 4134 
L 2272 0 
L 1638 0 
L 1638 4134 
L -19 4134 
L -19 4666 
z
" transform="scale(0.015625)"/>
        <path id="DejaVuSans-69" d="M 603 3500 
L 1178 3500 
L 1178 0 
L 603 0 
L 603 3500 
z
M 603 4863 
L 1178 4863 
L 1178 4134 
L 603 4134 
L 603 4863 
z
" transform="scale(0.015625)"/>
        <path id="DejaVuSans-74" d="M 1172 4494 
L 1172 3500 
L 2356 3500 
L 2356 3053 
L 1172 3053 
L 1172 1153 
Q 1172 725 1289 603 
Q 1406 481 1766 481 
L 2356 481 
L 2356 0 
L 1766 0 
Q 1100 0 847 248 
Q 594 497 594 1153 
L 594 3053 
L 172 3053 
L 172 3500 
L 594 3500 
L 594 4494 
L 1172 4494 
z
" transform="scale(0.015625)"/>
        <path id="DejaVuSans-20" transform="scale(0.015625)"/>
        <path id="DejaVuSans-46" d="M 628 4666 
L 3309 4666 
L 3309 4134 
L 1259 4134 
L 1259 2759 
L 3109 2759 
L 3109 2228 
L 1259 2228 
L 1259 0 
L 628 0 
L 628 4666 
z
" transform="scale(0.015625)"/>
        <path id="DejaVuSans-6f" d="M 1959 3097 
Q 1497 3097 1228 2736 
Q 959 2375 959 1747 
Q 959 1119 1226 758 
Q 1494 397 1959 397 
Q 2419 397 2687 759 
Q 2956 1122 2956 1747 
Q 2956 2369 2687 2733 
Q 2419 3097 1959 3097 
z
M 1959 3584 
Q 2709 3584 3137 3096 
Q 3566 2609 3566 1747 
Q 3566 888 3137 398 
Q 2709 -91 1959 -91 
Q 1206 -91 779 398 
Q 353 888 353 1747 
Q 353 2609 779 3096 
Q 1206 3584 1959 3584 
z
" transform="scale(0.015625)"/>
        <path id="DejaVuSans-61" d="M 2194 1759 
Q 1497 1759 1228 1600 
Q 959 1441 959 1056 
Q 959 750 1161 570 
Q 1363 391 1709 391 
Q 2188 391 2477 730 
Q 2766 1069 2766 1631 
L 2766 1759 
L 2194 1759 
z
M 3341 1997 
L 3341 0 
L 2766 0 
L 2766 531 
Q 2569 213 2275 61 
Q 1981 -91 1556 -91 
Q 1019 -91 701 211 
Q 384 513 384 1019 
Q 384 1609 779 1909 
Q 1175 2209 1959 2209 
L 2766 2209 
L 2766 2266 
Q 2766 2663 2505 2880 
Q 2244 3097 1772 3097 
Q 1472 3097 1187 3025 
Q 903 2953 641 2809 
L 641 3341 
Q 956 3463 1253 3523 
Q 1550 3584 1831 3584 
Q 2591 3584 2966 3190 
Q 3341 2797 3341 1997 
z
" transform="scale(0.015625)"/>
       </defs>
       <use xlink:href="#DejaVuSans-54"/>
       <use xlink:href="#DejaVuSans-69" x="57.958984"/>
       <use xlink:href="#DejaVuSans-74" x="85.742188"/>
       <use xlink:href="#DejaVuSans-20" x="124.951172"/>
       <use xlink:href="#DejaVuSans-46" x="156.738281"/>
       <use xlink:href="#DejaVuSans-6f" x="210.632812"/>
       <use xlink:href="#DejaVuSans-72" x="271.814453"/>
       <use xlink:href="#DejaVuSans-20" x="312.927734"/>
       <use xlink:href="#DejaVuSans-54" x="344.714844"/>
       <use xlink:href="#DejaVuSans-61" x="389.298828"/>
       <use xlink:href="#DejaVuSans-74" x="450.578125"/>
      </g>
     </g>
    </g>
    <g id="xtick_3">
     <g id="line2d_3">
      <g>
       <use xlink:href="#mb88e7f0f9c" x="254.276364" y="337.97" style="stroke: #000000; stroke-width: 0.8"/>
      </g>
     </g>
     <g id="text_3">
      <!-- Random: 0.5 -->
      <g transform="translate(256.483864 396.0475)rotate(-90)scale(0.08 -0.08)">
       <defs>
        <path id="DejaVuSans-52" d="M 2841 2188 
Q 3044 2119 3236 1894 
Q 3428 1669 3622 1275 
L 4263 0 
L 3584 0 
L 2988 1197 
Q 2756 1666 2539 1819 
Q 2322 1972 1947 1972 
L 1259 1972 
L 1259 0 
L 628 0 
L 628 4666 
L 2053 4666 
Q 2853 4666 3247 4331 
Q 3641 3997 3641 3322 
Q 3641 2881 3436 2590 
Q 3231 2300 2841 2188 
z
M 1259 4147 
L 1259 2491 
L 2053 2491 
Q 2509 2491 2742 2702 
Q 2975 2913 2975 3322 
Q 2975 3731 2742 3939 
Q 2509 4147 2053 4147 
L 1259 4147 
z
" transform="scale(0.015625)"/>
        <path id="DejaVuSans-6e" d="M 3513 2113 
L 3513 0 
L 2938 0 
L 2938 2094 
Q 2938 2591 2744 2837 
Q 2550 3084 2163 3084 
Q 1697 3084 1428 2787 
Q 1159 2491 1159 1978 
L 1159 0 
L 581 0 
L 581 3500 
L 1159 3500 
L 1159 2956 
Q 1366 3272 1645 3428 
Q 1925 3584 2291 3584 
Q 2894 3584 3203 3211 
Q 3513 2838 3513 2113 
z
" transform="scale(0.015625)"/>
        <path id="DejaVuSans-6d" d="M 3328 2828 
Q 3544 3216 3844 3400 
Q 4144 3584 4550 3584 
Q 5097 3584 5394 3201 
Q 5691 2819 5691 2113 
L 5691 0 
L 5113 0 
L 5113 2094 
Q 5113 2597 4934 2840 
Q 4756 3084 4391 3084 
Q 3944 3084 3684 2787 
Q 3425 2491 3425 1978 
L 3425 0 
L 2847 0 
L 2847 2094 
Q 2847 2600 2669 2842 
Q 2491 3084 2119 3084 
Q 1678 3084 1418 2786 
Q 1159 2488 1159 1978 
L 1159 0 
L 581 0 
L 581 3500 
L 1159 3500 
L 1159 2956 
Q 1356 3278 1631 3431 
Q 1906 3584 2284 3584 
Q 2666 3584 2933 3390 
Q 3200 3197 3328 2828 
z
" transform="scale(0.015625)"/>
        <path id="DejaVuSans-3a" d="M 750 794 
L 1409 794 
L 1409 0 
L 750 0 
L 750 794 
z
M 750 3309 
L 1409 3309 
L 1409 2516 
L 750 2516 
L 750 3309 
z
" transform="scale(0.015625)"/>
        <path id="DejaVuSans-30" d="M 2034 4250 
Q 1547 4250 1301 3770 
Q 1056 3291 1056 2328 
Q 1056 1369 1301 889 
Q 1547 409 2034 409 
Q 2525 409 2770 889 
Q 3016 1369 3016 2328 
Q 3016 3291 2770 3770 
Q 2525 4250 2034 4250 
z
M 2034 4750 
Q 2819 4750 3233 4129 
Q 3647 3509 3647 2328 
Q 3647 1150 3233 529 
Q 2819 -91 2034 -91 
Q 1250 -91 836 529 
Q 422 1150 422 2328 
Q 422 3509 836 4129 
Q 1250 4750 2034 4750 
z
" transform="scale(0.015625)"/>
        <path id="DejaVuSans-2e" d="M 684 794 
L 1344 794 
L 1344 0 
L 684 0 
L 684 794 
z
" transform="scale(0.015625)"/>
        <path id="DejaVuSans-35" d="M 691 4666 
L 3169 4666 
L 3169 4134 
L 1269 4134 
L 1269 2991 
Q 1406 3038 1543 3061 
Q 1681 3084 1819 3084 
Q 2600 3084 3056 2656 
Q 3513 2228 3513 1497 
Q 3513 744 3044 326 
Q 2575 -91 1722 -91 
Q 1428 -91 1123 -41 
Q 819 9 494 109 
L 494 744 
Q 775 591 1075 516 
Q 1375 441 1709 441 
Q 2250 441 2565 725 
Q 2881 1009 2881 1497 
Q 2881 1984 2565 2268 
Q 2250 2553 1709 2553 
Q 1456 2553 1204 2497 
Q 953 2441 691 2322 
L 691 4666 
z
" transform="scale(0.015625)"/>
       </defs>
       <use xlink:href="#DejaVuSans-52"/>
       <use xlink:href="#DejaVuSans-61" x="67.232422"/>
       <use xlink:href="#DejaVuSans-6e" x="128.511719"/>
       <use xlink:href="#DejaVuSans-64" x="191.890625"/>
       <use xlink:href="#DejaVuSans-6f" x="255.367188"/>
       <use xlink:href="#DejaVuSans-6d" x="316.548828"/>
       <use xlink:href="#DejaVuSans-3a" x="413.960938"/>
       <use xlink:href="#DejaVuSans-20" x="447.652344"/>
       <use xlink:href="#DejaVuSans-30" x="479.439453"/>
       <use xlink:href="#DejaVuSans-2e" x="543.0625"/>
       <use xlink:href="#DejaVuSans-35" x="574.849609"/>
      </g>
     </g>
    </g>
    <g id="xtick_4">
     <g id="line2d_4">
      <g>
       <use xlink:href="#mb88e7f0f9c" x="329.141818" y="337.97" style="stroke: #000000; stroke-width: 0.8"/>
      </g>
     </g>
     <g id="text_4">
      <!-- Adaptive -->
      <g transform="translate(331.349318 380.37875)rotate(-90)scale(0.08 -0.08)">
       <defs>
        <path id="DejaVuSans-41" d="M 2188 4044 
L 1331 1722 
L 3047 1722 
L 2188 4044 
z
M 1831 4666 
L 2547 4666 
L 4325 0 
L 3669 0 
L 3244 1197 
L 1141 1197 
L 716 0 
L 50 0 
L 1831 4666 
z
" transform="scale(0.015625)"/>
        <path id="DejaVuSans-70" d="M 1159 525 
L 1159 -1331 
L 581 -1331 
L 581 3500 
L 1159 3500 
L 1159 2969 
Q 1341 3281 1617 3432 
Q 1894 3584 2278 3584 
Q 2916 3584 3314 3078 
Q 3713 2572 3713 1747 
Q 3713 922 3314 415 
Q 2916 -91 2278 -91 
Q 1894 -91 1617 61 
Q 1341 213 1159 525 
z
M 3116 1747 
Q 3116 2381 2855 2742 
Q 2594 3103 2138 3103 
Q 1681 3103 1420 2742 
Q 1159 2381 1159 1747 
Q 1159 1113 1420 752 
Q 1681 391 2138 391 
Q 2594 391 2855 752 
Q 3116 1113 3116 1747 
z
" transform="scale(0.015625)"/>
        <path id="DejaVuSans-76" d="M 191 3500 
L 800 3500 
L 1894 563 
L 2988 3500 
L 3597 3500 
L 2284 0 
L 1503 0 
L 191 3500 
z
" transform="scale(0.015625)"/>
       </defs>
       <use xlink:href="#DejaVuSans-41"/>
       <use xlink:href="#DejaVuSans-64" x="66.658203"/>
       <use xlink:href="#DejaVuSans-61" x="130.134766"/>
       <use xlink:href="#DejaVuSans-70" x="191.414062"/>
       <use xlink:href="#DejaVuSans-74" x="254.890625"/>
       <use xlink:href="#DejaVuSans-69" x="294.099609"/>
       <use xlink:href="#DejaVuSans-76" x="321.882812"/>
       <use xlink:href="#DejaVuSans-65" x="381.0625"/>
      </g>
     </g>
    </g>
    <g id="xtick_5">
     <g id="line2d_5">
      <g>
       <use xlink:href="#mb88e7f0f9c" x="404.007273" y="337.97" style="stroke: #000000; stroke-width: 0.8"/>
      </g>
     </g>
     <g id="text_5">
      <!-- Deep QLearner -->
      <g transform="translate(406.214773 405.46625)rotate(-90)scale(0.08 -0.08)">
       <defs>
        <path id="DejaVuSans-44" d="M 1259 4147 
L 1259 519 
L 2022 519 
Q 2988 519 3436 956 
Q 3884 1394 3884 2338 
Q 3884 3275 3436 3711 
Q 2988 4147 2022 4147 
L 1259 4147 
z
M 628 4666 
L 1925 4666 
Q 3281 4666 3915 4102 
Q 4550 3538 4550 2338 
Q 4550 1131 3912 565 
Q 3275 0 1925 0 
L 628 0 
L 628 4666 
z
" transform="scale(0.015625)"/>
        <path id="DejaVuSans-51" d="M 2522 4238 
Q 1834 4238 1429 3725 
Q 1025 3213 1025 2328 
Q 1025 1447 1429 934 
Q 1834 422 2522 422 
Q 3209 422 3611 934 
Q 4013 1447 4013 2328 
Q 4013 3213 3611 3725 
Q 3209 4238 2522 4238 
z
M 3406 84 
L 4238 -825 
L 3475 -825 
L 2784 -78 
Q 2681 -84 2626 -87 
Q 2572 -91 2522 -91 
Q 1538 -91 948 567 
Q 359 1225 359 2328 
Q 359 3434 948 4092 
Q 1538 4750 2522 4750 
Q 3503 4750 4090 4092 
Q 4678 3434 4678 2328 
Q 4678 1516 4351 937 
Q 4025 359 3406 84 
z
" transform="scale(0.015625)"/>
        <path id="DejaVuSans-4c" d="M 628 4666 
L 1259 4666 
L 1259 531 
L 3531 531 
L 3531 0 
L 628 0 
L 628 4666 
z
" transform="scale(0.015625)"/>
       </defs>
       <use xlink:href="#DejaVuSans-44"/>
       <use xlink:href="#DejaVuSans-65" x="77.001953"/>
       <use xlink:href="#DejaVuSans-65" x="138.525391"/>
       <use xlink:href="#DejaVuSans-70" x="200.048828"/>
       <use xlink:href="#DejaVuSans-20" x="263.525391"/>
       <use xlink:href="#DejaVuSans-51" x="295.3125"/>
       <use xlink:href="#DejaVuSans-4c" x="374.023438"/>
       <use xlink:href="#DejaVuSans-65" x="427.986328"/>
       <use xlink:href="#DejaVuSans-61" x="489.509766"/>
       <use xlink:href="#DejaVuSans-72" x="550.789062"/>
       <use xlink:href="#DejaVuSans-6e" x="590.152344"/>
       <use xlink:href="#DejaVuSans-65" x="653.53125"/>
       <use xlink:href="#DejaVuSans-72" x="715.054688"/>
      </g>
     </g>
    </g>
    <g id="xtick_6">
     <g id="line2d_6">
      <g>
       <use xlink:href="#mb88e7f0f9c" x="478.872727" y="337.97" style="stroke: #000000; stroke-width: 0.8"/>
      </g>
     </g>
     <g id="text_6">
      <!-- Defector -->
      <g transform="translate(481.080227 379.51)rotate(-90)scale(0.08 -0.08)">
       <defs>
        <path id="DejaVuSans-66" d="M 2375 4863 
L 2375 4384 
L 1825 4384 
Q 1516 4384 1395 4259 
Q 1275 4134 1275 3809 
L 1275 3500 
L 2222 3500 
L 2222 3053 
L 1275 3053 
L 1275 0 
L 697 0 
L 697 3053 
L 147 3053 
L 147 3500 
L 697 3500 
L 697 3744 
Q 697 4328 969 4595 
Q 1241 4863 1831 4863 
L 2375 4863 
z
" transform="scale(0.015625)"/>
        <path id="DejaVuSans-63" d="M 3122 3366 
L 3122 2828 
Q 2878 2963 2633 3030 
Q 2388 3097 2138 3097 
Q 1578 3097 1268 2742 
Q 959 2388 959 1747 
Q 959 1106 1268 751 
Q 1578 397 2138 397 
Q 2388 397 2633 464 
Q 2878 531 3122 666 
L 3122 134 
Q 2881 22 2623 -34 
Q 2366 -91 2075 -91 
Q 1284 -91 818 406 
Q 353 903 353 1747 
Q 353 2603 823 3093 
Q 1294 3584 2113 3584 
Q 2378 3584 2631 3529 
Q 2884 3475 3122 3366 
z
" transform="scale(0.015625)"/>
       </defs>
       <use xlink:href="#DejaVuSans-44"/>
       <use xlink:href="#DejaVuSans-65" x="77.001953"/>
       <use xlink:href="#DejaVuSans-66" x="138.525391"/>
       <use xlink:href="#DejaVuSans-65" x="173.730469"/>
       <use xlink:href="#DejaVuSans-63" x="235.253906"/>
       <use xlink:href="#DejaVuSans-74" x="290.234375"/>
       <use xlink:href="#DejaVuSans-6f" x="329.443359"/>
       <use xlink:href="#DejaVuSans-72" x="390.625"/>
      </g>
     </g>
    </g>
    <g id="xtick_7">
     <g id="line2d_7">
      <g>
       <use xlink:href="#mb88e7f0f9c" x="553.738182" y="337.97" style="stroke: #000000; stroke-width: 0.8"/>
      </g>
     </g>
     <g id="text_7">
      <!-- Alternator -->
      <g transform="translate(555.945682 385.165)rotate(-90)scale(0.08 -0.08)">
       <defs>
        <path id="DejaVuSans-6c" d="M 603 4863 
L 1178 4863 
L 1178 0 
L 603 0 
L 603 4863 
z
" transform="scale(0.015625)"/>
       </defs>
       <use xlink:href="#DejaVuSans-41"/>
       <use xlink:href="#DejaVuSans-6c" x="68.408203"/>
       <use xlink:href="#DejaVuSans-74" x="96.191406"/>
       <use xlink:href="#DejaVuSans-65" x="135.400391"/>
       <use xlink:href="#DejaVuSans-72" x="196.923828"/>
       <use xlink:href="#DejaVuSans-6e" x="236.287109"/>
       <use xlink:href="#DejaVuSans-61" x="299.666016"/>
       <use xlink:href="#DejaVuSans-74" x="360.945312"/>
       <use xlink:href="#DejaVuSans-6f" x="400.154297"/>
       <use xlink:href="#DejaVuSans-72" x="461.335938"/>
      </g>
     </g>
    </g>
    <g id="xtick_8">
     <g id="line2d_8">
      <g>
       <use xlink:href="#mb88e7f0f9c" x="628.603636" y="337.97" style="stroke: #000000; stroke-width: 0.8"/>
      </g>
     </g>
     <g id="text_8">
      <!-- Mediocre QLearner -->
      <g transform="translate(630.811136 420.83375)rotate(-90)scale(0.08 -0.08)">
       <defs>
        <path id="DejaVuSans-4d" d="M 628 4666 
L 1569 4666 
L 2759 1491 
L 3956 4666 
L 4897 4666 
L 4897 0 
L 4281 0 
L 4281 4097 
L 3078 897 
L 2444 897 
L 1241 4097 
L 1241 0 
L 628 0 
L 628 4666 
z
" transform="scale(0.015625)"/>
       </defs>
       <use xlink:href="#DejaVuSans-4d"/>
       <use xlink:href="#DejaVuSans-65" x="86.279297"/>
       <use xlink:href="#DejaVuSans-64" x="147.802734"/>
       <use xlink:href="#DejaVuSans-69" x="211.279297"/>
       <use xlink:href="#DejaVuSans-6f" x="239.0625"/>
       <use xlink:href="#DejaVuSans-63" x="300.244141"/>
       <use xlink:href="#DejaVuSans-72" x="355.224609"/>
       <use xlink:href="#DejaVuSans-65" x="394.087891"/>
       <use xlink:href="#DejaVuSans-20" x="455.611328"/>
       <use xlink:href="#DejaVuSans-51" x="487.398438"/>
       <use xlink:href="#DejaVuSans-4c" x="566.109375"/>
       <use xlink:href="#DejaVuSans-65" x="620.072266"/>
       <use xlink:href="#DejaVuSans-61" x="681.595703"/>
       <use xlink:href="#DejaVuSans-72" x="742.875"/>
       <use xlink:href="#DejaVuSans-6e" x="782.238281"/>
       <use xlink:href="#DejaVuSans-65" x="845.617188"/>
       <use xlink:href="#DejaVuSans-72" x="907.140625"/>
      </g>
     </g>
    </g>
    <g id="xtick_9">
     <g id="line2d_9">
      <g>
       <use xlink:href="#mb88e7f0f9c" x="703.469091" y="337.97" style="stroke: #000000; stroke-width: 0.8"/>
      </g>
     </g>
     <g id="text_9">
      <!-- Risky QLearner -->
      <g transform="translate(705.676591 405.40875)rotate(-90)scale(0.08 -0.08)">
       <defs>
        <path id="DejaVuSans-73" d="M 2834 3397 
L 2834 2853 
Q 2591 2978 2328 3040 
Q 2066 3103 1784 3103 
Q 1356 3103 1142 2972 
Q 928 2841 928 2578 
Q 928 2378 1081 2264 
Q 1234 2150 1697 2047 
L 1894 2003 
Q 2506 1872 2764 1633 
Q 3022 1394 3022 966 
Q 3022 478 2636 193 
Q 2250 -91 1575 -91 
Q 1294 -91 989 -36 
Q 684 19 347 128 
L 347 722 
Q 666 556 975 473 
Q 1284 391 1588 391 
Q 1994 391 2212 530 
Q 2431 669 2431 922 
Q 2431 1156 2273 1281 
Q 2116 1406 1581 1522 
L 1381 1569 
Q 847 1681 609 1914 
Q 372 2147 372 2553 
Q 372 3047 722 3315 
Q 1072 3584 1716 3584 
Q 2034 3584 2315 3537 
Q 2597 3491 2834 3397 
z
" transform="scale(0.015625)"/>
        <path id="DejaVuSans-6b" d="M 581 4863 
L 1159 4863 
L 1159 1991 
L 2875 3500 
L 3609 3500 
L 1753 1863 
L 3688 0 
L 2938 0 
L 1159 1709 
L 1159 0 
L 581 0 
L 581 4863 
z
" transform="scale(0.015625)"/>
        <path id="DejaVuSans-79" d="M 2059 -325 
Q 1816 -950 1584 -1140 
Q 1353 -1331 966 -1331 
L 506 -1331 
L 506 -850 
L 844 -850 
Q 1081 -850 1212 -737 
Q 1344 -625 1503 -206 
L 1606 56 
L 191 3500 
L 800 3500 
L 1894 763 
L 2988 3500 
L 3597 3500 
L 2059 -325 
z
" transform="scale(0.015625)"/>
       </defs>
       <use xlink:href="#DejaVuSans-52"/>
       <use xlink:href="#DejaVuSans-69" x="69.482422"/>
       <use xlink:href="#DejaVuSans-73" x="97.265625"/>
       <use xlink:href="#DejaVuSans-6b" x="149.365234"/>
       <use xlink:href="#DejaVuSans-79" x="203.650391"/>
       <use xlink:href="#DejaVuSans-20" x="262.830078"/>
       <use xlink:href="#DejaVuSans-51" x="294.617188"/>
       <use xlink:href="#DejaVuSans-4c" x="373.328125"/>
       <use xlink:href="#DejaVuSans-65" x="427.291016"/>
       <use xlink:href="#DejaVuSans-61" x="488.814453"/>
       <use xlink:href="#DejaVuSans-72" x="550.09375"/>
       <use xlink:href="#DejaVuSans-6e" x="589.457031"/>
       <use xlink:href="#DejaVuSans-65" x="652.835938"/>
       <use xlink:href="#DejaVuSans-72" x="714.359375"/>
      </g>
     </g>
    </g>
    <g id="xtick_10">
     <g id="line2d_10">
      <g>
       <use xlink:href="#mb88e7f0f9c" x="778.334545" y="337.97" style="stroke: #000000; stroke-width: 0.8"/>
      </g>
     </g>
     <g id="text_10">
      <!-- Cooperator -->
      <g transform="translate(780.542045 389.85875)rotate(-90)scale(0.08 -0.08)">
       <defs>
        <path id="DejaVuSans-43" d="M 4122 4306 
L 4122 3641 
Q 3803 3938 3442 4084 
Q 3081 4231 2675 4231 
Q 1875 4231 1450 3742 
Q 1025 3253 1025 2328 
Q 1025 1406 1450 917 
Q 1875 428 2675 428 
Q 3081 428 3442 575 
Q 3803 722 4122 1019 
L 4122 359 
Q 3791 134 3420 21 
Q 3050 -91 2638 -91 
Q 1578 -91 968 557 
Q 359 1206 359 2328 
Q 359 3453 968 4101 
Q 1578 4750 2638 4750 
Q 3056 4750 3426 4639 
Q 3797 4528 4122 4306 
z
" transform="scale(0.015625)"/>
       </defs>
       <use xlink:href="#DejaVuSans-43"/>
       <use xlink:href="#DejaVuSans-6f" x="69.824219"/>
       <use xlink:href="#DejaVuSans-6f" x="131.005859"/>
       <use xlink:href="#DejaVuSans-70" x="192.1875"/>
       <use xlink:href="#DejaVuSans-65" x="255.664062"/>
       <use xlink:href="#DejaVuSans-72" x="317.1875"/>
       <use xlink:href="#DejaVuSans-61" x="358.300781"/>
       <use xlink:href="#DejaVuSans-74" x="419.580078"/>
       <use xlink:href="#DejaVuSans-6f" x="458.789062"/>
       <use xlink:href="#DejaVuSans-72" x="519.970703"/>
      </g>
     </g>
    </g>
   </g>
   <g id="matplotlib.axis_2">
    <g id="ytick_1">
     <g id="line2d_11">
      <defs>
       <path id="m243929d22e" d="M 0 0 
L -3.5 0 
" style="stroke: #000000; stroke-width: 0.8"/>
      </defs>
      <g>
       <use xlink:href="#m243929d22e" x="29.68" y="295.548636" style="stroke: #000000; stroke-width: 0.8"/>
      </g>
     </g>
     <g id="text_11">
      <!-- 4 -->
      <g transform="translate(10.88625 298.588011)scale(0.08 -0.08)">
       <defs>
        <path id="DejaVuSans-2212" d="M 678 2272 
L 4684 2272 
L 4684 1741 
L 678 1741 
L 678 2272 
z
" transform="scale(0.015625)"/>
        <path id="DejaVuSans-34" d="M 2419 4116 
L 825 1625 
L 2419 1625 
L 2419 4116 
z
M 2253 4666 
L 3047 4666 
L 3047 1625 
L 3713 1625 
L 3713 1100 
L 3047 1100 
L 3047 0 
L 2419 0 
L 2419 1100 
L 313 1100 
L 313 1709 
L 2253 4666 
z
" transform="scale(0.015625)"/>
       </defs>
       <use xlink:href="#DejaVuSans-2212"/>
       <use xlink:href="#DejaVuSans-34" x="83.789062"/>
      </g>
     </g>
    </g>
    <g id="ytick_2">
     <g id="line2d_12">
      <g>
       <use xlink:href="#m243929d22e" x="29.68" y="238.986818" style="stroke: #000000; stroke-width: 0.8"/>
      </g>
     </g>
     <g id="text_12">
      <!-- 2 -->
      <g transform="translate(10.88625 242.026193)scale(0.08 -0.08)">
       <defs>
        <path id="DejaVuSans-32" d="M 1228 531 
L 3431 531 
L 3431 0 
L 469 0 
L 469 531 
Q 828 903 1448 1529 
Q 2069 2156 2228 2338 
Q 2531 2678 2651 2914 
Q 2772 3150 2772 3378 
Q 2772 3750 2511 3984 
Q 2250 4219 1831 4219 
Q 1534 4219 1204 4116 
Q 875 4013 500 3803 
L 500 4441 
Q 881 4594 1212 4672 
Q 1544 4750 1819 4750 
Q 2544 4750 2975 4387 
Q 3406 4025 3406 3419 
Q 3406 3131 3298 2873 
Q 3191 2616 2906 2266 
Q 2828 2175 2409 1742 
Q 1991 1309 1228 531 
z
" transform="scale(0.015625)"/>
       </defs>
       <use xlink:href="#DejaVuSans-2212"/>
       <use xlink:href="#DejaVuSans-32" x="83.789062"/>
      </g>
     </g>
    </g>
    <g id="ytick_3">
     <g id="line2d_13">
      <g>
       <use xlink:href="#m243929d22e" x="29.68" y="182.425" style="stroke: #000000; stroke-width: 0.8"/>
      </g>
     </g>
     <g id="text_13">
      <!-- 0 -->
      <g transform="translate(17.59 185.464375)scale(0.08 -0.08)">
       <use xlink:href="#DejaVuSans-30"/>
      </g>
     </g>
    </g>
    <g id="ytick_4">
     <g id="line2d_14">
      <g>
       <use xlink:href="#m243929d22e" x="29.68" y="125.863182" style="stroke: #000000; stroke-width: 0.8"/>
      </g>
     </g>
     <g id="text_14">
      <!-- 2 -->
      <g transform="translate(17.59 128.902557)scale(0.08 -0.08)">
       <use xlink:href="#DejaVuSans-32"/>
      </g>
     </g>
    </g>
    <g id="ytick_5">
     <g id="line2d_15">
      <g>
       <use xlink:href="#m243929d22e" x="29.68" y="69.301364" style="stroke: #000000; stroke-width: 0.8"/>
      </g>
     </g>
     <g id="text_15">
      <!-- 4 -->
      <g transform="translate(17.59 72.340739)scale(0.08 -0.08)">
       <use xlink:href="#DejaVuSans-34"/>
      </g>
     </g>
    </g>
   </g>
   <g id="LineCollection_1">
    <path d="M 95.187273 166.163477 
L 113.903636 166.163477 
" clip-path="url(#p6e73c20967)" style="fill: none; stroke: #1f77b4; stroke-width: 1.5"/>
    <path d="M 170.052727 182.425 
L 188.769091 182.425 
" clip-path="url(#p6e73c20967)" style="fill: none; stroke: #1f77b4; stroke-width: 1.5"/>
    <path d="M 244.918182 182.425 
L 263.634545 182.425 
" clip-path="url(#p6e73c20967)" style="fill: none; stroke: #1f77b4; stroke-width: 1.5"/>
    <path d="M 319.783636 165.456455 
L 338.5 165.456455 
" clip-path="url(#p6e73c20967)" style="fill: none; stroke: #1f77b4; stroke-width: 1.5"/>
    <path d="M 394.649091 182.425 
L 413.365455 182.425 
" clip-path="url(#p6e73c20967)" style="fill: none; stroke: #1f77b4; stroke-width: 1.5"/>
    <path d="M 469.514545 166.163477 
L 488.230909 166.163477 
" clip-path="url(#p6e73c20967)" style="fill: none; stroke: #1f77b4; stroke-width: 1.5"/>
    <path d="M 544.38 182.425 
L 563.096364 182.425 
" clip-path="url(#p6e73c20967)" style="fill: none; stroke: #1f77b4; stroke-width: 1.5"/>
    <path d="M 619.245455 198.686523 
L 637.961818 198.686523 
" clip-path="url(#p6e73c20967)" style="fill: none; stroke: #1f77b4; stroke-width: 1.5"/>
    <path d="M 694.110909 199.393545 
L 712.827273 199.393545 
" clip-path="url(#p6e73c20967)" style="fill: none; stroke: #1f77b4; stroke-width: 1.5"/>
    <path d="M 768.976364 191.262784 
L 787.692727 191.262784 
" clip-path="url(#p6e73c20967)" style="fill: none; stroke: #1f77b4; stroke-width: 1.5"/>
   </g>
   <g id="patch_3">
    <path d="M 29.68 337.97 
L 29.68 26.88 
" style="fill: none; stroke: #000000; stroke-width: 0.8; stroke-linejoin: miter; stroke-linecap: square"/>
   </g>
   <g id="patch_4">
    <path d="M 853.2 337.97 
L 853.2 26.88 
" style="fill: none; stroke: #000000; stroke-width: 0.8; stroke-linejoin: miter; stroke-linecap: square"/>
   </g>
   <g id="patch_5">
    <path d="M 29.68 337.97 
L 853.2 337.97 
" style="fill: none; stroke: #000000; stroke-width: 0.8; stroke-linejoin: miter; stroke-linecap: square"/>
   </g>
   <g id="patch_6">
    <path d="M 29.68 26.88 
L 853.2 26.88 
" style="fill: none; stroke: #000000; stroke-width: 0.8; stroke-linejoin: miter; stroke-linecap: square"/>
   </g>
   <g id="text_16">
    <!-- Payoff differences - turns: 200, repetitions: 100, strategies: 10.  -->
    <g transform="translate(250.417813 20.88)scale(0.12 -0.12)">
     <defs>
      <path id="DejaVuSans-50" d="M 1259 4147 
L 1259 2394 
L 2053 2394 
Q 2494 2394 2734 2622 
Q 2975 2850 2975 3272 
Q 2975 3691 2734 3919 
Q 2494 4147 2053 4147 
L 1259 4147 
z
M 628 4666 
L 2053 4666 
Q 2838 4666 3239 4311 
Q 3641 3956 3641 3272 
Q 3641 2581 3239 2228 
Q 2838 1875 2053 1875 
L 1259 1875 
L 1259 0 
L 628 0 
L 628 4666 
z
" transform="scale(0.015625)"/>
      <path id="DejaVuSans-2d" d="M 313 2009 
L 1997 2009 
L 1997 1497 
L 313 1497 
L 313 2009 
z
" transform="scale(0.015625)"/>
      <path id="DejaVuSans-2c" d="M 750 794 
L 1409 794 
L 1409 256 
L 897 -744 
L 494 -744 
L 750 256 
L 750 794 
z
" transform="scale(0.015625)"/>
      <path id="DejaVuSans-31" d="M 794 531 
L 1825 531 
L 1825 4091 
L 703 3866 
L 703 4441 
L 1819 4666 
L 2450 4666 
L 2450 531 
L 3481 531 
L 3481 0 
L 794 0 
L 794 531 
z
" transform="scale(0.015625)"/>
     </defs>
     <use xlink:href="#DejaVuSans-50"/>
     <use xlink:href="#DejaVuSans-61" x="55.802734"/>
     <use xlink:href="#DejaVuSans-79" x="117.082031"/>
     <use xlink:href="#DejaVuSans-6f" x="176.261719"/>
     <use xlink:href="#DejaVuSans-66" x="237.443359"/>
     <use xlink:href="#DejaVuSans-66" x="272.648438"/>
     <use xlink:href="#DejaVuSans-20" x="307.853516"/>
     <use xlink:href="#DejaVuSans-64" x="339.640625"/>
     <use xlink:href="#DejaVuSans-69" x="403.117188"/>
     <use xlink:href="#DejaVuSans-66" x="430.900391"/>
     <use xlink:href="#DejaVuSans-66" x="466.105469"/>
     <use xlink:href="#DejaVuSans-65" x="501.310547"/>
     <use xlink:href="#DejaVuSans-72" x="562.833984"/>
     <use xlink:href="#DejaVuSans-65" x="601.697266"/>
     <use xlink:href="#DejaVuSans-6e" x="663.220703"/>
     <use xlink:href="#DejaVuSans-63" x="726.599609"/>
     <use xlink:href="#DejaVuSans-65" x="781.580078"/>
     <use xlink:href="#DejaVuSans-73" x="843.103516"/>
     <use xlink:href="#DejaVuSans-20" x="895.203125"/>
     <use xlink:href="#DejaVuSans-2d" x="926.990234"/>
     <use xlink:href="#DejaVuSans-20" x="963.074219"/>
     <use xlink:href="#DejaVuSans-74" x="994.861328"/>
     <use xlink:href="#DejaVuSans-75" x="1034.070312"/>
     <use xlink:href="#DejaVuSans-72" x="1097.449219"/>
     <use xlink:href="#DejaVuSans-6e" x="1136.8125"/>
     <use xlink:href="#DejaVuSans-73" x="1200.191406"/>
     <use xlink:href="#DejaVuSans-3a" x="1252.291016"/>
     <use xlink:href="#DejaVuSans-20" x="1285.982422"/>
     <use xlink:href="#DejaVuSans-32" x="1317.769531"/>
     <use xlink:href="#DejaVuSans-30" x="1381.392578"/>
     <use xlink:href="#DejaVuSans-30" x="1445.015625"/>
     <use xlink:href="#DejaVuSans-2c" x="1508.638672"/>
     <use xlink:href="#DejaVuSans-20" x="1540.425781"/>
     <use xlink:href="#DejaVuSans-72" x="1572.212891"/>
     <use xlink:href="#DejaVuSans-65" x="1611.076172"/>
     <use xlink:href="#DejaVuSans-70" x="1672.599609"/>
     <use xlink:href="#DejaVuSans-65" x="1736.076172"/>
     <use xlink:href="#DejaVuSans-74" x="1797.599609"/>
     <use xlink:href="#DejaVuSans-69" x="1836.808594"/>
     <use xlink:href="#DejaVuSans-74" x="1864.591797"/>
     <use xlink:href="#DejaVuSans-69" x="1903.800781"/>
     <use xlink:href="#DejaVuSans-6f" x="1931.583984"/>
     <use xlink:href="#DejaVuSans-6e" x="1992.765625"/>
     <use xlink:href="#DejaVuSans-73" x="2056.144531"/>
     <use xlink:href="#DejaVuSans-3a" x="2108.244141"/>
     <use xlink:href="#DejaVuSans-20" x="2141.935547"/>
     <use xlink:href="#DejaVuSans-31" x="2173.722656"/>
     <use xlink:href="#DejaVuSans-30" x="2237.345703"/>
     <use xlink:href="#DejaVuSans-30" x="2300.96875"/>
     <use xlink:href="#DejaVuSans-2c" x="2364.591797"/>
     <use xlink:href="#DejaVuSans-20" x="2396.378906"/>
     <use xlink:href="#DejaVuSans-73" x="2428.166016"/>
     <use xlink:href="#DejaVuSans-74" x="2480.265625"/>
     <use xlink:href="#DejaVuSans-72" x="2519.474609"/>
     <use xlink:href="#DejaVuSans-61" x="2560.587891"/>
     <use xlink:href="#DejaVuSans-74" x="2621.867188"/>
     <use xlink:href="#DejaVuSans-65" x="2661.076172"/>
     <use xlink:href="#DejaVuSans-67" x="2722.599609"/>
     <use xlink:href="#DejaVuSans-69" x="2786.076172"/>
     <use xlink:href="#DejaVuSans-65" x="2813.859375"/>
     <use xlink:href="#DejaVuSans-73" x="2875.382812"/>
     <use xlink:href="#DejaVuSans-3a" x="2927.482422"/>
     <use xlink:href="#DejaVuSans-20" x="2961.173828"/>
     <use xlink:href="#DejaVuSans-31" x="2992.960938"/>
     <use xlink:href="#DejaVuSans-30" x="3056.583984"/>
     <use xlink:href="#DejaVuSans-2e" x="3120.207031"/>
     <use xlink:href="#DejaVuSans-20" x="3151.994141"/>
    </g>
   </g>
  </g>
 </g>
 <defs>
  <clipPath id="p6e73c20967">
   <rect x="29.68" y="26.88" width="823.52" height="311.09"/>
  </clipPath>
 </defs>
</svg>
