<?xml version="1.0" encoding="utf-8" standalone="no"?>
<!DOCTYPE svg PUBLIC "-//W3C//DTD SVG 1.1//EN"
  "http://www.w3.org/Graphics/SVG/1.1/DTD/svg11.dtd">
<svg xmlns:xlink="http://www.w3.org/1999/xlink" width="864pt" height="432pt" viewBox="0 0 864 432" xmlns="http://www.w3.org/2000/svg" version="1.1">
 <metadata>
  <rdf:RDF xmlns:dc="http://purl.org/dc/elements/1.1/" xmlns:cc="http://creativecommons.org/ns#" xmlns:rdf="http://www.w3.org/1999/02/22-rdf-syntax-ns#">
   <cc:Work>
    <dc:type rdf:resource="http://purl.org/dc/dcmitype/StillImage"/>
    <dc:date>2022-09-13T19:49:26.685419</dc:date>
    <dc:format>image/svg+xml</dc:format>
    <dc:creator>
     <cc:Agent>
      <dc:title>Matplotlib v3.5.1, https://matplotlib.org/</dc:title>
     </cc:Agent>
    </dc:creator>
   </cc:Work>
  </rdf:RDF>
 </metadata>
 <defs>
  <style type="text/css">*{stroke-linejoin: round; stroke-linecap: butt}</style>
 </defs>
 <g id="figure_1">
  <g id="patch_1">
   <path d="M 0 432 
L 864 432 
L 864 0 
L 0 0 
z
" style="fill: #ffffff"/>
  </g>
  <g id="axes_1">
   <g id="patch_2">
    <path d="M 30.67 337.97 
L 853.2 337.97 
L 853.2 26.88 
L 30.67 26.88 
z
" style="fill: #ffffff"/>
   </g>
   <g id="PolyCollection_1">
    <path d="M 109.757113 172.373038 
L 101.133796 172.373038 
L 100.587761 171.371366 
L 100.004968 170.369695 
L 99.387115 169.368024 
L 98.736475 168.366352 
L 98.055916 167.364681 
L 97.348929 166.363009 
L 96.61964 165.361338 
L 95.87282 164.359666 
L 95.113864 163.357995 
L 94.348756 162.356324 
L 93.584008 161.354652 
L 92.826572 160.352981 
L 92.083722 159.351309 
L 91.362916 158.349638 
L 90.671647 157.347966 
L 90.017276 156.346295 
L 89.406873 155.344624 
L 88.847067 154.342952 
L 88.343903 153.341281 
L 87.902734 152.339609 
L 87.528125 151.337938 
L 87.223791 150.336266 
L 86.992548 149.334595 
L 86.83629 148.332924 
L 86.75597 147.331252 
L 86.751591 146.329581 
L 86.822209 145.327909 
L 86.965932 144.326238 
L 87.179925 143.324566 
L 87.460433 142.322895 
L 87.802809 141.321224 
L 88.201575 140.319552 
L 88.650501 139.317881 
L 89.142723 138.316209 
L 89.670887 137.314538 
L 90.227332 136.312866 
L 90.804286 135.311195 
L 91.394084 134.309524 
L 91.989381 133.307852 
L 92.583351 132.306181 
L 93.169869 131.304509 
L 93.743639 130.302838 
L 94.300289 129.301166 
L 94.836395 128.299495 
L 95.34947 127.297824 
L 95.837887 126.296152 
L 96.30077 125.294481 
L 96.737852 124.292809 
L 97.149318 123.291138 
L 97.535641 122.289466 
L 97.897444 121.287795 
L 98.235373 120.286124 
L 98.550012 119.284452 
L 98.841833 118.282781 
L 99.111188 117.281109 
L 99.358335 116.279438 
L 99.583493 115.277766 
L 99.786921 114.276095 
L 99.968994 113.274424 
L 100.130287 112.272752 
L 100.271635 111.271081 
L 100.394172 110.269409 
L 100.499347 109.267738 
L 100.588895 108.266066 
L 100.664794 107.264395 
L 100.729193 106.262724 
L 100.78432 105.261052 
L 100.832396 104.259381 
L 100.875544 103.257709 
L 100.915723 102.256038 
L 100.954677 101.254367 
L 100.993909 100.252695 
L 101.034687 99.251024 
L 101.078071 98.249352 
L 101.124946 97.247681 
L 101.176082 96.246009 
L 101.232173 95.244338 
L 101.293878 94.242667 
L 101.361846 93.240995 
L 101.43671 92.239324 
L 101.519077 91.237652 
L 101.609485 90.235981 
L 101.708361 89.234309 
L 101.815966 88.232638 
L 101.932347 87.230967 
L 102.057305 86.229295 
L 102.190369 85.227624 
L 102.330805 84.225952 
L 102.477637 83.224281 
L 102.629684 82.222609 
L 102.785621 81.220938 
L 102.944043 80.219267 
L 103.103525 79.217595 
L 103.262685 78.215924 
L 103.42023 77.214252 
L 103.574996 76.212581 
L 103.725964 75.210909 
L 103.872268 74.209238 
L 104.01319 73.207567 
L 106.877719 73.207567 
L 106.877719 73.207567 
L 107.018641 74.209238 
L 107.164945 75.210909 
L 107.315913 76.212581 
L 107.470679 77.214252 
L 107.628224 78.215924 
L 107.787384 79.217595 
L 107.946866 80.219267 
L 108.105288 81.220938 
L 108.261225 82.222609 
L 108.413272 83.224281 
L 108.560104 84.225952 
L 108.70054 85.227624 
L 108.833604 86.229295 
L 108.958562 87.230967 
L 109.074943 88.232638 
L 109.182548 89.234309 
L 109.281424 90.235981 
L 109.371832 91.237652 
L 109.454199 92.239324 
L 109.529063 93.240995 
L 109.597031 94.242667 
L 109.658736 95.244338 
L 109.714827 96.246009 
L 109.765963 97.247681 
L 109.812839 98.249352 
L 109.856222 99.251024 
L 109.897 100.252695 
L 109.936232 101.254367 
L 109.975186 102.256038 
L 110.015365 103.257709 
L 110.058513 104.259381 
L 110.106589 105.261052 
L 110.161716 106.262724 
L 110.226115 107.264395 
L 110.302014 108.266066 
L 110.391562 109.267738 
L 110.496737 110.269409 
L 110.619274 111.271081 
L 110.760622 112.272752 
L 110.921915 113.274424 
L 111.103988 114.276095 
L 111.307416 115.277766 
L 111.532574 116.279438 
L 111.779721 117.281109 
L 112.049076 118.282781 
L 112.340897 119.284452 
L 112.655536 120.286124 
L 112.993465 121.287795 
L 113.355268 122.289466 
L 113.741592 123.291138 
L 114.153057 124.292809 
L 114.590139 125.294481 
L 115.053023 126.296152 
L 115.541439 127.297824 
L 116.054514 128.299495 
L 116.59062 129.301166 
L 117.14727 130.302838 
L 117.72104 131.304509 
L 118.307558 132.306181 
L 118.901529 133.307852 
L 119.496825 134.309524 
L 120.086623 135.311195 
L 120.663577 136.312866 
L 121.220022 137.314538 
L 121.748187 138.316209 
L 122.240408 139.317881 
L 122.689334 140.319552 
L 123.0881 141.321224 
L 123.430476 142.322895 
L 123.710984 143.324566 
L 123.924977 144.326238 
L 124.0687 145.327909 
L 124.139318 146.329581 
L 124.134939 147.331252 
L 124.054619 148.332924 
L 123.898361 149.334595 
L 123.667119 150.336266 
L 123.362784 151.337938 
L 122.988175 152.339609 
L 122.547006 153.341281 
L 122.043842 154.342952 
L 121.484036 155.344624 
L 120.873633 156.346295 
L 120.219262 157.347966 
L 119.527993 158.349638 
L 118.807187 159.351309 
L 118.064337 160.352981 
L 117.306901 161.354652 
L 116.542154 162.356324 
L 115.777045 163.357995 
L 115.018089 164.359666 
L 114.271269 165.361338 
L 113.54198 166.363009 
L 112.834993 167.364681 
L 112.154434 168.366352 
L 111.503794 169.368024 
L 110.885941 170.369695 
L 110.303148 171.371366 
L 109.757113 172.373038 
z
" clip-path="url(#pccdfe3e33e)" style="fill: #1f77b4; fill-opacity: 0.3"/>
   </g>
   <g id="PolyCollection_2">
    <path d="M 195.193663 178.727128 
L 165.248155 178.727128 
L 164.666694 178.270484 
L 164.120415 177.813839 
L 163.614546 177.357195 
L 163.154048 176.900551 
L 162.743536 176.443906 
L 162.387202 175.987262 
L 162.088745 175.530618 
L 161.851306 175.073973 
L 161.677411 174.617329 
L 161.568932 174.160685 
L 161.527045 173.70404 
L 161.552218 173.247396 
L 161.644193 172.790752 
L 161.801998 172.334107 
L 162.023957 171.877463 
L 162.307724 171.420819 
L 162.650324 170.964174 
L 163.0482 170.50753 
L 163.497276 170.050886 
L 163.993029 169.594241 
L 164.530557 169.137597 
L 165.104664 168.680953 
L 165.709939 168.224308 
L 166.340837 167.767664 
L 166.991765 167.31102 
L 167.657154 166.854375 
L 168.33154 166.397731 
L 169.009625 165.941087 
L 169.686344 165.484442 
L 170.356917 165.027798 
L 171.016888 164.571154 
L 171.66217 164.114509 
L 172.289061 163.657865 
L 172.894265 163.201221 
L 173.474899 162.744576 
L 174.02849 162.287932 
L 174.552964 161.831288 
L 175.046632 161.374643 
L 175.508164 160.917999 
L 175.93656 160.461355 
L 176.331116 160.00471 
L 176.691391 159.548066 
L 177.017164 159.091422 
L 177.308398 158.634778 
L 177.5652 158.178133 
L 177.787781 157.721489 
L 177.976426 157.264845 
L 178.131453 156.8082 
L 178.253191 156.351556 
L 178.341951 155.894912 
L 178.398009 155.438267 
L 178.42159 154.981623 
L 178.412861 154.524979 
L 178.371923 154.068334 
L 178.298821 153.61169 
L 178.193545 153.155046 
L 178.056049 152.698401 
L 177.886267 152.241757 
L 177.684136 151.785113 
L 177.449626 151.328468 
L 177.182769 150.871824 
L 176.883692 150.41518 
L 176.552656 149.958535 
L 176.190087 149.501891 
L 175.796617 149.045247 
L 175.373115 148.588602 
L 174.920721 148.131958 
L 174.440879 147.675314 
L 173.935356 147.218669 
L 173.406265 146.762025 
L 172.856078 146.305381 
L 172.287633 145.848736 
L 171.704132 145.392092 
L 171.109131 144.935448 
L 170.506521 144.478803 
L 169.900505 144.022159 
L 169.295557 143.565515 
L 168.696381 143.10887 
L 168.10786 142.652226 
L 167.534994 142.195582 
L 166.982842 141.738937 
L 166.456444 141.282293 
L 165.960755 140.825649 
L 165.500569 140.369004 
L 165.080443 139.91236 
L 164.704626 139.455716 
L 164.376985 138.999071 
L 164.100946 138.542427 
L 163.879431 138.085783 
L 163.714808 137.629138 
L 163.608851 137.172494 
L 163.562707 136.71585 
L 163.576879 136.259205 
L 163.65121 135.802561 
L 163.784896 135.345917 
L 163.976493 134.889273 
L 164.223946 134.432628 
L 164.524627 133.975984 
L 164.875377 133.51934 
L 195.566441 133.51934 
L 195.566441 133.51934 
L 195.917192 133.975984 
L 196.217872 134.432628 
L 196.465325 134.889273 
L 196.656922 135.345917 
L 196.790608 135.802561 
L 196.86494 136.259205 
L 196.879111 136.71585 
L 196.832967 137.172494 
L 196.72701 137.629138 
L 196.562387 138.085783 
L 196.340872 138.542427 
L 196.064833 138.999071 
L 195.737192 139.455716 
L 195.361375 139.91236 
L 194.941249 140.369004 
L 194.481063 140.825649 
L 193.985375 141.282293 
L 193.458976 141.738937 
L 192.906824 142.195582 
L 192.333958 142.652226 
L 191.745437 143.10887 
L 191.146261 143.565515 
L 190.541313 144.022159 
L 189.935297 144.478803 
L 189.332687 144.935448 
L 188.737686 145.392092 
L 188.154185 145.848736 
L 187.585741 146.305381 
L 187.035554 146.762025 
L 186.506462 147.218669 
L 186.000939 147.675314 
L 185.521097 148.131958 
L 185.068704 148.588602 
L 184.645201 149.045247 
L 184.251731 149.501891 
L 183.889162 149.958535 
L 183.558126 150.41518 
L 183.25905 150.871824 
L 182.992192 151.328468 
L 182.757682 151.785113 
L 182.555551 152.241757 
L 182.385769 152.698401 
L 182.248273 153.155046 
L 182.142997 153.61169 
L 182.069895 154.068334 
L 182.028958 154.524979 
L 182.020228 154.981623 
L 182.043809 155.438267 
L 182.099868 155.894912 
L 182.188628 156.351556 
L 182.310365 156.8082 
L 182.465392 157.264845 
L 182.654037 157.721489 
L 182.876619 158.178133 
L 183.13342 158.634778 
L 183.424654 159.091422 
L 183.750427 159.548066 
L 184.110702 160.00471 
L 184.505258 160.461355 
L 184.933654 160.917999 
L 185.395186 161.374643 
L 185.888854 161.831288 
L 186.413329 162.287932 
L 186.966919 162.744576 
L 187.547553 163.201221 
L 188.152757 163.657865 
L 188.779648 164.114509 
L 189.42493 164.571154 
L 190.084902 165.027798 
L 190.755474 165.484442 
L 191.432193 165.941087 
L 192.110278 166.397731 
L 192.784664 166.854375 
L 193.450053 167.31102 
L 194.100981 167.767664 
L 194.731879 168.224308 
L 195.337154 168.680953 
L 195.911261 169.137597 
L 196.448789 169.594241 
L 196.944542 170.050886 
L 197.393618 170.50753 
L 197.791494 170.964174 
L 198.134094 171.420819 
L 198.417861 171.877463 
L 198.63982 172.334107 
L 198.797625 172.790752 
L 198.8896 173.247396 
L 198.914773 173.70404 
L 198.872886 174.160685 
L 198.764407 174.617329 
L 198.590513 175.073973 
L 198.353073 175.530618 
L 198.054616 175.987262 
L 197.698283 176.443906 
L 197.28777 176.900551 
L 196.827272 177.357195 
L 196.321403 177.813839 
L 195.775124 178.270484 
L 195.193663 178.727128 
z
" clip-path="url(#pccdfe3e33e)" style="fill: #1f77b4; fill-opacity: 0.3"/>
   </g>
   <g id="PolyCollection_3">
    <path d="M 271.224144 249.872104 
L 238.768584 249.872104 
L 238.020653 248.325405 
L 237.390298 246.778707 
L 236.89282 245.232008 
L 236.540512 243.68531 
L 236.34213 242.138611 
L 236.3025 240.591912 
L 236.422287 239.045214 
L 236.697927 237.498515 
L 237.121734 235.951817 
L 237.682173 234.405118 
L 238.36428 232.85842 
L 239.150194 231.311721 
L 240.019787 229.765023 
L 240.951346 228.218324 
L 241.922259 226.671626 
L 242.909698 225.124927 
L 243.891237 223.578229 
L 244.845407 222.03153 
L 245.752152 220.484832 
L 246.593187 218.938133 
L 247.352256 217.391435 
L 248.015302 215.844736 
L 248.570545 214.298038 
L 249.008513 212.751339 
L 249.322021 211.20464 
L 249.506132 209.657942 
L 249.558112 208.111243 
L 249.477401 206.564545 
L 249.265589 205.017846 
L 248.926428 203.471148 
L 248.46585 201.924449 
L 247.891996 200.377751 
L 247.21524 198.831052 
L 246.448179 197.284354 
L 245.605586 195.737655 
L 244.704294 194.190957 
L 243.763003 192.644258 
L 242.801988 191.09756 
L 241.842722 189.550861 
L 240.907393 188.004163 
L 240.018344 186.457464 
L 239.197449 184.910765 
L 238.465449 183.364067 
L 237.841279 181.817368 
L 237.341425 180.27067 
L 236.979342 178.723971 
L 236.76497 177.177273 
L 236.704373 175.630574 
L 236.79953 174.083876 
L 237.048284 172.537177 
L 237.444465 170.990479 
L 237.978163 169.44378 
L 238.636159 167.897082 
L 239.40247 166.350383 
L 240.25899 164.803685 
L 241.186186 163.256986 
L 242.163813 161.710288 
L 243.171616 160.163589 
L 244.189983 158.616891 
L 245.200515 157.070192 
L 246.186504 155.523493 
L 247.133298 153.976795 
L 248.028545 152.430096 
L 248.86232 150.883398 
L 249.627147 149.336699 
L 250.317922 147.790001 
L 250.93176 146.243302 
L 251.46778 144.696604 
L 251.926855 143.149905 
L 252.311338 141.603207 
L 252.62479 140.056508 
L 252.871713 138.50981 
L 253.057309 136.963111 
L 253.187266 135.416413 
L 253.267574 133.869714 
L 253.304378 132.323016 
L 253.303852 130.776317 
L 253.272111 129.229619 
L 253.215131 127.68292 
L 253.138697 126.136221 
L 253.048346 124.589523 
L 252.949334 123.042824 
L 252.846588 121.496126 
L 252.744667 119.949427 
L 252.647726 118.402729 
L 252.559471 116.85603 
L 252.483119 115.309332 
L 252.42137 113.762633 
L 252.376372 112.215935 
L 252.349703 110.669236 
L 252.342366 109.122538 
L 252.354795 107.575839 
L 252.386869 106.029141 
L 252.437954 104.482442 
L 252.506948 102.935744 
L 252.592339 101.389045 
L 252.692279 99.842346 
L 252.804659 98.295648 
L 252.927191 96.748949 
L 257.065536 96.748949 
L 257.065536 96.748949 
L 257.188068 98.295648 
L 257.300448 99.842346 
L 257.400388 101.389045 
L 257.485779 102.935744 
L 257.554773 104.482442 
L 257.605858 106.029141 
L 257.637933 107.575839 
L 257.650361 109.122538 
L 257.643025 110.669236 
L 257.616356 112.215935 
L 257.571357 113.762633 
L 257.509608 115.309332 
L 257.433257 116.85603 
L 257.345001 118.402729 
L 257.24806 119.949427 
L 257.14614 121.496126 
L 257.043393 123.042824 
L 256.944381 124.589523 
L 256.854031 126.136221 
L 256.777596 127.68292 
L 256.720616 129.229619 
L 256.688875 130.776317 
L 256.688349 132.323016 
L 256.725153 133.869714 
L 256.805461 135.416413 
L 256.935418 136.963111 
L 257.121015 138.50981 
L 257.367938 140.056508 
L 257.68139 141.603207 
L 258.065873 143.149905 
L 258.524947 144.696604 
L 259.060967 146.243302 
L 259.674805 147.790001 
L 260.365581 149.336699 
L 261.130408 150.883398 
L 261.964183 152.430096 
L 262.859429 153.976795 
L 263.806224 155.523493 
L 264.792213 157.070192 
L 265.802744 158.616891 
L 266.821111 160.163589 
L 267.828915 161.710288 
L 268.806541 163.256986 
L 269.733737 164.803685 
L 270.590257 166.350383 
L 271.356568 167.897082 
L 272.014564 169.44378 
L 272.548262 170.990479 
L 272.944443 172.537177 
L 273.193198 174.083876 
L 273.288354 175.630574 
L 273.227758 177.177273 
L 273.013385 178.723971 
L 272.651302 180.27067 
L 272.151448 181.817368 
L 271.527278 183.364067 
L 270.795278 184.910765 
L 269.974383 186.457464 
L 269.085334 188.004163 
L 268.150005 189.550861 
L 267.190739 191.09756 
L 266.229725 192.644258 
L 265.288433 194.190957 
L 264.387142 195.737655 
L 263.544548 197.284354 
L 262.777487 198.831052 
L 262.100731 200.377751 
L 261.526878 201.924449 
L 261.0663 203.471148 
L 260.727138 205.017846 
L 260.515326 206.564545 
L 260.434615 208.111243 
L 260.486596 209.657942 
L 260.670706 211.20464 
L 260.984214 212.751339 
L 261.422182 214.298038 
L 261.977425 215.844736 
L 262.640471 217.391435 
L 263.399541 218.938133 
L 264.240575 220.484832 
L 265.14732 222.03153 
L 266.10149 223.578229 
L 267.08303 225.124927 
L 268.070468 226.671626 
L 269.041381 228.218324 
L 269.97294 229.765023 
L 270.842534 231.311721 
L 271.628447 232.85842 
L 272.310554 234.405118 
L 272.870994 235.951817 
L 273.294801 237.498515 
L 273.57044 239.045214 
L 273.690227 240.591912 
L 273.650598 242.138611 
L 273.452215 243.68531 
L 273.099907 245.232008 
L 272.602429 246.778707 
L 271.972074 248.325405 
L 271.224144 249.872104 
z
" clip-path="url(#pccdfe3e33e)" style="fill: #1f77b4; fill-opacity: 0.3"/>
   </g>
   <g id="PolyCollection_4">
    <path d="M 330.527582 274.871802 
L 329.016054 274.871802 
L 328.950323 273.744922 
L 328.876422 272.618042 
L 328.791908 271.491161 
L 328.694319 270.364281 
L 328.581416 269.2374 
L 328.451432 268.11052 
L 328.303326 266.98364 
L 328.137012 265.856759 
L 327.953526 264.729879 
L 327.755125 263.602999 
L 327.54528 262.476118 
L 327.328561 261.349238 
L 327.110419 260.222358 
L 326.896856 259.095477 
L 326.694016 257.968597 
L 326.507726 256.841717 
L 326.343004 255.714836 
L 326.203607 254.587956 
L 326.091619 253.461076 
L 326.00715 252.334195 
L 325.948139 251.207315 
L 325.910313 250.080434 
L 325.887279 248.953554 
L 325.870752 247.826674 
L 325.850906 246.699793 
L 325.816812 245.572913 
L 325.756932 244.446033 
L 325.659645 243.319152 
L 325.513762 242.192272 
L 325.309016 241.065392 
L 325.036503 239.938511 
L 324.689071 238.811631 
L 324.261648 237.684751 
L 323.751524 236.55787 
L 323.158572 235.43099 
L 322.485422 234.304109 
L 321.737574 233.177229 
L 320.923441 232.050349 
L 320.054287 230.923468 
L 319.144053 229.796588 
L 318.209026 228.669708 
L 317.267353 227.542827 
L 316.338373 226.415947 
L 315.441801 225.289067 
L 314.59679 224.162186 
L 313.820935 223.035306 
L 313.129291 221.908426 
L 312.533497 220.781545 
L 312.041084 219.654665 
L 311.655045 218.527784 
L 311.373715 217.400904 
L 311.190979 216.274024 
L 311.09679 215.147143 
L 311.077955 214.020263 
L 311.119101 212.893383 
L 311.203749 211.766502 
L 311.315377 210.639622 
L 311.438403 209.512742 
L 311.559015 208.385861 
L 311.665789 207.258981 
L 311.750103 206.132101 
L 311.806333 205.00522 
L 311.831863 203.87834 
L 311.826951 202.75146 
L 311.794489 201.624579 
L 311.739685 200.497699 
L 311.669707 199.370818 
L 311.593294 198.243938 
L 311.520347 197.117058 
L 311.461495 195.990177 
L 311.427646 194.863297 
L 311.429506 193.736417 
L 311.477096 192.609536 
L 311.579263 191.482656 
L 311.743226 190.355776 
L 311.974173 189.228895 
L 312.274957 188.102015 
L 312.645911 186.975135 
L 313.084802 185.848254 
L 313.586953 184.721374 
L 314.145513 183.594493 
L 314.751873 182.467613 
L 315.396185 181.340733 
L 316.067962 180.213852 
L 316.756692 179.086972 
L 317.452421 177.960092 
L 318.146261 176.833211 
L 318.830787 175.706331 
L 319.500276 174.579451 
L 320.150791 173.45257 
L 320.780111 172.32569 
L 321.387519 171.19881 
L 321.973471 170.071929 
L 322.539214 168.945049 
L 323.086357 167.818169 
L 323.616482 166.691288 
L 324.130804 165.564408 
L 324.629918 164.437527 
L 325.113665 163.310647 
L 334.429972 163.310647 
L 334.429972 163.310647 
L 334.913718 164.437527 
L 335.412832 165.564408 
L 335.927154 166.691288 
L 336.45728 167.818169 
L 337.004423 168.945049 
L 337.570165 170.071929 
L 338.156118 171.19881 
L 338.763525 172.32569 
L 339.392846 173.45257 
L 340.043361 174.579451 
L 340.712849 175.706331 
L 341.397375 176.833211 
L 342.091216 177.960092 
L 342.786944 179.086972 
L 343.475674 180.213852 
L 344.147452 181.340733 
L 344.791764 182.467613 
L 345.398123 183.594493 
L 345.956683 184.721374 
L 346.458834 185.848254 
L 346.897725 186.975135 
L 347.268679 188.102015 
L 347.569464 189.228895 
L 347.80041 190.355776 
L 347.964373 191.482656 
L 348.06654 192.609536 
L 348.11413 193.736417 
L 348.115991 194.863297 
L 348.082141 195.990177 
L 348.02329 197.117058 
L 347.950342 198.243938 
L 347.873929 199.370818 
L 347.803952 200.497699 
L 347.749148 201.624579 
L 347.716685 202.75146 
L 347.711774 203.87834 
L 347.737303 205.00522 
L 347.793533 206.132101 
L 347.877848 207.258981 
L 347.984622 208.385861 
L 348.105233 209.512742 
L 348.22826 210.639622 
L 348.339887 211.766502 
L 348.424535 212.893383 
L 348.465682 214.020263 
L 348.446846 215.147143 
L 348.352658 216.274024 
L 348.169922 217.400904 
L 347.888592 218.527784 
L 347.502552 219.654665 
L 347.010139 220.781545 
L 346.414345 221.908426 
L 345.722701 223.035306 
L 344.946847 224.162186 
L 344.101836 225.289067 
L 343.205264 226.415947 
L 342.276284 227.542827 
L 341.33461 228.669708 
L 340.399584 229.796588 
L 339.489349 230.923468 
L 338.620195 232.050349 
L 337.806062 233.177229 
L 337.058215 234.304109 
L 336.385065 235.43099 
L 335.792112 236.55787 
L 335.281988 237.684751 
L 334.854566 238.811631 
L 334.507133 239.938511 
L 334.23462 241.065392 
L 334.029874 242.192272 
L 333.883992 243.319152 
L 333.786704 244.446033 
L 333.726824 245.572913 
L 333.69273 246.699793 
L 333.672884 247.826674 
L 333.656358 248.953554 
L 333.633323 250.080434 
L 333.595498 251.207315 
L 333.536487 252.334195 
L 333.452017 253.461076 
L 333.34003 254.587956 
L 333.200632 255.714836 
L 333.035911 256.841717 
L 332.84962 257.968597 
L 332.646781 259.095477 
L 332.433218 260.222358 
L 332.215076 261.349238 
L 331.998357 262.476118 
L 331.788511 263.602999 
L 331.59011 264.729879 
L 331.406625 265.856759 
L 331.24031 266.98364 
L 331.092204 268.11052 
L 330.96222 269.2374 
L 330.849317 270.364281 
L 330.751729 271.491161 
L 330.667214 272.618042 
L 330.593313 273.744922 
L 330.527582 274.871802 
z
" clip-path="url(#pccdfe3e33e)" style="fill: #1f77b4; fill-opacity: 0.3"/>
   </g>
   <g id="PolyCollection_5">
    <path d="M 405.968313 302.892298 
L 403.126232 302.892298 
L 402.966558 300.247128 
L 402.802457 297.601958 
L 402.632694 294.956787 
L 402.455123 292.311617 
L 402.266794 289.666447 
L 402.064123 287.021277 
L 401.843089 284.376107 
L 401.599438 281.730937 
L 401.328828 279.085767 
L 401.026919 276.440596 
L 400.689391 273.795426 
L 400.311921 271.150256 
L 399.890155 268.505086 
L 399.419747 265.859916 
L 398.896485 263.214746 
L 398.316576 260.569576 
L 397.677073 257.924406 
L 396.976429 255.279235 
L 396.215135 252.634065 
L 395.396341 249.988895 
L 394.526389 247.343725 
L 393.615147 244.698555 
L 392.676085 242.053385 
L 391.726027 239.408215 
L 390.784565 236.763044 
L 389.873161 234.117874 
L 389.013969 231.472704 
L 388.228488 228.827534 
L 387.536135 226.182364 
L 386.952875 223.537194 
L 386.490045 220.892024 
L 386.153509 218.246854 
L 385.94324 215.601683 
L 385.853409 212.956513 
L 385.873006 210.311343 
L 385.986937 207.666173 
L 386.177507 205.021003 
L 386.426128 202.375833 
L 386.715059 199.730663 
L 387.028989 197.085492 
L 387.356273 194.440322 
L 387.689699 191.795152 
L 388.026697 189.149982 
L 388.368997 186.504812 
L 388.721797 183.859642 
L 389.092552 181.214472 
L 389.489559 178.569302 
L 389.920507 175.924131 
L 390.391164 173.278961 
L 390.904366 170.633791 
L 391.45941 167.988621 
L 392.051912 165.343451 
L 392.674129 162.698281 
L 393.31569 160.053111 
L 393.96462 157.40794 
L 394.608528 154.76277 
L 395.235782 152.1176 
L 395.83655 149.47243 
L 396.403549 146.82726 
L 396.932464 144.18209 
L 397.421985 141.53692 
L 397.873498 138.89175 
L 398.290514 136.246579 
L 398.677929 133.601409 
L 399.041248 130.956239 
L 399.385864 128.311069 
L 399.716498 125.665899 
L 400.036842 123.020729 
L 400.349413 120.375559 
L 400.655596 117.730388 
L 400.95582 115.085218 
L 401.249813 112.440048 
L 401.536845 109.794878 
L 401.815942 107.149708 
L 402.086016 104.504538 
L 402.345932 101.859368 
L 402.594499 99.214197 
L 402.830449 96.569027 
L 403.052411 93.923857 
L 403.258907 91.278687 
L 403.448404 88.633517 
L 403.619399 85.988347 
L 403.770534 83.343177 
L 403.900732 80.698007 
L 404.009315 78.052836 
L 404.096107 75.407666 
L 404.161503 72.762496 
L 404.206494 70.117326 
L 404.232669 67.472156 
L 404.242178 64.826986 
L 404.237668 62.181816 
L 404.222191 59.536645 
L 404.199087 56.891475 
L 404.171837 54.246305 
L 404.143888 51.601135 
L 404.118469 48.955965 
L 404.098394 46.310795 
L 404.08589 43.665625 
L 404.082463 41.020455 
L 405.012083 41.020455 
L 405.012083 41.020455 
L 405.008655 43.665625 
L 404.996152 46.310795 
L 404.976076 48.955965 
L 404.950657 51.601135 
L 404.922709 54.246305 
L 404.895458 56.891475 
L 404.872355 59.536645 
L 404.856878 62.181816 
L 404.852367 64.826986 
L 404.861877 67.472156 
L 404.888052 70.117326 
L 404.933043 72.762496 
L 404.998438 75.407666 
L 405.085231 78.052836 
L 405.193814 80.698007 
L 405.324011 83.343177 
L 405.475147 85.988347 
L 405.646141 88.633517 
L 405.835639 91.278687 
L 406.042135 93.923857 
L 406.264096 96.569027 
L 406.500047 99.214197 
L 406.748614 101.859368 
L 407.008529 104.504538 
L 407.278604 107.149708 
L 407.5577 109.794878 
L 407.844732 112.440048 
L 408.138725 115.085218 
L 408.43895 117.730388 
L 408.745132 120.375559 
L 409.057703 123.020729 
L 409.378047 125.665899 
L 409.708682 128.311069 
L 410.053297 130.956239 
L 410.416616 133.601409 
L 410.804032 136.246579 
L 411.221047 138.89175 
L 411.67256 141.53692 
L 412.162081 144.18209 
L 412.690997 146.82726 
L 413.257996 149.47243 
L 413.858763 152.1176 
L 414.486018 154.76277 
L 415.129925 157.40794 
L 415.778856 160.053111 
L 416.420416 162.698281 
L 417.042633 165.343451 
L 417.635135 167.988621 
L 418.19018 170.633791 
L 418.703382 173.278961 
L 419.174038 175.924131 
L 419.604986 178.569302 
L 420.001994 181.214472 
L 420.372749 183.859642 
L 420.725548 186.504812 
L 421.067849 189.149982 
L 421.404846 191.795152 
L 421.738272 194.440322 
L 422.065557 197.085492 
L 422.379486 199.730663 
L 422.668417 202.375833 
L 422.917038 205.021003 
L 423.107608 207.666173 
L 423.221539 210.311343 
L 423.241136 212.956513 
L 423.151306 215.601683 
L 422.941037 218.246854 
L 422.604501 220.892024 
L 422.141671 223.537194 
L 421.55841 226.182364 
L 420.866057 228.827534 
L 420.080577 231.472704 
L 419.221385 234.117874 
L 418.30998 236.763044 
L 417.368519 239.408215 
L 416.418461 242.053385 
L 415.479399 244.698555 
L 414.568157 247.343725 
L 413.698204 249.988895 
L 412.879411 252.634065 
L 412.118116 255.279235 
L 411.417473 257.924406 
L 410.777969 260.569576 
L 410.198061 263.214746 
L 409.674799 265.859916 
L 409.20439 268.505086 
L 408.782625 271.150256 
L 408.405154 273.795426 
L 408.067627 276.440596 
L 407.765718 279.085767 
L 407.495108 281.730937 
L 407.251456 284.376107 
L 407.030422 287.021277 
L 406.827751 289.666447 
L 406.639423 292.311617 
L 406.461852 294.956787 
L 406.292088 297.601958 
L 406.127988 300.247128 
L 405.968313 302.892298 
z
" clip-path="url(#pccdfe3e33e)" style="fill: #1f77b4; fill-opacity: 0.3"/>
   </g>
   <g id="PolyCollection_6">
    <path d="M 488.377338 246.226314 
L 470.268117 246.226314 
L 469.209081 245.371947 
L 468.153508 244.517581 
L 467.120447 243.663214 
L 466.127971 242.808847 
L 465.192332 241.95448 
L 464.327307 241.100113 
L 463.543779 240.245747 
L 462.849579 239.39138 
L 462.249581 238.537013 
L 461.746005 237.682646 
L 461.338884 236.828279 
L 461.026606 235.973913 
L 460.806453 235.119546 
L 460.67508 234.265179 
L 460.628864 233.410812 
L 460.664094 232.556445 
L 460.777008 231.702079 
L 460.963686 230.847712 
L 461.219841 229.993345 
L 461.540586 229.138978 
L 461.920219 228.284611 
L 462.352099 227.430245 
L 462.828661 226.575878 
L 463.341589 225.721511 
L 463.882141 224.867144 
L 464.441608 224.012777 
L 465.011834 223.15841 
L 465.585746 222.304044 
L 466.1578 221.449677 
L 466.724293 220.59531 
L 467.283473 219.740943 
L 467.835441 218.886576 
L 468.381837 218.03221 
L 468.925351 217.177843 
L 469.469118 216.323476 
L 470.016069 215.469109 
L 470.568306 214.614742 
L 471.126594 213.760376 
L 471.689997 212.906009 
L 472.255715 212.051642 
L 472.819123 211.197275 
L 473.374003 210.342908 
L 473.912935 209.488542 
L 474.427819 208.634175 
L 474.910454 207.779808 
L 475.353139 206.925441 
L 475.749242 206.071074 
L 476.093687 205.216708 
L 476.383329 204.362341 
L 476.617202 203.507974 
L 476.796604 202.653607 
L 476.925045 201.79924 
L 477.008041 200.944874 
L 477.052781 200.090507 
L 477.067693 199.23614 
L 477.061935 198.381773 
L 477.044839 197.527406 
L 477.025364 196.67304 
L 477.011577 195.818673 
L 477.010211 194.964306 
L 477.026317 194.109939 
L 477.063052 193.255572 
L 477.121599 192.401206 
L 477.201231 191.546839 
L 477.29951 190.692472 
L 477.412602 189.838105 
L 477.535674 188.983738 
L 477.663352 188.129371 
L 477.790186 187.275005 
L 477.911096 186.420638 
L 478.021755 185.566271 
L 478.118894 184.711904 
L 478.200486 183.857537 
L 478.265824 183.003171 
L 478.315471 182.148804 
L 478.351108 181.294437 
L 478.37529 180.44007 
L 478.39114 179.585703 
L 478.402015 178.731337 
L 478.411172 177.87697 
L 478.421467 177.022603 
L 478.435128 176.168236 
L 478.453593 175.313869 
L 478.47746 174.459503 
L 478.506516 173.605136 
L 478.53986 172.750769 
L 478.576089 171.896402 
L 478.61352 171.042035 
L 478.650431 170.187669 
L 478.685281 169.333302 
L 478.716888 168.478935 
L 478.744557 167.624568 
L 478.768125 166.770201 
L 478.787947 165.915835 
L 478.804822 165.061468 
L 478.819857 164.207101 
L 478.834321 163.352734 
L 478.849479 162.498367 
L 478.866447 161.644001 
L 479.779008 161.644001 
L 479.779008 161.644001 
L 479.795975 162.498367 
L 479.811134 163.352734 
L 479.825598 164.207101 
L 479.840633 165.061468 
L 479.857507 165.915835 
L 479.87733 166.770201 
L 479.900897 167.624568 
L 479.928566 168.478935 
L 479.960174 169.333302 
L 479.995024 170.187669 
L 480.031935 171.042035 
L 480.069366 171.896402 
L 480.105594 172.750769 
L 480.138939 173.605136 
L 480.167995 174.459503 
L 480.191861 175.313869 
L 480.210327 176.168236 
L 480.223987 177.022603 
L 480.234283 177.87697 
L 480.243439 178.731337 
L 480.254314 179.585703 
L 480.270165 180.44007 
L 480.294347 181.294437 
L 480.329984 182.148804 
L 480.379631 183.003171 
L 480.444969 183.857537 
L 480.526561 184.711904 
L 480.6237 185.566271 
L 480.734359 186.420638 
L 480.855268 187.275005 
L 480.982102 188.129371 
L 481.10978 188.983738 
L 481.232852 189.838105 
L 481.345944 190.692472 
L 481.444223 191.546839 
L 481.523855 192.401206 
L 481.582403 193.255572 
L 481.619138 194.109939 
L 481.635244 194.964306 
L 481.633877 195.818673 
L 481.620091 196.67304 
L 481.600616 197.527406 
L 481.58352 198.381773 
L 481.577761 199.23614 
L 481.592674 200.090507 
L 481.637414 200.944874 
L 481.720409 201.79924 
L 481.848851 202.653607 
L 482.028253 203.507974 
L 482.262125 204.362341 
L 482.551768 205.216708 
L 482.896212 206.071074 
L 483.292316 206.925441 
L 483.735001 207.779808 
L 484.217636 208.634175 
L 484.732519 209.488542 
L 485.271452 210.342908 
L 485.826331 211.197275 
L 486.38974 212.051642 
L 486.955458 212.906009 
L 487.518861 213.760376 
L 488.077149 214.614742 
L 488.629386 215.469109 
L 489.176336 216.323476 
L 489.720104 217.177843 
L 490.263618 218.03221 
L 490.810014 218.886576 
L 491.361982 219.740943 
L 491.921162 220.59531 
L 492.487654 221.449677 
L 493.059709 222.304044 
L 493.633621 223.15841 
L 494.203847 224.012777 
L 494.763313 224.867144 
L 495.303866 225.721511 
L 495.816793 226.575878 
L 496.293356 227.430245 
L 496.725236 228.284611 
L 497.104869 229.138978 
L 497.425614 229.993345 
L 497.681769 230.847712 
L 497.868446 231.702079 
L 497.981361 232.556445 
L 498.016591 233.410812 
L 497.970374 234.265179 
L 497.839002 235.119546 
L 497.618849 235.973913 
L 497.30657 236.828279 
L 496.89945 237.682646 
L 496.395874 238.537013 
L 495.795875 239.39138 
L 495.101676 240.245747 
L 494.318148 241.100113 
L 493.453122 241.95448 
L 492.517483 242.808847 
L 491.525007 243.663214 
L 490.491947 244.517581 
L 489.436373 245.371947 
L 488.377338 246.226314 
z
" clip-path="url(#pccdfe3e33e)" style="fill: #1f77b4; fill-opacity: 0.3"/>
   </g>
   <g id="PolyCollection_7">
    <path d="M 566.263858 247.788795 
L 541.932505 247.788795 
L 541.209934 246.924959 
L 540.500846 246.061123 
L 539.812069 245.197286 
L 539.150536 244.33345 
L 538.523179 243.469613 
L 537.936808 242.605777 
L 537.397986 241.741941 
L 536.912915 240.878104 
L 536.487311 240.014268 
L 536.126294 239.150432 
L 535.834289 238.286595 
L 535.614931 237.422759 
L 535.47099 236.558922 
L 535.404318 235.695086 
L 535.415802 234.83125 
L 535.505348 233.967413 
L 535.671882 233.103577 
L 535.913368 232.23974 
L 536.226854 231.375904 
L 536.608526 230.512068 
L 537.053788 229.648231 
L 537.557351 228.784395 
L 538.113339 227.920558 
L 538.7154 227.056722 
L 539.356824 226.192886 
L 540.030667 225.329049 
L 540.729867 224.465213 
L 541.447369 223.601377 
L 542.176233 222.73754 
L 542.909734 221.873704 
L 543.641462 221.009867 
L 544.365393 220.146031 
L 545.075959 219.282195 
L 545.768099 218.418358 
L 546.43729 217.554522 
L 547.079574 216.690685 
L 547.691557 215.826849 
L 548.27041 214.963013 
L 548.813838 214.099176 
L 549.320059 213.23534 
L 549.787762 212.371503 
L 550.216054 211.507667 
L 550.604418 210.643831 
L 550.95265 209.779994 
L 551.260806 208.916158 
L 551.529144 208.052322 
L 551.75807 207.188485 
L 551.948093 206.324649 
L 552.099773 205.460812 
L 552.213684 204.596976 
L 552.290388 203.73314 
L 552.330405 202.869303 
L 552.3342 202.005467 
L 552.302178 201.14163 
L 552.234683 200.277794 
L 552.132012 199.413958 
L 551.994428 198.550121 
L 551.82219 197.686285 
L 551.615582 196.822449 
L 551.37495 195.958612 
L 551.100741 195.094776 
L 550.793551 194.230939 
L 550.454163 193.367103 
L 550.083595 192.503267 
L 549.683144 191.63943 
L 549.254417 190.775594 
L 548.799372 189.911757 
L 548.320339 189.047921 
L 547.82004 188.184085 
L 547.3016 187.320248 
L 546.768541 186.456412 
L 546.224774 185.592575 
L 545.674573 184.728739 
L 545.122539 183.864903 
L 544.573557 183.001066 
L 544.032732 182.13723 
L 543.505327 181.273394 
L 542.996687 180.409557 
L 542.512155 179.545721 
L 542.056984 178.681884 
L 541.636251 177.818048 
L 541.254763 176.954212 
L 540.916969 176.090375 
L 540.626878 175.226539 
L 540.387981 174.362702 
L 540.203182 173.498866 
L 540.07474 172.63503 
L 540.004226 171.771193 
L 539.992491 170.907357 
L 540.039649 170.04352 
L 540.145076 169.179684 
L 540.307426 168.315848 
L 540.524655 167.452011 
L 540.794072 166.588175 
L 541.112386 165.724339 
L 541.47578 164.860502 
L 541.879981 163.996666 
L 542.320349 163.132829 
L 542.791962 162.268993 
L 565.404402 162.268993 
L 565.404402 162.268993 
L 565.876014 163.132829 
L 566.316382 163.996666 
L 566.720584 164.860502 
L 567.083977 165.724339 
L 567.402292 166.588175 
L 567.671708 167.452011 
L 567.888938 168.315848 
L 568.051287 169.179684 
L 568.156714 170.04352 
L 568.203872 170.907357 
L 568.192137 171.771193 
L 568.121624 172.63503 
L 567.993182 173.498866 
L 567.808382 174.362702 
L 567.569485 175.226539 
L 567.279394 176.090375 
L 566.941601 176.954212 
L 566.560112 177.818048 
L 566.139379 178.681884 
L 565.684209 179.545721 
L 565.199677 180.409557 
L 564.691037 181.273394 
L 564.163632 182.13723 
L 563.622807 183.001066 
L 563.073824 183.864903 
L 562.521791 184.728739 
L 561.97159 185.592575 
L 561.427823 186.456412 
L 560.894764 187.320248 
L 560.376323 188.184085 
L 559.876025 189.047921 
L 559.396992 189.911757 
L 558.941946 190.775594 
L 558.51322 191.63943 
L 558.112768 192.503267 
L 557.742201 193.367103 
L 557.402813 194.230939 
L 557.095622 195.094776 
L 556.821414 195.958612 
L 556.580781 196.822449 
L 556.374173 197.686285 
L 556.201936 198.550121 
L 556.064352 199.413958 
L 555.96168 200.277794 
L 555.894186 201.14163 
L 555.862164 202.005467 
L 555.865959 202.869303 
L 555.905976 203.73314 
L 555.982679 204.596976 
L 556.096591 205.460812 
L 556.24827 206.324649 
L 556.438293 207.188485 
L 556.66722 208.052322 
L 556.935558 208.916158 
L 557.243713 209.779994 
L 557.591945 210.643831 
L 557.980309 211.507667 
L 558.408602 212.371503 
L 558.876304 213.23534 
L 559.382526 214.099176 
L 559.925954 214.963013 
L 560.504806 215.826849 
L 561.11679 216.690685 
L 561.759074 217.554522 
L 562.428265 218.418358 
L 563.120404 219.282195 
L 563.830971 220.146031 
L 564.554901 221.009867 
L 565.286629 221.873704 
L 566.020131 222.73754 
L 566.748995 223.601377 
L 567.466497 224.465213 
L 568.165697 225.329049 
L 568.839539 226.192886 
L 569.480963 227.056722 
L 570.083024 227.920558 
L 570.639013 228.784395 
L 571.142576 229.648231 
L 571.587838 230.512068 
L 571.969509 231.375904 
L 572.282995 232.23974 
L 572.524482 233.103577 
L 572.691016 233.967413 
L 572.780562 234.83125 
L 572.792045 235.695086 
L 572.725373 236.558922 
L 572.581433 237.422759 
L 572.362074 238.286595 
L 572.070069 239.150432 
L 571.709053 240.014268 
L 571.283449 240.878104 
L 570.798377 241.741941 
L 570.259556 242.605777 
L 569.673184 243.469613 
L 569.045828 244.33345 
L 568.384295 245.197286 
L 567.695517 246.061123 
L 566.98643 246.924959 
L 566.263858 247.788795 
z
" clip-path="url(#pccdfe3e33e)" style="fill: #1f77b4; fill-opacity: 0.3"/>
   </g>
   <g id="PolyCollection_8">
    <path d="M 641.06165 318.829606 
L 616.685623 318.829606 
L 615.654641 317.648012 
L 614.658574 316.466419 
L 613.717612 315.284825 
L 612.85189 314.103232 
L 612.080772 312.921638 
L 611.422123 311.740045 
L 610.891604 310.558451 
L 610.502036 309.376858 
L 610.262868 308.195264 
L 610.179773 307.013671 
L 610.254398 305.832077 
L 610.484291 304.650484 
L 610.862989 303.46889 
L 611.380283 302.287297 
L 612.022617 301.105703 
L 612.773618 299.92411 
L 613.614709 298.742516 
L 614.525777 297.560923 
L 615.485847 296.379329 
L 616.473741 295.197736 
L 617.468679 294.016142 
L 618.450802 292.834549 
L 619.401593 291.652955 
L 620.304203 290.471362 
L 621.143656 289.289768 
L 621.906968 288.108175 
L 622.583175 286.926581 
L 623.163292 285.744988 
L 623.640239 284.563394 
L 624.00873 283.381801 
L 624.265175 282.200207 
L 624.407586 281.018614 
L 624.435525 279.83702 
L 624.35008 278.655427 
L 624.153881 277.473833 
L 623.851154 276.29224 
L 623.447786 275.110646 
L 622.951407 273.929053 
L 622.371449 272.747459 
L 621.719177 271.565866 
L 621.007658 270.384272 
L 620.251664 269.202679 
L 619.467481 268.021085 
L 618.672634 266.839492 
L 617.885509 265.657898 
L 617.124893 264.476305 
L 616.409446 263.294711 
L 615.757126 262.113118 
L 615.184591 260.931524 
L 614.706624 259.749931 
L 614.335597 258.568337 
L 614.081022 257.386744 
L 613.949206 256.20515 
L 613.943042 255.023557 
L 614.06194 253.841963 
L 614.301907 252.66037 
L 614.655779 251.478776 
L 615.113579 250.297183 
L 615.662979 249.115589 
L 616.289857 247.933996 
L 616.978888 246.752402 
L 617.714161 245.570809 
L 618.47977 244.389215 
L 619.260365 243.207622 
L 620.041628 242.026028 
L 620.810656 240.844435 
L 621.556249 239.662841 
L 622.26909 238.481248 
L 622.941823 237.299654 
L 623.569036 236.118061 
L 624.147173 234.936467 
L 624.67437 233.754874 
L 625.150253 232.57328 
L 625.575708 231.391687 
L 625.952633 230.210093 
L 626.283704 229.0285 
L 626.572144 227.846906 
L 626.821523 226.665313 
L 627.035585 225.483719 
L 627.218104 224.302126 
L 627.372774 223.120532 
L 627.503126 221.938939 
L 627.612476 220.757345 
L 627.703888 219.575752 
L 627.78016 218.394158 
L 627.843824 217.212565 
L 627.897149 216.030971 
L 627.942155 214.849378 
L 627.980633 213.667784 
L 628.014155 212.486191 
L 628.044094 211.304597 
L 628.071638 210.123004 
L 628.097799 208.94141 
L 628.123428 207.759817 
L 628.149217 206.578223 
L 628.175711 205.39663 
L 628.20331 204.215036 
L 628.232279 203.033443 
L 628.262752 201.851849 
L 629.48452 201.851849 
L 629.48452 201.851849 
L 629.514993 203.033443 
L 629.543962 204.215036 
L 629.571562 205.39663 
L 629.598055 206.578223 
L 629.623845 207.759817 
L 629.649473 208.94141 
L 629.675635 210.123004 
L 629.703178 211.304597 
L 629.733118 212.486191 
L 629.76664 213.667784 
L 629.805117 214.849378 
L 629.850124 216.030971 
L 629.903449 217.212565 
L 629.967112 218.394158 
L 630.043385 219.575752 
L 630.134797 220.757345 
L 630.244147 221.938939 
L 630.374499 223.120532 
L 630.529169 224.302126 
L 630.711688 225.483719 
L 630.92575 226.665313 
L 631.175129 227.846906 
L 631.463569 229.0285 
L 631.79464 230.210093 
L 632.171565 231.391687 
L 632.597019 232.57328 
L 633.072902 233.754874 
L 633.600099 234.936467 
L 634.178236 236.118061 
L 634.80545 237.299654 
L 635.478182 238.481248 
L 636.191024 239.662841 
L 636.936617 240.844435 
L 637.705645 242.026028 
L 638.486908 243.207622 
L 639.267503 244.389215 
L 640.033112 245.570809 
L 640.768384 246.752402 
L 641.457416 247.933996 
L 642.084294 249.115589 
L 642.633694 250.297183 
L 643.091493 251.478776 
L 643.445366 252.66037 
L 643.685333 253.841963 
L 643.80423 255.023557 
L 643.798067 256.20515 
L 643.666251 257.386744 
L 643.411676 258.568337 
L 643.040649 259.749931 
L 642.562682 260.931524 
L 641.990147 262.113118 
L 641.337827 263.294711 
L 640.62238 264.476305 
L 639.861764 265.657898 
L 639.074638 266.839492 
L 638.279792 268.021085 
L 637.495609 269.202679 
L 636.739614 270.384272 
L 636.028096 271.565866 
L 635.375824 272.747459 
L 634.795866 273.929053 
L 634.299487 275.110646 
L 633.896119 276.29224 
L 633.593392 277.473833 
L 633.397193 278.655427 
L 633.311748 279.83702 
L 633.339687 281.018614 
L 633.482098 282.200207 
L 633.738542 283.381801 
L 634.107034 284.563394 
L 634.58398 285.744988 
L 635.164098 286.926581 
L 635.840305 288.108175 
L 636.603617 289.289768 
L 637.44307 290.471362 
L 638.34568 291.652955 
L 639.296471 292.834549 
L 640.278593 294.016142 
L 641.273531 295.197736 
L 642.261425 296.379329 
L 643.221495 297.560923 
L 644.132563 298.742516 
L 644.973655 299.92411 
L 645.724656 301.105703 
L 646.36699 302.287297 
L 646.884283 303.46889 
L 647.262982 304.650484 
L 647.492875 305.832077 
L 647.5675 307.013671 
L 647.484404 308.195264 
L 647.245237 309.376858 
L 646.855669 310.558451 
L 646.325149 311.740045 
L 645.6665 312.921638 
L 644.895383 314.103232 
L 644.029661 315.284825 
L 643.088698 316.466419 
L 642.092632 317.648012 
L 641.06165 318.829606 
z
" clip-path="url(#pccdfe3e33e)" style="fill: #1f77b4; fill-opacity: 0.3"/>
   </g>
   <g id="PolyCollection_9">
    <path d="M 713.17198 323.829545 
L 694.126202 323.829545 
L 693.125588 322.676361 
L 692.110763 321.523176 
L 691.097522 320.369991 
L 690.103227 319.216806 
L 689.146367 318.063622 
L 688.246019 316.910437 
L 687.42123 315.757252 
L 686.69036 314.604067 
L 686.070388 313.450883 
L 685.576249 312.297698 
L 685.220217 311.144513 
L 685.011379 309.991328 
L 684.955227 308.838144 
L 685.053398 307.684959 
L 685.303573 306.531774 
L 685.69955 305.378589 
L 686.231473 304.225405 
L 686.886218 303.07222 
L 687.647899 301.919035 
L 688.498471 300.76585 
L 689.418387 299.612666 
L 690.387282 298.459481 
L 691.384627 297.306296 
L 692.390338 296.153111 
L 693.38531 294.999927 
L 694.351836 293.846742 
L 695.273933 292.693557 
L 696.137535 291.540372 
L 696.930598 290.387188 
L 697.643091 289.234003 
L 698.266926 288.080818 
L 698.795825 286.927633 
L 699.22516 285.774449 
L 699.551789 284.621264 
L 699.7739 283.468079 
L 699.890896 282.314894 
L 699.903312 281.16171 
L 699.812789 280.008525 
L 699.62209 278.85534 
L 699.33516 277.702155 
L 698.957214 276.548971 
L 698.494841 275.395786 
L 697.956098 274.242601 
L 697.350578 273.089416 
L 696.689437 271.936232 
L 695.985354 270.783047 
L 695.252414 269.629862 
L 694.505912 268.476677 
L 693.762068 267.323493 
L 693.037657 266.170308 
L 692.349578 265.017123 
L 691.714364 263.863938 
L 691.147668 262.710754 
L 690.663742 261.557569 
L 690.274949 260.404384 
L 689.991319 259.251199 
L 689.820192 258.098015 
L 689.765954 256.94483 
L 689.829897 255.791645 
L 690.010195 254.63846 
L 690.302011 253.485276 
L 690.697722 252.332091 
L 691.187251 251.178906 
L 691.75849 250.025721 
L 692.397784 248.872537 
L 693.090462 247.719352 
L 693.821371 246.566167 
L 694.575404 245.412982 
L 695.337994 244.259798 
L 696.09554 243.106613 
L 696.835771 241.953428 
L 697.548022 240.800243 
L 698.223419 239.647059 
L 698.85498 238.493874 
L 699.437628 237.340689 
L 699.968131 236.187504 
L 700.444973 235.03432 
L 700.86818 233.881135 
L 701.239102 232.72795 
L 701.560183 231.574765 
L 701.834712 230.421581 
L 702.066586 229.268396 
L 702.260087 228.115211 
L 702.419678 226.962026 
L 702.549833 225.808842 
L 702.654895 224.655657 
L 702.738965 223.502472 
L 702.805827 222.349287 
L 702.8589 221.196103 
L 702.90121 220.042918 
L 702.93539 218.889733 
L 702.963688 217.736548 
L 702.98799 216.583363 
L 703.009847 215.430179 
L 703.030505 214.276994 
L 703.050941 213.123809 
L 703.071886 211.970624 
L 703.09386 210.81744 
L 703.117194 209.664255 
L 704.180988 209.664255 
L 704.180988 209.664255 
L 704.204321 210.81744 
L 704.226296 211.970624 
L 704.247241 213.123809 
L 704.267677 214.276994 
L 704.288335 215.430179 
L 704.310192 216.583363 
L 704.334493 217.736548 
L 704.362792 218.889733 
L 704.396972 220.042918 
L 704.439282 221.196103 
L 704.492355 222.349287 
L 704.559217 223.502472 
L 704.643287 224.655657 
L 704.748348 225.808842 
L 704.878504 226.962026 
L 705.038095 228.115211 
L 705.231596 229.268396 
L 705.46347 230.421581 
L 705.737999 231.574765 
L 706.059079 232.72795 
L 706.430002 233.881135 
L 706.853209 235.03432 
L 707.330051 236.187504 
L 707.860554 237.340689 
L 708.443202 238.493874 
L 709.074763 239.647059 
L 709.75016 240.800243 
L 710.46241 241.953428 
L 711.202642 243.106613 
L 711.960188 244.259798 
L 712.722778 245.412982 
L 713.476811 246.566167 
L 714.20772 247.719352 
L 714.900397 248.872537 
L 715.539692 250.025721 
L 716.110931 251.178906 
L 716.60046 252.332091 
L 716.996171 253.485276 
L 717.287987 254.63846 
L 717.468285 255.791645 
L 717.532228 256.94483 
L 717.47799 258.098015 
L 717.306863 259.251199 
L 717.023233 260.404384 
L 716.63444 261.557569 
L 716.150514 262.710754 
L 715.583817 263.863938 
L 714.948603 265.017123 
L 714.260524 266.170308 
L 713.536114 267.323493 
L 712.792269 268.476677 
L 712.045768 269.629862 
L 711.312828 270.783047 
L 710.608744 271.936232 
L 709.947603 273.089416 
L 709.342084 274.242601 
L 708.80334 275.395786 
L 708.340968 276.548971 
L 707.963022 277.702155 
L 707.676092 278.85534 
L 707.485392 280.008525 
L 707.394869 281.16171 
L 707.407286 282.314894 
L 707.524282 283.468079 
L 707.746393 284.621264 
L 708.073022 285.774449 
L 708.502357 286.927633 
L 709.031255 288.080818 
L 709.655091 289.234003 
L 710.367584 290.387188 
L 711.160647 291.540372 
L 712.024249 292.693557 
L 712.946345 293.846742 
L 713.912872 294.999927 
L 714.907843 296.153111 
L 715.913555 297.306296 
L 716.910899 298.459481 
L 717.879794 299.612666 
L 718.799711 300.76585 
L 719.650283 301.919035 
L 720.411964 303.07222 
L 721.066709 304.225405 
L 721.598632 305.378589 
L 721.994609 306.531774 
L 722.244784 307.684959 
L 722.342955 308.838144 
L 722.286802 309.991328 
L 722.077964 311.144513 
L 721.721933 312.297698 
L 721.227794 313.450883 
L 720.607822 314.604067 
L 719.876951 315.757252 
L 719.052163 316.910437 
L 718.151815 318.063622 
L 717.194955 319.216806 
L 716.20066 320.369991 
L 715.187419 321.523176 
L 714.172594 322.676361 
L 713.17198 323.829545 
z
" clip-path="url(#pccdfe3e33e)" style="fill: #1f77b4; fill-opacity: 0.3"/>
   </g>
   <g id="PolyCollection_10">
    <path d="M 794.252822 321.642072 
L 762.596269 321.642072 
L 762.06361 320.944479 
L 761.574777 320.246887 
L 761.134699 319.549294 
L 760.747901 318.851701 
L 760.418427 318.154109 
L 760.149769 317.456516 
L 759.944805 316.758924 
L 759.805751 316.061331 
L 759.734118 315.363738 
L 759.730682 314.666146 
L 759.795476 313.968553 
L 759.927786 313.270961 
L 760.126161 312.573368 
L 760.388445 311.875775 
L 760.711811 311.178183 
L 761.092812 310.48059 
L 761.527441 309.782998 
L 762.011202 309.085405 
L 762.539184 308.387812 
L 763.106144 307.69022 
L 763.706588 306.992627 
L 764.334861 306.295035 
L 764.985229 305.597442 
L 765.651964 304.899849 
L 766.329421 304.202257 
L 767.012109 303.504664 
L 767.69476 302.807072 
L 768.372383 302.109479 
L 769.040314 301.411886 
L 769.694253 300.714294 
L 770.330294 300.016701 
L 770.944944 299.319109 
L 771.535131 298.621516 
L 772.098201 297.923923 
L 772.631914 297.226331 
L 773.134425 296.528738 
L 773.604259 295.831146 
L 774.040282 295.133553 
L 774.441669 294.43596 
L 774.807863 293.738368 
L 775.138538 293.040775 
L 775.433558 292.343183 
L 775.692936 291.64559 
L 775.916794 290.947997 
L 776.105327 290.250405 
L 776.25877 289.552812 
L 776.377365 288.85522 
L 776.461341 288.157627 
L 776.51089 287.460034 
L 776.526156 286.762442 
L 776.507223 286.064849 
L 776.454118 285.367257 
L 776.366815 284.669664 
L 776.245239 283.972071 
L 776.089293 283.274479 
L 775.89887 282.576886 
L 775.673885 281.879294 
L 775.414307 281.181701 
L 775.120189 280.484108 
L 774.79171 279.786516 
L 774.42921 279.088923 
L 774.033233 278.391331 
L 773.604564 277.693738 
L 773.144265 276.996145 
L 772.653711 276.298553 
L 772.134623 275.60096 
L 771.589084 274.903368 
L 771.019568 274.205775 
L 770.428944 273.508182 
L 769.82048 272.81059 
L 769.197839 272.112997 
L 768.565062 271.415405 
L 767.926542 270.717812 
L 767.286992 270.020219 
L 766.651395 269.322627 
L 766.024957 268.625034 
L 765.413041 267.927442 
L 764.821101 267.229849 
L 764.254603 266.532256 
L 763.718953 265.834664 
L 763.219408 265.137071 
L 762.760997 264.439479 
L 762.348439 263.741886 
L 761.986064 263.044293 
L 761.677737 262.346701 
L 761.426793 261.649108 
L 761.235979 260.951516 
L 761.107401 260.253923 
L 761.042487 259.55633 
L 761.041966 258.858738 
L 761.105846 258.161145 
L 761.233423 257.463553 
L 761.423287 256.76596 
L 761.673353 256.068367 
L 761.980898 255.370775 
L 762.342609 254.673182 
L 762.754644 253.97559 
L 763.212699 253.277997 
L 763.712083 252.580404 
L 793.137007 252.580404 
L 793.137007 252.580404 
L 793.636392 253.277997 
L 794.094447 253.97559 
L 794.506482 254.673182 
L 794.868193 255.370775 
L 795.175738 256.068367 
L 795.425804 256.76596 
L 795.615668 257.463553 
L 795.743245 258.161145 
L 795.807125 258.858738 
L 795.806604 259.55633 
L 795.74169 260.253923 
L 795.613112 260.951516 
L 795.422298 261.649108 
L 795.171354 262.346701 
L 794.863027 263.044293 
L 794.500651 263.741886 
L 794.088094 264.439479 
L 793.629683 265.137071 
L 793.130138 265.834664 
L 792.594487 266.532256 
L 792.02799 267.229849 
L 791.43605 267.927442 
L 790.824134 268.625034 
L 790.197696 269.322627 
L 789.562099 270.020219 
L 788.922549 270.717812 
L 788.284029 271.415405 
L 787.651252 272.112997 
L 787.028611 272.81059 
L 786.420147 273.508182 
L 785.829523 274.205775 
L 785.260007 274.903368 
L 784.714468 275.60096 
L 784.195379 276.298553 
L 783.704826 276.996145 
L 783.244527 277.693738 
L 782.815858 278.391331 
L 782.419881 279.088923 
L 782.057381 279.786516 
L 781.728902 280.484108 
L 781.434784 281.181701 
L 781.175206 281.879294 
L 780.950221 282.576886 
L 780.759798 283.274479 
L 780.603852 283.972071 
L 780.482276 284.669664 
L 780.394973 285.367257 
L 780.341868 286.064849 
L 780.322935 286.762442 
L 780.338201 287.460034 
L 780.38775 288.157627 
L 780.471726 288.85522 
L 780.590321 289.552812 
L 780.743763 290.250405 
L 780.932297 290.947997 
L 781.156155 291.64559 
L 781.415533 292.343183 
L 781.710553 293.040775 
L 782.041228 293.738368 
L 782.407422 294.43596 
L 782.808809 295.133553 
L 783.244832 295.831146 
L 783.714666 296.528738 
L 784.217177 297.226331 
L 784.75089 297.923923 
L 785.31396 298.621516 
L 785.904147 299.319109 
L 786.518797 300.016701 
L 787.154838 300.714294 
L 787.808777 301.411886 
L 788.476708 302.109479 
L 789.154331 302.807072 
L 789.836982 303.504664 
L 790.51967 304.202257 
L 791.197127 304.899849 
L 791.863862 305.597442 
L 792.51423 306.295035 
L 793.142503 306.992627 
L 793.742947 307.69022 
L 794.309907 308.387812 
L 794.837889 309.085405 
L 795.32165 309.782998 
L 795.756279 310.48059 
L 796.13728 311.178183 
L 796.460646 311.875775 
L 796.72293 312.573368 
L 796.921305 313.270961 
L 797.053615 313.968553 
L 797.118409 314.666146 
L 797.114973 315.363738 
L 797.043339 316.061331 
L 796.904286 316.758924 
L 796.699322 317.456516 
L 796.430664 318.154109 
L 796.10119 318.851701 
L 795.714392 319.549294 
L 795.274314 320.246887 
L 794.785481 320.944479 
L 794.252822 321.642072 
z
" clip-path="url(#pccdfe3e33e)" style="fill: #1f77b4; fill-opacity: 0.3"/>
   </g>
   <g id="matplotlib.axis_1">
    <g id="xtick_1">
     <g id="line2d_1">
      <defs>
       <path id="m8990ab2039" d="M 0 0 
L 0 3.5 
" style="stroke: #000000; stroke-width: 0.8"/>
      </defs>
      <g>
       <use xlink:href="#m8990ab2039" x="105.445455" y="337.97" style="stroke: #000000; stroke-width: 0.8"/>
      </g>
     </g>
     <g id="text_1">
      <!-- Grudger -->
      <g transform="translate(107.652955 377.89625)rotate(-90)scale(0.08 -0.08)">
       <defs>
        <path id="DejaVuSans-47" d="M 3809 666 
L 3809 1919 
L 2778 1919 
L 2778 2438 
L 4434 2438 
L 4434 434 
Q 4069 175 3628 42 
Q 3188 -91 2688 -91 
Q 1594 -91 976 548 
Q 359 1188 359 2328 
Q 359 3472 976 4111 
Q 1594 4750 2688 4750 
Q 3144 4750 3555 4637 
Q 3966 4525 4313 4306 
L 4313 3634 
Q 3963 3931 3569 4081 
Q 3175 4231 2741 4231 
Q 1884 4231 1454 3753 
Q 1025 3275 1025 2328 
Q 1025 1384 1454 906 
Q 1884 428 2741 428 
Q 3075 428 3337 486 
Q 3600 544 3809 666 
z
" transform="scale(0.015625)"/>
        <path id="DejaVuSans-72" d="M 2631 2963 
Q 2534 3019 2420 3045 
Q 2306 3072 2169 3072 
Q 1681 3072 1420 2755 
Q 1159 2438 1159 1844 
L 1159 0 
L 581 0 
L 581 3500 
L 1159 3500 
L 1159 2956 
Q 1341 3275 1631 3429 
Q 1922 3584 2338 3584 
Q 2397 3584 2469 3576 
Q 2541 3569 2628 3553 
L 2631 2963 
z
" transform="scale(0.015625)"/>
        <path id="DejaVuSans-75" d="M 544 1381 
L 544 3500 
L 1119 3500 
L 1119 1403 
Q 1119 906 1312 657 
Q 1506 409 1894 409 
Q 2359 409 2629 706 
Q 2900 1003 2900 1516 
L 2900 3500 
L 3475 3500 
L 3475 0 
L 2900 0 
L 2900 538 
Q 2691 219 2414 64 
Q 2138 -91 1772 -91 
Q 1169 -91 856 284 
Q 544 659 544 1381 
z
M 1991 3584 
L 1991 3584 
z
" transform="scale(0.015625)"/>
        <path id="DejaVuSans-64" d="M 2906 2969 
L 2906 4863 
L 3481 4863 
L 3481 0 
L 2906 0 
L 2906 525 
Q 2725 213 2448 61 
Q 2172 -91 1784 -91 
Q 1150 -91 751 415 
Q 353 922 353 1747 
Q 353 2572 751 3078 
Q 1150 3584 1784 3584 
Q 2172 3584 2448 3432 
Q 2725 3281 2906 2969 
z
M 947 1747 
Q 947 1113 1208 752 
Q 1469 391 1925 391 
Q 2381 391 2643 752 
Q 2906 1113 2906 1747 
Q 2906 2381 2643 2742 
Q 2381 3103 1925 3103 
Q 1469 3103 1208 2742 
Q 947 2381 947 1747 
z
" transform="scale(0.015625)"/>
        <path id="DejaVuSans-67" d="M 2906 1791 
Q 2906 2416 2648 2759 
Q 2391 3103 1925 3103 
Q 1463 3103 1205 2759 
Q 947 2416 947 1791 
Q 947 1169 1205 825 
Q 1463 481 1925 481 
Q 2391 481 2648 825 
Q 2906 1169 2906 1791 
z
M 3481 434 
Q 3481 -459 3084 -895 
Q 2688 -1331 1869 -1331 
Q 1566 -1331 1297 -1286 
Q 1028 -1241 775 -1147 
L 775 -588 
Q 1028 -725 1275 -790 
Q 1522 -856 1778 -856 
Q 2344 -856 2625 -561 
Q 2906 -266 2906 331 
L 2906 616 
Q 2728 306 2450 153 
Q 2172 0 1784 0 
Q 1141 0 747 490 
Q 353 981 353 1791 
Q 353 2603 747 3093 
Q 1141 3584 1784 3584 
Q 2172 3584 2450 3431 
Q 2728 3278 2906 2969 
L 2906 3500 
L 3481 3500 
L 3481 434 
z
" transform="scale(0.015625)"/>
        <path id="DejaVuSans-65" d="M 3597 1894 
L 3597 1613 
L 953 1613 
Q 991 1019 1311 708 
Q 1631 397 2203 397 
Q 2534 397 2845 478 
Q 3156 559 3463 722 
L 3463 178 
Q 3153 47 2828 -22 
Q 2503 -91 2169 -91 
Q 1331 -91 842 396 
Q 353 884 353 1716 
Q 353 2575 817 3079 
Q 1281 3584 2069 3584 
Q 2775 3584 3186 3129 
Q 3597 2675 3597 1894 
z
M 3022 2063 
Q 3016 2534 2758 2815 
Q 2500 3097 2075 3097 
Q 1594 3097 1305 2825 
Q 1016 2553 972 2059 
L 3022 2063 
z
" transform="scale(0.015625)"/>
       </defs>
       <use xlink:href="#DejaVuSans-47"/>
       <use xlink:href="#DejaVuSans-72" x="77.490234"/>
       <use xlink:href="#DejaVuSans-75" x="118.603516"/>
       <use xlink:href="#DejaVuSans-64" x="181.982422"/>
       <use xlink:href="#DejaVuSans-67" x="245.458984"/>
       <use xlink:href="#DejaVuSans-65" x="308.935547"/>
       <use xlink:href="#DejaVuSans-72" x="370.458984"/>
      </g>
     </g>
    </g>
    <g id="xtick_2">
     <g id="line2d_2">
      <g>
       <use xlink:href="#m8990ab2039" x="180.220909" y="337.97" style="stroke: #000000; stroke-width: 0.8"/>
      </g>
     </g>
     <g id="text_2">
      <!-- Tit For Tat -->
      <g transform="translate(182.428409 384.15)rotate(-90)scale(0.08 -0.08)">
       <defs>
        <path id="DejaVuSans-54" d="M -19 4666 
L 3928 4666 
L 3928 4134 
L 2272 4134 
L 2272 0 
L 1638 0 
L 1638 4134 
L -19 4134 
L -19 4666 
z
" transform="scale(0.015625)"/>
        <path id="DejaVuSans-69" d="M 603 3500 
L 1178 3500 
L 1178 0 
L 603 0 
L 603 3500 
z
M 603 4863 
L 1178 4863 
L 1178 4134 
L 603 4134 
L 603 4863 
z
" transform="scale(0.015625)"/>
        <path id="DejaVuSans-74" d="M 1172 4494 
L 1172 3500 
L 2356 3500 
L 2356 3053 
L 1172 3053 
L 1172 1153 
Q 1172 725 1289 603 
Q 1406 481 1766 481 
L 2356 481 
L 2356 0 
L 1766 0 
Q 1100 0 847 248 
Q 594 497 594 1153 
L 594 3053 
L 172 3053 
L 172 3500 
L 594 3500 
L 594 4494 
L 1172 4494 
z
" transform="scale(0.015625)"/>
        <path id="DejaVuSans-20" transform="scale(0.015625)"/>
        <path id="DejaVuSans-46" d="M 628 4666 
L 3309 4666 
L 3309 4134 
L 1259 4134 
L 1259 2759 
L 3109 2759 
L 3109 2228 
L 1259 2228 
L 1259 0 
L 628 0 
L 628 4666 
z
" transform="scale(0.015625)"/>
        <path id="DejaVuSans-6f" d="M 1959 3097 
Q 1497 3097 1228 2736 
Q 959 2375 959 1747 
Q 959 1119 1226 758 
Q 1494 397 1959 397 
Q 2419 397 2687 759 
Q 2956 1122 2956 1747 
Q 2956 2369 2687 2733 
Q 2419 3097 1959 3097 
z
M 1959 3584 
Q 2709 3584 3137 3096 
Q 3566 2609 3566 1747 
Q 3566 888 3137 398 
Q 2709 -91 1959 -91 
Q 1206 -91 779 398 
Q 353 888 353 1747 
Q 353 2609 779 3096 
Q 1206 3584 1959 3584 
z
" transform="scale(0.015625)"/>
        <path id="DejaVuSans-61" d="M 2194 1759 
Q 1497 1759 1228 1600 
Q 959 1441 959 1056 
Q 959 750 1161 570 
Q 1363 391 1709 391 
Q 2188 391 2477 730 
Q 2766 1069 2766 1631 
L 2766 1759 
L 2194 1759 
z
M 3341 1997 
L 3341 0 
L 2766 0 
L 2766 531 
Q 2569 213 2275 61 
Q 1981 -91 1556 -91 
Q 1019 -91 701 211 
Q 384 513 384 1019 
Q 384 1609 779 1909 
Q 1175 2209 1959 2209 
L 2766 2209 
L 2766 2266 
Q 2766 2663 2505 2880 
Q 2244 3097 1772 3097 
Q 1472 3097 1187 3025 
Q 903 2953 641 2809 
L 641 3341 
Q 956 3463 1253 3523 
Q 1550 3584 1831 3584 
Q 2591 3584 2966 3190 
Q 3341 2797 3341 1997 
z
" transform="scale(0.015625)"/>
       </defs>
       <use xlink:href="#DejaVuSans-54"/>
       <use xlink:href="#DejaVuSans-69" x="57.958984"/>
       <use xlink:href="#DejaVuSans-74" x="85.742188"/>
       <use xlink:href="#DejaVuSans-20" x="124.951172"/>
       <use xlink:href="#DejaVuSans-46" x="156.738281"/>
       <use xlink:href="#DejaVuSans-6f" x="210.632812"/>
       <use xlink:href="#DejaVuSans-72" x="271.814453"/>
       <use xlink:href="#DejaVuSans-20" x="312.927734"/>
       <use xlink:href="#DejaVuSans-54" x="344.714844"/>
       <use xlink:href="#DejaVuSans-61" x="389.298828"/>
       <use xlink:href="#DejaVuSans-74" x="450.578125"/>
      </g>
     </g>
    </g>
    <g id="xtick_3">
     <g id="line2d_3">
      <g>
       <use xlink:href="#m8990ab2039" x="254.996364" y="337.97" style="stroke: #000000; stroke-width: 0.8"/>
      </g>
     </g>
     <g id="text_3">
      <!-- Random: 0.5 -->
      <g transform="translate(257.203864 396.0475)rotate(-90)scale(0.08 -0.08)">
       <defs>
        <path id="DejaVuSans-52" d="M 2841 2188 
Q 3044 2119 3236 1894 
Q 3428 1669 3622 1275 
L 4263 0 
L 3584 0 
L 2988 1197 
Q 2756 1666 2539 1819 
Q 2322 1972 1947 1972 
L 1259 1972 
L 1259 0 
L 628 0 
L 628 4666 
L 2053 4666 
Q 2853 4666 3247 4331 
Q 3641 3997 3641 3322 
Q 3641 2881 3436 2590 
Q 3231 2300 2841 2188 
z
M 1259 4147 
L 1259 2491 
L 2053 2491 
Q 2509 2491 2742 2702 
Q 2975 2913 2975 3322 
Q 2975 3731 2742 3939 
Q 2509 4147 2053 4147 
L 1259 4147 
z
" transform="scale(0.015625)"/>
        <path id="DejaVuSans-6e" d="M 3513 2113 
L 3513 0 
L 2938 0 
L 2938 2094 
Q 2938 2591 2744 2837 
Q 2550 3084 2163 3084 
Q 1697 3084 1428 2787 
Q 1159 2491 1159 1978 
L 1159 0 
L 581 0 
L 581 3500 
L 1159 3500 
L 1159 2956 
Q 1366 3272 1645 3428 
Q 1925 3584 2291 3584 
Q 2894 3584 3203 3211 
Q 3513 2838 3513 2113 
z
" transform="scale(0.015625)"/>
        <path id="DejaVuSans-6d" d="M 3328 2828 
Q 3544 3216 3844 3400 
Q 4144 3584 4550 3584 
Q 5097 3584 5394 3201 
Q 5691 2819 5691 2113 
L 5691 0 
L 5113 0 
L 5113 2094 
Q 5113 2597 4934 2840 
Q 4756 3084 4391 3084 
Q 3944 3084 3684 2787 
Q 3425 2491 3425 1978 
L 3425 0 
L 2847 0 
L 2847 2094 
Q 2847 2600 2669 2842 
Q 2491 3084 2119 3084 
Q 1678 3084 1418 2786 
Q 1159 2488 1159 1978 
L 1159 0 
L 581 0 
L 581 3500 
L 1159 3500 
L 1159 2956 
Q 1356 3278 1631 3431 
Q 1906 3584 2284 3584 
Q 2666 3584 2933 3390 
Q 3200 3197 3328 2828 
z
" transform="scale(0.015625)"/>
        <path id="DejaVuSans-3a" d="M 750 794 
L 1409 794 
L 1409 0 
L 750 0 
L 750 794 
z
M 750 3309 
L 1409 3309 
L 1409 2516 
L 750 2516 
L 750 3309 
z
" transform="scale(0.015625)"/>
        <path id="DejaVuSans-30" d="M 2034 4250 
Q 1547 4250 1301 3770 
Q 1056 3291 1056 2328 
Q 1056 1369 1301 889 
Q 1547 409 2034 409 
Q 2525 409 2770 889 
Q 3016 1369 3016 2328 
Q 3016 3291 2770 3770 
Q 2525 4250 2034 4250 
z
M 2034 4750 
Q 2819 4750 3233 4129 
Q 3647 3509 3647 2328 
Q 3647 1150 3233 529 
Q 2819 -91 2034 -91 
Q 1250 -91 836 529 
Q 422 1150 422 2328 
Q 422 3509 836 4129 
Q 1250 4750 2034 4750 
z
" transform="scale(0.015625)"/>
        <path id="DejaVuSans-2e" d="M 684 794 
L 1344 794 
L 1344 0 
L 684 0 
L 684 794 
z
" transform="scale(0.015625)"/>
        <path id="DejaVuSans-35" d="M 691 4666 
L 3169 4666 
L 3169 4134 
L 1269 4134 
L 1269 2991 
Q 1406 3038 1543 3061 
Q 1681 3084 1819 3084 
Q 2600 3084 3056 2656 
Q 3513 2228 3513 1497 
Q 3513 744 3044 326 
Q 2575 -91 1722 -91 
Q 1428 -91 1123 -41 
Q 819 9 494 109 
L 494 744 
Q 775 591 1075 516 
Q 1375 441 1709 441 
Q 2250 441 2565 725 
Q 2881 1009 2881 1497 
Q 2881 1984 2565 2268 
Q 2250 2553 1709 2553 
Q 1456 2553 1204 2497 
Q 953 2441 691 2322 
L 691 4666 
z
" transform="scale(0.015625)"/>
       </defs>
       <use xlink:href="#DejaVuSans-52"/>
       <use xlink:href="#DejaVuSans-61" x="67.232422"/>
       <use xlink:href="#DejaVuSans-6e" x="128.511719"/>
       <use xlink:href="#DejaVuSans-64" x="191.890625"/>
       <use xlink:href="#DejaVuSans-6f" x="255.367188"/>
       <use xlink:href="#DejaVuSans-6d" x="316.548828"/>
       <use xlink:href="#DejaVuSans-3a" x="413.960938"/>
       <use xlink:href="#DejaVuSans-20" x="447.652344"/>
       <use xlink:href="#DejaVuSans-30" x="479.439453"/>
       <use xlink:href="#DejaVuSans-2e" x="543.0625"/>
       <use xlink:href="#DejaVuSans-35" x="574.849609"/>
      </g>
     </g>
    </g>
    <g id="xtick_4">
     <g id="line2d_4">
      <g>
       <use xlink:href="#m8990ab2039" x="329.771818" y="337.97" style="stroke: #000000; stroke-width: 0.8"/>
      </g>
     </g>
     <g id="text_4">
      <!-- Adaptive -->
      <g transform="translate(331.979318 380.37875)rotate(-90)scale(0.08 -0.08)">
       <defs>
        <path id="DejaVuSans-41" d="M 2188 4044 
L 1331 1722 
L 3047 1722 
L 2188 4044 
z
M 1831 4666 
L 2547 4666 
L 4325 0 
L 3669 0 
L 3244 1197 
L 1141 1197 
L 716 0 
L 50 0 
L 1831 4666 
z
" transform="scale(0.015625)"/>
        <path id="DejaVuSans-70" d="M 1159 525 
L 1159 -1331 
L 581 -1331 
L 581 3500 
L 1159 3500 
L 1159 2969 
Q 1341 3281 1617 3432 
Q 1894 3584 2278 3584 
Q 2916 3584 3314 3078 
Q 3713 2572 3713 1747 
Q 3713 922 3314 415 
Q 2916 -91 2278 -91 
Q 1894 -91 1617 61 
Q 1341 213 1159 525 
z
M 3116 1747 
Q 3116 2381 2855 2742 
Q 2594 3103 2138 3103 
Q 1681 3103 1420 2742 
Q 1159 2381 1159 1747 
Q 1159 1113 1420 752 
Q 1681 391 2138 391 
Q 2594 391 2855 752 
Q 3116 1113 3116 1747 
z
" transform="scale(0.015625)"/>
        <path id="DejaVuSans-76" d="M 191 3500 
L 800 3500 
L 1894 563 
L 2988 3500 
L 3597 3500 
L 2284 0 
L 1503 0 
L 191 3500 
z
" transform="scale(0.015625)"/>
       </defs>
       <use xlink:href="#DejaVuSans-41"/>
       <use xlink:href="#DejaVuSans-64" x="66.658203"/>
       <use xlink:href="#DejaVuSans-61" x="130.134766"/>
       <use xlink:href="#DejaVuSans-70" x="191.414062"/>
       <use xlink:href="#DejaVuSans-74" x="254.890625"/>
       <use xlink:href="#DejaVuSans-69" x="294.099609"/>
       <use xlink:href="#DejaVuSans-76" x="321.882812"/>
       <use xlink:href="#DejaVuSans-65" x="381.0625"/>
      </g>
     </g>
    </g>
    <g id="xtick_5">
     <g id="line2d_5">
      <g>
       <use xlink:href="#m8990ab2039" x="404.547273" y="337.97" style="stroke: #000000; stroke-width: 0.8"/>
      </g>
     </g>
     <g id="text_5">
      <!-- Deep QLearner -->
      <g transform="translate(406.754773 405.46625)rotate(-90)scale(0.08 -0.08)">
       <defs>
        <path id="DejaVuSans-44" d="M 1259 4147 
L 1259 519 
L 2022 519 
Q 2988 519 3436 956 
Q 3884 1394 3884 2338 
Q 3884 3275 3436 3711 
Q 2988 4147 2022 4147 
L 1259 4147 
z
M 628 4666 
L 1925 4666 
Q 3281 4666 3915 4102 
Q 4550 3538 4550 2338 
Q 4550 1131 3912 565 
Q 3275 0 1925 0 
L 628 0 
L 628 4666 
z
" transform="scale(0.015625)"/>
        <path id="DejaVuSans-51" d="M 2522 4238 
Q 1834 4238 1429 3725 
Q 1025 3213 1025 2328 
Q 1025 1447 1429 934 
Q 1834 422 2522 422 
Q 3209 422 3611 934 
Q 4013 1447 4013 2328 
Q 4013 3213 3611 3725 
Q 3209 4238 2522 4238 
z
M 3406 84 
L 4238 -825 
L 3475 -825 
L 2784 -78 
Q 2681 -84 2626 -87 
Q 2572 -91 2522 -91 
Q 1538 -91 948 567 
Q 359 1225 359 2328 
Q 359 3434 948 4092 
Q 1538 4750 2522 4750 
Q 3503 4750 4090 4092 
Q 4678 3434 4678 2328 
Q 4678 1516 4351 937 
Q 4025 359 3406 84 
z
" transform="scale(0.015625)"/>
        <path id="DejaVuSans-4c" d="M 628 4666 
L 1259 4666 
L 1259 531 
L 3531 531 
L 3531 0 
L 628 0 
L 628 4666 
z
" transform="scale(0.015625)"/>
       </defs>
       <use xlink:href="#DejaVuSans-44"/>
       <use xlink:href="#DejaVuSans-65" x="77.001953"/>
       <use xlink:href="#DejaVuSans-65" x="138.525391"/>
       <use xlink:href="#DejaVuSans-70" x="200.048828"/>
       <use xlink:href="#DejaVuSans-20" x="263.525391"/>
       <use xlink:href="#DejaVuSans-51" x="295.3125"/>
       <use xlink:href="#DejaVuSans-4c" x="374.023438"/>
       <use xlink:href="#DejaVuSans-65" x="427.986328"/>
       <use xlink:href="#DejaVuSans-61" x="489.509766"/>
       <use xlink:href="#DejaVuSans-72" x="550.789062"/>
       <use xlink:href="#DejaVuSans-6e" x="590.152344"/>
       <use xlink:href="#DejaVuSans-65" x="653.53125"/>
       <use xlink:href="#DejaVuSans-72" x="715.054688"/>
      </g>
     </g>
    </g>
    <g id="xtick_6">
     <g id="line2d_6">
      <g>
       <use xlink:href="#m8990ab2039" x="479.322727" y="337.97" style="stroke: #000000; stroke-width: 0.8"/>
      </g>
     </g>
     <g id="text_6">
      <!-- Defector -->
      <g transform="translate(481.530227 379.51)rotate(-90)scale(0.08 -0.08)">
       <defs>
        <path id="DejaVuSans-66" d="M 2375 4863 
L 2375 4384 
L 1825 4384 
Q 1516 4384 1395 4259 
Q 1275 4134 1275 3809 
L 1275 3500 
L 2222 3500 
L 2222 3053 
L 1275 3053 
L 1275 0 
L 697 0 
L 697 3053 
L 147 3053 
L 147 3500 
L 697 3500 
L 697 3744 
Q 697 4328 969 4595 
Q 1241 4863 1831 4863 
L 2375 4863 
z
" transform="scale(0.015625)"/>
        <path id="DejaVuSans-63" d="M 3122 3366 
L 3122 2828 
Q 2878 2963 2633 3030 
Q 2388 3097 2138 3097 
Q 1578 3097 1268 2742 
Q 959 2388 959 1747 
Q 959 1106 1268 751 
Q 1578 397 2138 397 
Q 2388 397 2633 464 
Q 2878 531 3122 666 
L 3122 134 
Q 2881 22 2623 -34 
Q 2366 -91 2075 -91 
Q 1284 -91 818 406 
Q 353 903 353 1747 
Q 353 2603 823 3093 
Q 1294 3584 2113 3584 
Q 2378 3584 2631 3529 
Q 2884 3475 3122 3366 
z
" transform="scale(0.015625)"/>
       </defs>
       <use xlink:href="#DejaVuSans-44"/>
       <use xlink:href="#DejaVuSans-65" x="77.001953"/>
       <use xlink:href="#DejaVuSans-66" x="138.525391"/>
       <use xlink:href="#DejaVuSans-65" x="173.730469"/>
       <use xlink:href="#DejaVuSans-63" x="235.253906"/>
       <use xlink:href="#DejaVuSans-74" x="290.234375"/>
       <use xlink:href="#DejaVuSans-6f" x="329.443359"/>
       <use xlink:href="#DejaVuSans-72" x="390.625"/>
      </g>
     </g>
    </g>
    <g id="xtick_7">
     <g id="line2d_7">
      <g>
       <use xlink:href="#m8990ab2039" x="554.098182" y="337.97" style="stroke: #000000; stroke-width: 0.8"/>
      </g>
     </g>
     <g id="text_7">
      <!-- Alternator -->
      <g transform="translate(556.305682 385.165)rotate(-90)scale(0.08 -0.08)">
       <defs>
        <path id="DejaVuSans-6c" d="M 603 4863 
L 1178 4863 
L 1178 0 
L 603 0 
L 603 4863 
z
" transform="scale(0.015625)"/>
       </defs>
       <use xlink:href="#DejaVuSans-41"/>
       <use xlink:href="#DejaVuSans-6c" x="68.408203"/>
       <use xlink:href="#DejaVuSans-74" x="96.191406"/>
       <use xlink:href="#DejaVuSans-65" x="135.400391"/>
       <use xlink:href="#DejaVuSans-72" x="196.923828"/>
       <use xlink:href="#DejaVuSans-6e" x="236.287109"/>
       <use xlink:href="#DejaVuSans-61" x="299.666016"/>
       <use xlink:href="#DejaVuSans-74" x="360.945312"/>
       <use xlink:href="#DejaVuSans-6f" x="400.154297"/>
       <use xlink:href="#DejaVuSans-72" x="461.335938"/>
      </g>
     </g>
    </g>
    <g id="xtick_8">
     <g id="line2d_8">
      <g>
       <use xlink:href="#m8990ab2039" x="628.873636" y="337.97" style="stroke: #000000; stroke-width: 0.8"/>
      </g>
     </g>
     <g id="text_8">
      <!-- Mediocre QLearner -->
      <g transform="translate(631.081136 420.83375)rotate(-90)scale(0.08 -0.08)">
       <defs>
        <path id="DejaVuSans-4d" d="M 628 4666 
L 1569 4666 
L 2759 1491 
L 3956 4666 
L 4897 4666 
L 4897 0 
L 4281 0 
L 4281 4097 
L 3078 897 
L 2444 897 
L 1241 4097 
L 1241 0 
L 628 0 
L 628 4666 
z
" transform="scale(0.015625)"/>
       </defs>
       <use xlink:href="#DejaVuSans-4d"/>
       <use xlink:href="#DejaVuSans-65" x="86.279297"/>
       <use xlink:href="#DejaVuSans-64" x="147.802734"/>
       <use xlink:href="#DejaVuSans-69" x="211.279297"/>
       <use xlink:href="#DejaVuSans-6f" x="239.0625"/>
       <use xlink:href="#DejaVuSans-63" x="300.244141"/>
       <use xlink:href="#DejaVuSans-72" x="355.224609"/>
       <use xlink:href="#DejaVuSans-65" x="394.087891"/>
       <use xlink:href="#DejaVuSans-20" x="455.611328"/>
       <use xlink:href="#DejaVuSans-51" x="487.398438"/>
       <use xlink:href="#DejaVuSans-4c" x="566.109375"/>
       <use xlink:href="#DejaVuSans-65" x="620.072266"/>
       <use xlink:href="#DejaVuSans-61" x="681.595703"/>
       <use xlink:href="#DejaVuSans-72" x="742.875"/>
       <use xlink:href="#DejaVuSans-6e" x="782.238281"/>
       <use xlink:href="#DejaVuSans-65" x="845.617188"/>
       <use xlink:href="#DejaVuSans-72" x="907.140625"/>
      </g>
     </g>
    </g>
    <g id="xtick_9">
     <g id="line2d_9">
      <g>
       <use xlink:href="#m8990ab2039" x="703.649091" y="337.97" style="stroke: #000000; stroke-width: 0.8"/>
      </g>
     </g>
     <g id="text_9">
      <!-- Risky QLearner -->
      <g transform="translate(705.856591 405.40875)rotate(-90)scale(0.08 -0.08)">
       <defs>
        <path id="DejaVuSans-73" d="M 2834 3397 
L 2834 2853 
Q 2591 2978 2328 3040 
Q 2066 3103 1784 3103 
Q 1356 3103 1142 2972 
Q 928 2841 928 2578 
Q 928 2378 1081 2264 
Q 1234 2150 1697 2047 
L 1894 2003 
Q 2506 1872 2764 1633 
Q 3022 1394 3022 966 
Q 3022 478 2636 193 
Q 2250 -91 1575 -91 
Q 1294 -91 989 -36 
Q 684 19 347 128 
L 347 722 
Q 666 556 975 473 
Q 1284 391 1588 391 
Q 1994 391 2212 530 
Q 2431 669 2431 922 
Q 2431 1156 2273 1281 
Q 2116 1406 1581 1522 
L 1381 1569 
Q 847 1681 609 1914 
Q 372 2147 372 2553 
Q 372 3047 722 3315 
Q 1072 3584 1716 3584 
Q 2034 3584 2315 3537 
Q 2597 3491 2834 3397 
z
" transform="scale(0.015625)"/>
        <path id="DejaVuSans-6b" d="M 581 4863 
L 1159 4863 
L 1159 1991 
L 2875 3500 
L 3609 3500 
L 1753 1863 
L 3688 0 
L 2938 0 
L 1159 1709 
L 1159 0 
L 581 0 
L 581 4863 
z
" transform="scale(0.015625)"/>
        <path id="DejaVuSans-79" d="M 2059 -325 
Q 1816 -950 1584 -1140 
Q 1353 -1331 966 -1331 
L 506 -1331 
L 506 -850 
L 844 -850 
Q 1081 -850 1212 -737 
Q 1344 -625 1503 -206 
L 1606 56 
L 191 3500 
L 800 3500 
L 1894 763 
L 2988 3500 
L 3597 3500 
L 2059 -325 
z
" transform="scale(0.015625)"/>
       </defs>
       <use xlink:href="#DejaVuSans-52"/>
       <use xlink:href="#DejaVuSans-69" x="69.482422"/>
       <use xlink:href="#DejaVuSans-73" x="97.265625"/>
       <use xlink:href="#DejaVuSans-6b" x="149.365234"/>
       <use xlink:href="#DejaVuSans-79" x="203.650391"/>
       <use xlink:href="#DejaVuSans-20" x="262.830078"/>
       <use xlink:href="#DejaVuSans-51" x="294.617188"/>
       <use xlink:href="#DejaVuSans-4c" x="373.328125"/>
       <use xlink:href="#DejaVuSans-65" x="427.291016"/>
       <use xlink:href="#DejaVuSans-61" x="488.814453"/>
       <use xlink:href="#DejaVuSans-72" x="550.09375"/>
       <use xlink:href="#DejaVuSans-6e" x="589.457031"/>
       <use xlink:href="#DejaVuSans-65" x="652.835938"/>
       <use xlink:href="#DejaVuSans-72" x="714.359375"/>
      </g>
     </g>
    </g>
    <g id="xtick_10">
     <g id="line2d_10">
      <g>
       <use xlink:href="#m8990ab2039" x="778.424545" y="337.97" style="stroke: #000000; stroke-width: 0.8"/>
      </g>
     </g>
     <g id="text_10">
      <!-- Cooperator -->
      <g transform="translate(780.632045 389.85875)rotate(-90)scale(0.08 -0.08)">
       <defs>
        <path id="DejaVuSans-43" d="M 4122 4306 
L 4122 3641 
Q 3803 3938 3442 4084 
Q 3081 4231 2675 4231 
Q 1875 4231 1450 3742 
Q 1025 3253 1025 2328 
Q 1025 1406 1450 917 
Q 1875 428 2675 428 
Q 3081 428 3442 575 
Q 3803 722 4122 1019 
L 4122 359 
Q 3791 134 3420 21 
Q 3050 -91 2638 -91 
Q 1578 -91 968 557 
Q 359 1206 359 2328 
Q 359 3453 968 4101 
Q 1578 4750 2638 4750 
Q 3056 4750 3426 4639 
Q 3797 4528 4122 4306 
z
" transform="scale(0.015625)"/>
       </defs>
       <use xlink:href="#DejaVuSans-43"/>
       <use xlink:href="#DejaVuSans-6f" x="69.824219"/>
       <use xlink:href="#DejaVuSans-6f" x="131.005859"/>
       <use xlink:href="#DejaVuSans-70" x="192.1875"/>
       <use xlink:href="#DejaVuSans-65" x="255.664062"/>
       <use xlink:href="#DejaVuSans-72" x="317.1875"/>
       <use xlink:href="#DejaVuSans-61" x="358.300781"/>
       <use xlink:href="#DejaVuSans-74" x="419.580078"/>
       <use xlink:href="#DejaVuSans-6f" x="458.789062"/>
       <use xlink:href="#DejaVuSans-72" x="519.970703"/>
      </g>
     </g>
    </g>
   </g>
   <g id="matplotlib.axis_2">
    <g id="ytick_1">
     <g id="line2d_11">
      <defs>
       <path id="m6fe8f829f5" d="M 0 0 
L -3.5 0 
" style="stroke: #000000; stroke-width: 0.8"/>
      </defs>
      <g>
       <use xlink:href="#m6fe8f829f5" x="30.67" y="326.642012" style="stroke: #000000; stroke-width: 0.8"/>
      </g>
     </g>
     <g id="text_11">
      <!-- 1.6 -->
      <g transform="translate(10.9475 329.681387)scale(0.08 -0.08)">
       <defs>
        <path id="DejaVuSans-31" d="M 794 531 
L 1825 531 
L 1825 4091 
L 703 3866 
L 703 4441 
L 1819 4666 
L 2450 4666 
L 2450 531 
L 3481 531 
L 3481 0 
L 794 0 
L 794 531 
z
" transform="scale(0.015625)"/>
        <path id="DejaVuSans-36" d="M 2113 2584 
Q 1688 2584 1439 2293 
Q 1191 2003 1191 1497 
Q 1191 994 1439 701 
Q 1688 409 2113 409 
Q 2538 409 2786 701 
Q 3034 994 3034 1497 
Q 3034 2003 2786 2293 
Q 2538 2584 2113 2584 
z
M 3366 4563 
L 3366 3988 
Q 3128 4100 2886 4159 
Q 2644 4219 2406 4219 
Q 1781 4219 1451 3797 
Q 1122 3375 1075 2522 
Q 1259 2794 1537 2939 
Q 1816 3084 2150 3084 
Q 2853 3084 3261 2657 
Q 3669 2231 3669 1497 
Q 3669 778 3244 343 
Q 2819 -91 2113 -91 
Q 1303 -91 875 529 
Q 447 1150 447 2328 
Q 447 3434 972 4092 
Q 1497 4750 2381 4750 
Q 2619 4750 2861 4703 
Q 3103 4656 3366 4563 
z
" transform="scale(0.015625)"/>
       </defs>
       <use xlink:href="#DejaVuSans-31"/>
       <use xlink:href="#DejaVuSans-2e" x="63.623047"/>
       <use xlink:href="#DejaVuSans-36" x="95.410156"/>
      </g>
     </g>
    </g>
    <g id="ytick_2">
     <g id="line2d_12">
      <g>
       <use xlink:href="#m6fe8f829f5" x="30.67" y="289.142464" style="stroke: #000000; stroke-width: 0.8"/>
      </g>
     </g>
     <g id="text_12">
      <!-- 1.8 -->
      <g transform="translate(10.9475 292.181839)scale(0.08 -0.08)">
       <defs>
        <path id="DejaVuSans-38" d="M 2034 2216 
Q 1584 2216 1326 1975 
Q 1069 1734 1069 1313 
Q 1069 891 1326 650 
Q 1584 409 2034 409 
Q 2484 409 2743 651 
Q 3003 894 3003 1313 
Q 3003 1734 2745 1975 
Q 2488 2216 2034 2216 
z
M 1403 2484 
Q 997 2584 770 2862 
Q 544 3141 544 3541 
Q 544 4100 942 4425 
Q 1341 4750 2034 4750 
Q 2731 4750 3128 4425 
Q 3525 4100 3525 3541 
Q 3525 3141 3298 2862 
Q 3072 2584 2669 2484 
Q 3125 2378 3379 2068 
Q 3634 1759 3634 1313 
Q 3634 634 3220 271 
Q 2806 -91 2034 -91 
Q 1263 -91 848 271 
Q 434 634 434 1313 
Q 434 1759 690 2068 
Q 947 2378 1403 2484 
z
M 1172 3481 
Q 1172 3119 1398 2916 
Q 1625 2713 2034 2713 
Q 2441 2713 2670 2916 
Q 2900 3119 2900 3481 
Q 2900 3844 2670 4047 
Q 2441 4250 2034 4250 
Q 1625 4250 1398 4047 
Q 1172 3844 1172 3481 
z
" transform="scale(0.015625)"/>
       </defs>
       <use xlink:href="#DejaVuSans-31"/>
       <use xlink:href="#DejaVuSans-2e" x="63.623047"/>
       <use xlink:href="#DejaVuSans-38" x="95.410156"/>
      </g>
     </g>
    </g>
    <g id="ytick_3">
     <g id="line2d_13">
      <g>
       <use xlink:href="#m6fe8f829f5" x="30.67" y="251.642916" style="stroke: #000000; stroke-width: 0.8"/>
      </g>
     </g>
     <g id="text_13">
      <!-- 2.0 -->
      <g transform="translate(10.9475 254.682291)scale(0.08 -0.08)">
       <defs>
        <path id="DejaVuSans-32" d="M 1228 531 
L 3431 531 
L 3431 0 
L 469 0 
L 469 531 
Q 828 903 1448 1529 
Q 2069 2156 2228 2338 
Q 2531 2678 2651 2914 
Q 2772 3150 2772 3378 
Q 2772 3750 2511 3984 
Q 2250 4219 1831 4219 
Q 1534 4219 1204 4116 
Q 875 4013 500 3803 
L 500 4441 
Q 881 4594 1212 4672 
Q 1544 4750 1819 4750 
Q 2544 4750 2975 4387 
Q 3406 4025 3406 3419 
Q 3406 3131 3298 2873 
Q 3191 2616 2906 2266 
Q 2828 2175 2409 1742 
Q 1991 1309 1228 531 
z
" transform="scale(0.015625)"/>
       </defs>
       <use xlink:href="#DejaVuSans-32"/>
       <use xlink:href="#DejaVuSans-2e" x="63.623047"/>
       <use xlink:href="#DejaVuSans-30" x="95.410156"/>
      </g>
     </g>
    </g>
    <g id="ytick_4">
     <g id="line2d_14">
      <g>
       <use xlink:href="#m6fe8f829f5" x="30.67" y="214.143368" style="stroke: #000000; stroke-width: 0.8"/>
      </g>
     </g>
     <g id="text_14">
      <!-- 2.2 -->
      <g transform="translate(10.9475 217.182743)scale(0.08 -0.08)">
       <use xlink:href="#DejaVuSans-32"/>
       <use xlink:href="#DejaVuSans-2e" x="63.623047"/>
       <use xlink:href="#DejaVuSans-32" x="95.410156"/>
      </g>
     </g>
    </g>
    <g id="ytick_5">
     <g id="line2d_15">
      <g>
       <use xlink:href="#m6fe8f829f5" x="30.67" y="176.64382" style="stroke: #000000; stroke-width: 0.8"/>
      </g>
     </g>
     <g id="text_15">
      <!-- 2.4 -->
      <g transform="translate(10.9475 179.683195)scale(0.08 -0.08)">
       <defs>
        <path id="DejaVuSans-34" d="M 2419 4116 
L 825 1625 
L 2419 1625 
L 2419 4116 
z
M 2253 4666 
L 3047 4666 
L 3047 1625 
L 3713 1625 
L 3713 1100 
L 3047 1100 
L 3047 0 
L 2419 0 
L 2419 1100 
L 313 1100 
L 313 1709 
L 2253 4666 
z
" transform="scale(0.015625)"/>
       </defs>
       <use xlink:href="#DejaVuSans-32"/>
       <use xlink:href="#DejaVuSans-2e" x="63.623047"/>
       <use xlink:href="#DejaVuSans-34" x="95.410156"/>
      </g>
     </g>
    </g>
    <g id="ytick_6">
     <g id="line2d_16">
      <g>
       <use xlink:href="#m6fe8f829f5" x="30.67" y="139.144272" style="stroke: #000000; stroke-width: 0.8"/>
      </g>
     </g>
     <g id="text_16">
      <!-- 2.6 -->
      <g transform="translate(10.9475 142.183647)scale(0.08 -0.08)">
       <use xlink:href="#DejaVuSans-32"/>
       <use xlink:href="#DejaVuSans-2e" x="63.623047"/>
       <use xlink:href="#DejaVuSans-36" x="95.410156"/>
      </g>
     </g>
    </g>
    <g id="ytick_7">
     <g id="line2d_17">
      <g>
       <use xlink:href="#m6fe8f829f5" x="30.67" y="101.644724" style="stroke: #000000; stroke-width: 0.8"/>
      </g>
     </g>
     <g id="text_17">
      <!-- 2.8 -->
      <g transform="translate(10.9475 104.684099)scale(0.08 -0.08)">
       <use xlink:href="#DejaVuSans-32"/>
       <use xlink:href="#DejaVuSans-2e" x="63.623047"/>
       <use xlink:href="#DejaVuSans-38" x="95.410156"/>
      </g>
     </g>
    </g>
    <g id="ytick_8">
     <g id="line2d_18">
      <g>
       <use xlink:href="#m6fe8f829f5" x="30.67" y="64.145176" style="stroke: #000000; stroke-width: 0.8"/>
      </g>
     </g>
     <g id="text_18">
      <!-- 3.0 -->
      <g transform="translate(10.9475 67.184551)scale(0.08 -0.08)">
       <defs>
        <path id="DejaVuSans-33" d="M 2597 2516 
Q 3050 2419 3304 2112 
Q 3559 1806 3559 1356 
Q 3559 666 3084 287 
Q 2609 -91 1734 -91 
Q 1441 -91 1130 -33 
Q 819 25 488 141 
L 488 750 
Q 750 597 1062 519 
Q 1375 441 1716 441 
Q 2309 441 2620 675 
Q 2931 909 2931 1356 
Q 2931 1769 2642 2001 
Q 2353 2234 1838 2234 
L 1294 2234 
L 1294 2753 
L 1863 2753 
Q 2328 2753 2575 2939 
Q 2822 3125 2822 3475 
Q 2822 3834 2567 4026 
Q 2313 4219 1838 4219 
Q 1578 4219 1281 4162 
Q 984 4106 628 3988 
L 628 4550 
Q 988 4650 1302 4700 
Q 1616 4750 1894 4750 
Q 2613 4750 3031 4423 
Q 3450 4097 3450 3541 
Q 3450 3153 3228 2886 
Q 3006 2619 2597 2516 
z
" transform="scale(0.015625)"/>
       </defs>
       <use xlink:href="#DejaVuSans-33"/>
       <use xlink:href="#DejaVuSans-2e" x="63.623047"/>
       <use xlink:href="#DejaVuSans-30" x="95.410156"/>
      </g>
     </g>
    </g>
   </g>
   <g id="LineCollection_1">
    <path d="M 96.098523 142.477565 
L 114.792386 142.477565 
" clip-path="url(#pccdfe3e33e)" style="fill: none; stroke: #1f77b4; stroke-width: 1.5"/>
    <path d="M 170.873977 171.018887 
L 189.567841 171.018887 
" clip-path="url(#pccdfe3e33e)" style="fill: none; stroke: #1f77b4; stroke-width: 1.5"/>
    <path d="M 245.649432 180.758353 
L 264.343295 180.758353 
" clip-path="url(#pccdfe3e33e)" style="fill: none; stroke: #1f77b4; stroke-width: 1.5"/>
    <path d="M 320.424886 204.351819 
L 339.11875 204.351819 
" clip-path="url(#pccdfe3e33e)" style="fill: none; stroke: #1f77b4; stroke-width: 1.5"/>
    <path d="M 395.200341 204.612233 
L 413.894205 204.612233 
" clip-path="url(#pccdfe3e33e)" style="fill: none; stroke: #1f77b4; stroke-width: 1.5"/>
    <path d="M 469.975795 229.351518 
L 488.669659 229.351518 
" clip-path="url(#pccdfe3e33e)" style="fill: none; stroke: #1f77b4; stroke-width: 1.5"/>
    <path d="M 544.75125 231.278578 
L 563.445114 231.278578 
" clip-path="url(#pccdfe3e33e)" style="fill: none; stroke: #1f77b4; stroke-width: 1.5"/>
    <path d="M 619.526705 297.944441 
L 638.220568 297.944441 
" clip-path="url(#pccdfe3e33e)" style="fill: none; stroke: #1f77b4; stroke-width: 1.5"/>
    <path d="M 694.302159 302.475636 
L 712.996023 302.475636 
" clip-path="url(#pccdfe3e33e)" style="fill: none; stroke: #1f77b4; stroke-width: 1.5"/>
    <path d="M 769.077614 309.610967 
L 787.771477 309.610967 
" clip-path="url(#pccdfe3e33e)" style="fill: none; stroke: #1f77b4; stroke-width: 1.5"/>
   </g>
   <g id="patch_3">
    <path d="M 30.67 337.97 
L 30.67 26.88 
" style="fill: none; stroke: #000000; stroke-width: 0.8; stroke-linejoin: miter; stroke-linecap: square"/>
   </g>
   <g id="patch_4">
    <path d="M 853.2 337.97 
L 853.2 26.88 
" style="fill: none; stroke: #000000; stroke-width: 0.8; stroke-linejoin: miter; stroke-linecap: square"/>
   </g>
   <g id="patch_5">
    <path d="M 30.67 337.97 
L 853.2 337.97 
" style="fill: none; stroke: #000000; stroke-width: 0.8; stroke-linejoin: miter; stroke-linecap: square"/>
   </g>
   <g id="patch_6">
    <path d="M 30.67 26.88 
L 853.2 26.88 
" style="fill: none; stroke: #000000; stroke-width: 0.8; stroke-linejoin: miter; stroke-linecap: square"/>
   </g>
   <g id="text_19">
    <!-- Payoff - turns: 200, repetitions: 100, strategies: 10.  -->
    <g transform="translate(286.154375 20.88)scale(0.12 -0.12)">
     <defs>
      <path id="DejaVuSans-50" d="M 1259 4147 
L 1259 2394 
L 2053 2394 
Q 2494 2394 2734 2622 
Q 2975 2850 2975 3272 
Q 2975 3691 2734 3919 
Q 2494 4147 2053 4147 
L 1259 4147 
z
M 628 4666 
L 2053 4666 
Q 2838 4666 3239 4311 
Q 3641 3956 3641 3272 
Q 3641 2581 3239 2228 
Q 2838 1875 2053 1875 
L 1259 1875 
L 1259 0 
L 628 0 
L 628 4666 
z
" transform="scale(0.015625)"/>
      <path id="DejaVuSans-2d" d="M 313 2009 
L 1997 2009 
L 1997 1497 
L 313 1497 
L 313 2009 
z
" transform="scale(0.015625)"/>
      <path id="DejaVuSans-2c" d="M 750 794 
L 1409 794 
L 1409 256 
L 897 -744 
L 494 -744 
L 750 256 
L 750 794 
z
" transform="scale(0.015625)"/>
     </defs>
     <use xlink:href="#DejaVuSans-50"/>
     <use xlink:href="#DejaVuSans-61" x="55.802734"/>
     <use xlink:href="#DejaVuSans-79" x="117.082031"/>
     <use xlink:href="#DejaVuSans-6f" x="176.261719"/>
     <use xlink:href="#DejaVuSans-66" x="237.443359"/>
     <use xlink:href="#DejaVuSans-66" x="272.648438"/>
     <use xlink:href="#DejaVuSans-20" x="307.853516"/>
     <use xlink:href="#DejaVuSans-2d" x="339.640625"/>
     <use xlink:href="#DejaVuSans-20" x="375.724609"/>
     <use xlink:href="#DejaVuSans-74" x="407.511719"/>
     <use xlink:href="#DejaVuSans-75" x="446.720703"/>
     <use xlink:href="#DejaVuSans-72" x="510.099609"/>
     <use xlink:href="#DejaVuSans-6e" x="549.462891"/>
     <use xlink:href="#DejaVuSans-73" x="612.841797"/>
     <use xlink:href="#DejaVuSans-3a" x="664.941406"/>
     <use xlink:href="#DejaVuSans-20" x="698.632812"/>
     <use xlink:href="#DejaVuSans-32" x="730.419922"/>
     <use xlink:href="#DejaVuSans-30" x="794.042969"/>
     <use xlink:href="#DejaVuSans-30" x="857.666016"/>
     <use xlink:href="#DejaVuSans-2c" x="921.289062"/>
     <use xlink:href="#DejaVuSans-20" x="953.076172"/>
     <use xlink:href="#DejaVuSans-72" x="984.863281"/>
     <use xlink:href="#DejaVuSans-65" x="1023.726562"/>
     <use xlink:href="#DejaVuSans-70" x="1085.25"/>
     <use xlink:href="#DejaVuSans-65" x="1148.726562"/>
     <use xlink:href="#DejaVuSans-74" x="1210.25"/>
     <use xlink:href="#DejaVuSans-69" x="1249.458984"/>
     <use xlink:href="#DejaVuSans-74" x="1277.242188"/>
     <use xlink:href="#DejaVuSans-69" x="1316.451172"/>
     <use xlink:href="#DejaVuSans-6f" x="1344.234375"/>
     <use xlink:href="#DejaVuSans-6e" x="1405.416016"/>
     <use xlink:href="#DejaVuSans-73" x="1468.794922"/>
     <use xlink:href="#DejaVuSans-3a" x="1520.894531"/>
     <use xlink:href="#DejaVuSans-20" x="1554.585938"/>
     <use xlink:href="#DejaVuSans-31" x="1586.373047"/>
     <use xlink:href="#DejaVuSans-30" x="1649.996094"/>
     <use xlink:href="#DejaVuSans-30" x="1713.619141"/>
     <use xlink:href="#DejaVuSans-2c" x="1777.242188"/>
     <use xlink:href="#DejaVuSans-20" x="1809.029297"/>
     <use xlink:href="#DejaVuSans-73" x="1840.816406"/>
     <use xlink:href="#DejaVuSans-74" x="1892.916016"/>
     <use xlink:href="#DejaVuSans-72" x="1932.125"/>
     <use xlink:href="#DejaVuSans-61" x="1973.238281"/>
     <use xlink:href="#DejaVuSans-74" x="2034.517578"/>
     <use xlink:href="#DejaVuSans-65" x="2073.726562"/>
     <use xlink:href="#DejaVuSans-67" x="2135.25"/>
     <use xlink:href="#DejaVuSans-69" x="2198.726562"/>
     <use xlink:href="#DejaVuSans-65" x="2226.509766"/>
     <use xlink:href="#DejaVuSans-73" x="2288.033203"/>
     <use xlink:href="#DejaVuSans-3a" x="2340.132812"/>
     <use xlink:href="#DejaVuSans-20" x="2373.824219"/>
     <use xlink:href="#DejaVuSans-31" x="2405.611328"/>
     <use xlink:href="#DejaVuSans-30" x="2469.234375"/>
     <use xlink:href="#DejaVuSans-2e" x="2532.857422"/>
     <use xlink:href="#DejaVuSans-20" x="2564.644531"/>
    </g>
   </g>
  </g>
 </g>
 <defs>
  <clipPath id="pccdfe3e33e">
   <rect x="30.67" y="26.88" width="822.53" height="311.09"/>
  </clipPath>
 </defs>
</svg>
