<?xml version="1.0" encoding="utf-8" standalone="no"?>
<!DOCTYPE svg PUBLIC "-//W3C//DTD SVG 1.1//EN"
  "http://www.w3.org/Graphics/SVG/1.1/DTD/svg11.dtd">
<svg xmlns:xlink="http://www.w3.org/1999/xlink" width="864pt" height="432pt" viewBox="0 0 864 432" xmlns="http://www.w3.org/2000/svg" version="1.1">
 <metadata>
  <rdf:RDF xmlns:dc="http://purl.org/dc/elements/1.1/" xmlns:cc="http://creativecommons.org/ns#" xmlns:rdf="http://www.w3.org/1999/02/22-rdf-syntax-ns#">
   <cc:Work>
    <dc:type rdf:resource="http://purl.org/dc/dcmitype/StillImage"/>
    <dc:date>2022-09-13T19:49:27.129231</dc:date>
    <dc:format>image/svg+xml</dc:format>
    <dc:creator>
     <cc:Agent>
      <dc:title>Matplotlib v3.5.1, https://matplotlib.org/</dc:title>
     </cc:Agent>
    </dc:creator>
   </cc:Work>
  </rdf:RDF>
 </metadata>
 <defs>
  <style type="text/css">*{stroke-linejoin: round; stroke-linecap: butt}</style>
 </defs>
 <g id="figure_1">
  <g id="patch_1">
   <path d="M 0 432 
L 864 432 
L 864 0 
L 0 0 
z
" style="fill: #ffffff"/>
  </g>
  <g id="axes_1">
   <g id="patch_2">
    <path d="M 22.93 337.97 
L 853.2 337.97 
L 853.2 26.88 
L 22.93 26.88 
z
" style="fill: #ffffff"/>
   </g>
   <g id="PolyCollection_1">
    <path d="M 117.278864 42.4345 
L 79.539318 42.4345 
L 79.539318 42.4345 
L 79.539318 42.4345 
L 79.539318 42.4345 
L 79.539318 42.4345 
L 79.539318 42.4345 
L 79.539318 42.4345 
L 79.539318 42.4345 
L 79.539318 42.4345 
L 79.539318 42.4345 
L 79.539318 42.4345 
L 79.539318 42.4345 
L 79.539318 42.4345 
L 79.539318 42.4345 
L 79.539318 42.4345 
L 79.539318 42.4345 
L 79.539318 42.4345 
L 79.539318 42.4345 
L 79.539318 42.4345 
L 79.539318 42.4345 
L 79.539318 42.4345 
L 79.539318 42.4345 
L 79.539318 42.4345 
L 79.539318 42.4345 
L 79.539318 42.4345 
L 79.539318 42.4345 
L 79.539318 42.4345 
L 79.539318 42.4345 
L 79.539318 42.4345 
L 79.539318 42.4345 
L 79.539318 42.4345 
L 79.539318 42.4345 
L 79.539318 42.4345 
L 79.539318 42.4345 
L 79.539318 42.4345 
L 79.539318 42.4345 
L 79.539318 42.4345 
L 79.539318 42.4345 
L 79.539318 42.4345 
L 79.539318 42.4345 
L 79.539318 42.4345 
L 79.539318 42.4345 
L 79.539318 42.4345 
L 79.539318 42.4345 
L 79.539318 42.4345 
L 79.539318 42.4345 
L 79.539318 42.4345 
L 79.539318 42.4345 
L 79.539318 42.4345 
L 79.539318 42.4345 
L 79.539318 42.4345 
L 79.539318 42.4345 
L 79.539318 42.4345 
L 79.539318 42.4345 
L 79.539318 42.4345 
L 79.539318 42.4345 
L 79.539318 42.4345 
L 79.539318 42.4345 
L 79.539318 42.4345 
L 79.539318 42.4345 
L 79.539318 42.4345 
L 79.539318 42.4345 
L 79.539318 42.4345 
L 79.539318 42.4345 
L 79.539318 42.4345 
L 79.539318 42.4345 
L 79.539318 42.4345 
L 79.539318 42.4345 
L 79.539318 42.4345 
L 79.539318 42.4345 
L 79.539318 42.4345 
L 79.539318 42.4345 
L 79.539318 42.4345 
L 79.539318 42.4345 
L 79.539318 42.4345 
L 79.539318 42.4345 
L 79.539318 42.4345 
L 79.539318 42.4345 
L 79.539318 42.4345 
L 79.539318 42.4345 
L 79.539318 42.4345 
L 79.539318 42.4345 
L 79.539318 42.4345 
L 79.539318 42.4345 
L 79.539318 42.4345 
L 79.539318 42.4345 
L 79.539318 42.4345 
L 79.539318 42.4345 
L 79.539318 42.4345 
L 79.539318 42.4345 
L 79.539318 42.4345 
L 79.539318 42.4345 
L 79.539318 42.4345 
L 79.539318 42.4345 
L 79.539318 42.4345 
L 79.539318 42.4345 
L 79.539318 42.4345 
L 79.539318 42.4345 
L 79.539318 42.4345 
L 79.539318 42.4345 
L 117.278864 42.4345 
L 117.278864 42.4345 
L 117.278864 42.4345 
L 117.278864 42.4345 
L 117.278864 42.4345 
L 117.278864 42.4345 
L 117.278864 42.4345 
L 117.278864 42.4345 
L 117.278864 42.4345 
L 117.278864 42.4345 
L 117.278864 42.4345 
L 117.278864 42.4345 
L 117.278864 42.4345 
L 117.278864 42.4345 
L 117.278864 42.4345 
L 117.278864 42.4345 
L 117.278864 42.4345 
L 117.278864 42.4345 
L 117.278864 42.4345 
L 117.278864 42.4345 
L 117.278864 42.4345 
L 117.278864 42.4345 
L 117.278864 42.4345 
L 117.278864 42.4345 
L 117.278864 42.4345 
L 117.278864 42.4345 
L 117.278864 42.4345 
L 117.278864 42.4345 
L 117.278864 42.4345 
L 117.278864 42.4345 
L 117.278864 42.4345 
L 117.278864 42.4345 
L 117.278864 42.4345 
L 117.278864 42.4345 
L 117.278864 42.4345 
L 117.278864 42.4345 
L 117.278864 42.4345 
L 117.278864 42.4345 
L 117.278864 42.4345 
L 117.278864 42.4345 
L 117.278864 42.4345 
L 117.278864 42.4345 
L 117.278864 42.4345 
L 117.278864 42.4345 
L 117.278864 42.4345 
L 117.278864 42.4345 
L 117.278864 42.4345 
L 117.278864 42.4345 
L 117.278864 42.4345 
L 117.278864 42.4345 
L 117.278864 42.4345 
L 117.278864 42.4345 
L 117.278864 42.4345 
L 117.278864 42.4345 
L 117.278864 42.4345 
L 117.278864 42.4345 
L 117.278864 42.4345 
L 117.278864 42.4345 
L 117.278864 42.4345 
L 117.278864 42.4345 
L 117.278864 42.4345 
L 117.278864 42.4345 
L 117.278864 42.4345 
L 117.278864 42.4345 
L 117.278864 42.4345 
L 117.278864 42.4345 
L 117.278864 42.4345 
L 117.278864 42.4345 
L 117.278864 42.4345 
L 117.278864 42.4345 
L 117.278864 42.4345 
L 117.278864 42.4345 
L 117.278864 42.4345 
L 117.278864 42.4345 
L 117.278864 42.4345 
L 117.278864 42.4345 
L 117.278864 42.4345 
L 117.278864 42.4345 
L 117.278864 42.4345 
L 117.278864 42.4345 
L 117.278864 42.4345 
L 117.278864 42.4345 
L 117.278864 42.4345 
L 117.278864 42.4345 
L 117.278864 42.4345 
L 117.278864 42.4345 
L 117.278864 42.4345 
L 117.278864 42.4345 
L 117.278864 42.4345 
L 117.278864 42.4345 
L 117.278864 42.4345 
L 117.278864 42.4345 
L 117.278864 42.4345 
L 117.278864 42.4345 
L 117.278864 42.4345 
L 117.278864 42.4345 
L 117.278864 42.4345 
L 117.278864 42.4345 
L 117.278864 42.4345 
L 117.278864 42.4345 
L 117.278864 42.4345 
z
" clip-path="url(#p71dabeb3e9)" style="fill: #1f77b4; fill-opacity: 0.3"/>
   </g>
   <g id="PolyCollection_2">
    <path d="M 192.757955 135.7615 
L 155.018409 135.7615 
L 155.018409 135.7615 
L 155.018409 135.7615 
L 155.018409 135.7615 
L 155.018409 135.7615 
L 155.018409 135.7615 
L 155.018409 135.7615 
L 155.018409 135.7615 
L 155.018409 135.7615 
L 155.018409 135.7615 
L 155.018409 135.7615 
L 155.018409 135.7615 
L 155.018409 135.7615 
L 155.018409 135.7615 
L 155.018409 135.7615 
L 155.018409 135.7615 
L 155.018409 135.7615 
L 155.018409 135.7615 
L 155.018409 135.7615 
L 155.018409 135.7615 
L 155.018409 135.7615 
L 155.018409 135.7615 
L 155.018409 135.7615 
L 155.018409 135.7615 
L 155.018409 135.7615 
L 155.018409 135.7615 
L 155.018409 135.7615 
L 155.018409 135.7615 
L 155.018409 135.7615 
L 155.018409 135.7615 
L 155.018409 135.7615 
L 155.018409 135.7615 
L 155.018409 135.7615 
L 155.018409 135.7615 
L 155.018409 135.7615 
L 155.018409 135.7615 
L 155.018409 135.7615 
L 155.018409 135.7615 
L 155.018409 135.7615 
L 155.018409 135.7615 
L 155.018409 135.7615 
L 155.018409 135.7615 
L 155.018409 135.7615 
L 155.018409 135.7615 
L 155.018409 135.7615 
L 155.018409 135.7615 
L 155.018409 135.7615 
L 155.018409 135.7615 
L 155.018409 135.7615 
L 155.018409 135.7615 
L 155.018409 135.7615 
L 155.018409 135.7615 
L 155.018409 135.7615 
L 155.018409 135.7615 
L 155.018409 135.7615 
L 155.018409 135.7615 
L 155.018409 135.7615 
L 155.018409 135.7615 
L 155.018409 135.7615 
L 155.018409 135.7615 
L 155.018409 135.7615 
L 155.018409 135.7615 
L 155.018409 135.7615 
L 155.018409 135.7615 
L 155.018409 135.7615 
L 155.018409 135.7615 
L 155.018409 135.7615 
L 155.018409 135.7615 
L 155.018409 135.7615 
L 155.018409 135.7615 
L 155.018409 135.7615 
L 155.018409 135.7615 
L 155.018409 135.7615 
L 155.018409 135.7615 
L 155.018409 135.7615 
L 155.018409 135.7615 
L 155.018409 135.7615 
L 155.018409 135.7615 
L 155.018409 135.7615 
L 155.018409 135.7615 
L 155.018409 135.7615 
L 155.018409 135.7615 
L 155.018409 135.7615 
L 155.018409 135.7615 
L 155.018409 135.7615 
L 155.018409 135.7615 
L 155.018409 135.7615 
L 155.018409 135.7615 
L 155.018409 135.7615 
L 155.018409 135.7615 
L 155.018409 135.7615 
L 155.018409 135.7615 
L 155.018409 135.7615 
L 155.018409 135.7615 
L 155.018409 135.7615 
L 155.018409 135.7615 
L 155.018409 135.7615 
L 155.018409 135.7615 
L 155.018409 135.7615 
L 155.018409 135.7615 
L 192.757955 135.7615 
L 192.757955 135.7615 
L 192.757955 135.7615 
L 192.757955 135.7615 
L 192.757955 135.7615 
L 192.757955 135.7615 
L 192.757955 135.7615 
L 192.757955 135.7615 
L 192.757955 135.7615 
L 192.757955 135.7615 
L 192.757955 135.7615 
L 192.757955 135.7615 
L 192.757955 135.7615 
L 192.757955 135.7615 
L 192.757955 135.7615 
L 192.757955 135.7615 
L 192.757955 135.7615 
L 192.757955 135.7615 
L 192.757955 135.7615 
L 192.757955 135.7615 
L 192.757955 135.7615 
L 192.757955 135.7615 
L 192.757955 135.7615 
L 192.757955 135.7615 
L 192.757955 135.7615 
L 192.757955 135.7615 
L 192.757955 135.7615 
L 192.757955 135.7615 
L 192.757955 135.7615 
L 192.757955 135.7615 
L 192.757955 135.7615 
L 192.757955 135.7615 
L 192.757955 135.7615 
L 192.757955 135.7615 
L 192.757955 135.7615 
L 192.757955 135.7615 
L 192.757955 135.7615 
L 192.757955 135.7615 
L 192.757955 135.7615 
L 192.757955 135.7615 
L 192.757955 135.7615 
L 192.757955 135.7615 
L 192.757955 135.7615 
L 192.757955 135.7615 
L 192.757955 135.7615 
L 192.757955 135.7615 
L 192.757955 135.7615 
L 192.757955 135.7615 
L 192.757955 135.7615 
L 192.757955 135.7615 
L 192.757955 135.7615 
L 192.757955 135.7615 
L 192.757955 135.7615 
L 192.757955 135.7615 
L 192.757955 135.7615 
L 192.757955 135.7615 
L 192.757955 135.7615 
L 192.757955 135.7615 
L 192.757955 135.7615 
L 192.757955 135.7615 
L 192.757955 135.7615 
L 192.757955 135.7615 
L 192.757955 135.7615 
L 192.757955 135.7615 
L 192.757955 135.7615 
L 192.757955 135.7615 
L 192.757955 135.7615 
L 192.757955 135.7615 
L 192.757955 135.7615 
L 192.757955 135.7615 
L 192.757955 135.7615 
L 192.757955 135.7615 
L 192.757955 135.7615 
L 192.757955 135.7615 
L 192.757955 135.7615 
L 192.757955 135.7615 
L 192.757955 135.7615 
L 192.757955 135.7615 
L 192.757955 135.7615 
L 192.757955 135.7615 
L 192.757955 135.7615 
L 192.757955 135.7615 
L 192.757955 135.7615 
L 192.757955 135.7615 
L 192.757955 135.7615 
L 192.757955 135.7615 
L 192.757955 135.7615 
L 192.757955 135.7615 
L 192.757955 135.7615 
L 192.757955 135.7615 
L 192.757955 135.7615 
L 192.757955 135.7615 
L 192.757955 135.7615 
L 192.757955 135.7615 
L 192.757955 135.7615 
L 192.757955 135.7615 
L 192.757955 135.7615 
L 192.757955 135.7615 
L 192.757955 135.7615 
L 192.757955 135.7615 
L 192.757955 135.7615 
z
" clip-path="url(#p71dabeb3e9)" style="fill: #1f77b4; fill-opacity: 0.3"/>
   </g>
   <g id="PolyCollection_3">
    <path d="M 249.633053 197.9795 
L 249.101492 197.9795 
L 249.102954 197.351035 
L 249.107301 196.722571 
L 249.114386 196.094106 
L 249.123976 195.465641 
L 249.13576 194.837177 
L 249.149364 194.208712 
L 249.16437 193.580247 
L 249.18033 192.951783 
L 249.196784 192.323318 
L 249.213272 191.694854 
L 249.22934 191.066389 
L 249.244552 190.437924 
L 249.258476 189.80946 
L 249.270686 189.180995 
L 249.280735 188.55253 
L 249.288142 187.924066 
L 249.292351 187.295601 
L 249.292707 186.667136 
L 249.288406 186.038672 
L 249.278461 185.410207 
L 249.261656 184.781742 
L 249.236509 184.153278 
L 249.201244 183.524813 
L 249.153771 182.896348 
L 249.091683 182.267884 
L 249.01228 181.639419 
L 248.912618 181.010955 
L 248.789584 180.38249 
L 248.640019 179.754025 
L 248.46086 179.125561 
L 248.249329 178.497096 
L 248.003146 177.868631 
L 247.720758 177.240167 
L 247.401586 176.611702 
L 247.04625 175.983237 
L 246.656783 175.354773 
L 246.236781 174.726308 
L 245.791504 174.097843 
L 245.327883 173.469379 
L 244.854428 172.840914 
L 244.381041 172.212449 
L 243.918718 171.583985 
L 243.479149 170.95552 
L 243.074254 170.327056 
L 242.715651 169.698591 
L 242.41411 169.070126 
L 242.179014 168.441662 
L 242.017882 167.813197 
L 241.935961 167.184732 
L 241.935947 166.556268 
L 242.017839 165.927803 
L 242.17893 165.299338 
L 242.413963 164.670874 
L 242.715404 164.042409 
L 243.073848 163.413944 
L 243.47849 162.78548 
L 243.917661 162.157015 
L 244.379368 161.528551 
L 244.851806 160.900086 
L 245.32382 160.271621 
L 245.78528 159.643157 
L 246.227349 159.014692 
L 246.642647 158.386227 
L 247.0253 157.757763 
L 247.370876 157.129298 
L 247.67624 156.500833 
L 247.939322 155.872369 
L 248.158837 155.243904 
L 248.333969 154.615439 
L 248.464051 153.986975 
L 248.548246 153.35851 
L 248.585274 152.730045 
L 248.573177 152.101581 
L 248.509155 151.473116 
L 248.38949 150.844652 
L 248.209555 150.216187 
L 247.96393 149.587722 
L 247.646629 148.959258 
L 247.251426 148.330793 
L 246.772301 147.702328 
L 246.203957 147.073864 
L 245.542424 146.445399 
L 244.785687 145.816934 
L 243.934328 145.18847 
L 242.99211 144.560005 
L 241.966481 143.93154 
L 240.868913 143.303076 
L 239.715063 142.674611 
L 238.524694 142.046146 
L 237.321329 141.417682 
L 236.131639 140.789217 
L 234.984577 140.160753 
L 233.910272 139.532288 
L 232.93876 138.903823 
L 232.098614 138.275359 
L 231.415563 137.646894 
L 230.911185 137.018429 
L 230.60178 136.389965 
L 230.4975 135.7615 
L 268.237045 135.7615 
L 268.237045 135.7615 
L 268.132765 136.389965 
L 267.823361 137.018429 
L 267.318982 137.646894 
L 266.635931 138.275359 
L 265.795786 138.903823 
L 264.824274 139.532288 
L 263.749968 140.160753 
L 262.602906 140.789217 
L 261.413217 141.417682 
L 260.209851 142.046146 
L 259.019482 142.674611 
L 257.865633 143.303076 
L 256.768065 143.93154 
L 255.742435 144.560005 
L 254.800218 145.18847 
L 253.948859 145.816934 
L 253.192122 146.445399 
L 252.530588 147.073864 
L 251.962244 147.702328 
L 251.483119 148.330793 
L 251.087917 148.959258 
L 250.770615 149.587722 
L 250.524991 150.216187 
L 250.345056 150.844652 
L 250.225391 151.473116 
L 250.161369 152.101581 
L 250.149271 152.730045 
L 250.186299 153.35851 
L 250.270495 153.986975 
L 250.400576 154.615439 
L 250.575709 155.243904 
L 250.795223 155.872369 
L 251.058305 156.500833 
L 251.363669 157.129298 
L 251.709246 157.757763 
L 252.091898 158.386227 
L 252.507197 159.014692 
L 252.949265 159.643157 
L 253.410725 160.271621 
L 253.88274 160.900086 
L 254.355178 161.528551 
L 254.816884 162.157015 
L 255.256056 162.78548 
L 255.660698 163.413944 
L 256.019141 164.042409 
L 256.320583 164.670874 
L 256.555615 165.299338 
L 256.716706 165.927803 
L 256.798598 166.556268 
L 256.798585 167.184732 
L 256.716664 167.813197 
L 256.555531 168.441662 
L 256.320436 169.070126 
L 256.018894 169.698591 
L 255.660291 170.327056 
L 255.255396 170.95552 
L 254.815828 171.583985 
L 254.353504 172.212449 
L 253.880118 172.840914 
L 253.406663 173.469379 
L 252.943041 174.097843 
L 252.497765 174.726308 
L 252.077763 175.354773 
L 251.688295 175.983237 
L 251.33296 176.611702 
L 251.013787 177.240167 
L 250.7314 177.868631 
L 250.485216 178.497096 
L 250.273686 179.125561 
L 250.094526 179.754025 
L 249.944961 180.38249 
L 249.821928 181.010955 
L 249.722265 181.639419 
L 249.642863 182.267884 
L 249.580774 182.896348 
L 249.533301 183.524813 
L 249.498036 184.153278 
L 249.47289 184.781742 
L 249.456084 185.410207 
L 249.446139 186.038672 
L 249.441839 186.667136 
L 249.442194 187.295601 
L 249.446404 187.924066 
L 249.45381 188.55253 
L 249.46386 189.180995 
L 249.476069 189.80946 
L 249.489994 190.437924 
L 249.505205 191.066389 
L 249.521274 191.694854 
L 249.537761 192.323318 
L 249.554215 192.951783 
L 249.570176 193.580247 
L 249.585182 194.208712 
L 249.598786 194.837177 
L 249.61057 195.465641 
L 249.62016 196.094106 
L 249.627245 196.722571 
L 249.631591 197.351035 
L 249.633053 197.9795 
z
" clip-path="url(#p71dabeb3e9)" style="fill: #1f77b4; fill-opacity: 0.3"/>
   </g>
   <g id="PolyCollection_4">
    <path d="M 334.996263 197.9795 
L 314.696464 197.9795 
L 314.719892 197.351035 
L 314.799097 196.722571 
L 314.932194 196.094106 
L 315.11627 195.465641 
L 315.347442 194.837177 
L 315.620934 194.208712 
L 315.931166 193.580247 
L 316.271868 192.951783 
L 316.636201 192.323318 
L 317.016884 191.694854 
L 317.406325 191.066389 
L 317.796748 190.437924 
L 318.180325 189.80946 
L 318.549283 189.180995 
L 318.896024 188.55253 
L 319.213217 187.924066 
L 319.493889 187.295601 
L 319.731505 186.667136 
L 319.920038 186.038672 
L 320.054034 185.410207 
L 320.128669 184.781742 
L 320.139806 184.153278 
L 320.084049 183.524813 
L 319.958798 182.896348 
L 319.762301 182.267884 
L 319.493711 181.639419 
L 319.15314 181.010955 
L 318.741711 180.38249 
L 318.261606 179.754025 
L 317.716105 179.125561 
L 317.109614 178.497096 
L 316.447678 177.868631 
L 315.736973 177.240167 
L 314.985274 176.611702 
L 314.201396 175.983237 
L 313.395107 175.354773 
L 312.577005 174.726308 
L 311.758366 174.097843 
L 310.950967 173.469379 
L 310.166871 172.840914 
L 309.418196 172.212449 
L 308.716869 171.583985 
L 308.074363 170.95552 
L 307.501437 170.327056 
L 307.00788 169.698591 
L 306.602274 169.070126 
L 306.291779 168.441662 
L 306.081949 167.813197 
L 305.976591 167.184732 
L 305.977667 166.556268 
L 306.085244 165.927803 
L 306.2975 165.299338 
L 306.610774 164.670874 
L 307.019668 164.042409 
L 307.517201 163.413944 
L 308.094988 162.78548 
L 308.743465 162.157015 
L 309.45213 161.528551 
L 310.209804 160.900086 
L 311.004894 160.271621 
L 311.825658 159.643157 
L 312.660452 159.014692 
L 313.49797 158.386227 
L 314.327449 157.757763 
L 315.13885 157.129298 
L 315.923005 156.500833 
L 316.671733 155.872369 
L 317.377921 155.243904 
L 318.035566 154.615439 
L 318.639804 153.986975 
L 319.186888 153.35851 
L 319.674168 152.730045 
L 320.100035 152.101581 
L 320.463859 151.473116 
L 320.765917 150.844652 
L 321.007315 150.216187 
L 321.189908 149.587722 
L 321.316217 148.959258 
L 321.389357 148.330793 
L 321.412959 147.702328 
L 321.391102 147.073864 
L 321.328246 146.445399 
L 321.22917 145.816934 
L 321.098912 145.18847 
L 320.942708 144.560005 
L 320.765932 143.93154 
L 320.574034 143.303076 
L 320.37248 142.674611 
L 320.166682 142.046146 
L 319.961929 141.417682 
L 319.763321 140.789217 
L 319.575692 140.160753 
L 319.403541 139.532288 
L 319.250966 138.903823 
L 319.121594 138.275359 
L 319.018528 137.646894 
L 318.944298 137.018429 
L 318.900818 136.389965 
L 318.889367 135.7615 
L 330.80336 135.7615 
L 330.80336 135.7615 
L 330.79191 136.389965 
L 330.74843 137.018429 
L 330.674199 137.646894 
L 330.571134 138.275359 
L 330.441762 138.903823 
L 330.289186 139.532288 
L 330.117036 140.160753 
L 329.929406 140.789217 
L 329.730798 141.417682 
L 329.526045 142.046146 
L 329.320247 142.674611 
L 329.118693 143.303076 
L 328.926796 143.93154 
L 328.750019 144.560005 
L 328.593815 145.18847 
L 328.463557 145.816934 
L 328.364481 146.445399 
L 328.301625 147.073864 
L 328.279768 147.702328 
L 328.30337 148.330793 
L 328.37651 148.959258 
L 328.50282 149.587722 
L 328.685412 150.216187 
L 328.926811 150.844652 
L 329.228869 151.473116 
L 329.592692 152.101581 
L 330.018559 152.730045 
L 330.505839 153.35851 
L 331.052924 153.986975 
L 331.657161 154.615439 
L 332.314807 155.243904 
L 333.020994 155.872369 
L 333.769722 156.500833 
L 334.553877 157.129298 
L 335.365278 157.757763 
L 336.194757 158.386227 
L 337.032275 159.014692 
L 337.86707 159.643157 
L 338.687833 160.271621 
L 339.482923 160.900086 
L 340.240597 161.528551 
L 340.949262 162.157015 
L 341.597739 162.78548 
L 342.175526 163.413944 
L 342.673059 164.042409 
L 343.081954 164.670874 
L 343.395227 165.299338 
L 343.607483 165.927803 
L 343.715061 166.556268 
L 343.716136 167.184732 
L 343.610778 167.813197 
L 343.400948 168.441662 
L 343.090453 169.070126 
L 342.684847 169.698591 
L 342.19129 170.327056 
L 341.618364 170.95552 
L 340.975858 171.583985 
L 340.274531 172.212449 
L 339.525857 172.840914 
L 338.74176 173.469379 
L 337.934361 174.097843 
L 337.115723 174.726308 
L 336.29762 175.354773 
L 335.491331 175.983237 
L 334.707454 176.611702 
L 333.955755 177.240167 
L 333.24505 177.868631 
L 332.583114 178.497096 
L 331.976622 179.125561 
L 331.431121 179.754025 
L 330.951016 180.38249 
L 330.539587 181.010955 
L 330.199017 181.639419 
L 329.930427 182.267884 
L 329.733929 182.896348 
L 329.608678 183.524813 
L 329.552921 184.153278 
L 329.564058 184.781742 
L 329.638693 185.410207 
L 329.772689 186.038672 
L 329.961222 186.667136 
L 330.198839 187.295601 
L 330.479511 187.924066 
L 330.796703 188.55253 
L 331.143444 189.180995 
L 331.512403 189.80946 
L 331.895979 190.437924 
L 332.286403 191.066389 
L 332.675843 191.694854 
L 333.056526 192.323318 
L 333.42086 192.951783 
L 333.761562 193.580247 
L 334.071793 194.208712 
L 334.345285 194.837177 
L 334.576458 195.465641 
L 334.760534 196.094106 
L 334.89363 196.722571 
L 334.972836 197.351035 
L 334.996263 197.9795 
z
" clip-path="url(#p71dabeb3e9)" style="fill: #1f77b4; fill-opacity: 0.3"/>
   </g>
   <g id="PolyCollection_5">
    <path d="M 406.932089 229.0885 
L 393.71882 229.0885 
L 393.577263 227.831571 
L 393.45791 226.574641 
L 393.351581 225.317712 
L 393.247267 224.060783 
L 393.132659 222.803854 
L 392.994819 221.546924 
L 392.820941 220.289995 
L 392.59917 219.033066 
L 392.319435 217.776136 
L 391.974223 216.519207 
L 391.559266 215.262278 
L 391.074063 214.005348 
L 390.522212 212.748419 
L 389.911504 211.49149 
L 389.253761 210.234561 
L 388.564406 208.977631 
L 387.861783 207.720702 
L 387.166248 206.463773 
L 386.499084 205.206843 
L 385.88129 203.949914 
L 385.332328 202.692985 
L 384.868905 201.436056 
L 384.503866 200.179126 
L 384.245286 198.922197 
L 384.095822 197.665268 
L 384.05238 196.408338 
L 384.106137 195.151409 
L 384.242911 193.89448 
L 384.443892 192.637551 
L 384.686672 191.380621 
L 384.946534 190.123692 
L 385.197908 188.866763 
L 385.415921 187.609833 
L 385.577934 186.352904 
L 385.664966 185.095975 
L 385.662932 183.839045 
L 385.563588 182.582116 
L 385.365146 181.325187 
L 385.072503 180.068258 
L 384.69706 178.811328 
L 384.256157 177.554399 
L 383.772138 176.29747 
L 383.271114 175.04054 
L 382.781484 173.783611 
L 382.332326 172.526682 
L 381.951743 171.269753 
L 381.665273 170.012823 
L 381.494461 168.755894 
L 381.455682 167.498965 
L 381.559286 166.242035 
L 381.809117 164.985106 
L 382.202418 163.728177 
L 382.730133 162.471247 
L 383.377562 161.214318 
L 384.125323 159.957389 
L 384.950548 158.70046 
L 385.828227 157.44353 
L 386.732607 156.186601 
L 387.638557 154.929672 
L 388.522818 153.672742 
L 389.365065 152.415813 
L 390.148732 151.158884 
L 390.861557 149.901955 
L 391.495843 148.645025 
L 392.048438 147.388096 
L 392.520456 146.131167 
L 392.916771 144.874237 
L 393.245349 143.617308 
L 393.516457 142.360379 
L 393.74181 141.103449 
L 393.933723 139.84652 
L 394.104301 138.589591 
L 394.264733 137.332662 
L 394.424708 136.075732 
L 394.591975 134.818803 
L 394.772087 133.561874 
L 394.968285 132.304944 
L 395.18156 131.048015 
L 395.410843 129.791086 
L 395.653306 128.534157 
L 395.904757 127.277227 
L 396.160078 126.020298 
L 396.413681 124.763369 
L 396.659962 123.506439 
L 396.8937 122.24951 
L 397.110407 120.992581 
L 397.306591 119.735652 
L 397.479935 118.478722 
L 397.629382 117.221793 
L 397.755132 115.964864 
L 397.858557 114.707934 
L 397.942048 113.451005 
L 398.008809 112.194076 
L 398.062616 110.937146 
L 398.107556 109.680217 
L 398.147773 108.423288 
L 398.187222 107.166359 
L 398.229462 105.909429 
L 398.277483 104.6525 
L 402.373426 104.6525 
L 402.373426 104.6525 
L 402.421447 105.909429 
L 402.463687 107.166359 
L 402.503136 108.423288 
L 402.543353 109.680217 
L 402.588293 110.937146 
L 402.6421 112.194076 
L 402.708861 113.451005 
L 402.792352 114.707934 
L 402.895777 115.964864 
L 403.021527 117.221793 
L 403.170974 118.478722 
L 403.344318 119.735652 
L 403.540502 120.992581 
L 403.757209 122.24951 
L 403.990947 123.506439 
L 404.237228 124.763369 
L 404.490832 126.020298 
L 404.746152 127.277227 
L 404.997603 128.534157 
L 405.240066 129.791086 
L 405.469349 131.048015 
L 405.682624 132.304944 
L 405.878822 133.561874 
L 406.058934 134.818803 
L 406.226202 136.075732 
L 406.386176 137.332662 
L 406.546608 138.589591 
L 406.717187 139.84652 
L 406.909099 141.103449 
L 407.134452 142.360379 
L 407.40556 143.617308 
L 407.734138 144.874237 
L 408.130453 146.131167 
L 408.602471 147.388096 
L 409.155066 148.645025 
L 409.789352 149.901955 
L 410.502177 151.158884 
L 411.285844 152.415813 
L 412.128091 153.672742 
L 413.012352 154.929672 
L 413.918302 156.186601 
L 414.822682 157.44353 
L 415.700361 158.70046 
L 416.525587 159.957389 
L 417.273347 161.214318 
L 417.920776 162.471247 
L 418.448491 163.728177 
L 418.841792 164.985106 
L 419.091623 166.242035 
L 419.195227 167.498965 
L 419.156448 168.755894 
L 418.985636 170.012823 
L 418.699166 171.269753 
L 418.318584 172.526682 
L 417.869425 173.783611 
L 417.379795 175.04054 
L 416.878771 176.29747 
L 416.394753 177.554399 
L 415.95385 178.811328 
L 415.578406 180.068258 
L 415.285763 181.325187 
L 415.087322 182.582116 
L 414.987977 183.839045 
L 414.985943 185.095975 
L 415.072975 186.352904 
L 415.234988 187.609833 
L 415.453001 188.866763 
L 415.704375 190.123692 
L 415.964237 191.380621 
L 416.207017 192.637551 
L 416.407998 193.89448 
L 416.544772 195.151409 
L 416.598529 196.408338 
L 416.555088 197.665268 
L 416.405623 198.922197 
L 416.147043 200.179126 
L 415.782004 201.436056 
L 415.318581 202.692985 
L 414.769619 203.949914 
L 414.151825 205.206843 
L 413.484661 206.463773 
L 412.789126 207.720702 
L 412.086503 208.977631 
L 411.397148 210.234561 
L 410.739405 211.49149 
L 410.128697 212.748419 
L 409.576846 214.005348 
L 409.091643 215.262278 
L 408.676686 216.519207 
L 408.331474 217.776136 
L 408.051739 219.033066 
L 407.829968 220.289995 
L 407.65609 221.546924 
L 407.51825 222.803854 
L 407.403642 224.060783 
L 407.299328 225.317712 
L 407.192999 226.574641 
L 407.073646 227.831571 
L 406.932089 229.0885 
z
" clip-path="url(#p71dabeb3e9)" style="fill: #1f77b4; fill-opacity: 0.3"/>
   </g>
   <g id="PolyCollection_6">
    <path d="M 476.839108 260.1975 
L 474.769983 260.1975 
L 474.588042 258.626338 
L 474.36427 257.055177 
L 474.090485 255.484015 
L 473.758778 253.912854 
L 473.36223 252.341692 
L 472.895719 250.77053 
L 472.356768 249.199369 
L 471.746339 247.628207 
L 471.069484 246.057045 
L 470.335755 244.485884 
L 469.55928 242.914722 
L 468.758438 241.343561 
L 467.955084 239.772399 
L 467.173353 238.201237 
L 466.438083 236.630076 
L 465.772974 235.058914 
L 465.198643 233.487753 
L 464.730747 231.916591 
L 464.378385 230.345429 
L 464.142961 228.774268 
L 464.01766 227.203106 
L 463.987649 225.631944 
L 464.031016 224.060783 
L 464.120422 222.489621 
L 464.225331 220.91846 
L 464.314624 219.347298 
L 464.359375 217.776136 
L 464.335499 216.204975 
L 464.226037 214.633813 
L 464.022802 213.062652 
L 463.727239 211.49149 
L 463.350365 209.920328 
L 462.911772 208.349167 
L 462.437774 206.778005 
L 461.958834 205.206843 
L 461.50654 203.635682 
L 461.110389 202.06452 
L 460.794713 200.493359 
L 460.57607 198.922197 
L 460.461343 197.351035 
L 460.446803 195.779874 
L 460.518213 194.208712 
L 460.652014 192.637551 
L 460.817497 191.066389 
L 460.979758 189.495227 
L 461.103168 187.924066 
L 461.155017 186.352904 
L 461.108981 184.781742 
L 460.948059 183.210581 
L 460.666686 181.639419 
L 460.271793 180.068258 
L 459.782697 178.497096 
L 459.229805 176.925934 
L 458.652246 175.354773 
L 458.094647 173.783611 
L 457.603352 172.212449 
L 457.222453 170.641288 
L 456.99 169.070126 
L 456.934773 167.498965 
L 457.073901 165.927803 
L 457.41156 164.356641 
L 457.938838 162.78548 
L 458.634767 161.214318 
L 459.468367 159.643157 
L 460.401497 158.071995 
L 461.392181 156.500833 
L 462.398098 154.929672 
L 463.379884 153.35851 
L 464.303964 151.787348 
L 465.144672 150.216187 
L 465.88553 148.645025 
L 466.519623 147.073864 
L 467.04911 145.502702 
L 467.484007 143.93154 
L 467.840402 142.360379 
L 468.138319 140.789217 
L 468.39948 139.218056 
L 468.645157 137.646894 
L 468.894311 136.075732 
L 469.162157 134.504571 
L 469.45924 132.933409 
L 469.791048 131.362247 
L 470.158133 129.791086 
L 470.556664 128.219924 
L 470.97932 126.648763 
L 471.416372 125.077601 
L 471.856852 123.506439 
L 472.289665 121.935278 
L 472.704567 120.364116 
L 473.092917 118.792955 
L 473.448184 117.221793 
L 473.766186 115.650631 
L 474.045089 114.07947 
L 474.285203 112.508308 
L 474.488627 110.937146 
L 474.65881 109.365985 
L 474.800067 107.794823 
L 474.917119 106.223662 
L 475.014685 104.6525 
L 476.594406 104.6525 
L 476.594406 104.6525 
L 476.691972 106.223662 
L 476.809024 107.794823 
L 476.950281 109.365985 
L 477.120464 110.937146 
L 477.323888 112.508308 
L 477.564002 114.07947 
L 477.842905 115.650631 
L 478.160907 117.221793 
L 478.516174 118.792955 
L 478.904524 120.364116 
L 479.319426 121.935278 
L 479.752239 123.506439 
L 480.192719 125.077601 
L 480.629771 126.648763 
L 481.052427 128.219924 
L 481.450958 129.791086 
L 481.818043 131.362247 
L 482.149851 132.933409 
L 482.446934 134.504571 
L 482.71478 136.075732 
L 482.963933 137.646894 
L 483.209611 139.218056 
L 483.470772 140.789217 
L 483.768689 142.360379 
L 484.125083 143.93154 
L 484.559981 145.502702 
L 485.089468 147.073864 
L 485.72356 148.645025 
L 486.464419 150.216187 
L 487.305127 151.787348 
L 488.229207 153.35851 
L 489.210993 154.929672 
L 490.21691 156.500833 
L 491.207594 158.071995 
L 492.140724 159.643157 
L 492.974324 161.214318 
L 493.670253 162.78548 
L 494.197531 164.356641 
L 494.53519 165.927803 
L 494.674318 167.498965 
L 494.619091 169.070126 
L 494.386638 170.641288 
L 494.005739 172.212449 
L 493.514444 173.783611 
L 492.956845 175.354773 
L 492.379286 176.925934 
L 491.826393 178.497096 
L 491.337298 180.068258 
L 490.942405 181.639419 
L 490.661032 183.210581 
L 490.50011 184.781742 
L 490.454074 186.352904 
L 490.505923 187.924066 
L 490.629333 189.495227 
L 490.791594 191.066389 
L 490.957077 192.637551 
L 491.090878 194.208712 
L 491.162288 195.779874 
L 491.147748 197.351035 
L 491.033021 198.922197 
L 490.814377 200.493359 
L 490.498702 202.06452 
L 490.102551 203.635682 
L 489.650257 205.206843 
L 489.171317 206.778005 
L 488.697319 208.349167 
L 488.258726 209.920328 
L 487.881852 211.49149 
L 487.586289 213.062652 
L 487.383054 214.633813 
L 487.273592 216.204975 
L 487.249716 217.776136 
L 487.294466 219.347298 
L 487.38376 220.91846 
L 487.488669 222.489621 
L 487.578075 224.060783 
L 487.621442 225.631944 
L 487.591431 227.203106 
L 487.46613 228.774268 
L 487.230706 230.345429 
L 486.878344 231.916591 
L 486.410448 233.487753 
L 485.836117 235.058914 
L 485.171008 236.630076 
L 484.435738 238.201237 
L 483.654007 239.772399 
L 482.850653 241.343561 
L 482.049811 242.914722 
L 481.273336 244.485884 
L 480.539607 246.057045 
L 479.862752 247.628207 
L 479.252322 249.199369 
L 478.713372 250.77053 
L 478.246861 252.341692 
L 477.850313 253.912854 
L 477.518606 255.484015 
L 477.244821 257.055177 
L 477.021049 258.626338 
L 476.839108 260.1975 
z
" clip-path="url(#p71dabeb3e9)" style="fill: #1f77b4; fill-opacity: 0.3"/>
   </g>
   <g id="PolyCollection_7">
    <path d="M 566.769886 291.3065 
L 535.797387 291.3065 
L 535.844229 290.678035 
L 535.988302 290.049571 
L 536.226512 289.421106 
L 536.553919 288.792641 
L 536.963862 288.164177 
L 537.448138 287.535712 
L 537.997215 286.907247 
L 538.600481 286.278783 
L 539.246505 285.650318 
L 539.923305 285.021854 
L 540.618619 284.393389 
L 541.320158 283.764924 
L 542.01584 283.13646 
L 542.693996 282.507995 
L 543.343544 281.87953 
L 543.954132 281.251066 
L 544.516245 280.622601 
L 545.021279 279.994136 
L 545.46159 279.365672 
L 545.830521 278.737207 
L 546.122411 278.108742 
L 546.332589 277.480278 
L 546.457377 276.851813 
L 546.49408 276.223348 
L 546.440994 275.594884 
L 546.29742 274.966419 
L 546.063683 274.337955 
L 545.741174 273.70949 
L 545.332389 273.081025 
L 544.84098 272.452561 
L 544.271802 271.824096 
L 543.630948 271.195631 
L 542.925781 270.567167 
L 542.164927 269.938702 
L 541.358253 269.310237 
L 540.516795 268.681773 
L 539.652658 268.053308 
L 538.778861 267.424843 
L 537.909143 266.796379 
L 537.057726 266.167914 
L 536.239039 265.539449 
L 535.467408 264.910985 
L 534.756732 264.28252 
L 534.120143 263.654056 
L 533.569668 263.025591 
L 533.115912 262.397126 
L 532.767767 261.768662 
L 532.53216 261.140197 
L 532.413864 260.511732 
L 532.415355 259.883268 
L 532.536758 259.254803 
L 532.775842 258.626338 
L 533.128107 257.997874 
L 533.586926 257.369409 
L 534.143758 256.740944 
L 534.788404 256.11248 
L 535.509322 255.484015 
L 536.293952 254.855551 
L 537.129074 254.227086 
L 538.001159 253.598621 
L 538.896711 252.970157 
L 539.802589 252.341692 
L 540.706293 251.713227 
L 541.596208 251.084763 
L 542.46181 250.456298 
L 543.293809 249.827833 
L 544.084248 249.199369 
L 544.82656 248.570904 
L 545.515563 247.942439 
L 546.147435 247.313975 
L 546.719635 246.68551 
L 547.230816 246.057045 
L 547.680707 245.428581 
L 548.069989 244.800116 
L 548.400165 244.171652 
L 548.673431 243.543187 
L 548.892554 242.914722 
L 549.060756 242.286258 
L 549.18162 241.657793 
L 549.258994 241.029328 
L 549.296927 240.400864 
L 549.299598 239.772399 
L 549.271275 239.143934 
L 549.216269 238.51547 
L 549.138898 237.887005 
L 549.043463 237.25854 
L 548.934211 236.630076 
L 548.815314 236.001611 
L 548.690831 235.373146 
L 548.564678 234.744682 
L 548.44059 234.116217 
L 548.32208 233.487753 
L 548.2124 232.859288 
L 548.114497 232.230823 
L 548.030969 231.602359 
L 547.964033 230.973894 
L 547.915484 230.345429 
L 547.886677 229.716965 
L 547.878503 229.0885 
L 554.688769 229.0885 
L 554.688769 229.0885 
L 554.680595 229.716965 
L 554.651788 230.345429 
L 554.60324 230.973894 
L 554.536304 231.602359 
L 554.452776 232.230823 
L 554.354873 232.859288 
L 554.245193 233.487753 
L 554.126683 234.116217 
L 554.002594 234.744682 
L 553.876441 235.373146 
L 553.751958 236.001611 
L 553.633061 236.630076 
L 553.52381 237.25854 
L 553.428375 237.887005 
L 553.351004 238.51547 
L 553.295997 239.143934 
L 553.267674 239.772399 
L 553.270346 240.400864 
L 553.308278 241.029328 
L 553.385653 241.657793 
L 553.506516 242.286258 
L 553.674719 242.914722 
L 553.893841 243.543187 
L 554.167108 244.171652 
L 554.497284 244.800116 
L 554.886566 245.428581 
L 555.336457 246.057045 
L 555.847638 246.68551 
L 556.419838 247.313975 
L 557.051709 247.942439 
L 557.740713 248.570904 
L 558.483025 249.199369 
L 559.273464 249.827833 
L 560.105462 250.456298 
L 560.971064 251.084763 
L 561.86098 251.713227 
L 562.764683 252.341692 
L 563.670561 252.970157 
L 564.566113 253.598621 
L 565.438198 254.227086 
L 566.273321 254.855551 
L 567.057951 255.484015 
L 567.778868 256.11248 
L 568.423515 256.740944 
L 568.980346 257.369409 
L 569.439166 257.997874 
L 569.791431 258.626338 
L 570.030515 259.254803 
L 570.151917 259.883268 
L 570.153409 260.511732 
L 570.035112 261.140197 
L 569.799506 261.768662 
L 569.45136 262.397126 
L 568.997604 263.025591 
L 568.44713 263.654056 
L 567.81054 264.28252 
L 567.099865 264.910985 
L 566.328234 265.539449 
L 565.509546 266.167914 
L 564.65813 266.796379 
L 563.788412 267.424843 
L 562.914615 268.053308 
L 562.050478 268.681773 
L 561.20902 269.310237 
L 560.402345 269.938702 
L 559.641492 270.567167 
L 558.936325 271.195631 
L 558.295471 271.824096 
L 557.726292 272.452561 
L 557.234884 273.081025 
L 556.826099 273.70949 
L 556.50359 274.337955 
L 556.269853 274.966419 
L 556.126279 275.594884 
L 556.073193 276.223348 
L 556.109896 276.851813 
L 556.234684 277.480278 
L 556.444862 278.108742 
L 556.736751 278.737207 
L 557.105683 279.365672 
L 557.545994 279.994136 
L 558.051028 280.622601 
L 558.61314 281.251066 
L 559.223729 281.87953 
L 559.873277 282.507995 
L 560.551433 283.13646 
L 561.247115 283.764924 
L 561.948654 284.393389 
L 562.643968 285.021854 
L 563.320768 285.650318 
L 563.966792 286.278783 
L 564.570058 286.907247 
L 565.119135 287.535712 
L 565.603411 288.164177 
L 566.013354 288.792641 
L 566.340761 289.421106 
L 566.578971 290.049571 
L 566.723043 290.678035 
L 566.769886 291.3065 
z
" clip-path="url(#p71dabeb3e9)" style="fill: #1f77b4; fill-opacity: 0.3"/>
   </g>
   <g id="PolyCollection_8">
    <path d="M 645.624059 291.3065 
L 607.901396 291.3065 
L 607.994924 290.363803 
L 608.296432 289.421106 
L 608.792663 288.478409 
L 609.463084 287.535712 
L 610.280791 286.593015 
L 611.213707 285.650318 
L 612.225988 284.707621 
L 613.279542 283.764924 
L 614.335557 282.822227 
L 615.355971 281.87953 
L 616.3048 280.936833 
L 617.149291 279.994136 
L 617.86087 279.051439 
L 618.41589 278.108742 
L 618.796181 277.166045 
L 618.989431 276.223348 
L 618.989429 275.280652 
L 618.796175 274.337955 
L 618.415878 273.395258 
L 617.860849 272.452561 
L 617.149254 271.509864 
L 616.304738 270.567167 
L 615.355869 269.62447 
L 614.335389 268.681773 
L 613.27927 267.739076 
L 612.225554 266.796379 
L 611.21302 265.853682 
L 610.279717 264.910985 
L 609.461423 263.968288 
L 608.790126 263.025591 
L 608.2926 262.082894 
L 607.989203 261.140197 
L 607.892955 260.1975 
L 608.008978 259.254803 
L 608.334356 258.312106 
L 608.858401 257.369409 
L 609.563338 256.426712 
L 610.42533 255.484015 
L 611.415798 254.541318 
L 612.502909 253.598621 
L 613.653159 252.655924 
L 614.83292 251.713227 
L 616.009876 250.77053 
L 617.154263 249.827833 
L 618.239858 248.885136 
L 619.244693 247.942439 
L 620.151484 246.999742 
L 620.947793 246.057045 
L 621.625961 245.114348 
L 622.182849 244.171652 
L 622.619445 243.228955 
L 622.940371 242.286258 
L 623.15335 241.343561 
L 623.26865 240.400864 
L 623.29853 239.458167 
L 623.256714 238.51547 
L 623.157886 237.572773 
L 623.017203 236.630076 
L 622.849845 235.687379 
L 622.670571 234.744682 
L 622.493309 233.801985 
L 622.330769 232.859288 
L 622.194093 231.916591 
L 622.092553 230.973894 
L 622.033319 230.031197 
L 622.021303 229.0885 
L 622.059086 228.145803 
L 622.146962 227.203106 
L 622.283058 226.260409 
L 622.463566 225.317712 
L 622.683048 224.375015 
L 622.934796 223.432318 
L 623.211247 222.489621 
L 623.504392 221.546924 
L 623.806184 220.604227 
L 624.108906 219.66153 
L 624.405486 218.718833 
L 624.68974 217.776136 
L 624.956543 216.833439 
L 625.20192 215.890742 
L 625.423074 214.948045 
L 625.61834 214.005348 
L 625.787099 213.062652 
L 625.929652 212.119955 
L 626.047071 211.177258 
L 626.141044 210.234561 
L 626.21372 209.291864 
L 626.267559 208.349167 
L 626.305205 207.40647 
L 626.329372 206.463773 
L 626.342745 205.521076 
L 626.347905 204.578379 
L 626.347268 203.635682 
L 626.343036 202.692985 
L 626.337161 201.750288 
L 626.33132 200.807591 
L 626.326902 199.864894 
L 626.324993 198.922197 
L 626.326387 197.9795 
L 627.199068 197.9795 
L 627.199068 197.9795 
L 627.200461 198.922197 
L 627.198553 199.864894 
L 627.194134 200.807591 
L 627.188294 201.750288 
L 627.182419 202.692985 
L 627.178187 203.635682 
L 627.17755 204.578379 
L 627.18271 205.521076 
L 627.196082 206.463773 
L 627.220249 207.40647 
L 627.257896 208.349167 
L 627.311735 209.291864 
L 627.38441 210.234561 
L 627.478384 211.177258 
L 627.595803 212.119955 
L 627.738355 213.062652 
L 627.907114 214.005348 
L 628.10238 214.948045 
L 628.323534 215.890742 
L 628.568912 216.833439 
L 628.835714 217.776136 
L 629.119968 218.718833 
L 629.416548 219.66153 
L 629.719271 220.604227 
L 630.021063 221.546924 
L 630.314207 222.489621 
L 630.590658 223.432318 
L 630.842407 224.375015 
L 631.061888 225.317712 
L 631.242397 226.260409 
L 631.378493 227.203106 
L 631.466368 228.145803 
L 631.504152 229.0885 
L 631.492135 230.031197 
L 631.432902 230.973894 
L 631.331362 231.916591 
L 631.194685 232.859288 
L 631.032146 233.801985 
L 630.854884 234.744682 
L 630.67561 235.687379 
L 630.508251 236.630076 
L 630.367569 237.572773 
L 630.26874 238.51547 
L 630.226925 239.458167 
L 630.256805 240.400864 
L 630.372104 241.343561 
L 630.585084 242.286258 
L 630.90601 243.228955 
L 631.342605 244.171652 
L 631.899494 245.114348 
L 632.577661 246.057045 
L 633.37397 246.999742 
L 634.280761 247.942439 
L 635.285597 248.885136 
L 636.371192 249.827833 
L 637.515578 250.77053 
L 638.692534 251.713227 
L 639.872295 252.655924 
L 641.022545 253.598621 
L 642.109657 254.541318 
L 643.100125 255.484015 
L 643.962117 256.426712 
L 644.667053 257.369409 
L 645.191099 258.312106 
L 645.516476 259.254803 
L 645.6325 260.1975 
L 645.536251 261.140197 
L 645.232855 262.082894 
L 644.735329 263.025591 
L 644.064031 263.968288 
L 643.245738 264.910985 
L 642.312435 265.853682 
L 641.299901 266.796379 
L 640.246184 267.739076 
L 639.190065 268.681773 
L 638.169586 269.62447 
L 637.220716 270.567167 
L 636.376201 271.509864 
L 635.664606 272.452561 
L 635.109576 273.395258 
L 634.72928 274.337955 
L 634.536026 275.280652 
L 634.536024 276.223348 
L 634.729274 277.166045 
L 635.109564 278.108742 
L 635.664584 279.051439 
L 636.376164 279.994136 
L 637.220655 280.936833 
L 638.169484 281.87953 
L 639.189898 282.822227 
L 640.245913 283.764924 
L 641.299466 284.707621 
L 642.311748 285.650318 
L 643.244664 286.593015 
L 644.06237 287.535712 
L 644.732791 288.478409 
L 645.229022 289.421106 
L 645.53053 290.363803 
L 645.624059 291.3065 
z
" clip-path="url(#p71dabeb3e9)" style="fill: #1f77b4; fill-opacity: 0.3"/>
   </g>
   <g id="PolyCollection_9">
    <path d="M 721.111591 322.4155 
L 683.372045 322.4155 
L 683.372045 322.4155 
L 683.372045 322.4155 
L 683.372045 322.4155 
L 683.372045 322.4155 
L 683.372045 322.4155 
L 683.372045 322.4155 
L 683.372045 322.4155 
L 683.372045 322.4155 
L 683.372045 322.4155 
L 683.372045 322.4155 
L 683.372045 322.4155 
L 683.372045 322.4155 
L 683.372045 322.4155 
L 683.372045 322.4155 
L 683.372045 322.4155 
L 683.372045 322.4155 
L 683.372045 322.4155 
L 683.372045 322.4155 
L 683.372045 322.4155 
L 683.372045 322.4155 
L 683.372045 322.4155 
L 683.372045 322.4155 
L 683.372045 322.4155 
L 683.372045 322.4155 
L 683.372045 322.4155 
L 683.372045 322.4155 
L 683.372045 322.4155 
L 683.372045 322.4155 
L 683.372045 322.4155 
L 683.372045 322.4155 
L 683.372045 322.4155 
L 683.372045 322.4155 
L 683.372045 322.4155 
L 683.372045 322.4155 
L 683.372045 322.4155 
L 683.372045 322.4155 
L 683.372045 322.4155 
L 683.372045 322.4155 
L 683.372045 322.4155 
L 683.372045 322.4155 
L 683.372045 322.4155 
L 683.372045 322.4155 
L 683.372045 322.4155 
L 683.372045 322.4155 
L 683.372045 322.4155 
L 683.372045 322.4155 
L 683.372045 322.4155 
L 683.372045 322.4155 
L 683.372045 322.4155 
L 683.372045 322.4155 
L 683.372045 322.4155 
L 683.372045 322.4155 
L 683.372045 322.4155 
L 683.372045 322.4155 
L 683.372045 322.4155 
L 683.372045 322.4155 
L 683.372045 322.4155 
L 683.372045 322.4155 
L 683.372045 322.4155 
L 683.372045 322.4155 
L 683.372045 322.4155 
L 683.372045 322.4155 
L 683.372045 322.4155 
L 683.372045 322.4155 
L 683.372045 322.4155 
L 683.372045 322.4155 
L 683.372045 322.4155 
L 683.372045 322.4155 
L 683.372045 322.4155 
L 683.372045 322.4155 
L 683.372045 322.4155 
L 683.372045 322.4155 
L 683.372045 322.4155 
L 683.372045 322.4155 
L 683.372045 322.4155 
L 683.372045 322.4155 
L 683.372045 322.4155 
L 683.372045 322.4155 
L 683.372045 322.4155 
L 683.372045 322.4155 
L 683.372045 322.4155 
L 683.372045 322.4155 
L 683.372045 322.4155 
L 683.372045 322.4155 
L 683.372045 322.4155 
L 683.372045 322.4155 
L 683.372045 322.4155 
L 683.372045 322.4155 
L 683.372045 322.4155 
L 683.372045 322.4155 
L 683.372045 322.4155 
L 683.372045 322.4155 
L 683.372045 322.4155 
L 683.372045 322.4155 
L 683.372045 322.4155 
L 683.372045 322.4155 
L 683.372045 322.4155 
L 683.372045 322.4155 
L 683.372045 322.4155 
L 721.111591 322.4155 
L 721.111591 322.4155 
L 721.111591 322.4155 
L 721.111591 322.4155 
L 721.111591 322.4155 
L 721.111591 322.4155 
L 721.111591 322.4155 
L 721.111591 322.4155 
L 721.111591 322.4155 
L 721.111591 322.4155 
L 721.111591 322.4155 
L 721.111591 322.4155 
L 721.111591 322.4155 
L 721.111591 322.4155 
L 721.111591 322.4155 
L 721.111591 322.4155 
L 721.111591 322.4155 
L 721.111591 322.4155 
L 721.111591 322.4155 
L 721.111591 322.4155 
L 721.111591 322.4155 
L 721.111591 322.4155 
L 721.111591 322.4155 
L 721.111591 322.4155 
L 721.111591 322.4155 
L 721.111591 322.4155 
L 721.111591 322.4155 
L 721.111591 322.4155 
L 721.111591 322.4155 
L 721.111591 322.4155 
L 721.111591 322.4155 
L 721.111591 322.4155 
L 721.111591 322.4155 
L 721.111591 322.4155 
L 721.111591 322.4155 
L 721.111591 322.4155 
L 721.111591 322.4155 
L 721.111591 322.4155 
L 721.111591 322.4155 
L 721.111591 322.4155 
L 721.111591 322.4155 
L 721.111591 322.4155 
L 721.111591 322.4155 
L 721.111591 322.4155 
L 721.111591 322.4155 
L 721.111591 322.4155 
L 721.111591 322.4155 
L 721.111591 322.4155 
L 721.111591 322.4155 
L 721.111591 322.4155 
L 721.111591 322.4155 
L 721.111591 322.4155 
L 721.111591 322.4155 
L 721.111591 322.4155 
L 721.111591 322.4155 
L 721.111591 322.4155 
L 721.111591 322.4155 
L 721.111591 322.4155 
L 721.111591 322.4155 
L 721.111591 322.4155 
L 721.111591 322.4155 
L 721.111591 322.4155 
L 721.111591 322.4155 
L 721.111591 322.4155 
L 721.111591 322.4155 
L 721.111591 322.4155 
L 721.111591 322.4155 
L 721.111591 322.4155 
L 721.111591 322.4155 
L 721.111591 322.4155 
L 721.111591 322.4155 
L 721.111591 322.4155 
L 721.111591 322.4155 
L 721.111591 322.4155 
L 721.111591 322.4155 
L 721.111591 322.4155 
L 721.111591 322.4155 
L 721.111591 322.4155 
L 721.111591 322.4155 
L 721.111591 322.4155 
L 721.111591 322.4155 
L 721.111591 322.4155 
L 721.111591 322.4155 
L 721.111591 322.4155 
L 721.111591 322.4155 
L 721.111591 322.4155 
L 721.111591 322.4155 
L 721.111591 322.4155 
L 721.111591 322.4155 
L 721.111591 322.4155 
L 721.111591 322.4155 
L 721.111591 322.4155 
L 721.111591 322.4155 
L 721.111591 322.4155 
L 721.111591 322.4155 
L 721.111591 322.4155 
L 721.111591 322.4155 
L 721.111591 322.4155 
L 721.111591 322.4155 
L 721.111591 322.4155 
L 721.111591 322.4155 
z
" clip-path="url(#p71dabeb3e9)" style="fill: #1f77b4; fill-opacity: 0.3"/>
   </g>
   <g id="PolyCollection_10">
    <path d="M 796.590682 322.4155 
L 758.851136 322.4155 
L 758.851136 322.4155 
L 758.851136 322.4155 
L 758.851136 322.4155 
L 758.851136 322.4155 
L 758.851136 322.4155 
L 758.851136 322.4155 
L 758.851136 322.4155 
L 758.851136 322.4155 
L 758.851136 322.4155 
L 758.851136 322.4155 
L 758.851136 322.4155 
L 758.851136 322.4155 
L 758.851136 322.4155 
L 758.851136 322.4155 
L 758.851136 322.4155 
L 758.851136 322.4155 
L 758.851136 322.4155 
L 758.851136 322.4155 
L 758.851136 322.4155 
L 758.851136 322.4155 
L 758.851136 322.4155 
L 758.851136 322.4155 
L 758.851136 322.4155 
L 758.851136 322.4155 
L 758.851136 322.4155 
L 758.851136 322.4155 
L 758.851136 322.4155 
L 758.851136 322.4155 
L 758.851136 322.4155 
L 758.851136 322.4155 
L 758.851136 322.4155 
L 758.851136 322.4155 
L 758.851136 322.4155 
L 758.851136 322.4155 
L 758.851136 322.4155 
L 758.851136 322.4155 
L 758.851136 322.4155 
L 758.851136 322.4155 
L 758.851136 322.4155 
L 758.851136 322.4155 
L 758.851136 322.4155 
L 758.851136 322.4155 
L 758.851136 322.4155 
L 758.851136 322.4155 
L 758.851136 322.4155 
L 758.851136 322.4155 
L 758.851136 322.4155 
L 758.851136 322.4155 
L 758.851136 322.4155 
L 758.851136 322.4155 
L 758.851136 322.4155 
L 758.851136 322.4155 
L 758.851136 322.4155 
L 758.851136 322.4155 
L 758.851136 322.4155 
L 758.851136 322.4155 
L 758.851136 322.4155 
L 758.851136 322.4155 
L 758.851136 322.4155 
L 758.851136 322.4155 
L 758.851136 322.4155 
L 758.851136 322.4155 
L 758.851136 322.4155 
L 758.851136 322.4155 
L 758.851136 322.4155 
L 758.851136 322.4155 
L 758.851136 322.4155 
L 758.851136 322.4155 
L 758.851136 322.4155 
L 758.851136 322.4155 
L 758.851136 322.4155 
L 758.851136 322.4155 
L 758.851136 322.4155 
L 758.851136 322.4155 
L 758.851136 322.4155 
L 758.851136 322.4155 
L 758.851136 322.4155 
L 758.851136 322.4155 
L 758.851136 322.4155 
L 758.851136 322.4155 
L 758.851136 322.4155 
L 758.851136 322.4155 
L 758.851136 322.4155 
L 758.851136 322.4155 
L 758.851136 322.4155 
L 758.851136 322.4155 
L 758.851136 322.4155 
L 758.851136 322.4155 
L 758.851136 322.4155 
L 758.851136 322.4155 
L 758.851136 322.4155 
L 758.851136 322.4155 
L 758.851136 322.4155 
L 758.851136 322.4155 
L 758.851136 322.4155 
L 758.851136 322.4155 
L 758.851136 322.4155 
L 758.851136 322.4155 
L 758.851136 322.4155 
L 796.590682 322.4155 
L 796.590682 322.4155 
L 796.590682 322.4155 
L 796.590682 322.4155 
L 796.590682 322.4155 
L 796.590682 322.4155 
L 796.590682 322.4155 
L 796.590682 322.4155 
L 796.590682 322.4155 
L 796.590682 322.4155 
L 796.590682 322.4155 
L 796.590682 322.4155 
L 796.590682 322.4155 
L 796.590682 322.4155 
L 796.590682 322.4155 
L 796.590682 322.4155 
L 796.590682 322.4155 
L 796.590682 322.4155 
L 796.590682 322.4155 
L 796.590682 322.4155 
L 796.590682 322.4155 
L 796.590682 322.4155 
L 796.590682 322.4155 
L 796.590682 322.4155 
L 796.590682 322.4155 
L 796.590682 322.4155 
L 796.590682 322.4155 
L 796.590682 322.4155 
L 796.590682 322.4155 
L 796.590682 322.4155 
L 796.590682 322.4155 
L 796.590682 322.4155 
L 796.590682 322.4155 
L 796.590682 322.4155 
L 796.590682 322.4155 
L 796.590682 322.4155 
L 796.590682 322.4155 
L 796.590682 322.4155 
L 796.590682 322.4155 
L 796.590682 322.4155 
L 796.590682 322.4155 
L 796.590682 322.4155 
L 796.590682 322.4155 
L 796.590682 322.4155 
L 796.590682 322.4155 
L 796.590682 322.4155 
L 796.590682 322.4155 
L 796.590682 322.4155 
L 796.590682 322.4155 
L 796.590682 322.4155 
L 796.590682 322.4155 
L 796.590682 322.4155 
L 796.590682 322.4155 
L 796.590682 322.4155 
L 796.590682 322.4155 
L 796.590682 322.4155 
L 796.590682 322.4155 
L 796.590682 322.4155 
L 796.590682 322.4155 
L 796.590682 322.4155 
L 796.590682 322.4155 
L 796.590682 322.4155 
L 796.590682 322.4155 
L 796.590682 322.4155 
L 796.590682 322.4155 
L 796.590682 322.4155 
L 796.590682 322.4155 
L 796.590682 322.4155 
L 796.590682 322.4155 
L 796.590682 322.4155 
L 796.590682 322.4155 
L 796.590682 322.4155 
L 796.590682 322.4155 
L 796.590682 322.4155 
L 796.590682 322.4155 
L 796.590682 322.4155 
L 796.590682 322.4155 
L 796.590682 322.4155 
L 796.590682 322.4155 
L 796.590682 322.4155 
L 796.590682 322.4155 
L 796.590682 322.4155 
L 796.590682 322.4155 
L 796.590682 322.4155 
L 796.590682 322.4155 
L 796.590682 322.4155 
L 796.590682 322.4155 
L 796.590682 322.4155 
L 796.590682 322.4155 
L 796.590682 322.4155 
L 796.590682 322.4155 
L 796.590682 322.4155 
L 796.590682 322.4155 
L 796.590682 322.4155 
L 796.590682 322.4155 
L 796.590682 322.4155 
L 796.590682 322.4155 
L 796.590682 322.4155 
L 796.590682 322.4155 
L 796.590682 322.4155 
L 796.590682 322.4155 
z
" clip-path="url(#p71dabeb3e9)" style="fill: #1f77b4; fill-opacity: 0.3"/>
   </g>
   <g id="matplotlib.axis_1">
    <g id="xtick_1">
     <g id="line2d_1">
      <defs>
       <path id="m5a89b31945" d="M 0 0 
L 0 3.5 
" style="stroke: #000000; stroke-width: 0.8"/>
      </defs>
      <g>
       <use xlink:href="#m5a89b31945" x="98.409091" y="337.97" style="stroke: #000000; stroke-width: 0.8"/>
      </g>
     </g>
     <g id="text_1">
      <!-- Defector -->
      <g transform="translate(100.616591 379.51)rotate(-90)scale(0.08 -0.08)">
       <defs>
        <path id="DejaVuSans-44" d="M 1259 4147 
L 1259 519 
L 2022 519 
Q 2988 519 3436 956 
Q 3884 1394 3884 2338 
Q 3884 3275 3436 3711 
Q 2988 4147 2022 4147 
L 1259 4147 
z
M 628 4666 
L 1925 4666 
Q 3281 4666 3915 4102 
Q 4550 3538 4550 2338 
Q 4550 1131 3912 565 
Q 3275 0 1925 0 
L 628 0 
L 628 4666 
z
" transform="scale(0.015625)"/>
        <path id="DejaVuSans-65" d="M 3597 1894 
L 3597 1613 
L 953 1613 
Q 991 1019 1311 708 
Q 1631 397 2203 397 
Q 2534 397 2845 478 
Q 3156 559 3463 722 
L 3463 178 
Q 3153 47 2828 -22 
Q 2503 -91 2169 -91 
Q 1331 -91 842 396 
Q 353 884 353 1716 
Q 353 2575 817 3079 
Q 1281 3584 2069 3584 
Q 2775 3584 3186 3129 
Q 3597 2675 3597 1894 
z
M 3022 2063 
Q 3016 2534 2758 2815 
Q 2500 3097 2075 3097 
Q 1594 3097 1305 2825 
Q 1016 2553 972 2059 
L 3022 2063 
z
" transform="scale(0.015625)"/>
        <path id="DejaVuSans-66" d="M 2375 4863 
L 2375 4384 
L 1825 4384 
Q 1516 4384 1395 4259 
Q 1275 4134 1275 3809 
L 1275 3500 
L 2222 3500 
L 2222 3053 
L 1275 3053 
L 1275 0 
L 697 0 
L 697 3053 
L 147 3053 
L 147 3500 
L 697 3500 
L 697 3744 
Q 697 4328 969 4595 
Q 1241 4863 1831 4863 
L 2375 4863 
z
" transform="scale(0.015625)"/>
        <path id="DejaVuSans-63" d="M 3122 3366 
L 3122 2828 
Q 2878 2963 2633 3030 
Q 2388 3097 2138 3097 
Q 1578 3097 1268 2742 
Q 959 2388 959 1747 
Q 959 1106 1268 751 
Q 1578 397 2138 397 
Q 2388 397 2633 464 
Q 2878 531 3122 666 
L 3122 134 
Q 2881 22 2623 -34 
Q 2366 -91 2075 -91 
Q 1284 -91 818 406 
Q 353 903 353 1747 
Q 353 2603 823 3093 
Q 1294 3584 2113 3584 
Q 2378 3584 2631 3529 
Q 2884 3475 3122 3366 
z
" transform="scale(0.015625)"/>
        <path id="DejaVuSans-74" d="M 1172 4494 
L 1172 3500 
L 2356 3500 
L 2356 3053 
L 1172 3053 
L 1172 1153 
Q 1172 725 1289 603 
Q 1406 481 1766 481 
L 2356 481 
L 2356 0 
L 1766 0 
Q 1100 0 847 248 
Q 594 497 594 1153 
L 594 3053 
L 172 3053 
L 172 3500 
L 594 3500 
L 594 4494 
L 1172 4494 
z
" transform="scale(0.015625)"/>
        <path id="DejaVuSans-6f" d="M 1959 3097 
Q 1497 3097 1228 2736 
Q 959 2375 959 1747 
Q 959 1119 1226 758 
Q 1494 397 1959 397 
Q 2419 397 2687 759 
Q 2956 1122 2956 1747 
Q 2956 2369 2687 2733 
Q 2419 3097 1959 3097 
z
M 1959 3584 
Q 2709 3584 3137 3096 
Q 3566 2609 3566 1747 
Q 3566 888 3137 398 
Q 2709 -91 1959 -91 
Q 1206 -91 779 398 
Q 353 888 353 1747 
Q 353 2609 779 3096 
Q 1206 3584 1959 3584 
z
" transform="scale(0.015625)"/>
        <path id="DejaVuSans-72" d="M 2631 2963 
Q 2534 3019 2420 3045 
Q 2306 3072 2169 3072 
Q 1681 3072 1420 2755 
Q 1159 2438 1159 1844 
L 1159 0 
L 581 0 
L 581 3500 
L 1159 3500 
L 1159 2956 
Q 1341 3275 1631 3429 
Q 1922 3584 2338 3584 
Q 2397 3584 2469 3576 
Q 2541 3569 2628 3553 
L 2631 2963 
z
" transform="scale(0.015625)"/>
       </defs>
       <use xlink:href="#DejaVuSans-44"/>
       <use xlink:href="#DejaVuSans-65" x="77.001953"/>
       <use xlink:href="#DejaVuSans-66" x="138.525391"/>
       <use xlink:href="#DejaVuSans-65" x="173.730469"/>
       <use xlink:href="#DejaVuSans-63" x="235.253906"/>
       <use xlink:href="#DejaVuSans-74" x="290.234375"/>
       <use xlink:href="#DejaVuSans-6f" x="329.443359"/>
       <use xlink:href="#DejaVuSans-72" x="390.625"/>
      </g>
     </g>
    </g>
    <g id="xtick_2">
     <g id="line2d_2">
      <g>
       <use xlink:href="#m5a89b31945" x="173.888182" y="337.97" style="stroke: #000000; stroke-width: 0.8"/>
      </g>
     </g>
     <g id="text_2">
      <!-- Grudger -->
      <g transform="translate(176.095682 377.89625)rotate(-90)scale(0.08 -0.08)">
       <defs>
        <path id="DejaVuSans-47" d="M 3809 666 
L 3809 1919 
L 2778 1919 
L 2778 2438 
L 4434 2438 
L 4434 434 
Q 4069 175 3628 42 
Q 3188 -91 2688 -91 
Q 1594 -91 976 548 
Q 359 1188 359 2328 
Q 359 3472 976 4111 
Q 1594 4750 2688 4750 
Q 3144 4750 3555 4637 
Q 3966 4525 4313 4306 
L 4313 3634 
Q 3963 3931 3569 4081 
Q 3175 4231 2741 4231 
Q 1884 4231 1454 3753 
Q 1025 3275 1025 2328 
Q 1025 1384 1454 906 
Q 1884 428 2741 428 
Q 3075 428 3337 486 
Q 3600 544 3809 666 
z
" transform="scale(0.015625)"/>
        <path id="DejaVuSans-75" d="M 544 1381 
L 544 3500 
L 1119 3500 
L 1119 1403 
Q 1119 906 1312 657 
Q 1506 409 1894 409 
Q 2359 409 2629 706 
Q 2900 1003 2900 1516 
L 2900 3500 
L 3475 3500 
L 3475 0 
L 2900 0 
L 2900 538 
Q 2691 219 2414 64 
Q 2138 -91 1772 -91 
Q 1169 -91 856 284 
Q 544 659 544 1381 
z
M 1991 3584 
L 1991 3584 
z
" transform="scale(0.015625)"/>
        <path id="DejaVuSans-64" d="M 2906 2969 
L 2906 4863 
L 3481 4863 
L 3481 0 
L 2906 0 
L 2906 525 
Q 2725 213 2448 61 
Q 2172 -91 1784 -91 
Q 1150 -91 751 415 
Q 353 922 353 1747 
Q 353 2572 751 3078 
Q 1150 3584 1784 3584 
Q 2172 3584 2448 3432 
Q 2725 3281 2906 2969 
z
M 947 1747 
Q 947 1113 1208 752 
Q 1469 391 1925 391 
Q 2381 391 2643 752 
Q 2906 1113 2906 1747 
Q 2906 2381 2643 2742 
Q 2381 3103 1925 3103 
Q 1469 3103 1208 2742 
Q 947 2381 947 1747 
z
" transform="scale(0.015625)"/>
        <path id="DejaVuSans-67" d="M 2906 1791 
Q 2906 2416 2648 2759 
Q 2391 3103 1925 3103 
Q 1463 3103 1205 2759 
Q 947 2416 947 1791 
Q 947 1169 1205 825 
Q 1463 481 1925 481 
Q 2391 481 2648 825 
Q 2906 1169 2906 1791 
z
M 3481 434 
Q 3481 -459 3084 -895 
Q 2688 -1331 1869 -1331 
Q 1566 -1331 1297 -1286 
Q 1028 -1241 775 -1147 
L 775 -588 
Q 1028 -725 1275 -790 
Q 1522 -856 1778 -856 
Q 2344 -856 2625 -561 
Q 2906 -266 2906 331 
L 2906 616 
Q 2728 306 2450 153 
Q 2172 0 1784 0 
Q 1141 0 747 490 
Q 353 981 353 1791 
Q 353 2603 747 3093 
Q 1141 3584 1784 3584 
Q 2172 3584 2450 3431 
Q 2728 3278 2906 2969 
L 2906 3500 
L 3481 3500 
L 3481 434 
z
" transform="scale(0.015625)"/>
       </defs>
       <use xlink:href="#DejaVuSans-47"/>
       <use xlink:href="#DejaVuSans-72" x="77.490234"/>
       <use xlink:href="#DejaVuSans-75" x="118.603516"/>
       <use xlink:href="#DejaVuSans-64" x="181.982422"/>
       <use xlink:href="#DejaVuSans-67" x="245.458984"/>
       <use xlink:href="#DejaVuSans-65" x="308.935547"/>
       <use xlink:href="#DejaVuSans-72" x="370.458984"/>
      </g>
     </g>
    </g>
    <g id="xtick_3">
     <g id="line2d_3">
      <g>
       <use xlink:href="#m5a89b31945" x="249.367273" y="337.97" style="stroke: #000000; stroke-width: 0.8"/>
      </g>
     </g>
     <g id="text_3">
      <!-- Adaptive -->
      <g transform="translate(251.574773 380.37875)rotate(-90)scale(0.08 -0.08)">
       <defs>
        <path id="DejaVuSans-41" d="M 2188 4044 
L 1331 1722 
L 3047 1722 
L 2188 4044 
z
M 1831 4666 
L 2547 4666 
L 4325 0 
L 3669 0 
L 3244 1197 
L 1141 1197 
L 716 0 
L 50 0 
L 1831 4666 
z
" transform="scale(0.015625)"/>
        <path id="DejaVuSans-61" d="M 2194 1759 
Q 1497 1759 1228 1600 
Q 959 1441 959 1056 
Q 959 750 1161 570 
Q 1363 391 1709 391 
Q 2188 391 2477 730 
Q 2766 1069 2766 1631 
L 2766 1759 
L 2194 1759 
z
M 3341 1997 
L 3341 0 
L 2766 0 
L 2766 531 
Q 2569 213 2275 61 
Q 1981 -91 1556 -91 
Q 1019 -91 701 211 
Q 384 513 384 1019 
Q 384 1609 779 1909 
Q 1175 2209 1959 2209 
L 2766 2209 
L 2766 2266 
Q 2766 2663 2505 2880 
Q 2244 3097 1772 3097 
Q 1472 3097 1187 3025 
Q 903 2953 641 2809 
L 641 3341 
Q 956 3463 1253 3523 
Q 1550 3584 1831 3584 
Q 2591 3584 2966 3190 
Q 3341 2797 3341 1997 
z
" transform="scale(0.015625)"/>
        <path id="DejaVuSans-70" d="M 1159 525 
L 1159 -1331 
L 581 -1331 
L 581 3500 
L 1159 3500 
L 1159 2969 
Q 1341 3281 1617 3432 
Q 1894 3584 2278 3584 
Q 2916 3584 3314 3078 
Q 3713 2572 3713 1747 
Q 3713 922 3314 415 
Q 2916 -91 2278 -91 
Q 1894 -91 1617 61 
Q 1341 213 1159 525 
z
M 3116 1747 
Q 3116 2381 2855 2742 
Q 2594 3103 2138 3103 
Q 1681 3103 1420 2742 
Q 1159 2381 1159 1747 
Q 1159 1113 1420 752 
Q 1681 391 2138 391 
Q 2594 391 2855 752 
Q 3116 1113 3116 1747 
z
" transform="scale(0.015625)"/>
        <path id="DejaVuSans-69" d="M 603 3500 
L 1178 3500 
L 1178 0 
L 603 0 
L 603 3500 
z
M 603 4863 
L 1178 4863 
L 1178 4134 
L 603 4134 
L 603 4863 
z
" transform="scale(0.015625)"/>
        <path id="DejaVuSans-76" d="M 191 3500 
L 800 3500 
L 1894 563 
L 2988 3500 
L 3597 3500 
L 2284 0 
L 1503 0 
L 191 3500 
z
" transform="scale(0.015625)"/>
       </defs>
       <use xlink:href="#DejaVuSans-41"/>
       <use xlink:href="#DejaVuSans-64" x="66.658203"/>
       <use xlink:href="#DejaVuSans-61" x="130.134766"/>
       <use xlink:href="#DejaVuSans-70" x="191.414062"/>
       <use xlink:href="#DejaVuSans-74" x="254.890625"/>
       <use xlink:href="#DejaVuSans-69" x="294.099609"/>
       <use xlink:href="#DejaVuSans-76" x="321.882812"/>
       <use xlink:href="#DejaVuSans-65" x="381.0625"/>
      </g>
     </g>
    </g>
    <g id="xtick_4">
     <g id="line2d_4">
      <g>
       <use xlink:href="#m5a89b31945" x="324.846364" y="337.97" style="stroke: #000000; stroke-width: 0.8"/>
      </g>
     </g>
     <g id="text_4">
      <!-- Alternator -->
      <g transform="translate(327.053864 385.165)rotate(-90)scale(0.08 -0.08)">
       <defs>
        <path id="DejaVuSans-6c" d="M 603 4863 
L 1178 4863 
L 1178 0 
L 603 0 
L 603 4863 
z
" transform="scale(0.015625)"/>
        <path id="DejaVuSans-6e" d="M 3513 2113 
L 3513 0 
L 2938 0 
L 2938 2094 
Q 2938 2591 2744 2837 
Q 2550 3084 2163 3084 
Q 1697 3084 1428 2787 
Q 1159 2491 1159 1978 
L 1159 0 
L 581 0 
L 581 3500 
L 1159 3500 
L 1159 2956 
Q 1366 3272 1645 3428 
Q 1925 3584 2291 3584 
Q 2894 3584 3203 3211 
Q 3513 2838 3513 2113 
z
" transform="scale(0.015625)"/>
       </defs>
       <use xlink:href="#DejaVuSans-41"/>
       <use xlink:href="#DejaVuSans-6c" x="68.408203"/>
       <use xlink:href="#DejaVuSans-74" x="96.191406"/>
       <use xlink:href="#DejaVuSans-65" x="135.400391"/>
       <use xlink:href="#DejaVuSans-72" x="196.923828"/>
       <use xlink:href="#DejaVuSans-6e" x="236.287109"/>
       <use xlink:href="#DejaVuSans-61" x="299.666016"/>
       <use xlink:href="#DejaVuSans-74" x="360.945312"/>
       <use xlink:href="#DejaVuSans-6f" x="400.154297"/>
       <use xlink:href="#DejaVuSans-72" x="461.335938"/>
      </g>
     </g>
    </g>
    <g id="xtick_5">
     <g id="line2d_5">
      <g>
       <use xlink:href="#m5a89b31945" x="400.325455" y="337.97" style="stroke: #000000; stroke-width: 0.8"/>
      </g>
     </g>
     <g id="text_5">
      <!-- Random: 0.5 -->
      <g transform="translate(402.532955 396.0475)rotate(-90)scale(0.08 -0.08)">
       <defs>
        <path id="DejaVuSans-52" d="M 2841 2188 
Q 3044 2119 3236 1894 
Q 3428 1669 3622 1275 
L 4263 0 
L 3584 0 
L 2988 1197 
Q 2756 1666 2539 1819 
Q 2322 1972 1947 1972 
L 1259 1972 
L 1259 0 
L 628 0 
L 628 4666 
L 2053 4666 
Q 2853 4666 3247 4331 
Q 3641 3997 3641 3322 
Q 3641 2881 3436 2590 
Q 3231 2300 2841 2188 
z
M 1259 4147 
L 1259 2491 
L 2053 2491 
Q 2509 2491 2742 2702 
Q 2975 2913 2975 3322 
Q 2975 3731 2742 3939 
Q 2509 4147 2053 4147 
L 1259 4147 
z
" transform="scale(0.015625)"/>
        <path id="DejaVuSans-6d" d="M 3328 2828 
Q 3544 3216 3844 3400 
Q 4144 3584 4550 3584 
Q 5097 3584 5394 3201 
Q 5691 2819 5691 2113 
L 5691 0 
L 5113 0 
L 5113 2094 
Q 5113 2597 4934 2840 
Q 4756 3084 4391 3084 
Q 3944 3084 3684 2787 
Q 3425 2491 3425 1978 
L 3425 0 
L 2847 0 
L 2847 2094 
Q 2847 2600 2669 2842 
Q 2491 3084 2119 3084 
Q 1678 3084 1418 2786 
Q 1159 2488 1159 1978 
L 1159 0 
L 581 0 
L 581 3500 
L 1159 3500 
L 1159 2956 
Q 1356 3278 1631 3431 
Q 1906 3584 2284 3584 
Q 2666 3584 2933 3390 
Q 3200 3197 3328 2828 
z
" transform="scale(0.015625)"/>
        <path id="DejaVuSans-3a" d="M 750 794 
L 1409 794 
L 1409 0 
L 750 0 
L 750 794 
z
M 750 3309 
L 1409 3309 
L 1409 2516 
L 750 2516 
L 750 3309 
z
" transform="scale(0.015625)"/>
        <path id="DejaVuSans-20" transform="scale(0.015625)"/>
        <path id="DejaVuSans-30" d="M 2034 4250 
Q 1547 4250 1301 3770 
Q 1056 3291 1056 2328 
Q 1056 1369 1301 889 
Q 1547 409 2034 409 
Q 2525 409 2770 889 
Q 3016 1369 3016 2328 
Q 3016 3291 2770 3770 
Q 2525 4250 2034 4250 
z
M 2034 4750 
Q 2819 4750 3233 4129 
Q 3647 3509 3647 2328 
Q 3647 1150 3233 529 
Q 2819 -91 2034 -91 
Q 1250 -91 836 529 
Q 422 1150 422 2328 
Q 422 3509 836 4129 
Q 1250 4750 2034 4750 
z
" transform="scale(0.015625)"/>
        <path id="DejaVuSans-2e" d="M 684 794 
L 1344 794 
L 1344 0 
L 684 0 
L 684 794 
z
" transform="scale(0.015625)"/>
        <path id="DejaVuSans-35" d="M 691 4666 
L 3169 4666 
L 3169 4134 
L 1269 4134 
L 1269 2991 
Q 1406 3038 1543 3061 
Q 1681 3084 1819 3084 
Q 2600 3084 3056 2656 
Q 3513 2228 3513 1497 
Q 3513 744 3044 326 
Q 2575 -91 1722 -91 
Q 1428 -91 1123 -41 
Q 819 9 494 109 
L 494 744 
Q 775 591 1075 516 
Q 1375 441 1709 441 
Q 2250 441 2565 725 
Q 2881 1009 2881 1497 
Q 2881 1984 2565 2268 
Q 2250 2553 1709 2553 
Q 1456 2553 1204 2497 
Q 953 2441 691 2322 
L 691 4666 
z
" transform="scale(0.015625)"/>
       </defs>
       <use xlink:href="#DejaVuSans-52"/>
       <use xlink:href="#DejaVuSans-61" x="67.232422"/>
       <use xlink:href="#DejaVuSans-6e" x="128.511719"/>
       <use xlink:href="#DejaVuSans-64" x="191.890625"/>
       <use xlink:href="#DejaVuSans-6f" x="255.367188"/>
       <use xlink:href="#DejaVuSans-6d" x="316.548828"/>
       <use xlink:href="#DejaVuSans-3a" x="413.960938"/>
       <use xlink:href="#DejaVuSans-20" x="447.652344"/>
       <use xlink:href="#DejaVuSans-30" x="479.439453"/>
       <use xlink:href="#DejaVuSans-2e" x="543.0625"/>
       <use xlink:href="#DejaVuSans-35" x="574.849609"/>
      </g>
     </g>
    </g>
    <g id="xtick_6">
     <g id="line2d_6">
      <g>
       <use xlink:href="#m5a89b31945" x="475.804545" y="337.97" style="stroke: #000000; stroke-width: 0.8"/>
      </g>
     </g>
     <g id="text_6">
      <!-- Deep QLearner -->
      <g transform="translate(478.012045 405.46625)rotate(-90)scale(0.08 -0.08)">
       <defs>
        <path id="DejaVuSans-51" d="M 2522 4238 
Q 1834 4238 1429 3725 
Q 1025 3213 1025 2328 
Q 1025 1447 1429 934 
Q 1834 422 2522 422 
Q 3209 422 3611 934 
Q 4013 1447 4013 2328 
Q 4013 3213 3611 3725 
Q 3209 4238 2522 4238 
z
M 3406 84 
L 4238 -825 
L 3475 -825 
L 2784 -78 
Q 2681 -84 2626 -87 
Q 2572 -91 2522 -91 
Q 1538 -91 948 567 
Q 359 1225 359 2328 
Q 359 3434 948 4092 
Q 1538 4750 2522 4750 
Q 3503 4750 4090 4092 
Q 4678 3434 4678 2328 
Q 4678 1516 4351 937 
Q 4025 359 3406 84 
z
" transform="scale(0.015625)"/>
        <path id="DejaVuSans-4c" d="M 628 4666 
L 1259 4666 
L 1259 531 
L 3531 531 
L 3531 0 
L 628 0 
L 628 4666 
z
" transform="scale(0.015625)"/>
       </defs>
       <use xlink:href="#DejaVuSans-44"/>
       <use xlink:href="#DejaVuSans-65" x="77.001953"/>
       <use xlink:href="#DejaVuSans-65" x="138.525391"/>
       <use xlink:href="#DejaVuSans-70" x="200.048828"/>
       <use xlink:href="#DejaVuSans-20" x="263.525391"/>
       <use xlink:href="#DejaVuSans-51" x="295.3125"/>
       <use xlink:href="#DejaVuSans-4c" x="374.023438"/>
       <use xlink:href="#DejaVuSans-65" x="427.986328"/>
       <use xlink:href="#DejaVuSans-61" x="489.509766"/>
       <use xlink:href="#DejaVuSans-72" x="550.789062"/>
       <use xlink:href="#DejaVuSans-6e" x="590.152344"/>
       <use xlink:href="#DejaVuSans-65" x="653.53125"/>
       <use xlink:href="#DejaVuSans-72" x="715.054688"/>
      </g>
     </g>
    </g>
    <g id="xtick_7">
     <g id="line2d_7">
      <g>
       <use xlink:href="#m5a89b31945" x="551.283636" y="337.97" style="stroke: #000000; stroke-width: 0.8"/>
      </g>
     </g>
     <g id="text_7">
      <!-- Risky QLearner -->
      <g transform="translate(553.491136 405.40875)rotate(-90)scale(0.08 -0.08)">
       <defs>
        <path id="DejaVuSans-73" d="M 2834 3397 
L 2834 2853 
Q 2591 2978 2328 3040 
Q 2066 3103 1784 3103 
Q 1356 3103 1142 2972 
Q 928 2841 928 2578 
Q 928 2378 1081 2264 
Q 1234 2150 1697 2047 
L 1894 2003 
Q 2506 1872 2764 1633 
Q 3022 1394 3022 966 
Q 3022 478 2636 193 
Q 2250 -91 1575 -91 
Q 1294 -91 989 -36 
Q 684 19 347 128 
L 347 722 
Q 666 556 975 473 
Q 1284 391 1588 391 
Q 1994 391 2212 530 
Q 2431 669 2431 922 
Q 2431 1156 2273 1281 
Q 2116 1406 1581 1522 
L 1381 1569 
Q 847 1681 609 1914 
Q 372 2147 372 2553 
Q 372 3047 722 3315 
Q 1072 3584 1716 3584 
Q 2034 3584 2315 3537 
Q 2597 3491 2834 3397 
z
" transform="scale(0.015625)"/>
        <path id="DejaVuSans-6b" d="M 581 4863 
L 1159 4863 
L 1159 1991 
L 2875 3500 
L 3609 3500 
L 1753 1863 
L 3688 0 
L 2938 0 
L 1159 1709 
L 1159 0 
L 581 0 
L 581 4863 
z
" transform="scale(0.015625)"/>
        <path id="DejaVuSans-79" d="M 2059 -325 
Q 1816 -950 1584 -1140 
Q 1353 -1331 966 -1331 
L 506 -1331 
L 506 -850 
L 844 -850 
Q 1081 -850 1212 -737 
Q 1344 -625 1503 -206 
L 1606 56 
L 191 3500 
L 800 3500 
L 1894 763 
L 2988 3500 
L 3597 3500 
L 2059 -325 
z
" transform="scale(0.015625)"/>
       </defs>
       <use xlink:href="#DejaVuSans-52"/>
       <use xlink:href="#DejaVuSans-69" x="69.482422"/>
       <use xlink:href="#DejaVuSans-73" x="97.265625"/>
       <use xlink:href="#DejaVuSans-6b" x="149.365234"/>
       <use xlink:href="#DejaVuSans-79" x="203.650391"/>
       <use xlink:href="#DejaVuSans-20" x="262.830078"/>
       <use xlink:href="#DejaVuSans-51" x="294.617188"/>
       <use xlink:href="#DejaVuSans-4c" x="373.328125"/>
       <use xlink:href="#DejaVuSans-65" x="427.291016"/>
       <use xlink:href="#DejaVuSans-61" x="488.814453"/>
       <use xlink:href="#DejaVuSans-72" x="550.09375"/>
       <use xlink:href="#DejaVuSans-6e" x="589.457031"/>
       <use xlink:href="#DejaVuSans-65" x="652.835938"/>
       <use xlink:href="#DejaVuSans-72" x="714.359375"/>
      </g>
     </g>
    </g>
    <g id="xtick_8">
     <g id="line2d_8">
      <g>
       <use xlink:href="#m5a89b31945" x="626.762727" y="337.97" style="stroke: #000000; stroke-width: 0.8"/>
      </g>
     </g>
     <g id="text_8">
      <!-- Mediocre QLearner -->
      <g transform="translate(628.970227 420.83375)rotate(-90)scale(0.08 -0.08)">
       <defs>
        <path id="DejaVuSans-4d" d="M 628 4666 
L 1569 4666 
L 2759 1491 
L 3956 4666 
L 4897 4666 
L 4897 0 
L 4281 0 
L 4281 4097 
L 3078 897 
L 2444 897 
L 1241 4097 
L 1241 0 
L 628 0 
L 628 4666 
z
" transform="scale(0.015625)"/>
       </defs>
       <use xlink:href="#DejaVuSans-4d"/>
       <use xlink:href="#DejaVuSans-65" x="86.279297"/>
       <use xlink:href="#DejaVuSans-64" x="147.802734"/>
       <use xlink:href="#DejaVuSans-69" x="211.279297"/>
       <use xlink:href="#DejaVuSans-6f" x="239.0625"/>
       <use xlink:href="#DejaVuSans-63" x="300.244141"/>
       <use xlink:href="#DejaVuSans-72" x="355.224609"/>
       <use xlink:href="#DejaVuSans-65" x="394.087891"/>
       <use xlink:href="#DejaVuSans-20" x="455.611328"/>
       <use xlink:href="#DejaVuSans-51" x="487.398438"/>
       <use xlink:href="#DejaVuSans-4c" x="566.109375"/>
       <use xlink:href="#DejaVuSans-65" x="620.072266"/>
       <use xlink:href="#DejaVuSans-61" x="681.595703"/>
       <use xlink:href="#DejaVuSans-72" x="742.875"/>
       <use xlink:href="#DejaVuSans-6e" x="782.238281"/>
       <use xlink:href="#DejaVuSans-65" x="845.617188"/>
       <use xlink:href="#DejaVuSans-72" x="907.140625"/>
      </g>
     </g>
    </g>
    <g id="xtick_9">
     <g id="line2d_9">
      <g>
       <use xlink:href="#m5a89b31945" x="702.241818" y="337.97" style="stroke: #000000; stroke-width: 0.8"/>
      </g>
     </g>
     <g id="text_9">
      <!-- Tit For Tat -->
      <g transform="translate(704.449318 384.15)rotate(-90)scale(0.08 -0.08)">
       <defs>
        <path id="DejaVuSans-54" d="M -19 4666 
L 3928 4666 
L 3928 4134 
L 2272 4134 
L 2272 0 
L 1638 0 
L 1638 4134 
L -19 4134 
L -19 4666 
z
" transform="scale(0.015625)"/>
        <path id="DejaVuSans-46" d="M 628 4666 
L 3309 4666 
L 3309 4134 
L 1259 4134 
L 1259 2759 
L 3109 2759 
L 3109 2228 
L 1259 2228 
L 1259 0 
L 628 0 
L 628 4666 
z
" transform="scale(0.015625)"/>
       </defs>
       <use xlink:href="#DejaVuSans-54"/>
       <use xlink:href="#DejaVuSans-69" x="57.958984"/>
       <use xlink:href="#DejaVuSans-74" x="85.742188"/>
       <use xlink:href="#DejaVuSans-20" x="124.951172"/>
       <use xlink:href="#DejaVuSans-46" x="156.738281"/>
       <use xlink:href="#DejaVuSans-6f" x="210.632812"/>
       <use xlink:href="#DejaVuSans-72" x="271.814453"/>
       <use xlink:href="#DejaVuSans-20" x="312.927734"/>
       <use xlink:href="#DejaVuSans-54" x="344.714844"/>
       <use xlink:href="#DejaVuSans-61" x="389.298828"/>
       <use xlink:href="#DejaVuSans-74" x="450.578125"/>
      </g>
     </g>
    </g>
    <g id="xtick_10">
     <g id="line2d_10">
      <g>
       <use xlink:href="#m5a89b31945" x="777.720909" y="337.97" style="stroke: #000000; stroke-width: 0.8"/>
      </g>
     </g>
     <g id="text_10">
      <!-- Cooperator -->
      <g transform="translate(779.928409 389.85875)rotate(-90)scale(0.08 -0.08)">
       <defs>
        <path id="DejaVuSans-43" d="M 4122 4306 
L 4122 3641 
Q 3803 3938 3442 4084 
Q 3081 4231 2675 4231 
Q 1875 4231 1450 3742 
Q 1025 3253 1025 2328 
Q 1025 1406 1450 917 
Q 1875 428 2675 428 
Q 3081 428 3442 575 
Q 3803 722 4122 1019 
L 4122 359 
Q 3791 134 3420 21 
Q 3050 -91 2638 -91 
Q 1578 -91 968 557 
Q 359 1206 359 2328 
Q 359 3453 968 4101 
Q 1578 4750 2638 4750 
Q 3056 4750 3426 4639 
Q 3797 4528 4122 4306 
z
" transform="scale(0.015625)"/>
       </defs>
       <use xlink:href="#DejaVuSans-43"/>
       <use xlink:href="#DejaVuSans-6f" x="69.824219"/>
       <use xlink:href="#DejaVuSans-6f" x="131.005859"/>
       <use xlink:href="#DejaVuSans-70" x="192.1875"/>
       <use xlink:href="#DejaVuSans-65" x="255.664062"/>
       <use xlink:href="#DejaVuSans-72" x="317.1875"/>
       <use xlink:href="#DejaVuSans-61" x="358.300781"/>
       <use xlink:href="#DejaVuSans-74" x="419.580078"/>
       <use xlink:href="#DejaVuSans-6f" x="458.789062"/>
       <use xlink:href="#DejaVuSans-72" x="519.970703"/>
      </g>
     </g>
    </g>
   </g>
   <g id="matplotlib.axis_2">
    <g id="ytick_1">
     <g id="line2d_11">
      <defs>
       <path id="mfc07f80a01" d="M 0 0 
L -3.5 0 
" style="stroke: #000000; stroke-width: 0.8"/>
      </defs>
      <g>
       <use xlink:href="#mfc07f80a01" x="22.93" y="322.4155" style="stroke: #000000; stroke-width: 0.8"/>
      </g>
     </g>
     <g id="text_11">
      <!-- 0 -->
      <g transform="translate(10.84 325.454875)scale(0.08 -0.08)">
       <use xlink:href="#DejaVuSans-30"/>
      </g>
     </g>
    </g>
    <g id="ytick_2">
     <g id="line2d_12">
      <g>
       <use xlink:href="#mfc07f80a01" x="22.93" y="260.1975" style="stroke: #000000; stroke-width: 0.8"/>
      </g>
     </g>
     <g id="text_12">
      <!-- 2 -->
      <g transform="translate(10.84 263.236875)scale(0.08 -0.08)">
       <defs>
        <path id="DejaVuSans-32" d="M 1228 531 
L 3431 531 
L 3431 0 
L 469 0 
L 469 531 
Q 828 903 1448 1529 
Q 2069 2156 2228 2338 
Q 2531 2678 2651 2914 
Q 2772 3150 2772 3378 
Q 2772 3750 2511 3984 
Q 2250 4219 1831 4219 
Q 1534 4219 1204 4116 
Q 875 4013 500 3803 
L 500 4441 
Q 881 4594 1212 4672 
Q 1544 4750 1819 4750 
Q 2544 4750 2975 4387 
Q 3406 4025 3406 3419 
Q 3406 3131 3298 2873 
Q 3191 2616 2906 2266 
Q 2828 2175 2409 1742 
Q 1991 1309 1228 531 
z
" transform="scale(0.015625)"/>
       </defs>
       <use xlink:href="#DejaVuSans-32"/>
      </g>
     </g>
    </g>
    <g id="ytick_3">
     <g id="line2d_13">
      <g>
       <use xlink:href="#mfc07f80a01" x="22.93" y="197.9795" style="stroke: #000000; stroke-width: 0.8"/>
      </g>
     </g>
     <g id="text_13">
      <!-- 4 -->
      <g transform="translate(10.84 201.018875)scale(0.08 -0.08)">
       <defs>
        <path id="DejaVuSans-34" d="M 2419 4116 
L 825 1625 
L 2419 1625 
L 2419 4116 
z
M 2253 4666 
L 3047 4666 
L 3047 1625 
L 3713 1625 
L 3713 1100 
L 3047 1100 
L 3047 0 
L 2419 0 
L 2419 1100 
L 313 1100 
L 313 1709 
L 2253 4666 
z
" transform="scale(0.015625)"/>
       </defs>
       <use xlink:href="#DejaVuSans-34"/>
      </g>
     </g>
    </g>
    <g id="ytick_4">
     <g id="line2d_14">
      <g>
       <use xlink:href="#mfc07f80a01" x="22.93" y="135.7615" style="stroke: #000000; stroke-width: 0.8"/>
      </g>
     </g>
     <g id="text_14">
      <!-- 6 -->
      <g transform="translate(10.84 138.800875)scale(0.08 -0.08)">
       <defs>
        <path id="DejaVuSans-36" d="M 2113 2584 
Q 1688 2584 1439 2293 
Q 1191 2003 1191 1497 
Q 1191 994 1439 701 
Q 1688 409 2113 409 
Q 2538 409 2786 701 
Q 3034 994 3034 1497 
Q 3034 2003 2786 2293 
Q 2538 2584 2113 2584 
z
M 3366 4563 
L 3366 3988 
Q 3128 4100 2886 4159 
Q 2644 4219 2406 4219 
Q 1781 4219 1451 3797 
Q 1122 3375 1075 2522 
Q 1259 2794 1537 2939 
Q 1816 3084 2150 3084 
Q 2853 3084 3261 2657 
Q 3669 2231 3669 1497 
Q 3669 778 3244 343 
Q 2819 -91 2113 -91 
Q 1303 -91 875 529 
Q 447 1150 447 2328 
Q 447 3434 972 4092 
Q 1497 4750 2381 4750 
Q 2619 4750 2861 4703 
Q 3103 4656 3366 4563 
z
" transform="scale(0.015625)"/>
       </defs>
       <use xlink:href="#DejaVuSans-36"/>
      </g>
     </g>
    </g>
    <g id="ytick_5">
     <g id="line2d_15">
      <g>
       <use xlink:href="#mfc07f80a01" x="22.93" y="73.5435" style="stroke: #000000; stroke-width: 0.8"/>
      </g>
     </g>
     <g id="text_15">
      <!-- 8 -->
      <g transform="translate(10.84 76.582875)scale(0.08 -0.08)">
       <defs>
        <path id="DejaVuSans-38" d="M 2034 2216 
Q 1584 2216 1326 1975 
Q 1069 1734 1069 1313 
Q 1069 891 1326 650 
Q 1584 409 2034 409 
Q 2484 409 2743 651 
Q 3003 894 3003 1313 
Q 3003 1734 2745 1975 
Q 2488 2216 2034 2216 
z
M 1403 2484 
Q 997 2584 770 2862 
Q 544 3141 544 3541 
Q 544 4100 942 4425 
Q 1341 4750 2034 4750 
Q 2731 4750 3128 4425 
Q 3525 4100 3525 3541 
Q 3525 3141 3298 2862 
Q 3072 2584 2669 2484 
Q 3125 2378 3379 2068 
Q 3634 1759 3634 1313 
Q 3634 634 3220 271 
Q 2806 -91 2034 -91 
Q 1263 -91 848 271 
Q 434 634 434 1313 
Q 434 1759 690 2068 
Q 947 2378 1403 2484 
z
M 1172 3481 
Q 1172 3119 1398 2916 
Q 1625 2713 2034 2713 
Q 2441 2713 2670 2916 
Q 2900 3119 2900 3481 
Q 2900 3844 2670 4047 
Q 2441 4250 2034 4250 
Q 1625 4250 1398 4047 
Q 1172 3844 1172 3481 
z
" transform="scale(0.015625)"/>
       </defs>
       <use xlink:href="#DejaVuSans-38"/>
      </g>
     </g>
    </g>
   </g>
   <g id="LineCollection_1">
    <path d="M 88.974205 42.4345 
L 107.843977 42.4345 
" clip-path="url(#p71dabeb3e9)" style="fill: none; stroke: #1f77b4; stroke-width: 1.5"/>
    <path d="M 164.453295 135.7615 
L 183.323068 135.7615 
" clip-path="url(#p71dabeb3e9)" style="fill: none; stroke: #1f77b4; stroke-width: 1.5"/>
    <path d="M 239.932386 135.7615 
L 258.802159 135.7615 
" clip-path="url(#p71dabeb3e9)" style="fill: none; stroke: #1f77b4; stroke-width: 1.5"/>
    <path d="M 315.411477 166.8705 
L 334.28125 166.8705 
" clip-path="url(#p71dabeb3e9)" style="fill: none; stroke: #1f77b4; stroke-width: 1.5"/>
    <path d="M 390.890568 166.8705 
L 409.760341 166.8705 
" clip-path="url(#p71dabeb3e9)" style="fill: none; stroke: #1f77b4; stroke-width: 1.5"/>
    <path d="M 466.369659 197.9795 
L 485.239432 197.9795 
" clip-path="url(#p71dabeb3e9)" style="fill: none; stroke: #1f77b4; stroke-width: 1.5"/>
    <path d="M 541.84875 260.1975 
L 560.718523 260.1975 
" clip-path="url(#p71dabeb3e9)" style="fill: none; stroke: #1f77b4; stroke-width: 1.5"/>
    <path d="M 617.327841 260.1975 
L 636.197614 260.1975 
" clip-path="url(#p71dabeb3e9)" style="fill: none; stroke: #1f77b4; stroke-width: 1.5"/>
    <path d="M 692.806932 322.4155 
L 711.676705 322.4155 
" clip-path="url(#p71dabeb3e9)" style="fill: none; stroke: #1f77b4; stroke-width: 1.5"/>
    <path d="M 768.286023 322.4155 
L 787.155795 322.4155 
" clip-path="url(#p71dabeb3e9)" style="fill: none; stroke: #1f77b4; stroke-width: 1.5"/>
   </g>
   <g id="patch_3">
    <path d="M 22.93 337.97 
L 22.93 26.88 
" style="fill: none; stroke: #000000; stroke-width: 0.8; stroke-linejoin: miter; stroke-linecap: square"/>
   </g>
   <g id="patch_4">
    <path d="M 853.2 337.97 
L 853.2 26.88 
" style="fill: none; stroke: #000000; stroke-width: 0.8; stroke-linejoin: miter; stroke-linecap: square"/>
   </g>
   <g id="patch_5">
    <path d="M 22.93 337.97 
L 853.2 337.97 
" style="fill: none; stroke: #000000; stroke-width: 0.8; stroke-linejoin: miter; stroke-linecap: square"/>
   </g>
   <g id="patch_6">
    <path d="M 22.93 26.88 
L 853.2 26.88 
" style="fill: none; stroke: #000000; stroke-width: 0.8; stroke-linejoin: miter; stroke-linecap: square"/>
   </g>
   <g id="text_16">
    <!-- Wins - turns: 200, repetitions: 100, strategies: 10.  -->
    <g transform="translate(286.363438 20.88)scale(0.12 -0.12)">
     <defs>
      <path id="DejaVuSans-57" d="M 213 4666 
L 850 4666 
L 1831 722 
L 2809 4666 
L 3519 4666 
L 4500 722 
L 5478 4666 
L 6119 4666 
L 4947 0 
L 4153 0 
L 3169 4050 
L 2175 0 
L 1381 0 
L 213 4666 
z
" transform="scale(0.015625)"/>
      <path id="DejaVuSans-2d" d="M 313 2009 
L 1997 2009 
L 1997 1497 
L 313 1497 
L 313 2009 
z
" transform="scale(0.015625)"/>
      <path id="DejaVuSans-2c" d="M 750 794 
L 1409 794 
L 1409 256 
L 897 -744 
L 494 -744 
L 750 256 
L 750 794 
z
" transform="scale(0.015625)"/>
      <path id="DejaVuSans-31" d="M 794 531 
L 1825 531 
L 1825 4091 
L 703 3866 
L 703 4441 
L 1819 4666 
L 2450 4666 
L 2450 531 
L 3481 531 
L 3481 0 
L 794 0 
L 794 531 
z
" transform="scale(0.015625)"/>
     </defs>
     <use xlink:href="#DejaVuSans-57"/>
     <use xlink:href="#DejaVuSans-69" x="96.626953"/>
     <use xlink:href="#DejaVuSans-6e" x="124.410156"/>
     <use xlink:href="#DejaVuSans-73" x="187.789062"/>
     <use xlink:href="#DejaVuSans-20" x="239.888672"/>
     <use xlink:href="#DejaVuSans-2d" x="271.675781"/>
     <use xlink:href="#DejaVuSans-20" x="307.759766"/>
     <use xlink:href="#DejaVuSans-74" x="339.546875"/>
     <use xlink:href="#DejaVuSans-75" x="378.755859"/>
     <use xlink:href="#DejaVuSans-72" x="442.134766"/>
     <use xlink:href="#DejaVuSans-6e" x="481.498047"/>
     <use xlink:href="#DejaVuSans-73" x="544.876953"/>
     <use xlink:href="#DejaVuSans-3a" x="596.976562"/>
     <use xlink:href="#DejaVuSans-20" x="630.667969"/>
     <use xlink:href="#DejaVuSans-32" x="662.455078"/>
     <use xlink:href="#DejaVuSans-30" x="726.078125"/>
     <use xlink:href="#DejaVuSans-30" x="789.701172"/>
     <use xlink:href="#DejaVuSans-2c" x="853.324219"/>
     <use xlink:href="#DejaVuSans-20" x="885.111328"/>
     <use xlink:href="#DejaVuSans-72" x="916.898438"/>
     <use xlink:href="#DejaVuSans-65" x="955.761719"/>
     <use xlink:href="#DejaVuSans-70" x="1017.285156"/>
     <use xlink:href="#DejaVuSans-65" x="1080.761719"/>
     <use xlink:href="#DejaVuSans-74" x="1142.285156"/>
     <use xlink:href="#DejaVuSans-69" x="1181.494141"/>
     <use xlink:href="#DejaVuSans-74" x="1209.277344"/>
     <use xlink:href="#DejaVuSans-69" x="1248.486328"/>
     <use xlink:href="#DejaVuSans-6f" x="1276.269531"/>
     <use xlink:href="#DejaVuSans-6e" x="1337.451172"/>
     <use xlink:href="#DejaVuSans-73" x="1400.830078"/>
     <use xlink:href="#DejaVuSans-3a" x="1452.929688"/>
     <use xlink:href="#DejaVuSans-20" x="1486.621094"/>
     <use xlink:href="#DejaVuSans-31" x="1518.408203"/>
     <use xlink:href="#DejaVuSans-30" x="1582.03125"/>
     <use xlink:href="#DejaVuSans-30" x="1645.654297"/>
     <use xlink:href="#DejaVuSans-2c" x="1709.277344"/>
     <use xlink:href="#DejaVuSans-20" x="1741.064453"/>
     <use xlink:href="#DejaVuSans-73" x="1772.851562"/>
     <use xlink:href="#DejaVuSans-74" x="1824.951172"/>
     <use xlink:href="#DejaVuSans-72" x="1864.160156"/>
     <use xlink:href="#DejaVuSans-61" x="1905.273438"/>
     <use xlink:href="#DejaVuSans-74" x="1966.552734"/>
     <use xlink:href="#DejaVuSans-65" x="2005.761719"/>
     <use xlink:href="#DejaVuSans-67" x="2067.285156"/>
     <use xlink:href="#DejaVuSans-69" x="2130.761719"/>
     <use xlink:href="#DejaVuSans-65" x="2158.544922"/>
     <use xlink:href="#DejaVuSans-73" x="2220.068359"/>
     <use xlink:href="#DejaVuSans-3a" x="2272.167969"/>
     <use xlink:href="#DejaVuSans-20" x="2305.859375"/>
     <use xlink:href="#DejaVuSans-31" x="2337.646484"/>
     <use xlink:href="#DejaVuSans-30" x="2401.269531"/>
     <use xlink:href="#DejaVuSans-2e" x="2464.892578"/>
     <use xlink:href="#DejaVuSans-20" x="2496.679688"/>
    </g>
   </g>
  </g>
 </g>
 <defs>
  <clipPath id="p71dabeb3e9">
   <rect x="22.93" y="26.88" width="830.27" height="311.09"/>
  </clipPath>
 </defs>
</svg>
