<?xml version="1.0" encoding="utf-8" standalone="no"?>
<!DOCTYPE svg PUBLIC "-//W3C//DTD SVG 1.1//EN"
  "http://www.w3.org/Graphics/SVG/1.1/DTD/svg11.dtd">
<svg xmlns:xlink="http://www.w3.org/1999/xlink" width="864pt" height="432pt" viewBox="0 0 864 432" xmlns="http://www.w3.org/2000/svg" version="1.1">
 <metadata>
  <rdf:RDF xmlns:dc="http://purl.org/dc/elements/1.1/" xmlns:cc="http://creativecommons.org/ns#" xmlns:rdf="http://www.w3.org/1999/02/22-rdf-syntax-ns#">
   <cc:Work>
    <dc:type rdf:resource="http://purl.org/dc/dcmitype/StillImage"/>
    <dc:date>2022-09-12T23:49:00.289146</dc:date>
    <dc:format>image/svg+xml</dc:format>
    <dc:creator>
     <cc:Agent>
      <dc:title>Matplotlib v3.5.1, https://matplotlib.org/</dc:title>
     </cc:Agent>
    </dc:creator>
   </cc:Work>
  </rdf:RDF>
 </metadata>
 <defs>
  <style type="text/css">*{stroke-linejoin: round; stroke-linecap: butt}</style>
 </defs>
 <g id="figure_1">
  <g id="patch_1">
   <path d="M 0 432 
L 864 432 
L 864 0 
L 0 0 
z
" style="fill: #ffffff"/>
  </g>
  <g id="axes_1">
   <g id="patch_2">
    <path d="M 29.68 337.97 
L 853.2 337.97 
L 853.2 26.88 
L 29.68 26.88 
z
" style="fill: #ffffff"/>
   </g>
   <g id="PolyCollection_1">
    <path d="M 122.952991 185.253091 
L 86.137918 185.253091 
L 85.915242 183.881895 
L 85.829091 182.5107 
L 85.880049 181.139504 
L 86.065412 179.768309 
L 86.379281 178.397113 
L 86.81278 177.025917 
L 87.354388 175.654722 
L 87.990352 174.283526 
L 88.705184 172.912331 
L 89.482193 171.541135 
L 90.304045 170.169939 
L 91.153302 168.798744 
L 92.012944 167.427548 
L 92.866827 166.056353 
L 93.700078 164.685157 
L 94.499399 163.313961 
L 95.253294 161.942766 
L 95.952195 160.57157 
L 96.588511 159.200375 
L 97.156598 157.829179 
L 97.652661 156.457983 
L 98.074606 155.086788 
L 98.421859 153.715592 
L 98.69516 152.344397 
L 98.896355 150.973201 
L 99.02819 149.602006 
L 99.094129 148.23081 
L 99.09819 146.859614 
L 99.044814 145.488419 
L 98.938764 144.117223 
L 98.785054 142.746028 
L 98.588904 141.374832 
L 98.355714 140.003636 
L 98.091057 138.632441 
L 97.800668 137.261245 
L 97.490446 135.89005 
L 97.166436 134.518854 
L 96.834805 133.147658 
L 96.501795 131.776463 
L 96.173663 130.405267 
L 95.856591 129.034072 
L 95.556586 127.662876 
L 95.279358 126.29168 
L 95.030191 124.920485 
L 94.813812 123.549289 
L 94.634253 122.178094 
L 94.494736 120.806898 
L 94.397563 119.435702 
L 94.344042 118.064507 
L 94.334429 116.693311 
L 94.367913 115.322116 
L 94.442632 113.95092 
L 94.555724 112.579725 
L 94.703418 111.208529 
L 94.881149 109.837333 
L 95.08371 108.466138 
L 95.305418 107.094942 
L 95.5403 105.723747 
L 95.782287 104.352551 
L 96.025408 102.981355 
L 96.263984 101.61016 
L 96.492798 100.238964 
L 96.707259 98.867769 
L 96.90353 97.496573 
L 97.07864 96.125377 
L 97.230551 94.754182 
L 97.3582 93.382986 
L 97.461499 92.011791 
L 97.541311 90.640595 
L 97.599378 89.269399 
L 97.638233 87.898204 
L 97.661077 86.527008 
L 97.67164 85.155813 
L 97.674024 83.784617 
L 97.672539 82.413421 
L 97.671536 81.042226 
L 97.675248 79.67103 
L 97.68764 78.299835 
L 97.712276 76.928639 
L 97.752213 75.557444 
L 97.809915 74.186248 
L 97.887201 72.815052 
L 97.98522 71.443857 
L 98.104455 70.072661 
L 98.244752 68.701466 
L 98.405375 67.33027 
L 98.585078 65.959074 
L 98.78219 64.587879 
L 98.994708 63.216683 
L 99.220394 61.845488 
L 99.456866 60.474292 
L 99.701688 59.103096 
L 99.952441 57.731901 
L 100.206795 56.360705 
L 100.462548 54.98951 
L 100.717672 53.618314 
L 100.97033 52.247118 
L 101.218887 50.875923 
L 101.461912 49.504727 
L 107.628997 49.504727 
L 107.628997 49.504727 
L 107.872022 50.875923 
L 108.120579 52.247118 
L 108.373237 53.618314 
L 108.628361 54.98951 
L 108.884115 56.360705 
L 109.138468 57.731901 
L 109.389222 59.103096 
L 109.634043 60.474292 
L 109.870515 61.845488 
L 110.096201 63.216683 
L 110.308719 64.587879 
L 110.505831 65.959074 
L 110.685534 67.33027 
L 110.846157 68.701466 
L 110.986454 70.072661 
L 111.105689 71.443857 
L 111.203708 72.815052 
L 111.280994 74.186248 
L 111.338696 75.557444 
L 111.378633 76.928639 
L 111.403269 78.299835 
L 111.415661 79.67103 
L 111.419373 81.042226 
L 111.41837 82.413421 
L 111.416885 83.784617 
L 111.419269 85.155813 
L 111.429832 86.527008 
L 111.452676 87.898204 
L 111.491531 89.269399 
L 111.549598 90.640595 
L 111.62941 92.011791 
L 111.73271 93.382986 
L 111.860358 94.754182 
L 112.012269 96.125377 
L 112.187379 97.496573 
L 112.38365 98.867769 
L 112.598111 100.238964 
L 112.826925 101.61016 
L 113.065501 102.981355 
L 113.308623 104.352551 
L 113.550609 105.723747 
L 113.785491 107.094942 
L 114.007199 108.466138 
L 114.20976 109.837333 
L 114.387491 111.208529 
L 114.535185 112.579725 
L 114.648277 113.95092 
L 114.722996 115.322116 
L 114.75648 116.693311 
L 114.746867 118.064507 
L 114.693346 119.435702 
L 114.596173 120.806898 
L 114.456656 122.178094 
L 114.277097 123.549289 
L 114.060718 124.920485 
L 113.811551 126.29168 
L 113.534323 127.662876 
L 113.234318 129.034072 
L 112.917246 130.405267 
L 112.589114 131.776463 
L 112.256104 133.147658 
L 111.924473 134.518854 
L 111.600463 135.89005 
L 111.290241 137.261245 
L 110.999852 138.632441 
L 110.735195 140.003636 
L 110.502005 141.374832 
L 110.305855 142.746028 
L 110.152145 144.117223 
L 110.046095 145.488419 
L 109.992719 146.859614 
L 109.99678 148.23081 
L 110.062719 149.602006 
L 110.194554 150.973201 
L 110.395749 152.344397 
L 110.66905 153.715592 
L 111.016303 155.086788 
L 111.438248 156.457983 
L 111.934311 157.829179 
L 112.502398 159.200375 
L 113.138715 160.57157 
L 113.837615 161.942766 
L 114.59151 163.313961 
L 115.390831 164.685157 
L 116.224082 166.056353 
L 117.077966 167.427548 
L 117.937607 168.798744 
L 118.786864 170.169939 
L 119.608716 171.541135 
L 120.385725 172.912331 
L 121.100557 174.283526 
L 121.736521 175.654722 
L 122.278129 177.025917 
L 122.711629 178.397113 
L 123.025497 179.768309 
L 123.21086 181.139504 
L 123.261818 182.5107 
L 123.175667 183.881895 
L 122.952991 185.253091 
z
" clip-path="url(#pd2f0467b4b)" style="fill: #1f77b4; fill-opacity: 0.3"/>
   </g>
   <g id="PolyCollection_2">
    <path d="M 185.049711 298.376727 
L 173.772107 298.376727 
L 173.606184 295.948568 
L 173.494583 293.52041 
L 173.440058 291.092251 
L 173.443511 288.664092 
L 173.50391 286.235933 
L 173.618303 283.807774 
L 173.781921 281.379615 
L 173.988367 278.951456 
L 174.229862 276.523298 
L 174.497553 274.095139 
L 174.781839 271.66698 
L 175.072705 269.238821 
L 175.36004 266.810662 
L 175.633916 264.382503 
L 175.884824 261.954344 
L 176.103847 259.526185 
L 176.28278 257.098027 
L 176.414186 254.669868 
L 176.491417 252.241709 
L 176.508593 249.81355 
L 176.460572 247.385391 
L 176.342917 244.957232 
L 176.151882 242.529073 
L 175.884437 240.100915 
L 175.538325 237.672756 
L 175.112178 235.244597 
L 174.605675 232.816438 
L 174.019733 230.388279 
L 173.356736 227.96012 
L 172.620755 225.531961 
L 171.817757 223.103803 
L 170.955767 220.675644 
L 170.044952 218.247485 
L 169.097617 215.819326 
L 168.128075 213.391167 
L 167.152389 210.963008 
L 166.187982 208.534849 
L 165.25311 206.106691 
L 164.366228 203.678532 
L 163.545265 201.250373 
L 162.806848 198.822214 
L 162.16552 196.394055 
L 161.633002 193.965896 
L 161.217544 191.537737 
L 160.923413 189.109579 
L 160.750568 186.68142 
L 160.694545 184.253261 
L 160.746572 181.825102 
L 160.893923 179.396943 
L 161.120498 176.968784 
L 161.407601 174.540625 
L 161.734874 172.112466 
L 162.081339 169.684308 
L 162.426482 167.256149 
L 162.751315 164.82799 
L 163.039349 162.399831 
L 163.277426 159.971672 
L 163.456353 157.543513 
L 163.571292 155.115354 
L 163.621906 152.687196 
L 163.612227 150.259037 
L 163.55028 147.830878 
L 163.447475 145.402719 
L 163.317813 142.97456 
L 163.176962 140.546401 
L 163.041251 138.118242 
L 162.926652 135.690084 
L 162.847819 133.261925 
L 162.817215 130.833766 
L 162.844408 128.405607 
L 162.935543 125.977448 
L 163.093037 123.549289 
L 163.315496 121.12113 
L 163.597847 118.692972 
L 163.931692 116.264813 
L 164.305819 113.836654 
L 164.706882 111.408495 
L 165.120165 108.980336 
L 165.530412 106.552177 
L 165.922676 104.124018 
L 166.283128 101.69586 
L 166.599802 99.267701 
L 166.86323 96.839542 
L 167.066942 94.411383 
L 167.207809 91.983224 
L 167.286214 89.555065 
L 167.306046 87.126906 
L 167.274511 84.698747 
L 167.201788 82.270589 
L 167.100522 79.84243 
L 166.985205 77.414271 
L 166.871459 74.986112 
L 166.775268 72.557953 
L 166.71219 70.129794 
L 166.696604 67.701635 
L 166.741012 65.273477 
L 166.855462 62.845318 
L 167.047092 60.417159 
L 167.319843 57.989 
L 191.501976 57.989 
L 191.501976 57.989 
L 191.774726 60.417159 
L 191.966356 62.845318 
L 192.080806 65.273477 
L 192.125214 67.701635 
L 192.109628 70.129794 
L 192.04655 72.557953 
L 191.950359 74.986112 
L 191.836613 77.414271 
L 191.721296 79.84243 
L 191.62003 82.270589 
L 191.547307 84.698747 
L 191.515773 87.126906 
L 191.535604 89.555065 
L 191.61401 91.983224 
L 191.754876 94.411383 
L 191.958588 96.839542 
L 192.222016 99.267701 
L 192.53869 101.69586 
L 192.899143 104.124018 
L 193.291407 106.552177 
L 193.701654 108.980336 
L 194.114936 111.408495 
L 194.515999 113.836654 
L 194.890127 116.264813 
L 195.223971 118.692972 
L 195.506323 121.12113 
L 195.728781 123.549289 
L 195.886275 125.977448 
L 195.97741 128.405607 
L 196.004603 130.833766 
L 195.973999 133.261925 
L 195.895166 135.690084 
L 195.780568 138.118242 
L 195.644856 140.546401 
L 195.504005 142.97456 
L 195.374343 145.402719 
L 195.271538 147.830878 
L 195.209591 150.259037 
L 195.199913 152.687196 
L 195.250526 155.115354 
L 195.365465 157.543513 
L 195.544392 159.971672 
L 195.782469 162.399831 
L 196.070503 164.82799 
L 196.395336 167.256149 
L 196.740479 169.684308 
L 197.086945 172.112466 
L 197.414218 174.540625 
L 197.70132 176.968784 
L 197.927895 179.396943 
L 198.075246 181.825102 
L 198.127273 184.253261 
L 198.07125 186.68142 
L 197.898405 189.109579 
L 197.604274 191.537737 
L 197.188816 193.965896 
L 196.656298 196.394055 
L 196.01497 198.822214 
L 195.276553 201.250373 
L 194.45559 203.678532 
L 193.568708 206.106691 
L 192.633837 208.534849 
L 191.669429 210.963008 
L 190.693743 213.391167 
L 189.724201 215.819326 
L 188.776866 218.247485 
L 187.866051 220.675644 
L 187.004061 223.103803 
L 186.201063 225.531961 
L 185.465082 227.96012 
L 184.802085 230.388279 
L 184.216143 232.816438 
L 183.70964 235.244597 
L 183.283493 237.672756 
L 182.937381 240.100915 
L 182.669936 242.529073 
L 182.478901 244.957232 
L 182.361246 247.385391 
L 182.313225 249.81355 
L 182.330402 252.241709 
L 182.407633 254.669868 
L 182.539039 257.098027 
L 182.717971 259.526185 
L 182.936994 261.954344 
L 183.187902 264.382503 
L 183.461779 266.810662 
L 183.749113 269.238821 
L 184.03998 271.66698 
L 184.324266 274.095139 
L 184.591956 276.523298 
L 184.833451 278.951456 
L 185.039897 281.379615 
L 185.203516 283.807774 
L 185.317908 286.235933 
L 185.378307 288.664092 
L 185.38176 291.092251 
L 185.327235 293.52041 
L 185.215635 295.948568 
L 185.049711 298.376727 
z
" clip-path="url(#pd2f0467b4b)" style="fill: #1f77b4; fill-opacity: 0.3"/>
   </g>
   <g id="PolyCollection_3">
    <path d="M 272.138527 182.425 
L 236.414201 182.425 
L 236.056406 180.996671 
L 235.793291 179.568343 
L 235.627538 178.140014 
L 235.56 176.711685 
L 235.58968 175.283356 
L 235.713754 173.855028 
L 235.927658 172.426699 
L 236.225212 170.99837 
L 236.598796 169.570041 
L 237.039557 168.141713 
L 237.537642 166.713384 
L 238.082459 165.285055 
L 238.662936 163.856726 
L 239.267788 162.428398 
L 239.885774 161.000069 
L 240.50594 159.57174 
L 241.117833 158.143411 
L 241.711704 156.715083 
L 242.278661 155.286754 
L 242.810808 153.858425 
L 243.301338 152.430096 
L 243.744603 151.001768 
L 244.136147 149.573439 
L 244.472717 148.14511 
L 244.752248 146.716781 
L 244.973827 145.288453 
L 245.137642 143.860124 
L 245.244917 142.431795 
L 245.297834 141.003466 
L 245.299457 139.575138 
L 245.253639 138.146809 
L 245.164937 136.71848 
L 245.038513 135.290152 
L 244.880045 133.861823 
L 244.695627 132.433494 
L 244.491667 131.005165 
L 244.274789 129.576837 
L 244.051726 128.148508 
L 243.829213 126.720179 
L 243.613874 125.29185 
L 243.412115 123.863522 
L 243.230007 122.435193 
L 243.07318 121.006864 
L 242.946715 119.578535 
L 242.855048 118.150207 
L 242.801877 116.721878 
L 242.790093 115.293549 
L 242.821713 113.86522 
L 242.897847 112.436892 
L 243.018672 111.008563 
L 243.183439 109.580234 
L 243.390492 108.151905 
L 243.637319 106.723577 
L 243.920616 105.295248 
L 244.236376 103.866919 
L 244.579989 102.43859 
L 244.946359 101.010262 
L 245.330021 99.581933 
L 245.725276 98.153604 
L 246.126311 96.725275 
L 246.527325 95.296947 
L 246.922645 93.868618 
L 247.30683 92.440289 
L 247.674764 91.011961 
L 248.021731 89.583632 
L 248.343482 88.155303 
L 248.636282 86.726974 
L 248.896937 85.298646 
L 249.122825 83.870317 
L 249.311896 82.441988 
L 249.462676 81.013659 
L 249.574261 79.585331 
L 249.646302 78.157002 
L 249.678992 76.728673 
L 249.673051 75.300344 
L 249.629706 73.872016 
L 249.550676 72.443687 
L 249.438152 71.015358 
L 249.294784 69.587029 
L 249.123655 68.158701 
L 248.928264 66.730372 
L 248.712495 65.302043 
L 248.480583 63.873714 
L 248.237073 62.445386 
L 247.98677 61.017057 
L 247.734676 59.588728 
L 247.48592 58.160399 
L 247.245676 56.732071 
L 247.019074 55.303742 
L 246.811103 53.875413 
L 246.62651 52.447084 
L 246.469696 51.018756 
L 246.344616 49.590427 
L 246.254685 48.162098 
L 246.202692 46.73377 
L 246.190729 45.305441 
L 246.220136 43.877112 
L 246.291465 42.448783 
L 246.404466 41.020455 
L 262.148261 41.020455 
L 262.148261 41.020455 
L 262.261262 42.448783 
L 262.332591 43.877112 
L 262.361998 45.305441 
L 262.350036 46.73377 
L 262.298043 48.162098 
L 262.208111 49.590427 
L 262.083031 51.018756 
L 261.926217 52.447084 
L 261.741624 53.875413 
L 261.533653 55.303742 
L 261.307052 56.732071 
L 261.066808 58.160399 
L 260.818051 59.588728 
L 260.565957 61.017057 
L 260.315654 62.445386 
L 260.072144 63.873714 
L 259.840232 65.302043 
L 259.624463 66.730372 
L 259.429072 68.158701 
L 259.257944 69.587029 
L 259.114575 71.015358 
L 259.002052 72.443687 
L 258.923021 73.872016 
L 258.879676 75.300344 
L 258.873735 76.728673 
L 258.906426 78.157002 
L 258.978466 79.585331 
L 259.090051 81.013659 
L 259.240831 82.441988 
L 259.429902 83.870317 
L 259.65579 85.298646 
L 259.916446 86.726974 
L 260.209245 88.155303 
L 260.530997 89.583632 
L 260.877964 91.011961 
L 261.245897 92.440289 
L 261.630082 93.868618 
L 262.025402 95.296947 
L 262.426416 96.725275 
L 262.827451 98.153604 
L 263.222706 99.581933 
L 263.606369 101.010262 
L 263.972738 102.43859 
L 264.316352 103.866919 
L 264.632112 105.295248 
L 264.915409 106.723577 
L 265.162235 108.151905 
L 265.369288 109.580234 
L 265.534055 111.008563 
L 265.654881 112.436892 
L 265.731015 113.86522 
L 265.762635 115.293549 
L 265.75085 116.721878 
L 265.697679 118.150207 
L 265.606012 119.578535 
L 265.479547 121.006864 
L 265.32272 122.435193 
L 265.140612 123.863522 
L 264.938853 125.29185 
L 264.723514 126.720179 
L 264.501001 128.148508 
L 264.277938 129.576837 
L 264.061061 131.005165 
L 263.8571 132.433494 
L 263.672682 133.861823 
L 263.514214 135.290152 
L 263.38779 136.71848 
L 263.299088 138.146809 
L 263.25327 139.575138 
L 263.254893 141.003466 
L 263.307811 142.431795 
L 263.415085 143.860124 
L 263.5789 145.288453 
L 263.80048 146.716781 
L 264.08001 148.14511 
L 264.41658 149.573439 
L 264.808124 151.001768 
L 265.251389 152.430096 
L 265.741919 153.858425 
L 266.274066 155.286754 
L 266.841024 156.715083 
L 267.434894 158.143411 
L 268.046788 159.57174 
L 268.666953 161.000069 
L 269.284939 162.428398 
L 269.889792 163.856726 
L 270.470269 165.285055 
L 271.015085 166.713384 
L 271.513171 168.141713 
L 271.953931 169.570041 
L 272.327515 170.99837 
L 272.625069 172.426699 
L 272.838973 173.855028 
L 272.963048 175.283356 
L 272.992727 176.711685 
L 272.92519 178.140014 
L 272.759436 179.568343 
L 272.496321 180.996671 
L 272.138527 182.425 
z
" clip-path="url(#pd2f0467b4b)" style="fill: #1f77b4; fill-opacity: 0.3"/>
   </g>
   <g id="PolyCollection_4">
    <path d="M 338.524245 270.095818 
L 319.759391 270.095818 
L 318.886018 268.296124 
L 318.008181 266.49643 
L 317.137753 264.696736 
L 316.287336 262.897041 
L 315.46995 261.097347 
L 314.698677 259.297653 
L 313.986288 257.497959 
L 313.344846 255.698264 
L 312.785315 253.89857 
L 312.317186 252.098876 
L 311.948129 250.299182 
L 311.683697 248.499488 
L 311.527084 246.699793 
L 311.478956 244.900099 
L 311.53735 243.100405 
L 311.697669 241.300711 
L 311.95274 239.501017 
L 312.292967 237.701322 
L 312.706549 235.901628 
L 313.17977 234.101934 
L 313.697346 232.30224 
L 314.242817 230.502545 
L 314.798979 228.702851 
L 315.348341 226.903157 
L 315.873591 225.103463 
L 316.35807 223.303769 
L 316.786234 221.504074 
L 317.144103 219.70438 
L 317.419676 217.904686 
L 317.60331 216.104992 
L 317.688049 214.305298 
L 317.669898 212.505603 
L 317.548015 210.705909 
L 317.324832 208.906215 
L 317.006075 207.106521 
L 316.600687 205.306826 
L 316.120636 203.507132 
L 315.580625 201.707438 
L 314.997669 199.907744 
L 314.390594 198.10805 
L 313.779423 196.308355 
L 313.184699 194.508661 
L 312.626758 192.708967 
L 312.12498 190.909273 
L 311.697051 189.109579 
L 311.358273 187.309884 
L 311.120948 185.51019 
L 310.993878 183.710496 
L 310.981998 181.910802 
L 311.086163 180.111107 
L 311.303105 178.311413 
L 311.625559 176.511719 
L 312.04255 174.712025 
L 312.539832 172.912331 
L 313.100449 171.112636 
L 313.705396 169.312942 
L 314.334343 167.513248 
L 314.966388 165.713554 
L 315.580807 163.91386 
L 316.15777 162.114165 
L 316.678991 160.314471 
L 317.128295 158.514777 
L 317.492085 156.715083 
L 317.759688 154.915388 
L 317.923601 153.115694 
L 317.979606 151.316 
L 317.926789 149.516306 
L 317.767452 147.716612 
L 317.506939 145.916917 
L 317.153391 144.117223 
L 316.71743 142.317529 
L 316.211807 140.517835 
L 315.651004 138.71814 
L 315.050819 136.918446 
L 314.427931 135.118752 
L 313.799468 133.319058 
L 313.18258 131.519364 
L 312.594018 129.719669 
L 312.049748 127.919975 
L 311.564578 126.120281 
L 311.151841 124.320587 
L 310.8231 122.520893 
L 310.587919 120.721198 
L 310.453679 118.921504 
L 310.425455 117.12181 
L 310.505954 115.322116 
L 310.695518 113.522421 
L 310.992183 111.722727 
L 311.391806 109.923033 
L 311.888235 108.123339 
L 312.473542 106.323645 
L 313.138283 104.52395 
L 313.871799 102.724256 
L 314.662535 100.924562 
L 315.498365 99.124868 
L 316.366922 97.325174 
L 317.255913 95.525479 
L 318.153413 93.725785 
L 319.048129 91.926091 
L 339.235508 91.926091 
L 339.235508 91.926091 
L 340.130224 93.725785 
L 341.027723 95.525479 
L 341.916714 97.325174 
L 342.785271 99.124868 
L 343.621101 100.924562 
L 344.411837 102.724256 
L 345.145354 104.52395 
L 345.810095 106.323645 
L 346.395401 108.123339 
L 346.891831 109.923033 
L 347.291453 111.722727 
L 347.588119 113.522421 
L 347.777683 115.322116 
L 347.858182 117.12181 
L 347.829957 118.921504 
L 347.695717 120.721198 
L 347.460536 122.520893 
L 347.131795 124.320587 
L 346.719058 126.120281 
L 346.233889 127.919975 
L 345.689618 129.719669 
L 345.101056 131.519364 
L 344.484168 133.319058 
L 343.855706 135.118752 
L 343.232817 136.918446 
L 342.632632 138.71814 
L 342.07183 140.517835 
L 341.566207 142.317529 
L 341.130246 144.117223 
L 340.776697 145.916917 
L 340.516184 147.716612 
L 340.356847 149.516306 
L 340.30403 151.316 
L 340.360035 153.115694 
L 340.523948 154.915388 
L 340.791552 156.715083 
L 341.155341 158.514777 
L 341.604646 160.314471 
L 342.125867 162.114165 
L 342.702829 163.91386 
L 343.317248 165.713554 
L 343.949293 167.513248 
L 344.57824 169.312942 
L 345.183188 171.112636 
L 345.743805 172.912331 
L 346.241087 174.712025 
L 346.658077 176.511719 
L 346.980531 178.311413 
L 347.197473 180.111107 
L 347.301638 181.910802 
L 347.289758 183.710496 
L 347.162688 185.51019 
L 346.925363 187.309884 
L 346.586585 189.109579 
L 346.158656 190.909273 
L 345.656879 192.708967 
L 345.098938 194.508661 
L 344.504214 196.308355 
L 343.893042 198.10805 
L 343.285967 199.907744 
L 342.703012 201.707438 
L 342.163 203.507132 
L 341.68295 205.306826 
L 341.277561 207.106521 
L 340.958804 208.906215 
L 340.735621 210.705909 
L 340.613738 212.505603 
L 340.595587 214.305298 
L 340.680327 216.104992 
L 340.86396 217.904686 
L 341.139533 219.70438 
L 341.497402 221.504074 
L 341.925567 223.303769 
L 342.410045 225.103463 
L 342.935295 226.903157 
L 343.484657 228.702851 
L 344.04082 230.502545 
L 344.58629 232.30224 
L 345.103866 234.101934 
L 345.577087 235.901628 
L 345.99067 237.701322 
L 346.330897 239.501017 
L 346.585968 241.300711 
L 346.746286 243.100405 
L 346.804681 244.900099 
L 346.756552 246.699793 
L 346.599939 248.499488 
L 346.335507 250.299182 
L 345.966451 252.098876 
L 345.498322 253.89857 
L 344.938791 255.698264 
L 344.297348 257.497959 
L 343.584959 259.297653 
L 342.813686 261.097347 
L 341.9963 262.897041 
L 341.145884 264.696736 
L 340.275456 266.49643 
L 339.397618 268.296124 
L 338.524245 270.095818 
z
" clip-path="url(#pd2f0467b4b)" style="fill: #1f77b4; fill-opacity: 0.3"/>
   </g>
   <g id="PolyCollection_5">
    <path d="M 413.22578 185.253091 
L 394.788765 185.253091 
L 394.806368 185.224524 
L 394.858976 185.195958 
L 394.945989 185.167391 
L 395.066418 185.138825 
L 395.218906 185.110258 
L 395.401753 185.081691 
L 395.612947 185.053125 
L 395.850199 185.024558 
L 396.110989 184.995992 
L 396.392606 184.967425 
L 396.692195 184.938859 
L 397.006808 184.910292 
L 397.33345 184.881725 
L 397.669125 184.853159 
L 398.01088 184.824592 
L 398.355849 184.796026 
L 398.70129 184.767459 
L 399.044617 184.738893 
L 399.383429 184.710326 
L 399.715535 184.681759 
L 400.038969 184.653193 
L 400.352007 184.624626 
L 400.653167 184.59606 
L 400.941218 184.567493 
L 401.215171 184.538927 
L 401.474278 184.51036 
L 401.718016 184.481793 
L 401.946072 184.453227 
L 402.158331 184.42466 
L 402.354853 184.396094 
L 402.535852 184.367527 
L 402.701675 184.338961 
L 402.852782 184.310394 
L 402.989719 184.281827 
L 403.113099 184.253261 
L 403.22358 184.224694 
L 403.321843 184.196128 
L 403.408577 184.167561 
L 403.484456 184.138994 
L 403.550125 184.110428 
L 403.606184 184.081861 
L 403.653176 184.053295 
L 403.69157 184.024728 
L 403.721756 183.996162 
L 403.744028 183.967595 
L 403.758583 183.939028 
L 403.765505 183.910462 
L 403.764767 183.881895 
L 403.756217 183.853329 
L 403.739579 183.824762 
L 403.714449 183.796196 
L 403.68029 183.767629 
L 403.636436 183.739062 
L 403.582087 183.710496 
L 403.516315 183.681929 
L 403.438067 183.653363 
L 403.346174 183.624796 
L 403.239356 183.59623 
L 403.116238 183.567663 
L 402.975359 183.539096 
L 402.815198 183.51053 
L 402.634187 183.481963 
L 402.430741 183.453397 
L 402.203285 183.42483 
L 401.950283 183.396264 
L 401.670277 183.367697 
L 401.361919 183.33913 
L 401.024018 183.310564 
L 400.655573 183.281997 
L 400.255824 183.253431 
L 399.824292 183.224864 
L 399.360819 183.196298 
L 398.865612 183.167731 
L 398.33928 183.139164 
L 397.782868 183.110598 
L 397.197884 183.082031 
L 396.58632 183.053465 
L 395.95067 183.024898 
L 395.293934 182.996331 
L 394.619608 182.967765 
L 393.93168 182.939198 
L 393.234596 182.910632 
L 392.533226 182.882065 
L 391.832819 182.853499 
L 391.138941 182.824932 
L 390.457412 182.796365 
L 389.794223 182.767799 
L 389.155458 182.739232 
L 388.547199 182.710666 
L 387.97543 182.682099 
L 387.445946 182.653533 
L 386.964251 182.624966 
L 386.535463 182.596399 
L 386.164227 182.567833 
L 385.854629 182.539266 
L 385.610121 182.5107 
L 385.433459 182.482133 
L 385.326649 182.453567 
L 385.290909 182.425 
L 422.723636 182.425 
L 422.723636 182.425 
L 422.687897 182.453567 
L 422.581086 182.482133 
L 422.404424 182.5107 
L 422.159916 182.539266 
L 421.850319 182.567833 
L 421.479083 182.596399 
L 421.050295 182.624966 
L 420.568599 182.653533 
L 420.039115 182.682099 
L 419.467347 182.710666 
L 418.859087 182.739232 
L 418.220322 182.767799 
L 417.557134 182.796365 
L 416.875604 182.824932 
L 416.181727 182.853499 
L 415.481319 182.882065 
L 414.77995 182.910632 
L 414.082865 182.939198 
L 413.394937 182.967765 
L 412.720612 182.996331 
L 412.063875 183.024898 
L 411.428226 183.053465 
L 410.816662 183.082031 
L 410.231677 183.110598 
L 409.675265 183.139164 
L 409.148934 183.167731 
L 408.653727 183.196298 
L 408.190254 183.224864 
L 407.758721 183.253431 
L 407.358973 183.281997 
L 406.990528 183.310564 
L 406.652626 183.33913 
L 406.344268 183.367697 
L 406.064262 183.396264 
L 405.81126 183.42483 
L 405.583804 183.453397 
L 405.380359 183.481963 
L 405.199348 183.51053 
L 405.039186 183.539096 
L 404.898308 183.567663 
L 404.775189 183.59623 
L 404.668371 183.624796 
L 404.576478 183.653363 
L 404.498231 183.681929 
L 404.432459 183.710496 
L 404.378109 183.739062 
L 404.334255 183.767629 
L 404.300097 183.796196 
L 404.274967 183.824762 
L 404.258329 183.853329 
L 404.249779 183.881895 
L 404.24904 183.910462 
L 404.255963 183.939028 
L 404.270517 183.967595 
L 404.29279 183.996162 
L 404.322975 184.024728 
L 404.36137 184.053295 
L 404.408361 184.081861 
L 404.464421 184.110428 
L 404.53009 184.138994 
L 404.605969 184.167561 
L 404.692702 184.196128 
L 404.790966 184.224694 
L 404.901446 184.253261 
L 405.024826 184.281827 
L 405.161763 184.310394 
L 405.31287 184.338961 
L 405.478694 184.367527 
L 405.659693 184.396094 
L 405.856215 184.42466 
L 406.068474 184.453227 
L 406.29653 184.481793 
L 406.540267 184.51036 
L 406.799374 184.538927 
L 407.073328 184.567493 
L 407.361378 184.59606 
L 407.662539 184.624626 
L 407.975576 184.653193 
L 408.299011 184.681759 
L 408.631117 184.710326 
L 408.969929 184.738893 
L 409.313255 184.767459 
L 409.658696 184.796026 
L 410.003665 184.824592 
L 410.34542 184.853159 
L 410.681095 184.881725 
L 411.007737 184.910292 
L 411.322351 184.938859 
L 411.62194 184.967425 
L 411.903556 184.995992 
L 412.164346 185.024558 
L 412.401598 185.053125 
L 412.612792 185.081691 
L 412.795639 185.110258 
L 412.948128 185.138825 
L 413.068557 185.167391 
L 413.155569 185.195958 
L 413.208177 185.224524 
L 413.22578 185.253091 
z
" clip-path="url(#pd2f0467b4b)" style="fill: #1f77b4; fill-opacity: 0.3"/>
   </g>
   <g id="PolyCollection_6">
    <path d="M 483.058334 318.173364 
L 474.68712 318.173364 
L 474.494393 315.430972 
L 474.338951 312.688581 
L 474.223702 309.94619 
L 474.149917 307.203799 
L 474.117113 304.461408 
L 474.123039 301.719017 
L 474.163771 298.976625 
L 474.23391 296.234234 
L 474.326876 293.491843 
L 474.435277 290.749452 
L 474.551322 288.007061 
L 474.667265 285.264669 
L 474.77583 282.522278 
L 474.870604 279.779887 
L 474.946347 277.037496 
L 474.999224 274.295105 
L 475.026908 271.552713 
L 475.028571 268.810322 
L 475.004741 266.067931 
L 474.95704 263.32554 
L 474.887826 260.583149 
L 474.799746 257.840758 
L 474.695244 255.098366 
L 474.576059 252.355975 
L 474.442758 249.613584 
L 474.294334 246.871193 
L 474.127932 244.128802 
L 473.93871 241.38641 
L 473.719903 238.644019 
L 473.463066 235.901628 
L 473.158537 233.159237 
L 472.796084 230.416846 
L 472.365722 227.674455 
L 471.858649 224.932063 
L 471.268235 222.189672 
L 470.591005 219.447281 
L 469.827521 216.70489 
L 468.983083 213.962499 
L 468.068176 211.220107 
L 467.098589 208.477716 
L 466.095177 205.735325 
L 465.083223 202.992934 
L 464.091446 200.250543 
L 463.150667 197.508152 
L 462.292243 194.76576 
L 461.546341 192.023369 
L 460.940201 189.280978 
L 460.496506 186.538587 
L 460.231985 183.796196 
L 460.156364 181.053804 
L 460.27175 178.311413 
L 460.572497 175.569022 
L 461.045568 172.826631 
L 461.671349 170.08424 
L 462.424872 167.341848 
L 463.277322 164.599457 
L 464.197729 161.857066 
L 465.154706 159.114675 
L 466.11811 156.372284 
L 467.060515 153.629893 
L 467.958404 150.887501 
L 468.793023 148.14511 
L 469.55086 145.402719 
L 470.223755 142.660328 
L 470.808671 139.917937 
L 471.307166 137.175545 
L 471.724641 134.433154 
L 472.069447 131.690763 
L 472.351906 128.948372 
L 472.583346 126.205981 
L 472.775195 123.46359 
L 472.938196 120.721198 
L 473.081778 117.978807 
L 473.213614 115.236416 
L 473.339354 112.494025 
L 473.462556 109.751634 
L 473.584781 107.009242 
L 473.705827 104.266851 
L 473.824081 101.52446 
L 473.936949 98.782069 
L 474.041319 96.039678 
L 474.134036 93.297287 
L 474.212338 90.554895 
L 474.274243 87.812504 
L 474.318834 85.070113 
L 474.346464 82.327722 
L 474.358828 79.585331 
L 474.358937 76.842939 
L 474.35097 74.100548 
L 474.340045 71.358157 
L 474.331898 68.615766 
L 474.332526 65.873375 
L 474.347793 63.130983 
L 474.383054 60.388592 
L 474.442806 57.646201 
L 474.530401 54.90381 
L 474.647839 52.161419 
L 474.795657 49.419028 
L 474.97291 46.676636 
L 482.772544 46.676636 
L 482.772544 46.676636 
L 482.949798 49.419028 
L 483.097615 52.161419 
L 483.215054 54.90381 
L 483.302649 57.646201 
L 483.362401 60.388592 
L 483.397662 63.130983 
L 483.412929 65.873375 
L 483.413556 68.615766 
L 483.405409 71.358157 
L 483.394484 74.100548 
L 483.386518 76.842939 
L 483.386626 79.585331 
L 483.398991 82.327722 
L 483.42662 85.070113 
L 483.471212 87.812504 
L 483.533116 90.554895 
L 483.611419 93.297287 
L 483.704136 96.039678 
L 483.808506 98.782069 
L 483.921373 101.52446 
L 484.039628 104.266851 
L 484.160673 107.009242 
L 484.282898 109.751634 
L 484.406101 112.494025 
L 484.531841 115.236416 
L 484.663676 117.978807 
L 484.807259 120.721198 
L 484.970259 123.46359 
L 485.162108 126.205981 
L 485.393548 128.948372 
L 485.676008 131.690763 
L 486.020813 134.433154 
L 486.438289 137.175545 
L 486.936783 139.917937 
L 487.5217 142.660328 
L 488.194595 145.402719 
L 488.952431 148.14511 
L 489.78705 150.887501 
L 490.684939 153.629893 
L 491.627344 156.372284 
L 492.590749 159.114675 
L 493.547726 161.857066 
L 494.468133 164.599457 
L 495.320582 167.341848 
L 496.074105 170.08424 
L 496.699886 172.826631 
L 497.172957 175.569022 
L 497.473705 178.311413 
L 497.589091 181.053804 
L 497.51347 183.796196 
L 497.248948 186.538587 
L 496.805254 189.280978 
L 496.199114 192.023369 
L 495.453211 194.76576 
L 494.594787 197.508152 
L 493.654009 200.250543 
L 492.662232 202.992934 
L 491.650278 205.735325 
L 490.646865 208.477716 
L 489.677279 211.220107 
L 488.762371 213.962499 
L 487.917934 216.70489 
L 487.15445 219.447281 
L 486.47722 222.189672 
L 485.886806 224.932063 
L 485.379732 227.674455 
L 484.949371 230.416846 
L 484.586918 233.159237 
L 484.282389 235.901628 
L 484.025552 238.644019 
L 483.806744 241.38641 
L 483.617523 244.128802 
L 483.45112 246.871193 
L 483.302697 249.613584 
L 483.169396 252.355975 
L 483.050211 255.098366 
L 482.945708 257.840758 
L 482.857628 260.583149 
L 482.788415 263.32554 
L 482.740714 266.067931 
L 482.716883 268.810322 
L 482.718546 271.552713 
L 482.746231 274.295105 
L 482.799108 277.037496 
L 482.874851 279.779887 
L 482.969624 282.522278 
L 483.07819 285.264669 
L 483.194133 288.007061 
L 483.310178 290.749452 
L 483.418578 293.491843 
L 483.511545 296.234234 
L 483.581684 298.976625 
L 483.622415 301.719017 
L 483.628341 304.461408 
L 483.595537 307.203799 
L 483.521753 309.94619 
L 483.406504 312.688581 
L 483.251061 315.430972 
L 483.058334 318.173364 
z
" clip-path="url(#pd2f0467b4b)" style="fill: #1f77b4; fill-opacity: 0.3"/>
   </g>
   <g id="PolyCollection_7">
    <path d="M 571.194524 253.127273 
L 536.28184 253.127273 
L 535.858074 251.698944 
L 535.516485 250.270615 
L 535.261469 248.842287 
L 535.096054 247.413958 
L 535.021818 245.985629 
L 535.038827 244.5573 
L 535.145617 243.128972 
L 535.339214 241.700643 
L 535.615178 240.272314 
L 535.967689 238.843985 
L 536.389662 237.415657 
L 536.872882 235.987328 
L 537.408169 234.558999 
L 537.985552 233.13067 
L 538.594464 231.702342 
L 539.223936 230.274013 
L 539.862801 228.845684 
L 540.499887 227.417355 
L 541.12422 225.989027 
L 541.725198 224.560698 
L 542.292771 223.132369 
L 542.8176 221.70404 
L 543.291197 220.275712 
L 543.706057 218.847383 
L 544.055767 217.419054 
L 544.335101 215.990725 
L 544.540093 214.562397 
L 544.6681 213.134068 
L 544.717837 211.705739 
L 544.689402 210.27741 
L 544.584276 208.849082 
L 544.40531 207.420753 
L 544.156684 205.992424 
L 543.843852 204.564096 
L 543.473461 203.135767 
L 543.053246 201.707438 
L 542.591913 200.279109 
L 542.098985 198.850781 
L 541.584639 197.422452 
L 541.059519 195.994123 
L 540.534531 194.565794 
L 540.020631 193.137466 
L 539.528594 191.709137 
L 539.068791 190.280808 
L 538.650956 188.852479 
L 538.283973 187.424151 
L 537.975662 185.995822 
L 537.7326 184.567493 
L 537.559959 183.139164 
L 537.461377 181.710836 
L 537.438867 180.282507 
L 537.492756 178.854178 
L 537.62168 177.425849 
L 537.822605 175.997521 
L 538.090896 174.569192 
L 538.420424 173.140863 
L 538.803709 171.712534 
L 539.232091 170.284206 
L 539.695927 168.855877 
L 540.184813 167.427548 
L 540.687814 165.999219 
L 541.193703 164.570891 
L 541.691205 163.142562 
L 542.169228 161.714233 
L 542.6171 160.285904 
L 543.024774 158.857576 
L 543.38303 157.429247 
L 543.683649 156.000918 
L 543.919565 154.57259 
L 544.085 153.144261 
L 544.175562 151.715932 
L 544.188326 150.287603 
L 544.121886 148.859275 
L 543.976384 147.430946 
L 543.753508 146.002617 
L 543.456468 144.574288 
L 543.089947 143.14596 
L 542.660026 141.717631 
L 542.174084 140.289302 
L 541.640679 138.860973 
L 541.069395 137.432645 
L 540.470684 136.004316 
L 539.855674 134.575987 
L 539.235967 133.147658 
L 538.623426 131.71933 
L 538.029944 130.291001 
L 537.467215 128.862672 
L 536.946497 127.434343 
L 536.478392 126.006015 
L 536.072623 124.577686 
L 535.737835 123.149357 
L 535.48142 121.721028 
L 535.309366 120.2927 
L 535.226135 118.864371 
L 535.234588 117.436042 
L 535.335936 116.007713 
L 535.529743 114.579385 
L 535.813957 113.151056 
L 536.184995 111.722727 
L 571.291369 111.722727 
L 571.291369 111.722727 
L 571.662406 113.151056 
L 571.946621 114.579385 
L 572.140427 116.007713 
L 572.241776 117.436042 
L 572.250229 118.864371 
L 572.166998 120.2927 
L 571.994943 121.721028 
L 571.738529 123.149357 
L 571.403741 124.577686 
L 570.997972 126.006015 
L 570.529866 127.434343 
L 570.009149 128.862672 
L 569.446419 130.291001 
L 568.852937 131.71933 
L 568.240396 133.147658 
L 567.62069 134.575987 
L 567.00568 136.004316 
L 566.406968 137.432645 
L 565.835685 138.860973 
L 565.302279 140.289302 
L 564.816338 141.717631 
L 564.386417 143.14596 
L 564.019896 144.574288 
L 563.722856 146.002617 
L 563.499979 147.430946 
L 563.354477 148.859275 
L 563.288038 150.287603 
L 563.300802 151.715932 
L 563.391363 153.144261 
L 563.556798 154.57259 
L 563.792715 156.000918 
L 564.093333 157.429247 
L 564.451589 158.857576 
L 564.859263 160.285904 
L 565.307135 161.714233 
L 565.785159 163.142562 
L 566.28266 164.570891 
L 566.78855 165.999219 
L 567.291551 167.427548 
L 567.780437 168.855877 
L 568.244273 170.284206 
L 568.672654 171.712534 
L 569.055939 173.140863 
L 569.385468 174.569192 
L 569.653758 175.997521 
L 569.854683 177.425849 
L 569.983607 178.854178 
L 570.037497 180.282507 
L 570.014986 181.710836 
L 569.916405 183.139164 
L 569.743764 184.567493 
L 569.500702 185.995822 
L 569.192391 187.424151 
L 568.825407 188.852479 
L 568.407573 190.280808 
L 567.94777 191.709137 
L 567.455733 193.137466 
L 566.941833 194.565794 
L 566.416845 195.994123 
L 565.891725 197.422452 
L 565.377379 198.850781 
L 564.88445 200.279109 
L 564.423117 201.707438 
L 564.002903 203.135767 
L 563.632511 204.564096 
L 563.319679 205.992424 
L 563.071054 207.420753 
L 562.892088 208.849082 
L 562.786962 210.27741 
L 562.758527 211.705739 
L 562.808264 213.134068 
L 562.93627 214.562397 
L 563.141263 215.990725 
L 563.420597 217.419054 
L 563.770307 218.847383 
L 564.185167 220.275712 
L 564.658764 221.70404 
L 565.183592 223.132369 
L 565.751166 224.560698 
L 566.352144 225.989027 
L 566.976476 227.417355 
L 567.613563 228.845684 
L 568.252427 230.274013 
L 568.881899 231.702342 
L 569.490812 233.13067 
L 570.068195 234.558999 
L 570.603481 235.987328 
L 571.086702 237.415657 
L 571.508675 238.843985 
L 571.861186 240.272314 
L 572.13715 241.700643 
L 572.330746 243.128972 
L 572.437537 244.5573 
L 572.454545 245.985629 
L 572.380309 247.413958 
L 572.214895 248.842287 
L 571.959878 250.270615 
L 571.61829 251.698944 
L 571.194524 253.127273 
z
" clip-path="url(#pd2f0467b4b)" style="fill: #1f77b4; fill-opacity: 0.3"/>
   </g>
   <g id="PolyCollection_8">
    <path d="M 635.862171 323.829545 
L 621.345102 323.829545 
L 621.153709 322.401217 
L 620.992106 320.972888 
L 620.862108 319.544559 
L 620.765066 318.11623 
L 620.701829 316.687902 
L 620.672709 315.259573 
L 620.677471 313.831244 
L 620.715319 312.402916 
L 620.784905 310.974587 
L 620.884348 309.546258 
L 621.01126 308.117929 
L 621.162791 306.689601 
L 621.335676 305.261272 
L 621.526296 303.832943 
L 621.730747 302.404614 
L 621.944915 300.976286 
L 622.164555 299.547957 
L 622.38537 298.119628 
L 622.603098 296.691299 
L 622.813597 295.262971 
L 623.01292 293.834642 
L 623.197396 292.406313 
L 623.363701 290.977984 
L 623.508923 289.549656 
L 623.630619 288.121327 
L 623.726862 286.692998 
L 623.796276 285.264669 
L 623.838068 283.836341 
L 623.852038 282.408012 
L 623.838583 280.979683 
L 623.798689 279.551354 
L 623.733909 278.123026 
L 623.646328 276.694697 
L 623.538522 275.266368 
L 623.4135 273.838039 
L 623.274641 272.409711 
L 623.125621 270.981382 
L 622.97033 269.553053 
L 622.812791 268.124725 
L 622.657066 266.696396 
L 622.507167 265.268067 
L 622.366964 263.839738 
L 622.240097 262.41141 
L 622.129889 260.983081 
L 622.039271 259.554752 
L 621.970707 258.126423 
L 621.926137 256.698095 
L 621.906925 255.269766 
L 621.913817 253.841437 
L 621.946925 252.413108 
L 622.005705 250.98478 
L 622.088963 249.556451 
L 622.194866 248.128122 
L 622.320972 246.699793 
L 622.464259 245.271465 
L 622.62118 243.843136 
L 622.787715 242.414807 
L 622.959431 240.986478 
L 623.131558 239.55815 
L 623.299058 238.129821 
L 623.456703 236.701492 
L 623.599155 235.273163 
L 623.721052 233.844835 
L 623.817082 232.416506 
L 623.882076 230.988177 
L 623.911085 229.559848 
L 623.899465 228.13152 
L 623.842961 226.703191 
L 623.737791 225.274862 
L 623.580722 223.846534 
L 623.369157 222.418205 
L 623.101205 220.989876 
L 622.77576 219.561547 
L 622.392564 218.133219 
L 621.95227 216.70489 
L 621.456492 215.276561 
L 620.907841 213.848232 
L 620.309951 212.419904 
L 619.667484 210.991575 
L 618.986114 209.563246 
L 618.272494 208.134917 
L 617.534195 206.706589 
L 616.779619 205.27826 
L 616.017893 203.849931 
L 615.258731 202.421602 
L 614.512275 200.993274 
L 613.788924 199.564945 
L 613.099131 198.136616 
L 612.453202 196.708287 
L 611.861076 195.279959 
L 611.33212 193.85163 
L 610.874911 192.423301 
L 610.497044 190.994972 
L 610.204952 189.566644 
L 610.003757 188.138315 
L 609.897144 186.709986 
L 609.887273 185.281657 
L 609.974731 183.853329 
L 610.158523 182.425 
L 647.048749 182.425 
L 647.048749 182.425 
L 647.232542 183.853329 
L 647.32 185.281657 
L 647.310129 186.709986 
L 647.203515 188.138315 
L 647.002321 189.566644 
L 646.710229 190.994972 
L 646.332361 192.423301 
L 645.875152 193.85163 
L 645.346196 195.279959 
L 644.754071 196.708287 
L 644.108141 198.136616 
L 643.418348 199.564945 
L 642.694997 200.993274 
L 641.948542 202.421602 
L 641.189379 203.849931 
L 640.427653 205.27826 
L 639.673078 206.706589 
L 638.934779 208.134917 
L 638.221159 209.563246 
L 637.539789 210.991575 
L 636.897322 212.419904 
L 636.299432 213.848232 
L 635.750781 215.276561 
L 635.255003 216.70489 
L 634.814709 218.133219 
L 634.431513 219.561547 
L 634.106068 220.989876 
L 633.838116 222.418205 
L 633.62655 223.846534 
L 633.469482 225.274862 
L 633.364311 226.703191 
L 633.307808 228.13152 
L 633.296188 229.559848 
L 633.325196 230.988177 
L 633.39019 232.416506 
L 633.486221 233.844835 
L 633.608117 235.273163 
L 633.75057 236.701492 
L 633.908215 238.129821 
L 634.075714 239.55815 
L 634.247842 240.986478 
L 634.419558 242.414807 
L 634.586092 243.843136 
L 634.743014 245.271465 
L 634.886301 246.699793 
L 635.012406 248.128122 
L 635.11831 249.556451 
L 635.201568 250.98478 
L 635.260348 252.413108 
L 635.293455 253.841437 
L 635.300348 255.269766 
L 635.281135 256.698095 
L 635.236566 258.126423 
L 635.168002 259.554752 
L 635.077384 260.983081 
L 634.967176 262.41141 
L 634.840309 263.839738 
L 634.700106 265.268067 
L 634.550207 266.696396 
L 634.394482 268.124725 
L 634.236943 269.553053 
L 634.081652 270.981382 
L 633.932632 272.409711 
L 633.793773 273.838039 
L 633.668751 275.266368 
L 633.560945 276.694697 
L 633.473364 278.123026 
L 633.408584 279.551354 
L 633.36869 280.979683 
L 633.355235 282.408012 
L 633.369205 283.836341 
L 633.410997 285.264669 
L 633.480411 286.692998 
L 633.576653 288.121327 
L 633.698349 289.549656 
L 633.843572 290.977984 
L 634.009877 292.406313 
L 634.194353 293.834642 
L 634.393675 295.262971 
L 634.604174 296.691299 
L 634.821903 298.119628 
L 635.042718 299.547957 
L 635.262357 300.976286 
L 635.476526 302.404614 
L 635.680977 303.832943 
L 635.871597 305.261272 
L 636.044481 306.689601 
L 636.196012 308.117929 
L 636.322925 309.546258 
L 636.422368 310.974587 
L 636.491954 312.402916 
L 636.529802 313.831244 
L 636.534563 315.259573 
L 636.505444 316.687902 
L 636.442207 318.11623 
L 636.345165 319.544559 
L 636.215167 320.972888 
L 636.053564 322.401217 
L 635.862171 323.829545 
z
" clip-path="url(#pd2f0467b4b)" style="fill: #1f77b4; fill-opacity: 0.3"/>
   </g>
   <g id="PolyCollection_9">
    <path d="M 705.808791 323.829545 
L 701.129391 323.829545 
L 700.960442 322.229817 
L 700.79876 320.630089 
L 700.646803 319.030361 
L 700.506873 317.430633 
L 700.381031 315.830904 
L 700.27101 314.231176 
L 700.178141 312.631448 
L 700.103279 311.03172 
L 700.046745 309.431992 
L 700.00828 307.832264 
L 699.987016 306.232535 
L 699.981467 304.632807 
L 699.989547 303.033079 
L 700.008598 301.433351 
L 700.035451 299.833623 
L 700.066496 298.233894 
L 700.097776 296.634166 
L 700.125084 295.034438 
L 700.144074 293.43471 
L 700.150367 291.834982 
L 700.139659 290.235253 
L 700.10782 288.635525 
L 700.050983 287.035797 
L 699.965626 285.436069 
L 699.848636 283.836341 
L 699.697372 282.236612 
L 699.509711 280.636884 
L 699.284097 279.037156 
L 699.019586 277.437428 
L 698.715891 275.8377 
L 698.373426 274.237972 
L 697.993365 272.638243 
L 697.577687 271.038515 
L 697.129225 269.438787 
L 696.651717 267.839059 
L 696.149824 266.239331 
L 695.629144 264.639602 
L 695.096189 263.039874 
L 694.558323 261.440146 
L 694.023665 259.840418 
L 693.500943 258.24069 
L 692.999302 256.640961 
L 692.528071 255.041233 
L 692.096492 253.441505 
L 691.713434 251.841777 
L 691.387084 250.242049 
L 691.12465 248.64232 
L 690.932088 247.042592 
L 690.813856 245.442864 
L 690.772727 243.843136 
L 690.809662 242.243408 
L 690.923741 240.64368 
L 691.112171 239.043951 
L 691.370354 237.444223 
L 691.692006 235.844495 
L 692.069324 234.244767 
L 692.493179 232.645039 
L 692.953325 231.04531 
L 693.438608 229.445582 
L 693.93717 227.845854 
L 694.43663 226.246126 
L 694.924257 224.646398 
L 695.387124 223.046669 
L 695.81226 221.446941 
L 696.186806 219.847213 
L 696.498193 218.247485 
L 696.734351 216.647757 
L 696.883969 215.048028 
L 696.936803 213.4483 
L 696.884042 211.848572 
L 696.718724 210.248844 
L 696.436184 208.649116 
L 696.034519 207.049388 
L 695.515026 205.449659 
L 694.882595 203.849931 
L 694.145998 202.250203 
L 693.318043 200.650475 
L 692.415561 199.050747 
L 691.459183 197.451018 
L 690.472908 195.85129 
L 689.483442 194.251562 
L 688.519336 192.651834 
L 687.609952 191.052106 
L 686.784301 189.452377 
L 686.069822 187.852649 
L 685.491175 186.252921 
L 685.069115 184.653193 
L 684.819534 183.053465 
L 684.752727 181.453736 
L 684.872937 179.854008 
L 685.178206 178.25428 
L 685.660554 176.654552 
L 686.306451 175.054824 
L 687.097568 173.455096 
L 688.011743 171.855367 
L 689.024089 170.255639 
L 690.108189 168.655911 
L 691.237276 167.056183 
L 692.385349 165.456455 
L 714.552833 165.456455 
L 714.552833 165.456455 
L 715.700906 167.056183 
L 716.829993 168.655911 
L 717.914093 170.255639 
L 718.926439 171.855367 
L 719.840613 173.455096 
L 720.631731 175.054824 
L 721.277628 176.654552 
L 721.759976 178.25428 
L 722.065245 179.854008 
L 722.185455 181.453736 
L 722.118648 183.053465 
L 721.869067 184.653193 
L 721.447007 186.252921 
L 720.86836 187.852649 
L 720.153881 189.452377 
L 719.32823 191.052106 
L 718.418846 192.651834 
L 717.45474 194.251562 
L 716.465274 195.85129 
L 715.478999 197.451018 
L 714.522621 199.050747 
L 713.620139 200.650475 
L 712.792184 202.250203 
L 712.055586 203.849931 
L 711.423156 205.449659 
L 710.903663 207.049388 
L 710.501998 208.649116 
L 710.219458 210.248844 
L 710.05414 211.848572 
L 710.001379 213.4483 
L 710.054212 215.048028 
L 710.20383 216.647757 
L 710.439989 218.247485 
L 710.751375 219.847213 
L 711.125922 221.446941 
L 711.551058 223.046669 
L 712.013925 224.646398 
L 712.501552 226.246126 
L 713.001012 227.845854 
L 713.499573 229.445582 
L 713.984857 231.04531 
L 714.445003 232.645039 
L 714.868858 234.244767 
L 715.246176 235.844495 
L 715.567828 237.444223 
L 715.826011 239.043951 
L 716.014441 240.64368 
L 716.12852 242.243408 
L 716.165455 243.843136 
L 716.124326 245.442864 
L 716.006094 247.042592 
L 715.813532 248.64232 
L 715.551098 250.242049 
L 715.224748 251.841777 
L 714.84169 253.441505 
L 714.410111 255.041233 
L 713.938879 256.640961 
L 713.437239 258.24069 
L 712.914517 259.840418 
L 712.379859 261.440146 
L 711.841993 263.039874 
L 711.309037 264.639602 
L 710.788358 266.239331 
L 710.286465 267.839059 
L 709.808956 269.438787 
L 709.360495 271.038515 
L 708.944816 272.638243 
L 708.564755 274.237972 
L 708.222291 275.8377 
L 707.918595 277.437428 
L 707.654085 279.037156 
L 707.428471 280.636884 
L 707.24081 282.236612 
L 707.089546 283.836341 
L 706.972556 285.436069 
L 706.887199 287.035797 
L 706.830362 288.635525 
L 706.798523 290.235253 
L 706.787815 291.834982 
L 706.794107 293.43471 
L 706.813097 295.034438 
L 706.840406 296.634166 
L 706.871686 298.233894 
L 706.902731 299.833623 
L 706.929584 301.433351 
L 706.948635 303.033079 
L 706.956714 304.632807 
L 706.951166 306.232535 
L 706.929902 307.832264 
L 706.891436 309.431992 
L 706.834903 311.03172 
L 706.760041 312.631448 
L 706.667172 314.231176 
L 706.557151 315.830904 
L 706.431309 317.430633 
L 706.291379 319.030361 
L 706.139422 320.630089 
L 705.977739 322.229817 
L 705.808791 323.829545 
z
" clip-path="url(#pd2f0467b4b)" style="fill: #1f77b4; fill-opacity: 0.3"/>
   </g>
   <g id="PolyCollection_10">
    <path d="M 780.6902 323.829545 
L 775.978891 323.829545 
L 775.729153 322.201251 
L 775.47509 320.572956 
L 775.220156 318.944661 
L 774.96801 317.316366 
L 774.72238 315.688072 
L 774.48691 314.059777 
L 774.265002 312.431482 
L 774.059652 310.803187 
L 773.873307 309.174893 
L 773.707737 307.546598 
L 773.563938 305.918303 
L 773.44207 304.290008 
L 773.341436 302.661713 
L 773.260501 301.033419 
L 773.19695 299.405124 
L 773.147777 297.776829 
L 773.109409 296.148534 
L 773.077834 294.52024 
L 773.048754 292.891945 
L 773.017728 291.26365 
L 772.98031 289.635355 
L 772.932176 288.007061 
L 772.869235 286.378766 
L 772.787717 284.750471 
L 772.684252 283.122176 
L 772.555931 281.493882 
L 772.400361 279.865587 
L 772.215711 278.237292 
L 772.000763 276.608997 
L 771.754961 274.980702 
L 771.478465 273.352408 
L 771.172207 271.724113 
L 770.837942 270.095818 
L 770.478297 268.467523 
L 770.096798 266.839229 
L 769.69788 265.210934 
L 769.286859 263.582639 
L 768.869873 261.954344 
L 768.453772 260.32605 
L 768.045976 258.697755 
L 767.654276 257.06946 
L 767.286615 255.441165 
L 766.950832 253.812871 
L 766.654393 252.184576 
L 766.404133 250.556281 
L 766.205998 248.927986 
L 766.06483 247.299691 
L 765.984185 245.671397 
L 765.966207 244.043102 
L 766.011556 242.414807 
L 766.119385 240.786512 
L 766.28738 239.158218 
L 766.511834 237.529923 
L 766.787756 235.901628 
L 767.109 234.273333 
L 767.468403 232.645039 
L 767.857914 231.016744 
L 768.268721 229.388449 
L 768.691352 227.760154 
L 769.115769 226.13186 
L 769.531443 224.503565 
L 769.927435 222.87527 
L 770.292482 221.246975 
L 770.615111 219.61868 
L 770.883791 217.990386 
L 771.08714 216.362091 
L 771.214191 214.733796 
L 771.254728 213.105501 
L 771.199688 211.477207 
L 771.041613 209.848912 
L 770.775142 208.220617 
L 770.397511 206.592322 
L 769.909031 204.964028 
L 769.313503 203.335733 
L 768.618526 201.707438 
L 767.835673 200.079143 
L 766.980484 198.450848 
L 766.072258 196.822554 
L 765.133629 195.194259 
L 764.189929 193.565964 
L 763.268353 191.937669 
L 762.396957 190.309375 
L 761.603545 188.68108 
L 760.914501 187.052785 
L 760.353629 185.42449 
L 759.941091 183.796196 
L 759.692492 182.167901 
L 759.618182 180.539606 
L 759.722818 178.911311 
L 760.005219 177.283017 
L 760.458507 175.654722 
L 761.070543 174.026427 
L 761.824601 172.398132 
L 762.700247 170.769837 
L 763.674363 169.141543 
L 764.72223 167.513248 
L 765.818628 165.884953 
L 766.938865 164.256658 
L 768.059698 162.628364 
L 788.609393 162.628364 
L 788.609393 162.628364 
L 789.730226 164.256658 
L 790.850463 165.884953 
L 791.946861 167.513248 
L 792.994728 169.141543 
L 793.968844 170.769837 
L 794.84449 172.398132 
L 795.598548 174.026427 
L 796.210584 175.654722 
L 796.663872 177.283017 
L 796.946273 178.911311 
L 797.050909 180.539606 
L 796.976599 182.167901 
L 796.728 183.796196 
L 796.315462 185.42449 
L 795.75459 187.052785 
L 795.065546 188.68108 
L 794.272134 190.309375 
L 793.400738 191.937669 
L 792.479162 193.565964 
L 791.535462 195.194259 
L 790.596833 196.822554 
L 789.688606 198.450848 
L 788.833418 200.079143 
L 788.050565 201.707438 
L 787.355588 203.335733 
L 786.760059 204.964028 
L 786.27158 206.592322 
L 785.893949 208.220617 
L 785.627478 209.848912 
L 785.469403 211.477207 
L 785.414363 213.105501 
L 785.4549 214.733796 
L 785.581951 216.362091 
L 785.7853 217.990386 
L 786.05398 219.61868 
L 786.376609 221.246975 
L 786.741656 222.87527 
L 787.137648 224.503565 
L 787.553322 226.13186 
L 787.977739 227.760154 
L 788.40037 229.388449 
L 788.811177 231.016744 
L 789.200688 232.645039 
L 789.56009 234.273333 
L 789.881335 235.901628 
L 790.157257 237.529923 
L 790.381711 239.158218 
L 790.549706 240.786512 
L 790.657535 242.414807 
L 790.702883 244.043102 
L 790.684906 245.671397 
L 790.604261 247.299691 
L 790.463093 248.927986 
L 790.264958 250.556281 
L 790.014698 252.184576 
L 789.718259 253.812871 
L 789.382476 255.441165 
L 789.014815 257.06946 
L 788.623115 258.697755 
L 788.215319 260.32605 
L 787.799218 261.954344 
L 787.382232 263.582639 
L 786.971211 265.210934 
L 786.572293 266.839229 
L 786.190794 268.467523 
L 785.831149 270.095818 
L 785.496884 271.724113 
L 785.190626 273.352408 
L 784.91413 274.980702 
L 784.668328 276.608997 
L 784.45338 278.237292 
L 784.26873 279.865587 
L 784.11316 281.493882 
L 783.984839 283.122176 
L 783.881374 284.750471 
L 783.799856 286.378766 
L 783.736914 288.007061 
L 783.688781 289.635355 
L 783.651363 291.26365 
L 783.620336 292.891945 
L 783.591257 294.52024 
L 783.559682 296.148534 
L 783.521313 297.776829 
L 783.472141 299.405124 
L 783.40859 301.033419 
L 783.327655 302.661713 
L 783.227021 304.290008 
L 783.105153 305.918303 
L 782.961354 307.546598 
L 782.795784 309.174893 
L 782.609439 310.803187 
L 782.404089 312.431482 
L 782.182181 314.059777 
L 781.946711 315.688072 
L 781.701081 317.316366 
L 781.448935 318.944661 
L 781.194001 320.572956 
L 780.939938 322.201251 
L 780.6902 323.829545 
z
" clip-path="url(#pd2f0467b4b)" style="fill: #1f77b4; fill-opacity: 0.3"/>
   </g>
   <g id="matplotlib.axis_1">
    <g id="xtick_1">
     <g id="line2d_1">
      <defs>
       <path id="m6903ed209f" d="M 0 0 
L 0 3.5 
" style="stroke: #000000; stroke-width: 0.8"/>
      </defs>
      <g>
       <use xlink:href="#m6903ed209f" x="104.545455" y="337.97" style="stroke: #000000; stroke-width: 0.8"/>
      </g>
     </g>
     <g id="text_1">
      <!-- Grudger -->
      <g transform="translate(106.752955 377.89625)rotate(-90)scale(0.08 -0.08)">
       <defs>
        <path id="DejaVuSans-47" d="M 3809 666 
L 3809 1919 
L 2778 1919 
L 2778 2438 
L 4434 2438 
L 4434 434 
Q 4069 175 3628 42 
Q 3188 -91 2688 -91 
Q 1594 -91 976 548 
Q 359 1188 359 2328 
Q 359 3472 976 4111 
Q 1594 4750 2688 4750 
Q 3144 4750 3555 4637 
Q 3966 4525 4313 4306 
L 4313 3634 
Q 3963 3931 3569 4081 
Q 3175 4231 2741 4231 
Q 1884 4231 1454 3753 
Q 1025 3275 1025 2328 
Q 1025 1384 1454 906 
Q 1884 428 2741 428 
Q 3075 428 3337 486 
Q 3600 544 3809 666 
z
" transform="scale(0.015625)"/>
        <path id="DejaVuSans-72" d="M 2631 2963 
Q 2534 3019 2420 3045 
Q 2306 3072 2169 3072 
Q 1681 3072 1420 2755 
Q 1159 2438 1159 1844 
L 1159 0 
L 581 0 
L 581 3500 
L 1159 3500 
L 1159 2956 
Q 1341 3275 1631 3429 
Q 1922 3584 2338 3584 
Q 2397 3584 2469 3576 
Q 2541 3569 2628 3553 
L 2631 2963 
z
" transform="scale(0.015625)"/>
        <path id="DejaVuSans-75" d="M 544 1381 
L 544 3500 
L 1119 3500 
L 1119 1403 
Q 1119 906 1312 657 
Q 1506 409 1894 409 
Q 2359 409 2629 706 
Q 2900 1003 2900 1516 
L 2900 3500 
L 3475 3500 
L 3475 0 
L 2900 0 
L 2900 538 
Q 2691 219 2414 64 
Q 2138 -91 1772 -91 
Q 1169 -91 856 284 
Q 544 659 544 1381 
z
M 1991 3584 
L 1991 3584 
z
" transform="scale(0.015625)"/>
        <path id="DejaVuSans-64" d="M 2906 2969 
L 2906 4863 
L 3481 4863 
L 3481 0 
L 2906 0 
L 2906 525 
Q 2725 213 2448 61 
Q 2172 -91 1784 -91 
Q 1150 -91 751 415 
Q 353 922 353 1747 
Q 353 2572 751 3078 
Q 1150 3584 1784 3584 
Q 2172 3584 2448 3432 
Q 2725 3281 2906 2969 
z
M 947 1747 
Q 947 1113 1208 752 
Q 1469 391 1925 391 
Q 2381 391 2643 752 
Q 2906 1113 2906 1747 
Q 2906 2381 2643 2742 
Q 2381 3103 1925 3103 
Q 1469 3103 1208 2742 
Q 947 2381 947 1747 
z
" transform="scale(0.015625)"/>
        <path id="DejaVuSans-67" d="M 2906 1791 
Q 2906 2416 2648 2759 
Q 2391 3103 1925 3103 
Q 1463 3103 1205 2759 
Q 947 2416 947 1791 
Q 947 1169 1205 825 
Q 1463 481 1925 481 
Q 2391 481 2648 825 
Q 2906 1169 2906 1791 
z
M 3481 434 
Q 3481 -459 3084 -895 
Q 2688 -1331 1869 -1331 
Q 1566 -1331 1297 -1286 
Q 1028 -1241 775 -1147 
L 775 -588 
Q 1028 -725 1275 -790 
Q 1522 -856 1778 -856 
Q 2344 -856 2625 -561 
Q 2906 -266 2906 331 
L 2906 616 
Q 2728 306 2450 153 
Q 2172 0 1784 0 
Q 1141 0 747 490 
Q 353 981 353 1791 
Q 353 2603 747 3093 
Q 1141 3584 1784 3584 
Q 2172 3584 2450 3431 
Q 2728 3278 2906 2969 
L 2906 3500 
L 3481 3500 
L 3481 434 
z
" transform="scale(0.015625)"/>
        <path id="DejaVuSans-65" d="M 3597 1894 
L 3597 1613 
L 953 1613 
Q 991 1019 1311 708 
Q 1631 397 2203 397 
Q 2534 397 2845 478 
Q 3156 559 3463 722 
L 3463 178 
Q 3153 47 2828 -22 
Q 2503 -91 2169 -91 
Q 1331 -91 842 396 
Q 353 884 353 1716 
Q 353 2575 817 3079 
Q 1281 3584 2069 3584 
Q 2775 3584 3186 3129 
Q 3597 2675 3597 1894 
z
M 3022 2063 
Q 3016 2534 2758 2815 
Q 2500 3097 2075 3097 
Q 1594 3097 1305 2825 
Q 1016 2553 972 2059 
L 3022 2063 
z
" transform="scale(0.015625)"/>
       </defs>
       <use xlink:href="#DejaVuSans-47"/>
       <use xlink:href="#DejaVuSans-72" x="77.490234"/>
       <use xlink:href="#DejaVuSans-75" x="118.603516"/>
       <use xlink:href="#DejaVuSans-64" x="181.982422"/>
       <use xlink:href="#DejaVuSans-67" x="245.458984"/>
       <use xlink:href="#DejaVuSans-65" x="308.935547"/>
       <use xlink:href="#DejaVuSans-72" x="370.458984"/>
      </g>
     </g>
    </g>
    <g id="xtick_2">
     <g id="line2d_2">
      <g>
       <use xlink:href="#m6903ed209f" x="179.410909" y="337.97" style="stroke: #000000; stroke-width: 0.8"/>
      </g>
     </g>
     <g id="text_2">
      <!-- Adaptive -->
      <g transform="translate(181.618409 380.37875)rotate(-90)scale(0.08 -0.08)">
       <defs>
        <path id="DejaVuSans-41" d="M 2188 4044 
L 1331 1722 
L 3047 1722 
L 2188 4044 
z
M 1831 4666 
L 2547 4666 
L 4325 0 
L 3669 0 
L 3244 1197 
L 1141 1197 
L 716 0 
L 50 0 
L 1831 4666 
z
" transform="scale(0.015625)"/>
        <path id="DejaVuSans-61" d="M 2194 1759 
Q 1497 1759 1228 1600 
Q 959 1441 959 1056 
Q 959 750 1161 570 
Q 1363 391 1709 391 
Q 2188 391 2477 730 
Q 2766 1069 2766 1631 
L 2766 1759 
L 2194 1759 
z
M 3341 1997 
L 3341 0 
L 2766 0 
L 2766 531 
Q 2569 213 2275 61 
Q 1981 -91 1556 -91 
Q 1019 -91 701 211 
Q 384 513 384 1019 
Q 384 1609 779 1909 
Q 1175 2209 1959 2209 
L 2766 2209 
L 2766 2266 
Q 2766 2663 2505 2880 
Q 2244 3097 1772 3097 
Q 1472 3097 1187 3025 
Q 903 2953 641 2809 
L 641 3341 
Q 956 3463 1253 3523 
Q 1550 3584 1831 3584 
Q 2591 3584 2966 3190 
Q 3341 2797 3341 1997 
z
" transform="scale(0.015625)"/>
        <path id="DejaVuSans-70" d="M 1159 525 
L 1159 -1331 
L 581 -1331 
L 581 3500 
L 1159 3500 
L 1159 2969 
Q 1341 3281 1617 3432 
Q 1894 3584 2278 3584 
Q 2916 3584 3314 3078 
Q 3713 2572 3713 1747 
Q 3713 922 3314 415 
Q 2916 -91 2278 -91 
Q 1894 -91 1617 61 
Q 1341 213 1159 525 
z
M 3116 1747 
Q 3116 2381 2855 2742 
Q 2594 3103 2138 3103 
Q 1681 3103 1420 2742 
Q 1159 2381 1159 1747 
Q 1159 1113 1420 752 
Q 1681 391 2138 391 
Q 2594 391 2855 752 
Q 3116 1113 3116 1747 
z
" transform="scale(0.015625)"/>
        <path id="DejaVuSans-74" d="M 1172 4494 
L 1172 3500 
L 2356 3500 
L 2356 3053 
L 1172 3053 
L 1172 1153 
Q 1172 725 1289 603 
Q 1406 481 1766 481 
L 2356 481 
L 2356 0 
L 1766 0 
Q 1100 0 847 248 
Q 594 497 594 1153 
L 594 3053 
L 172 3053 
L 172 3500 
L 594 3500 
L 594 4494 
L 1172 4494 
z
" transform="scale(0.015625)"/>
        <path id="DejaVuSans-69" d="M 603 3500 
L 1178 3500 
L 1178 0 
L 603 0 
L 603 3500 
z
M 603 4863 
L 1178 4863 
L 1178 4134 
L 603 4134 
L 603 4863 
z
" transform="scale(0.015625)"/>
        <path id="DejaVuSans-76" d="M 191 3500 
L 800 3500 
L 1894 563 
L 2988 3500 
L 3597 3500 
L 2284 0 
L 1503 0 
L 191 3500 
z
" transform="scale(0.015625)"/>
       </defs>
       <use xlink:href="#DejaVuSans-41"/>
       <use xlink:href="#DejaVuSans-64" x="66.658203"/>
       <use xlink:href="#DejaVuSans-61" x="130.134766"/>
       <use xlink:href="#DejaVuSans-70" x="191.414062"/>
       <use xlink:href="#DejaVuSans-74" x="254.890625"/>
       <use xlink:href="#DejaVuSans-69" x="294.099609"/>
       <use xlink:href="#DejaVuSans-76" x="321.882812"/>
       <use xlink:href="#DejaVuSans-65" x="381.0625"/>
      </g>
     </g>
    </g>
    <g id="xtick_3">
     <g id="line2d_3">
      <g>
       <use xlink:href="#m6903ed209f" x="254.276364" y="337.97" style="stroke: #000000; stroke-width: 0.8"/>
      </g>
     </g>
     <g id="text_3">
      <!-- Defector -->
      <g transform="translate(256.483864 379.51)rotate(-90)scale(0.08 -0.08)">
       <defs>
        <path id="DejaVuSans-44" d="M 1259 4147 
L 1259 519 
L 2022 519 
Q 2988 519 3436 956 
Q 3884 1394 3884 2338 
Q 3884 3275 3436 3711 
Q 2988 4147 2022 4147 
L 1259 4147 
z
M 628 4666 
L 1925 4666 
Q 3281 4666 3915 4102 
Q 4550 3538 4550 2338 
Q 4550 1131 3912 565 
Q 3275 0 1925 0 
L 628 0 
L 628 4666 
z
" transform="scale(0.015625)"/>
        <path id="DejaVuSans-66" d="M 2375 4863 
L 2375 4384 
L 1825 4384 
Q 1516 4384 1395 4259 
Q 1275 4134 1275 3809 
L 1275 3500 
L 2222 3500 
L 2222 3053 
L 1275 3053 
L 1275 0 
L 697 0 
L 697 3053 
L 147 3053 
L 147 3500 
L 697 3500 
L 697 3744 
Q 697 4328 969 4595 
Q 1241 4863 1831 4863 
L 2375 4863 
z
" transform="scale(0.015625)"/>
        <path id="DejaVuSans-63" d="M 3122 3366 
L 3122 2828 
Q 2878 2963 2633 3030 
Q 2388 3097 2138 3097 
Q 1578 3097 1268 2742 
Q 959 2388 959 1747 
Q 959 1106 1268 751 
Q 1578 397 2138 397 
Q 2388 397 2633 464 
Q 2878 531 3122 666 
L 3122 134 
Q 2881 22 2623 -34 
Q 2366 -91 2075 -91 
Q 1284 -91 818 406 
Q 353 903 353 1747 
Q 353 2603 823 3093 
Q 1294 3584 2113 3584 
Q 2378 3584 2631 3529 
Q 2884 3475 3122 3366 
z
" transform="scale(0.015625)"/>
        <path id="DejaVuSans-6f" d="M 1959 3097 
Q 1497 3097 1228 2736 
Q 959 2375 959 1747 
Q 959 1119 1226 758 
Q 1494 397 1959 397 
Q 2419 397 2687 759 
Q 2956 1122 2956 1747 
Q 2956 2369 2687 2733 
Q 2419 3097 1959 3097 
z
M 1959 3584 
Q 2709 3584 3137 3096 
Q 3566 2609 3566 1747 
Q 3566 888 3137 398 
Q 2709 -91 1959 -91 
Q 1206 -91 779 398 
Q 353 888 353 1747 
Q 353 2609 779 3096 
Q 1206 3584 1959 3584 
z
" transform="scale(0.015625)"/>
       </defs>
       <use xlink:href="#DejaVuSans-44"/>
       <use xlink:href="#DejaVuSans-65" x="77.001953"/>
       <use xlink:href="#DejaVuSans-66" x="138.525391"/>
       <use xlink:href="#DejaVuSans-65" x="173.730469"/>
       <use xlink:href="#DejaVuSans-63" x="235.253906"/>
       <use xlink:href="#DejaVuSans-74" x="290.234375"/>
       <use xlink:href="#DejaVuSans-6f" x="329.443359"/>
       <use xlink:href="#DejaVuSans-72" x="390.625"/>
      </g>
     </g>
    </g>
    <g id="xtick_4">
     <g id="line2d_4">
      <g>
       <use xlink:href="#m6903ed209f" x="329.141818" y="337.97" style="stroke: #000000; stroke-width: 0.8"/>
      </g>
     </g>
     <g id="text_4">
      <!-- Random: 0.5 -->
      <g transform="translate(331.349318 396.0475)rotate(-90)scale(0.08 -0.08)">
       <defs>
        <path id="DejaVuSans-52" d="M 2841 2188 
Q 3044 2119 3236 1894 
Q 3428 1669 3622 1275 
L 4263 0 
L 3584 0 
L 2988 1197 
Q 2756 1666 2539 1819 
Q 2322 1972 1947 1972 
L 1259 1972 
L 1259 0 
L 628 0 
L 628 4666 
L 2053 4666 
Q 2853 4666 3247 4331 
Q 3641 3997 3641 3322 
Q 3641 2881 3436 2590 
Q 3231 2300 2841 2188 
z
M 1259 4147 
L 1259 2491 
L 2053 2491 
Q 2509 2491 2742 2702 
Q 2975 2913 2975 3322 
Q 2975 3731 2742 3939 
Q 2509 4147 2053 4147 
L 1259 4147 
z
" transform="scale(0.015625)"/>
        <path id="DejaVuSans-6e" d="M 3513 2113 
L 3513 0 
L 2938 0 
L 2938 2094 
Q 2938 2591 2744 2837 
Q 2550 3084 2163 3084 
Q 1697 3084 1428 2787 
Q 1159 2491 1159 1978 
L 1159 0 
L 581 0 
L 581 3500 
L 1159 3500 
L 1159 2956 
Q 1366 3272 1645 3428 
Q 1925 3584 2291 3584 
Q 2894 3584 3203 3211 
Q 3513 2838 3513 2113 
z
" transform="scale(0.015625)"/>
        <path id="DejaVuSans-6d" d="M 3328 2828 
Q 3544 3216 3844 3400 
Q 4144 3584 4550 3584 
Q 5097 3584 5394 3201 
Q 5691 2819 5691 2113 
L 5691 0 
L 5113 0 
L 5113 2094 
Q 5113 2597 4934 2840 
Q 4756 3084 4391 3084 
Q 3944 3084 3684 2787 
Q 3425 2491 3425 1978 
L 3425 0 
L 2847 0 
L 2847 2094 
Q 2847 2600 2669 2842 
Q 2491 3084 2119 3084 
Q 1678 3084 1418 2786 
Q 1159 2488 1159 1978 
L 1159 0 
L 581 0 
L 581 3500 
L 1159 3500 
L 1159 2956 
Q 1356 3278 1631 3431 
Q 1906 3584 2284 3584 
Q 2666 3584 2933 3390 
Q 3200 3197 3328 2828 
z
" transform="scale(0.015625)"/>
        <path id="DejaVuSans-3a" d="M 750 794 
L 1409 794 
L 1409 0 
L 750 0 
L 750 794 
z
M 750 3309 
L 1409 3309 
L 1409 2516 
L 750 2516 
L 750 3309 
z
" transform="scale(0.015625)"/>
        <path id="DejaVuSans-20" transform="scale(0.015625)"/>
        <path id="DejaVuSans-30" d="M 2034 4250 
Q 1547 4250 1301 3770 
Q 1056 3291 1056 2328 
Q 1056 1369 1301 889 
Q 1547 409 2034 409 
Q 2525 409 2770 889 
Q 3016 1369 3016 2328 
Q 3016 3291 2770 3770 
Q 2525 4250 2034 4250 
z
M 2034 4750 
Q 2819 4750 3233 4129 
Q 3647 3509 3647 2328 
Q 3647 1150 3233 529 
Q 2819 -91 2034 -91 
Q 1250 -91 836 529 
Q 422 1150 422 2328 
Q 422 3509 836 4129 
Q 1250 4750 2034 4750 
z
" transform="scale(0.015625)"/>
        <path id="DejaVuSans-2e" d="M 684 794 
L 1344 794 
L 1344 0 
L 684 0 
L 684 794 
z
" transform="scale(0.015625)"/>
        <path id="DejaVuSans-35" d="M 691 4666 
L 3169 4666 
L 3169 4134 
L 1269 4134 
L 1269 2991 
Q 1406 3038 1543 3061 
Q 1681 3084 1819 3084 
Q 2600 3084 3056 2656 
Q 3513 2228 3513 1497 
Q 3513 744 3044 326 
Q 2575 -91 1722 -91 
Q 1428 -91 1123 -41 
Q 819 9 494 109 
L 494 744 
Q 775 591 1075 516 
Q 1375 441 1709 441 
Q 2250 441 2565 725 
Q 2881 1009 2881 1497 
Q 2881 1984 2565 2268 
Q 2250 2553 1709 2553 
Q 1456 2553 1204 2497 
Q 953 2441 691 2322 
L 691 4666 
z
" transform="scale(0.015625)"/>
       </defs>
       <use xlink:href="#DejaVuSans-52"/>
       <use xlink:href="#DejaVuSans-61" x="67.232422"/>
       <use xlink:href="#DejaVuSans-6e" x="128.511719"/>
       <use xlink:href="#DejaVuSans-64" x="191.890625"/>
       <use xlink:href="#DejaVuSans-6f" x="255.367188"/>
       <use xlink:href="#DejaVuSans-6d" x="316.548828"/>
       <use xlink:href="#DejaVuSans-3a" x="413.960938"/>
       <use xlink:href="#DejaVuSans-20" x="447.652344"/>
       <use xlink:href="#DejaVuSans-30" x="479.439453"/>
       <use xlink:href="#DejaVuSans-2e" x="543.0625"/>
       <use xlink:href="#DejaVuSans-35" x="574.849609"/>
      </g>
     </g>
    </g>
    <g id="xtick_5">
     <g id="line2d_5">
      <g>
       <use xlink:href="#m6903ed209f" x="404.007273" y="337.97" style="stroke: #000000; stroke-width: 0.8"/>
      </g>
     </g>
     <g id="text_5">
      <!-- Tit For Tat -->
      <g transform="translate(406.214773 384.15)rotate(-90)scale(0.08 -0.08)">
       <defs>
        <path id="DejaVuSans-54" d="M -19 4666 
L 3928 4666 
L 3928 4134 
L 2272 4134 
L 2272 0 
L 1638 0 
L 1638 4134 
L -19 4134 
L -19 4666 
z
" transform="scale(0.015625)"/>
        <path id="DejaVuSans-46" d="M 628 4666 
L 3309 4666 
L 3309 4134 
L 1259 4134 
L 1259 2759 
L 3109 2759 
L 3109 2228 
L 1259 2228 
L 1259 0 
L 628 0 
L 628 4666 
z
" transform="scale(0.015625)"/>
       </defs>
       <use xlink:href="#DejaVuSans-54"/>
       <use xlink:href="#DejaVuSans-69" x="57.958984"/>
       <use xlink:href="#DejaVuSans-74" x="85.742188"/>
       <use xlink:href="#DejaVuSans-20" x="124.951172"/>
       <use xlink:href="#DejaVuSans-46" x="156.738281"/>
       <use xlink:href="#DejaVuSans-6f" x="210.632812"/>
       <use xlink:href="#DejaVuSans-72" x="271.814453"/>
       <use xlink:href="#DejaVuSans-20" x="312.927734"/>
       <use xlink:href="#DejaVuSans-54" x="344.714844"/>
       <use xlink:href="#DejaVuSans-61" x="389.298828"/>
       <use xlink:href="#DejaVuSans-74" x="450.578125"/>
      </g>
     </g>
    </g>
    <g id="xtick_6">
     <g id="line2d_6">
      <g>
       <use xlink:href="#m6903ed209f" x="478.872727" y="337.97" style="stroke: #000000; stroke-width: 0.8"/>
      </g>
     </g>
     <g id="text_6">
      <!-- Deep QLearner -->
      <g transform="translate(481.080227 405.46625)rotate(-90)scale(0.08 -0.08)">
       <defs>
        <path id="DejaVuSans-51" d="M 2522 4238 
Q 1834 4238 1429 3725 
Q 1025 3213 1025 2328 
Q 1025 1447 1429 934 
Q 1834 422 2522 422 
Q 3209 422 3611 934 
Q 4013 1447 4013 2328 
Q 4013 3213 3611 3725 
Q 3209 4238 2522 4238 
z
M 3406 84 
L 4238 -825 
L 3475 -825 
L 2784 -78 
Q 2681 -84 2626 -87 
Q 2572 -91 2522 -91 
Q 1538 -91 948 567 
Q 359 1225 359 2328 
Q 359 3434 948 4092 
Q 1538 4750 2522 4750 
Q 3503 4750 4090 4092 
Q 4678 3434 4678 2328 
Q 4678 1516 4351 937 
Q 4025 359 3406 84 
z
" transform="scale(0.015625)"/>
        <path id="DejaVuSans-4c" d="M 628 4666 
L 1259 4666 
L 1259 531 
L 3531 531 
L 3531 0 
L 628 0 
L 628 4666 
z
" transform="scale(0.015625)"/>
       </defs>
       <use xlink:href="#DejaVuSans-44"/>
       <use xlink:href="#DejaVuSans-65" x="77.001953"/>
       <use xlink:href="#DejaVuSans-65" x="138.525391"/>
       <use xlink:href="#DejaVuSans-70" x="200.048828"/>
       <use xlink:href="#DejaVuSans-20" x="263.525391"/>
       <use xlink:href="#DejaVuSans-51" x="295.3125"/>
       <use xlink:href="#DejaVuSans-4c" x="374.023438"/>
       <use xlink:href="#DejaVuSans-65" x="427.986328"/>
       <use xlink:href="#DejaVuSans-61" x="489.509766"/>
       <use xlink:href="#DejaVuSans-72" x="550.789062"/>
       <use xlink:href="#DejaVuSans-6e" x="590.152344"/>
       <use xlink:href="#DejaVuSans-65" x="653.53125"/>
       <use xlink:href="#DejaVuSans-72" x="715.054688"/>
      </g>
     </g>
    </g>
    <g id="xtick_7">
     <g id="line2d_7">
      <g>
       <use xlink:href="#m6903ed209f" x="553.738182" y="337.97" style="stroke: #000000; stroke-width: 0.8"/>
      </g>
     </g>
     <g id="text_7">
      <!-- Alternator -->
      <g transform="translate(555.945682 385.165)rotate(-90)scale(0.08 -0.08)">
       <defs>
        <path id="DejaVuSans-6c" d="M 603 4863 
L 1178 4863 
L 1178 0 
L 603 0 
L 603 4863 
z
" transform="scale(0.015625)"/>
       </defs>
       <use xlink:href="#DejaVuSans-41"/>
       <use xlink:href="#DejaVuSans-6c" x="68.408203"/>
       <use xlink:href="#DejaVuSans-74" x="96.191406"/>
       <use xlink:href="#DejaVuSans-65" x="135.400391"/>
       <use xlink:href="#DejaVuSans-72" x="196.923828"/>
       <use xlink:href="#DejaVuSans-6e" x="236.287109"/>
       <use xlink:href="#DejaVuSans-61" x="299.666016"/>
       <use xlink:href="#DejaVuSans-74" x="360.945312"/>
       <use xlink:href="#DejaVuSans-6f" x="400.154297"/>
       <use xlink:href="#DejaVuSans-72" x="461.335938"/>
      </g>
     </g>
    </g>
    <g id="xtick_8">
     <g id="line2d_8">
      <g>
       <use xlink:href="#m6903ed209f" x="628.603636" y="337.97" style="stroke: #000000; stroke-width: 0.8"/>
      </g>
     </g>
     <g id="text_8">
      <!-- Cooperator -->
      <g transform="translate(630.811136 389.85875)rotate(-90)scale(0.08 -0.08)">
       <defs>
        <path id="DejaVuSans-43" d="M 4122 4306 
L 4122 3641 
Q 3803 3938 3442 4084 
Q 3081 4231 2675 4231 
Q 1875 4231 1450 3742 
Q 1025 3253 1025 2328 
Q 1025 1406 1450 917 
Q 1875 428 2675 428 
Q 3081 428 3442 575 
Q 3803 722 4122 1019 
L 4122 359 
Q 3791 134 3420 21 
Q 3050 -91 2638 -91 
Q 1578 -91 968 557 
Q 359 1206 359 2328 
Q 359 3453 968 4101 
Q 1578 4750 2638 4750 
Q 3056 4750 3426 4639 
Q 3797 4528 4122 4306 
z
" transform="scale(0.015625)"/>
       </defs>
       <use xlink:href="#DejaVuSans-43"/>
       <use xlink:href="#DejaVuSans-6f" x="69.824219"/>
       <use xlink:href="#DejaVuSans-6f" x="131.005859"/>
       <use xlink:href="#DejaVuSans-70" x="192.1875"/>
       <use xlink:href="#DejaVuSans-65" x="255.664062"/>
       <use xlink:href="#DejaVuSans-72" x="317.1875"/>
       <use xlink:href="#DejaVuSans-61" x="358.300781"/>
       <use xlink:href="#DejaVuSans-74" x="419.580078"/>
       <use xlink:href="#DejaVuSans-6f" x="458.789062"/>
       <use xlink:href="#DejaVuSans-72" x="519.970703"/>
      </g>
     </g>
    </g>
    <g id="xtick_9">
     <g id="line2d_9">
      <g>
       <use xlink:href="#m6903ed209f" x="703.469091" y="337.97" style="stroke: #000000; stroke-width: 0.8"/>
      </g>
     </g>
     <g id="text_9">
      <!-- Risky QLearner -->
      <g transform="translate(705.676591 405.40875)rotate(-90)scale(0.08 -0.08)">
       <defs>
        <path id="DejaVuSans-73" d="M 2834 3397 
L 2834 2853 
Q 2591 2978 2328 3040 
Q 2066 3103 1784 3103 
Q 1356 3103 1142 2972 
Q 928 2841 928 2578 
Q 928 2378 1081 2264 
Q 1234 2150 1697 2047 
L 1894 2003 
Q 2506 1872 2764 1633 
Q 3022 1394 3022 966 
Q 3022 478 2636 193 
Q 2250 -91 1575 -91 
Q 1294 -91 989 -36 
Q 684 19 347 128 
L 347 722 
Q 666 556 975 473 
Q 1284 391 1588 391 
Q 1994 391 2212 530 
Q 2431 669 2431 922 
Q 2431 1156 2273 1281 
Q 2116 1406 1581 1522 
L 1381 1569 
Q 847 1681 609 1914 
Q 372 2147 372 2553 
Q 372 3047 722 3315 
Q 1072 3584 1716 3584 
Q 2034 3584 2315 3537 
Q 2597 3491 2834 3397 
z
" transform="scale(0.015625)"/>
        <path id="DejaVuSans-6b" d="M 581 4863 
L 1159 4863 
L 1159 1991 
L 2875 3500 
L 3609 3500 
L 1753 1863 
L 3688 0 
L 2938 0 
L 1159 1709 
L 1159 0 
L 581 0 
L 581 4863 
z
" transform="scale(0.015625)"/>
        <path id="DejaVuSans-79" d="M 2059 -325 
Q 1816 -950 1584 -1140 
Q 1353 -1331 966 -1331 
L 506 -1331 
L 506 -850 
L 844 -850 
Q 1081 -850 1212 -737 
Q 1344 -625 1503 -206 
L 1606 56 
L 191 3500 
L 800 3500 
L 1894 763 
L 2988 3500 
L 3597 3500 
L 2059 -325 
z
" transform="scale(0.015625)"/>
       </defs>
       <use xlink:href="#DejaVuSans-52"/>
       <use xlink:href="#DejaVuSans-69" x="69.482422"/>
       <use xlink:href="#DejaVuSans-73" x="97.265625"/>
       <use xlink:href="#DejaVuSans-6b" x="149.365234"/>
       <use xlink:href="#DejaVuSans-79" x="203.650391"/>
       <use xlink:href="#DejaVuSans-20" x="262.830078"/>
       <use xlink:href="#DejaVuSans-51" x="294.617188"/>
       <use xlink:href="#DejaVuSans-4c" x="373.328125"/>
       <use xlink:href="#DejaVuSans-65" x="427.291016"/>
       <use xlink:href="#DejaVuSans-61" x="488.814453"/>
       <use xlink:href="#DejaVuSans-72" x="550.09375"/>
       <use xlink:href="#DejaVuSans-6e" x="589.457031"/>
       <use xlink:href="#DejaVuSans-65" x="652.835938"/>
       <use xlink:href="#DejaVuSans-72" x="714.359375"/>
      </g>
     </g>
    </g>
    <g id="xtick_10">
     <g id="line2d_10">
      <g>
       <use xlink:href="#m6903ed209f" x="778.334545" y="337.97" style="stroke: #000000; stroke-width: 0.8"/>
      </g>
     </g>
     <g id="text_10">
      <!-- Mediocre QLearner -->
      <g transform="translate(780.542045 420.83375)rotate(-90)scale(0.08 -0.08)">
       <defs>
        <path id="DejaVuSans-4d" d="M 628 4666 
L 1569 4666 
L 2759 1491 
L 3956 4666 
L 4897 4666 
L 4897 0 
L 4281 0 
L 4281 4097 
L 3078 897 
L 2444 897 
L 1241 4097 
L 1241 0 
L 628 0 
L 628 4666 
z
" transform="scale(0.015625)"/>
       </defs>
       <use xlink:href="#DejaVuSans-4d"/>
       <use xlink:href="#DejaVuSans-65" x="86.279297"/>
       <use xlink:href="#DejaVuSans-64" x="147.802734"/>
       <use xlink:href="#DejaVuSans-69" x="211.279297"/>
       <use xlink:href="#DejaVuSans-6f" x="239.0625"/>
       <use xlink:href="#DejaVuSans-63" x="300.244141"/>
       <use xlink:href="#DejaVuSans-72" x="355.224609"/>
       <use xlink:href="#DejaVuSans-65" x="394.087891"/>
       <use xlink:href="#DejaVuSans-20" x="455.611328"/>
       <use xlink:href="#DejaVuSans-51" x="487.398438"/>
       <use xlink:href="#DejaVuSans-4c" x="566.109375"/>
       <use xlink:href="#DejaVuSans-65" x="620.072266"/>
       <use xlink:href="#DejaVuSans-61" x="681.595703"/>
       <use xlink:href="#DejaVuSans-72" x="742.875"/>
       <use xlink:href="#DejaVuSans-6e" x="782.238281"/>
       <use xlink:href="#DejaVuSans-65" x="845.617188"/>
       <use xlink:href="#DejaVuSans-72" x="907.140625"/>
      </g>
     </g>
    </g>
   </g>
   <g id="matplotlib.axis_2">
    <g id="ytick_1">
     <g id="line2d_11">
      <defs>
       <path id="m2f92bfc709" d="M 0 0 
L -3.5 0 
" style="stroke: #000000; stroke-width: 0.8"/>
      </defs>
      <g>
       <use xlink:href="#m2f92bfc709" x="29.68" y="295.548636" style="stroke: #000000; stroke-width: 0.8"/>
      </g>
     </g>
     <g id="text_11">
      <!-- 4 -->
      <g transform="translate(10.88625 298.588011)scale(0.08 -0.08)">
       <defs>
        <path id="DejaVuSans-2212" d="M 678 2272 
L 4684 2272 
L 4684 1741 
L 678 1741 
L 678 2272 
z
" transform="scale(0.015625)"/>
        <path id="DejaVuSans-34" d="M 2419 4116 
L 825 1625 
L 2419 1625 
L 2419 4116 
z
M 2253 4666 
L 3047 4666 
L 3047 1625 
L 3713 1625 
L 3713 1100 
L 3047 1100 
L 3047 0 
L 2419 0 
L 2419 1100 
L 313 1100 
L 313 1709 
L 2253 4666 
z
" transform="scale(0.015625)"/>
       </defs>
       <use xlink:href="#DejaVuSans-2212"/>
       <use xlink:href="#DejaVuSans-34" x="83.789062"/>
      </g>
     </g>
    </g>
    <g id="ytick_2">
     <g id="line2d_12">
      <g>
       <use xlink:href="#m2f92bfc709" x="29.68" y="238.986818" style="stroke: #000000; stroke-width: 0.8"/>
      </g>
     </g>
     <g id="text_12">
      <!-- 2 -->
      <g transform="translate(10.88625 242.026193)scale(0.08 -0.08)">
       <defs>
        <path id="DejaVuSans-32" d="M 1228 531 
L 3431 531 
L 3431 0 
L 469 0 
L 469 531 
Q 828 903 1448 1529 
Q 2069 2156 2228 2338 
Q 2531 2678 2651 2914 
Q 2772 3150 2772 3378 
Q 2772 3750 2511 3984 
Q 2250 4219 1831 4219 
Q 1534 4219 1204 4116 
Q 875 4013 500 3803 
L 500 4441 
Q 881 4594 1212 4672 
Q 1544 4750 1819 4750 
Q 2544 4750 2975 4387 
Q 3406 4025 3406 3419 
Q 3406 3131 3298 2873 
Q 3191 2616 2906 2266 
Q 2828 2175 2409 1742 
Q 1991 1309 1228 531 
z
" transform="scale(0.015625)"/>
       </defs>
       <use xlink:href="#DejaVuSans-2212"/>
       <use xlink:href="#DejaVuSans-32" x="83.789062"/>
      </g>
     </g>
    </g>
    <g id="ytick_3">
     <g id="line2d_13">
      <g>
       <use xlink:href="#m2f92bfc709" x="29.68" y="182.425" style="stroke: #000000; stroke-width: 0.8"/>
      </g>
     </g>
     <g id="text_13">
      <!-- 0 -->
      <g transform="translate(17.59 185.464375)scale(0.08 -0.08)">
       <use xlink:href="#DejaVuSans-30"/>
      </g>
     </g>
    </g>
    <g id="ytick_4">
     <g id="line2d_14">
      <g>
       <use xlink:href="#m2f92bfc709" x="29.68" y="125.863182" style="stroke: #000000; stroke-width: 0.8"/>
      </g>
     </g>
     <g id="text_14">
      <!-- 2 -->
      <g transform="translate(17.59 128.902557)scale(0.08 -0.08)">
       <use xlink:href="#DejaVuSans-32"/>
      </g>
     </g>
    </g>
    <g id="ytick_5">
     <g id="line2d_15">
      <g>
       <use xlink:href="#m2f92bfc709" x="29.68" y="69.301364" style="stroke: #000000; stroke-width: 0.8"/>
      </g>
     </g>
     <g id="text_15">
      <!-- 4 -->
      <g transform="translate(17.59 72.340739)scale(0.08 -0.08)">
       <use xlink:href="#DejaVuSans-34"/>
      </g>
     </g>
    </g>
   </g>
   <g id="LineCollection_1">
    <path d="M 95.187273 147.073864 
L 113.903636 147.073864 
" clip-path="url(#pd2f0467b4b)" style="fill: none; stroke: #1f77b4; stroke-width: 1.5"/>
    <path d="M 170.052727 140.003636 
L 188.769091 140.003636 
" clip-path="url(#pd2f0467b4b)" style="fill: none; stroke: #1f77b4; stroke-width: 1.5"/>
    <path d="M 244.918182 137.175545 
L 263.634545 137.175545 
" clip-path="url(#pd2f0467b4b)" style="fill: none; stroke: #1f77b4; stroke-width: 1.5"/>
    <path d="M 319.783636 182.425 
L 338.5 182.425 
" clip-path="url(#pd2f0467b4b)" style="fill: none; stroke: #1f77b4; stroke-width: 1.5"/>
    <path d="M 394.649091 182.425 
L 413.365455 182.425 
" clip-path="url(#pd2f0467b4b)" style="fill: none; stroke: #1f77b4; stroke-width: 1.5"/>
    <path d="M 469.514545 182.425 
L 488.230909 182.425 
" clip-path="url(#pd2f0467b4b)" style="fill: none; stroke: #1f77b4; stroke-width: 1.5"/>
    <path d="M 544.38 179.596909 
L 563.096364 179.596909 
" clip-path="url(#pd2f0467b4b)" style="fill: none; stroke: #1f77b4; stroke-width: 1.5"/>
    <path d="M 619.245455 193.737364 
L 637.961818 193.737364 
" clip-path="url(#pd2f0467b4b)" style="fill: none; stroke: #1f77b4; stroke-width: 1.5"/>
    <path d="M 694.110909 220.604227 
L 712.827273 220.604227 
" clip-path="url(#pd2f0467b4b)" style="fill: none; stroke: #1f77b4; stroke-width: 1.5"/>
    <path d="M 768.976364 223.432318 
L 787.692727 223.432318 
" clip-path="url(#pd2f0467b4b)" style="fill: none; stroke: #1f77b4; stroke-width: 1.5"/>
   </g>
   <g id="patch_3">
    <path d="M 29.68 337.97 
L 29.68 26.88 
" style="fill: none; stroke: #000000; stroke-width: 0.8; stroke-linejoin: miter; stroke-linecap: square"/>
   </g>
   <g id="patch_4">
    <path d="M 853.2 337.97 
L 853.2 26.88 
" style="fill: none; stroke: #000000; stroke-width: 0.8; stroke-linejoin: miter; stroke-linecap: square"/>
   </g>
   <g id="patch_5">
    <path d="M 29.68 337.97 
L 853.2 337.97 
" style="fill: none; stroke: #000000; stroke-width: 0.8; stroke-linejoin: miter; stroke-linecap: square"/>
   </g>
   <g id="patch_6">
    <path d="M 29.68 26.88 
L 853.2 26.88 
" style="fill: none; stroke: #000000; stroke-width: 0.8; stroke-linejoin: miter; stroke-linecap: square"/>
   </g>
   <g id="text_16">
    <!-- Payoff differences - turns: 200, repetitions: 20, strategies: 10.  -->
    <g transform="translate(254.235313 20.88)scale(0.12 -0.12)">
     <defs>
      <path id="DejaVuSans-50" d="M 1259 4147 
L 1259 2394 
L 2053 2394 
Q 2494 2394 2734 2622 
Q 2975 2850 2975 3272 
Q 2975 3691 2734 3919 
Q 2494 4147 2053 4147 
L 1259 4147 
z
M 628 4666 
L 2053 4666 
Q 2838 4666 3239 4311 
Q 3641 3956 3641 3272 
Q 3641 2581 3239 2228 
Q 2838 1875 2053 1875 
L 1259 1875 
L 1259 0 
L 628 0 
L 628 4666 
z
" transform="scale(0.015625)"/>
      <path id="DejaVuSans-2d" d="M 313 2009 
L 1997 2009 
L 1997 1497 
L 313 1497 
L 313 2009 
z
" transform="scale(0.015625)"/>
      <path id="DejaVuSans-2c" d="M 750 794 
L 1409 794 
L 1409 256 
L 897 -744 
L 494 -744 
L 750 256 
L 750 794 
z
" transform="scale(0.015625)"/>
      <path id="DejaVuSans-31" d="M 794 531 
L 1825 531 
L 1825 4091 
L 703 3866 
L 703 4441 
L 1819 4666 
L 2450 4666 
L 2450 531 
L 3481 531 
L 3481 0 
L 794 0 
L 794 531 
z
" transform="scale(0.015625)"/>
     </defs>
     <use xlink:href="#DejaVuSans-50"/>
     <use xlink:href="#DejaVuSans-61" x="55.802734"/>
     <use xlink:href="#DejaVuSans-79" x="117.082031"/>
     <use xlink:href="#DejaVuSans-6f" x="176.261719"/>
     <use xlink:href="#DejaVuSans-66" x="237.443359"/>
     <use xlink:href="#DejaVuSans-66" x="272.648438"/>
     <use xlink:href="#DejaVuSans-20" x="307.853516"/>
     <use xlink:href="#DejaVuSans-64" x="339.640625"/>
     <use xlink:href="#DejaVuSans-69" x="403.117188"/>
     <use xlink:href="#DejaVuSans-66" x="430.900391"/>
     <use xlink:href="#DejaVuSans-66" x="466.105469"/>
     <use xlink:href="#DejaVuSans-65" x="501.310547"/>
     <use xlink:href="#DejaVuSans-72" x="562.833984"/>
     <use xlink:href="#DejaVuSans-65" x="601.697266"/>
     <use xlink:href="#DejaVuSans-6e" x="663.220703"/>
     <use xlink:href="#DejaVuSans-63" x="726.599609"/>
     <use xlink:href="#DejaVuSans-65" x="781.580078"/>
     <use xlink:href="#DejaVuSans-73" x="843.103516"/>
     <use xlink:href="#DejaVuSans-20" x="895.203125"/>
     <use xlink:href="#DejaVuSans-2d" x="926.990234"/>
     <use xlink:href="#DejaVuSans-20" x="963.074219"/>
     <use xlink:href="#DejaVuSans-74" x="994.861328"/>
     <use xlink:href="#DejaVuSans-75" x="1034.070312"/>
     <use xlink:href="#DejaVuSans-72" x="1097.449219"/>
     <use xlink:href="#DejaVuSans-6e" x="1136.8125"/>
     <use xlink:href="#DejaVuSans-73" x="1200.191406"/>
     <use xlink:href="#DejaVuSans-3a" x="1252.291016"/>
     <use xlink:href="#DejaVuSans-20" x="1285.982422"/>
     <use xlink:href="#DejaVuSans-32" x="1317.769531"/>
     <use xlink:href="#DejaVuSans-30" x="1381.392578"/>
     <use xlink:href="#DejaVuSans-30" x="1445.015625"/>
     <use xlink:href="#DejaVuSans-2c" x="1508.638672"/>
     <use xlink:href="#DejaVuSans-20" x="1540.425781"/>
     <use xlink:href="#DejaVuSans-72" x="1572.212891"/>
     <use xlink:href="#DejaVuSans-65" x="1611.076172"/>
     <use xlink:href="#DejaVuSans-70" x="1672.599609"/>
     <use xlink:href="#DejaVuSans-65" x="1736.076172"/>
     <use xlink:href="#DejaVuSans-74" x="1797.599609"/>
     <use xlink:href="#DejaVuSans-69" x="1836.808594"/>
     <use xlink:href="#DejaVuSans-74" x="1864.591797"/>
     <use xlink:href="#DejaVuSans-69" x="1903.800781"/>
     <use xlink:href="#DejaVuSans-6f" x="1931.583984"/>
     <use xlink:href="#DejaVuSans-6e" x="1992.765625"/>
     <use xlink:href="#DejaVuSans-73" x="2056.144531"/>
     <use xlink:href="#DejaVuSans-3a" x="2108.244141"/>
     <use xlink:href="#DejaVuSans-20" x="2141.935547"/>
     <use xlink:href="#DejaVuSans-32" x="2173.722656"/>
     <use xlink:href="#DejaVuSans-30" x="2237.345703"/>
     <use xlink:href="#DejaVuSans-2c" x="2300.96875"/>
     <use xlink:href="#DejaVuSans-20" x="2332.755859"/>
     <use xlink:href="#DejaVuSans-73" x="2364.542969"/>
     <use xlink:href="#DejaVuSans-74" x="2416.642578"/>
     <use xlink:href="#DejaVuSans-72" x="2455.851562"/>
     <use xlink:href="#DejaVuSans-61" x="2496.964844"/>
     <use xlink:href="#DejaVuSans-74" x="2558.244141"/>
     <use xlink:href="#DejaVuSans-65" x="2597.453125"/>
     <use xlink:href="#DejaVuSans-67" x="2658.976562"/>
     <use xlink:href="#DejaVuSans-69" x="2722.453125"/>
     <use xlink:href="#DejaVuSans-65" x="2750.236328"/>
     <use xlink:href="#DejaVuSans-73" x="2811.759766"/>
     <use xlink:href="#DejaVuSans-3a" x="2863.859375"/>
     <use xlink:href="#DejaVuSans-20" x="2897.550781"/>
     <use xlink:href="#DejaVuSans-31" x="2929.337891"/>
     <use xlink:href="#DejaVuSans-30" x="2992.960938"/>
     <use xlink:href="#DejaVuSans-2e" x="3056.583984"/>
     <use xlink:href="#DejaVuSans-20" x="3088.371094"/>
    </g>
   </g>
  </g>
 </g>
 <defs>
  <clipPath id="pd2f0467b4b">
   <rect x="29.68" y="26.88" width="823.52" height="311.09"/>
  </clipPath>
 </defs>
</svg>
