<?xml version="1.0" encoding="utf-8" standalone="no"?>
<!DOCTYPE svg PUBLIC "-//W3C//DTD SVG 1.1//EN"
  "http://www.w3.org/Graphics/SVG/1.1/DTD/svg11.dtd">
<svg xmlns:xlink="http://www.w3.org/1999/xlink" width="864pt" height="432pt" viewBox="0 0 864 432" xmlns="http://www.w3.org/2000/svg" version="1.1">
 <metadata>
  <rdf:RDF xmlns:dc="http://purl.org/dc/elements/1.1/" xmlns:cc="http://creativecommons.org/ns#" xmlns:rdf="http://www.w3.org/1999/02/22-rdf-syntax-ns#">
   <cc:Work>
    <dc:type rdf:resource="http://purl.org/dc/dcmitype/StillImage"/>
    <dc:date>2022-09-12T23:49:00.144708</dc:date>
    <dc:format>image/svg+xml</dc:format>
    <dc:creator>
     <cc:Agent>
      <dc:title>Matplotlib v3.5.1, https://matplotlib.org/</dc:title>
     </cc:Agent>
    </dc:creator>
   </cc:Work>
  </rdf:RDF>
 </metadata>
 <defs>
  <style type="text/css">*{stroke-linejoin: round; stroke-linecap: butt}</style>
 </defs>
 <g id="figure_1">
  <g id="patch_1">
   <path d="M 0 432 
L 864 432 
L 864 0 
L 0 0 
z
" style="fill: #ffffff"/>
  </g>
  <g id="axes_1">
   <g id="patch_2">
    <path d="M 22.93 337.97 
L 853.2 337.97 
L 853.2 26.88 
L 22.93 26.88 
z
" style="fill: #ffffff"/>
   </g>
   <g id="PolyCollection_1">
    <path d="M 117.278864 42.4345 
L 79.539318 42.4345 
L 79.539318 42.4345 
L 79.539318 42.4345 
L 79.539318 42.4345 
L 79.539318 42.4345 
L 79.539318 42.4345 
L 79.539318 42.4345 
L 79.539318 42.4345 
L 79.539318 42.4345 
L 79.539318 42.4345 
L 79.539318 42.4345 
L 79.539318 42.4345 
L 79.539318 42.4345 
L 79.539318 42.4345 
L 79.539318 42.4345 
L 79.539318 42.4345 
L 79.539318 42.4345 
L 79.539318 42.4345 
L 79.539318 42.4345 
L 79.539318 42.4345 
L 79.539318 42.4345 
L 79.539318 42.4345 
L 79.539318 42.4345 
L 79.539318 42.4345 
L 79.539318 42.4345 
L 79.539318 42.4345 
L 79.539318 42.4345 
L 79.539318 42.4345 
L 79.539318 42.4345 
L 79.539318 42.4345 
L 79.539318 42.4345 
L 79.539318 42.4345 
L 79.539318 42.4345 
L 79.539318 42.4345 
L 79.539318 42.4345 
L 79.539318 42.4345 
L 79.539318 42.4345 
L 79.539318 42.4345 
L 79.539318 42.4345 
L 79.539318 42.4345 
L 79.539318 42.4345 
L 79.539318 42.4345 
L 79.539318 42.4345 
L 79.539318 42.4345 
L 79.539318 42.4345 
L 79.539318 42.4345 
L 79.539318 42.4345 
L 79.539318 42.4345 
L 79.539318 42.4345 
L 79.539318 42.4345 
L 79.539318 42.4345 
L 79.539318 42.4345 
L 79.539318 42.4345 
L 79.539318 42.4345 
L 79.539318 42.4345 
L 79.539318 42.4345 
L 79.539318 42.4345 
L 79.539318 42.4345 
L 79.539318 42.4345 
L 79.539318 42.4345 
L 79.539318 42.4345 
L 79.539318 42.4345 
L 79.539318 42.4345 
L 79.539318 42.4345 
L 79.539318 42.4345 
L 79.539318 42.4345 
L 79.539318 42.4345 
L 79.539318 42.4345 
L 79.539318 42.4345 
L 79.539318 42.4345 
L 79.539318 42.4345 
L 79.539318 42.4345 
L 79.539318 42.4345 
L 79.539318 42.4345 
L 79.539318 42.4345 
L 79.539318 42.4345 
L 79.539318 42.4345 
L 79.539318 42.4345 
L 79.539318 42.4345 
L 79.539318 42.4345 
L 79.539318 42.4345 
L 79.539318 42.4345 
L 79.539318 42.4345 
L 79.539318 42.4345 
L 79.539318 42.4345 
L 79.539318 42.4345 
L 79.539318 42.4345 
L 79.539318 42.4345 
L 79.539318 42.4345 
L 79.539318 42.4345 
L 79.539318 42.4345 
L 79.539318 42.4345 
L 79.539318 42.4345 
L 79.539318 42.4345 
L 79.539318 42.4345 
L 79.539318 42.4345 
L 79.539318 42.4345 
L 79.539318 42.4345 
L 79.539318 42.4345 
L 79.539318 42.4345 
L 117.278864 42.4345 
L 117.278864 42.4345 
L 117.278864 42.4345 
L 117.278864 42.4345 
L 117.278864 42.4345 
L 117.278864 42.4345 
L 117.278864 42.4345 
L 117.278864 42.4345 
L 117.278864 42.4345 
L 117.278864 42.4345 
L 117.278864 42.4345 
L 117.278864 42.4345 
L 117.278864 42.4345 
L 117.278864 42.4345 
L 117.278864 42.4345 
L 117.278864 42.4345 
L 117.278864 42.4345 
L 117.278864 42.4345 
L 117.278864 42.4345 
L 117.278864 42.4345 
L 117.278864 42.4345 
L 117.278864 42.4345 
L 117.278864 42.4345 
L 117.278864 42.4345 
L 117.278864 42.4345 
L 117.278864 42.4345 
L 117.278864 42.4345 
L 117.278864 42.4345 
L 117.278864 42.4345 
L 117.278864 42.4345 
L 117.278864 42.4345 
L 117.278864 42.4345 
L 117.278864 42.4345 
L 117.278864 42.4345 
L 117.278864 42.4345 
L 117.278864 42.4345 
L 117.278864 42.4345 
L 117.278864 42.4345 
L 117.278864 42.4345 
L 117.278864 42.4345 
L 117.278864 42.4345 
L 117.278864 42.4345 
L 117.278864 42.4345 
L 117.278864 42.4345 
L 117.278864 42.4345 
L 117.278864 42.4345 
L 117.278864 42.4345 
L 117.278864 42.4345 
L 117.278864 42.4345 
L 117.278864 42.4345 
L 117.278864 42.4345 
L 117.278864 42.4345 
L 117.278864 42.4345 
L 117.278864 42.4345 
L 117.278864 42.4345 
L 117.278864 42.4345 
L 117.278864 42.4345 
L 117.278864 42.4345 
L 117.278864 42.4345 
L 117.278864 42.4345 
L 117.278864 42.4345 
L 117.278864 42.4345 
L 117.278864 42.4345 
L 117.278864 42.4345 
L 117.278864 42.4345 
L 117.278864 42.4345 
L 117.278864 42.4345 
L 117.278864 42.4345 
L 117.278864 42.4345 
L 117.278864 42.4345 
L 117.278864 42.4345 
L 117.278864 42.4345 
L 117.278864 42.4345 
L 117.278864 42.4345 
L 117.278864 42.4345 
L 117.278864 42.4345 
L 117.278864 42.4345 
L 117.278864 42.4345 
L 117.278864 42.4345 
L 117.278864 42.4345 
L 117.278864 42.4345 
L 117.278864 42.4345 
L 117.278864 42.4345 
L 117.278864 42.4345 
L 117.278864 42.4345 
L 117.278864 42.4345 
L 117.278864 42.4345 
L 117.278864 42.4345 
L 117.278864 42.4345 
L 117.278864 42.4345 
L 117.278864 42.4345 
L 117.278864 42.4345 
L 117.278864 42.4345 
L 117.278864 42.4345 
L 117.278864 42.4345 
L 117.278864 42.4345 
L 117.278864 42.4345 
L 117.278864 42.4345 
L 117.278864 42.4345 
L 117.278864 42.4345 
L 117.278864 42.4345 
z
" clip-path="url(#pa0c6901ce8)" style="fill: #1f77b4; fill-opacity: 0.3"/>
   </g>
   <g id="PolyCollection_2">
    <path d="M 186.482861 166.8705 
L 161.293502 166.8705 
L 161.298149 166.556268 
L 161.319096 166.242035 
L 161.356187 165.927803 
L 161.409193 165.613571 
L 161.477817 165.299338 
L 161.561687 164.985106 
L 161.660366 164.670874 
L 161.77335 164.356641 
L 161.900069 164.042409 
L 162.039892 163.728177 
L 162.192132 163.413944 
L 162.356043 163.099712 
L 162.53083 162.78548 
L 162.715647 162.471247 
L 162.909608 162.157015 
L 163.111783 161.842783 
L 163.32121 161.528551 
L 163.536894 161.214318 
L 163.757813 160.900086 
L 163.982924 160.585854 
L 164.211167 160.271621 
L 164.441468 159.957389 
L 164.672743 159.643157 
L 164.903907 159.328924 
L 165.133872 159.014692 
L 165.361558 158.70046 
L 165.585889 158.386227 
L 165.805807 158.071995 
L 166.020265 157.757763 
L 166.228239 157.44353 
L 166.428727 157.129298 
L 166.620755 156.815066 
L 166.803377 156.500833 
L 166.975683 156.186601 
L 167.136795 155.872369 
L 167.285875 155.558136 
L 167.422126 155.243904 
L 167.544793 154.929672 
L 167.653168 154.615439 
L 167.74659 154.301207 
L 167.824446 153.986975 
L 167.886176 153.672742 
L 167.931271 153.35851 
L 167.959279 153.044278 
L 167.969804 152.730045 
L 167.962505 152.415813 
L 167.937105 152.101581 
L 167.893382 151.787348 
L 167.831181 151.473116 
L 167.750407 151.158884 
L 167.651029 150.844652 
L 167.533083 150.530419 
L 167.396669 150.216187 
L 167.241957 149.901955 
L 167.06918 149.587722 
L 166.878644 149.27349 
L 166.670719 148.959258 
L 166.445847 148.645025 
L 166.204537 148.330793 
L 165.947367 148.016561 
L 165.674983 147.702328 
L 165.388098 147.388096 
L 165.087491 147.073864 
L 164.774007 146.759631 
L 164.448554 146.445399 
L 164.112101 146.131167 
L 163.765676 145.816934 
L 163.410364 145.502702 
L 163.047305 145.18847 
L 162.677685 144.874237 
L 162.302741 144.560005 
L 161.923749 144.245773 
L 161.542024 143.93154 
L 161.158913 143.617308 
L 160.77579 143.303076 
L 160.394053 142.988843 
L 160.015114 142.674611 
L 159.640396 142.360379 
L 159.271325 142.046146 
L 158.909325 141.731914 
L 158.55581 141.417682 
L 158.212175 141.103449 
L 157.879795 140.789217 
L 157.560012 140.474985 
L 157.254131 140.160753 
L 156.963414 139.84652 
L 156.689069 139.532288 
L 156.43225 139.218056 
L 156.194043 138.903823 
L 155.975467 138.589591 
L 155.777465 138.275359 
L 155.600896 137.961126 
L 155.446537 137.646894 
L 155.315074 137.332662 
L 155.207096 137.018429 
L 155.123098 136.704197 
L 155.063473 136.389965 
L 155.028514 136.075732 
L 155.018409 135.7615 
L 192.757955 135.7615 
L 192.757955 135.7615 
L 192.747849 136.075732 
L 192.71289 136.389965 
L 192.653266 136.704197 
L 192.569268 137.018429 
L 192.46129 137.332662 
L 192.329826 137.646894 
L 192.175467 137.961126 
L 191.998899 138.275359 
L 191.800896 138.589591 
L 191.582321 138.903823 
L 191.344114 139.218056 
L 191.087294 139.532288 
L 190.81295 139.84652 
L 190.522232 140.160753 
L 190.216352 140.474985 
L 189.896569 140.789217 
L 189.564189 141.103449 
L 189.220554 141.417682 
L 188.867038 141.731914 
L 188.505038 142.046146 
L 188.135968 142.360379 
L 187.76125 142.674611 
L 187.382311 142.988843 
L 187.000574 143.303076 
L 186.617451 143.617308 
L 186.23434 143.93154 
L 185.852614 144.245773 
L 185.473622 144.560005 
L 185.098678 144.874237 
L 184.729059 145.18847 
L 184.365999 145.502702 
L 184.010688 145.816934 
L 183.664263 146.131167 
L 183.32781 146.445399 
L 183.002357 146.759631 
L 182.688873 147.073864 
L 182.388266 147.388096 
L 182.10138 147.702328 
L 181.828996 148.016561 
L 181.571826 148.330793 
L 181.330516 148.645025 
L 181.105644 148.959258 
L 180.89772 149.27349 
L 180.707183 149.587722 
L 180.534407 149.901955 
L 180.379694 150.216187 
L 180.243281 150.530419 
L 180.125335 150.844652 
L 180.025957 151.158884 
L 179.945183 151.473116 
L 179.882981 151.787348 
L 179.839259 152.101581 
L 179.813858 152.415813 
L 179.80656 152.730045 
L 179.817084 153.044278 
L 179.845093 153.35851 
L 179.890188 153.672742 
L 179.951918 153.986975 
L 180.029774 154.301207 
L 180.123195 154.615439 
L 180.231571 154.929672 
L 180.354238 155.243904 
L 180.490489 155.558136 
L 180.639569 155.872369 
L 180.800681 156.186601 
L 180.972986 156.500833 
L 181.155609 156.815066 
L 181.347637 157.129298 
L 181.548125 157.44353 
L 181.756099 157.757763 
L 181.970557 158.071995 
L 182.190474 158.386227 
L 182.414806 158.70046 
L 182.642492 159.014692 
L 182.872457 159.328924 
L 183.103621 159.643157 
L 183.334896 159.957389 
L 183.565196 160.271621 
L 183.793439 160.585854 
L 184.018551 160.900086 
L 184.23947 161.214318 
L 184.455154 161.528551 
L 184.664581 161.842783 
L 184.866756 162.157015 
L 185.060717 162.471247 
L 185.245534 162.78548 
L 185.42032 163.099712 
L 185.584232 163.413944 
L 185.736471 163.728177 
L 185.876295 164.042409 
L 186.003014 164.356641 
L 186.115997 164.670874 
L 186.214676 164.985106 
L 186.298547 165.299338 
L 186.36717 165.613571 
L 186.420177 165.927803 
L 186.457268 166.242035 
L 186.478215 166.556268 
L 186.482861 166.8705 
z
" clip-path="url(#pa0c6901ce8)" style="fill: #1f77b4; fill-opacity: 0.3"/>
   </g>
   <g id="PolyCollection_3">
    <path d="M 255.452936 197.9795 
L 243.28161 197.9795 
L 243.206783 197.351035 
L 243.136813 196.722571 
L 243.070983 196.094106 
L 243.00848 195.465641 
L 242.948404 194.837177 
L 242.889777 194.208712 
L 242.831558 193.580247 
L 242.772652 192.951783 
L 242.711927 192.323318 
L 242.648232 191.694854 
L 242.58041 191.066389 
L 242.507316 190.437924 
L 242.427838 189.80946 
L 242.34091 189.180995 
L 242.245537 188.55253 
L 242.140806 187.924066 
L 242.025905 187.295601 
L 241.900141 186.667136 
L 241.762954 186.038672 
L 241.613927 185.410207 
L 241.452802 184.781742 
L 241.279486 184.153278 
L 241.094059 183.524813 
L 240.896779 182.896348 
L 240.688083 182.267884 
L 240.468588 181.639419 
L 240.239085 181.010955 
L 240.000535 180.38249 
L 239.754058 179.754025 
L 239.50092 179.125561 
L 239.242524 178.497096 
L 238.980384 177.868631 
L 238.716114 177.240167 
L 238.451402 176.611702 
L 238.187987 175.983237 
L 237.927634 175.354773 
L 237.672111 174.726308 
L 237.42316 174.097843 
L 237.182471 173.469379 
L 236.951654 172.840914 
L 236.732216 172.212449 
L 236.525533 171.583985 
L 236.332827 170.95552 
L 236.155146 170.327056 
L 235.993342 169.698591 
L 235.848056 169.070126 
L 235.719703 168.441662 
L 235.60846 167.813197 
L 235.514264 167.184732 
L 235.4368 166.556268 
L 235.375511 165.927803 
L 235.329592 165.299338 
L 235.298007 164.670874 
L 235.279495 164.042409 
L 235.272591 163.413944 
L 235.275637 162.78548 
L 235.286816 162.157015 
L 235.304166 161.528551 
L 235.325616 160.900086 
L 235.349016 160.271621 
L 235.372165 159.643157 
L 235.392849 159.014692 
L 235.408876 158.386227 
L 235.418107 157.757763 
L 235.418496 157.129298 
L 235.40812 156.500833 
L 235.385214 155.872369 
L 235.348202 155.243904 
L 235.295724 154.615439 
L 235.226664 153.986975 
L 235.140172 153.35851 
L 235.035683 152.730045 
L 234.91293 152.101581 
L 234.77196 151.473116 
L 234.613134 150.844652 
L 234.437135 150.216187 
L 234.244958 149.587722 
L 234.037912 148.959258 
L 233.817598 148.330793 
L 233.585898 147.702328 
L 233.344954 147.073864 
L 233.097141 146.445399 
L 232.845042 145.816934 
L 232.591411 145.18847 
L 232.339145 144.560005 
L 232.091242 143.93154 
L 231.850768 143.303076 
L 231.620813 142.674611 
L 231.404454 142.046146 
L 231.204716 141.417682 
L 231.02453 140.789217 
L 230.866697 140.160753 
L 230.733854 139.532288 
L 230.628436 138.903823 
L 230.552652 138.275359 
L 230.50845 137.646894 
L 230.4975 137.018429 
L 230.52117 136.389965 
L 230.580512 135.7615 
L 268.154033 135.7615 
L 268.154033 135.7615 
L 268.213376 136.389965 
L 268.237045 137.018429 
L 268.226095 137.646894 
L 268.181893 138.275359 
L 268.106109 138.903823 
L 268.000692 139.532288 
L 267.867848 140.160753 
L 267.710016 140.789217 
L 267.529829 141.417682 
L 267.330091 142.046146 
L 267.113732 142.674611 
L 266.883778 143.303076 
L 266.643303 143.93154 
L 266.395401 144.560005 
L 266.143134 145.18847 
L 265.889504 145.816934 
L 265.637404 146.445399 
L 265.389592 147.073864 
L 265.148648 147.702328 
L 264.916948 148.330793 
L 264.696634 148.959258 
L 264.489587 149.587722 
L 264.297411 150.216187 
L 264.121411 150.844652 
L 263.962586 151.473116 
L 263.821615 152.101581 
L 263.698863 152.730045 
L 263.594373 153.35851 
L 263.507882 153.986975 
L 263.438822 154.615439 
L 263.386344 155.243904 
L 263.349331 155.872369 
L 263.326425 156.500833 
L 263.316049 157.129298 
L 263.316438 157.757763 
L 263.32567 158.386227 
L 263.341696 159.014692 
L 263.362381 159.643157 
L 263.38553 160.271621 
L 263.408929 160.900086 
L 263.43038 161.528551 
L 263.44773 162.157015 
L 263.458908 162.78548 
L 263.461955 163.413944 
L 263.45505 164.042409 
L 263.436539 164.670874 
L 263.404954 165.299338 
L 263.359035 165.927803 
L 263.297745 166.556268 
L 263.220282 167.184732 
L 263.126085 167.813197 
L 263.014843 168.441662 
L 262.88649 169.070126 
L 262.741204 169.698591 
L 262.5794 170.327056 
L 262.401719 170.95552 
L 262.209013 171.583985 
L 262.00233 172.212449 
L 261.782892 172.840914 
L 261.552075 173.469379 
L 261.311385 174.097843 
L 261.062435 174.726308 
L 260.806912 175.354773 
L 260.546559 175.983237 
L 260.283143 176.611702 
L 260.018431 177.240167 
L 259.754161 177.868631 
L 259.492022 178.497096 
L 259.233625 179.125561 
L 258.980488 179.754025 
L 258.73401 180.38249 
L 258.49546 181.010955 
L 258.265957 181.639419 
L 258.046462 182.267884 
L 257.837767 182.896348 
L 257.640487 183.524813 
L 257.45506 184.153278 
L 257.281743 184.781742 
L 257.120618 185.410207 
L 256.971592 186.038672 
L 256.834404 186.667136 
L 256.708641 187.295601 
L 256.59374 187.924066 
L 256.489008 188.55253 
L 256.393635 189.180995 
L 256.306708 189.80946 
L 256.227229 190.437924 
L 256.154135 191.066389 
L 256.086313 191.694854 
L 256.022618 192.323318 
L 255.961894 192.951783 
L 255.902988 193.580247 
L 255.844768 194.208712 
L 255.786141 194.837177 
L 255.726065 195.465641 
L 255.663562 196.094106 
L 255.597732 196.722571 
L 255.527762 197.351035 
L 255.452936 197.9795 
z
" clip-path="url(#pa0c6901ce8)" style="fill: #1f77b4; fill-opacity: 0.3"/>
   </g>
   <g id="PolyCollection_4">
    <path d="M 332.092696 197.9795 
L 317.600031 197.9795 
L 317.527088 197.351035 
L 317.46289 196.722571 
L 317.406227 196.094106 
L 317.35569 195.465641 
L 317.309687 194.837177 
L 317.26646 194.208712 
L 317.2241 193.580247 
L 317.180577 192.951783 
L 317.133761 192.323318 
L 317.081455 191.694854 
L 317.021423 191.066389 
L 316.951427 190.437924 
L 316.86926 189.80946 
L 316.772784 189.180995 
L 316.659962 188.55253 
L 316.528904 187.924066 
L 316.377893 187.295601 
L 316.205428 186.667136 
L 316.01025 186.038672 
L 315.79138 185.410207 
L 315.548139 184.781742 
L 315.280178 184.153278 
L 314.987497 183.524813 
L 314.670455 182.896348 
L 314.329789 182.267884 
L 313.966612 181.639419 
L 313.582414 181.010955 
L 313.179058 180.38249 
L 312.758766 179.754025 
L 312.3241 179.125561 
L 311.87794 178.497096 
L 311.423452 177.868631 
L 310.964054 177.240167 
L 310.503378 176.611702 
L 310.045224 175.983237 
L 309.593512 175.354773 
L 309.152231 174.726308 
L 308.725387 174.097843 
L 308.316947 173.469379 
L 307.930786 172.840914 
L 307.570627 172.212449 
L 307.239996 171.583985 
L 306.942159 170.95552 
L 306.680084 170.327056 
L 306.456392 169.698591 
L 306.273316 169.070126 
L 306.13267 168.441662 
L 306.035818 167.813197 
L 305.983655 167.184732 
L 305.976591 166.556268 
L 306.014544 165.927803 
L 306.096941 165.299338 
L 306.222725 164.670874 
L 306.390371 164.042409 
L 306.597908 163.413944 
L 306.842947 162.78548 
L 307.122718 162.157015 
L 307.434108 161.528551 
L 307.773711 160.900086 
L 308.137871 160.271621 
L 308.522742 159.643157 
L 308.924338 159.014692 
L 309.338591 158.386227 
L 309.761407 157.757763 
L 310.188725 157.129298 
L 310.616568 156.500833 
L 311.0411 155.872369 
L 311.458669 155.243904 
L 311.865859 154.615439 
L 312.259529 153.986975 
L 312.636848 153.35851 
L 312.995327 152.730045 
L 313.332842 152.101581 
L 313.647657 151.473116 
L 313.938432 150.844652 
L 314.20423 150.216187 
L 314.444522 149.587722 
L 314.659174 148.959258 
L 314.848441 148.330793 
L 315.012947 147.702328 
L 315.153665 147.073864 
L 315.271889 146.445399 
L 315.369206 145.816934 
L 315.447457 145.18847 
L 315.508708 144.560005 
L 315.555204 143.93154 
L 315.589335 143.303076 
L 315.61359 142.674611 
L 315.630519 142.046146 
L 315.642693 141.417682 
L 315.652662 140.789217 
L 315.662918 140.160753 
L 315.675861 139.532288 
L 315.693765 138.903823 
L 315.718749 138.275359 
L 315.75275 137.646894 
L 315.797499 137.018429 
L 315.854507 136.389965 
L 315.925047 135.7615 
L 333.767681 135.7615 
L 333.767681 135.7615 
L 333.83822 136.389965 
L 333.895228 137.018429 
L 333.939977 137.646894 
L 333.973978 138.275359 
L 333.998962 138.903823 
L 334.016866 139.532288 
L 334.02981 140.160753 
L 334.040066 140.789217 
L 334.050034 141.417682 
L 334.062208 142.046146 
L 334.079138 142.674611 
L 334.103392 143.303076 
L 334.137523 143.93154 
L 334.184019 144.560005 
L 334.24527 145.18847 
L 334.323521 145.816934 
L 334.420838 146.445399 
L 334.539062 147.073864 
L 334.67978 147.702328 
L 334.844286 148.330793 
L 335.033553 148.959258 
L 335.248205 149.587722 
L 335.488497 150.216187 
L 335.754295 150.844652 
L 336.04507 151.473116 
L 336.359885 152.101581 
L 336.697401 152.730045 
L 337.055879 153.35851 
L 337.433198 153.986975 
L 337.826868 154.615439 
L 338.234059 155.243904 
L 338.651628 155.872369 
L 339.076159 156.500833 
L 339.504002 157.129298 
L 339.93132 157.757763 
L 340.354137 158.386227 
L 340.768389 159.014692 
L 341.169985 159.643157 
L 341.554856 160.271621 
L 341.919017 160.900086 
L 342.258619 161.528551 
L 342.570009 162.157015 
L 342.84978 162.78548 
L 343.094819 163.413944 
L 343.302356 164.042409 
L 343.470002 164.670874 
L 343.595786 165.299338 
L 343.678183 165.927803 
L 343.716136 166.556268 
L 343.709072 167.184732 
L 343.656909 167.813197 
L 343.560058 168.441662 
L 343.419411 169.070126 
L 343.236335 169.698591 
L 343.012643 170.327056 
L 342.750568 170.95552 
L 342.452732 171.583985 
L 342.1221 172.212449 
L 341.761942 172.840914 
L 341.37578 173.469379 
L 340.967341 174.097843 
L 340.540497 174.726308 
L 340.099215 175.354773 
L 339.647503 175.983237 
L 339.189349 176.611702 
L 338.728673 177.240167 
L 338.269276 177.868631 
L 337.814787 178.497096 
L 337.368627 179.125561 
L 336.933961 179.754025 
L 336.513669 180.38249 
L 336.110313 181.010955 
L 335.726116 181.639419 
L 335.362938 182.267884 
L 335.022272 182.896348 
L 334.705231 183.524813 
L 334.412549 184.153278 
L 334.144589 184.781742 
L 333.901348 185.410207 
L 333.682477 186.038672 
L 333.487299 186.667136 
L 333.314834 187.295601 
L 333.163823 187.924066 
L 333.032765 188.55253 
L 332.919944 189.180995 
L 332.823467 189.80946 
L 332.7413 190.437924 
L 332.671304 191.066389 
L 332.611272 191.694854 
L 332.558966 192.323318 
L 332.51215 192.951783 
L 332.468627 193.580247 
L 332.426267 194.208712 
L 332.38304 194.837177 
L 332.337037 195.465641 
L 332.2865 196.094106 
L 332.229837 196.722571 
L 332.165639 197.351035 
L 332.092696 197.9795 
z
" clip-path="url(#pa0c6901ce8)" style="fill: #1f77b4; fill-opacity: 0.3"/>
   </g>
   <g id="PolyCollection_5">
    <path d="M 404.189358 229.0885 
L 396.461551 229.0885 
L 396.365518 228.145803 
L 396.271299 227.203106 
L 396.177058 226.260409 
L 396.08073 225.317712 
L 395.980083 224.375015 
L 395.872772 223.432318 
L 395.756421 222.489621 
L 395.628699 221.546924 
L 395.487403 220.604227 
L 395.330544 219.66153 
L 395.15643 218.718833 
L 394.963745 217.776136 
L 394.75162 216.833439 
L 394.519688 215.890742 
L 394.268134 214.948045 
L 393.997718 214.005348 
L 393.709789 213.062652 
L 393.406273 212.119955 
L 393.089638 211.177258 
L 392.762846 210.234561 
L 392.429273 209.291864 
L 392.092624 208.349167 
L 391.756814 207.40647 
L 391.425854 206.463773 
L 391.103712 205.521076 
L 390.794176 204.578379 
L 390.500714 203.635682 
L 390.226341 202.692985 
L 389.973492 201.750288 
L 389.743912 200.807591 
L 389.538562 199.864894 
L 389.357556 198.922197 
L 389.200118 197.9795 
L 389.064572 197.036803 
L 388.948366 196.094106 
L 388.848124 195.151409 
L 388.759736 194.208712 
L 388.678472 193.266015 
L 388.599132 192.323318 
L 388.51621 191.380621 
L 388.424081 190.437924 
L 388.317207 189.495227 
L 388.190336 188.55253 
L 388.03871 187.609833 
L 387.858264 186.667136 
L 387.645805 185.724439 
L 387.399172 184.781742 
L 387.117371 183.839045 
L 386.800668 182.896348 
L 386.450649 181.953652 
L 386.070241 181.010955 
L 385.663685 180.068258 
L 385.236463 179.125561 
L 384.795195 178.182864 
L 384.34748 177.240167 
L 383.901719 176.29747 
L 383.46689 175.354773 
L 383.052318 174.412076 
L 382.667419 173.469379 
L 382.321438 172.526682 
L 382.023194 171.583985 
L 381.780828 170.641288 
L 381.60158 169.698591 
L 381.49158 168.755894 
L 381.455682 167.813197 
L 381.497329 166.8705 
L 381.618468 165.927803 
L 381.819503 164.985106 
L 382.099299 164.042409 
L 382.455225 163.099712 
L 382.883246 162.157015 
L 383.378047 161.214318 
L 383.933197 160.271621 
L 384.541332 159.328924 
L 385.194364 158.386227 
L 385.8837 157.44353 
L 386.600465 156.500833 
L 387.335725 155.558136 
L 388.080697 154.615439 
L 388.826946 153.672742 
L 389.566559 152.730045 
L 390.292292 151.787348 
L 390.997695 150.844652 
L 391.677196 149.901955 
L 392.326166 148.959258 
L 392.940941 148.016561 
L 393.518825 147.073864 
L 394.058058 146.131167 
L 394.557772 145.18847 
L 395.017911 144.245773 
L 395.439148 143.303076 
L 395.822789 142.360379 
L 396.17066 141.417682 
L 396.485006 140.474985 
L 396.768375 139.532288 
L 397.02352 138.589591 
L 397.253295 137.646894 
L 397.460569 136.704197 
L 397.648151 135.7615 
L 403.002758 135.7615 
L 403.002758 135.7615 
L 403.19034 136.704197 
L 403.397614 137.646894 
L 403.627389 138.589591 
L 403.882534 139.532288 
L 404.165903 140.474985 
L 404.480249 141.417682 
L 404.82812 142.360379 
L 405.211761 143.303076 
L 405.632998 144.245773 
L 406.093137 145.18847 
L 406.592851 146.131167 
L 407.132085 147.073864 
L 407.709968 148.016561 
L 408.324743 148.959258 
L 408.973713 149.901955 
L 409.653214 150.844652 
L 410.358617 151.787348 
L 411.08435 152.730045 
L 411.823963 153.672742 
L 412.570212 154.615439 
L 413.315184 155.558136 
L 414.050444 156.500833 
L 414.767209 157.44353 
L 415.456545 158.386227 
L 416.109577 159.328924 
L 416.717712 160.271621 
L 417.272862 161.214318 
L 417.767663 162.157015 
L 418.195684 163.099712 
L 418.55161 164.042409 
L 418.831406 164.985106 
L 419.032441 165.927803 
L 419.15358 166.8705 
L 419.195227 167.813197 
L 419.159329 168.755894 
L 419.049329 169.698591 
L 418.870081 170.641288 
L 418.627716 171.583985 
L 418.329471 172.526682 
L 417.98349 173.469379 
L 417.598591 174.412076 
L 417.184019 175.354773 
L 416.74919 176.29747 
L 416.303429 177.240167 
L 415.855714 178.182864 
L 415.414446 179.125561 
L 414.987224 180.068258 
L 414.580668 181.010955 
L 414.20026 181.953652 
L 413.850241 182.896348 
L 413.533538 183.839045 
L 413.251737 184.781742 
L 413.005104 185.724439 
L 412.792645 186.667136 
L 412.612199 187.609833 
L 412.460573 188.55253 
L 412.333702 189.495227 
L 412.226828 190.437924 
L 412.134699 191.380621 
L 412.051777 192.323318 
L 411.972437 193.266015 
L 411.891173 194.208712 
L 411.802785 195.151409 
L 411.702543 196.094106 
L 411.586337 197.036803 
L 411.450791 197.9795 
L 411.293353 198.922197 
L 411.112347 199.864894 
L 410.906998 200.807591 
L 410.677417 201.750288 
L 410.424568 202.692985 
L 410.150195 203.635682 
L 409.856733 204.578379 
L 409.547197 205.521076 
L 409.225055 206.463773 
L 408.894095 207.40647 
L 408.558285 208.349167 
L 408.221636 209.291864 
L 407.888064 210.234561 
L 407.561271 211.177258 
L 407.244637 212.119955 
L 406.94112 213.062652 
L 406.653191 214.005348 
L 406.382775 214.948045 
L 406.131221 215.890742 
L 405.899289 216.833439 
L 405.687164 217.776136 
L 405.494479 218.718833 
L 405.320366 219.66153 
L 405.163506 220.604227 
L 405.02221 221.546924 
L 404.894488 222.489621 
L 404.778137 223.432318 
L 404.670827 224.375015 
L 404.570179 225.317712 
L 404.473852 226.260409 
L 404.37961 227.203106 
L 404.285391 228.145803 
L 404.189358 229.0885 
z
" clip-path="url(#pa0c6901ce8)" style="fill: #1f77b4; fill-opacity: 0.3"/>
   </g>
   <g id="PolyCollection_6">
    <path d="M 482.808115 229.0885 
L 468.800976 229.0885 
L 468.626771 228.145803 
L 468.456063 227.203106 
L 468.287771 226.260409 
L 468.120706 225.317712 
L 467.953599 224.375015 
L 467.785147 223.432318 
L 467.614051 222.489621 
L 467.439057 221.546924 
L 467.259001 220.604227 
L 467.072851 219.66153 
L 466.87974 218.718833 
L 466.679006 217.776136 
L 466.470216 216.833439 
L 466.253187 215.890742 
L 466.028004 214.948045 
L 465.795023 214.005348 
L 465.554866 213.062652 
L 465.308409 212.119955 
L 465.056764 211.177258 
L 464.801243 210.234561 
L 464.543324 209.291864 
L 464.284603 208.349167 
L 464.026747 207.40647 
L 463.771439 206.463773 
L 463.520319 205.521076 
L 463.274932 204.578379 
L 463.036669 203.635682 
L 462.806721 202.692985 
L 462.586029 201.750288 
L 462.37525 200.807591 
L 462.174729 199.864894 
L 461.984478 198.922197 
L 461.804172 197.9795 
L 461.633151 197.036803 
L 461.470444 196.094106 
L 461.314793 195.151409 
L 461.164697 194.208712 
L 461.018463 193.266015 
L 460.87427 192.323318 
L 460.730229 191.380621 
L 460.584467 190.437924 
L 460.435193 189.495227 
L 460.280781 188.55253 
L 460.119843 187.609833 
L 459.951295 186.667136 
L 459.774424 185.724439 
L 459.588937 184.781742 
L 459.395003 183.839045 
L 459.193284 182.896348 
L 458.984945 181.953652 
L 458.771652 181.010955 
L 458.555561 180.068258 
L 458.339277 179.125561 
L 458.125813 178.182864 
L 457.918526 177.240167 
L 457.721048 176.29747 
L 457.537198 175.354773 
L 457.370897 174.412076 
L 457.226069 173.469379 
L 457.106548 172.526682 
L 457.015977 171.583985 
L 456.957721 170.641288 
L 456.934773 169.698591 
L 456.949683 168.755894 
L 457.004488 167.813197 
L 457.100661 166.8705 
L 457.239068 165.927803 
L 457.419949 164.985106 
L 457.642908 164.042409 
L 457.906919 163.099712 
L 458.210357 162.157015 
L 458.551031 161.214318 
L 458.926236 160.271621 
L 459.33282 159.328924 
L 459.767254 158.386227 
L 460.225715 157.44353 
L 460.704166 156.500833 
L 461.19845 155.558136 
L 461.704372 154.615439 
L 462.217786 153.672742 
L 462.734671 152.730045 
L 463.251211 151.787348 
L 463.763853 150.844652 
L 464.269365 149.901955 
L 464.764877 148.959258 
L 465.247917 148.016561 
L 465.716429 147.073864 
L 466.168782 146.131167 
L 466.60377 145.18847 
L 467.020596 144.245773 
L 467.418854 143.303076 
L 467.798495 142.360379 
L 468.159793 141.417682 
L 468.503302 140.474985 
L 468.829811 139.532288 
L 469.140296 138.589591 
L 469.435871 137.646894 
L 469.717742 136.704197 
L 469.987161 135.7615 
L 481.62193 135.7615 
L 481.62193 135.7615 
L 481.891349 136.704197 
L 482.17322 137.646894 
L 482.468795 138.589591 
L 482.779279 139.532288 
L 483.105789 140.474985 
L 483.449298 141.417682 
L 483.810596 142.360379 
L 484.190237 143.303076 
L 484.588495 144.245773 
L 485.005321 145.18847 
L 485.440309 146.131167 
L 485.892662 147.073864 
L 486.361174 148.016561 
L 486.844214 148.959258 
L 487.339726 149.901955 
L 487.845238 150.844652 
L 488.35788 151.787348 
L 488.87442 152.730045 
L 489.391305 153.672742 
L 489.904718 154.615439 
L 490.41064 155.558136 
L 490.904925 156.500833 
L 491.383376 157.44353 
L 491.841837 158.386227 
L 492.276271 159.328924 
L 492.682855 160.271621 
L 493.05806 161.214318 
L 493.398734 162.157015 
L 493.702172 163.099712 
L 493.966183 164.042409 
L 494.189141 164.985106 
L 494.370023 165.927803 
L 494.50843 166.8705 
L 494.604603 167.813197 
L 494.659408 168.755894 
L 494.674318 169.698591 
L 494.65137 170.641288 
L 494.593113 171.583985 
L 494.502543 172.526682 
L 494.383022 173.469379 
L 494.238194 174.412076 
L 494.071893 175.354773 
L 493.888043 176.29747 
L 493.690565 177.240167 
L 493.483278 178.182864 
L 493.269814 179.125561 
L 493.05353 180.068258 
L 492.837438 181.010955 
L 492.624146 181.953652 
L 492.415807 182.896348 
L 492.214088 183.839045 
L 492.020154 184.781742 
L 491.834667 185.724439 
L 491.657796 186.667136 
L 491.489248 187.609833 
L 491.32831 188.55253 
L 491.173898 189.495227 
L 491.024624 190.437924 
L 490.878862 191.380621 
L 490.734821 192.323318 
L 490.590627 193.266015 
L 490.444394 194.208712 
L 490.294298 195.151409 
L 490.138647 196.094106 
L 489.97594 197.036803 
L 489.804919 197.9795 
L 489.624613 198.922197 
L 489.434361 199.864894 
L 489.233841 200.807591 
L 489.023062 201.750288 
L 488.80237 202.692985 
L 488.572422 203.635682 
L 488.334159 204.578379 
L 488.088772 205.521076 
L 487.837652 206.463773 
L 487.582344 207.40647 
L 487.324488 208.349167 
L 487.065767 209.291864 
L 486.807848 210.234561 
L 486.552327 211.177258 
L 486.300681 212.119955 
L 486.054225 213.062652 
L 485.814068 214.005348 
L 485.581087 214.948045 
L 485.355904 215.890742 
L 485.138875 216.833439 
L 484.930085 217.776136 
L 484.72935 218.718833 
L 484.53624 219.66153 
L 484.35009 220.604227 
L 484.170034 221.546924 
L 483.99504 222.489621 
L 483.823944 223.432318 
L 483.655492 224.375015 
L 483.488385 225.317712 
L 483.32132 226.260409 
L 483.153028 227.203106 
L 482.98232 228.145803 
L 482.808115 229.0885 
z
" clip-path="url(#pa0c6901ce8)" style="fill: #1f77b4; fill-opacity: 0.3"/>
   </g>
   <g id="PolyCollection_7">
    <path d="M 560.876268 291.3065 
L 541.691005 291.3065 
L 541.662584 290.678035 
L 541.659926 290.049571 
L 541.681521 289.421106 
L 541.725431 288.792641 
L 541.789308 288.164177 
L 541.870418 287.535712 
L 541.965676 286.907247 
L 542.071676 286.278783 
L 542.184745 285.650318 
L 542.300986 285.021854 
L 542.416338 284.393389 
L 542.526631 283.764924 
L 542.627655 283.13646 
L 542.715216 282.507995 
L 542.78521 281.87953 
L 542.833687 281.251066 
L 542.856915 280.622601 
L 542.851448 279.994136 
L 542.814185 279.365672 
L 542.742431 278.737207 
L 542.633949 278.108742 
L 542.487008 277.480278 
L 542.300426 276.851813 
L 542.073607 276.223348 
L 541.806564 275.594884 
L 541.49994 274.966419 
L 541.155018 274.337955 
L 540.773719 273.70949 
L 540.358594 273.081025 
L 539.912803 272.452561 
L 539.440085 271.824096 
L 538.944718 271.195631 
L 538.431467 270.567167 
L 537.905527 269.938702 
L 537.372458 269.310237 
L 536.838102 268.681773 
L 536.30851 268.053308 
L 535.789846 267.424843 
L 535.288306 266.796379 
L 534.810016 266.167914 
L 534.360941 265.539449 
L 533.946797 264.910985 
L 533.572954 264.28252 
L 533.244354 263.654056 
L 532.965434 263.025591 
L 532.740052 262.397126 
L 532.57143 261.768662 
L 532.462099 261.140197 
L 532.413864 260.511732 
L 532.427775 259.883268 
L 532.504117 259.254803 
L 532.642411 258.626338 
L 532.841426 257.997874 
L 533.099206 257.369409 
L 533.41311 256.740944 
L 533.779863 256.11248 
L 534.195617 255.484015 
L 534.656019 254.855551 
L 535.156287 254.227086 
L 535.691296 253.598621 
L 536.255657 252.970157 
L 536.843811 252.341692 
L 537.450113 251.713227 
L 538.06892 251.084763 
L 538.694669 250.456298 
L 539.321961 249.827833 
L 539.945628 249.199369 
L 540.560802 248.570904 
L 541.162966 247.942439 
L 541.748006 247.313975 
L 542.312249 246.68551 
L 542.852492 246.057045 
L 543.366023 245.428581 
L 543.850629 244.800116 
L 544.304603 244.171652 
L 544.726734 243.543187 
L 545.116294 242.914722 
L 545.473022 242.286258 
L 545.797088 241.657793 
L 546.089074 241.029328 
L 546.349926 240.400864 
L 546.580925 239.772399 
L 546.783637 239.143934 
L 546.959876 238.51547 
L 547.111657 237.887005 
L 547.241153 237.25854 
L 547.35065 236.630076 
L 547.442509 236.001611 
L 547.519121 235.373146 
L 547.58287 234.744682 
L 547.636102 234.116217 
L 547.681086 233.487753 
L 547.719992 232.859288 
L 547.754861 232.230823 
L 547.787585 231.602359 
L 547.819889 230.973894 
L 547.853319 230.345429 
L 547.889227 229.716965 
L 547.928772 229.0885 
L 554.638501 229.0885 
L 554.638501 229.0885 
L 554.678045 229.716965 
L 554.713954 230.345429 
L 554.747384 230.973894 
L 554.779688 231.602359 
L 554.812412 232.230823 
L 554.847281 232.859288 
L 554.886186 233.487753 
L 554.931171 234.116217 
L 554.984402 234.744682 
L 555.048152 235.373146 
L 555.124763 236.001611 
L 555.216622 236.630076 
L 555.32612 237.25854 
L 555.455616 237.887005 
L 555.607397 238.51547 
L 555.783636 239.143934 
L 555.986348 239.772399 
L 556.217346 240.400864 
L 556.478199 241.029328 
L 556.770184 241.657793 
L 557.094251 242.286258 
L 557.450978 242.914722 
L 557.840539 243.543187 
L 558.26267 244.171652 
L 558.716644 244.800116 
L 559.20125 245.428581 
L 559.714781 246.057045 
L 560.255024 246.68551 
L 560.819267 247.313975 
L 561.404307 247.942439 
L 562.006471 248.570904 
L 562.621644 249.199369 
L 563.245312 249.827833 
L 563.872604 250.456298 
L 564.498353 251.084763 
L 565.117159 251.713227 
L 565.723462 252.341692 
L 566.311616 252.970157 
L 566.875977 253.598621 
L 567.410985 254.227086 
L 567.911254 254.855551 
L 568.371655 255.484015 
L 568.787409 256.11248 
L 569.154163 256.740944 
L 569.468067 257.369409 
L 569.725846 257.997874 
L 569.924861 258.626338 
L 570.063156 259.254803 
L 570.139498 259.883268 
L 570.153409 260.511732 
L 570.105173 261.140197 
L 569.995842 261.768662 
L 569.82722 262.397126 
L 569.601839 263.025591 
L 569.322919 263.654056 
L 568.994319 264.28252 
L 568.620475 264.910985 
L 568.206331 265.539449 
L 567.757257 266.167914 
L 567.278967 266.796379 
L 566.777426 267.424843 
L 566.258763 268.053308 
L 565.72917 268.681773 
L 565.194815 269.310237 
L 564.661745 269.938702 
L 564.135806 270.567167 
L 563.622555 271.195631 
L 563.127187 271.824096 
L 562.654469 272.452561 
L 562.208679 273.081025 
L 561.793554 273.70949 
L 561.412255 274.337955 
L 561.067333 274.966419 
L 560.760709 275.594884 
L 560.493665 276.223348 
L 560.266846 276.851813 
L 560.080265 277.480278 
L 559.933324 278.108742 
L 559.824842 278.737207 
L 559.753088 279.365672 
L 559.715825 279.994136 
L 559.710358 280.622601 
L 559.733586 281.251066 
L 559.782063 281.87953 
L 559.852057 282.507995 
L 559.939618 283.13646 
L 560.040641 283.764924 
L 560.150935 284.393389 
L 560.266287 285.021854 
L 560.382528 285.650318 
L 560.495597 286.278783 
L 560.601597 286.907247 
L 560.696854 287.535712 
L 560.777965 288.164177 
L 560.841842 288.792641 
L 560.885751 289.421106 
L 560.907346 290.049571 
L 560.904689 290.678035 
L 560.876268 291.3065 
z
" clip-path="url(#pa0c6901ce8)" style="fill: #1f77b4; fill-opacity: 0.3"/>
   </g>
   <g id="PolyCollection_8">
    <path d="M 645.441464 291.3065 
L 608.08399 291.3065 
L 607.966887 290.363803 
L 607.903832 289.421106 
L 607.892955 288.478409 
L 607.931701 287.535712 
L 608.016902 286.593015 
L 608.144849 285.650318 
L 608.311383 284.707621 
L 608.511997 283.764924 
L 608.741941 282.822227 
L 608.996333 281.87953 
L 609.270271 280.936833 
L 609.558943 279.994136 
L 609.857732 279.051439 
L 610.162311 278.108742 
L 610.468726 277.166045 
L 610.773474 276.223348 
L 611.073556 275.280652 
L 611.366521 274.337955 
L 611.65049 273.395258 
L 611.924162 272.452561 
L 612.18681 271.509864 
L 612.438249 270.567167 
L 612.678802 269.62447 
L 612.909245 268.681773 
L 613.130744 267.739076 
L 613.344783 266.796379 
L 613.553088 265.853682 
L 613.757541 264.910985 
L 613.960104 263.968288 
L 614.162738 263.025591 
L 614.367326 262.082894 
L 614.575606 261.140197 
L 614.78911 260.1975 
L 615.009117 259.254803 
L 615.236612 258.312106 
L 615.472257 257.369409 
L 615.716384 256.426712 
L 615.968983 255.484015 
L 616.229719 254.541318 
L 616.497948 253.598621 
L 616.772746 252.655924 
L 617.052948 251.713227 
L 617.33719 250.77053 
L 617.623959 249.827833 
L 617.911642 248.885136 
L 618.198578 247.942439 
L 618.48311 246.999742 
L 618.763632 246.057045 
L 619.038632 245.114348 
L 619.306735 244.171652 
L 619.566729 243.228955 
L 619.817597 242.286258 
L 620.058528 241.343561 
L 620.288934 240.400864 
L 620.508446 239.458167 
L 620.716914 238.51547 
L 620.914392 237.572773 
L 621.101124 236.630076 
L 621.277518 235.687379 
L 621.444123 234.744682 
L 621.601601 233.801985 
L 621.750691 232.859288 
L 621.892185 231.916591 
L 622.026895 230.973894 
L 622.155625 230.031197 
L 622.279144 229.0885 
L 622.398166 228.145803 
L 622.513332 227.203106 
L 622.625192 226.260409 
L 622.7342 225.317712 
L 622.840706 224.375015 
L 622.944956 223.432318 
L 623.047097 222.489621 
L 623.147183 221.546924 
L 623.245187 220.604227 
L 623.341013 219.66153 
L 623.43451 218.718833 
L 623.525492 217.776136 
L 623.613753 216.833439 
L 623.699085 215.890742 
L 623.781291 214.948045 
L 623.860204 214.005348 
L 623.935696 213.062652 
L 624.007693 212.119955 
L 624.076179 211.177258 
L 624.141203 210.234561 
L 624.20288 209.291864 
L 624.261394 208.349167 
L 624.316991 207.40647 
L 624.369977 206.463773 
L 624.420706 205.521076 
L 624.469574 204.578379 
L 624.517008 203.635682 
L 624.563452 202.692985 
L 624.609356 201.750288 
L 624.655163 200.807591 
L 624.701298 199.864894 
L 624.748156 198.922197 
L 624.79609 197.9795 
L 628.729364 197.9795 
L 628.729364 197.9795 
L 628.777299 198.922197 
L 628.824157 199.864894 
L 628.870292 200.807591 
L 628.916099 201.750288 
L 628.962003 202.692985 
L 629.008446 203.635682 
L 629.05588 204.578379 
L 629.104749 205.521076 
L 629.155478 206.463773 
L 629.208463 207.40647 
L 629.264061 208.349167 
L 629.322575 209.291864 
L 629.384252 210.234561 
L 629.449275 211.177258 
L 629.517761 212.119955 
L 629.589758 213.062652 
L 629.665251 214.005348 
L 629.744164 214.948045 
L 629.82637 215.890742 
L 629.911701 216.833439 
L 629.999963 217.776136 
L 630.090945 218.718833 
L 630.184442 219.66153 
L 630.280267 220.604227 
L 630.378271 221.546924 
L 630.478358 222.489621 
L 630.580499 223.432318 
L 630.684749 224.375015 
L 630.791255 225.317712 
L 630.900262 226.260409 
L 631.012123 227.203106 
L 631.127288 228.145803 
L 631.246311 229.0885 
L 631.36983 230.031197 
L 631.49856 230.973894 
L 631.63327 231.916591 
L 631.774764 232.859288 
L 631.923854 233.801985 
L 632.081331 234.744682 
L 632.247937 235.687379 
L 632.424331 236.630076 
L 632.611062 237.572773 
L 632.808541 238.51547 
L 633.017008 239.458167 
L 633.236521 240.400864 
L 633.466926 241.343561 
L 633.707858 242.286258 
L 633.958725 243.228955 
L 634.21872 244.171652 
L 634.486822 245.114348 
L 634.761823 246.057045 
L 635.042344 246.999742 
L 635.326876 247.942439 
L 635.613812 248.885136 
L 635.901495 249.827833 
L 636.188264 250.77053 
L 636.472507 251.713227 
L 636.752709 252.655924 
L 637.027507 253.598621 
L 637.295735 254.541318 
L 637.556472 255.484015 
L 637.809071 256.426712 
L 638.053197 257.369409 
L 638.288843 258.312106 
L 638.516337 259.254803 
L 638.736345 260.1975 
L 638.949849 261.140197 
L 639.158129 262.082894 
L 639.362716 263.025591 
L 639.56535 263.968288 
L 639.767914 264.910985 
L 639.972367 265.853682 
L 640.180671 266.796379 
L 640.394711 267.739076 
L 640.61621 268.681773 
L 640.846653 269.62447 
L 641.087206 270.567167 
L 641.338645 271.509864 
L 641.601292 272.452561 
L 641.874965 273.395258 
L 642.158933 274.337955 
L 642.451898 275.280652 
L 642.751981 276.223348 
L 643.056729 277.166045 
L 643.363144 278.108742 
L 643.667722 279.051439 
L 643.966511 279.994136 
L 644.255184 280.936833 
L 644.529122 281.87953 
L 644.783514 282.822227 
L 645.013457 283.764924 
L 645.214072 284.707621 
L 645.380606 285.650318 
L 645.508552 286.593015 
L 645.593754 287.535712 
L 645.6325 288.478409 
L 645.621622 289.421106 
L 645.558568 290.363803 
L 645.441464 291.3065 
z
" clip-path="url(#pa0c6901ce8)" style="fill: #1f77b4; fill-opacity: 0.3"/>
   </g>
   <g id="PolyCollection_9">
    <path d="M 721.111591 322.4155 
L 683.372045 322.4155 
L 683.372045 322.4155 
L 683.372045 322.4155 
L 683.372045 322.4155 
L 683.372045 322.4155 
L 683.372045 322.4155 
L 683.372045 322.4155 
L 683.372045 322.4155 
L 683.372045 322.4155 
L 683.372045 322.4155 
L 683.372045 322.4155 
L 683.372045 322.4155 
L 683.372045 322.4155 
L 683.372045 322.4155 
L 683.372045 322.4155 
L 683.372045 322.4155 
L 683.372045 322.4155 
L 683.372045 322.4155 
L 683.372045 322.4155 
L 683.372045 322.4155 
L 683.372045 322.4155 
L 683.372045 322.4155 
L 683.372045 322.4155 
L 683.372045 322.4155 
L 683.372045 322.4155 
L 683.372045 322.4155 
L 683.372045 322.4155 
L 683.372045 322.4155 
L 683.372045 322.4155 
L 683.372045 322.4155 
L 683.372045 322.4155 
L 683.372045 322.4155 
L 683.372045 322.4155 
L 683.372045 322.4155 
L 683.372045 322.4155 
L 683.372045 322.4155 
L 683.372045 322.4155 
L 683.372045 322.4155 
L 683.372045 322.4155 
L 683.372045 322.4155 
L 683.372045 322.4155 
L 683.372045 322.4155 
L 683.372045 322.4155 
L 683.372045 322.4155 
L 683.372045 322.4155 
L 683.372045 322.4155 
L 683.372045 322.4155 
L 683.372045 322.4155 
L 683.372045 322.4155 
L 683.372045 322.4155 
L 683.372045 322.4155 
L 683.372045 322.4155 
L 683.372045 322.4155 
L 683.372045 322.4155 
L 683.372045 322.4155 
L 683.372045 322.4155 
L 683.372045 322.4155 
L 683.372045 322.4155 
L 683.372045 322.4155 
L 683.372045 322.4155 
L 683.372045 322.4155 
L 683.372045 322.4155 
L 683.372045 322.4155 
L 683.372045 322.4155 
L 683.372045 322.4155 
L 683.372045 322.4155 
L 683.372045 322.4155 
L 683.372045 322.4155 
L 683.372045 322.4155 
L 683.372045 322.4155 
L 683.372045 322.4155 
L 683.372045 322.4155 
L 683.372045 322.4155 
L 683.372045 322.4155 
L 683.372045 322.4155 
L 683.372045 322.4155 
L 683.372045 322.4155 
L 683.372045 322.4155 
L 683.372045 322.4155 
L 683.372045 322.4155 
L 683.372045 322.4155 
L 683.372045 322.4155 
L 683.372045 322.4155 
L 683.372045 322.4155 
L 683.372045 322.4155 
L 683.372045 322.4155 
L 683.372045 322.4155 
L 683.372045 322.4155 
L 683.372045 322.4155 
L 683.372045 322.4155 
L 683.372045 322.4155 
L 683.372045 322.4155 
L 683.372045 322.4155 
L 683.372045 322.4155 
L 683.372045 322.4155 
L 683.372045 322.4155 
L 683.372045 322.4155 
L 683.372045 322.4155 
L 683.372045 322.4155 
L 683.372045 322.4155 
L 721.111591 322.4155 
L 721.111591 322.4155 
L 721.111591 322.4155 
L 721.111591 322.4155 
L 721.111591 322.4155 
L 721.111591 322.4155 
L 721.111591 322.4155 
L 721.111591 322.4155 
L 721.111591 322.4155 
L 721.111591 322.4155 
L 721.111591 322.4155 
L 721.111591 322.4155 
L 721.111591 322.4155 
L 721.111591 322.4155 
L 721.111591 322.4155 
L 721.111591 322.4155 
L 721.111591 322.4155 
L 721.111591 322.4155 
L 721.111591 322.4155 
L 721.111591 322.4155 
L 721.111591 322.4155 
L 721.111591 322.4155 
L 721.111591 322.4155 
L 721.111591 322.4155 
L 721.111591 322.4155 
L 721.111591 322.4155 
L 721.111591 322.4155 
L 721.111591 322.4155 
L 721.111591 322.4155 
L 721.111591 322.4155 
L 721.111591 322.4155 
L 721.111591 322.4155 
L 721.111591 322.4155 
L 721.111591 322.4155 
L 721.111591 322.4155 
L 721.111591 322.4155 
L 721.111591 322.4155 
L 721.111591 322.4155 
L 721.111591 322.4155 
L 721.111591 322.4155 
L 721.111591 322.4155 
L 721.111591 322.4155 
L 721.111591 322.4155 
L 721.111591 322.4155 
L 721.111591 322.4155 
L 721.111591 322.4155 
L 721.111591 322.4155 
L 721.111591 322.4155 
L 721.111591 322.4155 
L 721.111591 322.4155 
L 721.111591 322.4155 
L 721.111591 322.4155 
L 721.111591 322.4155 
L 721.111591 322.4155 
L 721.111591 322.4155 
L 721.111591 322.4155 
L 721.111591 322.4155 
L 721.111591 322.4155 
L 721.111591 322.4155 
L 721.111591 322.4155 
L 721.111591 322.4155 
L 721.111591 322.4155 
L 721.111591 322.4155 
L 721.111591 322.4155 
L 721.111591 322.4155 
L 721.111591 322.4155 
L 721.111591 322.4155 
L 721.111591 322.4155 
L 721.111591 322.4155 
L 721.111591 322.4155 
L 721.111591 322.4155 
L 721.111591 322.4155 
L 721.111591 322.4155 
L 721.111591 322.4155 
L 721.111591 322.4155 
L 721.111591 322.4155 
L 721.111591 322.4155 
L 721.111591 322.4155 
L 721.111591 322.4155 
L 721.111591 322.4155 
L 721.111591 322.4155 
L 721.111591 322.4155 
L 721.111591 322.4155 
L 721.111591 322.4155 
L 721.111591 322.4155 
L 721.111591 322.4155 
L 721.111591 322.4155 
L 721.111591 322.4155 
L 721.111591 322.4155 
L 721.111591 322.4155 
L 721.111591 322.4155 
L 721.111591 322.4155 
L 721.111591 322.4155 
L 721.111591 322.4155 
L 721.111591 322.4155 
L 721.111591 322.4155 
L 721.111591 322.4155 
L 721.111591 322.4155 
L 721.111591 322.4155 
L 721.111591 322.4155 
L 721.111591 322.4155 
z
" clip-path="url(#pa0c6901ce8)" style="fill: #1f77b4; fill-opacity: 0.3"/>
   </g>
   <g id="PolyCollection_10">
    <path d="M 796.590682 322.4155 
L 758.851136 322.4155 
L 758.851136 322.4155 
L 758.851136 322.4155 
L 758.851136 322.4155 
L 758.851136 322.4155 
L 758.851136 322.4155 
L 758.851136 322.4155 
L 758.851136 322.4155 
L 758.851136 322.4155 
L 758.851136 322.4155 
L 758.851136 322.4155 
L 758.851136 322.4155 
L 758.851136 322.4155 
L 758.851136 322.4155 
L 758.851136 322.4155 
L 758.851136 322.4155 
L 758.851136 322.4155 
L 758.851136 322.4155 
L 758.851136 322.4155 
L 758.851136 322.4155 
L 758.851136 322.4155 
L 758.851136 322.4155 
L 758.851136 322.4155 
L 758.851136 322.4155 
L 758.851136 322.4155 
L 758.851136 322.4155 
L 758.851136 322.4155 
L 758.851136 322.4155 
L 758.851136 322.4155 
L 758.851136 322.4155 
L 758.851136 322.4155 
L 758.851136 322.4155 
L 758.851136 322.4155 
L 758.851136 322.4155 
L 758.851136 322.4155 
L 758.851136 322.4155 
L 758.851136 322.4155 
L 758.851136 322.4155 
L 758.851136 322.4155 
L 758.851136 322.4155 
L 758.851136 322.4155 
L 758.851136 322.4155 
L 758.851136 322.4155 
L 758.851136 322.4155 
L 758.851136 322.4155 
L 758.851136 322.4155 
L 758.851136 322.4155 
L 758.851136 322.4155 
L 758.851136 322.4155 
L 758.851136 322.4155 
L 758.851136 322.4155 
L 758.851136 322.4155 
L 758.851136 322.4155 
L 758.851136 322.4155 
L 758.851136 322.4155 
L 758.851136 322.4155 
L 758.851136 322.4155 
L 758.851136 322.4155 
L 758.851136 322.4155 
L 758.851136 322.4155 
L 758.851136 322.4155 
L 758.851136 322.4155 
L 758.851136 322.4155 
L 758.851136 322.4155 
L 758.851136 322.4155 
L 758.851136 322.4155 
L 758.851136 322.4155 
L 758.851136 322.4155 
L 758.851136 322.4155 
L 758.851136 322.4155 
L 758.851136 322.4155 
L 758.851136 322.4155 
L 758.851136 322.4155 
L 758.851136 322.4155 
L 758.851136 322.4155 
L 758.851136 322.4155 
L 758.851136 322.4155 
L 758.851136 322.4155 
L 758.851136 322.4155 
L 758.851136 322.4155 
L 758.851136 322.4155 
L 758.851136 322.4155 
L 758.851136 322.4155 
L 758.851136 322.4155 
L 758.851136 322.4155 
L 758.851136 322.4155 
L 758.851136 322.4155 
L 758.851136 322.4155 
L 758.851136 322.4155 
L 758.851136 322.4155 
L 758.851136 322.4155 
L 758.851136 322.4155 
L 758.851136 322.4155 
L 758.851136 322.4155 
L 758.851136 322.4155 
L 758.851136 322.4155 
L 758.851136 322.4155 
L 758.851136 322.4155 
L 758.851136 322.4155 
L 758.851136 322.4155 
L 796.590682 322.4155 
L 796.590682 322.4155 
L 796.590682 322.4155 
L 796.590682 322.4155 
L 796.590682 322.4155 
L 796.590682 322.4155 
L 796.590682 322.4155 
L 796.590682 322.4155 
L 796.590682 322.4155 
L 796.590682 322.4155 
L 796.590682 322.4155 
L 796.590682 322.4155 
L 796.590682 322.4155 
L 796.590682 322.4155 
L 796.590682 322.4155 
L 796.590682 322.4155 
L 796.590682 322.4155 
L 796.590682 322.4155 
L 796.590682 322.4155 
L 796.590682 322.4155 
L 796.590682 322.4155 
L 796.590682 322.4155 
L 796.590682 322.4155 
L 796.590682 322.4155 
L 796.590682 322.4155 
L 796.590682 322.4155 
L 796.590682 322.4155 
L 796.590682 322.4155 
L 796.590682 322.4155 
L 796.590682 322.4155 
L 796.590682 322.4155 
L 796.590682 322.4155 
L 796.590682 322.4155 
L 796.590682 322.4155 
L 796.590682 322.4155 
L 796.590682 322.4155 
L 796.590682 322.4155 
L 796.590682 322.4155 
L 796.590682 322.4155 
L 796.590682 322.4155 
L 796.590682 322.4155 
L 796.590682 322.4155 
L 796.590682 322.4155 
L 796.590682 322.4155 
L 796.590682 322.4155 
L 796.590682 322.4155 
L 796.590682 322.4155 
L 796.590682 322.4155 
L 796.590682 322.4155 
L 796.590682 322.4155 
L 796.590682 322.4155 
L 796.590682 322.4155 
L 796.590682 322.4155 
L 796.590682 322.4155 
L 796.590682 322.4155 
L 796.590682 322.4155 
L 796.590682 322.4155 
L 796.590682 322.4155 
L 796.590682 322.4155 
L 796.590682 322.4155 
L 796.590682 322.4155 
L 796.590682 322.4155 
L 796.590682 322.4155 
L 796.590682 322.4155 
L 796.590682 322.4155 
L 796.590682 322.4155 
L 796.590682 322.4155 
L 796.590682 322.4155 
L 796.590682 322.4155 
L 796.590682 322.4155 
L 796.590682 322.4155 
L 796.590682 322.4155 
L 796.590682 322.4155 
L 796.590682 322.4155 
L 796.590682 322.4155 
L 796.590682 322.4155 
L 796.590682 322.4155 
L 796.590682 322.4155 
L 796.590682 322.4155 
L 796.590682 322.4155 
L 796.590682 322.4155 
L 796.590682 322.4155 
L 796.590682 322.4155 
L 796.590682 322.4155 
L 796.590682 322.4155 
L 796.590682 322.4155 
L 796.590682 322.4155 
L 796.590682 322.4155 
L 796.590682 322.4155 
L 796.590682 322.4155 
L 796.590682 322.4155 
L 796.590682 322.4155 
L 796.590682 322.4155 
L 796.590682 322.4155 
L 796.590682 322.4155 
L 796.590682 322.4155 
L 796.590682 322.4155 
L 796.590682 322.4155 
L 796.590682 322.4155 
L 796.590682 322.4155 
L 796.590682 322.4155 
z
" clip-path="url(#pa0c6901ce8)" style="fill: #1f77b4; fill-opacity: 0.3"/>
   </g>
   <g id="matplotlib.axis_1">
    <g id="xtick_1">
     <g id="line2d_1">
      <defs>
       <path id="m29e17f09bc" d="M 0 0 
L 0 3.5 
" style="stroke: #000000; stroke-width: 0.8"/>
      </defs>
      <g>
       <use xlink:href="#m29e17f09bc" x="98.409091" y="337.97" style="stroke: #000000; stroke-width: 0.8"/>
      </g>
     </g>
     <g id="text_1">
      <!-- Defector -->
      <g transform="translate(100.616591 379.51)rotate(-90)scale(0.08 -0.08)">
       <defs>
        <path id="DejaVuSans-44" d="M 1259 4147 
L 1259 519 
L 2022 519 
Q 2988 519 3436 956 
Q 3884 1394 3884 2338 
Q 3884 3275 3436 3711 
Q 2988 4147 2022 4147 
L 1259 4147 
z
M 628 4666 
L 1925 4666 
Q 3281 4666 3915 4102 
Q 4550 3538 4550 2338 
Q 4550 1131 3912 565 
Q 3275 0 1925 0 
L 628 0 
L 628 4666 
z
" transform="scale(0.015625)"/>
        <path id="DejaVuSans-65" d="M 3597 1894 
L 3597 1613 
L 953 1613 
Q 991 1019 1311 708 
Q 1631 397 2203 397 
Q 2534 397 2845 478 
Q 3156 559 3463 722 
L 3463 178 
Q 3153 47 2828 -22 
Q 2503 -91 2169 -91 
Q 1331 -91 842 396 
Q 353 884 353 1716 
Q 353 2575 817 3079 
Q 1281 3584 2069 3584 
Q 2775 3584 3186 3129 
Q 3597 2675 3597 1894 
z
M 3022 2063 
Q 3016 2534 2758 2815 
Q 2500 3097 2075 3097 
Q 1594 3097 1305 2825 
Q 1016 2553 972 2059 
L 3022 2063 
z
" transform="scale(0.015625)"/>
        <path id="DejaVuSans-66" d="M 2375 4863 
L 2375 4384 
L 1825 4384 
Q 1516 4384 1395 4259 
Q 1275 4134 1275 3809 
L 1275 3500 
L 2222 3500 
L 2222 3053 
L 1275 3053 
L 1275 0 
L 697 0 
L 697 3053 
L 147 3053 
L 147 3500 
L 697 3500 
L 697 3744 
Q 697 4328 969 4595 
Q 1241 4863 1831 4863 
L 2375 4863 
z
" transform="scale(0.015625)"/>
        <path id="DejaVuSans-63" d="M 3122 3366 
L 3122 2828 
Q 2878 2963 2633 3030 
Q 2388 3097 2138 3097 
Q 1578 3097 1268 2742 
Q 959 2388 959 1747 
Q 959 1106 1268 751 
Q 1578 397 2138 397 
Q 2388 397 2633 464 
Q 2878 531 3122 666 
L 3122 134 
Q 2881 22 2623 -34 
Q 2366 -91 2075 -91 
Q 1284 -91 818 406 
Q 353 903 353 1747 
Q 353 2603 823 3093 
Q 1294 3584 2113 3584 
Q 2378 3584 2631 3529 
Q 2884 3475 3122 3366 
z
" transform="scale(0.015625)"/>
        <path id="DejaVuSans-74" d="M 1172 4494 
L 1172 3500 
L 2356 3500 
L 2356 3053 
L 1172 3053 
L 1172 1153 
Q 1172 725 1289 603 
Q 1406 481 1766 481 
L 2356 481 
L 2356 0 
L 1766 0 
Q 1100 0 847 248 
Q 594 497 594 1153 
L 594 3053 
L 172 3053 
L 172 3500 
L 594 3500 
L 594 4494 
L 1172 4494 
z
" transform="scale(0.015625)"/>
        <path id="DejaVuSans-6f" d="M 1959 3097 
Q 1497 3097 1228 2736 
Q 959 2375 959 1747 
Q 959 1119 1226 758 
Q 1494 397 1959 397 
Q 2419 397 2687 759 
Q 2956 1122 2956 1747 
Q 2956 2369 2687 2733 
Q 2419 3097 1959 3097 
z
M 1959 3584 
Q 2709 3584 3137 3096 
Q 3566 2609 3566 1747 
Q 3566 888 3137 398 
Q 2709 -91 1959 -91 
Q 1206 -91 779 398 
Q 353 888 353 1747 
Q 353 2609 779 3096 
Q 1206 3584 1959 3584 
z
" transform="scale(0.015625)"/>
        <path id="DejaVuSans-72" d="M 2631 2963 
Q 2534 3019 2420 3045 
Q 2306 3072 2169 3072 
Q 1681 3072 1420 2755 
Q 1159 2438 1159 1844 
L 1159 0 
L 581 0 
L 581 3500 
L 1159 3500 
L 1159 2956 
Q 1341 3275 1631 3429 
Q 1922 3584 2338 3584 
Q 2397 3584 2469 3576 
Q 2541 3569 2628 3553 
L 2631 2963 
z
" transform="scale(0.015625)"/>
       </defs>
       <use xlink:href="#DejaVuSans-44"/>
       <use xlink:href="#DejaVuSans-65" x="77.001953"/>
       <use xlink:href="#DejaVuSans-66" x="138.525391"/>
       <use xlink:href="#DejaVuSans-65" x="173.730469"/>
       <use xlink:href="#DejaVuSans-63" x="235.253906"/>
       <use xlink:href="#DejaVuSans-74" x="290.234375"/>
       <use xlink:href="#DejaVuSans-6f" x="329.443359"/>
       <use xlink:href="#DejaVuSans-72" x="390.625"/>
      </g>
     </g>
    </g>
    <g id="xtick_2">
     <g id="line2d_2">
      <g>
       <use xlink:href="#m29e17f09bc" x="173.888182" y="337.97" style="stroke: #000000; stroke-width: 0.8"/>
      </g>
     </g>
     <g id="text_2">
      <!-- Grudger -->
      <g transform="translate(176.095682 377.89625)rotate(-90)scale(0.08 -0.08)">
       <defs>
        <path id="DejaVuSans-47" d="M 3809 666 
L 3809 1919 
L 2778 1919 
L 2778 2438 
L 4434 2438 
L 4434 434 
Q 4069 175 3628 42 
Q 3188 -91 2688 -91 
Q 1594 -91 976 548 
Q 359 1188 359 2328 
Q 359 3472 976 4111 
Q 1594 4750 2688 4750 
Q 3144 4750 3555 4637 
Q 3966 4525 4313 4306 
L 4313 3634 
Q 3963 3931 3569 4081 
Q 3175 4231 2741 4231 
Q 1884 4231 1454 3753 
Q 1025 3275 1025 2328 
Q 1025 1384 1454 906 
Q 1884 428 2741 428 
Q 3075 428 3337 486 
Q 3600 544 3809 666 
z
" transform="scale(0.015625)"/>
        <path id="DejaVuSans-75" d="M 544 1381 
L 544 3500 
L 1119 3500 
L 1119 1403 
Q 1119 906 1312 657 
Q 1506 409 1894 409 
Q 2359 409 2629 706 
Q 2900 1003 2900 1516 
L 2900 3500 
L 3475 3500 
L 3475 0 
L 2900 0 
L 2900 538 
Q 2691 219 2414 64 
Q 2138 -91 1772 -91 
Q 1169 -91 856 284 
Q 544 659 544 1381 
z
M 1991 3584 
L 1991 3584 
z
" transform="scale(0.015625)"/>
        <path id="DejaVuSans-64" d="M 2906 2969 
L 2906 4863 
L 3481 4863 
L 3481 0 
L 2906 0 
L 2906 525 
Q 2725 213 2448 61 
Q 2172 -91 1784 -91 
Q 1150 -91 751 415 
Q 353 922 353 1747 
Q 353 2572 751 3078 
Q 1150 3584 1784 3584 
Q 2172 3584 2448 3432 
Q 2725 3281 2906 2969 
z
M 947 1747 
Q 947 1113 1208 752 
Q 1469 391 1925 391 
Q 2381 391 2643 752 
Q 2906 1113 2906 1747 
Q 2906 2381 2643 2742 
Q 2381 3103 1925 3103 
Q 1469 3103 1208 2742 
Q 947 2381 947 1747 
z
" transform="scale(0.015625)"/>
        <path id="DejaVuSans-67" d="M 2906 1791 
Q 2906 2416 2648 2759 
Q 2391 3103 1925 3103 
Q 1463 3103 1205 2759 
Q 947 2416 947 1791 
Q 947 1169 1205 825 
Q 1463 481 1925 481 
Q 2391 481 2648 825 
Q 2906 1169 2906 1791 
z
M 3481 434 
Q 3481 -459 3084 -895 
Q 2688 -1331 1869 -1331 
Q 1566 -1331 1297 -1286 
Q 1028 -1241 775 -1147 
L 775 -588 
Q 1028 -725 1275 -790 
Q 1522 -856 1778 -856 
Q 2344 -856 2625 -561 
Q 2906 -266 2906 331 
L 2906 616 
Q 2728 306 2450 153 
Q 2172 0 1784 0 
Q 1141 0 747 490 
Q 353 981 353 1791 
Q 353 2603 747 3093 
Q 1141 3584 1784 3584 
Q 2172 3584 2450 3431 
Q 2728 3278 2906 2969 
L 2906 3500 
L 3481 3500 
L 3481 434 
z
" transform="scale(0.015625)"/>
       </defs>
       <use xlink:href="#DejaVuSans-47"/>
       <use xlink:href="#DejaVuSans-72" x="77.490234"/>
       <use xlink:href="#DejaVuSans-75" x="118.603516"/>
       <use xlink:href="#DejaVuSans-64" x="181.982422"/>
       <use xlink:href="#DejaVuSans-67" x="245.458984"/>
       <use xlink:href="#DejaVuSans-65" x="308.935547"/>
       <use xlink:href="#DejaVuSans-72" x="370.458984"/>
      </g>
     </g>
    </g>
    <g id="xtick_3">
     <g id="line2d_3">
      <g>
       <use xlink:href="#m29e17f09bc" x="249.367273" y="337.97" style="stroke: #000000; stroke-width: 0.8"/>
      </g>
     </g>
     <g id="text_3">
      <!-- Adaptive -->
      <g transform="translate(251.574773 380.37875)rotate(-90)scale(0.08 -0.08)">
       <defs>
        <path id="DejaVuSans-41" d="M 2188 4044 
L 1331 1722 
L 3047 1722 
L 2188 4044 
z
M 1831 4666 
L 2547 4666 
L 4325 0 
L 3669 0 
L 3244 1197 
L 1141 1197 
L 716 0 
L 50 0 
L 1831 4666 
z
" transform="scale(0.015625)"/>
        <path id="DejaVuSans-61" d="M 2194 1759 
Q 1497 1759 1228 1600 
Q 959 1441 959 1056 
Q 959 750 1161 570 
Q 1363 391 1709 391 
Q 2188 391 2477 730 
Q 2766 1069 2766 1631 
L 2766 1759 
L 2194 1759 
z
M 3341 1997 
L 3341 0 
L 2766 0 
L 2766 531 
Q 2569 213 2275 61 
Q 1981 -91 1556 -91 
Q 1019 -91 701 211 
Q 384 513 384 1019 
Q 384 1609 779 1909 
Q 1175 2209 1959 2209 
L 2766 2209 
L 2766 2266 
Q 2766 2663 2505 2880 
Q 2244 3097 1772 3097 
Q 1472 3097 1187 3025 
Q 903 2953 641 2809 
L 641 3341 
Q 956 3463 1253 3523 
Q 1550 3584 1831 3584 
Q 2591 3584 2966 3190 
Q 3341 2797 3341 1997 
z
" transform="scale(0.015625)"/>
        <path id="DejaVuSans-70" d="M 1159 525 
L 1159 -1331 
L 581 -1331 
L 581 3500 
L 1159 3500 
L 1159 2969 
Q 1341 3281 1617 3432 
Q 1894 3584 2278 3584 
Q 2916 3584 3314 3078 
Q 3713 2572 3713 1747 
Q 3713 922 3314 415 
Q 2916 -91 2278 -91 
Q 1894 -91 1617 61 
Q 1341 213 1159 525 
z
M 3116 1747 
Q 3116 2381 2855 2742 
Q 2594 3103 2138 3103 
Q 1681 3103 1420 2742 
Q 1159 2381 1159 1747 
Q 1159 1113 1420 752 
Q 1681 391 2138 391 
Q 2594 391 2855 752 
Q 3116 1113 3116 1747 
z
" transform="scale(0.015625)"/>
        <path id="DejaVuSans-69" d="M 603 3500 
L 1178 3500 
L 1178 0 
L 603 0 
L 603 3500 
z
M 603 4863 
L 1178 4863 
L 1178 4134 
L 603 4134 
L 603 4863 
z
" transform="scale(0.015625)"/>
        <path id="DejaVuSans-76" d="M 191 3500 
L 800 3500 
L 1894 563 
L 2988 3500 
L 3597 3500 
L 2284 0 
L 1503 0 
L 191 3500 
z
" transform="scale(0.015625)"/>
       </defs>
       <use xlink:href="#DejaVuSans-41"/>
       <use xlink:href="#DejaVuSans-64" x="66.658203"/>
       <use xlink:href="#DejaVuSans-61" x="130.134766"/>
       <use xlink:href="#DejaVuSans-70" x="191.414062"/>
       <use xlink:href="#DejaVuSans-74" x="254.890625"/>
       <use xlink:href="#DejaVuSans-69" x="294.099609"/>
       <use xlink:href="#DejaVuSans-76" x="321.882812"/>
       <use xlink:href="#DejaVuSans-65" x="381.0625"/>
      </g>
     </g>
    </g>
    <g id="xtick_4">
     <g id="line2d_4">
      <g>
       <use xlink:href="#m29e17f09bc" x="324.846364" y="337.97" style="stroke: #000000; stroke-width: 0.8"/>
      </g>
     </g>
     <g id="text_4">
      <!-- Alternator -->
      <g transform="translate(327.053864 385.165)rotate(-90)scale(0.08 -0.08)">
       <defs>
        <path id="DejaVuSans-6c" d="M 603 4863 
L 1178 4863 
L 1178 0 
L 603 0 
L 603 4863 
z
" transform="scale(0.015625)"/>
        <path id="DejaVuSans-6e" d="M 3513 2113 
L 3513 0 
L 2938 0 
L 2938 2094 
Q 2938 2591 2744 2837 
Q 2550 3084 2163 3084 
Q 1697 3084 1428 2787 
Q 1159 2491 1159 1978 
L 1159 0 
L 581 0 
L 581 3500 
L 1159 3500 
L 1159 2956 
Q 1366 3272 1645 3428 
Q 1925 3584 2291 3584 
Q 2894 3584 3203 3211 
Q 3513 2838 3513 2113 
z
" transform="scale(0.015625)"/>
       </defs>
       <use xlink:href="#DejaVuSans-41"/>
       <use xlink:href="#DejaVuSans-6c" x="68.408203"/>
       <use xlink:href="#DejaVuSans-74" x="96.191406"/>
       <use xlink:href="#DejaVuSans-65" x="135.400391"/>
       <use xlink:href="#DejaVuSans-72" x="196.923828"/>
       <use xlink:href="#DejaVuSans-6e" x="236.287109"/>
       <use xlink:href="#DejaVuSans-61" x="299.666016"/>
       <use xlink:href="#DejaVuSans-74" x="360.945312"/>
       <use xlink:href="#DejaVuSans-6f" x="400.154297"/>
       <use xlink:href="#DejaVuSans-72" x="461.335938"/>
      </g>
     </g>
    </g>
    <g id="xtick_5">
     <g id="line2d_5">
      <g>
       <use xlink:href="#m29e17f09bc" x="400.325455" y="337.97" style="stroke: #000000; stroke-width: 0.8"/>
      </g>
     </g>
     <g id="text_5">
      <!-- Random: 0.5 -->
      <g transform="translate(402.532955 396.0475)rotate(-90)scale(0.08 -0.08)">
       <defs>
        <path id="DejaVuSans-52" d="M 2841 2188 
Q 3044 2119 3236 1894 
Q 3428 1669 3622 1275 
L 4263 0 
L 3584 0 
L 2988 1197 
Q 2756 1666 2539 1819 
Q 2322 1972 1947 1972 
L 1259 1972 
L 1259 0 
L 628 0 
L 628 4666 
L 2053 4666 
Q 2853 4666 3247 4331 
Q 3641 3997 3641 3322 
Q 3641 2881 3436 2590 
Q 3231 2300 2841 2188 
z
M 1259 4147 
L 1259 2491 
L 2053 2491 
Q 2509 2491 2742 2702 
Q 2975 2913 2975 3322 
Q 2975 3731 2742 3939 
Q 2509 4147 2053 4147 
L 1259 4147 
z
" transform="scale(0.015625)"/>
        <path id="DejaVuSans-6d" d="M 3328 2828 
Q 3544 3216 3844 3400 
Q 4144 3584 4550 3584 
Q 5097 3584 5394 3201 
Q 5691 2819 5691 2113 
L 5691 0 
L 5113 0 
L 5113 2094 
Q 5113 2597 4934 2840 
Q 4756 3084 4391 3084 
Q 3944 3084 3684 2787 
Q 3425 2491 3425 1978 
L 3425 0 
L 2847 0 
L 2847 2094 
Q 2847 2600 2669 2842 
Q 2491 3084 2119 3084 
Q 1678 3084 1418 2786 
Q 1159 2488 1159 1978 
L 1159 0 
L 581 0 
L 581 3500 
L 1159 3500 
L 1159 2956 
Q 1356 3278 1631 3431 
Q 1906 3584 2284 3584 
Q 2666 3584 2933 3390 
Q 3200 3197 3328 2828 
z
" transform="scale(0.015625)"/>
        <path id="DejaVuSans-3a" d="M 750 794 
L 1409 794 
L 1409 0 
L 750 0 
L 750 794 
z
M 750 3309 
L 1409 3309 
L 1409 2516 
L 750 2516 
L 750 3309 
z
" transform="scale(0.015625)"/>
        <path id="DejaVuSans-20" transform="scale(0.015625)"/>
        <path id="DejaVuSans-30" d="M 2034 4250 
Q 1547 4250 1301 3770 
Q 1056 3291 1056 2328 
Q 1056 1369 1301 889 
Q 1547 409 2034 409 
Q 2525 409 2770 889 
Q 3016 1369 3016 2328 
Q 3016 3291 2770 3770 
Q 2525 4250 2034 4250 
z
M 2034 4750 
Q 2819 4750 3233 4129 
Q 3647 3509 3647 2328 
Q 3647 1150 3233 529 
Q 2819 -91 2034 -91 
Q 1250 -91 836 529 
Q 422 1150 422 2328 
Q 422 3509 836 4129 
Q 1250 4750 2034 4750 
z
" transform="scale(0.015625)"/>
        <path id="DejaVuSans-2e" d="M 684 794 
L 1344 794 
L 1344 0 
L 684 0 
L 684 794 
z
" transform="scale(0.015625)"/>
        <path id="DejaVuSans-35" d="M 691 4666 
L 3169 4666 
L 3169 4134 
L 1269 4134 
L 1269 2991 
Q 1406 3038 1543 3061 
Q 1681 3084 1819 3084 
Q 2600 3084 3056 2656 
Q 3513 2228 3513 1497 
Q 3513 744 3044 326 
Q 2575 -91 1722 -91 
Q 1428 -91 1123 -41 
Q 819 9 494 109 
L 494 744 
Q 775 591 1075 516 
Q 1375 441 1709 441 
Q 2250 441 2565 725 
Q 2881 1009 2881 1497 
Q 2881 1984 2565 2268 
Q 2250 2553 1709 2553 
Q 1456 2553 1204 2497 
Q 953 2441 691 2322 
L 691 4666 
z
" transform="scale(0.015625)"/>
       </defs>
       <use xlink:href="#DejaVuSans-52"/>
       <use xlink:href="#DejaVuSans-61" x="67.232422"/>
       <use xlink:href="#DejaVuSans-6e" x="128.511719"/>
       <use xlink:href="#DejaVuSans-64" x="191.890625"/>
       <use xlink:href="#DejaVuSans-6f" x="255.367188"/>
       <use xlink:href="#DejaVuSans-6d" x="316.548828"/>
       <use xlink:href="#DejaVuSans-3a" x="413.960938"/>
       <use xlink:href="#DejaVuSans-20" x="447.652344"/>
       <use xlink:href="#DejaVuSans-30" x="479.439453"/>
       <use xlink:href="#DejaVuSans-2e" x="543.0625"/>
       <use xlink:href="#DejaVuSans-35" x="574.849609"/>
      </g>
     </g>
    </g>
    <g id="xtick_6">
     <g id="line2d_6">
      <g>
       <use xlink:href="#m29e17f09bc" x="475.804545" y="337.97" style="stroke: #000000; stroke-width: 0.8"/>
      </g>
     </g>
     <g id="text_6">
      <!-- Deep QLearner -->
      <g transform="translate(478.012045 405.46625)rotate(-90)scale(0.08 -0.08)">
       <defs>
        <path id="DejaVuSans-51" d="M 2522 4238 
Q 1834 4238 1429 3725 
Q 1025 3213 1025 2328 
Q 1025 1447 1429 934 
Q 1834 422 2522 422 
Q 3209 422 3611 934 
Q 4013 1447 4013 2328 
Q 4013 3213 3611 3725 
Q 3209 4238 2522 4238 
z
M 3406 84 
L 4238 -825 
L 3475 -825 
L 2784 -78 
Q 2681 -84 2626 -87 
Q 2572 -91 2522 -91 
Q 1538 -91 948 567 
Q 359 1225 359 2328 
Q 359 3434 948 4092 
Q 1538 4750 2522 4750 
Q 3503 4750 4090 4092 
Q 4678 3434 4678 2328 
Q 4678 1516 4351 937 
Q 4025 359 3406 84 
z
" transform="scale(0.015625)"/>
        <path id="DejaVuSans-4c" d="M 628 4666 
L 1259 4666 
L 1259 531 
L 3531 531 
L 3531 0 
L 628 0 
L 628 4666 
z
" transform="scale(0.015625)"/>
       </defs>
       <use xlink:href="#DejaVuSans-44"/>
       <use xlink:href="#DejaVuSans-65" x="77.001953"/>
       <use xlink:href="#DejaVuSans-65" x="138.525391"/>
       <use xlink:href="#DejaVuSans-70" x="200.048828"/>
       <use xlink:href="#DejaVuSans-20" x="263.525391"/>
       <use xlink:href="#DejaVuSans-51" x="295.3125"/>
       <use xlink:href="#DejaVuSans-4c" x="374.023438"/>
       <use xlink:href="#DejaVuSans-65" x="427.986328"/>
       <use xlink:href="#DejaVuSans-61" x="489.509766"/>
       <use xlink:href="#DejaVuSans-72" x="550.789062"/>
       <use xlink:href="#DejaVuSans-6e" x="590.152344"/>
       <use xlink:href="#DejaVuSans-65" x="653.53125"/>
       <use xlink:href="#DejaVuSans-72" x="715.054688"/>
      </g>
     </g>
    </g>
    <g id="xtick_7">
     <g id="line2d_7">
      <g>
       <use xlink:href="#m29e17f09bc" x="551.283636" y="337.97" style="stroke: #000000; stroke-width: 0.8"/>
      </g>
     </g>
     <g id="text_7">
      <!-- Mediocre QLearner -->
      <g transform="translate(553.491136 420.83375)rotate(-90)scale(0.08 -0.08)">
       <defs>
        <path id="DejaVuSans-4d" d="M 628 4666 
L 1569 4666 
L 2759 1491 
L 3956 4666 
L 4897 4666 
L 4897 0 
L 4281 0 
L 4281 4097 
L 3078 897 
L 2444 897 
L 1241 4097 
L 1241 0 
L 628 0 
L 628 4666 
z
" transform="scale(0.015625)"/>
       </defs>
       <use xlink:href="#DejaVuSans-4d"/>
       <use xlink:href="#DejaVuSans-65" x="86.279297"/>
       <use xlink:href="#DejaVuSans-64" x="147.802734"/>
       <use xlink:href="#DejaVuSans-69" x="211.279297"/>
       <use xlink:href="#DejaVuSans-6f" x="239.0625"/>
       <use xlink:href="#DejaVuSans-63" x="300.244141"/>
       <use xlink:href="#DejaVuSans-72" x="355.224609"/>
       <use xlink:href="#DejaVuSans-65" x="394.087891"/>
       <use xlink:href="#DejaVuSans-20" x="455.611328"/>
       <use xlink:href="#DejaVuSans-51" x="487.398438"/>
       <use xlink:href="#DejaVuSans-4c" x="566.109375"/>
       <use xlink:href="#DejaVuSans-65" x="620.072266"/>
       <use xlink:href="#DejaVuSans-61" x="681.595703"/>
       <use xlink:href="#DejaVuSans-72" x="742.875"/>
       <use xlink:href="#DejaVuSans-6e" x="782.238281"/>
       <use xlink:href="#DejaVuSans-65" x="845.617188"/>
       <use xlink:href="#DejaVuSans-72" x="907.140625"/>
      </g>
     </g>
    </g>
    <g id="xtick_8">
     <g id="line2d_8">
      <g>
       <use xlink:href="#m29e17f09bc" x="626.762727" y="337.97" style="stroke: #000000; stroke-width: 0.8"/>
      </g>
     </g>
     <g id="text_8">
      <!-- Risky QLearner -->
      <g transform="translate(628.970227 405.40875)rotate(-90)scale(0.08 -0.08)">
       <defs>
        <path id="DejaVuSans-73" d="M 2834 3397 
L 2834 2853 
Q 2591 2978 2328 3040 
Q 2066 3103 1784 3103 
Q 1356 3103 1142 2972 
Q 928 2841 928 2578 
Q 928 2378 1081 2264 
Q 1234 2150 1697 2047 
L 1894 2003 
Q 2506 1872 2764 1633 
Q 3022 1394 3022 966 
Q 3022 478 2636 193 
Q 2250 -91 1575 -91 
Q 1294 -91 989 -36 
Q 684 19 347 128 
L 347 722 
Q 666 556 975 473 
Q 1284 391 1588 391 
Q 1994 391 2212 530 
Q 2431 669 2431 922 
Q 2431 1156 2273 1281 
Q 2116 1406 1581 1522 
L 1381 1569 
Q 847 1681 609 1914 
Q 372 2147 372 2553 
Q 372 3047 722 3315 
Q 1072 3584 1716 3584 
Q 2034 3584 2315 3537 
Q 2597 3491 2834 3397 
z
" transform="scale(0.015625)"/>
        <path id="DejaVuSans-6b" d="M 581 4863 
L 1159 4863 
L 1159 1991 
L 2875 3500 
L 3609 3500 
L 1753 1863 
L 3688 0 
L 2938 0 
L 1159 1709 
L 1159 0 
L 581 0 
L 581 4863 
z
" transform="scale(0.015625)"/>
        <path id="DejaVuSans-79" d="M 2059 -325 
Q 1816 -950 1584 -1140 
Q 1353 -1331 966 -1331 
L 506 -1331 
L 506 -850 
L 844 -850 
Q 1081 -850 1212 -737 
Q 1344 -625 1503 -206 
L 1606 56 
L 191 3500 
L 800 3500 
L 1894 763 
L 2988 3500 
L 3597 3500 
L 2059 -325 
z
" transform="scale(0.015625)"/>
       </defs>
       <use xlink:href="#DejaVuSans-52"/>
       <use xlink:href="#DejaVuSans-69" x="69.482422"/>
       <use xlink:href="#DejaVuSans-73" x="97.265625"/>
       <use xlink:href="#DejaVuSans-6b" x="149.365234"/>
       <use xlink:href="#DejaVuSans-79" x="203.650391"/>
       <use xlink:href="#DejaVuSans-20" x="262.830078"/>
       <use xlink:href="#DejaVuSans-51" x="294.617188"/>
       <use xlink:href="#DejaVuSans-4c" x="373.328125"/>
       <use xlink:href="#DejaVuSans-65" x="427.291016"/>
       <use xlink:href="#DejaVuSans-61" x="488.814453"/>
       <use xlink:href="#DejaVuSans-72" x="550.09375"/>
       <use xlink:href="#DejaVuSans-6e" x="589.457031"/>
       <use xlink:href="#DejaVuSans-65" x="652.835938"/>
       <use xlink:href="#DejaVuSans-72" x="714.359375"/>
      </g>
     </g>
    </g>
    <g id="xtick_9">
     <g id="line2d_9">
      <g>
       <use xlink:href="#m29e17f09bc" x="702.241818" y="337.97" style="stroke: #000000; stroke-width: 0.8"/>
      </g>
     </g>
     <g id="text_9">
      <!-- Tit For Tat -->
      <g transform="translate(704.449318 384.15)rotate(-90)scale(0.08 -0.08)">
       <defs>
        <path id="DejaVuSans-54" d="M -19 4666 
L 3928 4666 
L 3928 4134 
L 2272 4134 
L 2272 0 
L 1638 0 
L 1638 4134 
L -19 4134 
L -19 4666 
z
" transform="scale(0.015625)"/>
        <path id="DejaVuSans-46" d="M 628 4666 
L 3309 4666 
L 3309 4134 
L 1259 4134 
L 1259 2759 
L 3109 2759 
L 3109 2228 
L 1259 2228 
L 1259 0 
L 628 0 
L 628 4666 
z
" transform="scale(0.015625)"/>
       </defs>
       <use xlink:href="#DejaVuSans-54"/>
       <use xlink:href="#DejaVuSans-69" x="57.958984"/>
       <use xlink:href="#DejaVuSans-74" x="85.742188"/>
       <use xlink:href="#DejaVuSans-20" x="124.951172"/>
       <use xlink:href="#DejaVuSans-46" x="156.738281"/>
       <use xlink:href="#DejaVuSans-6f" x="210.632812"/>
       <use xlink:href="#DejaVuSans-72" x="271.814453"/>
       <use xlink:href="#DejaVuSans-20" x="312.927734"/>
       <use xlink:href="#DejaVuSans-54" x="344.714844"/>
       <use xlink:href="#DejaVuSans-61" x="389.298828"/>
       <use xlink:href="#DejaVuSans-74" x="450.578125"/>
      </g>
     </g>
    </g>
    <g id="xtick_10">
     <g id="line2d_10">
      <g>
       <use xlink:href="#m29e17f09bc" x="777.720909" y="337.97" style="stroke: #000000; stroke-width: 0.8"/>
      </g>
     </g>
     <g id="text_10">
      <!-- Cooperator -->
      <g transform="translate(779.928409 389.85875)rotate(-90)scale(0.08 -0.08)">
       <defs>
        <path id="DejaVuSans-43" d="M 4122 4306 
L 4122 3641 
Q 3803 3938 3442 4084 
Q 3081 4231 2675 4231 
Q 1875 4231 1450 3742 
Q 1025 3253 1025 2328 
Q 1025 1406 1450 917 
Q 1875 428 2675 428 
Q 3081 428 3442 575 
Q 3803 722 4122 1019 
L 4122 359 
Q 3791 134 3420 21 
Q 3050 -91 2638 -91 
Q 1578 -91 968 557 
Q 359 1206 359 2328 
Q 359 3453 968 4101 
Q 1578 4750 2638 4750 
Q 3056 4750 3426 4639 
Q 3797 4528 4122 4306 
z
" transform="scale(0.015625)"/>
       </defs>
       <use xlink:href="#DejaVuSans-43"/>
       <use xlink:href="#DejaVuSans-6f" x="69.824219"/>
       <use xlink:href="#DejaVuSans-6f" x="131.005859"/>
       <use xlink:href="#DejaVuSans-70" x="192.1875"/>
       <use xlink:href="#DejaVuSans-65" x="255.664062"/>
       <use xlink:href="#DejaVuSans-72" x="317.1875"/>
       <use xlink:href="#DejaVuSans-61" x="358.300781"/>
       <use xlink:href="#DejaVuSans-74" x="419.580078"/>
       <use xlink:href="#DejaVuSans-6f" x="458.789062"/>
       <use xlink:href="#DejaVuSans-72" x="519.970703"/>
      </g>
     </g>
    </g>
   </g>
   <g id="matplotlib.axis_2">
    <g id="ytick_1">
     <g id="line2d_11">
      <defs>
       <path id="m75f869a4df" d="M 0 0 
L -3.5 0 
" style="stroke: #000000; stroke-width: 0.8"/>
      </defs>
      <g>
       <use xlink:href="#m75f869a4df" x="22.93" y="322.4155" style="stroke: #000000; stroke-width: 0.8"/>
      </g>
     </g>
     <g id="text_11">
      <!-- 0 -->
      <g transform="translate(10.84 325.454875)scale(0.08 -0.08)">
       <use xlink:href="#DejaVuSans-30"/>
      </g>
     </g>
    </g>
    <g id="ytick_2">
     <g id="line2d_12">
      <g>
       <use xlink:href="#m75f869a4df" x="22.93" y="260.1975" style="stroke: #000000; stroke-width: 0.8"/>
      </g>
     </g>
     <g id="text_12">
      <!-- 2 -->
      <g transform="translate(10.84 263.236875)scale(0.08 -0.08)">
       <defs>
        <path id="DejaVuSans-32" d="M 1228 531 
L 3431 531 
L 3431 0 
L 469 0 
L 469 531 
Q 828 903 1448 1529 
Q 2069 2156 2228 2338 
Q 2531 2678 2651 2914 
Q 2772 3150 2772 3378 
Q 2772 3750 2511 3984 
Q 2250 4219 1831 4219 
Q 1534 4219 1204 4116 
Q 875 4013 500 3803 
L 500 4441 
Q 881 4594 1212 4672 
Q 1544 4750 1819 4750 
Q 2544 4750 2975 4387 
Q 3406 4025 3406 3419 
Q 3406 3131 3298 2873 
Q 3191 2616 2906 2266 
Q 2828 2175 2409 1742 
Q 1991 1309 1228 531 
z
" transform="scale(0.015625)"/>
       </defs>
       <use xlink:href="#DejaVuSans-32"/>
      </g>
     </g>
    </g>
    <g id="ytick_3">
     <g id="line2d_13">
      <g>
       <use xlink:href="#m75f869a4df" x="22.93" y="197.9795" style="stroke: #000000; stroke-width: 0.8"/>
      </g>
     </g>
     <g id="text_13">
      <!-- 4 -->
      <g transform="translate(10.84 201.018875)scale(0.08 -0.08)">
       <defs>
        <path id="DejaVuSans-34" d="M 2419 4116 
L 825 1625 
L 2419 1625 
L 2419 4116 
z
M 2253 4666 
L 3047 4666 
L 3047 1625 
L 3713 1625 
L 3713 1100 
L 3047 1100 
L 3047 0 
L 2419 0 
L 2419 1100 
L 313 1100 
L 313 1709 
L 2253 4666 
z
" transform="scale(0.015625)"/>
       </defs>
       <use xlink:href="#DejaVuSans-34"/>
      </g>
     </g>
    </g>
    <g id="ytick_4">
     <g id="line2d_14">
      <g>
       <use xlink:href="#m75f869a4df" x="22.93" y="135.7615" style="stroke: #000000; stroke-width: 0.8"/>
      </g>
     </g>
     <g id="text_14">
      <!-- 6 -->
      <g transform="translate(10.84 138.800875)scale(0.08 -0.08)">
       <defs>
        <path id="DejaVuSans-36" d="M 2113 2584 
Q 1688 2584 1439 2293 
Q 1191 2003 1191 1497 
Q 1191 994 1439 701 
Q 1688 409 2113 409 
Q 2538 409 2786 701 
Q 3034 994 3034 1497 
Q 3034 2003 2786 2293 
Q 2538 2584 2113 2584 
z
M 3366 4563 
L 3366 3988 
Q 3128 4100 2886 4159 
Q 2644 4219 2406 4219 
Q 1781 4219 1451 3797 
Q 1122 3375 1075 2522 
Q 1259 2794 1537 2939 
Q 1816 3084 2150 3084 
Q 2853 3084 3261 2657 
Q 3669 2231 3669 1497 
Q 3669 778 3244 343 
Q 2819 -91 2113 -91 
Q 1303 -91 875 529 
Q 447 1150 447 2328 
Q 447 3434 972 4092 
Q 1497 4750 2381 4750 
Q 2619 4750 2861 4703 
Q 3103 4656 3366 4563 
z
" transform="scale(0.015625)"/>
       </defs>
       <use xlink:href="#DejaVuSans-36"/>
      </g>
     </g>
    </g>
    <g id="ytick_5">
     <g id="line2d_15">
      <g>
       <use xlink:href="#m75f869a4df" x="22.93" y="73.5435" style="stroke: #000000; stroke-width: 0.8"/>
      </g>
     </g>
     <g id="text_15">
      <!-- 8 -->
      <g transform="translate(10.84 76.582875)scale(0.08 -0.08)">
       <defs>
        <path id="DejaVuSans-38" d="M 2034 2216 
Q 1584 2216 1326 1975 
Q 1069 1734 1069 1313 
Q 1069 891 1326 650 
Q 1584 409 2034 409 
Q 2484 409 2743 651 
Q 3003 894 3003 1313 
Q 3003 1734 2745 1975 
Q 2488 2216 2034 2216 
z
M 1403 2484 
Q 997 2584 770 2862 
Q 544 3141 544 3541 
Q 544 4100 942 4425 
Q 1341 4750 2034 4750 
Q 2731 4750 3128 4425 
Q 3525 4100 3525 3541 
Q 3525 3141 3298 2862 
Q 3072 2584 2669 2484 
Q 3125 2378 3379 2068 
Q 3634 1759 3634 1313 
Q 3634 634 3220 271 
Q 2806 -91 2034 -91 
Q 1263 -91 848 271 
Q 434 634 434 1313 
Q 434 1759 690 2068 
Q 947 2378 1403 2484 
z
M 1172 3481 
Q 1172 3119 1398 2916 
Q 1625 2713 2034 2713 
Q 2441 2713 2670 2916 
Q 2900 3119 2900 3481 
Q 2900 3844 2670 4047 
Q 2441 4250 2034 4250 
Q 1625 4250 1398 4047 
Q 1172 3844 1172 3481 
z
" transform="scale(0.015625)"/>
       </defs>
       <use xlink:href="#DejaVuSans-38"/>
      </g>
     </g>
    </g>
   </g>
   <g id="LineCollection_1">
    <path d="M 88.974205 42.4345 
L 107.843977 42.4345 
" clip-path="url(#pa0c6901ce8)" style="fill: none; stroke: #1f77b4; stroke-width: 1.5"/>
    <path d="M 164.453295 135.7615 
L 183.323068 135.7615 
" clip-path="url(#pa0c6901ce8)" style="fill: none; stroke: #1f77b4; stroke-width: 1.5"/>
    <path d="M 239.932386 151.316 
L 258.802159 151.316 
" clip-path="url(#pa0c6901ce8)" style="fill: none; stroke: #1f77b4; stroke-width: 1.5"/>
    <path d="M 315.411477 166.8705 
L 334.28125 166.8705 
" clip-path="url(#pa0c6901ce8)" style="fill: none; stroke: #1f77b4; stroke-width: 1.5"/>
    <path d="M 390.890568 166.8705 
L 409.760341 166.8705 
" clip-path="url(#pa0c6901ce8)" style="fill: none; stroke: #1f77b4; stroke-width: 1.5"/>
    <path d="M 466.369659 166.8705 
L 485.239432 166.8705 
" clip-path="url(#pa0c6901ce8)" style="fill: none; stroke: #1f77b4; stroke-width: 1.5"/>
    <path d="M 541.84875 260.1975 
L 560.718523 260.1975 
" clip-path="url(#pa0c6901ce8)" style="fill: none; stroke: #1f77b4; stroke-width: 1.5"/>
    <path d="M 617.327841 291.3065 
L 636.197614 291.3065 
" clip-path="url(#pa0c6901ce8)" style="fill: none; stroke: #1f77b4; stroke-width: 1.5"/>
    <path d="M 692.806932 322.4155 
L 711.676705 322.4155 
" clip-path="url(#pa0c6901ce8)" style="fill: none; stroke: #1f77b4; stroke-width: 1.5"/>
    <path d="M 768.286023 322.4155 
L 787.155795 322.4155 
" clip-path="url(#pa0c6901ce8)" style="fill: none; stroke: #1f77b4; stroke-width: 1.5"/>
   </g>
   <g id="patch_3">
    <path d="M 22.93 337.97 
L 22.93 26.88 
" style="fill: none; stroke: #000000; stroke-width: 0.8; stroke-linejoin: miter; stroke-linecap: square"/>
   </g>
   <g id="patch_4">
    <path d="M 853.2 337.97 
L 853.2 26.88 
" style="fill: none; stroke: #000000; stroke-width: 0.8; stroke-linejoin: miter; stroke-linecap: square"/>
   </g>
   <g id="patch_5">
    <path d="M 22.93 337.97 
L 853.2 337.97 
" style="fill: none; stroke: #000000; stroke-width: 0.8; stroke-linejoin: miter; stroke-linecap: square"/>
   </g>
   <g id="patch_6">
    <path d="M 22.93 26.88 
L 853.2 26.88 
" style="fill: none; stroke: #000000; stroke-width: 0.8; stroke-linejoin: miter; stroke-linecap: square"/>
   </g>
   <g id="text_16">
    <!-- Wins - turns: 200, repetitions: 20, strategies: 10.  -->
    <g transform="translate(290.180938 20.88)scale(0.12 -0.12)">
     <defs>
      <path id="DejaVuSans-57" d="M 213 4666 
L 850 4666 
L 1831 722 
L 2809 4666 
L 3519 4666 
L 4500 722 
L 5478 4666 
L 6119 4666 
L 4947 0 
L 4153 0 
L 3169 4050 
L 2175 0 
L 1381 0 
L 213 4666 
z
" transform="scale(0.015625)"/>
      <path id="DejaVuSans-2d" d="M 313 2009 
L 1997 2009 
L 1997 1497 
L 313 1497 
L 313 2009 
z
" transform="scale(0.015625)"/>
      <path id="DejaVuSans-2c" d="M 750 794 
L 1409 794 
L 1409 256 
L 897 -744 
L 494 -744 
L 750 256 
L 750 794 
z
" transform="scale(0.015625)"/>
      <path id="DejaVuSans-31" d="M 794 531 
L 1825 531 
L 1825 4091 
L 703 3866 
L 703 4441 
L 1819 4666 
L 2450 4666 
L 2450 531 
L 3481 531 
L 3481 0 
L 794 0 
L 794 531 
z
" transform="scale(0.015625)"/>
     </defs>
     <use xlink:href="#DejaVuSans-57"/>
     <use xlink:href="#DejaVuSans-69" x="96.626953"/>
     <use xlink:href="#DejaVuSans-6e" x="124.410156"/>
     <use xlink:href="#DejaVuSans-73" x="187.789062"/>
     <use xlink:href="#DejaVuSans-20" x="239.888672"/>
     <use xlink:href="#DejaVuSans-2d" x="271.675781"/>
     <use xlink:href="#DejaVuSans-20" x="307.759766"/>
     <use xlink:href="#DejaVuSans-74" x="339.546875"/>
     <use xlink:href="#DejaVuSans-75" x="378.755859"/>
     <use xlink:href="#DejaVuSans-72" x="442.134766"/>
     <use xlink:href="#DejaVuSans-6e" x="481.498047"/>
     <use xlink:href="#DejaVuSans-73" x="544.876953"/>
     <use xlink:href="#DejaVuSans-3a" x="596.976562"/>
     <use xlink:href="#DejaVuSans-20" x="630.667969"/>
     <use xlink:href="#DejaVuSans-32" x="662.455078"/>
     <use xlink:href="#DejaVuSans-30" x="726.078125"/>
     <use xlink:href="#DejaVuSans-30" x="789.701172"/>
     <use xlink:href="#DejaVuSans-2c" x="853.324219"/>
     <use xlink:href="#DejaVuSans-20" x="885.111328"/>
     <use xlink:href="#DejaVuSans-72" x="916.898438"/>
     <use xlink:href="#DejaVuSans-65" x="955.761719"/>
     <use xlink:href="#DejaVuSans-70" x="1017.285156"/>
     <use xlink:href="#DejaVuSans-65" x="1080.761719"/>
     <use xlink:href="#DejaVuSans-74" x="1142.285156"/>
     <use xlink:href="#DejaVuSans-69" x="1181.494141"/>
     <use xlink:href="#DejaVuSans-74" x="1209.277344"/>
     <use xlink:href="#DejaVuSans-69" x="1248.486328"/>
     <use xlink:href="#DejaVuSans-6f" x="1276.269531"/>
     <use xlink:href="#DejaVuSans-6e" x="1337.451172"/>
     <use xlink:href="#DejaVuSans-73" x="1400.830078"/>
     <use xlink:href="#DejaVuSans-3a" x="1452.929688"/>
     <use xlink:href="#DejaVuSans-20" x="1486.621094"/>
     <use xlink:href="#DejaVuSans-32" x="1518.408203"/>
     <use xlink:href="#DejaVuSans-30" x="1582.03125"/>
     <use xlink:href="#DejaVuSans-2c" x="1645.654297"/>
     <use xlink:href="#DejaVuSans-20" x="1677.441406"/>
     <use xlink:href="#DejaVuSans-73" x="1709.228516"/>
     <use xlink:href="#DejaVuSans-74" x="1761.328125"/>
     <use xlink:href="#DejaVuSans-72" x="1800.537109"/>
     <use xlink:href="#DejaVuSans-61" x="1841.650391"/>
     <use xlink:href="#DejaVuSans-74" x="1902.929688"/>
     <use xlink:href="#DejaVuSans-65" x="1942.138672"/>
     <use xlink:href="#DejaVuSans-67" x="2003.662109"/>
     <use xlink:href="#DejaVuSans-69" x="2067.138672"/>
     <use xlink:href="#DejaVuSans-65" x="2094.921875"/>
     <use xlink:href="#DejaVuSans-73" x="2156.445312"/>
     <use xlink:href="#DejaVuSans-3a" x="2208.544922"/>
     <use xlink:href="#DejaVuSans-20" x="2242.236328"/>
     <use xlink:href="#DejaVuSans-31" x="2274.023438"/>
     <use xlink:href="#DejaVuSans-30" x="2337.646484"/>
     <use xlink:href="#DejaVuSans-2e" x="2401.269531"/>
     <use xlink:href="#DejaVuSans-20" x="2433.056641"/>
    </g>
   </g>
  </g>
 </g>
 <defs>
  <clipPath id="pa0c6901ce8">
   <rect x="22.93" y="26.88" width="830.27" height="311.09"/>
  </clipPath>
 </defs>
</svg>
