<?xml version="1.0" encoding="utf-8" standalone="no"?>
<!DOCTYPE svg PUBLIC "-//W3C//DTD SVG 1.1//EN"
  "http://www.w3.org/Graphics/SVG/1.1/DTD/svg11.dtd">
<svg xmlns:xlink="http://www.w3.org/1999/xlink" width="864pt" height="432pt" viewBox="0 0 864 432" xmlns="http://www.w3.org/2000/svg" version="1.1">
 <metadata>
  <rdf:RDF xmlns:dc="http://purl.org/dc/elements/1.1/" xmlns:cc="http://creativecommons.org/ns#" xmlns:rdf="http://www.w3.org/1999/02/22-rdf-syntax-ns#">
   <cc:Work>
    <dc:type rdf:resource="http://purl.org/dc/dcmitype/StillImage"/>
    <dc:date>2022-09-12T23:48:59.790313</dc:date>
    <dc:format>image/svg+xml</dc:format>
    <dc:creator>
     <cc:Agent>
      <dc:title>Matplotlib v3.5.1, https://matplotlib.org/</dc:title>
     </cc:Agent>
    </dc:creator>
   </cc:Work>
  </rdf:RDF>
 </metadata>
 <defs>
  <style type="text/css">*{stroke-linejoin: round; stroke-linecap: butt}</style>
 </defs>
 <g id="figure_1">
  <g id="patch_1">
   <path d="M 0 432 
L 864 432 
L 864 0 
L 0 0 
z
" style="fill: #ffffff"/>
  </g>
  <g id="axes_1">
   <g id="patch_2">
    <path d="M 35.71 337.97 
L 853.2 337.97 
L 853.2 26.88 
L 35.71 26.88 
z
" style="fill: #ffffff"/>
   </g>
   <g id="PolyCollection_1">
    <path d="M 117.970856 132.405522 
L 102.083689 132.405522 
L 101.667888 131.48244 
L 101.244668 130.559359 
L 100.814586 129.636277 
L 100.378262 128.713196 
L 99.936396 127.790114 
L 99.489778 126.867033 
L 99.039312 125.943951 
L 98.58602 125.02087 
L 98.131063 124.097788 
L 97.67575 123.174707 
L 97.22154 122.251625 
L 96.770053 121.328544 
L 96.323061 120.405463 
L 95.882487 119.482381 
L 95.450392 118.5593 
L 95.028954 117.636218 
L 94.62045 116.713137 
L 94.227223 115.790055 
L 93.851652 114.866974 
L 93.496107 113.943892 
L 93.162917 113.020811 
L 92.854314 112.097729 
L 92.572396 111.174648 
L 92.319073 110.251566 
L 92.096023 109.328485 
L 91.904649 108.405403 
L 91.746036 107.482322 
L 91.620916 106.55924 
L 91.529638 105.636159 
L 91.472144 104.713077 
L 91.447955 103.789996 
L 91.456161 102.866914 
L 91.495431 101.943833 
L 91.564017 101.020751 
L 91.65978 100.09767 
L 91.78022 99.174588 
L 91.922514 98.251507 
L 92.083566 97.328425 
L 92.260057 96.405344 
L 92.448508 95.482262 
L 92.645343 94.559181 
L 92.846954 93.636099 
L 93.049773 92.713018 
L 93.250337 91.789936 
L 93.445356 90.866855 
L 93.631773 89.943773 
L 93.806824 89.020692 
L 93.968089 88.09761 
L 94.113535 87.174529 
L 94.241551 86.251447 
L 94.350977 85.328366 
L 94.441119 84.405284 
L 94.511758 83.482203 
L 94.563144 82.559122 
L 94.595988 81.63604 
L 94.611435 80.712959 
L 94.611039 79.789877 
L 94.596723 78.866796 
L 94.570734 77.943714 
L 94.535594 77.020633 
L 94.494047 76.097551 
L 94.449 75.17447 
L 94.403466 74.251388 
L 94.360503 73.328307 
L 94.323158 72.405225 
L 94.294411 71.482144 
L 94.27712 70.559062 
L 94.273975 69.635981 
L 94.287455 68.712899 
L 94.319784 67.789818 
L 94.37291 66.866736 
L 94.448471 65.943655 
L 94.547779 65.020573 
L 94.671812 64.097492 
L 94.821206 63.17441 
L 94.996258 62.251329 
L 95.196931 61.328247 
L 95.422874 60.405166 
L 95.673433 59.482084 
L 95.947678 58.559003 
L 96.244429 57.635921 
L 96.562283 56.71284 
L 96.899648 55.789758 
L 97.254772 54.866677 
L 97.625779 53.943595 
L 98.010701 53.020514 
L 98.407507 52.097432 
L 98.814139 51.174351 
L 99.228537 50.251269 
L 99.648663 49.328188 
L 100.072532 48.405106 
L 100.498223 47.482025 
L 100.923906 46.558943 
L 101.347848 45.635862 
L 101.768431 44.71278 
L 102.184155 43.789699 
L 102.593648 42.866618 
L 102.995665 41.943536 
L 103.389093 41.020455 
L 116.665453 41.020455 
L 116.665453 41.020455 
L 117.05888 41.943536 
L 117.460898 42.866618 
L 117.87039 43.789699 
L 118.286115 44.71278 
L 118.706697 45.635862 
L 119.13064 46.558943 
L 119.556322 47.482025 
L 119.982014 48.405106 
L 120.405882 49.328188 
L 120.826009 50.251269 
L 121.240406 51.174351 
L 121.647038 52.097432 
L 122.043845 53.020514 
L 122.428766 53.943595 
L 122.799773 54.866677 
L 123.154897 55.789758 
L 123.492262 56.71284 
L 123.810116 57.635921 
L 124.106868 58.559003 
L 124.381113 59.482084 
L 124.631672 60.405166 
L 124.857614 61.328247 
L 125.058288 62.251329 
L 125.233339 63.17441 
L 125.382733 64.097492 
L 125.506766 65.020573 
L 125.606075 65.943655 
L 125.681635 66.866736 
L 125.734761 67.789818 
L 125.767091 68.712899 
L 125.78057 69.635981 
L 125.777425 70.559062 
L 125.760135 71.482144 
L 125.731387 72.405225 
L 125.694043 73.328307 
L 125.65108 74.251388 
L 125.605545 75.17447 
L 125.560498 76.097551 
L 125.518951 77.020633 
L 125.483812 77.943714 
L 125.457823 78.866796 
L 125.443506 79.789877 
L 125.443111 80.712959 
L 125.458558 81.63604 
L 125.491401 82.559122 
L 125.542788 83.482203 
L 125.613427 84.405284 
L 125.703569 85.328366 
L 125.812995 86.251447 
L 125.941011 87.174529 
L 126.086456 88.09761 
L 126.247721 89.020692 
L 126.422772 89.943773 
L 126.60919 90.866855 
L 126.804209 91.789936 
L 127.004773 92.713018 
L 127.207592 93.636099 
L 127.409203 94.559181 
L 127.606037 95.482262 
L 127.794488 96.405344 
L 127.970979 97.328425 
L 128.132031 98.251507 
L 128.274326 99.174588 
L 128.394766 100.09767 
L 128.490529 101.020751 
L 128.559115 101.943833 
L 128.598384 102.866914 
L 128.606591 103.789996 
L 128.582401 104.713077 
L 128.524907 105.636159 
L 128.433629 106.55924 
L 128.308509 107.482322 
L 128.149897 108.405403 
L 127.958523 109.328485 
L 127.735473 110.251566 
L 127.48215 111.174648 
L 127.200231 112.097729 
L 126.891629 113.020811 
L 126.558438 113.943892 
L 126.202894 114.866974 
L 125.827322 115.790055 
L 125.434095 116.713137 
L 125.025591 117.636218 
L 124.604154 118.5593 
L 124.172058 119.482381 
L 123.731485 120.405463 
L 123.284493 121.328544 
L 122.833005 122.251625 
L 122.378796 123.174707 
L 121.923482 124.097788 
L 121.468526 125.02087 
L 121.015234 125.943951 
L 120.564767 126.867033 
L 120.11815 127.790114 
L 119.676283 128.713196 
L 119.23996 129.636277 
L 118.809878 130.559359 
L 118.386657 131.48244 
L 117.970856 132.405522 
z
" clip-path="url(#peccf2d4e36)" style="fill: #1f77b4; fill-opacity: 0.3"/>
   </g>
   <g id="PolyCollection_2">
    <path d="M 191.14641 221.3675 
L 177.542681 221.3675 
L 177.147811 219.671688 
L 176.74537 217.975875 
L 176.336277 216.280063 
L 175.921506 214.58425 
L 175.502082 212.888437 
L 175.079075 211.192625 
L 174.653597 209.496812 
L 174.226804 207.801 
L 173.799882 206.105187 
L 173.374056 204.409374 
L 172.950575 202.713562 
L 172.530716 201.017749 
L 172.115779 199.321937 
L 171.707078 197.626124 
L 171.30594 195.930312 
L 170.9137 194.234499 
L 170.531691 192.538686 
L 170.161236 190.842874 
L 169.803643 189.147061 
L 169.460187 187.451249 
L 169.132104 185.755436 
L 168.820568 184.059623 
L 168.526685 182.363811 
L 168.251464 180.667998 
L 167.995806 178.972186 
L 167.76048 177.276373 
L 167.5461 175.580561 
L 167.353107 173.884748 
L 167.18175 172.188935 
L 167.032063 170.493123 
L 166.903851 168.79731 
L 166.796679 167.101498 
L 166.709858 165.405685 
L 166.642447 163.709872 
L 166.593251 162.01406 
L 166.560829 160.318247 
L 166.543509 158.622435 
L 166.539413 156.926622 
L 166.546478 155.23081 
L 166.562497 153.534997 
L 166.585159 151.839184 
L 166.612093 150.143372 
L 166.640921 148.447559 
L 166.669312 146.751747 
L 166.695033 145.055934 
L 166.716012 143.360121 
L 166.730385 141.664309 
L 166.736551 139.968496 
L 166.733215 138.272684 
L 166.719431 136.576871 
L 166.694629 134.881059 
L 166.658643 133.185246 
L 166.61172 131.489433 
L 166.554525 129.793621 
L 166.488129 128.097808 
L 166.413997 126.401996 
L 166.33395 124.706183 
L 166.250134 123.010371 
L 166.16497 121.314558 
L 166.081099 119.618745 
L 166.001323 117.922933 
L 165.928545 116.22712 
L 165.865697 114.531308 
L 165.815683 112.835495 
L 165.78131 111.139682 
L 165.765227 109.44387 
L 165.769878 107.748057 
L 165.797446 106.052245 
L 165.849815 104.356432 
L 165.928541 102.66062 
L 166.034826 100.964807 
L 166.169505 99.268994 
L 166.333043 97.573182 
L 166.525538 95.877369 
L 166.746734 94.181557 
L 166.996043 92.485744 
L 167.272567 90.789931 
L 167.575134 89.094119 
L 167.902331 87.398306 
L 168.25254 85.702494 
L 168.62398 84.006681 
L 169.014744 82.310869 
L 169.422836 80.615056 
L 169.846208 78.919243 
L 170.282791 77.223431 
L 170.730527 75.527618 
L 171.187392 73.831806 
L 171.651416 72.135993 
L 172.120703 70.44018 
L 172.593442 68.744368 
L 173.067916 67.048555 
L 173.542506 65.352743 
L 174.015695 63.65693 
L 174.486067 61.961118 
L 174.952306 60.265305 
L 175.413189 58.569492 
L 175.867584 56.87368 
L 176.314446 55.177867 
L 176.752806 53.482055 
L 191.936285 53.482055 
L 191.936285 53.482055 
L 192.374645 55.177867 
L 192.821507 56.87368 
L 193.275902 58.569492 
L 193.736785 60.265305 
L 194.203023 61.961118 
L 194.673396 63.65693 
L 195.146585 65.352743 
L 195.621175 67.048555 
L 196.095648 68.744368 
L 196.568388 70.44018 
L 197.037675 72.135993 
L 197.501699 73.831806 
L 197.958564 75.527618 
L 198.4063 77.223431 
L 198.842883 78.919243 
L 199.266255 80.615056 
L 199.674347 82.310869 
L 200.065111 84.006681 
L 200.436551 85.702494 
L 200.78676 87.398306 
L 201.113957 89.094119 
L 201.416524 90.789931 
L 201.693048 92.485744 
L 201.942357 94.181557 
L 202.163553 95.877369 
L 202.356048 97.573182 
L 202.519585 99.268994 
L 202.654265 100.964807 
L 202.76055 102.66062 
L 202.839276 104.356432 
L 202.891645 106.052245 
L 202.919213 107.748057 
L 202.923864 109.44387 
L 202.907781 111.139682 
L 202.873407 112.835495 
L 202.823394 114.531308 
L 202.760546 116.22712 
L 202.687768 117.922933 
L 202.607992 119.618745 
L 202.524121 121.314558 
L 202.438957 123.010371 
L 202.355141 124.706183 
L 202.275094 126.401996 
L 202.200962 128.097808 
L 202.134566 129.793621 
L 202.077371 131.489433 
L 202.030448 133.185246 
L 201.994462 134.881059 
L 201.96966 136.576871 
L 201.955875 138.272684 
L 201.95254 139.968496 
L 201.958705 141.664309 
L 201.973079 143.360121 
L 201.994058 145.055934 
L 202.019779 146.751747 
L 202.04817 148.447559 
L 202.076998 150.143372 
L 202.103932 151.839184 
L 202.126594 153.534997 
L 202.142613 155.23081 
L 202.149678 156.926622 
L 202.145582 158.622435 
L 202.128262 160.318247 
L 202.09584 162.01406 
L 202.046644 163.709872 
L 201.979233 165.405685 
L 201.892412 167.101498 
L 201.78524 168.79731 
L 201.657028 170.493123 
L 201.507341 172.188935 
L 201.335984 173.884748 
L 201.142991 175.580561 
L 200.928611 177.276373 
L 200.693285 178.972186 
L 200.437627 180.667998 
L 200.162406 182.363811 
L 199.868523 184.059623 
L 199.556987 185.755436 
L 199.228903 187.451249 
L 198.885448 189.147061 
L 198.527855 190.842874 
L 198.1574 192.538686 
L 197.775391 194.234499 
L 197.383151 195.930312 
L 196.982013 197.626124 
L 196.573312 199.321937 
L 196.158375 201.017749 
L 195.738516 202.713562 
L 195.315035 204.409374 
L 194.889209 206.105187 
L 194.462287 207.801 
L 194.035493 209.496812 
L 193.610016 211.192625 
L 193.187009 212.888437 
L 192.767585 214.58425 
L 192.352814 216.280063 
L 191.943721 217.975875 
L 191.54128 219.671688 
L 191.14641 221.3675 
z
" clip-path="url(#peccf2d4e36)" style="fill: #1f77b4; fill-opacity: 0.3"/>
   </g>
   <g id="PolyCollection_3">
    <path d="M 268.414292 199.905856 
L 248.909344 199.905856 
L 248.442474 198.731025 
L 247.975994 197.556194 
L 247.511588 196.381363 
L 247.050939 195.206532 
L 246.595716 194.031701 
L 246.147556 192.85687 
L 245.708044 191.682039 
L 245.278707 190.507208 
L 244.860988 189.332377 
L 244.456242 188.157546 
L 244.065718 186.982715 
L 243.690555 185.807884 
L 243.331765 184.633053 
L 242.990236 183.458222 
L 242.666724 182.283391 
L 242.361849 181.10856 
L 242.0761 179.933729 
L 241.809835 178.758898 
L 241.563285 177.584067 
L 241.336562 176.409236 
L 241.129668 175.234405 
L 240.942501 174.059574 
L 240.774868 172.884743 
L 240.626497 171.709912 
L 240.497046 170.535081 
L 240.386115 169.36025 
L 240.293259 168.185419 
L 240.217998 167.010588 
L 240.159823 165.835757 
L 240.118208 164.660926 
L 240.092616 163.486095 
L 240.0825 162.311264 
L 240.087311 161.136433 
L 240.106495 159.961602 
L 240.139494 158.786771 
L 240.185745 157.61194 
L 240.244671 156.437109 
L 240.315683 155.262278 
L 240.398167 154.087447 
L 240.491482 152.912616 
L 240.594949 151.737785 
L 240.707851 150.562954 
L 240.829419 149.388123 
L 240.958832 148.213292 
L 241.095216 147.038461 
L 241.237634 145.86363 
L 241.385098 144.688799 
L 241.536562 143.513968 
L 241.690935 142.339137 
L 241.847083 141.164306 
L 242.003845 139.989475 
L 242.160043 138.814644 
L 242.314499 137.639813 
L 242.466051 136.464982 
L 242.613572 135.290152 
L 242.755988 134.115321 
L 242.892302 132.94049 
L 243.021611 131.765659 
L 243.143128 130.590828 
L 243.256197 129.415997 
L 243.360314 128.241166 
L 243.455139 127.066335 
L 243.540511 125.891504 
L 243.616455 124.716673 
L 243.683185 123.541842 
L 243.741115 122.367011 
L 243.790848 121.19218 
L 243.83318 120.017349 
L 243.869082 118.842518 
L 243.899696 117.667687 
L 243.926316 116.492856 
L 243.950369 115.318025 
L 243.973396 114.143194 
L 243.997027 112.968363 
L 244.022957 111.793532 
L 244.05292 110.618701 
L 244.088662 109.44387 
L 244.131916 108.269039 
L 244.184372 107.094208 
L 244.247651 105.919377 
L 244.323286 104.744546 
L 244.412694 103.569715 
L 244.517155 102.394884 
L 244.637798 101.220053 
L 244.775581 100.045222 
L 244.931277 98.870391 
L 245.105469 97.69556 
L 245.298539 96.520729 
L 245.510663 95.345898 
L 245.741812 94.171067 
L 245.991753 92.996236 
L 246.260053 91.821405 
L 246.546088 90.646574 
L 246.849048 89.471743 
L 247.167957 88.296912 
L 247.501676 87.122081 
L 247.84893 85.94725 
L 248.208317 84.772419 
L 248.578329 83.597588 
L 268.745307 83.597588 
L 268.745307 83.597588 
L 269.115319 84.772419 
L 269.474706 85.94725 
L 269.82196 87.122081 
L 270.15568 88.296912 
L 270.474588 89.471743 
L 270.777549 90.646574 
L 271.063583 91.821405 
L 271.331884 92.996236 
L 271.581825 94.171067 
L 271.812974 95.345898 
L 272.025097 96.520729 
L 272.218167 97.69556 
L 272.392359 98.870391 
L 272.548056 100.045222 
L 272.685838 101.220053 
L 272.806481 102.394884 
L 272.910942 103.569715 
L 273.00035 104.744546 
L 273.075985 105.919377 
L 273.139265 107.094208 
L 273.19172 108.269039 
L 273.234974 109.44387 
L 273.270717 110.618701 
L 273.30068 111.793532 
L 273.32661 112.968363 
L 273.35024 114.143194 
L 273.373267 115.318025 
L 273.39732 116.492856 
L 273.42394 117.667687 
L 273.454555 118.842518 
L 273.490457 120.017349 
L 273.532788 121.19218 
L 273.582522 122.367011 
L 273.640451 123.541842 
L 273.707182 124.716673 
L 273.783125 125.891504 
L 273.868497 127.066335 
L 273.963323 128.241166 
L 274.06744 129.415997 
L 274.180509 130.590828 
L 274.302025 131.765659 
L 274.431334 132.94049 
L 274.567648 134.115321 
L 274.710064 135.290152 
L 274.857585 136.464982 
L 275.009137 137.639813 
L 275.163593 138.814644 
L 275.319792 139.989475 
L 275.476554 141.164306 
L 275.632702 142.339137 
L 275.787074 143.513968 
L 275.938538 144.688799 
L 276.086002 145.86363 
L 276.228421 147.038461 
L 276.364804 148.213292 
L 276.494218 149.388123 
L 276.615785 150.562954 
L 276.728687 151.737785 
L 276.832155 152.912616 
L 276.925469 154.087447 
L 277.007953 155.262278 
L 277.078965 156.437109 
L 277.137892 157.61194 
L 277.184142 158.786771 
L 277.217142 159.961602 
L 277.236326 161.136433 
L 277.241136 162.311264 
L 277.231021 163.486095 
L 277.205428 164.660926 
L 277.163814 165.835757 
L 277.105639 167.010588 
L 277.030377 168.185419 
L 276.937522 169.36025 
L 276.826591 170.535081 
L 276.697139 171.709912 
L 276.548768 172.884743 
L 276.381136 174.059574 
L 276.193968 175.234405 
L 275.987074 176.409236 
L 275.760351 177.584067 
L 275.513801 178.758898 
L 275.247536 179.933729 
L 274.961787 181.10856 
L 274.656912 182.283391 
L 274.3334 183.458222 
L 273.991871 184.633053 
L 273.633082 185.807884 
L 273.257918 186.982715 
L 272.867395 188.157546 
L 272.462649 189.332377 
L 272.04493 190.507208 
L 271.615592 191.682039 
L 271.176081 192.85687 
L 270.72792 194.031701 
L 270.272697 195.206532 
L 269.812048 196.381363 
L 269.347642 197.556194 
L 268.881163 198.731025 
L 268.414292 199.905856 
z
" clip-path="url(#peccf2d4e36)" style="fill: #1f77b4; fill-opacity: 0.3"/>
   </g>
   <g id="PolyCollection_4">
    <path d="M 339.667546 242.829145 
L 326.290636 242.829145 
L 326.024099 242.028442 
L 325.761719 241.227738 
L 325.504795 240.427035 
L 325.25465 239.626332 
L 325.012616 238.825629 
L 324.780024 238.024925 
L 324.558192 237.224222 
L 324.348411 236.423519 
L 324.151929 235.622816 
L 323.969941 234.822112 
L 323.80357 234.021409 
L 323.653853 233.220706 
L 323.521732 232.420002 
L 323.40803 231.619299 
L 323.313448 230.818596 
L 323.238543 230.017893 
L 323.183725 229.217189 
L 323.149239 228.416486 
L 323.135159 227.615783 
L 323.141382 226.81508 
L 323.16762 226.014376 
L 323.213396 225.213673 
L 323.278044 224.41297 
L 323.360708 223.612267 
L 323.460343 222.811563 
L 323.575723 222.01086 
L 323.705443 221.210157 
L 323.847932 220.409454 
L 324.001461 219.60875 
L 324.164156 218.808047 
L 324.334014 218.007344 
L 324.508916 217.206641 
L 324.686648 216.405937 
L 324.864917 215.605234 
L 325.041373 214.804531 
L 325.213628 214.003827 
L 325.379279 213.203124 
L 325.535928 212.402421 
L 325.681207 211.601718 
L 325.812795 210.801014 
L 325.928447 210.000311 
L 326.026008 209.199608 
L 326.103439 208.398905 
L 326.158837 207.598201 
L 326.190449 206.797498 
L 326.196697 205.996795 
L 326.176192 205.196092 
L 326.127746 204.395388 
L 326.050393 203.594685 
L 325.943396 202.793982 
L 325.80626 201.993279 
L 325.63874 201.192575 
L 325.44085 200.391872 
L 325.212866 199.591169 
L 324.955328 198.790466 
L 324.669046 197.989762 
L 324.355094 197.189059 
L 324.014806 196.388356 
L 323.649776 195.587653 
L 323.261842 194.786949 
L 322.853083 193.986246 
L 322.425801 193.185543 
L 321.982508 192.384839 
L 321.525908 191.584136 
L 321.05888 190.783433 
L 320.584453 189.98273 
L 320.105785 189.182026 
L 319.626137 188.381323 
L 319.148847 187.58062 
L 318.6773 186.779917 
L 318.214901 185.979213 
L 317.765043 185.17851 
L 317.331082 184.377807 
L 316.916297 183.577104 
L 316.523867 182.7764 
L 316.156841 181.975697 
L 315.818105 181.174994 
L 315.510356 180.374291 
L 315.236077 179.573587 
L 314.997513 178.772884 
L 314.796649 177.972181 
L 314.635188 177.171478 
L 314.514542 176.370774 
L 314.435809 175.570071 
L 314.399773 174.769368 
L 314.406891 173.968664 
L 314.457294 173.167961 
L 314.550786 172.367258 
L 314.68685 171.566555 
L 314.864656 170.765851 
L 315.08307 169.965148 
L 315.340673 169.164445 
L 315.635777 168.363742 
L 315.966443 167.563038 
L 316.330509 166.762335 
L 316.725611 165.961632 
L 317.149212 165.160929 
L 317.598631 164.360225 
L 318.07107 163.559522 
L 347.887112 163.559522 
L 347.887112 163.559522 
L 348.359551 164.360225 
L 348.80897 165.160929 
L 349.232571 165.961632 
L 349.627673 166.762335 
L 349.991739 167.563038 
L 350.322405 168.363742 
L 350.617509 169.164445 
L 350.875112 169.965148 
L 351.093526 170.765851 
L 351.271332 171.566555 
L 351.407396 172.367258 
L 351.500888 173.167961 
L 351.551291 173.968664 
L 351.558409 174.769368 
L 351.522373 175.570071 
L 351.44364 176.370774 
L 351.322993 177.171478 
L 351.161533 177.972181 
L 350.960669 178.772884 
L 350.722105 179.573587 
L 350.447826 180.374291 
L 350.140077 181.174994 
L 349.80134 181.975697 
L 349.434314 182.7764 
L 349.041885 183.577104 
L 348.6271 184.377807 
L 348.193138 185.17851 
L 347.743281 185.979213 
L 347.280882 186.779917 
L 346.809335 187.58062 
L 346.332044 188.381323 
L 345.852397 189.182026 
L 345.373729 189.98273 
L 344.899302 190.783433 
L 344.432274 191.584136 
L 343.975674 192.384839 
L 343.532381 193.185543 
L 343.105099 193.986246 
L 342.696339 194.786949 
L 342.308406 195.587653 
L 341.943376 196.388356 
L 341.603088 197.189059 
L 341.289136 197.989762 
L 341.002854 198.790466 
L 340.745316 199.591169 
L 340.517331 200.391872 
L 340.319441 201.192575 
L 340.151922 201.993279 
L 340.014786 202.793982 
L 339.907788 203.594685 
L 339.830436 204.395388 
L 339.78199 205.196092 
L 339.761484 205.996795 
L 339.767733 206.797498 
L 339.799345 207.598201 
L 339.854742 208.398905 
L 339.932174 209.199608 
L 340.029735 210.000311 
L 340.145386 210.801014 
L 340.276975 211.601718 
L 340.422253 212.402421 
L 340.578903 213.203124 
L 340.744554 214.003827 
L 340.916809 214.804531 
L 341.093265 215.605234 
L 341.271534 216.405937 
L 341.449266 217.206641 
L 341.624168 218.007344 
L 341.794025 218.808047 
L 341.956721 219.60875 
L 342.11025 220.409454 
L 342.252739 221.210157 
L 342.382459 222.01086 
L 342.497839 222.811563 
L 342.597474 223.612267 
L 342.680138 224.41297 
L 342.744786 225.213673 
L 342.790562 226.014376 
L 342.8168 226.81508 
L 342.823023 227.615783 
L 342.808943 228.416486 
L 342.774457 229.217189 
L 342.719638 230.017893 
L 342.644734 230.818596 
L 342.550152 231.619299 
L 342.43645 232.420002 
L 342.304328 233.220706 
L 342.154612 234.021409 
L 341.988241 234.822112 
L 341.806252 235.622816 
L 341.609771 236.423519 
L 341.39999 237.224222 
L 341.178158 238.024925 
L 340.945566 238.825629 
L 340.703532 239.626332 
L 340.453387 240.427035 
L 340.196463 241.227738 
L 339.934083 242.028442 
L 339.667546 242.829145 
z
" clip-path="url(#peccf2d4e36)" style="fill: #1f77b4; fill-opacity: 0.3"/>
   </g>
   <g id="PolyCollection_5">
    <path d="M 424.388593 187.0981 
L 390.204134 187.0981 
L 389.931527 186.734462 
L 389.683974 186.370824 
L 389.462636 186.007186 
L 389.268551 185.643547 
L 389.102626 185.279909 
L 388.965629 184.916271 
L 388.858182 184.552633 
L 388.780754 184.188995 
L 388.733659 183.825357 
L 388.717045 183.461718 
L 388.730903 183.09808 
L 388.775054 182.734442 
L 388.849158 182.370804 
L 388.95271 182.007166 
L 389.085048 181.643528 
L 389.24535 181.279889 
L 389.432646 180.916251 
L 389.64582 180.552613 
L 389.883618 180.188975 
L 390.144658 179.825337 
L 390.427438 179.461699 
L 390.730345 179.09806 
L 391.051669 178.734422 
L 391.389608 178.370784 
L 391.742289 178.007146 
L 392.107769 177.643508 
L 392.484057 177.27987 
L 392.869121 176.916231 
L 393.260901 176.552593 
L 393.657322 176.188955 
L 394.056308 175.825317 
L 394.455789 175.461679 
L 394.853718 175.098041 
L 395.248079 174.734403 
L 395.636896 174.370764 
L 396.018248 174.007126 
L 396.390274 173.643488 
L 396.751183 173.27985 
L 397.099264 172.916212 
L 397.432892 172.552574 
L 397.750533 172.188935 
L 398.050755 171.825297 
L 398.332228 171.461659 
L 398.593733 171.098021 
L 398.834164 170.734383 
L 399.052533 170.370745 
L 399.247972 170.007106 
L 399.419737 169.643468 
L 399.567206 169.27983 
L 399.689887 168.916192 
L 399.787411 168.552554 
L 399.859542 168.188916 
L 399.906166 167.825277 
L 399.9273 167.461639 
L 399.923087 167.098001 
L 399.893794 166.734363 
L 399.839814 166.370725 
L 399.76166 166.007087 
L 399.659964 165.643448 
L 399.535477 165.27981 
L 399.389061 164.916172 
L 399.22169 164.552534 
L 399.034441 164.188896 
L 398.828494 163.825258 
L 398.605125 163.46162 
L 398.365701 163.097981 
L 398.111672 162.734343 
L 397.84457 162.370705 
L 397.565994 162.007067 
L 397.27761 161.643429 
L 396.98114 161.279791 
L 396.678352 160.916152 
L 396.371054 160.552514 
L 396.061084 160.188876 
L 395.750299 159.825238 
L 395.440566 159.4616 
L 395.133755 159.097962 
L 394.831721 158.734323 
L 394.5363 158.370685 
L 394.249296 158.007047 
L 393.972471 157.643409 
L 393.707533 157.279771 
L 393.456127 156.916133 
L 393.219823 156.552494 
L 393.000109 156.188856 
L 392.79838 155.825218 
L 392.615929 155.46158 
L 392.45394 155.097942 
L 392.313479 154.734304 
L 392.195488 154.370665 
L 392.10078 154.007027 
L 392.030035 153.643389 
L 391.983794 153.279751 
L 391.962455 152.916113 
L 391.966277 152.552475 
L 391.995373 152.188836 
L 392.049717 151.825198 
L 392.129138 151.46156 
L 392.23333 151.097922 
L 422.359398 151.097922 
L 422.359398 151.097922 
L 422.463589 151.46156 
L 422.543011 151.825198 
L 422.597354 152.188836 
L 422.626451 152.552475 
L 422.630272 152.916113 
L 422.608934 153.279751 
L 422.562692 153.643389 
L 422.491947 154.007027 
L 422.39724 154.370665 
L 422.279249 154.734304 
L 422.138787 155.097942 
L 421.976798 155.46158 
L 421.794347 155.825218 
L 421.592619 156.188856 
L 421.372905 156.552494 
L 421.136601 156.916133 
L 420.885194 157.279771 
L 420.620256 157.643409 
L 420.343431 158.007047 
L 420.056427 158.370685 
L 419.761007 158.734323 
L 419.458972 159.097962 
L 419.152161 159.4616 
L 418.842429 159.825238 
L 418.531644 160.188876 
L 418.221673 160.552514 
L 417.914375 160.916152 
L 417.611587 161.279791 
L 417.315117 161.643429 
L 417.026733 162.007067 
L 416.748157 162.370705 
L 416.481055 162.734343 
L 416.227027 163.097981 
L 415.987602 163.46162 
L 415.764233 163.825258 
L 415.558287 164.188896 
L 415.371037 164.552534 
L 415.203666 164.916172 
L 415.05725 165.27981 
L 414.932763 165.643448 
L 414.831067 166.007087 
L 414.752913 166.370725 
L 414.698933 166.734363 
L 414.66964 167.098001 
L 414.665427 167.461639 
L 414.686561 167.825277 
L 414.733186 168.188916 
L 414.805316 168.552554 
L 414.902841 168.916192 
L 415.025521 169.27983 
L 415.172991 169.643468 
L 415.344755 170.007106 
L 415.540194 170.370745 
L 415.758563 170.734383 
L 415.998995 171.098021 
L 416.260499 171.461659 
L 416.541972 171.825297 
L 416.842194 172.188935 
L 417.159835 172.552574 
L 417.493463 172.916212 
L 417.841544 173.27985 
L 418.202454 173.643488 
L 418.57448 174.007126 
L 418.955831 174.370764 
L 419.344649 174.734403 
L 419.739009 175.098041 
L 420.136938 175.461679 
L 420.536419 175.825317 
L 420.935405 176.188955 
L 421.331826 176.552593 
L 421.723606 176.916231 
L 422.10867 177.27987 
L 422.484958 177.643508 
L 422.850439 178.007146 
L 423.203119 178.370784 
L 423.541059 178.734422 
L 423.862382 179.09806 
L 424.165289 179.461699 
L 424.448069 179.825337 
L 424.709109 180.188975 
L 424.946908 180.552613 
L 425.160081 180.916251 
L 425.347377 181.279889 
L 425.507679 181.643528 
L 425.640017 182.007166 
L 425.74357 182.370804 
L 425.817673 182.734442 
L 425.861825 183.09808 
L 425.875682 183.461718 
L 425.859069 183.825357 
L 425.811973 184.188995 
L 425.734545 184.552633 
L 425.627099 184.916271 
L 425.490102 185.279909 
L 425.324177 185.643547 
L 425.130091 186.007186 
L 424.908753 186.370824 
L 424.6612 186.734462 
L 424.388593 187.0981 
z
" clip-path="url(#peccf2d4e36)" style="fill: #1f77b4; fill-opacity: 0.3"/>
   </g>
   <g id="PolyCollection_6">
    <path d="M 486.547766 267.406189 
L 476.679506 267.406189 
L 476.448715 266.28031 
L 476.221047 265.15443 
L 475.996991 264.02855 
L 475.77688 262.902671 
L 475.560881 261.776791 
L 475.34899 260.650911 
L 475.14103 259.525032 
L 474.936654 258.399152 
L 474.735352 257.273272 
L 474.536463 256.147393 
L 474.339195 255.021513 
L 474.142639 253.895633 
L 473.945798 252.769753 
L 473.74761 251.643874 
L 473.546974 250.517994 
L 473.342785 249.392114 
L 473.133953 248.266235 
L 472.919442 247.140355 
L 472.698288 246.014475 
L 472.469631 244.888596 
L 472.232732 243.762716 
L 471.986997 242.636836 
L 471.73199 241.510957 
L 471.467444 240.385077 
L 471.193275 239.259197 
L 470.909579 238.133317 
L 470.616637 237.007438 
L 470.314911 235.881558 
L 470.005036 234.755678 
L 469.68781 233.629799 
L 469.364183 232.503919 
L 469.035239 231.378039 
L 468.70218 230.25216 
L 468.366306 229.12628 
L 468.028999 228.0004 
L 467.691699 226.874521 
L 467.355885 225.748641 
L 467.023057 224.622761 
L 466.694718 223.496881 
L 466.372357 222.371002 
L 466.057434 221.245122 
L 465.751371 220.119242 
L 465.455541 218.993363 
L 465.171264 217.867483 
L 464.899804 216.741603 
L 464.642368 215.615724 
L 464.40011 214.489844 
L 464.174136 213.363964 
L 463.965514 212.238085 
L 463.775278 211.112205 
L 463.604436 209.986325 
L 463.453985 208.860445 
L 463.32491 207.734566 
L 463.218191 206.608686 
L 463.134807 205.482806 
L 463.07573 204.356927 
L 463.041921 203.231047 
L 463.034318 202.105167 
L 463.053821 200.979288 
L 463.101271 199.853408 
L 463.177431 198.727528 
L 463.282956 197.601648 
L 463.418365 196.475769 
L 463.584014 195.349889 
L 463.780064 194.224009 
L 464.006458 193.09813 
L 464.262894 191.97225 
L 464.548807 190.84637 
L 464.863354 189.720491 
L 465.205407 188.594611 
L 465.573553 187.468731 
L 465.966098 186.342852 
L 466.381088 185.216972 
L 466.816325 184.091092 
L 467.269402 182.965212 
L 467.737734 181.839333 
L 468.218601 180.713453 
L 468.709194 179.587573 
L 469.206661 178.461694 
L 469.708154 177.335814 
L 470.210882 176.209934 
L 470.712151 175.084055 
L 471.209411 173.958175 
L 471.700294 172.832295 
L 472.182644 171.706416 
L 472.654546 170.580536 
L 473.114343 169.454656 
L 473.560649 168.328776 
L 473.992353 167.202897 
L 474.408619 166.077017 
L 474.808871 164.951137 
L 475.19278 163.825258 
L 475.560247 162.699378 
L 475.911374 161.573498 
L 476.246434 160.447619 
L 476.565847 159.321739 
L 476.870146 158.195859 
L 477.159945 157.06998 
L 477.435911 155.9441 
L 485.791362 155.9441 
L 485.791362 155.9441 
L 486.067328 157.06998 
L 486.357127 158.195859 
L 486.661426 159.321739 
L 486.980839 160.447619 
L 487.315899 161.573498 
L 487.667025 162.699378 
L 488.034492 163.825258 
L 488.418402 164.951137 
L 488.818654 166.077017 
L 489.234919 167.202897 
L 489.666624 168.328776 
L 490.11293 169.454656 
L 490.572727 170.580536 
L 491.044628 171.706416 
L 491.526978 172.832295 
L 492.017861 173.958175 
L 492.515122 175.084055 
L 493.016391 176.209934 
L 493.519119 177.335814 
L 494.020612 178.461694 
L 494.518079 179.587573 
L 495.008672 180.713453 
L 495.489539 181.839333 
L 495.957871 182.965212 
L 496.410948 184.091092 
L 496.846185 185.216972 
L 497.261175 186.342852 
L 497.65372 187.468731 
L 498.021865 188.594611 
L 498.363918 189.720491 
L 498.678465 190.84637 
L 498.964379 191.97225 
L 499.220815 193.09813 
L 499.447209 194.224009 
L 499.643259 195.349889 
L 499.808908 196.475769 
L 499.944317 197.601648 
L 500.049841 198.727528 
L 500.126002 199.853408 
L 500.173452 200.979288 
L 500.192955 202.105167 
L 500.185351 203.231047 
L 500.151542 204.356927 
L 500.092466 205.482806 
L 500.009082 206.608686 
L 499.902363 207.734566 
L 499.773288 208.860445 
L 499.622836 209.986325 
L 499.451995 211.112205 
L 499.261758 212.238085 
L 499.053136 213.363964 
L 498.827163 214.489844 
L 498.584905 215.615724 
L 498.327469 216.741603 
L 498.056009 217.867483 
L 497.771732 218.993363 
L 497.475902 220.119242 
L 497.169839 221.245122 
L 496.854916 222.371002 
L 496.532554 223.496881 
L 496.204215 224.622761 
L 495.871388 225.748641 
L 495.535574 226.874521 
L 495.198273 228.0004 
L 494.860966 229.12628 
L 494.525093 230.25216 
L 494.192033 231.378039 
L 493.863089 232.503919 
L 493.539462 233.629799 
L 493.222237 234.755678 
L 492.912362 235.881558 
L 492.610636 237.007438 
L 492.317694 238.133317 
L 492.033998 239.259197 
L 491.759828 240.385077 
L 491.495283 241.510957 
L 491.240275 242.636836 
L 490.99454 243.762716 
L 490.757642 244.888596 
L 490.528985 246.014475 
L 490.307831 247.140355 
L 490.09332 248.266235 
L 489.884488 249.392114 
L 489.680298 250.517994 
L 489.479663 251.643874 
L 489.281475 252.769753 
L 489.084634 253.895633 
L 488.888078 255.021513 
L 488.69081 256.147393 
L 488.491921 257.273272 
L 488.290619 258.399152 
L 488.086242 259.525032 
L 487.878283 260.650911 
L 487.666392 261.776791 
L 487.450393 262.902671 
L 487.230282 264.02855 
L 487.006226 265.15443 
L 486.778558 266.28031 
L 486.547766 267.406189 
z
" clip-path="url(#peccf2d4e36)" style="fill: #1f77b4; fill-opacity: 0.3"/>
   </g>
   <g id="PolyCollection_7">
    <path d="M 567.81546 240.0599 
L 544.046359 240.0599 
L 543.541479 239.27668 
L 543.041246 238.493459 
L 542.547935 237.710238 
L 542.063873 236.927018 
L 541.591421 236.143797 
L 541.132953 235.360576 
L 540.69084 234.577356 
L 540.267424 233.794135 
L 539.865003 233.010915 
L 539.485803 232.227694 
L 539.131962 231.444473 
L 538.805502 230.661253 
L 538.508314 229.878032 
L 538.242132 229.094811 
L 538.008516 228.311591 
L 537.808831 227.52837 
L 537.644233 226.745149 
L 537.515649 225.961929 
L 537.423767 225.178708 
L 537.369023 224.395487 
L 537.351591 223.612267 
L 537.371375 222.829046 
L 537.428009 222.045825 
L 537.52085 221.262605 
L 537.648982 220.479384 
L 537.811222 219.696163 
L 538.00612 218.912943 
L 538.231976 218.129722 
L 538.486846 217.346501 
L 538.768559 216.563281 
L 539.074736 215.78006 
L 539.402804 214.996839 
L 539.750022 214.213619 
L 540.113499 213.430398 
L 540.490225 212.647177 
L 540.877089 211.863957 
L 541.270911 211.080736 
L 541.668468 210.297515 
L 542.066521 209.514295 
L 542.461844 208.731074 
L 542.851248 207.947853 
L 543.231616 207.164633 
L 543.599922 206.381412 
L 543.953259 205.598192 
L 544.288868 204.814971 
L 544.604154 204.03175 
L 544.896712 203.24853 
L 545.164348 202.465309 
L 545.405093 201.682088 
L 545.617222 200.898868 
L 545.799266 200.115647 
L 545.950027 199.332426 
L 546.068582 198.549206 
L 546.154294 197.765985 
L 546.206817 196.982764 
L 546.226093 196.199544 
L 546.21236 195.416323 
L 546.16614 194.633102 
L 546.088243 193.849882 
L 545.979751 193.066661 
L 545.842016 192.28344 
L 545.676645 191.50022 
L 545.485483 190.716999 
L 545.270602 189.933778 
L 545.034282 189.150558 
L 544.778989 188.367337 
L 544.507356 187.584116 
L 544.222159 186.800896 
L 543.926294 186.017675 
L 543.622752 185.234454 
L 543.314592 184.451234 
L 543.004914 183.668013 
L 542.696835 182.884792 
L 542.393456 182.101572 
L 542.097843 181.318351 
L 541.812989 180.535131 
L 541.541801 179.75191 
L 541.287061 178.968689 
L 541.051411 178.185469 
L 540.83733 177.402248 
L 540.647104 176.619027 
L 540.482817 175.835807 
L 540.346327 175.052586 
L 540.239255 174.269365 
L 540.162968 173.486145 
L 540.118573 172.702924 
L 540.10691 171.919703 
L 540.128544 171.136483 
L 540.183767 170.353262 
L 540.272598 169.570041 
L 540.394786 168.786821 
L 540.549821 168.0036 
L 540.73694 167.220379 
L 540.95514 166.437159 
L 541.203193 165.653938 
L 541.479664 164.870717 
L 541.782927 164.087497 
L 542.111187 163.304276 
L 542.4625 162.521055 
L 569.399318 162.521055 
L 569.399318 162.521055 
L 569.750631 163.304276 
L 570.078891 164.087497 
L 570.382154 164.870717 
L 570.658625 165.653938 
L 570.906678 166.437159 
L 571.124878 167.220379 
L 571.311997 168.0036 
L 571.467032 168.786821 
L 571.58922 169.570041 
L 571.678051 170.353262 
L 571.733274 171.136483 
L 571.754908 171.919703 
L 571.743245 172.702924 
L 571.69885 173.486145 
L 571.622563 174.269365 
L 571.515491 175.052586 
L 571.379001 175.835807 
L 571.214714 176.619027 
L 571.024489 177.402248 
L 570.810407 178.185469 
L 570.574758 178.968689 
L 570.320018 179.75191 
L 570.048829 180.535131 
L 569.763976 181.318351 
L 569.468362 182.101572 
L 569.164983 182.884792 
L 568.856904 183.668013 
L 568.547227 184.451234 
L 568.239066 185.234454 
L 567.935524 186.017675 
L 567.63966 186.800896 
L 567.354463 187.584116 
L 567.082829 188.367337 
L 566.827536 189.150558 
L 566.591216 189.933778 
L 566.376336 190.716999 
L 566.185174 191.50022 
L 566.019802 192.28344 
L 565.882067 193.066661 
L 565.773576 193.849882 
L 565.695678 194.633102 
L 565.649458 195.416323 
L 565.635725 196.199544 
L 565.655001 196.982764 
L 565.707524 197.765985 
L 565.793236 198.549206 
L 565.911791 199.332426 
L 566.062552 200.115647 
L 566.244597 200.898868 
L 566.456725 201.682088 
L 566.69747 202.465309 
L 566.965106 203.24853 
L 567.257665 204.03175 
L 567.57295 204.814971 
L 567.908559 205.598192 
L 568.261896 206.381412 
L 568.630202 207.164633 
L 569.01057 207.947853 
L 569.399974 208.731074 
L 569.795297 209.514295 
L 570.19335 210.297515 
L 570.590907 211.080736 
L 570.98473 211.863957 
L 571.371594 212.647177 
L 571.748319 213.430398 
L 572.111797 214.213619 
L 572.459014 214.996839 
L 572.787082 215.78006 
L 573.093259 216.563281 
L 573.374972 217.346501 
L 573.629842 218.129722 
L 573.855698 218.912943 
L 574.050596 219.696163 
L 574.212836 220.479384 
L 574.340969 221.262605 
L 574.433809 222.045825 
L 574.490443 222.829046 
L 574.510227 223.612267 
L 574.492795 224.395487 
L 574.438051 225.178708 
L 574.346169 225.961929 
L 574.217586 226.745149 
L 574.052987 227.52837 
L 573.853302 228.311591 
L 573.619686 229.094811 
L 573.353504 229.878032 
L 573.056316 230.661253 
L 572.729856 231.444473 
L 572.376015 232.227694 
L 571.996815 233.010915 
L 571.594394 233.794135 
L 571.170978 234.577356 
L 570.728865 235.360576 
L 570.270397 236.143797 
L 569.797945 236.927018 
L 569.313883 237.710238 
L 568.820572 238.493459 
L 568.320339 239.27668 
L 567.81546 240.0599 
z
" clip-path="url(#peccf2d4e36)" style="fill: #1f77b4; fill-opacity: 0.3"/>
   </g>
   <g id="PolyCollection_8">
    <path d="M 644.450351 302.021745 
L 616.046013 302.021745 
L 615.819224 301.402861 
L 615.614882 300.783977 
L 615.433982 300.165093 
L 615.277399 299.546209 
L 615.145873 298.927324 
L 615.040006 298.30844 
L 614.960254 297.689556 
L 614.906919 297.070672 
L 614.880148 296.451788 
L 614.879926 295.832904 
L 614.906079 295.214019 
L 614.958268 294.595135 
L 615.035995 293.976251 
L 615.138602 293.357367 
L 615.265274 292.738483 
L 615.415046 292.119598 
L 615.586807 291.500714 
L 615.779309 290.88183 
L 615.991173 290.262946 
L 616.220898 289.644062 
L 616.466874 289.025178 
L 616.727388 288.406293 
L 617.00064 287.787409 
L 617.284753 287.168525 
L 617.577782 286.549641 
L 617.877732 285.930757 
L 618.18257 285.311872 
L 618.490233 284.692988 
L 618.798646 284.074104 
L 619.105735 283.45522 
L 619.409435 282.836336 
L 619.707706 282.217452 
L 619.998546 281.598567 
L 620.279998 280.979683 
L 620.550165 280.360799 
L 620.80722 279.741915 
L 621.049415 279.123031 
L 621.27509 278.504146 
L 621.482683 277.885262 
L 621.670737 277.266378 
L 621.83791 276.647494 
L 621.982977 276.02861 
L 622.104841 275.409726 
L 622.202537 274.790841 
L 622.275236 274.171957 
L 622.322247 273.553073 
L 622.343028 272.934189 
L 622.337181 272.315305 
L 622.304459 271.696421 
L 622.244766 271.077536 
L 622.158158 270.458652 
L 622.044843 269.839768 
L 621.905184 269.220884 
L 621.739694 268.602 
L 621.549037 267.983115 
L 621.334025 267.364231 
L 621.095614 266.745347 
L 620.834902 266.126463 
L 620.553126 265.507579 
L 620.251653 264.888695 
L 619.931976 264.26981 
L 619.59571 263.650926 
L 619.244578 263.032042 
L 618.880412 262.413158 
L 618.505135 261.794274 
L 618.120756 261.175389 
L 617.729359 260.556505 
L 617.333094 259.937621 
L 616.934157 259.318737 
L 616.534789 258.699853 
L 616.137253 258.080969 
L 615.743828 257.462084 
L 615.356789 256.8432 
L 614.978398 256.224316 
L 614.610886 255.605432 
L 614.25644 254.986548 
L 613.91719 254.367663 
L 613.595192 253.748779 
L 613.292416 253.129895 
L 613.010734 252.511011 
L 612.751902 251.892127 
L 612.517554 251.273243 
L 612.309187 250.654358 
L 612.128151 250.035474 
L 611.97564 249.41659 
L 611.852685 248.797706 
L 611.760145 248.178822 
L 611.698704 247.559938 
L 611.668864 246.941053 
L 611.670944 246.322169 
L 611.70508 245.703285 
L 611.771222 245.084401 
L 611.869139 244.465517 
L 611.998421 243.846632 
L 612.158483 243.227748 
L 612.348574 242.608864 
L 612.567782 241.98998 
L 612.815042 241.371096 
L 613.089151 240.752212 
L 647.407212 240.752212 
L 647.407212 240.752212 
L 647.681321 241.371096 
L 647.928582 241.98998 
L 648.147789 242.608864 
L 648.337881 243.227748 
L 648.497943 243.846632 
L 648.627225 244.465517 
L 648.725142 245.084401 
L 648.791284 245.703285 
L 648.82542 246.322169 
L 648.8275 246.941053 
L 648.79766 247.559938 
L 648.736219 248.178822 
L 648.643679 248.797706 
L 648.520724 249.41659 
L 648.368213 250.035474 
L 648.187177 250.654358 
L 647.978809 251.273243 
L 647.744461 251.892127 
L 647.48563 252.511011 
L 647.203947 253.129895 
L 646.901172 253.748779 
L 646.579174 254.367663 
L 646.239924 254.986548 
L 645.885478 255.605432 
L 645.517966 256.224316 
L 645.139574 256.8432 
L 644.752536 257.462084 
L 644.35911 258.080969 
L 643.961575 258.699853 
L 643.562206 259.318737 
L 643.16327 259.937621 
L 642.767004 260.556505 
L 642.375608 261.175389 
L 641.991229 261.794274 
L 641.615952 262.413158 
L 641.251785 263.032042 
L 640.900654 263.650926 
L 640.564387 264.26981 
L 640.244711 264.888695 
L 639.943238 265.507579 
L 639.661461 266.126463 
L 639.40075 266.745347 
L 639.162339 267.364231 
L 638.947326 267.983115 
L 638.756669 268.602 
L 638.59118 269.220884 
L 638.451521 269.839768 
L 638.338206 270.458652 
L 638.251598 271.077536 
L 638.191904 271.696421 
L 638.159182 272.315305 
L 638.153335 272.934189 
L 638.174116 273.553073 
L 638.221128 274.171957 
L 638.293826 274.790841 
L 638.391522 275.409726 
L 638.513387 276.02861 
L 638.658454 276.647494 
L 638.825626 277.266378 
L 639.013681 277.885262 
L 639.221274 278.504146 
L 639.446948 279.123031 
L 639.689143 279.741915 
L 639.946199 280.360799 
L 640.216366 280.979683 
L 640.497818 281.598567 
L 640.788658 282.217452 
L 641.086929 282.836336 
L 641.390629 283.45522 
L 641.697717 284.074104 
L 642.006131 284.692988 
L 642.313794 285.311872 
L 642.618631 285.930757 
L 642.918582 286.549641 
L 643.211611 287.168525 
L 643.495723 287.787409 
L 643.768976 288.406293 
L 644.02949 289.025178 
L 644.275466 289.644062 
L 644.505191 290.262946 
L 644.717055 290.88183 
L 644.909556 291.500714 
L 645.081318 292.119598 
L 645.23109 292.738483 
L 645.357762 293.357367 
L 645.460368 293.976251 
L 645.538096 294.595135 
L 645.590285 295.214019 
L 645.616438 295.832904 
L 645.616216 296.451788 
L 645.589445 297.070672 
L 645.53611 297.689556 
L 645.456358 298.30844 
L 645.350491 298.927324 
L 645.218965 299.546209 
L 645.062382 300.165093 
L 644.881482 300.783977 
L 644.67714 301.402861 
L 644.450351 302.021745 
z
" clip-path="url(#peccf2d4e36)" style="fill: #1f77b4; fill-opacity: 0.3"/>
   </g>
   <g id="PolyCollection_9">
    <path d="M 720.71862 306.521768 
L 688.412289 306.521768 
L 688.027857 305.535749 
L 687.676255 304.54973 
L 687.35856 303.563711 
L 687.075432 302.577692 
L 686.827104 301.591673 
L 686.613382 300.605654 
L 686.433648 299.619636 
L 686.286874 298.633617 
L 686.171646 297.647598 
L 686.086192 296.661579 
L 686.028415 295.67556 
L 685.995935 294.689541 
L 685.986136 293.703522 
L 685.996216 292.717503 
L 686.023239 291.731485 
L 686.064189 290.745466 
L 686.116026 289.759447 
L 686.175742 288.773428 
L 686.240412 287.787409 
L 686.307245 286.80139 
L 686.373632 285.815371 
L 686.437184 284.829353 
L 686.495773 283.843334 
L 686.547562 282.857315 
L 686.591027 281.871296 
L 686.624977 280.885277 
L 686.648564 279.899258 
L 686.661287 278.913239 
L 686.662991 277.927221 
L 686.653856 276.941202 
L 686.63438 275.955183 
L 686.605365 274.969164 
L 686.567886 273.983145 
L 686.523265 272.997126 
L 686.473036 272.011107 
L 686.418909 271.025089 
L 686.362737 270.03907 
L 686.306474 269.053051 
L 686.252138 268.067032 
L 686.201772 267.081013 
L 686.157407 266.094994 
L 686.12103 265.108975 
L 686.094547 264.122956 
L 686.079755 263.136938 
L 686.078315 262.150919 
L 686.091728 261.1649 
L 686.121316 260.178881 
L 686.168208 259.192862 
L 686.233323 258.206843 
L 686.317366 257.220824 
L 686.420824 256.234806 
L 686.543964 255.248787 
L 686.686835 254.262768 
L 686.849279 253.276749 
L 687.030935 252.29073 
L 687.231253 251.304711 
L 687.449511 250.318692 
L 687.684829 249.332674 
L 687.936185 248.346655 
L 688.202439 247.360636 
L 688.482351 246.374617 
L 688.774603 245.388598 
L 689.077816 244.402579 
L 689.390576 243.41656 
L 689.711454 242.430542 
L 690.039019 241.444523 
L 690.371866 240.458504 
L 690.708626 239.472485 
L 691.047986 238.486466 
L 691.388698 237.500447 
L 691.729598 236.514428 
L 692.069609 235.528409 
L 692.407756 234.542391 
L 692.743165 233.556372 
L 693.075072 232.570353 
L 693.402825 231.584334 
L 693.72588 230.598315 
L 694.043804 229.612296 
L 694.356268 228.626277 
L 694.663043 227.640259 
L 694.963994 226.65424 
L 695.259073 225.668221 
L 695.548306 224.682202 
L 695.83179 223.696183 
L 696.109678 222.710164 
L 696.38217 221.724145 
L 696.649503 220.738127 
L 696.911938 219.752108 
L 697.169753 218.766089 
L 697.42323 217.78007 
L 697.672647 216.794051 
L 697.918269 215.808032 
L 698.160341 214.822013 
L 698.399078 213.835995 
L 698.634663 212.849976 
L 698.867239 211.863957 
L 699.09691 210.877938 
L 699.323732 209.891919 
L 699.547718 208.9059 
L 709.583191 208.9059 
L 709.583191 208.9059 
L 709.807177 209.891919 
L 710.033999 210.877938 
L 710.26367 211.863957 
L 710.496247 212.849976 
L 710.731831 213.835995 
L 710.970568 214.822013 
L 711.21264 215.808032 
L 711.458262 216.794051 
L 711.707679 217.78007 
L 711.961156 218.766089 
L 712.218971 219.752108 
L 712.481406 220.738127 
L 712.748739 221.724145 
L 713.021231 222.710164 
L 713.299119 223.696183 
L 713.582603 224.682202 
L 713.871836 225.668221 
L 714.166915 226.65424 
L 714.467866 227.640259 
L 714.774641 228.626277 
L 715.087105 229.612296 
L 715.405029 230.598315 
L 715.728084 231.584334 
L 716.055837 232.570353 
L 716.387745 233.556372 
L 716.723153 234.542391 
L 717.0613 235.528409 
L 717.401311 236.514428 
L 717.742211 237.500447 
L 718.082923 238.486466 
L 718.422283 239.472485 
L 718.759043 240.458504 
L 719.09189 241.444523 
L 719.419455 242.430542 
L 719.740333 243.41656 
L 720.053093 244.402579 
L 720.356306 245.388598 
L 720.648558 246.374617 
L 720.92847 247.360636 
L 721.194724 248.346655 
L 721.44608 249.332674 
L 721.681398 250.318692 
L 721.899656 251.304711 
L 722.099975 252.29073 
L 722.28163 253.276749 
L 722.444074 254.262768 
L 722.586946 255.248787 
L 722.710085 256.234806 
L 722.813543 257.220824 
L 722.897586 258.206843 
L 722.962701 259.192862 
L 723.009593 260.178881 
L 723.039181 261.1649 
L 723.052594 262.150919 
L 723.051154 263.136938 
L 723.036362 264.122956 
L 723.009879 265.108975 
L 722.973502 266.094994 
L 722.929137 267.081013 
L 722.878771 268.067032 
L 722.824435 269.053051 
L 722.768172 270.03907 
L 722.712 271.025089 
L 722.657873 272.011107 
L 722.607644 272.997126 
L 722.563023 273.983145 
L 722.525544 274.969164 
L 722.496529 275.955183 
L 722.477054 276.941202 
L 722.467918 277.927221 
L 722.469622 278.913239 
L 722.482345 279.899258 
L 722.505932 280.885277 
L 722.539882 281.871296 
L 722.583347 282.857315 
L 722.635136 283.843334 
L 722.693725 284.829353 
L 722.757277 285.815371 
L 722.823664 286.80139 
L 722.890497 287.787409 
L 722.955167 288.773428 
L 723.014883 289.759447 
L 723.066721 290.745466 
L 723.10767 291.731485 
L 723.134693 292.717503 
L 723.144773 293.703522 
L 723.134974 294.689541 
L 723.102494 295.67556 
L 723.044717 296.661579 
L 722.959263 297.647598 
L 722.844035 298.633617 
L 722.697262 299.619636 
L 722.517527 300.605654 
L 722.303805 301.591673 
L 722.055477 302.577692 
L 721.772349 303.563711 
L 721.454654 304.54973 
L 721.103052 305.535749 
L 720.71862 306.521768 
z
" clip-path="url(#peccf2d4e36)" style="fill: #1f77b4; fill-opacity: 0.3"/>
   </g>
   <g id="PolyCollection_10">
    <path d="M 785.061784 323.829545 
L 772.703671 323.829545 
L 772.320755 322.812058 
L 771.932033 321.79457 
L 771.53871 320.777083 
L 771.142009 319.759595 
L 770.743159 318.742108 
L 770.343372 317.72462 
L 769.943831 316.707133 
L 769.545667 315.689645 
L 769.149943 314.672158 
L 768.75764 313.65467 
L 768.369637 312.637182 
L 767.986706 311.619695 
L 767.609498 310.602207 
L 767.238539 309.58472 
L 766.874229 308.567232 
L 766.51685 307.549745 
L 766.16657 306.532257 
L 765.823458 305.51477 
L 765.487507 304.497282 
L 765.158653 303.479794 
L 764.836801 302.462307 
L 764.521856 301.444819 
L 764.213753 300.427332 
L 763.912483 299.409844 
L 763.618125 298.392357 
L 763.330869 297.374869 
L 763.051035 296.357382 
L 762.779092 295.339894 
L 762.515661 294.322407 
L 762.261517 293.304919 
L 762.017584 292.287431 
L 761.784918 291.269944 
L 761.564686 290.252456 
L 761.358135 289.234969 
L 761.166559 288.217481 
L 760.991262 287.199994 
L 760.833516 286.182506 
L 760.69452 285.165019 
L 760.575362 284.147531 
L 760.476982 283.130043 
L 760.400145 282.112556 
L 760.345412 281.095068 
L 760.313126 280.077581 
L 760.303409 279.060093 
L 760.316159 278.042606 
L 760.351064 277.025118 
L 760.407621 276.007631 
L 760.485166 274.990143 
L 760.582903 273.972656 
L 760.699948 272.955168 
L 760.835366 271.93768 
L 760.988216 270.920193 
L 761.157587 269.902705 
L 761.34264 268.885218 
L 761.542634 267.86773 
L 761.756951 266.850243 
L 761.985114 265.832755 
L 762.226792 264.815268 
L 762.481793 263.79778 
L 762.750055 262.780292 
L 763.031624 261.762805 
L 763.326621 260.745317 
L 763.635205 259.72783 
L 763.957536 258.710342 
L 764.293725 257.692855 
L 764.643791 256.675367 
L 765.007619 255.65788 
L 765.384918 254.640392 
L 765.775189 253.622905 
L 766.177697 252.605417 
L 766.591457 251.587929 
L 767.015223 250.570442 
L 767.447495 249.552954 
L 767.886532 248.535467 
L 768.330379 247.517979 
L 768.7769 246.500492 
L 769.223822 245.483004 
L 769.668786 244.465517 
L 770.1094 243.448029 
L 770.543298 242.430542 
L 770.968196 241.413054 
L 771.381952 240.395566 
L 771.782612 239.378079 
L 772.168461 238.360591 
L 772.538059 237.343104 
L 772.89027 236.325616 
L 773.224283 235.308129 
L 773.539617 234.290641 
L 773.836123 233.273154 
L 774.113969 232.255666 
L 774.373619 231.238178 
L 774.615803 230.220691 
L 774.841479 229.203203 
L 775.05179 228.185716 
L 775.24802 227.168228 
L 775.431545 226.150741 
L 775.603784 225.133253 
L 775.766156 224.115766 
L 775.920035 223.098278 
L 781.845419 223.098278 
L 781.845419 223.098278 
L 781.999299 224.115766 
L 782.161671 225.133253 
L 782.33391 226.150741 
L 782.517434 227.168228 
L 782.713664 228.185716 
L 782.923976 229.203203 
L 783.149651 230.220691 
L 783.391835 231.238178 
L 783.651485 232.255666 
L 783.929332 233.273154 
L 784.225838 234.290641 
L 784.541172 235.308129 
L 784.875184 236.325616 
L 785.227396 237.343104 
L 785.596993 238.360591 
L 785.982842 239.378079 
L 786.383503 240.395566 
L 786.797258 241.413054 
L 787.222157 242.430542 
L 787.656055 243.448029 
L 788.096669 244.465517 
L 788.541633 245.483004 
L 788.988555 246.500492 
L 789.435076 247.517979 
L 789.878923 248.535467 
L 790.31796 249.552954 
L 790.750231 250.570442 
L 791.173997 251.587929 
L 791.587757 252.605417 
L 791.990266 253.622905 
L 792.380537 254.640392 
L 792.757836 255.65788 
L 793.121664 256.675367 
L 793.47173 257.692855 
L 793.807918 258.710342 
L 794.130249 259.72783 
L 794.438834 260.745317 
L 794.73383 261.762805 
L 795.015399 262.780292 
L 795.283662 263.79778 
L 795.538663 264.815268 
L 795.78034 265.832755 
L 796.008503 266.850243 
L 796.222821 267.86773 
L 796.422814 268.885218 
L 796.607867 269.902705 
L 796.777239 270.920193 
L 796.930088 271.93768 
L 797.065507 272.955168 
L 797.182552 273.972656 
L 797.280289 274.990143 
L 797.357833 276.007631 
L 797.414391 277.025118 
L 797.449296 278.042606 
L 797.462045 279.060093 
L 797.452328 280.077581 
L 797.420043 281.095068 
L 797.365309 282.112556 
L 797.288472 283.130043 
L 797.190093 284.147531 
L 797.070935 285.165019 
L 796.931939 286.182506 
L 796.774192 287.199994 
L 796.598895 288.217481 
L 796.407319 289.234969 
L 796.200768 290.252456 
L 795.980536 291.269944 
L 795.747871 292.287431 
L 795.503938 293.304919 
L 795.249794 294.322407 
L 794.986362 295.339894 
L 794.714419 296.357382 
L 794.434586 297.374869 
L 794.147329 298.392357 
L 793.852972 299.409844 
L 793.551702 300.427332 
L 793.243598 301.444819 
L 792.928654 302.462307 
L 792.606802 303.479794 
L 792.277947 304.497282 
L 791.941996 305.51477 
L 791.598885 306.532257 
L 791.248604 307.549745 
L 790.891225 308.567232 
L 790.526916 309.58472 
L 790.155956 310.602207 
L 789.778748 311.619695 
L 789.395817 312.637182 
L 789.007815 313.65467 
L 788.615511 314.672158 
L 788.219787 315.689645 
L 787.821623 316.707133 
L 787.422082 317.72462 
L 787.022296 318.742108 
L 786.623446 319.759595 
L 786.226745 320.777083 
L 785.833421 321.79457 
L 785.444699 322.812058 
L 785.061784 323.829545 
z
" clip-path="url(#peccf2d4e36)" style="fill: #1f77b4; fill-opacity: 0.3"/>
   </g>
   <g id="matplotlib.axis_1">
    <g id="xtick_1">
     <g id="line2d_1">
      <defs>
       <path id="m2354008aa3" d="M 0 0 
L 0 3.5 
" style="stroke: #000000; stroke-width: 0.8"/>
      </defs>
      <g>
       <use xlink:href="#m2354008aa3" x="110.027273" y="337.97" style="stroke: #000000; stroke-width: 0.8"/>
      </g>
     </g>
     <g id="text_1">
      <!-- Grudger -->
      <g transform="translate(112.234773 377.89625)rotate(-90)scale(0.08 -0.08)">
       <defs>
        <path id="DejaVuSans-47" d="M 3809 666 
L 3809 1919 
L 2778 1919 
L 2778 2438 
L 4434 2438 
L 4434 434 
Q 4069 175 3628 42 
Q 3188 -91 2688 -91 
Q 1594 -91 976 548 
Q 359 1188 359 2328 
Q 359 3472 976 4111 
Q 1594 4750 2688 4750 
Q 3144 4750 3555 4637 
Q 3966 4525 4313 4306 
L 4313 3634 
Q 3963 3931 3569 4081 
Q 3175 4231 2741 4231 
Q 1884 4231 1454 3753 
Q 1025 3275 1025 2328 
Q 1025 1384 1454 906 
Q 1884 428 2741 428 
Q 3075 428 3337 486 
Q 3600 544 3809 666 
z
" transform="scale(0.015625)"/>
        <path id="DejaVuSans-72" d="M 2631 2963 
Q 2534 3019 2420 3045 
Q 2306 3072 2169 3072 
Q 1681 3072 1420 2755 
Q 1159 2438 1159 1844 
L 1159 0 
L 581 0 
L 581 3500 
L 1159 3500 
L 1159 2956 
Q 1341 3275 1631 3429 
Q 1922 3584 2338 3584 
Q 2397 3584 2469 3576 
Q 2541 3569 2628 3553 
L 2631 2963 
z
" transform="scale(0.015625)"/>
        <path id="DejaVuSans-75" d="M 544 1381 
L 544 3500 
L 1119 3500 
L 1119 1403 
Q 1119 906 1312 657 
Q 1506 409 1894 409 
Q 2359 409 2629 706 
Q 2900 1003 2900 1516 
L 2900 3500 
L 3475 3500 
L 3475 0 
L 2900 0 
L 2900 538 
Q 2691 219 2414 64 
Q 2138 -91 1772 -91 
Q 1169 -91 856 284 
Q 544 659 544 1381 
z
M 1991 3584 
L 1991 3584 
z
" transform="scale(0.015625)"/>
        <path id="DejaVuSans-64" d="M 2906 2969 
L 2906 4863 
L 3481 4863 
L 3481 0 
L 2906 0 
L 2906 525 
Q 2725 213 2448 61 
Q 2172 -91 1784 -91 
Q 1150 -91 751 415 
Q 353 922 353 1747 
Q 353 2572 751 3078 
Q 1150 3584 1784 3584 
Q 2172 3584 2448 3432 
Q 2725 3281 2906 2969 
z
M 947 1747 
Q 947 1113 1208 752 
Q 1469 391 1925 391 
Q 2381 391 2643 752 
Q 2906 1113 2906 1747 
Q 2906 2381 2643 2742 
Q 2381 3103 1925 3103 
Q 1469 3103 1208 2742 
Q 947 2381 947 1747 
z
" transform="scale(0.015625)"/>
        <path id="DejaVuSans-67" d="M 2906 1791 
Q 2906 2416 2648 2759 
Q 2391 3103 1925 3103 
Q 1463 3103 1205 2759 
Q 947 2416 947 1791 
Q 947 1169 1205 825 
Q 1463 481 1925 481 
Q 2391 481 2648 825 
Q 2906 1169 2906 1791 
z
M 3481 434 
Q 3481 -459 3084 -895 
Q 2688 -1331 1869 -1331 
Q 1566 -1331 1297 -1286 
Q 1028 -1241 775 -1147 
L 775 -588 
Q 1028 -725 1275 -790 
Q 1522 -856 1778 -856 
Q 2344 -856 2625 -561 
Q 2906 -266 2906 331 
L 2906 616 
Q 2728 306 2450 153 
Q 2172 0 1784 0 
Q 1141 0 747 490 
Q 353 981 353 1791 
Q 353 2603 747 3093 
Q 1141 3584 1784 3584 
Q 2172 3584 2450 3431 
Q 2728 3278 2906 2969 
L 2906 3500 
L 3481 3500 
L 3481 434 
z
" transform="scale(0.015625)"/>
        <path id="DejaVuSans-65" d="M 3597 1894 
L 3597 1613 
L 953 1613 
Q 991 1019 1311 708 
Q 1631 397 2203 397 
Q 2534 397 2845 478 
Q 3156 559 3463 722 
L 3463 178 
Q 3153 47 2828 -22 
Q 2503 -91 2169 -91 
Q 1331 -91 842 396 
Q 353 884 353 1716 
Q 353 2575 817 3079 
Q 1281 3584 2069 3584 
Q 2775 3584 3186 3129 
Q 3597 2675 3597 1894 
z
M 3022 2063 
Q 3016 2534 2758 2815 
Q 2500 3097 2075 3097 
Q 1594 3097 1305 2825 
Q 1016 2553 972 2059 
L 3022 2063 
z
" transform="scale(0.015625)"/>
       </defs>
       <use xlink:href="#DejaVuSans-47"/>
       <use xlink:href="#DejaVuSans-72" x="77.490234"/>
       <use xlink:href="#DejaVuSans-75" x="118.603516"/>
       <use xlink:href="#DejaVuSans-64" x="181.982422"/>
       <use xlink:href="#DejaVuSans-67" x="245.458984"/>
       <use xlink:href="#DejaVuSans-65" x="308.935547"/>
       <use xlink:href="#DejaVuSans-72" x="370.458984"/>
      </g>
     </g>
    </g>
    <g id="xtick_2">
     <g id="line2d_2">
      <g>
       <use xlink:href="#m2354008aa3" x="184.344545" y="337.97" style="stroke: #000000; stroke-width: 0.8"/>
      </g>
     </g>
     <g id="text_2">
      <!-- Adaptive -->
      <g transform="translate(186.552045 380.37875)rotate(-90)scale(0.08 -0.08)">
       <defs>
        <path id="DejaVuSans-41" d="M 2188 4044 
L 1331 1722 
L 3047 1722 
L 2188 4044 
z
M 1831 4666 
L 2547 4666 
L 4325 0 
L 3669 0 
L 3244 1197 
L 1141 1197 
L 716 0 
L 50 0 
L 1831 4666 
z
" transform="scale(0.015625)"/>
        <path id="DejaVuSans-61" d="M 2194 1759 
Q 1497 1759 1228 1600 
Q 959 1441 959 1056 
Q 959 750 1161 570 
Q 1363 391 1709 391 
Q 2188 391 2477 730 
Q 2766 1069 2766 1631 
L 2766 1759 
L 2194 1759 
z
M 3341 1997 
L 3341 0 
L 2766 0 
L 2766 531 
Q 2569 213 2275 61 
Q 1981 -91 1556 -91 
Q 1019 -91 701 211 
Q 384 513 384 1019 
Q 384 1609 779 1909 
Q 1175 2209 1959 2209 
L 2766 2209 
L 2766 2266 
Q 2766 2663 2505 2880 
Q 2244 3097 1772 3097 
Q 1472 3097 1187 3025 
Q 903 2953 641 2809 
L 641 3341 
Q 956 3463 1253 3523 
Q 1550 3584 1831 3584 
Q 2591 3584 2966 3190 
Q 3341 2797 3341 1997 
z
" transform="scale(0.015625)"/>
        <path id="DejaVuSans-70" d="M 1159 525 
L 1159 -1331 
L 581 -1331 
L 581 3500 
L 1159 3500 
L 1159 2969 
Q 1341 3281 1617 3432 
Q 1894 3584 2278 3584 
Q 2916 3584 3314 3078 
Q 3713 2572 3713 1747 
Q 3713 922 3314 415 
Q 2916 -91 2278 -91 
Q 1894 -91 1617 61 
Q 1341 213 1159 525 
z
M 3116 1747 
Q 3116 2381 2855 2742 
Q 2594 3103 2138 3103 
Q 1681 3103 1420 2742 
Q 1159 2381 1159 1747 
Q 1159 1113 1420 752 
Q 1681 391 2138 391 
Q 2594 391 2855 752 
Q 3116 1113 3116 1747 
z
" transform="scale(0.015625)"/>
        <path id="DejaVuSans-74" d="M 1172 4494 
L 1172 3500 
L 2356 3500 
L 2356 3053 
L 1172 3053 
L 1172 1153 
Q 1172 725 1289 603 
Q 1406 481 1766 481 
L 2356 481 
L 2356 0 
L 1766 0 
Q 1100 0 847 248 
Q 594 497 594 1153 
L 594 3053 
L 172 3053 
L 172 3500 
L 594 3500 
L 594 4494 
L 1172 4494 
z
" transform="scale(0.015625)"/>
        <path id="DejaVuSans-69" d="M 603 3500 
L 1178 3500 
L 1178 0 
L 603 0 
L 603 3500 
z
M 603 4863 
L 1178 4863 
L 1178 4134 
L 603 4134 
L 603 4863 
z
" transform="scale(0.015625)"/>
        <path id="DejaVuSans-76" d="M 191 3500 
L 800 3500 
L 1894 563 
L 2988 3500 
L 3597 3500 
L 2284 0 
L 1503 0 
L 191 3500 
z
" transform="scale(0.015625)"/>
       </defs>
       <use xlink:href="#DejaVuSans-41"/>
       <use xlink:href="#DejaVuSans-64" x="66.658203"/>
       <use xlink:href="#DejaVuSans-61" x="130.134766"/>
       <use xlink:href="#DejaVuSans-70" x="191.414062"/>
       <use xlink:href="#DejaVuSans-74" x="254.890625"/>
       <use xlink:href="#DejaVuSans-69" x="294.099609"/>
       <use xlink:href="#DejaVuSans-76" x="321.882812"/>
       <use xlink:href="#DejaVuSans-65" x="381.0625"/>
      </g>
     </g>
    </g>
    <g id="xtick_3">
     <g id="line2d_3">
      <g>
       <use xlink:href="#m2354008aa3" x="258.661818" y="337.97" style="stroke: #000000; stroke-width: 0.8"/>
      </g>
     </g>
     <g id="text_3">
      <!-- Defector -->
      <g transform="translate(260.869318 379.51)rotate(-90)scale(0.08 -0.08)">
       <defs>
        <path id="DejaVuSans-44" d="M 1259 4147 
L 1259 519 
L 2022 519 
Q 2988 519 3436 956 
Q 3884 1394 3884 2338 
Q 3884 3275 3436 3711 
Q 2988 4147 2022 4147 
L 1259 4147 
z
M 628 4666 
L 1925 4666 
Q 3281 4666 3915 4102 
Q 4550 3538 4550 2338 
Q 4550 1131 3912 565 
Q 3275 0 1925 0 
L 628 0 
L 628 4666 
z
" transform="scale(0.015625)"/>
        <path id="DejaVuSans-66" d="M 2375 4863 
L 2375 4384 
L 1825 4384 
Q 1516 4384 1395 4259 
Q 1275 4134 1275 3809 
L 1275 3500 
L 2222 3500 
L 2222 3053 
L 1275 3053 
L 1275 0 
L 697 0 
L 697 3053 
L 147 3053 
L 147 3500 
L 697 3500 
L 697 3744 
Q 697 4328 969 4595 
Q 1241 4863 1831 4863 
L 2375 4863 
z
" transform="scale(0.015625)"/>
        <path id="DejaVuSans-63" d="M 3122 3366 
L 3122 2828 
Q 2878 2963 2633 3030 
Q 2388 3097 2138 3097 
Q 1578 3097 1268 2742 
Q 959 2388 959 1747 
Q 959 1106 1268 751 
Q 1578 397 2138 397 
Q 2388 397 2633 464 
Q 2878 531 3122 666 
L 3122 134 
Q 2881 22 2623 -34 
Q 2366 -91 2075 -91 
Q 1284 -91 818 406 
Q 353 903 353 1747 
Q 353 2603 823 3093 
Q 1294 3584 2113 3584 
Q 2378 3584 2631 3529 
Q 2884 3475 3122 3366 
z
" transform="scale(0.015625)"/>
        <path id="DejaVuSans-6f" d="M 1959 3097 
Q 1497 3097 1228 2736 
Q 959 2375 959 1747 
Q 959 1119 1226 758 
Q 1494 397 1959 397 
Q 2419 397 2687 759 
Q 2956 1122 2956 1747 
Q 2956 2369 2687 2733 
Q 2419 3097 1959 3097 
z
M 1959 3584 
Q 2709 3584 3137 3096 
Q 3566 2609 3566 1747 
Q 3566 888 3137 398 
Q 2709 -91 1959 -91 
Q 1206 -91 779 398 
Q 353 888 353 1747 
Q 353 2609 779 3096 
Q 1206 3584 1959 3584 
z
" transform="scale(0.015625)"/>
       </defs>
       <use xlink:href="#DejaVuSans-44"/>
       <use xlink:href="#DejaVuSans-65" x="77.001953"/>
       <use xlink:href="#DejaVuSans-66" x="138.525391"/>
       <use xlink:href="#DejaVuSans-65" x="173.730469"/>
       <use xlink:href="#DejaVuSans-63" x="235.253906"/>
       <use xlink:href="#DejaVuSans-74" x="290.234375"/>
       <use xlink:href="#DejaVuSans-6f" x="329.443359"/>
       <use xlink:href="#DejaVuSans-72" x="390.625"/>
      </g>
     </g>
    </g>
    <g id="xtick_4">
     <g id="line2d_4">
      <g>
       <use xlink:href="#m2354008aa3" x="332.979091" y="337.97" style="stroke: #000000; stroke-width: 0.8"/>
      </g>
     </g>
     <g id="text_4">
      <!-- Random: 0.5 -->
      <g transform="translate(335.186591 396.0475)rotate(-90)scale(0.08 -0.08)">
       <defs>
        <path id="DejaVuSans-52" d="M 2841 2188 
Q 3044 2119 3236 1894 
Q 3428 1669 3622 1275 
L 4263 0 
L 3584 0 
L 2988 1197 
Q 2756 1666 2539 1819 
Q 2322 1972 1947 1972 
L 1259 1972 
L 1259 0 
L 628 0 
L 628 4666 
L 2053 4666 
Q 2853 4666 3247 4331 
Q 3641 3997 3641 3322 
Q 3641 2881 3436 2590 
Q 3231 2300 2841 2188 
z
M 1259 4147 
L 1259 2491 
L 2053 2491 
Q 2509 2491 2742 2702 
Q 2975 2913 2975 3322 
Q 2975 3731 2742 3939 
Q 2509 4147 2053 4147 
L 1259 4147 
z
" transform="scale(0.015625)"/>
        <path id="DejaVuSans-6e" d="M 3513 2113 
L 3513 0 
L 2938 0 
L 2938 2094 
Q 2938 2591 2744 2837 
Q 2550 3084 2163 3084 
Q 1697 3084 1428 2787 
Q 1159 2491 1159 1978 
L 1159 0 
L 581 0 
L 581 3500 
L 1159 3500 
L 1159 2956 
Q 1366 3272 1645 3428 
Q 1925 3584 2291 3584 
Q 2894 3584 3203 3211 
Q 3513 2838 3513 2113 
z
" transform="scale(0.015625)"/>
        <path id="DejaVuSans-6d" d="M 3328 2828 
Q 3544 3216 3844 3400 
Q 4144 3584 4550 3584 
Q 5097 3584 5394 3201 
Q 5691 2819 5691 2113 
L 5691 0 
L 5113 0 
L 5113 2094 
Q 5113 2597 4934 2840 
Q 4756 3084 4391 3084 
Q 3944 3084 3684 2787 
Q 3425 2491 3425 1978 
L 3425 0 
L 2847 0 
L 2847 2094 
Q 2847 2600 2669 2842 
Q 2491 3084 2119 3084 
Q 1678 3084 1418 2786 
Q 1159 2488 1159 1978 
L 1159 0 
L 581 0 
L 581 3500 
L 1159 3500 
L 1159 2956 
Q 1356 3278 1631 3431 
Q 1906 3584 2284 3584 
Q 2666 3584 2933 3390 
Q 3200 3197 3328 2828 
z
" transform="scale(0.015625)"/>
        <path id="DejaVuSans-3a" d="M 750 794 
L 1409 794 
L 1409 0 
L 750 0 
L 750 794 
z
M 750 3309 
L 1409 3309 
L 1409 2516 
L 750 2516 
L 750 3309 
z
" transform="scale(0.015625)"/>
        <path id="DejaVuSans-20" transform="scale(0.015625)"/>
        <path id="DejaVuSans-30" d="M 2034 4250 
Q 1547 4250 1301 3770 
Q 1056 3291 1056 2328 
Q 1056 1369 1301 889 
Q 1547 409 2034 409 
Q 2525 409 2770 889 
Q 3016 1369 3016 2328 
Q 3016 3291 2770 3770 
Q 2525 4250 2034 4250 
z
M 2034 4750 
Q 2819 4750 3233 4129 
Q 3647 3509 3647 2328 
Q 3647 1150 3233 529 
Q 2819 -91 2034 -91 
Q 1250 -91 836 529 
Q 422 1150 422 2328 
Q 422 3509 836 4129 
Q 1250 4750 2034 4750 
z
" transform="scale(0.015625)"/>
        <path id="DejaVuSans-2e" d="M 684 794 
L 1344 794 
L 1344 0 
L 684 0 
L 684 794 
z
" transform="scale(0.015625)"/>
        <path id="DejaVuSans-35" d="M 691 4666 
L 3169 4666 
L 3169 4134 
L 1269 4134 
L 1269 2991 
Q 1406 3038 1543 3061 
Q 1681 3084 1819 3084 
Q 2600 3084 3056 2656 
Q 3513 2228 3513 1497 
Q 3513 744 3044 326 
Q 2575 -91 1722 -91 
Q 1428 -91 1123 -41 
Q 819 9 494 109 
L 494 744 
Q 775 591 1075 516 
Q 1375 441 1709 441 
Q 2250 441 2565 725 
Q 2881 1009 2881 1497 
Q 2881 1984 2565 2268 
Q 2250 2553 1709 2553 
Q 1456 2553 1204 2497 
Q 953 2441 691 2322 
L 691 4666 
z
" transform="scale(0.015625)"/>
       </defs>
       <use xlink:href="#DejaVuSans-52"/>
       <use xlink:href="#DejaVuSans-61" x="67.232422"/>
       <use xlink:href="#DejaVuSans-6e" x="128.511719"/>
       <use xlink:href="#DejaVuSans-64" x="191.890625"/>
       <use xlink:href="#DejaVuSans-6f" x="255.367188"/>
       <use xlink:href="#DejaVuSans-6d" x="316.548828"/>
       <use xlink:href="#DejaVuSans-3a" x="413.960938"/>
       <use xlink:href="#DejaVuSans-20" x="447.652344"/>
       <use xlink:href="#DejaVuSans-30" x="479.439453"/>
       <use xlink:href="#DejaVuSans-2e" x="543.0625"/>
       <use xlink:href="#DejaVuSans-35" x="574.849609"/>
      </g>
     </g>
    </g>
    <g id="xtick_5">
     <g id="line2d_5">
      <g>
       <use xlink:href="#m2354008aa3" x="407.296364" y="337.97" style="stroke: #000000; stroke-width: 0.8"/>
      </g>
     </g>
     <g id="text_5">
      <!-- Tit For Tat -->
      <g transform="translate(409.503864 384.15)rotate(-90)scale(0.08 -0.08)">
       <defs>
        <path id="DejaVuSans-54" d="M -19 4666 
L 3928 4666 
L 3928 4134 
L 2272 4134 
L 2272 0 
L 1638 0 
L 1638 4134 
L -19 4134 
L -19 4666 
z
" transform="scale(0.015625)"/>
        <path id="DejaVuSans-46" d="M 628 4666 
L 3309 4666 
L 3309 4134 
L 1259 4134 
L 1259 2759 
L 3109 2759 
L 3109 2228 
L 1259 2228 
L 1259 0 
L 628 0 
L 628 4666 
z
" transform="scale(0.015625)"/>
       </defs>
       <use xlink:href="#DejaVuSans-54"/>
       <use xlink:href="#DejaVuSans-69" x="57.958984"/>
       <use xlink:href="#DejaVuSans-74" x="85.742188"/>
       <use xlink:href="#DejaVuSans-20" x="124.951172"/>
       <use xlink:href="#DejaVuSans-46" x="156.738281"/>
       <use xlink:href="#DejaVuSans-6f" x="210.632812"/>
       <use xlink:href="#DejaVuSans-72" x="271.814453"/>
       <use xlink:href="#DejaVuSans-20" x="312.927734"/>
       <use xlink:href="#DejaVuSans-54" x="344.714844"/>
       <use xlink:href="#DejaVuSans-61" x="389.298828"/>
       <use xlink:href="#DejaVuSans-74" x="450.578125"/>
      </g>
     </g>
    </g>
    <g id="xtick_6">
     <g id="line2d_6">
      <g>
       <use xlink:href="#m2354008aa3" x="481.613636" y="337.97" style="stroke: #000000; stroke-width: 0.8"/>
      </g>
     </g>
     <g id="text_6">
      <!-- Deep QLearner -->
      <g transform="translate(483.821136 405.46625)rotate(-90)scale(0.08 -0.08)">
       <defs>
        <path id="DejaVuSans-51" d="M 2522 4238 
Q 1834 4238 1429 3725 
Q 1025 3213 1025 2328 
Q 1025 1447 1429 934 
Q 1834 422 2522 422 
Q 3209 422 3611 934 
Q 4013 1447 4013 2328 
Q 4013 3213 3611 3725 
Q 3209 4238 2522 4238 
z
M 3406 84 
L 4238 -825 
L 3475 -825 
L 2784 -78 
Q 2681 -84 2626 -87 
Q 2572 -91 2522 -91 
Q 1538 -91 948 567 
Q 359 1225 359 2328 
Q 359 3434 948 4092 
Q 1538 4750 2522 4750 
Q 3503 4750 4090 4092 
Q 4678 3434 4678 2328 
Q 4678 1516 4351 937 
Q 4025 359 3406 84 
z
" transform="scale(0.015625)"/>
        <path id="DejaVuSans-4c" d="M 628 4666 
L 1259 4666 
L 1259 531 
L 3531 531 
L 3531 0 
L 628 0 
L 628 4666 
z
" transform="scale(0.015625)"/>
       </defs>
       <use xlink:href="#DejaVuSans-44"/>
       <use xlink:href="#DejaVuSans-65" x="77.001953"/>
       <use xlink:href="#DejaVuSans-65" x="138.525391"/>
       <use xlink:href="#DejaVuSans-70" x="200.048828"/>
       <use xlink:href="#DejaVuSans-20" x="263.525391"/>
       <use xlink:href="#DejaVuSans-51" x="295.3125"/>
       <use xlink:href="#DejaVuSans-4c" x="374.023438"/>
       <use xlink:href="#DejaVuSans-65" x="427.986328"/>
       <use xlink:href="#DejaVuSans-61" x="489.509766"/>
       <use xlink:href="#DejaVuSans-72" x="550.789062"/>
       <use xlink:href="#DejaVuSans-6e" x="590.152344"/>
       <use xlink:href="#DejaVuSans-65" x="653.53125"/>
       <use xlink:href="#DejaVuSans-72" x="715.054688"/>
      </g>
     </g>
    </g>
    <g id="xtick_7">
     <g id="line2d_7">
      <g>
       <use xlink:href="#m2354008aa3" x="555.930909" y="337.97" style="stroke: #000000; stroke-width: 0.8"/>
      </g>
     </g>
     <g id="text_7">
      <!-- Alternator -->
      <g transform="translate(558.138409 385.165)rotate(-90)scale(0.08 -0.08)">
       <defs>
        <path id="DejaVuSans-6c" d="M 603 4863 
L 1178 4863 
L 1178 0 
L 603 0 
L 603 4863 
z
" transform="scale(0.015625)"/>
       </defs>
       <use xlink:href="#DejaVuSans-41"/>
       <use xlink:href="#DejaVuSans-6c" x="68.408203"/>
       <use xlink:href="#DejaVuSans-74" x="96.191406"/>
       <use xlink:href="#DejaVuSans-65" x="135.400391"/>
       <use xlink:href="#DejaVuSans-72" x="196.923828"/>
       <use xlink:href="#DejaVuSans-6e" x="236.287109"/>
       <use xlink:href="#DejaVuSans-61" x="299.666016"/>
       <use xlink:href="#DejaVuSans-74" x="360.945312"/>
       <use xlink:href="#DejaVuSans-6f" x="400.154297"/>
       <use xlink:href="#DejaVuSans-72" x="461.335938"/>
      </g>
     </g>
    </g>
    <g id="xtick_8">
     <g id="line2d_8">
      <g>
       <use xlink:href="#m2354008aa3" x="630.248182" y="337.97" style="stroke: #000000; stroke-width: 0.8"/>
      </g>
     </g>
     <g id="text_8">
      <!-- Cooperator -->
      <g transform="translate(632.455682 389.85875)rotate(-90)scale(0.08 -0.08)">
       <defs>
        <path id="DejaVuSans-43" d="M 4122 4306 
L 4122 3641 
Q 3803 3938 3442 4084 
Q 3081 4231 2675 4231 
Q 1875 4231 1450 3742 
Q 1025 3253 1025 2328 
Q 1025 1406 1450 917 
Q 1875 428 2675 428 
Q 3081 428 3442 575 
Q 3803 722 4122 1019 
L 4122 359 
Q 3791 134 3420 21 
Q 3050 -91 2638 -91 
Q 1578 -91 968 557 
Q 359 1206 359 2328 
Q 359 3453 968 4101 
Q 1578 4750 2638 4750 
Q 3056 4750 3426 4639 
Q 3797 4528 4122 4306 
z
" transform="scale(0.015625)"/>
       </defs>
       <use xlink:href="#DejaVuSans-43"/>
       <use xlink:href="#DejaVuSans-6f" x="69.824219"/>
       <use xlink:href="#DejaVuSans-6f" x="131.005859"/>
       <use xlink:href="#DejaVuSans-70" x="192.1875"/>
       <use xlink:href="#DejaVuSans-65" x="255.664062"/>
       <use xlink:href="#DejaVuSans-72" x="317.1875"/>
       <use xlink:href="#DejaVuSans-61" x="358.300781"/>
       <use xlink:href="#DejaVuSans-74" x="419.580078"/>
       <use xlink:href="#DejaVuSans-6f" x="458.789062"/>
       <use xlink:href="#DejaVuSans-72" x="519.970703"/>
      </g>
     </g>
    </g>
    <g id="xtick_9">
     <g id="line2d_9">
      <g>
       <use xlink:href="#m2354008aa3" x="704.565455" y="337.97" style="stroke: #000000; stroke-width: 0.8"/>
      </g>
     </g>
     <g id="text_9">
      <!-- Risky QLearner -->
      <g transform="translate(706.772955 405.40875)rotate(-90)scale(0.08 -0.08)">
       <defs>
        <path id="DejaVuSans-73" d="M 2834 3397 
L 2834 2853 
Q 2591 2978 2328 3040 
Q 2066 3103 1784 3103 
Q 1356 3103 1142 2972 
Q 928 2841 928 2578 
Q 928 2378 1081 2264 
Q 1234 2150 1697 2047 
L 1894 2003 
Q 2506 1872 2764 1633 
Q 3022 1394 3022 966 
Q 3022 478 2636 193 
Q 2250 -91 1575 -91 
Q 1294 -91 989 -36 
Q 684 19 347 128 
L 347 722 
Q 666 556 975 473 
Q 1284 391 1588 391 
Q 1994 391 2212 530 
Q 2431 669 2431 922 
Q 2431 1156 2273 1281 
Q 2116 1406 1581 1522 
L 1381 1569 
Q 847 1681 609 1914 
Q 372 2147 372 2553 
Q 372 3047 722 3315 
Q 1072 3584 1716 3584 
Q 2034 3584 2315 3537 
Q 2597 3491 2834 3397 
z
" transform="scale(0.015625)"/>
        <path id="DejaVuSans-6b" d="M 581 4863 
L 1159 4863 
L 1159 1991 
L 2875 3500 
L 3609 3500 
L 1753 1863 
L 3688 0 
L 2938 0 
L 1159 1709 
L 1159 0 
L 581 0 
L 581 4863 
z
" transform="scale(0.015625)"/>
        <path id="DejaVuSans-79" d="M 2059 -325 
Q 1816 -950 1584 -1140 
Q 1353 -1331 966 -1331 
L 506 -1331 
L 506 -850 
L 844 -850 
Q 1081 -850 1212 -737 
Q 1344 -625 1503 -206 
L 1606 56 
L 191 3500 
L 800 3500 
L 1894 763 
L 2988 3500 
L 3597 3500 
L 2059 -325 
z
" transform="scale(0.015625)"/>
       </defs>
       <use xlink:href="#DejaVuSans-52"/>
       <use xlink:href="#DejaVuSans-69" x="69.482422"/>
       <use xlink:href="#DejaVuSans-73" x="97.265625"/>
       <use xlink:href="#DejaVuSans-6b" x="149.365234"/>
       <use xlink:href="#DejaVuSans-79" x="203.650391"/>
       <use xlink:href="#DejaVuSans-20" x="262.830078"/>
       <use xlink:href="#DejaVuSans-51" x="294.617188"/>
       <use xlink:href="#DejaVuSans-4c" x="373.328125"/>
       <use xlink:href="#DejaVuSans-65" x="427.291016"/>
       <use xlink:href="#DejaVuSans-61" x="488.814453"/>
       <use xlink:href="#DejaVuSans-72" x="550.09375"/>
       <use xlink:href="#DejaVuSans-6e" x="589.457031"/>
       <use xlink:href="#DejaVuSans-65" x="652.835938"/>
       <use xlink:href="#DejaVuSans-72" x="714.359375"/>
      </g>
     </g>
    </g>
    <g id="xtick_10">
     <g id="line2d_10">
      <g>
       <use xlink:href="#m2354008aa3" x="778.882727" y="337.97" style="stroke: #000000; stroke-width: 0.8"/>
      </g>
     </g>
     <g id="text_10">
      <!-- Mediocre QLearner -->
      <g transform="translate(781.090227 420.83375)rotate(-90)scale(0.08 -0.08)">
       <defs>
        <path id="DejaVuSans-4d" d="M 628 4666 
L 1569 4666 
L 2759 1491 
L 3956 4666 
L 4897 4666 
L 4897 0 
L 4281 0 
L 4281 4097 
L 3078 897 
L 2444 897 
L 1241 4097 
L 1241 0 
L 628 0 
L 628 4666 
z
" transform="scale(0.015625)"/>
       </defs>
       <use xlink:href="#DejaVuSans-4d"/>
       <use xlink:href="#DejaVuSans-65" x="86.279297"/>
       <use xlink:href="#DejaVuSans-64" x="147.802734"/>
       <use xlink:href="#DejaVuSans-69" x="211.279297"/>
       <use xlink:href="#DejaVuSans-6f" x="239.0625"/>
       <use xlink:href="#DejaVuSans-63" x="300.244141"/>
       <use xlink:href="#DejaVuSans-72" x="355.224609"/>
       <use xlink:href="#DejaVuSans-65" x="394.087891"/>
       <use xlink:href="#DejaVuSans-20" x="455.611328"/>
       <use xlink:href="#DejaVuSans-51" x="487.398438"/>
       <use xlink:href="#DejaVuSans-4c" x="566.109375"/>
       <use xlink:href="#DejaVuSans-65" x="620.072266"/>
       <use xlink:href="#DejaVuSans-61" x="681.595703"/>
       <use xlink:href="#DejaVuSans-72" x="742.875"/>
       <use xlink:href="#DejaVuSans-6e" x="782.238281"/>
       <use xlink:href="#DejaVuSans-65" x="845.617188"/>
       <use xlink:href="#DejaVuSans-72" x="907.140625"/>
      </g>
     </g>
    </g>
   </g>
   <g id="matplotlib.axis_2">
    <g id="ytick_1">
     <g id="line2d_11">
      <defs>
       <path id="m3b9d13ca16" d="M 0 0 
L -3.5 0 
" style="stroke: #000000; stroke-width: 0.8"/>
      </defs>
      <g>
       <use xlink:href="#m3b9d13ca16" x="35.71" y="322.791079" style="stroke: #000000; stroke-width: 0.8"/>
      </g>
     </g>
     <g id="text_11">
      <!-- 1.50 -->
      <g transform="translate(10.8975 325.830454)scale(0.08 -0.08)">
       <defs>
        <path id="DejaVuSans-31" d="M 794 531 
L 1825 531 
L 1825 4091 
L 703 3866 
L 703 4441 
L 1819 4666 
L 2450 4666 
L 2450 531 
L 3481 531 
L 3481 0 
L 794 0 
L 794 531 
z
" transform="scale(0.015625)"/>
       </defs>
       <use xlink:href="#DejaVuSans-31"/>
       <use xlink:href="#DejaVuSans-2e" x="63.623047"/>
       <use xlink:href="#DejaVuSans-35" x="95.410156"/>
       <use xlink:href="#DejaVuSans-30" x="159.033203"/>
      </g>
     </g>
    </g>
    <g id="ytick_2">
     <g id="line2d_12">
      <g>
       <use xlink:href="#m3b9d13ca16" x="35.71" y="283.848579" style="stroke: #000000; stroke-width: 0.8"/>
      </g>
     </g>
     <g id="text_12">
      <!-- 1.75 -->
      <g transform="translate(10.8975 286.887954)scale(0.08 -0.08)">
       <defs>
        <path id="DejaVuSans-37" d="M 525 4666 
L 3525 4666 
L 3525 4397 
L 1831 0 
L 1172 0 
L 2766 4134 
L 525 4134 
L 525 4666 
z
" transform="scale(0.015625)"/>
       </defs>
       <use xlink:href="#DejaVuSans-31"/>
       <use xlink:href="#DejaVuSans-2e" x="63.623047"/>
       <use xlink:href="#DejaVuSans-37" x="95.410156"/>
       <use xlink:href="#DejaVuSans-35" x="159.033203"/>
      </g>
     </g>
    </g>
    <g id="ytick_3">
     <g id="line2d_13">
      <g>
       <use xlink:href="#m3b9d13ca16" x="35.71" y="244.906078" style="stroke: #000000; stroke-width: 0.8"/>
      </g>
     </g>
     <g id="text_13">
      <!-- 2.00 -->
      <g transform="translate(10.8975 247.945453)scale(0.08 -0.08)">
       <defs>
        <path id="DejaVuSans-32" d="M 1228 531 
L 3431 531 
L 3431 0 
L 469 0 
L 469 531 
Q 828 903 1448 1529 
Q 2069 2156 2228 2338 
Q 2531 2678 2651 2914 
Q 2772 3150 2772 3378 
Q 2772 3750 2511 3984 
Q 2250 4219 1831 4219 
Q 1534 4219 1204 4116 
Q 875 4013 500 3803 
L 500 4441 
Q 881 4594 1212 4672 
Q 1544 4750 1819 4750 
Q 2544 4750 2975 4387 
Q 3406 4025 3406 3419 
Q 3406 3131 3298 2873 
Q 3191 2616 2906 2266 
Q 2828 2175 2409 1742 
Q 1991 1309 1228 531 
z
" transform="scale(0.015625)"/>
       </defs>
       <use xlink:href="#DejaVuSans-32"/>
       <use xlink:href="#DejaVuSans-2e" x="63.623047"/>
       <use xlink:href="#DejaVuSans-30" x="95.410156"/>
       <use xlink:href="#DejaVuSans-30" x="159.033203"/>
      </g>
     </g>
    </g>
    <g id="ytick_4">
     <g id="line2d_14">
      <g>
       <use xlink:href="#m3b9d13ca16" x="35.71" y="205.963578" style="stroke: #000000; stroke-width: 0.8"/>
      </g>
     </g>
     <g id="text_14">
      <!-- 2.25 -->
      <g transform="translate(10.8975 209.002953)scale(0.08 -0.08)">
       <use xlink:href="#DejaVuSans-32"/>
       <use xlink:href="#DejaVuSans-2e" x="63.623047"/>
       <use xlink:href="#DejaVuSans-32" x="95.410156"/>
       <use xlink:href="#DejaVuSans-35" x="159.033203"/>
      </g>
     </g>
    </g>
    <g id="ytick_5">
     <g id="line2d_15">
      <g>
       <use xlink:href="#m3b9d13ca16" x="35.71" y="167.021078" style="stroke: #000000; stroke-width: 0.8"/>
      </g>
     </g>
     <g id="text_15">
      <!-- 2.50 -->
      <g transform="translate(10.8975 170.060453)scale(0.08 -0.08)">
       <use xlink:href="#DejaVuSans-32"/>
       <use xlink:href="#DejaVuSans-2e" x="63.623047"/>
       <use xlink:href="#DejaVuSans-35" x="95.410156"/>
       <use xlink:href="#DejaVuSans-30" x="159.033203"/>
      </g>
     </g>
    </g>
    <g id="ytick_6">
     <g id="line2d_16">
      <g>
       <use xlink:href="#m3b9d13ca16" x="35.71" y="128.078577" style="stroke: #000000; stroke-width: 0.8"/>
      </g>
     </g>
     <g id="text_16">
      <!-- 2.75 -->
      <g transform="translate(10.8975 131.117952)scale(0.08 -0.08)">
       <use xlink:href="#DejaVuSans-32"/>
       <use xlink:href="#DejaVuSans-2e" x="63.623047"/>
       <use xlink:href="#DejaVuSans-37" x="95.410156"/>
       <use xlink:href="#DejaVuSans-35" x="159.033203"/>
      </g>
     </g>
    </g>
    <g id="ytick_7">
     <g id="line2d_17">
      <g>
       <use xlink:href="#m3b9d13ca16" x="35.71" y="89.136077" style="stroke: #000000; stroke-width: 0.8"/>
      </g>
     </g>
     <g id="text_17">
      <!-- 3.00 -->
      <g transform="translate(10.8975 92.175452)scale(0.08 -0.08)">
       <defs>
        <path id="DejaVuSans-33" d="M 2597 2516 
Q 3050 2419 3304 2112 
Q 3559 1806 3559 1356 
Q 3559 666 3084 287 
Q 2609 -91 1734 -91 
Q 1441 -91 1130 -33 
Q 819 25 488 141 
L 488 750 
Q 750 597 1062 519 
Q 1375 441 1716 441 
Q 2309 441 2620 675 
Q 2931 909 2931 1356 
Q 2931 1769 2642 2001 
Q 2353 2234 1838 2234 
L 1294 2234 
L 1294 2753 
L 1863 2753 
Q 2328 2753 2575 2939 
Q 2822 3125 2822 3475 
Q 2822 3834 2567 4026 
Q 2313 4219 1838 4219 
Q 1578 4219 1281 4162 
Q 984 4106 628 3988 
L 628 4550 
Q 988 4650 1302 4700 
Q 1616 4750 1894 4750 
Q 2613 4750 3031 4423 
Q 3450 4097 3450 3541 
Q 3450 3153 3228 2886 
Q 3006 2619 2597 2516 
z
" transform="scale(0.015625)"/>
       </defs>
       <use xlink:href="#DejaVuSans-33"/>
       <use xlink:href="#DejaVuSans-2e" x="63.623047"/>
       <use xlink:href="#DejaVuSans-30" x="95.410156"/>
       <use xlink:href="#DejaVuSans-30" x="159.033203"/>
      </g>
     </g>
    </g>
    <g id="ytick_8">
     <g id="line2d_18">
      <g>
       <use xlink:href="#m3b9d13ca16" x="35.71" y="50.193577" style="stroke: #000000; stroke-width: 0.8"/>
      </g>
     </g>
     <g id="text_18">
      <!-- 3.25 -->
      <g transform="translate(10.8975 53.232952)scale(0.08 -0.08)">
       <use xlink:href="#DejaVuSans-33"/>
       <use xlink:href="#DejaVuSans-2e" x="63.623047"/>
       <use xlink:href="#DejaVuSans-32" x="95.410156"/>
       <use xlink:href="#DejaVuSans-35" x="159.033203"/>
      </g>
     </g>
    </g>
   </g>
   <g id="LineCollection_1">
    <path d="M 100.737614 96.405344 
L 119.316932 96.405344 
" clip-path="url(#peccf2d4e36)" style="fill: none; stroke: #1f77b4; stroke-width: 1.5"/>
    <path d="M 175.054886 137.597855 
L 193.634205 137.597855 
" clip-path="url(#peccf2d4e36)" style="fill: none; stroke: #1f77b4; stroke-width: 1.5"/>
    <path d="M 249.372159 143.828655 
L 267.951477 143.828655 
" clip-path="url(#peccf2d4e36)" style="fill: none; stroke: #1f77b4; stroke-width: 1.5"/>
    <path d="M 323.689432 180.001911 
L 342.26875 180.001911 
" clip-path="url(#peccf2d4e36)" style="fill: none; stroke: #1f77b4; stroke-width: 1.5"/>
    <path d="M 398.006705 180.8673 
L 416.586023 180.8673 
" clip-path="url(#peccf2d4e36)" style="fill: none; stroke: #1f77b4; stroke-width: 1.5"/>
    <path d="M 472.323977 211.155911 
L 490.903295 211.155911 
" clip-path="url(#peccf2d4e36)" style="fill: none; stroke: #1f77b4; stroke-width: 1.5"/>
    <path d="M 546.64125 216.175167 
L 565.220568 216.175167 
" clip-path="url(#peccf2d4e36)" style="fill: none; stroke: #1f77b4; stroke-width: 1.5"/>
    <path d="M 620.958523 252.694578 
L 639.537841 252.694578 
" clip-path="url(#peccf2d4e36)" style="fill: none; stroke: #1f77b4; stroke-width: 1.5"/>
    <path d="M 695.275795 269.310045 
L 713.855114 269.310045 
" clip-path="url(#peccf2d4e36)" style="fill: none; stroke: #1f77b4; stroke-width: 1.5"/>
    <path d="M 769.593068 278.656245 
L 788.172386 278.656245 
" clip-path="url(#peccf2d4e36)" style="fill: none; stroke: #1f77b4; stroke-width: 1.5"/>
   </g>
   <g id="patch_3">
    <path d="M 35.71 337.97 
L 35.71 26.88 
" style="fill: none; stroke: #000000; stroke-width: 0.8; stroke-linejoin: miter; stroke-linecap: square"/>
   </g>
   <g id="patch_4">
    <path d="M 853.2 337.97 
L 853.2 26.88 
" style="fill: none; stroke: #000000; stroke-width: 0.8; stroke-linejoin: miter; stroke-linecap: square"/>
   </g>
   <g id="patch_5">
    <path d="M 35.71 337.97 
L 853.2 337.97 
" style="fill: none; stroke: #000000; stroke-width: 0.8; stroke-linejoin: miter; stroke-linecap: square"/>
   </g>
   <g id="patch_6">
    <path d="M 35.71 26.88 
L 853.2 26.88 
" style="fill: none; stroke: #000000; stroke-width: 0.8; stroke-linejoin: miter; stroke-linecap: square"/>
   </g>
   <g id="text_19">
    <!-- Payoff - turns: 200, repetitions: 20, strategies: 10.  -->
    <g transform="translate(292.491875 20.88)scale(0.12 -0.12)">
     <defs>
      <path id="DejaVuSans-50" d="M 1259 4147 
L 1259 2394 
L 2053 2394 
Q 2494 2394 2734 2622 
Q 2975 2850 2975 3272 
Q 2975 3691 2734 3919 
Q 2494 4147 2053 4147 
L 1259 4147 
z
M 628 4666 
L 2053 4666 
Q 2838 4666 3239 4311 
Q 3641 3956 3641 3272 
Q 3641 2581 3239 2228 
Q 2838 1875 2053 1875 
L 1259 1875 
L 1259 0 
L 628 0 
L 628 4666 
z
" transform="scale(0.015625)"/>
      <path id="DejaVuSans-2d" d="M 313 2009 
L 1997 2009 
L 1997 1497 
L 313 1497 
L 313 2009 
z
" transform="scale(0.015625)"/>
      <path id="DejaVuSans-2c" d="M 750 794 
L 1409 794 
L 1409 256 
L 897 -744 
L 494 -744 
L 750 256 
L 750 794 
z
" transform="scale(0.015625)"/>
     </defs>
     <use xlink:href="#DejaVuSans-50"/>
     <use xlink:href="#DejaVuSans-61" x="55.802734"/>
     <use xlink:href="#DejaVuSans-79" x="117.082031"/>
     <use xlink:href="#DejaVuSans-6f" x="176.261719"/>
     <use xlink:href="#DejaVuSans-66" x="237.443359"/>
     <use xlink:href="#DejaVuSans-66" x="272.648438"/>
     <use xlink:href="#DejaVuSans-20" x="307.853516"/>
     <use xlink:href="#DejaVuSans-2d" x="339.640625"/>
     <use xlink:href="#DejaVuSans-20" x="375.724609"/>
     <use xlink:href="#DejaVuSans-74" x="407.511719"/>
     <use xlink:href="#DejaVuSans-75" x="446.720703"/>
     <use xlink:href="#DejaVuSans-72" x="510.099609"/>
     <use xlink:href="#DejaVuSans-6e" x="549.462891"/>
     <use xlink:href="#DejaVuSans-73" x="612.841797"/>
     <use xlink:href="#DejaVuSans-3a" x="664.941406"/>
     <use xlink:href="#DejaVuSans-20" x="698.632812"/>
     <use xlink:href="#DejaVuSans-32" x="730.419922"/>
     <use xlink:href="#DejaVuSans-30" x="794.042969"/>
     <use xlink:href="#DejaVuSans-30" x="857.666016"/>
     <use xlink:href="#DejaVuSans-2c" x="921.289062"/>
     <use xlink:href="#DejaVuSans-20" x="953.076172"/>
     <use xlink:href="#DejaVuSans-72" x="984.863281"/>
     <use xlink:href="#DejaVuSans-65" x="1023.726562"/>
     <use xlink:href="#DejaVuSans-70" x="1085.25"/>
     <use xlink:href="#DejaVuSans-65" x="1148.726562"/>
     <use xlink:href="#DejaVuSans-74" x="1210.25"/>
     <use xlink:href="#DejaVuSans-69" x="1249.458984"/>
     <use xlink:href="#DejaVuSans-74" x="1277.242188"/>
     <use xlink:href="#DejaVuSans-69" x="1316.451172"/>
     <use xlink:href="#DejaVuSans-6f" x="1344.234375"/>
     <use xlink:href="#DejaVuSans-6e" x="1405.416016"/>
     <use xlink:href="#DejaVuSans-73" x="1468.794922"/>
     <use xlink:href="#DejaVuSans-3a" x="1520.894531"/>
     <use xlink:href="#DejaVuSans-20" x="1554.585938"/>
     <use xlink:href="#DejaVuSans-32" x="1586.373047"/>
     <use xlink:href="#DejaVuSans-30" x="1649.996094"/>
     <use xlink:href="#DejaVuSans-2c" x="1713.619141"/>
     <use xlink:href="#DejaVuSans-20" x="1745.40625"/>
     <use xlink:href="#DejaVuSans-73" x="1777.193359"/>
     <use xlink:href="#DejaVuSans-74" x="1829.292969"/>
     <use xlink:href="#DejaVuSans-72" x="1868.501953"/>
     <use xlink:href="#DejaVuSans-61" x="1909.615234"/>
     <use xlink:href="#DejaVuSans-74" x="1970.894531"/>
     <use xlink:href="#DejaVuSans-65" x="2010.103516"/>
     <use xlink:href="#DejaVuSans-67" x="2071.626953"/>
     <use xlink:href="#DejaVuSans-69" x="2135.103516"/>
     <use xlink:href="#DejaVuSans-65" x="2162.886719"/>
     <use xlink:href="#DejaVuSans-73" x="2224.410156"/>
     <use xlink:href="#DejaVuSans-3a" x="2276.509766"/>
     <use xlink:href="#DejaVuSans-20" x="2310.201172"/>
     <use xlink:href="#DejaVuSans-31" x="2341.988281"/>
     <use xlink:href="#DejaVuSans-30" x="2405.611328"/>
     <use xlink:href="#DejaVuSans-2e" x="2469.234375"/>
     <use xlink:href="#DejaVuSans-20" x="2501.021484"/>
    </g>
   </g>
  </g>
 </g>
 <defs>
  <clipPath id="peccf2d4e36">
   <rect x="35.71" y="26.88" width="817.49" height="311.09"/>
  </clipPath>
 </defs>
</svg>
