<?xml version="1.0" encoding="utf-8" standalone="no"?>
<!DOCTYPE svg PUBLIC "-//W3C//DTD SVG 1.1//EN"
  "http://www.w3.org/Graphics/SVG/1.1/DTD/svg11.dtd">
<svg xmlns:xlink="http://www.w3.org/1999/xlink" width="864pt" height="432pt" viewBox="0 0 864 432" xmlns="http://www.w3.org/2000/svg" version="1.1">
 <metadata>
  <rdf:RDF xmlns:dc="http://purl.org/dc/elements/1.1/" xmlns:cc="http://creativecommons.org/ns#" xmlns:rdf="http://www.w3.org/1999/02/22-rdf-syntax-ns#">
   <cc:Work>
    <dc:type rdf:resource="http://purl.org/dc/dcmitype/StillImage"/>
    <dc:date>2022-10-01T07:03:39.635709</dc:date>
    <dc:format>image/svg+xml</dc:format>
    <dc:creator>
     <cc:Agent>
      <dc:title>Matplotlib v3.5.1, https://matplotlib.org/</dc:title>
     </cc:Agent>
    </dc:creator>
   </cc:Work>
  </rdf:RDF>
 </metadata>
 <defs>
  <style type="text/css">*{stroke-linejoin: round; stroke-linecap: butt}</style>
 </defs>
 <g id="figure_1">
  <g id="patch_1">
   <path d="M 0 432 
L 864 432 
L 864 0 
L 0 0 
z
" style="fill: #ffffff"/>
  </g>
  <g id="axes_1">
   <g id="patch_2">
    <path d="M 22.93 337.97 
L 853.2 337.97 
L 853.2 26.88 
L 22.93 26.88 
z
" style="fill: #ffffff"/>
   </g>
   <g id="PolyCollection_1">
    <path d="M 98.551684 73.5435 
L 98.266498 73.5435 
L 98.276815 73.229268 
L 98.303498 72.915035 
L 98.336555 72.600803 
L 98.366212 72.286571 
L 98.387279 71.972338 
L 98.399543 71.658106 
L 98.405494 71.343874 
L 98.407925 71.029641 
L 98.408766 70.715409 
L 98.409013 70.401177 
L 98.409075 70.086944 
L 98.409088 69.772712 
L 98.40909 69.45848 
L 98.409091 69.144247 
L 98.409091 68.830015 
L 98.409091 68.515783 
L 98.409091 68.201551 
L 98.409091 67.887318 
L 98.409091 67.573086 
L 98.409091 67.258854 
L 98.409091 66.944621 
L 98.409091 66.630389 
L 98.409091 66.316157 
L 98.409091 66.001924 
L 98.409091 65.687692 
L 98.409091 65.37346 
L 98.409091 65.059227 
L 98.409091 64.744995 
L 98.409091 64.430763 
L 98.409091 64.11653 
L 98.409091 63.802298 
L 98.409091 63.488066 
L 98.409091 63.173833 
L 98.409091 62.859601 
L 98.409091 62.545369 
L 98.409091 62.231136 
L 98.409091 61.916904 
L 98.409091 61.602672 
L 98.409091 61.288439 
L 98.409091 60.974207 
L 98.409091 60.659975 
L 98.409091 60.345742 
L 98.409091 60.03151 
L 98.409091 59.717278 
L 98.409091 59.403045 
L 98.409091 59.088813 
L 98.409091 58.774581 
L 98.409091 58.460348 
L 98.409091 58.146116 
L 98.409091 57.831884 
L 98.409091 57.517652 
L 98.409091 57.203419 
L 98.409091 56.889187 
L 98.409091 56.574955 
L 98.409091 56.260722 
L 98.409091 55.94649 
L 98.409091 55.632258 
L 98.409091 55.318025 
L 98.409091 55.003793 
L 98.409091 54.689561 
L 98.409091 54.375328 
L 98.409091 54.061096 
L 98.409091 53.746864 
L 98.409091 53.432631 
L 98.409091 53.118399 
L 98.409091 52.804167 
L 98.409091 52.489934 
L 98.409091 52.175702 
L 98.409091 51.86147 
L 98.409091 51.547237 
L 98.409091 51.233005 
L 98.409091 50.918773 
L 98.409091 50.60454 
L 98.409091 50.290308 
L 98.409091 49.976076 
L 98.409091 49.661843 
L 98.409091 49.347611 
L 98.409091 49.033379 
L 98.409091 48.719146 
L 98.409091 48.404914 
L 98.409091 48.090682 
L 98.409091 47.776449 
L 98.409091 47.462217 
L 98.40909 47.147985 
L 98.409083 46.833753 
L 98.409033 46.51952 
L 98.408712 46.205288 
L 98.406957 45.891056 
L 98.398759 45.576823 
L 98.36605 45.262591 
L 98.254796 44.948359 
L 97.933111 44.634126 
L 97.145533 44.319894 
L 95.522603 44.005662 
L 92.734786 43.691429 
L 88.81014 43.377197 
L 84.435656 43.062965 
L 80.904547 42.748732 
L 79.539318 42.4345 
L 117.278864 42.4345 
L 117.278864 42.4345 
L 115.913635 42.748732 
L 112.382525 43.062965 
L 108.008042 43.377197 
L 104.083396 43.691429 
L 101.295579 44.005662 
L 99.672649 44.319894 
L 98.885071 44.634126 
L 98.563385 44.948359 
L 98.452132 45.262591 
L 98.419423 45.576823 
L 98.411225 45.891056 
L 98.40947 46.205288 
L 98.409149 46.51952 
L 98.409099 46.833753 
L 98.409092 47.147985 
L 98.409091 47.462217 
L 98.409091 47.776449 
L 98.409091 48.090682 
L 98.409091 48.404914 
L 98.409091 48.719146 
L 98.409091 49.033379 
L 98.409091 49.347611 
L 98.409091 49.661843 
L 98.409091 49.976076 
L 98.409091 50.290308 
L 98.409091 50.60454 
L 98.409091 50.918773 
L 98.409091 51.233005 
L 98.409091 51.547237 
L 98.409091 51.86147 
L 98.409091 52.175702 
L 98.409091 52.489934 
L 98.409091 52.804167 
L 98.409091 53.118399 
L 98.409091 53.432631 
L 98.409091 53.746864 
L 98.409091 54.061096 
L 98.409091 54.375328 
L 98.409091 54.689561 
L 98.409091 55.003793 
L 98.409091 55.318025 
L 98.409091 55.632258 
L 98.409091 55.94649 
L 98.409091 56.260722 
L 98.409091 56.574955 
L 98.409091 56.889187 
L 98.409091 57.203419 
L 98.409091 57.517652 
L 98.409091 57.831884 
L 98.409091 58.146116 
L 98.409091 58.460348 
L 98.409091 58.774581 
L 98.409091 59.088813 
L 98.409091 59.403045 
L 98.409091 59.717278 
L 98.409091 60.03151 
L 98.409091 60.345742 
L 98.409091 60.659975 
L 98.409091 60.974207 
L 98.409091 61.288439 
L 98.409091 61.602672 
L 98.409091 61.916904 
L 98.409091 62.231136 
L 98.409091 62.545369 
L 98.409091 62.859601 
L 98.409091 63.173833 
L 98.409091 63.488066 
L 98.409091 63.802298 
L 98.409091 64.11653 
L 98.409091 64.430763 
L 98.409091 64.744995 
L 98.409091 65.059227 
L 98.409091 65.37346 
L 98.409091 65.687692 
L 98.409091 66.001924 
L 98.409091 66.316157 
L 98.409091 66.630389 
L 98.409091 66.944621 
L 98.409091 67.258854 
L 98.409091 67.573086 
L 98.409091 67.887318 
L 98.409091 68.201551 
L 98.409091 68.515783 
L 98.409091 68.830015 
L 98.409091 69.144247 
L 98.409091 69.45848 
L 98.409094 69.772712 
L 98.409107 70.086944 
L 98.409169 70.401177 
L 98.409416 70.715409 
L 98.410257 71.029641 
L 98.412688 71.343874 
L 98.418639 71.658106 
L 98.430903 71.972338 
L 98.45197 72.286571 
L 98.481627 72.600803 
L 98.514684 72.915035 
L 98.541367 73.229268 
L 98.551684 73.5435 
z
" clip-path="url(#pcc81e670ec)" style="fill: #1f77b4; fill-opacity: 0.3"/>
   </g>
   <g id="PolyCollection_2">
    <path d="M 174.078786 166.8705 
L 173.697578 166.8705 
L 173.708043 166.556268 
L 173.736114 166.242035 
L 173.77352 165.927803 
L 173.810958 165.613571 
L 173.841726 165.299338 
L 173.86322 164.985106 
L 173.876201 164.670874 
L 173.883046 164.356641 
L 173.886215 164.042409 
L 173.887509 163.728177 
L 173.887976 163.413944 
L 173.888126 163.099712 
L 173.888168 162.78548 
L 173.888179 162.471247 
L 173.888181 162.157015 
L 173.888182 161.842783 
L 173.888182 161.528551 
L 173.888182 161.214318 
L 173.888182 160.900086 
L 173.888182 160.585854 
L 173.888182 160.271621 
L 173.888182 159.957389 
L 173.888182 159.643157 
L 173.888182 159.328924 
L 173.888182 159.014692 
L 173.888182 158.70046 
L 173.888182 158.386227 
L 173.888182 158.071995 
L 173.888182 157.757763 
L 173.888182 157.44353 
L 173.888182 157.129298 
L 173.888182 156.815066 
L 173.888182 156.500833 
L 173.888182 156.186601 
L 173.888182 155.872369 
L 173.888182 155.558136 
L 173.888182 155.243904 
L 173.888182 154.929672 
L 173.888182 154.615439 
L 173.888182 154.301207 
L 173.888182 153.986975 
L 173.888182 153.672742 
L 173.888182 153.35851 
L 173.888182 153.044278 
L 173.888182 152.730045 
L 173.888182 152.415813 
L 173.888182 152.101581 
L 173.888182 151.787348 
L 173.888182 151.473116 
L 173.888182 151.158884 
L 173.888182 150.844652 
L 173.888182 150.530419 
L 173.888182 150.216187 
L 173.888182 149.901955 
L 173.888182 149.587722 
L 173.888182 149.27349 
L 173.888182 148.959258 
L 173.888182 148.645025 
L 173.888182 148.330793 
L 173.888182 148.016561 
L 173.888182 147.702328 
L 173.888182 147.388096 
L 173.888182 147.073864 
L 173.888182 146.759631 
L 173.888182 146.445399 
L 173.888182 146.131167 
L 173.888182 145.816934 
L 173.888182 145.502702 
L 173.888182 145.18847 
L 173.888182 144.874237 
L 173.888182 144.560005 
L 173.888182 144.245773 
L 173.888182 143.93154 
L 173.888182 143.617308 
L 173.888182 143.303076 
L 173.888182 142.988843 
L 173.888182 142.674611 
L 173.888182 142.360379 
L 173.888182 142.046146 
L 173.888182 141.731914 
L 173.888182 141.417682 
L 173.88818 141.103449 
L 173.888172 140.789217 
L 173.888125 140.474985 
L 173.887887 140.160753 
L 173.886829 139.84652 
L 173.882631 139.532288 
L 173.867839 139.218056 
L 173.821593 138.903823 
L 173.69349 138.589591 
L 173.379728 138.275359 
L 172.702123 137.961126 
L 171.416946 137.646894 
L 169.289062 137.332662 
L 166.243 137.018429 
L 162.536674 136.704197 
L 158.833487 136.389965 
L 156.054419 136.075732 
L 155.018409 135.7615 
L 192.757955 135.7615 
L 192.757955 135.7615 
L 191.721945 136.075732 
L 188.942876 136.389965 
L 185.23969 136.704197 
L 181.533363 137.018429 
L 178.487301 137.332662 
L 176.359418 137.646894 
L 175.074241 137.961126 
L 174.396635 138.275359 
L 174.082874 138.589591 
L 173.95477 138.903823 
L 173.908524 139.218056 
L 173.893733 139.532288 
L 173.889535 139.84652 
L 173.888476 140.160753 
L 173.888239 140.474985 
L 173.888192 140.789217 
L 173.888183 141.103449 
L 173.888182 141.417682 
L 173.888182 141.731914 
L 173.888182 142.046146 
L 173.888182 142.360379 
L 173.888182 142.674611 
L 173.888182 142.988843 
L 173.888182 143.303076 
L 173.888182 143.617308 
L 173.888182 143.93154 
L 173.888182 144.245773 
L 173.888182 144.560005 
L 173.888182 144.874237 
L 173.888182 145.18847 
L 173.888182 145.502702 
L 173.888182 145.816934 
L 173.888182 146.131167 
L 173.888182 146.445399 
L 173.888182 146.759631 
L 173.888182 147.073864 
L 173.888182 147.388096 
L 173.888182 147.702328 
L 173.888182 148.016561 
L 173.888182 148.330793 
L 173.888182 148.645025 
L 173.888182 148.959258 
L 173.888182 149.27349 
L 173.888182 149.587722 
L 173.888182 149.901955 
L 173.888182 150.216187 
L 173.888182 150.530419 
L 173.888182 150.844652 
L 173.888182 151.158884 
L 173.888182 151.473116 
L 173.888182 151.787348 
L 173.888182 152.101581 
L 173.888182 152.415813 
L 173.888182 152.730045 
L 173.888182 153.044278 
L 173.888182 153.35851 
L 173.888182 153.672742 
L 173.888182 153.986975 
L 173.888182 154.301207 
L 173.888182 154.615439 
L 173.888182 154.929672 
L 173.888182 155.243904 
L 173.888182 155.558136 
L 173.888182 155.872369 
L 173.888182 156.186601 
L 173.888182 156.500833 
L 173.888182 156.815066 
L 173.888182 157.129298 
L 173.888182 157.44353 
L 173.888182 157.757763 
L 173.888182 158.071995 
L 173.888182 158.386227 
L 173.888182 158.70046 
L 173.888182 159.014692 
L 173.888182 159.328924 
L 173.888182 159.643157 
L 173.888182 159.957389 
L 173.888182 160.271621 
L 173.888182 160.585854 
L 173.888182 160.900086 
L 173.888182 161.214318 
L 173.888182 161.528551 
L 173.888182 161.842783 
L 173.888182 162.157015 
L 173.888185 162.471247 
L 173.888195 162.78548 
L 173.888238 163.099712 
L 173.888387 163.413944 
L 173.888854 163.728177 
L 173.890148 164.042409 
L 173.893318 164.356641 
L 173.900162 164.670874 
L 173.913144 164.985106 
L 173.934638 165.299338 
L 173.965406 165.613571 
L 174.002844 165.927803 
L 174.040249 166.242035 
L 174.068321 166.556268 
L 174.078786 166.8705 
z
" clip-path="url(#pcc81e670ec)" style="fill: #1f77b4; fill-opacity: 0.3"/>
   </g>
   <g id="PolyCollection_3">
    <path d="M 249.437946 229.0885 
L 249.296599 229.0885 
L 249.297889 228.145803 
L 249.301618 227.203106 
L 249.307392 226.260409 
L 249.314634 225.317712 
L 249.322672 224.375015 
L 249.330849 223.432318 
L 249.338602 222.489621 
L 249.345518 221.546924 
L 249.351358 220.604227 
L 249.356038 219.66153 
L 249.359601 218.718833 
L 249.362161 217.776136 
L 249.363858 216.833439 
L 249.364809 215.890742 
L 249.365063 214.948045 
L 249.364567 214.005348 
L 249.363123 213.062652 
L 249.36036 212.119955 
L 249.355698 211.177258 
L 249.34835 210.234561 
L 249.337338 209.291864 
L 249.321575 208.349167 
L 249.300012 207.40647 
L 249.271844 206.463773 
L 249.236771 205.521076 
L 249.195257 204.578379 
L 249.148736 203.635682 
L 249.099671 202.692985 
L 249.051439 201.750288 
L 249.00799 200.807591 
L 248.973342 199.864894 
L 248.950969 198.922197 
L 248.943233 197.9795 
L 248.950969 197.036803 
L 248.973342 196.094106 
L 249.00799 195.151409 
L 249.051437 194.208712 
L 249.099667 193.266015 
L 249.148723 192.323318 
L 249.195223 191.380621 
L 249.236682 190.437924 
L 249.271625 189.495227 
L 249.299492 188.55253 
L 249.320385 187.609833 
L 249.33471 186.667136 
L 249.342759 185.724439 
L 249.344234 184.781742 
L 249.337702 183.839045 
L 249.319961 182.896348 
L 249.285317 181.953652 
L 249.224815 181.010955 
L 249.125585 180.068258 
L 248.970565 179.125561 
L 248.738951 178.182864 
L 248.40777 177.240167 
L 247.954867 176.29747 
L 247.363299 175.354773 
L 246.626739 174.412076 
L 245.754956 173.469379 
L 244.778006 172.526682 
L 243.747647 171.583985 
L 242.73476 170.641288 
L 241.822342 169.698591 
L 241.094731 168.755894 
L 240.624902 167.813197 
L 240.462436 166.8705 
L 240.624902 165.927803 
L 241.09473 164.985106 
L 241.822341 164.042409 
L 242.734757 163.099712 
L 243.747637 162.157015 
L 244.777979 161.214318 
L 245.754884 160.271621 
L 246.626554 159.328924 
L 247.362842 158.386227 
L 247.953782 157.44353 
L 248.405285 156.500833 
L 248.733464 155.558136 
L 248.958892 154.615439 
L 249.101648 153.672742 
L 249.177505 152.730045 
L 249.195194 151.787348 
L 249.154487 150.844652 
L 249.044863 149.901955 
L 248.844735 148.959258 
L 248.521564 148.016561 
L 248.033447 147.073864 
L 247.332963 146.131167 
L 246.373847 145.18847 
L 245.120558 144.245773 
L 243.559871 143.303076 
L 241.712571 142.360379 
L 239.642386 141.417682 
L 237.459013 140.474985 
L 235.312661 139.532288 
L 233.379204 138.589591 
L 231.837362 137.646894 
L 230.841773 136.704197 
L 230.4975 135.7615 
L 268.237045 135.7615 
L 268.237045 135.7615 
L 267.892772 136.704197 
L 266.897183 137.646894 
L 265.355341 138.589591 
L 263.421884 139.532288 
L 261.275532 140.474985 
L 259.092159 141.417682 
L 257.021975 142.360379 
L 255.174674 143.303076 
L 253.613988 144.245773 
L 252.360698 145.18847 
L 251.401583 146.131167 
L 250.701099 147.073864 
L 250.212982 148.016561 
L 249.88981 148.959258 
L 249.689683 149.901955 
L 249.580059 150.844652 
L 249.539352 151.787348 
L 249.557041 152.730045 
L 249.632897 153.672742 
L 249.775654 154.615439 
L 250.001082 155.558136 
L 250.329261 156.500833 
L 250.780764 157.44353 
L 251.371704 158.386227 
L 252.107992 159.328924 
L 252.979662 160.271621 
L 253.956567 161.214318 
L 254.986909 162.157015 
L 255.999789 163.099712 
L 256.912205 164.042409 
L 257.639815 164.985106 
L 258.109643 165.927803 
L 258.272109 166.8705 
L 258.109643 167.813197 
L 257.639815 168.755894 
L 256.912204 169.698591 
L 255.999785 170.641288 
L 254.986899 171.583985 
L 253.956539 172.526682 
L 252.979589 173.469379 
L 252.107806 174.412076 
L 251.371247 175.354773 
L 250.779678 176.29747 
L 250.326775 177.240167 
L 249.995595 178.182864 
L 249.76398 179.125561 
L 249.60896 180.068258 
L 249.509731 181.010955 
L 249.449229 181.953652 
L 249.414585 182.896348 
L 249.396844 183.839045 
L 249.390311 184.781742 
L 249.391786 185.724439 
L 249.399836 186.667136 
L 249.414161 187.609833 
L 249.435053 188.55253 
L 249.46292 189.495227 
L 249.497864 190.437924 
L 249.539323 191.380621 
L 249.585822 192.323318 
L 249.634879 193.266015 
L 249.683108 194.208712 
L 249.726556 195.151409 
L 249.761203 196.094106 
L 249.783576 197.036803 
L 249.791313 197.9795 
L 249.783576 198.922197 
L 249.761203 199.864894 
L 249.726555 200.807591 
L 249.683107 201.750288 
L 249.634874 202.692985 
L 249.585809 203.635682 
L 249.539288 204.578379 
L 249.497775 205.521076 
L 249.462701 206.463773 
L 249.434533 207.40647 
L 249.41297 208.349167 
L 249.397208 209.291864 
L 249.386196 210.234561 
L 249.378847 211.177258 
L 249.374186 212.119955 
L 249.371422 213.062652 
L 249.369979 214.005348 
L 249.369482 214.948045 
L 249.369737 215.890742 
L 249.370687 216.833439 
L 249.372385 217.776136 
L 249.374945 218.718833 
L 249.378507 219.66153 
L 249.383188 220.604227 
L 249.389027 221.546924 
L 249.395944 222.489621 
L 249.403696 223.432318 
L 249.411873 224.375015 
L 249.419912 225.317712 
L 249.427153 226.260409 
L 249.432928 227.203106 
L 249.436657 228.145803 
L 249.437946 229.0885 
z
" clip-path="url(#pcc81e670ec)" style="fill: #1f77b4; fill-opacity: 0.3"/>
   </g>
   <g id="PolyCollection_4">
    <path d="M 340.000939 197.9795 
L 309.691788 197.9795 
L 309.777156 197.351035 
L 310.030403 196.722571 
L 310.443057 196.094106 
L 311.001522 195.465641 
L 311.68782 194.837177 
L 312.480544 194.208712 
L 313.355959 193.580247 
L 314.289165 192.951783 
L 315.255243 192.323318 
L 316.230309 191.694854 
L 317.192418 191.066389 
L 318.122264 190.437924 
L 319.003657 189.80946 
L 319.823761 189.180995 
L 320.57311 188.55253 
L 321.245415 187.924066 
L 321.837213 187.295601 
L 322.347378 186.667136 
L 322.776568 186.038672 
L 323.126621 185.410207 
L 323.399965 184.781742 
L 323.599064 184.153278 
L 323.725943 183.524813 
L 323.781801 182.896348 
L 323.766739 182.267884 
L 323.67962 181.639419 
L 323.518063 181.010955 
L 323.278567 180.38249 
L 322.95679 179.754025 
L 322.547939 179.125561 
L 322.047295 178.497096 
L 321.450818 177.868631 
L 320.755836 177.240167 
L 319.961743 176.611702 
L 319.070701 175.983237 
L 318.088254 175.354773 
L 317.023831 174.726308 
L 315.891067 174.097843 
L 314.707889 173.469379 
L 313.496351 172.840914 
L 312.282171 172.212449 
L 311.093981 171.583985 
L 309.962318 170.95552 
L 308.918386 170.327056 
L 307.992669 169.698591 
L 307.213477 169.070126 
L 306.605517 168.441662 
L 306.188606 167.813197 
L 305.976591 167.184732 
L 305.976597 166.556268 
L 306.188627 165.927803 
L 306.605559 165.299338 
L 307.213551 164.670874 
L 307.992795 164.042409 
L 308.918595 163.413944 
L 309.96266 162.78548 
L 311.094534 162.157015 
L 312.283055 161.528551 
L 313.497749 160.900086 
L 314.710073 160.271621 
L 315.894441 159.643157 
L 317.028986 159.014692 
L 318.09604 158.386227 
L 319.08233 157.757763 
L 319.978916 157.129298 
L 320.780911 156.500833 
L 321.487021 155.872369 
L 322.098976 155.243904 
L 322.620887 154.615439 
L 323.058599 153.986975 
L 323.419058 153.35851 
L 323.709755 152.730045 
L 323.938236 152.101581 
L 324.111721 151.473116 
L 324.236822 150.844652 
L 324.319358 150.216187 
L 324.364269 149.587722 
L 324.375605 148.959258 
L 324.35659 148.330793 
L 324.30974 147.702328 
L 324.237022 147.073864 
L 324.140041 146.445399 
L 324.020241 145.816934 
L 323.879106 145.18847 
L 323.718348 144.560005 
L 323.540074 143.93154 
L 323.346912 143.303076 
L 323.142097 142.674611 
L 322.929503 142.046146 
L 322.713615 141.417682 
L 322.499446 140.789217 
L 322.292397 140.160753 
L 322.098069 139.532288 
L 321.92204 138.903823 
L 321.76961 138.275359 
L 321.645556 137.646894 
L 321.553885 137.018429 
L 321.497626 136.389965 
L 321.478666 135.7615 
L 328.214061 135.7615 
L 328.214061 135.7615 
L 328.195101 136.389965 
L 328.138842 137.018429 
L 328.047171 137.646894 
L 327.923117 138.275359 
L 327.770688 138.903823 
L 327.594658 139.532288 
L 327.40033 140.160753 
L 327.193281 140.789217 
L 326.979112 141.417682 
L 326.763224 142.046146 
L 326.55063 142.674611 
L 326.345816 143.303076 
L 326.152654 143.93154 
L 325.974379 144.560005 
L 325.813622 145.18847 
L 325.672486 145.816934 
L 325.552686 146.445399 
L 325.455706 147.073864 
L 325.382988 147.702328 
L 325.336138 148.330793 
L 325.317122 148.959258 
L 325.328458 149.587722 
L 325.373369 150.216187 
L 325.455905 150.844652 
L 325.581006 151.473116 
L 325.754491 152.101581 
L 325.982972 152.730045 
L 326.273669 153.35851 
L 326.634129 153.986975 
L 327.07184 154.615439 
L 327.593751 155.243904 
L 328.205706 155.872369 
L 328.911816 156.500833 
L 329.713811 157.129298 
L 330.610398 157.757763 
L 331.596687 158.386227 
L 332.663741 159.014692 
L 333.798287 159.643157 
L 334.982655 160.271621 
L 336.194978 160.900086 
L 337.409672 161.528551 
L 338.598193 162.157015 
L 339.730067 162.78548 
L 340.774133 163.413944 
L 341.699933 164.042409 
L 342.479177 164.670874 
L 343.087168 165.299338 
L 343.5041 165.927803 
L 343.71613 166.556268 
L 343.716136 167.184732 
L 343.504122 167.813197 
L 343.08721 168.441662 
L 342.479251 169.070126 
L 341.700058 169.698591 
L 340.774342 170.327056 
L 339.730409 170.95552 
L 338.598746 171.583985 
L 337.410557 172.212449 
L 336.196376 172.840914 
L 334.984838 173.469379 
L 333.801661 174.097843 
L 332.668896 174.726308 
L 331.604474 175.354773 
L 330.622026 175.983237 
L 329.730984 176.611702 
L 328.936892 177.240167 
L 328.241909 177.868631 
L 327.645433 178.497096 
L 327.144788 179.125561 
L 326.735937 179.754025 
L 326.41416 180.38249 
L 326.174665 181.010955 
L 326.013107 181.639419 
L 325.925989 182.267884 
L 325.910927 182.896348 
L 325.966784 183.524813 
L 326.093663 184.153278 
L 326.292763 184.781742 
L 326.566106 185.410207 
L 326.916159 186.038672 
L 327.345349 186.667136 
L 327.855515 187.295601 
L 328.447312 187.924066 
L 329.119617 188.55253 
L 329.868966 189.180995 
L 330.689071 189.80946 
L 331.570464 190.437924 
L 332.500309 191.066389 
L 333.462418 191.694854 
L 334.437484 192.323318 
L 335.403562 192.951783 
L 336.336768 193.580247 
L 337.212183 194.208712 
L 338.004907 194.837177 
L 338.691205 195.465641 
L 339.24967 196.094106 
L 339.662324 196.722571 
L 339.915571 197.351035 
L 340.000939 197.9795 
z
" clip-path="url(#pcc81e670ec)" style="fill: #1f77b4; fill-opacity: 0.3"/>
   </g>
   <g id="PolyCollection_5">
    <path d="M 401.021066 229.0885 
L 399.629843 229.0885 
L 399.640786 227.831571 
L 399.672873 226.574641 
L 399.722591 225.317712 
L 399.784569 224.060783 
L 399.85207 222.803854 
L 399.917447 221.546924 
L 399.972427 220.289995 
L 400.008133 219.033066 
L 400.014832 217.776136 
L 399.981539 216.519207 
L 399.89568 215.262278 
L 399.743113 214.005348 
L 399.508806 212.748419 
L 399.178387 211.49149 
L 398.740631 210.234561 
L 398.190664 208.977631 
L 397.533418 207.720702 
L 396.786554 206.463773 
L 395.982007 205.206843 
L 395.165353 203.949914 
L 394.392538 202.692985 
L 393.724093 201.436056 
L 393.217545 200.179126 
L 392.91932 198.922197 
L 392.857706 197.665268 
L 393.038312 196.408338 
L 393.442989 195.151409 
L 394.032376 193.89448 
L 394.751424 192.637551 
L 395.536579 191.380621 
L 396.323012 190.123692 
L 397.050419 188.866763 
L 397.666427 187.609833 
L 398.127327 186.352904 
L 398.396659 185.095975 
L 398.442732 183.839045 
L 398.236467 182.582116 
L 397.750941 181.325187 
L 396.963563 180.068258 
L 395.861151 178.811328 
L 394.447286 177.554399 
L 392.75043 176.29747 
L 390.830651 175.04054 
L 388.78254 173.783611 
L 386.73236 172.526682 
L 384.828464 171.269753 
L 383.225585 170.012823 
L 382.065227 168.755894 
L 381.455682 167.498965 
L 381.455688 166.242035 
L 382.065249 164.985106 
L 383.225635 163.728177 
L 384.828567 162.471247 
L 386.732565 161.214318 
L 388.782934 159.957389 
L 390.831381 158.70046 
L 392.751739 157.44353 
L 394.449555 156.186601 
L 395.864958 154.929672 
L 396.969745 153.672742 
L 397.760654 152.415813 
L 398.251234 151.158884 
L 398.464458 149.901955 
L 398.427591 148.645025 
L 398.169941 147.388096 
L 397.723237 146.131167 
L 397.123707 144.874237 
L 396.4145 143.617308 
L 395.647096 142.360379 
L 394.880611 141.103449 
L 394.178505 139.84652 
L 393.60294 138.589591 
L 393.207735 137.332662 
L 393.031363 136.075732 
L 393.091571 134.818803 
L 393.382896 133.561874 
L 393.877728 132.304944 
L 394.530749 131.048015 
L 395.285819 129.791086 
L 396.083898 128.534157 
L 396.87047 127.277227 
L 397.601221 126.020298 
L 398.24525 124.763369 
L 398.785707 123.506439 
L 399.218302 122.24951 
L 399.548428 120.992581 
L 399.787766 119.735652 
L 399.951071 118.478722 
L 400.05364 117.221793 
L 400.109646 115.964864 
L 400.131327 114.707934 
L 400.12882 113.451005 
L 400.110405 112.194076 
L 400.082895 110.937146 
L 400.051996 109.680217 
L 400.022522 108.423288 
L 399.998442 107.166359 
L 399.982784 105.909429 
L 399.977497 104.6525 
L 400.673412 104.6525 
L 400.673412 104.6525 
L 400.668125 105.909429 
L 400.652467 107.166359 
L 400.628387 108.423288 
L 400.598913 109.680217 
L 400.568014 110.937146 
L 400.540504 112.194076 
L 400.522089 113.451005 
L 400.519583 114.707934 
L 400.541263 115.964864 
L 400.59727 117.221793 
L 400.699838 118.478722 
L 400.863144 119.735652 
L 401.102481 120.992581 
L 401.432607 122.24951 
L 401.865202 123.506439 
L 402.405659 124.763369 
L 403.049688 126.020298 
L 403.780439 127.277227 
L 404.567011 128.534157 
L 405.36509 129.791086 
L 406.12016 131.048015 
L 406.773181 132.304944 
L 407.268013 133.561874 
L 407.559338 134.818803 
L 407.619546 136.075732 
L 407.443174 137.332662 
L 407.047969 138.589591 
L 406.472404 139.84652 
L 405.770298 141.103449 
L 405.003813 142.360379 
L 404.236409 143.617308 
L 403.527202 144.874237 
L 402.927672 146.131167 
L 402.480968 147.388096 
L 402.223318 148.645025 
L 402.186451 149.901955 
L 402.399675 151.158884 
L 402.890256 152.415813 
L 403.681164 153.672742 
L 404.785951 154.929672 
L 406.201354 156.186601 
L 407.89917 157.44353 
L 409.819528 158.70046 
L 411.867975 159.957389 
L 413.918344 161.214318 
L 415.822342 162.471247 
L 417.425274 163.728177 
L 418.58566 164.985106 
L 419.195221 166.242035 
L 419.195227 167.498965 
L 418.585682 168.755894 
L 417.425324 170.012823 
L 415.822446 171.269753 
L 413.91855 172.526682 
L 411.86837 173.783611 
L 409.820258 175.04054 
L 407.900479 176.29747 
L 406.203623 177.554399 
L 404.789758 178.811328 
L 403.687346 180.068258 
L 402.899968 181.325187 
L 402.414442 182.582116 
L 402.208177 183.839045 
L 402.25425 185.095975 
L 402.523582 186.352904 
L 402.984482 187.609833 
L 403.60049 188.866763 
L 404.327898 190.123692 
L 405.11433 191.380621 
L 405.899485 192.637551 
L 406.618534 193.89448 
L 407.207921 195.151409 
L 407.612597 196.408338 
L 407.793203 197.665268 
L 407.731589 198.922197 
L 407.433365 200.179126 
L 406.926816 201.436056 
L 406.258371 202.692985 
L 405.485556 203.949914 
L 404.668902 205.206843 
L 403.864356 206.463773 
L 403.117491 207.720702 
L 402.460245 208.977631 
L 401.910278 210.234561 
L 401.472522 211.49149 
L 401.142103 212.748419 
L 400.907796 214.005348 
L 400.755229 215.262278 
L 400.66937 216.519207 
L 400.636077 217.776136 
L 400.642777 219.033066 
L 400.678482 220.289995 
L 400.733463 221.546924 
L 400.798839 222.803854 
L 400.86634 224.060783 
L 400.928318 225.317712 
L 400.978036 226.574641 
L 401.010123 227.831571 
L 401.021066 229.0885 
z
" clip-path="url(#pcc81e670ec)" style="fill: #1f77b4; fill-opacity: 0.3"/>
   </g>
   <g id="PolyCollection_6">
    <path d="M 485.084864 229.0885 
L 466.524227 229.0885 
L 466.585782 228.145803 
L 466.774375 227.203106 
L 467.080616 226.260409 
L 467.489815 225.317712 
L 467.982758 224.375015 
L 468.536691 223.432318 
L 469.126438 222.489621 
L 469.725522 221.546924 
L 470.30722 220.604227 
L 470.845479 219.66153 
L 471.315649 218.718833 
L 471.695035 217.776136 
L 471.963296 216.833439 
L 472.102734 215.890742 
L 472.098549 214.948045 
L 471.939121 214.005348 
L 471.616366 213.062652 
L 471.126207 212.119955 
L 470.469145 211.177258 
L 469.650895 210.234561 
L 468.683005 209.291864 
L 467.583358 208.349167 
L 466.376436 207.40647 
L 465.093224 206.463773 
L 463.770671 205.521076 
L 462.450628 204.578379 
L 461.178285 203.635682 
L 460.000134 202.692985 
L 458.961599 201.750288 
L 458.104487 200.807591 
L 457.464478 199.864894 
L 457.068867 198.922197 
L 456.934773 197.9795 
L 457.067982 197.036803 
L 457.462547 196.094106 
L 458.101174 195.151409 
L 458.956351 194.208712 
L 459.99213 193.266015 
L 461.166353 192.323318 
L 462.433152 191.380621 
L 463.745472 190.437924 
L 465.057425 189.495227 
L 466.326309 188.55253 
L 467.514174 187.609833 
L 468.588877 186.667136 
L 469.524653 185.724439 
L 470.30224 184.781742 
L 470.908679 183.839045 
L 471.336892 182.896348 
L 471.585165 181.953652 
L 471.656635 181.010955 
L 471.558847 180.068258 
L 471.303423 179.125561 
L 470.905823 178.182864 
L 470.385165 177.240167 
L 469.764031 176.29747 
L 469.068184 175.354773 
L 468.326114 174.412076 
L 467.568368 173.469379 
L 466.826626 172.526682 
L 466.132541 171.583985 
L 465.516402 170.641288 
L 465.005693 169.698591 
L 464.623682 168.755894 
L 464.388153 167.813197 
L 464.310416 166.8705 
L 464.39469 165.927803 
L 464.637933 164.985106 
L 465.030149 164.042409 
L 465.555135 163.099712 
L 466.191625 162.157015 
L 466.9147 161.214318 
L 467.69736 160.271621 
L 468.512106 159.328924 
L 469.332418 158.386227 
L 470.134013 157.44353 
L 470.895812 156.500833 
L 471.600576 155.558136 
L 472.235209 154.615439 
L 472.790763 153.672742 
L 473.262196 152.730045 
L 473.647948 151.787348 
L 473.949422 150.844652 
L 474.170428 149.901955 
L 474.316644 148.959258 
L 474.395146 148.016561 
L 474.414015 147.073864 
L 474.382026 146.131167 
L 474.308408 145.18847 
L 474.20266 144.245773 
L 474.074377 143.303076 
L 473.933093 142.360379 
L 473.788088 141.417682 
L 473.648185 140.474985 
L 473.521502 139.532288 
L 473.415204 138.589591 
L 473.335254 137.646894 
L 473.286185 136.704197 
L 473.270943 135.7615 
L 478.338148 135.7615 
L 478.338148 135.7615 
L 478.322905 136.704197 
L 478.273837 137.646894 
L 478.193887 138.589591 
L 478.087589 139.532288 
L 477.960906 140.474985 
L 477.821002 141.417682 
L 477.675998 142.360379 
L 477.534714 143.303076 
L 477.406431 144.245773 
L 477.300682 145.18847 
L 477.227065 146.131167 
L 477.195076 147.073864 
L 477.213945 148.016561 
L 477.292447 148.959258 
L 477.438663 149.901955 
L 477.659669 150.844652 
L 477.961143 151.787348 
L 478.346895 152.730045 
L 478.818328 153.672742 
L 479.373882 154.615439 
L 480.008515 155.558136 
L 480.713279 156.500833 
L 481.475078 157.44353 
L 482.276673 158.386227 
L 483.096985 159.328924 
L 483.911731 160.271621 
L 484.69439 161.214318 
L 485.417466 162.157015 
L 486.053956 163.099712 
L 486.578942 164.042409 
L 486.971158 164.985106 
L 487.214401 165.927803 
L 487.298674 166.8705 
L 487.220938 167.813197 
L 486.985409 168.755894 
L 486.603398 169.698591 
L 486.092689 170.641288 
L 485.47655 171.583985 
L 484.782465 172.526682 
L 484.040723 173.469379 
L 483.282977 174.412076 
L 482.540907 175.354773 
L 481.84506 176.29747 
L 481.223926 177.240167 
L 480.703268 178.182864 
L 480.305668 179.125561 
L 480.050244 180.068258 
L 479.952456 181.010955 
L 480.023926 181.953652 
L 480.272199 182.896348 
L 480.700412 183.839045 
L 481.306851 184.781742 
L 482.084438 185.724439 
L 483.020214 186.667136 
L 484.094917 187.609833 
L 485.282782 188.55253 
L 486.551666 189.495227 
L 487.863619 190.437924 
L 489.175939 191.380621 
L 490.442738 192.323318 
L 491.616961 193.266015 
L 492.65274 194.208712 
L 493.507917 195.151409 
L 494.146544 196.094106 
L 494.541109 197.036803 
L 494.674318 197.9795 
L 494.540223 198.922197 
L 494.144613 199.864894 
L 493.504604 200.807591 
L 492.647492 201.750288 
L 491.608957 202.692985 
L 490.430806 203.635682 
L 489.158462 204.578379 
L 487.83842 205.521076 
L 486.515867 206.463773 
L 485.232655 207.40647 
L 484.025733 208.349167 
L 482.926086 209.291864 
L 481.958196 210.234561 
L 481.139946 211.177258 
L 480.482884 212.119955 
L 479.992725 213.062652 
L 479.66997 214.005348 
L 479.510542 214.948045 
L 479.506357 215.890742 
L 479.645795 216.833439 
L 479.914056 217.776136 
L 480.293442 218.718833 
L 480.763612 219.66153 
L 481.301871 220.604227 
L 481.883569 221.546924 
L 482.482653 222.489621 
L 483.0724 223.432318 
L 483.626333 224.375015 
L 484.119275 225.317712 
L 484.528475 226.260409 
L 484.834716 227.203106 
L 485.023309 228.145803 
L 485.084864 229.0885 
z
" clip-path="url(#pcc81e670ec)" style="fill: #1f77b4; fill-opacity: 0.3"/>
   </g>
   <g id="PolyCollection_7">
    <path d="M 569.619956 291.3065 
L 532.947317 291.3065 
L 533.088844 290.678035 
L 533.506905 290.049571 
L 534.182437 289.421106 
L 535.085273 288.792641 
L 536.176381 288.164177 
L 537.41065 287.535712 
L 538.739974 286.907247 
L 540.116316 286.278783 
L 541.494505 285.650318 
L 542.83453 285.021854 
L 544.103203 284.393389 
L 545.275115 283.764924 
L 546.332896 283.13646 
L 547.266874 282.507995 
L 548.074231 281.87953 
L 548.757837 281.251066 
L 549.324888 280.622601 
L 549.78551 279.994136 
L 550.151425 279.365672 
L 550.434764 278.737207 
L 550.647083 278.108742 
L 550.798573 277.480278 
L 550.897475 276.851813 
L 550.949677 276.223348 
L 550.958441 275.594884 
L 550.924275 274.966419 
L 550.844898 274.337955 
L 550.715313 273.70949 
L 550.528002 273.081025 
L 550.273258 272.452561 
L 549.939679 271.824096 
L 549.514865 271.195631 
L 548.986329 270.567167 
L 548.342608 269.938702 
L 547.574572 269.310237 
L 546.676835 268.681773 
L 545.649194 268.053308 
L 544.497949 267.424843 
L 543.236957 266.796379 
L 541.888264 266.167914 
L 540.482154 265.539449 
L 539.056533 264.910985 
L 537.655573 264.28252 
L 536.32766 263.654056 
L 535.122743 263.025591 
L 534.089282 262.397126 
L 533.271042 261.768662 
L 532.704029 261.140197 
L 532.413864 260.511732 
L 532.413864 259.883268 
L 532.704029 259.254803 
L 533.271043 258.626338 
L 534.089283 257.997874 
L 535.122745 257.369409 
L 536.327665 256.740944 
L 537.655584 256.11248 
L 539.056553 255.484015 
L 540.482193 254.855551 
L 541.888336 254.227086 
L 543.237091 253.598621 
L 544.498192 252.970157 
L 545.649629 252.341692 
L 546.6776 251.713227 
L 547.575899 251.084763 
L 548.344872 250.456298 
L 548.990134 249.827833 
L 549.521162 249.199369 
L 549.949938 248.570904 
L 550.289716 247.942439 
L 550.553998 247.313975 
L 550.755743 246.68551 
L 550.906812 246.057045 
L 551.017631 245.428581 
L 551.09704 244.800116 
L 551.15228 244.171652 
L 551.189087 243.543187 
L 551.211842 242.914722 
L 551.223758 242.286258 
L 551.227082 241.657793 
L 551.223282 241.029328 
L 551.213235 240.400864 
L 551.197388 239.772399 
L 551.175908 239.143934 
L 551.148814 238.51547 
L 551.116098 237.887005 
L 551.077829 237.25854 
L 551.034243 236.630076 
L 550.985815 236.001611 
L 550.933313 235.373146 
L 550.877814 234.744682 
L 550.820713 234.116217 
L 550.763677 233.487753 
L 550.708583 232.859288 
L 550.657425 232.230823 
L 550.6122 231.602359 
L 550.574777 230.973894 
L 550.546777 230.345429 
L 550.529448 229.716965 
L 550.523582 229.0885 
L 552.043691 229.0885 
L 552.043691 229.0885 
L 552.037825 229.716965 
L 552.020496 230.345429 
L 551.992495 230.973894 
L 551.955073 231.602359 
L 551.909848 232.230823 
L 551.85869 232.859288 
L 551.803596 233.487753 
L 551.746559 234.116217 
L 551.689458 234.744682 
L 551.63396 235.373146 
L 551.581457 236.001611 
L 551.53303 236.630076 
L 551.489444 237.25854 
L 551.451175 237.887005 
L 551.418459 238.51547 
L 551.391365 239.143934 
L 551.369885 239.772399 
L 551.354038 240.400864 
L 551.343991 241.029328 
L 551.340191 241.657793 
L 551.343514 242.286258 
L 551.355431 242.914722 
L 551.378185 243.543187 
L 551.414992 244.171652 
L 551.470233 244.800116 
L 551.549642 245.428581 
L 551.660461 246.057045 
L 551.811529 246.68551 
L 552.013275 247.313975 
L 552.277557 247.942439 
L 552.617335 248.570904 
L 553.046111 249.199369 
L 553.577139 249.827833 
L 554.2224 250.456298 
L 554.991374 251.084763 
L 555.889672 251.713227 
L 556.917644 252.341692 
L 558.069081 252.970157 
L 559.330182 253.598621 
L 560.678936 254.227086 
L 562.08508 254.855551 
L 563.51072 255.484015 
L 564.911689 256.11248 
L 566.239608 256.740944 
L 567.444527 257.369409 
L 568.47799 257.997874 
L 569.29623 258.626338 
L 569.863244 259.254803 
L 570.153409 259.883268 
L 570.153409 260.511732 
L 569.863244 261.140197 
L 569.296231 261.768662 
L 568.477991 262.397126 
L 567.44453 263.025591 
L 566.239613 263.654056 
L 564.9117 264.28252 
L 563.51074 264.910985 
L 562.085119 265.539449 
L 560.679009 266.167914 
L 559.330315 266.796379 
L 558.069324 267.424843 
L 556.918079 268.053308 
L 555.890438 268.681773 
L 554.992701 269.310237 
L 554.224665 269.938702 
L 553.580944 270.567167 
L 553.052407 271.195631 
L 552.627594 271.824096 
L 552.294015 272.452561 
L 552.03927 273.081025 
L 551.85196 273.70949 
L 551.722375 274.337955 
L 551.642997 274.966419 
L 551.608832 275.594884 
L 551.617596 276.223348 
L 551.669797 276.851813 
L 551.7687 277.480278 
L 551.92019 278.108742 
L 552.132509 278.737207 
L 552.415848 279.365672 
L 552.781762 279.994136 
L 553.242385 280.622601 
L 553.809436 281.251066 
L 554.493042 281.87953 
L 555.300399 282.507995 
L 556.234377 283.13646 
L 557.292158 283.764924 
L 558.46407 284.393389 
L 559.732743 285.021854 
L 561.072768 285.650318 
L 562.450956 286.278783 
L 563.827299 286.907247 
L 565.156623 287.535712 
L 566.390892 288.164177 
L 567.481999 288.792641 
L 568.384836 289.421106 
L 569.060367 290.049571 
L 569.478429 290.678035 
L 569.619956 291.3065 
z
" clip-path="url(#pcc81e670ec)" style="fill: #1f77b4; fill-opacity: 0.3"/>
   </g>
   <g id="PolyCollection_8">
    <path d="M 645.6325 291.3065 
L 607.892955 291.3065 
L 608.017388 290.678035 
L 608.385789 290.049571 
L 608.98377 289.421106 
L 609.788395 288.792641 
L 610.769631 288.164177 
L 611.892212 287.535712 
L 613.117728 286.907247 
L 614.406788 286.278783 
L 615.721071 285.650318 
L 617.025132 285.021854 
L 618.287847 284.393389 
L 619.483418 283.764924 
L 620.591928 283.13646 
L 621.599447 282.507995 
L 622.497751 281.87953 
L 623.283717 281.251066 
L 623.958495 280.622601 
L 624.526537 279.994136 
L 624.994582 279.365672 
L 625.370652 278.737207 
L 625.66314 278.108742 
L 625.880002 277.480278 
L 626.028106 276.851813 
L 626.112721 276.223348 
L 626.137178 275.594884 
L 626.102674 274.966419 
L 626.008236 274.337955 
L 625.850832 273.70949 
L 625.625628 273.081025 
L 625.326397 272.452561 
L 624.94607 271.824096 
L 624.477427 271.195631 
L 623.913897 270.567167 
L 623.250461 269.938702 
L 622.484593 269.310237 
L 621.61718 268.681773 
L 620.653372 268.053308 
L 619.60324 267.424843 
L 618.482205 266.796379 
L 617.311124 266.167914 
L 616.115999 265.539449 
L 614.927268 264.910985 
L 613.778686 264.28252 
L 612.705837 263.654056 
L 611.744368 263.025591 
L 610.928047 262.397126 
L 610.286814 261.768662 
L 609.844962 261.140197 
L 609.619612 260.511732 
L 609.619613 259.883268 
L 609.844966 259.254803 
L 610.286822 258.626338 
L 610.928061 257.997874 
L 611.744394 257.369409 
L 612.705884 256.740944 
L 613.778769 256.11248 
L 614.927414 255.484015 
L 616.116253 254.855551 
L 617.311558 254.227086 
L 618.482937 253.598621 
L 619.604458 252.970157 
L 620.655372 252.341692 
L 621.620423 251.713227 
L 622.489779 251.084763 
L 623.258649 250.456298 
L 623.926652 249.827833 
L 624.497035 249.199369 
L 624.975819 248.570904 
L 625.370936 247.942439 
L 625.691435 247.313975 
L 625.946786 246.68551 
L 626.146306 246.057045 
L 626.298734 245.428581 
L 626.411924 244.800116 
L 626.492673 244.171652 
L 626.546642 243.543187 
L 626.578366 242.914722 
L 626.591333 242.286258 
L 626.588092 241.657793 
L 626.570415 241.029328 
L 626.539455 240.400864 
L 626.495931 239.772399 
L 626.440302 239.143934 
L 626.372939 238.51547 
L 626.294294 237.887005 
L 626.205034 237.25854 
L 626.106167 236.630076 
L 625.999128 236.001611 
L 625.88583 235.373146 
L 625.768676 234.744682 
L 625.650517 234.116217 
L 625.534576 233.487753 
L 625.424324 232.859288 
L 625.323317 232.230823 
L 625.23502 231.602359 
L 625.162612 230.973894 
L 625.108798 230.345429 
L 625.075644 229.716965 
L 625.064446 229.0885 
L 628.461008 229.0885 
L 628.461008 229.0885 
L 628.449811 229.716965 
L 628.416657 230.345429 
L 628.362843 230.973894 
L 628.290435 231.602359 
L 628.202138 232.230823 
L 628.101131 232.859288 
L 627.990878 233.487753 
L 627.874938 234.116217 
L 627.756779 234.744682 
L 627.639624 235.373146 
L 627.526327 236.001611 
L 627.419288 236.630076 
L 627.320421 237.25854 
L 627.231161 237.887005 
L 627.152515 238.51547 
L 627.085153 239.143934 
L 627.029523 239.772399 
L 626.985999 240.400864 
L 626.95504 241.029328 
L 626.937362 241.657793 
L 626.934122 242.286258 
L 626.947088 242.914722 
L 626.978813 243.543187 
L 627.032781 244.171652 
L 627.11353 244.800116 
L 627.226721 245.428581 
L 627.379149 246.057045 
L 627.578669 246.68551 
L 627.834019 247.313975 
L 628.154518 247.942439 
L 628.549635 248.570904 
L 629.028419 249.199369 
L 629.598803 249.827833 
L 630.266806 250.456298 
L 631.035675 251.084763 
L 631.905032 251.713227 
L 632.870083 252.341692 
L 633.920997 252.970157 
L 635.042518 253.598621 
L 636.213897 254.227086 
L 637.409202 254.855551 
L 638.59804 255.484015 
L 639.746685 256.11248 
L 640.81957 256.740944 
L 641.78106 257.369409 
L 642.597393 257.997874 
L 643.238633 258.626338 
L 643.680489 259.254803 
L 643.905841 259.883268 
L 643.905842 260.511732 
L 643.680492 261.140197 
L 643.23864 261.768662 
L 642.597407 262.397126 
L 641.781086 263.025591 
L 640.819617 263.654056 
L 639.746769 264.28252 
L 638.598187 264.910985 
L 637.409456 265.539449 
L 636.214331 266.167914 
L 635.04325 266.796379 
L 633.922215 267.424843 
L 632.872083 268.053308 
L 631.908274 268.681773 
L 631.040862 269.310237 
L 630.274993 269.938702 
L 629.611558 270.567167 
L 629.048028 271.195631 
L 628.579384 271.824096 
L 628.199058 272.452561 
L 627.899827 273.081025 
L 627.674623 273.70949 
L 627.517218 274.337955 
L 627.422781 274.966419 
L 627.388277 275.594884 
L 627.412734 276.223348 
L 627.497349 276.851813 
L 627.645452 277.480278 
L 627.862315 278.108742 
L 628.154802 278.737207 
L 628.530873 279.365672 
L 628.998917 279.994136 
L 629.56696 280.622601 
L 630.241737 281.251066 
L 631.027703 281.87953 
L 631.926007 282.507995 
L 632.933527 283.13646 
L 634.042037 283.764924 
L 635.237608 284.393389 
L 636.500322 285.021854 
L 637.804384 285.650318 
L 639.118666 286.278783 
L 640.407726 286.907247 
L 641.633243 287.535712 
L 642.755824 288.164177 
L 643.73706 288.792641 
L 644.541684 289.421106 
L 645.139666 290.049571 
L 645.508066 290.678035 
L 645.6325 291.3065 
z
" clip-path="url(#pcc81e670ec)" style="fill: #1f77b4; fill-opacity: 0.3"/>
   </g>
   <g id="PolyCollection_9">
    <path d="M 721.111591 322.4155 
L 683.372045 322.4155 
L 683.372045 322.4155 
L 683.372045 322.4155 
L 683.372045 322.4155 
L 683.372045 322.4155 
L 683.372045 322.4155 
L 683.372045 322.4155 
L 683.372045 322.4155 
L 683.372045 322.4155 
L 683.372045 322.4155 
L 683.372045 322.4155 
L 683.372045 322.4155 
L 683.372045 322.4155 
L 683.372045 322.4155 
L 683.372045 322.4155 
L 683.372045 322.4155 
L 683.372045 322.4155 
L 683.372045 322.4155 
L 683.372045 322.4155 
L 683.372045 322.4155 
L 683.372045 322.4155 
L 683.372045 322.4155 
L 683.372045 322.4155 
L 683.372045 322.4155 
L 683.372045 322.4155 
L 683.372045 322.4155 
L 683.372045 322.4155 
L 683.372045 322.4155 
L 683.372045 322.4155 
L 683.372045 322.4155 
L 683.372045 322.4155 
L 683.372045 322.4155 
L 683.372045 322.4155 
L 683.372045 322.4155 
L 683.372045 322.4155 
L 683.372045 322.4155 
L 683.372045 322.4155 
L 683.372045 322.4155 
L 683.372045 322.4155 
L 683.372045 322.4155 
L 683.372045 322.4155 
L 683.372045 322.4155 
L 683.372045 322.4155 
L 683.372045 322.4155 
L 683.372045 322.4155 
L 683.372045 322.4155 
L 683.372045 322.4155 
L 683.372045 322.4155 
L 683.372045 322.4155 
L 683.372045 322.4155 
L 683.372045 322.4155 
L 683.372045 322.4155 
L 683.372045 322.4155 
L 683.372045 322.4155 
L 683.372045 322.4155 
L 683.372045 322.4155 
L 683.372045 322.4155 
L 683.372045 322.4155 
L 683.372045 322.4155 
L 683.372045 322.4155 
L 683.372045 322.4155 
L 683.372045 322.4155 
L 683.372045 322.4155 
L 683.372045 322.4155 
L 683.372045 322.4155 
L 683.372045 322.4155 
L 683.372045 322.4155 
L 683.372045 322.4155 
L 683.372045 322.4155 
L 683.372045 322.4155 
L 683.372045 322.4155 
L 683.372045 322.4155 
L 683.372045 322.4155 
L 683.372045 322.4155 
L 683.372045 322.4155 
L 683.372045 322.4155 
L 683.372045 322.4155 
L 683.372045 322.4155 
L 683.372045 322.4155 
L 683.372045 322.4155 
L 683.372045 322.4155 
L 683.372045 322.4155 
L 683.372045 322.4155 
L 683.372045 322.4155 
L 683.372045 322.4155 
L 683.372045 322.4155 
L 683.372045 322.4155 
L 683.372045 322.4155 
L 683.372045 322.4155 
L 683.372045 322.4155 
L 683.372045 322.4155 
L 683.372045 322.4155 
L 683.372045 322.4155 
L 683.372045 322.4155 
L 683.372045 322.4155 
L 683.372045 322.4155 
L 683.372045 322.4155 
L 683.372045 322.4155 
L 683.372045 322.4155 
L 683.372045 322.4155 
L 721.111591 322.4155 
L 721.111591 322.4155 
L 721.111591 322.4155 
L 721.111591 322.4155 
L 721.111591 322.4155 
L 721.111591 322.4155 
L 721.111591 322.4155 
L 721.111591 322.4155 
L 721.111591 322.4155 
L 721.111591 322.4155 
L 721.111591 322.4155 
L 721.111591 322.4155 
L 721.111591 322.4155 
L 721.111591 322.4155 
L 721.111591 322.4155 
L 721.111591 322.4155 
L 721.111591 322.4155 
L 721.111591 322.4155 
L 721.111591 322.4155 
L 721.111591 322.4155 
L 721.111591 322.4155 
L 721.111591 322.4155 
L 721.111591 322.4155 
L 721.111591 322.4155 
L 721.111591 322.4155 
L 721.111591 322.4155 
L 721.111591 322.4155 
L 721.111591 322.4155 
L 721.111591 322.4155 
L 721.111591 322.4155 
L 721.111591 322.4155 
L 721.111591 322.4155 
L 721.111591 322.4155 
L 721.111591 322.4155 
L 721.111591 322.4155 
L 721.111591 322.4155 
L 721.111591 322.4155 
L 721.111591 322.4155 
L 721.111591 322.4155 
L 721.111591 322.4155 
L 721.111591 322.4155 
L 721.111591 322.4155 
L 721.111591 322.4155 
L 721.111591 322.4155 
L 721.111591 322.4155 
L 721.111591 322.4155 
L 721.111591 322.4155 
L 721.111591 322.4155 
L 721.111591 322.4155 
L 721.111591 322.4155 
L 721.111591 322.4155 
L 721.111591 322.4155 
L 721.111591 322.4155 
L 721.111591 322.4155 
L 721.111591 322.4155 
L 721.111591 322.4155 
L 721.111591 322.4155 
L 721.111591 322.4155 
L 721.111591 322.4155 
L 721.111591 322.4155 
L 721.111591 322.4155 
L 721.111591 322.4155 
L 721.111591 322.4155 
L 721.111591 322.4155 
L 721.111591 322.4155 
L 721.111591 322.4155 
L 721.111591 322.4155 
L 721.111591 322.4155 
L 721.111591 322.4155 
L 721.111591 322.4155 
L 721.111591 322.4155 
L 721.111591 322.4155 
L 721.111591 322.4155 
L 721.111591 322.4155 
L 721.111591 322.4155 
L 721.111591 322.4155 
L 721.111591 322.4155 
L 721.111591 322.4155 
L 721.111591 322.4155 
L 721.111591 322.4155 
L 721.111591 322.4155 
L 721.111591 322.4155 
L 721.111591 322.4155 
L 721.111591 322.4155 
L 721.111591 322.4155 
L 721.111591 322.4155 
L 721.111591 322.4155 
L 721.111591 322.4155 
L 721.111591 322.4155 
L 721.111591 322.4155 
L 721.111591 322.4155 
L 721.111591 322.4155 
L 721.111591 322.4155 
L 721.111591 322.4155 
L 721.111591 322.4155 
L 721.111591 322.4155 
L 721.111591 322.4155 
L 721.111591 322.4155 
L 721.111591 322.4155 
L 721.111591 322.4155 
L 721.111591 322.4155 
z
" clip-path="url(#pcc81e670ec)" style="fill: #1f77b4; fill-opacity: 0.3"/>
   </g>
   <g id="PolyCollection_10">
    <path d="M 796.590682 322.4155 
L 758.851136 322.4155 
L 758.851136 322.4155 
L 758.851136 322.4155 
L 758.851136 322.4155 
L 758.851136 322.4155 
L 758.851136 322.4155 
L 758.851136 322.4155 
L 758.851136 322.4155 
L 758.851136 322.4155 
L 758.851136 322.4155 
L 758.851136 322.4155 
L 758.851136 322.4155 
L 758.851136 322.4155 
L 758.851136 322.4155 
L 758.851136 322.4155 
L 758.851136 322.4155 
L 758.851136 322.4155 
L 758.851136 322.4155 
L 758.851136 322.4155 
L 758.851136 322.4155 
L 758.851136 322.4155 
L 758.851136 322.4155 
L 758.851136 322.4155 
L 758.851136 322.4155 
L 758.851136 322.4155 
L 758.851136 322.4155 
L 758.851136 322.4155 
L 758.851136 322.4155 
L 758.851136 322.4155 
L 758.851136 322.4155 
L 758.851136 322.4155 
L 758.851136 322.4155 
L 758.851136 322.4155 
L 758.851136 322.4155 
L 758.851136 322.4155 
L 758.851136 322.4155 
L 758.851136 322.4155 
L 758.851136 322.4155 
L 758.851136 322.4155 
L 758.851136 322.4155 
L 758.851136 322.4155 
L 758.851136 322.4155 
L 758.851136 322.4155 
L 758.851136 322.4155 
L 758.851136 322.4155 
L 758.851136 322.4155 
L 758.851136 322.4155 
L 758.851136 322.4155 
L 758.851136 322.4155 
L 758.851136 322.4155 
L 758.851136 322.4155 
L 758.851136 322.4155 
L 758.851136 322.4155 
L 758.851136 322.4155 
L 758.851136 322.4155 
L 758.851136 322.4155 
L 758.851136 322.4155 
L 758.851136 322.4155 
L 758.851136 322.4155 
L 758.851136 322.4155 
L 758.851136 322.4155 
L 758.851136 322.4155 
L 758.851136 322.4155 
L 758.851136 322.4155 
L 758.851136 322.4155 
L 758.851136 322.4155 
L 758.851136 322.4155 
L 758.851136 322.4155 
L 758.851136 322.4155 
L 758.851136 322.4155 
L 758.851136 322.4155 
L 758.851136 322.4155 
L 758.851136 322.4155 
L 758.851136 322.4155 
L 758.851136 322.4155 
L 758.851136 322.4155 
L 758.851136 322.4155 
L 758.851136 322.4155 
L 758.851136 322.4155 
L 758.851136 322.4155 
L 758.851136 322.4155 
L 758.851136 322.4155 
L 758.851136 322.4155 
L 758.851136 322.4155 
L 758.851136 322.4155 
L 758.851136 322.4155 
L 758.851136 322.4155 
L 758.851136 322.4155 
L 758.851136 322.4155 
L 758.851136 322.4155 
L 758.851136 322.4155 
L 758.851136 322.4155 
L 758.851136 322.4155 
L 758.851136 322.4155 
L 758.851136 322.4155 
L 758.851136 322.4155 
L 758.851136 322.4155 
L 758.851136 322.4155 
L 758.851136 322.4155 
L 758.851136 322.4155 
L 796.590682 322.4155 
L 796.590682 322.4155 
L 796.590682 322.4155 
L 796.590682 322.4155 
L 796.590682 322.4155 
L 796.590682 322.4155 
L 796.590682 322.4155 
L 796.590682 322.4155 
L 796.590682 322.4155 
L 796.590682 322.4155 
L 796.590682 322.4155 
L 796.590682 322.4155 
L 796.590682 322.4155 
L 796.590682 322.4155 
L 796.590682 322.4155 
L 796.590682 322.4155 
L 796.590682 322.4155 
L 796.590682 322.4155 
L 796.590682 322.4155 
L 796.590682 322.4155 
L 796.590682 322.4155 
L 796.590682 322.4155 
L 796.590682 322.4155 
L 796.590682 322.4155 
L 796.590682 322.4155 
L 796.590682 322.4155 
L 796.590682 322.4155 
L 796.590682 322.4155 
L 796.590682 322.4155 
L 796.590682 322.4155 
L 796.590682 322.4155 
L 796.590682 322.4155 
L 796.590682 322.4155 
L 796.590682 322.4155 
L 796.590682 322.4155 
L 796.590682 322.4155 
L 796.590682 322.4155 
L 796.590682 322.4155 
L 796.590682 322.4155 
L 796.590682 322.4155 
L 796.590682 322.4155 
L 796.590682 322.4155 
L 796.590682 322.4155 
L 796.590682 322.4155 
L 796.590682 322.4155 
L 796.590682 322.4155 
L 796.590682 322.4155 
L 796.590682 322.4155 
L 796.590682 322.4155 
L 796.590682 322.4155 
L 796.590682 322.4155 
L 796.590682 322.4155 
L 796.590682 322.4155 
L 796.590682 322.4155 
L 796.590682 322.4155 
L 796.590682 322.4155 
L 796.590682 322.4155 
L 796.590682 322.4155 
L 796.590682 322.4155 
L 796.590682 322.4155 
L 796.590682 322.4155 
L 796.590682 322.4155 
L 796.590682 322.4155 
L 796.590682 322.4155 
L 796.590682 322.4155 
L 796.590682 322.4155 
L 796.590682 322.4155 
L 796.590682 322.4155 
L 796.590682 322.4155 
L 796.590682 322.4155 
L 796.590682 322.4155 
L 796.590682 322.4155 
L 796.590682 322.4155 
L 796.590682 322.4155 
L 796.590682 322.4155 
L 796.590682 322.4155 
L 796.590682 322.4155 
L 796.590682 322.4155 
L 796.590682 322.4155 
L 796.590682 322.4155 
L 796.590682 322.4155 
L 796.590682 322.4155 
L 796.590682 322.4155 
L 796.590682 322.4155 
L 796.590682 322.4155 
L 796.590682 322.4155 
L 796.590682 322.4155 
L 796.590682 322.4155 
L 796.590682 322.4155 
L 796.590682 322.4155 
L 796.590682 322.4155 
L 796.590682 322.4155 
L 796.590682 322.4155 
L 796.590682 322.4155 
L 796.590682 322.4155 
L 796.590682 322.4155 
L 796.590682 322.4155 
L 796.590682 322.4155 
L 796.590682 322.4155 
L 796.590682 322.4155 
L 796.590682 322.4155 
z
" clip-path="url(#pcc81e670ec)" style="fill: #1f77b4; fill-opacity: 0.3"/>
   </g>
   <g id="matplotlib.axis_1">
    <g id="xtick_1">
     <g id="line2d_1">
      <defs>
       <path id="m2d9589ad43" d="M 0 0 
L 0 3.5 
" style="stroke: #000000; stroke-width: 0.8"/>
      </defs>
      <g>
       <use xlink:href="#m2d9589ad43" x="98.409091" y="337.97" style="stroke: #000000; stroke-width: 0.8"/>
      </g>
     </g>
     <g id="text_1">
      <!-- Defector -->
      <g transform="translate(100.616591 379.51)rotate(-90)scale(0.08 -0.08)">
       <defs>
        <path id="DejaVuSans-44" d="M 1259 4147 
L 1259 519 
L 2022 519 
Q 2988 519 3436 956 
Q 3884 1394 3884 2338 
Q 3884 3275 3436 3711 
Q 2988 4147 2022 4147 
L 1259 4147 
z
M 628 4666 
L 1925 4666 
Q 3281 4666 3915 4102 
Q 4550 3538 4550 2338 
Q 4550 1131 3912 565 
Q 3275 0 1925 0 
L 628 0 
L 628 4666 
z
" transform="scale(0.015625)"/>
        <path id="DejaVuSans-65" d="M 3597 1894 
L 3597 1613 
L 953 1613 
Q 991 1019 1311 708 
Q 1631 397 2203 397 
Q 2534 397 2845 478 
Q 3156 559 3463 722 
L 3463 178 
Q 3153 47 2828 -22 
Q 2503 -91 2169 -91 
Q 1331 -91 842 396 
Q 353 884 353 1716 
Q 353 2575 817 3079 
Q 1281 3584 2069 3584 
Q 2775 3584 3186 3129 
Q 3597 2675 3597 1894 
z
M 3022 2063 
Q 3016 2534 2758 2815 
Q 2500 3097 2075 3097 
Q 1594 3097 1305 2825 
Q 1016 2553 972 2059 
L 3022 2063 
z
" transform="scale(0.015625)"/>
        <path id="DejaVuSans-66" d="M 2375 4863 
L 2375 4384 
L 1825 4384 
Q 1516 4384 1395 4259 
Q 1275 4134 1275 3809 
L 1275 3500 
L 2222 3500 
L 2222 3053 
L 1275 3053 
L 1275 0 
L 697 0 
L 697 3053 
L 147 3053 
L 147 3500 
L 697 3500 
L 697 3744 
Q 697 4328 969 4595 
Q 1241 4863 1831 4863 
L 2375 4863 
z
" transform="scale(0.015625)"/>
        <path id="DejaVuSans-63" d="M 3122 3366 
L 3122 2828 
Q 2878 2963 2633 3030 
Q 2388 3097 2138 3097 
Q 1578 3097 1268 2742 
Q 959 2388 959 1747 
Q 959 1106 1268 751 
Q 1578 397 2138 397 
Q 2388 397 2633 464 
Q 2878 531 3122 666 
L 3122 134 
Q 2881 22 2623 -34 
Q 2366 -91 2075 -91 
Q 1284 -91 818 406 
Q 353 903 353 1747 
Q 353 2603 823 3093 
Q 1294 3584 2113 3584 
Q 2378 3584 2631 3529 
Q 2884 3475 3122 3366 
z
" transform="scale(0.015625)"/>
        <path id="DejaVuSans-74" d="M 1172 4494 
L 1172 3500 
L 2356 3500 
L 2356 3053 
L 1172 3053 
L 1172 1153 
Q 1172 725 1289 603 
Q 1406 481 1766 481 
L 2356 481 
L 2356 0 
L 1766 0 
Q 1100 0 847 248 
Q 594 497 594 1153 
L 594 3053 
L 172 3053 
L 172 3500 
L 594 3500 
L 594 4494 
L 1172 4494 
z
" transform="scale(0.015625)"/>
        <path id="DejaVuSans-6f" d="M 1959 3097 
Q 1497 3097 1228 2736 
Q 959 2375 959 1747 
Q 959 1119 1226 758 
Q 1494 397 1959 397 
Q 2419 397 2687 759 
Q 2956 1122 2956 1747 
Q 2956 2369 2687 2733 
Q 2419 3097 1959 3097 
z
M 1959 3584 
Q 2709 3584 3137 3096 
Q 3566 2609 3566 1747 
Q 3566 888 3137 398 
Q 2709 -91 1959 -91 
Q 1206 -91 779 398 
Q 353 888 353 1747 
Q 353 2609 779 3096 
Q 1206 3584 1959 3584 
z
" transform="scale(0.015625)"/>
        <path id="DejaVuSans-72" d="M 2631 2963 
Q 2534 3019 2420 3045 
Q 2306 3072 2169 3072 
Q 1681 3072 1420 2755 
Q 1159 2438 1159 1844 
L 1159 0 
L 581 0 
L 581 3500 
L 1159 3500 
L 1159 2956 
Q 1341 3275 1631 3429 
Q 1922 3584 2338 3584 
Q 2397 3584 2469 3576 
Q 2541 3569 2628 3553 
L 2631 2963 
z
" transform="scale(0.015625)"/>
       </defs>
       <use xlink:href="#DejaVuSans-44"/>
       <use xlink:href="#DejaVuSans-65" x="77.001953"/>
       <use xlink:href="#DejaVuSans-66" x="138.525391"/>
       <use xlink:href="#DejaVuSans-65" x="173.730469"/>
       <use xlink:href="#DejaVuSans-63" x="235.253906"/>
       <use xlink:href="#DejaVuSans-74" x="290.234375"/>
       <use xlink:href="#DejaVuSans-6f" x="329.443359"/>
       <use xlink:href="#DejaVuSans-72" x="390.625"/>
      </g>
     </g>
    </g>
    <g id="xtick_2">
     <g id="line2d_2">
      <g>
       <use xlink:href="#m2d9589ad43" x="173.888182" y="337.97" style="stroke: #000000; stroke-width: 0.8"/>
      </g>
     </g>
     <g id="text_2">
      <!-- Grudger -->
      <g transform="translate(176.095682 377.89625)rotate(-90)scale(0.08 -0.08)">
       <defs>
        <path id="DejaVuSans-47" d="M 3809 666 
L 3809 1919 
L 2778 1919 
L 2778 2438 
L 4434 2438 
L 4434 434 
Q 4069 175 3628 42 
Q 3188 -91 2688 -91 
Q 1594 -91 976 548 
Q 359 1188 359 2328 
Q 359 3472 976 4111 
Q 1594 4750 2688 4750 
Q 3144 4750 3555 4637 
Q 3966 4525 4313 4306 
L 4313 3634 
Q 3963 3931 3569 4081 
Q 3175 4231 2741 4231 
Q 1884 4231 1454 3753 
Q 1025 3275 1025 2328 
Q 1025 1384 1454 906 
Q 1884 428 2741 428 
Q 3075 428 3337 486 
Q 3600 544 3809 666 
z
" transform="scale(0.015625)"/>
        <path id="DejaVuSans-75" d="M 544 1381 
L 544 3500 
L 1119 3500 
L 1119 1403 
Q 1119 906 1312 657 
Q 1506 409 1894 409 
Q 2359 409 2629 706 
Q 2900 1003 2900 1516 
L 2900 3500 
L 3475 3500 
L 3475 0 
L 2900 0 
L 2900 538 
Q 2691 219 2414 64 
Q 2138 -91 1772 -91 
Q 1169 -91 856 284 
Q 544 659 544 1381 
z
M 1991 3584 
L 1991 3584 
z
" transform="scale(0.015625)"/>
        <path id="DejaVuSans-64" d="M 2906 2969 
L 2906 4863 
L 3481 4863 
L 3481 0 
L 2906 0 
L 2906 525 
Q 2725 213 2448 61 
Q 2172 -91 1784 -91 
Q 1150 -91 751 415 
Q 353 922 353 1747 
Q 353 2572 751 3078 
Q 1150 3584 1784 3584 
Q 2172 3584 2448 3432 
Q 2725 3281 2906 2969 
z
M 947 1747 
Q 947 1113 1208 752 
Q 1469 391 1925 391 
Q 2381 391 2643 752 
Q 2906 1113 2906 1747 
Q 2906 2381 2643 2742 
Q 2381 3103 1925 3103 
Q 1469 3103 1208 2742 
Q 947 2381 947 1747 
z
" transform="scale(0.015625)"/>
        <path id="DejaVuSans-67" d="M 2906 1791 
Q 2906 2416 2648 2759 
Q 2391 3103 1925 3103 
Q 1463 3103 1205 2759 
Q 947 2416 947 1791 
Q 947 1169 1205 825 
Q 1463 481 1925 481 
Q 2391 481 2648 825 
Q 2906 1169 2906 1791 
z
M 3481 434 
Q 3481 -459 3084 -895 
Q 2688 -1331 1869 -1331 
Q 1566 -1331 1297 -1286 
Q 1028 -1241 775 -1147 
L 775 -588 
Q 1028 -725 1275 -790 
Q 1522 -856 1778 -856 
Q 2344 -856 2625 -561 
Q 2906 -266 2906 331 
L 2906 616 
Q 2728 306 2450 153 
Q 2172 0 1784 0 
Q 1141 0 747 490 
Q 353 981 353 1791 
Q 353 2603 747 3093 
Q 1141 3584 1784 3584 
Q 2172 3584 2450 3431 
Q 2728 3278 2906 2969 
L 2906 3500 
L 3481 3500 
L 3481 434 
z
" transform="scale(0.015625)"/>
       </defs>
       <use xlink:href="#DejaVuSans-47"/>
       <use xlink:href="#DejaVuSans-72" x="77.490234"/>
       <use xlink:href="#DejaVuSans-75" x="118.603516"/>
       <use xlink:href="#DejaVuSans-64" x="181.982422"/>
       <use xlink:href="#DejaVuSans-67" x="245.458984"/>
       <use xlink:href="#DejaVuSans-65" x="308.935547"/>
       <use xlink:href="#DejaVuSans-72" x="370.458984"/>
      </g>
     </g>
    </g>
    <g id="xtick_3">
     <g id="line2d_3">
      <g>
       <use xlink:href="#m2d9589ad43" x="249.367273" y="337.97" style="stroke: #000000; stroke-width: 0.8"/>
      </g>
     </g>
     <g id="text_3">
      <!-- Adaptive -->
      <g transform="translate(251.574773 380.37875)rotate(-90)scale(0.08 -0.08)">
       <defs>
        <path id="DejaVuSans-41" d="M 2188 4044 
L 1331 1722 
L 3047 1722 
L 2188 4044 
z
M 1831 4666 
L 2547 4666 
L 4325 0 
L 3669 0 
L 3244 1197 
L 1141 1197 
L 716 0 
L 50 0 
L 1831 4666 
z
" transform="scale(0.015625)"/>
        <path id="DejaVuSans-61" d="M 2194 1759 
Q 1497 1759 1228 1600 
Q 959 1441 959 1056 
Q 959 750 1161 570 
Q 1363 391 1709 391 
Q 2188 391 2477 730 
Q 2766 1069 2766 1631 
L 2766 1759 
L 2194 1759 
z
M 3341 1997 
L 3341 0 
L 2766 0 
L 2766 531 
Q 2569 213 2275 61 
Q 1981 -91 1556 -91 
Q 1019 -91 701 211 
Q 384 513 384 1019 
Q 384 1609 779 1909 
Q 1175 2209 1959 2209 
L 2766 2209 
L 2766 2266 
Q 2766 2663 2505 2880 
Q 2244 3097 1772 3097 
Q 1472 3097 1187 3025 
Q 903 2953 641 2809 
L 641 3341 
Q 956 3463 1253 3523 
Q 1550 3584 1831 3584 
Q 2591 3584 2966 3190 
Q 3341 2797 3341 1997 
z
" transform="scale(0.015625)"/>
        <path id="DejaVuSans-70" d="M 1159 525 
L 1159 -1331 
L 581 -1331 
L 581 3500 
L 1159 3500 
L 1159 2969 
Q 1341 3281 1617 3432 
Q 1894 3584 2278 3584 
Q 2916 3584 3314 3078 
Q 3713 2572 3713 1747 
Q 3713 922 3314 415 
Q 2916 -91 2278 -91 
Q 1894 -91 1617 61 
Q 1341 213 1159 525 
z
M 3116 1747 
Q 3116 2381 2855 2742 
Q 2594 3103 2138 3103 
Q 1681 3103 1420 2742 
Q 1159 2381 1159 1747 
Q 1159 1113 1420 752 
Q 1681 391 2138 391 
Q 2594 391 2855 752 
Q 3116 1113 3116 1747 
z
" transform="scale(0.015625)"/>
        <path id="DejaVuSans-69" d="M 603 3500 
L 1178 3500 
L 1178 0 
L 603 0 
L 603 3500 
z
M 603 4863 
L 1178 4863 
L 1178 4134 
L 603 4134 
L 603 4863 
z
" transform="scale(0.015625)"/>
        <path id="DejaVuSans-76" d="M 191 3500 
L 800 3500 
L 1894 563 
L 2988 3500 
L 3597 3500 
L 2284 0 
L 1503 0 
L 191 3500 
z
" transform="scale(0.015625)"/>
       </defs>
       <use xlink:href="#DejaVuSans-41"/>
       <use xlink:href="#DejaVuSans-64" x="66.658203"/>
       <use xlink:href="#DejaVuSans-61" x="130.134766"/>
       <use xlink:href="#DejaVuSans-70" x="191.414062"/>
       <use xlink:href="#DejaVuSans-74" x="254.890625"/>
       <use xlink:href="#DejaVuSans-69" x="294.099609"/>
       <use xlink:href="#DejaVuSans-76" x="321.882812"/>
       <use xlink:href="#DejaVuSans-65" x="381.0625"/>
      </g>
     </g>
    </g>
    <g id="xtick_4">
     <g id="line2d_4">
      <g>
       <use xlink:href="#m2d9589ad43" x="324.846364" y="337.97" style="stroke: #000000; stroke-width: 0.8"/>
      </g>
     </g>
     <g id="text_4">
      <!-- Alternator -->
      <g transform="translate(327.053864 385.165)rotate(-90)scale(0.08 -0.08)">
       <defs>
        <path id="DejaVuSans-6c" d="M 603 4863 
L 1178 4863 
L 1178 0 
L 603 0 
L 603 4863 
z
" transform="scale(0.015625)"/>
        <path id="DejaVuSans-6e" d="M 3513 2113 
L 3513 0 
L 2938 0 
L 2938 2094 
Q 2938 2591 2744 2837 
Q 2550 3084 2163 3084 
Q 1697 3084 1428 2787 
Q 1159 2491 1159 1978 
L 1159 0 
L 581 0 
L 581 3500 
L 1159 3500 
L 1159 2956 
Q 1366 3272 1645 3428 
Q 1925 3584 2291 3584 
Q 2894 3584 3203 3211 
Q 3513 2838 3513 2113 
z
" transform="scale(0.015625)"/>
       </defs>
       <use xlink:href="#DejaVuSans-41"/>
       <use xlink:href="#DejaVuSans-6c" x="68.408203"/>
       <use xlink:href="#DejaVuSans-74" x="96.191406"/>
       <use xlink:href="#DejaVuSans-65" x="135.400391"/>
       <use xlink:href="#DejaVuSans-72" x="196.923828"/>
       <use xlink:href="#DejaVuSans-6e" x="236.287109"/>
       <use xlink:href="#DejaVuSans-61" x="299.666016"/>
       <use xlink:href="#DejaVuSans-74" x="360.945312"/>
       <use xlink:href="#DejaVuSans-6f" x="400.154297"/>
       <use xlink:href="#DejaVuSans-72" x="461.335938"/>
      </g>
     </g>
    </g>
    <g id="xtick_5">
     <g id="line2d_5">
      <g>
       <use xlink:href="#m2d9589ad43" x="400.325455" y="337.97" style="stroke: #000000; stroke-width: 0.8"/>
      </g>
     </g>
     <g id="text_5">
      <!-- Deep QLearner -->
      <g transform="translate(402.532955 405.46625)rotate(-90)scale(0.08 -0.08)">
       <defs>
        <path id="DejaVuSans-20" transform="scale(0.015625)"/>
        <path id="DejaVuSans-51" d="M 2522 4238 
Q 1834 4238 1429 3725 
Q 1025 3213 1025 2328 
Q 1025 1447 1429 934 
Q 1834 422 2522 422 
Q 3209 422 3611 934 
Q 4013 1447 4013 2328 
Q 4013 3213 3611 3725 
Q 3209 4238 2522 4238 
z
M 3406 84 
L 4238 -825 
L 3475 -825 
L 2784 -78 
Q 2681 -84 2626 -87 
Q 2572 -91 2522 -91 
Q 1538 -91 948 567 
Q 359 1225 359 2328 
Q 359 3434 948 4092 
Q 1538 4750 2522 4750 
Q 3503 4750 4090 4092 
Q 4678 3434 4678 2328 
Q 4678 1516 4351 937 
Q 4025 359 3406 84 
z
" transform="scale(0.015625)"/>
        <path id="DejaVuSans-4c" d="M 628 4666 
L 1259 4666 
L 1259 531 
L 3531 531 
L 3531 0 
L 628 0 
L 628 4666 
z
" transform="scale(0.015625)"/>
       </defs>
       <use xlink:href="#DejaVuSans-44"/>
       <use xlink:href="#DejaVuSans-65" x="77.001953"/>
       <use xlink:href="#DejaVuSans-65" x="138.525391"/>
       <use xlink:href="#DejaVuSans-70" x="200.048828"/>
       <use xlink:href="#DejaVuSans-20" x="263.525391"/>
       <use xlink:href="#DejaVuSans-51" x="295.3125"/>
       <use xlink:href="#DejaVuSans-4c" x="374.023438"/>
       <use xlink:href="#DejaVuSans-65" x="427.986328"/>
       <use xlink:href="#DejaVuSans-61" x="489.509766"/>
       <use xlink:href="#DejaVuSans-72" x="550.789062"/>
       <use xlink:href="#DejaVuSans-6e" x="590.152344"/>
       <use xlink:href="#DejaVuSans-65" x="653.53125"/>
       <use xlink:href="#DejaVuSans-72" x="715.054688"/>
      </g>
     </g>
    </g>
    <g id="xtick_6">
     <g id="line2d_6">
      <g>
       <use xlink:href="#m2d9589ad43" x="475.804545" y="337.97" style="stroke: #000000; stroke-width: 0.8"/>
      </g>
     </g>
     <g id="text_6">
      <!-- Random: 0.5 -->
      <g transform="translate(478.012045 396.0475)rotate(-90)scale(0.08 -0.08)">
       <defs>
        <path id="DejaVuSans-52" d="M 2841 2188 
Q 3044 2119 3236 1894 
Q 3428 1669 3622 1275 
L 4263 0 
L 3584 0 
L 2988 1197 
Q 2756 1666 2539 1819 
Q 2322 1972 1947 1972 
L 1259 1972 
L 1259 0 
L 628 0 
L 628 4666 
L 2053 4666 
Q 2853 4666 3247 4331 
Q 3641 3997 3641 3322 
Q 3641 2881 3436 2590 
Q 3231 2300 2841 2188 
z
M 1259 4147 
L 1259 2491 
L 2053 2491 
Q 2509 2491 2742 2702 
Q 2975 2913 2975 3322 
Q 2975 3731 2742 3939 
Q 2509 4147 2053 4147 
L 1259 4147 
z
" transform="scale(0.015625)"/>
        <path id="DejaVuSans-6d" d="M 3328 2828 
Q 3544 3216 3844 3400 
Q 4144 3584 4550 3584 
Q 5097 3584 5394 3201 
Q 5691 2819 5691 2113 
L 5691 0 
L 5113 0 
L 5113 2094 
Q 5113 2597 4934 2840 
Q 4756 3084 4391 3084 
Q 3944 3084 3684 2787 
Q 3425 2491 3425 1978 
L 3425 0 
L 2847 0 
L 2847 2094 
Q 2847 2600 2669 2842 
Q 2491 3084 2119 3084 
Q 1678 3084 1418 2786 
Q 1159 2488 1159 1978 
L 1159 0 
L 581 0 
L 581 3500 
L 1159 3500 
L 1159 2956 
Q 1356 3278 1631 3431 
Q 1906 3584 2284 3584 
Q 2666 3584 2933 3390 
Q 3200 3197 3328 2828 
z
" transform="scale(0.015625)"/>
        <path id="DejaVuSans-3a" d="M 750 794 
L 1409 794 
L 1409 0 
L 750 0 
L 750 794 
z
M 750 3309 
L 1409 3309 
L 1409 2516 
L 750 2516 
L 750 3309 
z
" transform="scale(0.015625)"/>
        <path id="DejaVuSans-30" d="M 2034 4250 
Q 1547 4250 1301 3770 
Q 1056 3291 1056 2328 
Q 1056 1369 1301 889 
Q 1547 409 2034 409 
Q 2525 409 2770 889 
Q 3016 1369 3016 2328 
Q 3016 3291 2770 3770 
Q 2525 4250 2034 4250 
z
M 2034 4750 
Q 2819 4750 3233 4129 
Q 3647 3509 3647 2328 
Q 3647 1150 3233 529 
Q 2819 -91 2034 -91 
Q 1250 -91 836 529 
Q 422 1150 422 2328 
Q 422 3509 836 4129 
Q 1250 4750 2034 4750 
z
" transform="scale(0.015625)"/>
        <path id="DejaVuSans-2e" d="M 684 794 
L 1344 794 
L 1344 0 
L 684 0 
L 684 794 
z
" transform="scale(0.015625)"/>
        <path id="DejaVuSans-35" d="M 691 4666 
L 3169 4666 
L 3169 4134 
L 1269 4134 
L 1269 2991 
Q 1406 3038 1543 3061 
Q 1681 3084 1819 3084 
Q 2600 3084 3056 2656 
Q 3513 2228 3513 1497 
Q 3513 744 3044 326 
Q 2575 -91 1722 -91 
Q 1428 -91 1123 -41 
Q 819 9 494 109 
L 494 744 
Q 775 591 1075 516 
Q 1375 441 1709 441 
Q 2250 441 2565 725 
Q 2881 1009 2881 1497 
Q 2881 1984 2565 2268 
Q 2250 2553 1709 2553 
Q 1456 2553 1204 2497 
Q 953 2441 691 2322 
L 691 4666 
z
" transform="scale(0.015625)"/>
       </defs>
       <use xlink:href="#DejaVuSans-52"/>
       <use xlink:href="#DejaVuSans-61" x="67.232422"/>
       <use xlink:href="#DejaVuSans-6e" x="128.511719"/>
       <use xlink:href="#DejaVuSans-64" x="191.890625"/>
       <use xlink:href="#DejaVuSans-6f" x="255.367188"/>
       <use xlink:href="#DejaVuSans-6d" x="316.548828"/>
       <use xlink:href="#DejaVuSans-3a" x="413.960938"/>
       <use xlink:href="#DejaVuSans-20" x="447.652344"/>
       <use xlink:href="#DejaVuSans-30" x="479.439453"/>
       <use xlink:href="#DejaVuSans-2e" x="543.0625"/>
       <use xlink:href="#DejaVuSans-35" x="574.849609"/>
      </g>
     </g>
    </g>
    <g id="xtick_7">
     <g id="line2d_7">
      <g>
       <use xlink:href="#m2d9589ad43" x="551.283636" y="337.97" style="stroke: #000000; stroke-width: 0.8"/>
      </g>
     </g>
     <g id="text_7">
      <!-- Mediocre QLearner -->
      <g transform="translate(553.491136 420.83375)rotate(-90)scale(0.08 -0.08)">
       <defs>
        <path id="DejaVuSans-4d" d="M 628 4666 
L 1569 4666 
L 2759 1491 
L 3956 4666 
L 4897 4666 
L 4897 0 
L 4281 0 
L 4281 4097 
L 3078 897 
L 2444 897 
L 1241 4097 
L 1241 0 
L 628 0 
L 628 4666 
z
" transform="scale(0.015625)"/>
       </defs>
       <use xlink:href="#DejaVuSans-4d"/>
       <use xlink:href="#DejaVuSans-65" x="86.279297"/>
       <use xlink:href="#DejaVuSans-64" x="147.802734"/>
       <use xlink:href="#DejaVuSans-69" x="211.279297"/>
       <use xlink:href="#DejaVuSans-6f" x="239.0625"/>
       <use xlink:href="#DejaVuSans-63" x="300.244141"/>
       <use xlink:href="#DejaVuSans-72" x="355.224609"/>
       <use xlink:href="#DejaVuSans-65" x="394.087891"/>
       <use xlink:href="#DejaVuSans-20" x="455.611328"/>
       <use xlink:href="#DejaVuSans-51" x="487.398438"/>
       <use xlink:href="#DejaVuSans-4c" x="566.109375"/>
       <use xlink:href="#DejaVuSans-65" x="620.072266"/>
       <use xlink:href="#DejaVuSans-61" x="681.595703"/>
       <use xlink:href="#DejaVuSans-72" x="742.875"/>
       <use xlink:href="#DejaVuSans-6e" x="782.238281"/>
       <use xlink:href="#DejaVuSans-65" x="845.617188"/>
       <use xlink:href="#DejaVuSans-72" x="907.140625"/>
      </g>
     </g>
    </g>
    <g id="xtick_8">
     <g id="line2d_8">
      <g>
       <use xlink:href="#m2d9589ad43" x="626.762727" y="337.97" style="stroke: #000000; stroke-width: 0.8"/>
      </g>
     </g>
     <g id="text_8">
      <!-- Risky QLearner -->
      <g transform="translate(628.970227 405.40875)rotate(-90)scale(0.08 -0.08)">
       <defs>
        <path id="DejaVuSans-73" d="M 2834 3397 
L 2834 2853 
Q 2591 2978 2328 3040 
Q 2066 3103 1784 3103 
Q 1356 3103 1142 2972 
Q 928 2841 928 2578 
Q 928 2378 1081 2264 
Q 1234 2150 1697 2047 
L 1894 2003 
Q 2506 1872 2764 1633 
Q 3022 1394 3022 966 
Q 3022 478 2636 193 
Q 2250 -91 1575 -91 
Q 1294 -91 989 -36 
Q 684 19 347 128 
L 347 722 
Q 666 556 975 473 
Q 1284 391 1588 391 
Q 1994 391 2212 530 
Q 2431 669 2431 922 
Q 2431 1156 2273 1281 
Q 2116 1406 1581 1522 
L 1381 1569 
Q 847 1681 609 1914 
Q 372 2147 372 2553 
Q 372 3047 722 3315 
Q 1072 3584 1716 3584 
Q 2034 3584 2315 3537 
Q 2597 3491 2834 3397 
z
" transform="scale(0.015625)"/>
        <path id="DejaVuSans-6b" d="M 581 4863 
L 1159 4863 
L 1159 1991 
L 2875 3500 
L 3609 3500 
L 1753 1863 
L 3688 0 
L 2938 0 
L 1159 1709 
L 1159 0 
L 581 0 
L 581 4863 
z
" transform="scale(0.015625)"/>
        <path id="DejaVuSans-79" d="M 2059 -325 
Q 1816 -950 1584 -1140 
Q 1353 -1331 966 -1331 
L 506 -1331 
L 506 -850 
L 844 -850 
Q 1081 -850 1212 -737 
Q 1344 -625 1503 -206 
L 1606 56 
L 191 3500 
L 800 3500 
L 1894 763 
L 2988 3500 
L 3597 3500 
L 2059 -325 
z
" transform="scale(0.015625)"/>
       </defs>
       <use xlink:href="#DejaVuSans-52"/>
       <use xlink:href="#DejaVuSans-69" x="69.482422"/>
       <use xlink:href="#DejaVuSans-73" x="97.265625"/>
       <use xlink:href="#DejaVuSans-6b" x="149.365234"/>
       <use xlink:href="#DejaVuSans-79" x="203.650391"/>
       <use xlink:href="#DejaVuSans-20" x="262.830078"/>
       <use xlink:href="#DejaVuSans-51" x="294.617188"/>
       <use xlink:href="#DejaVuSans-4c" x="373.328125"/>
       <use xlink:href="#DejaVuSans-65" x="427.291016"/>
       <use xlink:href="#DejaVuSans-61" x="488.814453"/>
       <use xlink:href="#DejaVuSans-72" x="550.09375"/>
       <use xlink:href="#DejaVuSans-6e" x="589.457031"/>
       <use xlink:href="#DejaVuSans-65" x="652.835938"/>
       <use xlink:href="#DejaVuSans-72" x="714.359375"/>
      </g>
     </g>
    </g>
    <g id="xtick_9">
     <g id="line2d_9">
      <g>
       <use xlink:href="#m2d9589ad43" x="702.241818" y="337.97" style="stroke: #000000; stroke-width: 0.8"/>
      </g>
     </g>
     <g id="text_9">
      <!-- Tit For Tat -->
      <g transform="translate(704.449318 384.15)rotate(-90)scale(0.08 -0.08)">
       <defs>
        <path id="DejaVuSans-54" d="M -19 4666 
L 3928 4666 
L 3928 4134 
L 2272 4134 
L 2272 0 
L 1638 0 
L 1638 4134 
L -19 4134 
L -19 4666 
z
" transform="scale(0.015625)"/>
        <path id="DejaVuSans-46" d="M 628 4666 
L 3309 4666 
L 3309 4134 
L 1259 4134 
L 1259 2759 
L 3109 2759 
L 3109 2228 
L 1259 2228 
L 1259 0 
L 628 0 
L 628 4666 
z
" transform="scale(0.015625)"/>
       </defs>
       <use xlink:href="#DejaVuSans-54"/>
       <use xlink:href="#DejaVuSans-69" x="57.958984"/>
       <use xlink:href="#DejaVuSans-74" x="85.742188"/>
       <use xlink:href="#DejaVuSans-20" x="124.951172"/>
       <use xlink:href="#DejaVuSans-46" x="156.738281"/>
       <use xlink:href="#DejaVuSans-6f" x="210.632812"/>
       <use xlink:href="#DejaVuSans-72" x="271.814453"/>
       <use xlink:href="#DejaVuSans-20" x="312.927734"/>
       <use xlink:href="#DejaVuSans-54" x="344.714844"/>
       <use xlink:href="#DejaVuSans-61" x="389.298828"/>
       <use xlink:href="#DejaVuSans-74" x="450.578125"/>
      </g>
     </g>
    </g>
    <g id="xtick_10">
     <g id="line2d_10">
      <g>
       <use xlink:href="#m2d9589ad43" x="777.720909" y="337.97" style="stroke: #000000; stroke-width: 0.8"/>
      </g>
     </g>
     <g id="text_10">
      <!-- Cooperator -->
      <g transform="translate(779.928409 389.85875)rotate(-90)scale(0.08 -0.08)">
       <defs>
        <path id="DejaVuSans-43" d="M 4122 4306 
L 4122 3641 
Q 3803 3938 3442 4084 
Q 3081 4231 2675 4231 
Q 1875 4231 1450 3742 
Q 1025 3253 1025 2328 
Q 1025 1406 1450 917 
Q 1875 428 2675 428 
Q 3081 428 3442 575 
Q 3803 722 4122 1019 
L 4122 359 
Q 3791 134 3420 21 
Q 3050 -91 2638 -91 
Q 1578 -91 968 557 
Q 359 1206 359 2328 
Q 359 3453 968 4101 
Q 1578 4750 2638 4750 
Q 3056 4750 3426 4639 
Q 3797 4528 4122 4306 
z
" transform="scale(0.015625)"/>
       </defs>
       <use xlink:href="#DejaVuSans-43"/>
       <use xlink:href="#DejaVuSans-6f" x="69.824219"/>
       <use xlink:href="#DejaVuSans-6f" x="131.005859"/>
       <use xlink:href="#DejaVuSans-70" x="192.1875"/>
       <use xlink:href="#DejaVuSans-65" x="255.664062"/>
       <use xlink:href="#DejaVuSans-72" x="317.1875"/>
       <use xlink:href="#DejaVuSans-61" x="358.300781"/>
       <use xlink:href="#DejaVuSans-74" x="419.580078"/>
       <use xlink:href="#DejaVuSans-6f" x="458.789062"/>
       <use xlink:href="#DejaVuSans-72" x="519.970703"/>
      </g>
     </g>
    </g>
   </g>
   <g id="matplotlib.axis_2">
    <g id="ytick_1">
     <g id="line2d_11">
      <defs>
       <path id="m6a5e9844cf" d="M 0 0 
L -3.5 0 
" style="stroke: #000000; stroke-width: 0.8"/>
      </defs>
      <g>
       <use xlink:href="#m6a5e9844cf" x="22.93" y="322.4155" style="stroke: #000000; stroke-width: 0.8"/>
      </g>
     </g>
     <g id="text_11">
      <!-- 0 -->
      <g transform="translate(10.84 325.454875)scale(0.08 -0.08)">
       <use xlink:href="#DejaVuSans-30"/>
      </g>
     </g>
    </g>
    <g id="ytick_2">
     <g id="line2d_12">
      <g>
       <use xlink:href="#m6a5e9844cf" x="22.93" y="260.1975" style="stroke: #000000; stroke-width: 0.8"/>
      </g>
     </g>
     <g id="text_12">
      <!-- 2 -->
      <g transform="translate(10.84 263.236875)scale(0.08 -0.08)">
       <defs>
        <path id="DejaVuSans-32" d="M 1228 531 
L 3431 531 
L 3431 0 
L 469 0 
L 469 531 
Q 828 903 1448 1529 
Q 2069 2156 2228 2338 
Q 2531 2678 2651 2914 
Q 2772 3150 2772 3378 
Q 2772 3750 2511 3984 
Q 2250 4219 1831 4219 
Q 1534 4219 1204 4116 
Q 875 4013 500 3803 
L 500 4441 
Q 881 4594 1212 4672 
Q 1544 4750 1819 4750 
Q 2544 4750 2975 4387 
Q 3406 4025 3406 3419 
Q 3406 3131 3298 2873 
Q 3191 2616 2906 2266 
Q 2828 2175 2409 1742 
Q 1991 1309 1228 531 
z
" transform="scale(0.015625)"/>
       </defs>
       <use xlink:href="#DejaVuSans-32"/>
      </g>
     </g>
    </g>
    <g id="ytick_3">
     <g id="line2d_13">
      <g>
       <use xlink:href="#m6a5e9844cf" x="22.93" y="197.9795" style="stroke: #000000; stroke-width: 0.8"/>
      </g>
     </g>
     <g id="text_13">
      <!-- 4 -->
      <g transform="translate(10.84 201.018875)scale(0.08 -0.08)">
       <defs>
        <path id="DejaVuSans-34" d="M 2419 4116 
L 825 1625 
L 2419 1625 
L 2419 4116 
z
M 2253 4666 
L 3047 4666 
L 3047 1625 
L 3713 1625 
L 3713 1100 
L 3047 1100 
L 3047 0 
L 2419 0 
L 2419 1100 
L 313 1100 
L 313 1709 
L 2253 4666 
z
" transform="scale(0.015625)"/>
       </defs>
       <use xlink:href="#DejaVuSans-34"/>
      </g>
     </g>
    </g>
    <g id="ytick_4">
     <g id="line2d_14">
      <g>
       <use xlink:href="#m6a5e9844cf" x="22.93" y="135.7615" style="stroke: #000000; stroke-width: 0.8"/>
      </g>
     </g>
     <g id="text_14">
      <!-- 6 -->
      <g transform="translate(10.84 138.800875)scale(0.08 -0.08)">
       <defs>
        <path id="DejaVuSans-36" d="M 2113 2584 
Q 1688 2584 1439 2293 
Q 1191 2003 1191 1497 
Q 1191 994 1439 701 
Q 1688 409 2113 409 
Q 2538 409 2786 701 
Q 3034 994 3034 1497 
Q 3034 2003 2786 2293 
Q 2538 2584 2113 2584 
z
M 3366 4563 
L 3366 3988 
Q 3128 4100 2886 4159 
Q 2644 4219 2406 4219 
Q 1781 4219 1451 3797 
Q 1122 3375 1075 2522 
Q 1259 2794 1537 2939 
Q 1816 3084 2150 3084 
Q 2853 3084 3261 2657 
Q 3669 2231 3669 1497 
Q 3669 778 3244 343 
Q 2819 -91 2113 -91 
Q 1303 -91 875 529 
Q 447 1150 447 2328 
Q 447 3434 972 4092 
Q 1497 4750 2381 4750 
Q 2619 4750 2861 4703 
Q 3103 4656 3366 4563 
z
" transform="scale(0.015625)"/>
       </defs>
       <use xlink:href="#DejaVuSans-36"/>
      </g>
     </g>
    </g>
    <g id="ytick_5">
     <g id="line2d_15">
      <g>
       <use xlink:href="#m6a5e9844cf" x="22.93" y="73.5435" style="stroke: #000000; stroke-width: 0.8"/>
      </g>
     </g>
     <g id="text_15">
      <!-- 8 -->
      <g transform="translate(10.84 76.582875)scale(0.08 -0.08)">
       <defs>
        <path id="DejaVuSans-38" d="M 2034 2216 
Q 1584 2216 1326 1975 
Q 1069 1734 1069 1313 
Q 1069 891 1326 650 
Q 1584 409 2034 409 
Q 2484 409 2743 651 
Q 3003 894 3003 1313 
Q 3003 1734 2745 1975 
Q 2488 2216 2034 2216 
z
M 1403 2484 
Q 997 2584 770 2862 
Q 544 3141 544 3541 
Q 544 4100 942 4425 
Q 1341 4750 2034 4750 
Q 2731 4750 3128 4425 
Q 3525 4100 3525 3541 
Q 3525 3141 3298 2862 
Q 3072 2584 2669 2484 
Q 3125 2378 3379 2068 
Q 3634 1759 3634 1313 
Q 3634 634 3220 271 
Q 2806 -91 2034 -91 
Q 1263 -91 848 271 
Q 434 634 434 1313 
Q 434 1759 690 2068 
Q 947 2378 1403 2484 
z
M 1172 3481 
Q 1172 3119 1398 2916 
Q 1625 2713 2034 2713 
Q 2441 2713 2670 2916 
Q 2900 3119 2900 3481 
Q 2900 3844 2670 4047 
Q 2441 4250 2034 4250 
Q 1625 4250 1398 4047 
Q 1172 3844 1172 3481 
z
" transform="scale(0.015625)"/>
       </defs>
       <use xlink:href="#DejaVuSans-38"/>
      </g>
     </g>
    </g>
   </g>
   <g id="LineCollection_1">
    <path d="M 88.974205 42.4345 
L 107.843977 42.4345 
" clip-path="url(#pcc81e670ec)" style="fill: none; stroke: #1f77b4; stroke-width: 1.5"/>
    <path d="M 164.453295 135.7615 
L 183.323068 135.7615 
" clip-path="url(#pcc81e670ec)" style="fill: none; stroke: #1f77b4; stroke-width: 1.5"/>
    <path d="M 239.932386 135.7615 
L 258.802159 135.7615 
" clip-path="url(#pcc81e670ec)" style="fill: none; stroke: #1f77b4; stroke-width: 1.5"/>
    <path d="M 315.411477 166.8705 
L 334.28125 166.8705 
" clip-path="url(#pcc81e670ec)" style="fill: none; stroke: #1f77b4; stroke-width: 1.5"/>
    <path d="M 390.890568 166.8705 
L 409.760341 166.8705 
" clip-path="url(#pcc81e670ec)" style="fill: none; stroke: #1f77b4; stroke-width: 1.5"/>
    <path d="M 466.369659 197.9795 
L 485.239432 197.9795 
" clip-path="url(#pcc81e670ec)" style="fill: none; stroke: #1f77b4; stroke-width: 1.5"/>
    <path d="M 541.84875 260.1975 
L 560.718523 260.1975 
" clip-path="url(#pcc81e670ec)" style="fill: none; stroke: #1f77b4; stroke-width: 1.5"/>
    <path d="M 617.327841 275.752 
L 636.197614 275.752 
" clip-path="url(#pcc81e670ec)" style="fill: none; stroke: #1f77b4; stroke-width: 1.5"/>
    <path d="M 692.806932 322.4155 
L 711.676705 322.4155 
" clip-path="url(#pcc81e670ec)" style="fill: none; stroke: #1f77b4; stroke-width: 1.5"/>
    <path d="M 768.286023 322.4155 
L 787.155795 322.4155 
" clip-path="url(#pcc81e670ec)" style="fill: none; stroke: #1f77b4; stroke-width: 1.5"/>
   </g>
   <g id="patch_3">
    <path d="M 22.93 337.97 
L 22.93 26.88 
" style="fill: none; stroke: #000000; stroke-width: 0.8; stroke-linejoin: miter; stroke-linecap: square"/>
   </g>
   <g id="patch_4">
    <path d="M 853.2 337.97 
L 853.2 26.88 
" style="fill: none; stroke: #000000; stroke-width: 0.8; stroke-linejoin: miter; stroke-linecap: square"/>
   </g>
   <g id="patch_5">
    <path d="M 22.93 337.97 
L 853.2 337.97 
" style="fill: none; stroke: #000000; stroke-width: 0.8; stroke-linejoin: miter; stroke-linecap: square"/>
   </g>
   <g id="patch_6">
    <path d="M 22.93 26.88 
L 853.2 26.88 
" style="fill: none; stroke: #000000; stroke-width: 0.8; stroke-linejoin: miter; stroke-linecap: square"/>
   </g>
   <g id="text_16">
    <!-- Wins - turns: 200, repetitions: 400, strategies: 10.  -->
    <g transform="translate(286.363438 20.88)scale(0.12 -0.12)">
     <defs>
      <path id="DejaVuSans-57" d="M 213 4666 
L 850 4666 
L 1831 722 
L 2809 4666 
L 3519 4666 
L 4500 722 
L 5478 4666 
L 6119 4666 
L 4947 0 
L 4153 0 
L 3169 4050 
L 2175 0 
L 1381 0 
L 213 4666 
z
" transform="scale(0.015625)"/>
      <path id="DejaVuSans-2d" d="M 313 2009 
L 1997 2009 
L 1997 1497 
L 313 1497 
L 313 2009 
z
" transform="scale(0.015625)"/>
      <path id="DejaVuSans-2c" d="M 750 794 
L 1409 794 
L 1409 256 
L 897 -744 
L 494 -744 
L 750 256 
L 750 794 
z
" transform="scale(0.015625)"/>
      <path id="DejaVuSans-31" d="M 794 531 
L 1825 531 
L 1825 4091 
L 703 3866 
L 703 4441 
L 1819 4666 
L 2450 4666 
L 2450 531 
L 3481 531 
L 3481 0 
L 794 0 
L 794 531 
z
" transform="scale(0.015625)"/>
     </defs>
     <use xlink:href="#DejaVuSans-57"/>
     <use xlink:href="#DejaVuSans-69" x="96.626953"/>
     <use xlink:href="#DejaVuSans-6e" x="124.410156"/>
     <use xlink:href="#DejaVuSans-73" x="187.789062"/>
     <use xlink:href="#DejaVuSans-20" x="239.888672"/>
     <use xlink:href="#DejaVuSans-2d" x="271.675781"/>
     <use xlink:href="#DejaVuSans-20" x="307.759766"/>
     <use xlink:href="#DejaVuSans-74" x="339.546875"/>
     <use xlink:href="#DejaVuSans-75" x="378.755859"/>
     <use xlink:href="#DejaVuSans-72" x="442.134766"/>
     <use xlink:href="#DejaVuSans-6e" x="481.498047"/>
     <use xlink:href="#DejaVuSans-73" x="544.876953"/>
     <use xlink:href="#DejaVuSans-3a" x="596.976562"/>
     <use xlink:href="#DejaVuSans-20" x="630.667969"/>
     <use xlink:href="#DejaVuSans-32" x="662.455078"/>
     <use xlink:href="#DejaVuSans-30" x="726.078125"/>
     <use xlink:href="#DejaVuSans-30" x="789.701172"/>
     <use xlink:href="#DejaVuSans-2c" x="853.324219"/>
     <use xlink:href="#DejaVuSans-20" x="885.111328"/>
     <use xlink:href="#DejaVuSans-72" x="916.898438"/>
     <use xlink:href="#DejaVuSans-65" x="955.761719"/>
     <use xlink:href="#DejaVuSans-70" x="1017.285156"/>
     <use xlink:href="#DejaVuSans-65" x="1080.761719"/>
     <use xlink:href="#DejaVuSans-74" x="1142.285156"/>
     <use xlink:href="#DejaVuSans-69" x="1181.494141"/>
     <use xlink:href="#DejaVuSans-74" x="1209.277344"/>
     <use xlink:href="#DejaVuSans-69" x="1248.486328"/>
     <use xlink:href="#DejaVuSans-6f" x="1276.269531"/>
     <use xlink:href="#DejaVuSans-6e" x="1337.451172"/>
     <use xlink:href="#DejaVuSans-73" x="1400.830078"/>
     <use xlink:href="#DejaVuSans-3a" x="1452.929688"/>
     <use xlink:href="#DejaVuSans-20" x="1486.621094"/>
     <use xlink:href="#DejaVuSans-34" x="1518.408203"/>
     <use xlink:href="#DejaVuSans-30" x="1582.03125"/>
     <use xlink:href="#DejaVuSans-30" x="1645.654297"/>
     <use xlink:href="#DejaVuSans-2c" x="1709.277344"/>
     <use xlink:href="#DejaVuSans-20" x="1741.064453"/>
     <use xlink:href="#DejaVuSans-73" x="1772.851562"/>
     <use xlink:href="#DejaVuSans-74" x="1824.951172"/>
     <use xlink:href="#DejaVuSans-72" x="1864.160156"/>
     <use xlink:href="#DejaVuSans-61" x="1905.273438"/>
     <use xlink:href="#DejaVuSans-74" x="1966.552734"/>
     <use xlink:href="#DejaVuSans-65" x="2005.761719"/>
     <use xlink:href="#DejaVuSans-67" x="2067.285156"/>
     <use xlink:href="#DejaVuSans-69" x="2130.761719"/>
     <use xlink:href="#DejaVuSans-65" x="2158.544922"/>
     <use xlink:href="#DejaVuSans-73" x="2220.068359"/>
     <use xlink:href="#DejaVuSans-3a" x="2272.167969"/>
     <use xlink:href="#DejaVuSans-20" x="2305.859375"/>
     <use xlink:href="#DejaVuSans-31" x="2337.646484"/>
     <use xlink:href="#DejaVuSans-30" x="2401.269531"/>
     <use xlink:href="#DejaVuSans-2e" x="2464.892578"/>
     <use xlink:href="#DejaVuSans-20" x="2496.679688"/>
    </g>
   </g>
  </g>
 </g>
 <defs>
  <clipPath id="pcc81e670ec">
   <rect x="22.93" y="26.88" width="830.27" height="311.09"/>
  </clipPath>
 </defs>
</svg>
