<?xml version="1.0" encoding="utf-8" standalone="no"?>
<!DOCTYPE svg PUBLIC "-//W3C//DTD SVG 1.1//EN"
  "http://www.w3.org/Graphics/SVG/1.1/DTD/svg11.dtd">
<svg xmlns:xlink="http://www.w3.org/1999/xlink" width="864pt" height="432pt" viewBox="0 0 864 432" xmlns="http://www.w3.org/2000/svg" version="1.1">
 <metadata>
  <rdf:RDF xmlns:dc="http://purl.org/dc/elements/1.1/" xmlns:cc="http://creativecommons.org/ns#" xmlns:rdf="http://www.w3.org/1999/02/22-rdf-syntax-ns#">
   <cc:Work>
    <dc:type rdf:resource="http://purl.org/dc/dcmitype/StillImage"/>
    <dc:date>2022-10-01T07:03:39.275599</dc:date>
    <dc:format>image/svg+xml</dc:format>
    <dc:creator>
     <cc:Agent>
      <dc:title>Matplotlib v3.5.1, https://matplotlib.org/</dc:title>
     </cc:Agent>
    </dc:creator>
   </cc:Work>
  </rdf:RDF>
 </metadata>
 <defs>
  <style type="text/css">*{stroke-linejoin: round; stroke-linecap: butt}</style>
 </defs>
 <g id="figure_1">
  <g id="patch_1">
   <path d="M 0 432 
L 864 432 
L 864 0 
L 0 0 
z
" style="fill: #ffffff"/>
  </g>
  <g id="axes_1">
   <g id="patch_2">
    <path d="M 30.67 337.97 
L 853.2 337.97 
L 853.2 26.88 
L 30.67 26.88 
z
" style="fill: #ffffff"/>
   </g>
   <g id="PolyCollection_1">
    <path d="M 107.358737 162.916991 
L 103.532172 162.916991 
L 103.413549 162.442802 
L 103.317419 161.968613 
L 103.246901 161.494424 
L 103.203985 161.020235 
L 103.189398 160.546046 
L 103.202564 160.071857 
L 103.241667 159.597668 
L 103.303785 159.123479 
L 103.385114 158.64929 
L 103.481229 158.175101 
L 103.587371 157.700912 
L 103.698732 157.226723 
L 103.810713 156.752534 
L 103.919133 156.278345 
L 104.020391 155.804156 
L 104.111559 155.329967 
L 104.190415 154.855778 
L 104.255433 154.381589 
L 104.30572 153.9074 
L 104.340939 153.433211 
L 104.361203 152.959022 
L 104.366974 152.484833 
L 104.358968 152.010644 
L 104.338064 151.536455 
L 104.305239 151.062266 
L 104.261509 150.588077 
L 104.20789 150.113888 
L 104.145367 149.639699 
L 104.074879 149.16551 
L 103.997295 148.691321 
L 103.913409 148.217132 
L 103.823925 147.742943 
L 103.729445 147.268754 
L 103.630463 146.794565 
L 103.527354 146.320376 
L 103.420367 145.846187 
L 103.309634 145.371998 
L 103.195168 144.897809 
L 103.07689 144.42362 
L 102.954644 143.949431 
L 102.828245 143.475242 
L 102.697508 143.001053 
L 102.562309 142.526863 
L 102.422625 142.052674 
L 102.278588 141.578485 
L 102.130525 141.104296 
L 101.978983 140.630107 
L 101.824741 140.155918 
L 101.668795 139.681729 
L 101.512319 139.20754 
L 101.356594 138.733351 
L 101.202923 138.259162 
L 101.052516 137.784973 
L 100.906369 137.310784 
L 100.765146 136.836595 
L 100.629066 136.362406 
L 100.497821 135.888217 
L 100.370518 135.414028 
L 100.245661 134.939839 
L 100.121177 134.46565 
L 99.994461 133.991461 
L 99.862458 133.517272 
L 99.721751 133.043083 
L 99.568651 132.568894 
L 99.399276 132.094705 
L 99.209606 131.620516 
L 98.995527 131.146327 
L 98.752845 130.672138 
L 98.477305 130.197949 
L 98.164609 129.72376 
L 97.810476 129.249571 
L 97.410745 128.775382 
L 96.961559 128.301193 
L 96.459629 127.827004 
L 95.9026 127.352815 
L 95.289495 126.878626 
L 94.621237 126.404437 
L 93.901186 125.930248 
L 93.135674 125.456059 
L 92.334442 124.98187 
L 91.510944 124.507681 
L 90.682418 124.033492 
L 89.8697 123.559303 
L 89.09671 123.085114 
L 88.389615 122.610925 
L 87.775687 122.136736 
L 87.281892 121.662547 
L 86.933325 121.188358 
L 86.751591 120.714169 
L 86.753272 120.23998 
L 86.948621 119.765791 
L 87.340619 119.291602 
L 87.924488 118.817413 
L 88.687727 118.343224 
L 89.610689 117.869035 
L 90.667649 117.394846 
L 91.82828 116.920657 
L 93.059416 116.446468 
L 94.326932 115.972279 
L 116.563977 115.972279 
L 116.563977 115.972279 
L 117.831493 116.446468 
L 119.062629 116.920657 
L 120.22326 117.394846 
L 121.28022 117.869035 
L 122.203182 118.343224 
L 122.966421 118.817413 
L 123.55029 119.291602 
L 123.942288 119.765791 
L 124.137637 120.23998 
L 124.139318 120.714169 
L 123.957584 121.188358 
L 123.609018 121.662547 
L 123.115222 122.136736 
L 122.501294 122.610925 
L 121.7942 123.085114 
L 121.021209 123.559303 
L 120.208491 124.033492 
L 119.379965 124.507681 
L 118.556467 124.98187 
L 117.755235 125.456059 
L 116.989723 125.930248 
L 116.269672 126.404437 
L 115.601414 126.878626 
L 114.988309 127.352815 
L 114.43128 127.827004 
L 113.92935 128.301193 
L 113.480164 128.775382 
L 113.080433 129.249571 
L 112.7263 129.72376 
L 112.413604 130.197949 
L 112.138064 130.672138 
L 111.895382 131.146327 
L 111.681303 131.620516 
L 111.491634 132.094705 
L 111.322258 132.568894 
L 111.169158 133.043083 
L 111.028451 133.517272 
L 110.896448 133.991461 
L 110.769732 134.46565 
L 110.645248 134.939839 
L 110.520392 135.414028 
L 110.393088 135.888217 
L 110.261843 136.362406 
L 110.125763 136.836595 
L 109.98454 137.310784 
L 109.838393 137.784973 
L 109.687986 138.259162 
L 109.534315 138.733351 
L 109.378591 139.20754 
L 109.222114 139.681729 
L 109.066168 140.155918 
L 108.911926 140.630107 
L 108.760384 141.104296 
L 108.612321 141.578485 
L 108.468284 142.052674 
L 108.3286 142.526863 
L 108.193401 143.001053 
L 108.062664 143.475242 
L 107.936265 143.949431 
L 107.81402 144.42362 
L 107.695741 144.897809 
L 107.581275 145.371998 
L 107.470542 145.846187 
L 107.363555 146.320376 
L 107.260446 146.794565 
L 107.161464 147.268754 
L 107.066985 147.742943 
L 106.9775 148.217132 
L 106.893614 148.691321 
L 106.81603 149.16551 
L 106.745542 149.639699 
L 106.68302 150.113888 
L 106.6294 150.588077 
L 106.58567 151.062266 
L 106.552845 151.536455 
L 106.531941 152.010644 
L 106.523935 152.484833 
L 106.529706 152.959022 
L 106.54997 153.433211 
L 106.585189 153.9074 
L 106.635476 154.381589 
L 106.700494 154.855778 
L 106.77935 155.329967 
L 106.870518 155.804156 
L 106.971776 156.278345 
L 107.080196 156.752534 
L 107.192177 157.226723 
L 107.303538 157.700912 
L 107.40968 158.175101 
L 107.505795 158.64929 
L 107.587124 159.123479 
L 107.649242 159.597668 
L 107.688345 160.071857 
L 107.701511 160.546046 
L 107.686924 161.020235 
L 107.644008 161.494424 
L 107.57349 161.968613 
L 107.47736 162.442802 
L 107.358737 162.916991 
z
" clip-path="url(#p7914447f71)" style="fill: #1f77b4; fill-opacity: 0.3"/>
   </g>
   <g id="PolyCollection_2">
    <path d="M 182.393599 163.658523 
L 178.048219 163.658523 
L 177.51882 163.097333 
L 176.917317 162.536142 
L 176.24699 161.974951 
L 175.513167 161.41376 
L 174.722541 160.852569 
L 173.882415 160.291378 
L 173.000154 159.730187 
L 172.083066 159.168996 
L 171.138852 158.607805 
L 170.176559 158.046615 
L 169.207777 157.485424 
L 168.247657 156.924233 
L 167.315253 156.363042 
L 166.432811 155.801851 
L 165.623811 155.24066 
L 164.909961 154.679469 
L 164.307621 154.118278 
L 163.824442 153.557088 
L 163.457082 152.995897 
L 163.190716 152.434706 
L 163.000754 151.873515 
L 162.856649 151.312324 
L 162.727191 150.751133 
L 162.586287 150.189942 
L 162.418014 149.628751 
L 162.219901 149.067561 
L 162.003741 148.50637 
L 161.793802 147.945179 
L 161.622876 147.383988 
L 161.527045 146.822797 
L 161.540235 146.261606 
L 161.689553 145.700415 
L 161.992114 145.139224 
L 162.45362 144.578033 
L 163.068567 144.016843 
L 163.821649 143.455652 
L 164.689834 142.894461 
L 165.644608 142.33327 
L 166.654086 141.772079 
L 167.684885 141.210888 
L 168.703795 140.649697 
L 169.679396 140.088506 
L 170.583705 139.527316 
L 171.393864 138.966125 
L 172.093742 138.404934 
L 172.675227 137.843743 
L 173.138935 137.282552 
L 173.494112 136.721361 
L 173.757577 136.16017 
L 173.951761 135.598979 
L 174.102034 135.037788 
L 174.233692 134.476598 
L 174.369073 133.915407 
L 174.525253 133.354216 
L 174.712684 132.793025 
L 174.934934 132.231834 
L 175.189461 131.670643 
L 175.469135 131.109452 
L 175.764123 130.548261 
L 176.063698 129.987071 
L 176.357669 129.42588 
L 176.637289 128.864689 
L 176.895638 128.303498 
L 177.127674 127.742307 
L 177.33013 127.181116 
L 177.501429 126.619925 
L 177.641693 126.058734 
L 177.75281 125.497543 
L 177.838455 124.936353 
L 177.90393 124.375162 
L 177.955783 123.813971 
L 178.001184 123.25278 
L 178.047181 122.691589 
L 178.099956 122.130398 
L 178.164253 121.569207 
L 178.243034 121.008016 
L 178.337425 120.446826 
L 178.446865 119.885635 
L 178.569416 119.324444 
L 178.702116 118.763253 
L 178.841344 118.202062 
L 178.983152 117.640871 
L 179.123576 117.07968 
L 179.258913 116.518489 
L 179.385969 115.957299 
L 179.502244 115.396108 
L 179.606042 114.834917 
L 179.696475 114.273726 
L 179.773391 113.712535 
L 179.837235 113.151344 
L 179.888903 112.590153 
L 179.929613 112.028962 
L 179.960822 111.467771 
L 179.984178 110.906581 
L 180.001477 110.34539 
L 180.014603 109.784199 
L 180.025423 109.223008 
L 180.035636 108.661817 
L 180.046616 108.100626 
L 180.395202 108.100626 
L 180.395202 108.100626 
L 180.406183 108.661817 
L 180.416396 109.223008 
L 180.427215 109.784199 
L 180.440341 110.34539 
L 180.45764 110.906581 
L 180.480996 111.467771 
L 180.512205 112.028962 
L 180.552915 112.590153 
L 180.604583 113.151344 
L 180.668427 113.712535 
L 180.745343 114.273726 
L 180.835776 114.834917 
L 180.939574 115.396108 
L 181.05585 115.957299 
L 181.182905 116.518489 
L 181.318242 117.07968 
L 181.458666 117.640871 
L 181.600474 118.202062 
L 181.739702 118.763253 
L 181.872402 119.324444 
L 181.994953 119.885635 
L 182.104394 120.446826 
L 182.198784 121.008016 
L 182.277566 121.569207 
L 182.341862 122.130398 
L 182.394637 122.691589 
L 182.440634 123.25278 
L 182.486035 123.813971 
L 182.537888 124.375162 
L 182.603364 124.936353 
L 182.689008 125.497543 
L 182.800126 126.058734 
L 182.940389 126.619925 
L 183.111688 127.181116 
L 183.314144 127.742307 
L 183.546181 128.303498 
L 183.804529 128.864689 
L 184.084149 129.42588 
L 184.378121 129.987071 
L 184.677695 130.548261 
L 184.972683 131.109452 
L 185.252357 131.670643 
L 185.506884 132.231834 
L 185.729134 132.793025 
L 185.916565 133.354216 
L 186.072745 133.915407 
L 186.208126 134.476598 
L 186.339785 135.037788 
L 186.490057 135.598979 
L 186.684241 136.16017 
L 186.947706 136.721361 
L 187.302883 137.282552 
L 187.766592 137.843743 
L 188.348076 138.404934 
L 189.047954 138.966125 
L 189.858113 139.527316 
L 190.762422 140.088506 
L 191.738023 140.649697 
L 192.756933 141.210888 
L 193.787732 141.772079 
L 194.79721 142.33327 
L 195.751984 142.894461 
L 196.620169 143.455652 
L 197.373252 144.016843 
L 197.988198 144.578033 
L 198.449704 145.139224 
L 198.752266 145.700415 
L 198.901583 146.261606 
L 198.914773 146.822797 
L 198.818942 147.383988 
L 198.648016 147.945179 
L 198.438077 148.50637 
L 198.221917 149.067561 
L 198.023804 149.628751 
L 197.855531 150.189942 
L 197.714627 150.751133 
L 197.585169 151.312324 
L 197.441064 151.873515 
L 197.251102 152.434706 
L 196.984736 152.995897 
L 196.617376 153.557088 
L 196.134198 154.118278 
L 195.531857 154.679469 
L 194.818008 155.24066 
L 194.009008 155.801851 
L 193.126565 156.363042 
L 192.194162 156.924233 
L 191.234041 157.485424 
L 190.265259 158.046615 
L 189.302966 158.607805 
L 188.358752 159.168996 
L 187.441665 159.730187 
L 186.559403 160.291378 
L 185.719278 160.852569 
L 184.928651 161.41376 
L 184.194829 161.974951 
L 183.524501 162.536142 
L 182.922998 163.097333 
L 182.393599 163.658523 
z
" clip-path="url(#p7914447f71)" style="fill: #1f77b4; fill-opacity: 0.3"/>
   </g>
   <g id="PolyCollection_3">
    <path d="M 255.713185 229.369712 
L 254.279542 229.369712 
L 254.158325 227.467194 
L 254.02911 225.564676 
L 253.89116 223.662159 
L 253.743014 221.759641 
L 253.58259 219.857123 
L 253.40732 217.954605 
L 253.21424 216.052088 
L 252.999955 214.14957 
L 252.76048 212.247052 
L 252.491008 210.344534 
L 252.185701 208.442017 
L 251.837667 206.539499 
L 251.439212 204.636981 
L 250.982446 202.734463 
L 250.460185 200.831946 
L 249.86702 198.929428 
L 249.200336 197.02691 
L 248.461045 195.124392 
L 247.653868 193.221875 
L 246.787096 191.319357 
L 245.871896 189.416839 
L 244.921386 187.514321 
L 243.949716 185.611804 
L 242.971442 183.709286 
L 242.001286 181.806768 
L 241.054291 179.90425 
L 240.146167 178.001733 
L 239.293586 176.099215 
L 238.514168 174.196697 
L 237.826027 172.294179 
L 237.246915 170.391662 
L 236.793109 168.489144 
L 236.478303 166.586626 
L 236.312709 164.684108 
L 236.3025 162.781591 
L 236.449632 160.879073 
L 236.751954 158.976555 
L 237.203514 157.074037 
L 237.794962 155.17152 
L 238.513992 153.269002 
L 239.345797 151.366484 
L 240.273515 149.463966 
L 241.278679 147.561449 
L 242.341614 145.658931 
L 243.441813 143.756413 
L 244.558279 141.853895 
L 245.669921 139.951378 
L 246.756051 138.04886 
L 247.797058 136.146342 
L 248.775217 134.243824 
L 249.675565 132.341307 
L 250.486682 130.438789 
L 251.201223 128.536271 
L 251.816088 126.633753 
L 252.332188 124.731236 
L 252.753894 122.828718 
L 253.088259 120.9262 
L 253.344179 119.023682 
L 253.531594 117.121165 
L 253.6608 115.218647 
L 253.741889 113.316129 
L 253.78432 111.413611 
L 253.79657 109.511094 
L 253.785876 107.608576 
L 253.758044 105.706058 
L 253.717345 103.80354 
L 253.666535 101.901023 
L 253.607022 99.998505 
L 253.539214 98.095987 
L 253.463056 96.193469 
L 253.378698 94.290952 
L 253.287186 92.388434 
L 253.191031 90.485916 
L 253.094467 88.583398 
L 253.003296 86.680881 
L 252.924266 84.778363 
L 252.864103 82.875845 
L 252.828396 80.973327 
L 252.820605 79.07081 
L 252.841453 77.168292 
L 252.888869 75.265774 
L 252.958469 73.363256 
L 253.044485 71.460739 
L 253.140861 69.558221 
L 253.242282 67.655703 
L 253.344883 65.753185 
L 253.446524 63.850668 
L 253.546617 61.94815 
L 253.645619 60.045632 
L 253.744379 58.143114 
L 253.843522 56.240597 
L 253.943056 54.338079 
L 254.042247 52.435561 
L 254.139778 50.533043 
L 254.234075 48.630526 
L 254.323682 46.728008 
L 254.407547 44.82549 
L 254.485149 42.922972 
L 254.556447 41.020455 
L 255.43628 41.020455 
L 255.43628 41.020455 
L 255.507578 42.922972 
L 255.58518 44.82549 
L 255.669045 46.728008 
L 255.758652 48.630526 
L 255.852949 50.533043 
L 255.95048 52.435561 
L 256.049671 54.338079 
L 256.149205 56.240597 
L 256.248349 58.143114 
L 256.347108 60.045632 
L 256.44611 61.94815 
L 256.546203 63.850668 
L 256.647845 65.753185 
L 256.750446 67.655703 
L 256.851866 69.558221 
L 256.948242 71.460739 
L 257.034258 73.363256 
L 257.103859 75.265774 
L 257.151274 77.168292 
L 257.172123 79.07081 
L 257.164331 80.973327 
L 257.128624 82.875845 
L 257.068462 84.778363 
L 256.989431 86.680881 
L 256.89826 88.583398 
L 256.801697 90.485916 
L 256.705542 92.388434 
L 256.61403 94.290952 
L 256.529671 96.193469 
L 256.453513 98.095987 
L 256.385705 99.998505 
L 256.326192 101.901023 
L 256.275383 103.80354 
L 256.234684 105.706058 
L 256.206851 107.608576 
L 256.196157 109.511094 
L 256.208407 111.413611 
L 256.250838 113.316129 
L 256.331928 115.218647 
L 256.461133 117.121165 
L 256.648548 119.023682 
L 256.904469 120.9262 
L 257.238833 122.828718 
L 257.660539 124.731236 
L 258.17664 126.633753 
L 258.791504 128.536271 
L 259.506045 130.438789 
L 260.317162 132.341307 
L 261.21751 134.243824 
L 262.195669 136.146342 
L 263.236676 138.04886 
L 264.322807 139.951378 
L 265.434448 141.853895 
L 266.550914 143.756413 
L 267.651113 145.658931 
L 268.714049 147.561449 
L 269.719212 149.463966 
L 270.646931 151.366484 
L 271.478735 153.269002 
L 272.197766 155.17152 
L 272.789214 157.074037 
L 273.240773 158.976555 
L 273.543095 160.879073 
L 273.690227 162.781591 
L 273.680019 164.684108 
L 273.514424 166.586626 
L 273.199618 168.489144 
L 272.745812 170.391662 
L 272.1667 172.294179 
L 271.47856 174.196697 
L 270.699141 176.099215 
L 269.84656 178.001733 
L 268.938436 179.90425 
L 267.991441 181.806768 
L 267.021285 183.709286 
L 266.043011 185.611804 
L 265.071342 187.514321 
L 264.120831 189.416839 
L 263.205632 191.319357 
L 262.338859 193.221875 
L 261.531683 195.124392 
L 260.792391 197.02691 
L 260.125707 198.929428 
L 259.532542 200.831946 
L 259.010281 202.734463 
L 258.553515 204.636981 
L 258.15506 206.539499 
L 257.807026 208.442017 
L 257.50172 210.344534 
L 257.232247 212.247052 
L 256.992772 214.14957 
L 256.778487 216.052088 
L 256.585407 217.954605 
L 256.410137 219.857123 
L 256.249713 221.759641 
L 256.101567 223.662159 
L 255.963617 225.564676 
L 255.834402 227.467194 
L 255.713185 229.369712 
z
" clip-path="url(#p7914447f71)" style="fill: #1f77b4; fill-opacity: 0.3"/>
   </g>
   <g id="PolyCollection_4">
    <path d="M 333.674018 234.731562 
L 325.869618 234.731562 
L 325.157046 234.021143 
L 324.386809 233.310724 
L 323.569366 232.600305 
L 322.717799 231.889885 
L 321.847196 231.179466 
L 320.973758 230.469047 
L 320.113707 229.758628 
L 319.28207 229.048208 
L 318.491505 228.337789 
L 317.751286 227.62737 
L 317.066629 226.916951 
L 316.438457 226.206531 
L 315.863674 225.496112 
L 315.335945 224.785693 
L 314.84689 224.075274 
L 314.387546 223.364854 
L 313.949897 222.654435 
L 313.528253 221.944016 
L 313.120278 221.233597 
L 312.727512 220.523177 
L 312.355303 219.812758 
L 312.012143 219.102339 
L 311.708491 218.391919 
L 311.455229 217.6815 
L 311.261961 216.971081 
L 311.135385 216.260662 
L 311.077955 215.550242 
L 311.087029 214.839823 
L 311.154648 214.129404 
L 311.267976 213.418985 
L 311.410397 212.708565 
L 311.563131 211.998146 
L 311.707188 211.287727 
L 311.825421 210.577308 
L 311.904398 209.866888 
L 311.935884 209.156469 
L 311.9177 208.44605 
L 311.853879 207.735631 
L 311.754085 207.025211 
L 311.632384 206.314792 
L 311.505547 205.604373 
L 311.391119 204.893954 
L 311.305524 204.183534 
L 311.262444 203.473115 
L 311.27169 202.762696 
L 311.338664 202.052277 
L 311.464434 201.341857 
L 311.646345 200.631438 
L 311.879009 199.921019 
L 312.155475 199.2106 
L 312.468357 198.50018 
L 312.810757 197.789761 
L 313.176867 197.079342 
L 313.562186 196.368923 
L 313.963422 195.658503 
L 314.378158 194.948084 
L 314.804417 194.237665 
L 315.24026 193.527245 
L 315.683524 192.816826 
L 316.131742 192.106407 
L 316.582247 191.395988 
L 317.03239 190.685568 
L 317.479807 189.975149 
L 317.922623 189.26473 
L 318.359552 188.554311 
L 318.789849 187.843891 
L 319.213152 187.133472 
L 319.629262 186.423053 
L 320.03794 185.712634 
L 320.43879 185.002214 
L 320.831267 184.291795 
L 321.214814 183.581376 
L 321.589098 182.870957 
L 321.954248 182.160537 
L 322.311055 181.450118 
L 322.661024 180.739699 
L 323.006269 180.02928 
L 323.349235 179.31886 
L 323.692296 178.608441 
L 324.037298 177.898022 
L 324.385152 177.187603 
L 324.735542 176.477183 
L 325.086828 175.766764 
L 325.436157 175.056345 
L 325.77978 174.345926 
L 326.113506 173.635506 
L 326.433221 172.925087 
L 326.735396 172.214668 
L 327.017472 171.504248 
L 327.278102 170.793829 
L 327.51719 170.08341 
L 327.735759 169.372991 
L 327.935672 168.662571 
L 328.119276 167.952152 
L 328.289017 167.241733 
L 328.447119 166.531314 
L 328.595329 165.820894 
L 328.734794 165.110475 
L 328.866042 164.400056 
L 330.677594 164.400056 
L 330.677594 164.400056 
L 330.808842 165.110475 
L 330.948307 165.820894 
L 331.096517 166.531314 
L 331.254619 167.241733 
L 331.424361 167.952152 
L 331.607964 168.662571 
L 331.807878 169.372991 
L 332.026447 170.08341 
L 332.265535 170.793829 
L 332.526164 171.504248 
L 332.808241 172.214668 
L 333.110415 172.925087 
L 333.430131 173.635506 
L 333.763856 174.345926 
L 334.107479 175.056345 
L 334.456809 175.766764 
L 334.808094 176.477183 
L 335.158484 177.187603 
L 335.506338 177.898022 
L 335.851341 178.608441 
L 336.194401 179.31886 
L 336.537367 180.02928 
L 336.882613 180.739699 
L 337.232581 181.450118 
L 337.589388 182.160537 
L 337.954539 182.870957 
L 338.328822 183.581376 
L 338.71237 184.291795 
L 339.104846 185.002214 
L 339.505696 185.712634 
L 339.914374 186.423053 
L 340.330485 187.133472 
L 340.753788 187.843891 
L 341.184084 188.554311 
L 341.621013 189.26473 
L 342.063829 189.975149 
L 342.511246 190.685568 
L 342.96139 191.395988 
L 343.411894 192.106407 
L 343.860113 192.816826 
L 344.303377 193.527245 
L 344.739219 194.237665 
L 345.165478 194.948084 
L 345.580214 195.658503 
L 345.981451 196.368923 
L 346.366769 197.079342 
L 346.732879 197.789761 
L 347.07528 198.50018 
L 347.388161 199.2106 
L 347.664627 199.921019 
L 347.897292 200.631438 
L 348.079202 201.341857 
L 348.204972 202.052277 
L 348.271946 202.762696 
L 348.281193 203.473115 
L 348.238113 204.183534 
L 348.152517 204.893954 
L 348.03809 205.604373 
L 347.911252 206.314792 
L 347.789551 207.025211 
L 347.689757 207.735631 
L 347.625936 208.44605 
L 347.607753 209.156469 
L 347.639238 209.866888 
L 347.718216 210.577308 
L 347.836448 211.287727 
L 347.980506 211.998146 
L 348.133239 212.708565 
L 348.27566 213.418985 
L 348.388988 214.129404 
L 348.456607 214.839823 
L 348.465682 215.550242 
L 348.408251 216.260662 
L 348.281675 216.971081 
L 348.088408 217.6815 
L 347.835145 218.391919 
L 347.531493 219.102339 
L 347.188333 219.812758 
L 346.816124 220.523177 
L 346.423358 221.233597 
L 346.015383 221.944016 
L 345.593739 222.654435 
L 345.15609 223.364854 
L 344.696746 224.075274 
L 344.207691 224.785693 
L 343.679962 225.496112 
L 343.105179 226.206531 
L 342.477007 226.916951 
L 341.792351 227.62737 
L 341.052132 228.337789 
L 340.261566 229.048208 
L 339.42993 229.758628 
L 338.569878 230.469047 
L 337.69644 231.179466 
L 336.825837 231.889885 
L 335.97427 232.600305 
L 335.156827 233.310724 
L 334.38659 234.021143 
L 333.674018 234.731562 
z
" clip-path="url(#p7914447f71)" style="fill: #1f77b4; fill-opacity: 0.3"/>
   </g>
   <g id="PolyCollection_5">
    <path d="M 412.704856 244.713731 
L 396.389689 244.713731 
L 395.064206 243.304992 
L 393.71253 241.896253 
L 392.373212 240.487514 
L 391.085825 239.078775 
L 389.888126 237.670036 
L 388.813379 236.261297 
L 387.888152 234.852558 
L 387.130855 233.443819 
L 386.551135 232.035081 
L 386.150153 230.626342 
L 385.921627 229.217603 
L 385.853409 227.808864 
L 385.929358 226.400125 
L 386.131217 224.991386 
L 386.440274 223.582647 
L 386.838653 222.173908 
L 387.310152 220.765169 
L 387.840641 219.35643 
L 388.418099 217.947691 
L 389.032396 216.538952 
L 389.674949 215.130214 
L 390.338348 213.721475 
L 391.016055 212.312736 
L 391.702197 210.903997 
L 392.391471 209.495258 
L 393.079144 208.086519 
L 393.7611 206.67778 
L 394.433908 205.269041 
L 395.09485 203.860302 
L 395.7419 202.451563 
L 396.373633 201.042824 
L 396.989061 199.634085 
L 397.587428 198.225347 
L 398.167979 196.816608 
L 398.729744 195.407869 
L 399.271363 193.99913 
L 399.79098 192.590391 
L 400.286218 191.181652 
L 400.754232 189.772913 
L 401.191835 188.364174 
L 401.595677 186.955435 
L 401.962447 185.546696 
L 402.289084 184.137957 
L 402.572972 182.729218 
L 402.812115 181.32048 
L 403.005281 179.911741 
L 403.152116 178.503002 
L 403.253233 177.094263 
L 403.310276 175.685524 
L 403.325956 174.276785 
L 403.304045 172.868046 
L 403.249332 171.459307 
L 403.167507 170.050568 
L 403.064979 168.641829 
L 402.94861 167.23309 
L 402.825382 165.824351 
L 402.70201 164.415613 
L 402.58455 163.006874 
L 402.47803 161.598135 
L 402.386159 160.189396 
L 402.311167 158.780657 
L 402.253782 157.371918 
L 402.213363 155.963179 
L 402.188173 154.55444 
L 402.175745 153.145701 
L 402.173295 151.736962 
L 402.178125 150.328223 
L 402.187967 148.919484 
L 402.201221 147.510746 
L 402.217079 146.102007 
L 402.235527 144.693268 
L 402.257244 143.284529 
L 402.283415 141.87579 
L 402.315514 140.467051 
L 402.355059 139.058312 
L 402.403391 137.649573 
L 402.461491 136.240834 
L 402.529847 134.832095 
L 402.608382 133.423356 
L 402.696447 132.014617 
L 402.792866 130.605879 
L 402.896031 129.19714 
L 403.004023 127.788401 
L 403.114756 126.379662 
L 403.226109 124.970923 
L 403.336051 123.562184 
L 403.442742 122.153445 
L 403.544606 120.744706 
L 403.640375 119.335967 
L 403.729127 117.927228 
L 403.810288 116.518489 
L 403.883641 115.10975 
L 403.94931 113.701012 
L 404.007733 112.292273 
L 404.059616 110.883534 
L 404.105862 109.474795 
L 404.147485 108.066056 
L 404.185511 106.657317 
L 404.220876 105.248578 
L 404.87367 105.248578 
L 404.87367 105.248578 
L 404.909034 106.657317 
L 404.94706 108.066056 
L 404.988684 109.474795 
L 405.034929 110.883534 
L 405.086812 112.292273 
L 405.145236 113.701012 
L 405.210905 115.10975 
L 405.284258 116.518489 
L 405.365419 117.927228 
L 405.45417 119.335967 
L 405.54994 120.744706 
L 405.651803 122.153445 
L 405.758494 123.562184 
L 405.868437 124.970923 
L 405.979789 126.379662 
L 406.090522 127.788401 
L 406.198515 129.19714 
L 406.301679 130.605879 
L 406.398098 132.014617 
L 406.486163 133.423356 
L 406.564698 134.832095 
L 406.633054 136.240834 
L 406.691154 137.649573 
L 406.739487 139.058312 
L 406.779031 140.467051 
L 406.81113 141.87579 
L 406.837302 143.284529 
L 406.859018 144.693268 
L 406.877467 146.102007 
L 406.893325 147.510746 
L 406.906578 148.919484 
L 406.91642 150.328223 
L 406.92125 151.736962 
L 406.9188 153.145701 
L 406.906372 154.55444 
L 406.881182 155.963179 
L 406.840764 157.371918 
L 406.783378 158.780657 
L 406.708387 160.189396 
L 406.616516 161.598135 
L 406.509995 163.006874 
L 406.392536 164.415613 
L 406.269164 165.824351 
L 406.145935 167.23309 
L 406.029566 168.641829 
L 405.927038 170.050568 
L 405.845214 171.459307 
L 405.7905 172.868046 
L 405.76859 174.276785 
L 405.784269 175.685524 
L 405.841313 177.094263 
L 405.94243 178.503002 
L 406.089264 179.911741 
L 406.28243 181.32048 
L 406.521574 182.729218 
L 406.805462 184.137957 
L 407.132099 185.546696 
L 407.498869 186.955435 
L 407.902711 188.364174 
L 408.340314 189.772913 
L 408.808327 191.181652 
L 409.303565 192.590391 
L 409.823183 193.99913 
L 410.364802 195.407869 
L 410.926567 196.816608 
L 411.507118 198.225347 
L 412.105484 199.634085 
L 412.720912 201.042824 
L 413.352645 202.451563 
L 413.999696 203.860302 
L 414.660638 205.269041 
L 415.333446 206.67778 
L 416.015402 208.086519 
L 416.703074 209.495258 
L 417.392348 210.903997 
L 418.07849 212.312736 
L 418.756198 213.721475 
L 419.419597 215.130214 
L 420.062149 216.538952 
L 420.676447 217.947691 
L 421.253904 219.35643 
L 421.784393 220.765169 
L 422.255892 222.173908 
L 422.654272 223.582647 
L 422.963329 224.991386 
L 423.165187 226.400125 
L 423.241136 227.808864 
L 423.172919 229.217603 
L 422.944392 230.626342 
L 422.543411 232.035081 
L 421.96369 233.443819 
L 421.206393 234.852558 
L 420.281167 236.261297 
L 419.206419 237.670036 
L 418.008721 239.078775 
L 416.721333 240.487514 
L 415.382015 241.896253 
L 414.030339 243.304992 
L 412.704856 244.713731 
z
" clip-path="url(#p7914447f71)" style="fill: #1f77b4; fill-opacity: 0.3"/>
   </g>
   <g id="PolyCollection_6">
    <path d="M 479.516686 280.706578 
L 479.128768 280.706578 
L 479.109922 279.613005 
L 479.094281 278.519432 
L 479.080966 277.425858 
L 479.06831 276.332285 
L 479.054121 275.238712 
L 479.036015 274.145139 
L 479.011656 273.051566 
L 478.978806 271.957992 
L 478.935142 270.864419 
L 478.877891 269.770846 
L 478.803484 268.677273 
L 478.707422 267.5837 
L 478.584551 266.490126 
L 478.429784 265.396553 
L 478.239142 264.30298 
L 478.01085 263.209407 
L 477.746138 262.115834 
L 477.449489 261.02226 
L 477.128276 259.928687 
L 476.791908 258.835114 
L 476.450822 257.741541 
L 476.115619 256.647968 
L 475.796565 255.554394 
L 475.503426 254.460821 
L 475.245479 253.367248 
L 475.031447 252.273675 
L 474.869195 251.180102 
L 474.765181 250.086529 
L 474.723779 248.992955 
L 474.746628 247.899382 
L 474.832107 246.805809 
L 474.97495 245.712236 
L 475.16594 244.618663 
L 475.391654 243.525089 
L 475.634269 242.431516 
L 475.871541 241.337943 
L 476.077081 240.24437 
L 476.221005 239.150797 
L 476.271023 238.057223 
L 476.193938 236.96365 
L 475.957591 235.870077 
L 475.533267 234.776504 
L 474.898585 233.682931 
L 474.040787 232.589357 
L 472.960158 231.495784 
L 471.673049 230.402211 
L 470.213817 229.308638 
L 468.635016 228.215065 
L 467.005345 227.121491 
L 465.405285 226.027918 
L 463.920786 224.934345 
L 462.635756 223.840772 
L 461.624295 222.747199 
L 460.94367 221.653625 
L 460.628864 220.560052 
L 460.689396 219.466479 
L 461.10884 218.372906 
L 461.847207 217.279333 
L 462.846003 216.185759 
L 464.035301 215.092186 
L 465.341776 213.998613 
L 466.696408 212.90504 
L 468.040578 211.811467 
L 469.329734 210.717893 
L 470.53433 209.62432 
L 471.638418 208.530747 
L 472.636679 207.437174 
L 473.530819 206.343601 
L 474.326173 205.250027 
L 475.02906 204.156454 
L 475.645149 203.062881 
L 476.178827 201.969308 
L 476.633412 200.875735 
L 477.011939 199.782161 
L 477.318185 198.688588 
L 477.557617 197.595015 
L 477.737954 196.501442 
L 477.869162 195.407869 
L 477.962843 194.314296 
L 478.031138 193.220722 
L 478.085397 192.127149 
L 478.134929 191.033576 
L 478.186137 189.940003 
L 478.24224 188.84643 
L 478.303614 187.752856 
L 478.368668 186.659283 
L 478.434965 185.56571 
L 478.500282 184.472137 
L 478.563315 183.378564 
L 478.62388 182.28499 
L 478.682623 181.191417 
L 478.740462 180.097844 
L 478.798009 179.004271 
L 478.855229 177.910698 
L 478.911426 176.817124 
L 478.96551 175.723551 
L 479.016376 174.629978 
L 479.063219 173.536405 
L 479.105661 172.442832 
L 479.539794 172.442832 
L 479.539794 172.442832 
L 479.582236 173.536405 
L 479.629078 174.629978 
L 479.679945 175.723551 
L 479.734029 176.817124 
L 479.790226 177.910698 
L 479.847446 179.004271 
L 479.904993 180.097844 
L 479.962831 181.191417 
L 480.021575 182.28499 
L 480.082139 183.378564 
L 480.145173 184.472137 
L 480.21049 185.56571 
L 480.276787 186.659283 
L 480.341841 187.752856 
L 480.403215 188.84643 
L 480.459317 189.940003 
L 480.510526 191.033576 
L 480.560058 192.127149 
L 480.614316 193.220722 
L 480.682612 194.314296 
L 480.776293 195.407869 
L 480.9075 196.501442 
L 481.087837 197.595015 
L 481.32727 198.688588 
L 481.633516 199.782161 
L 482.012042 200.875735 
L 482.466628 201.969308 
L 483.000306 203.062881 
L 483.616395 204.156454 
L 484.319282 205.250027 
L 485.114635 206.343601 
L 486.008775 207.437174 
L 487.007036 208.530747 
L 488.111125 209.62432 
L 489.31572 210.717893 
L 490.604876 211.811467 
L 491.949047 212.90504 
L 493.303678 213.998613 
L 494.610154 215.092186 
L 495.799451 216.185759 
L 496.798247 217.279333 
L 497.536615 218.372906 
L 497.956058 219.466479 
L 498.016591 220.560052 
L 497.701785 221.653625 
L 497.021159 222.747199 
L 496.009699 223.840772 
L 494.724668 224.934345 
L 493.24017 226.027918 
L 491.640109 227.121491 
L 490.010438 228.215065 
L 488.431637 229.308638 
L 486.972405 230.402211 
L 485.685296 231.495784 
L 484.604668 232.589357 
L 483.74687 233.682931 
L 483.112187 234.776504 
L 482.687864 235.870077 
L 482.451517 236.96365 
L 482.374432 238.057223 
L 482.424449 239.150797 
L 482.568374 240.24437 
L 482.773913 241.337943 
L 483.011186 242.431516 
L 483.2538 243.525089 
L 483.479515 244.618663 
L 483.670505 245.712236 
L 483.813347 246.805809 
L 483.898826 247.899382 
L 483.921675 248.992955 
L 483.880273 250.086529 
L 483.776259 251.180102 
L 483.614007 252.273675 
L 483.399975 253.367248 
L 483.142029 254.460821 
L 482.84889 255.554394 
L 482.529835 256.647968 
L 482.194633 257.741541 
L 481.853546 258.835114 
L 481.517179 259.928687 
L 481.195965 261.02226 
L 480.899317 262.115834 
L 480.634604 263.209407 
L 480.406313 264.30298 
L 480.215671 265.396553 
L 480.060903 266.490126 
L 479.938033 267.5837 
L 479.841971 268.677273 
L 479.767563 269.770846 
L 479.710313 270.864419 
L 479.666648 271.957992 
L 479.633799 273.051566 
L 479.609439 274.145139 
L 479.591333 275.238712 
L 479.577145 276.332285 
L 479.564488 277.425858 
L 479.551174 278.519432 
L 479.535532 279.613005 
L 479.516686 280.706578 
z
" clip-path="url(#p7914447f71)" style="fill: #1f77b4; fill-opacity: 0.3"/>
   </g>
   <g id="PolyCollection_7">
    <path d="M 556.233183 252.699466 
L 551.96318 252.699466 
L 551.395675 252.250052 
L 550.727418 251.800638 
L 549.954113 251.351225 
L 549.075366 250.901811 
L 548.095777 250.452397 
L 547.025825 250.002984 
L 545.882348 249.55357 
L 544.688392 249.104156 
L 543.472293 248.654743 
L 542.265932 248.205329 
L 541.102272 247.755915 
L 540.012464 247.306502 
L 539.022933 246.857088 
L 538.152962 246.407675 
L 537.413239 245.958261 
L 536.805683 245.508847 
L 536.324616 245.059434 
L 535.959048 244.61002 
L 535.69559 244.160606 
L 535.521363 243.711193 
L 535.426292 243.261779 
L 535.404318 242.812365 
L 535.453362 242.362952 
L 535.574167 241.913538 
L 535.76842 241.464124 
L 536.036696 241.014711 
L 536.376788 240.565297 
L 536.782822 240.115884 
L 537.245381 239.66647 
L 537.752536 239.217056 
L 538.291507 238.767643 
L 538.850482 238.318229 
L 539.420137 237.868815 
L 539.994477 237.419402 
L 540.570827 236.969988 
L 541.149035 236.520574 
L 541.730152 236.071161 
L 542.314983 235.621747 
L 542.902899 235.172333 
L 543.49119 234.72292 
L 544.075063 234.273506 
L 544.648193 233.824093 
L 545.20361 233.374679 
L 545.734633 232.925265 
L 546.235628 232.475852 
L 546.702459 232.026438 
L 547.132622 231.577024 
L 547.525158 231.127611 
L 547.880484 230.678197 
L 548.200255 230.228783 
L 548.487314 229.77937 
L 548.7457 229.329956 
L 548.98063 228.880542 
L 549.198335 228.431129 
L 549.405661 227.981715 
L 549.609427 227.532302 
L 549.815583 227.082888 
L 550.028346 226.633474 
L 550.249489 226.184061 
L 550.477997 225.734647 
L 550.710223 225.285233 
L 550.940552 224.83582 
L 551.162502 224.386406 
L 551.370007 223.936992 
L 551.558623 223.487579 
L 551.72637 223.038165 
L 551.874011 222.588751 
L 552.004713 222.139338 
L 552.12319 221.689924 
L 552.234542 221.240511 
L 552.34309 220.791097 
L 552.451493 220.341683 
L 552.56032 219.89227 
L 552.668162 219.442856 
L 552.77221 218.993442 
L 552.86909 218.544029 
L 552.955765 218.094615 
L 553.030244 217.645201 
L 553.091979 217.195788 
L 553.141862 216.746374 
L 553.181893 216.296961 
L 553.214621 215.847547 
L 553.242529 215.398133 
L 553.267523 214.94872 
L 553.290638 214.499306 
L 553.312033 214.049892 
L 553.33123 213.600479 
L 553.347529 213.151065 
L 553.360469 212.701651 
L 553.370203 212.252238 
L 553.377701 211.802824 
L 553.384718 211.35341 
L 553.393564 210.903997 
L 553.406719 210.454583 
L 553.426413 210.00517 
L 553.454237 209.555756 
L 553.490884 209.106342 
L 553.536044 208.656929 
L 553.588464 208.207515 
L 554.6079 208.207515 
L 554.6079 208.207515 
L 554.660319 208.656929 
L 554.70548 209.106342 
L 554.742126 209.555756 
L 554.76995 210.00517 
L 554.789644 210.454583 
L 554.8028 210.903997 
L 554.811645 211.35341 
L 554.818663 211.802824 
L 554.82616 212.252238 
L 554.835895 212.701651 
L 554.848834 213.151065 
L 554.865133 213.600479 
L 554.88433 214.049892 
L 554.905726 214.499306 
L 554.928841 214.94872 
L 554.953834 215.398133 
L 554.981743 215.847547 
L 555.014471 216.296961 
L 555.054502 216.746374 
L 555.104385 217.195788 
L 555.166119 217.645201 
L 555.240599 218.094615 
L 555.327273 218.544029 
L 555.424154 218.993442 
L 555.528201 219.442856 
L 555.636044 219.89227 
L 555.74487 220.341683 
L 555.853273 220.791097 
L 555.961822 221.240511 
L 556.073173 221.689924 
L 556.19165 222.139338 
L 556.322353 222.588751 
L 556.469994 223.038165 
L 556.637741 223.487579 
L 556.826357 223.936992 
L 557.033862 224.386406 
L 557.255811 224.83582 
L 557.486141 225.285233 
L 557.718366 225.734647 
L 557.946875 226.184061 
L 558.168018 226.633474 
L 558.380781 227.082888 
L 558.586937 227.532302 
L 558.790702 227.981715 
L 558.998029 228.431129 
L 559.215733 228.880542 
L 559.450664 229.329956 
L 559.70905 229.77937 
L 559.996109 230.228783 
L 560.315879 230.678197 
L 560.671205 231.127611 
L 561.063741 231.577024 
L 561.493904 232.026438 
L 561.960736 232.475852 
L 562.461731 232.925265 
L 562.992753 233.374679 
L 563.54817 233.824093 
L 564.121301 234.273506 
L 564.705174 234.72292 
L 565.293465 235.172333 
L 565.88138 235.621747 
L 566.466211 236.071161 
L 567.047328 236.520574 
L 567.625536 236.969988 
L 568.201887 237.419402 
L 568.776227 237.868815 
L 569.345882 238.318229 
L 569.904857 238.767643 
L 570.443828 239.217056 
L 570.950983 239.66647 
L 571.413541 240.115884 
L 571.819576 240.565297 
L 572.159667 241.014711 
L 572.427944 241.464124 
L 572.622196 241.913538 
L 572.743001 242.362952 
L 572.792045 242.812365 
L 572.770072 243.261779 
L 572.675001 243.711193 
L 572.500774 244.160606 
L 572.237315 244.61002 
L 571.871747 245.059434 
L 571.39068 245.508847 
L 570.783124 245.958261 
L 570.043401 246.407675 
L 569.17343 246.857088 
L 568.183899 247.306502 
L 567.094091 247.755915 
L 565.930432 248.205329 
L 564.72407 248.654743 
L 563.507971 249.104156 
L 562.314016 249.55357 
L 561.170539 250.002984 
L 560.100587 250.452397 
L 559.120998 250.901811 
L 558.242251 251.351225 
L 557.468945 251.800638 
L 556.800689 252.250052 
L 556.233183 252.699466 
z
" clip-path="url(#p7914447f71)" style="fill: #1f77b4; fill-opacity: 0.3"/>
   </g>
   <g id="PolyCollection_8">
    <path d="M 629.263405 296.621006 
L 628.483868 296.621006 
L 628.454602 295.678966 
L 628.448673 294.736926 
L 628.459983 293.794886 
L 628.478248 292.852846 
L 628.493432 291.910806 
L 628.499521 290.968766 
L 628.495849 290.026726 
L 628.48545 289.084685 
L 628.471252 288.142645 
L 628.451784 287.200605 
L 628.418389 286.258565 
L 628.355524 285.316525 
L 628.24453 284.374485 
L 628.0695 283.432445 
L 627.822536 282.490404 
L 627.505678 281.548364 
L 627.128193 280.606324 
L 626.700023 279.664284 
L 626.224001 278.722244 
L 625.69027 277.780204 
L 625.076009 276.838164 
L 624.352102 275.896123 
L 623.495718 274.954083 
L 622.504359 274.012043 
L 621.404527 273.070003 
L 620.248887 272.127963 
L 619.100931 271.185923 
L 618.013362 270.243883 
L 617.011169 269.301843 
L 616.088444 268.359802 
L 615.220179 267.417762 
L 614.381585 266.475722 
L 613.563919 265.533682 
L 612.779257 264.591642 
L 612.054094 263.649602 
L 611.417916 262.707562 
L 610.894584 261.765521 
L 610.501314 260.823481 
L 610.254821 259.881441 
L 610.179773 258.939401 
L 610.313295 257.997361 
L 610.701162 257.055321 
L 611.385542 256.113281 
L 612.388599 255.171241 
L 613.698735 254.2292 
L 615.265532 253.28716 
L 617.005704 252.34512 
L 618.817636 251.40308 
L 620.598985 250.46104 
L 622.261799 249.519 
L 623.742014 248.57696 
L 625.002964 247.634919 
L 626.034007 246.692879 
L 626.845573 245.750839 
L 627.462001 244.808799 
L 627.913937 243.866759 
L 628.232334 242.924719 
L 628.44538 241.982679 
L 628.578171 241.040639 
L 628.653567 240.098598 
L 628.692522 239.156558 
L 628.713099 238.214518 
L 628.728735 237.272478 
L 628.746976 236.330438 
L 628.769695 235.388398 
L 628.794836 234.446358 
L 628.818869 233.504317 
L 628.838865 232.562277 
L 628.853502 231.620237 
L 628.863006 230.678197 
L 628.868503 229.736157 
L 628.871309 228.794117 
L 628.872465 227.852077 
L 628.872533 226.910037 
L 628.871548 225.967996 
L 628.869021 225.025956 
L 628.863971 224.083916 
L 628.855099 223.141876 
L 628.841223 222.199836 
L 628.821971 221.257796 
L 628.798504 220.315756 
L 628.773764 219.373715 
L 628.7518 218.431675 
L 628.736136 217.489635 
L 628.72784 216.547595 
L 628.724418 215.605555 
L 628.720427 214.663515 
L 628.709809 213.721475 
L 628.688893 212.779434 
L 628.658418 211.837394 
L 628.623347 210.895354 
L 628.590449 209.953314 
L 628.564994 209.011274 
L 628.548583 208.069234 
L 628.53952 207.127194 
L 628.53539 206.185154 
L 628.535942 205.243113 
L 628.544038 204.301073 
L 628.563897 203.359033 
L 629.183375 203.359033 
L 629.183375 203.359033 
L 629.203235 204.301073 
L 629.21133 205.243113 
L 629.211882 206.185154 
L 629.207753 207.127194 
L 629.19869 208.069234 
L 629.182279 209.011274 
L 629.156824 209.953314 
L 629.123926 210.895354 
L 629.088855 211.837394 
L 629.05838 212.779434 
L 629.037464 213.721475 
L 629.026846 214.663515 
L 629.022854 215.605555 
L 629.019433 216.547595 
L 629.011137 217.489635 
L 628.995473 218.431675 
L 628.973509 219.373715 
L 628.948768 220.315756 
L 628.925301 221.257796 
L 628.90605 222.199836 
L 628.892174 223.141876 
L 628.883302 224.083916 
L 628.878252 225.025956 
L 628.875724 225.967996 
L 628.87474 226.910037 
L 628.874808 227.852077 
L 628.875963 228.794117 
L 628.87877 229.736157 
L 628.884267 230.678197 
L 628.893771 231.620237 
L 628.908407 232.562277 
L 628.928403 233.504317 
L 628.952436 234.446358 
L 628.977577 235.388398 
L 629.000297 236.330438 
L 629.018538 237.272478 
L 629.034173 238.214518 
L 629.054751 239.156558 
L 629.093705 240.098598 
L 629.169102 241.040639 
L 629.301893 241.982679 
L 629.514939 242.924719 
L 629.833336 243.866759 
L 630.285272 244.808799 
L 630.9017 245.750839 
L 631.713265 246.692879 
L 632.744308 247.634919 
L 634.005259 248.57696 
L 635.485474 249.519 
L 637.148288 250.46104 
L 638.929637 251.40308 
L 640.741569 252.34512 
L 642.481741 253.28716 
L 644.048538 254.2292 
L 645.358673 255.171241 
L 646.36173 256.113281 
L 647.046111 257.055321 
L 647.433977 257.997361 
L 647.5675 258.939401 
L 647.492452 259.881441 
L 647.245958 260.823481 
L 646.852689 261.765521 
L 646.329356 262.707562 
L 645.693178 263.649602 
L 644.968015 264.591642 
L 644.183354 265.533682 
L 643.365688 266.475722 
L 642.527094 267.417762 
L 641.658829 268.359802 
L 640.736104 269.301843 
L 639.73391 270.243883 
L 638.646342 271.185923 
L 637.498385 272.127963 
L 636.342746 273.070003 
L 635.242913 274.012043 
L 634.251555 274.954083 
L 633.39517 275.896123 
L 632.671264 276.838164 
L 632.057002 277.780204 
L 631.523272 278.722244 
L 631.04725 279.664284 
L 630.619079 280.606324 
L 630.241595 281.548364 
L 629.924737 282.490404 
L 629.677773 283.432445 
L 629.502743 284.374485 
L 629.391749 285.316525 
L 629.328884 286.258565 
L 629.295488 287.200605 
L 629.276021 288.142645 
L 629.261823 289.084685 
L 629.251423 290.026726 
L 629.247751 290.968766 
L 629.253841 291.910806 
L 629.269025 292.852846 
L 629.28729 293.794886 
L 629.2986 294.736926 
L 629.292671 295.678966 
L 629.263405 296.621006 
z
" clip-path="url(#p7914447f71)" style="fill: #1f77b4; fill-opacity: 0.3"/>
   </g>
   <g id="PolyCollection_9">
    <path d="M 703.781792 296.84917 
L 703.51639 296.84917 
L 703.504786 295.961866 
L 703.492524 295.074563 
L 703.474318 294.187259 
L 703.445167 293.299955 
L 703.402219 292.412651 
L 703.345848 291.525347 
L 703.279638 290.638043 
L 703.209383 289.750739 
L 703.14139 288.863436 
L 703.080397 287.976132 
L 703.027593 287.088828 
L 702.979404 286.201524 
L 702.927714 285.31422 
L 702.861627 284.426916 
L 702.77014 283.539612 
L 702.64452 282.652309 
L 702.479378 281.765005 
L 702.271982 280.877701 
L 702.020133 279.990397 
L 701.719547 279.103093 
L 701.362211 278.215789 
L 700.93716 277.328485 
L 700.43425 276.441182 
L 699.849614 275.553878 
L 699.189711 274.666574 
L 698.470848 273.77927 
L 697.713313 272.891966 
L 696.932609 272.004662 
L 696.131966 271.117358 
L 695.299309 270.230055 
L 694.409291 269.342751 
L 693.429649 268.455447 
L 692.331583 267.568143 
L 691.10414 266.680839 
L 689.770305 265.793535 
L 688.398407 264.906231 
L 687.100589 264.018928 
L 686.013981 263.131624 
L 685.268791 262.24432 
L 684.955227 261.357016 
L 685.102535 260.469712 
L 685.677427 259.582408 
L 686.600199 258.695104 
L 687.77016 257.807801 
L 689.090507 256.920497 
L 690.485282 256.033193 
L 691.905106 255.145889 
L 693.322236 254.258585 
L 694.718788 253.371281 
L 696.074174 252.483977 
L 697.357982 251.596674 
L 698.53186 250.70937 
L 699.559176 249.822066 
L 700.417009 248.934762 
L 701.103829 248.047458 
L 701.638871 247.160154 
L 702.053936 246.27285 
L 702.382166 245.385547 
L 702.649241 244.498243 
L 702.870242 243.610939 
L 703.051912 242.723635 
L 703.197447 241.836331 
L 703.310498 240.949027 
L 703.396599 240.061723 
L 703.462258 239.17442 
L 703.513221 238.287116 
L 703.553353 237.399812 
L 703.584673 236.512508 
L 703.608139 235.625204 
L 703.624486 234.7379 
L 703.634603 233.850596 
L 703.63942 232.963293 
L 703.639578 232.075989 
L 703.635192 231.188685 
L 703.625925 230.301381 
L 703.611395 229.414077 
L 703.591735 228.526773 
L 703.567995 227.639469 
L 703.542035 226.752166 
L 703.51581 225.864862 
L 703.490376 224.977558 
L 703.46527 224.090254 
L 703.438882 223.20295 
L 703.409832 222.315646 
L 703.378668 221.428342 
L 703.348762 220.541039 
L 703.325605 219.653735 
L 703.314542 218.766431 
L 703.317957 217.879127 
L 703.333396 216.991823 
L 703.353792 216.104519 
L 703.370006 215.217215 
L 703.374646 214.329912 
L 703.365445 213.442608 
L 703.346538 212.555304 
L 703.326993 211.668 
L 703.317247 210.780696 
L 703.325063 209.893392 
L 703.352791 209.006088 
L 703.94539 209.006088 
L 703.94539 209.006088 
L 703.973119 209.893392 
L 703.980935 210.780696 
L 703.971188 211.668 
L 703.951644 212.555304 
L 703.932737 213.442608 
L 703.923536 214.329912 
L 703.928176 215.217215 
L 703.94439 216.104519 
L 703.964786 216.991823 
L 703.980225 217.879127 
L 703.98364 218.766431 
L 703.972577 219.653735 
L 703.94942 220.541039 
L 703.919514 221.428342 
L 703.88835 222.315646 
L 703.8593 223.20295 
L 703.832912 224.090254 
L 703.807806 224.977558 
L 703.782372 225.864862 
L 703.756147 226.752166 
L 703.730187 227.639469 
L 703.706447 228.526773 
L 703.686787 229.414077 
L 703.672256 230.301381 
L 703.66299 231.188685 
L 703.658604 232.075989 
L 703.658762 232.963293 
L 703.663579 233.850596 
L 703.673696 234.7379 
L 703.690043 235.625204 
L 703.713509 236.512508 
L 703.744829 237.399812 
L 703.784961 238.287116 
L 703.835924 239.17442 
L 703.901583 240.061723 
L 703.987684 240.949027 
L 704.100735 241.836331 
L 704.24627 242.723635 
L 704.42794 243.610939 
L 704.648941 244.498243 
L 704.916016 245.385547 
L 705.244246 246.27285 
L 705.659311 247.160154 
L 706.194353 248.047458 
L 706.881172 248.934762 
L 707.739006 249.822066 
L 708.766322 250.70937 
L 709.940199 251.596674 
L 711.224008 252.483977 
L 712.579393 253.371281 
L 713.975946 254.258585 
L 715.393076 255.145889 
L 716.8129 256.033193 
L 718.207675 256.920497 
L 719.528022 257.807801 
L 720.697982 258.695104 
L 721.620754 259.582408 
L 722.195647 260.469712 
L 722.342955 261.357016 
L 722.029391 262.24432 
L 721.2842 263.131624 
L 720.197593 264.018928 
L 718.899775 264.906231 
L 717.527877 265.793535 
L 716.194042 266.680839 
L 714.966599 267.568143 
L 713.868532 268.455447 
L 712.888891 269.342751 
L 711.998873 270.230055 
L 711.166216 271.117358 
L 710.365573 272.004662 
L 709.584869 272.891966 
L 708.827334 273.77927 
L 708.10847 274.666574 
L 707.448568 275.553878 
L 706.863931 276.441182 
L 706.361022 277.328485 
L 705.93597 278.215789 
L 705.578635 279.103093 
L 705.278049 279.990397 
L 705.0262 280.877701 
L 704.818804 281.765005 
L 704.653662 282.652309 
L 704.528042 283.539612 
L 704.436554 284.426916 
L 704.370468 285.31422 
L 704.318778 286.201524 
L 704.270589 287.088828 
L 704.217785 287.976132 
L 704.156792 288.863436 
L 704.088798 289.750739 
L 704.018544 290.638043 
L 703.952334 291.525347 
L 703.895963 292.412651 
L 703.853015 293.299955 
L 703.823864 294.187259 
L 703.805658 295.074563 
L 703.793396 295.961866 
L 703.781792 296.84917 
z
" clip-path="url(#p7914447f71)" style="fill: #1f77b4; fill-opacity: 0.3"/>
   </g>
   <g id="PolyCollection_10">
    <path d="M 784.223037 323.829545 
L 772.626054 323.829545 
L 771.5191 323.362847 
L 770.315677 322.896148 
L 769.035693 322.429449 
L 767.7059 321.96275 
L 766.359354 321.496052 
L 765.0343 321.029353 
L 763.772517 320.562654 
L 762.617175 320.095955 
L 761.610369 319.629256 
L 760.790511 319.162558 
L 760.189793 318.695859 
L 759.831975 318.22916 
L 759.730682 317.762461 
L 759.888391 317.295763 
L 760.296205 316.829064 
L 760.934428 316.362365 
L 761.773884 315.895666 
L 762.777851 315.428967 
L 763.904421 314.962269 
L 765.10907 314.49557 
L 766.347224 314.028871 
L 767.57661 313.562172 
L 768.759239 313.095473 
L 769.862909 312.628775 
L 770.862168 312.162076 
L 771.738749 311.695377 
L 772.481508 311.228678 
L 773.085971 310.76198 
L 773.553555 310.295281 
L 773.890606 309.828582 
L 774.107339 309.361883 
L 774.21676 308.895184 
L 774.233667 308.428486 
L 774.173748 307.961787 
L 774.052815 307.495088 
L 773.886196 307.028389 
L 773.688247 306.561691 
L 773.47201 306.094992 
L 773.248973 305.628293 
L 773.028928 305.161594 
L 772.819913 304.694895 
L 772.628228 304.228197 
L 772.458512 303.761498 
L 772.313882 303.294799 
L 772.196112 302.8281 
L 772.105856 302.361401 
L 772.042877 301.894703 
L 772.006289 301.428004 
L 771.994774 300.961305 
L 772.00677 300.494606 
L 772.040616 300.027908 
L 772.094656 299.561209 
L 772.167302 299.09451 
L 772.257057 298.627811 
L 772.362535 298.161112 
L 772.482457 297.694414 
L 772.615654 297.227715 
L 772.761076 296.761016 
L 772.917798 296.294317 
L 773.085029 295.827619 
L 773.262102 295.36092 
L 773.448453 294.894221 
L 773.643572 294.427522 
L 773.846931 293.960823 
L 774.057899 293.494125 
L 774.27564 293.027426 
L 774.499024 292.560727 
L 774.726552 292.094028 
L 774.95632 291.627329 
L 775.186012 291.160631 
L 775.412957 290.693932 
L 775.634214 290.227233 
L 775.846712 289.760534 
L 776.047415 289.293836 
L 776.2335 288.827137 
L 776.402539 288.360438 
L 776.55266 287.893739 
L 776.682678 287.42704 
L 776.792172 286.960342 
L 776.881518 286.493643 
L 776.951854 286.026944 
L 777.004998 285.560245 
L 777.043319 285.093547 
L 777.069576 284.626848 
L 777.086747 284.160149 
L 777.097862 283.69345 
L 777.105844 283.226751 
L 777.113393 282.760053 
L 777.122897 282.293354 
L 777.136371 281.826655 
L 777.155437 281.359956 
L 777.181311 280.893257 
L 777.214811 280.426559 
L 777.256365 279.95986 
L 777.306021 279.493161 
L 777.36346 279.026462 
L 777.42801 278.559764 
L 777.49867 278.093065 
L 777.574155 277.626366 
L 779.274936 277.626366 
L 779.274936 277.626366 
L 779.350421 278.093065 
L 779.421081 278.559764 
L 779.485631 279.026462 
L 779.54307 279.493161 
L 779.592726 279.95986 
L 779.63428 280.426559 
L 779.66778 280.893257 
L 779.693654 281.359956 
L 779.71272 281.826655 
L 779.726194 282.293354 
L 779.735698 282.760053 
L 779.743247 283.226751 
L 779.751229 283.69345 
L 779.762343 284.160149 
L 779.779515 284.626848 
L 779.805772 285.093547 
L 779.844093 285.560245 
L 779.897237 286.026944 
L 779.967573 286.493643 
L 780.056919 286.960342 
L 780.166413 287.42704 
L 780.296431 287.893739 
L 780.446552 288.360438 
L 780.615591 288.827137 
L 780.801676 289.293836 
L 781.002379 289.760534 
L 781.214877 290.227233 
L 781.436134 290.693932 
L 781.663079 291.160631 
L 781.892771 291.627329 
L 782.122539 292.094028 
L 782.350067 292.560727 
L 782.573451 293.027426 
L 782.791192 293.494125 
L 783.00216 293.960823 
L 783.205519 294.427522 
L 783.400638 294.894221 
L 783.586989 295.36092 
L 783.764062 295.827619 
L 783.931293 296.294317 
L 784.088015 296.761016 
L 784.233437 297.227715 
L 784.366634 297.694414 
L 784.486555 298.161112 
L 784.592034 298.627811 
L 784.681789 299.09451 
L 784.754435 299.561209 
L 784.808475 300.027908 
L 784.842321 300.494606 
L 784.854317 300.961305 
L 784.842802 301.428004 
L 784.806214 301.894703 
L 784.743235 302.361401 
L 784.652979 302.8281 
L 784.535209 303.294799 
L 784.390579 303.761498 
L 784.220863 304.228197 
L 784.029178 304.694895 
L 783.820163 305.161594 
L 783.600118 305.628293 
L 783.377081 306.094992 
L 783.160844 306.561691 
L 782.962895 307.028389 
L 782.796275 307.495088 
L 782.675343 307.961787 
L 782.615423 308.428486 
L 782.632331 308.895184 
L 782.741752 309.361883 
L 782.958485 309.828582 
L 783.295536 310.295281 
L 783.76312 310.76198 
L 784.367582 311.228678 
L 785.110342 311.695377 
L 785.986922 312.162076 
L 786.986182 312.628775 
L 788.089852 313.095473 
L 789.272481 313.562172 
L 790.501867 314.028871 
L 791.740021 314.49557 
L 792.94467 314.962269 
L 794.07124 315.428967 
L 795.075207 315.895666 
L 795.914663 316.362365 
L 796.552886 316.829064 
L 796.9607 317.295763 
L 797.118409 317.762461 
L 797.017116 318.22916 
L 796.659298 318.695859 
L 796.05858 319.162558 
L 795.238722 319.629256 
L 794.231916 320.095955 
L 793.076574 320.562654 
L 791.814791 321.029353 
L 790.489737 321.496052 
L 789.143191 321.96275 
L 787.813398 322.429449 
L 786.533414 322.896148 
L 785.329991 323.362847 
L 784.223037 323.829545 
z
" clip-path="url(#p7914447f71)" style="fill: #1f77b4; fill-opacity: 0.3"/>
   </g>
   <g id="matplotlib.axis_1">
    <g id="xtick_1">
     <g id="line2d_1">
      <defs>
       <path id="m488140c845" d="M 0 0 
L 0 3.5 
" style="stroke: #000000; stroke-width: 0.8"/>
      </defs>
      <g>
       <use xlink:href="#m488140c845" x="105.445455" y="337.97" style="stroke: #000000; stroke-width: 0.8"/>
      </g>
     </g>
     <g id="text_1">
      <!-- Tit For Tat -->
      <g transform="translate(107.652955 384.15)rotate(-90)scale(0.08 -0.08)">
       <defs>
        <path id="DejaVuSans-54" d="M -19 4666 
L 3928 4666 
L 3928 4134 
L 2272 4134 
L 2272 0 
L 1638 0 
L 1638 4134 
L -19 4134 
L -19 4666 
z
" transform="scale(0.015625)"/>
        <path id="DejaVuSans-69" d="M 603 3500 
L 1178 3500 
L 1178 0 
L 603 0 
L 603 3500 
z
M 603 4863 
L 1178 4863 
L 1178 4134 
L 603 4134 
L 603 4863 
z
" transform="scale(0.015625)"/>
        <path id="DejaVuSans-74" d="M 1172 4494 
L 1172 3500 
L 2356 3500 
L 2356 3053 
L 1172 3053 
L 1172 1153 
Q 1172 725 1289 603 
Q 1406 481 1766 481 
L 2356 481 
L 2356 0 
L 1766 0 
Q 1100 0 847 248 
Q 594 497 594 1153 
L 594 3053 
L 172 3053 
L 172 3500 
L 594 3500 
L 594 4494 
L 1172 4494 
z
" transform="scale(0.015625)"/>
        <path id="DejaVuSans-20" transform="scale(0.015625)"/>
        <path id="DejaVuSans-46" d="M 628 4666 
L 3309 4666 
L 3309 4134 
L 1259 4134 
L 1259 2759 
L 3109 2759 
L 3109 2228 
L 1259 2228 
L 1259 0 
L 628 0 
L 628 4666 
z
" transform="scale(0.015625)"/>
        <path id="DejaVuSans-6f" d="M 1959 3097 
Q 1497 3097 1228 2736 
Q 959 2375 959 1747 
Q 959 1119 1226 758 
Q 1494 397 1959 397 
Q 2419 397 2687 759 
Q 2956 1122 2956 1747 
Q 2956 2369 2687 2733 
Q 2419 3097 1959 3097 
z
M 1959 3584 
Q 2709 3584 3137 3096 
Q 3566 2609 3566 1747 
Q 3566 888 3137 398 
Q 2709 -91 1959 -91 
Q 1206 -91 779 398 
Q 353 888 353 1747 
Q 353 2609 779 3096 
Q 1206 3584 1959 3584 
z
" transform="scale(0.015625)"/>
        <path id="DejaVuSans-72" d="M 2631 2963 
Q 2534 3019 2420 3045 
Q 2306 3072 2169 3072 
Q 1681 3072 1420 2755 
Q 1159 2438 1159 1844 
L 1159 0 
L 581 0 
L 581 3500 
L 1159 3500 
L 1159 2956 
Q 1341 3275 1631 3429 
Q 1922 3584 2338 3584 
Q 2397 3584 2469 3576 
Q 2541 3569 2628 3553 
L 2631 2963 
z
" transform="scale(0.015625)"/>
        <path id="DejaVuSans-61" d="M 2194 1759 
Q 1497 1759 1228 1600 
Q 959 1441 959 1056 
Q 959 750 1161 570 
Q 1363 391 1709 391 
Q 2188 391 2477 730 
Q 2766 1069 2766 1631 
L 2766 1759 
L 2194 1759 
z
M 3341 1997 
L 3341 0 
L 2766 0 
L 2766 531 
Q 2569 213 2275 61 
Q 1981 -91 1556 -91 
Q 1019 -91 701 211 
Q 384 513 384 1019 
Q 384 1609 779 1909 
Q 1175 2209 1959 2209 
L 2766 2209 
L 2766 2266 
Q 2766 2663 2505 2880 
Q 2244 3097 1772 3097 
Q 1472 3097 1187 3025 
Q 903 2953 641 2809 
L 641 3341 
Q 956 3463 1253 3523 
Q 1550 3584 1831 3584 
Q 2591 3584 2966 3190 
Q 3341 2797 3341 1997 
z
" transform="scale(0.015625)"/>
       </defs>
       <use xlink:href="#DejaVuSans-54"/>
       <use xlink:href="#DejaVuSans-69" x="57.958984"/>
       <use xlink:href="#DejaVuSans-74" x="85.742188"/>
       <use xlink:href="#DejaVuSans-20" x="124.951172"/>
       <use xlink:href="#DejaVuSans-46" x="156.738281"/>
       <use xlink:href="#DejaVuSans-6f" x="210.632812"/>
       <use xlink:href="#DejaVuSans-72" x="271.814453"/>
       <use xlink:href="#DejaVuSans-20" x="312.927734"/>
       <use xlink:href="#DejaVuSans-54" x="344.714844"/>
       <use xlink:href="#DejaVuSans-61" x="389.298828"/>
       <use xlink:href="#DejaVuSans-74" x="450.578125"/>
      </g>
     </g>
    </g>
    <g id="xtick_2">
     <g id="line2d_2">
      <g>
       <use xlink:href="#m488140c845" x="180.220909" y="337.97" style="stroke: #000000; stroke-width: 0.8"/>
      </g>
     </g>
     <g id="text_2">
      <!-- Grudger -->
      <g transform="translate(182.428409 377.89625)rotate(-90)scale(0.08 -0.08)">
       <defs>
        <path id="DejaVuSans-47" d="M 3809 666 
L 3809 1919 
L 2778 1919 
L 2778 2438 
L 4434 2438 
L 4434 434 
Q 4069 175 3628 42 
Q 3188 -91 2688 -91 
Q 1594 -91 976 548 
Q 359 1188 359 2328 
Q 359 3472 976 4111 
Q 1594 4750 2688 4750 
Q 3144 4750 3555 4637 
Q 3966 4525 4313 4306 
L 4313 3634 
Q 3963 3931 3569 4081 
Q 3175 4231 2741 4231 
Q 1884 4231 1454 3753 
Q 1025 3275 1025 2328 
Q 1025 1384 1454 906 
Q 1884 428 2741 428 
Q 3075 428 3337 486 
Q 3600 544 3809 666 
z
" transform="scale(0.015625)"/>
        <path id="DejaVuSans-75" d="M 544 1381 
L 544 3500 
L 1119 3500 
L 1119 1403 
Q 1119 906 1312 657 
Q 1506 409 1894 409 
Q 2359 409 2629 706 
Q 2900 1003 2900 1516 
L 2900 3500 
L 3475 3500 
L 3475 0 
L 2900 0 
L 2900 538 
Q 2691 219 2414 64 
Q 2138 -91 1772 -91 
Q 1169 -91 856 284 
Q 544 659 544 1381 
z
M 1991 3584 
L 1991 3584 
z
" transform="scale(0.015625)"/>
        <path id="DejaVuSans-64" d="M 2906 2969 
L 2906 4863 
L 3481 4863 
L 3481 0 
L 2906 0 
L 2906 525 
Q 2725 213 2448 61 
Q 2172 -91 1784 -91 
Q 1150 -91 751 415 
Q 353 922 353 1747 
Q 353 2572 751 3078 
Q 1150 3584 1784 3584 
Q 2172 3584 2448 3432 
Q 2725 3281 2906 2969 
z
M 947 1747 
Q 947 1113 1208 752 
Q 1469 391 1925 391 
Q 2381 391 2643 752 
Q 2906 1113 2906 1747 
Q 2906 2381 2643 2742 
Q 2381 3103 1925 3103 
Q 1469 3103 1208 2742 
Q 947 2381 947 1747 
z
" transform="scale(0.015625)"/>
        <path id="DejaVuSans-67" d="M 2906 1791 
Q 2906 2416 2648 2759 
Q 2391 3103 1925 3103 
Q 1463 3103 1205 2759 
Q 947 2416 947 1791 
Q 947 1169 1205 825 
Q 1463 481 1925 481 
Q 2391 481 2648 825 
Q 2906 1169 2906 1791 
z
M 3481 434 
Q 3481 -459 3084 -895 
Q 2688 -1331 1869 -1331 
Q 1566 -1331 1297 -1286 
Q 1028 -1241 775 -1147 
L 775 -588 
Q 1028 -725 1275 -790 
Q 1522 -856 1778 -856 
Q 2344 -856 2625 -561 
Q 2906 -266 2906 331 
L 2906 616 
Q 2728 306 2450 153 
Q 2172 0 1784 0 
Q 1141 0 747 490 
Q 353 981 353 1791 
Q 353 2603 747 3093 
Q 1141 3584 1784 3584 
Q 2172 3584 2450 3431 
Q 2728 3278 2906 2969 
L 2906 3500 
L 3481 3500 
L 3481 434 
z
" transform="scale(0.015625)"/>
        <path id="DejaVuSans-65" d="M 3597 1894 
L 3597 1613 
L 953 1613 
Q 991 1019 1311 708 
Q 1631 397 2203 397 
Q 2534 397 2845 478 
Q 3156 559 3463 722 
L 3463 178 
Q 3153 47 2828 -22 
Q 2503 -91 2169 -91 
Q 1331 -91 842 396 
Q 353 884 353 1716 
Q 353 2575 817 3079 
Q 1281 3584 2069 3584 
Q 2775 3584 3186 3129 
Q 3597 2675 3597 1894 
z
M 3022 2063 
Q 3016 2534 2758 2815 
Q 2500 3097 2075 3097 
Q 1594 3097 1305 2825 
Q 1016 2553 972 2059 
L 3022 2063 
z
" transform="scale(0.015625)"/>
       </defs>
       <use xlink:href="#DejaVuSans-47"/>
       <use xlink:href="#DejaVuSans-72" x="77.490234"/>
       <use xlink:href="#DejaVuSans-75" x="118.603516"/>
       <use xlink:href="#DejaVuSans-64" x="181.982422"/>
       <use xlink:href="#DejaVuSans-67" x="245.458984"/>
       <use xlink:href="#DejaVuSans-65" x="308.935547"/>
       <use xlink:href="#DejaVuSans-72" x="370.458984"/>
      </g>
     </g>
    </g>
    <g id="xtick_3">
     <g id="line2d_3">
      <g>
       <use xlink:href="#m488140c845" x="254.996364" y="337.97" style="stroke: #000000; stroke-width: 0.8"/>
      </g>
     </g>
     <g id="text_3">
      <!-- Deep QLearner -->
      <g transform="translate(257.203864 405.46625)rotate(-90)scale(0.08 -0.08)">
       <defs>
        <path id="DejaVuSans-44" d="M 1259 4147 
L 1259 519 
L 2022 519 
Q 2988 519 3436 956 
Q 3884 1394 3884 2338 
Q 3884 3275 3436 3711 
Q 2988 4147 2022 4147 
L 1259 4147 
z
M 628 4666 
L 1925 4666 
Q 3281 4666 3915 4102 
Q 4550 3538 4550 2338 
Q 4550 1131 3912 565 
Q 3275 0 1925 0 
L 628 0 
L 628 4666 
z
" transform="scale(0.015625)"/>
        <path id="DejaVuSans-70" d="M 1159 525 
L 1159 -1331 
L 581 -1331 
L 581 3500 
L 1159 3500 
L 1159 2969 
Q 1341 3281 1617 3432 
Q 1894 3584 2278 3584 
Q 2916 3584 3314 3078 
Q 3713 2572 3713 1747 
Q 3713 922 3314 415 
Q 2916 -91 2278 -91 
Q 1894 -91 1617 61 
Q 1341 213 1159 525 
z
M 3116 1747 
Q 3116 2381 2855 2742 
Q 2594 3103 2138 3103 
Q 1681 3103 1420 2742 
Q 1159 2381 1159 1747 
Q 1159 1113 1420 752 
Q 1681 391 2138 391 
Q 2594 391 2855 752 
Q 3116 1113 3116 1747 
z
" transform="scale(0.015625)"/>
        <path id="DejaVuSans-51" d="M 2522 4238 
Q 1834 4238 1429 3725 
Q 1025 3213 1025 2328 
Q 1025 1447 1429 934 
Q 1834 422 2522 422 
Q 3209 422 3611 934 
Q 4013 1447 4013 2328 
Q 4013 3213 3611 3725 
Q 3209 4238 2522 4238 
z
M 3406 84 
L 4238 -825 
L 3475 -825 
L 2784 -78 
Q 2681 -84 2626 -87 
Q 2572 -91 2522 -91 
Q 1538 -91 948 567 
Q 359 1225 359 2328 
Q 359 3434 948 4092 
Q 1538 4750 2522 4750 
Q 3503 4750 4090 4092 
Q 4678 3434 4678 2328 
Q 4678 1516 4351 937 
Q 4025 359 3406 84 
z
" transform="scale(0.015625)"/>
        <path id="DejaVuSans-4c" d="M 628 4666 
L 1259 4666 
L 1259 531 
L 3531 531 
L 3531 0 
L 628 0 
L 628 4666 
z
" transform="scale(0.015625)"/>
        <path id="DejaVuSans-6e" d="M 3513 2113 
L 3513 0 
L 2938 0 
L 2938 2094 
Q 2938 2591 2744 2837 
Q 2550 3084 2163 3084 
Q 1697 3084 1428 2787 
Q 1159 2491 1159 1978 
L 1159 0 
L 581 0 
L 581 3500 
L 1159 3500 
L 1159 2956 
Q 1366 3272 1645 3428 
Q 1925 3584 2291 3584 
Q 2894 3584 3203 3211 
Q 3513 2838 3513 2113 
z
" transform="scale(0.015625)"/>
       </defs>
       <use xlink:href="#DejaVuSans-44"/>
       <use xlink:href="#DejaVuSans-65" x="77.001953"/>
       <use xlink:href="#DejaVuSans-65" x="138.525391"/>
       <use xlink:href="#DejaVuSans-70" x="200.048828"/>
       <use xlink:href="#DejaVuSans-20" x="263.525391"/>
       <use xlink:href="#DejaVuSans-51" x="295.3125"/>
       <use xlink:href="#DejaVuSans-4c" x="374.023438"/>
       <use xlink:href="#DejaVuSans-65" x="427.986328"/>
       <use xlink:href="#DejaVuSans-61" x="489.509766"/>
       <use xlink:href="#DejaVuSans-72" x="550.789062"/>
       <use xlink:href="#DejaVuSans-6e" x="590.152344"/>
       <use xlink:href="#DejaVuSans-65" x="653.53125"/>
       <use xlink:href="#DejaVuSans-72" x="715.054688"/>
      </g>
     </g>
    </g>
    <g id="xtick_4">
     <g id="line2d_4">
      <g>
       <use xlink:href="#m488140c845" x="329.771818" y="337.97" style="stroke: #000000; stroke-width: 0.8"/>
      </g>
     </g>
     <g id="text_4">
      <!-- Alternator -->
      <g transform="translate(331.979318 385.165)rotate(-90)scale(0.08 -0.08)">
       <defs>
        <path id="DejaVuSans-41" d="M 2188 4044 
L 1331 1722 
L 3047 1722 
L 2188 4044 
z
M 1831 4666 
L 2547 4666 
L 4325 0 
L 3669 0 
L 3244 1197 
L 1141 1197 
L 716 0 
L 50 0 
L 1831 4666 
z
" transform="scale(0.015625)"/>
        <path id="DejaVuSans-6c" d="M 603 4863 
L 1178 4863 
L 1178 0 
L 603 0 
L 603 4863 
z
" transform="scale(0.015625)"/>
       </defs>
       <use xlink:href="#DejaVuSans-41"/>
       <use xlink:href="#DejaVuSans-6c" x="68.408203"/>
       <use xlink:href="#DejaVuSans-74" x="96.191406"/>
       <use xlink:href="#DejaVuSans-65" x="135.400391"/>
       <use xlink:href="#DejaVuSans-72" x="196.923828"/>
       <use xlink:href="#DejaVuSans-6e" x="236.287109"/>
       <use xlink:href="#DejaVuSans-61" x="299.666016"/>
       <use xlink:href="#DejaVuSans-74" x="360.945312"/>
       <use xlink:href="#DejaVuSans-6f" x="400.154297"/>
       <use xlink:href="#DejaVuSans-72" x="461.335938"/>
      </g>
     </g>
    </g>
    <g id="xtick_5">
     <g id="line2d_5">
      <g>
       <use xlink:href="#m488140c845" x="404.547273" y="337.97" style="stroke: #000000; stroke-width: 0.8"/>
      </g>
     </g>
     <g id="text_5">
      <!-- Random: 0.5 -->
      <g transform="translate(406.754773 396.0475)rotate(-90)scale(0.08 -0.08)">
       <defs>
        <path id="DejaVuSans-52" d="M 2841 2188 
Q 3044 2119 3236 1894 
Q 3428 1669 3622 1275 
L 4263 0 
L 3584 0 
L 2988 1197 
Q 2756 1666 2539 1819 
Q 2322 1972 1947 1972 
L 1259 1972 
L 1259 0 
L 628 0 
L 628 4666 
L 2053 4666 
Q 2853 4666 3247 4331 
Q 3641 3997 3641 3322 
Q 3641 2881 3436 2590 
Q 3231 2300 2841 2188 
z
M 1259 4147 
L 1259 2491 
L 2053 2491 
Q 2509 2491 2742 2702 
Q 2975 2913 2975 3322 
Q 2975 3731 2742 3939 
Q 2509 4147 2053 4147 
L 1259 4147 
z
" transform="scale(0.015625)"/>
        <path id="DejaVuSans-6d" d="M 3328 2828 
Q 3544 3216 3844 3400 
Q 4144 3584 4550 3584 
Q 5097 3584 5394 3201 
Q 5691 2819 5691 2113 
L 5691 0 
L 5113 0 
L 5113 2094 
Q 5113 2597 4934 2840 
Q 4756 3084 4391 3084 
Q 3944 3084 3684 2787 
Q 3425 2491 3425 1978 
L 3425 0 
L 2847 0 
L 2847 2094 
Q 2847 2600 2669 2842 
Q 2491 3084 2119 3084 
Q 1678 3084 1418 2786 
Q 1159 2488 1159 1978 
L 1159 0 
L 581 0 
L 581 3500 
L 1159 3500 
L 1159 2956 
Q 1356 3278 1631 3431 
Q 1906 3584 2284 3584 
Q 2666 3584 2933 3390 
Q 3200 3197 3328 2828 
z
" transform="scale(0.015625)"/>
        <path id="DejaVuSans-3a" d="M 750 794 
L 1409 794 
L 1409 0 
L 750 0 
L 750 794 
z
M 750 3309 
L 1409 3309 
L 1409 2516 
L 750 2516 
L 750 3309 
z
" transform="scale(0.015625)"/>
        <path id="DejaVuSans-30" d="M 2034 4250 
Q 1547 4250 1301 3770 
Q 1056 3291 1056 2328 
Q 1056 1369 1301 889 
Q 1547 409 2034 409 
Q 2525 409 2770 889 
Q 3016 1369 3016 2328 
Q 3016 3291 2770 3770 
Q 2525 4250 2034 4250 
z
M 2034 4750 
Q 2819 4750 3233 4129 
Q 3647 3509 3647 2328 
Q 3647 1150 3233 529 
Q 2819 -91 2034 -91 
Q 1250 -91 836 529 
Q 422 1150 422 2328 
Q 422 3509 836 4129 
Q 1250 4750 2034 4750 
z
" transform="scale(0.015625)"/>
        <path id="DejaVuSans-2e" d="M 684 794 
L 1344 794 
L 1344 0 
L 684 0 
L 684 794 
z
" transform="scale(0.015625)"/>
        <path id="DejaVuSans-35" d="M 691 4666 
L 3169 4666 
L 3169 4134 
L 1269 4134 
L 1269 2991 
Q 1406 3038 1543 3061 
Q 1681 3084 1819 3084 
Q 2600 3084 3056 2656 
Q 3513 2228 3513 1497 
Q 3513 744 3044 326 
Q 2575 -91 1722 -91 
Q 1428 -91 1123 -41 
Q 819 9 494 109 
L 494 744 
Q 775 591 1075 516 
Q 1375 441 1709 441 
Q 2250 441 2565 725 
Q 2881 1009 2881 1497 
Q 2881 1984 2565 2268 
Q 2250 2553 1709 2553 
Q 1456 2553 1204 2497 
Q 953 2441 691 2322 
L 691 4666 
z
" transform="scale(0.015625)"/>
       </defs>
       <use xlink:href="#DejaVuSans-52"/>
       <use xlink:href="#DejaVuSans-61" x="67.232422"/>
       <use xlink:href="#DejaVuSans-6e" x="128.511719"/>
       <use xlink:href="#DejaVuSans-64" x="191.890625"/>
       <use xlink:href="#DejaVuSans-6f" x="255.367188"/>
       <use xlink:href="#DejaVuSans-6d" x="316.548828"/>
       <use xlink:href="#DejaVuSans-3a" x="413.960938"/>
       <use xlink:href="#DejaVuSans-20" x="447.652344"/>
       <use xlink:href="#DejaVuSans-30" x="479.439453"/>
       <use xlink:href="#DejaVuSans-2e" x="543.0625"/>
       <use xlink:href="#DejaVuSans-35" x="574.849609"/>
      </g>
     </g>
    </g>
    <g id="xtick_6">
     <g id="line2d_6">
      <g>
       <use xlink:href="#m488140c845" x="479.322727" y="337.97" style="stroke: #000000; stroke-width: 0.8"/>
      </g>
     </g>
     <g id="text_6">
      <!-- Adaptive -->
      <g transform="translate(481.530227 380.37875)rotate(-90)scale(0.08 -0.08)">
       <defs>
        <path id="DejaVuSans-76" d="M 191 3500 
L 800 3500 
L 1894 563 
L 2988 3500 
L 3597 3500 
L 2284 0 
L 1503 0 
L 191 3500 
z
" transform="scale(0.015625)"/>
       </defs>
       <use xlink:href="#DejaVuSans-41"/>
       <use xlink:href="#DejaVuSans-64" x="66.658203"/>
       <use xlink:href="#DejaVuSans-61" x="130.134766"/>
       <use xlink:href="#DejaVuSans-70" x="191.414062"/>
       <use xlink:href="#DejaVuSans-74" x="254.890625"/>
       <use xlink:href="#DejaVuSans-69" x="294.099609"/>
       <use xlink:href="#DejaVuSans-76" x="321.882812"/>
       <use xlink:href="#DejaVuSans-65" x="381.0625"/>
      </g>
     </g>
    </g>
    <g id="xtick_7">
     <g id="line2d_7">
      <g>
       <use xlink:href="#m488140c845" x="554.098182" y="337.97" style="stroke: #000000; stroke-width: 0.8"/>
      </g>
     </g>
     <g id="text_7">
      <!-- Defector -->
      <g transform="translate(556.305682 379.51)rotate(-90)scale(0.08 -0.08)">
       <defs>
        <path id="DejaVuSans-66" d="M 2375 4863 
L 2375 4384 
L 1825 4384 
Q 1516 4384 1395 4259 
Q 1275 4134 1275 3809 
L 1275 3500 
L 2222 3500 
L 2222 3053 
L 1275 3053 
L 1275 0 
L 697 0 
L 697 3053 
L 147 3053 
L 147 3500 
L 697 3500 
L 697 3744 
Q 697 4328 969 4595 
Q 1241 4863 1831 4863 
L 2375 4863 
z
" transform="scale(0.015625)"/>
        <path id="DejaVuSans-63" d="M 3122 3366 
L 3122 2828 
Q 2878 2963 2633 3030 
Q 2388 3097 2138 3097 
Q 1578 3097 1268 2742 
Q 959 2388 959 1747 
Q 959 1106 1268 751 
Q 1578 397 2138 397 
Q 2388 397 2633 464 
Q 2878 531 3122 666 
L 3122 134 
Q 2881 22 2623 -34 
Q 2366 -91 2075 -91 
Q 1284 -91 818 406 
Q 353 903 353 1747 
Q 353 2603 823 3093 
Q 1294 3584 2113 3584 
Q 2378 3584 2631 3529 
Q 2884 3475 3122 3366 
z
" transform="scale(0.015625)"/>
       </defs>
       <use xlink:href="#DejaVuSans-44"/>
       <use xlink:href="#DejaVuSans-65" x="77.001953"/>
       <use xlink:href="#DejaVuSans-66" x="138.525391"/>
       <use xlink:href="#DejaVuSans-65" x="173.730469"/>
       <use xlink:href="#DejaVuSans-63" x="235.253906"/>
       <use xlink:href="#DejaVuSans-74" x="290.234375"/>
       <use xlink:href="#DejaVuSans-6f" x="329.443359"/>
       <use xlink:href="#DejaVuSans-72" x="390.625"/>
      </g>
     </g>
    </g>
    <g id="xtick_8">
     <g id="line2d_8">
      <g>
       <use xlink:href="#m488140c845" x="628.873636" y="337.97" style="stroke: #000000; stroke-width: 0.8"/>
      </g>
     </g>
     <g id="text_8">
      <!-- Mediocre QLearner -->
      <g transform="translate(631.081136 420.83375)rotate(-90)scale(0.08 -0.08)">
       <defs>
        <path id="DejaVuSans-4d" d="M 628 4666 
L 1569 4666 
L 2759 1491 
L 3956 4666 
L 4897 4666 
L 4897 0 
L 4281 0 
L 4281 4097 
L 3078 897 
L 2444 897 
L 1241 4097 
L 1241 0 
L 628 0 
L 628 4666 
z
" transform="scale(0.015625)"/>
       </defs>
       <use xlink:href="#DejaVuSans-4d"/>
       <use xlink:href="#DejaVuSans-65" x="86.279297"/>
       <use xlink:href="#DejaVuSans-64" x="147.802734"/>
       <use xlink:href="#DejaVuSans-69" x="211.279297"/>
       <use xlink:href="#DejaVuSans-6f" x="239.0625"/>
       <use xlink:href="#DejaVuSans-63" x="300.244141"/>
       <use xlink:href="#DejaVuSans-72" x="355.224609"/>
       <use xlink:href="#DejaVuSans-65" x="394.087891"/>
       <use xlink:href="#DejaVuSans-20" x="455.611328"/>
       <use xlink:href="#DejaVuSans-51" x="487.398438"/>
       <use xlink:href="#DejaVuSans-4c" x="566.109375"/>
       <use xlink:href="#DejaVuSans-65" x="620.072266"/>
       <use xlink:href="#DejaVuSans-61" x="681.595703"/>
       <use xlink:href="#DejaVuSans-72" x="742.875"/>
       <use xlink:href="#DejaVuSans-6e" x="782.238281"/>
       <use xlink:href="#DejaVuSans-65" x="845.617188"/>
       <use xlink:href="#DejaVuSans-72" x="907.140625"/>
      </g>
     </g>
    </g>
    <g id="xtick_9">
     <g id="line2d_9">
      <g>
       <use xlink:href="#m488140c845" x="703.649091" y="337.97" style="stroke: #000000; stroke-width: 0.8"/>
      </g>
     </g>
     <g id="text_9">
      <!-- Risky QLearner -->
      <g transform="translate(705.856591 405.40875)rotate(-90)scale(0.08 -0.08)">
       <defs>
        <path id="DejaVuSans-73" d="M 2834 3397 
L 2834 2853 
Q 2591 2978 2328 3040 
Q 2066 3103 1784 3103 
Q 1356 3103 1142 2972 
Q 928 2841 928 2578 
Q 928 2378 1081 2264 
Q 1234 2150 1697 2047 
L 1894 2003 
Q 2506 1872 2764 1633 
Q 3022 1394 3022 966 
Q 3022 478 2636 193 
Q 2250 -91 1575 -91 
Q 1294 -91 989 -36 
Q 684 19 347 128 
L 347 722 
Q 666 556 975 473 
Q 1284 391 1588 391 
Q 1994 391 2212 530 
Q 2431 669 2431 922 
Q 2431 1156 2273 1281 
Q 2116 1406 1581 1522 
L 1381 1569 
Q 847 1681 609 1914 
Q 372 2147 372 2553 
Q 372 3047 722 3315 
Q 1072 3584 1716 3584 
Q 2034 3584 2315 3537 
Q 2597 3491 2834 3397 
z
" transform="scale(0.015625)"/>
        <path id="DejaVuSans-6b" d="M 581 4863 
L 1159 4863 
L 1159 1991 
L 2875 3500 
L 3609 3500 
L 1753 1863 
L 3688 0 
L 2938 0 
L 1159 1709 
L 1159 0 
L 581 0 
L 581 4863 
z
" transform="scale(0.015625)"/>
        <path id="DejaVuSans-79" d="M 2059 -325 
Q 1816 -950 1584 -1140 
Q 1353 -1331 966 -1331 
L 506 -1331 
L 506 -850 
L 844 -850 
Q 1081 -850 1212 -737 
Q 1344 -625 1503 -206 
L 1606 56 
L 191 3500 
L 800 3500 
L 1894 763 
L 2988 3500 
L 3597 3500 
L 2059 -325 
z
" transform="scale(0.015625)"/>
       </defs>
       <use xlink:href="#DejaVuSans-52"/>
       <use xlink:href="#DejaVuSans-69" x="69.482422"/>
       <use xlink:href="#DejaVuSans-73" x="97.265625"/>
       <use xlink:href="#DejaVuSans-6b" x="149.365234"/>
       <use xlink:href="#DejaVuSans-79" x="203.650391"/>
       <use xlink:href="#DejaVuSans-20" x="262.830078"/>
       <use xlink:href="#DejaVuSans-51" x="294.617188"/>
       <use xlink:href="#DejaVuSans-4c" x="373.328125"/>
       <use xlink:href="#DejaVuSans-65" x="427.291016"/>
       <use xlink:href="#DejaVuSans-61" x="488.814453"/>
       <use xlink:href="#DejaVuSans-72" x="550.09375"/>
       <use xlink:href="#DejaVuSans-6e" x="589.457031"/>
       <use xlink:href="#DejaVuSans-65" x="652.835938"/>
       <use xlink:href="#DejaVuSans-72" x="714.359375"/>
      </g>
     </g>
    </g>
    <g id="xtick_10">
     <g id="line2d_10">
      <g>
       <use xlink:href="#m488140c845" x="778.424545" y="337.97" style="stroke: #000000; stroke-width: 0.8"/>
      </g>
     </g>
     <g id="text_10">
      <!-- Cooperator -->
      <g transform="translate(780.632045 389.85875)rotate(-90)scale(0.08 -0.08)">
       <defs>
        <path id="DejaVuSans-43" d="M 4122 4306 
L 4122 3641 
Q 3803 3938 3442 4084 
Q 3081 4231 2675 4231 
Q 1875 4231 1450 3742 
Q 1025 3253 1025 2328 
Q 1025 1406 1450 917 
Q 1875 428 2675 428 
Q 3081 428 3442 575 
Q 3803 722 4122 1019 
L 4122 359 
Q 3791 134 3420 21 
Q 3050 -91 2638 -91 
Q 1578 -91 968 557 
Q 359 1206 359 2328 
Q 359 3453 968 4101 
Q 1578 4750 2638 4750 
Q 3056 4750 3426 4639 
Q 3797 4528 4122 4306 
z
" transform="scale(0.015625)"/>
       </defs>
       <use xlink:href="#DejaVuSans-43"/>
       <use xlink:href="#DejaVuSans-6f" x="69.824219"/>
       <use xlink:href="#DejaVuSans-6f" x="131.005859"/>
       <use xlink:href="#DejaVuSans-70" x="192.1875"/>
       <use xlink:href="#DejaVuSans-65" x="255.664062"/>
       <use xlink:href="#DejaVuSans-72" x="317.1875"/>
       <use xlink:href="#DejaVuSans-61" x="358.300781"/>
       <use xlink:href="#DejaVuSans-74" x="419.580078"/>
       <use xlink:href="#DejaVuSans-6f" x="458.789062"/>
       <use xlink:href="#DejaVuSans-72" x="519.970703"/>
      </g>
     </g>
    </g>
   </g>
   <g id="matplotlib.axis_2">
    <g id="ytick_1">
     <g id="line2d_11">
      <defs>
       <path id="m4e15b8f531" d="M 0 0 
L -3.5 0 
" style="stroke: #000000; stroke-width: 0.8"/>
      </defs>
      <g>
       <use xlink:href="#m4e15b8f531" x="30.67" y="326.396389" style="stroke: #000000; stroke-width: 0.8"/>
      </g>
     </g>
     <g id="text_11">
      <!-- 1.6 -->
      <g transform="translate(10.9475 329.435764)scale(0.08 -0.08)">
       <defs>
        <path id="DejaVuSans-31" d="M 794 531 
L 1825 531 
L 1825 4091 
L 703 3866 
L 703 4441 
L 1819 4666 
L 2450 4666 
L 2450 531 
L 3481 531 
L 3481 0 
L 794 0 
L 794 531 
z
" transform="scale(0.015625)"/>
        <path id="DejaVuSans-36" d="M 2113 2584 
Q 1688 2584 1439 2293 
Q 1191 2003 1191 1497 
Q 1191 994 1439 701 
Q 1688 409 2113 409 
Q 2538 409 2786 701 
Q 3034 994 3034 1497 
Q 3034 2003 2786 2293 
Q 2538 2584 2113 2584 
z
M 3366 4563 
L 3366 3988 
Q 3128 4100 2886 4159 
Q 2644 4219 2406 4219 
Q 1781 4219 1451 3797 
Q 1122 3375 1075 2522 
Q 1259 2794 1537 2939 
Q 1816 3084 2150 3084 
Q 2853 3084 3261 2657 
Q 3669 2231 3669 1497 
Q 3669 778 3244 343 
Q 2819 -91 2113 -91 
Q 1303 -91 875 529 
Q 447 1150 447 2328 
Q 447 3434 972 4092 
Q 1497 4750 2381 4750 
Q 2619 4750 2861 4703 
Q 3103 4656 3366 4563 
z
" transform="scale(0.015625)"/>
       </defs>
       <use xlink:href="#DejaVuSans-31"/>
       <use xlink:href="#DejaVuSans-2e" x="63.623047"/>
       <use xlink:href="#DejaVuSans-36" x="95.410156"/>
      </g>
     </g>
    </g>
    <g id="ytick_2">
     <g id="line2d_12">
      <g>
       <use xlink:href="#m4e15b8f531" x="30.67" y="285.326896" style="stroke: #000000; stroke-width: 0.8"/>
      </g>
     </g>
     <g id="text_12">
      <!-- 1.8 -->
      <g transform="translate(10.9475 288.366271)scale(0.08 -0.08)">
       <defs>
        <path id="DejaVuSans-38" d="M 2034 2216 
Q 1584 2216 1326 1975 
Q 1069 1734 1069 1313 
Q 1069 891 1326 650 
Q 1584 409 2034 409 
Q 2484 409 2743 651 
Q 3003 894 3003 1313 
Q 3003 1734 2745 1975 
Q 2488 2216 2034 2216 
z
M 1403 2484 
Q 997 2584 770 2862 
Q 544 3141 544 3541 
Q 544 4100 942 4425 
Q 1341 4750 2034 4750 
Q 2731 4750 3128 4425 
Q 3525 4100 3525 3541 
Q 3525 3141 3298 2862 
Q 3072 2584 2669 2484 
Q 3125 2378 3379 2068 
Q 3634 1759 3634 1313 
Q 3634 634 3220 271 
Q 2806 -91 2034 -91 
Q 1263 -91 848 271 
Q 434 634 434 1313 
Q 434 1759 690 2068 
Q 947 2378 1403 2484 
z
M 1172 3481 
Q 1172 3119 1398 2916 
Q 1625 2713 2034 2713 
Q 2441 2713 2670 2916 
Q 2900 3119 2900 3481 
Q 2900 3844 2670 4047 
Q 2441 4250 2034 4250 
Q 1625 4250 1398 4047 
Q 1172 3844 1172 3481 
z
" transform="scale(0.015625)"/>
       </defs>
       <use xlink:href="#DejaVuSans-31"/>
       <use xlink:href="#DejaVuSans-2e" x="63.623047"/>
       <use xlink:href="#DejaVuSans-38" x="95.410156"/>
      </g>
     </g>
    </g>
    <g id="ytick_3">
     <g id="line2d_13">
      <g>
       <use xlink:href="#m4e15b8f531" x="30.67" y="244.257403" style="stroke: #000000; stroke-width: 0.8"/>
      </g>
     </g>
     <g id="text_13">
      <!-- 2.0 -->
      <g transform="translate(10.9475 247.296778)scale(0.08 -0.08)">
       <defs>
        <path id="DejaVuSans-32" d="M 1228 531 
L 3431 531 
L 3431 0 
L 469 0 
L 469 531 
Q 828 903 1448 1529 
Q 2069 2156 2228 2338 
Q 2531 2678 2651 2914 
Q 2772 3150 2772 3378 
Q 2772 3750 2511 3984 
Q 2250 4219 1831 4219 
Q 1534 4219 1204 4116 
Q 875 4013 500 3803 
L 500 4441 
Q 881 4594 1212 4672 
Q 1544 4750 1819 4750 
Q 2544 4750 2975 4387 
Q 3406 4025 3406 3419 
Q 3406 3131 3298 2873 
Q 3191 2616 2906 2266 
Q 2828 2175 2409 1742 
Q 1991 1309 1228 531 
z
" transform="scale(0.015625)"/>
       </defs>
       <use xlink:href="#DejaVuSans-32"/>
       <use xlink:href="#DejaVuSans-2e" x="63.623047"/>
       <use xlink:href="#DejaVuSans-30" x="95.410156"/>
      </g>
     </g>
    </g>
    <g id="ytick_4">
     <g id="line2d_14">
      <g>
       <use xlink:href="#m4e15b8f531" x="30.67" y="203.18791" style="stroke: #000000; stroke-width: 0.8"/>
      </g>
     </g>
     <g id="text_14">
      <!-- 2.2 -->
      <g transform="translate(10.9475 206.227285)scale(0.08 -0.08)">
       <use xlink:href="#DejaVuSans-32"/>
       <use xlink:href="#DejaVuSans-2e" x="63.623047"/>
       <use xlink:href="#DejaVuSans-32" x="95.410156"/>
      </g>
     </g>
    </g>
    <g id="ytick_5">
     <g id="line2d_15">
      <g>
       <use xlink:href="#m4e15b8f531" x="30.67" y="162.118417" style="stroke: #000000; stroke-width: 0.8"/>
      </g>
     </g>
     <g id="text_15">
      <!-- 2.4 -->
      <g transform="translate(10.9475 165.157792)scale(0.08 -0.08)">
       <defs>
        <path id="DejaVuSans-34" d="M 2419 4116 
L 825 1625 
L 2419 1625 
L 2419 4116 
z
M 2253 4666 
L 3047 4666 
L 3047 1625 
L 3713 1625 
L 3713 1100 
L 3047 1100 
L 3047 0 
L 2419 0 
L 2419 1100 
L 313 1100 
L 313 1709 
L 2253 4666 
z
" transform="scale(0.015625)"/>
       </defs>
       <use xlink:href="#DejaVuSans-32"/>
       <use xlink:href="#DejaVuSans-2e" x="63.623047"/>
       <use xlink:href="#DejaVuSans-34" x="95.410156"/>
      </g>
     </g>
    </g>
    <g id="ytick_6">
     <g id="line2d_16">
      <g>
       <use xlink:href="#m4e15b8f531" x="30.67" y="121.048925" style="stroke: #000000; stroke-width: 0.8"/>
      </g>
     </g>
     <g id="text_16">
      <!-- 2.6 -->
      <g transform="translate(10.9475 124.0883)scale(0.08 -0.08)">
       <use xlink:href="#DejaVuSans-32"/>
       <use xlink:href="#DejaVuSans-2e" x="63.623047"/>
       <use xlink:href="#DejaVuSans-36" x="95.410156"/>
      </g>
     </g>
    </g>
    <g id="ytick_7">
     <g id="line2d_17">
      <g>
       <use xlink:href="#m4e15b8f531" x="30.67" y="79.979432" style="stroke: #000000; stroke-width: 0.8"/>
      </g>
     </g>
     <g id="text_17">
      <!-- 2.8 -->
      <g transform="translate(10.9475 83.018807)scale(0.08 -0.08)">
       <use xlink:href="#DejaVuSans-32"/>
       <use xlink:href="#DejaVuSans-2e" x="63.623047"/>
       <use xlink:href="#DejaVuSans-38" x="95.410156"/>
      </g>
     </g>
    </g>
    <g id="ytick_8">
     <g id="line2d_18">
      <g>
       <use xlink:href="#m4e15b8f531" x="30.67" y="38.909939" style="stroke: #000000; stroke-width: 0.8"/>
      </g>
     </g>
     <g id="text_18">
      <!-- 3.0 -->
      <g transform="translate(10.9475 41.949314)scale(0.08 -0.08)">
       <defs>
        <path id="DejaVuSans-33" d="M 2597 2516 
Q 3050 2419 3304 2112 
Q 3559 1806 3559 1356 
Q 3559 666 3084 287 
Q 2609 -91 1734 -91 
Q 1441 -91 1130 -33 
Q 819 25 488 141 
L 488 750 
Q 750 597 1062 519 
Q 1375 441 1716 441 
Q 2309 441 2620 675 
Q 2931 909 2931 1356 
Q 2931 1769 2642 2001 
Q 2353 2234 1838 2234 
L 1294 2234 
L 1294 2753 
L 1863 2753 
Q 2328 2753 2575 2939 
Q 2822 3125 2822 3475 
Q 2822 3834 2567 4026 
Q 2313 4219 1838 4219 
Q 1578 4219 1281 4162 
Q 984 4106 628 3988 
L 628 4550 
Q 988 4650 1302 4700 
Q 1616 4750 1894 4750 
Q 2613 4750 3031 4423 
Q 3450 4097 3450 3541 
Q 3450 3153 3228 2886 
Q 3006 2619 2597 2516 
z
" transform="scale(0.015625)"/>
       </defs>
       <use xlink:href="#DejaVuSans-33"/>
       <use xlink:href="#DejaVuSans-2e" x="63.623047"/>
       <use xlink:href="#DejaVuSans-30" x="95.410156"/>
      </g>
     </g>
    </g>
   </g>
   <g id="LineCollection_1">
    <path d="M 96.098523 122.931276 
L 114.792386 122.931276 
" clip-path="url(#p7914447f71)" style="fill: none; stroke: #1f77b4; stroke-width: 1.5"/>
    <path d="M 170.873977 146.945521 
L 189.567841 146.945521 
" clip-path="url(#p7914447f71)" style="fill: none; stroke: #1f77b4; stroke-width: 1.5"/>
    <path d="M 245.649432 162.660307 
L 264.343295 162.660307 
" clip-path="url(#p7914447f71)" style="fill: none; stroke: #1f77b4; stroke-width: 1.5"/>
    <path d="M 320.424886 205.783274 
L 339.11875 205.783274 
" clip-path="url(#p7914447f71)" style="fill: none; stroke: #1f77b4; stroke-width: 1.5"/>
    <path d="M 395.200341 220.243158 
L 413.894205 220.243158 
" clip-path="url(#p7914447f71)" style="fill: none; stroke: #1f77b4; stroke-width: 1.5"/>
    <path d="M 469.975795 221.184334 
L 488.669659 221.184334 
" clip-path="url(#p7914447f71)" style="fill: none; stroke: #1f77b4; stroke-width: 1.5"/>
    <path d="M 544.75125 240.606782 
L 563.445114 240.606782 
" clip-path="url(#p7914447f71)" style="fill: none; stroke: #1f77b4; stroke-width: 1.5"/>
    <path d="M 619.526705 261.141528 
L 638.220568 261.141528 
" clip-path="url(#p7914447f71)" style="fill: none; stroke: #1f77b4; stroke-width: 1.5"/>
    <path d="M 694.302159 261.711938 
L 712.996023 261.711938 
" clip-path="url(#p7914447f71)" style="fill: none; stroke: #1f77b4; stroke-width: 1.5"/>
    <path d="M 769.077614 315.78677 
L 787.771477 315.78677 
" clip-path="url(#p7914447f71)" style="fill: none; stroke: #1f77b4; stroke-width: 1.5"/>
   </g>
   <g id="patch_3">
    <path d="M 30.67 337.97 
L 30.67 26.88 
" style="fill: none; stroke: #000000; stroke-width: 0.8; stroke-linejoin: miter; stroke-linecap: square"/>
   </g>
   <g id="patch_4">
    <path d="M 853.2 337.97 
L 853.2 26.88 
" style="fill: none; stroke: #000000; stroke-width: 0.8; stroke-linejoin: miter; stroke-linecap: square"/>
   </g>
   <g id="patch_5">
    <path d="M 30.67 337.97 
L 853.2 337.97 
" style="fill: none; stroke: #000000; stroke-width: 0.8; stroke-linejoin: miter; stroke-linecap: square"/>
   </g>
   <g id="patch_6">
    <path d="M 30.67 26.88 
L 853.2 26.88 
" style="fill: none; stroke: #000000; stroke-width: 0.8; stroke-linejoin: miter; stroke-linecap: square"/>
   </g>
   <g id="text_19">
    <!-- Payoff - turns: 200, repetitions: 400, strategies: 10.  -->
    <g transform="translate(286.154375 20.88)scale(0.12 -0.12)">
     <defs>
      <path id="DejaVuSans-50" d="M 1259 4147 
L 1259 2394 
L 2053 2394 
Q 2494 2394 2734 2622 
Q 2975 2850 2975 3272 
Q 2975 3691 2734 3919 
Q 2494 4147 2053 4147 
L 1259 4147 
z
M 628 4666 
L 2053 4666 
Q 2838 4666 3239 4311 
Q 3641 3956 3641 3272 
Q 3641 2581 3239 2228 
Q 2838 1875 2053 1875 
L 1259 1875 
L 1259 0 
L 628 0 
L 628 4666 
z
" transform="scale(0.015625)"/>
      <path id="DejaVuSans-2d" d="M 313 2009 
L 1997 2009 
L 1997 1497 
L 313 1497 
L 313 2009 
z
" transform="scale(0.015625)"/>
      <path id="DejaVuSans-2c" d="M 750 794 
L 1409 794 
L 1409 256 
L 897 -744 
L 494 -744 
L 750 256 
L 750 794 
z
" transform="scale(0.015625)"/>
     </defs>
     <use xlink:href="#DejaVuSans-50"/>
     <use xlink:href="#DejaVuSans-61" x="55.802734"/>
     <use xlink:href="#DejaVuSans-79" x="117.082031"/>
     <use xlink:href="#DejaVuSans-6f" x="176.261719"/>
     <use xlink:href="#DejaVuSans-66" x="237.443359"/>
     <use xlink:href="#DejaVuSans-66" x="272.648438"/>
     <use xlink:href="#DejaVuSans-20" x="307.853516"/>
     <use xlink:href="#DejaVuSans-2d" x="339.640625"/>
     <use xlink:href="#DejaVuSans-20" x="375.724609"/>
     <use xlink:href="#DejaVuSans-74" x="407.511719"/>
     <use xlink:href="#DejaVuSans-75" x="446.720703"/>
     <use xlink:href="#DejaVuSans-72" x="510.099609"/>
     <use xlink:href="#DejaVuSans-6e" x="549.462891"/>
     <use xlink:href="#DejaVuSans-73" x="612.841797"/>
     <use xlink:href="#DejaVuSans-3a" x="664.941406"/>
     <use xlink:href="#DejaVuSans-20" x="698.632812"/>
     <use xlink:href="#DejaVuSans-32" x="730.419922"/>
     <use xlink:href="#DejaVuSans-30" x="794.042969"/>
     <use xlink:href="#DejaVuSans-30" x="857.666016"/>
     <use xlink:href="#DejaVuSans-2c" x="921.289062"/>
     <use xlink:href="#DejaVuSans-20" x="953.076172"/>
     <use xlink:href="#DejaVuSans-72" x="984.863281"/>
     <use xlink:href="#DejaVuSans-65" x="1023.726562"/>
     <use xlink:href="#DejaVuSans-70" x="1085.25"/>
     <use xlink:href="#DejaVuSans-65" x="1148.726562"/>
     <use xlink:href="#DejaVuSans-74" x="1210.25"/>
     <use xlink:href="#DejaVuSans-69" x="1249.458984"/>
     <use xlink:href="#DejaVuSans-74" x="1277.242188"/>
     <use xlink:href="#DejaVuSans-69" x="1316.451172"/>
     <use xlink:href="#DejaVuSans-6f" x="1344.234375"/>
     <use xlink:href="#DejaVuSans-6e" x="1405.416016"/>
     <use xlink:href="#DejaVuSans-73" x="1468.794922"/>
     <use xlink:href="#DejaVuSans-3a" x="1520.894531"/>
     <use xlink:href="#DejaVuSans-20" x="1554.585938"/>
     <use xlink:href="#DejaVuSans-34" x="1586.373047"/>
     <use xlink:href="#DejaVuSans-30" x="1649.996094"/>
     <use xlink:href="#DejaVuSans-30" x="1713.619141"/>
     <use xlink:href="#DejaVuSans-2c" x="1777.242188"/>
     <use xlink:href="#DejaVuSans-20" x="1809.029297"/>
     <use xlink:href="#DejaVuSans-73" x="1840.816406"/>
     <use xlink:href="#DejaVuSans-74" x="1892.916016"/>
     <use xlink:href="#DejaVuSans-72" x="1932.125"/>
     <use xlink:href="#DejaVuSans-61" x="1973.238281"/>
     <use xlink:href="#DejaVuSans-74" x="2034.517578"/>
     <use xlink:href="#DejaVuSans-65" x="2073.726562"/>
     <use xlink:href="#DejaVuSans-67" x="2135.25"/>
     <use xlink:href="#DejaVuSans-69" x="2198.726562"/>
     <use xlink:href="#DejaVuSans-65" x="2226.509766"/>
     <use xlink:href="#DejaVuSans-73" x="2288.033203"/>
     <use xlink:href="#DejaVuSans-3a" x="2340.132812"/>
     <use xlink:href="#DejaVuSans-20" x="2373.824219"/>
     <use xlink:href="#DejaVuSans-31" x="2405.611328"/>
     <use xlink:href="#DejaVuSans-30" x="2469.234375"/>
     <use xlink:href="#DejaVuSans-2e" x="2532.857422"/>
     <use xlink:href="#DejaVuSans-20" x="2564.644531"/>
    </g>
   </g>
  </g>
 </g>
 <defs>
  <clipPath id="p7914447f71">
   <rect x="30.67" y="26.88" width="822.53" height="311.09"/>
  </clipPath>
 </defs>
</svg>
