<?xml version="1.0" encoding="utf-8" standalone="no"?>
<!DOCTYPE svg PUBLIC "-//W3C//DTD SVG 1.1//EN"
  "http://www.w3.org/Graphics/SVG/1.1/DTD/svg11.dtd">
<svg xmlns:xlink="http://www.w3.org/1999/xlink" width="864pt" height="432pt" viewBox="0 0 864 432" xmlns="http://www.w3.org/2000/svg" version="1.1">
 <metadata>
  <rdf:RDF xmlns:dc="http://purl.org/dc/elements/1.1/" xmlns:cc="http://creativecommons.org/ns#" xmlns:rdf="http://www.w3.org/1999/02/22-rdf-syntax-ns#">
   <cc:Work>
    <dc:type rdf:resource="http://purl.org/dc/dcmitype/StillImage"/>
    <dc:date>2022-10-01T07:03:39.818187</dc:date>
    <dc:format>image/svg+xml</dc:format>
    <dc:creator>
     <cc:Agent>
      <dc:title>Matplotlib v3.5.1, https://matplotlib.org/</dc:title>
     </cc:Agent>
    </dc:creator>
   </cc:Work>
  </rdf:RDF>
 </metadata>
 <defs>
  <style type="text/css">*{stroke-linejoin: round; stroke-linecap: butt}</style>
 </defs>
 <g id="figure_1">
  <g id="patch_1">
   <path d="M 0 432 
L 864 432 
L 864 0 
L 0 0 
z
" style="fill: #ffffff"/>
  </g>
  <g id="axes_1">
   <g id="patch_2">
    <path d="M 29.68 337.97 
L 853.2 337.97 
L 853.2 26.88 
L 29.68 26.88 
z
" style="fill: #ffffff"/>
   </g>
   <g id="PolyCollection_1">
    <path d="M 111.511923 182.778511 
L 97.578986 182.778511 
L 97.62841 182.774941 
L 97.774587 182.77137 
L 98.011383 182.767799 
L 98.329049 182.764228 
L 98.71489 182.760657 
L 99.154102 182.757086 
L 99.630714 182.753516 
L 100.128536 182.749945 
L 100.632057 182.746374 
L 101.1272 182.742803 
L 101.601909 182.739232 
L 102.046532 182.735662 
L 102.453989 182.732091 
L 102.819757 182.72852 
L 103.14169 182.724949 
L 103.419711 182.721378 
L 103.655432 182.717807 
L 103.851744 182.714237 
L 104.012401 182.710666 
L 104.141642 182.707095 
L 104.243873 182.703524 
L 104.323408 182.699953 
L 104.384278 182.696382 
L 104.430116 182.692812 
L 104.464085 182.689241 
L 104.488861 182.68567 
L 104.50665 182.682099 
L 104.519223 182.678528 
L 104.527973 182.674958 
L 104.533969 182.671387 
L 104.538015 182.667816 
L 104.540704 182.664245 
L 104.542464 182.660674 
L 104.543599 182.657103 
L 104.544319 182.653533 
L 104.54477 182.649962 
L 104.545047 182.646391 
L 104.545216 182.64282 
L 104.545317 182.639249 
L 104.545376 182.635678 
L 104.54541 182.632108 
L 104.54543 182.628537 
L 104.545441 182.624966 
L 104.545447 182.621395 
L 104.545451 182.617824 
L 104.545453 182.614254 
L 104.545453 182.610683 
L 104.545454 182.607112 
L 104.545454 182.603541 
L 104.545454 182.59997 
L 104.545453 182.596399 
L 104.545452 182.592829 
L 104.545449 182.589258 
L 104.545444 182.585687 
L 104.545435 182.582116 
L 104.545419 182.578545 
L 104.545389 182.574975 
L 104.545336 182.571404 
L 104.545243 182.567833 
L 104.545084 182.564262 
L 104.544813 182.560691 
L 104.54436 182.55712 
L 104.543614 182.55355 
L 104.542404 182.549979 
L 104.540468 182.546408 
L 104.53742 182.542837 
L 104.532692 182.539266 
L 104.525468 182.535695 
L 104.514598 182.532125 
L 104.498489 182.528554 
L 104.474981 182.524983 
L 104.4412 182.521412 
L 104.393409 182.517841 
L 104.326844 182.514271 
L 104.235583 182.5107 
L 104.112432 182.507129 
L 103.948895 182.503558 
L 103.735215 182.499987 
L 103.460557 182.496416 
L 103.113333 182.492846 
L 102.681708 182.489275 
L 102.154288 182.485704 
L 101.52099 182.482133 
L 100.774051 182.478562 
L 99.909135 182.474992 
L 98.926447 182.471421 
L 97.831759 182.46785 
L 96.63722 182.464279 
L 95.361848 182.460708 
L 94.031579 182.457137 
L 92.678802 182.453567 
L 91.341335 182.449996 
L 90.060854 182.446425 
L 88.880851 182.442854 
L 87.844236 182.439283 
L 86.990782 182.435712 
L 86.354598 182.432142 
L 85.961874 182.428571 
L 85.829091 182.425 
L 123.261818 182.425 
L 123.261818 182.425 
L 123.129035 182.428571 
L 122.736311 182.432142 
L 122.100127 182.435712 
L 121.246673 182.439283 
L 120.210059 182.442854 
L 119.030055 182.446425 
L 117.749574 182.449996 
L 116.412107 182.453567 
L 115.05933 182.457137 
L 113.729061 182.460708 
L 112.453689 182.464279 
L 111.25915 182.46785 
L 110.164462 182.471421 
L 109.181774 182.474992 
L 108.316858 182.478562 
L 107.569919 182.482133 
L 106.936621 182.485704 
L 106.409201 182.489275 
L 105.977576 182.492846 
L 105.630352 182.496416 
L 105.355694 182.499987 
L 105.142014 182.503558 
L 104.978477 182.507129 
L 104.855326 182.5107 
L 104.764065 182.514271 
L 104.6975 182.517841 
L 104.649709 182.521412 
L 104.615929 182.524983 
L 104.59242 182.528554 
L 104.576311 182.532125 
L 104.565441 182.535695 
L 104.558217 182.539266 
L 104.553489 182.542837 
L 104.550441 182.546408 
L 104.548505 182.549979 
L 104.547295 182.55355 
L 104.546549 182.55712 
L 104.546096 182.560691 
L 104.545825 182.564262 
L 104.545666 182.567833 
L 104.545573 182.571404 
L 104.54552 182.574975 
L 104.54549 182.578545 
L 104.545474 182.582116 
L 104.545465 182.585687 
L 104.54546 182.589258 
L 104.545457 182.592829 
L 104.545456 182.596399 
L 104.545455 182.59997 
L 104.545455 182.603541 
L 104.545455 182.607112 
L 104.545456 182.610683 
L 104.545457 182.614254 
L 104.545458 182.617824 
L 104.545462 182.621395 
L 104.545468 182.624966 
L 104.545479 182.628537 
L 104.545499 182.632108 
L 104.545533 182.635678 
L 104.545593 182.639249 
L 104.545693 182.64282 
L 104.545862 182.646391 
L 104.54614 182.649962 
L 104.54659 182.653533 
L 104.54731 182.657103 
L 104.548445 182.660674 
L 104.550205 182.664245 
L 104.552894 182.667816 
L 104.55694 182.671387 
L 104.562936 182.674958 
L 104.571686 182.678528 
L 104.584259 182.682099 
L 104.602048 182.68567 
L 104.626824 182.689241 
L 104.660793 182.692812 
L 104.706631 182.696382 
L 104.767502 182.699953 
L 104.847036 182.703524 
L 104.949267 182.707095 
L 105.078508 182.710666 
L 105.239165 182.714237 
L 105.435477 182.717807 
L 105.671199 182.721378 
L 105.949219 182.724949 
L 106.271152 182.72852 
L 106.63692 182.732091 
L 107.044377 182.735662 
L 107.489 182.739232 
L 107.963709 182.742803 
L 108.458852 182.746374 
L 108.962373 182.749945 
L 109.460195 182.753516 
L 109.936807 182.757086 
L 110.376019 182.760657 
L 110.76186 182.764228 
L 111.079527 182.767799 
L 111.316322 182.77137 
L 111.462499 182.774941 
L 111.511923 182.778511 
z
" clip-path="url(#pcc4eb2afca)" style="fill: #1f77b4; fill-opacity: 0.3"/>
   </g>
   <g id="PolyCollection_2">
    <path d="M 197.546902 182.778511 
L 161.274916 182.778511 
L 160.793922 181.389462 
L 160.694545 180.000412 
L 160.957998 178.611362 
L 161.541077 177.222313 
L 162.383116 175.833263 
L 163.414499 174.444213 
L 164.565186 173.055163 
L 165.771885 171.666114 
L 166.982932 170.277064 
L 168.160527 168.888014 
L 169.280513 167.498965 
L 170.330325 166.109915 
L 171.305931 164.720865 
L 172.208568 163.331816 
L 173.041903 161.942766 
L 173.809993 160.553716 
L 174.516143 159.164666 
L 175.162543 157.775617 
L 175.750463 156.386567 
L 176.280734 154.997517 
L 176.75428 153.608468 
L 177.172554 152.219418 
L 177.537773 150.830368 
L 177.852955 149.441319 
L 178.12179 148.052269 
L 178.348379 146.663219 
L 178.536909 145.274169 
L 178.69131 143.88512 
L 178.81491 142.49607 
L 178.910108 141.10702 
L 178.978083 139.717971 
L 179.018529 138.328921 
L 179.029454 136.939871 
L 179.007056 135.550822 
L 178.945741 134.161772 
L 178.838345 132.772722 
L 178.676623 131.383672 
L 178.452081 129.994623 
L 178.157146 128.605573 
L 177.786654 127.216523 
L 177.339501 125.827474 
L 176.820276 124.438424 
L 176.24055 123.049374 
L 175.619537 121.660324 
L 174.983832 120.271275 
L 174.366056 118.882225 
L 173.802403 117.493175 
L 173.329309 116.104126 
L 172.979639 114.715076 
L 172.778956 113.326026 
L 172.742458 111.936977 
L 172.873098 110.547927 
L 173.16122 109.158877 
L 173.585776 107.769827 
L 174.116899 106.380778 
L 174.71941 104.991728 
L 175.356679 103.602678 
L 175.994241 102.213629 
L 176.602718 100.824579 
L 177.159695 99.435529 
L 177.650503 98.04648 
L 178.067963 96.65743 
L 178.411372 95.26838 
L 178.685001 93.87933 
L 178.896445 92.490281 
L 179.055058 91.101231 
L 179.170655 89.712181 
L 179.25256 88.323132 
L 179.309011 86.934082 
L 179.346869 85.545032 
L 179.371571 84.155983 
L 179.387231 82.766933 
L 179.396824 81.377883 
L 179.402392 79.988833 
L 179.405237 78.599784 
L 179.406069 77.210734 
L 179.405094 75.821684 
L 179.402054 74.432635 
L 179.396193 73.043585 
L 179.386189 71.654535 
L 179.370038 70.265486 
L 179.344941 68.876436 
L 179.307213 67.487386 
L 179.252274 66.098336 
L 179.174775 64.709287 
L 179.06892 63.320237 
L 178.929012 61.931187 
L 178.750243 60.542138 
L 178.529669 59.153088 
L 178.267265 57.764038 
L 177.966892 56.374989 
L 177.636972 54.985939 
L 177.290651 53.596889 
L 176.945303 52.207839 
L 176.6213 50.81879 
L 176.340138 49.42974 
L 176.12212 48.04069 
L 175.983947 46.651641 
L 175.936612 45.262591 
L 182.885206 45.262591 
L 182.885206 45.262591 
L 182.837871 46.651641 
L 182.699698 48.04069 
L 182.48168 49.42974 
L 182.200518 50.81879 
L 181.876515 52.207839 
L 181.531167 53.596889 
L 181.184846 54.985939 
L 180.854926 56.374989 
L 180.554553 57.764038 
L 180.292149 59.153088 
L 180.071575 60.542138 
L 179.892806 61.931187 
L 179.752898 63.320237 
L 179.647043 64.709287 
L 179.569544 66.098336 
L 179.514605 67.487386 
L 179.476877 68.876436 
L 179.45178 70.265486 
L 179.43563 71.654535 
L 179.425625 73.043585 
L 179.419764 74.432635 
L 179.416724 75.821684 
L 179.415749 77.210734 
L 179.416581 78.599784 
L 179.419426 79.988833 
L 179.424995 81.377883 
L 179.434587 82.766933 
L 179.450247 84.155983 
L 179.47495 85.545032 
L 179.512808 86.934082 
L 179.569258 88.323132 
L 179.651163 89.712181 
L 179.76676 91.101231 
L 179.925373 92.490281 
L 180.136817 93.87933 
L 180.410446 95.26838 
L 180.753855 96.65743 
L 181.171315 98.04648 
L 181.662123 99.435529 
L 182.219101 100.824579 
L 182.827577 102.213629 
L 183.46514 103.602678 
L 184.102408 104.991728 
L 184.70492 106.380778 
L 185.236042 107.769827 
L 185.660598 109.158877 
L 185.94872 110.547927 
L 186.07936 111.936977 
L 186.042862 113.326026 
L 185.842179 114.715076 
L 185.492509 116.104126 
L 185.019415 117.493175 
L 184.455762 118.882225 
L 183.837986 120.271275 
L 183.202281 121.660324 
L 182.581268 123.049374 
L 182.001542 124.438424 
L 181.482317 125.827474 
L 181.035165 127.216523 
L 180.664672 128.605573 
L 180.369737 129.994623 
L 180.145195 131.383672 
L 179.983473 132.772722 
L 179.876077 134.161772 
L 179.814762 135.550822 
L 179.792364 136.939871 
L 179.803289 138.328921 
L 179.843735 139.717971 
L 179.91171 141.10702 
L 180.006908 142.49607 
L 180.130508 143.88512 
L 180.28491 145.274169 
L 180.47344 146.663219 
L 180.700028 148.052269 
L 180.968863 149.441319 
L 181.284046 150.830368 
L 181.649264 152.219418 
L 182.067538 153.608468 
L 182.541084 154.997517 
L 183.071355 156.386567 
L 183.659275 157.775617 
L 184.305675 159.164666 
L 185.011825 160.553716 
L 185.779916 161.942766 
L 186.61325 163.331816 
L 187.515887 164.720865 
L 188.491493 166.109915 
L 189.541305 167.498965 
L 190.661291 168.888014 
L 191.838886 170.277064 
L 193.049933 171.666114 
L 194.256632 173.055163 
L 195.407319 174.444213 
L 196.438702 175.833263 
L 197.280741 177.222313 
L 197.86382 178.611362 
L 198.127273 180.000412 
L 198.027896 181.389462 
L 197.546902 182.778511 
z
" clip-path="url(#pcc4eb2afca)" style="fill: #1f77b4; fill-opacity: 0.3"/>
   </g>
   <g id="PolyCollection_3">
    <path d="M 254.374229 236.86575 
L 254.178498 236.86575 
L 254.152679 234.887515 
L 254.123863 232.909279 
L 254.091889 230.931044 
L 254.056321 228.952809 
L 254.016525 226.974573 
L 253.971797 224.996338 
L 253.921461 223.018103 
L 253.864815 221.039868 
L 253.800837 219.061632 
L 253.727567 217.083397 
L 253.641032 215.105162 
L 253.533552 213.126926 
L 253.391266 211.148691 
L 253.190902 209.170456 
L 252.896343 207.19222 
L 252.456297 205.213985 
L 251.805278 203.23575 
L 250.870501 201.257514 
L 249.58661 199.279279 
L 247.917868 197.301044 
L 245.883711 195.322809 
L 243.579632 193.344573 
L 241.183315 191.366338 
L 238.937884 189.388103 
L 237.110813 187.409867 
L 235.936633 185.431632 
L 235.56 183.453397 
L 235.998397 181.475161 
L 237.138231 179.496926 
L 238.766204 177.518691 
L 240.624766 175.540455 
L 242.472357 173.56222 
L 244.129498 171.583985 
L 245.499614 169.60575 
L 246.564222 167.627514 
L 247.360712 165.649279 
L 247.954231 163.671044 
L 248.413338 161.692808 
L 248.79449 159.714573 
L 249.135791 157.736338 
L 249.457587 155.758102 
L 249.766685 153.779867 
L 250.061575 151.801632 
L 250.337135 149.823396 
L 250.588155 147.845161 
L 250.811583 145.866926 
L 251.007546 143.888691 
L 251.179292 141.910455 
L 251.33226 139.93222 
L 251.472617 137.953985 
L 251.605713 135.975749 
L 251.73491 133.997514 
L 251.861118 132.019279 
L 251.983123 130.041043 
L 252.098561 128.062808 
L 252.205197 126.084573 
L 252.302141 124.106337 
L 252.39068 122.128102 
L 252.474482 120.149867 
L 252.559089 118.171632 
L 252.650729 116.193396 
L 252.754702 114.215161 
L 252.873736 112.236926 
L 253.006835 110.25869 
L 253.149002 108.280455 
L 253.292035 106.30222 
L 253.426183 104.323984 
L 253.542194 102.345749 
L 253.633151 100.367514 
L 253.695612 98.389278 
L 253.729809 96.411043 
L 253.739013 94.432808 
L 253.728363 92.454573 
L 253.703616 90.476337 
L 253.670179 88.498102 
L 253.632659 86.519867 
L 253.594928 84.541631 
L 253.560496 82.563396 
L 253.532902 80.585161 
L 253.51582 78.606925 
L 253.512738 76.62869 
L 253.526272 74.650455 
L 253.557283 72.672219 
L 253.60406 70.693984 
L 253.661723 68.715749 
L 253.721922 66.737514 
L 253.772845 64.759278 
L 253.799612 62.781043 
L 253.78529 60.802808 
L 253.712926 58.824572 
L 253.568888 56.846337 
L 253.34738 54.868102 
L 253.055226 52.889866 
L 252.715177 50.911631 
L 252.365695 48.933396 
L 252.055849 46.95516 
L 251.835623 44.976925 
L 251.744031 42.99869 
L 251.798927 41.020455 
L 256.7538 41.020455 
L 256.7538 41.020455 
L 256.808696 42.99869 
L 256.717104 44.976925 
L 256.496878 46.95516 
L 256.187033 48.933396 
L 255.83755 50.911631 
L 255.497501 52.889866 
L 255.205348 54.868102 
L 254.98384 56.846337 
L 254.839801 58.824572 
L 254.767437 60.802808 
L 254.753115 62.781043 
L 254.779882 64.759278 
L 254.830806 66.737514 
L 254.891005 68.715749 
L 254.948667 70.693984 
L 254.995444 72.672219 
L 255.026455 74.650455 
L 255.039989 76.62869 
L 255.036907 78.606925 
L 255.019825 80.585161 
L 254.992232 82.563396 
L 254.9578 84.541631 
L 254.920068 86.519867 
L 254.882549 88.498102 
L 254.849112 90.476337 
L 254.824365 92.454573 
L 254.813715 94.432808 
L 254.822918 96.411043 
L 254.857115 98.389278 
L 254.919576 100.367514 
L 255.010533 102.345749 
L 255.126544 104.323984 
L 255.260692 106.30222 
L 255.403726 108.280455 
L 255.545893 110.25869 
L 255.678991 112.236926 
L 255.798026 114.215161 
L 255.901998 116.193396 
L 255.993638 118.171632 
L 256.078245 120.149867 
L 256.162048 122.128102 
L 256.250586 124.106337 
L 256.34753 126.084573 
L 256.454166 128.062808 
L 256.569604 130.041043 
L 256.69161 132.019279 
L 256.817817 133.997514 
L 256.947014 135.975749 
L 257.08011 137.953985 
L 257.220467 139.93222 
L 257.373435 141.910455 
L 257.545181 143.888691 
L 257.741145 145.866926 
L 257.964572 147.845161 
L 258.215592 149.823396 
L 258.491152 151.801632 
L 258.786043 153.779867 
L 259.09514 155.758102 
L 259.416936 157.736338 
L 259.758237 159.714573 
L 260.139389 161.692808 
L 260.598496 163.671044 
L 261.192015 165.649279 
L 261.988505 167.627514 
L 263.053113 169.60575 
L 264.423229 171.583985 
L 266.08037 173.56222 
L 267.927961 175.540455 
L 269.786524 177.518691 
L 271.414497 179.496926 
L 272.55433 181.475161 
L 272.992727 183.453397 
L 272.616094 185.431632 
L 271.441914 187.409867 
L 269.614844 189.388103 
L 267.369413 191.366338 
L 264.973095 193.344573 
L 262.669017 195.322809 
L 260.634859 197.301044 
L 258.966117 199.279279 
L 257.682226 201.257514 
L 256.747449 203.23575 
L 256.096431 205.213985 
L 255.656384 207.19222 
L 255.361825 209.170456 
L 255.161462 211.148691 
L 255.019175 213.126926 
L 254.911695 215.105162 
L 254.82516 217.083397 
L 254.75189 219.061632 
L 254.687912 221.039868 
L 254.631266 223.018103 
L 254.580931 224.996338 
L 254.536203 226.974573 
L 254.496406 228.952809 
L 254.460838 230.931044 
L 254.428864 232.909279 
L 254.400048 234.887515 
L 254.374229 236.86575 
z
" clip-path="url(#pcc4eb2afca)" style="fill: #1f77b4; fill-opacity: 0.3"/>
   </g>
   <g id="PolyCollection_4">
    <path d="M 347.224615 253.127273 
L 311.059022 253.127273 
L 310.929852 251.698944 
L 311.135232 250.270615 
L 311.659409 248.842287 
L 312.468832 247.413958 
L 313.515335 245.985629 
L 314.740569 244.5573 
L 316.081084 243.128972 
L 317.473493 241.700643 
L 318.859106 240.272314 
L 320.187621 238.843985 
L 321.419569 237.415657 
L 322.527423 235.987328 
L 323.495477 234.558999 
L 324.318696 233.13067 
L 325.000861 231.702342 
L 325.552326 230.274013 
L 325.987713 228.845684 
L 326.323776 227.417355 
L 326.577612 225.989027 
L 326.765286 224.560698 
L 326.900903 223.132369 
L 326.996047 221.70404 
L 327.059537 220.275712 
L 327.097375 218.847383 
L 327.112815 217.419054 
L 327.106462 215.990725 
L 327.076357 214.562397 
L 327.018024 213.134068 
L 326.924501 211.705739 
L 326.786373 210.27741 
L 326.591899 208.849082 
L 326.327295 207.420753 
L 325.977268 205.992424 
L 325.525872 204.564096 
L 324.95773 203.135767 
L 324.259631 201.707438 
L 323.422413 200.279109 
L 322.443024 198.850781 
L 321.326519 197.422452 
L 320.087756 195.994123 
L 318.752479 194.565794 
L 317.357517 193.137466 
L 315.949894 191.709137 
L 314.584745 190.280808 
L 313.322097 188.852479 
L 312.22273 187.424151 
L 311.343504 185.995822 
L 310.732632 184.567493 
L 310.425455 183.139164 
L 310.441218 181.710836 
L 310.78128 180.282507 
L 311.428956 178.854178 
L 312.351046 177.425849 
L 313.500828 175.997521 
L 314.82215 174.569192 
L 316.254119 173.140863 
L 317.735837 171.712534 
L 319.210681 170.284206 
L 320.629727 168.855877 
L 321.954051 167.427548 
L 323.155851 165.999219 
L 324.218422 164.570891 
L 325.135204 163.142562 
L 325.90815 161.714233 
L 326.545706 160.285904 
L 327.060677 158.857576 
L 327.468188 157.429247 
L 327.783907 156.000918 
L 328.022591 154.57259 
L 328.197001 153.144261 
L 328.31714 151.715932 
L 328.38978 150.287603 
L 328.418213 148.859275 
L 328.402184 147.430946 
L 328.337974 146.002617 
L 328.21864 144.574288 
L 328.034409 143.14596 
L 327.773279 141.717631 
L 327.421862 140.289302 
L 326.966478 138.860973 
L 326.39452 137.432645 
L 325.696043 136.004316 
L 324.865484 134.575987 
L 323.903376 133.147658 
L 322.817872 131.71933 
L 321.625874 130.291001 
L 320.353556 128.862672 
L 319.036106 127.434343 
L 317.716593 126.006015 
L 316.443929 124.577686 
L 315.270052 123.149357 
L 314.246519 121.721028 
L 313.420821 120.2927 
L 312.832798 118.864371 
L 312.511505 117.436042 
L 312.472901 116.007713 
L 312.718585 114.579385 
L 313.235741 113.151056 
L 313.998269 111.722727 
L 344.285367 111.722727 
L 344.285367 111.722727 
L 345.047896 113.151056 
L 345.565051 114.579385 
L 345.810735 116.007713 
L 345.772131 117.436042 
L 345.450839 118.864371 
L 344.862815 120.2927 
L 344.037118 121.721028 
L 343.013584 123.149357 
L 341.839708 124.577686 
L 340.567044 126.006015 
L 339.24753 127.434343 
L 337.93008 128.862672 
L 336.657762 130.291001 
L 335.465765 131.71933 
L 334.380261 133.147658 
L 333.418152 134.575987 
L 332.587593 136.004316 
L 331.889117 137.432645 
L 331.317159 138.860973 
L 330.861774 140.289302 
L 330.510357 141.717631 
L 330.249228 143.14596 
L 330.064996 144.574288 
L 329.945662 146.002617 
L 329.881453 147.430946 
L 329.865423 148.859275 
L 329.893856 150.287603 
L 329.966496 151.715932 
L 330.086635 153.144261 
L 330.261045 154.57259 
L 330.499729 156.000918 
L 330.815448 157.429247 
L 331.22296 158.857576 
L 331.73793 160.285904 
L 332.375487 161.714233 
L 333.148432 163.142562 
L 334.065214 164.570891 
L 335.127785 165.999219 
L 336.329585 167.427548 
L 337.65391 168.855877 
L 339.072955 170.284206 
L 340.5478 171.712534 
L 342.029518 173.140863 
L 343.461486 174.569192 
L 344.782808 175.997521 
L 345.93259 177.425849 
L 346.85468 178.854178 
L 347.502357 180.282507 
L 347.842418 181.710836 
L 347.858182 183.139164 
L 347.551004 184.567493 
L 346.940132 185.995822 
L 346.060907 187.424151 
L 344.96154 188.852479 
L 343.698891 190.280808 
L 342.333743 191.709137 
L 340.92612 193.137466 
L 339.531158 194.565794 
L 338.195881 195.994123 
L 336.957118 197.422452 
L 335.840613 198.850781 
L 334.861223 200.279109 
L 334.024005 201.707438 
L 333.325906 203.135767 
L 332.757765 204.564096 
L 332.306368 205.992424 
L 331.956342 207.420753 
L 331.691738 208.849082 
L 331.497264 210.27741 
L 331.359135 211.705739 
L 331.265612 213.134068 
L 331.20728 214.562397 
L 331.177174 215.990725 
L 331.170821 217.419054 
L 331.186262 218.847383 
L 331.2241 220.275712 
L 331.287589 221.70404 
L 331.382734 223.132369 
L 331.51835 224.560698 
L 331.706025 225.989027 
L 331.95986 227.417355 
L 332.295924 228.845684 
L 332.731311 230.274013 
L 333.282775 231.702342 
L 333.96494 233.13067 
L 334.78816 234.558999 
L 335.756214 235.987328 
L 336.864068 237.415657 
L 338.096015 238.843985 
L 339.424531 240.272314 
L 340.810144 241.700643 
L 342.202552 243.128972 
L 343.543068 244.5573 
L 344.768301 245.985629 
L 345.814805 247.413958 
L 346.624227 248.842287 
L 347.148405 250.270615 
L 347.353784 251.698944 
L 347.224615 253.127273 
z
" clip-path="url(#pcc4eb2afca)" style="fill: #1f77b4; fill-opacity: 0.3"/>
   </g>
   <g id="PolyCollection_5">
    <path d="M 413.523967 264.793148 
L 394.490578 264.793148 
L 392.851051 263.132716 
L 391.215954 261.472283 
L 389.66192 259.811851 
L 388.269511 258.151419 
L 387.116151 256.490987 
L 386.268708 254.830555 
L 385.776698 253.170123 
L 385.66709 251.50969 
L 385.941479 249.849258 
L 386.576046 248.188826 
L 387.524303 246.528394 
L 388.722204 244.867962 
L 390.094846 243.20753 
L 391.563805 241.547097 
L 393.054122 239.886665 
L 394.500103 238.226233 
L 395.849368 236.565801 
L 397.064907 234.905369 
L 398.125218 233.244937 
L 399.022858 231.584504 
L 399.7619 229.924072 
L 400.354806 228.26364 
L 400.819222 226.603208 
L 401.175046 224.942776 
L 401.442009 223.282344 
L 401.637841 221.621912 
L 401.77699 219.961479 
L 401.869808 218.301047 
L 401.922039 216.640615 
L 401.934517 214.980183 
L 401.902981 213.319751 
L 401.81802 211.659319 
L 401.665191 209.998886 
L 401.425476 208.338454 
L 401.07624 206.678022 
L 400.592868 205.01759 
L 399.95122 203.357158 
L 399.130887 201.696726 
L 398.119103 200.036293 
L 396.914906 198.375861 
L 395.533004 196.715429 
L 394.006594 195.054997 
L 392.388422 193.394565 
L 390.749464 191.734133 
L 389.174911 190.0737 
L 387.757587 188.413268 
L 386.58941 186.752836 
L 385.751922 185.092404 
L 385.307255 183.431972 
L 385.290909 181.77154 
L 385.707499 180.111107 
L 386.530206 178.450675 
L 387.703991 176.790243 
L 389.152067 175.129811 
L 390.784539 173.469379 
L 392.507878 171.808947 
L 394.233842 170.148514 
L 395.886689 168.488082 
L 397.407925 166.82765 
L 398.758354 165.167218 
L 399.917595 163.506786 
L 400.881634 161.846354 
L 401.6591 160.185921 
L 402.267031 158.525489 
L 402.726725 156.865057 
L 403.060146 155.204625 
L 403.287097 153.544193 
L 403.423242 151.883761 
L 403.478896 150.223329 
L 403.458482 148.562896 
L 403.360519 146.902464 
L 403.178072 145.242032 
L 402.899615 143.5816 
L 402.510333 141.921168 
L 401.993863 140.260736 
L 401.3345 138.600303 
L 400.519783 136.939871 
L 399.543324 135.279439 
L 398.407618 133.619007 
L 397.126487 131.958575 
L 395.726756 130.298143 
L 394.248781 128.63771 
L 392.745515 126.977278 
L 391.279982 125.316846 
L 389.921239 123.656414 
L 388.739138 121.995982 
L 387.798439 120.33555 
L 387.152955 118.675117 
L 386.840474 117.014685 
L 386.879123 115.354253 
L 387.265658 113.693821 
L 387.975902 112.033389 
L 388.967256 110.372957 
L 390.182911 108.712524 
L 391.557191 107.052092 
L 393.021341 105.39166 
L 394.50905 103.731228 
L 395.961136 102.070796 
L 397.328964 100.410364 
L 410.685581 100.410364 
L 410.685581 100.410364 
L 412.053409 102.070796 
L 413.505496 103.731228 
L 414.993205 105.39166 
L 416.457354 107.052092 
L 417.831635 108.712524 
L 419.047289 110.372957 
L 420.038644 112.033389 
L 420.748888 113.693821 
L 421.135422 115.354253 
L 421.174071 117.014685 
L 420.86159 118.675117 
L 420.216106 120.33555 
L 419.275407 121.995982 
L 418.093306 123.656414 
L 416.734564 125.316846 
L 415.269031 126.977278 
L 413.765765 128.63771 
L 412.287789 130.298143 
L 410.888059 131.958575 
L 409.606927 133.619007 
L 408.471222 135.279439 
L 407.494763 136.939871 
L 406.680046 138.600303 
L 406.020683 140.260736 
L 405.504213 141.921168 
L 405.11493 143.5816 
L 404.836474 145.242032 
L 404.654027 146.902464 
L 404.556064 148.562896 
L 404.53565 150.223329 
L 404.591304 151.883761 
L 404.727448 153.544193 
L 404.954399 155.204625 
L 405.28782 156.865057 
L 405.747514 158.525489 
L 406.355445 160.185921 
L 407.132912 161.846354 
L 408.09695 163.506786 
L 409.256192 165.167218 
L 410.60662 166.82765 
L 412.127857 168.488082 
L 413.780703 170.148514 
L 415.506668 171.808947 
L 417.230007 173.469379 
L 418.862478 175.129811 
L 420.310554 176.790243 
L 421.48434 178.450675 
L 422.307046 180.111107 
L 422.723636 181.77154 
L 422.70729 183.431972 
L 422.262624 185.092404 
L 421.425136 186.752836 
L 420.256958 188.413268 
L 418.839635 190.0737 
L 417.265081 191.734133 
L 415.626123 193.394565 
L 414.007952 195.054997 
L 412.481542 196.715429 
L 411.099639 198.375861 
L 409.895443 200.036293 
L 408.883658 201.696726 
L 408.063326 203.357158 
L 407.421678 205.01759 
L 406.938306 206.678022 
L 406.58907 208.338454 
L 406.349355 209.998886 
L 406.196526 211.659319 
L 406.111564 213.319751 
L 406.080029 214.980183 
L 406.092506 216.640615 
L 406.144737 218.301047 
L 406.237555 219.961479 
L 406.376705 221.621912 
L 406.572536 223.282344 
L 406.8395 224.942776 
L 407.195324 226.603208 
L 407.659739 228.26364 
L 408.252645 229.924072 
L 408.991687 231.584504 
L 409.889328 233.244937 
L 410.949638 234.905369 
L 412.165177 236.565801 
L 413.514442 238.226233 
L 414.960423 239.886665 
L 416.45074 241.547097 
L 417.9197 243.20753 
L 419.292341 244.867962 
L 420.490242 246.528394 
L 421.438499 248.188826 
L 422.073066 249.849258 
L 422.347456 251.50969 
L 422.237848 253.170123 
L 421.745837 254.830555 
L 420.898394 256.490987 
L 419.745034 258.151419 
L 418.352625 259.811851 
L 416.798592 261.472283 
L 415.163495 263.132716 
L 413.523967 264.793148 
z
" clip-path="url(#pcc4eb2afca)" style="fill: #1f77b4; fill-opacity: 0.3"/>
   </g>
   <g id="PolyCollection_6">
    <path d="M 483.03472 321.354966 
L 474.710734 321.354966 
L 474.688224 318.544729 
L 474.850953 315.734492 
L 475.177639 312.924256 
L 475.627326 310.114019 
L 476.1478 307.303782 
L 476.685472 304.493545 
L 477.19415 301.683308 
L 477.640794 298.873072 
L 478.007494 296.062835 
L 478.290068 293.252598 
L 478.494478 290.442361 
L 478.632476 287.632124 
L 478.71767 284.821888 
L 478.762717 282.011651 
L 478.777843 279.201414 
L 478.770525 276.391177 
L 478.745981 273.58094 
L 478.708064 270.770704 
L 478.660232 267.960467 
L 478.606295 265.15023 
L 478.550808 262.339993 
L 478.498999 259.529756 
L 478.456285 256.71952 
L 478.427514 253.909283 
L 478.416138 251.099046 
L 478.423559 248.288809 
L 478.448838 245.478572 
L 478.488828 242.668336 
L 478.538683 239.858099 
L 478.592519 237.047862 
L 478.643959 234.237625 
L 478.686255 231.427388 
L 478.711753 228.617152 
L 478.710571 225.806915 
L 478.668552 222.996678 
L 478.564792 220.186441 
L 478.369349 217.376204 
L 478.042074 214.565968 
L 477.53374 211.755731 
L 476.790606 208.945494 
L 475.763029 206.135257 
L 474.417684 203.32502 
L 472.751446 200.514784 
L 470.80357 197.704547 
L 468.662098 194.89431 
L 466.460962 192.084073 
L 464.366339 189.273836 
L 462.553875 186.4636 
L 461.181462 183.653363 
L 460.364002 180.843126 
L 460.156364 178.032889 
L 460.54831 175.222652 
L 461.471653 172.412416 
L 462.816531 169.602179 
L 464.451728 166.791942 
L 466.243924 163.981705 
L 468.072217 161.171468 
L 469.836462 158.361232 
L 471.459864 155.550995 
L 472.887417 152.740758 
L 474.082051 149.930521 
L 475.020178 147.120284 
L 475.687892 144.310048 
L 476.078792 141.499811 
L 476.193991 138.689574 
L 476.044441 135.879337 
L 475.654956 133.0691 
L 475.068492 130.258864 
L 474.348633 127.448627 
L 473.578169 124.63839 
L 472.852435 121.828153 
L 472.26765 119.017916 
L 471.906305 116.20768 
L 471.82309 113.397443 
L 472.035206 110.587206 
L 472.519935 107.776969 
L 473.220267 104.966732 
L 474.057069 102.156496 
L 474.944437 99.346259 
L 475.804271 96.536022 
L 476.576807 93.725785 
L 477.225397 90.915548 
L 477.735652 88.105312 
L 478.110443 85.295075 
L 478.362893 82.484838 
L 478.509388 79.674601 
L 478.564108 76.864364 
L 478.535866 74.054128 
L 478.427488 71.243891 
L 478.237551 68.433654 
L 477.963996 65.623417 
L 477.608825 62.81318 
L 477.182797 60.002944 
L 476.708757 57.192707 
L 476.22234 54.38247 
L 475.76917 51.572233 
L 475.398631 48.761996 
L 475.155363 45.95176 
L 475.070546 43.141523 
L 482.674909 43.141523 
L 482.674909 43.141523 
L 482.590091 45.95176 
L 482.346823 48.761996 
L 481.976285 51.572233 
L 481.523114 54.38247 
L 481.036697 57.192707 
L 480.562658 60.002944 
L 480.136629 62.81318 
L 479.781459 65.623417 
L 479.507903 68.433654 
L 479.317967 71.243891 
L 479.209589 74.054128 
L 479.181347 76.864364 
L 479.236067 79.674601 
L 479.382561 82.484838 
L 479.635011 85.295075 
L 480.009803 88.105312 
L 480.520058 90.915548 
L 481.168648 93.725785 
L 481.941184 96.536022 
L 482.801018 99.346259 
L 483.688385 102.156496 
L 484.525187 104.966732 
L 485.225519 107.776969 
L 485.710248 110.587206 
L 485.922365 113.397443 
L 485.839149 116.20768 
L 485.477804 119.017916 
L 484.89302 121.828153 
L 484.167286 124.63839 
L 483.396821 127.448627 
L 482.676962 130.258864 
L 482.090498 133.0691 
L 481.701013 135.879337 
L 481.551464 138.689574 
L 481.666663 141.499811 
L 482.057562 144.310048 
L 482.725277 147.120284 
L 483.663403 149.930521 
L 484.858038 152.740758 
L 486.28559 155.550995 
L 487.908993 158.361232 
L 489.673238 161.171468 
L 491.501531 163.981705 
L 493.293727 166.791942 
L 494.928924 169.602179 
L 496.273801 172.412416 
L 497.197145 175.222652 
L 497.589091 178.032889 
L 497.381452 180.843126 
L 496.563992 183.653363 
L 495.191579 186.4636 
L 493.379116 189.273836 
L 491.284492 192.084073 
L 489.083356 194.89431 
L 486.941885 197.704547 
L 484.994009 200.514784 
L 483.32777 203.32502 
L 481.982426 206.135257 
L 480.954849 208.945494 
L 480.211714 211.755731 
L 479.703381 214.565968 
L 479.376106 217.376204 
L 479.180663 220.186441 
L 479.076903 222.996678 
L 479.034884 225.806915 
L 479.033702 228.617152 
L 479.0592 231.427388 
L 479.101496 234.237625 
L 479.152935 237.047862 
L 479.206771 239.858099 
L 479.256626 242.668336 
L 479.296617 245.478572 
L 479.321895 248.288809 
L 479.329317 251.099046 
L 479.317941 253.909283 
L 479.28917 256.71952 
L 479.246456 259.529756 
L 479.194646 262.339993 
L 479.13916 265.15023 
L 479.085223 267.960467 
L 479.03739 270.770704 
L 478.999474 273.58094 
L 478.974929 276.391177 
L 478.967611 279.201414 
L 478.982737 282.011651 
L 479.027784 284.821888 
L 479.112979 287.632124 
L 479.250977 290.442361 
L 479.455387 293.252598 
L 479.737961 296.062835 
L 480.10466 298.873072 
L 480.551305 301.683308 
L 481.059983 304.493545 
L 481.597655 307.303782 
L 482.118128 310.114019 
L 482.567815 312.924256 
L 482.894502 315.734492 
L 483.05723 318.544729 
L 483.03472 321.354966 
z
" clip-path="url(#pcc4eb2afca)" style="fill: #1f77b4; fill-opacity: 0.3"/>
   </g>
   <g id="PolyCollection_7">
    <path d="M 571.672688 182.425 
L 535.803676 182.425 
L 535.218613 180.996671 
L 535.021818 179.568343 
L 535.201992 178.140014 
L 535.721334 176.711685 
L 536.522006 175.283356 
L 537.534611 173.855028 
L 538.687082 172.426699 
L 539.912495 170.99837 
L 541.154692 169.570041 
L 542.371212 168.141713 
L 543.53361 166.713384 
L 544.625746 165.285055 
L 545.640851 163.856726 
L 546.57825 162.428398 
L 547.440413 161.000069 
L 548.230774 159.57174 
L 548.952453 158.143411 
L 549.607792 156.715083 
L 550.198473 155.286754 
L 550.725946 153.858425 
L 551.191922 152.430096 
L 551.598754 151.001768 
L 551.949624 149.573439 
L 552.248518 148.14511 
L 552.50002 146.716781 
L 552.708977 145.288453 
L 552.880102 143.860124 
L 553.017554 142.431795 
L 553.124526 141.003466 
L 553.202872 139.575138 
L 553.252789 138.146809 
L 553.272567 136.71848 
L 553.258458 135.290152 
L 553.204714 133.861823 
L 553.10385 132.433494 
L 552.947212 131.005165 
L 552.725904 129.576837 
L 552.432084 128.148508 
L 552.060561 126.720179 
L 551.610561 125.29185 
L 551.087413 123.863522 
L 550.503848 122.435193 
L 549.880571 121.006864 
L 549.245832 119.578535 
L 548.633826 118.150207 
L 548.08196 116.721878 
L 547.627253 115.293549 
L 547.30233 113.86522 
L 547.13161 112.436892 
L 547.128322 111.008563 
L 547.292857 109.580234 
L 547.612745 108.151905 
L 548.064268 106.723577 
L 548.615409 105.295248 
L 549.229642 103.866919 
L 549.869926 102.43859 
L 550.502314 101.010262 
L 551.098705 99.581933 
L 551.638474 98.153604 
L 552.108949 96.725275 
L 552.504889 95.296947 
L 552.827242 93.868618 
L 553.081523 92.440289 
L 553.276113 91.011961 
L 553.420726 89.583632 
L 553.52519 88.155303 
L 553.598595 86.726974 
L 553.648804 85.298646 
L 553.682253 83.870317 
L 553.703961 82.441988 
L 553.717682 81.013659 
L 553.726106 79.585331 
L 553.731081 78.157002 
L 553.733807 76.728673 
L 553.734986 75.300344 
L 553.734926 73.872016 
L 553.733584 72.443687 
L 553.730565 71.015358 
L 553.72506 69.587029 
L 553.715748 68.158701 
L 553.700666 66.730372 
L 553.67707 65.302043 
L 553.641327 63.873714 
L 553.588886 62.445386 
L 553.514381 61.017057 
L 553.411926 59.588728 
L 553.275664 58.160399 
L 553.100544 56.732071 
L 552.883323 55.303742 
L 552.623659 53.875413 
L 552.325132 52.447084 
L 551.995972 51.018756 
L 551.649282 49.590427 
L 551.302564 48.162098 
L 550.976492 46.73377 
L 550.692989 45.305441 
L 550.472836 43.877112 
L 550.333177 42.448783 
L 550.285309 41.020455 
L 557.191055 41.020455 
L 557.191055 41.020455 
L 557.143187 42.448783 
L 557.003528 43.877112 
L 556.783375 45.305441 
L 556.499871 46.73377 
L 556.173799 48.162098 
L 555.827082 49.590427 
L 555.480391 51.018756 
L 555.151232 52.447084 
L 554.852704 53.875413 
L 554.593041 55.303742 
L 554.37582 56.732071 
L 554.2007 58.160399 
L 554.064437 59.588728 
L 553.961983 61.017057 
L 553.887477 62.445386 
L 553.835037 63.873714 
L 553.799294 65.302043 
L 553.775698 66.730372 
L 553.760615 68.158701 
L 553.751303 69.587029 
L 553.745798 71.015358 
L 553.742779 72.443687 
L 553.741438 73.872016 
L 553.741377 75.300344 
L 553.742557 76.728673 
L 553.745282 78.157002 
L 553.750258 79.585331 
L 553.758682 81.013659 
L 553.772402 82.441988 
L 553.794111 83.870317 
L 553.827559 85.298646 
L 553.877769 86.726974 
L 553.951174 88.155303 
L 554.055637 89.583632 
L 554.20025 91.011961 
L 554.394841 92.440289 
L 554.649122 93.868618 
L 554.971475 95.296947 
L 555.367415 96.725275 
L 555.837889 98.153604 
L 556.377658 99.581933 
L 556.974049 101.010262 
L 557.606438 102.43859 
L 558.246721 103.866919 
L 558.860954 105.295248 
L 559.412096 106.723577 
L 559.863618 108.151905 
L 560.183507 109.580234 
L 560.348042 111.008563 
L 560.344754 112.436892 
L 560.174034 113.86522 
L 559.84911 115.293549 
L 559.394404 116.721878 
L 558.842538 118.150207 
L 558.230531 119.578535 
L 557.595793 121.006864 
L 556.972516 122.435193 
L 556.388951 123.863522 
L 555.865803 125.29185 
L 555.415803 126.720179 
L 555.044279 128.148508 
L 554.750459 129.576837 
L 554.529152 131.005165 
L 554.372514 132.433494 
L 554.271649 133.861823 
L 554.217906 135.290152 
L 554.203797 136.71848 
L 554.223574 138.146809 
L 554.273491 139.575138 
L 554.351838 141.003466 
L 554.45881 142.431795 
L 554.596262 143.860124 
L 554.767387 145.288453 
L 554.976344 146.716781 
L 555.227845 148.14511 
L 555.52674 149.573439 
L 555.87761 151.001768 
L 556.284442 152.430096 
L 556.750417 153.858425 
L 557.277891 155.286754 
L 557.868571 156.715083 
L 558.52391 158.143411 
L 559.24559 159.57174 
L 560.035951 161.000069 
L 560.898114 162.428398 
L 561.835513 163.856726 
L 562.850618 165.285055 
L 563.942753 166.713384 
L 565.105152 168.141713 
L 566.321671 169.570041 
L 567.563869 170.99837 
L 568.789282 172.426699 
L 569.941753 173.855028 
L 570.954358 175.283356 
L 571.75503 176.711685 
L 572.274372 178.140014 
L 572.454545 179.568343 
L 572.257751 180.996671 
L 571.672688 182.425 
z
" clip-path="url(#pcc4eb2afca)" style="fill: #1f77b4; fill-opacity: 0.3"/>
   </g>
   <g id="PolyCollection_8">
    <path d="M 628.624525 267.267727 
L 628.582748 267.267727 
L 628.57673 266.296464 
L 628.566615 265.3252 
L 628.549453 264.353937 
L 628.520852 263.382673 
L 628.474541 262.41141 
L 628.401896 261.440146 
L 628.291525 260.468882 
L 628.129045 259.497619 
L 627.897288 258.526355 
L 627.577198 257.555092 
L 627.149687 256.583828 
L 626.598598 255.612565 
L 625.91469 254.641301 
L 625.100171 253.670038 
L 624.172911 252.698774 
L 623.169162 251.727511 
L 622.143569 250.756247 
L 621.165604 249.784983 
L 620.312312 248.81372 
L 619.658242 247.842456 
L 619.264347 246.871193 
L 619.168201 245.899929 
L 619.377762 244.928666 
L 619.870156 243.957402 
L 620.595745 242.986139 
L 621.486449 242.014875 
L 622.466349 241.043612 
L 623.462236 240.072348 
L 624.412098 239.101084 
L 625.270297 238.129821 
L 626.009189 237.158557 
L 626.617713 236.187294 
L 627.098022 235.21603 
L 627.46129 234.244767 
L 627.723672 233.273503 
L 627.903018 232.30224 
L 628.016574 231.330976 
L 628.079622 230.359713 
L 628.104852 229.388449 
L 628.102223 228.417185 
L 628.079104 227.445922 
L 628.040556 226.474658 
L 627.989697 225.503395 
L 627.928117 224.532131 
L 627.856315 223.560868 
L 627.774134 222.589604 
L 627.681113 221.618341 
L 627.576686 220.647077 
L 627.460171 219.675814 
L 627.330537 218.70455 
L 627.185994 217.733287 
L 627.023531 216.762023 
L 626.838572 215.790759 
L 626.624885 214.819496 
L 626.374848 213.848232 
L 626.080048 212.876969 
L 625.732108 211.905705 
L 625.323524 210.934442 
L 624.848341 209.963178 
L 624.302553 208.991915 
L 623.684261 208.020651 
L 622.993776 207.049388 
L 622.233945 206.078124 
L 621.41094 205.10686 
L 620.535608 204.135597 
L 619.625193 203.164333 
L 618.704964 202.19307 
L 617.80901 201.221806 
L 616.979401 200.250543 
L 616.263076 199.279279 
L 615.706196 198.308016 
L 615.34635 197.336752 
L 615.203716 196.365489 
L 615.272855 195.394225 
L 615.517258 194.422961 
L 615.868626 193.451698 
L 616.232327 192.480434 
L 616.499404 191.509171 
L 616.564019 190.537907 
L 616.343705 189.566644 
L 615.798465 188.59538 
L 614.944187 187.624117 
L 613.856355 186.652853 
L 612.661814 185.68159 
L 611.519159 184.710326 
L 610.591425 183.739062 
L 610.017232 182.767799 
L 609.887273 181.796535 
L 610.231741 180.825272 
L 611.021136 179.854008 
L 612.179017 178.882745 
L 613.60204 177.911481 
L 615.181154 176.940218 
L 616.818547 175.968954 
L 618.43723 174.997691 
L 619.98309 174.026427 
L 621.421506 173.055163 
L 622.731664 172.0839 
L 623.901317 171.112636 
L 633.305956 171.112636 
L 633.305956 171.112636 
L 634.475608 172.0839 
L 635.785767 173.055163 
L 637.224183 174.026427 
L 638.770042 174.997691 
L 640.388726 175.968954 
L 642.026119 176.940218 
L 643.605233 177.911481 
L 645.028256 178.882745 
L 646.186137 179.854008 
L 646.975532 180.825272 
L 647.32 181.796535 
L 647.190041 182.767799 
L 646.615847 183.739062 
L 645.688114 184.710326 
L 644.545458 185.68159 
L 643.350918 186.652853 
L 642.263086 187.624117 
L 641.408808 188.59538 
L 640.863568 189.566644 
L 640.643254 190.537907 
L 640.707869 191.509171 
L 640.974946 192.480434 
L 641.338647 193.451698 
L 641.690014 194.422961 
L 641.934418 195.394225 
L 642.003557 196.365489 
L 641.860922 197.336752 
L 641.501077 198.308016 
L 640.944196 199.279279 
L 640.227872 200.250543 
L 639.398263 201.221806 
L 638.502308 202.19307 
L 637.58208 203.164333 
L 636.671665 204.135597 
L 635.796332 205.10686 
L 634.973328 206.078124 
L 634.213496 207.049388 
L 633.523012 208.020651 
L 632.904719 208.991915 
L 632.358932 209.963178 
L 631.883749 210.934442 
L 631.475165 211.905705 
L 631.127225 212.876969 
L 630.832425 213.848232 
L 630.582387 214.819496 
L 630.368701 215.790759 
L 630.183742 216.762023 
L 630.021279 217.733287 
L 629.876735 218.70455 
L 629.747102 219.675814 
L 629.630587 220.647077 
L 629.526159 221.618341 
L 629.433138 222.589604 
L 629.350958 223.560868 
L 629.279156 224.532131 
L 629.217575 225.503395 
L 629.166717 226.474658 
L 629.128169 227.445922 
L 629.10505 228.417185 
L 629.102421 229.388449 
L 629.127651 230.359713 
L 629.190699 231.330976 
L 629.304255 232.30224 
L 629.483601 233.273503 
L 629.745983 234.244767 
L 630.10925 235.21603 
L 630.589559 236.187294 
L 631.198084 237.158557 
L 631.936976 238.129821 
L 632.795175 239.101084 
L 633.745036 240.072348 
L 634.740924 241.043612 
L 635.720824 242.014875 
L 636.611528 242.986139 
L 637.337116 243.957402 
L 637.829511 244.928666 
L 638.039072 245.899929 
L 637.942926 246.871193 
L 637.549031 247.842456 
L 636.89496 248.81372 
L 636.041669 249.784983 
L 635.063703 250.756247 
L 634.038111 251.727511 
L 633.034362 252.698774 
L 632.107102 253.670038 
L 631.292583 254.641301 
L 630.608675 255.612565 
L 630.057586 256.583828 
L 629.630074 257.555092 
L 629.309985 258.526355 
L 629.078228 259.497619 
L 628.915748 260.468882 
L 628.805377 261.440146 
L 628.732732 262.41141 
L 628.686421 263.382673 
L 628.65782 264.353937 
L 628.640658 265.3252 
L 628.630543 266.296464 
L 628.624525 267.267727 
z
" clip-path="url(#pcc4eb2afca)" style="fill: #1f77b4; fill-opacity: 0.3"/>
   </g>
   <g id="PolyCollection_9">
    <path d="M 703.972742 259.490477 
L 702.96544 259.490477 
L 702.750831 258.587059 
L 702.4627 257.683641 
L 702.085418 256.780223 
L 701.604863 255.876806 
L 701.011115 254.973388 
L 700.301671 254.06997 
L 699.484706 253.166552 
L 698.581709 252.263134 
L 697.628676 251.359716 
L 696.675175 250.456298 
L 695.780879 249.55288 
L 695.009687 248.649462 
L 694.422154 247.746044 
L 694.06745 246.842626 
L 693.976355 245.939208 
L 694.156685 245.03579 
L 694.592107 244.132372 
L 695.244588 243.228955 
L 696.059938 242.325537 
L 696.975301 241.422119 
L 697.927124 240.518701 
L 698.858211 239.615283 
L 699.72279 238.711865 
L 700.489145 237.808447 
L 701.139839 236.905029 
L 701.670064 236.001611 
L 702.084813 235.098193 
L 702.395643 234.194775 
L 702.617611 233.291357 
L 702.766774 232.387939 
L 702.858418 231.484521 
L 702.905987 230.581104 
L 702.920608 229.677686 
L 702.911019 228.774268 
L 702.883772 227.87085 
L 702.84354 226.967432 
L 702.79346 226.064014 
L 702.735429 225.160596 
L 702.67032 224.257178 
L 702.598108 223.35376 
L 702.517925 222.450342 
L 702.428074 221.546924 
L 702.326058 220.643506 
L 702.208664 219.740088 
L 702.072141 218.83667 
L 701.912471 217.933253 
L 701.725692 217.029835 
L 701.508231 216.126417 
L 701.257147 215.222999 
L 700.970246 214.319581 
L 700.64604 213.416163 
L 700.283557 212.512745 
L 699.882064 211.609327 
L 699.440788 210.705909 
L 698.958716 209.802491 
L 698.434554 208.899073 
L 697.86691 207.995655 
L 697.254734 207.092237 
L 696.598052 206.188819 
L 695.898978 205.285402 
L 695.162961 204.381984 
L 694.400133 203.478566 
L 693.626522 202.575148 
L 692.864795 201.67173 
L 692.144094 200.768312 
L 691.498582 199.864894 
L 690.964429 198.961476 
L 690.57524 198.058058 
L 690.356307 197.15464 
L 690.318459 196.251222 
L 690.452627 195.347804 
L 690.726387 194.444386 
L 691.083706 193.540968 
L 691.448737 192.637551 
L 691.733913 191.734133 
L 691.851755 190.830715 
L 691.728949 189.927297 
L 691.320399 189.023879 
L 690.620526 188.120461 
L 689.669118 187.217043 
L 688.549746 186.313625 
L 687.380166 185.410207 
L 686.295863 184.506789 
L 685.429673 183.603371 
L 684.89155 182.699953 
L 684.752727 181.796535 
L 685.037499 180.893117 
L 685.723954 179.989699 
L 686.752708 179.086282 
L 688.040825 178.182864 
L 689.497164 177.279446 
L 691.035613 176.376028 
L 692.583877 175.47261 
L 694.087143 174.569192 
L 695.507424 173.665774 
L 696.820325 172.762356 
L 698.011084 171.858938 
L 699.071305 170.95552 
L 699.997012 170.052102 
L 706.94117 170.052102 
L 706.94117 170.052102 
L 707.866877 170.95552 
L 708.927098 171.858938 
L 710.117857 172.762356 
L 711.430758 173.665774 
L 712.851039 174.569192 
L 714.354304 175.47261 
L 715.902569 176.376028 
L 717.441018 177.279446 
L 718.897357 178.182864 
L 720.185474 179.086282 
L 721.214227 179.989699 
L 721.900682 180.893117 
L 722.185455 181.796535 
L 722.046631 182.699953 
L 721.508508 183.603371 
L 720.642318 184.506789 
L 719.558016 185.410207 
L 718.388436 186.313625 
L 717.269064 187.217043 
L 716.317656 188.120461 
L 715.617783 189.023879 
L 715.209233 189.927297 
L 715.086427 190.830715 
L 715.204269 191.734133 
L 715.489444 192.637551 
L 715.854476 193.540968 
L 716.211795 194.444386 
L 716.485555 195.347804 
L 716.619722 196.251222 
L 716.581875 197.15464 
L 716.362942 198.058058 
L 715.973753 198.961476 
L 715.4396 199.864894 
L 714.794088 200.768312 
L 714.073386 201.67173 
L 713.311659 202.575148 
L 712.538049 203.478566 
L 711.775221 204.381984 
L 711.039204 205.285402 
L 710.34013 206.188819 
L 709.683448 207.092237 
L 709.071272 207.995655 
L 708.503627 208.899073 
L 707.979466 209.802491 
L 707.497394 210.705909 
L 707.056118 211.609327 
L 706.654625 212.512745 
L 706.292142 213.416163 
L 705.967936 214.319581 
L 705.681035 215.222999 
L 705.42995 216.126417 
L 705.21249 217.029835 
L 705.025711 217.933253 
L 704.86604 218.83667 
L 704.729517 219.740088 
L 704.612123 220.643506 
L 704.510108 221.546924 
L 704.420257 222.450342 
L 704.340074 223.35376 
L 704.267862 224.257178 
L 704.202753 225.160596 
L 704.144722 226.064014 
L 704.094642 226.967432 
L 704.05441 227.87085 
L 704.027162 228.774268 
L 704.017574 229.677686 
L 704.032195 230.581104 
L 704.079764 231.484521 
L 704.171408 232.387939 
L 704.32057 233.291357 
L 704.542538 234.194775 
L 704.853369 235.098193 
L 705.268118 236.001611 
L 705.798343 236.905029 
L 706.449037 237.808447 
L 707.215392 238.711865 
L 708.079971 239.615283 
L 709.011057 240.518701 
L 709.962881 241.422119 
L 710.878243 242.325537 
L 711.693594 243.228955 
L 712.346075 244.132372 
L 712.781497 245.03579 
L 712.961827 245.939208 
L 712.870732 246.842626 
L 712.516028 247.746044 
L 711.928495 248.649462 
L 711.157303 249.55288 
L 710.263007 250.456298 
L 709.309506 251.359716 
L 708.356473 252.263134 
L 707.453476 253.166552 
L 706.636511 254.06997 
L 705.927066 254.973388 
L 705.333319 255.876806 
L 704.852763 256.780223 
L 704.475482 257.683641 
L 704.187351 258.587059 
L 703.972742 259.490477 
z
" clip-path="url(#pcc4eb2afca)" style="fill: #1f77b4; fill-opacity: 0.3"/>
   </g>
   <g id="PolyCollection_10">
    <path d="M 788.507043 323.829545 
L 768.162048 323.829545 
L 768.105755 322.401217 
L 768.213828 320.972888 
L 768.480019 319.544559 
L 768.890399 318.11623 
L 769.424456 316.687902 
L 770.056678 315.259573 
L 770.758458 313.831244 
L 771.500129 312.402916 
L 772.25292 310.974587 
L 772.990663 309.546258 
L 773.69113 308.117929 
L 774.336904 306.689601 
L 774.915776 305.261272 
L 775.420696 303.832943 
L 775.849347 302.404614 
L 776.20344 300.976286 
L 776.48784 299.547957 
L 776.709618 298.119628 
L 776.877132 296.691299 
L 776.999188 295.262971 
L 777.084334 293.834642 
L 777.1403 292.406313 
L 777.173593 290.977984 
L 777.189227 289.549656 
L 777.190575 288.121327 
L 777.17931 286.692998 
L 777.155432 285.264669 
L 777.117356 283.836341 
L 777.062056 282.408012 
L 776.985274 280.979683 
L 776.881787 279.551354 
L 776.745759 278.123026 
L 776.571162 276.694697 
L 776.352293 275.266368 
L 776.084346 273.838039 
L 775.76405 272.409711 
L 775.390299 270.981382 
L 774.964749 269.553053 
L 774.492295 268.124725 
L 773.98137 266.696396 
L 773.444007 265.268067 
L 772.895595 263.839738 
L 772.354322 262.41141 
L 771.840314 260.983081 
L 771.374495 259.554752 
L 770.977276 258.126423 
L 770.667167 256.698095 
L 770.459438 255.269766 
L 770.364982 253.841437 
L 770.389478 252.413108 
L 770.532945 250.98478 
L 770.789748 249.556451 
L 771.149044 248.128122 
L 771.595618 246.699793 
L 772.111022 245.271465 
L 772.6749 243.843136 
L 773.266361 242.414807 
L 773.865278 240.986478 
L 774.453396 239.55815 
L 775.015176 238.129821 
L 775.538319 236.701492 
L 776.013988 235.273163 
L 776.436714 233.844835 
L 776.804075 232.416506 
L 777.116178 230.988177 
L 777.375038 229.559848 
L 777.583899 228.13152 
L 777.746561 226.703191 
L 777.866753 225.274862 
L 777.947572 223.846534 
L 777.991012 222.418205 
L 777.997584 220.989876 
L 777.966034 219.561547 
L 777.893163 218.133219 
L 777.773753 216.70489 
L 777.60062 215.276561 
L 777.364806 213.848232 
L 777.055932 212.419904 
L 776.662733 210.991575 
L 776.173784 209.563246 
L 775.578411 208.134917 
L 774.867774 206.706589 
L 774.036058 205.27826 
L 773.081708 203.849931 
L 772.008607 202.421602 
L 770.827069 200.993274 
L 769.554533 199.564945 
L 768.215818 198.136616 
L 766.842849 196.708287 
L 765.473786 195.279959 
L 764.15154 193.85163 
L 762.921731 192.423301 
L 761.830206 190.994972 
L 760.92028 189.566644 
L 760.229942 188.138315 
L 759.78925 186.709986 
L 759.618182 185.281657 
L 759.725138 183.853329 
L 760.106258 182.425 
L 796.562833 182.425 
L 796.562833 182.425 
L 796.943953 183.853329 
L 797.050909 185.281657 
L 796.879841 186.709986 
L 796.439149 188.138315 
L 795.748811 189.566644 
L 794.838885 190.994972 
L 793.74736 192.423301 
L 792.517551 193.85163 
L 791.195305 195.279959 
L 789.826242 196.708287 
L 788.453273 198.136616 
L 787.114558 199.564945 
L 785.842022 200.993274 
L 784.660484 202.421602 
L 783.587383 203.849931 
L 782.633033 205.27826 
L 781.801317 206.706589 
L 781.09068 208.134917 
L 780.495307 209.563246 
L 780.006358 210.991575 
L 779.613159 212.419904 
L 779.304285 213.848232 
L 779.068471 215.276561 
L 778.895338 216.70489 
L 778.775928 218.133219 
L 778.703057 219.561547 
L 778.671507 220.989876 
L 778.678079 222.418205 
L 778.721519 223.846534 
L 778.802338 225.274862 
L 778.92253 226.703191 
L 779.085192 228.13152 
L 779.294053 229.559848 
L 779.552913 230.988177 
L 779.865016 232.416506 
L 780.232377 233.844835 
L 780.655103 235.273163 
L 781.130772 236.701492 
L 781.653915 238.129821 
L 782.215694 239.55815 
L 782.803813 240.986478 
L 783.40273 242.414807 
L 783.994191 243.843136 
L 784.558069 245.271465 
L 785.073473 246.699793 
L 785.520047 248.128122 
L 785.879343 249.556451 
L 786.136146 250.98478 
L 786.279613 252.413108 
L 786.304108 253.841437 
L 786.209653 255.269766 
L 786.001924 256.698095 
L 785.691814 258.126423 
L 785.294596 259.554752 
L 784.828777 260.983081 
L 784.314769 262.41141 
L 783.773496 263.839738 
L 783.225084 265.268067 
L 782.687721 266.696396 
L 782.176796 268.124725 
L 781.704342 269.553053 
L 781.278792 270.981382 
L 780.905041 272.409711 
L 780.584745 273.838039 
L 780.316798 275.266368 
L 780.097928 276.694697 
L 779.923332 278.123026 
L 779.787304 279.551354 
L 779.683817 280.979683 
L 779.607035 282.408012 
L 779.551735 283.836341 
L 779.513659 285.264669 
L 779.489781 286.692998 
L 779.478516 288.121327 
L 779.479864 289.549656 
L 779.495498 290.977984 
L 779.528791 292.406313 
L 779.584757 293.834642 
L 779.669903 295.262971 
L 779.791959 296.691299 
L 779.959473 298.119628 
L 780.181251 299.547957 
L 780.465651 300.976286 
L 780.819744 302.404614 
L 781.248395 303.832943 
L 781.753315 305.261272 
L 782.332187 306.689601 
L 782.977961 308.117929 
L 783.678428 309.546258 
L 784.416171 310.974587 
L 785.168962 312.402916 
L 785.910633 313.831244 
L 786.612413 315.259573 
L 787.244635 316.687902 
L 787.778692 318.11623 
L 788.189072 319.544559 
L 788.455263 320.972888 
L 788.563336 322.401217 
L 788.507043 323.829545 
z
" clip-path="url(#pcc4eb2afca)" style="fill: #1f77b4; fill-opacity: 0.3"/>
   </g>
   <g id="matplotlib.axis_1">
    <g id="xtick_1">
     <g id="line2d_1">
      <defs>
       <path id="m9b75dc749c" d="M 0 0 
L 0 3.5 
" style="stroke: #000000; stroke-width: 0.8"/>
      </defs>
      <g>
       <use xlink:href="#m9b75dc749c" x="104.545455" y="337.97" style="stroke: #000000; stroke-width: 0.8"/>
      </g>
     </g>
     <g id="text_1">
      <!-- Tit For Tat -->
      <g transform="translate(106.752955 384.15)rotate(-90)scale(0.08 -0.08)">
       <defs>
        <path id="DejaVuSans-54" d="M -19 4666 
L 3928 4666 
L 3928 4134 
L 2272 4134 
L 2272 0 
L 1638 0 
L 1638 4134 
L -19 4134 
L -19 4666 
z
" transform="scale(0.015625)"/>
        <path id="DejaVuSans-69" d="M 603 3500 
L 1178 3500 
L 1178 0 
L 603 0 
L 603 3500 
z
M 603 4863 
L 1178 4863 
L 1178 4134 
L 603 4134 
L 603 4863 
z
" transform="scale(0.015625)"/>
        <path id="DejaVuSans-74" d="M 1172 4494 
L 1172 3500 
L 2356 3500 
L 2356 3053 
L 1172 3053 
L 1172 1153 
Q 1172 725 1289 603 
Q 1406 481 1766 481 
L 2356 481 
L 2356 0 
L 1766 0 
Q 1100 0 847 248 
Q 594 497 594 1153 
L 594 3053 
L 172 3053 
L 172 3500 
L 594 3500 
L 594 4494 
L 1172 4494 
z
" transform="scale(0.015625)"/>
        <path id="DejaVuSans-20" transform="scale(0.015625)"/>
        <path id="DejaVuSans-46" d="M 628 4666 
L 3309 4666 
L 3309 4134 
L 1259 4134 
L 1259 2759 
L 3109 2759 
L 3109 2228 
L 1259 2228 
L 1259 0 
L 628 0 
L 628 4666 
z
" transform="scale(0.015625)"/>
        <path id="DejaVuSans-6f" d="M 1959 3097 
Q 1497 3097 1228 2736 
Q 959 2375 959 1747 
Q 959 1119 1226 758 
Q 1494 397 1959 397 
Q 2419 397 2687 759 
Q 2956 1122 2956 1747 
Q 2956 2369 2687 2733 
Q 2419 3097 1959 3097 
z
M 1959 3584 
Q 2709 3584 3137 3096 
Q 3566 2609 3566 1747 
Q 3566 888 3137 398 
Q 2709 -91 1959 -91 
Q 1206 -91 779 398 
Q 353 888 353 1747 
Q 353 2609 779 3096 
Q 1206 3584 1959 3584 
z
" transform="scale(0.015625)"/>
        <path id="DejaVuSans-72" d="M 2631 2963 
Q 2534 3019 2420 3045 
Q 2306 3072 2169 3072 
Q 1681 3072 1420 2755 
Q 1159 2438 1159 1844 
L 1159 0 
L 581 0 
L 581 3500 
L 1159 3500 
L 1159 2956 
Q 1341 3275 1631 3429 
Q 1922 3584 2338 3584 
Q 2397 3584 2469 3576 
Q 2541 3569 2628 3553 
L 2631 2963 
z
" transform="scale(0.015625)"/>
        <path id="DejaVuSans-61" d="M 2194 1759 
Q 1497 1759 1228 1600 
Q 959 1441 959 1056 
Q 959 750 1161 570 
Q 1363 391 1709 391 
Q 2188 391 2477 730 
Q 2766 1069 2766 1631 
L 2766 1759 
L 2194 1759 
z
M 3341 1997 
L 3341 0 
L 2766 0 
L 2766 531 
Q 2569 213 2275 61 
Q 1981 -91 1556 -91 
Q 1019 -91 701 211 
Q 384 513 384 1019 
Q 384 1609 779 1909 
Q 1175 2209 1959 2209 
L 2766 2209 
L 2766 2266 
Q 2766 2663 2505 2880 
Q 2244 3097 1772 3097 
Q 1472 3097 1187 3025 
Q 903 2953 641 2809 
L 641 3341 
Q 956 3463 1253 3523 
Q 1550 3584 1831 3584 
Q 2591 3584 2966 3190 
Q 3341 2797 3341 1997 
z
" transform="scale(0.015625)"/>
       </defs>
       <use xlink:href="#DejaVuSans-54"/>
       <use xlink:href="#DejaVuSans-69" x="57.958984"/>
       <use xlink:href="#DejaVuSans-74" x="85.742188"/>
       <use xlink:href="#DejaVuSans-20" x="124.951172"/>
       <use xlink:href="#DejaVuSans-46" x="156.738281"/>
       <use xlink:href="#DejaVuSans-6f" x="210.632812"/>
       <use xlink:href="#DejaVuSans-72" x="271.814453"/>
       <use xlink:href="#DejaVuSans-20" x="312.927734"/>
       <use xlink:href="#DejaVuSans-54" x="344.714844"/>
       <use xlink:href="#DejaVuSans-61" x="389.298828"/>
       <use xlink:href="#DejaVuSans-74" x="450.578125"/>
      </g>
     </g>
    </g>
    <g id="xtick_2">
     <g id="line2d_2">
      <g>
       <use xlink:href="#m9b75dc749c" x="179.410909" y="337.97" style="stroke: #000000; stroke-width: 0.8"/>
      </g>
     </g>
     <g id="text_2">
      <!-- Grudger -->
      <g transform="translate(181.618409 377.89625)rotate(-90)scale(0.08 -0.08)">
       <defs>
        <path id="DejaVuSans-47" d="M 3809 666 
L 3809 1919 
L 2778 1919 
L 2778 2438 
L 4434 2438 
L 4434 434 
Q 4069 175 3628 42 
Q 3188 -91 2688 -91 
Q 1594 -91 976 548 
Q 359 1188 359 2328 
Q 359 3472 976 4111 
Q 1594 4750 2688 4750 
Q 3144 4750 3555 4637 
Q 3966 4525 4313 4306 
L 4313 3634 
Q 3963 3931 3569 4081 
Q 3175 4231 2741 4231 
Q 1884 4231 1454 3753 
Q 1025 3275 1025 2328 
Q 1025 1384 1454 906 
Q 1884 428 2741 428 
Q 3075 428 3337 486 
Q 3600 544 3809 666 
z
" transform="scale(0.015625)"/>
        <path id="DejaVuSans-75" d="M 544 1381 
L 544 3500 
L 1119 3500 
L 1119 1403 
Q 1119 906 1312 657 
Q 1506 409 1894 409 
Q 2359 409 2629 706 
Q 2900 1003 2900 1516 
L 2900 3500 
L 3475 3500 
L 3475 0 
L 2900 0 
L 2900 538 
Q 2691 219 2414 64 
Q 2138 -91 1772 -91 
Q 1169 -91 856 284 
Q 544 659 544 1381 
z
M 1991 3584 
L 1991 3584 
z
" transform="scale(0.015625)"/>
        <path id="DejaVuSans-64" d="M 2906 2969 
L 2906 4863 
L 3481 4863 
L 3481 0 
L 2906 0 
L 2906 525 
Q 2725 213 2448 61 
Q 2172 -91 1784 -91 
Q 1150 -91 751 415 
Q 353 922 353 1747 
Q 353 2572 751 3078 
Q 1150 3584 1784 3584 
Q 2172 3584 2448 3432 
Q 2725 3281 2906 2969 
z
M 947 1747 
Q 947 1113 1208 752 
Q 1469 391 1925 391 
Q 2381 391 2643 752 
Q 2906 1113 2906 1747 
Q 2906 2381 2643 2742 
Q 2381 3103 1925 3103 
Q 1469 3103 1208 2742 
Q 947 2381 947 1747 
z
" transform="scale(0.015625)"/>
        <path id="DejaVuSans-67" d="M 2906 1791 
Q 2906 2416 2648 2759 
Q 2391 3103 1925 3103 
Q 1463 3103 1205 2759 
Q 947 2416 947 1791 
Q 947 1169 1205 825 
Q 1463 481 1925 481 
Q 2391 481 2648 825 
Q 2906 1169 2906 1791 
z
M 3481 434 
Q 3481 -459 3084 -895 
Q 2688 -1331 1869 -1331 
Q 1566 -1331 1297 -1286 
Q 1028 -1241 775 -1147 
L 775 -588 
Q 1028 -725 1275 -790 
Q 1522 -856 1778 -856 
Q 2344 -856 2625 -561 
Q 2906 -266 2906 331 
L 2906 616 
Q 2728 306 2450 153 
Q 2172 0 1784 0 
Q 1141 0 747 490 
Q 353 981 353 1791 
Q 353 2603 747 3093 
Q 1141 3584 1784 3584 
Q 2172 3584 2450 3431 
Q 2728 3278 2906 2969 
L 2906 3500 
L 3481 3500 
L 3481 434 
z
" transform="scale(0.015625)"/>
        <path id="DejaVuSans-65" d="M 3597 1894 
L 3597 1613 
L 953 1613 
Q 991 1019 1311 708 
Q 1631 397 2203 397 
Q 2534 397 2845 478 
Q 3156 559 3463 722 
L 3463 178 
Q 3153 47 2828 -22 
Q 2503 -91 2169 -91 
Q 1331 -91 842 396 
Q 353 884 353 1716 
Q 353 2575 817 3079 
Q 1281 3584 2069 3584 
Q 2775 3584 3186 3129 
Q 3597 2675 3597 1894 
z
M 3022 2063 
Q 3016 2534 2758 2815 
Q 2500 3097 2075 3097 
Q 1594 3097 1305 2825 
Q 1016 2553 972 2059 
L 3022 2063 
z
" transform="scale(0.015625)"/>
       </defs>
       <use xlink:href="#DejaVuSans-47"/>
       <use xlink:href="#DejaVuSans-72" x="77.490234"/>
       <use xlink:href="#DejaVuSans-75" x="118.603516"/>
       <use xlink:href="#DejaVuSans-64" x="181.982422"/>
       <use xlink:href="#DejaVuSans-67" x="245.458984"/>
       <use xlink:href="#DejaVuSans-65" x="308.935547"/>
       <use xlink:href="#DejaVuSans-72" x="370.458984"/>
      </g>
     </g>
    </g>
    <g id="xtick_3">
     <g id="line2d_3">
      <g>
       <use xlink:href="#m9b75dc749c" x="254.276364" y="337.97" style="stroke: #000000; stroke-width: 0.8"/>
      </g>
     </g>
     <g id="text_3">
      <!-- Deep QLearner -->
      <g transform="translate(256.483864 405.46625)rotate(-90)scale(0.08 -0.08)">
       <defs>
        <path id="DejaVuSans-44" d="M 1259 4147 
L 1259 519 
L 2022 519 
Q 2988 519 3436 956 
Q 3884 1394 3884 2338 
Q 3884 3275 3436 3711 
Q 2988 4147 2022 4147 
L 1259 4147 
z
M 628 4666 
L 1925 4666 
Q 3281 4666 3915 4102 
Q 4550 3538 4550 2338 
Q 4550 1131 3912 565 
Q 3275 0 1925 0 
L 628 0 
L 628 4666 
z
" transform="scale(0.015625)"/>
        <path id="DejaVuSans-70" d="M 1159 525 
L 1159 -1331 
L 581 -1331 
L 581 3500 
L 1159 3500 
L 1159 2969 
Q 1341 3281 1617 3432 
Q 1894 3584 2278 3584 
Q 2916 3584 3314 3078 
Q 3713 2572 3713 1747 
Q 3713 922 3314 415 
Q 2916 -91 2278 -91 
Q 1894 -91 1617 61 
Q 1341 213 1159 525 
z
M 3116 1747 
Q 3116 2381 2855 2742 
Q 2594 3103 2138 3103 
Q 1681 3103 1420 2742 
Q 1159 2381 1159 1747 
Q 1159 1113 1420 752 
Q 1681 391 2138 391 
Q 2594 391 2855 752 
Q 3116 1113 3116 1747 
z
" transform="scale(0.015625)"/>
        <path id="DejaVuSans-51" d="M 2522 4238 
Q 1834 4238 1429 3725 
Q 1025 3213 1025 2328 
Q 1025 1447 1429 934 
Q 1834 422 2522 422 
Q 3209 422 3611 934 
Q 4013 1447 4013 2328 
Q 4013 3213 3611 3725 
Q 3209 4238 2522 4238 
z
M 3406 84 
L 4238 -825 
L 3475 -825 
L 2784 -78 
Q 2681 -84 2626 -87 
Q 2572 -91 2522 -91 
Q 1538 -91 948 567 
Q 359 1225 359 2328 
Q 359 3434 948 4092 
Q 1538 4750 2522 4750 
Q 3503 4750 4090 4092 
Q 4678 3434 4678 2328 
Q 4678 1516 4351 937 
Q 4025 359 3406 84 
z
" transform="scale(0.015625)"/>
        <path id="DejaVuSans-4c" d="M 628 4666 
L 1259 4666 
L 1259 531 
L 3531 531 
L 3531 0 
L 628 0 
L 628 4666 
z
" transform="scale(0.015625)"/>
        <path id="DejaVuSans-6e" d="M 3513 2113 
L 3513 0 
L 2938 0 
L 2938 2094 
Q 2938 2591 2744 2837 
Q 2550 3084 2163 3084 
Q 1697 3084 1428 2787 
Q 1159 2491 1159 1978 
L 1159 0 
L 581 0 
L 581 3500 
L 1159 3500 
L 1159 2956 
Q 1366 3272 1645 3428 
Q 1925 3584 2291 3584 
Q 2894 3584 3203 3211 
Q 3513 2838 3513 2113 
z
" transform="scale(0.015625)"/>
       </defs>
       <use xlink:href="#DejaVuSans-44"/>
       <use xlink:href="#DejaVuSans-65" x="77.001953"/>
       <use xlink:href="#DejaVuSans-65" x="138.525391"/>
       <use xlink:href="#DejaVuSans-70" x="200.048828"/>
       <use xlink:href="#DejaVuSans-20" x="263.525391"/>
       <use xlink:href="#DejaVuSans-51" x="295.3125"/>
       <use xlink:href="#DejaVuSans-4c" x="374.023438"/>
       <use xlink:href="#DejaVuSans-65" x="427.986328"/>
       <use xlink:href="#DejaVuSans-61" x="489.509766"/>
       <use xlink:href="#DejaVuSans-72" x="550.789062"/>
       <use xlink:href="#DejaVuSans-6e" x="590.152344"/>
       <use xlink:href="#DejaVuSans-65" x="653.53125"/>
       <use xlink:href="#DejaVuSans-72" x="715.054688"/>
      </g>
     </g>
    </g>
    <g id="xtick_4">
     <g id="line2d_4">
      <g>
       <use xlink:href="#m9b75dc749c" x="329.141818" y="337.97" style="stroke: #000000; stroke-width: 0.8"/>
      </g>
     </g>
     <g id="text_4">
      <!-- Alternator -->
      <g transform="translate(331.349318 385.165)rotate(-90)scale(0.08 -0.08)">
       <defs>
        <path id="DejaVuSans-41" d="M 2188 4044 
L 1331 1722 
L 3047 1722 
L 2188 4044 
z
M 1831 4666 
L 2547 4666 
L 4325 0 
L 3669 0 
L 3244 1197 
L 1141 1197 
L 716 0 
L 50 0 
L 1831 4666 
z
" transform="scale(0.015625)"/>
        <path id="DejaVuSans-6c" d="M 603 4863 
L 1178 4863 
L 1178 0 
L 603 0 
L 603 4863 
z
" transform="scale(0.015625)"/>
       </defs>
       <use xlink:href="#DejaVuSans-41"/>
       <use xlink:href="#DejaVuSans-6c" x="68.408203"/>
       <use xlink:href="#DejaVuSans-74" x="96.191406"/>
       <use xlink:href="#DejaVuSans-65" x="135.400391"/>
       <use xlink:href="#DejaVuSans-72" x="196.923828"/>
       <use xlink:href="#DejaVuSans-6e" x="236.287109"/>
       <use xlink:href="#DejaVuSans-61" x="299.666016"/>
       <use xlink:href="#DejaVuSans-74" x="360.945312"/>
       <use xlink:href="#DejaVuSans-6f" x="400.154297"/>
       <use xlink:href="#DejaVuSans-72" x="461.335938"/>
      </g>
     </g>
    </g>
    <g id="xtick_5">
     <g id="line2d_5">
      <g>
       <use xlink:href="#m9b75dc749c" x="404.007273" y="337.97" style="stroke: #000000; stroke-width: 0.8"/>
      </g>
     </g>
     <g id="text_5">
      <!-- Random: 0.5 -->
      <g transform="translate(406.214773 396.0475)rotate(-90)scale(0.08 -0.08)">
       <defs>
        <path id="DejaVuSans-52" d="M 2841 2188 
Q 3044 2119 3236 1894 
Q 3428 1669 3622 1275 
L 4263 0 
L 3584 0 
L 2988 1197 
Q 2756 1666 2539 1819 
Q 2322 1972 1947 1972 
L 1259 1972 
L 1259 0 
L 628 0 
L 628 4666 
L 2053 4666 
Q 2853 4666 3247 4331 
Q 3641 3997 3641 3322 
Q 3641 2881 3436 2590 
Q 3231 2300 2841 2188 
z
M 1259 4147 
L 1259 2491 
L 2053 2491 
Q 2509 2491 2742 2702 
Q 2975 2913 2975 3322 
Q 2975 3731 2742 3939 
Q 2509 4147 2053 4147 
L 1259 4147 
z
" transform="scale(0.015625)"/>
        <path id="DejaVuSans-6d" d="M 3328 2828 
Q 3544 3216 3844 3400 
Q 4144 3584 4550 3584 
Q 5097 3584 5394 3201 
Q 5691 2819 5691 2113 
L 5691 0 
L 5113 0 
L 5113 2094 
Q 5113 2597 4934 2840 
Q 4756 3084 4391 3084 
Q 3944 3084 3684 2787 
Q 3425 2491 3425 1978 
L 3425 0 
L 2847 0 
L 2847 2094 
Q 2847 2600 2669 2842 
Q 2491 3084 2119 3084 
Q 1678 3084 1418 2786 
Q 1159 2488 1159 1978 
L 1159 0 
L 581 0 
L 581 3500 
L 1159 3500 
L 1159 2956 
Q 1356 3278 1631 3431 
Q 1906 3584 2284 3584 
Q 2666 3584 2933 3390 
Q 3200 3197 3328 2828 
z
" transform="scale(0.015625)"/>
        <path id="DejaVuSans-3a" d="M 750 794 
L 1409 794 
L 1409 0 
L 750 0 
L 750 794 
z
M 750 3309 
L 1409 3309 
L 1409 2516 
L 750 2516 
L 750 3309 
z
" transform="scale(0.015625)"/>
        <path id="DejaVuSans-30" d="M 2034 4250 
Q 1547 4250 1301 3770 
Q 1056 3291 1056 2328 
Q 1056 1369 1301 889 
Q 1547 409 2034 409 
Q 2525 409 2770 889 
Q 3016 1369 3016 2328 
Q 3016 3291 2770 3770 
Q 2525 4250 2034 4250 
z
M 2034 4750 
Q 2819 4750 3233 4129 
Q 3647 3509 3647 2328 
Q 3647 1150 3233 529 
Q 2819 -91 2034 -91 
Q 1250 -91 836 529 
Q 422 1150 422 2328 
Q 422 3509 836 4129 
Q 1250 4750 2034 4750 
z
" transform="scale(0.015625)"/>
        <path id="DejaVuSans-2e" d="M 684 794 
L 1344 794 
L 1344 0 
L 684 0 
L 684 794 
z
" transform="scale(0.015625)"/>
        <path id="DejaVuSans-35" d="M 691 4666 
L 3169 4666 
L 3169 4134 
L 1269 4134 
L 1269 2991 
Q 1406 3038 1543 3061 
Q 1681 3084 1819 3084 
Q 2600 3084 3056 2656 
Q 3513 2228 3513 1497 
Q 3513 744 3044 326 
Q 2575 -91 1722 -91 
Q 1428 -91 1123 -41 
Q 819 9 494 109 
L 494 744 
Q 775 591 1075 516 
Q 1375 441 1709 441 
Q 2250 441 2565 725 
Q 2881 1009 2881 1497 
Q 2881 1984 2565 2268 
Q 2250 2553 1709 2553 
Q 1456 2553 1204 2497 
Q 953 2441 691 2322 
L 691 4666 
z
" transform="scale(0.015625)"/>
       </defs>
       <use xlink:href="#DejaVuSans-52"/>
       <use xlink:href="#DejaVuSans-61" x="67.232422"/>
       <use xlink:href="#DejaVuSans-6e" x="128.511719"/>
       <use xlink:href="#DejaVuSans-64" x="191.890625"/>
       <use xlink:href="#DejaVuSans-6f" x="255.367188"/>
       <use xlink:href="#DejaVuSans-6d" x="316.548828"/>
       <use xlink:href="#DejaVuSans-3a" x="413.960938"/>
       <use xlink:href="#DejaVuSans-20" x="447.652344"/>
       <use xlink:href="#DejaVuSans-30" x="479.439453"/>
       <use xlink:href="#DejaVuSans-2e" x="543.0625"/>
       <use xlink:href="#DejaVuSans-35" x="574.849609"/>
      </g>
     </g>
    </g>
    <g id="xtick_6">
     <g id="line2d_6">
      <g>
       <use xlink:href="#m9b75dc749c" x="478.872727" y="337.97" style="stroke: #000000; stroke-width: 0.8"/>
      </g>
     </g>
     <g id="text_6">
      <!-- Adaptive -->
      <g transform="translate(481.080227 380.37875)rotate(-90)scale(0.08 -0.08)">
       <defs>
        <path id="DejaVuSans-76" d="M 191 3500 
L 800 3500 
L 1894 563 
L 2988 3500 
L 3597 3500 
L 2284 0 
L 1503 0 
L 191 3500 
z
" transform="scale(0.015625)"/>
       </defs>
       <use xlink:href="#DejaVuSans-41"/>
       <use xlink:href="#DejaVuSans-64" x="66.658203"/>
       <use xlink:href="#DejaVuSans-61" x="130.134766"/>
       <use xlink:href="#DejaVuSans-70" x="191.414062"/>
       <use xlink:href="#DejaVuSans-74" x="254.890625"/>
       <use xlink:href="#DejaVuSans-69" x="294.099609"/>
       <use xlink:href="#DejaVuSans-76" x="321.882812"/>
       <use xlink:href="#DejaVuSans-65" x="381.0625"/>
      </g>
     </g>
    </g>
    <g id="xtick_7">
     <g id="line2d_7">
      <g>
       <use xlink:href="#m9b75dc749c" x="553.738182" y="337.97" style="stroke: #000000; stroke-width: 0.8"/>
      </g>
     </g>
     <g id="text_7">
      <!-- Defector -->
      <g transform="translate(555.945682 379.51)rotate(-90)scale(0.08 -0.08)">
       <defs>
        <path id="DejaVuSans-66" d="M 2375 4863 
L 2375 4384 
L 1825 4384 
Q 1516 4384 1395 4259 
Q 1275 4134 1275 3809 
L 1275 3500 
L 2222 3500 
L 2222 3053 
L 1275 3053 
L 1275 0 
L 697 0 
L 697 3053 
L 147 3053 
L 147 3500 
L 697 3500 
L 697 3744 
Q 697 4328 969 4595 
Q 1241 4863 1831 4863 
L 2375 4863 
z
" transform="scale(0.015625)"/>
        <path id="DejaVuSans-63" d="M 3122 3366 
L 3122 2828 
Q 2878 2963 2633 3030 
Q 2388 3097 2138 3097 
Q 1578 3097 1268 2742 
Q 959 2388 959 1747 
Q 959 1106 1268 751 
Q 1578 397 2138 397 
Q 2388 397 2633 464 
Q 2878 531 3122 666 
L 3122 134 
Q 2881 22 2623 -34 
Q 2366 -91 2075 -91 
Q 1284 -91 818 406 
Q 353 903 353 1747 
Q 353 2603 823 3093 
Q 1294 3584 2113 3584 
Q 2378 3584 2631 3529 
Q 2884 3475 3122 3366 
z
" transform="scale(0.015625)"/>
       </defs>
       <use xlink:href="#DejaVuSans-44"/>
       <use xlink:href="#DejaVuSans-65" x="77.001953"/>
       <use xlink:href="#DejaVuSans-66" x="138.525391"/>
       <use xlink:href="#DejaVuSans-65" x="173.730469"/>
       <use xlink:href="#DejaVuSans-63" x="235.253906"/>
       <use xlink:href="#DejaVuSans-74" x="290.234375"/>
       <use xlink:href="#DejaVuSans-6f" x="329.443359"/>
       <use xlink:href="#DejaVuSans-72" x="390.625"/>
      </g>
     </g>
    </g>
    <g id="xtick_8">
     <g id="line2d_8">
      <g>
       <use xlink:href="#m9b75dc749c" x="628.603636" y="337.97" style="stroke: #000000; stroke-width: 0.8"/>
      </g>
     </g>
     <g id="text_8">
      <!-- Mediocre QLearner -->
      <g transform="translate(630.811136 420.83375)rotate(-90)scale(0.08 -0.08)">
       <defs>
        <path id="DejaVuSans-4d" d="M 628 4666 
L 1569 4666 
L 2759 1491 
L 3956 4666 
L 4897 4666 
L 4897 0 
L 4281 0 
L 4281 4097 
L 3078 897 
L 2444 897 
L 1241 4097 
L 1241 0 
L 628 0 
L 628 4666 
z
" transform="scale(0.015625)"/>
       </defs>
       <use xlink:href="#DejaVuSans-4d"/>
       <use xlink:href="#DejaVuSans-65" x="86.279297"/>
       <use xlink:href="#DejaVuSans-64" x="147.802734"/>
       <use xlink:href="#DejaVuSans-69" x="211.279297"/>
       <use xlink:href="#DejaVuSans-6f" x="239.0625"/>
       <use xlink:href="#DejaVuSans-63" x="300.244141"/>
       <use xlink:href="#DejaVuSans-72" x="355.224609"/>
       <use xlink:href="#DejaVuSans-65" x="394.087891"/>
       <use xlink:href="#DejaVuSans-20" x="455.611328"/>
       <use xlink:href="#DejaVuSans-51" x="487.398438"/>
       <use xlink:href="#DejaVuSans-4c" x="566.109375"/>
       <use xlink:href="#DejaVuSans-65" x="620.072266"/>
       <use xlink:href="#DejaVuSans-61" x="681.595703"/>
       <use xlink:href="#DejaVuSans-72" x="742.875"/>
       <use xlink:href="#DejaVuSans-6e" x="782.238281"/>
       <use xlink:href="#DejaVuSans-65" x="845.617188"/>
       <use xlink:href="#DejaVuSans-72" x="907.140625"/>
      </g>
     </g>
    </g>
    <g id="xtick_9">
     <g id="line2d_9">
      <g>
       <use xlink:href="#m9b75dc749c" x="703.469091" y="337.97" style="stroke: #000000; stroke-width: 0.8"/>
      </g>
     </g>
     <g id="text_9">
      <!-- Risky QLearner -->
      <g transform="translate(705.676591 405.40875)rotate(-90)scale(0.08 -0.08)">
       <defs>
        <path id="DejaVuSans-73" d="M 2834 3397 
L 2834 2853 
Q 2591 2978 2328 3040 
Q 2066 3103 1784 3103 
Q 1356 3103 1142 2972 
Q 928 2841 928 2578 
Q 928 2378 1081 2264 
Q 1234 2150 1697 2047 
L 1894 2003 
Q 2506 1872 2764 1633 
Q 3022 1394 3022 966 
Q 3022 478 2636 193 
Q 2250 -91 1575 -91 
Q 1294 -91 989 -36 
Q 684 19 347 128 
L 347 722 
Q 666 556 975 473 
Q 1284 391 1588 391 
Q 1994 391 2212 530 
Q 2431 669 2431 922 
Q 2431 1156 2273 1281 
Q 2116 1406 1581 1522 
L 1381 1569 
Q 847 1681 609 1914 
Q 372 2147 372 2553 
Q 372 3047 722 3315 
Q 1072 3584 1716 3584 
Q 2034 3584 2315 3537 
Q 2597 3491 2834 3397 
z
" transform="scale(0.015625)"/>
        <path id="DejaVuSans-6b" d="M 581 4863 
L 1159 4863 
L 1159 1991 
L 2875 3500 
L 3609 3500 
L 1753 1863 
L 3688 0 
L 2938 0 
L 1159 1709 
L 1159 0 
L 581 0 
L 581 4863 
z
" transform="scale(0.015625)"/>
        <path id="DejaVuSans-79" d="M 2059 -325 
Q 1816 -950 1584 -1140 
Q 1353 -1331 966 -1331 
L 506 -1331 
L 506 -850 
L 844 -850 
Q 1081 -850 1212 -737 
Q 1344 -625 1503 -206 
L 1606 56 
L 191 3500 
L 800 3500 
L 1894 763 
L 2988 3500 
L 3597 3500 
L 2059 -325 
z
" transform="scale(0.015625)"/>
       </defs>
       <use xlink:href="#DejaVuSans-52"/>
       <use xlink:href="#DejaVuSans-69" x="69.482422"/>
       <use xlink:href="#DejaVuSans-73" x="97.265625"/>
       <use xlink:href="#DejaVuSans-6b" x="149.365234"/>
       <use xlink:href="#DejaVuSans-79" x="203.650391"/>
       <use xlink:href="#DejaVuSans-20" x="262.830078"/>
       <use xlink:href="#DejaVuSans-51" x="294.617188"/>
       <use xlink:href="#DejaVuSans-4c" x="373.328125"/>
       <use xlink:href="#DejaVuSans-65" x="427.291016"/>
       <use xlink:href="#DejaVuSans-61" x="488.814453"/>
       <use xlink:href="#DejaVuSans-72" x="550.09375"/>
       <use xlink:href="#DejaVuSans-6e" x="589.457031"/>
       <use xlink:href="#DejaVuSans-65" x="652.835938"/>
       <use xlink:href="#DejaVuSans-72" x="714.359375"/>
      </g>
     </g>
    </g>
    <g id="xtick_10">
     <g id="line2d_10">
      <g>
       <use xlink:href="#m9b75dc749c" x="778.334545" y="337.97" style="stroke: #000000; stroke-width: 0.8"/>
      </g>
     </g>
     <g id="text_10">
      <!-- Cooperator -->
      <g transform="translate(780.542045 389.85875)rotate(-90)scale(0.08 -0.08)">
       <defs>
        <path id="DejaVuSans-43" d="M 4122 4306 
L 4122 3641 
Q 3803 3938 3442 4084 
Q 3081 4231 2675 4231 
Q 1875 4231 1450 3742 
Q 1025 3253 1025 2328 
Q 1025 1406 1450 917 
Q 1875 428 2675 428 
Q 3081 428 3442 575 
Q 3803 722 4122 1019 
L 4122 359 
Q 3791 134 3420 21 
Q 3050 -91 2638 -91 
Q 1578 -91 968 557 
Q 359 1206 359 2328 
Q 359 3453 968 4101 
Q 1578 4750 2638 4750 
Q 3056 4750 3426 4639 
Q 3797 4528 4122 4306 
z
" transform="scale(0.015625)"/>
       </defs>
       <use xlink:href="#DejaVuSans-43"/>
       <use xlink:href="#DejaVuSans-6f" x="69.824219"/>
       <use xlink:href="#DejaVuSans-6f" x="131.005859"/>
       <use xlink:href="#DejaVuSans-70" x="192.1875"/>
       <use xlink:href="#DejaVuSans-65" x="255.664062"/>
       <use xlink:href="#DejaVuSans-72" x="317.1875"/>
       <use xlink:href="#DejaVuSans-61" x="358.300781"/>
       <use xlink:href="#DejaVuSans-74" x="419.580078"/>
       <use xlink:href="#DejaVuSans-6f" x="458.789062"/>
       <use xlink:href="#DejaVuSans-72" x="519.970703"/>
      </g>
     </g>
    </g>
   </g>
   <g id="matplotlib.axis_2">
    <g id="ytick_1">
     <g id="line2d_11">
      <defs>
       <path id="md8a8592bfa" d="M 0 0 
L -3.5 0 
" style="stroke: #000000; stroke-width: 0.8"/>
      </defs>
      <g>
       <use xlink:href="#md8a8592bfa" x="29.68" y="295.548636" style="stroke: #000000; stroke-width: 0.8"/>
      </g>
     </g>
     <g id="text_11">
      <!-- 4 -->
      <g transform="translate(10.88625 298.588011)scale(0.08 -0.08)">
       <defs>
        <path id="DejaVuSans-2212" d="M 678 2272 
L 4684 2272 
L 4684 1741 
L 678 1741 
L 678 2272 
z
" transform="scale(0.015625)"/>
        <path id="DejaVuSans-34" d="M 2419 4116 
L 825 1625 
L 2419 1625 
L 2419 4116 
z
M 2253 4666 
L 3047 4666 
L 3047 1625 
L 3713 1625 
L 3713 1100 
L 3047 1100 
L 3047 0 
L 2419 0 
L 2419 1100 
L 313 1100 
L 313 1709 
L 2253 4666 
z
" transform="scale(0.015625)"/>
       </defs>
       <use xlink:href="#DejaVuSans-2212"/>
       <use xlink:href="#DejaVuSans-34" x="83.789062"/>
      </g>
     </g>
    </g>
    <g id="ytick_2">
     <g id="line2d_12">
      <g>
       <use xlink:href="#md8a8592bfa" x="29.68" y="238.986818" style="stroke: #000000; stroke-width: 0.8"/>
      </g>
     </g>
     <g id="text_12">
      <!-- 2 -->
      <g transform="translate(10.88625 242.026193)scale(0.08 -0.08)">
       <defs>
        <path id="DejaVuSans-32" d="M 1228 531 
L 3431 531 
L 3431 0 
L 469 0 
L 469 531 
Q 828 903 1448 1529 
Q 2069 2156 2228 2338 
Q 2531 2678 2651 2914 
Q 2772 3150 2772 3378 
Q 2772 3750 2511 3984 
Q 2250 4219 1831 4219 
Q 1534 4219 1204 4116 
Q 875 4013 500 3803 
L 500 4441 
Q 881 4594 1212 4672 
Q 1544 4750 1819 4750 
Q 2544 4750 2975 4387 
Q 3406 4025 3406 3419 
Q 3406 3131 3298 2873 
Q 3191 2616 2906 2266 
Q 2828 2175 2409 1742 
Q 1991 1309 1228 531 
z
" transform="scale(0.015625)"/>
       </defs>
       <use xlink:href="#DejaVuSans-2212"/>
       <use xlink:href="#DejaVuSans-32" x="83.789062"/>
      </g>
     </g>
    </g>
    <g id="ytick_3">
     <g id="line2d_13">
      <g>
       <use xlink:href="#md8a8592bfa" x="29.68" y="182.425" style="stroke: #000000; stroke-width: 0.8"/>
      </g>
     </g>
     <g id="text_13">
      <!-- 0 -->
      <g transform="translate(17.59 185.464375)scale(0.08 -0.08)">
       <use xlink:href="#DejaVuSans-30"/>
      </g>
     </g>
    </g>
    <g id="ytick_4">
     <g id="line2d_14">
      <g>
       <use xlink:href="#md8a8592bfa" x="29.68" y="125.863182" style="stroke: #000000; stroke-width: 0.8"/>
      </g>
     </g>
     <g id="text_14">
      <!-- 2 -->
      <g transform="translate(17.59 128.902557)scale(0.08 -0.08)">
       <use xlink:href="#DejaVuSans-32"/>
      </g>
     </g>
    </g>
    <g id="ytick_5">
     <g id="line2d_15">
      <g>
       <use xlink:href="#md8a8592bfa" x="29.68" y="69.301364" style="stroke: #000000; stroke-width: 0.8"/>
      </g>
     </g>
     <g id="text_15">
      <!-- 4 -->
      <g transform="translate(17.59 72.340739)scale(0.08 -0.08)">
       <use xlink:href="#DejaVuSans-34"/>
      </g>
     </g>
    </g>
   </g>
   <g id="LineCollection_1">
    <path d="M 95.187273 182.425 
L 113.903636 182.425 
" clip-path="url(#pcc4eb2afca)" style="fill: none; stroke: #1f77b4; stroke-width: 1.5"/>
    <path d="M 170.052727 173.056949 
L 188.769091 173.056949 
" clip-path="url(#pcc4eb2afca)" style="fill: none; stroke: #1f77b4; stroke-width: 1.5"/>
    <path d="M 244.918182 182.425 
L 263.634545 182.425 
" clip-path="url(#pcc4eb2afca)" style="fill: none; stroke: #1f77b4; stroke-width: 1.5"/>
    <path d="M 319.783636 182.425 
L 338.5 182.425 
" clip-path="url(#pcc4eb2afca)" style="fill: none; stroke: #1f77b4; stroke-width: 1.5"/>
    <path d="M 394.649091 182.425 
L 413.365455 182.425 
" clip-path="url(#pcc4eb2afca)" style="fill: none; stroke: #1f77b4; stroke-width: 1.5"/>
    <path d="M 469.514545 175.354773 
L 488.230909 175.354773 
" clip-path="url(#pcc4eb2afca)" style="fill: none; stroke: #1f77b4; stroke-width: 1.5"/>
    <path d="M 544.38 171.819659 
L 563.096364 171.819659 
" clip-path="url(#pcc4eb2afca)" style="fill: none; stroke: #1f77b4; stroke-width: 1.5"/>
    <path d="M 619.245455 194.444386 
L 637.961818 194.444386 
" clip-path="url(#pcc4eb2afca)" style="fill: none; stroke: #1f77b4; stroke-width: 1.5"/>
    <path d="M 694.110909 194.797898 
L 712.827273 194.797898 
" clip-path="url(#pcc4eb2afca)" style="fill: none; stroke: #1f77b4; stroke-width: 1.5"/>
    <path d="M 768.976364 213.710756 
L 787.692727 213.710756 
" clip-path="url(#pcc4eb2afca)" style="fill: none; stroke: #1f77b4; stroke-width: 1.5"/>
   </g>
   <g id="patch_3">
    <path d="M 29.68 337.97 
L 29.68 26.88 
" style="fill: none; stroke: #000000; stroke-width: 0.8; stroke-linejoin: miter; stroke-linecap: square"/>
   </g>
   <g id="patch_4">
    <path d="M 853.2 337.97 
L 853.2 26.88 
" style="fill: none; stroke: #000000; stroke-width: 0.8; stroke-linejoin: miter; stroke-linecap: square"/>
   </g>
   <g id="patch_5">
    <path d="M 29.68 337.97 
L 853.2 337.97 
" style="fill: none; stroke: #000000; stroke-width: 0.8; stroke-linejoin: miter; stroke-linecap: square"/>
   </g>
   <g id="patch_6">
    <path d="M 29.68 26.88 
L 853.2 26.88 
" style="fill: none; stroke: #000000; stroke-width: 0.8; stroke-linejoin: miter; stroke-linecap: square"/>
   </g>
   <g id="text_16">
    <!-- Payoff differences - turns: 200, repetitions: 400, strategies: 10.  -->
    <g transform="translate(250.417813 20.88)scale(0.12 -0.12)">
     <defs>
      <path id="DejaVuSans-50" d="M 1259 4147 
L 1259 2394 
L 2053 2394 
Q 2494 2394 2734 2622 
Q 2975 2850 2975 3272 
Q 2975 3691 2734 3919 
Q 2494 4147 2053 4147 
L 1259 4147 
z
M 628 4666 
L 2053 4666 
Q 2838 4666 3239 4311 
Q 3641 3956 3641 3272 
Q 3641 2581 3239 2228 
Q 2838 1875 2053 1875 
L 1259 1875 
L 1259 0 
L 628 0 
L 628 4666 
z
" transform="scale(0.015625)"/>
      <path id="DejaVuSans-2d" d="M 313 2009 
L 1997 2009 
L 1997 1497 
L 313 1497 
L 313 2009 
z
" transform="scale(0.015625)"/>
      <path id="DejaVuSans-2c" d="M 750 794 
L 1409 794 
L 1409 256 
L 897 -744 
L 494 -744 
L 750 256 
L 750 794 
z
" transform="scale(0.015625)"/>
      <path id="DejaVuSans-31" d="M 794 531 
L 1825 531 
L 1825 4091 
L 703 3866 
L 703 4441 
L 1819 4666 
L 2450 4666 
L 2450 531 
L 3481 531 
L 3481 0 
L 794 0 
L 794 531 
z
" transform="scale(0.015625)"/>
     </defs>
     <use xlink:href="#DejaVuSans-50"/>
     <use xlink:href="#DejaVuSans-61" x="55.802734"/>
     <use xlink:href="#DejaVuSans-79" x="117.082031"/>
     <use xlink:href="#DejaVuSans-6f" x="176.261719"/>
     <use xlink:href="#DejaVuSans-66" x="237.443359"/>
     <use xlink:href="#DejaVuSans-66" x="272.648438"/>
     <use xlink:href="#DejaVuSans-20" x="307.853516"/>
     <use xlink:href="#DejaVuSans-64" x="339.640625"/>
     <use xlink:href="#DejaVuSans-69" x="403.117188"/>
     <use xlink:href="#DejaVuSans-66" x="430.900391"/>
     <use xlink:href="#DejaVuSans-66" x="466.105469"/>
     <use xlink:href="#DejaVuSans-65" x="501.310547"/>
     <use xlink:href="#DejaVuSans-72" x="562.833984"/>
     <use xlink:href="#DejaVuSans-65" x="601.697266"/>
     <use xlink:href="#DejaVuSans-6e" x="663.220703"/>
     <use xlink:href="#DejaVuSans-63" x="726.599609"/>
     <use xlink:href="#DejaVuSans-65" x="781.580078"/>
     <use xlink:href="#DejaVuSans-73" x="843.103516"/>
     <use xlink:href="#DejaVuSans-20" x="895.203125"/>
     <use xlink:href="#DejaVuSans-2d" x="926.990234"/>
     <use xlink:href="#DejaVuSans-20" x="963.074219"/>
     <use xlink:href="#DejaVuSans-74" x="994.861328"/>
     <use xlink:href="#DejaVuSans-75" x="1034.070312"/>
     <use xlink:href="#DejaVuSans-72" x="1097.449219"/>
     <use xlink:href="#DejaVuSans-6e" x="1136.8125"/>
     <use xlink:href="#DejaVuSans-73" x="1200.191406"/>
     <use xlink:href="#DejaVuSans-3a" x="1252.291016"/>
     <use xlink:href="#DejaVuSans-20" x="1285.982422"/>
     <use xlink:href="#DejaVuSans-32" x="1317.769531"/>
     <use xlink:href="#DejaVuSans-30" x="1381.392578"/>
     <use xlink:href="#DejaVuSans-30" x="1445.015625"/>
     <use xlink:href="#DejaVuSans-2c" x="1508.638672"/>
     <use xlink:href="#DejaVuSans-20" x="1540.425781"/>
     <use xlink:href="#DejaVuSans-72" x="1572.212891"/>
     <use xlink:href="#DejaVuSans-65" x="1611.076172"/>
     <use xlink:href="#DejaVuSans-70" x="1672.599609"/>
     <use xlink:href="#DejaVuSans-65" x="1736.076172"/>
     <use xlink:href="#DejaVuSans-74" x="1797.599609"/>
     <use xlink:href="#DejaVuSans-69" x="1836.808594"/>
     <use xlink:href="#DejaVuSans-74" x="1864.591797"/>
     <use xlink:href="#DejaVuSans-69" x="1903.800781"/>
     <use xlink:href="#DejaVuSans-6f" x="1931.583984"/>
     <use xlink:href="#DejaVuSans-6e" x="1992.765625"/>
     <use xlink:href="#DejaVuSans-73" x="2056.144531"/>
     <use xlink:href="#DejaVuSans-3a" x="2108.244141"/>
     <use xlink:href="#DejaVuSans-20" x="2141.935547"/>
     <use xlink:href="#DejaVuSans-34" x="2173.722656"/>
     <use xlink:href="#DejaVuSans-30" x="2237.345703"/>
     <use xlink:href="#DejaVuSans-30" x="2300.96875"/>
     <use xlink:href="#DejaVuSans-2c" x="2364.591797"/>
     <use xlink:href="#DejaVuSans-20" x="2396.378906"/>
     <use xlink:href="#DejaVuSans-73" x="2428.166016"/>
     <use xlink:href="#DejaVuSans-74" x="2480.265625"/>
     <use xlink:href="#DejaVuSans-72" x="2519.474609"/>
     <use xlink:href="#DejaVuSans-61" x="2560.587891"/>
     <use xlink:href="#DejaVuSans-74" x="2621.867188"/>
     <use xlink:href="#DejaVuSans-65" x="2661.076172"/>
     <use xlink:href="#DejaVuSans-67" x="2722.599609"/>
     <use xlink:href="#DejaVuSans-69" x="2786.076172"/>
     <use xlink:href="#DejaVuSans-65" x="2813.859375"/>
     <use xlink:href="#DejaVuSans-73" x="2875.382812"/>
     <use xlink:href="#DejaVuSans-3a" x="2927.482422"/>
     <use xlink:href="#DejaVuSans-20" x="2961.173828"/>
     <use xlink:href="#DejaVuSans-31" x="2992.960938"/>
     <use xlink:href="#DejaVuSans-30" x="3056.583984"/>
     <use xlink:href="#DejaVuSans-2e" x="3120.207031"/>
     <use xlink:href="#DejaVuSans-20" x="3151.994141"/>
    </g>
   </g>
  </g>
 </g>
 <defs>
  <clipPath id="pcc4eb2afca">
   <rect x="29.68" y="26.88" width="823.52" height="311.09"/>
  </clipPath>
 </defs>
</svg>
