<?xml version="1.0" encoding="utf-8" standalone="no"?>
<!DOCTYPE svg PUBLIC "-//W3C//DTD SVG 1.1//EN"
  "http://www.w3.org/Graphics/SVG/1.1/DTD/svg11.dtd">
<svg xmlns:xlink="http://www.w3.org/1999/xlink" width="864pt" height="432pt" viewBox="0 0 864 432" xmlns="http://www.w3.org/2000/svg" version="1.1">
 <metadata>
  <rdf:RDF xmlns:dc="http://purl.org/dc/elements/1.1/" xmlns:cc="http://creativecommons.org/ns#" xmlns:rdf="http://www.w3.org/1999/02/22-rdf-syntax-ns#">
   <cc:Work>
    <dc:type rdf:resource="http://purl.org/dc/dcmitype/StillImage"/>
    <dc:date>2022-09-28T01:51:39.822683</dc:date>
    <dc:format>image/svg+xml</dc:format>
    <dc:creator>
     <cc:Agent>
      <dc:title>Matplotlib v3.5.1, https://matplotlib.org/</dc:title>
     </cc:Agent>
    </dc:creator>
   </cc:Work>
  </rdf:RDF>
 </metadata>
 <defs>
  <style type="text/css">*{stroke-linejoin: round; stroke-linecap: butt}</style>
 </defs>
 <g id="figure_1">
  <g id="patch_1">
   <path d="M 0 432 
L 864 432 
L 864 0 
L 0 0 
z
" style="fill: #ffffff"/>
  </g>
  <g id="axes_1">
   <g id="patch_2">
    <path d="M 29.68 337.97 
L 853.2 337.97 
L 853.2 26.88 
L 29.68 26.88 
z
" style="fill: #ffffff"/>
   </g>
   <g id="PolyCollection_1">
    <path d="M 111.842105 183.132023 
L 97.248804 183.132023 
L 97.287255 183.124881 
L 97.401397 183.117739 
L 97.587657 183.110598 
L 97.840293 183.103456 
L 98.151678 183.096315 
L 98.51269 183.089173 
L 98.913151 183.082031 
L 99.342304 183.07489 
L 99.789283 183.067748 
L 100.243565 183.060606 
L 100.695357 183.053465 
L 101.135921 183.046323 
L 101.55781 183.039181 
L 101.955014 183.03204 
L 102.32302 183.024898 
L 102.658789 183.017756 
L 102.960664 183.010615 
L 103.228231 183.003473 
L 103.462133 182.996331 
L 103.663865 182.98919 
L 103.835573 182.982048 
L 103.979845 182.974907 
L 104.099534 182.967765 
L 104.197591 182.960623 
L 104.276937 182.953482 
L 104.340364 182.94634 
L 104.390455 182.939198 
L 104.429544 182.932057 
L 104.459686 182.924915 
L 104.482657 182.917773 
L 104.499959 182.910632 
L 104.51284 182.90349 
L 104.52232 182.896348 
L 104.529217 182.889207 
L 104.534178 182.882065 
L 104.537705 182.874924 
L 104.540185 182.867782 
L 104.541909 182.86064 
L 104.543094 182.853499 
L 104.543899 182.846357 
L 104.544441 182.839215 
L 104.5448 182.832074 
L 104.545036 182.824932 
L 104.545189 182.81779 
L 104.545286 182.810649 
L 104.545346 182.803507 
L 104.545381 182.796365 
L 104.545397 182.789224 
L 104.545398 182.782082 
L 104.545383 182.774941 
L 104.54535 182.767799 
L 104.54529 182.760657 
L 104.545191 182.753516 
L 104.545031 182.746374 
L 104.544778 182.739232 
L 104.544384 182.732091 
L 104.543778 182.724949 
L 104.542855 182.717807 
L 104.541466 182.710666 
L 104.5394 182.703524 
L 104.53636 182.696382 
L 104.531938 182.689241 
L 104.525577 182.682099 
L 104.516529 182.674958 
L 104.503805 182.667816 
L 104.486113 182.660674 
L 104.461797 182.653533 
L 104.428755 182.646391 
L 104.384374 182.639249 
L 104.325452 182.632108 
L 104.248136 182.624966 
L 104.147872 182.617824 
L 104.019385 182.610683 
L 103.856692 182.603541 
L 103.653162 182.596399 
L 103.40164 182.589258 
L 103.094632 182.582116 
L 102.724563 182.574975 
L 102.284122 182.567833 
L 101.766666 182.560691 
L 101.166695 182.55355 
L 100.480368 182.546408 
L 99.706039 182.539266 
L 98.844772 182.532125 
L 97.900814 182.524983 
L 96.88196 182.517841 
L 95.799788 182.5107 
L 94.669713 182.503558 
L 93.510839 182.496416 
L 92.345578 182.489275 
L 91.199048 182.482133 
L 90.098245 182.474992 
L 89.071036 182.46785 
L 88.145018 182.460708 
L 87.346296 182.453567 
L 86.698271 182.446425 
L 86.2205 182.439283 
L 85.92772 182.432142 
L 85.829091 182.425 
L 123.261818 182.425 
L 123.261818 182.425 
L 123.163189 182.432142 
L 122.870409 182.439283 
L 122.392638 182.446425 
L 121.744613 182.453567 
L 120.945891 182.460708 
L 120.019873 182.46785 
L 118.992665 182.474992 
L 117.891861 182.482133 
L 116.745331 182.489275 
L 115.58007 182.496416 
L 114.421196 182.503558 
L 113.291121 182.5107 
L 112.208949 182.517841 
L 111.190095 182.524983 
L 110.246137 182.532125 
L 109.384871 182.539266 
L 108.610541 182.546408 
L 107.924214 182.55355 
L 107.324243 182.560691 
L 106.806787 182.567833 
L 106.366346 182.574975 
L 105.996278 182.582116 
L 105.689269 182.589258 
L 105.437747 182.596399 
L 105.234218 182.603541 
L 105.071524 182.610683 
L 104.943037 182.617824 
L 104.842773 182.624966 
L 104.765457 182.632108 
L 104.706535 182.639249 
L 104.662154 182.646391 
L 104.629113 182.653533 
L 104.604796 182.660674 
L 104.587105 182.667816 
L 104.57438 182.674958 
L 104.565332 182.682099 
L 104.558971 182.689241 
L 104.554549 182.696382 
L 104.551509 182.703524 
L 104.549443 182.710666 
L 104.548054 182.717807 
L 104.547132 182.724949 
L 104.546525 182.732091 
L 104.546131 182.739232 
L 104.545878 182.746374 
L 104.545718 182.753516 
L 104.545619 182.760657 
L 104.545559 182.767799 
L 104.545526 182.774941 
L 104.545511 182.782082 
L 104.545512 182.789224 
L 104.545528 182.796365 
L 104.545563 182.803507 
L 104.545623 182.810649 
L 104.54572 182.81779 
L 104.545873 182.824932 
L 104.546109 182.832074 
L 104.546468 182.839215 
L 104.54701 182.846357 
L 104.547815 182.853499 
L 104.549 182.86064 
L 104.550724 182.867782 
L 104.553204 182.874924 
L 104.556731 182.882065 
L 104.561692 182.889207 
L 104.568589 182.896348 
L 104.578069 182.90349 
L 104.59095 182.910632 
L 104.608252 182.917773 
L 104.631223 182.924915 
L 104.661365 182.932057 
L 104.700454 182.939198 
L 104.750545 182.94634 
L 104.813972 182.953482 
L 104.893318 182.960623 
L 104.991375 182.967765 
L 105.111064 182.974907 
L 105.255337 182.982048 
L 105.427044 182.98919 
L 105.628777 182.996331 
L 105.862678 183.003473 
L 106.130245 183.010615 
L 106.432121 183.017756 
L 106.767889 183.024898 
L 107.135895 183.03204 
L 107.533099 183.039181 
L 107.954988 183.046323 
L 108.395553 183.053465 
L 108.847344 183.060606 
L 109.301626 183.067748 
L 109.748605 183.07489 
L 110.177758 183.082031 
L 110.57822 183.089173 
L 110.939231 183.096315 
L 111.250616 183.103456 
L 111.503252 183.110598 
L 111.689513 183.117739 
L 111.803654 183.124881 
L 111.842105 183.132023 
z
" clip-path="url(#pff6436a723)" style="fill: #1f77b4; fill-opacity: 0.3"/>
   </g>
   <g id="PolyCollection_2">
    <path d="M 197.74264 183.132023 
L 161.079179 183.132023 
L 160.731014 181.782252 
L 160.694545 180.432481 
L 160.955566 179.082711 
L 161.482776 177.73294 
L 162.231384 176.383169 
L 163.147886 175.033399 
L 164.17536 173.683628 
L 165.258582 172.333857 
L 166.348363 170.984087 
L 167.404669 169.634316 
L 168.39832 168.284545 
L 169.311271 166.934775 
L 170.135684 165.585004 
L 170.872129 164.235233 
L 171.527309 162.885463 
L 172.111678 161.535692 
L 172.637281 160.185921 
L 173.116001 158.836151 
L 173.558343 157.48638 
L 173.972733 156.13661 
L 174.365279 154.786839 
L 174.739873 153.437068 
L 175.098503 152.087298 
L 175.441672 150.737527 
L 175.768806 149.387756 
L 176.078606 148.037986 
L 176.369292 146.688215 
L 176.638749 145.338444 
L 176.884565 143.988674 
L 177.103996 142.638903 
L 177.293884 141.289132 
L 177.450565 139.939362 
L 177.569803 138.589591 
L 177.646775 137.23982 
L 177.67617 135.89005 
L 177.652402 134.540279 
L 177.569982 133.190508 
L 177.424042 131.840738 
L 177.211014 130.490967 
L 176.929396 129.141196 
L 176.580564 127.791426 
L 176.169506 126.441655 
L 175.705378 125.091884 
L 175.20176 123.742114 
L 174.676499 122.392343 
L 174.151089 121.042572 
L 173.649566 119.692802 
L 173.196988 118.343031 
L 172.817615 116.99326 
L 172.532988 115.64349 
L 172.360116 114.293719 
L 172.309993 112.943948 
L 172.386639 111.594178 
L 172.586777 110.244407 
L 172.900199 108.894636 
L 173.310763 107.544866 
L 173.797889 106.195095 
L 174.338369 104.845324 
L 174.908259 103.495554 
L 175.48466 102.145783 
L 176.047199 100.796012 
L 176.579085 99.446242 
L 177.067713 98.096471 
L 177.504803 96.7467 
L 177.886151 95.39693 
L 178.211096 94.047159 
L 178.481796 92.697388 
L 178.70245 91.347618 
L 178.878531 89.997847 
L 179.016111 88.648076 
L 179.121312 87.298306 
L 179.199895 85.948535 
L 179.256974 84.598764 
L 179.296849 83.248994 
L 179.322914 81.899223 
L 179.337621 80.549452 
L 179.342474 79.199682 
L 179.33804 77.849911 
L 179.323961 76.50014 
L 179.298986 75.15037 
L 179.261016 73.800599 
L 179.207192 72.450829 
L 179.134057 71.101058 
L 179.03779 69.751287 
L 178.914552 68.401517 
L 178.76093 67.051746 
L 178.57447 65.701975 
L 178.35425 64.352205 
L 178.101443 63.002434 
L 177.819782 61.652663 
L 177.515844 60.302893 
L 177.199075 58.953122 
L 176.881489 57.603351 
L 176.577035 56.253581 
L 176.300647 54.90381 
L 176.067064 53.554039 
L 175.889545 52.204269 
L 175.778628 50.854498 
L 175.741102 49.504727 
L 183.080716 49.504727 
L 183.080716 49.504727 
L 183.04319 50.854498 
L 182.932273 52.204269 
L 182.754754 53.554039 
L 182.521171 54.90381 
L 182.244783 56.253581 
L 181.940329 57.603351 
L 181.622744 58.953122 
L 181.305974 60.302893 
L 181.002036 61.652663 
L 180.720375 63.002434 
L 180.467568 64.352205 
L 180.247348 65.701975 
L 180.060888 67.051746 
L 179.907267 68.401517 
L 179.784028 69.751287 
L 179.687761 71.101058 
L 179.614626 72.450829 
L 179.560802 73.800599 
L 179.522832 75.15037 
L 179.497857 76.50014 
L 179.483778 77.849911 
L 179.479344 79.199682 
L 179.484197 80.549452 
L 179.498904 81.899223 
L 179.524969 83.248994 
L 179.564844 84.598764 
L 179.621923 85.948535 
L 179.700506 87.298306 
L 179.805707 88.648076 
L 179.943287 89.997847 
L 180.119368 91.347618 
L 180.340022 92.697388 
L 180.610722 94.047159 
L 180.935667 95.39693 
L 181.317016 96.7467 
L 181.754105 98.096471 
L 182.242733 99.446242 
L 182.774619 100.796012 
L 183.337158 102.145783 
L 183.91356 103.495554 
L 184.48345 104.845324 
L 185.023929 106.195095 
L 185.511055 107.544866 
L 185.921619 108.894636 
L 186.235041 110.244407 
L 186.435179 111.594178 
L 186.511825 112.943948 
L 186.461702 114.293719 
L 186.28883 115.64349 
L 186.004203 116.99326 
L 185.62483 118.343031 
L 185.172252 119.692802 
L 184.670729 121.042572 
L 184.145319 122.392343 
L 183.620058 123.742114 
L 183.11644 125.091884 
L 182.652312 126.441655 
L 182.241254 127.791426 
L 181.892422 129.141196 
L 181.610804 130.490967 
L 181.397776 131.840738 
L 181.251837 133.190508 
L 181.169416 134.540279 
L 181.145648 135.89005 
L 181.175043 137.23982 
L 181.252015 138.589591 
L 181.371253 139.939362 
L 181.527935 141.289132 
L 181.717823 142.638903 
L 181.937253 143.988674 
L 182.183069 145.338444 
L 182.452527 146.688215 
L 182.743213 148.037986 
L 183.053012 149.387756 
L 183.380146 150.737527 
L 183.723315 152.087298 
L 184.081945 153.437068 
L 184.456539 154.786839 
L 184.849085 156.13661 
L 185.263476 157.48638 
L 185.705817 158.836151 
L 186.184537 160.185921 
L 186.71014 161.535692 
L 187.294509 162.885463 
L 187.949689 164.235233 
L 188.686134 165.585004 
L 189.510547 166.934775 
L 190.423498 168.284545 
L 191.41715 169.634316 
L 192.473455 170.984087 
L 193.563236 172.333857 
L 194.646458 173.683628 
L 195.673933 175.033399 
L 196.590435 176.383169 
L 197.339042 177.73294 
L 197.866252 179.082711 
L 198.127273 180.432481 
L 198.090804 181.782252 
L 197.74264 183.132023 
z
" clip-path="url(#pff6436a723)" style="fill: #1f77b4; fill-opacity: 0.3"/>
   </g>
   <g id="PolyCollection_3">
    <path d="M 254.355648 251.713227 
L 254.197079 251.713227 
L 254.18244 249.585017 
L 254.168286 247.456808 
L 254.154953 245.328598 
L 254.1424 243.200388 
L 254.130152 241.072178 
L 254.117323 238.943968 
L 254.102706 236.815758 
L 254.084913 234.687549 
L 254.062517 232.559339 
L 254.034157 230.431129 
L 253.998553 228.302919 
L 253.954368 226.174709 
L 253.89985 224.0465 
L 253.832168 221.91829 
L 253.746393 219.79008 
L 253.634117 217.66187 
L 253.481776 215.53366 
L 253.268915 213.40545 
L 252.966766 211.277241 
L 252.53776 209.149031 
L 251.936743 207.020821 
L 251.114811 204.892611 
L 250.02651 202.764401 
L 248.640636 200.636191 
L 246.95378 198.507982 
L 245.004193 196.379772 
L 242.881928 194.251562 
L 240.730284 192.123352 
L 238.734375 189.995142 
L 237.09565 187.866933 
L 235.99601 185.738723 
L 235.56 183.610513 
L 235.826168 181.482303 
L 236.737132 179.354093 
L 238.152285 177.225883 
L 239.879475 175.097674 
L 241.71566 172.969464 
L 243.484394 170.841254 
L 245.060515 168.713044 
L 246.378142 166.584834 
L 247.424064 164.456624 
L 248.222451 162.328415 
L 248.817446 160.200205 
L 249.258496 158.071995 
L 249.590529 155.943785 
L 249.848954 153.815575 
L 250.058294 151.687365 
L 250.233165 149.559156 
L 250.380634 147.430946 
L 250.503262 145.302736 
L 250.602244 143.174526 
L 250.680027 141.046316 
L 250.74178 138.918107 
L 250.795403 136.789897 
L 250.850171 134.661687 
L 250.914599 132.533477 
L 250.994409 130.405267 
L 251.09144 128.277057 
L 251.203922 126.148848 
L 251.328011 124.020638 
L 251.459915 121.892428 
L 251.597739 119.764218 
L 251.742286 117.636008 
L 251.896523 115.507798 
L 252.064 113.379589 
L 252.246892 111.251379 
L 252.444499 109.123169 
L 252.652722 106.994959 
L 252.864676 104.866749 
L 253.0721 102.738539 
L 253.267044 100.61033 
L 253.44329 98.48212 
L 253.597155 96.35391 
L 253.727604 94.2257 
L 253.835786 92.09749 
L 253.924258 89.969281 
L 253.996149 87.841071 
L 254.054485 85.712861 
L 254.101768 83.584651 
L 254.13983 81.456441 
L 254.169835 79.328231 
L 254.192311 77.200022 
L 254.207066 75.071812 
L 254.212908 72.943602 
L 254.20718 70.815392 
L 254.185247 68.687182 
L 254.140138 66.558972 
L 254.062684 64.430763 
L 253.942489 62.302553 
L 253.769979 60.174343 
L 253.539508 58.046133 
L 253.253002 55.917923 
L 252.923152 53.789713 
L 252.57477 51.661504 
L 252.24314 49.533294 
L 251.968879 47.405084 
L 251.790096 45.276874 
L 251.733832 43.148664 
L 251.809401 41.020455 
L 256.743327 41.020455 
L 256.743327 41.020455 
L 256.818896 43.148664 
L 256.762631 45.276874 
L 256.583848 47.405084 
L 256.309587 49.533294 
L 255.977957 51.661504 
L 255.629575 53.789713 
L 255.299725 55.917923 
L 255.01322 58.046133 
L 254.782748 60.174343 
L 254.610238 62.302553 
L 254.490043 64.430763 
L 254.41259 66.558972 
L 254.36748 68.687182 
L 254.345547 70.815392 
L 254.33982 72.943602 
L 254.345661 75.071812 
L 254.360416 77.200022 
L 254.382893 79.328231 
L 254.412897 81.456441 
L 254.450959 83.584651 
L 254.498243 85.712861 
L 254.556578 87.841071 
L 254.62847 89.969281 
L 254.716942 92.09749 
L 254.825124 94.2257 
L 254.955572 96.35391 
L 255.109438 98.48212 
L 255.285683 100.61033 
L 255.480627 102.738539 
L 255.688051 104.866749 
L 255.900005 106.994959 
L 256.108228 109.123169 
L 256.305835 111.251379 
L 256.488728 113.379589 
L 256.656204 115.507798 
L 256.810442 117.636008 
L 256.954988 119.764218 
L 257.092813 121.892428 
L 257.224717 124.020638 
L 257.348805 126.148848 
L 257.461287 128.277057 
L 257.558318 130.405267 
L 257.638129 132.533477 
L 257.702556 134.661687 
L 257.757324 136.789897 
L 257.810947 138.918107 
L 257.8727 141.046316 
L 257.950483 143.174526 
L 258.049466 145.302736 
L 258.172093 147.430946 
L 258.319562 149.559156 
L 258.494434 151.687365 
L 258.703773 153.815575 
L 258.962198 155.943785 
L 259.294231 158.071995 
L 259.735281 160.200205 
L 260.330277 162.328415 
L 261.128663 164.456624 
L 262.174585 166.584834 
L 263.492212 168.713044 
L 265.068333 170.841254 
L 266.837067 172.969464 
L 268.673252 175.097674 
L 270.400442 177.225883 
L 271.815596 179.354093 
L 272.726559 181.482303 
L 272.992727 183.610513 
L 272.556718 185.738723 
L 271.457077 187.866933 
L 269.818352 189.995142 
L 267.822443 192.123352 
L 265.6708 194.251562 
L 263.548535 196.379772 
L 261.598948 198.507982 
L 259.912091 200.636191 
L 258.526218 202.764401 
L 257.437916 204.892611 
L 256.615984 207.020821 
L 256.014967 209.149031 
L 255.585961 211.277241 
L 255.283812 213.40545 
L 255.070951 215.53366 
L 254.91861 217.66187 
L 254.806334 219.79008 
L 254.72056 221.91829 
L 254.652877 224.0465 
L 254.598359 226.174709 
L 254.554175 228.302919 
L 254.518571 230.431129 
L 254.490211 232.559339 
L 254.467815 234.687549 
L 254.450021 236.815758 
L 254.435404 238.943968 
L 254.422575 241.072178 
L 254.410328 243.200388 
L 254.397775 245.328598 
L 254.384441 247.456808 
L 254.370287 249.585017 
L 254.355648 251.713227 
z
" clip-path="url(#pff6436a723)" style="fill: #1f77b4; fill-opacity: 0.3"/>
   </g>
   <g id="PolyCollection_4">
    <path d="M 333.700171 318.880386 
L 324.583466 318.880386 
L 324.47012 316.11657 
L 324.515295 313.352754 
L 324.714402 310.588938 
L 325.047622 307.825122 
L 325.483124 305.061306 
L 325.982019 302.29749 
L 326.503973 299.533674 
L 327.01235 296.769857 
L 327.477996 294.006041 
L 327.881207 291.242225 
L 328.211872 288.478409 
L 328.468189 285.714593 
L 328.654543 282.950777 
L 328.779171 280.186961 
L 328.852097 277.423145 
L 328.883626 274.659329 
L 328.88347 271.895512 
L 328.860403 269.131696 
L 328.822266 266.36788 
L 328.776105 263.604064 
L 328.728281 260.840248 
L 328.68445 258.076432 
L 328.64939 255.312616 
L 328.626733 252.5488 
L 328.61866 249.784983 
L 328.625656 247.021167 
L 328.646363 244.257351 
L 328.677522 241.493535 
L 328.713955 238.729719 
L 328.748461 235.965903 
L 328.771537 233.202087 
L 328.770831 230.438271 
L 328.730355 227.674455 
L 328.6296 224.910638 
L 328.442857 222.146822 
L 328.139197 219.383006 
L 327.683626 216.61919 
L 327.039874 213.855374 
L 326.175027 211.091558 
L 325.065807 208.327742 
L 323.705702 205.563926 
L 322.111662 202.80011 
L 320.328648 200.036293 
L 318.430398 197.272477 
L 316.515293 194.508661 
L 314.697159 191.744845 
L 313.092109 188.981029 
L 311.803652 186.217213 
L 310.908964 183.453397 
L 310.449146 180.689581 
L 310.425455 177.925764 
L 310.802069 175.161948 
L 311.514425 172.398132 
L 312.480897 169.634316 
L 313.615059 166.8705 
L 314.835957 164.106684 
L 316.07472 161.342868 
L 317.276997 158.579052 
L 318.401852 155.815236 
L 319.418525 153.051419 
L 320.302735 150.287603 
L 321.034007 147.523787 
L 321.59493 144.759971 
L 321.972596 141.996155 
L 322.161729 139.232339 
L 322.168544 136.468523 
L 322.014062 133.704707 
L 321.735637 130.94089 
L 321.385789 128.177074 
L 321.027967 125.413258 
L 320.72963 122.649442 
L 320.553715 119.885626 
L 320.550036 117.12181 
L 320.748347 114.357994 
L 321.154467 111.594178 
L 321.750256 108.830362 
L 322.497351 106.066545 
L 323.343757 103.302729 
L 324.231859 100.538913 
L 325.106196 97.775097 
L 325.919624 95.011281 
L 326.636992 92.247465 
L 327.236119 89.483649 
L 327.70648 86.719833 
L 328.046378 83.956017 
L 328.259599 81.1922 
L 328.352425 78.428384 
L 328.331691 75.664568 
L 328.204219 72.900752 
L 327.977594 70.136936 
L 327.66193 67.37312 
L 327.272017 64.609304 
L 326.829084 61.845488 
L 326.36146 59.081671 
L 325.903613 56.317855 
L 325.49342 53.554039 
L 325.167973 50.790223 
L 324.958668 48.026407 
L 324.886595 45.262591 
L 333.397042 45.262591 
L 333.397042 45.262591 
L 333.324968 48.026407 
L 333.115664 50.790223 
L 332.790217 53.554039 
L 332.380024 56.317855 
L 331.922176 59.081671 
L 331.454552 61.845488 
L 331.011619 64.609304 
L 330.621707 67.37312 
L 330.306043 70.136936 
L 330.079417 72.900752 
L 329.951945 75.664568 
L 329.931212 78.428384 
L 330.024037 81.1922 
L 330.237258 83.956017 
L 330.577157 86.719833 
L 331.047517 89.483649 
L 331.646645 92.247465 
L 332.364012 95.011281 
L 333.177441 97.775097 
L 334.051778 100.538913 
L 334.939879 103.302729 
L 335.786285 106.066545 
L 336.53338 108.830362 
L 337.12917 111.594178 
L 337.53529 114.357994 
L 337.7336 117.12181 
L 337.729921 119.885626 
L 337.554006 122.649442 
L 337.25567 125.413258 
L 336.897847 128.177074 
L 336.547999 130.94089 
L 336.269575 133.704707 
L 336.115092 136.468523 
L 336.121907 139.232339 
L 336.31104 141.996155 
L 336.688706 144.759971 
L 337.24963 147.523787 
L 337.980901 150.287603 
L 338.865111 153.051419 
L 339.881784 155.815236 
L 341.006639 158.579052 
L 342.208916 161.342868 
L 343.447679 164.106684 
L 344.668577 166.8705 
L 345.802739 169.634316 
L 346.769212 172.398132 
L 347.481568 175.161948 
L 347.858182 177.925764 
L 347.83449 180.689581 
L 347.374673 183.453397 
L 346.479984 186.217213 
L 345.191528 188.981029 
L 343.586478 191.744845 
L 341.768344 194.508661 
L 339.853239 197.272477 
L 337.954989 200.036293 
L 336.171974 202.80011 
L 334.577934 205.563926 
L 333.21783 208.327742 
L 332.108609 211.091558 
L 331.243763 213.855374 
L 330.60001 216.61919 
L 330.14444 219.383006 
L 329.84078 222.146822 
L 329.654036 224.910638 
L 329.553281 227.674455 
L 329.512806 230.438271 
L 329.512099 233.202087 
L 329.535175 235.965903 
L 329.569681 238.729719 
L 329.606114 241.493535 
L 329.637274 244.257351 
L 329.65798 247.021167 
L 329.664976 249.784983 
L 329.656903 252.5488 
L 329.634246 255.312616 
L 329.599187 258.076432 
L 329.555355 260.840248 
L 329.507532 263.604064 
L 329.461371 266.36788 
L 329.423234 269.131696 
L 329.400167 271.895512 
L 329.400011 274.659329 
L 329.431539 277.423145 
L 329.504465 280.186961 
L 329.629093 282.950777 
L 329.815447 285.714593 
L 330.071764 288.478409 
L 330.402429 291.242225 
L 330.80564 294.006041 
L 331.271286 296.769857 
L 331.779663 299.533674 
L 332.301617 302.29749 
L 332.800513 305.061306 
L 333.236014 307.825122 
L 333.569234 310.588938 
L 333.768341 313.352754 
L 333.813517 316.11657 
L 333.700171 318.880386 
z
" clip-path="url(#pff6436a723)" style="fill: #1f77b4; fill-opacity: 0.3"/>
   </g>
   <g id="PolyCollection_5">
    <path d="M 422.381783 253.127273 
L 385.632762 253.127273 
L 385.335566 251.698944 
L 385.290909 250.270615 
L 385.497245 248.842287 
L 385.942263 247.413958 
L 386.603819 245.985629 
L 387.451539 244.5573 
L 388.448931 243.128972 
L 389.555815 241.700643 
L 390.730838 240.272314 
L 391.933857 238.843985 
L 393.128022 237.415657 
L 394.281393 235.987328 
L 395.368031 234.558999 
L 396.368532 233.13067 
L 397.270038 231.702342 
L 398.065795 230.274013 
L 398.754369 228.845684 
L 399.338626 227.417355 
L 399.824599 225.989027 
L 400.220332 224.560698 
L 400.534794 223.132369 
L 400.776907 221.70404 
L 400.954732 220.275712 
L 401.074827 218.847383 
L 401.141777 217.419054 
L 401.15789 215.990725 
L 401.123064 214.562397 
L 401.034795 213.134068 
L 400.888356 211.705739 
L 400.677122 210.27741 
L 400.393061 208.849082 
L 400.027378 207.420753 
L 399.571323 205.992424 
L 399.017127 204.564096 
L 398.359035 203.135767 
L 397.594388 201.707438 
L 396.724662 200.279109 
L 395.75639 198.850781 
L 394.701859 197.422452 
L 393.579471 195.994123 
L 392.413704 194.565794 
L 391.234592 193.137466 
L 390.07671 191.709137 
L 388.977686 190.280808 
L 387.97632 188.852479 
L 387.110423 187.424151 
L 386.414556 185.995822 
L 385.917841 184.567493 
L 385.642052 183.139164 
L 385.60015 181.710836 
L 385.795407 180.282507 
L 386.221197 178.854178 
L 386.861482 177.425849 
L 387.691931 175.997521 
L 388.681574 174.569192 
L 389.794819 173.140863 
L 390.993665 171.712534 
L 392.239901 170.284206 
L 393.497124 168.855877 
L 394.732426 167.427548 
L 395.91765 165.999219 
L 397.030155 164.570891 
L 398.053109 163.142562 
L 398.975324 161.714233 
L 399.79073 160.285904 
L 400.497567 158.857576 
L 401.097403 157.429247 
L 401.594081 156.000918 
L 401.992666 154.57259 
L 402.298496 153.144261 
L 402.516355 151.715932 
L 402.649837 150.287603 
L 402.700908 148.859275 
L 402.669686 147.430946 
L 402.554441 146.002617 
L 402.351813 144.574288 
L 402.057234 143.14596 
L 401.665546 141.717631 
L 401.171773 140.289302 
L 400.572025 138.860973 
L 399.864466 137.432645 
L 399.050286 136.004316 
L 398.134609 134.575987 
L 397.127228 133.147658 
L 396.043108 131.71933 
L 394.902558 130.291001 
L 393.731016 128.862672 
L 392.558428 127.434343 
L 391.418195 126.006015 
L 390.345749 124.577686 
L 389.376835 123.149357 
L 388.545597 121.721028 
L 387.882642 120.2927 
L 387.413202 118.864371 
L 387.155577 117.436042 
L 387.119977 116.007713 
L 387.30787 114.579385 
L 387.711901 113.151056 
L 388.316376 111.722727 
L 419.698169 111.722727 
L 419.698169 111.722727 
L 420.302645 113.151056 
L 420.706675 114.579385 
L 420.894568 116.007713 
L 420.858968 117.436042 
L 420.601343 118.864371 
L 420.131903 120.2927 
L 419.468948 121.721028 
L 418.637711 123.149357 
L 417.668796 124.577686 
L 416.596351 126.006015 
L 415.456118 127.434343 
L 414.28353 128.862672 
L 413.111988 130.291001 
L 411.971437 131.71933 
L 410.887317 133.147658 
L 409.879937 134.575987 
L 408.96426 136.004316 
L 408.15008 137.432645 
L 407.44252 138.860973 
L 406.842772 140.289302 
L 406.348999 141.717631 
L 405.957311 143.14596 
L 405.662733 144.574288 
L 405.460105 146.002617 
L 405.34486 147.430946 
L 405.313638 148.859275 
L 405.364709 150.287603 
L 405.498191 151.715932 
L 405.71605 153.144261 
L 406.021879 154.57259 
L 406.420465 156.000918 
L 406.917142 157.429247 
L 407.516979 158.857576 
L 408.223816 160.285904 
L 409.039222 161.714233 
L 409.961437 163.142562 
L 410.984391 164.570891 
L 412.096896 165.999219 
L 413.282119 167.427548 
L 414.517422 168.855877 
L 415.774645 170.284206 
L 417.02088 171.712534 
L 418.219726 173.140863 
L 419.332971 174.569192 
L 420.322614 175.997521 
L 421.153064 177.425849 
L 421.793349 178.854178 
L 422.219139 180.282507 
L 422.414395 181.710836 
L 422.372493 183.139164 
L 422.096705 184.567493 
L 421.59999 185.995822 
L 420.904122 187.424151 
L 420.038225 188.852479 
L 419.036859 190.280808 
L 417.937836 191.709137 
L 416.779954 193.137466 
L 415.600842 194.565794 
L 414.435075 195.994123 
L 413.312687 197.422452 
L 412.258155 198.850781 
L 411.289884 200.279109 
L 410.420158 201.707438 
L 409.65551 203.135767 
L 408.997419 204.564096 
L 408.443222 205.992424 
L 407.987168 207.420753 
L 407.621485 208.849082 
L 407.337423 210.27741 
L 407.12619 211.705739 
L 406.979751 213.134068 
L 406.891482 214.562397 
L 406.856655 215.990725 
L 406.872769 217.419054 
L 406.939719 218.847383 
L 407.059814 220.275712 
L 407.237639 221.70404 
L 407.479751 223.132369 
L 407.794213 224.560698 
L 408.189947 225.989027 
L 408.675919 227.417355 
L 409.260177 228.845684 
L 409.948751 230.274013 
L 410.744508 231.702342 
L 411.646014 233.13067 
L 412.646515 234.558999 
L 413.733152 235.987328 
L 414.886523 237.415657 
L 416.080688 238.843985 
L 417.283708 240.272314 
L 418.45873 241.700643 
L 419.565615 243.128972 
L 420.563006 244.5573 
L 421.410726 245.985629 
L 422.072282 247.413958 
L 422.5173 248.842287 
L 422.723636 250.270615 
L 422.67898 251.698944 
L 422.381783 253.127273 
z
" clip-path="url(#pff6436a723)" style="fill: #1f77b4; fill-opacity: 0.3"/>
   </g>
   <g id="PolyCollection_6">
    <path d="M 486.978561 267.97475 
L 470.766893 267.97475 
L 469.392554 266.246472 
L 467.971983 264.518194 
L 466.549066 262.789917 
L 465.173552 261.061639 
L 463.898192 259.333361 
L 462.775293 257.605083 
L 461.85299 255.876806 
L 461.17162 254.148528 
L 460.76059 252.42025 
L 460.636068 250.691972 
L 460.799785 248.963694 
L 461.239055 247.235417 
L 461.928017 245.507139 
L 462.829922 243.778861 
L 463.900201 242.050583 
L 465.089946 240.322306 
L 466.349437 238.594028 
L 467.63136 236.86575 
L 468.893426 235.137472 
L 470.100217 233.409194 
L 471.224192 231.680917 
L 472.245854 229.952639 
L 473.153218 228.224361 
L 473.940722 226.496083 
L 474.607766 224.767806 
L 475.157076 223.039528 
L 475.59304 221.31125 
L 475.920157 219.582972 
L 476.141701 217.854694 
L 476.258688 216.126417 
L 476.269194 214.398139 
L 476.168102 212.669861 
L 475.947314 210.941583 
L 475.596477 209.213306 
L 475.104236 207.485028 
L 474.459989 205.75675 
L 473.656069 204.028472 
L 472.690182 202.300194 
L 471.567874 200.571917 
L 470.304716 198.843639 
L 468.927848 197.115361 
L 467.476547 195.387083 
L 466.001546 193.658806 
L 464.562931 191.930528 
L 463.22667 190.20225 
L 462.05999 188.473972 
L 461.126042 186.745694 
L 460.478444 185.017417 
L 460.156364 183.289139 
L 460.180775 181.560861 
L 460.552396 179.832583 
L 461.25159 178.104306 
L 462.240249 176.376028 
L 463.465407 174.64775 
L 464.864081 172.919472 
L 466.368736 171.191194 
L 467.912672 169.462917 
L 469.434742 167.734639 
L 470.88294 166.006361 
L 472.216577 164.278083 
L 473.407023 162.549806 
L 474.43713 160.821528 
L 475.299637 159.09325 
L 475.994897 157.364972 
L 476.528314 155.636694 
L 476.907824 153.908417 
L 477.141694 152.180139 
L 477.236837 150.451861 
L 477.197744 148.723583 
L 477.026083 146.995306 
L 476.720934 145.267028 
L 476.279612 143.53875 
L 475.698955 141.810472 
L 474.976969 140.082194 
L 474.114651 138.353917 
L 473.117807 136.625639 
L 471.99868 134.897361 
L 470.77715 133.169083 
L 469.481331 131.440806 
L 468.147413 129.712528 
L 466.818639 127.98425 
L 465.543431 126.255972 
L 464.372755 124.527694 
L 463.356921 122.799417 
L 462.542104 121.071139 
L 461.966933 119.342861 
L 461.659501 117.614583 
L 461.635129 115.886306 
L 461.895134 114.158028 
L 462.426745 112.42975 
L 463.204166 110.701472 
L 464.190681 108.973194 
L 465.341541 107.244917 
L 466.607339 105.516639 
L 467.9375 103.788361 
L 469.283563 102.060083 
L 470.601963 100.331806 
L 471.856104 98.603528 
L 473.017632 96.87525 
L 484.727823 96.87525 
L 484.727823 96.87525 
L 485.889351 98.603528 
L 487.143492 100.331806 
L 488.461892 102.060083 
L 489.807955 103.788361 
L 491.138116 105.516639 
L 492.403913 107.244917 
L 493.554774 108.973194 
L 494.541288 110.701472 
L 495.31871 112.42975 
L 495.85032 114.158028 
L 496.110326 115.886306 
L 496.085954 117.614583 
L 495.778521 119.342861 
L 495.20335 121.071139 
L 494.388533 122.799417 
L 493.3727 124.527694 
L 492.202024 126.255972 
L 490.926816 127.98425 
L 489.598041 129.712528 
L 488.264123 131.440806 
L 486.968305 133.169083 
L 485.746774 134.897361 
L 484.627647 136.625639 
L 483.630804 138.353917 
L 482.768485 140.082194 
L 482.0465 141.810472 
L 481.465843 143.53875 
L 481.024521 145.267028 
L 480.719372 146.995306 
L 480.54771 148.723583 
L 480.508617 150.451861 
L 480.60376 152.180139 
L 480.837631 153.908417 
L 481.217141 155.636694 
L 481.750558 157.364972 
L 482.445818 159.09325 
L 483.308324 160.821528 
L 484.338432 162.549806 
L 485.528877 164.278083 
L 486.862515 166.006361 
L 488.310712 167.734639 
L 489.832783 169.462917 
L 491.376718 171.191194 
L 492.881373 172.919472 
L 494.280048 174.64775 
L 495.505205 176.376028 
L 496.493865 178.104306 
L 497.193058 179.832583 
L 497.564679 181.560861 
L 497.589091 183.289139 
L 497.267011 185.017417 
L 496.619413 186.745694 
L 495.685464 188.473972 
L 494.518784 190.20225 
L 493.182524 191.930528 
L 491.743909 193.658806 
L 490.268907 195.387083 
L 488.817607 197.115361 
L 487.440738 198.843639 
L 486.17758 200.571917 
L 485.055273 202.300194 
L 484.089385 204.028472 
L 483.285465 205.75675 
L 482.641219 207.485028 
L 482.148978 209.213306 
L 481.798141 210.941583 
L 481.577353 212.669861 
L 481.47626 214.398139 
L 481.486766 216.126417 
L 481.603753 217.854694 
L 481.825298 219.582972 
L 482.152414 221.31125 
L 482.588378 223.039528 
L 483.137688 224.767806 
L 483.804733 226.496083 
L 484.592236 228.224361 
L 485.499601 229.952639 
L 486.521262 231.680917 
L 487.645237 233.409194 
L 488.852029 235.137472 
L 490.114094 236.86575 
L 491.396017 238.594028 
L 492.655509 240.322306 
L 493.845254 242.050583 
L 494.915532 243.778861 
L 495.817438 245.507139 
L 496.5064 247.235417 
L 496.94567 248.963694 
L 497.109387 250.691972 
L 496.984865 252.42025 
L 496.573834 254.148528 
L 495.892465 255.876806 
L 494.970161 257.605083 
L 493.847262 259.333361 
L 492.571903 261.061639 
L 491.196389 262.789917 
L 489.773471 264.518194 
L 488.3529 266.246472 
L 486.978561 267.97475 
z
" clip-path="url(#pff6436a723)" style="fill: #1f77b4; fill-opacity: 0.3"/>
   </g>
   <g id="PolyCollection_7">
    <path d="M 571.672594 182.425 
L 535.80377 182.425 
L 535.255192 180.996671 
L 535.021818 179.568343 
L 535.101566 178.140014 
L 535.47352 176.711685 
L 536.100604 175.283356 
L 536.933801 173.855028 
L 537.917298 172.426699 
L 538.993851 170.99837 
L 540.109695 169.570041 
L 541.218428 168.141713 
L 542.283542 166.713384 
L 543.279493 165.285055 
L 544.191426 163.856726 
L 545.013841 162.428398 
L 545.748591 161.000069 
L 546.402604 159.57174 
L 546.985684 158.143411 
L 547.508638 156.715083 
L 547.981874 155.286754 
L 548.414502 153.858425 
L 548.813881 152.430096 
L 549.185508 151.001768 
L 549.533125 149.573439 
L 549.858932 148.14511 
L 550.163802 146.716781 
L 550.447458 145.288453 
L 550.70857 143.860124 
L 550.944804 142.431795 
L 551.152817 141.003466 
L 551.328261 139.575138 
L 551.465829 138.146809 
L 551.559382 136.71848 
L 551.602195 135.290152 
L 551.587352 133.861823 
L 551.508297 132.433494 
L 551.359542 131.005165 
L 551.137489 129.576837 
L 550.841319 128.148508 
L 550.473851 126.720179 
L 550.042259 125.29185 
L 549.558518 123.863522 
L 549.039464 122.435193 
L 548.506366 121.006864 
L 547.983964 119.578535 
L 547.499009 118.150207 
L 547.078386 116.721878 
L 546.747019 115.293549 
L 546.525765 113.86522 
L 546.429564 112.436892 
L 546.466088 111.008563 
L 546.635044 109.580234 
L 546.928262 108.151905 
L 547.330526 106.723577 
L 547.821055 105.295248 
L 548.375429 103.866919 
L 548.967719 102.43859 
L 549.572557 101.010262 
L 550.166942 99.581933 
L 550.731587 98.153604 
L 551.25175 96.725275 
L 551.71752 95.296947 
L 552.123639 93.868618 
L 552.468942 92.440289 
L 552.755573 91.011961 
L 552.988094 89.583632 
L 553.172604 88.155303 
L 553.315949 86.726974 
L 553.425082 85.298646 
L 553.50659 83.870317 
L 553.566373 82.441988 
L 553.609473 81.013659 
L 553.640004 79.585331 
L 553.66116 78.157002 
L 553.67526 76.728673 
L 553.683812 75.300344 
L 553.687571 73.872016 
L 553.686582 72.443687 
L 553.680195 71.015358 
L 553.66707 69.587029 
L 553.64517 68.158701 
L 553.611766 66.730372 
L 553.563482 65.302043 
L 553.496399 63.873714 
L 553.406258 62.445386 
L 553.288769 61.017057 
L 553.140043 59.588728 
L 552.957137 58.160399 
L 552.738655 56.732071 
L 552.485368 55.303742 
L 552.200742 53.875413 
L 551.891294 52.447084 
L 551.566666 51.018756 
L 551.239354 49.590427 
L 550.924055 48.162098 
L 550.636655 46.73377 
L 550.39295 45.305441 
L 550.207225 43.877112 
L 550.090876 42.448783 
L 550.051255 41.020455 
L 557.425109 41.020455 
L 557.425109 41.020455 
L 557.385487 42.448783 
L 557.269138 43.877112 
L 557.083413 45.305441 
L 556.839709 46.73377 
L 556.552309 48.162098 
L 556.237009 49.590427 
L 555.909697 51.018756 
L 555.585069 52.447084 
L 555.275621 53.875413 
L 554.990996 55.303742 
L 554.737708 56.732071 
L 554.519226 58.160399 
L 554.33632 59.588728 
L 554.187595 61.017057 
L 554.070106 62.445386 
L 553.979964 63.873714 
L 553.912881 65.302043 
L 553.864597 66.730372 
L 553.831193 68.158701 
L 553.809293 69.587029 
L 553.796169 71.015358 
L 553.789782 72.443687 
L 553.788792 73.872016 
L 553.792552 75.300344 
L 553.801104 76.728673 
L 553.815203 78.157002 
L 553.836359 79.585331 
L 553.866891 81.013659 
L 553.909991 82.441988 
L 553.969774 83.870317 
L 554.051281 85.298646 
L 554.160415 86.726974 
L 554.30376 88.155303 
L 554.488269 89.583632 
L 554.720791 91.011961 
L 555.007422 92.440289 
L 555.352724 93.868618 
L 555.758843 95.296947 
L 556.224614 96.725275 
L 556.744776 98.153604 
L 557.309421 99.581933 
L 557.903806 101.010262 
L 558.508645 102.43859 
L 559.100934 103.866919 
L 559.655309 105.295248 
L 560.145838 106.723577 
L 560.548102 108.151905 
L 560.84132 109.580234 
L 561.010276 111.008563 
L 561.046799 112.436892 
L 560.950599 113.86522 
L 560.729344 115.293549 
L 560.397977 116.721878 
L 559.977355 118.150207 
L 559.492399 119.578535 
L 558.969998 121.006864 
L 558.436899 122.435193 
L 557.917846 123.863522 
L 557.434105 125.29185 
L 557.002513 126.720179 
L 556.635045 128.148508 
L 556.338875 129.576837 
L 556.116822 131.005165 
L 555.968067 132.433494 
L 555.889012 133.861823 
L 555.874169 135.290152 
L 555.916982 136.71848 
L 556.010535 138.146809 
L 556.148103 139.575138 
L 556.323547 141.003466 
L 556.531559 142.431795 
L 556.767793 143.860124 
L 557.028906 145.288453 
L 557.312561 146.716781 
L 557.617432 148.14511 
L 557.943239 149.573439 
L 558.290856 151.001768 
L 558.662483 152.430096 
L 559.061862 153.858425 
L 559.49449 155.286754 
L 559.967726 156.715083 
L 560.49068 158.143411 
L 561.073759 159.57174 
L 561.727773 161.000069 
L 562.462523 162.428398 
L 563.284938 163.856726 
L 564.196871 165.285055 
L 565.192822 166.713384 
L 566.257936 168.141713 
L 567.366668 169.570041 
L 568.482512 170.99837 
L 569.559066 172.426699 
L 570.542563 173.855028 
L 571.37576 175.283356 
L 572.002844 176.711685 
L 572.374797 178.140014 
L 572.454545 179.568343 
L 572.221172 180.996671 
L 571.672594 182.425 
z
" clip-path="url(#pff6436a723)" style="fill: #1f77b4; fill-opacity: 0.3"/>
   </g>
   <g id="PolyCollection_8">
    <path d="M 628.651006 292.720545 
L 628.556267 292.720545 
L 628.552686 291.477899 
L 628.550563 290.235253 
L 628.54989 288.992607 
L 628.550483 287.749961 
L 628.55205 286.507315 
L 628.554279 285.264669 
L 628.556916 284.022023 
L 628.55981 282.779377 
L 628.562907 281.536731 
L 628.566197 280.294085 
L 628.569636 279.051439 
L 628.573065 277.808793 
L 628.576157 276.566147 
L 628.578382 275.323501 
L 628.578993 274.080855 
L 628.577004 272.838209 
L 628.571127 271.595563 
L 628.559635 270.352917 
L 628.540135 269.110271 
L 628.50922 267.867625 
L 628.462018 266.624979 
L 628.391636 265.382333 
L 628.288587 264.139687 
L 628.140322 262.897041 
L 627.931092 261.654395 
L 627.642447 260.411749 
L 627.254732 259.169103 
L 626.749852 257.926457 
L 626.115346 256.683811 
L 625.349389 255.441165 
L 624.465791 254.198519 
L 623.497637 252.955873 
L 622.498023 251.713227 
L 621.53673 250.470581 
L 620.692555 249.227935 
L 620.042264 247.985289 
L 619.648306 246.742643 
L 619.54808 245.499997 
L 619.747368 244.257351 
L 620.219532 243.014705 
L 620.910534 241.772059 
L 621.748342 240.529413 
L 622.654322 239.286767 
L 623.554022 238.044121 
L 624.385347 236.801475 
L 625.10315 235.558829 
L 625.68028 234.316183 
L 626.105917 233.073537 
L 626.382321 231.830891 
L 626.521077 230.588245 
L 626.539558 229.345599 
L 626.457995 228.102953 
L 626.297202 226.860307 
L 626.076833 225.617661 
L 625.814033 224.375015 
L 625.522405 223.132369 
L 625.211322 221.889723 
L 624.885674 220.647077 
L 624.546144 219.404431 
L 624.190002 218.161785 
L 623.812296 216.919139 
L 623.407244 215.676493 
L 622.969631 214.433847 
L 622.49611 213.191201 
L 621.986447 211.948555 
L 621.444787 210.705909 
L 620.880977 209.463263 
L 620.311735 208.220617 
L 619.761222 206.977971 
L 619.260377 205.735325 
L 618.844436 204.492679 
L 618.548332 203.250033 
L 618.400243 202.007387 
L 618.414119 200.764741 
L 618.582564 199.522095 
L 618.871695 198.279449 
L 619.219563 197.036803 
L 619.539417 195.794157 
L 619.728467 194.551511 
L 619.682026 193.308865 
L 619.3118 192.066219 
L 618.565749 190.823573 
L 617.445648 189.580927 
L 616.017612 188.338281 
L 614.411218 187.095635 
L 612.804849 185.852989 
L 611.398475 184.610343 
L 610.379116 183.367697 
L 609.887273 182.125051 
L 609.99304 180.882405 
L 610.687949 179.639759 
L 611.893718 178.397113 
L 613.48393 177.154467 
L 615.311325 175.911821 
L 617.232979 174.669175 
L 619.128 173.426529 
L 620.90595 172.183883 
L 622.507412 170.941237 
L 623.89982 169.698591 
L 633.307453 169.698591 
L 633.307453 169.698591 
L 634.699861 170.941237 
L 636.301323 172.183883 
L 638.079273 173.426529 
L 639.974294 174.669175 
L 641.895948 175.911821 
L 643.723343 177.154467 
L 645.313555 178.397113 
L 646.519323 179.639759 
L 647.214232 180.882405 
L 647.32 182.125051 
L 646.828157 183.367697 
L 645.808797 184.610343 
L 644.402424 185.852989 
L 642.796055 187.095635 
L 641.18966 188.338281 
L 639.761625 189.580927 
L 638.641524 190.823573 
L 637.895473 192.066219 
L 637.525247 193.308865 
L 637.478806 194.551511 
L 637.667855 195.794157 
L 637.987709 197.036803 
L 638.335578 198.279449 
L 638.624708 199.522095 
L 638.793153 200.764741 
L 638.807029 202.007387 
L 638.658941 203.250033 
L 638.362837 204.492679 
L 637.946896 205.735325 
L 637.446051 206.977971 
L 636.895538 208.220617 
L 636.326296 209.463263 
L 635.762486 210.705909 
L 635.220826 211.948555 
L 634.711162 213.191201 
L 634.237642 214.433847 
L 633.800029 215.676493 
L 633.394977 216.919139 
L 633.017271 218.161785 
L 632.661129 219.404431 
L 632.321599 220.647077 
L 631.995951 221.889723 
L 631.684867 223.132369 
L 631.393239 224.375015 
L 631.130439 225.617661 
L 630.91007 226.860307 
L 630.749278 228.102953 
L 630.667715 229.345599 
L 630.686195 230.588245 
L 630.824951 231.830891 
L 631.101356 233.073537 
L 631.526992 234.316183 
L 632.104123 235.558829 
L 632.821926 236.801475 
L 633.653251 238.044121 
L 634.55295 239.286767 
L 635.458931 240.529413 
L 636.296739 241.772059 
L 636.98774 243.014705 
L 637.459904 244.257351 
L 637.659193 245.499997 
L 637.558966 246.742643 
L 637.165009 247.985289 
L 636.514718 249.227935 
L 635.670543 250.470581 
L 634.70925 251.713227 
L 633.709636 252.955873 
L 632.741482 254.198519 
L 631.857884 255.441165 
L 631.091926 256.683811 
L 630.457421 257.926457 
L 629.952541 259.169103 
L 629.564826 260.411749 
L 629.276181 261.654395 
L 629.066951 262.897041 
L 628.918686 264.139687 
L 628.815637 265.382333 
L 628.745255 266.624979 
L 628.698052 267.867625 
L 628.667138 269.110271 
L 628.647638 270.352917 
L 628.636146 271.595563 
L 628.630269 272.838209 
L 628.62828 274.080855 
L 628.628891 275.323501 
L 628.631116 276.566147 
L 628.634208 277.808793 
L 628.637637 279.051439 
L 628.641075 280.294085 
L 628.644365 281.536731 
L 628.647463 282.779377 
L 628.650357 284.022023 
L 628.652994 285.264669 
L 628.655223 286.507315 
L 628.65679 287.749961 
L 628.657382 288.992607 
L 628.656709 290.235253 
L 628.654587 291.477899 
L 628.651006 292.720545 
z
" clip-path="url(#pff6436a723)" style="fill: #1f77b4; fill-opacity: 0.3"/>
   </g>
   <g id="PolyCollection_9">
    <path d="M 703.604462 270.095818 
L 703.333719 270.095818 
L 703.295012 269.081705 
L 703.246188 268.067591 
L 703.184693 267.053478 
L 703.107285 266.039365 
L 703.009841 265.025251 
L 702.887142 264.011138 
L 702.732697 262.997024 
L 702.538662 261.982911 
L 702.295957 260.968798 
L 701.994686 259.954684 
L 701.624954 258.940571 
L 701.178122 257.926457 
L 700.648479 256.912344 
L 700.035169 255.89823 
L 699.344127 254.884117 
L 698.589637 253.870004 
L 697.795121 252.85589 
L 696.99278 251.841777 
L 696.221862 250.827663 
L 695.525564 249.81355 
L 694.946848 248.799437 
L 694.52372 247.785323 
L 694.284677 246.77121 
L 694.245099 245.757096 
L 694.405196 244.742983 
L 694.749902 243.72887 
L 695.25071 242.714756 
L 695.869151 241.700643 
L 696.561276 240.686529 
L 697.282438 239.672416 
L 697.991627 238.658303 
L 698.654801 237.644189 
L 699.24688 236.630076 
L 699.752343 235.615962 
L 700.164585 234.601849 
L 700.484366 233.587736 
L 700.717746 232.573622 
L 700.873902 231.559509 
L 700.963133 230.545395 
L 700.995298 229.531282 
L 700.978794 228.517169 
L 700.920072 227.503055 
L 700.823655 226.488942 
L 700.69251 225.474828 
L 700.528631 224.460715 
L 700.333683 223.446601 
L 700.109555 222.432488 
L 699.858734 221.418375 
L 699.584435 220.404261 
L 699.290482 219.390148 
L 698.98099 218.376034 
L 698.659918 217.361921 
L 698.330607 216.347808 
L 697.995413 215.333694 
L 697.655536 214.319581 
L 697.311139 213.305467 
L 696.961755 212.291354 
L 696.60699 211.277241 
L 696.247417 210.263127 
L 695.88552 209.249014 
L 695.526513 208.2349 
L 695.178825 207.220787 
L 694.854082 206.206674 
L 694.566452 205.19256 
L 694.331321 204.178447 
L 694.163349 203.164333 
L 694.074083 202.15022 
L 694.069379 201.136107 
L 694.146972 200.121993 
L 694.294552 199.10788 
L 694.488701 198.093766 
L 694.695028 197.079653 
L 694.869733 196.065539 
L 694.962719 195.051426 
L 694.922225 194.037313 
L 694.700709 193.023199 
L 694.261475 192.009086 
L 693.585269 190.994972 
L 692.675838 189.980859 
L 691.563382 188.966746 
L 690.304908 187.952632 
L 688.980904 186.938519 
L 687.688288 185.924405 
L 686.53037 184.910292 
L 685.605202 183.896179 
L 684.994166 182.882065 
L 684.752727 181.867952 
L 684.904881 180.853838 
L 685.442103 179.839725 
L 686.326695 178.825612 
L 687.498562 177.811498 
L 688.883915 176.797385 
L 690.404225 175.783271 
L 691.984015 174.769158 
L 693.556596 173.755045 
L 695.067443 172.740931 
L 696.475443 171.726818 
L 697.752536 170.712704 
L 698.882373 169.698591 
L 708.055809 169.698591 
L 708.055809 169.698591 
L 709.185645 170.712704 
L 710.462739 171.726818 
L 711.870739 172.740931 
L 713.381586 173.755045 
L 714.954167 174.769158 
L 716.533957 175.783271 
L 718.054267 176.797385 
L 719.43962 177.811498 
L 720.611487 178.825612 
L 721.496079 179.839725 
L 722.033301 180.853838 
L 722.185455 181.867952 
L 721.944016 182.882065 
L 721.33298 183.896179 
L 720.407812 184.910292 
L 719.249894 185.924405 
L 717.957278 186.938519 
L 716.633274 187.952632 
L 715.3748 188.966746 
L 714.262344 189.980859 
L 713.352913 190.994972 
L 712.676707 192.009086 
L 712.237473 193.023199 
L 712.015956 194.037313 
L 711.975462 195.051426 
L 712.068449 196.065539 
L 712.243154 197.079653 
L 712.449481 198.093766 
L 712.64363 199.10788 
L 712.79121 200.121993 
L 712.868803 201.136107 
L 712.864099 202.15022 
L 712.774833 203.164333 
L 712.606861 204.178447 
L 712.37173 205.19256 
L 712.0841 206.206674 
L 711.759357 207.220787 
L 711.411669 208.2349 
L 711.052662 209.249014 
L 710.690765 210.263127 
L 710.331191 211.277241 
L 709.976426 212.291354 
L 709.627042 213.305467 
L 709.282645 214.319581 
L 708.942769 215.333694 
L 708.607574 216.347808 
L 708.278264 217.361921 
L 707.957192 218.376034 
L 707.6477 219.390148 
L 707.353747 220.404261 
L 707.079447 221.418375 
L 706.828626 222.432488 
L 706.604498 223.446601 
L 706.40955 224.460715 
L 706.245672 225.474828 
L 706.114527 226.488942 
L 706.01811 227.503055 
L 705.959388 228.517169 
L 705.942883 229.531282 
L 705.975049 230.545395 
L 706.06428 231.559509 
L 706.220435 232.573622 
L 706.453816 233.587736 
L 706.773597 234.601849 
L 707.185839 235.615962 
L 707.691302 236.630076 
L 708.283381 237.644189 
L 708.946555 238.658303 
L 709.655744 239.672416 
L 710.376906 240.686529 
L 711.069031 241.700643 
L 711.687471 242.714756 
L 712.18828 243.72887 
L 712.532986 244.742983 
L 712.693083 245.757096 
L 712.653505 246.77121 
L 712.414462 247.785323 
L 711.991334 248.799437 
L 711.412618 249.81355 
L 710.716319 250.827663 
L 709.945401 251.841777 
L 709.143061 252.85589 
L 708.348545 253.870004 
L 707.594055 254.884117 
L 706.903013 255.89823 
L 706.289703 256.912344 
L 705.76006 257.926457 
L 705.313228 258.940571 
L 704.943496 259.954684 
L 704.642225 260.968798 
L 704.399519 261.982911 
L 704.205484 262.997024 
L 704.05104 264.011138 
L 703.928341 265.025251 
L 703.830896 266.039365 
L 703.753489 267.053478 
L 703.691994 268.067591 
L 703.64317 269.081705 
L 703.604462 270.095818 
z
" clip-path="url(#pff6436a723)" style="fill: #1f77b4; fill-opacity: 0.3"/>
   </g>
   <g id="PolyCollection_10">
    <path d="M 788.260656 323.829545 
L 768.408435 323.829545 
L 768.29435 322.401217 
L 768.304894 320.972888 
L 768.439619 319.544559 
L 768.693469 318.11623 
L 769.057094 316.687902 
L 769.51741 315.259573 
L 770.058376 313.831244 
L 770.661907 312.402916 
L 771.308859 310.974587 
L 771.980011 309.546258 
L 772.656968 308.117929 
L 773.322935 306.689601 
L 773.963309 305.261272 
L 774.566077 303.832943 
L 775.122003 302.404614 
L 775.624625 300.976286 
L 776.070081 299.547957 
L 776.456805 298.119628 
L 776.785121 296.691299 
L 777.056797 295.262971 
L 777.27457 293.834642 
L 777.441701 292.406313 
L 777.561569 290.977984 
L 777.637334 289.549656 
L 777.671669 288.121327 
L 777.666588 286.692998 
L 777.623348 285.264669 
L 777.542443 283.836341 
L 777.423677 282.408012 
L 777.266311 280.979683 
L 777.069275 279.551354 
L 776.831439 278.123026 
L 776.551918 276.694697 
L 776.230417 275.266368 
L 775.867564 273.838039 
L 775.465238 272.409711 
L 775.026846 270.981382 
L 774.557534 269.553053 
L 774.064299 268.124725 
L 773.555988 266.696396 
L 773.043157 265.268067 
L 772.537801 263.839738 
L 772.052943 262.41141 
L 771.602111 260.983081 
L 771.198722 259.554752 
L 770.855422 258.126423 
L 770.58342 256.698095 
L 770.391869 255.269766 
L 770.28734 253.841437 
L 770.27344 252.413108 
L 770.35059 250.98478 
L 770.515994 249.556451 
L 770.7638 248.128122 
L 771.085436 246.699793 
L 771.47009 245.271465 
L 771.905304 243.843136 
L 772.377628 242.414807 
L 772.873281 240.986478 
L 773.378782 239.55815 
L 773.881494 238.129821 
L 774.370065 236.701492 
L 774.834721 235.273163 
L 775.267433 233.844835 
L 775.661929 232.416506 
L 776.013583 230.988177 
L 776.319192 229.559848 
L 776.576677 228.13152 
L 776.784721 226.703191 
L 776.94239 225.274862 
L 777.048754 223.846534 
L 777.102543 222.418205 
L 777.101861 220.989876 
L 777.043975 219.561547 
L 776.92521 218.133219 
L 776.740945 216.70489 
L 776.485742 215.276561 
L 776.153601 213.848232 
L 775.73834 212.419904 
L 775.234098 210.991575 
L 774.635939 209.563246 
L 773.940525 208.134917 
L 773.146833 206.706589 
L 772.256848 205.27826 
L 771.2762 203.849931 
L 770.214662 202.421602 
L 769.086468 200.993274 
L 767.910388 199.564945 
L 766.709521 198.136616 
L 765.510777 196.708287 
L 764.344055 195.279959 
L 763.241128 193.85163 
L 762.234303 192.423301 
L 761.354908 190.994972 
L 760.631726 189.566644 
L 760.089465 188.138315 
L 759.747382 186.709986 
L 759.618182 185.281657 
L 759.707247 183.853329 
L 760.012299 182.425 
L 796.656792 182.425 
L 796.656792 182.425 
L 796.961844 183.853329 
L 797.050909 185.281657 
L 796.921708 186.709986 
L 796.579626 188.138315 
L 796.037365 189.566644 
L 795.314183 190.994972 
L 794.434788 192.423301 
L 793.427963 193.85163 
L 792.325036 195.279959 
L 791.158314 196.708287 
L 789.95957 198.136616 
L 788.758703 199.564945 
L 787.582623 200.993274 
L 786.454429 202.421602 
L 785.392891 203.849931 
L 784.412242 205.27826 
L 783.522258 206.706589 
L 782.728566 208.134917 
L 782.033152 209.563246 
L 781.434993 210.991575 
L 780.930751 212.419904 
L 780.51549 213.848232 
L 780.183349 215.276561 
L 779.928146 216.70489 
L 779.743881 218.133219 
L 779.625116 219.561547 
L 779.56723 220.989876 
L 779.566548 222.418205 
L 779.620337 223.846534 
L 779.726701 225.274862 
L 779.88437 226.703191 
L 780.092414 228.13152 
L 780.349899 229.559848 
L 780.655508 230.988177 
L 781.007162 232.416506 
L 781.401658 233.844835 
L 781.83437 235.273163 
L 782.299026 236.701492 
L 782.787596 238.129821 
L 783.290309 239.55815 
L 783.79581 240.986478 
L 784.291463 242.414807 
L 784.763787 243.843136 
L 785.199001 245.271465 
L 785.583655 246.699793 
L 785.905291 248.128122 
L 786.153097 249.556451 
L 786.318501 250.98478 
L 786.395651 252.413108 
L 786.381751 253.841437 
L 786.277222 255.269766 
L 786.085671 256.698095 
L 785.813668 258.126423 
L 785.470369 259.554752 
L 785.06698 260.983081 
L 784.616148 262.41141 
L 784.13129 263.839738 
L 783.625934 265.268067 
L 783.113103 266.696396 
L 782.604792 268.124725 
L 782.111557 269.553053 
L 781.642245 270.981382 
L 781.203853 272.409711 
L 780.801526 273.838039 
L 780.438674 275.266368 
L 780.117173 276.694697 
L 779.837652 278.123026 
L 779.599815 279.551354 
L 779.40278 280.979683 
L 779.245414 282.408012 
L 779.126648 283.836341 
L 779.045743 285.264669 
L 779.002503 286.692998 
L 778.997422 288.121327 
L 779.031757 289.549656 
L 779.107522 290.977984 
L 779.22739 292.406313 
L 779.394521 293.834642 
L 779.612294 295.262971 
L 779.88397 296.691299 
L 780.212286 298.119628 
L 780.59901 299.547957 
L 781.044466 300.976286 
L 781.547088 302.404614 
L 782.103014 303.832943 
L 782.705782 305.261272 
L 783.346156 306.689601 
L 784.012123 308.117929 
L 784.68908 309.546258 
L 785.360232 310.974587 
L 786.007184 312.402916 
L 786.610715 313.831244 
L 787.151681 315.259573 
L 787.611997 316.687902 
L 787.975622 318.11623 
L 788.229472 319.544559 
L 788.364196 320.972888 
L 788.374741 322.401217 
L 788.260656 323.829545 
z
" clip-path="url(#pff6436a723)" style="fill: #1f77b4; fill-opacity: 0.3"/>
   </g>
   <g id="matplotlib.axis_1">
    <g id="xtick_1">
     <g id="line2d_1">
      <defs>
       <path id="m3f43252ee7" d="M 0 0 
L 0 3.5 
" style="stroke: #000000; stroke-width: 0.8"/>
      </defs>
      <g>
       <use xlink:href="#m3f43252ee7" x="104.545455" y="337.97" style="stroke: #000000; stroke-width: 0.8"/>
      </g>
     </g>
     <g id="text_1">
      <!-- Tit For Tat -->
      <g transform="translate(106.752955 384.15)rotate(-90)scale(0.08 -0.08)">
       <defs>
        <path id="DejaVuSans-54" d="M -19 4666 
L 3928 4666 
L 3928 4134 
L 2272 4134 
L 2272 0 
L 1638 0 
L 1638 4134 
L -19 4134 
L -19 4666 
z
" transform="scale(0.015625)"/>
        <path id="DejaVuSans-69" d="M 603 3500 
L 1178 3500 
L 1178 0 
L 603 0 
L 603 3500 
z
M 603 4863 
L 1178 4863 
L 1178 4134 
L 603 4134 
L 603 4863 
z
" transform="scale(0.015625)"/>
        <path id="DejaVuSans-74" d="M 1172 4494 
L 1172 3500 
L 2356 3500 
L 2356 3053 
L 1172 3053 
L 1172 1153 
Q 1172 725 1289 603 
Q 1406 481 1766 481 
L 2356 481 
L 2356 0 
L 1766 0 
Q 1100 0 847 248 
Q 594 497 594 1153 
L 594 3053 
L 172 3053 
L 172 3500 
L 594 3500 
L 594 4494 
L 1172 4494 
z
" transform="scale(0.015625)"/>
        <path id="DejaVuSans-20" transform="scale(0.015625)"/>
        <path id="DejaVuSans-46" d="M 628 4666 
L 3309 4666 
L 3309 4134 
L 1259 4134 
L 1259 2759 
L 3109 2759 
L 3109 2228 
L 1259 2228 
L 1259 0 
L 628 0 
L 628 4666 
z
" transform="scale(0.015625)"/>
        <path id="DejaVuSans-6f" d="M 1959 3097 
Q 1497 3097 1228 2736 
Q 959 2375 959 1747 
Q 959 1119 1226 758 
Q 1494 397 1959 397 
Q 2419 397 2687 759 
Q 2956 1122 2956 1747 
Q 2956 2369 2687 2733 
Q 2419 3097 1959 3097 
z
M 1959 3584 
Q 2709 3584 3137 3096 
Q 3566 2609 3566 1747 
Q 3566 888 3137 398 
Q 2709 -91 1959 -91 
Q 1206 -91 779 398 
Q 353 888 353 1747 
Q 353 2609 779 3096 
Q 1206 3584 1959 3584 
z
" transform="scale(0.015625)"/>
        <path id="DejaVuSans-72" d="M 2631 2963 
Q 2534 3019 2420 3045 
Q 2306 3072 2169 3072 
Q 1681 3072 1420 2755 
Q 1159 2438 1159 1844 
L 1159 0 
L 581 0 
L 581 3500 
L 1159 3500 
L 1159 2956 
Q 1341 3275 1631 3429 
Q 1922 3584 2338 3584 
Q 2397 3584 2469 3576 
Q 2541 3569 2628 3553 
L 2631 2963 
z
" transform="scale(0.015625)"/>
        <path id="DejaVuSans-61" d="M 2194 1759 
Q 1497 1759 1228 1600 
Q 959 1441 959 1056 
Q 959 750 1161 570 
Q 1363 391 1709 391 
Q 2188 391 2477 730 
Q 2766 1069 2766 1631 
L 2766 1759 
L 2194 1759 
z
M 3341 1997 
L 3341 0 
L 2766 0 
L 2766 531 
Q 2569 213 2275 61 
Q 1981 -91 1556 -91 
Q 1019 -91 701 211 
Q 384 513 384 1019 
Q 384 1609 779 1909 
Q 1175 2209 1959 2209 
L 2766 2209 
L 2766 2266 
Q 2766 2663 2505 2880 
Q 2244 3097 1772 3097 
Q 1472 3097 1187 3025 
Q 903 2953 641 2809 
L 641 3341 
Q 956 3463 1253 3523 
Q 1550 3584 1831 3584 
Q 2591 3584 2966 3190 
Q 3341 2797 3341 1997 
z
" transform="scale(0.015625)"/>
       </defs>
       <use xlink:href="#DejaVuSans-54"/>
       <use xlink:href="#DejaVuSans-69" x="57.958984"/>
       <use xlink:href="#DejaVuSans-74" x="85.742188"/>
       <use xlink:href="#DejaVuSans-20" x="124.951172"/>
       <use xlink:href="#DejaVuSans-46" x="156.738281"/>
       <use xlink:href="#DejaVuSans-6f" x="210.632812"/>
       <use xlink:href="#DejaVuSans-72" x="271.814453"/>
       <use xlink:href="#DejaVuSans-20" x="312.927734"/>
       <use xlink:href="#DejaVuSans-54" x="344.714844"/>
       <use xlink:href="#DejaVuSans-61" x="389.298828"/>
       <use xlink:href="#DejaVuSans-74" x="450.578125"/>
      </g>
     </g>
    </g>
    <g id="xtick_2">
     <g id="line2d_2">
      <g>
       <use xlink:href="#m3f43252ee7" x="179.410909" y="337.97" style="stroke: #000000; stroke-width: 0.8"/>
      </g>
     </g>
     <g id="text_2">
      <!-- Grudger -->
      <g transform="translate(181.618409 377.89625)rotate(-90)scale(0.08 -0.08)">
       <defs>
        <path id="DejaVuSans-47" d="M 3809 666 
L 3809 1919 
L 2778 1919 
L 2778 2438 
L 4434 2438 
L 4434 434 
Q 4069 175 3628 42 
Q 3188 -91 2688 -91 
Q 1594 -91 976 548 
Q 359 1188 359 2328 
Q 359 3472 976 4111 
Q 1594 4750 2688 4750 
Q 3144 4750 3555 4637 
Q 3966 4525 4313 4306 
L 4313 3634 
Q 3963 3931 3569 4081 
Q 3175 4231 2741 4231 
Q 1884 4231 1454 3753 
Q 1025 3275 1025 2328 
Q 1025 1384 1454 906 
Q 1884 428 2741 428 
Q 3075 428 3337 486 
Q 3600 544 3809 666 
z
" transform="scale(0.015625)"/>
        <path id="DejaVuSans-75" d="M 544 1381 
L 544 3500 
L 1119 3500 
L 1119 1403 
Q 1119 906 1312 657 
Q 1506 409 1894 409 
Q 2359 409 2629 706 
Q 2900 1003 2900 1516 
L 2900 3500 
L 3475 3500 
L 3475 0 
L 2900 0 
L 2900 538 
Q 2691 219 2414 64 
Q 2138 -91 1772 -91 
Q 1169 -91 856 284 
Q 544 659 544 1381 
z
M 1991 3584 
L 1991 3584 
z
" transform="scale(0.015625)"/>
        <path id="DejaVuSans-64" d="M 2906 2969 
L 2906 4863 
L 3481 4863 
L 3481 0 
L 2906 0 
L 2906 525 
Q 2725 213 2448 61 
Q 2172 -91 1784 -91 
Q 1150 -91 751 415 
Q 353 922 353 1747 
Q 353 2572 751 3078 
Q 1150 3584 1784 3584 
Q 2172 3584 2448 3432 
Q 2725 3281 2906 2969 
z
M 947 1747 
Q 947 1113 1208 752 
Q 1469 391 1925 391 
Q 2381 391 2643 752 
Q 2906 1113 2906 1747 
Q 2906 2381 2643 2742 
Q 2381 3103 1925 3103 
Q 1469 3103 1208 2742 
Q 947 2381 947 1747 
z
" transform="scale(0.015625)"/>
        <path id="DejaVuSans-67" d="M 2906 1791 
Q 2906 2416 2648 2759 
Q 2391 3103 1925 3103 
Q 1463 3103 1205 2759 
Q 947 2416 947 1791 
Q 947 1169 1205 825 
Q 1463 481 1925 481 
Q 2391 481 2648 825 
Q 2906 1169 2906 1791 
z
M 3481 434 
Q 3481 -459 3084 -895 
Q 2688 -1331 1869 -1331 
Q 1566 -1331 1297 -1286 
Q 1028 -1241 775 -1147 
L 775 -588 
Q 1028 -725 1275 -790 
Q 1522 -856 1778 -856 
Q 2344 -856 2625 -561 
Q 2906 -266 2906 331 
L 2906 616 
Q 2728 306 2450 153 
Q 2172 0 1784 0 
Q 1141 0 747 490 
Q 353 981 353 1791 
Q 353 2603 747 3093 
Q 1141 3584 1784 3584 
Q 2172 3584 2450 3431 
Q 2728 3278 2906 2969 
L 2906 3500 
L 3481 3500 
L 3481 434 
z
" transform="scale(0.015625)"/>
        <path id="DejaVuSans-65" d="M 3597 1894 
L 3597 1613 
L 953 1613 
Q 991 1019 1311 708 
Q 1631 397 2203 397 
Q 2534 397 2845 478 
Q 3156 559 3463 722 
L 3463 178 
Q 3153 47 2828 -22 
Q 2503 -91 2169 -91 
Q 1331 -91 842 396 
Q 353 884 353 1716 
Q 353 2575 817 3079 
Q 1281 3584 2069 3584 
Q 2775 3584 3186 3129 
Q 3597 2675 3597 1894 
z
M 3022 2063 
Q 3016 2534 2758 2815 
Q 2500 3097 2075 3097 
Q 1594 3097 1305 2825 
Q 1016 2553 972 2059 
L 3022 2063 
z
" transform="scale(0.015625)"/>
       </defs>
       <use xlink:href="#DejaVuSans-47"/>
       <use xlink:href="#DejaVuSans-72" x="77.490234"/>
       <use xlink:href="#DejaVuSans-75" x="118.603516"/>
       <use xlink:href="#DejaVuSans-64" x="181.982422"/>
       <use xlink:href="#DejaVuSans-67" x="245.458984"/>
       <use xlink:href="#DejaVuSans-65" x="308.935547"/>
       <use xlink:href="#DejaVuSans-72" x="370.458984"/>
      </g>
     </g>
    </g>
    <g id="xtick_3">
     <g id="line2d_3">
      <g>
       <use xlink:href="#m3f43252ee7" x="254.276364" y="337.97" style="stroke: #000000; stroke-width: 0.8"/>
      </g>
     </g>
     <g id="text_3">
      <!-- Deep QLearner -->
      <g transform="translate(256.483864 405.46625)rotate(-90)scale(0.08 -0.08)">
       <defs>
        <path id="DejaVuSans-44" d="M 1259 4147 
L 1259 519 
L 2022 519 
Q 2988 519 3436 956 
Q 3884 1394 3884 2338 
Q 3884 3275 3436 3711 
Q 2988 4147 2022 4147 
L 1259 4147 
z
M 628 4666 
L 1925 4666 
Q 3281 4666 3915 4102 
Q 4550 3538 4550 2338 
Q 4550 1131 3912 565 
Q 3275 0 1925 0 
L 628 0 
L 628 4666 
z
" transform="scale(0.015625)"/>
        <path id="DejaVuSans-70" d="M 1159 525 
L 1159 -1331 
L 581 -1331 
L 581 3500 
L 1159 3500 
L 1159 2969 
Q 1341 3281 1617 3432 
Q 1894 3584 2278 3584 
Q 2916 3584 3314 3078 
Q 3713 2572 3713 1747 
Q 3713 922 3314 415 
Q 2916 -91 2278 -91 
Q 1894 -91 1617 61 
Q 1341 213 1159 525 
z
M 3116 1747 
Q 3116 2381 2855 2742 
Q 2594 3103 2138 3103 
Q 1681 3103 1420 2742 
Q 1159 2381 1159 1747 
Q 1159 1113 1420 752 
Q 1681 391 2138 391 
Q 2594 391 2855 752 
Q 3116 1113 3116 1747 
z
" transform="scale(0.015625)"/>
        <path id="DejaVuSans-51" d="M 2522 4238 
Q 1834 4238 1429 3725 
Q 1025 3213 1025 2328 
Q 1025 1447 1429 934 
Q 1834 422 2522 422 
Q 3209 422 3611 934 
Q 4013 1447 4013 2328 
Q 4013 3213 3611 3725 
Q 3209 4238 2522 4238 
z
M 3406 84 
L 4238 -825 
L 3475 -825 
L 2784 -78 
Q 2681 -84 2626 -87 
Q 2572 -91 2522 -91 
Q 1538 -91 948 567 
Q 359 1225 359 2328 
Q 359 3434 948 4092 
Q 1538 4750 2522 4750 
Q 3503 4750 4090 4092 
Q 4678 3434 4678 2328 
Q 4678 1516 4351 937 
Q 4025 359 3406 84 
z
" transform="scale(0.015625)"/>
        <path id="DejaVuSans-4c" d="M 628 4666 
L 1259 4666 
L 1259 531 
L 3531 531 
L 3531 0 
L 628 0 
L 628 4666 
z
" transform="scale(0.015625)"/>
        <path id="DejaVuSans-6e" d="M 3513 2113 
L 3513 0 
L 2938 0 
L 2938 2094 
Q 2938 2591 2744 2837 
Q 2550 3084 2163 3084 
Q 1697 3084 1428 2787 
Q 1159 2491 1159 1978 
L 1159 0 
L 581 0 
L 581 3500 
L 1159 3500 
L 1159 2956 
Q 1366 3272 1645 3428 
Q 1925 3584 2291 3584 
Q 2894 3584 3203 3211 
Q 3513 2838 3513 2113 
z
" transform="scale(0.015625)"/>
       </defs>
       <use xlink:href="#DejaVuSans-44"/>
       <use xlink:href="#DejaVuSans-65" x="77.001953"/>
       <use xlink:href="#DejaVuSans-65" x="138.525391"/>
       <use xlink:href="#DejaVuSans-70" x="200.048828"/>
       <use xlink:href="#DejaVuSans-20" x="263.525391"/>
       <use xlink:href="#DejaVuSans-51" x="295.3125"/>
       <use xlink:href="#DejaVuSans-4c" x="374.023438"/>
       <use xlink:href="#DejaVuSans-65" x="427.986328"/>
       <use xlink:href="#DejaVuSans-61" x="489.509766"/>
       <use xlink:href="#DejaVuSans-72" x="550.789062"/>
       <use xlink:href="#DejaVuSans-6e" x="590.152344"/>
       <use xlink:href="#DejaVuSans-65" x="653.53125"/>
       <use xlink:href="#DejaVuSans-72" x="715.054688"/>
      </g>
     </g>
    </g>
    <g id="xtick_4">
     <g id="line2d_4">
      <g>
       <use xlink:href="#m3f43252ee7" x="329.141818" y="337.97" style="stroke: #000000; stroke-width: 0.8"/>
      </g>
     </g>
     <g id="text_4">
      <!-- Adaptive -->
      <g transform="translate(331.349318 380.37875)rotate(-90)scale(0.08 -0.08)">
       <defs>
        <path id="DejaVuSans-41" d="M 2188 4044 
L 1331 1722 
L 3047 1722 
L 2188 4044 
z
M 1831 4666 
L 2547 4666 
L 4325 0 
L 3669 0 
L 3244 1197 
L 1141 1197 
L 716 0 
L 50 0 
L 1831 4666 
z
" transform="scale(0.015625)"/>
        <path id="DejaVuSans-76" d="M 191 3500 
L 800 3500 
L 1894 563 
L 2988 3500 
L 3597 3500 
L 2284 0 
L 1503 0 
L 191 3500 
z
" transform="scale(0.015625)"/>
       </defs>
       <use xlink:href="#DejaVuSans-41"/>
       <use xlink:href="#DejaVuSans-64" x="66.658203"/>
       <use xlink:href="#DejaVuSans-61" x="130.134766"/>
       <use xlink:href="#DejaVuSans-70" x="191.414062"/>
       <use xlink:href="#DejaVuSans-74" x="254.890625"/>
       <use xlink:href="#DejaVuSans-69" x="294.099609"/>
       <use xlink:href="#DejaVuSans-76" x="321.882812"/>
       <use xlink:href="#DejaVuSans-65" x="381.0625"/>
      </g>
     </g>
    </g>
    <g id="xtick_5">
     <g id="line2d_5">
      <g>
       <use xlink:href="#m3f43252ee7" x="404.007273" y="337.97" style="stroke: #000000; stroke-width: 0.8"/>
      </g>
     </g>
     <g id="text_5">
      <!-- Alternator -->
      <g transform="translate(406.214773 385.165)rotate(-90)scale(0.08 -0.08)">
       <defs>
        <path id="DejaVuSans-6c" d="M 603 4863 
L 1178 4863 
L 1178 0 
L 603 0 
L 603 4863 
z
" transform="scale(0.015625)"/>
       </defs>
       <use xlink:href="#DejaVuSans-41"/>
       <use xlink:href="#DejaVuSans-6c" x="68.408203"/>
       <use xlink:href="#DejaVuSans-74" x="96.191406"/>
       <use xlink:href="#DejaVuSans-65" x="135.400391"/>
       <use xlink:href="#DejaVuSans-72" x="196.923828"/>
       <use xlink:href="#DejaVuSans-6e" x="236.287109"/>
       <use xlink:href="#DejaVuSans-61" x="299.666016"/>
       <use xlink:href="#DejaVuSans-74" x="360.945312"/>
       <use xlink:href="#DejaVuSans-6f" x="400.154297"/>
       <use xlink:href="#DejaVuSans-72" x="461.335938"/>
      </g>
     </g>
    </g>
    <g id="xtick_6">
     <g id="line2d_6">
      <g>
       <use xlink:href="#m3f43252ee7" x="478.872727" y="337.97" style="stroke: #000000; stroke-width: 0.8"/>
      </g>
     </g>
     <g id="text_6">
      <!-- Random: 0.5 -->
      <g transform="translate(481.080227 396.0475)rotate(-90)scale(0.08 -0.08)">
       <defs>
        <path id="DejaVuSans-52" d="M 2841 2188 
Q 3044 2119 3236 1894 
Q 3428 1669 3622 1275 
L 4263 0 
L 3584 0 
L 2988 1197 
Q 2756 1666 2539 1819 
Q 2322 1972 1947 1972 
L 1259 1972 
L 1259 0 
L 628 0 
L 628 4666 
L 2053 4666 
Q 2853 4666 3247 4331 
Q 3641 3997 3641 3322 
Q 3641 2881 3436 2590 
Q 3231 2300 2841 2188 
z
M 1259 4147 
L 1259 2491 
L 2053 2491 
Q 2509 2491 2742 2702 
Q 2975 2913 2975 3322 
Q 2975 3731 2742 3939 
Q 2509 4147 2053 4147 
L 1259 4147 
z
" transform="scale(0.015625)"/>
        <path id="DejaVuSans-6d" d="M 3328 2828 
Q 3544 3216 3844 3400 
Q 4144 3584 4550 3584 
Q 5097 3584 5394 3201 
Q 5691 2819 5691 2113 
L 5691 0 
L 5113 0 
L 5113 2094 
Q 5113 2597 4934 2840 
Q 4756 3084 4391 3084 
Q 3944 3084 3684 2787 
Q 3425 2491 3425 1978 
L 3425 0 
L 2847 0 
L 2847 2094 
Q 2847 2600 2669 2842 
Q 2491 3084 2119 3084 
Q 1678 3084 1418 2786 
Q 1159 2488 1159 1978 
L 1159 0 
L 581 0 
L 581 3500 
L 1159 3500 
L 1159 2956 
Q 1356 3278 1631 3431 
Q 1906 3584 2284 3584 
Q 2666 3584 2933 3390 
Q 3200 3197 3328 2828 
z
" transform="scale(0.015625)"/>
        <path id="DejaVuSans-3a" d="M 750 794 
L 1409 794 
L 1409 0 
L 750 0 
L 750 794 
z
M 750 3309 
L 1409 3309 
L 1409 2516 
L 750 2516 
L 750 3309 
z
" transform="scale(0.015625)"/>
        <path id="DejaVuSans-30" d="M 2034 4250 
Q 1547 4250 1301 3770 
Q 1056 3291 1056 2328 
Q 1056 1369 1301 889 
Q 1547 409 2034 409 
Q 2525 409 2770 889 
Q 3016 1369 3016 2328 
Q 3016 3291 2770 3770 
Q 2525 4250 2034 4250 
z
M 2034 4750 
Q 2819 4750 3233 4129 
Q 3647 3509 3647 2328 
Q 3647 1150 3233 529 
Q 2819 -91 2034 -91 
Q 1250 -91 836 529 
Q 422 1150 422 2328 
Q 422 3509 836 4129 
Q 1250 4750 2034 4750 
z
" transform="scale(0.015625)"/>
        <path id="DejaVuSans-2e" d="M 684 794 
L 1344 794 
L 1344 0 
L 684 0 
L 684 794 
z
" transform="scale(0.015625)"/>
        <path id="DejaVuSans-35" d="M 691 4666 
L 3169 4666 
L 3169 4134 
L 1269 4134 
L 1269 2991 
Q 1406 3038 1543 3061 
Q 1681 3084 1819 3084 
Q 2600 3084 3056 2656 
Q 3513 2228 3513 1497 
Q 3513 744 3044 326 
Q 2575 -91 1722 -91 
Q 1428 -91 1123 -41 
Q 819 9 494 109 
L 494 744 
Q 775 591 1075 516 
Q 1375 441 1709 441 
Q 2250 441 2565 725 
Q 2881 1009 2881 1497 
Q 2881 1984 2565 2268 
Q 2250 2553 1709 2553 
Q 1456 2553 1204 2497 
Q 953 2441 691 2322 
L 691 4666 
z
" transform="scale(0.015625)"/>
       </defs>
       <use xlink:href="#DejaVuSans-52"/>
       <use xlink:href="#DejaVuSans-61" x="67.232422"/>
       <use xlink:href="#DejaVuSans-6e" x="128.511719"/>
       <use xlink:href="#DejaVuSans-64" x="191.890625"/>
       <use xlink:href="#DejaVuSans-6f" x="255.367188"/>
       <use xlink:href="#DejaVuSans-6d" x="316.548828"/>
       <use xlink:href="#DejaVuSans-3a" x="413.960938"/>
       <use xlink:href="#DejaVuSans-20" x="447.652344"/>
       <use xlink:href="#DejaVuSans-30" x="479.439453"/>
       <use xlink:href="#DejaVuSans-2e" x="543.0625"/>
       <use xlink:href="#DejaVuSans-35" x="574.849609"/>
      </g>
     </g>
    </g>
    <g id="xtick_7">
     <g id="line2d_7">
      <g>
       <use xlink:href="#m3f43252ee7" x="553.738182" y="337.97" style="stroke: #000000; stroke-width: 0.8"/>
      </g>
     </g>
     <g id="text_7">
      <!-- Defector -->
      <g transform="translate(555.945682 379.51)rotate(-90)scale(0.08 -0.08)">
       <defs>
        <path id="DejaVuSans-66" d="M 2375 4863 
L 2375 4384 
L 1825 4384 
Q 1516 4384 1395 4259 
Q 1275 4134 1275 3809 
L 1275 3500 
L 2222 3500 
L 2222 3053 
L 1275 3053 
L 1275 0 
L 697 0 
L 697 3053 
L 147 3053 
L 147 3500 
L 697 3500 
L 697 3744 
Q 697 4328 969 4595 
Q 1241 4863 1831 4863 
L 2375 4863 
z
" transform="scale(0.015625)"/>
        <path id="DejaVuSans-63" d="M 3122 3366 
L 3122 2828 
Q 2878 2963 2633 3030 
Q 2388 3097 2138 3097 
Q 1578 3097 1268 2742 
Q 959 2388 959 1747 
Q 959 1106 1268 751 
Q 1578 397 2138 397 
Q 2388 397 2633 464 
Q 2878 531 3122 666 
L 3122 134 
Q 2881 22 2623 -34 
Q 2366 -91 2075 -91 
Q 1284 -91 818 406 
Q 353 903 353 1747 
Q 353 2603 823 3093 
Q 1294 3584 2113 3584 
Q 2378 3584 2631 3529 
Q 2884 3475 3122 3366 
z
" transform="scale(0.015625)"/>
       </defs>
       <use xlink:href="#DejaVuSans-44"/>
       <use xlink:href="#DejaVuSans-65" x="77.001953"/>
       <use xlink:href="#DejaVuSans-66" x="138.525391"/>
       <use xlink:href="#DejaVuSans-65" x="173.730469"/>
       <use xlink:href="#DejaVuSans-63" x="235.253906"/>
       <use xlink:href="#DejaVuSans-74" x="290.234375"/>
       <use xlink:href="#DejaVuSans-6f" x="329.443359"/>
       <use xlink:href="#DejaVuSans-72" x="390.625"/>
      </g>
     </g>
    </g>
    <g id="xtick_8">
     <g id="line2d_8">
      <g>
       <use xlink:href="#m3f43252ee7" x="628.603636" y="337.97" style="stroke: #000000; stroke-width: 0.8"/>
      </g>
     </g>
     <g id="text_8">
      <!-- Mediocre QLearner -->
      <g transform="translate(630.811136 420.83375)rotate(-90)scale(0.08 -0.08)">
       <defs>
        <path id="DejaVuSans-4d" d="M 628 4666 
L 1569 4666 
L 2759 1491 
L 3956 4666 
L 4897 4666 
L 4897 0 
L 4281 0 
L 4281 4097 
L 3078 897 
L 2444 897 
L 1241 4097 
L 1241 0 
L 628 0 
L 628 4666 
z
" transform="scale(0.015625)"/>
       </defs>
       <use xlink:href="#DejaVuSans-4d"/>
       <use xlink:href="#DejaVuSans-65" x="86.279297"/>
       <use xlink:href="#DejaVuSans-64" x="147.802734"/>
       <use xlink:href="#DejaVuSans-69" x="211.279297"/>
       <use xlink:href="#DejaVuSans-6f" x="239.0625"/>
       <use xlink:href="#DejaVuSans-63" x="300.244141"/>
       <use xlink:href="#DejaVuSans-72" x="355.224609"/>
       <use xlink:href="#DejaVuSans-65" x="394.087891"/>
       <use xlink:href="#DejaVuSans-20" x="455.611328"/>
       <use xlink:href="#DejaVuSans-51" x="487.398438"/>
       <use xlink:href="#DejaVuSans-4c" x="566.109375"/>
       <use xlink:href="#DejaVuSans-65" x="620.072266"/>
       <use xlink:href="#DejaVuSans-61" x="681.595703"/>
       <use xlink:href="#DejaVuSans-72" x="742.875"/>
       <use xlink:href="#DejaVuSans-6e" x="782.238281"/>
       <use xlink:href="#DejaVuSans-65" x="845.617188"/>
       <use xlink:href="#DejaVuSans-72" x="907.140625"/>
      </g>
     </g>
    </g>
    <g id="xtick_9">
     <g id="line2d_9">
      <g>
       <use xlink:href="#m3f43252ee7" x="703.469091" y="337.97" style="stroke: #000000; stroke-width: 0.8"/>
      </g>
     </g>
     <g id="text_9">
      <!-- Risky QLearner -->
      <g transform="translate(705.676591 405.40875)rotate(-90)scale(0.08 -0.08)">
       <defs>
        <path id="DejaVuSans-73" d="M 2834 3397 
L 2834 2853 
Q 2591 2978 2328 3040 
Q 2066 3103 1784 3103 
Q 1356 3103 1142 2972 
Q 928 2841 928 2578 
Q 928 2378 1081 2264 
Q 1234 2150 1697 2047 
L 1894 2003 
Q 2506 1872 2764 1633 
Q 3022 1394 3022 966 
Q 3022 478 2636 193 
Q 2250 -91 1575 -91 
Q 1294 -91 989 -36 
Q 684 19 347 128 
L 347 722 
Q 666 556 975 473 
Q 1284 391 1588 391 
Q 1994 391 2212 530 
Q 2431 669 2431 922 
Q 2431 1156 2273 1281 
Q 2116 1406 1581 1522 
L 1381 1569 
Q 847 1681 609 1914 
Q 372 2147 372 2553 
Q 372 3047 722 3315 
Q 1072 3584 1716 3584 
Q 2034 3584 2315 3537 
Q 2597 3491 2834 3397 
z
" transform="scale(0.015625)"/>
        <path id="DejaVuSans-6b" d="M 581 4863 
L 1159 4863 
L 1159 1991 
L 2875 3500 
L 3609 3500 
L 1753 1863 
L 3688 0 
L 2938 0 
L 1159 1709 
L 1159 0 
L 581 0 
L 581 4863 
z
" transform="scale(0.015625)"/>
        <path id="DejaVuSans-79" d="M 2059 -325 
Q 1816 -950 1584 -1140 
Q 1353 -1331 966 -1331 
L 506 -1331 
L 506 -850 
L 844 -850 
Q 1081 -850 1212 -737 
Q 1344 -625 1503 -206 
L 1606 56 
L 191 3500 
L 800 3500 
L 1894 763 
L 2988 3500 
L 3597 3500 
L 2059 -325 
z
" transform="scale(0.015625)"/>
       </defs>
       <use xlink:href="#DejaVuSans-52"/>
       <use xlink:href="#DejaVuSans-69" x="69.482422"/>
       <use xlink:href="#DejaVuSans-73" x="97.265625"/>
       <use xlink:href="#DejaVuSans-6b" x="149.365234"/>
       <use xlink:href="#DejaVuSans-79" x="203.650391"/>
       <use xlink:href="#DejaVuSans-20" x="262.830078"/>
       <use xlink:href="#DejaVuSans-51" x="294.617188"/>
       <use xlink:href="#DejaVuSans-4c" x="373.328125"/>
       <use xlink:href="#DejaVuSans-65" x="427.291016"/>
       <use xlink:href="#DejaVuSans-61" x="488.814453"/>
       <use xlink:href="#DejaVuSans-72" x="550.09375"/>
       <use xlink:href="#DejaVuSans-6e" x="589.457031"/>
       <use xlink:href="#DejaVuSans-65" x="652.835938"/>
       <use xlink:href="#DejaVuSans-72" x="714.359375"/>
      </g>
     </g>
    </g>
    <g id="xtick_10">
     <g id="line2d_10">
      <g>
       <use xlink:href="#m3f43252ee7" x="778.334545" y="337.97" style="stroke: #000000; stroke-width: 0.8"/>
      </g>
     </g>
     <g id="text_10">
      <!-- Cooperator -->
      <g transform="translate(780.542045 389.85875)rotate(-90)scale(0.08 -0.08)">
       <defs>
        <path id="DejaVuSans-43" d="M 4122 4306 
L 4122 3641 
Q 3803 3938 3442 4084 
Q 3081 4231 2675 4231 
Q 1875 4231 1450 3742 
Q 1025 3253 1025 2328 
Q 1025 1406 1450 917 
Q 1875 428 2675 428 
Q 3081 428 3442 575 
Q 3803 722 4122 1019 
L 4122 359 
Q 3791 134 3420 21 
Q 3050 -91 2638 -91 
Q 1578 -91 968 557 
Q 359 1206 359 2328 
Q 359 3453 968 4101 
Q 1578 4750 2638 4750 
Q 3056 4750 3426 4639 
Q 3797 4528 4122 4306 
z
" transform="scale(0.015625)"/>
       </defs>
       <use xlink:href="#DejaVuSans-43"/>
       <use xlink:href="#DejaVuSans-6f" x="69.824219"/>
       <use xlink:href="#DejaVuSans-6f" x="131.005859"/>
       <use xlink:href="#DejaVuSans-70" x="192.1875"/>
       <use xlink:href="#DejaVuSans-65" x="255.664062"/>
       <use xlink:href="#DejaVuSans-72" x="317.1875"/>
       <use xlink:href="#DejaVuSans-61" x="358.300781"/>
       <use xlink:href="#DejaVuSans-74" x="419.580078"/>
       <use xlink:href="#DejaVuSans-6f" x="458.789062"/>
       <use xlink:href="#DejaVuSans-72" x="519.970703"/>
      </g>
     </g>
    </g>
   </g>
   <g id="matplotlib.axis_2">
    <g id="ytick_1">
     <g id="line2d_11">
      <defs>
       <path id="m53d1435b4a" d="M 0 0 
L -3.5 0 
" style="stroke: #000000; stroke-width: 0.8"/>
      </defs>
      <g>
       <use xlink:href="#m53d1435b4a" x="29.68" y="295.548636" style="stroke: #000000; stroke-width: 0.8"/>
      </g>
     </g>
     <g id="text_11">
      <!-- 4 -->
      <g transform="translate(10.88625 298.588011)scale(0.08 -0.08)">
       <defs>
        <path id="DejaVuSans-2212" d="M 678 2272 
L 4684 2272 
L 4684 1741 
L 678 1741 
L 678 2272 
z
" transform="scale(0.015625)"/>
        <path id="DejaVuSans-34" d="M 2419 4116 
L 825 1625 
L 2419 1625 
L 2419 4116 
z
M 2253 4666 
L 3047 4666 
L 3047 1625 
L 3713 1625 
L 3713 1100 
L 3047 1100 
L 3047 0 
L 2419 0 
L 2419 1100 
L 313 1100 
L 313 1709 
L 2253 4666 
z
" transform="scale(0.015625)"/>
       </defs>
       <use xlink:href="#DejaVuSans-2212"/>
       <use xlink:href="#DejaVuSans-34" x="83.789062"/>
      </g>
     </g>
    </g>
    <g id="ytick_2">
     <g id="line2d_12">
      <g>
       <use xlink:href="#m53d1435b4a" x="29.68" y="238.986818" style="stroke: #000000; stroke-width: 0.8"/>
      </g>
     </g>
     <g id="text_12">
      <!-- 2 -->
      <g transform="translate(10.88625 242.026193)scale(0.08 -0.08)">
       <defs>
        <path id="DejaVuSans-32" d="M 1228 531 
L 3431 531 
L 3431 0 
L 469 0 
L 469 531 
Q 828 903 1448 1529 
Q 2069 2156 2228 2338 
Q 2531 2678 2651 2914 
Q 2772 3150 2772 3378 
Q 2772 3750 2511 3984 
Q 2250 4219 1831 4219 
Q 1534 4219 1204 4116 
Q 875 4013 500 3803 
L 500 4441 
Q 881 4594 1212 4672 
Q 1544 4750 1819 4750 
Q 2544 4750 2975 4387 
Q 3406 4025 3406 3419 
Q 3406 3131 3298 2873 
Q 3191 2616 2906 2266 
Q 2828 2175 2409 1742 
Q 1991 1309 1228 531 
z
" transform="scale(0.015625)"/>
       </defs>
       <use xlink:href="#DejaVuSans-2212"/>
       <use xlink:href="#DejaVuSans-32" x="83.789062"/>
      </g>
     </g>
    </g>
    <g id="ytick_3">
     <g id="line2d_13">
      <g>
       <use xlink:href="#m53d1435b4a" x="29.68" y="182.425" style="stroke: #000000; stroke-width: 0.8"/>
      </g>
     </g>
     <g id="text_13">
      <!-- 0 -->
      <g transform="translate(17.59 185.464375)scale(0.08 -0.08)">
       <use xlink:href="#DejaVuSans-30"/>
      </g>
     </g>
    </g>
    <g id="ytick_4">
     <g id="line2d_14">
      <g>
       <use xlink:href="#m53d1435b4a" x="29.68" y="125.863182" style="stroke: #000000; stroke-width: 0.8"/>
      </g>
     </g>
     <g id="text_14">
      <!-- 2 -->
      <g transform="translate(17.59 128.902557)scale(0.08 -0.08)">
       <use xlink:href="#DejaVuSans-32"/>
      </g>
     </g>
    </g>
    <g id="ytick_5">
     <g id="line2d_15">
      <g>
       <use xlink:href="#m53d1435b4a" x="29.68" y="69.301364" style="stroke: #000000; stroke-width: 0.8"/>
      </g>
     </g>
     <g id="text_15">
      <!-- 4 -->
      <g transform="translate(17.59 72.340739)scale(0.08 -0.08)">
       <use xlink:href="#DejaVuSans-34"/>
      </g>
     </g>
    </g>
   </g>
   <g id="LineCollection_1">
    <path d="M 95.187273 182.425 
L 113.903636 182.425 
" clip-path="url(#pff6436a723)" style="fill: none; stroke: #1f77b4; stroke-width: 1.5"/>
    <path d="M 170.052727 169.698591 
L 188.769091 169.698591 
" clip-path="url(#pff6436a723)" style="fill: none; stroke: #1f77b4; stroke-width: 1.5"/>
    <path d="M 244.918182 181.717977 
L 263.634545 181.717977 
" clip-path="url(#pff6436a723)" style="fill: none; stroke: #1f77b4; stroke-width: 1.5"/>
    <path d="M 319.783636 171.112636 
L 338.5 171.112636 
" clip-path="url(#pff6436a723)" style="fill: none; stroke: #1f77b4; stroke-width: 1.5"/>
    <path d="M 394.649091 182.425 
L 413.365455 182.425 
" clip-path="url(#pff6436a723)" style="fill: none; stroke: #1f77b4; stroke-width: 1.5"/>
    <path d="M 469.514545 182.425 
L 488.230909 182.425 
" clip-path="url(#pff6436a723)" style="fill: none; stroke: #1f77b4; stroke-width: 1.5"/>
    <path d="M 544.38 168.284545 
L 563.096364 168.284545 
" clip-path="url(#pff6436a723)" style="fill: none; stroke: #1f77b4; stroke-width: 1.5"/>
    <path d="M 619.245455 198.686523 
L 637.961818 198.686523 
" clip-path="url(#pff6436a723)" style="fill: none; stroke: #1f77b4; stroke-width: 1.5"/>
    <path d="M 694.110909 198.686523 
L 712.827273 198.686523 
" clip-path="url(#pff6436a723)" style="fill: none; stroke: #1f77b4; stroke-width: 1.5"/>
    <path d="M 768.976364 194.444386 
L 787.692727 194.444386 
" clip-path="url(#pff6436a723)" style="fill: none; stroke: #1f77b4; stroke-width: 1.5"/>
   </g>
   <g id="patch_3">
    <path d="M 29.68 337.97 
L 29.68 26.88 
" style="fill: none; stroke: #000000; stroke-width: 0.8; stroke-linejoin: miter; stroke-linecap: square"/>
   </g>
   <g id="patch_4">
    <path d="M 853.2 337.97 
L 853.2 26.88 
" style="fill: none; stroke: #000000; stroke-width: 0.8; stroke-linejoin: miter; stroke-linecap: square"/>
   </g>
   <g id="patch_5">
    <path d="M 29.68 337.97 
L 853.2 337.97 
" style="fill: none; stroke: #000000; stroke-width: 0.8; stroke-linejoin: miter; stroke-linecap: square"/>
   </g>
   <g id="patch_6">
    <path d="M 29.68 26.88 
L 853.2 26.88 
" style="fill: none; stroke: #000000; stroke-width: 0.8; stroke-linejoin: miter; stroke-linecap: square"/>
   </g>
   <g id="text_16">
    <!-- Payoff differences - turns: 200, repetitions: 200, strategies: 10.  -->
    <g transform="translate(250.417813 20.88)scale(0.12 -0.12)">
     <defs>
      <path id="DejaVuSans-50" d="M 1259 4147 
L 1259 2394 
L 2053 2394 
Q 2494 2394 2734 2622 
Q 2975 2850 2975 3272 
Q 2975 3691 2734 3919 
Q 2494 4147 2053 4147 
L 1259 4147 
z
M 628 4666 
L 2053 4666 
Q 2838 4666 3239 4311 
Q 3641 3956 3641 3272 
Q 3641 2581 3239 2228 
Q 2838 1875 2053 1875 
L 1259 1875 
L 1259 0 
L 628 0 
L 628 4666 
z
" transform="scale(0.015625)"/>
      <path id="DejaVuSans-2d" d="M 313 2009 
L 1997 2009 
L 1997 1497 
L 313 1497 
L 313 2009 
z
" transform="scale(0.015625)"/>
      <path id="DejaVuSans-2c" d="M 750 794 
L 1409 794 
L 1409 256 
L 897 -744 
L 494 -744 
L 750 256 
L 750 794 
z
" transform="scale(0.015625)"/>
      <path id="DejaVuSans-31" d="M 794 531 
L 1825 531 
L 1825 4091 
L 703 3866 
L 703 4441 
L 1819 4666 
L 2450 4666 
L 2450 531 
L 3481 531 
L 3481 0 
L 794 0 
L 794 531 
z
" transform="scale(0.015625)"/>
     </defs>
     <use xlink:href="#DejaVuSans-50"/>
     <use xlink:href="#DejaVuSans-61" x="55.802734"/>
     <use xlink:href="#DejaVuSans-79" x="117.082031"/>
     <use xlink:href="#DejaVuSans-6f" x="176.261719"/>
     <use xlink:href="#DejaVuSans-66" x="237.443359"/>
     <use xlink:href="#DejaVuSans-66" x="272.648438"/>
     <use xlink:href="#DejaVuSans-20" x="307.853516"/>
     <use xlink:href="#DejaVuSans-64" x="339.640625"/>
     <use xlink:href="#DejaVuSans-69" x="403.117188"/>
     <use xlink:href="#DejaVuSans-66" x="430.900391"/>
     <use xlink:href="#DejaVuSans-66" x="466.105469"/>
     <use xlink:href="#DejaVuSans-65" x="501.310547"/>
     <use xlink:href="#DejaVuSans-72" x="562.833984"/>
     <use xlink:href="#DejaVuSans-65" x="601.697266"/>
     <use xlink:href="#DejaVuSans-6e" x="663.220703"/>
     <use xlink:href="#DejaVuSans-63" x="726.599609"/>
     <use xlink:href="#DejaVuSans-65" x="781.580078"/>
     <use xlink:href="#DejaVuSans-73" x="843.103516"/>
     <use xlink:href="#DejaVuSans-20" x="895.203125"/>
     <use xlink:href="#DejaVuSans-2d" x="926.990234"/>
     <use xlink:href="#DejaVuSans-20" x="963.074219"/>
     <use xlink:href="#DejaVuSans-74" x="994.861328"/>
     <use xlink:href="#DejaVuSans-75" x="1034.070312"/>
     <use xlink:href="#DejaVuSans-72" x="1097.449219"/>
     <use xlink:href="#DejaVuSans-6e" x="1136.8125"/>
     <use xlink:href="#DejaVuSans-73" x="1200.191406"/>
     <use xlink:href="#DejaVuSans-3a" x="1252.291016"/>
     <use xlink:href="#DejaVuSans-20" x="1285.982422"/>
     <use xlink:href="#DejaVuSans-32" x="1317.769531"/>
     <use xlink:href="#DejaVuSans-30" x="1381.392578"/>
     <use xlink:href="#DejaVuSans-30" x="1445.015625"/>
     <use xlink:href="#DejaVuSans-2c" x="1508.638672"/>
     <use xlink:href="#DejaVuSans-20" x="1540.425781"/>
     <use xlink:href="#DejaVuSans-72" x="1572.212891"/>
     <use xlink:href="#DejaVuSans-65" x="1611.076172"/>
     <use xlink:href="#DejaVuSans-70" x="1672.599609"/>
     <use xlink:href="#DejaVuSans-65" x="1736.076172"/>
     <use xlink:href="#DejaVuSans-74" x="1797.599609"/>
     <use xlink:href="#DejaVuSans-69" x="1836.808594"/>
     <use xlink:href="#DejaVuSans-74" x="1864.591797"/>
     <use xlink:href="#DejaVuSans-69" x="1903.800781"/>
     <use xlink:href="#DejaVuSans-6f" x="1931.583984"/>
     <use xlink:href="#DejaVuSans-6e" x="1992.765625"/>
     <use xlink:href="#DejaVuSans-73" x="2056.144531"/>
     <use xlink:href="#DejaVuSans-3a" x="2108.244141"/>
     <use xlink:href="#DejaVuSans-20" x="2141.935547"/>
     <use xlink:href="#DejaVuSans-32" x="2173.722656"/>
     <use xlink:href="#DejaVuSans-30" x="2237.345703"/>
     <use xlink:href="#DejaVuSans-30" x="2300.96875"/>
     <use xlink:href="#DejaVuSans-2c" x="2364.591797"/>
     <use xlink:href="#DejaVuSans-20" x="2396.378906"/>
     <use xlink:href="#DejaVuSans-73" x="2428.166016"/>
     <use xlink:href="#DejaVuSans-74" x="2480.265625"/>
     <use xlink:href="#DejaVuSans-72" x="2519.474609"/>
     <use xlink:href="#DejaVuSans-61" x="2560.587891"/>
     <use xlink:href="#DejaVuSans-74" x="2621.867188"/>
     <use xlink:href="#DejaVuSans-65" x="2661.076172"/>
     <use xlink:href="#DejaVuSans-67" x="2722.599609"/>
     <use xlink:href="#DejaVuSans-69" x="2786.076172"/>
     <use xlink:href="#DejaVuSans-65" x="2813.859375"/>
     <use xlink:href="#DejaVuSans-73" x="2875.382812"/>
     <use xlink:href="#DejaVuSans-3a" x="2927.482422"/>
     <use xlink:href="#DejaVuSans-20" x="2961.173828"/>
     <use xlink:href="#DejaVuSans-31" x="2992.960938"/>
     <use xlink:href="#DejaVuSans-30" x="3056.583984"/>
     <use xlink:href="#DejaVuSans-2e" x="3120.207031"/>
     <use xlink:href="#DejaVuSans-20" x="3151.994141"/>
    </g>
   </g>
  </g>
 </g>
 <defs>
  <clipPath id="pff6436a723">
   <rect x="29.68" y="26.88" width="823.52" height="311.09"/>
  </clipPath>
 </defs>
</svg>
