<?xml version="1.0" encoding="utf-8" standalone="no"?>
<!DOCTYPE svg PUBLIC "-//W3C//DTD SVG 1.1//EN"
  "http://www.w3.org/Graphics/SVG/1.1/DTD/svg11.dtd">
<svg xmlns:xlink="http://www.w3.org/1999/xlink" width="864pt" height="432pt" viewBox="0 0 864 432" xmlns="http://www.w3.org/2000/svg" version="1.1">
 <metadata>
  <rdf:RDF xmlns:dc="http://purl.org/dc/elements/1.1/" xmlns:cc="http://creativecommons.org/ns#" xmlns:rdf="http://www.w3.org/1999/02/22-rdf-syntax-ns#">
   <cc:Work>
    <dc:type rdf:resource="http://purl.org/dc/dcmitype/StillImage"/>
    <dc:date>2022-09-28T01:51:39.662633</dc:date>
    <dc:format>image/svg+xml</dc:format>
    <dc:creator>
     <cc:Agent>
      <dc:title>Matplotlib v3.5.1, https://matplotlib.org/</dc:title>
     </cc:Agent>
    </dc:creator>
   </cc:Work>
  </rdf:RDF>
 </metadata>
 <defs>
  <style type="text/css">*{stroke-linejoin: round; stroke-linecap: butt}</style>
 </defs>
 <g id="figure_1">
  <g id="patch_1">
   <path d="M 0 432 
L 864 432 
L 864 0 
L 0 0 
z
" style="fill: #ffffff"/>
  </g>
  <g id="axes_1">
   <g id="patch_2">
    <path d="M 22.93 337.97 
L 853.2 337.97 
L 853.2 26.88 
L 22.93 26.88 
z
" style="fill: #ffffff"/>
   </g>
   <g id="PolyCollection_1">
    <path d="M 98.892931 73.5435 
L 97.925251 73.5435 
L 97.933567 73.229268 
L 97.957668 72.915035 
L 97.995153 72.600803 
L 98.042461 72.286571 
L 98.09543 71.972338 
L 98.149891 71.658106 
L 98.202196 71.343874 
L 98.249575 71.029641 
L 98.290295 70.715409 
L 98.323636 70.401177 
L 98.349714 70.086944 
L 98.36924 69.772712 
L 98.383257 69.45848 
L 98.392914 69.144247 
L 98.399307 68.830015 
L 98.403375 68.515783 
L 98.405865 68.201551 
L 98.407333 67.887318 
L 98.408165 67.573086 
L 98.40862 67.258854 
L 98.40886 66.944621 
L 98.408981 66.630389 
L 98.409041 66.316157 
L 98.409069 66.001924 
L 98.409081 65.687692 
L 98.409087 65.37346 
L 98.409089 65.059227 
L 98.40909 64.744995 
L 98.409091 64.430763 
L 98.409091 64.11653 
L 98.409091 63.802298 
L 98.409091 63.488066 
L 98.409091 63.173833 
L 98.409091 62.859601 
L 98.409091 62.545369 
L 98.409091 62.231136 
L 98.409091 61.916904 
L 98.409091 61.602672 
L 98.409091 61.288439 
L 98.409091 60.974207 
L 98.409091 60.659975 
L 98.409091 60.345742 
L 98.409091 60.03151 
L 98.409091 59.717278 
L 98.409091 59.403045 
L 98.409091 59.088813 
L 98.409091 58.774581 
L 98.409091 58.460348 
L 98.409091 58.146116 
L 98.409091 57.831884 
L 98.409091 57.517652 
L 98.409091 57.203419 
L 98.409091 56.889187 
L 98.409091 56.574955 
L 98.409091 56.260722 
L 98.409091 55.94649 
L 98.409091 55.632258 
L 98.409091 55.318025 
L 98.409091 55.003793 
L 98.409091 54.689561 
L 98.409091 54.375328 
L 98.409091 54.061096 
L 98.409091 53.746864 
L 98.409091 53.432631 
L 98.409091 53.118399 
L 98.409091 52.804167 
L 98.409091 52.489934 
L 98.40909 52.175702 
L 98.409088 51.86147 
L 98.409082 51.547237 
L 98.409067 51.233005 
L 98.40903 50.918773 
L 98.408938 50.60454 
L 98.40872 50.290308 
L 98.408223 49.976076 
L 98.407129 49.661843 
L 98.404811 49.347611 
L 98.400071 49.033379 
L 98.390729 48.719146 
L 98.372986 48.404914 
L 98.340516 48.090682 
L 98.283285 47.776449 
L 98.186156 47.462217 
L 98.027501 47.147985 
L 97.778197 46.833753 
L 97.401563 46.51952 
L 96.854922 46.205288 
L 96.093404 45.891056 
L 95.076344 45.576823 
L 93.776056 45.262591 
L 92.187957 44.948359 
L 90.340194 44.634126 
L 88.300293 44.319894 
L 86.176299 44.005662 
L 84.110528 43.691429 
L 82.26551 43.377197 
L 80.803602 43.062965 
L 79.863656 42.748732 
L 79.539318 42.4345 
L 117.278864 42.4345 
L 117.278864 42.4345 
L 116.954526 42.748732 
L 116.01458 43.062965 
L 114.552672 43.377197 
L 112.707654 43.691429 
L 110.641883 44.005662 
L 108.517889 44.319894 
L 106.477988 44.634126 
L 104.630224 44.948359 
L 103.042126 45.262591 
L 101.741838 45.576823 
L 100.724778 45.891056 
L 99.963259 46.205288 
L 99.416619 46.51952 
L 99.039985 46.833753 
L 98.790681 47.147985 
L 98.632026 47.462217 
L 98.534896 47.776449 
L 98.477665 48.090682 
L 98.445196 48.404914 
L 98.427452 48.719146 
L 98.418111 49.033379 
L 98.413371 49.347611 
L 98.411052 49.661843 
L 98.409959 49.976076 
L 98.409462 50.290308 
L 98.409244 50.60454 
L 98.409152 50.918773 
L 98.409114 51.233005 
L 98.4091 51.547237 
L 98.409094 51.86147 
L 98.409092 52.175702 
L 98.409091 52.489934 
L 98.409091 52.804167 
L 98.409091 53.118399 
L 98.409091 53.432631 
L 98.409091 53.746864 
L 98.409091 54.061096 
L 98.409091 54.375328 
L 98.409091 54.689561 
L 98.409091 55.003793 
L 98.409091 55.318025 
L 98.409091 55.632258 
L 98.409091 55.94649 
L 98.409091 56.260722 
L 98.409091 56.574955 
L 98.409091 56.889187 
L 98.409091 57.203419 
L 98.409091 57.517652 
L 98.409091 57.831884 
L 98.409091 58.146116 
L 98.409091 58.460348 
L 98.409091 58.774581 
L 98.409091 59.088813 
L 98.409091 59.403045 
L 98.409091 59.717278 
L 98.409091 60.03151 
L 98.409091 60.345742 
L 98.409091 60.659975 
L 98.409091 60.974207 
L 98.409091 61.288439 
L 98.409091 61.602672 
L 98.409091 61.916904 
L 98.409091 62.231136 
L 98.409091 62.545369 
L 98.409091 62.859601 
L 98.409091 63.173833 
L 98.409091 63.488066 
L 98.409091 63.802298 
L 98.409091 64.11653 
L 98.409091 64.430763 
L 98.409092 64.744995 
L 98.409092 65.059227 
L 98.409095 65.37346 
L 98.4091 65.687692 
L 98.409113 66.001924 
L 98.409141 66.316157 
L 98.409201 66.630389 
L 98.409322 66.944621 
L 98.409562 67.258854 
L 98.410017 67.573086 
L 98.410849 67.887318 
L 98.412317 68.201551 
L 98.414807 68.515783 
L 98.418875 68.830015 
L 98.425268 69.144247 
L 98.434925 69.45848 
L 98.448941 69.772712 
L 98.468468 70.086944 
L 98.494546 70.401177 
L 98.527887 70.715409 
L 98.568607 71.029641 
L 98.615986 71.343874 
L 98.668291 71.658106 
L 98.722752 71.972338 
L 98.775721 72.286571 
L 98.823029 72.600803 
L 98.860514 72.915035 
L 98.884615 73.229268 
L 98.892931 73.5435 
z
" clip-path="url(#p576ceab66c)" style="fill: #1f77b4; fill-opacity: 0.3"/>
   </g>
   <g id="PolyCollection_2">
    <path d="M 176.220401 166.8705 
L 171.555963 166.8705 
L 171.566009 166.556268 
L 171.595887 166.242035 
L 171.644833 165.927803 
L 171.711606 165.613571 
L 171.794545 165.299338 
L 171.891635 164.985106 
L 172.00059 164.670874 
L 172.11894 164.356641 
L 172.244124 164.042409 
L 172.373584 163.728177 
L 172.504844 163.413944 
L 172.63559 163.099712 
L 172.763728 162.78548 
L 172.887435 162.471247 
L 173.005188 162.157015 
L 173.115784 161.842783 
L 173.218335 161.528551 
L 173.312264 161.214318 
L 173.397279 160.900086 
L 173.473341 160.585854 
L 173.540631 160.271621 
L 173.59951 159.957389 
L 173.650474 159.643157 
L 173.694124 159.328924 
L 173.73112 159.014692 
L 173.762156 158.70046 
L 173.787928 158.386227 
L 173.809116 158.071995 
L 173.826362 157.757763 
L 173.840261 157.44353 
L 173.851355 157.129298 
L 173.860124 156.815066 
L 173.866988 156.500833 
L 173.872311 156.186601 
L 173.876399 155.872369 
L 173.879509 155.558136 
L 173.881852 155.243904 
L 173.883602 154.929672 
L 173.884895 154.615439 
L 173.885842 154.301207 
L 173.886527 153.986975 
L 173.887016 153.672742 
L 173.88736 153.35851 
L 173.887594 153.044278 
L 173.887745 152.730045 
L 173.887828 152.415813 
L 173.887852 152.101581 
L 173.887819 151.787348 
L 173.88772 151.473116 
L 173.887539 151.158884 
L 173.887246 150.844652 
L 173.886799 150.530419 
L 173.886133 150.216187 
L 173.885158 149.901955 
L 173.883748 149.587722 
L 173.881731 149.27349 
L 173.878874 148.959258 
L 173.874865 148.645025 
L 173.869292 148.330793 
L 173.861616 148.016561 
L 173.851142 147.702328 
L 173.836981 147.388096 
L 173.818015 147.073864 
L 173.792851 146.759631 
L 173.759774 146.445399 
L 173.716708 146.131167 
L 173.661167 145.816934 
L 173.59022 145.502702 
L 173.500461 145.18847 
L 173.388 144.874237 
L 173.248467 144.560005 
L 173.077041 144.245773 
L 172.86852 143.93154 
L 172.617412 143.617308 
L 172.318079 143.303076 
L 171.964913 142.988843 
L 171.552561 142.674611 
L 171.076182 142.360379 
L 170.531742 142.046146 
L 169.916331 141.731914 
L 169.228486 141.417682 
L 168.468513 141.103449 
L 167.63878 140.789217 
L 166.743963 140.474985 
L 165.791229 140.160753 
L 164.790326 139.84652 
L 163.753572 139.532288 
L 162.695721 139.218056 
L 161.633707 138.903823 
L 160.58626 138.589591 
L 159.573404 138.275359 
L 158.615848 137.961126 
L 157.734305 137.646894 
L 156.948756 137.332662 
L 156.277703 137.018429 
L 155.737448 136.704197 
L 155.341433 136.389965 
L 155.099689 136.075732 
L 155.018409 135.7615 
L 192.757955 135.7615 
L 192.757955 135.7615 
L 192.676675 136.075732 
L 192.434931 136.389965 
L 192.038916 136.704197 
L 191.49866 137.018429 
L 190.827607 137.332662 
L 190.042059 137.646894 
L 189.160516 137.961126 
L 188.20296 138.275359 
L 187.190103 138.589591 
L 186.142657 138.903823 
L 185.080643 139.218056 
L 184.022792 139.532288 
L 182.986038 139.84652 
L 181.985135 140.160753 
L 181.032401 140.474985 
L 180.137584 140.789217 
L 179.30785 141.103449 
L 178.547877 141.417682 
L 177.860032 141.731914 
L 177.244621 142.046146 
L 176.700182 142.360379 
L 176.223803 142.674611 
L 175.811451 142.988843 
L 175.458285 143.303076 
L 175.158952 143.617308 
L 174.907844 143.93154 
L 174.699322 144.245773 
L 174.527897 144.560005 
L 174.388363 144.874237 
L 174.275903 145.18847 
L 174.186144 145.502702 
L 174.115196 145.816934 
L 174.059655 146.131167 
L 174.016589 146.445399 
L 173.983513 146.759631 
L 173.958348 147.073864 
L 173.939383 147.388096 
L 173.925222 147.702328 
L 173.914748 148.016561 
L 173.907072 148.330793 
L 173.901499 148.645025 
L 173.89749 148.959258 
L 173.894633 149.27349 
L 173.892616 149.587722 
L 173.891206 149.901955 
L 173.890231 150.216187 
L 173.889565 150.530419 
L 173.889117 150.844652 
L 173.888825 151.158884 
L 173.888643 151.473116 
L 173.888545 151.787348 
L 173.888511 152.101581 
L 173.888536 152.415813 
L 173.888619 152.730045 
L 173.888769 153.044278 
L 173.889004 153.35851 
L 173.889347 153.672742 
L 173.889837 153.986975 
L 173.890522 154.301207 
L 173.891469 154.615439 
L 173.892762 154.929672 
L 173.894511 155.243904 
L 173.896855 155.558136 
L 173.899965 155.872369 
L 173.904053 156.186601 
L 173.909375 156.500833 
L 173.91624 156.815066 
L 173.925009 157.129298 
L 173.936102 157.44353 
L 173.950002 157.757763 
L 173.967248 158.071995 
L 173.988435 158.386227 
L 174.014207 158.70046 
L 174.045243 159.014692 
L 174.08224 159.328924 
L 174.125889 159.643157 
L 174.176854 159.957389 
L 174.235732 160.271621 
L 174.303023 160.585854 
L 174.379085 160.900086 
L 174.464099 161.214318 
L 174.558028 161.528551 
L 174.66058 161.842783 
L 174.771175 162.157015 
L 174.888929 162.471247 
L 175.012636 162.78548 
L 175.140774 163.099712 
L 175.27152 163.413944 
L 175.40278 163.728177 
L 175.53224 164.042409 
L 175.657424 164.356641 
L 175.775774 164.670874 
L 175.884728 164.985106 
L 175.981819 165.299338 
L 176.064758 165.613571 
L 176.131531 165.927803 
L 176.180477 166.242035 
L 176.210355 166.556268 
L 176.220401 166.8705 
z
" clip-path="url(#p576ceab66c)" style="fill: #1f77b4; fill-opacity: 0.3"/>
   </g>
   <g id="PolyCollection_3">
    <path d="M 265.72494 197.9795 
L 233.009605 197.9795 
L 233.076628 197.351035 
L 233.276619 196.722571 
L 233.604586 196.094106 
L 234.052455 195.465641 
L 234.609379 194.837177 
L 235.262154 194.208712 
L 235.995706 193.580247 
L 236.793631 192.951783 
L 237.638751 192.323318 
L 238.513664 191.694854 
L 239.401254 191.066389 
L 240.285143 190.437924 
L 241.150067 189.80946 
L 241.982155 189.180995 
L 242.769115 188.55253 
L 243.50033 187.924066 
L 244.166852 187.295601 
L 244.761328 186.667136 
L 245.277861 186.038672 
L 245.711826 185.410207 
L 246.059665 184.781742 
L 246.318677 184.153278 
L 246.486827 183.524813 
L 246.562589 182.896348 
L 246.544835 182.267884 
L 246.432779 181.639419 
L 246.225998 181.010955 
L 245.924497 180.38249 
L 245.528856 179.754025 
L 245.040412 179.125561 
L 244.461486 178.497096 
L 243.795633 177.868631 
L 243.047889 177.240167 
L 242.224997 176.611702 
L 241.335591 175.983237 
L 240.390319 175.354773 
L 239.401875 174.726308 
L 238.384939 174.097843 
L 237.356005 173.469379 
L 236.333098 172.840914 
L 235.335382 172.212449 
L 234.382677 171.583985 
L 233.49488 170.95552 
L 232.691354 170.327056 
L 231.990268 169.698591 
L 231.40796 169.070126 
L 230.958334 168.441662 
L 230.65233 167.813197 
L 230.4975 167.184732 
L 230.49771 166.556268 
L 230.652991 165.927803 
L 230.959538 165.299338 
L 231.409875 164.670874 
L 231.99315 164.042409 
L 232.695577 163.413944 
L 233.500966 162.78548 
L 234.391346 162.157015 
L 235.34761 161.528551 
L 236.350192 160.900086 
L 237.379698 160.271621 
L 238.417504 159.643157 
L 239.446263 159.014692 
L 240.450324 158.386227 
L 241.416039 157.757763 
L 242.331965 157.129298 
L 243.188951 156.500833 
L 243.980125 155.872369 
L 244.700793 155.243904 
L 245.348268 154.615439 
L 245.92164 153.986975 
L 246.421516 153.35851 
L 246.84974 152.730045 
L 247.209118 152.101581 
L 247.503154 151.473116 
L 247.735819 150.844652 
L 247.911349 150.216187 
L 248.034089 149.587722 
L 248.108379 148.959258 
L 248.138478 148.330793 
L 248.128531 147.702328 
L 248.082564 147.073864 
L 248.004506 146.445399 
L 247.898231 145.816934 
L 247.767599 145.18847 
L 247.616514 144.560005 
L 247.44896 143.93154 
L 247.26903 143.303076 
L 247.080941 142.674611 
L 246.88902 142.046146 
L 246.697669 141.417682 
L 246.511315 140.789217 
L 246.334325 140.160753 
L 246.170921 139.532288 
L 246.02507 138.903823 
L 245.900374 138.275359 
L 245.799966 137.646894 
L 245.726406 137.018429 
L 245.6816 136.389965 
L 245.666734 135.7615 
L 253.067811 135.7615 
L 253.067811 135.7615 
L 253.052945 136.389965 
L 253.00814 137.018429 
L 252.93458 137.646894 
L 252.834171 138.275359 
L 252.709476 138.903823 
L 252.563624 139.532288 
L 252.40022 140.160753 
L 252.223231 140.789217 
L 252.036876 141.417682 
L 251.845526 142.046146 
L 251.653604 142.674611 
L 251.465515 143.303076 
L 251.285586 143.93154 
L 251.118031 144.560005 
L 250.966946 145.18847 
L 250.836315 145.816934 
L 250.730039 146.445399 
L 250.651982 147.073864 
L 250.606015 147.702328 
L 250.596068 148.330793 
L 250.626167 148.959258 
L 250.700456 149.587722 
L 250.823196 150.216187 
L 250.998726 150.844652 
L 251.231391 151.473116 
L 251.525427 152.101581 
L 251.884805 152.730045 
L 252.31303 153.35851 
L 252.812906 153.986975 
L 253.386278 154.615439 
L 254.033753 155.243904 
L 254.754421 155.872369 
L 255.545594 156.500833 
L 256.40258 157.129298 
L 257.318506 157.757763 
L 258.284222 158.386227 
L 259.288282 159.014692 
L 260.317042 159.643157 
L 261.354848 160.271621 
L 262.384354 160.900086 
L 263.386935 161.528551 
L 264.3432 162.157015 
L 265.233579 162.78548 
L 266.038969 163.413944 
L 266.741395 164.042409 
L 267.324671 164.670874 
L 267.775007 165.299338 
L 268.081555 165.927803 
L 268.236835 166.556268 
L 268.237045 167.184732 
L 268.082215 167.813197 
L 267.776211 168.441662 
L 267.326585 169.070126 
L 266.744278 169.698591 
L 266.043192 170.327056 
L 265.239665 170.95552 
L 264.351869 171.583985 
L 263.399163 172.212449 
L 262.401448 172.840914 
L 261.37854 173.469379 
L 260.349606 174.097843 
L 259.33267 174.726308 
L 258.344226 175.354773 
L 257.398954 175.983237 
L 256.509549 176.611702 
L 255.686656 177.240167 
L 254.938912 177.868631 
L 254.273059 178.497096 
L 253.694134 179.125561 
L 253.205689 179.754025 
L 252.810048 180.38249 
L 252.508548 181.010955 
L 252.301766 181.639419 
L 252.189711 182.267884 
L 252.171956 182.896348 
L 252.247719 183.524813 
L 252.415869 184.153278 
L 252.674881 184.781742 
L 253.022719 185.410207 
L 253.456684 186.038672 
L 253.973217 186.667136 
L 254.567693 187.295601 
L 255.234215 187.924066 
L 255.96543 188.55253 
L 256.752391 189.180995 
L 257.584478 189.80946 
L 258.449402 190.437924 
L 259.333292 191.066389 
L 260.220881 191.694854 
L 261.095794 192.323318 
L 261.940915 192.951783 
L 262.73884 193.580247 
L 263.472392 194.208712 
L 264.125167 194.837177 
L 264.682091 195.465641 
L 265.12996 196.094106 
L 265.457927 196.722571 
L 265.657917 197.351035 
L 265.72494 197.9795 
z
" clip-path="url(#p576ceab66c)" style="fill: #1f77b4; fill-opacity: 0.3"/>
   </g>
   <g id="PolyCollection_4">
    <path d="M 326.404704 197.9795 
L 323.288023 197.9795 
L 323.29605 197.351035 
L 323.319934 196.722571 
L 323.358926 196.094106 
L 323.41182 195.465641 
L 323.477011 194.837177 
L 323.55257 194.208712 
L 323.63632 193.580247 
L 323.725932 192.951783 
L 323.819006 192.323318 
L 323.913147 191.694854 
L 324.006025 191.066389 
L 324.095419 190.437924 
L 324.179229 189.80946 
L 324.255471 189.180995 
L 324.322245 188.55253 
L 324.37767 187.924066 
L 324.41981 187.295601 
L 324.446574 186.667136 
L 324.455609 186.038672 
L 324.444187 185.410207 
L 324.409101 184.781742 
L 324.346567 184.153278 
L 324.252164 183.524813 
L 324.1208 182.896348 
L 323.946732 182.267884 
L 323.723644 181.639419 
L 323.444791 181.010955 
L 323.103221 180.38249 
L 322.692074 179.754025 
L 322.204955 179.125561 
L 321.636374 178.497096 
L 320.982236 177.868631 
L 320.240358 177.240167 
L 319.410988 176.611702 
L 318.497281 175.983237 
L 317.505703 175.354773 
L 316.446307 174.726308 
L 315.33287 174.097843 
L 314.18282 173.469379 
L 313.016972 172.840914 
L 311.859028 172.212449 
L 310.734871 171.583985 
L 309.67166 170.95552 
L 308.696783 170.327056 
L 307.836698 169.698591 
L 307.115758 169.070126 
L 306.555064 168.441662 
L 306.171445 167.813197 
L 305.976617 167.184732 
L 305.976591 166.556268 
L 306.171359 165.927803 
L 306.5549 165.299338 
L 307.115477 164.670874 
L 307.83624 164.042409 
L 308.696051 163.413944 
L 309.670507 162.78548 
L 310.733077 162.157015 
L 311.856269 161.528551 
L 313.01277 160.900086 
L 314.176489 160.271621 
L 315.323429 159.643157 
L 316.432376 159.014692 
L 317.485355 158.386227 
L 318.46787 157.757763 
L 319.368914 157.129298 
L 320.180792 156.500833 
L 320.898777 155.872369 
L 321.520645 155.243904 
L 322.046134 154.615439 
L 322.476366 153.986975 
L 322.813275 153.35851 
L 323.059081 152.730045 
L 323.215839 152.101581 
L 323.285085 151.473116 
L 323.267604 150.844652 
L 323.163323 150.216187 
L 322.971345 149.587722 
L 322.690108 148.959258 
L 322.317674 148.330793 
L 321.852122 147.702328 
L 321.292037 147.073864 
L 320.63705 146.445399 
L 319.888408 145.816934 
L 319.049533 145.18847 
L 318.126521 144.560005 
L 317.128547 143.93154 
L 316.068126 143.303076 
L 314.961203 142.674611 
L 313.827032 142.046146 
L 312.687837 141.417682 
L 311.568255 140.789217 
L 310.494564 140.160753 
L 309.493741 139.532288 
L 308.592388 138.903823 
L 307.815593 138.275359 
L 307.185793 137.646894 
L 306.721705 137.018429 
L 306.437419 136.389965 
L 306.341686 135.7615 
L 343.351041 135.7615 
L 343.351041 135.7615 
L 343.255308 136.389965 
L 342.971022 137.018429 
L 342.506935 137.646894 
L 341.877134 138.275359 
L 341.100339 138.903823 
L 340.198987 139.532288 
L 339.198163 140.160753 
L 338.124472 140.789217 
L 337.00489 141.417682 
L 335.865696 142.046146 
L 334.731524 142.674611 
L 333.624601 143.303076 
L 332.56418 143.93154 
L 331.566206 144.560005 
L 330.643194 145.18847 
L 329.804319 145.816934 
L 329.055677 146.445399 
L 328.40069 147.073864 
L 327.840605 147.702328 
L 327.375054 148.330793 
L 327.002619 148.959258 
L 326.721382 149.587722 
L 326.529404 150.216187 
L 326.425124 150.844652 
L 326.407642 151.473116 
L 326.476888 152.101581 
L 326.633646 152.730045 
L 326.879453 153.35851 
L 327.216361 153.986975 
L 327.646593 154.615439 
L 328.172082 155.243904 
L 328.79395 155.872369 
L 329.511935 156.500833 
L 330.323813 157.129298 
L 331.224857 157.757763 
L 332.207372 158.386227 
L 333.260352 159.014692 
L 334.369298 159.643157 
L 335.516238 160.271621 
L 336.679957 160.900086 
L 337.836459 161.528551 
L 338.95965 162.157015 
L 340.02222 162.78548 
L 340.996677 163.413944 
L 341.856487 164.042409 
L 342.57725 164.670874 
L 343.137828 165.299338 
L 343.521368 165.927803 
L 343.716136 166.556268 
L 343.71611 167.184732 
L 343.521282 167.813197 
L 343.137663 168.441662 
L 342.576969 169.070126 
L 341.856029 169.698591 
L 340.995944 170.327056 
L 340.021067 170.95552 
L 338.957857 171.583985 
L 337.833699 172.212449 
L 336.675755 172.840914 
L 335.509907 173.469379 
L 334.359858 174.097843 
L 333.24642 174.726308 
L 332.187025 175.354773 
L 331.195446 175.983237 
L 330.28174 176.611702 
L 329.45237 177.240167 
L 328.710491 177.868631 
L 328.056353 178.497096 
L 327.487772 179.125561 
L 327.000653 179.754025 
L 326.589507 180.38249 
L 326.247937 181.010955 
L 325.969083 181.639419 
L 325.745995 182.267884 
L 325.571928 182.896348 
L 325.440564 183.524813 
L 325.346161 184.153278 
L 325.283627 184.781742 
L 325.24854 185.410207 
L 325.237118 186.038672 
L 325.246153 186.667136 
L 325.272917 187.295601 
L 325.315057 187.924066 
L 325.370482 188.55253 
L 325.437256 189.180995 
L 325.513499 189.80946 
L 325.597309 190.437924 
L 325.686702 191.066389 
L 325.779581 191.694854 
L 325.873721 192.323318 
L 325.966795 192.951783 
L 326.056408 193.580247 
L 326.140158 194.208712 
L 326.215716 194.837177 
L 326.280908 195.465641 
L 326.333802 196.094106 
L 326.372793 196.722571 
L 326.396677 197.351035 
L 326.404704 197.9795 
z
" clip-path="url(#p576ceab66c)" style="fill: #1f77b4; fill-opacity: 0.3"/>
   </g>
   <g id="PolyCollection_5">
    <path d="M 401.819477 229.0885 
L 398.831432 229.0885 
L 398.784397 227.517338 
L 398.739431 225.946177 
L 398.684708 224.375015 
L 398.60544 222.803854 
L 398.484813 221.232692 
L 398.305332 219.66153 
L 398.050521 218.090369 
L 397.706872 216.519207 
L 397.265858 214.948045 
L 396.725822 213.376884 
L 396.093455 211.805722 
L 395.38462 210.234561 
L 394.624272 208.663399 
L 393.845296 207.092237 
L 393.086227 205.521076 
L 392.387944 203.949914 
L 391.789605 202.378753 
L 391.324252 200.807591 
L 391.014579 199.236429 
L 390.869437 197.665268 
L 390.881552 196.094106 
L 391.026835 194.522944 
L 391.265473 192.951783 
L 391.54478 191.380621 
L 391.803595 189.80946 
L 391.977843 188.238298 
L 392.006754 186.667136 
L 391.839178 185.095975 
L 391.439395 183.524813 
L 390.791844 181.953652 
L 389.904241 180.38249 
L 388.808655 178.811328 
L 387.560245 177.240167 
L 386.233563 175.669005 
L 384.916593 174.097843 
L 383.702945 172.526682 
L 382.682954 170.95552 
L 381.934602 169.384359 
L 381.515316 167.813197 
L 381.455682 166.242035 
L 381.755859 164.670874 
L 382.385211 163.099712 
L 383.285214 161.528551 
L 384.375296 159.957389 
L 385.560885 158.386227 
L 386.742723 156.815066 
L 387.826369 155.243904 
L 388.73092 153.672742 
L 389.396088 152.101581 
L 389.787054 150.530419 
L 389.896762 148.959258 
L 389.745565 147.388096 
L 389.378377 145.816934 
L 388.859657 144.245773 
L 388.266745 142.674611 
L 387.682164 141.103449 
L 387.185638 139.532288 
L 386.846606 137.961126 
L 386.717967 136.389965 
L 386.831714 134.818803 
L 387.196867 133.247641 
L 387.79987 131.67648 
L 388.607302 130.105318 
L 389.570473 128.534157 
L 390.631242 126.962995 
L 391.72831 125.391833 
L 392.803215 123.820672 
L 393.805388 122.24951 
L 394.695829 120.678348 
L 395.449177 119.107187 
L 396.054173 117.536025 
L 396.51272 115.964864 
L 396.837831 114.393702 
L 397.050856 112.82254 
L 397.178347 111.251379 
L 397.248909 109.680217 
L 397.290323 108.109056 
L 397.327146 106.537894 
L 397.378951 104.966732 
L 397.459258 103.395571 
L 397.575193 101.824409 
L 397.727791 100.253247 
L 397.91286 98.682086 
L 398.122242 97.110924 
L 398.345287 95.539763 
L 398.570382 93.968601 
L 398.786339 92.397439 
L 398.983551 90.826278 
L 399.154797 89.255116 
L 399.295695 87.683955 
L 399.404793 86.112793 
L 399.483357 84.541631 
L 399.534924 82.97047 
L 399.564696 81.399308 
L 399.578862 79.828146 
L 399.583916 78.256985 
L 399.586031 76.685823 
L 399.590549 75.114662 
L 399.601602 73.5435 
L 401.049307 73.5435 
L 401.049307 73.5435 
L 401.06036 75.114662 
L 401.064878 76.685823 
L 401.066993 78.256985 
L 401.072047 79.828146 
L 401.086213 81.399308 
L 401.115986 82.97047 
L 401.167552 84.541631 
L 401.246116 86.112793 
L 401.355214 87.683955 
L 401.496112 89.255116 
L 401.667358 90.826278 
L 401.86457 92.397439 
L 402.080527 93.968601 
L 402.305622 95.539763 
L 402.528668 97.110924 
L 402.738049 98.682086 
L 402.923118 100.253247 
L 403.075716 101.824409 
L 403.191651 103.395571 
L 403.271959 104.966732 
L 403.323763 106.537894 
L 403.360586 108.109056 
L 403.402 109.680217 
L 403.472562 111.251379 
L 403.600053 112.82254 
L 403.813078 114.393702 
L 404.138189 115.964864 
L 404.596736 117.536025 
L 405.201732 119.107187 
L 405.95508 120.678348 
L 406.845522 122.24951 
L 407.847694 123.820672 
L 408.922599 125.391833 
L 410.019667 126.962995 
L 411.080436 128.534157 
L 412.043607 130.105318 
L 412.851039 131.67648 
L 413.454042 133.247641 
L 413.819195 134.818803 
L 413.932942 136.389965 
L 413.804303 137.961126 
L 413.465271 139.532288 
L 412.968745 141.103449 
L 412.384164 142.674611 
L 411.791252 144.245773 
L 411.272532 145.816934 
L 410.905344 147.388096 
L 410.754147 148.959258 
L 410.863855 150.530419 
L 411.254821 152.101581 
L 411.919989 153.672742 
L 412.82454 155.243904 
L 413.908186 156.815066 
L 415.090024 158.386227 
L 416.275614 159.957389 
L 417.365695 161.528551 
L 418.265698 163.099712 
L 418.89505 164.670874 
L 419.195227 166.242035 
L 419.135593 167.813197 
L 418.716308 169.384359 
L 417.967955 170.95552 
L 416.947964 172.526682 
L 415.734317 174.097843 
L 414.417346 175.669005 
L 413.090664 177.240167 
L 411.842254 178.811328 
L 410.746668 180.38249 
L 409.859065 181.953652 
L 409.211514 183.524813 
L 408.811731 185.095975 
L 408.644155 186.667136 
L 408.673066 188.238298 
L 408.847314 189.80946 
L 409.106129 191.380621 
L 409.385437 192.951783 
L 409.624074 194.522944 
L 409.769357 196.094106 
L 409.781472 197.665268 
L 409.63633 199.236429 
L 409.326657 200.807591 
L 408.861304 202.378753 
L 408.262966 203.949914 
L 407.564682 205.521076 
L 406.805613 207.092237 
L 406.026637 208.663399 
L 405.266289 210.234561 
L 404.557455 211.805722 
L 403.925087 213.376884 
L 403.385051 214.948045 
L 402.944037 216.519207 
L 402.600388 218.090369 
L 402.345577 219.66153 
L 402.166096 221.232692 
L 402.045469 222.803854 
L 401.966201 224.375015 
L 401.911478 225.946177 
L 401.866512 227.517338 
L 401.819477 229.0885 
z
" clip-path="url(#p576ceab66c)" style="fill: #1f77b4; fill-opacity: 0.3"/>
   </g>
   <g id="PolyCollection_6">
    <path d="M 484.350734 229.0885 
L 467.258357 229.0885 
L 467.271272 227.831571 
L 467.39641 226.574641 
L 467.615609 225.317712 
L 467.903126 224.060783 
L 468.226896 222.803854 
L 468.550261 221.546924 
L 468.834064 220.289995 
L 469.03898 219.033066 
L 469.127954 217.776136 
L 469.068616 216.519207 
L 468.835563 215.262278 
L 468.412386 214.005348 
L 467.793319 212.748419 
L 466.984403 211.49149 
L 466.004027 210.234561 
L 464.882747 208.977631 
L 463.662295 207.720702 
L 462.39373 206.463773 
L 461.134775 205.206843 
L 459.946443 203.949914 
L 458.889158 202.692985 
L 458.018653 201.436056 
L 457.381984 200.179126 
L 457.014024 198.922197 
L 456.934773 197.665268 
L 457.147753 196.408338 
L 457.639658 195.151409 
L 458.381296 193.89448 
L 459.329719 192.637551 
L 460.431341 191.380621 
L 461.625736 190.123692 
L 462.84976 188.866763 
L 464.041665 187.609833 
L 465.144864 186.352904 
L 466.111133 185.095975 
L 466.903052 183.839045 
L 467.495621 182.582116 
L 467.877044 181.325187 
L 468.048694 180.068258 
L 468.024367 178.811328 
L 467.828899 177.554399 
L 467.496245 176.29747 
L 467.067144 175.04054 
L 466.586468 173.783611 
L 466.100393 172.526682 
L 465.653538 171.269753 
L 465.286242 170.012823 
L 465.032142 168.755894 
L 464.91623 167.498965 
L 464.953537 166.242035 
L 465.148531 164.985106 
L 465.49529 163.728177 
L 465.978409 162.471247 
L 466.57455 161.214318 
L 467.254488 159.957389 
L 467.985441 158.70046 
L 468.7335 157.44353 
L 469.46593 156.186601 
L 470.153201 154.929672 
L 470.7706 153.672742 
L 471.29937 152.415813 
L 471.727347 151.158884 
L 472.049118 149.901955 
L 472.265761 148.645025 
L 472.38423 147.388096 
L 472.416469 146.131167 
L 472.378327 144.874237 
L 472.288352 143.617308 
L 472.166526 142.360379 
L 472.033001 141.103449 
L 471.9069 139.84652 
L 471.805246 138.589591 
L 471.742063 137.332662 
L 471.727714 136.075732 
L 471.768512 134.818803 
L 471.866619 133.561874 
L 472.020236 132.304944 
L 472.224066 131.048015 
L 472.469989 129.791086 
L 472.747884 128.534157 
L 473.046532 127.277227 
L 473.354492 126.020298 
L 473.660908 124.763369 
L 473.956155 123.506439 
L 474.232321 122.24951 
L 474.483472 120.992581 
L 474.705744 119.735652 
L 474.897257 118.478722 
L 475.057898 117.221793 
L 475.189029 115.964864 
L 475.293127 114.707934 
L 475.373438 113.451005 
L 475.433634 112.194076 
L 475.47752 110.937146 
L 475.508796 109.680217 
L 475.53087 108.423288 
L 475.546732 107.166359 
L 475.558883 105.909429 
L 475.569298 104.6525 
L 476.039793 104.6525 
L 476.039793 104.6525 
L 476.050208 105.909429 
L 476.062359 107.166359 
L 476.078221 108.423288 
L 476.100295 109.680217 
L 476.131571 110.937146 
L 476.175457 112.194076 
L 476.235653 113.451005 
L 476.315963 114.707934 
L 476.420062 115.964864 
L 476.551192 117.221793 
L 476.711834 118.478722 
L 476.903347 119.735652 
L 477.125619 120.992581 
L 477.37677 122.24951 
L 477.652936 123.506439 
L 477.948183 124.763369 
L 478.254599 126.020298 
L 478.562559 127.277227 
L 478.861207 128.534157 
L 479.139102 129.791086 
L 479.385025 131.048015 
L 479.588855 132.304944 
L 479.742472 133.561874 
L 479.840579 134.818803 
L 479.881377 136.075732 
L 479.867028 137.332662 
L 479.803845 138.589591 
L 479.702191 139.84652 
L 479.57609 141.103449 
L 479.442565 142.360379 
L 479.320739 143.617308 
L 479.230764 144.874237 
L 479.192622 146.131167 
L 479.224861 147.388096 
L 479.34333 148.645025 
L 479.559973 149.901955 
L 479.881744 151.158884 
L 480.30972 152.415813 
L 480.838491 153.672742 
L 481.45589 154.929672 
L 482.143161 156.186601 
L 482.875591 157.44353 
L 483.623649 158.70046 
L 484.354603 159.957389 
L 485.034541 161.214318 
L 485.630682 162.471247 
L 486.1138 163.728177 
L 486.460559 164.985106 
L 486.655554 166.242035 
L 486.692861 167.498965 
L 486.576949 168.755894 
L 486.322849 170.012823 
L 485.955553 171.269753 
L 485.508698 172.526682 
L 485.022623 173.783611 
L 484.541947 175.04054 
L 484.112846 176.29747 
L 483.780192 177.554399 
L 483.584724 178.811328 
L 483.560397 180.068258 
L 483.732047 181.325187 
L 484.11347 182.582116 
L 484.706039 183.839045 
L 485.497958 185.095975 
L 486.464227 186.352904 
L 487.567426 187.609833 
L 488.759331 188.866763 
L 489.983355 190.123692 
L 491.17775 191.380621 
L 492.279372 192.637551 
L 493.227795 193.89448 
L 493.969433 195.151409 
L 494.461338 196.408338 
L 494.674318 197.665268 
L 494.595067 198.922197 
L 494.227107 200.179126 
L 493.590438 201.436056 
L 492.719933 202.692985 
L 491.662648 203.949914 
L 490.474316 205.206843 
L 489.215361 206.463773 
L 487.946796 207.720702 
L 486.726344 208.977631 
L 485.605064 210.234561 
L 484.624688 211.49149 
L 483.815772 212.748419 
L 483.196705 214.005348 
L 482.773528 215.262278 
L 482.540475 216.519207 
L 482.481137 217.776136 
L 482.570111 219.033066 
L 482.775027 220.289995 
L 483.05883 221.546924 
L 483.382195 222.803854 
L 483.705965 224.060783 
L 483.993482 225.317712 
L 484.212681 226.574641 
L 484.337819 227.831571 
L 484.350734 229.0885 
z
" clip-path="url(#p576ceab66c)" style="fill: #1f77b4; fill-opacity: 0.3"/>
   </g>
   <g id="PolyCollection_7">
    <path d="M 570.153409 291.3065 
L 532.413864 291.3065 
L 532.505998 290.678035 
L 532.779806 290.049571 
L 533.227314 289.421106 
L 533.835663 288.792641 
L 534.587716 288.164177 
L 535.462846 287.535712 
L 536.437865 286.907247 
L 537.488012 286.278783 
L 538.587969 285.650318 
L 539.712816 285.021854 
L 540.838892 284.393389 
L 541.944513 283.764924 
L 543.010516 283.13646 
L 544.020613 282.507995 
L 544.961556 281.87953 
L 545.823125 281.251066 
L 546.597943 280.622601 
L 547.281173 279.994136 
L 547.870111 279.365672 
L 548.363725 278.737207 
L 548.762164 278.108742 
L 549.066289 277.480278 
L 549.277245 276.851813 
L 549.39611 276.223348 
L 549.423632 275.594884 
L 549.36008 274.966419 
L 549.20521 274.337955 
L 548.958347 273.70949 
L 548.618588 273.081025 
L 548.1851 272.452561 
L 547.657504 271.824096 
L 547.036319 271.195631 
L 546.323439 270.567167 
L 545.522602 269.938702 
L 544.639826 269.310237 
L 543.683761 268.681773 
L 542.665938 268.053308 
L 541.600864 267.424843 
L 540.505959 266.796379 
L 539.4013 266.167914 
L 538.309183 265.539449 
L 537.253501 264.910985 
L 536.258973 264.28252 
L 535.350244 263.654056 
L 534.550919 263.025591 
L 533.882571 262.397126 
L 533.363797 261.768662 
L 533.009369 261.140197 
L 532.82955 260.511732 
L 532.829601 259.883268 
L 533.009532 259.254803 
L 533.364105 258.626338 
L 533.883086 257.997874 
L 534.551741 257.369409 
L 535.351525 256.740944 
L 536.26094 256.11248 
L 537.256487 255.484015 
L 538.313669 254.855551 
L 539.407972 254.227086 
L 540.515784 253.598621 
L 541.61519 252.970157 
L 542.686624 252.341692 
L 543.71334 251.713227 
L 544.681707 251.084763 
L 545.581324 250.456298 
L 546.404972 249.827833 
L 547.14842 249.199369 
L 547.810131 248.570904 
L 548.390878 247.942439 
L 548.893321 247.313975 
L 549.321565 246.68551 
L 549.680732 246.057045 
L 549.97656 245.428581 
L 550.215062 244.800116 
L 550.402234 244.171652 
L 550.543834 243.543187 
L 550.645228 242.914722 
L 550.711293 242.286258 
L 550.746379 241.657793 
L 550.75432 241.029328 
L 550.738477 240.400864 
L 550.701817 239.772399 
L 550.646998 239.143934 
L 550.576468 238.51547 
L 550.492566 237.887005 
L 550.397603 237.25854 
L 550.293934 236.630076 
L 550.184011 236.001611 
L 550.070405 235.373146 
L 549.955807 234.744682 
L 549.843002 234.116217 
L 549.734823 233.487753 
L 549.634076 232.859288 
L 549.543464 232.230823 
L 549.465486 231.602359 
L 549.402354 230.973894 
L 549.355892 230.345429 
L 549.327468 229.716965 
L 549.317934 229.0885 
L 553.249339 229.0885 
L 553.249339 229.0885 
L 553.239804 229.716965 
L 553.211381 230.345429 
L 553.164919 230.973894 
L 553.101786 231.602359 
L 553.023809 232.230823 
L 552.933196 232.859288 
L 552.83245 233.487753 
L 552.72427 234.116217 
L 552.611466 234.744682 
L 552.496868 235.373146 
L 552.383262 236.001611 
L 552.273339 236.630076 
L 552.16967 237.25854 
L 552.074707 237.887005 
L 551.990804 238.51547 
L 551.920275 239.143934 
L 551.865455 239.772399 
L 551.828795 240.400864 
L 551.812953 241.029328 
L 551.820894 241.657793 
L 551.85598 242.286258 
L 551.922044 242.914722 
L 552.023438 243.543187 
L 552.165039 244.171652 
L 552.35221 244.800116 
L 552.590712 245.428581 
L 552.886541 246.057045 
L 553.245708 246.68551 
L 553.673952 247.313975 
L 554.176395 247.942439 
L 554.757142 248.570904 
L 555.418853 249.199369 
L 556.162301 249.827833 
L 556.985948 250.456298 
L 557.885566 251.084763 
L 558.853933 251.713227 
L 559.880648 252.341692 
L 560.952082 252.970157 
L 562.051489 253.598621 
L 563.159301 254.227086 
L 564.253604 254.855551 
L 565.310786 255.484015 
L 566.306333 256.11248 
L 567.215748 256.740944 
L 568.015532 257.369409 
L 568.684187 257.997874 
L 569.203168 258.626338 
L 569.557741 259.254803 
L 569.737672 259.883268 
L 569.737722 260.511732 
L 569.557903 261.140197 
L 569.203476 261.768662 
L 568.684702 262.397126 
L 568.016354 263.025591 
L 567.217029 263.654056 
L 566.3083 264.28252 
L 565.313772 264.910985 
L 564.25809 265.539449 
L 563.165972 266.167914 
L 562.061313 266.796379 
L 560.966408 267.424843 
L 559.901335 268.053308 
L 558.883511 268.681773 
L 557.927447 269.310237 
L 557.044671 269.938702 
L 556.243834 270.567167 
L 555.530954 271.195631 
L 554.909769 271.824096 
L 554.382173 272.452561 
L 553.948685 273.081025 
L 553.608926 273.70949 
L 553.362063 274.337955 
L 553.207192 274.966419 
L 553.143641 275.594884 
L 553.171163 276.223348 
L 553.290028 276.851813 
L 553.500984 277.480278 
L 553.805109 278.108742 
L 554.203547 278.737207 
L 554.697161 279.365672 
L 555.2861 279.994136 
L 555.96933 280.622601 
L 556.744148 281.251066 
L 557.605716 281.87953 
L 558.54666 282.507995 
L 559.556757 283.13646 
L 560.622759 283.764924 
L 561.728381 284.393389 
L 562.854457 285.021854 
L 563.979304 285.650318 
L 565.079261 286.278783 
L 566.129408 286.907247 
L 567.104426 287.535712 
L 567.979557 288.164177 
L 568.73161 288.792641 
L 569.339959 289.421106 
L 569.787467 290.049571 
L 570.061275 290.678035 
L 570.153409 291.3065 
z
" clip-path="url(#p576ceab66c)" style="fill: #1f77b4; fill-opacity: 0.3"/>
   </g>
   <g id="PolyCollection_8">
    <path d="M 645.6325 291.3065 
L 607.892955 291.3065 
L 607.987661 290.678035 
L 608.269007 290.049571 
L 608.728582 289.421106 
L 609.352832 288.792641 
L 610.123718 288.164177 
L 611.019573 287.535712 
L 612.016098 286.907247 
L 613.087435 286.278783 
L 614.207243 285.650318 
L 615.349724 285.021854 
L 616.490528 284.393389 
L 617.607502 283.764924 
L 618.681254 283.13646 
L 619.695495 282.507995 
L 620.637197 281.87953 
L 621.496534 281.251066 
L 622.266671 280.622601 
L 622.943408 279.994136 
L 623.524722 279.365672 
L 624.010261 278.737207 
L 624.400811 278.108742 
L 624.697783 277.480278 
L 624.902759 276.851813 
L 625.017111 276.223348 
L 625.041726 275.594884 
L 624.976846 274.966419 
L 624.822037 274.337955 
L 624.576277 273.70949 
L 624.238176 273.081025 
L 623.806299 272.452561 
L 623.279581 271.824096 
L 622.657816 271.195631 
L 621.942171 270.567167 
L 621.135713 269.938702 
L 620.243892 269.310237 
L 619.274943 268.681773 
L 618.240184 268.053308 
L 617.154143 267.424843 
L 616.034521 266.796379 
L 614.90194 266.167914 
L 613.779499 265.539449 
L 612.692119 264.910985 
L 611.665724 264.28252 
L 610.726275 263.654056 
L 609.898726 263.025591 
L 609.205952 262.397126 
L 608.667715 261.768662 
L 608.299743 261.140197 
L 608.112971 260.511732 
L 608.113009 259.883268 
L 608.299865 259.254803 
L 608.667947 258.626338 
L 609.206344 257.997874 
L 609.899358 257.369409 
L 610.727271 256.740944 
L 611.667272 256.11248 
L 612.694496 255.484015 
L 613.783109 254.855551 
L 614.907369 254.227086 
L 616.042602 253.598621 
L 617.166051 252.970157 
L 618.257555 252.341692 
L 619.300029 251.713227 
L 620.279756 251.084763 
L 621.186474 250.456298 
L 622.013295 249.827833 
L 622.756474 249.199369 
L 623.415062 248.570904 
L 623.990481 247.942439 
L 624.486059 247.313975 
L 624.906549 246.68551 
L 625.257673 246.057045 
L 625.545703 245.428581 
L 625.777102 244.800116 
L 625.958227 244.171652 
L 626.095111 243.543187 
L 626.193305 242.914722 
L 626.257795 242.286258 
L 626.292971 241.657793 
L 626.302647 241.029328 
L 626.290114 240.400864 
L 626.258223 239.772399 
L 626.209487 239.143934 
L 626.146183 238.51547 
L 626.070454 237.887005 
L 625.984405 237.25854 
L 625.890174 236.630076 
L 625.789989 236.001611 
L 625.686195 235.373146 
L 625.581263 234.744682 
L 625.477765 234.116217 
L 625.378329 233.487753 
L 625.285573 232.859288 
L 625.202028 232.230823 
L 625.130046 231.602359 
L 625.071709 230.973894 
L 625.028744 230.345429 
L 625.002443 229.716965 
L 624.993612 229.0885 
L 628.531843 229.0885 
L 628.531843 229.0885 
L 628.523012 229.716965 
L 628.496711 230.345429 
L 628.453745 230.973894 
L 628.395409 231.602359 
L 628.323427 232.230823 
L 628.239882 232.859288 
L 628.147126 233.487753 
L 628.047689 234.116217 
L 627.944191 234.744682 
L 627.83926 235.373146 
L 627.735466 236.001611 
L 627.63528 236.630076 
L 627.541049 237.25854 
L 627.455 237.887005 
L 627.379272 238.51547 
L 627.315968 239.143934 
L 627.267232 239.772399 
L 627.235341 240.400864 
L 627.222807 241.029328 
L 627.232483 241.657793 
L 627.26766 242.286258 
L 627.33215 242.914722 
L 627.430344 243.543187 
L 627.567227 244.171652 
L 627.748353 244.800116 
L 627.979751 245.428581 
L 628.267782 246.057045 
L 628.618906 246.68551 
L 629.039396 247.313975 
L 629.534973 247.942439 
L 630.110392 248.570904 
L 630.76898 249.199369 
L 631.512159 249.827833 
L 632.33898 250.456298 
L 633.245698 251.084763 
L 634.225425 251.713227 
L 635.2679 252.341692 
L 636.359403 252.970157 
L 637.482853 253.598621 
L 638.618086 254.227086 
L 639.742345 254.855551 
L 640.830959 255.484015 
L 641.858183 256.11248 
L 642.798184 256.740944 
L 643.626097 257.369409 
L 644.319111 257.997874 
L 644.857507 258.626338 
L 645.22559 259.254803 
L 645.412446 259.883268 
L 645.412484 260.511732 
L 645.225712 261.140197 
L 644.857739 261.768662 
L 644.319503 262.397126 
L 643.626729 263.025591 
L 642.79918 263.654056 
L 641.859731 264.28252 
L 640.833335 264.910985 
L 639.745956 265.539449 
L 638.623515 266.167914 
L 637.490934 266.796379 
L 636.371311 267.424843 
L 635.285271 268.053308 
L 634.250511 268.681773 
L 633.281563 269.310237 
L 632.389741 269.938702 
L 631.583283 270.567167 
L 630.867639 271.195631 
L 630.245873 271.824096 
L 629.719156 272.452561 
L 629.287278 273.081025 
L 628.949177 273.70949 
L 628.703418 274.337955 
L 628.548608 274.966419 
L 628.483729 275.594884 
L 628.508344 276.223348 
L 628.622696 276.851813 
L 628.827672 277.480278 
L 629.124644 278.108742 
L 629.515193 278.737207 
L 630.000733 279.365672 
L 630.582047 279.994136 
L 631.258783 280.622601 
L 632.028921 281.251066 
L 632.888258 281.87953 
L 633.829959 282.507995 
L 634.844201 283.13646 
L 635.917952 283.764924 
L 637.034927 284.393389 
L 638.175731 285.021854 
L 639.318211 285.650318 
L 640.438019 286.278783 
L 641.509356 286.907247 
L 642.505882 287.535712 
L 643.401737 288.164177 
L 644.172623 288.792641 
L 644.796872 289.421106 
L 645.256447 290.049571 
L 645.537794 290.678035 
L 645.6325 291.3065 
z
" clip-path="url(#p576ceab66c)" style="fill: #1f77b4; fill-opacity: 0.3"/>
   </g>
   <g id="PolyCollection_9">
    <path d="M 721.111591 322.4155 
L 683.372045 322.4155 
L 683.372045 322.4155 
L 683.372045 322.4155 
L 683.372045 322.4155 
L 683.372045 322.4155 
L 683.372045 322.4155 
L 683.372045 322.4155 
L 683.372045 322.4155 
L 683.372045 322.4155 
L 683.372045 322.4155 
L 683.372045 322.4155 
L 683.372045 322.4155 
L 683.372045 322.4155 
L 683.372045 322.4155 
L 683.372045 322.4155 
L 683.372045 322.4155 
L 683.372045 322.4155 
L 683.372045 322.4155 
L 683.372045 322.4155 
L 683.372045 322.4155 
L 683.372045 322.4155 
L 683.372045 322.4155 
L 683.372045 322.4155 
L 683.372045 322.4155 
L 683.372045 322.4155 
L 683.372045 322.4155 
L 683.372045 322.4155 
L 683.372045 322.4155 
L 683.372045 322.4155 
L 683.372045 322.4155 
L 683.372045 322.4155 
L 683.372045 322.4155 
L 683.372045 322.4155 
L 683.372045 322.4155 
L 683.372045 322.4155 
L 683.372045 322.4155 
L 683.372045 322.4155 
L 683.372045 322.4155 
L 683.372045 322.4155 
L 683.372045 322.4155 
L 683.372045 322.4155 
L 683.372045 322.4155 
L 683.372045 322.4155 
L 683.372045 322.4155 
L 683.372045 322.4155 
L 683.372045 322.4155 
L 683.372045 322.4155 
L 683.372045 322.4155 
L 683.372045 322.4155 
L 683.372045 322.4155 
L 683.372045 322.4155 
L 683.372045 322.4155 
L 683.372045 322.4155 
L 683.372045 322.4155 
L 683.372045 322.4155 
L 683.372045 322.4155 
L 683.372045 322.4155 
L 683.372045 322.4155 
L 683.372045 322.4155 
L 683.372045 322.4155 
L 683.372045 322.4155 
L 683.372045 322.4155 
L 683.372045 322.4155 
L 683.372045 322.4155 
L 683.372045 322.4155 
L 683.372045 322.4155 
L 683.372045 322.4155 
L 683.372045 322.4155 
L 683.372045 322.4155 
L 683.372045 322.4155 
L 683.372045 322.4155 
L 683.372045 322.4155 
L 683.372045 322.4155 
L 683.372045 322.4155 
L 683.372045 322.4155 
L 683.372045 322.4155 
L 683.372045 322.4155 
L 683.372045 322.4155 
L 683.372045 322.4155 
L 683.372045 322.4155 
L 683.372045 322.4155 
L 683.372045 322.4155 
L 683.372045 322.4155 
L 683.372045 322.4155 
L 683.372045 322.4155 
L 683.372045 322.4155 
L 683.372045 322.4155 
L 683.372045 322.4155 
L 683.372045 322.4155 
L 683.372045 322.4155 
L 683.372045 322.4155 
L 683.372045 322.4155 
L 683.372045 322.4155 
L 683.372045 322.4155 
L 683.372045 322.4155 
L 683.372045 322.4155 
L 683.372045 322.4155 
L 683.372045 322.4155 
L 683.372045 322.4155 
L 683.372045 322.4155 
L 721.111591 322.4155 
L 721.111591 322.4155 
L 721.111591 322.4155 
L 721.111591 322.4155 
L 721.111591 322.4155 
L 721.111591 322.4155 
L 721.111591 322.4155 
L 721.111591 322.4155 
L 721.111591 322.4155 
L 721.111591 322.4155 
L 721.111591 322.4155 
L 721.111591 322.4155 
L 721.111591 322.4155 
L 721.111591 322.4155 
L 721.111591 322.4155 
L 721.111591 322.4155 
L 721.111591 322.4155 
L 721.111591 322.4155 
L 721.111591 322.4155 
L 721.111591 322.4155 
L 721.111591 322.4155 
L 721.111591 322.4155 
L 721.111591 322.4155 
L 721.111591 322.4155 
L 721.111591 322.4155 
L 721.111591 322.4155 
L 721.111591 322.4155 
L 721.111591 322.4155 
L 721.111591 322.4155 
L 721.111591 322.4155 
L 721.111591 322.4155 
L 721.111591 322.4155 
L 721.111591 322.4155 
L 721.111591 322.4155 
L 721.111591 322.4155 
L 721.111591 322.4155 
L 721.111591 322.4155 
L 721.111591 322.4155 
L 721.111591 322.4155 
L 721.111591 322.4155 
L 721.111591 322.4155 
L 721.111591 322.4155 
L 721.111591 322.4155 
L 721.111591 322.4155 
L 721.111591 322.4155 
L 721.111591 322.4155 
L 721.111591 322.4155 
L 721.111591 322.4155 
L 721.111591 322.4155 
L 721.111591 322.4155 
L 721.111591 322.4155 
L 721.111591 322.4155 
L 721.111591 322.4155 
L 721.111591 322.4155 
L 721.111591 322.4155 
L 721.111591 322.4155 
L 721.111591 322.4155 
L 721.111591 322.4155 
L 721.111591 322.4155 
L 721.111591 322.4155 
L 721.111591 322.4155 
L 721.111591 322.4155 
L 721.111591 322.4155 
L 721.111591 322.4155 
L 721.111591 322.4155 
L 721.111591 322.4155 
L 721.111591 322.4155 
L 721.111591 322.4155 
L 721.111591 322.4155 
L 721.111591 322.4155 
L 721.111591 322.4155 
L 721.111591 322.4155 
L 721.111591 322.4155 
L 721.111591 322.4155 
L 721.111591 322.4155 
L 721.111591 322.4155 
L 721.111591 322.4155 
L 721.111591 322.4155 
L 721.111591 322.4155 
L 721.111591 322.4155 
L 721.111591 322.4155 
L 721.111591 322.4155 
L 721.111591 322.4155 
L 721.111591 322.4155 
L 721.111591 322.4155 
L 721.111591 322.4155 
L 721.111591 322.4155 
L 721.111591 322.4155 
L 721.111591 322.4155 
L 721.111591 322.4155 
L 721.111591 322.4155 
L 721.111591 322.4155 
L 721.111591 322.4155 
L 721.111591 322.4155 
L 721.111591 322.4155 
L 721.111591 322.4155 
L 721.111591 322.4155 
L 721.111591 322.4155 
L 721.111591 322.4155 
L 721.111591 322.4155 
L 721.111591 322.4155 
z
" clip-path="url(#p576ceab66c)" style="fill: #1f77b4; fill-opacity: 0.3"/>
   </g>
   <g id="PolyCollection_10">
    <path d="M 796.590682 322.4155 
L 758.851136 322.4155 
L 758.851136 322.4155 
L 758.851136 322.4155 
L 758.851136 322.4155 
L 758.851136 322.4155 
L 758.851136 322.4155 
L 758.851136 322.4155 
L 758.851136 322.4155 
L 758.851136 322.4155 
L 758.851136 322.4155 
L 758.851136 322.4155 
L 758.851136 322.4155 
L 758.851136 322.4155 
L 758.851136 322.4155 
L 758.851136 322.4155 
L 758.851136 322.4155 
L 758.851136 322.4155 
L 758.851136 322.4155 
L 758.851136 322.4155 
L 758.851136 322.4155 
L 758.851136 322.4155 
L 758.851136 322.4155 
L 758.851136 322.4155 
L 758.851136 322.4155 
L 758.851136 322.4155 
L 758.851136 322.4155 
L 758.851136 322.4155 
L 758.851136 322.4155 
L 758.851136 322.4155 
L 758.851136 322.4155 
L 758.851136 322.4155 
L 758.851136 322.4155 
L 758.851136 322.4155 
L 758.851136 322.4155 
L 758.851136 322.4155 
L 758.851136 322.4155 
L 758.851136 322.4155 
L 758.851136 322.4155 
L 758.851136 322.4155 
L 758.851136 322.4155 
L 758.851136 322.4155 
L 758.851136 322.4155 
L 758.851136 322.4155 
L 758.851136 322.4155 
L 758.851136 322.4155 
L 758.851136 322.4155 
L 758.851136 322.4155 
L 758.851136 322.4155 
L 758.851136 322.4155 
L 758.851136 322.4155 
L 758.851136 322.4155 
L 758.851136 322.4155 
L 758.851136 322.4155 
L 758.851136 322.4155 
L 758.851136 322.4155 
L 758.851136 322.4155 
L 758.851136 322.4155 
L 758.851136 322.4155 
L 758.851136 322.4155 
L 758.851136 322.4155 
L 758.851136 322.4155 
L 758.851136 322.4155 
L 758.851136 322.4155 
L 758.851136 322.4155 
L 758.851136 322.4155 
L 758.851136 322.4155 
L 758.851136 322.4155 
L 758.851136 322.4155 
L 758.851136 322.4155 
L 758.851136 322.4155 
L 758.851136 322.4155 
L 758.851136 322.4155 
L 758.851136 322.4155 
L 758.851136 322.4155 
L 758.851136 322.4155 
L 758.851136 322.4155 
L 758.851136 322.4155 
L 758.851136 322.4155 
L 758.851136 322.4155 
L 758.851136 322.4155 
L 758.851136 322.4155 
L 758.851136 322.4155 
L 758.851136 322.4155 
L 758.851136 322.4155 
L 758.851136 322.4155 
L 758.851136 322.4155 
L 758.851136 322.4155 
L 758.851136 322.4155 
L 758.851136 322.4155 
L 758.851136 322.4155 
L 758.851136 322.4155 
L 758.851136 322.4155 
L 758.851136 322.4155 
L 758.851136 322.4155 
L 758.851136 322.4155 
L 758.851136 322.4155 
L 758.851136 322.4155 
L 758.851136 322.4155 
L 758.851136 322.4155 
L 758.851136 322.4155 
L 796.590682 322.4155 
L 796.590682 322.4155 
L 796.590682 322.4155 
L 796.590682 322.4155 
L 796.590682 322.4155 
L 796.590682 322.4155 
L 796.590682 322.4155 
L 796.590682 322.4155 
L 796.590682 322.4155 
L 796.590682 322.4155 
L 796.590682 322.4155 
L 796.590682 322.4155 
L 796.590682 322.4155 
L 796.590682 322.4155 
L 796.590682 322.4155 
L 796.590682 322.4155 
L 796.590682 322.4155 
L 796.590682 322.4155 
L 796.590682 322.4155 
L 796.590682 322.4155 
L 796.590682 322.4155 
L 796.590682 322.4155 
L 796.590682 322.4155 
L 796.590682 322.4155 
L 796.590682 322.4155 
L 796.590682 322.4155 
L 796.590682 322.4155 
L 796.590682 322.4155 
L 796.590682 322.4155 
L 796.590682 322.4155 
L 796.590682 322.4155 
L 796.590682 322.4155 
L 796.590682 322.4155 
L 796.590682 322.4155 
L 796.590682 322.4155 
L 796.590682 322.4155 
L 796.590682 322.4155 
L 796.590682 322.4155 
L 796.590682 322.4155 
L 796.590682 322.4155 
L 796.590682 322.4155 
L 796.590682 322.4155 
L 796.590682 322.4155 
L 796.590682 322.4155 
L 796.590682 322.4155 
L 796.590682 322.4155 
L 796.590682 322.4155 
L 796.590682 322.4155 
L 796.590682 322.4155 
L 796.590682 322.4155 
L 796.590682 322.4155 
L 796.590682 322.4155 
L 796.590682 322.4155 
L 796.590682 322.4155 
L 796.590682 322.4155 
L 796.590682 322.4155 
L 796.590682 322.4155 
L 796.590682 322.4155 
L 796.590682 322.4155 
L 796.590682 322.4155 
L 796.590682 322.4155 
L 796.590682 322.4155 
L 796.590682 322.4155 
L 796.590682 322.4155 
L 796.590682 322.4155 
L 796.590682 322.4155 
L 796.590682 322.4155 
L 796.590682 322.4155 
L 796.590682 322.4155 
L 796.590682 322.4155 
L 796.590682 322.4155 
L 796.590682 322.4155 
L 796.590682 322.4155 
L 796.590682 322.4155 
L 796.590682 322.4155 
L 796.590682 322.4155 
L 796.590682 322.4155 
L 796.590682 322.4155 
L 796.590682 322.4155 
L 796.590682 322.4155 
L 796.590682 322.4155 
L 796.590682 322.4155 
L 796.590682 322.4155 
L 796.590682 322.4155 
L 796.590682 322.4155 
L 796.590682 322.4155 
L 796.590682 322.4155 
L 796.590682 322.4155 
L 796.590682 322.4155 
L 796.590682 322.4155 
L 796.590682 322.4155 
L 796.590682 322.4155 
L 796.590682 322.4155 
L 796.590682 322.4155 
L 796.590682 322.4155 
L 796.590682 322.4155 
L 796.590682 322.4155 
L 796.590682 322.4155 
L 796.590682 322.4155 
L 796.590682 322.4155 
L 796.590682 322.4155 
z
" clip-path="url(#p576ceab66c)" style="fill: #1f77b4; fill-opacity: 0.3"/>
   </g>
   <g id="matplotlib.axis_1">
    <g id="xtick_1">
     <g id="line2d_1">
      <defs>
       <path id="m202bd497bf" d="M 0 0 
L 0 3.5 
" style="stroke: #000000; stroke-width: 0.8"/>
      </defs>
      <g>
       <use xlink:href="#m202bd497bf" x="98.409091" y="337.97" style="stroke: #000000; stroke-width: 0.8"/>
      </g>
     </g>
     <g id="text_1">
      <!-- Defector -->
      <g transform="translate(100.616591 379.51)rotate(-90)scale(0.08 -0.08)">
       <defs>
        <path id="DejaVuSans-44" d="M 1259 4147 
L 1259 519 
L 2022 519 
Q 2988 519 3436 956 
Q 3884 1394 3884 2338 
Q 3884 3275 3436 3711 
Q 2988 4147 2022 4147 
L 1259 4147 
z
M 628 4666 
L 1925 4666 
Q 3281 4666 3915 4102 
Q 4550 3538 4550 2338 
Q 4550 1131 3912 565 
Q 3275 0 1925 0 
L 628 0 
L 628 4666 
z
" transform="scale(0.015625)"/>
        <path id="DejaVuSans-65" d="M 3597 1894 
L 3597 1613 
L 953 1613 
Q 991 1019 1311 708 
Q 1631 397 2203 397 
Q 2534 397 2845 478 
Q 3156 559 3463 722 
L 3463 178 
Q 3153 47 2828 -22 
Q 2503 -91 2169 -91 
Q 1331 -91 842 396 
Q 353 884 353 1716 
Q 353 2575 817 3079 
Q 1281 3584 2069 3584 
Q 2775 3584 3186 3129 
Q 3597 2675 3597 1894 
z
M 3022 2063 
Q 3016 2534 2758 2815 
Q 2500 3097 2075 3097 
Q 1594 3097 1305 2825 
Q 1016 2553 972 2059 
L 3022 2063 
z
" transform="scale(0.015625)"/>
        <path id="DejaVuSans-66" d="M 2375 4863 
L 2375 4384 
L 1825 4384 
Q 1516 4384 1395 4259 
Q 1275 4134 1275 3809 
L 1275 3500 
L 2222 3500 
L 2222 3053 
L 1275 3053 
L 1275 0 
L 697 0 
L 697 3053 
L 147 3053 
L 147 3500 
L 697 3500 
L 697 3744 
Q 697 4328 969 4595 
Q 1241 4863 1831 4863 
L 2375 4863 
z
" transform="scale(0.015625)"/>
        <path id="DejaVuSans-63" d="M 3122 3366 
L 3122 2828 
Q 2878 2963 2633 3030 
Q 2388 3097 2138 3097 
Q 1578 3097 1268 2742 
Q 959 2388 959 1747 
Q 959 1106 1268 751 
Q 1578 397 2138 397 
Q 2388 397 2633 464 
Q 2878 531 3122 666 
L 3122 134 
Q 2881 22 2623 -34 
Q 2366 -91 2075 -91 
Q 1284 -91 818 406 
Q 353 903 353 1747 
Q 353 2603 823 3093 
Q 1294 3584 2113 3584 
Q 2378 3584 2631 3529 
Q 2884 3475 3122 3366 
z
" transform="scale(0.015625)"/>
        <path id="DejaVuSans-74" d="M 1172 4494 
L 1172 3500 
L 2356 3500 
L 2356 3053 
L 1172 3053 
L 1172 1153 
Q 1172 725 1289 603 
Q 1406 481 1766 481 
L 2356 481 
L 2356 0 
L 1766 0 
Q 1100 0 847 248 
Q 594 497 594 1153 
L 594 3053 
L 172 3053 
L 172 3500 
L 594 3500 
L 594 4494 
L 1172 4494 
z
" transform="scale(0.015625)"/>
        <path id="DejaVuSans-6f" d="M 1959 3097 
Q 1497 3097 1228 2736 
Q 959 2375 959 1747 
Q 959 1119 1226 758 
Q 1494 397 1959 397 
Q 2419 397 2687 759 
Q 2956 1122 2956 1747 
Q 2956 2369 2687 2733 
Q 2419 3097 1959 3097 
z
M 1959 3584 
Q 2709 3584 3137 3096 
Q 3566 2609 3566 1747 
Q 3566 888 3137 398 
Q 2709 -91 1959 -91 
Q 1206 -91 779 398 
Q 353 888 353 1747 
Q 353 2609 779 3096 
Q 1206 3584 1959 3584 
z
" transform="scale(0.015625)"/>
        <path id="DejaVuSans-72" d="M 2631 2963 
Q 2534 3019 2420 3045 
Q 2306 3072 2169 3072 
Q 1681 3072 1420 2755 
Q 1159 2438 1159 1844 
L 1159 0 
L 581 0 
L 581 3500 
L 1159 3500 
L 1159 2956 
Q 1341 3275 1631 3429 
Q 1922 3584 2338 3584 
Q 2397 3584 2469 3576 
Q 2541 3569 2628 3553 
L 2631 2963 
z
" transform="scale(0.015625)"/>
       </defs>
       <use xlink:href="#DejaVuSans-44"/>
       <use xlink:href="#DejaVuSans-65" x="77.001953"/>
       <use xlink:href="#DejaVuSans-66" x="138.525391"/>
       <use xlink:href="#DejaVuSans-65" x="173.730469"/>
       <use xlink:href="#DejaVuSans-63" x="235.253906"/>
       <use xlink:href="#DejaVuSans-74" x="290.234375"/>
       <use xlink:href="#DejaVuSans-6f" x="329.443359"/>
       <use xlink:href="#DejaVuSans-72" x="390.625"/>
      </g>
     </g>
    </g>
    <g id="xtick_2">
     <g id="line2d_2">
      <g>
       <use xlink:href="#m202bd497bf" x="173.888182" y="337.97" style="stroke: #000000; stroke-width: 0.8"/>
      </g>
     </g>
     <g id="text_2">
      <!-- Grudger -->
      <g transform="translate(176.095682 377.89625)rotate(-90)scale(0.08 -0.08)">
       <defs>
        <path id="DejaVuSans-47" d="M 3809 666 
L 3809 1919 
L 2778 1919 
L 2778 2438 
L 4434 2438 
L 4434 434 
Q 4069 175 3628 42 
Q 3188 -91 2688 -91 
Q 1594 -91 976 548 
Q 359 1188 359 2328 
Q 359 3472 976 4111 
Q 1594 4750 2688 4750 
Q 3144 4750 3555 4637 
Q 3966 4525 4313 4306 
L 4313 3634 
Q 3963 3931 3569 4081 
Q 3175 4231 2741 4231 
Q 1884 4231 1454 3753 
Q 1025 3275 1025 2328 
Q 1025 1384 1454 906 
Q 1884 428 2741 428 
Q 3075 428 3337 486 
Q 3600 544 3809 666 
z
" transform="scale(0.015625)"/>
        <path id="DejaVuSans-75" d="M 544 1381 
L 544 3500 
L 1119 3500 
L 1119 1403 
Q 1119 906 1312 657 
Q 1506 409 1894 409 
Q 2359 409 2629 706 
Q 2900 1003 2900 1516 
L 2900 3500 
L 3475 3500 
L 3475 0 
L 2900 0 
L 2900 538 
Q 2691 219 2414 64 
Q 2138 -91 1772 -91 
Q 1169 -91 856 284 
Q 544 659 544 1381 
z
M 1991 3584 
L 1991 3584 
z
" transform="scale(0.015625)"/>
        <path id="DejaVuSans-64" d="M 2906 2969 
L 2906 4863 
L 3481 4863 
L 3481 0 
L 2906 0 
L 2906 525 
Q 2725 213 2448 61 
Q 2172 -91 1784 -91 
Q 1150 -91 751 415 
Q 353 922 353 1747 
Q 353 2572 751 3078 
Q 1150 3584 1784 3584 
Q 2172 3584 2448 3432 
Q 2725 3281 2906 2969 
z
M 947 1747 
Q 947 1113 1208 752 
Q 1469 391 1925 391 
Q 2381 391 2643 752 
Q 2906 1113 2906 1747 
Q 2906 2381 2643 2742 
Q 2381 3103 1925 3103 
Q 1469 3103 1208 2742 
Q 947 2381 947 1747 
z
" transform="scale(0.015625)"/>
        <path id="DejaVuSans-67" d="M 2906 1791 
Q 2906 2416 2648 2759 
Q 2391 3103 1925 3103 
Q 1463 3103 1205 2759 
Q 947 2416 947 1791 
Q 947 1169 1205 825 
Q 1463 481 1925 481 
Q 2391 481 2648 825 
Q 2906 1169 2906 1791 
z
M 3481 434 
Q 3481 -459 3084 -895 
Q 2688 -1331 1869 -1331 
Q 1566 -1331 1297 -1286 
Q 1028 -1241 775 -1147 
L 775 -588 
Q 1028 -725 1275 -790 
Q 1522 -856 1778 -856 
Q 2344 -856 2625 -561 
Q 2906 -266 2906 331 
L 2906 616 
Q 2728 306 2450 153 
Q 2172 0 1784 0 
Q 1141 0 747 490 
Q 353 981 353 1791 
Q 353 2603 747 3093 
Q 1141 3584 1784 3584 
Q 2172 3584 2450 3431 
Q 2728 3278 2906 2969 
L 2906 3500 
L 3481 3500 
L 3481 434 
z
" transform="scale(0.015625)"/>
       </defs>
       <use xlink:href="#DejaVuSans-47"/>
       <use xlink:href="#DejaVuSans-72" x="77.490234"/>
       <use xlink:href="#DejaVuSans-75" x="118.603516"/>
       <use xlink:href="#DejaVuSans-64" x="181.982422"/>
       <use xlink:href="#DejaVuSans-67" x="245.458984"/>
       <use xlink:href="#DejaVuSans-65" x="308.935547"/>
       <use xlink:href="#DejaVuSans-72" x="370.458984"/>
      </g>
     </g>
    </g>
    <g id="xtick_3">
     <g id="line2d_3">
      <g>
       <use xlink:href="#m202bd497bf" x="249.367273" y="337.97" style="stroke: #000000; stroke-width: 0.8"/>
      </g>
     </g>
     <g id="text_3">
      <!-- Alternator -->
      <g transform="translate(251.574773 385.165)rotate(-90)scale(0.08 -0.08)">
       <defs>
        <path id="DejaVuSans-41" d="M 2188 4044 
L 1331 1722 
L 3047 1722 
L 2188 4044 
z
M 1831 4666 
L 2547 4666 
L 4325 0 
L 3669 0 
L 3244 1197 
L 1141 1197 
L 716 0 
L 50 0 
L 1831 4666 
z
" transform="scale(0.015625)"/>
        <path id="DejaVuSans-6c" d="M 603 4863 
L 1178 4863 
L 1178 0 
L 603 0 
L 603 4863 
z
" transform="scale(0.015625)"/>
        <path id="DejaVuSans-6e" d="M 3513 2113 
L 3513 0 
L 2938 0 
L 2938 2094 
Q 2938 2591 2744 2837 
Q 2550 3084 2163 3084 
Q 1697 3084 1428 2787 
Q 1159 2491 1159 1978 
L 1159 0 
L 581 0 
L 581 3500 
L 1159 3500 
L 1159 2956 
Q 1366 3272 1645 3428 
Q 1925 3584 2291 3584 
Q 2894 3584 3203 3211 
Q 3513 2838 3513 2113 
z
" transform="scale(0.015625)"/>
        <path id="DejaVuSans-61" d="M 2194 1759 
Q 1497 1759 1228 1600 
Q 959 1441 959 1056 
Q 959 750 1161 570 
Q 1363 391 1709 391 
Q 2188 391 2477 730 
Q 2766 1069 2766 1631 
L 2766 1759 
L 2194 1759 
z
M 3341 1997 
L 3341 0 
L 2766 0 
L 2766 531 
Q 2569 213 2275 61 
Q 1981 -91 1556 -91 
Q 1019 -91 701 211 
Q 384 513 384 1019 
Q 384 1609 779 1909 
Q 1175 2209 1959 2209 
L 2766 2209 
L 2766 2266 
Q 2766 2663 2505 2880 
Q 2244 3097 1772 3097 
Q 1472 3097 1187 3025 
Q 903 2953 641 2809 
L 641 3341 
Q 956 3463 1253 3523 
Q 1550 3584 1831 3584 
Q 2591 3584 2966 3190 
Q 3341 2797 3341 1997 
z
" transform="scale(0.015625)"/>
       </defs>
       <use xlink:href="#DejaVuSans-41"/>
       <use xlink:href="#DejaVuSans-6c" x="68.408203"/>
       <use xlink:href="#DejaVuSans-74" x="96.191406"/>
       <use xlink:href="#DejaVuSans-65" x="135.400391"/>
       <use xlink:href="#DejaVuSans-72" x="196.923828"/>
       <use xlink:href="#DejaVuSans-6e" x="236.287109"/>
       <use xlink:href="#DejaVuSans-61" x="299.666016"/>
       <use xlink:href="#DejaVuSans-74" x="360.945312"/>
       <use xlink:href="#DejaVuSans-6f" x="400.154297"/>
       <use xlink:href="#DejaVuSans-72" x="461.335938"/>
      </g>
     </g>
    </g>
    <g id="xtick_4">
     <g id="line2d_4">
      <g>
       <use xlink:href="#m202bd497bf" x="324.846364" y="337.97" style="stroke: #000000; stroke-width: 0.8"/>
      </g>
     </g>
     <g id="text_4">
      <!-- Adaptive -->
      <g transform="translate(327.053864 380.37875)rotate(-90)scale(0.08 -0.08)">
       <defs>
        <path id="DejaVuSans-70" d="M 1159 525 
L 1159 -1331 
L 581 -1331 
L 581 3500 
L 1159 3500 
L 1159 2969 
Q 1341 3281 1617 3432 
Q 1894 3584 2278 3584 
Q 2916 3584 3314 3078 
Q 3713 2572 3713 1747 
Q 3713 922 3314 415 
Q 2916 -91 2278 -91 
Q 1894 -91 1617 61 
Q 1341 213 1159 525 
z
M 3116 1747 
Q 3116 2381 2855 2742 
Q 2594 3103 2138 3103 
Q 1681 3103 1420 2742 
Q 1159 2381 1159 1747 
Q 1159 1113 1420 752 
Q 1681 391 2138 391 
Q 2594 391 2855 752 
Q 3116 1113 3116 1747 
z
" transform="scale(0.015625)"/>
        <path id="DejaVuSans-69" d="M 603 3500 
L 1178 3500 
L 1178 0 
L 603 0 
L 603 3500 
z
M 603 4863 
L 1178 4863 
L 1178 4134 
L 603 4134 
L 603 4863 
z
" transform="scale(0.015625)"/>
        <path id="DejaVuSans-76" d="M 191 3500 
L 800 3500 
L 1894 563 
L 2988 3500 
L 3597 3500 
L 2284 0 
L 1503 0 
L 191 3500 
z
" transform="scale(0.015625)"/>
       </defs>
       <use xlink:href="#DejaVuSans-41"/>
       <use xlink:href="#DejaVuSans-64" x="66.658203"/>
       <use xlink:href="#DejaVuSans-61" x="130.134766"/>
       <use xlink:href="#DejaVuSans-70" x="191.414062"/>
       <use xlink:href="#DejaVuSans-74" x="254.890625"/>
       <use xlink:href="#DejaVuSans-69" x="294.099609"/>
       <use xlink:href="#DejaVuSans-76" x="321.882812"/>
       <use xlink:href="#DejaVuSans-65" x="381.0625"/>
      </g>
     </g>
    </g>
    <g id="xtick_5">
     <g id="line2d_5">
      <g>
       <use xlink:href="#m202bd497bf" x="400.325455" y="337.97" style="stroke: #000000; stroke-width: 0.8"/>
      </g>
     </g>
     <g id="text_5">
      <!-- Deep QLearner -->
      <g transform="translate(402.532955 405.46625)rotate(-90)scale(0.08 -0.08)">
       <defs>
        <path id="DejaVuSans-20" transform="scale(0.015625)"/>
        <path id="DejaVuSans-51" d="M 2522 4238 
Q 1834 4238 1429 3725 
Q 1025 3213 1025 2328 
Q 1025 1447 1429 934 
Q 1834 422 2522 422 
Q 3209 422 3611 934 
Q 4013 1447 4013 2328 
Q 4013 3213 3611 3725 
Q 3209 4238 2522 4238 
z
M 3406 84 
L 4238 -825 
L 3475 -825 
L 2784 -78 
Q 2681 -84 2626 -87 
Q 2572 -91 2522 -91 
Q 1538 -91 948 567 
Q 359 1225 359 2328 
Q 359 3434 948 4092 
Q 1538 4750 2522 4750 
Q 3503 4750 4090 4092 
Q 4678 3434 4678 2328 
Q 4678 1516 4351 937 
Q 4025 359 3406 84 
z
" transform="scale(0.015625)"/>
        <path id="DejaVuSans-4c" d="M 628 4666 
L 1259 4666 
L 1259 531 
L 3531 531 
L 3531 0 
L 628 0 
L 628 4666 
z
" transform="scale(0.015625)"/>
       </defs>
       <use xlink:href="#DejaVuSans-44"/>
       <use xlink:href="#DejaVuSans-65" x="77.001953"/>
       <use xlink:href="#DejaVuSans-65" x="138.525391"/>
       <use xlink:href="#DejaVuSans-70" x="200.048828"/>
       <use xlink:href="#DejaVuSans-20" x="263.525391"/>
       <use xlink:href="#DejaVuSans-51" x="295.3125"/>
       <use xlink:href="#DejaVuSans-4c" x="374.023438"/>
       <use xlink:href="#DejaVuSans-65" x="427.986328"/>
       <use xlink:href="#DejaVuSans-61" x="489.509766"/>
       <use xlink:href="#DejaVuSans-72" x="550.789062"/>
       <use xlink:href="#DejaVuSans-6e" x="590.152344"/>
       <use xlink:href="#DejaVuSans-65" x="653.53125"/>
       <use xlink:href="#DejaVuSans-72" x="715.054688"/>
      </g>
     </g>
    </g>
    <g id="xtick_6">
     <g id="line2d_6">
      <g>
       <use xlink:href="#m202bd497bf" x="475.804545" y="337.97" style="stroke: #000000; stroke-width: 0.8"/>
      </g>
     </g>
     <g id="text_6">
      <!-- Random: 0.5 -->
      <g transform="translate(478.012045 396.0475)rotate(-90)scale(0.08 -0.08)">
       <defs>
        <path id="DejaVuSans-52" d="M 2841 2188 
Q 3044 2119 3236 1894 
Q 3428 1669 3622 1275 
L 4263 0 
L 3584 0 
L 2988 1197 
Q 2756 1666 2539 1819 
Q 2322 1972 1947 1972 
L 1259 1972 
L 1259 0 
L 628 0 
L 628 4666 
L 2053 4666 
Q 2853 4666 3247 4331 
Q 3641 3997 3641 3322 
Q 3641 2881 3436 2590 
Q 3231 2300 2841 2188 
z
M 1259 4147 
L 1259 2491 
L 2053 2491 
Q 2509 2491 2742 2702 
Q 2975 2913 2975 3322 
Q 2975 3731 2742 3939 
Q 2509 4147 2053 4147 
L 1259 4147 
z
" transform="scale(0.015625)"/>
        <path id="DejaVuSans-6d" d="M 3328 2828 
Q 3544 3216 3844 3400 
Q 4144 3584 4550 3584 
Q 5097 3584 5394 3201 
Q 5691 2819 5691 2113 
L 5691 0 
L 5113 0 
L 5113 2094 
Q 5113 2597 4934 2840 
Q 4756 3084 4391 3084 
Q 3944 3084 3684 2787 
Q 3425 2491 3425 1978 
L 3425 0 
L 2847 0 
L 2847 2094 
Q 2847 2600 2669 2842 
Q 2491 3084 2119 3084 
Q 1678 3084 1418 2786 
Q 1159 2488 1159 1978 
L 1159 0 
L 581 0 
L 581 3500 
L 1159 3500 
L 1159 2956 
Q 1356 3278 1631 3431 
Q 1906 3584 2284 3584 
Q 2666 3584 2933 3390 
Q 3200 3197 3328 2828 
z
" transform="scale(0.015625)"/>
        <path id="DejaVuSans-3a" d="M 750 794 
L 1409 794 
L 1409 0 
L 750 0 
L 750 794 
z
M 750 3309 
L 1409 3309 
L 1409 2516 
L 750 2516 
L 750 3309 
z
" transform="scale(0.015625)"/>
        <path id="DejaVuSans-30" d="M 2034 4250 
Q 1547 4250 1301 3770 
Q 1056 3291 1056 2328 
Q 1056 1369 1301 889 
Q 1547 409 2034 409 
Q 2525 409 2770 889 
Q 3016 1369 3016 2328 
Q 3016 3291 2770 3770 
Q 2525 4250 2034 4250 
z
M 2034 4750 
Q 2819 4750 3233 4129 
Q 3647 3509 3647 2328 
Q 3647 1150 3233 529 
Q 2819 -91 2034 -91 
Q 1250 -91 836 529 
Q 422 1150 422 2328 
Q 422 3509 836 4129 
Q 1250 4750 2034 4750 
z
" transform="scale(0.015625)"/>
        <path id="DejaVuSans-2e" d="M 684 794 
L 1344 794 
L 1344 0 
L 684 0 
L 684 794 
z
" transform="scale(0.015625)"/>
        <path id="DejaVuSans-35" d="M 691 4666 
L 3169 4666 
L 3169 4134 
L 1269 4134 
L 1269 2991 
Q 1406 3038 1543 3061 
Q 1681 3084 1819 3084 
Q 2600 3084 3056 2656 
Q 3513 2228 3513 1497 
Q 3513 744 3044 326 
Q 2575 -91 1722 -91 
Q 1428 -91 1123 -41 
Q 819 9 494 109 
L 494 744 
Q 775 591 1075 516 
Q 1375 441 1709 441 
Q 2250 441 2565 725 
Q 2881 1009 2881 1497 
Q 2881 1984 2565 2268 
Q 2250 2553 1709 2553 
Q 1456 2553 1204 2497 
Q 953 2441 691 2322 
L 691 4666 
z
" transform="scale(0.015625)"/>
       </defs>
       <use xlink:href="#DejaVuSans-52"/>
       <use xlink:href="#DejaVuSans-61" x="67.232422"/>
       <use xlink:href="#DejaVuSans-6e" x="128.511719"/>
       <use xlink:href="#DejaVuSans-64" x="191.890625"/>
       <use xlink:href="#DejaVuSans-6f" x="255.367188"/>
       <use xlink:href="#DejaVuSans-6d" x="316.548828"/>
       <use xlink:href="#DejaVuSans-3a" x="413.960938"/>
       <use xlink:href="#DejaVuSans-20" x="447.652344"/>
       <use xlink:href="#DejaVuSans-30" x="479.439453"/>
       <use xlink:href="#DejaVuSans-2e" x="543.0625"/>
       <use xlink:href="#DejaVuSans-35" x="574.849609"/>
      </g>
     </g>
    </g>
    <g id="xtick_7">
     <g id="line2d_7">
      <g>
       <use xlink:href="#m202bd497bf" x="551.283636" y="337.97" style="stroke: #000000; stroke-width: 0.8"/>
      </g>
     </g>
     <g id="text_7">
      <!-- Risky QLearner -->
      <g transform="translate(553.491136 405.40875)rotate(-90)scale(0.08 -0.08)">
       <defs>
        <path id="DejaVuSans-73" d="M 2834 3397 
L 2834 2853 
Q 2591 2978 2328 3040 
Q 2066 3103 1784 3103 
Q 1356 3103 1142 2972 
Q 928 2841 928 2578 
Q 928 2378 1081 2264 
Q 1234 2150 1697 2047 
L 1894 2003 
Q 2506 1872 2764 1633 
Q 3022 1394 3022 966 
Q 3022 478 2636 193 
Q 2250 -91 1575 -91 
Q 1294 -91 989 -36 
Q 684 19 347 128 
L 347 722 
Q 666 556 975 473 
Q 1284 391 1588 391 
Q 1994 391 2212 530 
Q 2431 669 2431 922 
Q 2431 1156 2273 1281 
Q 2116 1406 1581 1522 
L 1381 1569 
Q 847 1681 609 1914 
Q 372 2147 372 2553 
Q 372 3047 722 3315 
Q 1072 3584 1716 3584 
Q 2034 3584 2315 3537 
Q 2597 3491 2834 3397 
z
" transform="scale(0.015625)"/>
        <path id="DejaVuSans-6b" d="M 581 4863 
L 1159 4863 
L 1159 1991 
L 2875 3500 
L 3609 3500 
L 1753 1863 
L 3688 0 
L 2938 0 
L 1159 1709 
L 1159 0 
L 581 0 
L 581 4863 
z
" transform="scale(0.015625)"/>
        <path id="DejaVuSans-79" d="M 2059 -325 
Q 1816 -950 1584 -1140 
Q 1353 -1331 966 -1331 
L 506 -1331 
L 506 -850 
L 844 -850 
Q 1081 -850 1212 -737 
Q 1344 -625 1503 -206 
L 1606 56 
L 191 3500 
L 800 3500 
L 1894 763 
L 2988 3500 
L 3597 3500 
L 2059 -325 
z
" transform="scale(0.015625)"/>
       </defs>
       <use xlink:href="#DejaVuSans-52"/>
       <use xlink:href="#DejaVuSans-69" x="69.482422"/>
       <use xlink:href="#DejaVuSans-73" x="97.265625"/>
       <use xlink:href="#DejaVuSans-6b" x="149.365234"/>
       <use xlink:href="#DejaVuSans-79" x="203.650391"/>
       <use xlink:href="#DejaVuSans-20" x="262.830078"/>
       <use xlink:href="#DejaVuSans-51" x="294.617188"/>
       <use xlink:href="#DejaVuSans-4c" x="373.328125"/>
       <use xlink:href="#DejaVuSans-65" x="427.291016"/>
       <use xlink:href="#DejaVuSans-61" x="488.814453"/>
       <use xlink:href="#DejaVuSans-72" x="550.09375"/>
       <use xlink:href="#DejaVuSans-6e" x="589.457031"/>
       <use xlink:href="#DejaVuSans-65" x="652.835938"/>
       <use xlink:href="#DejaVuSans-72" x="714.359375"/>
      </g>
     </g>
    </g>
    <g id="xtick_8">
     <g id="line2d_8">
      <g>
       <use xlink:href="#m202bd497bf" x="626.762727" y="337.97" style="stroke: #000000; stroke-width: 0.8"/>
      </g>
     </g>
     <g id="text_8">
      <!-- Mediocre QLearner -->
      <g transform="translate(628.970227 420.83375)rotate(-90)scale(0.08 -0.08)">
       <defs>
        <path id="DejaVuSans-4d" d="M 628 4666 
L 1569 4666 
L 2759 1491 
L 3956 4666 
L 4897 4666 
L 4897 0 
L 4281 0 
L 4281 4097 
L 3078 897 
L 2444 897 
L 1241 4097 
L 1241 0 
L 628 0 
L 628 4666 
z
" transform="scale(0.015625)"/>
       </defs>
       <use xlink:href="#DejaVuSans-4d"/>
       <use xlink:href="#DejaVuSans-65" x="86.279297"/>
       <use xlink:href="#DejaVuSans-64" x="147.802734"/>
       <use xlink:href="#DejaVuSans-69" x="211.279297"/>
       <use xlink:href="#DejaVuSans-6f" x="239.0625"/>
       <use xlink:href="#DejaVuSans-63" x="300.244141"/>
       <use xlink:href="#DejaVuSans-72" x="355.224609"/>
       <use xlink:href="#DejaVuSans-65" x="394.087891"/>
       <use xlink:href="#DejaVuSans-20" x="455.611328"/>
       <use xlink:href="#DejaVuSans-51" x="487.398438"/>
       <use xlink:href="#DejaVuSans-4c" x="566.109375"/>
       <use xlink:href="#DejaVuSans-65" x="620.072266"/>
       <use xlink:href="#DejaVuSans-61" x="681.595703"/>
       <use xlink:href="#DejaVuSans-72" x="742.875"/>
       <use xlink:href="#DejaVuSans-6e" x="782.238281"/>
       <use xlink:href="#DejaVuSans-65" x="845.617188"/>
       <use xlink:href="#DejaVuSans-72" x="907.140625"/>
      </g>
     </g>
    </g>
    <g id="xtick_9">
     <g id="line2d_9">
      <g>
       <use xlink:href="#m202bd497bf" x="702.241818" y="337.97" style="stroke: #000000; stroke-width: 0.8"/>
      </g>
     </g>
     <g id="text_9">
      <!-- Tit For Tat -->
      <g transform="translate(704.449318 384.15)rotate(-90)scale(0.08 -0.08)">
       <defs>
        <path id="DejaVuSans-54" d="M -19 4666 
L 3928 4666 
L 3928 4134 
L 2272 4134 
L 2272 0 
L 1638 0 
L 1638 4134 
L -19 4134 
L -19 4666 
z
" transform="scale(0.015625)"/>
        <path id="DejaVuSans-46" d="M 628 4666 
L 3309 4666 
L 3309 4134 
L 1259 4134 
L 1259 2759 
L 3109 2759 
L 3109 2228 
L 1259 2228 
L 1259 0 
L 628 0 
L 628 4666 
z
" transform="scale(0.015625)"/>
       </defs>
       <use xlink:href="#DejaVuSans-54"/>
       <use xlink:href="#DejaVuSans-69" x="57.958984"/>
       <use xlink:href="#DejaVuSans-74" x="85.742188"/>
       <use xlink:href="#DejaVuSans-20" x="124.951172"/>
       <use xlink:href="#DejaVuSans-46" x="156.738281"/>
       <use xlink:href="#DejaVuSans-6f" x="210.632812"/>
       <use xlink:href="#DejaVuSans-72" x="271.814453"/>
       <use xlink:href="#DejaVuSans-20" x="312.927734"/>
       <use xlink:href="#DejaVuSans-54" x="344.714844"/>
       <use xlink:href="#DejaVuSans-61" x="389.298828"/>
       <use xlink:href="#DejaVuSans-74" x="450.578125"/>
      </g>
     </g>
    </g>
    <g id="xtick_10">
     <g id="line2d_10">
      <g>
       <use xlink:href="#m202bd497bf" x="777.720909" y="337.97" style="stroke: #000000; stroke-width: 0.8"/>
      </g>
     </g>
     <g id="text_10">
      <!-- Cooperator -->
      <g transform="translate(779.928409 389.85875)rotate(-90)scale(0.08 -0.08)">
       <defs>
        <path id="DejaVuSans-43" d="M 4122 4306 
L 4122 3641 
Q 3803 3938 3442 4084 
Q 3081 4231 2675 4231 
Q 1875 4231 1450 3742 
Q 1025 3253 1025 2328 
Q 1025 1406 1450 917 
Q 1875 428 2675 428 
Q 3081 428 3442 575 
Q 3803 722 4122 1019 
L 4122 359 
Q 3791 134 3420 21 
Q 3050 -91 2638 -91 
Q 1578 -91 968 557 
Q 359 1206 359 2328 
Q 359 3453 968 4101 
Q 1578 4750 2638 4750 
Q 3056 4750 3426 4639 
Q 3797 4528 4122 4306 
z
" transform="scale(0.015625)"/>
       </defs>
       <use xlink:href="#DejaVuSans-43"/>
       <use xlink:href="#DejaVuSans-6f" x="69.824219"/>
       <use xlink:href="#DejaVuSans-6f" x="131.005859"/>
       <use xlink:href="#DejaVuSans-70" x="192.1875"/>
       <use xlink:href="#DejaVuSans-65" x="255.664062"/>
       <use xlink:href="#DejaVuSans-72" x="317.1875"/>
       <use xlink:href="#DejaVuSans-61" x="358.300781"/>
       <use xlink:href="#DejaVuSans-74" x="419.580078"/>
       <use xlink:href="#DejaVuSans-6f" x="458.789062"/>
       <use xlink:href="#DejaVuSans-72" x="519.970703"/>
      </g>
     </g>
    </g>
   </g>
   <g id="matplotlib.axis_2">
    <g id="ytick_1">
     <g id="line2d_11">
      <defs>
       <path id="m8badb66dee" d="M 0 0 
L -3.5 0 
" style="stroke: #000000; stroke-width: 0.8"/>
      </defs>
      <g>
       <use xlink:href="#m8badb66dee" x="22.93" y="322.4155" style="stroke: #000000; stroke-width: 0.8"/>
      </g>
     </g>
     <g id="text_11">
      <!-- 0 -->
      <g transform="translate(10.84 325.454875)scale(0.08 -0.08)">
       <use xlink:href="#DejaVuSans-30"/>
      </g>
     </g>
    </g>
    <g id="ytick_2">
     <g id="line2d_12">
      <g>
       <use xlink:href="#m8badb66dee" x="22.93" y="260.1975" style="stroke: #000000; stroke-width: 0.8"/>
      </g>
     </g>
     <g id="text_12">
      <!-- 2 -->
      <g transform="translate(10.84 263.236875)scale(0.08 -0.08)">
       <defs>
        <path id="DejaVuSans-32" d="M 1228 531 
L 3431 531 
L 3431 0 
L 469 0 
L 469 531 
Q 828 903 1448 1529 
Q 2069 2156 2228 2338 
Q 2531 2678 2651 2914 
Q 2772 3150 2772 3378 
Q 2772 3750 2511 3984 
Q 2250 4219 1831 4219 
Q 1534 4219 1204 4116 
Q 875 4013 500 3803 
L 500 4441 
Q 881 4594 1212 4672 
Q 1544 4750 1819 4750 
Q 2544 4750 2975 4387 
Q 3406 4025 3406 3419 
Q 3406 3131 3298 2873 
Q 3191 2616 2906 2266 
Q 2828 2175 2409 1742 
Q 1991 1309 1228 531 
z
" transform="scale(0.015625)"/>
       </defs>
       <use xlink:href="#DejaVuSans-32"/>
      </g>
     </g>
    </g>
    <g id="ytick_3">
     <g id="line2d_13">
      <g>
       <use xlink:href="#m8badb66dee" x="22.93" y="197.9795" style="stroke: #000000; stroke-width: 0.8"/>
      </g>
     </g>
     <g id="text_13">
      <!-- 4 -->
      <g transform="translate(10.84 201.018875)scale(0.08 -0.08)">
       <defs>
        <path id="DejaVuSans-34" d="M 2419 4116 
L 825 1625 
L 2419 1625 
L 2419 4116 
z
M 2253 4666 
L 3047 4666 
L 3047 1625 
L 3713 1625 
L 3713 1100 
L 3047 1100 
L 3047 0 
L 2419 0 
L 2419 1100 
L 313 1100 
L 313 1709 
L 2253 4666 
z
" transform="scale(0.015625)"/>
       </defs>
       <use xlink:href="#DejaVuSans-34"/>
      </g>
     </g>
    </g>
    <g id="ytick_4">
     <g id="line2d_14">
      <g>
       <use xlink:href="#m8badb66dee" x="22.93" y="135.7615" style="stroke: #000000; stroke-width: 0.8"/>
      </g>
     </g>
     <g id="text_14">
      <!-- 6 -->
      <g transform="translate(10.84 138.800875)scale(0.08 -0.08)">
       <defs>
        <path id="DejaVuSans-36" d="M 2113 2584 
Q 1688 2584 1439 2293 
Q 1191 2003 1191 1497 
Q 1191 994 1439 701 
Q 1688 409 2113 409 
Q 2538 409 2786 701 
Q 3034 994 3034 1497 
Q 3034 2003 2786 2293 
Q 2538 2584 2113 2584 
z
M 3366 4563 
L 3366 3988 
Q 3128 4100 2886 4159 
Q 2644 4219 2406 4219 
Q 1781 4219 1451 3797 
Q 1122 3375 1075 2522 
Q 1259 2794 1537 2939 
Q 1816 3084 2150 3084 
Q 2853 3084 3261 2657 
Q 3669 2231 3669 1497 
Q 3669 778 3244 343 
Q 2819 -91 2113 -91 
Q 1303 -91 875 529 
Q 447 1150 447 2328 
Q 447 3434 972 4092 
Q 1497 4750 2381 4750 
Q 2619 4750 2861 4703 
Q 3103 4656 3366 4563 
z
" transform="scale(0.015625)"/>
       </defs>
       <use xlink:href="#DejaVuSans-36"/>
      </g>
     </g>
    </g>
    <g id="ytick_5">
     <g id="line2d_15">
      <g>
       <use xlink:href="#m8badb66dee" x="22.93" y="73.5435" style="stroke: #000000; stroke-width: 0.8"/>
      </g>
     </g>
     <g id="text_15">
      <!-- 8 -->
      <g transform="translate(10.84 76.582875)scale(0.08 -0.08)">
       <defs>
        <path id="DejaVuSans-38" d="M 2034 2216 
Q 1584 2216 1326 1975 
Q 1069 1734 1069 1313 
Q 1069 891 1326 650 
Q 1584 409 2034 409 
Q 2484 409 2743 651 
Q 3003 894 3003 1313 
Q 3003 1734 2745 1975 
Q 2488 2216 2034 2216 
z
M 1403 2484 
Q 997 2584 770 2862 
Q 544 3141 544 3541 
Q 544 4100 942 4425 
Q 1341 4750 2034 4750 
Q 2731 4750 3128 4425 
Q 3525 4100 3525 3541 
Q 3525 3141 3298 2862 
Q 3072 2584 2669 2484 
Q 3125 2378 3379 2068 
Q 3634 1759 3634 1313 
Q 3634 634 3220 271 
Q 2806 -91 2034 -91 
Q 1263 -91 848 271 
Q 434 634 434 1313 
Q 434 1759 690 2068 
Q 947 2378 1403 2484 
z
M 1172 3481 
Q 1172 3119 1398 2916 
Q 1625 2713 2034 2713 
Q 2441 2713 2670 2916 
Q 2900 3119 2900 3481 
Q 2900 3844 2670 4047 
Q 2441 4250 2034 4250 
Q 1625 4250 1398 4047 
Q 1172 3844 1172 3481 
z
" transform="scale(0.015625)"/>
       </defs>
       <use xlink:href="#DejaVuSans-38"/>
      </g>
     </g>
    </g>
   </g>
   <g id="LineCollection_1">
    <path d="M 88.974205 42.4345 
L 107.843977 42.4345 
" clip-path="url(#p576ceab66c)" style="fill: none; stroke: #1f77b4; stroke-width: 1.5"/>
    <path d="M 164.453295 135.7615 
L 183.323068 135.7615 
" clip-path="url(#p576ceab66c)" style="fill: none; stroke: #1f77b4; stroke-width: 1.5"/>
    <path d="M 239.932386 166.8705 
L 258.802159 166.8705 
" clip-path="url(#p576ceab66c)" style="fill: none; stroke: #1f77b4; stroke-width: 1.5"/>
    <path d="M 315.411477 166.8705 
L 334.28125 166.8705 
" clip-path="url(#p576ceab66c)" style="fill: none; stroke: #1f77b4; stroke-width: 1.5"/>
    <path d="M 390.890568 166.8705 
L 409.760341 166.8705 
" clip-path="url(#p576ceab66c)" style="fill: none; stroke: #1f77b4; stroke-width: 1.5"/>
    <path d="M 466.369659 197.9795 
L 485.239432 197.9795 
" clip-path="url(#p576ceab66c)" style="fill: none; stroke: #1f77b4; stroke-width: 1.5"/>
    <path d="M 541.84875 260.1975 
L 560.718523 260.1975 
" clip-path="url(#p576ceab66c)" style="fill: none; stroke: #1f77b4; stroke-width: 1.5"/>
    <path d="M 617.327841 260.1975 
L 636.197614 260.1975 
" clip-path="url(#p576ceab66c)" style="fill: none; stroke: #1f77b4; stroke-width: 1.5"/>
    <path d="M 692.806932 322.4155 
L 711.676705 322.4155 
" clip-path="url(#p576ceab66c)" style="fill: none; stroke: #1f77b4; stroke-width: 1.5"/>
    <path d="M 768.286023 322.4155 
L 787.155795 322.4155 
" clip-path="url(#p576ceab66c)" style="fill: none; stroke: #1f77b4; stroke-width: 1.5"/>
   </g>
   <g id="patch_3">
    <path d="M 22.93 337.97 
L 22.93 26.88 
" style="fill: none; stroke: #000000; stroke-width: 0.8; stroke-linejoin: miter; stroke-linecap: square"/>
   </g>
   <g id="patch_4">
    <path d="M 853.2 337.97 
L 853.2 26.88 
" style="fill: none; stroke: #000000; stroke-width: 0.8; stroke-linejoin: miter; stroke-linecap: square"/>
   </g>
   <g id="patch_5">
    <path d="M 22.93 337.97 
L 853.2 337.97 
" style="fill: none; stroke: #000000; stroke-width: 0.8; stroke-linejoin: miter; stroke-linecap: square"/>
   </g>
   <g id="patch_6">
    <path d="M 22.93 26.88 
L 853.2 26.88 
" style="fill: none; stroke: #000000; stroke-width: 0.8; stroke-linejoin: miter; stroke-linecap: square"/>
   </g>
   <g id="text_16">
    <!-- Wins - turns: 200, repetitions: 200, strategies: 10.  -->
    <g transform="translate(286.363438 20.88)scale(0.12 -0.12)">
     <defs>
      <path id="DejaVuSans-57" d="M 213 4666 
L 850 4666 
L 1831 722 
L 2809 4666 
L 3519 4666 
L 4500 722 
L 5478 4666 
L 6119 4666 
L 4947 0 
L 4153 0 
L 3169 4050 
L 2175 0 
L 1381 0 
L 213 4666 
z
" transform="scale(0.015625)"/>
      <path id="DejaVuSans-2d" d="M 313 2009 
L 1997 2009 
L 1997 1497 
L 313 1497 
L 313 2009 
z
" transform="scale(0.015625)"/>
      <path id="DejaVuSans-2c" d="M 750 794 
L 1409 794 
L 1409 256 
L 897 -744 
L 494 -744 
L 750 256 
L 750 794 
z
" transform="scale(0.015625)"/>
      <path id="DejaVuSans-31" d="M 794 531 
L 1825 531 
L 1825 4091 
L 703 3866 
L 703 4441 
L 1819 4666 
L 2450 4666 
L 2450 531 
L 3481 531 
L 3481 0 
L 794 0 
L 794 531 
z
" transform="scale(0.015625)"/>
     </defs>
     <use xlink:href="#DejaVuSans-57"/>
     <use xlink:href="#DejaVuSans-69" x="96.626953"/>
     <use xlink:href="#DejaVuSans-6e" x="124.410156"/>
     <use xlink:href="#DejaVuSans-73" x="187.789062"/>
     <use xlink:href="#DejaVuSans-20" x="239.888672"/>
     <use xlink:href="#DejaVuSans-2d" x="271.675781"/>
     <use xlink:href="#DejaVuSans-20" x="307.759766"/>
     <use xlink:href="#DejaVuSans-74" x="339.546875"/>
     <use xlink:href="#DejaVuSans-75" x="378.755859"/>
     <use xlink:href="#DejaVuSans-72" x="442.134766"/>
     <use xlink:href="#DejaVuSans-6e" x="481.498047"/>
     <use xlink:href="#DejaVuSans-73" x="544.876953"/>
     <use xlink:href="#DejaVuSans-3a" x="596.976562"/>
     <use xlink:href="#DejaVuSans-20" x="630.667969"/>
     <use xlink:href="#DejaVuSans-32" x="662.455078"/>
     <use xlink:href="#DejaVuSans-30" x="726.078125"/>
     <use xlink:href="#DejaVuSans-30" x="789.701172"/>
     <use xlink:href="#DejaVuSans-2c" x="853.324219"/>
     <use xlink:href="#DejaVuSans-20" x="885.111328"/>
     <use xlink:href="#DejaVuSans-72" x="916.898438"/>
     <use xlink:href="#DejaVuSans-65" x="955.761719"/>
     <use xlink:href="#DejaVuSans-70" x="1017.285156"/>
     <use xlink:href="#DejaVuSans-65" x="1080.761719"/>
     <use xlink:href="#DejaVuSans-74" x="1142.285156"/>
     <use xlink:href="#DejaVuSans-69" x="1181.494141"/>
     <use xlink:href="#DejaVuSans-74" x="1209.277344"/>
     <use xlink:href="#DejaVuSans-69" x="1248.486328"/>
     <use xlink:href="#DejaVuSans-6f" x="1276.269531"/>
     <use xlink:href="#DejaVuSans-6e" x="1337.451172"/>
     <use xlink:href="#DejaVuSans-73" x="1400.830078"/>
     <use xlink:href="#DejaVuSans-3a" x="1452.929688"/>
     <use xlink:href="#DejaVuSans-20" x="1486.621094"/>
     <use xlink:href="#DejaVuSans-32" x="1518.408203"/>
     <use xlink:href="#DejaVuSans-30" x="1582.03125"/>
     <use xlink:href="#DejaVuSans-30" x="1645.654297"/>
     <use xlink:href="#DejaVuSans-2c" x="1709.277344"/>
     <use xlink:href="#DejaVuSans-20" x="1741.064453"/>
     <use xlink:href="#DejaVuSans-73" x="1772.851562"/>
     <use xlink:href="#DejaVuSans-74" x="1824.951172"/>
     <use xlink:href="#DejaVuSans-72" x="1864.160156"/>
     <use xlink:href="#DejaVuSans-61" x="1905.273438"/>
     <use xlink:href="#DejaVuSans-74" x="1966.552734"/>
     <use xlink:href="#DejaVuSans-65" x="2005.761719"/>
     <use xlink:href="#DejaVuSans-67" x="2067.285156"/>
     <use xlink:href="#DejaVuSans-69" x="2130.761719"/>
     <use xlink:href="#DejaVuSans-65" x="2158.544922"/>
     <use xlink:href="#DejaVuSans-73" x="2220.068359"/>
     <use xlink:href="#DejaVuSans-3a" x="2272.167969"/>
     <use xlink:href="#DejaVuSans-20" x="2305.859375"/>
     <use xlink:href="#DejaVuSans-31" x="2337.646484"/>
     <use xlink:href="#DejaVuSans-30" x="2401.269531"/>
     <use xlink:href="#DejaVuSans-2e" x="2464.892578"/>
     <use xlink:href="#DejaVuSans-20" x="2496.679688"/>
    </g>
   </g>
  </g>
 </g>
 <defs>
  <clipPath id="p576ceab66c">
   <rect x="22.93" y="26.88" width="830.27" height="311.09"/>
  </clipPath>
 </defs>
</svg>
