<?xml version="1.0" encoding="utf-8" standalone="no"?>
<!DOCTYPE svg PUBLIC "-//W3C//DTD SVG 1.1//EN"
  "http://www.w3.org/Graphics/SVG/1.1/DTD/svg11.dtd">
<svg xmlns:xlink="http://www.w3.org/1999/xlink" width="864pt" height="432pt" viewBox="0 0 864 432" xmlns="http://www.w3.org/2000/svg" version="1.1">
 <metadata>
  <rdf:RDF xmlns:dc="http://purl.org/dc/elements/1.1/" xmlns:cc="http://creativecommons.org/ns#" xmlns:rdf="http://www.w3.org/1999/02/22-rdf-syntax-ns#">
   <cc:Work>
    <dc:type rdf:resource="http://purl.org/dc/dcmitype/StillImage"/>
    <dc:date>2022-09-28T01:51:39.315081</dc:date>
    <dc:format>image/svg+xml</dc:format>
    <dc:creator>
     <cc:Agent>
      <dc:title>Matplotlib v3.5.1, https://matplotlib.org/</dc:title>
     </cc:Agent>
    </dc:creator>
   </cc:Work>
  </rdf:RDF>
 </metadata>
 <defs>
  <style type="text/css">*{stroke-linejoin: round; stroke-linecap: butt}</style>
 </defs>
 <g id="figure_1">
  <g id="patch_1">
   <path d="M 0 432 
L 864 432 
L 864 0 
L 0 0 
z
" style="fill: #ffffff"/>
  </g>
  <g id="axes_1">
   <g id="patch_2">
    <path d="M 30.67 337.97 
L 853.2 337.97 
L 853.2 26.88 
L 30.67 26.88 
z
" style="fill: #ffffff"/>
   </g>
   <g id="PolyCollection_1">
    <path d="M 109.249541 158.672771 
L 101.641368 158.672771 
L 101.391438 158.163454 
L 101.157181 157.654137 
L 100.942607 157.144819 
L 100.75135 156.635502 
L 100.586525 156.126184 
L 100.45061 155.616867 
L 100.345337 155.10755 
L 100.271627 154.598232 
L 100.229542 154.088915 
L 100.218284 153.579597 
L 100.236229 153.07028 
L 100.280987 152.560963 
L 100.349504 152.051645 
L 100.43819 151.542328 
L 100.543059 151.033011 
L 100.659895 150.523693 
L 100.784409 150.014376 
L 100.912409 149.505058 
L 101.039943 148.995741 
L 101.163435 148.486424 
L 101.279797 147.977106 
L 101.386505 147.467789 
L 101.481654 146.958471 
L 101.563974 146.449154 
L 101.632824 145.939837 
L 101.688144 145.430519 
L 101.7304 144.921202 
L 101.760492 144.411884 
L 101.779658 143.902567 
L 101.789362 143.39325 
L 101.791188 142.883932 
L 101.786723 142.374615 
L 101.777455 141.865298 
L 101.764684 141.35598 
L 101.749441 140.846663 
L 101.732427 140.337345 
L 101.713971 139.828028 
L 101.69401 139.318711 
L 101.672079 138.809393 
L 101.647334 138.300076 
L 101.618573 137.790758 
L 101.58429 137.281441 
L 101.542729 136.772124 
L 101.491948 136.262806 
L 101.429893 135.753489 
L 101.354472 135.244171 
L 101.263629 134.734854 
L 101.155411 134.225537 
L 101.028034 133.716219 
L 100.879935 133.206902 
L 100.709816 132.697585 
L 100.516678 132.188267 
L 100.299836 131.67895 
L 100.058925 131.169632 
L 99.793896 130.660315 
L 99.504995 130.150998 
L 99.192737 129.64168 
L 98.857867 129.132363 
L 98.50132 128.623045 
L 98.124176 128.113728 
L 97.727615 127.604411 
L 97.312873 127.095093 
L 96.881205 126.585776 
L 96.433858 126.076458 
L 95.97205 125.567141 
L 95.496967 125.057824 
L 95.009769 124.548506 
L 94.511619 124.039189 
L 94.003726 123.529872 
L 93.4874 123.020554 
L 92.964131 122.511237 
L 92.435676 122.001919 
L 91.904154 121.492602 
L 91.372146 120.983285 
L 90.842797 120.473967 
L 90.319896 119.96465 
L 89.807951 119.455332 
L 89.312229 118.946015 
L 88.838756 118.436698 
L 88.394286 117.92738 
L 87.986211 117.418063 
L 87.622424 116.908745 
L 87.311129 116.399428 
L 87.060606 115.890111 
L 86.878933 115.380793 
L 86.773681 114.871476 
L 86.751591 114.362159 
L 86.81826 113.852841 
L 86.97784 113.343524 
L 87.232776 112.834206 
L 87.583606 112.324889 
L 88.028819 111.815572 
L 88.564807 111.306254 
L 89.185893 110.796937 
L 89.884451 110.287619 
L 90.651115 109.778302 
L 91.475053 109.268985 
L 92.344308 108.759667 
L 93.24618 108.25035 
L 117.644729 108.25035 
L 117.644729 108.25035 
L 118.546602 108.759667 
L 119.415856 109.268985 
L 120.239794 109.778302 
L 121.006458 110.287619 
L 121.705016 110.796937 
L 122.326102 111.306254 
L 122.86209 111.815572 
L 123.307303 112.324889 
L 123.658133 112.834206 
L 123.913069 113.343524 
L 124.072649 113.852841 
L 124.139318 114.362159 
L 124.117228 114.871476 
L 124.011976 115.380793 
L 123.830303 115.890111 
L 123.57978 116.399428 
L 123.268485 116.908745 
L 122.904698 117.418063 
L 122.496623 117.92738 
L 122.052153 118.436698 
L 121.57868 118.946015 
L 121.082958 119.455332 
L 120.571013 119.96465 
L 120.048112 120.473967 
L 119.518763 120.983285 
L 118.986755 121.492602 
L 118.455233 122.001919 
L 117.926778 122.511237 
L 117.40351 123.020554 
L 116.887183 123.529872 
L 116.37929 124.039189 
L 115.88114 124.548506 
L 115.393942 125.057824 
L 114.918859 125.567141 
L 114.457051 126.076458 
L 114.009704 126.585776 
L 113.578037 127.095093 
L 113.163294 127.604411 
L 112.766733 128.113728 
L 112.389589 128.623045 
L 112.033042 129.132363 
L 111.698172 129.64168 
L 111.385914 130.150998 
L 111.097013 130.660315 
L 110.831984 131.169632 
L 110.591073 131.67895 
L 110.374231 132.188267 
L 110.181093 132.697585 
L 110.010974 133.206902 
L 109.862875 133.716219 
L 109.735498 134.225537 
L 109.62728 134.734854 
L 109.536437 135.244171 
L 109.461017 135.753489 
L 109.398962 136.262806 
L 109.34818 136.772124 
L 109.306619 137.281441 
L 109.272336 137.790758 
L 109.243576 138.300076 
L 109.21883 138.809393 
L 109.196899 139.318711 
L 109.176938 139.828028 
L 109.158482 140.337345 
L 109.141468 140.846663 
L 109.126225 141.35598 
L 109.113454 141.865298 
L 109.104186 142.374615 
L 109.099721 142.883932 
L 109.101547 143.39325 
L 109.111252 143.902567 
L 109.130417 144.411884 
L 109.160509 144.921202 
L 109.202765 145.430519 
L 109.258085 145.939837 
L 109.326935 146.449154 
L 109.409255 146.958471 
L 109.504404 147.467789 
L 109.611112 147.977106 
L 109.727474 148.486424 
L 109.850967 148.995741 
L 109.9785 149.505058 
L 110.1065 150.014376 
L 110.231015 150.523693 
L 110.34785 151.033011 
L 110.452719 151.542328 
L 110.541405 152.051645 
L 110.609922 152.560963 
L 110.65468 153.07028 
L 110.672625 153.579597 
L 110.661368 154.088915 
L 110.619282 154.598232 
L 110.545572 155.10755 
L 110.4403 155.616867 
L 110.304384 156.126184 
L 110.139559 156.635502 
L 109.948302 157.144819 
L 109.733728 157.654137 
L 109.499471 158.163454 
L 109.249541 158.672771 
z
" clip-path="url(#paf0b66f53a)" style="fill: #1f77b4; fill-opacity: 0.3"/>
   </g>
   <g id="PolyCollection_2">
    <path d="M 183.937194 153.653873 
L 176.504625 153.653873 
L 175.901378 152.697724 
L 175.248977 151.741575 
L 174.549765 150.785426 
L 173.806638 149.829277 
L 173.023069 148.873128 
L 172.203196 147.916978 
L 171.351953 146.960829 
L 170.475249 146.00468 
L 169.580152 145.048531 
L 168.675066 144.092382 
L 167.769865 143.136233 
L 166.875943 142.180084 
L 166.006151 141.223935 
L 165.17457 140.267786 
L 164.396121 139.311637 
L 163.685965 138.355488 
L 163.058736 137.399339 
L 162.527632 136.443189 
L 162.103457 135.48704 
L 161.793717 134.530891 
L 161.601898 133.574742 
L 161.527045 132.618593 
L 161.563741 131.662444 
L 161.702517 130.706295 
L 161.93068 129.750146 
L 162.233463 128.793997 
L 162.595336 127.837848 
L 163.001324 126.881699 
L 163.438121 125.92555 
L 163.89488 124.969401 
L 164.363586 124.013251 
L 164.838999 123.057102 
L 165.318233 122.100953 
L 165.800087 121.144804 
L 166.28428 120.188655 
L 166.770721 119.232506 
L 167.258944 118.276357 
L 167.747775 117.320208 
L 168.235236 116.364059 
L 168.71868 115.40791 
L 169.195071 114.451761 
L 169.661339 113.495612 
L 170.11474 112.539463 
L 170.553133 111.583313 
L 170.97515 110.627164 
L 171.380238 109.671015 
L 171.768565 108.714866 
L 172.140832 107.758717 
L 172.498021 106.802568 
L 172.841126 105.846419 
L 173.170907 104.89027 
L 173.487721 103.934121 
L 173.791448 102.977972 
L 174.081528 102.021823 
L 174.357109 101.065674 
L 174.617272 100.109524 
L 174.861314 99.153375 
L 175.089013 98.197226 
L 175.300857 97.241077 
L 175.498175 96.284928 
L 175.683147 95.328779 
L 175.85869 94.37263 
L 176.028217 93.416481 
L 176.195318 92.460332 
L 176.363388 91.504183 
L 176.535265 90.548034 
L 176.712917 89.591885 
L 176.897228 88.635736 
L 177.087904 87.679586 
L 177.283519 86.723437 
L 177.481682 85.767288 
L 177.679309 84.811139 
L 177.872963 83.85499 
L 178.059207 82.898841 
L 178.234937 81.942692 
L 178.397645 80.986543 
L 178.545583 80.030394 
L 178.67783 79.074245 
L 178.794241 78.118096 
L 178.895321 77.161947 
L 178.982041 76.205797 
L 179.055643 75.249648 
L 179.117462 74.293499 
L 179.168793 73.33735 
L 179.210829 72.381201 
L 179.24466 71.425052 
L 179.271326 70.468903 
L 179.291902 69.512754 
L 179.307594 68.556605 
L 179.3198 67.600456 
L 179.330137 66.644307 
L 179.340402 65.688158 
L 179.352484 64.732009 
L 179.368223 63.775859 
L 179.389247 62.81971 
L 179.416812 61.863561 
L 179.451667 60.907412 
L 179.493966 59.951263 
L 179.543251 58.995114 
L 180.898567 58.995114 
L 180.898567 58.995114 
L 180.947852 59.951263 
L 180.990152 60.907412 
L 181.025006 61.863561 
L 181.052571 62.81971 
L 181.073595 63.775859 
L 181.089334 64.732009 
L 181.101416 65.688158 
L 181.111682 66.644307 
L 181.122018 67.600456 
L 181.134224 68.556605 
L 181.149916 69.512754 
L 181.170492 70.468903 
L 181.197158 71.425052 
L 181.230989 72.381201 
L 181.273025 73.33735 
L 181.324357 74.293499 
L 181.386175 75.249648 
L 181.459777 76.205797 
L 181.546497 77.161947 
L 181.647577 78.118096 
L 181.763988 79.074245 
L 181.896235 80.030394 
L 182.044174 80.986543 
L 182.206881 81.942692 
L 182.382611 82.898841 
L 182.568855 83.85499 
L 182.762509 84.811139 
L 182.960136 85.767288 
L 183.158299 86.723437 
L 183.353914 87.679586 
L 183.54459 88.635736 
L 183.728901 89.591885 
L 183.906553 90.548034 
L 184.07843 91.504183 
L 184.2465 92.460332 
L 184.413601 93.416481 
L 184.583128 94.37263 
L 184.758671 95.328779 
L 184.943643 96.284928 
L 185.140961 97.241077 
L 185.352805 98.197226 
L 185.580504 99.153375 
L 185.824546 100.109524 
L 186.08471 101.065674 
L 186.36029 102.021823 
L 186.65037 102.977972 
L 186.954097 103.934121 
L 187.270911 104.89027 
L 187.600692 105.846419 
L 187.943797 106.802568 
L 188.300987 107.758717 
L 188.673254 108.714866 
L 189.06158 109.671015 
L 189.466668 110.627164 
L 189.888686 111.583313 
L 190.327078 112.539463 
L 190.780479 113.495612 
L 191.246748 114.451761 
L 191.723138 115.40791 
L 192.206582 116.364059 
L 192.694044 117.320208 
L 193.182874 118.276357 
L 193.671098 119.232506 
L 194.157538 120.188655 
L 194.641731 121.144804 
L 195.123585 122.100953 
L 195.602819 123.057102 
L 196.078232 124.013251 
L 196.546939 124.969401 
L 197.003698 125.92555 
L 197.440494 126.881699 
L 197.846482 127.837848 
L 198.208355 128.793997 
L 198.511138 129.750146 
L 198.739301 130.706295 
L 198.878077 131.662444 
L 198.914773 132.618593 
L 198.83992 133.574742 
L 198.648101 134.530891 
L 198.338362 135.48704 
L 197.914186 136.443189 
L 197.383082 137.399339 
L 196.755853 138.355488 
L 196.045697 139.311637 
L 195.267248 140.267786 
L 194.435668 141.223935 
L 193.565875 142.180084 
L 192.671953 143.136233 
L 191.766753 144.092382 
L 190.861666 145.048531 
L 189.966569 146.00468 
L 189.089865 146.960829 
L 188.238623 147.916978 
L 187.418749 148.873128 
L 186.635181 149.829277 
L 185.892053 150.785426 
L 185.192841 151.741575 
L 184.54044 152.697724 
L 183.937194 153.653873 
z
" clip-path="url(#paf0b66f53a)" style="fill: #1f77b4; fill-opacity: 0.3"/>
   </g>
   <g id="PolyCollection_3">
    <path d="M 256.313111 232.789062 
L 253.679616 232.789062 
L 253.426375 230.852006 
L 253.1352 228.914949 
L 252.801909 226.977892 
L 252.422632 225.040836 
L 251.99426 223.103779 
L 251.514953 221.166722 
L 250.984634 219.229666 
L 250.405408 217.292609 
L 249.781826 215.355552 
L 249.120928 213.418496 
L 248.432018 211.481439 
L 247.726186 209.544382 
L 247.015587 207.607326 
L 246.312567 205.670269 
L 245.628725 203.733213 
L 244.974038 201.796156 
L 244.356139 199.859099 
L 243.779851 197.922043 
L 243.246998 195.984986 
L 242.756513 194.047929 
L 242.304788 192.110873 
L 241.886204 190.173816 
L 241.493762 188.236759 
L 241.119735 186.299703 
L 240.75631 184.362646 
L 240.396181 182.425589 
L 240.033101 180.488533 
L 239.662403 178.551476 
L 239.281495 176.61442 
L 238.890304 174.677363 
L 238.491657 172.740306 
L 238.091519 170.80325 
L 237.699028 168.866193 
L 237.326275 166.929136 
L 236.987794 164.99208 
L 236.699765 163.055023 
L 236.478991 161.117966 
L 236.341732 159.18091 
L 236.3025 157.243853 
L 236.372958 155.306796 
L 236.561005 153.36974 
L 236.870147 151.432683 
L 237.299197 149.495627 
L 237.842308 147.55857 
L 238.489334 145.621513 
L 239.226458 143.684457 
L 240.03702 141.7474 
L 240.902477 139.810343 
L 241.803405 137.873287 
L 242.720472 135.93623 
L 243.635311 133.999173 
L 244.53125 132.062117 
L 245.393869 130.12506 
L 246.211376 128.188003 
L 246.974813 126.250947 
L 247.678111 124.31389 
L 248.318012 122.376834 
L 248.89389 120.439777 
L 249.407464 118.50272 
L 249.862424 116.565664 
L 250.26397 114.628607 
L 250.618272 112.69155 
L 250.931885 110.754494 
L 251.211161 108.817437 
L 251.461708 106.88038 
L 251.68796 104.943324 
L 251.892921 103.006267 
L 252.078108 101.06921 
L 252.243722 99.132154 
L 252.389003 97.195097 
L 252.512746 95.258041 
L 252.613875 93.320984 
L 252.692006 91.383927 
L 252.747911 89.446871 
L 252.783796 87.509814 
L 252.803361 85.572757 
L 252.811608 83.635701 
L 252.814436 81.698644 
L 252.818058 79.761587 
L 252.828329 77.824531 
L 252.850086 75.887474 
L 252.886592 73.950417 
L 252.939182 72.013361 
L 253.007154 70.076304 
L 253.087938 68.139248 
L 253.177524 66.202191 
L 253.271069 64.265134 
L 253.36361 62.328078 
L 253.450768 60.391021 
L 253.529338 58.453964 
L 253.597684 56.516908 
L 253.655877 54.579851 
L 253.705588 52.642794 
L 253.749735 50.705738 
L 253.791982 48.768681 
L 253.836145 46.831624 
L 253.885624 44.894568 
L 253.942935 42.957511 
L 254.009398 41.020455 
L 255.983329 41.020455 
L 255.983329 41.020455 
L 256.049792 42.957511 
L 256.107103 44.894568 
L 256.156583 46.831624 
L 256.200745 48.768681 
L 256.242992 50.705738 
L 256.28714 52.642794 
L 256.33685 54.579851 
L 256.395044 56.516908 
L 256.463389 58.453964 
L 256.54196 60.391021 
L 256.629118 62.328078 
L 256.721658 64.265134 
L 256.815203 66.202191 
L 256.904789 68.139248 
L 256.985574 70.076304 
L 257.053545 72.013361 
L 257.106135 73.950417 
L 257.142642 75.887474 
L 257.164398 77.824531 
L 257.174669 79.761587 
L 257.178291 81.698644 
L 257.18112 83.635701 
L 257.189367 85.572757 
L 257.208931 87.509814 
L 257.244816 89.446871 
L 257.300721 91.383927 
L 257.378852 93.320984 
L 257.479981 95.258041 
L 257.603724 97.195097 
L 257.749006 99.132154 
L 257.914619 101.06921 
L 258.099806 103.006267 
L 258.304767 104.943324 
L 258.531019 106.88038 
L 258.781566 108.817437 
L 259.060843 110.754494 
L 259.374456 112.69155 
L 259.728757 114.628607 
L 260.130303 116.565664 
L 260.585263 118.50272 
L 261.098837 120.439777 
L 261.674715 122.376834 
L 262.314616 124.31389 
L 263.017914 126.250947 
L 263.781351 128.188003 
L 264.598859 130.12506 
L 265.461478 132.062117 
L 266.357417 133.999173 
L 267.272255 135.93623 
L 268.189322 137.873287 
L 269.090251 139.810343 
L 269.955707 141.7474 
L 270.766269 143.684457 
L 271.503393 145.621513 
L 272.15042 147.55857 
L 272.693531 149.495627 
L 273.12258 151.432683 
L 273.431723 153.36974 
L 273.619769 155.306796 
L 273.690227 157.243853 
L 273.650995 159.18091 
L 273.513736 161.117966 
L 273.292963 163.055023 
L 273.004934 164.99208 
L 272.666452 166.929136 
L 272.293699 168.866193 
L 271.901208 170.80325 
L 271.50107 172.740306 
L 271.102424 174.677363 
L 270.711233 176.61442 
L 270.330324 178.551476 
L 269.959627 180.488533 
L 269.596547 182.425589 
L 269.236417 184.362646 
L 268.872992 186.299703 
L 268.498965 188.236759 
L 268.106523 190.173816 
L 267.68794 192.110873 
L 267.236215 194.047929 
L 266.745729 195.984986 
L 266.212876 197.922043 
L 265.636588 199.859099 
L 265.01869 201.796156 
L 264.364002 203.733213 
L 263.68016 205.670269 
L 262.97714 207.607326 
L 262.266541 209.544382 
L 261.560709 211.481439 
L 260.8718 213.418496 
L 260.210901 215.355552 
L 259.58732 217.292609 
L 259.008093 219.229666 
L 258.477774 221.166722 
L 257.998467 223.103779 
L 257.570096 225.040836 
L 257.190819 226.977892 
L 256.857527 228.914949 
L 256.566352 230.852006 
L 256.313111 232.789062 
z
" clip-path="url(#paf0b66f53a)" style="fill: #1f77b4; fill-opacity: 0.3"/>
   </g>
   <g id="PolyCollection_4">
    <path d="M 331.10895 250.997159 
L 328.434686 250.997159 
L 328.233482 249.944334 
L 328.01636 248.891509 
L 327.782909 247.838684 
L 327.532992 246.785859 
L 327.267078 245.733034 
L 326.986586 244.680208 
L 326.694158 243.627383 
L 326.39381 242.574558 
L 326.090869 241.521733 
L 325.791691 240.468908 
L 325.503154 239.416083 
L 325.231969 238.363258 
L 324.983901 237.310433 
L 324.763009 236.257608 
L 324.571003 235.204783 
L 324.406852 234.151958 
L 324.266686 233.099133 
L 324.144051 232.046308 
L 324.030485 230.993483 
L 323.916347 229.940658 
L 323.791793 228.887832 
L 323.647751 227.835007 
L 323.476774 226.782182 
L 323.273617 225.729357 
L 323.035472 224.676532 
L 322.761819 223.623707 
L 322.453924 222.570882 
L 322.114067 221.518057 
L 321.744651 220.465232 
L 321.347343 219.412407 
L 320.922421 218.359582 
L 320.468464 217.306757 
L 319.982461 216.253932 
L 319.460363 215.201107 
L 318.898011 214.148282 
L 318.292316 213.095457 
L 317.642518 212.042631 
L 316.951326 210.989806 
L 316.225759 209.936981 
L 315.477543 208.884156 
L 314.722973 207.831331 
L 313.982247 206.778506 
L 313.278322 205.725681 
L 312.635439 204.672856 
L 312.077495 203.620031 
L 311.626438 202.567206 
L 311.300876 201.514381 
L 311.115006 200.461556 
L 311.077955 199.408731 
L 311.193498 198.355906 
L 311.460129 197.303081 
L 311.87138 196.250255 
L 312.416314 195.19743 
L 313.080113 194.144605 
L 313.84474 193.09178 
L 314.689666 192.038955 
L 315.592662 190.98613 
L 316.530696 189.933305 
L 317.48089 188.88048 
L 318.421512 187.827655 
L 319.332932 186.77483 
L 320.198436 185.722005 
L 321.004835 184.66918 
L 321.742801 183.616355 
L 322.406917 182.56353 
L 322.995468 181.510705 
L 323.51004 180.457879 
L 323.954986 179.405054 
L 324.336856 178.352229 
L 324.663821 177.299404 
L 324.945142 176.246579 
L 325.190663 175.193754 
L 325.410334 174.140929 
L 325.613736 173.088104 
L 325.809615 172.035279 
L 326.005421 170.982454 
L 326.206914 169.929629 
L 326.417853 168.876804 
L 326.63984 167.823979 
L 326.872338 166.771154 
L 327.112883 165.718329 
L 327.357471 164.665504 
L 327.601078 163.612678 
L 327.838253 162.559853 
L 328.063703 161.507028 
L 328.272815 160.454203 
L 328.462053 159.401378 
L 328.629192 158.348553 
L 328.773399 157.295728 
L 328.895154 156.242903 
L 328.996057 155.190078 
L 329.078554 154.137253 
L 329.145632 153.084428 
L 329.200508 152.031603 
L 329.246354 150.978778 
L 329.286074 149.925953 
L 329.322135 148.873128 
L 329.356464 147.820302 
L 329.3904 146.767477 
L 330.153236 146.767477 
L 330.153236 146.767477 
L 330.187173 147.820302 
L 330.221501 148.873128 
L 330.257562 149.925953 
L 330.297283 150.978778 
L 330.343129 152.031603 
L 330.398004 153.084428 
L 330.465082 154.137253 
L 330.54758 155.190078 
L 330.648483 156.242903 
L 330.770238 157.295728 
L 330.914445 158.348553 
L 331.081584 159.401378 
L 331.270821 160.454203 
L 331.479934 161.507028 
L 331.705384 162.559853 
L 331.942558 163.612678 
L 332.186166 164.665504 
L 332.430753 165.718329 
L 332.671298 166.771154 
L 332.903796 167.823979 
L 333.125783 168.876804 
L 333.336722 169.929629 
L 333.538215 170.982454 
L 333.734022 172.035279 
L 333.9299 173.088104 
L 334.133303 174.140929 
L 334.352973 175.193754 
L 334.598494 176.246579 
L 334.879815 177.299404 
L 335.20678 178.352229 
L 335.58865 179.405054 
L 336.033596 180.457879 
L 336.548168 181.510705 
L 337.136719 182.56353 
L 337.800835 183.616355 
L 338.538801 184.66918 
L 339.345201 185.722005 
L 340.210705 186.77483 
L 341.122125 187.827655 
L 342.062747 188.88048 
L 343.01294 189.933305 
L 343.950974 190.98613 
L 344.853971 192.038955 
L 345.698896 193.09178 
L 346.463524 194.144605 
L 347.127322 195.19743 
L 347.672256 196.250255 
L 348.083507 197.303081 
L 348.350139 198.355906 
L 348.465682 199.408731 
L 348.42863 200.461556 
L 348.242761 201.514381 
L 347.917198 202.567206 
L 347.466141 203.620031 
L 346.908197 204.672856 
L 346.265315 205.725681 
L 345.561389 206.778506 
L 344.820663 207.831331 
L 344.066094 208.884156 
L 343.317878 209.936981 
L 342.592311 210.989806 
L 341.901119 212.042631 
L 341.25132 213.095457 
L 340.645625 214.148282 
L 340.083273 215.201107 
L 339.561175 216.253932 
L 339.075172 217.306757 
L 338.621215 218.359582 
L 338.196294 219.412407 
L 337.798985 220.465232 
L 337.429569 221.518057 
L 337.089712 222.570882 
L 336.781817 223.623707 
L 336.508164 224.676532 
L 336.270019 225.729357 
L 336.066862 226.782182 
L 335.895885 227.835007 
L 335.751844 228.887832 
L 335.627289 229.940658 
L 335.513152 230.993483 
L 335.399586 232.046308 
L 335.276951 233.099133 
L 335.136784 234.151958 
L 334.972633 235.204783 
L 334.780628 236.257608 
L 334.559735 237.310433 
L 334.311668 238.363258 
L 334.040482 239.416083 
L 333.751945 240.468908 
L 333.452768 241.521733 
L 333.149826 242.574558 
L 332.849478 243.627383 
L 332.557051 244.680208 
L 332.276558 245.733034 
L 332.010645 246.785859 
L 331.760728 247.838684 
L 331.527277 248.891509 
L 331.310154 249.944334 
L 331.10895 250.997159 
z
" clip-path="url(#paf0b66f53a)" style="fill: #1f77b4; fill-opacity: 0.3"/>
   </g>
   <g id="PolyCollection_5">
    <path d="M 408.255964 232.438907 
L 400.838581 232.438907 
L 400.257154 231.557033 
L 399.642868 230.675159 
L 399.001751 229.793286 
L 398.339628 228.911412 
L 397.661661 228.029538 
L 396.971986 227.147665 
L 396.273534 226.265791 
L 395.568045 225.383917 
L 394.856312 224.502044 
L 394.138624 223.62017 
L 393.415344 222.738297 
L 392.687544 221.856423 
L 391.957592 220.974549 
L 391.229606 220.092676 
L 390.50968 219.210802 
L 389.805857 218.328928 
L 389.127843 217.447055 
L 388.486504 216.565181 
L 387.893205 215.683308 
L 387.359112 214.801434 
L 386.894509 213.91956 
L 386.508226 213.037687 
L 386.207225 212.155813 
L 385.996351 211.273939 
L 385.87825 210.392066 
L 385.853409 209.510192 
L 385.920297 208.628319 
L 386.075537 207.746445 
L 386.314108 206.864571 
L 386.629525 205.982698 
L 387.014025 205.100824 
L 387.458737 204.21895 
L 387.953877 203.337077 
L 388.488965 202.455203 
L 389.053079 201.57333 
L 389.635147 200.691456 
L 390.224261 199.809582 
L 390.809992 198.927709 
L 391.382671 198.045835 
L 391.933623 197.163961 
L 392.45533 196.282088 
L 392.941515 195.400214 
L 393.387179 194.518341 
L 393.788586 193.636467 
L 394.143257 192.754593 
L 394.449976 191.87272 
L 394.708838 190.990846 
L 394.921322 190.108972 
L 395.090388 189.227099 
L 395.220543 188.345225 
L 395.317833 187.463352 
L 395.389737 186.581478 
L 395.44492 185.699604 
L 395.492856 184.817731 
L 395.543338 183.935857 
L 395.605935 183.053983 
L 395.689435 182.17211 
L 395.801368 181.290236 
L 395.94764 180.408363 
L 396.132315 179.526489 
L 396.357565 178.644615 
L 396.623757 177.762742 
L 396.929642 176.880868 
L 397.272601 175.998994 
L 397.648899 175.117121 
L 398.053909 174.235247 
L 398.482294 173.353373 
L 398.928148 172.4715 
L 399.385106 171.589626 
L 399.846469 170.707753 
L 400.305358 169.825879 
L 400.754918 168.944005 
L 401.188581 168.062132 
L 401.600359 167.180258 
L 401.985144 166.298384 
L 402.338967 165.416511 
L 402.659181 164.534637 
L 402.944523 163.652764 
L 403.195069 162.77089 
L 403.412053 161.889016 
L 403.597613 161.007143 
L 403.754477 160.125269 
L 403.885642 159.243395 
L 403.994104 158.361522 
L 404.082639 157.479648 
L 404.153694 156.597775 
L 404.20935 155.715901 
L 404.251371 154.834027 
L 404.281304 153.952154 
L 404.300608 153.07028 
L 404.310765 152.188406 
L 404.313378 151.306533 
L 404.310206 150.424659 
L 404.303154 149.542786 
L 404.294204 148.660912 
L 404.285307 147.779038 
L 404.278254 146.897165 
L 404.274537 146.015291 
L 404.275245 145.133417 
L 404.819301 145.133417 
L 404.819301 145.133417 
L 404.820008 146.015291 
L 404.816292 146.897165 
L 404.809238 147.779038 
L 404.800342 148.660912 
L 404.791392 149.542786 
L 404.784339 150.424659 
L 404.781168 151.306533 
L 404.78378 152.188406 
L 404.793938 153.07028 
L 404.813241 153.952154 
L 404.843175 154.834027 
L 404.885195 155.715901 
L 404.940851 156.597775 
L 405.011906 157.479648 
L 405.100442 158.361522 
L 405.208903 159.243395 
L 405.340069 160.125269 
L 405.496932 161.007143 
L 405.682493 161.889016 
L 405.899477 162.77089 
L 406.150022 163.652764 
L 406.435365 164.534637 
L 406.755578 165.416511 
L 407.109402 166.298384 
L 407.494187 167.180258 
L 407.905965 168.062132 
L 408.339627 168.944005 
L 408.789187 169.825879 
L 409.248076 170.707753 
L 409.709439 171.589626 
L 410.166398 172.4715 
L 410.612251 173.353373 
L 411.040637 174.235247 
L 411.445646 175.117121 
L 411.821944 175.998994 
L 412.164903 176.880868 
L 412.470788 177.762742 
L 412.736981 178.644615 
L 412.962231 179.526489 
L 413.146905 180.408363 
L 413.293177 181.290236 
L 413.405111 182.17211 
L 413.488611 183.053983 
L 413.551207 183.935857 
L 413.60169 184.817731 
L 413.649625 185.699604 
L 413.704808 186.581478 
L 413.776712 187.463352 
L 413.874002 188.345225 
L 414.004157 189.227099 
L 414.173224 190.108972 
L 414.385708 190.990846 
L 414.644569 191.87272 
L 414.951289 192.754593 
L 415.30596 193.636467 
L 415.707367 194.518341 
L 416.15303 195.400214 
L 416.639216 196.282088 
L 417.160922 197.163961 
L 417.711875 198.045835 
L 418.284554 198.927709 
L 418.870284 199.809582 
L 419.459399 200.691456 
L 420.041466 201.57333 
L 420.60558 202.455203 
L 421.140668 203.337077 
L 421.635809 204.21895 
L 422.080521 205.100824 
L 422.46502 205.982698 
L 422.780438 206.864571 
L 423.019008 207.746445 
L 423.174249 208.628319 
L 423.241136 209.510192 
L 423.216296 210.392066 
L 423.098194 211.273939 
L 422.88732 212.155813 
L 422.586319 213.037687 
L 422.200036 213.91956 
L 421.735433 214.801434 
L 421.20134 215.683308 
L 420.608042 216.565181 
L 419.966702 217.447055 
L 419.288689 218.328928 
L 418.584866 219.210802 
L 417.864939 220.092676 
L 417.136953 220.974549 
L 416.407002 221.856423 
L 415.679201 222.738297 
L 414.955921 223.62017 
L 414.238234 224.502044 
L 413.526501 225.383917 
L 412.821011 226.265791 
L 412.122559 227.147665 
L 411.432885 228.029538 
L 410.754917 228.911412 
L 410.092795 229.793286 
L 409.451677 230.675159 
L 408.837391 231.557033 
L 408.255964 232.438907 
z
" clip-path="url(#paf0b66f53a)" style="fill: #1f77b4; fill-opacity: 0.3"/>
   </g>
   <g id="PolyCollection_6">
    <path d="M 488.806825 239.208583 
L 469.83863 239.208583 
L 468.452959 237.596924 
L 467.070861 235.985265 
L 465.735155 234.373605 
L 464.48871 232.761946 
L 463.371512 231.150286 
L 462.41796 229.538627 
L 461.654634 227.926968 
L 461.098798 226.315308 
L 460.757722 224.703649 
L 460.628864 223.091989 
L 460.700789 221.48033 
L 460.954686 219.86867 
L 461.366241 218.257011 
L 461.907664 216.645352 
L 462.549673 215.033692 
L 463.263265 213.422033 
L 464.021194 211.810373 
L 464.79909 210.198714 
L 465.576217 208.587054 
L 466.335884 206.975395 
L 467.065564 205.363736 
L 467.756766 203.752076 
L 468.404715 202.140417 
L 469.007892 200.528757 
L 469.567477 198.917098 
L 470.086728 197.305438 
L 470.570341 195.693779 
L 471.023791 194.08212 
L 471.452709 192.47046 
L 471.862299 190.858801 
L 472.256843 189.247141 
L 472.639319 187.635482 
L 473.011161 186.023823 
L 473.372182 184.412163 
L 473.720673 182.800504 
L 474.053658 181.188844 
L 474.367284 179.577185 
L 474.657302 177.965525 
L 474.919572 176.353866 
L 475.150558 174.742207 
L 475.34774 173.130547 
L 475.509909 171.518888 
L 475.637331 169.907228 
L 475.731761 168.295569 
L 475.796324 166.683909 
L 475.835292 165.07225 
L 475.853781 163.460591 
L 475.857416 161.848931 
L 475.851983 160.237272 
L 475.843115 158.625612 
L 475.836009 157.013953 
L 475.835212 155.402293 
L 475.84447 153.790634 
L 475.866636 152.178975 
L 475.903651 150.567315 
L 475.956577 148.955656 
L 476.025678 147.343996 
L 476.110534 145.732337 
L 476.210172 144.120678 
L 476.323198 142.509018 
L 476.447914 140.897359 
L 476.58242 139.285699 
L 476.724694 137.67404 
L 476.872654 136.06238 
L 477.024223 134.450721 
L 477.177393 132.839062 
L 477.330296 131.227402 
L 477.481279 129.615743 
L 477.628976 128.004083 
L 477.772347 126.392424 
L 477.910694 124.780764 
L 478.043621 123.169105 
L 478.170961 121.557446 
L 478.292669 119.945786 
L 478.408704 118.334127 
L 478.518936 116.722467 
L 478.623076 115.110808 
L 478.720657 113.499149 
L 478.811067 111.887489 
L 478.893613 110.27583 
L 478.967613 108.66417 
L 479.032487 107.052511 
L 479.087832 105.440851 
L 479.133478 103.829192 
L 479.169503 102.217533 
L 479.196232 100.605873 
L 479.214212 98.994214 
L 479.224185 97.382554 
L 479.227053 95.770895 
L 479.223857 94.159235 
L 479.215758 92.547576 
L 479.204016 90.935917 
L 479.189965 89.324257 
L 479.174981 87.712598 
L 479.160424 86.100938 
L 479.14757 84.489279 
L 479.137538 82.877619 
L 479.131206 81.26596 
L 479.129151 79.654301 
L 479.516304 79.654301 
L 479.516304 79.654301 
L 479.514248 81.26596 
L 479.507916 82.877619 
L 479.497884 84.489279 
L 479.485031 86.100938 
L 479.470473 87.712598 
L 479.455489 89.324257 
L 479.441439 90.935917 
L 479.429696 92.547576 
L 479.421597 94.159235 
L 479.418402 95.770895 
L 479.42127 97.382554 
L 479.431242 98.994214 
L 479.449223 100.605873 
L 479.475952 102.217533 
L 479.511976 103.829192 
L 479.557622 105.440851 
L 479.612968 107.052511 
L 479.677842 108.66417 
L 479.751842 110.27583 
L 479.834388 111.887489 
L 479.924798 113.499149 
L 480.022379 115.110808 
L 480.126518 116.722467 
L 480.236751 118.334127 
L 480.352786 119.945786 
L 480.474493 121.557446 
L 480.601834 123.169105 
L 480.734761 124.780764 
L 480.873108 126.392424 
L 481.016479 128.004083 
L 481.164175 129.615743 
L 481.315159 131.227402 
L 481.468061 132.839062 
L 481.621231 134.450721 
L 481.772801 136.06238 
L 481.920761 137.67404 
L 482.063034 139.285699 
L 482.19754 140.897359 
L 482.322257 142.509018 
L 482.435283 144.120678 
L 482.534921 145.732337 
L 482.619777 147.343996 
L 482.688878 148.955656 
L 482.741804 150.567315 
L 482.778818 152.178975 
L 482.800984 153.790634 
L 482.810242 155.402293 
L 482.809446 157.013953 
L 482.802339 158.625612 
L 482.793471 160.237272 
L 482.788039 161.848931 
L 482.791674 163.460591 
L 482.810163 165.07225 
L 482.84913 166.683909 
L 482.913693 168.295569 
L 483.008123 169.907228 
L 483.135546 171.518888 
L 483.297715 173.130547 
L 483.494896 174.742207 
L 483.725883 176.353866 
L 483.988153 177.965525 
L 484.27817 179.577185 
L 484.591797 181.188844 
L 484.924782 182.800504 
L 485.273273 184.412163 
L 485.634294 186.023823 
L 486.006136 187.635482 
L 486.388612 189.247141 
L 486.783156 190.858801 
L 487.192745 192.47046 
L 487.621663 194.08212 
L 488.075113 195.693779 
L 488.558726 197.305438 
L 489.077978 198.917098 
L 489.637562 200.528757 
L 490.24074 202.140417 
L 490.888689 203.752076 
L 491.579891 205.363736 
L 492.309571 206.975395 
L 493.069237 208.587054 
L 493.846364 210.198714 
L 494.624261 211.810373 
L 495.38219 213.422033 
L 496.095782 215.033692 
L 496.73779 216.645352 
L 497.279214 218.257011 
L 497.690768 219.86867 
L 497.944666 221.48033 
L 498.016591 223.091989 
L 497.887732 224.703649 
L 497.546657 226.315308 
L 496.99082 227.926968 
L 496.227495 229.538627 
L 495.273942 231.150286 
L 494.156745 232.761946 
L 492.910299 234.373605 
L 491.574594 235.985265 
L 490.192495 237.596924 
L 488.806825 239.208583 
z
" clip-path="url(#paf0b66f53a)" style="fill: #1f77b4; fill-opacity: 0.3"/>
   </g>
   <g id="PolyCollection_7">
    <path d="M 561.516699 237.807961 
L 546.679665 237.807961 
L 545.570672 237.058132 
L 544.430218 236.308304 
L 543.281563 235.558476 
L 542.148866 234.808647 
L 541.055845 234.058819 
L 540.024505 233.30899 
L 539.074043 232.559162 
L 538.220033 231.809334 
L 537.473933 231.059505 
L 536.842928 230.309677 
L 536.330086 229.559848 
L 535.934759 228.81002 
L 535.653152 228.060192 
L 535.479008 227.310363 
L 535.404318 226.560535 
L 535.420024 225.810707 
L 535.516673 225.060878 
L 535.685001 224.31105 
L 535.916414 223.561221 
L 536.203334 222.811393 
L 536.539396 222.061565 
L 536.919438 221.311736 
L 537.339291 220.561908 
L 537.795379 219.81208 
L 538.284164 219.062251 
L 538.801533 218.312423 
L 539.342222 217.562594 
L 539.899399 216.812766 
L 540.464507 216.062938 
L 541.027419 215.313109 
L 541.576927 214.563281 
L 542.101515 213.813453 
L 542.590329 213.063624 
L 543.034202 212.313796 
L 543.426617 211.563967 
L 543.764459 210.814139 
L 544.048467 210.064311 
L 544.283321 209.314482 
L 544.477346 208.564654 
L 544.641852 207.814826 
L 544.790185 207.064997 
L 544.936577 206.315169 
L 545.094901 205.56534 
L 545.27747 204.815512 
L 545.493986 204.065684 
L 545.750755 203.315855 
L 546.050233 202.566027 
L 546.390956 201.816199 
L 546.767838 201.06637 
L 547.1728 200.316542 
L 547.595633 199.566713 
L 548.024999 198.816885 
L 548.44945 198.067057 
L 548.858349 197.317228 
L 549.242622 196.5674 
L 549.595277 195.817571 
L 549.911684 195.067743 
L 550.189618 194.317915 
L 550.429121 193.568086 
L 550.632215 192.818258 
L 550.80253 192.06843 
L 550.944888 191.318601 
L 551.064878 190.568773 
L 551.168439 189.818944 
L 551.261471 189.069116 
L 551.349483 188.319288 
L 551.437278 187.569459 
L 551.528705 186.819631 
L 551.626474 186.069803 
L 551.732062 185.319974 
L 551.845715 184.570146 
L 551.966555 183.820317 
L 552.092777 183.070489 
L 552.221924 182.320661 
L 552.351205 181.570832 
L 552.477818 180.821004 
L 552.599247 180.071176 
L 552.713488 179.321347 
L 552.819194 178.571519 
L 552.915722 177.82169 
L 553.003087 177.071862 
L 553.081841 176.322034 
L 553.152904 175.572205 
L 553.217374 174.822377 
L 553.276351 174.072549 
L 553.330792 173.32272 
L 553.381421 172.572892 
L 553.428696 171.823063 
L 553.472832 171.073235 
L 553.513868 170.323407 
L 553.551762 169.573578 
L 553.586492 168.82375 
L 553.618145 168.073921 
L 553.646974 167.324093 
L 553.673414 166.574265 
L 553.698065 165.824436 
L 553.721623 165.074608 
L 553.7448 164.32478 
L 553.768231 163.574951 
L 554.428132 163.574951 
L 554.428132 163.574951 
L 554.451563 164.32478 
L 554.474741 165.074608 
L 554.498298 165.824436 
L 554.522949 166.574265 
L 554.54939 167.324093 
L 554.578219 168.073921 
L 554.609872 168.82375 
L 554.644602 169.573578 
L 554.682496 170.323407 
L 554.723532 171.073235 
L 554.767668 171.823063 
L 554.814943 172.572892 
L 554.865572 173.32272 
L 554.920013 174.072549 
L 554.97899 174.822377 
L 555.04346 175.572205 
L 555.114523 176.322034 
L 555.193277 177.071862 
L 555.280642 177.82169 
L 555.37717 178.571519 
L 555.482876 179.321347 
L 555.597116 180.071176 
L 555.718545 180.821004 
L 555.845159 181.570832 
L 555.97444 182.320661 
L 556.103587 183.070489 
L 556.229809 183.820317 
L 556.350649 184.570146 
L 556.464302 185.319974 
L 556.569889 186.069803 
L 556.667659 186.819631 
L 556.759086 187.569459 
L 556.846881 188.319288 
L 556.934893 189.069116 
L 557.027925 189.818944 
L 557.131486 190.568773 
L 557.251476 191.318601 
L 557.393834 192.06843 
L 557.564148 192.818258 
L 557.767242 193.568086 
L 558.006745 194.317915 
L 558.28468 195.067743 
L 558.601087 195.817571 
L 558.953742 196.5674 
L 559.338015 197.317228 
L 559.746914 198.067057 
L 560.171365 198.816885 
L 560.600731 199.566713 
L 561.023563 200.316542 
L 561.428525 201.06637 
L 561.805408 201.816199 
L 562.146131 202.566027 
L 562.445609 203.315855 
L 562.702378 204.065684 
L 562.918894 204.815512 
L 563.101463 205.56534 
L 563.259787 206.315169 
L 563.406178 207.064997 
L 563.554512 207.814826 
L 563.719018 208.564654 
L 563.913042 209.314482 
L 564.147897 210.064311 
L 564.431905 210.814139 
L 564.769746 211.563967 
L 565.162161 212.313796 
L 565.606034 213.063624 
L 566.094848 213.813453 
L 566.619437 214.563281 
L 567.168944 215.313109 
L 567.731856 216.062938 
L 568.296965 216.812766 
L 568.854142 217.562594 
L 569.394831 218.312423 
L 569.912199 219.062251 
L 570.400985 219.81208 
L 570.857073 220.561908 
L 571.276926 221.311736 
L 571.656967 222.061565 
L 571.993029 222.811393 
L 572.27995 223.561221 
L 572.511362 224.31105 
L 572.679691 225.060878 
L 572.77634 225.810707 
L 572.792045 226.560535 
L 572.717356 227.310363 
L 572.543212 228.060192 
L 572.261605 228.81002 
L 571.866277 229.559848 
L 571.353436 230.309677 
L 570.722431 231.059505 
L 569.97633 231.809334 
L 569.12232 232.559162 
L 568.171859 233.30899 
L 567.140518 234.058819 
L 566.047497 234.808647 
L 564.9148 235.558476 
L 563.766145 236.308304 
L 562.625691 237.058132 
L 561.516699 237.807961 
z
" clip-path="url(#paf0b66f53a)" style="fill: #1f77b4; fill-opacity: 0.3"/>
   </g>
   <g id="PolyCollection_8">
    <path d="M 629.2216 303.987389 
L 628.525673 303.987389 
L 628.465105 302.867362 
L 628.391883 301.747336 
L 628.301738 300.627309 
L 628.191769 299.507282 
L 628.061512 298.387256 
L 627.913371 297.267229 
L 627.752198 296.147202 
L 627.584151 295.027176 
L 627.415228 293.907149 
L 627.249968 292.787122 
L 627.090702 291.667096 
L 626.937405 290.547069 
L 626.787976 289.427042 
L 626.638591 288.307016 
L 626.483838 287.186989 
L 626.316587 286.066962 
L 626.127761 284.946936 
L 625.906321 283.826909 
L 625.639771 282.706882 
L 625.315314 281.586856 
L 624.921552 280.466829 
L 624.450442 279.346802 
L 623.899044 278.226776 
L 623.27059 277.106749 
L 622.574494 275.986722 
L 621.825132 274.866696 
L 621.039504 273.746669 
L 620.234191 272.626642 
L 619.422286 271.506616 
L 618.611095 270.386589 
L 617.801354 269.266562 
L 616.988407 268.146536 
L 616.16529 267.026509 
L 615.327074 265.906482 
L 614.475318 264.786456 
L 613.621391 263.666429 
L 612.787673 262.546402 
L 612.006318 261.426376 
L 611.315945 260.306349 
L 610.757161 259.186322 
L 610.367942 258.066296 
L 610.179773 256.946269 
L 610.215007 255.826242 
L 610.485592 254.706216 
L 610.992905 253.586189 
L 611.728267 252.466162 
L 612.67365 251.346136 
L 613.802257 250.226109 
L 615.078934 249.106082 
L 616.460786 247.986056 
L 617.89854 246.866029 
L 619.339149 245.746002 
L 620.729765 244.625976 
L 622.022627 243.505949 
L 623.179966 242.385922 
L 624.177777 241.265896 
L 625.007516 240.145869 
L 625.675281 239.025842 
L 626.198707 237.905816 
L 626.602414 236.785789 
L 626.913141 235.665762 
L 627.155683 234.545736 
L 627.35034 233.425709 
L 627.512065 232.305682 
L 627.650964 231.185656 
L 627.773522 230.065629 
L 627.883889 228.945602 
L 627.984776 227.825576 
L 628.077838 226.705549 
L 628.163689 225.585522 
L 628.241859 224.465496 
L 628.310943 223.345469 
L 628.369073 222.225442 
L 628.414609 221.105416 
L 628.446844 219.985389 
L 628.466469 218.865362 
L 628.475661 217.745336 
L 628.477777 216.625309 
L 628.476797 215.505282 
L 628.476694 214.385256 
L 628.480895 213.265229 
L 628.491894 212.145202 
L 628.511019 211.025176 
L 628.538339 209.905149 
L 628.572663 208.785122 
L 628.611681 207.665096 
L 628.652234 206.545069 
L 628.690725 205.425042 
L 628.723607 204.305016 
L 628.747863 203.184989 
L 628.76143 202.064962 
L 628.763495 200.944936 
L 628.754658 199.824909 
L 628.736945 198.704882 
L 628.713636 197.584856 
L 628.688887 196.464829 
L 628.667136 195.344802 
L 628.652382 194.224776 
L 628.647466 193.104749 
L 629.099807 193.104749 
L 629.099807 193.104749 
L 629.094891 194.224776 
L 629.080137 195.344802 
L 629.058386 196.464829 
L 629.033637 197.584856 
L 629.010328 198.704882 
L 628.992615 199.824909 
L 628.983778 200.944936 
L 628.985843 202.064962 
L 628.99941 203.184989 
L 629.023666 204.305016 
L 629.056547 205.425042 
L 629.095039 206.545069 
L 629.135592 207.665096 
L 629.17461 208.785122 
L 629.208934 209.905149 
L 629.236253 211.025176 
L 629.255379 212.145202 
L 629.266377 213.265229 
L 629.270579 214.385256 
L 629.270476 215.505282 
L 629.269495 216.625309 
L 629.271611 217.745336 
L 629.280803 218.865362 
L 629.300429 219.985389 
L 629.332664 221.105416 
L 629.3782 222.225442 
L 629.43633 223.345469 
L 629.505414 224.465496 
L 629.583583 225.585522 
L 629.669435 226.705549 
L 629.762497 227.825576 
L 629.863384 228.945602 
L 629.973751 230.065629 
L 630.096309 231.185656 
L 630.235208 232.305682 
L 630.396933 233.425709 
L 630.59159 234.545736 
L 630.834132 235.665762 
L 631.144858 236.785789 
L 631.548565 237.905816 
L 632.071992 239.025842 
L 632.739757 240.145869 
L 633.569496 241.265896 
L 634.567307 242.385922 
L 635.724646 243.505949 
L 637.017508 244.625976 
L 638.408123 245.746002 
L 639.848733 246.866029 
L 641.286487 247.986056 
L 642.668339 249.106082 
L 643.945016 250.226109 
L 645.073622 251.346136 
L 646.019006 252.466162 
L 646.754367 253.586189 
L 647.261681 254.706216 
L 647.532266 255.826242 
L 647.5675 256.946269 
L 647.37933 258.066296 
L 646.990112 259.186322 
L 646.431327 260.306349 
L 645.740955 261.426376 
L 644.9596 262.546402 
L 644.125882 263.666429 
L 643.271954 264.786456 
L 642.420198 265.906482 
L 641.581982 267.026509 
L 640.758866 268.146536 
L 639.945919 269.266562 
L 639.136178 270.386589 
L 638.324987 271.506616 
L 637.513082 272.626642 
L 636.707768 273.746669 
L 635.92214 274.866696 
L 635.172779 275.986722 
L 634.476683 277.106749 
L 633.848228 278.226776 
L 633.29683 279.346802 
L 632.82572 280.466829 
L 632.431958 281.586856 
L 632.107501 282.706882 
L 631.840952 283.826909 
L 631.619512 284.946936 
L 631.430686 286.066962 
L 631.263435 287.186989 
L 631.108682 288.307016 
L 630.959296 289.427042 
L 630.809868 290.547069 
L 630.65657 291.667096 
L 630.497304 292.787122 
L 630.332045 293.907149 
L 630.163121 295.027176 
L 629.995075 296.147202 
L 629.833902 297.267229 
L 629.685761 298.387256 
L 629.555504 299.507282 
L 629.445534 300.627309 
L 629.35539 301.747336 
L 629.282168 302.867362 
L 629.2216 303.987389 
z
" clip-path="url(#paf0b66f53a)" style="fill: #1f77b4; fill-opacity: 0.3"/>
   </g>
   <g id="PolyCollection_9">
    <path d="M 704.297705 301.769736 
L 703.000477 301.769736 
L 702.876577 300.76407 
L 702.745632 299.758404 
L 702.61067 298.752738 
L 702.474865 297.747072 
L 702.341142 296.741406 
L 702.211825 295.73574 
L 702.088383 294.730074 
L 701.971352 293.724408 
L 701.860377 292.718742 
L 701.754312 291.713076 
L 701.651229 290.70741 
L 701.548282 289.701743 
L 701.441396 288.696077 
L 701.324912 287.690411 
L 701.191371 286.684745 
L 701.031672 285.679079 
L 700.835773 284.673413 
L 700.593962 283.667747 
L 700.298579 282.662081 
L 699.945856 281.656415 
L 699.537456 280.650749 
L 699.081232 279.645083 
L 698.590826 278.639417 
L 698.083929 277.633751 
L 697.579299 276.628085 
L 697.092963 275.622419 
L 696.634296 274.616753 
L 696.202846 273.611087 
L 695.786725 272.605421 
L 695.363182 271.599755 
L 694.901545 270.594089 
L 694.368238 269.588423 
L 693.733069 268.582756 
L 692.975656 267.57709 
L 692.090782 266.571424 
L 691.091634 265.565758 
L 690.010323 264.560092 
L 688.895609 263.554426 
L 687.808285 262.54876 
L 686.815009 261.543094 
L 685.981534 260.537428 
L 685.366224 259.531762 
L 685.014576 258.526096 
L 684.955227 257.52043 
L 685.197756 256.514764 
L 685.732379 255.509098 
L 686.531491 254.503432 
L 687.552802 253.497766 
L 688.743663 252.4921 
L 690.046012 251.486434 
L 691.401343 250.480768 
L 692.755163 249.475102 
L 694.060539 248.469436 
L 695.28053 247.463769 
L 696.38945 246.458103 
L 697.373031 245.452437 
L 698.227591 244.446771 
L 698.958395 243.441105 
L 699.577403 242.435439 
L 700.100696 241.429773 
L 700.545882 240.424107 
L 700.929813 239.418441 
L 701.266864 238.412775 
L 701.56794 237.407109 
L 701.840235 236.401443 
L 702.08762 235.395777 
L 702.311459 234.390111 
L 702.511601 233.384445 
L 702.687315 232.378779 
L 702.838016 231.373113 
L 702.963683 230.367447 
L 703.065019 229.361781 
L 703.1434 228.356115 
L 703.200734 227.350449 
L 703.239292 226.344782 
L 703.261574 225.339116 
L 703.270193 224.33345 
L 703.267777 223.327784 
L 703.256871 222.322118 
L 703.239829 221.316452 
L 703.218735 220.310786 
L 703.195366 219.30512 
L 703.171209 218.299454 
L 703.147535 217.293788 
L 703.125494 216.288122 
L 703.106193 215.282456 
L 703.090715 214.27679 
L 703.080082 213.271124 
L 703.075151 212.265458 
L 703.076495 211.259792 
L 703.084303 210.254126 
L 703.098356 209.24846 
L 703.118078 208.242794 
L 703.142672 207.237128 
L 703.171279 206.231462 
L 703.203129 205.225795 
L 703.237611 204.220129 
L 703.274256 203.214463 
L 703.312642 202.208797 
L 703.985539 202.208797 
L 703.985539 202.208797 
L 704.023926 203.214463 
L 704.060571 204.220129 
L 704.095053 205.225795 
L 704.126903 206.231462 
L 704.15551 207.237128 
L 704.180104 208.242794 
L 704.199826 209.24846 
L 704.213879 210.254126 
L 704.221687 211.259792 
L 704.22303 212.265458 
L 704.2181 213.271124 
L 704.207467 214.27679 
L 704.191989 215.282456 
L 704.172687 216.288122 
L 704.150647 217.293788 
L 704.126973 218.299454 
L 704.102815 219.30512 
L 704.079446 220.310786 
L 704.058353 221.316452 
L 704.041311 222.322118 
L 704.030405 223.327784 
L 704.027989 224.33345 
L 704.036608 225.339116 
L 704.058889 226.344782 
L 704.097448 227.350449 
L 704.154782 228.356115 
L 704.233163 229.361781 
L 704.334499 230.367447 
L 704.460166 231.373113 
L 704.610866 232.378779 
L 704.786581 233.384445 
L 704.986722 234.390111 
L 705.210562 235.395777 
L 705.457947 236.401443 
L 705.730242 237.407109 
L 706.031318 238.412775 
L 706.368368 239.418441 
L 706.7523 240.424107 
L 707.197486 241.429773 
L 707.720779 242.435439 
L 708.339787 243.441105 
L 709.070591 244.446771 
L 709.925151 245.452437 
L 710.908732 246.458103 
L 712.017652 247.463769 
L 713.237642 248.469436 
L 714.543019 249.475102 
L 715.896839 250.480768 
L 717.25217 251.486434 
L 718.554519 252.4921 
L 719.74538 253.497766 
L 720.766691 254.503432 
L 721.565803 255.509098 
L 722.100426 256.514764 
L 722.342955 257.52043 
L 722.283606 258.526096 
L 721.931957 259.531762 
L 721.316648 260.537428 
L 720.483173 261.543094 
L 719.489897 262.54876 
L 718.402573 263.554426 
L 717.287859 264.560092 
L 716.206547 265.565758 
L 715.2074 266.571424 
L 714.322526 267.57709 
L 713.565113 268.582756 
L 712.929943 269.588423 
L 712.396637 270.594089 
L 711.935 271.599755 
L 711.511457 272.605421 
L 711.095336 273.611087 
L 710.663886 274.616753 
L 710.205219 275.622419 
L 709.718883 276.628085 
L 709.214253 277.633751 
L 708.707356 278.639417 
L 708.21695 279.645083 
L 707.760726 280.650749 
L 707.352326 281.656415 
L 706.999603 282.662081 
L 706.70422 283.667747 
L 706.462409 284.673413 
L 706.266509 285.679079 
L 706.106811 286.684745 
L 705.97327 287.690411 
L 705.856786 288.696077 
L 705.7499 289.701743 
L 705.646953 290.70741 
L 705.54387 291.713076 
L 705.437804 292.718742 
L 705.32683 293.724408 
L 705.209799 294.730074 
L 705.086357 295.73574 
L 704.95704 296.741406 
L 704.823317 297.747072 
L 704.687512 298.752738 
L 704.55255 299.758404 
L 704.421604 300.76407 
L 704.297705 301.769736 
z
" clip-path="url(#paf0b66f53a)" style="fill: #1f77b4; fill-opacity: 0.3"/>
   </g>
   <g id="PolyCollection_10">
    <path d="M 787.228341 323.829545 
L 769.620749 323.829545 
L 768.521803 322.998368 
L 767.394903 322.16719 
L 766.260717 321.336012 
L 765.142507 320.504835 
L 764.065422 319.673657 
L 763.055614 318.842479 
L 762.139211 318.011302 
L 761.341201 317.180124 
L 760.684285 316.348946 
L 760.187783 315.517769 
L 759.866651 314.686591 
L 759.730682 313.855413 
L 759.783948 313.024236 
L 760.024531 312.193058 
L 760.444554 311.36188 
L 761.030519 310.530703 
L 761.763932 309.699525 
L 762.622175 308.868347 
L 763.57955 308.037169 
L 764.608456 307.205992 
L 765.680591 306.374814 
L 766.76813 305.543636 
L 767.844792 304.712459 
L 768.886759 303.881281 
L 769.873389 303.050103 
L 770.787709 302.218926 
L 771.616683 301.387748 
L 772.351257 300.55657 
L 772.986213 299.725393 
L 773.519865 298.894215 
L 773.953628 298.063037 
L 774.291514 297.23186 
L 774.539591 296.400682 
L 774.705438 295.569504 
L 774.79764 294.738327 
L 774.82533 293.907149 
L 774.797803 293.075971 
L 774.724215 292.244793 
L 774.61335 291.413616 
L 774.473474 290.582438 
L 774.312242 289.75126 
L 774.136664 288.920083 
L 773.953105 288.088905 
L 773.767314 287.257727 
L 773.584455 286.42655 
L 773.409146 285.595372 
L 773.245481 284.764194 
L 773.097046 283.933017 
L 772.96691 283.101839 
L 772.857609 282.270661 
L 772.771113 281.439484 
L 772.708797 280.608306 
L 772.671407 279.777128 
L 772.659044 278.945951 
L 772.671164 278.114773 
L 772.706599 277.283595 
L 772.763612 276.452418 
L 772.839974 275.62124 
L 772.933071 274.790062 
L 773.040022 273.958884 
L 773.157822 273.127707 
L 773.28348 272.296529 
L 773.414155 271.465351 
L 773.547277 270.634174 
L 773.680646 269.802996 
L 773.8125 268.971818 
L 773.94156 268.140641 
L 774.06703 267.309463 
L 774.188575 266.478285 
L 774.306268 265.647108 
L 774.420513 264.81593 
L 774.531961 263.984752 
L 774.641405 263.153575 
L 774.74969 262.322397 
L 774.857616 261.491219 
L 774.965865 260.660042 
L 775.074942 259.828864 
L 775.185135 258.997686 
L 775.296503 258.166508 
L 775.408885 257.335331 
L 775.521924 256.504153 
L 775.635119 255.672975 
L 775.747878 254.841798 
L 775.859586 254.01062 
L 775.969666 253.179442 
L 776.077638 252.348265 
L 776.183163 251.517087 
L 776.286075 250.685909 
L 776.38639 249.854732 
L 776.484298 249.023554 
L 776.580133 248.192376 
L 776.674334 247.361199 
L 776.76739 246.530021 
L 776.859779 245.698843 
L 776.951914 244.867666 
L 777.044089 244.036488 
L 777.13644 243.20531 
L 777.228921 242.374133 
L 777.321297 241.542955 
L 779.527794 241.542955 
L 779.527794 241.542955 
L 779.62017 242.374133 
L 779.712651 243.20531 
L 779.805002 244.036488 
L 779.897177 244.867666 
L 779.989312 245.698843 
L 780.081701 246.530021 
L 780.174757 247.361199 
L 780.268958 248.192376 
L 780.364793 249.023554 
L 780.4627 249.854732 
L 780.563016 250.685909 
L 780.665928 251.517087 
L 780.771453 252.348265 
L 780.879425 253.179442 
L 780.989505 254.01062 
L 781.101213 254.841798 
L 781.213972 255.672975 
L 781.327167 256.504153 
L 781.440206 257.335331 
L 781.552588 258.166508 
L 781.663956 258.997686 
L 781.774149 259.828864 
L 781.883226 260.660042 
L 781.991475 261.491219 
L 782.099401 262.322397 
L 782.207685 263.153575 
L 782.31713 263.984752 
L 782.428578 264.81593 
L 782.542823 265.647108 
L 782.660516 266.478285 
L 782.78206 267.309463 
L 782.90753 268.140641 
L 783.036591 268.971818 
L 783.168445 269.802996 
L 783.301814 270.634174 
L 783.434936 271.465351 
L 783.565611 272.296529 
L 783.691269 273.127707 
L 783.809069 273.958884 
L 783.91602 274.790062 
L 784.009117 275.62124 
L 784.085479 276.452418 
L 784.142492 277.283595 
L 784.177927 278.114773 
L 784.190047 278.945951 
L 784.177684 279.777128 
L 784.140294 280.608306 
L 784.077978 281.439484 
L 783.991482 282.270661 
L 783.882181 283.101839 
L 783.752045 283.933017 
L 783.60361 284.764194 
L 783.439945 285.595372 
L 783.264636 286.42655 
L 783.081777 287.257727 
L 782.895986 288.088905 
L 782.712427 288.920083 
L 782.536849 289.75126 
L 782.375617 290.582438 
L 782.235741 291.413616 
L 782.124876 292.244793 
L 782.051288 293.075971 
L 782.023761 293.907149 
L 782.051451 294.738327 
L 782.143653 295.569504 
L 782.3095 296.400682 
L 782.557577 297.23186 
L 782.895463 298.063037 
L 783.329226 298.894215 
L 783.862878 299.725393 
L 784.497834 300.55657 
L 785.232408 301.387748 
L 786.061382 302.218926 
L 786.975702 303.050103 
L 787.962332 303.881281 
L 789.004299 304.712459 
L 790.080961 305.543636 
L 791.1685 306.374814 
L 792.240635 307.205992 
L 793.269541 308.037169 
L 794.226916 308.868347 
L 795.085159 309.699525 
L 795.818572 310.530703 
L 796.404537 311.36188 
L 796.82456 312.193058 
L 797.065143 313.024236 
L 797.118409 313.855413 
L 796.98244 314.686591 
L 796.661308 315.517769 
L 796.164806 316.348946 
L 795.50789 317.180124 
L 794.70988 318.011302 
L 793.793477 318.842479 
L 792.783669 319.673657 
L 791.706584 320.504835 
L 790.588373 321.336012 
L 789.454188 322.16719 
L 788.327288 322.998368 
L 787.228341 323.829545 
z
" clip-path="url(#paf0b66f53a)" style="fill: #1f77b4; fill-opacity: 0.3"/>
   </g>
   <g id="matplotlib.axis_1">
    <g id="xtick_1">
     <g id="line2d_1">
      <defs>
       <path id="mc402c75202" d="M 0 0 
L 0 3.5 
" style="stroke: #000000; stroke-width: 0.8"/>
      </defs>
      <g>
       <use xlink:href="#mc402c75202" x="105.445455" y="337.97" style="stroke: #000000; stroke-width: 0.8"/>
      </g>
     </g>
     <g id="text_1">
      <!-- Tit For Tat -->
      <g transform="translate(107.652955 384.15)rotate(-90)scale(0.08 -0.08)">
       <defs>
        <path id="DejaVuSans-54" d="M -19 4666 
L 3928 4666 
L 3928 4134 
L 2272 4134 
L 2272 0 
L 1638 0 
L 1638 4134 
L -19 4134 
L -19 4666 
z
" transform="scale(0.015625)"/>
        <path id="DejaVuSans-69" d="M 603 3500 
L 1178 3500 
L 1178 0 
L 603 0 
L 603 3500 
z
M 603 4863 
L 1178 4863 
L 1178 4134 
L 603 4134 
L 603 4863 
z
" transform="scale(0.015625)"/>
        <path id="DejaVuSans-74" d="M 1172 4494 
L 1172 3500 
L 2356 3500 
L 2356 3053 
L 1172 3053 
L 1172 1153 
Q 1172 725 1289 603 
Q 1406 481 1766 481 
L 2356 481 
L 2356 0 
L 1766 0 
Q 1100 0 847 248 
Q 594 497 594 1153 
L 594 3053 
L 172 3053 
L 172 3500 
L 594 3500 
L 594 4494 
L 1172 4494 
z
" transform="scale(0.015625)"/>
        <path id="DejaVuSans-20" transform="scale(0.015625)"/>
        <path id="DejaVuSans-46" d="M 628 4666 
L 3309 4666 
L 3309 4134 
L 1259 4134 
L 1259 2759 
L 3109 2759 
L 3109 2228 
L 1259 2228 
L 1259 0 
L 628 0 
L 628 4666 
z
" transform="scale(0.015625)"/>
        <path id="DejaVuSans-6f" d="M 1959 3097 
Q 1497 3097 1228 2736 
Q 959 2375 959 1747 
Q 959 1119 1226 758 
Q 1494 397 1959 397 
Q 2419 397 2687 759 
Q 2956 1122 2956 1747 
Q 2956 2369 2687 2733 
Q 2419 3097 1959 3097 
z
M 1959 3584 
Q 2709 3584 3137 3096 
Q 3566 2609 3566 1747 
Q 3566 888 3137 398 
Q 2709 -91 1959 -91 
Q 1206 -91 779 398 
Q 353 888 353 1747 
Q 353 2609 779 3096 
Q 1206 3584 1959 3584 
z
" transform="scale(0.015625)"/>
        <path id="DejaVuSans-72" d="M 2631 2963 
Q 2534 3019 2420 3045 
Q 2306 3072 2169 3072 
Q 1681 3072 1420 2755 
Q 1159 2438 1159 1844 
L 1159 0 
L 581 0 
L 581 3500 
L 1159 3500 
L 1159 2956 
Q 1341 3275 1631 3429 
Q 1922 3584 2338 3584 
Q 2397 3584 2469 3576 
Q 2541 3569 2628 3553 
L 2631 2963 
z
" transform="scale(0.015625)"/>
        <path id="DejaVuSans-61" d="M 2194 1759 
Q 1497 1759 1228 1600 
Q 959 1441 959 1056 
Q 959 750 1161 570 
Q 1363 391 1709 391 
Q 2188 391 2477 730 
Q 2766 1069 2766 1631 
L 2766 1759 
L 2194 1759 
z
M 3341 1997 
L 3341 0 
L 2766 0 
L 2766 531 
Q 2569 213 2275 61 
Q 1981 -91 1556 -91 
Q 1019 -91 701 211 
Q 384 513 384 1019 
Q 384 1609 779 1909 
Q 1175 2209 1959 2209 
L 2766 2209 
L 2766 2266 
Q 2766 2663 2505 2880 
Q 2244 3097 1772 3097 
Q 1472 3097 1187 3025 
Q 903 2953 641 2809 
L 641 3341 
Q 956 3463 1253 3523 
Q 1550 3584 1831 3584 
Q 2591 3584 2966 3190 
Q 3341 2797 3341 1997 
z
" transform="scale(0.015625)"/>
       </defs>
       <use xlink:href="#DejaVuSans-54"/>
       <use xlink:href="#DejaVuSans-69" x="57.958984"/>
       <use xlink:href="#DejaVuSans-74" x="85.742188"/>
       <use xlink:href="#DejaVuSans-20" x="124.951172"/>
       <use xlink:href="#DejaVuSans-46" x="156.738281"/>
       <use xlink:href="#DejaVuSans-6f" x="210.632812"/>
       <use xlink:href="#DejaVuSans-72" x="271.814453"/>
       <use xlink:href="#DejaVuSans-20" x="312.927734"/>
       <use xlink:href="#DejaVuSans-54" x="344.714844"/>
       <use xlink:href="#DejaVuSans-61" x="389.298828"/>
       <use xlink:href="#DejaVuSans-74" x="450.578125"/>
      </g>
     </g>
    </g>
    <g id="xtick_2">
     <g id="line2d_2">
      <g>
       <use xlink:href="#mc402c75202" x="180.220909" y="337.97" style="stroke: #000000; stroke-width: 0.8"/>
      </g>
     </g>
     <g id="text_2">
      <!-- Grudger -->
      <g transform="translate(182.428409 377.89625)rotate(-90)scale(0.08 -0.08)">
       <defs>
        <path id="DejaVuSans-47" d="M 3809 666 
L 3809 1919 
L 2778 1919 
L 2778 2438 
L 4434 2438 
L 4434 434 
Q 4069 175 3628 42 
Q 3188 -91 2688 -91 
Q 1594 -91 976 548 
Q 359 1188 359 2328 
Q 359 3472 976 4111 
Q 1594 4750 2688 4750 
Q 3144 4750 3555 4637 
Q 3966 4525 4313 4306 
L 4313 3634 
Q 3963 3931 3569 4081 
Q 3175 4231 2741 4231 
Q 1884 4231 1454 3753 
Q 1025 3275 1025 2328 
Q 1025 1384 1454 906 
Q 1884 428 2741 428 
Q 3075 428 3337 486 
Q 3600 544 3809 666 
z
" transform="scale(0.015625)"/>
        <path id="DejaVuSans-75" d="M 544 1381 
L 544 3500 
L 1119 3500 
L 1119 1403 
Q 1119 906 1312 657 
Q 1506 409 1894 409 
Q 2359 409 2629 706 
Q 2900 1003 2900 1516 
L 2900 3500 
L 3475 3500 
L 3475 0 
L 2900 0 
L 2900 538 
Q 2691 219 2414 64 
Q 2138 -91 1772 -91 
Q 1169 -91 856 284 
Q 544 659 544 1381 
z
M 1991 3584 
L 1991 3584 
z
" transform="scale(0.015625)"/>
        <path id="DejaVuSans-64" d="M 2906 2969 
L 2906 4863 
L 3481 4863 
L 3481 0 
L 2906 0 
L 2906 525 
Q 2725 213 2448 61 
Q 2172 -91 1784 -91 
Q 1150 -91 751 415 
Q 353 922 353 1747 
Q 353 2572 751 3078 
Q 1150 3584 1784 3584 
Q 2172 3584 2448 3432 
Q 2725 3281 2906 2969 
z
M 947 1747 
Q 947 1113 1208 752 
Q 1469 391 1925 391 
Q 2381 391 2643 752 
Q 2906 1113 2906 1747 
Q 2906 2381 2643 2742 
Q 2381 3103 1925 3103 
Q 1469 3103 1208 2742 
Q 947 2381 947 1747 
z
" transform="scale(0.015625)"/>
        <path id="DejaVuSans-67" d="M 2906 1791 
Q 2906 2416 2648 2759 
Q 2391 3103 1925 3103 
Q 1463 3103 1205 2759 
Q 947 2416 947 1791 
Q 947 1169 1205 825 
Q 1463 481 1925 481 
Q 2391 481 2648 825 
Q 2906 1169 2906 1791 
z
M 3481 434 
Q 3481 -459 3084 -895 
Q 2688 -1331 1869 -1331 
Q 1566 -1331 1297 -1286 
Q 1028 -1241 775 -1147 
L 775 -588 
Q 1028 -725 1275 -790 
Q 1522 -856 1778 -856 
Q 2344 -856 2625 -561 
Q 2906 -266 2906 331 
L 2906 616 
Q 2728 306 2450 153 
Q 2172 0 1784 0 
Q 1141 0 747 490 
Q 353 981 353 1791 
Q 353 2603 747 3093 
Q 1141 3584 1784 3584 
Q 2172 3584 2450 3431 
Q 2728 3278 2906 2969 
L 2906 3500 
L 3481 3500 
L 3481 434 
z
" transform="scale(0.015625)"/>
        <path id="DejaVuSans-65" d="M 3597 1894 
L 3597 1613 
L 953 1613 
Q 991 1019 1311 708 
Q 1631 397 2203 397 
Q 2534 397 2845 478 
Q 3156 559 3463 722 
L 3463 178 
Q 3153 47 2828 -22 
Q 2503 -91 2169 -91 
Q 1331 -91 842 396 
Q 353 884 353 1716 
Q 353 2575 817 3079 
Q 1281 3584 2069 3584 
Q 2775 3584 3186 3129 
Q 3597 2675 3597 1894 
z
M 3022 2063 
Q 3016 2534 2758 2815 
Q 2500 3097 2075 3097 
Q 1594 3097 1305 2825 
Q 1016 2553 972 2059 
L 3022 2063 
z
" transform="scale(0.015625)"/>
       </defs>
       <use xlink:href="#DejaVuSans-47"/>
       <use xlink:href="#DejaVuSans-72" x="77.490234"/>
       <use xlink:href="#DejaVuSans-75" x="118.603516"/>
       <use xlink:href="#DejaVuSans-64" x="181.982422"/>
       <use xlink:href="#DejaVuSans-67" x="245.458984"/>
       <use xlink:href="#DejaVuSans-65" x="308.935547"/>
       <use xlink:href="#DejaVuSans-72" x="370.458984"/>
      </g>
     </g>
    </g>
    <g id="xtick_3">
     <g id="line2d_3">
      <g>
       <use xlink:href="#mc402c75202" x="254.996364" y="337.97" style="stroke: #000000; stroke-width: 0.8"/>
      </g>
     </g>
     <g id="text_3">
      <!-- Deep QLearner -->
      <g transform="translate(257.203864 405.46625)rotate(-90)scale(0.08 -0.08)">
       <defs>
        <path id="DejaVuSans-44" d="M 1259 4147 
L 1259 519 
L 2022 519 
Q 2988 519 3436 956 
Q 3884 1394 3884 2338 
Q 3884 3275 3436 3711 
Q 2988 4147 2022 4147 
L 1259 4147 
z
M 628 4666 
L 1925 4666 
Q 3281 4666 3915 4102 
Q 4550 3538 4550 2338 
Q 4550 1131 3912 565 
Q 3275 0 1925 0 
L 628 0 
L 628 4666 
z
" transform="scale(0.015625)"/>
        <path id="DejaVuSans-70" d="M 1159 525 
L 1159 -1331 
L 581 -1331 
L 581 3500 
L 1159 3500 
L 1159 2969 
Q 1341 3281 1617 3432 
Q 1894 3584 2278 3584 
Q 2916 3584 3314 3078 
Q 3713 2572 3713 1747 
Q 3713 922 3314 415 
Q 2916 -91 2278 -91 
Q 1894 -91 1617 61 
Q 1341 213 1159 525 
z
M 3116 1747 
Q 3116 2381 2855 2742 
Q 2594 3103 2138 3103 
Q 1681 3103 1420 2742 
Q 1159 2381 1159 1747 
Q 1159 1113 1420 752 
Q 1681 391 2138 391 
Q 2594 391 2855 752 
Q 3116 1113 3116 1747 
z
" transform="scale(0.015625)"/>
        <path id="DejaVuSans-51" d="M 2522 4238 
Q 1834 4238 1429 3725 
Q 1025 3213 1025 2328 
Q 1025 1447 1429 934 
Q 1834 422 2522 422 
Q 3209 422 3611 934 
Q 4013 1447 4013 2328 
Q 4013 3213 3611 3725 
Q 3209 4238 2522 4238 
z
M 3406 84 
L 4238 -825 
L 3475 -825 
L 2784 -78 
Q 2681 -84 2626 -87 
Q 2572 -91 2522 -91 
Q 1538 -91 948 567 
Q 359 1225 359 2328 
Q 359 3434 948 4092 
Q 1538 4750 2522 4750 
Q 3503 4750 4090 4092 
Q 4678 3434 4678 2328 
Q 4678 1516 4351 937 
Q 4025 359 3406 84 
z
" transform="scale(0.015625)"/>
        <path id="DejaVuSans-4c" d="M 628 4666 
L 1259 4666 
L 1259 531 
L 3531 531 
L 3531 0 
L 628 0 
L 628 4666 
z
" transform="scale(0.015625)"/>
        <path id="DejaVuSans-6e" d="M 3513 2113 
L 3513 0 
L 2938 0 
L 2938 2094 
Q 2938 2591 2744 2837 
Q 2550 3084 2163 3084 
Q 1697 3084 1428 2787 
Q 1159 2491 1159 1978 
L 1159 0 
L 581 0 
L 581 3500 
L 1159 3500 
L 1159 2956 
Q 1366 3272 1645 3428 
Q 1925 3584 2291 3584 
Q 2894 3584 3203 3211 
Q 3513 2838 3513 2113 
z
" transform="scale(0.015625)"/>
       </defs>
       <use xlink:href="#DejaVuSans-44"/>
       <use xlink:href="#DejaVuSans-65" x="77.001953"/>
       <use xlink:href="#DejaVuSans-65" x="138.525391"/>
       <use xlink:href="#DejaVuSans-70" x="200.048828"/>
       <use xlink:href="#DejaVuSans-20" x="263.525391"/>
       <use xlink:href="#DejaVuSans-51" x="295.3125"/>
       <use xlink:href="#DejaVuSans-4c" x="374.023438"/>
       <use xlink:href="#DejaVuSans-65" x="427.986328"/>
       <use xlink:href="#DejaVuSans-61" x="489.509766"/>
       <use xlink:href="#DejaVuSans-72" x="550.789062"/>
       <use xlink:href="#DejaVuSans-6e" x="590.152344"/>
       <use xlink:href="#DejaVuSans-65" x="653.53125"/>
       <use xlink:href="#DejaVuSans-72" x="715.054688"/>
      </g>
     </g>
    </g>
    <g id="xtick_4">
     <g id="line2d_4">
      <g>
       <use xlink:href="#mc402c75202" x="329.771818" y="337.97" style="stroke: #000000; stroke-width: 0.8"/>
      </g>
     </g>
     <g id="text_4">
      <!-- Adaptive -->
      <g transform="translate(331.979318 380.37875)rotate(-90)scale(0.08 -0.08)">
       <defs>
        <path id="DejaVuSans-41" d="M 2188 4044 
L 1331 1722 
L 3047 1722 
L 2188 4044 
z
M 1831 4666 
L 2547 4666 
L 4325 0 
L 3669 0 
L 3244 1197 
L 1141 1197 
L 716 0 
L 50 0 
L 1831 4666 
z
" transform="scale(0.015625)"/>
        <path id="DejaVuSans-76" d="M 191 3500 
L 800 3500 
L 1894 563 
L 2988 3500 
L 3597 3500 
L 2284 0 
L 1503 0 
L 191 3500 
z
" transform="scale(0.015625)"/>
       </defs>
       <use xlink:href="#DejaVuSans-41"/>
       <use xlink:href="#DejaVuSans-64" x="66.658203"/>
       <use xlink:href="#DejaVuSans-61" x="130.134766"/>
       <use xlink:href="#DejaVuSans-70" x="191.414062"/>
       <use xlink:href="#DejaVuSans-74" x="254.890625"/>
       <use xlink:href="#DejaVuSans-69" x="294.099609"/>
       <use xlink:href="#DejaVuSans-76" x="321.882812"/>
       <use xlink:href="#DejaVuSans-65" x="381.0625"/>
      </g>
     </g>
    </g>
    <g id="xtick_5">
     <g id="line2d_5">
      <g>
       <use xlink:href="#mc402c75202" x="404.547273" y="337.97" style="stroke: #000000; stroke-width: 0.8"/>
      </g>
     </g>
     <g id="text_5">
      <!-- Alternator -->
      <g transform="translate(406.754773 385.165)rotate(-90)scale(0.08 -0.08)">
       <defs>
        <path id="DejaVuSans-6c" d="M 603 4863 
L 1178 4863 
L 1178 0 
L 603 0 
L 603 4863 
z
" transform="scale(0.015625)"/>
       </defs>
       <use xlink:href="#DejaVuSans-41"/>
       <use xlink:href="#DejaVuSans-6c" x="68.408203"/>
       <use xlink:href="#DejaVuSans-74" x="96.191406"/>
       <use xlink:href="#DejaVuSans-65" x="135.400391"/>
       <use xlink:href="#DejaVuSans-72" x="196.923828"/>
       <use xlink:href="#DejaVuSans-6e" x="236.287109"/>
       <use xlink:href="#DejaVuSans-61" x="299.666016"/>
       <use xlink:href="#DejaVuSans-74" x="360.945312"/>
       <use xlink:href="#DejaVuSans-6f" x="400.154297"/>
       <use xlink:href="#DejaVuSans-72" x="461.335938"/>
      </g>
     </g>
    </g>
    <g id="xtick_6">
     <g id="line2d_6">
      <g>
       <use xlink:href="#mc402c75202" x="479.322727" y="337.97" style="stroke: #000000; stroke-width: 0.8"/>
      </g>
     </g>
     <g id="text_6">
      <!-- Random: 0.5 -->
      <g transform="translate(481.530227 396.0475)rotate(-90)scale(0.08 -0.08)">
       <defs>
        <path id="DejaVuSans-52" d="M 2841 2188 
Q 3044 2119 3236 1894 
Q 3428 1669 3622 1275 
L 4263 0 
L 3584 0 
L 2988 1197 
Q 2756 1666 2539 1819 
Q 2322 1972 1947 1972 
L 1259 1972 
L 1259 0 
L 628 0 
L 628 4666 
L 2053 4666 
Q 2853 4666 3247 4331 
Q 3641 3997 3641 3322 
Q 3641 2881 3436 2590 
Q 3231 2300 2841 2188 
z
M 1259 4147 
L 1259 2491 
L 2053 2491 
Q 2509 2491 2742 2702 
Q 2975 2913 2975 3322 
Q 2975 3731 2742 3939 
Q 2509 4147 2053 4147 
L 1259 4147 
z
" transform="scale(0.015625)"/>
        <path id="DejaVuSans-6d" d="M 3328 2828 
Q 3544 3216 3844 3400 
Q 4144 3584 4550 3584 
Q 5097 3584 5394 3201 
Q 5691 2819 5691 2113 
L 5691 0 
L 5113 0 
L 5113 2094 
Q 5113 2597 4934 2840 
Q 4756 3084 4391 3084 
Q 3944 3084 3684 2787 
Q 3425 2491 3425 1978 
L 3425 0 
L 2847 0 
L 2847 2094 
Q 2847 2600 2669 2842 
Q 2491 3084 2119 3084 
Q 1678 3084 1418 2786 
Q 1159 2488 1159 1978 
L 1159 0 
L 581 0 
L 581 3500 
L 1159 3500 
L 1159 2956 
Q 1356 3278 1631 3431 
Q 1906 3584 2284 3584 
Q 2666 3584 2933 3390 
Q 3200 3197 3328 2828 
z
" transform="scale(0.015625)"/>
        <path id="DejaVuSans-3a" d="M 750 794 
L 1409 794 
L 1409 0 
L 750 0 
L 750 794 
z
M 750 3309 
L 1409 3309 
L 1409 2516 
L 750 2516 
L 750 3309 
z
" transform="scale(0.015625)"/>
        <path id="DejaVuSans-30" d="M 2034 4250 
Q 1547 4250 1301 3770 
Q 1056 3291 1056 2328 
Q 1056 1369 1301 889 
Q 1547 409 2034 409 
Q 2525 409 2770 889 
Q 3016 1369 3016 2328 
Q 3016 3291 2770 3770 
Q 2525 4250 2034 4250 
z
M 2034 4750 
Q 2819 4750 3233 4129 
Q 3647 3509 3647 2328 
Q 3647 1150 3233 529 
Q 2819 -91 2034 -91 
Q 1250 -91 836 529 
Q 422 1150 422 2328 
Q 422 3509 836 4129 
Q 1250 4750 2034 4750 
z
" transform="scale(0.015625)"/>
        <path id="DejaVuSans-2e" d="M 684 794 
L 1344 794 
L 1344 0 
L 684 0 
L 684 794 
z
" transform="scale(0.015625)"/>
        <path id="DejaVuSans-35" d="M 691 4666 
L 3169 4666 
L 3169 4134 
L 1269 4134 
L 1269 2991 
Q 1406 3038 1543 3061 
Q 1681 3084 1819 3084 
Q 2600 3084 3056 2656 
Q 3513 2228 3513 1497 
Q 3513 744 3044 326 
Q 2575 -91 1722 -91 
Q 1428 -91 1123 -41 
Q 819 9 494 109 
L 494 744 
Q 775 591 1075 516 
Q 1375 441 1709 441 
Q 2250 441 2565 725 
Q 2881 1009 2881 1497 
Q 2881 1984 2565 2268 
Q 2250 2553 1709 2553 
Q 1456 2553 1204 2497 
Q 953 2441 691 2322 
L 691 4666 
z
" transform="scale(0.015625)"/>
       </defs>
       <use xlink:href="#DejaVuSans-52"/>
       <use xlink:href="#DejaVuSans-61" x="67.232422"/>
       <use xlink:href="#DejaVuSans-6e" x="128.511719"/>
       <use xlink:href="#DejaVuSans-64" x="191.890625"/>
       <use xlink:href="#DejaVuSans-6f" x="255.367188"/>
       <use xlink:href="#DejaVuSans-6d" x="316.548828"/>
       <use xlink:href="#DejaVuSans-3a" x="413.960938"/>
       <use xlink:href="#DejaVuSans-20" x="447.652344"/>
       <use xlink:href="#DejaVuSans-30" x="479.439453"/>
       <use xlink:href="#DejaVuSans-2e" x="543.0625"/>
       <use xlink:href="#DejaVuSans-35" x="574.849609"/>
      </g>
     </g>
    </g>
    <g id="xtick_7">
     <g id="line2d_7">
      <g>
       <use xlink:href="#mc402c75202" x="554.098182" y="337.97" style="stroke: #000000; stroke-width: 0.8"/>
      </g>
     </g>
     <g id="text_7">
      <!-- Defector -->
      <g transform="translate(556.305682 379.51)rotate(-90)scale(0.08 -0.08)">
       <defs>
        <path id="DejaVuSans-66" d="M 2375 4863 
L 2375 4384 
L 1825 4384 
Q 1516 4384 1395 4259 
Q 1275 4134 1275 3809 
L 1275 3500 
L 2222 3500 
L 2222 3053 
L 1275 3053 
L 1275 0 
L 697 0 
L 697 3053 
L 147 3053 
L 147 3500 
L 697 3500 
L 697 3744 
Q 697 4328 969 4595 
Q 1241 4863 1831 4863 
L 2375 4863 
z
" transform="scale(0.015625)"/>
        <path id="DejaVuSans-63" d="M 3122 3366 
L 3122 2828 
Q 2878 2963 2633 3030 
Q 2388 3097 2138 3097 
Q 1578 3097 1268 2742 
Q 959 2388 959 1747 
Q 959 1106 1268 751 
Q 1578 397 2138 397 
Q 2388 397 2633 464 
Q 2878 531 3122 666 
L 3122 134 
Q 2881 22 2623 -34 
Q 2366 -91 2075 -91 
Q 1284 -91 818 406 
Q 353 903 353 1747 
Q 353 2603 823 3093 
Q 1294 3584 2113 3584 
Q 2378 3584 2631 3529 
Q 2884 3475 3122 3366 
z
" transform="scale(0.015625)"/>
       </defs>
       <use xlink:href="#DejaVuSans-44"/>
       <use xlink:href="#DejaVuSans-65" x="77.001953"/>
       <use xlink:href="#DejaVuSans-66" x="138.525391"/>
       <use xlink:href="#DejaVuSans-65" x="173.730469"/>
       <use xlink:href="#DejaVuSans-63" x="235.253906"/>
       <use xlink:href="#DejaVuSans-74" x="290.234375"/>
       <use xlink:href="#DejaVuSans-6f" x="329.443359"/>
       <use xlink:href="#DejaVuSans-72" x="390.625"/>
      </g>
     </g>
    </g>
    <g id="xtick_8">
     <g id="line2d_8">
      <g>
       <use xlink:href="#mc402c75202" x="628.873636" y="337.97" style="stroke: #000000; stroke-width: 0.8"/>
      </g>
     </g>
     <g id="text_8">
      <!-- Mediocre QLearner -->
      <g transform="translate(631.081136 420.83375)rotate(-90)scale(0.08 -0.08)">
       <defs>
        <path id="DejaVuSans-4d" d="M 628 4666 
L 1569 4666 
L 2759 1491 
L 3956 4666 
L 4897 4666 
L 4897 0 
L 4281 0 
L 4281 4097 
L 3078 897 
L 2444 897 
L 1241 4097 
L 1241 0 
L 628 0 
L 628 4666 
z
" transform="scale(0.015625)"/>
       </defs>
       <use xlink:href="#DejaVuSans-4d"/>
       <use xlink:href="#DejaVuSans-65" x="86.279297"/>
       <use xlink:href="#DejaVuSans-64" x="147.802734"/>
       <use xlink:href="#DejaVuSans-69" x="211.279297"/>
       <use xlink:href="#DejaVuSans-6f" x="239.0625"/>
       <use xlink:href="#DejaVuSans-63" x="300.244141"/>
       <use xlink:href="#DejaVuSans-72" x="355.224609"/>
       <use xlink:href="#DejaVuSans-65" x="394.087891"/>
       <use xlink:href="#DejaVuSans-20" x="455.611328"/>
       <use xlink:href="#DejaVuSans-51" x="487.398438"/>
       <use xlink:href="#DejaVuSans-4c" x="566.109375"/>
       <use xlink:href="#DejaVuSans-65" x="620.072266"/>
       <use xlink:href="#DejaVuSans-61" x="681.595703"/>
       <use xlink:href="#DejaVuSans-72" x="742.875"/>
       <use xlink:href="#DejaVuSans-6e" x="782.238281"/>
       <use xlink:href="#DejaVuSans-65" x="845.617188"/>
       <use xlink:href="#DejaVuSans-72" x="907.140625"/>
      </g>
     </g>
    </g>
    <g id="xtick_9">
     <g id="line2d_9">
      <g>
       <use xlink:href="#mc402c75202" x="703.649091" y="337.97" style="stroke: #000000; stroke-width: 0.8"/>
      </g>
     </g>
     <g id="text_9">
      <!-- Risky QLearner -->
      <g transform="translate(705.856591 405.40875)rotate(-90)scale(0.08 -0.08)">
       <defs>
        <path id="DejaVuSans-73" d="M 2834 3397 
L 2834 2853 
Q 2591 2978 2328 3040 
Q 2066 3103 1784 3103 
Q 1356 3103 1142 2972 
Q 928 2841 928 2578 
Q 928 2378 1081 2264 
Q 1234 2150 1697 2047 
L 1894 2003 
Q 2506 1872 2764 1633 
Q 3022 1394 3022 966 
Q 3022 478 2636 193 
Q 2250 -91 1575 -91 
Q 1294 -91 989 -36 
Q 684 19 347 128 
L 347 722 
Q 666 556 975 473 
Q 1284 391 1588 391 
Q 1994 391 2212 530 
Q 2431 669 2431 922 
Q 2431 1156 2273 1281 
Q 2116 1406 1581 1522 
L 1381 1569 
Q 847 1681 609 1914 
Q 372 2147 372 2553 
Q 372 3047 722 3315 
Q 1072 3584 1716 3584 
Q 2034 3584 2315 3537 
Q 2597 3491 2834 3397 
z
" transform="scale(0.015625)"/>
        <path id="DejaVuSans-6b" d="M 581 4863 
L 1159 4863 
L 1159 1991 
L 2875 3500 
L 3609 3500 
L 1753 1863 
L 3688 0 
L 2938 0 
L 1159 1709 
L 1159 0 
L 581 0 
L 581 4863 
z
" transform="scale(0.015625)"/>
        <path id="DejaVuSans-79" d="M 2059 -325 
Q 1816 -950 1584 -1140 
Q 1353 -1331 966 -1331 
L 506 -1331 
L 506 -850 
L 844 -850 
Q 1081 -850 1212 -737 
Q 1344 -625 1503 -206 
L 1606 56 
L 191 3500 
L 800 3500 
L 1894 763 
L 2988 3500 
L 3597 3500 
L 2059 -325 
z
" transform="scale(0.015625)"/>
       </defs>
       <use xlink:href="#DejaVuSans-52"/>
       <use xlink:href="#DejaVuSans-69" x="69.482422"/>
       <use xlink:href="#DejaVuSans-73" x="97.265625"/>
       <use xlink:href="#DejaVuSans-6b" x="149.365234"/>
       <use xlink:href="#DejaVuSans-79" x="203.650391"/>
       <use xlink:href="#DejaVuSans-20" x="262.830078"/>
       <use xlink:href="#DejaVuSans-51" x="294.617188"/>
       <use xlink:href="#DejaVuSans-4c" x="373.328125"/>
       <use xlink:href="#DejaVuSans-65" x="427.291016"/>
       <use xlink:href="#DejaVuSans-61" x="488.814453"/>
       <use xlink:href="#DejaVuSans-72" x="550.09375"/>
       <use xlink:href="#DejaVuSans-6e" x="589.457031"/>
       <use xlink:href="#DejaVuSans-65" x="652.835938"/>
       <use xlink:href="#DejaVuSans-72" x="714.359375"/>
      </g>
     </g>
    </g>
    <g id="xtick_10">
     <g id="line2d_10">
      <g>
       <use xlink:href="#mc402c75202" x="778.424545" y="337.97" style="stroke: #000000; stroke-width: 0.8"/>
      </g>
     </g>
     <g id="text_10">
      <!-- Cooperator -->
      <g transform="translate(780.632045 389.85875)rotate(-90)scale(0.08 -0.08)">
       <defs>
        <path id="DejaVuSans-43" d="M 4122 4306 
L 4122 3641 
Q 3803 3938 3442 4084 
Q 3081 4231 2675 4231 
Q 1875 4231 1450 3742 
Q 1025 3253 1025 2328 
Q 1025 1406 1450 917 
Q 1875 428 2675 428 
Q 3081 428 3442 575 
Q 3803 722 4122 1019 
L 4122 359 
Q 3791 134 3420 21 
Q 3050 -91 2638 -91 
Q 1578 -91 968 557 
Q 359 1206 359 2328 
Q 359 3453 968 4101 
Q 1578 4750 2638 4750 
Q 3056 4750 3426 4639 
Q 3797 4528 4122 4306 
z
" transform="scale(0.015625)"/>
       </defs>
       <use xlink:href="#DejaVuSans-43"/>
       <use xlink:href="#DejaVuSans-6f" x="69.824219"/>
       <use xlink:href="#DejaVuSans-6f" x="131.005859"/>
       <use xlink:href="#DejaVuSans-70" x="192.1875"/>
       <use xlink:href="#DejaVuSans-65" x="255.664062"/>
       <use xlink:href="#DejaVuSans-72" x="317.1875"/>
       <use xlink:href="#DejaVuSans-61" x="358.300781"/>
       <use xlink:href="#DejaVuSans-74" x="419.580078"/>
       <use xlink:href="#DejaVuSans-6f" x="458.789062"/>
       <use xlink:href="#DejaVuSans-72" x="519.970703"/>
      </g>
     </g>
    </g>
   </g>
   <g id="matplotlib.axis_2">
    <g id="ytick_1">
     <g id="line2d_11">
      <defs>
       <path id="m9a592f9653" d="M 0 0 
L -3.5 0 
" style="stroke: #000000; stroke-width: 0.8"/>
      </defs>
      <g>
       <use xlink:href="#m9a592f9653" x="30.67" y="324.179701" style="stroke: #000000; stroke-width: 0.8"/>
      </g>
     </g>
     <g id="text_11">
      <!-- 1.6 -->
      <g transform="translate(10.9475 327.219076)scale(0.08 -0.08)">
       <defs>
        <path id="DejaVuSans-31" d="M 794 531 
L 1825 531 
L 1825 4091 
L 703 3866 
L 703 4441 
L 1819 4666 
L 2450 4666 
L 2450 531 
L 3481 531 
L 3481 0 
L 794 0 
L 794 531 
z
" transform="scale(0.015625)"/>
        <path id="DejaVuSans-36" d="M 2113 2584 
Q 1688 2584 1439 2293 
Q 1191 2003 1191 1497 
Q 1191 994 1439 701 
Q 1688 409 2113 409 
Q 2538 409 2786 701 
Q 3034 994 3034 1497 
Q 3034 2003 2786 2293 
Q 2538 2584 2113 2584 
z
M 3366 4563 
L 3366 3988 
Q 3128 4100 2886 4159 
Q 2644 4219 2406 4219 
Q 1781 4219 1451 3797 
Q 1122 3375 1075 2522 
Q 1259 2794 1537 2939 
Q 1816 3084 2150 3084 
Q 2853 3084 3261 2657 
Q 3669 2231 3669 1497 
Q 3669 778 3244 343 
Q 2819 -91 2113 -91 
Q 1303 -91 875 529 
Q 447 1150 447 2328 
Q 447 3434 972 4092 
Q 1497 4750 2381 4750 
Q 2619 4750 2861 4703 
Q 3103 4656 3366 4563 
z
" transform="scale(0.015625)"/>
       </defs>
       <use xlink:href="#DejaVuSans-31"/>
       <use xlink:href="#DejaVuSans-2e" x="63.623047"/>
       <use xlink:href="#DejaVuSans-36" x="95.410156"/>
      </g>
     </g>
    </g>
    <g id="ytick_2">
     <g id="line2d_12">
      <g>
       <use xlink:href="#m9a592f9653" x="30.67" y="282.161017" style="stroke: #000000; stroke-width: 0.8"/>
      </g>
     </g>
     <g id="text_12">
      <!-- 1.8 -->
      <g transform="translate(10.9475 285.200392)scale(0.08 -0.08)">
       <defs>
        <path id="DejaVuSans-38" d="M 2034 2216 
Q 1584 2216 1326 1975 
Q 1069 1734 1069 1313 
Q 1069 891 1326 650 
Q 1584 409 2034 409 
Q 2484 409 2743 651 
Q 3003 894 3003 1313 
Q 3003 1734 2745 1975 
Q 2488 2216 2034 2216 
z
M 1403 2484 
Q 997 2584 770 2862 
Q 544 3141 544 3541 
Q 544 4100 942 4425 
Q 1341 4750 2034 4750 
Q 2731 4750 3128 4425 
Q 3525 4100 3525 3541 
Q 3525 3141 3298 2862 
Q 3072 2584 2669 2484 
Q 3125 2378 3379 2068 
Q 3634 1759 3634 1313 
Q 3634 634 3220 271 
Q 2806 -91 2034 -91 
Q 1263 -91 848 271 
Q 434 634 434 1313 
Q 434 1759 690 2068 
Q 947 2378 1403 2484 
z
M 1172 3481 
Q 1172 3119 1398 2916 
Q 1625 2713 2034 2713 
Q 2441 2713 2670 2916 
Q 2900 3119 2900 3481 
Q 2900 3844 2670 4047 
Q 2441 4250 2034 4250 
Q 1625 4250 1398 4047 
Q 1172 3844 1172 3481 
z
" transform="scale(0.015625)"/>
       </defs>
       <use xlink:href="#DejaVuSans-31"/>
       <use xlink:href="#DejaVuSans-2e" x="63.623047"/>
       <use xlink:href="#DejaVuSans-38" x="95.410156"/>
      </g>
     </g>
    </g>
    <g id="ytick_3">
     <g id="line2d_13">
      <g>
       <use xlink:href="#m9a592f9653" x="30.67" y="240.142332" style="stroke: #000000; stroke-width: 0.8"/>
      </g>
     </g>
     <g id="text_13">
      <!-- 2.0 -->
      <g transform="translate(10.9475 243.181707)scale(0.08 -0.08)">
       <defs>
        <path id="DejaVuSans-32" d="M 1228 531 
L 3431 531 
L 3431 0 
L 469 0 
L 469 531 
Q 828 903 1448 1529 
Q 2069 2156 2228 2338 
Q 2531 2678 2651 2914 
Q 2772 3150 2772 3378 
Q 2772 3750 2511 3984 
Q 2250 4219 1831 4219 
Q 1534 4219 1204 4116 
Q 875 4013 500 3803 
L 500 4441 
Q 881 4594 1212 4672 
Q 1544 4750 1819 4750 
Q 2544 4750 2975 4387 
Q 3406 4025 3406 3419 
Q 3406 3131 3298 2873 
Q 3191 2616 2906 2266 
Q 2828 2175 2409 1742 
Q 1991 1309 1228 531 
z
" transform="scale(0.015625)"/>
       </defs>
       <use xlink:href="#DejaVuSans-32"/>
       <use xlink:href="#DejaVuSans-2e" x="63.623047"/>
       <use xlink:href="#DejaVuSans-30" x="95.410156"/>
      </g>
     </g>
    </g>
    <g id="ytick_4">
     <g id="line2d_14">
      <g>
       <use xlink:href="#m9a592f9653" x="30.67" y="198.123647" style="stroke: #000000; stroke-width: 0.8"/>
      </g>
     </g>
     <g id="text_14">
      <!-- 2.2 -->
      <g transform="translate(10.9475 201.163022)scale(0.08 -0.08)">
       <use xlink:href="#DejaVuSans-32"/>
       <use xlink:href="#DejaVuSans-2e" x="63.623047"/>
       <use xlink:href="#DejaVuSans-32" x="95.410156"/>
      </g>
     </g>
    </g>
    <g id="ytick_5">
     <g id="line2d_15">
      <g>
       <use xlink:href="#m9a592f9653" x="30.67" y="156.104963" style="stroke: #000000; stroke-width: 0.8"/>
      </g>
     </g>
     <g id="text_15">
      <!-- 2.4 -->
      <g transform="translate(10.9475 159.144338)scale(0.08 -0.08)">
       <defs>
        <path id="DejaVuSans-34" d="M 2419 4116 
L 825 1625 
L 2419 1625 
L 2419 4116 
z
M 2253 4666 
L 3047 4666 
L 3047 1625 
L 3713 1625 
L 3713 1100 
L 3047 1100 
L 3047 0 
L 2419 0 
L 2419 1100 
L 313 1100 
L 313 1709 
L 2253 4666 
z
" transform="scale(0.015625)"/>
       </defs>
       <use xlink:href="#DejaVuSans-32"/>
       <use xlink:href="#DejaVuSans-2e" x="63.623047"/>
       <use xlink:href="#DejaVuSans-34" x="95.410156"/>
      </g>
     </g>
    </g>
    <g id="ytick_6">
     <g id="line2d_16">
      <g>
       <use xlink:href="#m9a592f9653" x="30.67" y="114.086278" style="stroke: #000000; stroke-width: 0.8"/>
      </g>
     </g>
     <g id="text_16">
      <!-- 2.6 -->
      <g transform="translate(10.9475 117.125653)scale(0.08 -0.08)">
       <use xlink:href="#DejaVuSans-32"/>
       <use xlink:href="#DejaVuSans-2e" x="63.623047"/>
       <use xlink:href="#DejaVuSans-36" x="95.410156"/>
      </g>
     </g>
    </g>
    <g id="ytick_7">
     <g id="line2d_17">
      <g>
       <use xlink:href="#m9a592f9653" x="30.67" y="72.067594" style="stroke: #000000; stroke-width: 0.8"/>
      </g>
     </g>
     <g id="text_17">
      <!-- 2.8 -->
      <g transform="translate(10.9475 75.106969)scale(0.08 -0.08)">
       <use xlink:href="#DejaVuSans-32"/>
       <use xlink:href="#DejaVuSans-2e" x="63.623047"/>
       <use xlink:href="#DejaVuSans-38" x="95.410156"/>
      </g>
     </g>
    </g>
    <g id="ytick_8">
     <g id="line2d_18">
      <g>
       <use xlink:href="#m9a592f9653" x="30.67" y="30.048909" style="stroke: #000000; stroke-width: 0.8"/>
      </g>
     </g>
     <g id="text_18">
      <!-- 3.0 -->
      <g transform="translate(10.9475 33.088284)scale(0.08 -0.08)">
       <defs>
        <path id="DejaVuSans-33" d="M 2597 2516 
Q 3050 2419 3304 2112 
Q 3559 1806 3559 1356 
Q 3559 666 3084 287 
Q 2609 -91 1734 -91 
Q 1441 -91 1130 -33 
Q 819 25 488 141 
L 488 750 
Q 750 597 1062 519 
Q 1375 441 1716 441 
Q 2309 441 2620 675 
Q 2931 909 2931 1356 
Q 2931 1769 2642 2001 
Q 2353 2234 1838 2234 
L 1294 2234 
L 1294 2753 
L 1863 2753 
Q 2328 2753 2575 2939 
Q 2822 3125 2822 3475 
Q 2822 3834 2567 4026 
Q 2313 4219 1838 4219 
Q 1578 4219 1281 4162 
Q 984 4106 628 3988 
L 628 4550 
Q 988 4650 1302 4700 
Q 1616 4750 1894 4750 
Q 2613 4750 3031 4423 
Q 3450 4097 3450 3541 
Q 3450 3153 3228 2886 
Q 3006 2619 2597 2516 
z
" transform="scale(0.015625)"/>
       </defs>
       <use xlink:href="#DejaVuSans-33"/>
       <use xlink:href="#DejaVuSans-2e" x="63.623047"/>
       <use xlink:href="#DejaVuSans-30" x="95.410156"/>
      </g>
     </g>
    </g>
   </g>
   <g id="LineCollection_1">
    <path d="M 96.098523 118.87174 
L 114.792386 118.87174 
" clip-path="url(#paf0b66f53a)" style="fill: none; stroke: #1f77b4; stroke-width: 1.5"/>
    <path d="M 170.873977 127.625632 
L 189.567841 127.625632 
" clip-path="url(#paf0b66f53a)" style="fill: none; stroke: #1f77b4; stroke-width: 1.5"/>
    <path d="M 245.649432 159.139646 
L 264.343295 159.139646 
" clip-path="url(#paf0b66f53a)" style="fill: none; stroke: #1f77b4; stroke-width: 1.5"/>
    <path d="M 320.424886 201.800282 
L 339.11875 201.800282 
" clip-path="url(#paf0b66f53a)" style="fill: none; stroke: #1f77b4; stroke-width: 1.5"/>
    <path d="M 395.200341 205.418558 
L 413.894205 205.418558 
" clip-path="url(#paf0b66f53a)" style="fill: none; stroke: #1f77b4; stroke-width: 1.5"/>
    <path d="M 469.975795 215.222918 
L 488.669659 215.222918 
" clip-path="url(#paf0b66f53a)" style="fill: none; stroke: #1f77b4; stroke-width: 1.5"/>
    <path d="M 544.75125 220.300175 
L 563.445114 220.300175 
" clip-path="url(#paf0b66f53a)" style="fill: none; stroke: #1f77b4; stroke-width: 1.5"/>
    <path d="M 619.526705 258.23371 
L 638.220568 258.23371 
" clip-path="url(#paf0b66f53a)" style="fill: none; stroke: #1f77b4; stroke-width: 1.5"/>
    <path d="M 694.302159 259.225818 
L 712.996023 259.225818 
" clip-path="url(#paf0b66f53a)" style="fill: none; stroke: #1f77b4; stroke-width: 1.5"/>
    <path d="M 769.077614 311.048862 
L 787.771477 311.048862 
" clip-path="url(#paf0b66f53a)" style="fill: none; stroke: #1f77b4; stroke-width: 1.5"/>
   </g>
   <g id="patch_3">
    <path d="M 30.67 337.97 
L 30.67 26.88 
" style="fill: none; stroke: #000000; stroke-width: 0.8; stroke-linejoin: miter; stroke-linecap: square"/>
   </g>
   <g id="patch_4">
    <path d="M 853.2 337.97 
L 853.2 26.88 
" style="fill: none; stroke: #000000; stroke-width: 0.8; stroke-linejoin: miter; stroke-linecap: square"/>
   </g>
   <g id="patch_5">
    <path d="M 30.67 337.97 
L 853.2 337.97 
" style="fill: none; stroke: #000000; stroke-width: 0.8; stroke-linejoin: miter; stroke-linecap: square"/>
   </g>
   <g id="patch_6">
    <path d="M 30.67 26.88 
L 853.2 26.88 
" style="fill: none; stroke: #000000; stroke-width: 0.8; stroke-linejoin: miter; stroke-linecap: square"/>
   </g>
   <g id="text_19">
    <!-- Payoff - turns: 200, repetitions: 200, strategies: 10.  -->
    <g transform="translate(286.154375 20.88)scale(0.12 -0.12)">
     <defs>
      <path id="DejaVuSans-50" d="M 1259 4147 
L 1259 2394 
L 2053 2394 
Q 2494 2394 2734 2622 
Q 2975 2850 2975 3272 
Q 2975 3691 2734 3919 
Q 2494 4147 2053 4147 
L 1259 4147 
z
M 628 4666 
L 2053 4666 
Q 2838 4666 3239 4311 
Q 3641 3956 3641 3272 
Q 3641 2581 3239 2228 
Q 2838 1875 2053 1875 
L 1259 1875 
L 1259 0 
L 628 0 
L 628 4666 
z
" transform="scale(0.015625)"/>
      <path id="DejaVuSans-2d" d="M 313 2009 
L 1997 2009 
L 1997 1497 
L 313 1497 
L 313 2009 
z
" transform="scale(0.015625)"/>
      <path id="DejaVuSans-2c" d="M 750 794 
L 1409 794 
L 1409 256 
L 897 -744 
L 494 -744 
L 750 256 
L 750 794 
z
" transform="scale(0.015625)"/>
     </defs>
     <use xlink:href="#DejaVuSans-50"/>
     <use xlink:href="#DejaVuSans-61" x="55.802734"/>
     <use xlink:href="#DejaVuSans-79" x="117.082031"/>
     <use xlink:href="#DejaVuSans-6f" x="176.261719"/>
     <use xlink:href="#DejaVuSans-66" x="237.443359"/>
     <use xlink:href="#DejaVuSans-66" x="272.648438"/>
     <use xlink:href="#DejaVuSans-20" x="307.853516"/>
     <use xlink:href="#DejaVuSans-2d" x="339.640625"/>
     <use xlink:href="#DejaVuSans-20" x="375.724609"/>
     <use xlink:href="#DejaVuSans-74" x="407.511719"/>
     <use xlink:href="#DejaVuSans-75" x="446.720703"/>
     <use xlink:href="#DejaVuSans-72" x="510.099609"/>
     <use xlink:href="#DejaVuSans-6e" x="549.462891"/>
     <use xlink:href="#DejaVuSans-73" x="612.841797"/>
     <use xlink:href="#DejaVuSans-3a" x="664.941406"/>
     <use xlink:href="#DejaVuSans-20" x="698.632812"/>
     <use xlink:href="#DejaVuSans-32" x="730.419922"/>
     <use xlink:href="#DejaVuSans-30" x="794.042969"/>
     <use xlink:href="#DejaVuSans-30" x="857.666016"/>
     <use xlink:href="#DejaVuSans-2c" x="921.289062"/>
     <use xlink:href="#DejaVuSans-20" x="953.076172"/>
     <use xlink:href="#DejaVuSans-72" x="984.863281"/>
     <use xlink:href="#DejaVuSans-65" x="1023.726562"/>
     <use xlink:href="#DejaVuSans-70" x="1085.25"/>
     <use xlink:href="#DejaVuSans-65" x="1148.726562"/>
     <use xlink:href="#DejaVuSans-74" x="1210.25"/>
     <use xlink:href="#DejaVuSans-69" x="1249.458984"/>
     <use xlink:href="#DejaVuSans-74" x="1277.242188"/>
     <use xlink:href="#DejaVuSans-69" x="1316.451172"/>
     <use xlink:href="#DejaVuSans-6f" x="1344.234375"/>
     <use xlink:href="#DejaVuSans-6e" x="1405.416016"/>
     <use xlink:href="#DejaVuSans-73" x="1468.794922"/>
     <use xlink:href="#DejaVuSans-3a" x="1520.894531"/>
     <use xlink:href="#DejaVuSans-20" x="1554.585938"/>
     <use xlink:href="#DejaVuSans-32" x="1586.373047"/>
     <use xlink:href="#DejaVuSans-30" x="1649.996094"/>
     <use xlink:href="#DejaVuSans-30" x="1713.619141"/>
     <use xlink:href="#DejaVuSans-2c" x="1777.242188"/>
     <use xlink:href="#DejaVuSans-20" x="1809.029297"/>
     <use xlink:href="#DejaVuSans-73" x="1840.816406"/>
     <use xlink:href="#DejaVuSans-74" x="1892.916016"/>
     <use xlink:href="#DejaVuSans-72" x="1932.125"/>
     <use xlink:href="#DejaVuSans-61" x="1973.238281"/>
     <use xlink:href="#DejaVuSans-74" x="2034.517578"/>
     <use xlink:href="#DejaVuSans-65" x="2073.726562"/>
     <use xlink:href="#DejaVuSans-67" x="2135.25"/>
     <use xlink:href="#DejaVuSans-69" x="2198.726562"/>
     <use xlink:href="#DejaVuSans-65" x="2226.509766"/>
     <use xlink:href="#DejaVuSans-73" x="2288.033203"/>
     <use xlink:href="#DejaVuSans-3a" x="2340.132812"/>
     <use xlink:href="#DejaVuSans-20" x="2373.824219"/>
     <use xlink:href="#DejaVuSans-31" x="2405.611328"/>
     <use xlink:href="#DejaVuSans-30" x="2469.234375"/>
     <use xlink:href="#DejaVuSans-2e" x="2532.857422"/>
     <use xlink:href="#DejaVuSans-20" x="2564.644531"/>
    </g>
   </g>
  </g>
 </g>
 <defs>
  <clipPath id="paf0b66f53a">
   <rect x="30.67" y="26.88" width="822.53" height="311.09"/>
  </clipPath>
 </defs>
</svg>
