<?xml version="1.0" encoding="utf-8" standalone="no"?>
<!DOCTYPE svg PUBLIC "-//W3C//DTD SVG 1.1//EN"
  "http://www.w3.org/Graphics/SVG/1.1/DTD/svg11.dtd">
<svg xmlns:xlink="http://www.w3.org/1999/xlink" width="864pt" height="432pt" viewBox="0 0 864 432" xmlns="http://www.w3.org/2000/svg" version="1.1">
 <metadata>
  <rdf:RDF xmlns:dc="http://purl.org/dc/elements/1.1/" xmlns:cc="http://creativecommons.org/ns#" xmlns:rdf="http://www.w3.org/1999/02/22-rdf-syntax-ns#">
   <cc:Work>
    <dc:type rdf:resource="http://purl.org/dc/dcmitype/StillImage"/>
    <dc:date>2022-09-26T09:50:55.080200</dc:date>
    <dc:format>image/svg+xml</dc:format>
    <dc:creator>
     <cc:Agent>
      <dc:title>Matplotlib v3.5.1, https://matplotlib.org/</dc:title>
     </cc:Agent>
    </dc:creator>
   </cc:Work>
  </rdf:RDF>
 </metadata>
 <defs>
  <style type="text/css">*{stroke-linejoin: round; stroke-linecap: butt}</style>
 </defs>
 <g id="figure_1">
  <g id="patch_1">
   <path d="M 0 432 
L 864 432 
L 864 0 
L 0 0 
z
" style="fill: #ffffff"/>
  </g>
  <g id="axes_1">
   <g id="patch_2">
    <path d="M 29.68 337.97 
L 853.2 337.97 
L 853.2 26.88 
L 29.68 26.88 
z
" style="fill: #ffffff"/>
   </g>
   <g id="PolyCollection_1">
    <path d="M 123.088722 183.132023 
L 86.002187 183.132023 
L 85.829091 181.782252 
L 85.977634 180.432481 
L 86.42445 179.082711 
L 87.129036 177.73294 
L 88.038133 176.383169 
L 89.09117 175.033399 
L 90.226055 173.683628 
L 91.384579 172.333857 
L 92.516801 170.984087 
L 93.584009 169.634316 
L 94.560079 168.284545 
L 95.431307 166.934775 
L 96.194979 165.585004 
L 96.857078 164.235233 
L 97.429574 162.885463 
L 97.927703 161.535692 
L 98.367564 160.185921 
L 98.764248 158.836151 
L 99.130583 157.48638 
L 99.476484 156.13661 
L 99.808808 154.786839 
L 100.131586 153.437068 
L 100.446479 152.087298 
L 100.753333 150.737527 
L 101.050709 149.387756 
L 101.336344 148.037986 
L 101.607483 146.688215 
L 101.861082 145.338444 
L 102.093903 143.988674 
L 102.302503 142.638903 
L 102.483175 141.289132 
L 102.631861 139.939362 
L 102.744083 138.589591 
L 102.81493 137.23982 
L 102.839133 135.89005 
L 102.811269 134.540279 
L 102.726103 133.190508 
L 102.579084 131.840738 
L 102.366983 130.490967 
L 102.088612 129.141196 
L 101.745583 127.791426 
L 101.342991 126.441655 
L 100.889919 125.091884 
L 100.399652 123.742114 
L 99.889513 122.392343 
L 99.380246 121.042572 
L 98.894952 119.692802 
L 98.457643 118.343031 
L 98.091511 116.99326 
L 97.817115 115.64349 
L 97.650672 114.293719 
L 97.60266 112.943948 
L 97.676915 111.594178 
L 97.870328 110.244407 
L 98.17319 108.894636 
L 98.570122 107.544866 
L 99.041484 106.195095 
L 99.565085 104.845324 
L 100.117969 103.495554 
L 100.678111 102.145783 
L 101.225825 100.796012 
L 101.744799 99.446242 
L 102.222683 98.096471 
L 102.651246 96.7467 
L 103.026176 95.39693 
L 103.346576 94.047159 
L 103.614308 92.697388 
L 103.833241 91.347618 
L 104.008532 89.997847 
L 104.145965 88.648076 
L 104.251425 87.298306 
L 104.330479 85.948535 
L 104.388101 84.598764 
L 104.42849 83.248994 
L 104.454972 81.899223 
L 104.469955 80.549452 
L 104.474924 79.199682 
L 104.47044 77.849911 
L 104.456163 76.50014 
L 104.430877 75.15037 
L 104.392549 73.800599 
L 104.338422 72.450829 
L 104.265174 71.101058 
L 104.169166 69.751287 
L 104.046772 68.401517 
L 103.894815 67.051746 
L 103.711075 65.701975 
L 103.494833 64.352205 
L 103.247402 63.002434 
L 102.972547 61.652663 
L 102.676747 60.302893 
L 102.369191 58.953122 
L 102.061483 57.603351 
L 101.767025 56.253581 
L 101.500108 54.90381 
L 101.274799 53.554039 
L 101.103723 52.204269 
L 100.9969 50.854498 
L 100.96078 49.504727 
L 108.130129 49.504727 
L 108.130129 49.504727 
L 108.094009 50.854498 
L 107.987187 52.204269 
L 107.81611 53.554039 
L 107.590801 54.90381 
L 107.323885 56.253581 
L 107.029426 57.603351 
L 106.721718 58.953122 
L 106.414162 60.302893 
L 106.118362 61.652663 
L 105.843507 63.002434 
L 105.596076 64.352205 
L 105.379835 65.701975 
L 105.196094 67.051746 
L 105.044137 68.401517 
L 104.921743 69.751287 
L 104.825735 71.101058 
L 104.752488 72.450829 
L 104.69836 73.800599 
L 104.660032 75.15037 
L 104.634746 76.50014 
L 104.620469 77.849911 
L 104.615985 79.199682 
L 104.620954 80.549452 
L 104.635937 81.899223 
L 104.662419 83.248994 
L 104.702808 84.598764 
L 104.76043 85.948535 
L 104.839484 87.298306 
L 104.944944 88.648076 
L 105.082377 89.997847 
L 105.257668 91.347618 
L 105.476601 92.697388 
L 105.744333 94.047159 
L 106.064734 95.39693 
L 106.439663 96.7467 
L 106.868227 98.096471 
L 107.34611 99.446242 
L 107.865084 100.796012 
L 108.412799 102.145783 
L 108.97294 103.495554 
L 109.525824 104.845324 
L 110.049425 106.195095 
L 110.520788 107.544866 
L 110.917719 108.894636 
L 111.220581 110.244407 
L 111.413995 111.594178 
L 111.488249 112.943948 
L 111.440237 114.293719 
L 111.273794 115.64349 
L 110.999398 116.99326 
L 110.633266 118.343031 
L 110.195957 119.692802 
L 109.710663 121.042572 
L 109.201396 122.392343 
L 108.691257 123.742114 
L 108.20099 125.091884 
L 107.747918 126.441655 
L 107.345326 127.791426 
L 107.002297 129.141196 
L 106.723926 130.490967 
L 106.511825 131.840738 
L 106.364806 133.190508 
L 106.27964 134.540279 
L 106.251776 135.89005 
L 106.275979 137.23982 
L 106.346826 138.589591 
L 106.459048 139.939362 
L 106.607734 141.289132 
L 106.788406 142.638903 
L 106.997006 143.988674 
L 107.229827 145.338444 
L 107.483426 146.688215 
L 107.754565 148.037986 
L 108.0402 149.387756 
L 108.337576 150.737527 
L 108.64443 152.087298 
L 108.959324 153.437068 
L 109.282101 154.786839 
L 109.614425 156.13661 
L 109.960326 157.48638 
L 110.326661 158.836151 
L 110.723345 160.185921 
L 111.163206 161.535692 
L 111.661335 162.885463 
L 112.233831 164.235233 
L 112.89593 165.585004 
L 113.659602 166.934775 
L 114.53083 168.284545 
L 115.5069 169.634316 
L 116.574108 170.984087 
L 117.70633 172.333857 
L 118.864854 173.683628 
L 119.999739 175.033399 
L 121.052776 176.383169 
L 121.961873 177.73294 
L 122.666459 179.082711 
L 123.113275 180.432481 
L 123.261818 181.782252 
L 123.088722 183.132023 
z
" clip-path="url(#p5fa32ae934)" style="fill: #1f77b4; fill-opacity: 0.3"/>
   </g>
   <g id="PolyCollection_2">
    <path d="M 197.948119 253.127273 
L 160.873699 253.127273 
L 160.694545 251.698944 
L 160.756648 250.270615 
L 161.057505 248.842287 
L 161.585487 247.413958 
L 162.320576 245.985629 
L 163.235623 244.5573 
L 164.298012 243.128972 
L 165.471572 241.700643 
L 166.718603 240.272314 
L 168.001842 238.843985 
L 169.286232 237.415657 
L 170.540386 235.987328 
L 171.737658 234.558999 
L 172.856795 233.13067 
L 173.882173 231.702342 
L 174.803639 230.274013 
L 175.616036 228.845684 
L 176.318489 227.417355 
L 176.913521 225.989027 
L 177.406104 224.560698 
L 177.802703 223.132369 
L 178.11038 221.70404 
L 178.336004 220.275712 
L 178.485602 218.847383 
L 178.563863 217.419054 
L 178.573813 215.990725 
L 178.516651 214.562397 
L 178.39176 213.134068 
L 178.196872 211.705739 
L 177.928385 210.27741 
L 177.581829 208.849082 
L 177.152452 207.420753 
L 176.635911 205.992424 
L 176.029043 204.564096 
L 175.330664 203.135767 
L 174.542358 201.707438 
L 173.66918 200.279109 
L 172.720231 198.850781 
L 171.709013 197.422452 
L 170.653531 195.994123 
L 169.576069 194.565794 
L 168.502644 193.137466 
L 167.462111 191.709137 
L 166.484979 190.280808 
L 165.601974 188.852479 
L 164.842468 187.424151 
L 164.232859 185.995822 
L 163.795049 184.567493 
L 163.545137 183.139164 
L 163.492422 181.710836 
L 163.63883 180.282507 
L 163.97879 178.854178 
L 164.49958 177.425849 
L 165.182118 175.997521 
L 166.002109 174.569192 
L 166.931478 173.140863 
L 167.939943 171.712534 
L 168.996614 170.284206 
L 170.071501 168.855877 
L 171.136822 167.427548 
L 172.168028 165.999219 
L 173.144511 164.570891 
L 174.049961 163.142562 
L 174.872397 161.714233 
L 175.603905 160.285904 
L 176.240139 158.857576 
L 176.779657 157.429247 
L 177.223149 156.000918 
L 177.572644 154.57259 
L 177.830752 153.144261 
L 177.999982 151.715932 
L 178.082199 150.287603 
L 178.078233 148.859275 
L 177.987672 147.430946 
L 177.808842 146.002617 
L 177.538975 144.574288 
L 177.174561 143.14596 
L 176.71186 141.717631 
L 176.147549 140.289302 
L 175.47947 138.860973 
L 174.707425 137.432645 
L 173.833963 136.004316 
L 172.865102 134.575987 
L 171.810913 133.147658 
L 170.685906 131.71933 
L 169.509149 130.291001 
L 168.304103 128.862672 
L 167.098106 127.434343 
L 165.921552 126.006015 
L 164.806752 124.577686 
L 163.786556 123.149357 
L 162.892812 121.721028 
L 162.154753 120.2927 
L 161.597443 118.864371 
L 161.240378 117.436042 
L 161.096375 116.007713 
L 161.170813 114.579385 
L 161.46131 113.151056 
L 161.957845 111.722727 
L 196.863973 111.722727 
L 196.863973 111.722727 
L 197.360508 113.151056 
L 197.651005 114.579385 
L 197.725443 116.007713 
L 197.58144 117.436042 
L 197.224376 118.864371 
L 196.667065 120.2927 
L 195.929006 121.721028 
L 195.035262 123.149357 
L 194.015066 124.577686 
L 192.900266 126.006015 
L 191.723712 127.434343 
L 190.517716 128.862672 
L 189.312669 130.291001 
L 188.135913 131.71933 
L 187.010905 133.147658 
L 185.956716 134.575987 
L 184.987856 136.004316 
L 184.114394 137.432645 
L 183.342348 138.860973 
L 182.674269 140.289302 
L 182.109958 141.717631 
L 181.647257 143.14596 
L 181.282843 144.574288 
L 181.012976 146.002617 
L 180.834146 147.430946 
L 180.743585 148.859275 
L 180.739619 150.287603 
L 180.821836 151.715932 
L 180.991066 153.144261 
L 181.249174 154.57259 
L 181.59867 156.000918 
L 182.042161 157.429247 
L 182.581679 158.857576 
L 183.217913 160.285904 
L 183.949421 161.714233 
L 184.771857 163.142562 
L 185.677307 164.570891 
L 186.65379 165.999219 
L 187.684997 167.427548 
L 188.750317 168.855877 
L 189.825204 170.284206 
L 190.881875 171.712534 
L 191.89034 173.140863 
L 192.819709 174.569192 
L 193.639701 175.997521 
L 194.322238 177.425849 
L 194.843029 178.854178 
L 195.182988 180.282507 
L 195.329397 181.710836 
L 195.276682 183.139164 
L 195.026769 184.567493 
L 194.588959 185.995822 
L 193.97935 187.424151 
L 193.219844 188.852479 
L 192.33684 190.280808 
L 191.359707 191.709137 
L 190.319175 193.137466 
L 189.245749 194.565794 
L 188.168287 195.994123 
L 187.112805 197.422452 
L 186.101588 198.850781 
L 185.152638 200.279109 
L 184.279461 201.707438 
L 183.491154 203.135767 
L 182.792775 204.564096 
L 182.185907 205.992424 
L 181.669366 207.420753 
L 181.239989 208.849082 
L 180.893433 210.27741 
L 180.624946 211.705739 
L 180.430058 213.134068 
L 180.305167 214.562397 
L 180.248005 215.990725 
L 180.257955 217.419054 
L 180.336216 218.847383 
L 180.485814 220.275712 
L 180.711438 221.70404 
L 181.019115 223.132369 
L 181.415714 224.560698 
L 181.908298 225.989027 
L 182.503329 227.417355 
L 183.205782 228.845684 
L 184.018179 230.274013 
L 184.939645 231.702342 
L 185.965023 233.13067 
L 187.084161 234.558999 
L 188.281432 235.987328 
L 189.535586 237.415657 
L 190.819976 238.843985 
L 192.103215 240.272314 
L 193.350246 241.700643 
L 194.523806 243.128972 
L 195.586195 244.5573 
L 196.501242 245.985629 
L 197.236331 247.413958 
L 197.764313 248.842287 
L 198.06517 250.270615 
L 198.127273 251.698944 
L 197.948119 253.127273 
z
" clip-path="url(#p5fa32ae934)" style="fill: #1f77b4; fill-opacity: 0.3"/>
   </g>
   <g id="PolyCollection_3">
    <path d="M 262.943122 183.132023 
L 245.609606 183.132023 
L 245.652221 183.124881 
L 245.778815 183.117739 
L 245.985689 183.110598 
L 246.266878 183.103456 
L 246.614439 183.096315 
L 247.018821 183.089173 
L 247.4693 183.082031 
L 247.954451 183.07489 
L 248.462622 183.067748 
L 248.982394 183.060606 
L 249.502988 183.053465 
L 250.014611 183.046323 
L 250.508723 183.039181 
L 250.978223 183.03204 
L 251.41754 183.024898 
L 251.822649 183.017756 
L 252.191013 183.010615 
L 252.521462 183.003473 
L 252.814035 182.996331 
L 253.069785 182.98919 
L 253.290573 182.982048 
L 253.478861 182.974907 
L 253.637514 182.967765 
L 253.769626 182.960623 
L 253.878361 182.953482 
L 253.96683 182.94634 
L 254.037996 182.939198 
L 254.0946 182.932057 
L 254.139123 182.924915 
L 254.173756 182.917773 
L 254.200402 182.910632 
L 254.22068 182.90349 
L 254.235945 182.896348 
L 254.247314 182.889207 
L 254.255689 182.882065 
L 254.261794 182.874924 
L 254.266197 182.867782 
L 254.269339 182.86064 
L 254.271557 182.853499 
L 254.273107 182.846357 
L 254.274178 182.839215 
L 254.274911 182.832074 
L 254.275406 182.824932 
L 254.275736 182.81779 
L 254.275952 182.810649 
L 254.27609 182.803507 
L 254.276171 182.796365 
L 254.276212 182.789224 
L 254.276218 182.782082 
L 254.276189 182.774941 
L 254.276121 182.767799 
L 254.276 182.760657 
L 254.275803 182.753516 
L 254.275493 182.746374 
L 254.275019 182.739232 
L 254.274301 182.732091 
L 254.27323 182.724949 
L 254.271647 182.717807 
L 254.269332 182.710666 
L 254.265985 182.703524 
L 254.261194 182.696382 
L 254.254409 182.689241 
L 254.2449 182.682099 
L 254.231716 182.674958 
L 254.213628 182.667816 
L 254.189078 182.660674 
L 254.156112 182.653533 
L 254.11232 182.646391 
L 254.054777 182.639249 
L 253.979984 182.632108 
L 253.883835 182.624966 
L 253.761594 182.617824 
L 253.607908 182.610683 
L 253.416853 182.603541 
L 253.182035 182.596399 
L 252.896731 182.589258 
L 252.55411 182.582116 
L 252.147492 182.574975 
L 251.670688 182.567833 
L 251.118381 182.560691 
L 250.486552 182.55355 
L 249.772928 182.546408 
L 248.977426 182.539266 
L 248.10257 182.532125 
L 247.153839 182.524983 
L 246.139926 182.517841 
L 245.072862 182.5107 
L 243.967984 182.503558 
L 242.843732 182.496416 
L 241.721254 182.489275 
L 240.623828 182.482133 
L 239.576118 182.474992 
L 238.603283 182.46785 
L 237.729996 182.460708 
L 236.979418 182.453567 
L 236.372173 182.446425 
L 235.925417 182.439283 
L 235.652031 182.432142 
L 235.56 182.425 
L 272.992727 182.425 
L 272.992727 182.425 
L 272.900696 182.432142 
L 272.62731 182.439283 
L 272.180555 182.446425 
L 271.57331 182.453567 
L 270.822731 182.460708 
L 269.949445 182.46785 
L 268.976609 182.474992 
L 267.928899 182.482133 
L 266.831473 182.489275 
L 265.708995 182.496416 
L 264.584743 182.503558 
L 263.479865 182.5107 
L 262.412801 182.517841 
L 261.398888 182.524983 
L 260.450158 182.532125 
L 259.575301 182.539266 
L 258.779799 182.546408 
L 258.066175 182.55355 
L 257.434346 182.560691 
L 256.88204 182.567833 
L 256.405236 182.574975 
L 255.998618 182.582116 
L 255.655996 182.589258 
L 255.370693 182.596399 
L 255.135874 182.603541 
L 254.944819 182.610683 
L 254.791133 182.617824 
L 254.668892 182.624966 
L 254.572743 182.632108 
L 254.497951 182.639249 
L 254.440407 182.646391 
L 254.396615 182.653533 
L 254.363649 182.660674 
L 254.339099 182.667816 
L 254.321011 182.674958 
L 254.307827 182.682099 
L 254.298319 182.689241 
L 254.291533 182.696382 
L 254.286742 182.703524 
L 254.283395 182.710666 
L 254.281081 182.717807 
L 254.279497 182.724949 
L 254.278426 182.732091 
L 254.277708 182.739232 
L 254.277234 182.746374 
L 254.276925 182.753516 
L 254.276727 182.760657 
L 254.276606 182.767799 
L 254.276538 182.774941 
L 254.27651 182.782082 
L 254.276516 182.789224 
L 254.276556 182.796365 
L 254.276638 182.803507 
L 254.276775 182.810649 
L 254.276991 182.81779 
L 254.277321 182.824932 
L 254.277816 182.832074 
L 254.278549 182.839215 
L 254.27962 182.846357 
L 254.28117 182.853499 
L 254.283388 182.86064 
L 254.28653 182.867782 
L 254.290933 182.874924 
L 254.297038 182.882065 
L 254.305414 182.889207 
L 254.316782 182.896348 
L 254.332047 182.90349 
L 254.352325 182.910632 
L 254.378971 182.917773 
L 254.413605 182.924915 
L 254.458127 182.932057 
L 254.514732 182.939198 
L 254.585897 182.94634 
L 254.674367 182.953482 
L 254.783101 182.960623 
L 254.915213 182.967765 
L 255.073867 182.974907 
L 255.262154 182.982048 
L 255.482942 182.98919 
L 255.738692 182.996331 
L 256.031265 183.003473 
L 256.361715 183.010615 
L 256.730078 183.017756 
L 257.135187 183.024898 
L 257.574504 183.03204 
L 258.044004 183.039181 
L 258.538117 183.046323 
L 259.049739 183.053465 
L 259.570333 183.060606 
L 260.090105 183.067748 
L 260.598276 183.07489 
L 261.083427 183.082031 
L 261.533906 183.089173 
L 261.938288 183.096315 
L 262.285849 183.103456 
L 262.567039 183.110598 
L 262.773912 183.117739 
L 262.900506 183.124881 
L 262.943122 183.132023 
z
" clip-path="url(#p5fa32ae934)" style="fill: #1f77b4; fill-opacity: 0.3"/>
   </g>
   <g id="PolyCollection_4">
    <path d="M 337.851178 267.97475 
L 320.432458 267.97475 
L 319.050322 266.246472 
L 317.637918 264.518194 
L 316.23989 262.789917 
L 314.905955 261.061639 
L 313.688131 259.333361 
L 312.637447 257.605083 
L 311.80044 255.876806 
L 311.215748 254.148528 
L 310.91116 252.42025 
L 310.901428 250.691972 
L 311.187083 248.963694 
L 311.754387 247.235417 
L 312.576424 245.507139 
L 313.61521 243.778861 
L 314.824591 242.050583 
L 316.153613 240.322306 
L 317.550025 238.594028 
L 318.963576 236.86575 
L 320.348807 235.137472 
L 321.667143 233.409194 
L 322.888159 231.680917 
L 323.990005 229.952639 
L 324.95906 228.224361 
L 325.788953 226.496083 
L 326.479111 224.767806 
L 327.033056 223.039528 
L 327.456604 221.31125 
L 327.756168 219.582972 
L 327.937276 217.854694 
L 328.003433 216.126417 
L 327.955403 214.398139 
L 327.790966 212.669861 
L 327.505184 210.941583 
L 327.09118 209.213306 
L 326.541403 207.485028 
L 325.849307 205.75675 
L 325.011337 204.028472 
L 324.029034 202.300194 
L 322.911046 200.571917 
L 321.674786 198.843639 
L 320.347467 197.115361 
L 318.966259 195.387083 
L 317.577413 193.658806 
L 316.234262 191.930528 
L 314.994179 190.20225 
L 313.914719 188.473972 
L 313.04928 186.745694 
L 312.442766 185.017417 
L 312.127728 183.289139 
L 312.121458 181.560861 
L 312.424402 179.832583 
L 313.020085 178.104306 
L 313.876569 176.376028 
L 314.949253 174.64775 
L 316.18466 172.919472 
L 317.524758 171.191194 
L 318.91131 169.462917 
L 320.28978 167.734639 
L 321.612434 166.006361 
L 322.840397 164.278083 
L 323.944581 162.549806 
L 324.905553 160.821528 
L 325.712512 159.09325 
L 326.361642 157.364972 
L 326.854114 155.636694 
L 327.194025 153.908417 
L 327.386519 152.180139 
L 327.436269 150.451861 
L 327.346461 148.723583 
L 327.118339 146.995306 
L 326.751311 145.267028 
L 326.243604 143.53875 
L 325.593354 141.810472 
L 324.80004 140.082194 
L 323.866094 138.353917 
L 322.798527 136.625639 
L 321.610375 134.897361 
L 320.321775 133.169083 
L 318.960508 131.440806 
L 317.561857 129.712528 
L 316.167714 127.98425 
L 314.824924 126.255972 
L 313.58294 124.527694 
L 312.490971 122.799417 
L 311.594837 121.071139 
L 310.933833 119.342861 
L 310.537911 117.614583 
L 310.425455 115.886306 
L 310.601888 114.158028 
L 311.059268 112.42975 
L 311.776899 110.701472 
L 312.722905 108.973194 
L 313.856589 107.244917 
L 315.131349 105.516639 
L 316.497842 103.788361 
L 317.907113 102.060083 
L 319.313414 100.331806 
L 320.676498 98.603528 
L 321.963249 96.87525 
L 336.320388 96.87525 
L 336.320388 96.87525 
L 337.607138 98.603528 
L 338.970223 100.331806 
L 340.376524 102.060083 
L 341.785795 103.788361 
L 343.152287 105.516639 
L 344.427048 107.244917 
L 345.560732 108.973194 
L 346.506737 110.701472 
L 347.224368 112.42975 
L 347.681749 114.158028 
L 347.858182 115.886306 
L 347.745725 117.614583 
L 347.349804 119.342861 
L 346.6888 121.071139 
L 345.792665 122.799417 
L 344.700696 124.527694 
L 343.458713 126.255972 
L 342.115922 127.98425 
L 340.721779 129.712528 
L 339.323128 131.440806 
L 337.961861 133.169083 
L 336.673261 134.897361 
L 335.485109 136.625639 
L 334.417542 138.353917 
L 333.483597 140.082194 
L 332.690282 141.810472 
L 332.040033 143.53875 
L 331.532325 145.267028 
L 331.165298 146.995306 
L 330.937175 148.723583 
L 330.847368 150.451861 
L 330.897118 152.180139 
L 331.089611 153.908417 
L 331.429522 155.636694 
L 331.921994 157.364972 
L 332.571124 159.09325 
L 333.378083 160.821528 
L 334.339055 162.549806 
L 335.44324 164.278083 
L 336.671202 166.006361 
L 337.993856 167.734639 
L 339.372326 169.462917 
L 340.758878 171.191194 
L 342.098977 172.919472 
L 343.334383 174.64775 
L 344.407067 176.376028 
L 345.263551 178.104306 
L 345.859234 179.832583 
L 346.162178 181.560861 
L 346.155908 183.289139 
L 345.84087 185.017417 
L 345.234356 186.745694 
L 344.368917 188.473972 
L 343.289457 190.20225 
L 342.049375 191.930528 
L 340.706223 193.658806 
L 339.317377 195.387083 
L 337.93617 197.115361 
L 336.60885 198.843639 
L 335.37259 200.571917 
L 334.254602 202.300194 
L 333.272299 204.028472 
L 332.43433 205.75675 
L 331.742234 207.485028 
L 331.192456 209.213306 
L 330.778452 210.941583 
L 330.49267 212.669861 
L 330.328233 214.398139 
L 330.280203 216.126417 
L 330.34636 217.854694 
L 330.527468 219.582972 
L 330.827032 221.31125 
L 331.250581 223.039528 
L 331.804525 224.767806 
L 332.494683 226.496083 
L 333.324576 228.224361 
L 334.293632 229.952639 
L 335.395478 231.680917 
L 336.616493 233.409194 
L 337.934829 235.137472 
L 339.32006 236.86575 
L 340.733611 238.594028 
L 342.130024 240.322306 
L 343.459045 242.050583 
L 344.668426 243.778861 
L 345.707212 245.507139 
L 346.529249 247.235417 
L 347.096553 248.963694 
L 347.382208 250.691972 
L 347.372476 252.42025 
L 347.067888 254.148528 
L 346.483196 255.876806 
L 345.646189 257.605083 
L 344.595505 259.333361 
L 343.377681 261.061639 
L 342.043746 262.789917 
L 340.645718 264.518194 
L 339.233314 266.246472 
L 337.851178 267.97475 
z
" clip-path="url(#p5fa32ae934)" style="fill: #1f77b4; fill-opacity: 0.3"/>
   </g>
   <g id="PolyCollection_5">
    <path d="M 408.514653 318.880386 
L 399.499892 318.880386 
L 399.37962 316.11657 
L 399.419983 313.352754 
L 399.61678 310.588938 
L 399.949955 307.825122 
L 400.38693 305.061306 
L 400.887797 302.29749 
L 401.411206 299.533674 
L 401.919752 296.769857 
L 402.383892 294.006041 
L 402.783926 291.242225 
L 403.110059 288.478409 
L 403.360966 285.714593 
L 403.541522 282.950777 
L 403.66035 280.186961 
L 403.727702 277.423145 
L 403.753958 274.659329 
L 403.7488 271.895512 
L 403.720933 269.131696 
L 403.678161 266.36788 
L 403.62757 263.604064 
L 403.575656 260.840248 
L 403.528281 258.076432 
L 403.490468 255.312616 
L 403.466064 252.5488 
L 403.45739 249.784983 
L 403.464949 247.021167 
L 403.487251 244.257351 
L 403.520757 241.493535 
L 403.559854 238.729719 
L 403.59675 235.965903 
L 403.621167 233.202087 
L 403.619735 230.438271 
L 403.575135 227.674455 
L 403.46514 224.910638 
L 403.261939 222.146822 
L 402.932247 219.383006 
L 402.438788 216.61919 
L 401.743652 213.855374 
L 400.813705 211.091558 
L 399.627717 208.327742 
L 398.184207 205.563926 
L 396.508395 202.80011 
L 394.656284 200.036293 
L 392.714069 197.272477 
L 390.791791 194.508661 
L 389.011463 191.744845 
L 387.491334 188.981029 
L 386.329283 186.217213 
L 385.588825 183.453397 
L 385.290909 180.689581 
L 385.413306 177.925764 
L 385.897542 175.161948 
L 386.661454 172.398132 
L 387.614135 169.634316 
L 388.669754 166.8705 
L 389.757352 164.106684 
L 390.825172 161.342868 
L 391.839634 158.579052 
L 392.780449 155.815236 
L 393.634103 153.051419 
L 394.387975 150.287603 
L 395.026814 147.523787 
L 395.532445 144.759971 
L 395.886586 141.996155 
L 396.075911 139.232339 
L 396.097915 136.468523 
L 395.965964 133.704707 
L 395.712026 130.94089 
L 395.386031 128.177074 
L 395.051516 125.413258 
L 394.778034 122.649442 
L 394.631582 119.885626 
L 394.664902 117.12181 
L 394.90959 114.357994 
L 395.371656 111.594178 
L 396.031395 108.830362 
L 396.847468 106.066545 
L 397.764151 103.302729 
L 398.720093 100.538913 
L 399.656758 97.775097 
L 400.524996 95.011281 
L 401.288826 92.247465 
L 401.926246 89.483649 
L 402.427557 86.719833 
L 402.792119 83.956017 
L 403.024615 81.1922 
L 403.131804 78.428384 
L 403.120476 75.664568 
L 402.996953 72.900752 
L 402.768088 70.136936 
L 402.443359 67.37312 
L 402.037392 64.609304 
L 401.572048 61.845488 
L 401.077294 59.081671 
L 400.590228 56.317855 
L 400.152092 53.554039 
L 399.803602 50.790223 
L 399.579421 48.026407 
L 399.502948 45.262591 
L 408.511597 45.262591 
L 408.511597 45.262591 
L 408.435124 48.026407 
L 408.210944 50.790223 
L 407.862453 53.554039 
L 407.424318 56.317855 
L 406.937252 59.081671 
L 406.442498 61.845488 
L 405.977154 64.609304 
L 405.571186 67.37312 
L 405.246458 70.136936 
L 405.017592 72.900752 
L 404.89407 75.664568 
L 404.882742 78.428384 
L 404.98993 81.1922 
L 405.222426 83.956017 
L 405.586989 86.719833 
L 406.0883 89.483649 
L 406.725719 92.247465 
L 407.489549 95.011281 
L 408.357788 97.775097 
L 409.294453 100.538913 
L 410.250395 103.302729 
L 411.167077 106.066545 
L 411.98315 108.830362 
L 412.64289 111.594178 
L 413.104956 114.357994 
L 413.349644 117.12181 
L 413.382964 119.885626 
L 413.236512 122.649442 
L 412.963029 125.413258 
L 412.628515 128.177074 
L 412.302519 130.94089 
L 412.048581 133.704707 
L 411.916631 136.468523 
L 411.938635 139.232339 
L 412.127959 141.996155 
L 412.4821 144.759971 
L 412.987731 147.523787 
L 413.626571 150.287603 
L 414.380442 153.051419 
L 415.234096 155.815236 
L 416.174911 158.579052 
L 417.189373 161.342868 
L 418.257194 164.106684 
L 419.344792 166.8705 
L 420.40041 169.634316 
L 421.353092 172.398132 
L 422.117003 175.161948 
L 422.60124 177.925764 
L 422.723636 180.689581 
L 422.42572 183.453397 
L 421.685263 186.217213 
L 420.523211 188.981029 
L 419.003083 191.744845 
L 417.222754 194.508661 
L 415.300477 197.272477 
L 413.358261 200.036293 
L 411.50615 202.80011 
L 409.830338 205.563926 
L 408.386829 208.327742 
L 407.200841 211.091558 
L 406.270894 213.855374 
L 405.575758 216.61919 
L 405.082298 219.383006 
L 404.752606 222.146822 
L 404.549405 224.910638 
L 404.43941 227.674455 
L 404.39481 230.438271 
L 404.393379 233.202087 
L 404.417795 235.965903 
L 404.454692 238.729719 
L 404.493788 241.493535 
L 404.527295 244.257351 
L 404.549597 247.021167 
L 404.557155 249.784983 
L 404.548481 252.5488 
L 404.524078 255.312616 
L 404.486264 258.076432 
L 404.43889 260.840248 
L 404.386975 263.604064 
L 404.336385 266.36788 
L 404.293613 269.131696 
L 404.265746 271.895512 
L 404.260587 274.659329 
L 404.286844 277.423145 
L 404.354196 280.186961 
L 404.473023 282.950777 
L 404.653579 285.714593 
L 404.904486 288.478409 
L 405.230619 291.242225 
L 405.630654 294.006041 
L 406.094793 296.769857 
L 406.603339 299.533674 
L 407.126749 302.29749 
L 407.627615 305.061306 
L 408.06459 307.825122 
L 408.397765 310.588938 
L 408.594563 313.352754 
L 408.634926 316.11657 
L 408.514653 318.880386 
z
" clip-path="url(#p5fa32ae934)" style="fill: #1f77b4; fill-opacity: 0.3"/>
   </g>
   <g id="PolyCollection_6">
    <path d="M 497.014752 182.425 
L 460.730703 182.425 
L 460.285436 180.996671 
L 460.156364 179.568343 
L 460.333411 178.140014 
L 460.788118 176.711685 
L 461.477134 175.283356 
L 462.3471 173.855028 
L 463.34021 172.426699 
L 464.399704 170.99837 
L 465.474582 169.570041 
L 466.523056 168.141713 
L 467.514455 166.713384 
L 468.429592 165.285055 
L 469.259805 163.856726 
L 470.005045 162.428398 
L 470.671463 161.000069 
L 471.268903 159.57174 
L 471.808667 158.143411 
L 472.301767 156.715083 
L 472.757755 155.286754 
L 473.184125 153.858425 
L 473.586173 152.430096 
L 473.967179 151.001768 
L 474.328752 149.573439 
L 474.671211 148.14511 
L 474.993902 146.716781 
L 475.29541 145.288453 
L 475.573638 143.860124 
L 475.825797 142.431795 
L 476.048326 141.003466 
L 476.236811 139.575138 
L 476.385953 138.146809 
L 476.489625 136.71848 
L 476.541081 135.290152 
L 476.533322 133.861823 
L 476.459656 132.433494 
L 476.314418 131.005165 
L 476.093832 129.576837 
L 475.796944 128.148508 
L 475.426526 126.720179 
L 474.98983 125.29185 
L 474.499066 123.863522 
L 473.971473 122.435193 
L 473.42888 121.006864 
L 472.896718 119.578535 
L 472.402507 118.150207 
L 471.973926 116.721878 
L 471.636639 115.293549 
L 471.412132 113.86522 
L 471.315807 112.436892 
L 471.35558 111.008563 
L 471.531185 109.580234 
L 471.834253 108.151905 
L 472.249179 106.723577 
L 472.754643 105.295248 
L 473.325597 103.866919 
L 473.935448 102.43859 
L 474.558189 101.010262 
L 475.170241 99.581933 
L 475.751841 98.153604 
L 476.287885 96.725275 
L 476.768217 95.296947 
L 477.187442 93.868618 
L 477.544349 92.440289 
L 477.841111 91.011961 
L 478.082368 89.583632 
L 478.274326 88.155303 
L 478.42396 86.726974 
L 478.538351 85.298646 
L 478.624213 83.870317 
L 478.687565 82.441988 
L 478.733558 81.013659 
L 478.766403 79.585331 
L 478.789379 78.157002 
L 478.804876 76.728673 
L 478.814459 75.300344 
L 478.818926 73.872016 
L 478.818347 72.443687 
L 478.812077 71.015358 
L 478.798763 69.587029 
L 478.776335 68.158701 
L 478.742009 66.730372 
L 478.692336 65.302043 
L 478.623315 63.873714 
L 478.530593 62.445386 
L 478.409791 61.017057 
L 478.256945 59.588728 
L 478.069061 58.160399 
L 477.844736 56.732071 
L 477.584788 55.303742 
L 477.292792 53.875413 
L 476.975445 52.447084 
L 476.642638 51.018756 
L 476.307172 49.590427 
L 475.984096 48.162098 
L 475.689667 46.73377 
L 475.440042 45.305441 
L 475.249828 43.877112 
L 475.130676 42.448783 
L 475.090102 41.020455 
L 482.655352 41.020455 
L 482.655352 41.020455 
L 482.614779 42.448783 
L 482.495627 43.877112 
L 482.305413 45.305441 
L 482.055788 46.73377 
L 481.761359 48.162098 
L 481.438282 49.590427 
L 481.102817 51.018756 
L 480.770009 52.447084 
L 480.452663 53.875413 
L 480.160667 55.303742 
L 479.900718 56.732071 
L 479.676394 58.160399 
L 479.48851 59.588728 
L 479.335664 61.017057 
L 479.214861 62.445386 
L 479.122139 63.873714 
L 479.053118 65.302043 
L 479.003446 66.730372 
L 478.96912 68.158701 
L 478.946691 69.587029 
L 478.933378 71.015358 
L 478.927108 72.443687 
L 478.926528 73.872016 
L 478.930996 75.300344 
L 478.940579 76.728673 
L 478.956075 78.157002 
L 478.979051 79.585331 
L 479.011897 81.013659 
L 479.05789 82.441988 
L 479.121242 83.870317 
L 479.207104 85.298646 
L 479.321495 86.726974 
L 479.471128 88.155303 
L 479.663087 89.583632 
L 479.904343 91.011961 
L 480.201105 92.440289 
L 480.558013 93.868618 
L 480.977237 95.296947 
L 481.45757 96.725275 
L 481.993613 98.153604 
L 482.575214 99.581933 
L 483.187266 101.010262 
L 483.810007 102.43859 
L 484.419857 103.866919 
L 484.990811 105.295248 
L 485.496276 106.723577 
L 485.911201 108.151905 
L 486.214269 109.580234 
L 486.389874 111.008563 
L 486.429648 112.436892 
L 486.333322 113.86522 
L 486.108815 115.293549 
L 485.771529 116.721878 
L 485.342947 118.150207 
L 484.848737 119.578535 
L 484.316574 121.006864 
L 483.773981 122.435193 
L 483.246388 123.863522 
L 482.755625 125.29185 
L 482.318928 126.720179 
L 481.94851 128.148508 
L 481.651623 129.576837 
L 481.431037 131.005165 
L 481.285798 132.433494 
L 481.212132 133.861823 
L 481.204374 135.290152 
L 481.255829 136.71848 
L 481.359501 138.146809 
L 481.508643 139.575138 
L 481.697129 141.003466 
L 481.919658 142.431795 
L 482.171816 143.860124 
L 482.450045 145.288453 
L 482.751552 146.716781 
L 483.074244 148.14511 
L 483.416702 149.573439 
L 483.778275 151.001768 
L 484.159281 152.430096 
L 484.561329 153.858425 
L 484.987699 155.286754 
L 485.443687 156.715083 
L 485.936787 158.143411 
L 486.476552 159.57174 
L 487.073991 161.000069 
L 487.740409 162.428398 
L 488.48565 163.856726 
L 489.315862 165.285055 
L 490.230999 166.713384 
L 491.222398 168.141713 
L 492.270872 169.570041 
L 493.345751 170.99837 
L 494.405245 172.426699 
L 495.398355 173.855028 
L 496.26832 175.283356 
L 496.957336 176.711685 
L 497.412043 178.140014 
L 497.589091 179.568343 
L 497.460019 180.996671 
L 497.014752 182.425 
z
" clip-path="url(#p5fa32ae934)" style="fill: #1f77b4; fill-opacity: 0.3"/>
   </g>
   <g id="PolyCollection_7">
    <path d="M 553.754962 319.587409 
L 553.721402 319.587409 
L 553.721893 316.773601 
L 553.723374 313.959794 
L 553.725321 311.145986 
L 553.727065 308.332179 
L 553.72796 305.518371 
L 553.72751 302.704563 
L 553.725405 299.890756 
L 553.721425 297.076948 
L 553.715212 294.26314 
L 553.70589 291.449333 
L 553.691525 288.635525 
L 553.668362 285.821718 
L 553.629826 283.00791 
L 553.56542 280.194102 
L 553.46006 277.380295 
L 553.294883 274.566487 
L 553.050874 271.75268 
L 552.71598 268.938872 
L 552.294584 266.125064 
L 551.815688 263.311257 
L 551.334612 260.497449 
L 550.92425 257.683641 
L 550.656403 254.869834 
L 550.579402 252.056026 
L 550.701565 249.242219 
L 550.988208 246.428411 
L 551.373561 243.614603 
L 551.781841 240.800796 
L 552.148103 237.986988 
L 552.431184 235.17318 
L 552.616061 232.359373 
L 552.707929 229.545565 
L 552.722659 226.731758 
L 552.677627 223.91795 
L 552.58469 221.104142 
L 552.444878 218.290335 
L 552.243405 215.476527 
L 551.944103 212.662719 
L 551.484314 209.848912 
L 550.774031 207.035104 
L 549.705431 204.221297 
L 548.178873 201.407489 
L 546.146627 198.593681 
L 543.66539 195.779874 
L 540.936309 192.966066 
L 538.304778 190.152258 
L 536.200683 187.338451 
L 535.025163 184.524643 
L 535.021818 181.710836 
L 536.188373 178.897028 
L 538.273012 176.08322 
L 540.86027 173.269413 
L 543.507119 170.455605 
L 545.868123 167.641798 
L 547.761446 164.82799 
L 549.163454 162.014182 
L 550.154352 159.200375 
L 550.85179 156.386567 
L 551.361544 153.572759 
L 551.755652 150.758952 
L 552.072334 147.945144 
L 552.325766 145.131337 
L 552.51601 142.317529 
L 552.635158 139.503721 
L 552.670489 136.689914 
L 552.60746 133.876106 
L 552.43489 131.062298 
L 552.152785 128.248491 
L 551.780777 125.434683 
L 551.363189 122.620876 
L 550.966431 119.807068 
L 550.66673 116.99326 
L 550.530594 114.179453 
L 550.594859 111.365645 
L 550.854762 108.551837 
L 551.265558 105.73803 
L 551.757131 102.924222 
L 552.255125 100.110415 
L 552.699925 97.296607 
L 553.057083 94.482799 
L 553.317709 91.668992 
L 553.491691 88.855184 
L 553.598398 86.041376 
L 553.658681 83.227569 
L 553.689892 80.413761 
L 553.703806 77.599954 
L 553.706385 74.786146 
L 553.698298 71.972338 
L 553.675566 69.158531 
L 553.630319 66.344723 
L 553.552133 63.530916 
L 553.430647 60.717108 
L 553.259793 57.9033 
L 553.043004 55.089493 
L 552.797464 52.275685 
L 552.554686 49.461877 
L 552.355365 46.64807 
L 552.238839 43.834262 
L 552.23063 41.020455 
L 555.245733 41.020455 
L 555.245733 41.020455 
L 555.237524 43.834262 
L 555.120998 46.64807 
L 554.921678 49.461877 
L 554.6789 52.275685 
L 554.433359 55.089493 
L 554.21657 57.9033 
L 554.045717 60.717108 
L 553.924231 63.530916 
L 553.846045 66.344723 
L 553.800798 69.158531 
L 553.778066 71.972338 
L 553.769978 74.786146 
L 553.772557 77.599954 
L 553.786472 80.413761 
L 553.817683 83.227569 
L 553.877966 86.041376 
L 553.984673 88.855184 
L 554.158654 91.668992 
L 554.41928 94.482799 
L 554.776439 97.296607 
L 555.221239 100.110415 
L 555.719233 102.924222 
L 556.210805 105.73803 
L 556.621602 108.551837 
L 556.881505 111.365645 
L 556.94577 114.179453 
L 556.809633 116.99326 
L 556.509933 119.807068 
L 556.113175 122.620876 
L 555.695586 125.434683 
L 555.323578 128.248491 
L 555.041473 131.062298 
L 554.868903 133.876106 
L 554.805875 136.689914 
L 554.841206 139.503721 
L 554.960354 142.317529 
L 555.150598 145.131337 
L 555.40403 147.945144 
L 555.720712 150.758952 
L 556.114819 153.572759 
L 556.624574 156.386567 
L 557.322012 159.200375 
L 558.31291 162.014182 
L 559.714918 164.82799 
L 561.608241 167.641798 
L 563.969245 170.455605 
L 566.616093 173.269413 
L 569.203352 176.08322 
L 571.28799 178.897028 
L 572.454545 181.710836 
L 572.451201 184.524643 
L 571.275681 187.338451 
L 569.171585 190.152258 
L 566.540054 192.966066 
L 563.810974 195.779874 
L 561.329737 198.593681 
L 559.29749 201.407489 
L 557.770932 204.221297 
L 556.702333 207.035104 
L 555.99205 209.848912 
L 555.532261 212.662719 
L 555.232959 215.476527 
L 555.031486 218.290335 
L 554.891674 221.104142 
L 554.798736 223.91795 
L 554.753705 226.731758 
L 554.768435 229.545565 
L 554.860303 232.359373 
L 555.045179 235.17318 
L 555.328261 237.986988 
L 555.694522 240.800796 
L 556.102802 243.614603 
L 556.488156 246.428411 
L 556.774799 249.242219 
L 556.896962 252.056026 
L 556.819961 254.869834 
L 556.552114 257.683641 
L 556.141752 260.497449 
L 555.660675 263.311257 
L 555.181779 266.125064 
L 554.760384 268.938872 
L 554.42549 271.75268 
L 554.181481 274.566487 
L 554.016304 277.380295 
L 553.910943 280.194102 
L 553.846538 283.00791 
L 553.808001 285.821718 
L 553.784838 288.635525 
L 553.770474 291.449333 
L 553.761152 294.26314 
L 553.754939 297.076948 
L 553.750959 299.890756 
L 553.748854 302.704563 
L 553.748404 305.518371 
L 553.749298 308.332179 
L 553.751042 311.145986 
L 553.75299 313.959794 
L 553.754471 316.773601 
L 553.754962 319.587409 
z
" clip-path="url(#p5fa32ae934)" style="fill: #1f77b4; fill-opacity: 0.3"/>
   </g>
   <g id="PolyCollection_8">
    <path d="M 636.909737 323.829545 
L 620.297536 323.829545 
L 620.210482 322.401217 
L 620.228233 320.972888 
L 620.350098 319.544559 
L 620.571523 318.11623 
L 620.884367 316.687902 
L 621.277403 315.259573 
L 621.73698 313.831244 
L 622.247808 312.402916 
L 622.79379 310.974587 
L 623.358848 309.546258 
L 623.927678 308.117929 
L 624.486386 306.689601 
L 625.022974 305.261272 
L 625.527654 303.832943 
L 625.992991 302.404614 
L 626.413877 300.976286 
L 626.787373 299.547957 
L 627.112432 298.119628 
L 627.389553 296.691299 
L 627.620387 295.262971 
L 627.807341 293.834642 
L 627.953193 292.406313 
L 628.06075 290.977984 
L 628.132562 289.549656 
L 628.1707 288.121327 
L 628.17661 286.692998 
L 628.151038 285.264669 
L 628.094032 283.836341 
L 628.005006 282.408012 
L 627.882886 280.979683 
L 627.726294 279.551354 
L 627.533802 278.123026 
L 627.304211 276.694697 
L 627.03686 275.266368 
L 626.731944 273.838039 
L 626.390807 272.409711 
L 626.016206 270.981382 
L 625.612508 269.553053 
L 625.185797 268.124725 
L 624.74388 266.696396 
L 624.296162 265.268067 
L 623.853402 263.839738 
L 623.427341 262.41141 
L 623.03022 260.983081 
L 622.674218 259.554752 
L 622.370841 258.126423 
L 622.130314 256.698095 
L 621.961003 255.269766 
L 621.868937 253.841437 
L 621.857446 252.413108 
L 621.926965 250.98478 
L 622.075002 249.556451 
L 622.296284 248.128122 
L 622.583072 246.699793 
L 622.925604 245.271465 
L 623.312636 243.843136 
L 623.73205 242.414807 
L 624.171457 240.986478 
L 624.61877 239.55815 
L 625.062699 238.129821 
L 625.493146 236.701492 
L 625.901464 235.273163 
L 626.28059 233.844835 
L 626.625047 232.416506 
L 626.930823 230.988177 
L 627.195156 229.559848 
L 627.416234 228.13152 
L 627.592862 226.703191 
L 627.724094 225.274862 
L 627.808881 223.846534 
L 627.845744 222.418205 
L 627.83251 220.989876 
L 627.766116 219.561547 
L 627.642506 218.133219 
L 627.456635 216.70489 
L 627.202598 215.276561 
L 626.87387 213.848232 
L 626.463683 212.419904 
L 625.965517 210.991575 
L 625.373693 209.563246 
L 624.684055 208.134917 
L 623.894685 206.706589 
L 623.006627 205.27826 
L 622.024545 203.849931 
L 620.95728 202.421602 
L 619.818216 200.993274 
L 618.625421 199.564945 
L 617.4015 198.136616 
L 616.173143 196.708287 
L 614.970343 195.279959 
L 613.825317 193.85163 
L 612.771163 192.423301 
L 611.84033 190.994972 
L 611.063001 189.566644 
L 610.465489 188.138315 
L 610.068771 186.709986 
L 609.887273 185.281657 
L 609.928 183.853329 
L 610.190093 182.425 
L 647.017179 182.425 
L 647.017179 182.425 
L 647.279273 183.853329 
L 647.32 185.281657 
L 647.138502 186.709986 
L 646.741783 188.138315 
L 646.144271 189.566644 
L 645.366943 190.994972 
L 644.43611 192.423301 
L 643.381955 193.85163 
L 642.23693 195.279959 
L 641.03413 196.708287 
L 639.805773 198.136616 
L 638.581852 199.564945 
L 637.389056 200.993274 
L 636.249992 202.421602 
L 635.182727 203.849931 
L 634.200646 205.27826 
L 633.312587 206.706589 
L 632.523218 208.134917 
L 631.83358 209.563246 
L 631.241756 210.991575 
L 630.743589 212.419904 
L 630.333402 213.848232 
L 630.004675 215.276561 
L 629.750637 216.70489 
L 629.564767 218.133219 
L 629.441156 219.561547 
L 629.374762 220.989876 
L 629.361529 222.418205 
L 629.398392 223.846534 
L 629.483178 225.274862 
L 629.614411 226.703191 
L 629.791039 228.13152 
L 630.012117 229.559848 
L 630.276449 230.988177 
L 630.582226 232.416506 
L 630.926683 233.844835 
L 631.305809 235.273163 
L 631.714126 236.701492 
L 632.144573 238.129821 
L 632.588503 239.55815 
L 633.035816 240.986478 
L 633.475222 242.414807 
L 633.894637 243.843136 
L 634.281669 245.271465 
L 634.6242 246.699793 
L 634.910989 248.128122 
L 635.132271 249.556451 
L 635.280307 250.98478 
L 635.349826 252.413108 
L 635.338336 253.841437 
L 635.24627 255.269766 
L 635.076959 256.698095 
L 634.836431 258.126423 
L 634.533055 259.554752 
L 634.177053 260.983081 
L 633.779931 262.41141 
L 633.353871 263.839738 
L 632.911111 265.268067 
L 632.463393 266.696396 
L 632.021475 268.124725 
L 631.594765 269.553053 
L 631.191067 270.981382 
L 630.816466 272.409711 
L 630.475329 273.838039 
L 630.170412 275.266368 
L 629.903062 276.694697 
L 629.673471 278.123026 
L 629.480979 279.551354 
L 629.324387 280.979683 
L 629.202266 282.408012 
L 629.113241 283.836341 
L 629.056234 285.264669 
L 629.030663 286.692998 
L 629.036572 288.121327 
L 629.07471 289.549656 
L 629.146522 290.977984 
L 629.25408 292.406313 
L 629.399932 293.834642 
L 629.586886 295.262971 
L 629.81772 296.691299 
L 630.09484 298.119628 
L 630.419899 299.547957 
L 630.793395 300.976286 
L 631.214282 302.404614 
L 631.679619 303.832943 
L 632.184299 305.261272 
L 632.720887 306.689601 
L 633.279594 308.117929 
L 633.848424 309.546258 
L 634.413483 310.974587 
L 634.959465 312.402916 
L 635.470293 313.831244 
L 635.92987 315.259573 
L 636.322906 316.687902 
L 636.63575 318.11623 
L 636.857174 319.544559 
L 636.97904 320.972888 
L 636.996791 322.401217 
L 636.909737 323.829545 
z
" clip-path="url(#p5fa32ae934)" style="fill: #1f77b4; fill-opacity: 0.3"/>
   </g>
   <g id="PolyCollection_9">
    <path d="M 703.526196 292.720545 
L 703.411986 292.720545 
L 703.405376 291.477899 
L 703.400085 290.235253 
L 703.396437 288.992607 
L 703.394622 287.749961 
L 703.394683 286.507315 
L 703.396528 285.264669 
L 703.399959 284.022023 
L 703.4047 282.779377 
L 703.410421 281.536731 
L 703.416748 280.294085 
L 703.42327 279.051439 
L 703.429521 277.808793 
L 703.434964 276.566147 
L 703.438976 275.323501 
L 703.440802 274.080855 
L 703.439506 272.838209 
L 703.433864 271.595563 
L 703.422199 270.352917 
L 703.402144 269.110271 
L 703.370296 267.867625 
L 703.321794 266.624979 
L 703.249825 265.382333 
L 703.145134 264.139687 
L 702.995674 262.897041 
L 702.786603 261.654395 
L 702.500899 260.411749 
L 702.12089 259.169103 
L 701.630892 257.926457 
L 701.020932 256.683811 
L 700.291163 255.441165 
L 699.456113 254.198519 
L 698.547609 252.955873 
L 697.615091 251.713227 
L 696.722409 250.470581 
L 695.94094 249.227935 
L 695.339884 247.985289 
L 694.975568 246.742643 
L 694.882074 245.499997 
L 695.065394 244.257351 
L 695.502477 243.014705 
L 696.145293 241.772059 
L 696.928814 240.529413 
L 697.780956 239.286767 
L 698.632297 238.044121 
L 699.423791 236.801475 
L 700.111471 235.558829 
L 700.667989 234.316183 
L 701.081557 233.073537 
L 701.353191 231.830891 
L 701.493203 230.588245 
L 701.517712 229.345599 
L 701.44562 228.102953 
L 701.296235 226.860307 
L 701.087528 225.617661 
L 700.834925 224.375015 
L 700.550536 223.132369 
L 700.242773 221.889723 
L 699.916338 220.647077 
L 699.572578 219.404431 
L 699.210155 218.161785 
L 698.825954 216.919139 
L 698.416142 215.676493 
L 697.977322 214.433847 
L 697.507799 213.191201 
L 697.008992 211.948555 
L 696.486984 210.705909 
L 695.954072 209.463263 
L 695.429923 208.220617 
L 694.941824 206.977971 
L 694.523402 205.735325 
L 694.211395 204.492679 
L 694.040406 203.250033 
L 694.036075 202.007387 
L 694.20764 200.764741 
L 694.541227 199.522095 
L 694.995395 198.279449 
L 695.500362 197.036803 
L 695.962 195.794157 
L 696.271112 194.551511 
L 696.317684 193.308865 
L 696.008776 192.066219 
L 695.287501 190.823573 
L 694.149453 189.580927 
L 692.652393 188.338281 
L 690.915551 187.095635 
L 689.106752 185.852989 
L 687.418631 184.610343 
L 686.038447 183.367697 
L 685.118291 182.125051 
L 684.752727 180.882405 
L 684.968755 179.639759 
L 685.729289 178.397113 
L 686.947459 177.154467 
L 688.506527 175.911821 
L 690.279807 174.669175 
L 692.146521 173.426529 
L 694.001924 172.183883 
L 695.7622 170.941237 
L 697.365732 169.698591 
L 709.57245 169.698591 
L 709.57245 169.698591 
L 711.175982 170.941237 
L 712.936258 172.183883 
L 714.791661 173.426529 
L 716.658375 174.669175 
L 718.431654 175.911821 
L 719.990723 177.154467 
L 721.208893 178.397113 
L 721.969427 179.639759 
L 722.185455 180.882405 
L 721.819891 182.125051 
L 720.899735 183.367697 
L 719.519551 184.610343 
L 717.83143 185.852989 
L 716.02263 187.095635 
L 714.285788 188.338281 
L 712.788729 189.580927 
L 711.65068 190.823573 
L 710.929406 192.066219 
L 710.620498 193.308865 
L 710.66707 194.551511 
L 710.976181 195.794157 
L 711.43782 197.036803 
L 711.942786 198.279449 
L 712.396955 199.522095 
L 712.730542 200.764741 
L 712.902107 202.007387 
L 712.897776 203.250033 
L 712.726787 204.492679 
L 712.41478 205.735325 
L 711.996358 206.977971 
L 711.508259 208.220617 
L 710.98411 209.463263 
L 710.451197 210.705909 
L 709.92919 211.948555 
L 709.430382 213.191201 
L 708.96086 214.433847 
L 708.52204 215.676493 
L 708.112228 216.919139 
L 707.728027 218.161785 
L 707.365604 219.404431 
L 707.021844 220.647077 
L 706.695409 221.889723 
L 706.387646 223.132369 
L 706.103257 224.375015 
L 705.850654 225.617661 
L 705.641947 226.860307 
L 705.492562 228.102953 
L 705.42047 229.345599 
L 705.444979 230.588245 
L 705.584991 231.830891 
L 705.856624 233.073537 
L 706.270193 234.316183 
L 706.826711 235.558829 
L 707.514391 236.801475 
L 708.305885 238.044121 
L 709.157225 239.286767 
L 710.009368 240.529413 
L 710.792889 241.772059 
L 711.435705 243.014705 
L 711.872788 244.257351 
L 712.056108 245.499997 
L 711.962614 246.742643 
L 711.598298 247.985289 
L 710.997242 249.227935 
L 710.215773 250.470581 
L 709.323091 251.713227 
L 708.390573 252.955873 
L 707.482068 254.198519 
L 706.647019 255.441165 
L 705.91725 256.683811 
L 705.30729 257.926457 
L 704.817291 259.169103 
L 704.437283 260.411749 
L 704.151579 261.654395 
L 703.942508 262.897041 
L 703.793048 264.139687 
L 703.688356 265.382333 
L 703.616387 266.624979 
L 703.567886 267.867625 
L 703.536038 269.110271 
L 703.515983 270.352917 
L 703.504318 271.595563 
L 703.498676 272.838209 
L 703.49738 274.080855 
L 703.499206 275.323501 
L 703.503217 276.566147 
L 703.508661 277.808793 
L 703.514911 279.051439 
L 703.521433 280.294085 
L 703.527761 281.536731 
L 703.533481 282.779377 
L 703.538222 284.022023 
L 703.541654 285.264669 
L 703.543499 286.507315 
L 703.54356 287.749961 
L 703.541745 288.992607 
L 703.538097 290.235253 
L 703.532806 291.477899 
L 703.526196 292.720545 
z
" clip-path="url(#p5fa32ae934)" style="fill: #1f77b4; fill-opacity: 0.3"/>
   </g>
   <g id="PolyCollection_10">
    <path d="M 778.471949 270.095818 
L 778.197142 270.095818 
L 778.160361 269.081705 
L 778.114311 268.067591 
L 778.056434 267.053478 
L 777.983398 266.039365 
L 777.890922 265.025251 
L 777.773606 264.011138 
L 777.624822 262.997024 
L 777.436715 261.982911 
L 777.200405 260.968798 
L 776.906462 259.954684 
L 776.545733 258.940571 
L 776.110547 257.926457 
L 775.596241 256.912344 
L 775.002897 255.89823 
L 774.337024 254.884117 
L 773.612874 253.870004 
L 772.853037 252.85589 
L 772.088005 251.841777 
L 771.354513 250.827663 
L 770.692683 249.81355 
L 770.142235 248.799437 
L 769.738242 247.785323 
L 769.507061 246.77121 
L 769.463112 245.757096 
L 769.60704 244.742983 
L 769.925593 243.72887 
L 770.393228 242.714756 
L 770.975157 241.700643 
L 771.631316 240.686529 
L 772.320606 239.672416 
L 773.004785 238.658303 
L 773.651494 237.644189 
L 774.236136 236.630076 
L 774.742538 235.615962 
L 775.162526 234.601849 
L 775.494705 233.587736 
L 775.742764 232.573622 
L 775.913657 231.559509 
L 776.01593 230.545395 
L 776.058378 229.531282 
L 776.049126 228.517169 
L 775.995144 227.503055 
L 775.902131 226.488942 
L 775.77467 225.474828 
L 775.616531 224.460715 
L 775.431005 223.446601 
L 775.221173 222.432488 
L 774.990031 221.418375 
L 774.740467 220.404261 
L 774.475077 219.390148 
L 774.195901 218.376034 
L 773.904139 217.361921 
L 773.599961 216.347808 
L 773.282494 215.333694 
L 772.950064 214.319581 
L 772.600728 213.305467 
L 772.233081 212.291354 
L 771.847245 211.277241 
L 771.445926 210.263127 
L 771.035335 209.249014 
L 770.625794 208.2349 
L 770.231811 207.220787 
L 769.871515 206.206674 
L 769.565352 205.19256 
L 769.334104 204.178447 
L 769.196359 203.164333 
L 769.165682 202.15022 
L 769.247806 201.136107 
L 769.438195 200.121993 
L 769.720338 199.10788 
L 770.065099 198.093766 
L 770.431363 197.079653 
L 770.768146 196.065539 
L 771.018177 195.051426 
L 771.122862 194.037313 
L 771.028301 193.023199 
L 770.691857 192.009086 
L 770.088565 190.994972 
L 769.216485 189.980859 
L 768.100057 188.966746 
L 766.790637 187.952632 
L 765.363687 186.938519 
L 763.912614 185.924405 
L 762.539839 184.910292 
L 761.346283 183.896179 
L 760.420798 182.882065 
L 759.831195 181.867952 
L 759.618182 180.853838 
L 759.793006 179.839725 
L 760.338826 178.825612 
L 761.215171 177.811498 
L 762.364399 176.797385 
L 763.718864 175.783271 
L 765.2077 174.769158 
L 766.762437 173.755045 
L 768.32112 172.740931 
L 769.830938 171.726818 
L 771.249607 170.712704 
L 772.545817 169.698591 
L 784.123274 169.698591 
L 784.123274 169.698591 
L 785.419484 170.712704 
L 786.838153 171.726818 
L 788.347971 172.740931 
L 789.906654 173.755045 
L 791.461391 174.769158 
L 792.950227 175.783271 
L 794.304692 176.797385 
L 795.45392 177.811498 
L 796.330265 178.825612 
L 796.876085 179.839725 
L 797.050909 180.853838 
L 796.837896 181.867952 
L 796.248293 182.882065 
L 795.322808 183.896179 
L 794.129252 184.910292 
L 792.756477 185.924405 
L 791.305404 186.938519 
L 789.878454 187.952632 
L 788.569034 188.966746 
L 787.452606 189.980859 
L 786.580526 190.994972 
L 785.977234 192.009086 
L 785.64079 193.023199 
L 785.546229 194.037313 
L 785.650914 195.051426 
L 785.900945 196.065539 
L 786.237727 197.079653 
L 786.603992 198.093766 
L 786.948753 199.10788 
L 787.230896 200.121993 
L 787.421285 201.136107 
L 787.503409 202.15022 
L 787.472732 203.164333 
L 787.334987 204.178447 
L 787.103739 205.19256 
L 786.797576 206.206674 
L 786.43728 207.220787 
L 786.043297 208.2349 
L 785.633755 209.249014 
L 785.223165 210.263127 
L 784.821846 211.277241 
L 784.43601 212.291354 
L 784.068363 213.305467 
L 783.719027 214.319581 
L 783.386597 215.333694 
L 783.06913 216.347808 
L 782.764952 217.361921 
L 782.47319 218.376034 
L 782.194014 219.390148 
L 781.928624 220.404261 
L 781.67906 221.418375 
L 781.447918 222.432488 
L 781.238086 223.446601 
L 781.05256 224.460715 
L 780.894421 225.474828 
L 780.766959 226.488942 
L 780.673947 227.503055 
L 780.619965 228.517169 
L 780.610713 229.531282 
L 780.653161 230.545395 
L 780.755434 231.559509 
L 780.926327 232.573622 
L 781.174386 233.587736 
L 781.506565 234.601849 
L 781.926553 235.615962 
L 782.432955 236.630076 
L 783.017597 237.644189 
L 783.664306 238.658303 
L 784.348485 239.672416 
L 785.037775 240.686529 
L 785.693934 241.700643 
L 786.275863 242.714756 
L 786.743498 243.72887 
L 787.062051 244.742983 
L 787.205979 245.757096 
L 787.16203 246.77121 
L 786.930849 247.785323 
L 786.526856 248.799437 
L 785.976408 249.81355 
L 785.314578 250.827663 
L 784.581085 251.841777 
L 783.816054 252.85589 
L 783.056217 253.870004 
L 782.332067 254.884117 
L 781.666194 255.89823 
L 781.07285 256.912344 
L 780.558544 257.926457 
L 780.123357 258.940571 
L 779.762629 259.954684 
L 779.468686 260.968798 
L 779.232375 261.982911 
L 779.044269 262.997024 
L 778.895485 264.011138 
L 778.778169 265.025251 
L 778.685693 266.039365 
L 778.612657 267.053478 
L 778.55478 268.067591 
L 778.50873 269.081705 
L 778.471949 270.095818 
z
" clip-path="url(#p5fa32ae934)" style="fill: #1f77b4; fill-opacity: 0.3"/>
   </g>
   <g id="matplotlib.axis_1">
    <g id="xtick_1">
     <g id="line2d_1">
      <defs>
       <path id="m713be46669" d="M 0 0 
L 0 3.5 
" style="stroke: #000000; stroke-width: 0.8"/>
      </defs>
      <g>
       <use xlink:href="#m713be46669" x="104.545455" y="337.97" style="stroke: #000000; stroke-width: 0.8"/>
      </g>
     </g>
     <g id="text_1">
      <!-- Grudger -->
      <g transform="translate(106.752955 377.89625)rotate(-90)scale(0.08 -0.08)">
       <defs>
        <path id="DejaVuSans-47" d="M 3809 666 
L 3809 1919 
L 2778 1919 
L 2778 2438 
L 4434 2438 
L 4434 434 
Q 4069 175 3628 42 
Q 3188 -91 2688 -91 
Q 1594 -91 976 548 
Q 359 1188 359 2328 
Q 359 3472 976 4111 
Q 1594 4750 2688 4750 
Q 3144 4750 3555 4637 
Q 3966 4525 4313 4306 
L 4313 3634 
Q 3963 3931 3569 4081 
Q 3175 4231 2741 4231 
Q 1884 4231 1454 3753 
Q 1025 3275 1025 2328 
Q 1025 1384 1454 906 
Q 1884 428 2741 428 
Q 3075 428 3337 486 
Q 3600 544 3809 666 
z
" transform="scale(0.015625)"/>
        <path id="DejaVuSans-72" d="M 2631 2963 
Q 2534 3019 2420 3045 
Q 2306 3072 2169 3072 
Q 1681 3072 1420 2755 
Q 1159 2438 1159 1844 
L 1159 0 
L 581 0 
L 581 3500 
L 1159 3500 
L 1159 2956 
Q 1341 3275 1631 3429 
Q 1922 3584 2338 3584 
Q 2397 3584 2469 3576 
Q 2541 3569 2628 3553 
L 2631 2963 
z
" transform="scale(0.015625)"/>
        <path id="DejaVuSans-75" d="M 544 1381 
L 544 3500 
L 1119 3500 
L 1119 1403 
Q 1119 906 1312 657 
Q 1506 409 1894 409 
Q 2359 409 2629 706 
Q 2900 1003 2900 1516 
L 2900 3500 
L 3475 3500 
L 3475 0 
L 2900 0 
L 2900 538 
Q 2691 219 2414 64 
Q 2138 -91 1772 -91 
Q 1169 -91 856 284 
Q 544 659 544 1381 
z
M 1991 3584 
L 1991 3584 
z
" transform="scale(0.015625)"/>
        <path id="DejaVuSans-64" d="M 2906 2969 
L 2906 4863 
L 3481 4863 
L 3481 0 
L 2906 0 
L 2906 525 
Q 2725 213 2448 61 
Q 2172 -91 1784 -91 
Q 1150 -91 751 415 
Q 353 922 353 1747 
Q 353 2572 751 3078 
Q 1150 3584 1784 3584 
Q 2172 3584 2448 3432 
Q 2725 3281 2906 2969 
z
M 947 1747 
Q 947 1113 1208 752 
Q 1469 391 1925 391 
Q 2381 391 2643 752 
Q 2906 1113 2906 1747 
Q 2906 2381 2643 2742 
Q 2381 3103 1925 3103 
Q 1469 3103 1208 2742 
Q 947 2381 947 1747 
z
" transform="scale(0.015625)"/>
        <path id="DejaVuSans-67" d="M 2906 1791 
Q 2906 2416 2648 2759 
Q 2391 3103 1925 3103 
Q 1463 3103 1205 2759 
Q 947 2416 947 1791 
Q 947 1169 1205 825 
Q 1463 481 1925 481 
Q 2391 481 2648 825 
Q 2906 1169 2906 1791 
z
M 3481 434 
Q 3481 -459 3084 -895 
Q 2688 -1331 1869 -1331 
Q 1566 -1331 1297 -1286 
Q 1028 -1241 775 -1147 
L 775 -588 
Q 1028 -725 1275 -790 
Q 1522 -856 1778 -856 
Q 2344 -856 2625 -561 
Q 2906 -266 2906 331 
L 2906 616 
Q 2728 306 2450 153 
Q 2172 0 1784 0 
Q 1141 0 747 490 
Q 353 981 353 1791 
Q 353 2603 747 3093 
Q 1141 3584 1784 3584 
Q 2172 3584 2450 3431 
Q 2728 3278 2906 2969 
L 2906 3500 
L 3481 3500 
L 3481 434 
z
" transform="scale(0.015625)"/>
        <path id="DejaVuSans-65" d="M 3597 1894 
L 3597 1613 
L 953 1613 
Q 991 1019 1311 708 
Q 1631 397 2203 397 
Q 2534 397 2845 478 
Q 3156 559 3463 722 
L 3463 178 
Q 3153 47 2828 -22 
Q 2503 -91 2169 -91 
Q 1331 -91 842 396 
Q 353 884 353 1716 
Q 353 2575 817 3079 
Q 1281 3584 2069 3584 
Q 2775 3584 3186 3129 
Q 3597 2675 3597 1894 
z
M 3022 2063 
Q 3016 2534 2758 2815 
Q 2500 3097 2075 3097 
Q 1594 3097 1305 2825 
Q 1016 2553 972 2059 
L 3022 2063 
z
" transform="scale(0.015625)"/>
       </defs>
       <use xlink:href="#DejaVuSans-47"/>
       <use xlink:href="#DejaVuSans-72" x="77.490234"/>
       <use xlink:href="#DejaVuSans-75" x="118.603516"/>
       <use xlink:href="#DejaVuSans-64" x="181.982422"/>
       <use xlink:href="#DejaVuSans-67" x="245.458984"/>
       <use xlink:href="#DejaVuSans-65" x="308.935547"/>
       <use xlink:href="#DejaVuSans-72" x="370.458984"/>
      </g>
     </g>
    </g>
    <g id="xtick_2">
     <g id="line2d_2">
      <g>
       <use xlink:href="#m713be46669" x="179.410909" y="337.97" style="stroke: #000000; stroke-width: 0.8"/>
      </g>
     </g>
     <g id="text_2">
      <!-- Alternator -->
      <g transform="translate(181.618409 385.165)rotate(-90)scale(0.08 -0.08)">
       <defs>
        <path id="DejaVuSans-41" d="M 2188 4044 
L 1331 1722 
L 3047 1722 
L 2188 4044 
z
M 1831 4666 
L 2547 4666 
L 4325 0 
L 3669 0 
L 3244 1197 
L 1141 1197 
L 716 0 
L 50 0 
L 1831 4666 
z
" transform="scale(0.015625)"/>
        <path id="DejaVuSans-6c" d="M 603 4863 
L 1178 4863 
L 1178 0 
L 603 0 
L 603 4863 
z
" transform="scale(0.015625)"/>
        <path id="DejaVuSans-74" d="M 1172 4494 
L 1172 3500 
L 2356 3500 
L 2356 3053 
L 1172 3053 
L 1172 1153 
Q 1172 725 1289 603 
Q 1406 481 1766 481 
L 2356 481 
L 2356 0 
L 1766 0 
Q 1100 0 847 248 
Q 594 497 594 1153 
L 594 3053 
L 172 3053 
L 172 3500 
L 594 3500 
L 594 4494 
L 1172 4494 
z
" transform="scale(0.015625)"/>
        <path id="DejaVuSans-6e" d="M 3513 2113 
L 3513 0 
L 2938 0 
L 2938 2094 
Q 2938 2591 2744 2837 
Q 2550 3084 2163 3084 
Q 1697 3084 1428 2787 
Q 1159 2491 1159 1978 
L 1159 0 
L 581 0 
L 581 3500 
L 1159 3500 
L 1159 2956 
Q 1366 3272 1645 3428 
Q 1925 3584 2291 3584 
Q 2894 3584 3203 3211 
Q 3513 2838 3513 2113 
z
" transform="scale(0.015625)"/>
        <path id="DejaVuSans-61" d="M 2194 1759 
Q 1497 1759 1228 1600 
Q 959 1441 959 1056 
Q 959 750 1161 570 
Q 1363 391 1709 391 
Q 2188 391 2477 730 
Q 2766 1069 2766 1631 
L 2766 1759 
L 2194 1759 
z
M 3341 1997 
L 3341 0 
L 2766 0 
L 2766 531 
Q 2569 213 2275 61 
Q 1981 -91 1556 -91 
Q 1019 -91 701 211 
Q 384 513 384 1019 
Q 384 1609 779 1909 
Q 1175 2209 1959 2209 
L 2766 2209 
L 2766 2266 
Q 2766 2663 2505 2880 
Q 2244 3097 1772 3097 
Q 1472 3097 1187 3025 
Q 903 2953 641 2809 
L 641 3341 
Q 956 3463 1253 3523 
Q 1550 3584 1831 3584 
Q 2591 3584 2966 3190 
Q 3341 2797 3341 1997 
z
" transform="scale(0.015625)"/>
        <path id="DejaVuSans-6f" d="M 1959 3097 
Q 1497 3097 1228 2736 
Q 959 2375 959 1747 
Q 959 1119 1226 758 
Q 1494 397 1959 397 
Q 2419 397 2687 759 
Q 2956 1122 2956 1747 
Q 2956 2369 2687 2733 
Q 2419 3097 1959 3097 
z
M 1959 3584 
Q 2709 3584 3137 3096 
Q 3566 2609 3566 1747 
Q 3566 888 3137 398 
Q 2709 -91 1959 -91 
Q 1206 -91 779 398 
Q 353 888 353 1747 
Q 353 2609 779 3096 
Q 1206 3584 1959 3584 
z
" transform="scale(0.015625)"/>
       </defs>
       <use xlink:href="#DejaVuSans-41"/>
       <use xlink:href="#DejaVuSans-6c" x="68.408203"/>
       <use xlink:href="#DejaVuSans-74" x="96.191406"/>
       <use xlink:href="#DejaVuSans-65" x="135.400391"/>
       <use xlink:href="#DejaVuSans-72" x="196.923828"/>
       <use xlink:href="#DejaVuSans-6e" x="236.287109"/>
       <use xlink:href="#DejaVuSans-61" x="299.666016"/>
       <use xlink:href="#DejaVuSans-74" x="360.945312"/>
       <use xlink:href="#DejaVuSans-6f" x="400.154297"/>
       <use xlink:href="#DejaVuSans-72" x="461.335938"/>
      </g>
     </g>
    </g>
    <g id="xtick_3">
     <g id="line2d_3">
      <g>
       <use xlink:href="#m713be46669" x="254.276364" y="337.97" style="stroke: #000000; stroke-width: 0.8"/>
      </g>
     </g>
     <g id="text_3">
      <!-- Tit For Tat -->
      <g transform="translate(256.483864 384.15)rotate(-90)scale(0.08 -0.08)">
       <defs>
        <path id="DejaVuSans-54" d="M -19 4666 
L 3928 4666 
L 3928 4134 
L 2272 4134 
L 2272 0 
L 1638 0 
L 1638 4134 
L -19 4134 
L -19 4666 
z
" transform="scale(0.015625)"/>
        <path id="DejaVuSans-69" d="M 603 3500 
L 1178 3500 
L 1178 0 
L 603 0 
L 603 3500 
z
M 603 4863 
L 1178 4863 
L 1178 4134 
L 603 4134 
L 603 4863 
z
" transform="scale(0.015625)"/>
        <path id="DejaVuSans-20" transform="scale(0.015625)"/>
        <path id="DejaVuSans-46" d="M 628 4666 
L 3309 4666 
L 3309 4134 
L 1259 4134 
L 1259 2759 
L 3109 2759 
L 3109 2228 
L 1259 2228 
L 1259 0 
L 628 0 
L 628 4666 
z
" transform="scale(0.015625)"/>
       </defs>
       <use xlink:href="#DejaVuSans-54"/>
       <use xlink:href="#DejaVuSans-69" x="57.958984"/>
       <use xlink:href="#DejaVuSans-74" x="85.742188"/>
       <use xlink:href="#DejaVuSans-20" x="124.951172"/>
       <use xlink:href="#DejaVuSans-46" x="156.738281"/>
       <use xlink:href="#DejaVuSans-6f" x="210.632812"/>
       <use xlink:href="#DejaVuSans-72" x="271.814453"/>
       <use xlink:href="#DejaVuSans-20" x="312.927734"/>
       <use xlink:href="#DejaVuSans-54" x="344.714844"/>
       <use xlink:href="#DejaVuSans-61" x="389.298828"/>
       <use xlink:href="#DejaVuSans-74" x="450.578125"/>
      </g>
     </g>
    </g>
    <g id="xtick_4">
     <g id="line2d_4">
      <g>
       <use xlink:href="#m713be46669" x="329.141818" y="337.97" style="stroke: #000000; stroke-width: 0.8"/>
      </g>
     </g>
     <g id="text_4">
      <!-- Random: 0.5 -->
      <g transform="translate(331.349318 396.0475)rotate(-90)scale(0.08 -0.08)">
       <defs>
        <path id="DejaVuSans-52" d="M 2841 2188 
Q 3044 2119 3236 1894 
Q 3428 1669 3622 1275 
L 4263 0 
L 3584 0 
L 2988 1197 
Q 2756 1666 2539 1819 
Q 2322 1972 1947 1972 
L 1259 1972 
L 1259 0 
L 628 0 
L 628 4666 
L 2053 4666 
Q 2853 4666 3247 4331 
Q 3641 3997 3641 3322 
Q 3641 2881 3436 2590 
Q 3231 2300 2841 2188 
z
M 1259 4147 
L 1259 2491 
L 2053 2491 
Q 2509 2491 2742 2702 
Q 2975 2913 2975 3322 
Q 2975 3731 2742 3939 
Q 2509 4147 2053 4147 
L 1259 4147 
z
" transform="scale(0.015625)"/>
        <path id="DejaVuSans-6d" d="M 3328 2828 
Q 3544 3216 3844 3400 
Q 4144 3584 4550 3584 
Q 5097 3584 5394 3201 
Q 5691 2819 5691 2113 
L 5691 0 
L 5113 0 
L 5113 2094 
Q 5113 2597 4934 2840 
Q 4756 3084 4391 3084 
Q 3944 3084 3684 2787 
Q 3425 2491 3425 1978 
L 3425 0 
L 2847 0 
L 2847 2094 
Q 2847 2600 2669 2842 
Q 2491 3084 2119 3084 
Q 1678 3084 1418 2786 
Q 1159 2488 1159 1978 
L 1159 0 
L 581 0 
L 581 3500 
L 1159 3500 
L 1159 2956 
Q 1356 3278 1631 3431 
Q 1906 3584 2284 3584 
Q 2666 3584 2933 3390 
Q 3200 3197 3328 2828 
z
" transform="scale(0.015625)"/>
        <path id="DejaVuSans-3a" d="M 750 794 
L 1409 794 
L 1409 0 
L 750 0 
L 750 794 
z
M 750 3309 
L 1409 3309 
L 1409 2516 
L 750 2516 
L 750 3309 
z
" transform="scale(0.015625)"/>
        <path id="DejaVuSans-30" d="M 2034 4250 
Q 1547 4250 1301 3770 
Q 1056 3291 1056 2328 
Q 1056 1369 1301 889 
Q 1547 409 2034 409 
Q 2525 409 2770 889 
Q 3016 1369 3016 2328 
Q 3016 3291 2770 3770 
Q 2525 4250 2034 4250 
z
M 2034 4750 
Q 2819 4750 3233 4129 
Q 3647 3509 3647 2328 
Q 3647 1150 3233 529 
Q 2819 -91 2034 -91 
Q 1250 -91 836 529 
Q 422 1150 422 2328 
Q 422 3509 836 4129 
Q 1250 4750 2034 4750 
z
" transform="scale(0.015625)"/>
        <path id="DejaVuSans-2e" d="M 684 794 
L 1344 794 
L 1344 0 
L 684 0 
L 684 794 
z
" transform="scale(0.015625)"/>
        <path id="DejaVuSans-35" d="M 691 4666 
L 3169 4666 
L 3169 4134 
L 1269 4134 
L 1269 2991 
Q 1406 3038 1543 3061 
Q 1681 3084 1819 3084 
Q 2600 3084 3056 2656 
Q 3513 2228 3513 1497 
Q 3513 744 3044 326 
Q 2575 -91 1722 -91 
Q 1428 -91 1123 -41 
Q 819 9 494 109 
L 494 744 
Q 775 591 1075 516 
Q 1375 441 1709 441 
Q 2250 441 2565 725 
Q 2881 1009 2881 1497 
Q 2881 1984 2565 2268 
Q 2250 2553 1709 2553 
Q 1456 2553 1204 2497 
Q 953 2441 691 2322 
L 691 4666 
z
" transform="scale(0.015625)"/>
       </defs>
       <use xlink:href="#DejaVuSans-52"/>
       <use xlink:href="#DejaVuSans-61" x="67.232422"/>
       <use xlink:href="#DejaVuSans-6e" x="128.511719"/>
       <use xlink:href="#DejaVuSans-64" x="191.890625"/>
       <use xlink:href="#DejaVuSans-6f" x="255.367188"/>
       <use xlink:href="#DejaVuSans-6d" x="316.548828"/>
       <use xlink:href="#DejaVuSans-3a" x="413.960938"/>
       <use xlink:href="#DejaVuSans-20" x="447.652344"/>
       <use xlink:href="#DejaVuSans-30" x="479.439453"/>
       <use xlink:href="#DejaVuSans-2e" x="543.0625"/>
       <use xlink:href="#DejaVuSans-35" x="574.849609"/>
      </g>
     </g>
    </g>
    <g id="xtick_5">
     <g id="line2d_5">
      <g>
       <use xlink:href="#m713be46669" x="404.007273" y="337.97" style="stroke: #000000; stroke-width: 0.8"/>
      </g>
     </g>
     <g id="text_5">
      <!-- Adaptive -->
      <g transform="translate(406.214773 380.37875)rotate(-90)scale(0.08 -0.08)">
       <defs>
        <path id="DejaVuSans-70" d="M 1159 525 
L 1159 -1331 
L 581 -1331 
L 581 3500 
L 1159 3500 
L 1159 2969 
Q 1341 3281 1617 3432 
Q 1894 3584 2278 3584 
Q 2916 3584 3314 3078 
Q 3713 2572 3713 1747 
Q 3713 922 3314 415 
Q 2916 -91 2278 -91 
Q 1894 -91 1617 61 
Q 1341 213 1159 525 
z
M 3116 1747 
Q 3116 2381 2855 2742 
Q 2594 3103 2138 3103 
Q 1681 3103 1420 2742 
Q 1159 2381 1159 1747 
Q 1159 1113 1420 752 
Q 1681 391 2138 391 
Q 2594 391 2855 752 
Q 3116 1113 3116 1747 
z
" transform="scale(0.015625)"/>
        <path id="DejaVuSans-76" d="M 191 3500 
L 800 3500 
L 1894 563 
L 2988 3500 
L 3597 3500 
L 2284 0 
L 1503 0 
L 191 3500 
z
" transform="scale(0.015625)"/>
       </defs>
       <use xlink:href="#DejaVuSans-41"/>
       <use xlink:href="#DejaVuSans-64" x="66.658203"/>
       <use xlink:href="#DejaVuSans-61" x="130.134766"/>
       <use xlink:href="#DejaVuSans-70" x="191.414062"/>
       <use xlink:href="#DejaVuSans-74" x="254.890625"/>
       <use xlink:href="#DejaVuSans-69" x="294.099609"/>
       <use xlink:href="#DejaVuSans-76" x="321.882812"/>
       <use xlink:href="#DejaVuSans-65" x="381.0625"/>
      </g>
     </g>
    </g>
    <g id="xtick_6">
     <g id="line2d_6">
      <g>
       <use xlink:href="#m713be46669" x="478.872727" y="337.97" style="stroke: #000000; stroke-width: 0.8"/>
      </g>
     </g>
     <g id="text_6">
      <!-- Defector -->
      <g transform="translate(481.080227 379.51)rotate(-90)scale(0.08 -0.08)">
       <defs>
        <path id="DejaVuSans-44" d="M 1259 4147 
L 1259 519 
L 2022 519 
Q 2988 519 3436 956 
Q 3884 1394 3884 2338 
Q 3884 3275 3436 3711 
Q 2988 4147 2022 4147 
L 1259 4147 
z
M 628 4666 
L 1925 4666 
Q 3281 4666 3915 4102 
Q 4550 3538 4550 2338 
Q 4550 1131 3912 565 
Q 3275 0 1925 0 
L 628 0 
L 628 4666 
z
" transform="scale(0.015625)"/>
        <path id="DejaVuSans-66" d="M 2375 4863 
L 2375 4384 
L 1825 4384 
Q 1516 4384 1395 4259 
Q 1275 4134 1275 3809 
L 1275 3500 
L 2222 3500 
L 2222 3053 
L 1275 3053 
L 1275 0 
L 697 0 
L 697 3053 
L 147 3053 
L 147 3500 
L 697 3500 
L 697 3744 
Q 697 4328 969 4595 
Q 1241 4863 1831 4863 
L 2375 4863 
z
" transform="scale(0.015625)"/>
        <path id="DejaVuSans-63" d="M 3122 3366 
L 3122 2828 
Q 2878 2963 2633 3030 
Q 2388 3097 2138 3097 
Q 1578 3097 1268 2742 
Q 959 2388 959 1747 
Q 959 1106 1268 751 
Q 1578 397 2138 397 
Q 2388 397 2633 464 
Q 2878 531 3122 666 
L 3122 134 
Q 2881 22 2623 -34 
Q 2366 -91 2075 -91 
Q 1284 -91 818 406 
Q 353 903 353 1747 
Q 353 2603 823 3093 
Q 1294 3584 2113 3584 
Q 2378 3584 2631 3529 
Q 2884 3475 3122 3366 
z
" transform="scale(0.015625)"/>
       </defs>
       <use xlink:href="#DejaVuSans-44"/>
       <use xlink:href="#DejaVuSans-65" x="77.001953"/>
       <use xlink:href="#DejaVuSans-66" x="138.525391"/>
       <use xlink:href="#DejaVuSans-65" x="173.730469"/>
       <use xlink:href="#DejaVuSans-63" x="235.253906"/>
       <use xlink:href="#DejaVuSans-74" x="290.234375"/>
       <use xlink:href="#DejaVuSans-6f" x="329.443359"/>
       <use xlink:href="#DejaVuSans-72" x="390.625"/>
      </g>
     </g>
    </g>
    <g id="xtick_7">
     <g id="line2d_7">
      <g>
       <use xlink:href="#m713be46669" x="553.738182" y="337.97" style="stroke: #000000; stroke-width: 0.8"/>
      </g>
     </g>
     <g id="text_7">
      <!-- Deep QLearner -->
      <g transform="translate(555.945682 405.46625)rotate(-90)scale(0.08 -0.08)">
       <defs>
        <path id="DejaVuSans-51" d="M 2522 4238 
Q 1834 4238 1429 3725 
Q 1025 3213 1025 2328 
Q 1025 1447 1429 934 
Q 1834 422 2522 422 
Q 3209 422 3611 934 
Q 4013 1447 4013 2328 
Q 4013 3213 3611 3725 
Q 3209 4238 2522 4238 
z
M 3406 84 
L 4238 -825 
L 3475 -825 
L 2784 -78 
Q 2681 -84 2626 -87 
Q 2572 -91 2522 -91 
Q 1538 -91 948 567 
Q 359 1225 359 2328 
Q 359 3434 948 4092 
Q 1538 4750 2522 4750 
Q 3503 4750 4090 4092 
Q 4678 3434 4678 2328 
Q 4678 1516 4351 937 
Q 4025 359 3406 84 
z
" transform="scale(0.015625)"/>
        <path id="DejaVuSans-4c" d="M 628 4666 
L 1259 4666 
L 1259 531 
L 3531 531 
L 3531 0 
L 628 0 
L 628 4666 
z
" transform="scale(0.015625)"/>
       </defs>
       <use xlink:href="#DejaVuSans-44"/>
       <use xlink:href="#DejaVuSans-65" x="77.001953"/>
       <use xlink:href="#DejaVuSans-65" x="138.525391"/>
       <use xlink:href="#DejaVuSans-70" x="200.048828"/>
       <use xlink:href="#DejaVuSans-20" x="263.525391"/>
       <use xlink:href="#DejaVuSans-51" x="295.3125"/>
       <use xlink:href="#DejaVuSans-4c" x="374.023438"/>
       <use xlink:href="#DejaVuSans-65" x="427.986328"/>
       <use xlink:href="#DejaVuSans-61" x="489.509766"/>
       <use xlink:href="#DejaVuSans-72" x="550.789062"/>
       <use xlink:href="#DejaVuSans-6e" x="590.152344"/>
       <use xlink:href="#DejaVuSans-65" x="653.53125"/>
       <use xlink:href="#DejaVuSans-72" x="715.054688"/>
      </g>
     </g>
    </g>
    <g id="xtick_8">
     <g id="line2d_8">
      <g>
       <use xlink:href="#m713be46669" x="628.603636" y="337.97" style="stroke: #000000; stroke-width: 0.8"/>
      </g>
     </g>
     <g id="text_8">
      <!-- Cooperator -->
      <g transform="translate(630.811136 389.85875)rotate(-90)scale(0.08 -0.08)">
       <defs>
        <path id="DejaVuSans-43" d="M 4122 4306 
L 4122 3641 
Q 3803 3938 3442 4084 
Q 3081 4231 2675 4231 
Q 1875 4231 1450 3742 
Q 1025 3253 1025 2328 
Q 1025 1406 1450 917 
Q 1875 428 2675 428 
Q 3081 428 3442 575 
Q 3803 722 4122 1019 
L 4122 359 
Q 3791 134 3420 21 
Q 3050 -91 2638 -91 
Q 1578 -91 968 557 
Q 359 1206 359 2328 
Q 359 3453 968 4101 
Q 1578 4750 2638 4750 
Q 3056 4750 3426 4639 
Q 3797 4528 4122 4306 
z
" transform="scale(0.015625)"/>
       </defs>
       <use xlink:href="#DejaVuSans-43"/>
       <use xlink:href="#DejaVuSans-6f" x="69.824219"/>
       <use xlink:href="#DejaVuSans-6f" x="131.005859"/>
       <use xlink:href="#DejaVuSans-70" x="192.1875"/>
       <use xlink:href="#DejaVuSans-65" x="255.664062"/>
       <use xlink:href="#DejaVuSans-72" x="317.1875"/>
       <use xlink:href="#DejaVuSans-61" x="358.300781"/>
       <use xlink:href="#DejaVuSans-74" x="419.580078"/>
       <use xlink:href="#DejaVuSans-6f" x="458.789062"/>
       <use xlink:href="#DejaVuSans-72" x="519.970703"/>
      </g>
     </g>
    </g>
    <g id="xtick_9">
     <g id="line2d_9">
      <g>
       <use xlink:href="#m713be46669" x="703.469091" y="337.97" style="stroke: #000000; stroke-width: 0.8"/>
      </g>
     </g>
     <g id="text_9">
      <!-- Mediocre QLearner -->
      <g transform="translate(705.676591 420.83375)rotate(-90)scale(0.08 -0.08)">
       <defs>
        <path id="DejaVuSans-4d" d="M 628 4666 
L 1569 4666 
L 2759 1491 
L 3956 4666 
L 4897 4666 
L 4897 0 
L 4281 0 
L 4281 4097 
L 3078 897 
L 2444 897 
L 1241 4097 
L 1241 0 
L 628 0 
L 628 4666 
z
" transform="scale(0.015625)"/>
       </defs>
       <use xlink:href="#DejaVuSans-4d"/>
       <use xlink:href="#DejaVuSans-65" x="86.279297"/>
       <use xlink:href="#DejaVuSans-64" x="147.802734"/>
       <use xlink:href="#DejaVuSans-69" x="211.279297"/>
       <use xlink:href="#DejaVuSans-6f" x="239.0625"/>
       <use xlink:href="#DejaVuSans-63" x="300.244141"/>
       <use xlink:href="#DejaVuSans-72" x="355.224609"/>
       <use xlink:href="#DejaVuSans-65" x="394.087891"/>
       <use xlink:href="#DejaVuSans-20" x="455.611328"/>
       <use xlink:href="#DejaVuSans-51" x="487.398438"/>
       <use xlink:href="#DejaVuSans-4c" x="566.109375"/>
       <use xlink:href="#DejaVuSans-65" x="620.072266"/>
       <use xlink:href="#DejaVuSans-61" x="681.595703"/>
       <use xlink:href="#DejaVuSans-72" x="742.875"/>
       <use xlink:href="#DejaVuSans-6e" x="782.238281"/>
       <use xlink:href="#DejaVuSans-65" x="845.617188"/>
       <use xlink:href="#DejaVuSans-72" x="907.140625"/>
      </g>
     </g>
    </g>
    <g id="xtick_10">
     <g id="line2d_10">
      <g>
       <use xlink:href="#m713be46669" x="778.334545" y="337.97" style="stroke: #000000; stroke-width: 0.8"/>
      </g>
     </g>
     <g id="text_10">
      <!-- Risky QLearner -->
      <g transform="translate(780.542045 405.40875)rotate(-90)scale(0.08 -0.08)">
       <defs>
        <path id="DejaVuSans-73" d="M 2834 3397 
L 2834 2853 
Q 2591 2978 2328 3040 
Q 2066 3103 1784 3103 
Q 1356 3103 1142 2972 
Q 928 2841 928 2578 
Q 928 2378 1081 2264 
Q 1234 2150 1697 2047 
L 1894 2003 
Q 2506 1872 2764 1633 
Q 3022 1394 3022 966 
Q 3022 478 2636 193 
Q 2250 -91 1575 -91 
Q 1294 -91 989 -36 
Q 684 19 347 128 
L 347 722 
Q 666 556 975 473 
Q 1284 391 1588 391 
Q 1994 391 2212 530 
Q 2431 669 2431 922 
Q 2431 1156 2273 1281 
Q 2116 1406 1581 1522 
L 1381 1569 
Q 847 1681 609 1914 
Q 372 2147 372 2553 
Q 372 3047 722 3315 
Q 1072 3584 1716 3584 
Q 2034 3584 2315 3537 
Q 2597 3491 2834 3397 
z
" transform="scale(0.015625)"/>
        <path id="DejaVuSans-6b" d="M 581 4863 
L 1159 4863 
L 1159 1991 
L 2875 3500 
L 3609 3500 
L 1753 1863 
L 3688 0 
L 2938 0 
L 1159 1709 
L 1159 0 
L 581 0 
L 581 4863 
z
" transform="scale(0.015625)"/>
        <path id="DejaVuSans-79" d="M 2059 -325 
Q 1816 -950 1584 -1140 
Q 1353 -1331 966 -1331 
L 506 -1331 
L 506 -850 
L 844 -850 
Q 1081 -850 1212 -737 
Q 1344 -625 1503 -206 
L 1606 56 
L 191 3500 
L 800 3500 
L 1894 763 
L 2988 3500 
L 3597 3500 
L 2059 -325 
z
" transform="scale(0.015625)"/>
       </defs>
       <use xlink:href="#DejaVuSans-52"/>
       <use xlink:href="#DejaVuSans-69" x="69.482422"/>
       <use xlink:href="#DejaVuSans-73" x="97.265625"/>
       <use xlink:href="#DejaVuSans-6b" x="149.365234"/>
       <use xlink:href="#DejaVuSans-79" x="203.650391"/>
       <use xlink:href="#DejaVuSans-20" x="262.830078"/>
       <use xlink:href="#DejaVuSans-51" x="294.617188"/>
       <use xlink:href="#DejaVuSans-4c" x="373.328125"/>
       <use xlink:href="#DejaVuSans-65" x="427.291016"/>
       <use xlink:href="#DejaVuSans-61" x="488.814453"/>
       <use xlink:href="#DejaVuSans-72" x="550.09375"/>
       <use xlink:href="#DejaVuSans-6e" x="589.457031"/>
       <use xlink:href="#DejaVuSans-65" x="652.835938"/>
       <use xlink:href="#DejaVuSans-72" x="714.359375"/>
      </g>
     </g>
    </g>
   </g>
   <g id="matplotlib.axis_2">
    <g id="ytick_1">
     <g id="line2d_11">
      <defs>
       <path id="md0de1d06d5" d="M 0 0 
L -3.5 0 
" style="stroke: #000000; stroke-width: 0.8"/>
      </defs>
      <g>
       <use xlink:href="#md0de1d06d5" x="29.68" y="295.548636" style="stroke: #000000; stroke-width: 0.8"/>
      </g>
     </g>
     <g id="text_11">
      <!-- 4 -->
      <g transform="translate(10.88625 298.588011)scale(0.08 -0.08)">
       <defs>
        <path id="DejaVuSans-2212" d="M 678 2272 
L 4684 2272 
L 4684 1741 
L 678 1741 
L 678 2272 
z
" transform="scale(0.015625)"/>
        <path id="DejaVuSans-34" d="M 2419 4116 
L 825 1625 
L 2419 1625 
L 2419 4116 
z
M 2253 4666 
L 3047 4666 
L 3047 1625 
L 3713 1625 
L 3713 1100 
L 3047 1100 
L 3047 0 
L 2419 0 
L 2419 1100 
L 313 1100 
L 313 1709 
L 2253 4666 
z
" transform="scale(0.015625)"/>
       </defs>
       <use xlink:href="#DejaVuSans-2212"/>
       <use xlink:href="#DejaVuSans-34" x="83.789062"/>
      </g>
     </g>
    </g>
    <g id="ytick_2">
     <g id="line2d_12">
      <g>
       <use xlink:href="#md0de1d06d5" x="29.68" y="238.986818" style="stroke: #000000; stroke-width: 0.8"/>
      </g>
     </g>
     <g id="text_12">
      <!-- 2 -->
      <g transform="translate(10.88625 242.026193)scale(0.08 -0.08)">
       <defs>
        <path id="DejaVuSans-32" d="M 1228 531 
L 3431 531 
L 3431 0 
L 469 0 
L 469 531 
Q 828 903 1448 1529 
Q 2069 2156 2228 2338 
Q 2531 2678 2651 2914 
Q 2772 3150 2772 3378 
Q 2772 3750 2511 3984 
Q 2250 4219 1831 4219 
Q 1534 4219 1204 4116 
Q 875 4013 500 3803 
L 500 4441 
Q 881 4594 1212 4672 
Q 1544 4750 1819 4750 
Q 2544 4750 2975 4387 
Q 3406 4025 3406 3419 
Q 3406 3131 3298 2873 
Q 3191 2616 2906 2266 
Q 2828 2175 2409 1742 
Q 1991 1309 1228 531 
z
" transform="scale(0.015625)"/>
       </defs>
       <use xlink:href="#DejaVuSans-2212"/>
       <use xlink:href="#DejaVuSans-32" x="83.789062"/>
      </g>
     </g>
    </g>
    <g id="ytick_3">
     <g id="line2d_13">
      <g>
       <use xlink:href="#md0de1d06d5" x="29.68" y="182.425" style="stroke: #000000; stroke-width: 0.8"/>
      </g>
     </g>
     <g id="text_13">
      <!-- 0 -->
      <g transform="translate(17.59 185.464375)scale(0.08 -0.08)">
       <use xlink:href="#DejaVuSans-30"/>
      </g>
     </g>
    </g>
    <g id="ytick_4">
     <g id="line2d_14">
      <g>
       <use xlink:href="#md0de1d06d5" x="29.68" y="125.863182" style="stroke: #000000; stroke-width: 0.8"/>
      </g>
     </g>
     <g id="text_14">
      <!-- 2 -->
      <g transform="translate(17.59 128.902557)scale(0.08 -0.08)">
       <use xlink:href="#DejaVuSans-32"/>
      </g>
     </g>
    </g>
    <g id="ytick_5">
     <g id="line2d_15">
      <g>
       <use xlink:href="#md0de1d06d5" x="29.68" y="69.301364" style="stroke: #000000; stroke-width: 0.8"/>
      </g>
     </g>
     <g id="text_15">
      <!-- 4 -->
      <g transform="translate(17.59 72.340739)scale(0.08 -0.08)">
       <use xlink:href="#DejaVuSans-34"/>
      </g>
     </g>
    </g>
   </g>
   <g id="LineCollection_1">
    <path d="M 95.187273 171.112636 
L 113.903636 171.112636 
" clip-path="url(#p5fa32ae934)" style="fill: none; stroke: #1f77b4; stroke-width: 1.5"/>
    <path d="M 170.052727 181.717977 
L 188.769091 181.717977 
" clip-path="url(#p5fa32ae934)" style="fill: none; stroke: #1f77b4; stroke-width: 1.5"/>
    <path d="M 244.918182 182.425 
L 263.634545 182.425 
" clip-path="url(#p5fa32ae934)" style="fill: none; stroke: #1f77b4; stroke-width: 1.5"/>
    <path d="M 319.783636 182.425 
L 338.5 182.425 
" clip-path="url(#p5fa32ae934)" style="fill: none; stroke: #1f77b4; stroke-width: 1.5"/>
    <path d="M 394.649091 166.8705 
L 413.365455 166.8705 
" clip-path="url(#p5fa32ae934)" style="fill: none; stroke: #1f77b4; stroke-width: 1.5"/>
    <path d="M 469.514545 166.163477 
L 488.230909 166.163477 
" clip-path="url(#p5fa32ae934)" style="fill: none; stroke: #1f77b4; stroke-width: 1.5"/>
    <path d="M 544.38 182.425 
L 563.096364 182.425 
" clip-path="url(#p5fa32ae934)" style="fill: none; stroke: #1f77b4; stroke-width: 1.5"/>
    <path d="M 619.245455 190.909273 
L 637.961818 190.909273 
" clip-path="url(#p5fa32ae934)" style="fill: none; stroke: #1f77b4; stroke-width: 1.5"/>
    <path d="M 694.110909 197.9795 
L 712.827273 197.9795 
" clip-path="url(#p5fa32ae934)" style="fill: none; stroke: #1f77b4; stroke-width: 1.5"/>
    <path d="M 768.976364 198.686523 
L 787.692727 198.686523 
" clip-path="url(#p5fa32ae934)" style="fill: none; stroke: #1f77b4; stroke-width: 1.5"/>
   </g>
   <g id="patch_3">
    <path d="M 29.68 337.97 
L 29.68 26.88 
" style="fill: none; stroke: #000000; stroke-width: 0.8; stroke-linejoin: miter; stroke-linecap: square"/>
   </g>
   <g id="patch_4">
    <path d="M 853.2 337.97 
L 853.2 26.88 
" style="fill: none; stroke: #000000; stroke-width: 0.8; stroke-linejoin: miter; stroke-linecap: square"/>
   </g>
   <g id="patch_5">
    <path d="M 29.68 337.97 
L 853.2 337.97 
" style="fill: none; stroke: #000000; stroke-width: 0.8; stroke-linejoin: miter; stroke-linecap: square"/>
   </g>
   <g id="patch_6">
    <path d="M 29.68 26.88 
L 853.2 26.88 
" style="fill: none; stroke: #000000; stroke-width: 0.8; stroke-linejoin: miter; stroke-linecap: square"/>
   </g>
   <g id="text_16">
    <!-- Payoff differences - turns: 200, repetitions: 200, strategies: 10.  -->
    <g transform="translate(250.417813 20.88)scale(0.12 -0.12)">
     <defs>
      <path id="DejaVuSans-50" d="M 1259 4147 
L 1259 2394 
L 2053 2394 
Q 2494 2394 2734 2622 
Q 2975 2850 2975 3272 
Q 2975 3691 2734 3919 
Q 2494 4147 2053 4147 
L 1259 4147 
z
M 628 4666 
L 2053 4666 
Q 2838 4666 3239 4311 
Q 3641 3956 3641 3272 
Q 3641 2581 3239 2228 
Q 2838 1875 2053 1875 
L 1259 1875 
L 1259 0 
L 628 0 
L 628 4666 
z
" transform="scale(0.015625)"/>
      <path id="DejaVuSans-2d" d="M 313 2009 
L 1997 2009 
L 1997 1497 
L 313 1497 
L 313 2009 
z
" transform="scale(0.015625)"/>
      <path id="DejaVuSans-2c" d="M 750 794 
L 1409 794 
L 1409 256 
L 897 -744 
L 494 -744 
L 750 256 
L 750 794 
z
" transform="scale(0.015625)"/>
      <path id="DejaVuSans-31" d="M 794 531 
L 1825 531 
L 1825 4091 
L 703 3866 
L 703 4441 
L 1819 4666 
L 2450 4666 
L 2450 531 
L 3481 531 
L 3481 0 
L 794 0 
L 794 531 
z
" transform="scale(0.015625)"/>
     </defs>
     <use xlink:href="#DejaVuSans-50"/>
     <use xlink:href="#DejaVuSans-61" x="55.802734"/>
     <use xlink:href="#DejaVuSans-79" x="117.082031"/>
     <use xlink:href="#DejaVuSans-6f" x="176.261719"/>
     <use xlink:href="#DejaVuSans-66" x="237.443359"/>
     <use xlink:href="#DejaVuSans-66" x="272.648438"/>
     <use xlink:href="#DejaVuSans-20" x="307.853516"/>
     <use xlink:href="#DejaVuSans-64" x="339.640625"/>
     <use xlink:href="#DejaVuSans-69" x="403.117188"/>
     <use xlink:href="#DejaVuSans-66" x="430.900391"/>
     <use xlink:href="#DejaVuSans-66" x="466.105469"/>
     <use xlink:href="#DejaVuSans-65" x="501.310547"/>
     <use xlink:href="#DejaVuSans-72" x="562.833984"/>
     <use xlink:href="#DejaVuSans-65" x="601.697266"/>
     <use xlink:href="#DejaVuSans-6e" x="663.220703"/>
     <use xlink:href="#DejaVuSans-63" x="726.599609"/>
     <use xlink:href="#DejaVuSans-65" x="781.580078"/>
     <use xlink:href="#DejaVuSans-73" x="843.103516"/>
     <use xlink:href="#DejaVuSans-20" x="895.203125"/>
     <use xlink:href="#DejaVuSans-2d" x="926.990234"/>
     <use xlink:href="#DejaVuSans-20" x="963.074219"/>
     <use xlink:href="#DejaVuSans-74" x="994.861328"/>
     <use xlink:href="#DejaVuSans-75" x="1034.070312"/>
     <use xlink:href="#DejaVuSans-72" x="1097.449219"/>
     <use xlink:href="#DejaVuSans-6e" x="1136.8125"/>
     <use xlink:href="#DejaVuSans-73" x="1200.191406"/>
     <use xlink:href="#DejaVuSans-3a" x="1252.291016"/>
     <use xlink:href="#DejaVuSans-20" x="1285.982422"/>
     <use xlink:href="#DejaVuSans-32" x="1317.769531"/>
     <use xlink:href="#DejaVuSans-30" x="1381.392578"/>
     <use xlink:href="#DejaVuSans-30" x="1445.015625"/>
     <use xlink:href="#DejaVuSans-2c" x="1508.638672"/>
     <use xlink:href="#DejaVuSans-20" x="1540.425781"/>
     <use xlink:href="#DejaVuSans-72" x="1572.212891"/>
     <use xlink:href="#DejaVuSans-65" x="1611.076172"/>
     <use xlink:href="#DejaVuSans-70" x="1672.599609"/>
     <use xlink:href="#DejaVuSans-65" x="1736.076172"/>
     <use xlink:href="#DejaVuSans-74" x="1797.599609"/>
     <use xlink:href="#DejaVuSans-69" x="1836.808594"/>
     <use xlink:href="#DejaVuSans-74" x="1864.591797"/>
     <use xlink:href="#DejaVuSans-69" x="1903.800781"/>
     <use xlink:href="#DejaVuSans-6f" x="1931.583984"/>
     <use xlink:href="#DejaVuSans-6e" x="1992.765625"/>
     <use xlink:href="#DejaVuSans-73" x="2056.144531"/>
     <use xlink:href="#DejaVuSans-3a" x="2108.244141"/>
     <use xlink:href="#DejaVuSans-20" x="2141.935547"/>
     <use xlink:href="#DejaVuSans-32" x="2173.722656"/>
     <use xlink:href="#DejaVuSans-30" x="2237.345703"/>
     <use xlink:href="#DejaVuSans-30" x="2300.96875"/>
     <use xlink:href="#DejaVuSans-2c" x="2364.591797"/>
     <use xlink:href="#DejaVuSans-20" x="2396.378906"/>
     <use xlink:href="#DejaVuSans-73" x="2428.166016"/>
     <use xlink:href="#DejaVuSans-74" x="2480.265625"/>
     <use xlink:href="#DejaVuSans-72" x="2519.474609"/>
     <use xlink:href="#DejaVuSans-61" x="2560.587891"/>
     <use xlink:href="#DejaVuSans-74" x="2621.867188"/>
     <use xlink:href="#DejaVuSans-65" x="2661.076172"/>
     <use xlink:href="#DejaVuSans-67" x="2722.599609"/>
     <use xlink:href="#DejaVuSans-69" x="2786.076172"/>
     <use xlink:href="#DejaVuSans-65" x="2813.859375"/>
     <use xlink:href="#DejaVuSans-73" x="2875.382812"/>
     <use xlink:href="#DejaVuSans-3a" x="2927.482422"/>
     <use xlink:href="#DejaVuSans-20" x="2961.173828"/>
     <use xlink:href="#DejaVuSans-31" x="2992.960938"/>
     <use xlink:href="#DejaVuSans-30" x="3056.583984"/>
     <use xlink:href="#DejaVuSans-2e" x="3120.207031"/>
     <use xlink:href="#DejaVuSans-20" x="3151.994141"/>
    </g>
   </g>
  </g>
 </g>
 <defs>
  <clipPath id="p5fa32ae934">
   <rect x="29.68" y="26.88" width="823.52" height="311.09"/>
  </clipPath>
 </defs>
</svg>
