<?xml version="1.0" encoding="utf-8" standalone="no"?>
<!DOCTYPE svg PUBLIC "-//W3C//DTD SVG 1.1//EN"
  "http://www.w3.org/Graphics/SVG/1.1/DTD/svg11.dtd">
<svg xmlns:xlink="http://www.w3.org/1999/xlink" width="864pt" height="432pt" viewBox="0 0 864 432" xmlns="http://www.w3.org/2000/svg" version="1.1">
 <metadata>
  <rdf:RDF xmlns:dc="http://purl.org/dc/elements/1.1/" xmlns:cc="http://creativecommons.org/ns#" xmlns:rdf="http://www.w3.org/1999/02/22-rdf-syntax-ns#">
   <cc:Work>
    <dc:type rdf:resource="http://purl.org/dc/dcmitype/StillImage"/>
    <dc:date>2022-09-26T09:50:54.531435</dc:date>
    <dc:format>image/svg+xml</dc:format>
    <dc:creator>
     <cc:Agent>
      <dc:title>Matplotlib v3.5.1, https://matplotlib.org/</dc:title>
     </cc:Agent>
    </dc:creator>
   </cc:Work>
  </rdf:RDF>
 </metadata>
 <defs>
  <style type="text/css">*{stroke-linejoin: round; stroke-linecap: butt}</style>
 </defs>
 <g id="figure_1">
  <g id="patch_1">
   <path d="M 0 432 
L 864 432 
L 864 0 
L 0 0 
z
" style="fill: #ffffff"/>
  </g>
  <g id="axes_1">
   <g id="patch_2">
    <path d="M 30.67 337.97 
L 853.2 337.97 
L 853.2 26.88 
L 30.67 26.88 
z
" style="fill: #ffffff"/>
   </g>
   <g id="PolyCollection_1">
    <path d="M 111.408252 145.028303 
L 99.482657 145.028303 
L 98.620273 143.99325 
L 97.705576 142.958197 
L 96.748336 141.923144 
L 95.760364 140.888091 
L 94.755268 139.853038 
L 93.748104 138.817985 
L 92.754937 137.782932 
L 91.792324 136.747879 
L 90.876751 135.712826 
L 90.024042 134.677773 
L 89.248783 133.64272 
L 88.563782 132.607667 
L 87.979613 131.572614 
L 87.504266 130.537561 
L 87.142918 129.502508 
L 86.897847 128.467455 
L 86.768484 127.432402 
L 86.751591 126.397349 
L 86.841541 125.362296 
L 87.030677 124.327243 
L 87.309707 123.29219 
L 87.668101 122.257137 
L 88.094467 121.222084 
L 88.576869 120.187031 
L 89.1031 119.151978 
L 89.660874 118.116925 
L 90.237985 117.081872 
L 90.822427 116.046819 
L 91.4025 115.011766 
L 91.966935 113.976713 
L 92.505043 112.94166 
L 93.006902 111.906607 
L 93.463582 110.871554 
L 93.867396 109.836501 
L 94.21216 108.801448 
L 94.493432 107.766395 
L 94.708706 106.731342 
L 94.857543 105.696289 
L 94.941606 104.661236 
L 94.964596 103.626183 
L 94.932088 102.59113 
L 94.851271 101.556077 
L 94.730619 100.521024 
L 94.579499 99.485971 
L 94.407771 98.450918 
L 94.225378 97.415865 
L 94.041982 96.380813 
L 93.866643 95.34576 
L 93.707567 94.310707 
L 93.57193 93.275654 
L 93.46577 92.240601 
L 93.393943 91.205548 
L 93.360134 90.170495 
L 93.366897 89.135442 
L 93.415718 88.100389 
L 93.507089 87.065336 
L 93.640572 86.030283 
L 93.81486 84.99523 
L 94.027827 83.960177 
L 94.276578 82.925124 
L 94.557499 81.890071 
L 94.866326 80.855018 
L 95.198234 79.819965 
L 95.547957 78.784912 
L 95.909944 77.749859 
L 96.278546 76.714806 
L 96.648233 75.679753 
L 97.013823 74.6447 
L 97.370716 73.609647 
L 97.71511 72.574594 
L 98.044181 71.539541 
L 98.356208 70.504488 
L 98.650636 69.469435 
L 98.928057 68.434382 
L 99.190119 67.399329 
L 99.43935 66.364276 
L 99.67893 65.329223 
L 99.912405 64.29417 
L 100.143389 63.259117 
L 100.37526 62.224064 
L 100.610881 61.189011 
L 100.852378 60.153958 
L 101.100979 59.118905 
L 101.356935 58.083852 
L 101.619524 57.048799 
L 101.887136 56.013746 
L 102.157422 54.978693 
L 102.427502 53.94364 
L 102.69419 52.908587 
L 102.954245 51.873534 
L 103.204589 50.838481 
L 103.442502 49.803428 
L 103.665772 48.768375 
L 103.872785 47.733322 
L 104.062564 46.698269 
L 104.234749 45.663216 
L 104.38954 44.628163 
L 104.527606 43.59311 
L 104.649967 42.558057 
L 106.240942 42.558057 
L 106.240942 42.558057 
L 106.363303 43.59311 
L 106.501369 44.628163 
L 106.65616 45.663216 
L 106.828345 46.698269 
L 107.018124 47.733322 
L 107.225138 48.768375 
L 107.448408 49.803428 
L 107.68632 50.838481 
L 107.936664 51.873534 
L 108.196719 52.908587 
L 108.463408 53.94364 
L 108.733487 54.978693 
L 109.003773 56.013746 
L 109.271385 57.048799 
L 109.533974 58.083852 
L 109.78993 59.118905 
L 110.038531 60.153958 
L 110.280028 61.189011 
L 110.515649 62.224064 
L 110.74752 63.259117 
L 110.978504 64.29417 
L 111.21198 65.329223 
L 111.451559 66.364276 
L 111.70079 67.399329 
L 111.962852 68.434382 
L 112.240273 69.469435 
L 112.534701 70.504488 
L 112.846728 71.539541 
L 113.175799 72.574594 
L 113.520193 73.609647 
L 113.877086 74.6447 
L 114.242676 75.679753 
L 114.612363 76.714806 
L 114.980965 77.749859 
L 115.342952 78.784912 
L 115.692676 79.819965 
L 116.024584 80.855018 
L 116.333411 81.890071 
L 116.614331 82.925124 
L 116.863082 83.960177 
L 117.076049 84.99523 
L 117.250337 86.030283 
L 117.38382 87.065336 
L 117.475191 88.100389 
L 117.524012 89.135442 
L 117.530775 90.170495 
L 117.496966 91.205548 
L 117.425139 92.240601 
L 117.318979 93.275654 
L 117.183342 94.310707 
L 117.024266 95.34576 
L 116.848927 96.380813 
L 116.665531 97.415865 
L 116.483139 98.450918 
L 116.31141 99.485971 
L 116.16029 100.521024 
L 116.039638 101.556077 
L 115.958821 102.59113 
L 115.926313 103.626183 
L 115.949303 104.661236 
L 116.033366 105.696289 
L 116.182204 106.731342 
L 116.397477 107.766395 
L 116.678749 108.801448 
L 117.023513 109.836501 
L 117.427327 110.871554 
L 117.884007 111.906607 
L 118.385866 112.94166 
L 118.923974 113.976713 
L 119.488409 115.011766 
L 120.068482 116.046819 
L 120.652924 117.081872 
L 121.230035 118.116925 
L 121.787809 119.151978 
L 122.31404 120.187031 
L 122.796443 121.222084 
L 123.222808 122.257137 
L 123.581202 123.29219 
L 123.860232 124.327243 
L 124.049368 125.362296 
L 124.139318 126.397349 
L 124.122425 127.432402 
L 123.993062 128.467455 
L 123.747991 129.502508 
L 123.386643 130.537561 
L 122.911296 131.572614 
L 122.327128 132.607667 
L 121.642126 133.64272 
L 120.866867 134.677773 
L 120.014159 135.712826 
L 119.098586 136.747879 
L 118.135972 137.782932 
L 117.142805 138.817985 
L 116.135641 139.853038 
L 115.130545 140.888091 
L 114.142573 141.923144 
L 113.185333 142.958197 
L 112.270636 143.99325 
L 111.408252 145.028303 
z
" clip-path="url(#p327709c601)" style="fill: #1f77b4; fill-opacity: 0.3"/>
   </g>
   <g id="PolyCollection_2">
    <path d="M 191.843668 226.081937 
L 168.598151 226.081937 
L 167.887364 225.09015 
L 167.201035 224.098363 
L 166.547851 223.106576 
L 165.936429 222.114789 
L 165.375124 221.123002 
L 164.871846 220.131215 
L 164.433872 219.139428 
L 164.067671 218.147641 
L 163.778747 217.155853 
L 163.571497 216.164066 
L 163.449105 215.172279 
L 163.413458 214.180492 
L 163.465095 213.188705 
L 163.6032 212.196918 
L 163.825614 211.205131 
L 164.128902 210.213344 
L 164.508431 209.221557 
L 164.958495 208.229769 
L 165.472453 207.237982 
L 166.042894 206.246195 
L 166.661812 205.254408 
L 167.320789 204.262621 
L 168.011191 203.270834 
L 168.724342 202.279047 
L 169.451706 201.28726 
L 170.185047 200.295473 
L 170.916573 199.303686 
L 171.639057 198.311898 
L 172.34594 197.320111 
L 173.031402 196.328324 
L 173.690413 195.336537 
L 174.318759 194.34475 
L 174.913039 193.352963 
L 175.470648 192.361176 
L 175.989739 191.369389 
L 176.469162 190.377602 
L 176.908399 189.385815 
L 177.307485 188.394027 
L 177.666921 187.40224 
L 177.987588 186.410453 
L 178.27065 185.418666 
L 178.517472 184.426879 
L 178.729531 183.435092 
L 178.908337 182.443305 
L 179.055357 181.451518 
L 179.171955 180.459731 
L 179.259329 179.467943 
L 179.318469 178.476156 
L 179.350117 177.484369 
L 179.354738 176.492582 
L 179.332502 175.500795 
L 179.28328 174.509008 
L 179.206642 173.517221 
L 179.101871 172.525434 
L 178.967985 171.533647 
L 178.803769 170.54186 
L 178.607817 169.550072 
L 178.378585 168.558285 
L 178.114448 167.566498 
L 177.813773 166.574711 
L 177.474994 165.582924 
L 177.096694 164.591137 
L 176.677695 163.59935 
L 176.217151 162.607563 
L 175.714637 161.615776 
L 175.170244 160.623989 
L 174.584664 159.632201 
L 173.959269 158.640414 
L 173.296183 157.648627 
L 172.598334 156.65684 
L 171.869494 155.665053 
L 171.114298 154.673266 
L 170.338238 153.681479 
L 169.547636 152.689692 
L 168.749589 151.697905 
L 167.951887 150.706117 
L 167.16291 149.71433 
L 166.391491 148.722543 
L 165.64677 147.730756 
L 164.938017 146.738969 
L 164.274445 145.747182 
L 163.665022 144.755395 
L 163.118262 143.763608 
L 162.642037 142.771821 
L 162.243383 141.780034 
L 161.928332 140.788246 
L 161.70176 139.796459 
L 161.567258 138.804672 
L 161.527045 137.812885 
L 161.581902 136.821098 
L 161.731151 135.829311 
L 161.97267 134.837524 
L 162.30294 133.845737 
L 162.717139 132.85395 
L 163.209253 131.862163 
L 163.772227 130.870375 
L 164.398136 129.878588 
L 165.078369 128.886801 
L 165.803829 127.895014 
L 194.637989 127.895014 
L 194.637989 127.895014 
L 195.363449 128.886801 
L 196.043682 129.878588 
L 196.669591 130.870375 
L 197.232566 131.862163 
L 197.72468 132.85395 
L 198.138878 133.845737 
L 198.469149 134.837524 
L 198.710667 135.829311 
L 198.859916 136.821098 
L 198.914773 137.812885 
L 198.87456 138.804672 
L 198.740059 139.796459 
L 198.513486 140.788246 
L 198.198435 141.780034 
L 197.799781 142.771821 
L 197.323556 143.763608 
L 196.776796 144.755395 
L 196.167373 145.747182 
L 195.503802 146.738969 
L 194.795048 147.730756 
L 194.050327 148.722543 
L 193.278908 149.71433 
L 192.489931 150.706117 
L 191.692229 151.697905 
L 190.894182 152.689692 
L 190.10358 153.681479 
L 189.32752 154.673266 
L 188.572324 155.665053 
L 187.843485 156.65684 
L 187.145635 157.648627 
L 186.482549 158.640414 
L 185.857154 159.632201 
L 185.271574 160.623989 
L 184.727181 161.615776 
L 184.224667 162.607563 
L 183.764123 163.59935 
L 183.345124 164.591137 
L 182.966824 165.582924 
L 182.628045 166.574711 
L 182.32737 167.566498 
L 182.063233 168.558285 
L 181.834001 169.550072 
L 181.63805 170.54186 
L 181.473834 171.533647 
L 181.339947 172.525434 
L 181.235176 173.517221 
L 181.158538 174.509008 
L 181.109316 175.500795 
L 181.087081 176.492582 
L 181.091701 177.484369 
L 181.123349 178.476156 
L 181.182489 179.467943 
L 181.269863 180.459731 
L 181.386461 181.451518 
L 181.533481 182.443305 
L 181.712287 183.435092 
L 181.924346 184.426879 
L 182.171168 185.418666 
L 182.454231 186.410453 
L 182.774897 187.40224 
L 183.134334 188.394027 
L 183.53342 189.385815 
L 183.972657 190.377602 
L 184.452079 191.369389 
L 184.97117 192.361176 
L 185.528779 193.352963 
L 186.123059 194.34475 
L 186.751405 195.336537 
L 187.410416 196.328324 
L 188.095878 197.320111 
L 188.802761 198.311898 
L 189.525245 199.303686 
L 190.256771 200.295473 
L 190.990112 201.28726 
L 191.717476 202.279047 
L 192.430627 203.270834 
L 193.121029 204.262621 
L 193.780007 205.254408 
L 194.398924 206.246195 
L 194.969365 207.237982 
L 195.483323 208.229769 
L 195.933387 209.221557 
L 196.312917 210.213344 
L 196.616204 211.205131 
L 196.838619 212.196918 
L 196.976723 213.188705 
L 197.02836 214.180492 
L 196.992713 215.172279 
L 196.870321 216.164066 
L 196.663072 217.155853 
L 196.374147 218.147641 
L 196.007946 219.139428 
L 195.569972 220.131215 
L 195.066694 221.123002 
L 194.505389 222.114789 
L 193.893967 223.106576 
L 193.240783 224.098363 
L 192.554454 225.09015 
L 191.843668 226.081937 
z
" clip-path="url(#p327709c601)" style="fill: #1f77b4; fill-opacity: 0.3"/>
   </g>
   <g id="PolyCollection_3">
    <path d="M 271.006831 152.277002 
L 238.985896 152.277002 
L 238.419972 151.761139 
L 237.909303 151.245277 
L 237.460103 150.729415 
L 237.077944 150.213552 
L 236.767635 149.69769 
L 236.533125 149.181827 
L 236.377415 148.665965 
L 236.3025 148.150102 
L 236.309322 147.63424 
L 236.397751 147.118378 
L 236.56659 146.602515 
L 236.8136 146.086653 
L 237.135552 145.57079 
L 237.528296 145.054928 
L 237.986846 144.539065 
L 238.505494 144.023203 
L 239.077918 143.507341 
L 239.697318 142.991478 
L 240.356542 142.475616 
L 241.048229 141.959753 
L 241.764939 141.443891 
L 242.499283 140.928029 
L 243.244048 140.412166 
L 243.992306 139.896304 
L 244.737514 139.380441 
L 245.473599 138.864579 
L 246.195025 138.348716 
L 246.896846 137.832854 
L 247.574742 137.316992 
L 248.225039 136.801129 
L 248.84471 136.285267 
L 249.431368 135.769404 
L 249.98324 135.253542 
L 250.499131 134.73768 
L 250.978385 134.221817 
L 251.420824 133.705955 
L 251.826701 133.190092 
L 252.196629 132.67423 
L 252.531524 132.158367 
L 252.832536 131.642505 
L 253.100989 131.126643 
L 253.338319 130.61078 
L 253.546019 130.094918 
L 253.725578 129.579055 
L 253.878442 129.063193 
L 254.005962 128.54733 
L 254.109361 128.031468 
L 254.1897 127.515606 
L 254.247851 126.999743 
L 254.28448 126.483881 
L 254.300028 125.968018 
L 254.294706 125.452156 
L 254.268494 124.936294 
L 254.22114 124.420431 
L 254.152173 123.904569 
L 254.060921 123.388706 
L 253.946525 122.872844 
L 253.807975 122.356981 
L 253.644136 121.841119 
L 253.453792 121.325257 
L 253.235684 120.809394 
L 252.988564 120.293532 
L 252.711244 119.777669 
L 252.402652 119.261807 
L 252.061895 118.745945 
L 251.688312 118.230082 
L 251.281542 117.71422 
L 250.841576 117.198357 
L 250.368819 116.682495 
L 249.864137 116.166632 
L 249.328905 115.65077 
L 248.765043 115.134908 
L 248.175043 114.619045 
L 247.561985 114.103183 
L 246.929538 113.58732 
L 246.281952 113.071458 
L 245.624025 112.555595 
L 244.961069 112.039733 
L 244.298845 111.523871 
L 243.643496 111.008008 
L 243.001456 110.492146 
L 242.379357 109.976283 
L 241.783914 109.460421 
L 241.221811 108.944559 
L 240.699575 108.428696 
L 240.223459 107.912834 
L 239.799307 107.396971 
L 239.432448 106.881109 
L 239.127572 106.365246 
L 238.888643 105.849384 
L 238.718803 105.333522 
L 238.620309 104.817659 
L 238.594484 104.301797 
L 238.641682 103.785934 
L 238.761285 103.270072 
L 238.951714 102.75421 
L 239.210467 102.238347 
L 239.534167 101.722485 
L 239.918643 101.206622 
L 270.074084 101.206622 
L 270.074084 101.206622 
L 270.45856 101.722485 
L 270.78226 102.238347 
L 271.041013 102.75421 
L 271.231443 103.270072 
L 271.351046 103.785934 
L 271.398244 104.301797 
L 271.372418 104.817659 
L 271.273925 105.333522 
L 271.104085 105.849384 
L 270.865155 106.365246 
L 270.56028 106.881109 
L 270.19342 107.396971 
L 269.769269 107.912834 
L 269.293152 108.428696 
L 268.770917 108.944559 
L 268.208813 109.460421 
L 267.61337 109.976283 
L 266.991271 110.492146 
L 266.349232 111.008008 
L 265.693882 111.523871 
L 265.031658 112.039733 
L 264.368702 112.555595 
L 263.710776 113.071458 
L 263.063189 113.58732 
L 262.430743 114.103183 
L 261.817684 114.619045 
L 261.227684 115.134908 
L 260.663823 115.65077 
L 260.12859 116.166632 
L 259.623908 116.682495 
L 259.151151 117.198357 
L 258.711185 117.71422 
L 258.304415 118.230082 
L 257.930833 118.745945 
L 257.590075 119.261807 
L 257.281484 119.777669 
L 257.004163 120.293532 
L 256.757043 120.809394 
L 256.538936 121.325257 
L 256.348591 121.841119 
L 256.184752 122.356981 
L 256.046202 122.872844 
L 255.931807 123.388706 
L 255.840554 123.904569 
L 255.771588 124.420431 
L 255.724233 124.936294 
L 255.698021 125.452156 
L 255.6927 125.968018 
L 255.708248 126.483881 
L 255.744876 126.999743 
L 255.803028 127.515606 
L 255.883366 128.031468 
L 255.986765 128.54733 
L 256.114285 129.063193 
L 256.267149 129.579055 
L 256.446709 130.094918 
L 256.654408 130.61078 
L 256.891739 131.126643 
L 257.160192 131.642505 
L 257.461203 132.158367 
L 257.796098 132.67423 
L 258.166026 133.190092 
L 258.571903 133.705955 
L 259.014343 134.221817 
L 259.493596 134.73768 
L 260.009488 135.253542 
L 260.561359 135.769404 
L 261.148017 136.285267 
L 261.767689 136.801129 
L 262.417985 137.316992 
L 263.095882 137.832854 
L 263.797703 138.348716 
L 264.519128 138.864579 
L 265.255213 139.380441 
L 266.000421 139.896304 
L 266.74868 140.412166 
L 267.493445 140.928029 
L 268.227789 141.443891 
L 268.944498 141.959753 
L 269.636185 142.475616 
L 270.29541 142.991478 
L 270.914809 143.507341 
L 271.487233 144.023203 
L 272.005881 144.539065 
L 272.464432 145.054928 
L 272.857175 145.57079 
L 273.179127 146.086653 
L 273.426138 146.602515 
L 273.594976 147.118378 
L 273.683405 147.63424 
L 273.690227 148.150102 
L 273.615312 148.665965 
L 273.459603 149.181827 
L 273.225092 149.69769 
L 272.914783 150.213552 
L 272.532624 150.729415 
L 272.083425 151.245277 
L 271.572755 151.761139 
L 271.006831 152.277002 
z
" clip-path="url(#p327709c601)" style="fill: #1f77b4; fill-opacity: 0.3"/>
   </g>
   <g id="PolyCollection_4">
    <path d="M 345.344287 229.376801 
L 314.199349 229.376801 
L 313.279165 227.726041 
L 312.492039 226.075281 
L 311.861579 224.424521 
L 311.407221 222.773762 
L 311.143233 221.123002 
L 311.077955 219.472242 
L 311.213348 217.821482 
L 311.54488 216.170723 
L 312.061751 214.519963 
L 312.747447 212.869203 
L 313.580573 211.218443 
L 314.535916 209.567684 
L 315.585641 207.916924 
L 316.70056 206.266164 
L 317.851367 204.615404 
L 319.009774 202.964645 
L 320.149493 201.313885 
L 321.246982 199.663125 
L 322.281973 198.012365 
L 323.237736 196.361606 
L 324.101116 194.710846 
L 324.862349 193.060086 
L 325.514724 191.409326 
L 326.054117 189.758567 
L 326.478458 188.107807 
L 326.787191 186.457047 
L 326.980763 184.806287 
L 327.060193 183.155528 
L 327.026748 181.504768 
L 326.881758 179.854008 
L 326.626566 178.203249 
L 326.262627 176.552489 
L 325.791738 174.901729 
L 325.216382 173.250969 
L 324.540144 171.60021 
L 323.768181 169.94945 
L 322.907682 168.29869 
L 321.968287 166.64793 
L 320.962403 164.997171 
L 319.905391 163.346411 
L 318.815574 161.695651 
L 317.714045 160.044891 
L 316.624267 158.394132 
L 315.571453 156.743372 
L 314.58177 155.092612 
L 313.681374 153.441852 
L 312.895356 151.791093 
L 312.246643 150.140333 
L 311.754932 148.489573 
L 311.43573 146.838813 
L 311.299566 145.188054 
L 311.351434 143.537294 
L 311.590509 141.886534 
L 312.010158 140.235774 
L 312.598253 138.585015 
L 313.337753 136.934255 
L 314.207531 135.283495 
L 315.183378 133.632735 
L 316.239119 131.981976 
L 317.347772 130.331216 
L 318.482664 128.680456 
L 319.618461 127.029697 
L 320.732041 125.378937 
L 321.803167 123.728177 
L 322.814962 122.077417 
L 323.754156 120.426658 
L 324.611124 118.775898 
L 325.379753 117.125138 
L 326.057145 115.474378 
L 326.643225 113.823619 
L 327.140268 112.172859 
L 327.552409 110.522099 
L 327.885156 108.871339 
L 328.144936 107.22058 
L 328.338705 105.56982 
L 328.473627 103.91906 
L 328.556825 102.2683 
L 328.595209 100.617541 
L 328.595374 98.966781 
L 328.56355 97.316021 
L 328.505598 95.665261 
L 328.42703 94.014502 
L 328.33305 92.363742 
L 328.228588 90.712982 
L 328.118332 89.062222 
L 328.006742 87.411463 
L 327.898036 85.760703 
L 327.796168 84.109943 
L 327.704771 82.459183 
L 327.627097 80.808424 
L 327.565941 79.157664 
L 327.523563 77.506904 
L 327.501625 75.856145 
L 327.501135 74.205385 
L 327.522417 72.554625 
L 327.565105 70.903865 
L 327.628172 69.253106 
L 327.709979 67.602346 
L 327.808361 65.951586 
L 331.735275 65.951586 
L 331.735275 65.951586 
L 331.833657 67.602346 
L 331.915464 69.253106 
L 331.978531 70.903865 
L 332.02122 72.554625 
L 332.042502 74.205385 
L 332.042012 75.856145 
L 332.020074 77.506904 
L 331.977696 79.157664 
L 331.916539 80.808424 
L 331.838865 82.459183 
L 331.747469 84.109943 
L 331.6456 85.760703 
L 331.536895 87.411463 
L 331.425304 89.062222 
L 331.315049 90.712982 
L 331.210587 92.363742 
L 331.116607 94.014502 
L 331.038039 95.665261 
L 330.980086 97.316021 
L 330.948263 98.966781 
L 330.948428 100.617541 
L 330.986811 102.2683 
L 331.070009 103.91906 
L 331.204931 105.56982 
L 331.398701 107.22058 
L 331.65848 108.871339 
L 331.991227 110.522099 
L 332.403368 112.172859 
L 332.900411 113.823619 
L 333.486491 115.474378 
L 334.163883 117.125138 
L 334.932512 118.775898 
L 335.789481 120.426658 
L 336.728674 122.077417 
L 337.74047 123.728177 
L 338.811596 125.378937 
L 339.925175 127.029697 
L 341.060973 128.680456 
L 342.195865 130.331216 
L 343.304517 131.981976 
L 344.360259 133.632735 
L 345.336106 135.283495 
L 346.205884 136.934255 
L 346.945383 138.585015 
L 347.533478 140.235774 
L 347.953128 141.886534 
L 348.192203 143.537294 
L 348.244071 145.188054 
L 348.107907 146.838813 
L 347.788705 148.489573 
L 347.296993 150.140333 
L 346.64828 151.791093 
L 345.862262 153.441852 
L 344.961866 155.092612 
L 343.972183 156.743372 
L 342.91937 158.394132 
L 341.829591 160.044891 
L 340.728063 161.695651 
L 339.638245 163.346411 
L 338.581233 164.997171 
L 337.575349 166.64793 
L 336.635954 168.29869 
L 335.775456 169.94945 
L 335.003493 171.60021 
L 334.327255 173.250969 
L 333.751898 174.901729 
L 333.28101 176.552489 
L 332.917071 178.203249 
L 332.661878 179.854008 
L 332.516888 181.504768 
L 332.483444 183.155528 
L 332.562873 184.806287 
L 332.756445 186.457047 
L 333.065178 188.107807 
L 333.48952 189.758567 
L 334.028912 191.409326 
L 334.681288 193.060086 
L 335.442521 194.710846 
L 336.3059 196.361606 
L 337.261664 198.012365 
L 338.296655 199.663125 
L 339.394144 201.313885 
L 340.533862 202.964645 
L 341.69227 204.615404 
L 342.843076 206.266164 
L 343.957995 207.916924 
L 345.007721 209.567684 
L 345.963063 211.218443 
L 346.79619 212.869203 
L 347.481885 214.519963 
L 347.998757 216.170723 
L 348.330289 217.821482 
L 348.465682 219.472242 
L 348.400403 221.123002 
L 348.136415 222.773762 
L 347.682058 224.424521 
L 347.051597 226.075281 
L 346.264471 227.726041 
L 345.344287 229.376801 
z
" clip-path="url(#p327709c601)" style="fill: #1f77b4; fill-opacity: 0.3"/>
   </g>
   <g id="PolyCollection_5">
    <path d="M 405.443118 244.752829 
L 403.651428 244.752829 
L 403.494216 243.229648 
L 403.329922 241.706467 
L 403.160357 240.183286 
L 402.986024 238.660105 
L 402.805537 237.136924 
L 402.615286 235.613744 
L 402.40949 234.090563 
L 402.180705 232.567382 
L 401.920717 231.044201 
L 401.621656 229.52102 
L 401.277085 227.997839 
L 400.882798 226.474658 
L 400.437172 224.951478 
L 399.94105 223.428297 
L 399.39728 221.905116 
L 398.810132 220.381935 
L 398.184816 218.858754 
L 397.527244 217.335573 
L 396.844009 215.812392 
L 396.14245 214.289211 
L 395.43061 212.766031 
L 394.716927 211.24285 
L 394.009657 209.719669 
L 393.316124 208.196488 
L 392.642012 206.673307 
L 391.990903 205.150126 
L 391.364155 203.626945 
L 390.761128 202.103765 
L 390.179668 200.580584 
L 389.616769 199.057403 
L 389.069423 197.534222 
L 388.53571 196.011041 
L 388.016191 194.48786 
L 387.51551 192.964679 
L 387.043885 191.441499 
L 386.617927 189.918318 
L 386.260169 188.395137 
L 385.996887 186.871956 
L 385.854246 185.348775 
L 385.853409 183.825594 
L 386.005772 182.302413 
L 386.309683 180.779232 
L 386.74977 179.256052 
L 387.299363 177.732871 
L 387.925602 176.20969 
L 388.59598 174.686509 
L 389.284633 173.163328 
L 389.976661 171.640147 
L 390.669365 170.116966 
L 391.37015 168.593786 
L 392.091815 167.070605 
L 392.846655 165.547424 
L 393.641039 164.024243 
L 394.471931 162.501062 
L 395.326136 160.977881 
L 396.182274 159.4547 
L 397.014773 157.93152 
L 397.798699 156.408339 
L 398.514201 154.885158 
L 399.14956 153.361977 
L 399.702302 151.838796 
L 400.178369 150.315615 
L 400.589755 148.792434 
L 400.951337 147.269253 
L 401.27767 145.746073 
L 401.580438 144.222892 
L 401.866988 142.699711 
L 402.140066 141.17653 
L 402.398583 139.653349 
L 402.639033 138.130168 
L 402.857121 136.606987 
L 403.049191 135.083807 
L 403.213227 133.560626 
L 403.349314 132.037445 
L 403.459629 130.514264 
L 403.548092 128.991083 
L 403.619805 127.467902 
L 403.680406 125.944721 
L 403.735406 124.42154 
L 403.789582 122.89836 
L 403.846471 121.375179 
L 403.908018 119.851998 
L 403.974455 118.328817 
L 404.04441 116.805636 
L 404.115248 115.282455 
L 404.183573 113.759274 
L 404.245797 112.236094 
L 404.298678 110.712913 
L 404.339749 109.189732 
L 404.367603 107.666551 
L 404.382017 106.14337 
L 404.383946 104.620189 
L 404.37541 103.097008 
L 404.359292 101.573828 
L 404.339053 100.050647 
L 404.318382 98.527466 
L 404.300799 97.004285 
L 404.289256 95.481104 
L 404.285791 93.957923 
L 404.808754 93.957923 
L 404.808754 93.957923 
L 404.805289 95.481104 
L 404.793746 97.004285 
L 404.776164 98.527466 
L 404.755493 100.050647 
L 404.735254 101.573828 
L 404.719136 103.097008 
L 404.7106 104.620189 
L 404.712528 106.14337 
L 404.726942 107.666551 
L 404.754796 109.189732 
L 404.795868 110.712913 
L 404.848748 112.236094 
L 404.910972 113.759274 
L 404.979297 115.282455 
L 405.050136 116.805636 
L 405.120091 118.328817 
L 405.186527 119.851998 
L 405.248075 121.375179 
L 405.304963 122.89836 
L 405.35914 124.42154 
L 405.41414 125.944721 
L 405.47474 127.467902 
L 405.546453 128.991083 
L 405.634917 130.514264 
L 405.745232 132.037445 
L 405.881318 133.560626 
L 406.045354 135.083807 
L 406.237425 136.606987 
L 406.455512 138.130168 
L 406.695963 139.653349 
L 406.95448 141.17653 
L 407.227557 142.699711 
L 407.514107 144.222892 
L 407.816875 145.746073 
L 408.143208 147.269253 
L 408.50479 148.792434 
L 408.916177 150.315615 
L 409.392243 151.838796 
L 409.944986 153.361977 
L 410.580345 154.885158 
L 411.295847 156.408339 
L 412.079773 157.93152 
L 412.912271 159.4547 
L 413.768409 160.977881 
L 414.622614 162.501062 
L 415.453507 164.024243 
L 416.247891 165.547424 
L 417.00273 167.070605 
L 417.724396 168.593786 
L 418.42518 170.116966 
L 419.117884 171.640147 
L 419.809912 173.163328 
L 420.498566 174.686509 
L 421.168944 176.20969 
L 421.795182 177.732871 
L 422.344776 179.256052 
L 422.784862 180.779232 
L 423.088773 182.302413 
L 423.241136 183.825594 
L 423.240299 185.348775 
L 423.097658 186.871956 
L 422.834377 188.395137 
L 422.476619 189.918318 
L 422.05066 191.441499 
L 421.579036 192.964679 
L 421.078355 194.48786 
L 420.558835 196.011041 
L 420.025123 197.534222 
L 419.477777 199.057403 
L 418.914878 200.580584 
L 418.333417 202.103765 
L 417.730391 203.626945 
L 417.103643 205.150126 
L 416.452534 206.673307 
L 415.778422 208.196488 
L 415.084888 209.719669 
L 414.377619 211.24285 
L 413.663936 212.766031 
L 412.952095 214.289211 
L 412.250537 215.812392 
L 411.567302 217.335573 
L 410.90973 218.858754 
L 410.284414 220.381935 
L 409.697265 221.905116 
L 409.153495 223.428297 
L 408.657374 224.951478 
L 408.211747 226.474658 
L 407.81746 227.997839 
L 407.472889 229.52102 
L 407.173829 231.044201 
L 406.91384 232.567382 
L 406.685055 234.090563 
L 406.47926 235.613744 
L 406.289008 237.136924 
L 406.108521 238.660105 
L 405.934189 240.183286 
L 405.764624 241.706467 
L 405.600329 243.229648 
L 405.443118 244.752829 
z
" clip-path="url(#p327709c601)" style="fill: #1f77b4; fill-opacity: 0.3"/>
   </g>
   <g id="PolyCollection_6">
    <path d="M 484.192935 228.827657 
L 474.45252 228.827657 
L 473.394344 227.904651 
L 472.24039 226.981646 
L 471.014771 226.05864 
L 469.747123 225.135635 
L 468.470437 224.212629 
L 467.218479 223.289624 
L 466.023175 222.366619 
L 464.912379 221.443613 
L 463.908361 220.520608 
L 463.02721 219.597602 
L 462.279143 218.674597 
L 461.669536 217.751591 
L 461.20033 216.828586 
L 460.871406 215.90558 
L 460.681567 214.982575 
L 460.628864 214.05957 
L 460.710201 213.136564 
L 460.920347 212.213559 
L 461.250634 211.290553 
L 461.68773 210.367548 
L 462.212883 209.444542 
L 462.801949 208.521537 
L 463.426384 207.598531 
L 464.055174 206.675526 
L 464.657508 205.75252 
L 465.20585 204.829515 
L 465.67893 203.90651 
L 466.064224 202.983504 
L 466.359479 202.060499 
L 466.573021 201.137493 
L 466.722747 200.214488 
L 466.833887 199.291482 
L 466.935849 198.368477 
L 467.058582 197.445471 
L 467.228971 196.522466 
L 467.467777 195.599461 
L 467.787524 194.676455 
L 468.191562 193.75345 
L 468.674365 192.830444 
L 469.222894 191.907439 
L 469.818738 190.984433 
L 470.440646 190.061428 
L 471.067083 189.138422 
L 471.678458 188.215417 
L 472.258821 187.292412 
L 472.796891 186.369406 
L 473.2864 185.446401 
L 473.725838 184.523395 
L 474.1177 183.60039 
L 474.467418 182.677384 
L 474.782125 181.754379 
L 475.069429 180.831373 
L 475.336335 179.908368 
L 475.588423 178.985363 
L 475.829348 178.062357 
L 476.060681 177.139352 
L 476.282057 176.216346 
L 476.491567 175.293341 
L 476.686308 174.370335 
L 476.863003 173.44733 
L 477.018608 172.524324 
L 477.15084 171.601319 
L 477.2586 170.678313 
L 477.342252 169.755308 
L 477.403746 168.832303 
L 477.446576 167.909297 
L 477.475574 166.986292 
L 477.496542 166.063286 
L 477.51576 165.140281 
L 477.53941 164.217275 
L 477.572987 163.29427 
L 477.620782 162.371264 
L 477.685494 161.448259 
L 477.768037 160.525254 
L 477.867555 159.602248 
L 477.981641 158.679243 
L 478.106697 157.756237 
L 478.238391 156.833232 
L 478.372127 155.910226 
L 478.503463 154.987221 
L 478.628444 154.064215 
L 478.74382 153.14121 
L 478.847149 152.218205 
L 478.936806 151.295199 
L 479.011923 150.372194 
L 479.072287 149.449188 
L 479.118228 148.526183 
L 479.150518 147.603177 
L 479.170288 146.680172 
L 479.178969 145.757166 
L 479.178253 144.834161 
L 479.170061 143.911156 
L 479.1565 142.98815 
L 479.139803 142.065145 
L 479.122229 141.142139 
L 479.105946 140.219134 
L 479.092883 139.296128 
L 479.084584 138.373123 
L 479.082088 137.450117 
L 479.563366 137.450117 
L 479.563366 137.450117 
L 479.56087 138.373123 
L 479.552572 139.296128 
L 479.539509 140.219134 
L 479.523226 141.142139 
L 479.505652 142.065145 
L 479.488954 142.98815 
L 479.475393 143.911156 
L 479.467202 144.834161 
L 479.466486 145.757166 
L 479.475167 146.680172 
L 479.494937 147.603177 
L 479.527227 148.526183 
L 479.573168 149.449188 
L 479.633532 150.372194 
L 479.708648 151.295199 
L 479.798306 152.218205 
L 479.901635 153.14121 
L 480.017011 154.064215 
L 480.141992 154.987221 
L 480.273327 155.910226 
L 480.407063 156.833232 
L 480.538758 157.756237 
L 480.663814 158.679243 
L 480.777899 159.602248 
L 480.877418 160.525254 
L 480.95996 161.448259 
L 481.024672 162.371264 
L 481.072467 163.29427 
L 481.106045 164.217275 
L 481.129694 165.140281 
L 481.148913 166.063286 
L 481.169881 166.986292 
L 481.198879 167.909297 
L 481.241709 168.832303 
L 481.303202 169.755308 
L 481.386854 170.678313 
L 481.494615 171.601319 
L 481.626846 172.524324 
L 481.782451 173.44733 
L 481.959147 174.370335 
L 482.153888 175.293341 
L 482.363397 176.216346 
L 482.584773 177.139352 
L 482.816107 178.062357 
L 483.057032 178.985363 
L 483.30912 179.908368 
L 483.576025 180.831373 
L 483.863329 181.754379 
L 484.178036 182.677384 
L 484.527754 183.60039 
L 484.919617 184.523395 
L 485.359054 185.446401 
L 485.848564 186.369406 
L 486.386633 187.292412 
L 486.966997 188.215417 
L 487.578372 189.138422 
L 488.204808 190.061428 
L 488.826717 190.984433 
L 489.422561 191.907439 
L 489.97109 192.830444 
L 490.453893 193.75345 
L 490.857931 194.676455 
L 491.177677 195.599461 
L 491.416484 196.522466 
L 491.586873 197.445471 
L 491.709605 198.368477 
L 491.811568 199.291482 
L 491.922707 200.214488 
L 492.072433 201.137493 
L 492.285976 202.060499 
L 492.58123 202.983504 
L 492.966524 203.90651 
L 493.439605 204.829515 
L 493.987946 205.75252 
L 494.590281 206.675526 
L 495.21907 207.598531 
L 495.843506 208.521537 
L 496.432572 209.444542 
L 496.957725 210.367548 
L 497.394821 211.290553 
L 497.725108 212.213559 
L 497.935254 213.136564 
L 498.016591 214.05957 
L 497.963888 214.982575 
L 497.774049 215.90558 
L 497.445125 216.828586 
L 496.975919 217.751591 
L 496.366312 218.674597 
L 495.618245 219.597602 
L 494.737094 220.520608 
L 493.733076 221.443613 
L 492.622279 222.366619 
L 491.426975 223.289624 
L 490.175017 224.212629 
L 488.898332 225.135635 
L 487.630683 226.05864 
L 486.405065 226.981646 
L 485.251111 227.904651 
L 484.192935 228.827657 
z
" clip-path="url(#p327709c601)" style="fill: #1f77b4; fill-opacity: 0.3"/>
   </g>
   <g id="PolyCollection_7">
    <path d="M 555.507656 323.829545 
L 552.688708 323.829545 
L 552.419526 320.972888 
L 552.122669 318.11623 
L 551.799424 315.259573 
L 551.451558 312.402916 
L 551.081216 309.546258 
L 550.690842 306.689601 
L 550.283148 303.832943 
L 549.861135 300.976286 
L 549.428154 298.119628 
L 548.987968 295.262971 
L 548.544755 292.406313 
L 548.102998 289.549656 
L 547.667218 286.692998 
L 547.241539 283.836341 
L 546.829134 280.979683 
L 546.431628 278.123026 
L 546.048583 275.266368 
L 545.677177 272.409711 
L 545.312182 269.553053 
L 544.946277 266.696396 
L 544.570673 263.839738 
L 544.175987 260.983081 
L 543.753217 258.126423 
L 543.294708 255.269766 
L 542.795 252.413108 
L 542.25146 249.556451 
L 541.664697 246.699793 
L 541.03876 243.843136 
L 540.381137 240.986478 
L 539.702599 238.129821 
L 539.016898 235.273163 
L 538.340317 232.416506 
L 537.691067 229.559848 
L 537.088502 226.703191 
L 536.55217 223.846534 
L 536.100727 220.989876 
L 535.750757 218.133219 
L 535.515603 215.276561 
L 535.404318 212.419904 
L 535.420862 209.563246 
L 535.563651 206.706589 
L 535.825574 203.849931 
L 536.194493 200.993274 
L 536.654241 198.136616 
L 537.186015 195.279959 
L 537.770017 192.423301 
L 538.387166 189.566644 
L 539.020647 186.709986 
L 539.657115 183.853329 
L 540.287409 180.996671 
L 540.906697 178.140014 
L 541.514074 175.283356 
L 542.111693 172.426699 
L 542.703598 169.570041 
L 543.294427 166.713384 
L 543.888174 163.856726 
L 544.487174 161.000069 
L 545.091416 158.143411 
L 545.69826 155.286754 
L 546.30255 152.430096 
L 546.897085 149.573439 
L 547.473372 146.716781 
L 548.022538 143.860124 
L 548.536285 141.003466 
L 549.007764 138.146809 
L 549.432268 135.290152 
L 549.807651 132.433494 
L 550.134453 129.576837 
L 550.415722 126.720179 
L 550.656567 123.863522 
L 550.863541 121.006864 
L 551.043917 118.150207 
L 551.204978 115.293549 
L 551.353413 112.436892 
L 551.494859 109.580234 
L 551.633651 106.723577 
L 551.77275 103.866919 
L 551.913832 101.010262 
L 552.057462 98.153604 
L 552.203317 95.296947 
L 552.350391 92.440289 
L 552.497148 89.583632 
L 552.641648 86.726974 
L 552.781631 83.870317 
L 552.914615 81.013659 
L 553.038034 78.157002 
L 553.149425 75.300344 
L 553.246669 72.443687 
L 553.328264 69.587029 
L 553.39357 66.730372 
L 553.44299 63.873714 
L 553.478031 61.017057 
L 553.501223 58.160399 
L 553.515895 55.303742 
L 553.525829 52.447084 
L 553.534845 49.590427 
L 553.546382 46.73377 
L 553.563134 43.877112 
L 553.586801 41.020455 
L 554.609563 41.020455 
L 554.609563 41.020455 
L 554.633229 43.877112 
L 554.649982 46.73377 
L 554.661519 49.590427 
L 554.670535 52.447084 
L 554.680468 55.303742 
L 554.69514 58.160399 
L 554.718332 61.017057 
L 554.753373 63.873714 
L 554.802793 66.730372 
L 554.8681 69.587029 
L 554.949695 72.443687 
L 555.046939 75.300344 
L 555.158329 78.157002 
L 555.281748 81.013659 
L 555.414733 83.870317 
L 555.554716 86.726974 
L 555.699216 89.583632 
L 555.845973 92.440289 
L 555.993046 95.296947 
L 556.138902 98.153604 
L 556.282532 101.010262 
L 556.423613 103.866919 
L 556.562713 106.723577 
L 556.701505 109.580234 
L 556.842951 112.436892 
L 556.991386 115.293549 
L 557.152447 118.150207 
L 557.332822 121.006864 
L 557.539796 123.863522 
L 557.780642 126.720179 
L 558.06191 129.576837 
L 558.388713 132.433494 
L 558.764096 135.290152 
L 559.188599 138.146809 
L 559.660079 141.003466 
L 560.173826 143.860124 
L 560.722991 146.716781 
L 561.299279 149.573439 
L 561.893814 152.430096 
L 562.498103 155.286754 
L 563.104947 158.143411 
L 563.70919 161.000069 
L 564.308189 163.856726 
L 564.901937 166.713384 
L 565.492766 169.570041 
L 566.084671 172.426699 
L 566.68229 175.283356 
L 567.289666 178.140014 
L 567.908955 180.996671 
L 568.539249 183.853329 
L 569.175717 186.709986 
L 569.809197 189.566644 
L 570.426347 192.423301 
L 571.010349 195.279959 
L 571.542122 198.136616 
L 572.001871 200.993274 
L 572.37079 203.849931 
L 572.632712 206.706589 
L 572.775502 209.563246 
L 572.792045 212.419904 
L 572.680761 215.276561 
L 572.445607 218.133219 
L 572.095636 220.989876 
L 571.644194 223.846534 
L 571.107862 226.703191 
L 570.505296 229.559848 
L 569.856046 232.416506 
L 569.179466 235.273163 
L 568.493765 238.129821 
L 567.815226 240.986478 
L 567.157603 243.843136 
L 566.531666 246.699793 
L 565.944904 249.556451 
L 565.401363 252.413108 
L 564.901655 255.269766 
L 564.443147 258.126423 
L 564.020376 260.983081 
L 563.62569 263.839738 
L 563.250087 266.696396 
L 562.884181 269.553053 
L 562.519186 272.409711 
L 562.147781 275.266368 
L 561.764735 278.123026 
L 561.36723 280.979683 
L 560.954825 283.836341 
L 560.529146 286.692998 
L 560.093366 289.549656 
L 559.651609 292.406313 
L 559.208396 295.262971 
L 558.76821 298.119628 
L 558.335229 300.976286 
L 557.913216 303.832943 
L 557.505522 306.689601 
L 557.115148 309.546258 
L 556.744805 312.402916 
L 556.396939 315.259573 
L 556.073695 318.11623 
L 555.776838 320.972888 
L 555.507656 323.829545 
z
" clip-path="url(#p327709c601)" style="fill: #1f77b4; fill-opacity: 0.3"/>
   </g>
   <g id="PolyCollection_8">
    <path d="M 639.980671 305.158654 
L 617.766602 305.158654 
L 617.217924 304.343259 
L 616.702242 303.527863 
L 616.226216 302.712468 
L 615.796188 301.897072 
L 615.418043 301.081677 
L 615.097075 300.266281 
L 614.837865 299.450886 
L 614.644172 298.635491 
L 614.518841 297.820095 
L 614.463734 297.0047 
L 614.479686 296.189304 
L 614.56648 295.373909 
L 614.722857 294.558513 
L 614.946541 293.743118 
L 615.234299 292.927722 
L 615.582015 292.112327 
L 615.984788 291.296932 
L 616.437051 290.481536 
L 616.932693 289.666141 
L 617.4652 288.850745 
L 618.027795 288.03535 
L 618.613581 287.219954 
L 619.215675 286.404559 
L 619.827343 285.589164 
L 620.44212 284.773768 
L 621.05391 283.958373 
L 621.657082 283.142977 
L 622.246536 282.327582 
L 622.817763 281.512186 
L 623.366873 280.696791 
L 623.890619 279.881395 
L 624.386386 279.066 
L 624.852186 278.250605 
L 625.286617 277.435209 
L 625.688824 276.619814 
L 626.058448 275.804418 
L 626.39556 274.989023 
L 626.700598 274.173627 
L 626.9743 273.358232 
L 627.217628 272.542837 
L 627.431703 271.727441 
L 627.617734 270.912046 
L 627.776956 270.09665 
L 627.91057 269.281255 
L 628.019688 268.465859 
L 628.105285 267.650464 
L 628.16816 266.835068 
L 628.208898 266.019673 
L 628.227846 265.204278 
L 628.225091 264.388882 
L 628.200451 263.573487 
L 628.153465 262.758091 
L 628.083402 261.942696 
L 627.989269 261.1273 
L 627.869834 260.311905 
L 627.723647 259.49651 
L 627.549085 258.681114 
L 627.34439 257.865719 
L 627.107721 257.050323 
L 626.837221 256.234928 
L 626.531074 255.419532 
L 626.187589 254.604137 
L 625.80527 253.788741 
L 625.382904 252.973346 
L 624.919645 252.157951 
L 624.415097 251.342555 
L 623.869396 250.52716 
L 623.283289 249.711764 
L 622.658201 248.896369 
L 621.996297 248.080973 
L 621.300522 247.265578 
L 620.574637 246.450183 
L 619.823221 245.634787 
L 619.051666 244.819392 
L 618.266141 244.003996 
L 617.473538 243.188601 
L 616.68139 242.373205 
L 615.897768 241.55781 
L 615.131158 240.742414 
L 614.390317 239.927019 
L 613.684113 239.111624 
L 613.021353 238.296228 
L 612.410604 237.480833 
L 611.86001 236.665437 
L 611.377115 235.850042 
L 610.968688 235.034646 
L 610.64057 234.219251 
L 610.397533 233.403856 
L 610.243162 232.58846 
L 610.179773 231.773065 
L 610.20835 230.957669 
L 610.328524 230.142274 
L 610.538576 229.326878 
L 610.835482 228.511483 
L 611.214983 227.696087 
L 611.671687 226.880692 
L 612.199198 226.065297 
L 612.790265 225.249901 
L 613.436946 224.434506 
L 644.310327 224.434506 
L 644.310327 224.434506 
L 644.957008 225.249901 
L 645.548075 226.065297 
L 646.075586 226.880692 
L 646.53229 227.696087 
L 646.911791 228.511483 
L 647.208696 229.326878 
L 647.418749 230.142274 
L 647.538922 230.957669 
L 647.5675 231.773065 
L 647.504111 232.58846 
L 647.34974 233.403856 
L 647.106702 234.219251 
L 646.778584 235.034646 
L 646.370158 235.850042 
L 645.887263 236.665437 
L 645.336669 237.480833 
L 644.725919 238.296228 
L 644.063159 239.111624 
L 643.356955 239.927019 
L 642.616115 240.742414 
L 641.849505 241.55781 
L 641.065883 242.373205 
L 640.273735 243.188601 
L 639.481132 244.003996 
L 638.695607 244.819392 
L 637.924052 245.634787 
L 637.172636 246.450183 
L 636.44675 247.265578 
L 635.750976 248.080973 
L 635.089072 248.896369 
L 634.463984 249.711764 
L 633.877877 250.52716 
L 633.332176 251.342555 
L 632.827627 252.157951 
L 632.364369 252.973346 
L 631.942003 253.788741 
L 631.559684 254.604137 
L 631.216198 255.419532 
L 630.910052 256.234928 
L 630.639551 257.050323 
L 630.402883 257.865719 
L 630.198188 258.681114 
L 630.023626 259.49651 
L 629.877439 260.311905 
L 629.758003 261.1273 
L 629.663871 261.942696 
L 629.593808 262.758091 
L 629.546822 263.573487 
L 629.522181 264.388882 
L 629.519427 265.204278 
L 629.538375 266.019673 
L 629.579113 266.835068 
L 629.641988 267.650464 
L 629.727585 268.465859 
L 629.836702 269.281255 
L 629.970316 270.09665 
L 630.129538 270.912046 
L 630.31557 271.727441 
L 630.529644 272.542837 
L 630.772973 273.358232 
L 631.046675 274.173627 
L 631.351713 274.989023 
L 631.688825 275.804418 
L 632.058448 276.619814 
L 632.460656 277.435209 
L 632.895087 278.250605 
L 633.360886 279.066 
L 633.856654 279.881395 
L 634.380399 280.696791 
L 634.92951 281.512186 
L 635.500737 282.327582 
L 636.090191 283.142977 
L 636.693362 283.958373 
L 637.305152 284.773768 
L 637.919929 285.589164 
L 638.531598 286.404559 
L 639.133692 287.219954 
L 639.719477 288.03535 
L 640.282073 288.850745 
L 640.81458 289.666141 
L 641.310222 290.481536 
L 641.762485 291.296932 
L 642.165258 292.112327 
L 642.512973 292.927722 
L 642.800731 293.743118 
L 643.024416 294.558513 
L 643.180793 295.373909 
L 643.267587 296.189304 
L 643.283539 297.0047 
L 643.228432 297.820095 
L 643.1031 298.635491 
L 642.909407 299.450886 
L 642.650198 300.266281 
L 642.32923 301.081677 
L 641.951085 301.897072 
L 641.521057 302.712468 
L 641.045031 303.527863 
L 640.529349 304.343259 
L 639.980671 305.158654 
z
" clip-path="url(#p327709c601)" style="fill: #1f77b4; fill-opacity: 0.3"/>
   </g>
   <g id="PolyCollection_9">
    <path d="M 705.515028 302.85225 
L 701.783154 302.85225 
L 701.31634 301.50657 
L 700.75717 300.16089 
L 700.097473 298.81521 
L 699.33199 297.469531 
L 698.459539 296.123851 
L 697.484125 294.778171 
L 696.415855 293.432491 
L 695.271527 292.086811 
L 694.074766 290.741131 
L 692.855626 289.395452 
L 691.649601 288.049772 
L 690.496073 286.704092 
L 689.436245 285.358412 
L 688.510735 284.012732 
L 687.756988 282.667053 
L 687.206739 281.321373 
L 686.883773 279.975693 
L 686.802177 278.630013 
L 686.965276 277.284333 
L 687.365355 275.938653 
L 687.984192 274.592974 
L 688.794367 273.247294 
L 689.761181 271.901614 
L 690.845022 270.555934 
L 692.003915 269.210254 
L 693.196017 267.864575 
L 694.381837 266.518895 
L 695.525983 265.173215 
L 696.59833 263.827535 
L 697.574559 262.481855 
L 698.436106 261.136175 
L 699.169596 259.790496 
L 699.765936 258.444816 
L 700.219196 257.099136 
L 700.525501 255.753456 
L 700.682046 254.407776 
L 700.686408 253.062097 
L 700.53623 251.716417 
L 700.229313 250.370737 
L 699.764141 249.025057 
L 699.140759 247.679377 
L 698.361929 246.333697 
L 697.434417 244.988018 
L 696.370257 243.642338 
L 695.18781 242.296658 
L 693.912438 240.950978 
L 692.576642 239.605298 
L 691.219536 238.259619 
L 689.885619 236.913939 
L 688.622845 235.568259 
L 687.480106 234.222579 
L 686.504322 232.876899 
L 685.737372 231.531219 
L 685.213178 230.18554 
L 684.955227 228.83986 
L 684.97482 227.49418 
L 685.270222 226.1485 
L 685.826837 224.80282 
L 686.618383 223.457141 
L 687.608952 222.111461 
L 688.755731 220.765781 
L 690.012092 219.420101 
L 691.330762 218.074421 
L 692.666735 216.728742 
L 693.979719 215.383062 
L 695.235914 214.037382 
L 696.409059 212.691702 
L 697.480746 211.346022 
L 698.440094 210.000342 
L 699.282923 208.654663 
L 700.010599 207.308983 
L 700.628722 205.963303 
L 701.145818 204.617623 
L 701.572148 203.271943 
L 701.918727 201.926264 
L 702.196572 200.580584 
L 702.416189 199.234904 
L 702.587272 197.889224 
L 702.718558 196.543544 
L 702.8178 195.197864 
L 702.891802 193.852185 
L 702.946473 192.506505 
L 702.986886 191.160825 
L 703.017325 189.815145 
L 703.041311 188.469465 
L 703.06163 187.123786 
L 703.080366 185.778106 
L 703.098947 184.432426 
L 703.118224 183.086746 
L 703.138568 181.741066 
L 703.159992 180.395386 
L 703.182282 179.049707 
L 703.20512 177.704027 
L 703.228192 176.358347 
L 703.251262 175.012667 
L 703.274213 173.666987 
L 703.297049 172.321308 
L 703.319866 170.975628 
L 703.342808 169.629948 
L 703.955374 169.629948 
L 703.955374 169.629948 
L 703.978316 170.975628 
L 704.001133 172.321308 
L 704.023969 173.666987 
L 704.04692 175.012667 
L 704.06999 176.358347 
L 704.093062 177.704027 
L 704.1159 179.049707 
L 704.13819 180.395386 
L 704.159614 181.741066 
L 704.179958 183.086746 
L 704.199235 184.432426 
L 704.217816 185.778106 
L 704.236552 187.123786 
L 704.256871 188.469465 
L 704.280857 189.815145 
L 704.311296 191.160825 
L 704.351709 192.506505 
L 704.40638 193.852185 
L 704.480382 195.197864 
L 704.579624 196.543544 
L 704.71091 197.889224 
L 704.881993 199.234904 
L 705.10161 200.580584 
L 705.379455 201.926264 
L 705.726034 203.271943 
L 706.152364 204.617623 
L 706.669459 205.963303 
L 707.287582 207.308983 
L 708.015259 208.654663 
L 708.858088 210.000342 
L 709.817436 211.346022 
L 710.889123 212.691702 
L 712.062267 214.037382 
L 713.318463 215.383062 
L 714.631447 216.728742 
L 715.96742 218.074421 
L 717.286089 219.420101 
L 718.542451 220.765781 
L 719.689229 222.111461 
L 720.679799 223.457141 
L 721.471345 224.80282 
L 722.027959 226.1485 
L 722.323362 227.49418 
L 722.342955 228.83986 
L 722.085004 230.18554 
L 721.560809 231.531219 
L 720.79386 232.876899 
L 719.818076 234.222579 
L 718.675337 235.568259 
L 717.412562 236.913939 
L 716.078646 238.259619 
L 714.72154 239.605298 
L 713.385744 240.950978 
L 712.110372 242.296658 
L 710.927925 243.642338 
L 709.863765 244.988018 
L 708.936253 246.333697 
L 708.157422 247.679377 
L 707.53404 249.025057 
L 707.068868 250.370737 
L 706.761952 251.716417 
L 706.611773 253.062097 
L 706.616136 254.407776 
L 706.772681 255.753456 
L 707.078985 257.099136 
L 707.532246 258.444816 
L 708.128585 259.790496 
L 708.862076 261.136175 
L 709.723623 262.481855 
L 710.699852 263.827535 
L 711.772199 265.173215 
L 712.916344 266.518895 
L 714.102164 267.864575 
L 715.294267 269.210254 
L 716.453159 270.555934 
L 717.537001 271.901614 
L 718.503815 273.247294 
L 719.31399 274.592974 
L 719.932827 275.938653 
L 720.332906 277.284333 
L 720.496005 278.630013 
L 720.414409 279.975693 
L 720.091443 281.321373 
L 719.541194 282.667053 
L 718.787447 284.012732 
L 717.861937 285.358412 
L 716.802109 286.704092 
L 715.64858 288.049772 
L 714.442556 289.395452 
L 713.223416 290.741131 
L 712.026655 292.086811 
L 710.882327 293.432491 
L 709.814057 294.778171 
L 708.838643 296.123851 
L 707.966192 297.469531 
L 707.200709 298.81521 
L 706.541012 300.16089 
L 705.981842 301.50657 
L 705.515028 302.85225 
z
" clip-path="url(#p327709c601)" style="fill: #1f77b4; fill-opacity: 0.3"/>
   </g>
   <g id="PolyCollection_10">
    <path d="M 786.278185 293.187318 
L 770.570906 293.187318 
L 769.732591 292.318672 
L 768.866946 291.450026 
L 767.983147 290.58138 
L 767.091684 289.712735 
L 766.204191 288.844089 
L 765.333226 287.975443 
L 764.491987 287.106797 
L 763.693992 286.238152 
L 762.95271 285.369506 
L 762.281171 284.50086 
L 761.691573 283.632214 
L 761.194888 282.763569 
L 760.800503 281.894923 
L 760.515904 281.026277 
L 760.346414 280.157631 
L 760.295011 279.288986 
L 760.362226 278.42034 
L 760.546133 277.551694 
L 760.842417 276.683048 
L 761.244542 275.814403 
L 761.743981 274.945757 
L 762.330518 274.077111 
L 762.992592 273.208465 
L 763.717676 272.33982 
L 764.492664 271.471174 
L 765.304254 270.602528 
L 766.13931 269.733882 
L 766.985182 268.865237 
L 767.829983 267.996591 
L 768.662806 267.127945 
L 769.473882 266.259299 
L 770.254676 265.390654 
L 770.997925 264.522008 
L 771.697616 263.653362 
L 772.348926 262.784716 
L 772.948112 261.916071 
L 773.492377 261.047425 
L 773.979716 260.178779 
L 774.408747 259.310133 
L 774.778547 258.441488 
L 775.08849 257.572842 
L 775.338096 256.704196 
L 775.526915 255.83555 
L 775.654419 254.966905 
L 775.71994 254.098259 
L 775.722635 253.229613 
L 775.661486 252.360967 
L 775.535344 251.492322 
L 775.343 250.623676 
L 775.083298 249.75503 
L 774.755274 248.886384 
L 774.358325 248.017739 
L 773.892386 247.149093 
L 773.358132 246.280447 
L 772.757171 245.411801 
L 772.092224 244.543156 
L 771.367298 243.67451 
L 770.587811 242.805864 
L 769.760684 241.937218 
L 768.894379 241.068573 
L 767.998876 240.199927 
L 767.085586 239.331281 
L 766.167197 238.462635 
L 765.257455 237.59399 
L 764.370877 236.725344 
L 763.52242 235.856698 
L 762.727096 234.988052 
L 761.999562 234.119407 
L 761.353701 233.250761 
L 760.802199 232.382115 
L 760.35615 231.513469 
L 760.024697 230.644824 
L 759.814736 229.776178 
L 759.730682 228.907532 
L 759.774323 228.038886 
L 759.944764 227.170241 
L 760.238457 226.301595 
L 760.649329 225.432949 
L 761.168989 224.564303 
L 761.78702 223.695658 
L 762.491321 222.827012 
L 763.268508 221.958366 
L 764.104335 221.08972 
L 764.984133 220.221075 
L 765.893234 219.352429 
L 766.817374 218.483783 
L 767.743057 217.615137 
L 768.657864 216.746492 
L 769.550701 215.877846 
L 770.411979 215.0092 
L 771.233733 214.140554 
L 772.009662 213.271909 
L 772.735116 212.403263 
L 773.407023 211.534617 
L 774.023775 210.665971 
L 774.585077 209.797326 
L 775.091765 208.92868 
L 775.545621 208.060034 
L 775.949176 207.191388 
L 780.899915 207.191388 
L 780.899915 207.191388 
L 781.30347 208.060034 
L 781.757326 208.92868 
L 782.264014 209.797326 
L 782.825315 210.665971 
L 783.442068 211.534617 
L 784.113975 212.403263 
L 784.839429 213.271909 
L 785.615357 214.140554 
L 786.437111 215.0092 
L 787.29839 215.877846 
L 788.191227 216.746492 
L 789.106034 217.615137 
L 790.031717 218.483783 
L 790.955857 219.352429 
L 791.864958 220.221075 
L 792.744756 221.08972 
L 793.580583 221.958366 
L 794.35777 222.827012 
L 795.062071 223.695658 
L 795.680101 224.564303 
L 796.199762 225.432949 
L 796.610634 226.301595 
L 796.904327 227.170241 
L 797.074768 228.038886 
L 797.118409 228.907532 
L 797.034355 229.776178 
L 796.824394 230.644824 
L 796.492941 231.513469 
L 796.046892 232.382115 
L 795.49539 233.250761 
L 794.849529 234.119407 
L 794.121995 234.988052 
L 793.326671 235.856698 
L 792.478214 236.725344 
L 791.591636 237.59399 
L 790.681894 238.462635 
L 789.763505 239.331281 
L 788.850215 240.199927 
L 787.954712 241.068573 
L 787.088407 241.937218 
L 786.26128 242.805864 
L 785.481792 243.67451 
L 784.756867 244.543156 
L 784.09192 245.411801 
L 783.490959 246.280447 
L 782.956705 247.149093 
L 782.490766 248.017739 
L 782.093817 248.886384 
L 781.765793 249.75503 
L 781.506091 250.623676 
L 781.313747 251.492322 
L 781.187605 252.360967 
L 781.126456 253.229613 
L 781.129151 254.098259 
L 781.194672 254.966905 
L 781.322176 255.83555 
L 781.510995 256.704196 
L 781.760601 257.572842 
L 782.070544 258.441488 
L 782.440344 259.310133 
L 782.869375 260.178779 
L 783.356714 261.047425 
L 783.900979 261.916071 
L 784.500165 262.784716 
L 785.151475 263.653362 
L 785.851166 264.522008 
L 786.594415 265.390654 
L 787.375209 266.259299 
L 788.186284 267.127945 
L 789.019107 267.996591 
L 789.863909 268.865237 
L 790.709781 269.733882 
L 791.544837 270.602528 
L 792.356427 271.471174 
L 793.131415 272.33982 
L 793.856499 273.208465 
L 794.518573 274.077111 
L 795.105109 274.945757 
L 795.604549 275.814403 
L 796.006674 276.683048 
L 796.302958 277.551694 
L 796.486865 278.42034 
L 796.55408 279.288986 
L 796.502677 280.157631 
L 796.333187 281.026277 
L 796.048588 281.894923 
L 795.654203 282.763569 
L 795.157518 283.632214 
L 794.56792 284.50086 
L 793.896381 285.369506 
L 793.155098 286.238152 
L 792.357104 287.106797 
L 791.515865 287.975443 
L 790.644899 288.844089 
L 789.757407 289.712735 
L 788.865944 290.58138 
L 787.982145 291.450026 
L 787.1165 292.318672 
L 786.278185 293.187318 
z
" clip-path="url(#p327709c601)" style="fill: #1f77b4; fill-opacity: 0.3"/>
   </g>
   <g id="matplotlib.axis_1">
    <g id="xtick_1">
     <g id="line2d_1">
      <defs>
       <path id="m78772b46dc" d="M 0 0 
L 0 3.5 
" style="stroke: #000000; stroke-width: 0.8"/>
      </defs>
      <g>
       <use xlink:href="#m78772b46dc" x="105.445455" y="337.97" style="stroke: #000000; stroke-width: 0.8"/>
      </g>
     </g>
     <g id="text_1">
      <!-- Grudger -->
      <g transform="translate(107.652955 377.89625)rotate(-90)scale(0.08 -0.08)">
       <defs>
        <path id="DejaVuSans-47" d="M 3809 666 
L 3809 1919 
L 2778 1919 
L 2778 2438 
L 4434 2438 
L 4434 434 
Q 4069 175 3628 42 
Q 3188 -91 2688 -91 
Q 1594 -91 976 548 
Q 359 1188 359 2328 
Q 359 3472 976 4111 
Q 1594 4750 2688 4750 
Q 3144 4750 3555 4637 
Q 3966 4525 4313 4306 
L 4313 3634 
Q 3963 3931 3569 4081 
Q 3175 4231 2741 4231 
Q 1884 4231 1454 3753 
Q 1025 3275 1025 2328 
Q 1025 1384 1454 906 
Q 1884 428 2741 428 
Q 3075 428 3337 486 
Q 3600 544 3809 666 
z
" transform="scale(0.015625)"/>
        <path id="DejaVuSans-72" d="M 2631 2963 
Q 2534 3019 2420 3045 
Q 2306 3072 2169 3072 
Q 1681 3072 1420 2755 
Q 1159 2438 1159 1844 
L 1159 0 
L 581 0 
L 581 3500 
L 1159 3500 
L 1159 2956 
Q 1341 3275 1631 3429 
Q 1922 3584 2338 3584 
Q 2397 3584 2469 3576 
Q 2541 3569 2628 3553 
L 2631 2963 
z
" transform="scale(0.015625)"/>
        <path id="DejaVuSans-75" d="M 544 1381 
L 544 3500 
L 1119 3500 
L 1119 1403 
Q 1119 906 1312 657 
Q 1506 409 1894 409 
Q 2359 409 2629 706 
Q 2900 1003 2900 1516 
L 2900 3500 
L 3475 3500 
L 3475 0 
L 2900 0 
L 2900 538 
Q 2691 219 2414 64 
Q 2138 -91 1772 -91 
Q 1169 -91 856 284 
Q 544 659 544 1381 
z
M 1991 3584 
L 1991 3584 
z
" transform="scale(0.015625)"/>
        <path id="DejaVuSans-64" d="M 2906 2969 
L 2906 4863 
L 3481 4863 
L 3481 0 
L 2906 0 
L 2906 525 
Q 2725 213 2448 61 
Q 2172 -91 1784 -91 
Q 1150 -91 751 415 
Q 353 922 353 1747 
Q 353 2572 751 3078 
Q 1150 3584 1784 3584 
Q 2172 3584 2448 3432 
Q 2725 3281 2906 2969 
z
M 947 1747 
Q 947 1113 1208 752 
Q 1469 391 1925 391 
Q 2381 391 2643 752 
Q 2906 1113 2906 1747 
Q 2906 2381 2643 2742 
Q 2381 3103 1925 3103 
Q 1469 3103 1208 2742 
Q 947 2381 947 1747 
z
" transform="scale(0.015625)"/>
        <path id="DejaVuSans-67" d="M 2906 1791 
Q 2906 2416 2648 2759 
Q 2391 3103 1925 3103 
Q 1463 3103 1205 2759 
Q 947 2416 947 1791 
Q 947 1169 1205 825 
Q 1463 481 1925 481 
Q 2391 481 2648 825 
Q 2906 1169 2906 1791 
z
M 3481 434 
Q 3481 -459 3084 -895 
Q 2688 -1331 1869 -1331 
Q 1566 -1331 1297 -1286 
Q 1028 -1241 775 -1147 
L 775 -588 
Q 1028 -725 1275 -790 
Q 1522 -856 1778 -856 
Q 2344 -856 2625 -561 
Q 2906 -266 2906 331 
L 2906 616 
Q 2728 306 2450 153 
Q 2172 0 1784 0 
Q 1141 0 747 490 
Q 353 981 353 1791 
Q 353 2603 747 3093 
Q 1141 3584 1784 3584 
Q 2172 3584 2450 3431 
Q 2728 3278 2906 2969 
L 2906 3500 
L 3481 3500 
L 3481 434 
z
" transform="scale(0.015625)"/>
        <path id="DejaVuSans-65" d="M 3597 1894 
L 3597 1613 
L 953 1613 
Q 991 1019 1311 708 
Q 1631 397 2203 397 
Q 2534 397 2845 478 
Q 3156 559 3463 722 
L 3463 178 
Q 3153 47 2828 -22 
Q 2503 -91 2169 -91 
Q 1331 -91 842 396 
Q 353 884 353 1716 
Q 353 2575 817 3079 
Q 1281 3584 2069 3584 
Q 2775 3584 3186 3129 
Q 3597 2675 3597 1894 
z
M 3022 2063 
Q 3016 2534 2758 2815 
Q 2500 3097 2075 3097 
Q 1594 3097 1305 2825 
Q 1016 2553 972 2059 
L 3022 2063 
z
" transform="scale(0.015625)"/>
       </defs>
       <use xlink:href="#DejaVuSans-47"/>
       <use xlink:href="#DejaVuSans-72" x="77.490234"/>
       <use xlink:href="#DejaVuSans-75" x="118.603516"/>
       <use xlink:href="#DejaVuSans-64" x="181.982422"/>
       <use xlink:href="#DejaVuSans-67" x="245.458984"/>
       <use xlink:href="#DejaVuSans-65" x="308.935547"/>
       <use xlink:href="#DejaVuSans-72" x="370.458984"/>
      </g>
     </g>
    </g>
    <g id="xtick_2">
     <g id="line2d_2">
      <g>
       <use xlink:href="#m78772b46dc" x="180.220909" y="337.97" style="stroke: #000000; stroke-width: 0.8"/>
      </g>
     </g>
     <g id="text_2">
      <!-- Alternator -->
      <g transform="translate(182.428409 385.165)rotate(-90)scale(0.08 -0.08)">
       <defs>
        <path id="DejaVuSans-41" d="M 2188 4044 
L 1331 1722 
L 3047 1722 
L 2188 4044 
z
M 1831 4666 
L 2547 4666 
L 4325 0 
L 3669 0 
L 3244 1197 
L 1141 1197 
L 716 0 
L 50 0 
L 1831 4666 
z
" transform="scale(0.015625)"/>
        <path id="DejaVuSans-6c" d="M 603 4863 
L 1178 4863 
L 1178 0 
L 603 0 
L 603 4863 
z
" transform="scale(0.015625)"/>
        <path id="DejaVuSans-74" d="M 1172 4494 
L 1172 3500 
L 2356 3500 
L 2356 3053 
L 1172 3053 
L 1172 1153 
Q 1172 725 1289 603 
Q 1406 481 1766 481 
L 2356 481 
L 2356 0 
L 1766 0 
Q 1100 0 847 248 
Q 594 497 594 1153 
L 594 3053 
L 172 3053 
L 172 3500 
L 594 3500 
L 594 4494 
L 1172 4494 
z
" transform="scale(0.015625)"/>
        <path id="DejaVuSans-6e" d="M 3513 2113 
L 3513 0 
L 2938 0 
L 2938 2094 
Q 2938 2591 2744 2837 
Q 2550 3084 2163 3084 
Q 1697 3084 1428 2787 
Q 1159 2491 1159 1978 
L 1159 0 
L 581 0 
L 581 3500 
L 1159 3500 
L 1159 2956 
Q 1366 3272 1645 3428 
Q 1925 3584 2291 3584 
Q 2894 3584 3203 3211 
Q 3513 2838 3513 2113 
z
" transform="scale(0.015625)"/>
        <path id="DejaVuSans-61" d="M 2194 1759 
Q 1497 1759 1228 1600 
Q 959 1441 959 1056 
Q 959 750 1161 570 
Q 1363 391 1709 391 
Q 2188 391 2477 730 
Q 2766 1069 2766 1631 
L 2766 1759 
L 2194 1759 
z
M 3341 1997 
L 3341 0 
L 2766 0 
L 2766 531 
Q 2569 213 2275 61 
Q 1981 -91 1556 -91 
Q 1019 -91 701 211 
Q 384 513 384 1019 
Q 384 1609 779 1909 
Q 1175 2209 1959 2209 
L 2766 2209 
L 2766 2266 
Q 2766 2663 2505 2880 
Q 2244 3097 1772 3097 
Q 1472 3097 1187 3025 
Q 903 2953 641 2809 
L 641 3341 
Q 956 3463 1253 3523 
Q 1550 3584 1831 3584 
Q 2591 3584 2966 3190 
Q 3341 2797 3341 1997 
z
" transform="scale(0.015625)"/>
        <path id="DejaVuSans-6f" d="M 1959 3097 
Q 1497 3097 1228 2736 
Q 959 2375 959 1747 
Q 959 1119 1226 758 
Q 1494 397 1959 397 
Q 2419 397 2687 759 
Q 2956 1122 2956 1747 
Q 2956 2369 2687 2733 
Q 2419 3097 1959 3097 
z
M 1959 3584 
Q 2709 3584 3137 3096 
Q 3566 2609 3566 1747 
Q 3566 888 3137 398 
Q 2709 -91 1959 -91 
Q 1206 -91 779 398 
Q 353 888 353 1747 
Q 353 2609 779 3096 
Q 1206 3584 1959 3584 
z
" transform="scale(0.015625)"/>
       </defs>
       <use xlink:href="#DejaVuSans-41"/>
       <use xlink:href="#DejaVuSans-6c" x="68.408203"/>
       <use xlink:href="#DejaVuSans-74" x="96.191406"/>
       <use xlink:href="#DejaVuSans-65" x="135.400391"/>
       <use xlink:href="#DejaVuSans-72" x="196.923828"/>
       <use xlink:href="#DejaVuSans-6e" x="236.287109"/>
       <use xlink:href="#DejaVuSans-61" x="299.666016"/>
       <use xlink:href="#DejaVuSans-74" x="360.945312"/>
       <use xlink:href="#DejaVuSans-6f" x="400.154297"/>
       <use xlink:href="#DejaVuSans-72" x="461.335938"/>
      </g>
     </g>
    </g>
    <g id="xtick_3">
     <g id="line2d_3">
      <g>
       <use xlink:href="#m78772b46dc" x="254.996364" y="337.97" style="stroke: #000000; stroke-width: 0.8"/>
      </g>
     </g>
     <g id="text_3">
      <!-- Tit For Tat -->
      <g transform="translate(257.203864 384.15)rotate(-90)scale(0.08 -0.08)">
       <defs>
        <path id="DejaVuSans-54" d="M -19 4666 
L 3928 4666 
L 3928 4134 
L 2272 4134 
L 2272 0 
L 1638 0 
L 1638 4134 
L -19 4134 
L -19 4666 
z
" transform="scale(0.015625)"/>
        <path id="DejaVuSans-69" d="M 603 3500 
L 1178 3500 
L 1178 0 
L 603 0 
L 603 3500 
z
M 603 4863 
L 1178 4863 
L 1178 4134 
L 603 4134 
L 603 4863 
z
" transform="scale(0.015625)"/>
        <path id="DejaVuSans-20" transform="scale(0.015625)"/>
        <path id="DejaVuSans-46" d="M 628 4666 
L 3309 4666 
L 3309 4134 
L 1259 4134 
L 1259 2759 
L 3109 2759 
L 3109 2228 
L 1259 2228 
L 1259 0 
L 628 0 
L 628 4666 
z
" transform="scale(0.015625)"/>
       </defs>
       <use xlink:href="#DejaVuSans-54"/>
       <use xlink:href="#DejaVuSans-69" x="57.958984"/>
       <use xlink:href="#DejaVuSans-74" x="85.742188"/>
       <use xlink:href="#DejaVuSans-20" x="124.951172"/>
       <use xlink:href="#DejaVuSans-46" x="156.738281"/>
       <use xlink:href="#DejaVuSans-6f" x="210.632812"/>
       <use xlink:href="#DejaVuSans-72" x="271.814453"/>
       <use xlink:href="#DejaVuSans-20" x="312.927734"/>
       <use xlink:href="#DejaVuSans-54" x="344.714844"/>
       <use xlink:href="#DejaVuSans-61" x="389.298828"/>
       <use xlink:href="#DejaVuSans-74" x="450.578125"/>
      </g>
     </g>
    </g>
    <g id="xtick_4">
     <g id="line2d_4">
      <g>
       <use xlink:href="#m78772b46dc" x="329.771818" y="337.97" style="stroke: #000000; stroke-width: 0.8"/>
      </g>
     </g>
     <g id="text_4">
      <!-- Random: 0.5 -->
      <g transform="translate(331.979318 396.0475)rotate(-90)scale(0.08 -0.08)">
       <defs>
        <path id="DejaVuSans-52" d="M 2841 2188 
Q 3044 2119 3236 1894 
Q 3428 1669 3622 1275 
L 4263 0 
L 3584 0 
L 2988 1197 
Q 2756 1666 2539 1819 
Q 2322 1972 1947 1972 
L 1259 1972 
L 1259 0 
L 628 0 
L 628 4666 
L 2053 4666 
Q 2853 4666 3247 4331 
Q 3641 3997 3641 3322 
Q 3641 2881 3436 2590 
Q 3231 2300 2841 2188 
z
M 1259 4147 
L 1259 2491 
L 2053 2491 
Q 2509 2491 2742 2702 
Q 2975 2913 2975 3322 
Q 2975 3731 2742 3939 
Q 2509 4147 2053 4147 
L 1259 4147 
z
" transform="scale(0.015625)"/>
        <path id="DejaVuSans-6d" d="M 3328 2828 
Q 3544 3216 3844 3400 
Q 4144 3584 4550 3584 
Q 5097 3584 5394 3201 
Q 5691 2819 5691 2113 
L 5691 0 
L 5113 0 
L 5113 2094 
Q 5113 2597 4934 2840 
Q 4756 3084 4391 3084 
Q 3944 3084 3684 2787 
Q 3425 2491 3425 1978 
L 3425 0 
L 2847 0 
L 2847 2094 
Q 2847 2600 2669 2842 
Q 2491 3084 2119 3084 
Q 1678 3084 1418 2786 
Q 1159 2488 1159 1978 
L 1159 0 
L 581 0 
L 581 3500 
L 1159 3500 
L 1159 2956 
Q 1356 3278 1631 3431 
Q 1906 3584 2284 3584 
Q 2666 3584 2933 3390 
Q 3200 3197 3328 2828 
z
" transform="scale(0.015625)"/>
        <path id="DejaVuSans-3a" d="M 750 794 
L 1409 794 
L 1409 0 
L 750 0 
L 750 794 
z
M 750 3309 
L 1409 3309 
L 1409 2516 
L 750 2516 
L 750 3309 
z
" transform="scale(0.015625)"/>
        <path id="DejaVuSans-30" d="M 2034 4250 
Q 1547 4250 1301 3770 
Q 1056 3291 1056 2328 
Q 1056 1369 1301 889 
Q 1547 409 2034 409 
Q 2525 409 2770 889 
Q 3016 1369 3016 2328 
Q 3016 3291 2770 3770 
Q 2525 4250 2034 4250 
z
M 2034 4750 
Q 2819 4750 3233 4129 
Q 3647 3509 3647 2328 
Q 3647 1150 3233 529 
Q 2819 -91 2034 -91 
Q 1250 -91 836 529 
Q 422 1150 422 2328 
Q 422 3509 836 4129 
Q 1250 4750 2034 4750 
z
" transform="scale(0.015625)"/>
        <path id="DejaVuSans-2e" d="M 684 794 
L 1344 794 
L 1344 0 
L 684 0 
L 684 794 
z
" transform="scale(0.015625)"/>
        <path id="DejaVuSans-35" d="M 691 4666 
L 3169 4666 
L 3169 4134 
L 1269 4134 
L 1269 2991 
Q 1406 3038 1543 3061 
Q 1681 3084 1819 3084 
Q 2600 3084 3056 2656 
Q 3513 2228 3513 1497 
Q 3513 744 3044 326 
Q 2575 -91 1722 -91 
Q 1428 -91 1123 -41 
Q 819 9 494 109 
L 494 744 
Q 775 591 1075 516 
Q 1375 441 1709 441 
Q 2250 441 2565 725 
Q 2881 1009 2881 1497 
Q 2881 1984 2565 2268 
Q 2250 2553 1709 2553 
Q 1456 2553 1204 2497 
Q 953 2441 691 2322 
L 691 4666 
z
" transform="scale(0.015625)"/>
       </defs>
       <use xlink:href="#DejaVuSans-52"/>
       <use xlink:href="#DejaVuSans-61" x="67.232422"/>
       <use xlink:href="#DejaVuSans-6e" x="128.511719"/>
       <use xlink:href="#DejaVuSans-64" x="191.890625"/>
       <use xlink:href="#DejaVuSans-6f" x="255.367188"/>
       <use xlink:href="#DejaVuSans-6d" x="316.548828"/>
       <use xlink:href="#DejaVuSans-3a" x="413.960938"/>
       <use xlink:href="#DejaVuSans-20" x="447.652344"/>
       <use xlink:href="#DejaVuSans-30" x="479.439453"/>
       <use xlink:href="#DejaVuSans-2e" x="543.0625"/>
       <use xlink:href="#DejaVuSans-35" x="574.849609"/>
      </g>
     </g>
    </g>
    <g id="xtick_5">
     <g id="line2d_5">
      <g>
       <use xlink:href="#m78772b46dc" x="404.547273" y="337.97" style="stroke: #000000; stroke-width: 0.8"/>
      </g>
     </g>
     <g id="text_5">
      <!-- Adaptive -->
      <g transform="translate(406.754773 380.37875)rotate(-90)scale(0.08 -0.08)">
       <defs>
        <path id="DejaVuSans-70" d="M 1159 525 
L 1159 -1331 
L 581 -1331 
L 581 3500 
L 1159 3500 
L 1159 2969 
Q 1341 3281 1617 3432 
Q 1894 3584 2278 3584 
Q 2916 3584 3314 3078 
Q 3713 2572 3713 1747 
Q 3713 922 3314 415 
Q 2916 -91 2278 -91 
Q 1894 -91 1617 61 
Q 1341 213 1159 525 
z
M 3116 1747 
Q 3116 2381 2855 2742 
Q 2594 3103 2138 3103 
Q 1681 3103 1420 2742 
Q 1159 2381 1159 1747 
Q 1159 1113 1420 752 
Q 1681 391 2138 391 
Q 2594 391 2855 752 
Q 3116 1113 3116 1747 
z
" transform="scale(0.015625)"/>
        <path id="DejaVuSans-76" d="M 191 3500 
L 800 3500 
L 1894 563 
L 2988 3500 
L 3597 3500 
L 2284 0 
L 1503 0 
L 191 3500 
z
" transform="scale(0.015625)"/>
       </defs>
       <use xlink:href="#DejaVuSans-41"/>
       <use xlink:href="#DejaVuSans-64" x="66.658203"/>
       <use xlink:href="#DejaVuSans-61" x="130.134766"/>
       <use xlink:href="#DejaVuSans-70" x="191.414062"/>
       <use xlink:href="#DejaVuSans-74" x="254.890625"/>
       <use xlink:href="#DejaVuSans-69" x="294.099609"/>
       <use xlink:href="#DejaVuSans-76" x="321.882812"/>
       <use xlink:href="#DejaVuSans-65" x="381.0625"/>
      </g>
     </g>
    </g>
    <g id="xtick_6">
     <g id="line2d_6">
      <g>
       <use xlink:href="#m78772b46dc" x="479.322727" y="337.97" style="stroke: #000000; stroke-width: 0.8"/>
      </g>
     </g>
     <g id="text_6">
      <!-- Defector -->
      <g transform="translate(481.530227 379.51)rotate(-90)scale(0.08 -0.08)">
       <defs>
        <path id="DejaVuSans-44" d="M 1259 4147 
L 1259 519 
L 2022 519 
Q 2988 519 3436 956 
Q 3884 1394 3884 2338 
Q 3884 3275 3436 3711 
Q 2988 4147 2022 4147 
L 1259 4147 
z
M 628 4666 
L 1925 4666 
Q 3281 4666 3915 4102 
Q 4550 3538 4550 2338 
Q 4550 1131 3912 565 
Q 3275 0 1925 0 
L 628 0 
L 628 4666 
z
" transform="scale(0.015625)"/>
        <path id="DejaVuSans-66" d="M 2375 4863 
L 2375 4384 
L 1825 4384 
Q 1516 4384 1395 4259 
Q 1275 4134 1275 3809 
L 1275 3500 
L 2222 3500 
L 2222 3053 
L 1275 3053 
L 1275 0 
L 697 0 
L 697 3053 
L 147 3053 
L 147 3500 
L 697 3500 
L 697 3744 
Q 697 4328 969 4595 
Q 1241 4863 1831 4863 
L 2375 4863 
z
" transform="scale(0.015625)"/>
        <path id="DejaVuSans-63" d="M 3122 3366 
L 3122 2828 
Q 2878 2963 2633 3030 
Q 2388 3097 2138 3097 
Q 1578 3097 1268 2742 
Q 959 2388 959 1747 
Q 959 1106 1268 751 
Q 1578 397 2138 397 
Q 2388 397 2633 464 
Q 2878 531 3122 666 
L 3122 134 
Q 2881 22 2623 -34 
Q 2366 -91 2075 -91 
Q 1284 -91 818 406 
Q 353 903 353 1747 
Q 353 2603 823 3093 
Q 1294 3584 2113 3584 
Q 2378 3584 2631 3529 
Q 2884 3475 3122 3366 
z
" transform="scale(0.015625)"/>
       </defs>
       <use xlink:href="#DejaVuSans-44"/>
       <use xlink:href="#DejaVuSans-65" x="77.001953"/>
       <use xlink:href="#DejaVuSans-66" x="138.525391"/>
       <use xlink:href="#DejaVuSans-65" x="173.730469"/>
       <use xlink:href="#DejaVuSans-63" x="235.253906"/>
       <use xlink:href="#DejaVuSans-74" x="290.234375"/>
       <use xlink:href="#DejaVuSans-6f" x="329.443359"/>
       <use xlink:href="#DejaVuSans-72" x="390.625"/>
      </g>
     </g>
    </g>
    <g id="xtick_7">
     <g id="line2d_7">
      <g>
       <use xlink:href="#m78772b46dc" x="554.098182" y="337.97" style="stroke: #000000; stroke-width: 0.8"/>
      </g>
     </g>
     <g id="text_7">
      <!-- Deep QLearner -->
      <g transform="translate(556.305682 405.46625)rotate(-90)scale(0.08 -0.08)">
       <defs>
        <path id="DejaVuSans-51" d="M 2522 4238 
Q 1834 4238 1429 3725 
Q 1025 3213 1025 2328 
Q 1025 1447 1429 934 
Q 1834 422 2522 422 
Q 3209 422 3611 934 
Q 4013 1447 4013 2328 
Q 4013 3213 3611 3725 
Q 3209 4238 2522 4238 
z
M 3406 84 
L 4238 -825 
L 3475 -825 
L 2784 -78 
Q 2681 -84 2626 -87 
Q 2572 -91 2522 -91 
Q 1538 -91 948 567 
Q 359 1225 359 2328 
Q 359 3434 948 4092 
Q 1538 4750 2522 4750 
Q 3503 4750 4090 4092 
Q 4678 3434 4678 2328 
Q 4678 1516 4351 937 
Q 4025 359 3406 84 
z
" transform="scale(0.015625)"/>
        <path id="DejaVuSans-4c" d="M 628 4666 
L 1259 4666 
L 1259 531 
L 3531 531 
L 3531 0 
L 628 0 
L 628 4666 
z
" transform="scale(0.015625)"/>
       </defs>
       <use xlink:href="#DejaVuSans-44"/>
       <use xlink:href="#DejaVuSans-65" x="77.001953"/>
       <use xlink:href="#DejaVuSans-65" x="138.525391"/>
       <use xlink:href="#DejaVuSans-70" x="200.048828"/>
       <use xlink:href="#DejaVuSans-20" x="263.525391"/>
       <use xlink:href="#DejaVuSans-51" x="295.3125"/>
       <use xlink:href="#DejaVuSans-4c" x="374.023438"/>
       <use xlink:href="#DejaVuSans-65" x="427.986328"/>
       <use xlink:href="#DejaVuSans-61" x="489.509766"/>
       <use xlink:href="#DejaVuSans-72" x="550.789062"/>
       <use xlink:href="#DejaVuSans-6e" x="590.152344"/>
       <use xlink:href="#DejaVuSans-65" x="653.53125"/>
       <use xlink:href="#DejaVuSans-72" x="715.054688"/>
      </g>
     </g>
    </g>
    <g id="xtick_8">
     <g id="line2d_8">
      <g>
       <use xlink:href="#m78772b46dc" x="628.873636" y="337.97" style="stroke: #000000; stroke-width: 0.8"/>
      </g>
     </g>
     <g id="text_8">
      <!-- Cooperator -->
      <g transform="translate(631.081136 389.85875)rotate(-90)scale(0.08 -0.08)">
       <defs>
        <path id="DejaVuSans-43" d="M 4122 4306 
L 4122 3641 
Q 3803 3938 3442 4084 
Q 3081 4231 2675 4231 
Q 1875 4231 1450 3742 
Q 1025 3253 1025 2328 
Q 1025 1406 1450 917 
Q 1875 428 2675 428 
Q 3081 428 3442 575 
Q 3803 722 4122 1019 
L 4122 359 
Q 3791 134 3420 21 
Q 3050 -91 2638 -91 
Q 1578 -91 968 557 
Q 359 1206 359 2328 
Q 359 3453 968 4101 
Q 1578 4750 2638 4750 
Q 3056 4750 3426 4639 
Q 3797 4528 4122 4306 
z
" transform="scale(0.015625)"/>
       </defs>
       <use xlink:href="#DejaVuSans-43"/>
       <use xlink:href="#DejaVuSans-6f" x="69.824219"/>
       <use xlink:href="#DejaVuSans-6f" x="131.005859"/>
       <use xlink:href="#DejaVuSans-70" x="192.1875"/>
       <use xlink:href="#DejaVuSans-65" x="255.664062"/>
       <use xlink:href="#DejaVuSans-72" x="317.1875"/>
       <use xlink:href="#DejaVuSans-61" x="358.300781"/>
       <use xlink:href="#DejaVuSans-74" x="419.580078"/>
       <use xlink:href="#DejaVuSans-6f" x="458.789062"/>
       <use xlink:href="#DejaVuSans-72" x="519.970703"/>
      </g>
     </g>
    </g>
    <g id="xtick_9">
     <g id="line2d_9">
      <g>
       <use xlink:href="#m78772b46dc" x="703.649091" y="337.97" style="stroke: #000000; stroke-width: 0.8"/>
      </g>
     </g>
     <g id="text_9">
      <!-- Mediocre QLearner -->
      <g transform="translate(705.856591 420.83375)rotate(-90)scale(0.08 -0.08)">
       <defs>
        <path id="DejaVuSans-4d" d="M 628 4666 
L 1569 4666 
L 2759 1491 
L 3956 4666 
L 4897 4666 
L 4897 0 
L 4281 0 
L 4281 4097 
L 3078 897 
L 2444 897 
L 1241 4097 
L 1241 0 
L 628 0 
L 628 4666 
z
" transform="scale(0.015625)"/>
       </defs>
       <use xlink:href="#DejaVuSans-4d"/>
       <use xlink:href="#DejaVuSans-65" x="86.279297"/>
       <use xlink:href="#DejaVuSans-64" x="147.802734"/>
       <use xlink:href="#DejaVuSans-69" x="211.279297"/>
       <use xlink:href="#DejaVuSans-6f" x="239.0625"/>
       <use xlink:href="#DejaVuSans-63" x="300.244141"/>
       <use xlink:href="#DejaVuSans-72" x="355.224609"/>
       <use xlink:href="#DejaVuSans-65" x="394.087891"/>
       <use xlink:href="#DejaVuSans-20" x="455.611328"/>
       <use xlink:href="#DejaVuSans-51" x="487.398438"/>
       <use xlink:href="#DejaVuSans-4c" x="566.109375"/>
       <use xlink:href="#DejaVuSans-65" x="620.072266"/>
       <use xlink:href="#DejaVuSans-61" x="681.595703"/>
       <use xlink:href="#DejaVuSans-72" x="742.875"/>
       <use xlink:href="#DejaVuSans-6e" x="782.238281"/>
       <use xlink:href="#DejaVuSans-65" x="845.617188"/>
       <use xlink:href="#DejaVuSans-72" x="907.140625"/>
      </g>
     </g>
    </g>
    <g id="xtick_10">
     <g id="line2d_10">
      <g>
       <use xlink:href="#m78772b46dc" x="778.424545" y="337.97" style="stroke: #000000; stroke-width: 0.8"/>
      </g>
     </g>
     <g id="text_10">
      <!-- Risky QLearner -->
      <g transform="translate(780.632045 405.40875)rotate(-90)scale(0.08 -0.08)">
       <defs>
        <path id="DejaVuSans-73" d="M 2834 3397 
L 2834 2853 
Q 2591 2978 2328 3040 
Q 2066 3103 1784 3103 
Q 1356 3103 1142 2972 
Q 928 2841 928 2578 
Q 928 2378 1081 2264 
Q 1234 2150 1697 2047 
L 1894 2003 
Q 2506 1872 2764 1633 
Q 3022 1394 3022 966 
Q 3022 478 2636 193 
Q 2250 -91 1575 -91 
Q 1294 -91 989 -36 
Q 684 19 347 128 
L 347 722 
Q 666 556 975 473 
Q 1284 391 1588 391 
Q 1994 391 2212 530 
Q 2431 669 2431 922 
Q 2431 1156 2273 1281 
Q 2116 1406 1581 1522 
L 1381 1569 
Q 847 1681 609 1914 
Q 372 2147 372 2553 
Q 372 3047 722 3315 
Q 1072 3584 1716 3584 
Q 2034 3584 2315 3537 
Q 2597 3491 2834 3397 
z
" transform="scale(0.015625)"/>
        <path id="DejaVuSans-6b" d="M 581 4863 
L 1159 4863 
L 1159 1991 
L 2875 3500 
L 3609 3500 
L 1753 1863 
L 3688 0 
L 2938 0 
L 1159 1709 
L 1159 0 
L 581 0 
L 581 4863 
z
" transform="scale(0.015625)"/>
        <path id="DejaVuSans-79" d="M 2059 -325 
Q 1816 -950 1584 -1140 
Q 1353 -1331 966 -1331 
L 506 -1331 
L 506 -850 
L 844 -850 
Q 1081 -850 1212 -737 
Q 1344 -625 1503 -206 
L 1606 56 
L 191 3500 
L 800 3500 
L 1894 763 
L 2988 3500 
L 3597 3500 
L 2059 -325 
z
" transform="scale(0.015625)"/>
       </defs>
       <use xlink:href="#DejaVuSans-52"/>
       <use xlink:href="#DejaVuSans-69" x="69.482422"/>
       <use xlink:href="#DejaVuSans-73" x="97.265625"/>
       <use xlink:href="#DejaVuSans-6b" x="149.365234"/>
       <use xlink:href="#DejaVuSans-79" x="203.650391"/>
       <use xlink:href="#DejaVuSans-20" x="262.830078"/>
       <use xlink:href="#DejaVuSans-51" x="294.617188"/>
       <use xlink:href="#DejaVuSans-4c" x="373.328125"/>
       <use xlink:href="#DejaVuSans-65" x="427.291016"/>
       <use xlink:href="#DejaVuSans-61" x="488.814453"/>
       <use xlink:href="#DejaVuSans-72" x="550.09375"/>
       <use xlink:href="#DejaVuSans-6e" x="589.457031"/>
       <use xlink:href="#DejaVuSans-65" x="652.835938"/>
       <use xlink:href="#DejaVuSans-72" x="714.359375"/>
      </g>
     </g>
    </g>
   </g>
   <g id="matplotlib.axis_2">
    <g id="ytick_1">
     <g id="line2d_11">
      <defs>
       <path id="m53aa92841f" d="M 0 0 
L -3.5 0 
" style="stroke: #000000; stroke-width: 0.8"/>
      </defs>
      <g>
       <use xlink:href="#m53aa92841f" x="30.67" y="306.147113" style="stroke: #000000; stroke-width: 0.8"/>
      </g>
     </g>
     <g id="text_11">
      <!-- 1.6 -->
      <g transform="translate(10.9475 309.186488)scale(0.08 -0.08)">
       <defs>
        <path id="DejaVuSans-31" d="M 794 531 
L 1825 531 
L 1825 4091 
L 703 3866 
L 703 4441 
L 1819 4666 
L 2450 4666 
L 2450 531 
L 3481 531 
L 3481 0 
L 794 0 
L 794 531 
z
" transform="scale(0.015625)"/>
        <path id="DejaVuSans-36" d="M 2113 2584 
Q 1688 2584 1439 2293 
Q 1191 2003 1191 1497 
Q 1191 994 1439 701 
Q 1688 409 2113 409 
Q 2538 409 2786 701 
Q 3034 994 3034 1497 
Q 3034 2003 2786 2293 
Q 2538 2584 2113 2584 
z
M 3366 4563 
L 3366 3988 
Q 3128 4100 2886 4159 
Q 2644 4219 2406 4219 
Q 1781 4219 1451 3797 
Q 1122 3375 1075 2522 
Q 1259 2794 1537 2939 
Q 1816 3084 2150 3084 
Q 2853 3084 3261 2657 
Q 3669 2231 3669 1497 
Q 3669 778 3244 343 
Q 2819 -91 2113 -91 
Q 1303 -91 875 529 
Q 447 1150 447 2328 
Q 447 3434 972 4092 
Q 1497 4750 2381 4750 
Q 2619 4750 2861 4703 
Q 3103 4656 3366 4563 
z
" transform="scale(0.015625)"/>
       </defs>
       <use xlink:href="#DejaVuSans-31"/>
       <use xlink:href="#DejaVuSans-2e" x="63.623047"/>
       <use xlink:href="#DejaVuSans-36" x="95.410156"/>
      </g>
     </g>
    </g>
    <g id="ytick_2">
     <g id="line2d_12">
      <g>
       <use xlink:href="#m53aa92841f" x="30.67" y="266.608755" style="stroke: #000000; stroke-width: 0.8"/>
      </g>
     </g>
     <g id="text_12">
      <!-- 1.8 -->
      <g transform="translate(10.9475 269.64813)scale(0.08 -0.08)">
       <defs>
        <path id="DejaVuSans-38" d="M 2034 2216 
Q 1584 2216 1326 1975 
Q 1069 1734 1069 1313 
Q 1069 891 1326 650 
Q 1584 409 2034 409 
Q 2484 409 2743 651 
Q 3003 894 3003 1313 
Q 3003 1734 2745 1975 
Q 2488 2216 2034 2216 
z
M 1403 2484 
Q 997 2584 770 2862 
Q 544 3141 544 3541 
Q 544 4100 942 4425 
Q 1341 4750 2034 4750 
Q 2731 4750 3128 4425 
Q 3525 4100 3525 3541 
Q 3525 3141 3298 2862 
Q 3072 2584 2669 2484 
Q 3125 2378 3379 2068 
Q 3634 1759 3634 1313 
Q 3634 634 3220 271 
Q 2806 -91 2034 -91 
Q 1263 -91 848 271 
Q 434 634 434 1313 
Q 434 1759 690 2068 
Q 947 2378 1403 2484 
z
M 1172 3481 
Q 1172 3119 1398 2916 
Q 1625 2713 2034 2713 
Q 2441 2713 2670 2916 
Q 2900 3119 2900 3481 
Q 2900 3844 2670 4047 
Q 2441 4250 2034 4250 
Q 1625 4250 1398 4047 
Q 1172 3844 1172 3481 
z
" transform="scale(0.015625)"/>
       </defs>
       <use xlink:href="#DejaVuSans-31"/>
       <use xlink:href="#DejaVuSans-2e" x="63.623047"/>
       <use xlink:href="#DejaVuSans-38" x="95.410156"/>
      </g>
     </g>
    </g>
    <g id="ytick_3">
     <g id="line2d_13">
      <g>
       <use xlink:href="#m53aa92841f" x="30.67" y="227.070396" style="stroke: #000000; stroke-width: 0.8"/>
      </g>
     </g>
     <g id="text_13">
      <!-- 2.0 -->
      <g transform="translate(10.9475 230.109771)scale(0.08 -0.08)">
       <defs>
        <path id="DejaVuSans-32" d="M 1228 531 
L 3431 531 
L 3431 0 
L 469 0 
L 469 531 
Q 828 903 1448 1529 
Q 2069 2156 2228 2338 
Q 2531 2678 2651 2914 
Q 2772 3150 2772 3378 
Q 2772 3750 2511 3984 
Q 2250 4219 1831 4219 
Q 1534 4219 1204 4116 
Q 875 4013 500 3803 
L 500 4441 
Q 881 4594 1212 4672 
Q 1544 4750 1819 4750 
Q 2544 4750 2975 4387 
Q 3406 4025 3406 3419 
Q 3406 3131 3298 2873 
Q 3191 2616 2906 2266 
Q 2828 2175 2409 1742 
Q 1991 1309 1228 531 
z
" transform="scale(0.015625)"/>
       </defs>
       <use xlink:href="#DejaVuSans-32"/>
       <use xlink:href="#DejaVuSans-2e" x="63.623047"/>
       <use xlink:href="#DejaVuSans-30" x="95.410156"/>
      </g>
     </g>
    </g>
    <g id="ytick_4">
     <g id="line2d_14">
      <g>
       <use xlink:href="#m53aa92841f" x="30.67" y="187.532038" style="stroke: #000000; stroke-width: 0.8"/>
      </g>
     </g>
     <g id="text_14">
      <!-- 2.2 -->
      <g transform="translate(10.9475 190.571413)scale(0.08 -0.08)">
       <use xlink:href="#DejaVuSans-32"/>
       <use xlink:href="#DejaVuSans-2e" x="63.623047"/>
       <use xlink:href="#DejaVuSans-32" x="95.410156"/>
      </g>
     </g>
    </g>
    <g id="ytick_5">
     <g id="line2d_15">
      <g>
       <use xlink:href="#m53aa92841f" x="30.67" y="147.99368" style="stroke: #000000; stroke-width: 0.8"/>
      </g>
     </g>
     <g id="text_15">
      <!-- 2.4 -->
      <g transform="translate(10.9475 151.033055)scale(0.08 -0.08)">
       <defs>
        <path id="DejaVuSans-34" d="M 2419 4116 
L 825 1625 
L 2419 1625 
L 2419 4116 
z
M 2253 4666 
L 3047 4666 
L 3047 1625 
L 3713 1625 
L 3713 1100 
L 3047 1100 
L 3047 0 
L 2419 0 
L 2419 1100 
L 313 1100 
L 313 1709 
L 2253 4666 
z
" transform="scale(0.015625)"/>
       </defs>
       <use xlink:href="#DejaVuSans-32"/>
       <use xlink:href="#DejaVuSans-2e" x="63.623047"/>
       <use xlink:href="#DejaVuSans-34" x="95.410156"/>
      </g>
     </g>
    </g>
    <g id="ytick_6">
     <g id="line2d_16">
      <g>
       <use xlink:href="#m53aa92841f" x="30.67" y="108.455321" style="stroke: #000000; stroke-width: 0.8"/>
      </g>
     </g>
     <g id="text_16">
      <!-- 2.6 -->
      <g transform="translate(10.9475 111.494696)scale(0.08 -0.08)">
       <use xlink:href="#DejaVuSans-32"/>
       <use xlink:href="#DejaVuSans-2e" x="63.623047"/>
       <use xlink:href="#DejaVuSans-36" x="95.410156"/>
      </g>
     </g>
    </g>
    <g id="ytick_7">
     <g id="line2d_17">
      <g>
       <use xlink:href="#m53aa92841f" x="30.67" y="68.916963" style="stroke: #000000; stroke-width: 0.8"/>
      </g>
     </g>
     <g id="text_17">
      <!-- 2.8 -->
      <g transform="translate(10.9475 71.956338)scale(0.08 -0.08)">
       <use xlink:href="#DejaVuSans-32"/>
       <use xlink:href="#DejaVuSans-2e" x="63.623047"/>
       <use xlink:href="#DejaVuSans-38" x="95.410156"/>
      </g>
     </g>
    </g>
    <g id="ytick_8">
     <g id="line2d_18">
      <g>
       <use xlink:href="#m53aa92841f" x="30.67" y="29.378605" style="stroke: #000000; stroke-width: 0.8"/>
      </g>
     </g>
     <g id="text_18">
      <!-- 3.0 -->
      <g transform="translate(10.9475 32.41798)scale(0.08 -0.08)">
       <defs>
        <path id="DejaVuSans-33" d="M 2597 2516 
Q 3050 2419 3304 2112 
Q 3559 1806 3559 1356 
Q 3559 666 3084 287 
Q 2609 -91 1734 -91 
Q 1441 -91 1130 -33 
Q 819 25 488 141 
L 488 750 
Q 750 597 1062 519 
Q 1375 441 1716 441 
Q 2309 441 2620 675 
Q 2931 909 2931 1356 
Q 2931 1769 2642 2001 
Q 2353 2234 1838 2234 
L 1294 2234 
L 1294 2753 
L 1863 2753 
Q 2328 2753 2575 2939 
Q 2822 3125 2822 3475 
Q 2822 3834 2567 4026 
Q 2313 4219 1838 4219 
Q 1578 4219 1281 4162 
Q 984 4106 628 3988 
L 628 4550 
Q 988 4650 1302 4700 
Q 1616 4750 1894 4750 
Q 2613 4750 3031 4423 
Q 3450 4097 3450 3541 
Q 3450 3153 3228 2886 
Q 3006 2619 2597 2516 
z
" transform="scale(0.015625)"/>
       </defs>
       <use xlink:href="#DejaVuSans-33"/>
       <use xlink:href="#DejaVuSans-2e" x="63.623047"/>
       <use xlink:href="#DejaVuSans-30" x="95.410156"/>
      </g>
     </g>
    </g>
   </g>
   <g id="LineCollection_1">
    <path d="M 96.098523 112.958301 
L 114.792386 112.958301 
" clip-path="url(#p327709c601)" style="fill: none; stroke: #1f77b4; stroke-width: 1.5"/>
    <path d="M 170.873977 144.918474 
L 189.567841 144.918474 
" clip-path="url(#p327709c601)" style="fill: none; stroke: #1f77b4; stroke-width: 1.5"/>
    <path d="M 245.649432 145.24796 
L 264.343295 145.24796 
" clip-path="url(#p327709c601)" style="fill: none; stroke: #1f77b4; stroke-width: 1.5"/>
    <path d="M 320.424886 154.473577 
L 339.11875 154.473577 
" clip-path="url(#p327709c601)" style="fill: none; stroke: #1f77b4; stroke-width: 1.5"/>
    <path d="M 395.200341 184.896147 
L 413.894205 184.896147 
" clip-path="url(#p327709c601)" style="fill: none; stroke: #1f77b4; stroke-width: 1.5"/>
    <path d="M 469.975795 209.058477 
L 488.669659 209.058477 
" clip-path="url(#p327709c601)" style="fill: none; stroke: #1f77b4; stroke-width: 1.5"/>
    <path d="M 544.75125 211.200139 
L 563.445114 211.200139 
" clip-path="url(#p327709c601)" style="fill: none; stroke: #1f77b4; stroke-width: 1.5"/>
    <path d="M 619.526705 235.307554 
L 638.220568 235.307554 
" clip-path="url(#p327709c601)" style="fill: none; stroke: #1f77b4; stroke-width: 1.5"/>
    <path d="M 694.302159 237.284472 
L 712.996023 237.284472 
" clip-path="url(#p327709c601)" style="fill: none; stroke: #1f77b4; stroke-width: 1.5"/>
    <path d="M 769.077614 251.562213 
L 787.771477 251.562213 
" clip-path="url(#p327709c601)" style="fill: none; stroke: #1f77b4; stroke-width: 1.5"/>
   </g>
   <g id="patch_3">
    <path d="M 30.67 337.97 
L 30.67 26.88 
" style="fill: none; stroke: #000000; stroke-width: 0.8; stroke-linejoin: miter; stroke-linecap: square"/>
   </g>
   <g id="patch_4">
    <path d="M 853.2 337.97 
L 853.2 26.88 
" style="fill: none; stroke: #000000; stroke-width: 0.8; stroke-linejoin: miter; stroke-linecap: square"/>
   </g>
   <g id="patch_5">
    <path d="M 30.67 337.97 
L 853.2 337.97 
" style="fill: none; stroke: #000000; stroke-width: 0.8; stroke-linejoin: miter; stroke-linecap: square"/>
   </g>
   <g id="patch_6">
    <path d="M 30.67 26.88 
L 853.2 26.88 
" style="fill: none; stroke: #000000; stroke-width: 0.8; stroke-linejoin: miter; stroke-linecap: square"/>
   </g>
   <g id="text_19">
    <!-- Payoff - turns: 200, repetitions: 200, strategies: 10.  -->
    <g transform="translate(286.154375 20.88)scale(0.12 -0.12)">
     <defs>
      <path id="DejaVuSans-50" d="M 1259 4147 
L 1259 2394 
L 2053 2394 
Q 2494 2394 2734 2622 
Q 2975 2850 2975 3272 
Q 2975 3691 2734 3919 
Q 2494 4147 2053 4147 
L 1259 4147 
z
M 628 4666 
L 2053 4666 
Q 2838 4666 3239 4311 
Q 3641 3956 3641 3272 
Q 3641 2581 3239 2228 
Q 2838 1875 2053 1875 
L 1259 1875 
L 1259 0 
L 628 0 
L 628 4666 
z
" transform="scale(0.015625)"/>
      <path id="DejaVuSans-2d" d="M 313 2009 
L 1997 2009 
L 1997 1497 
L 313 1497 
L 313 2009 
z
" transform="scale(0.015625)"/>
      <path id="DejaVuSans-2c" d="M 750 794 
L 1409 794 
L 1409 256 
L 897 -744 
L 494 -744 
L 750 256 
L 750 794 
z
" transform="scale(0.015625)"/>
     </defs>
     <use xlink:href="#DejaVuSans-50"/>
     <use xlink:href="#DejaVuSans-61" x="55.802734"/>
     <use xlink:href="#DejaVuSans-79" x="117.082031"/>
     <use xlink:href="#DejaVuSans-6f" x="176.261719"/>
     <use xlink:href="#DejaVuSans-66" x="237.443359"/>
     <use xlink:href="#DejaVuSans-66" x="272.648438"/>
     <use xlink:href="#DejaVuSans-20" x="307.853516"/>
     <use xlink:href="#DejaVuSans-2d" x="339.640625"/>
     <use xlink:href="#DejaVuSans-20" x="375.724609"/>
     <use xlink:href="#DejaVuSans-74" x="407.511719"/>
     <use xlink:href="#DejaVuSans-75" x="446.720703"/>
     <use xlink:href="#DejaVuSans-72" x="510.099609"/>
     <use xlink:href="#DejaVuSans-6e" x="549.462891"/>
     <use xlink:href="#DejaVuSans-73" x="612.841797"/>
     <use xlink:href="#DejaVuSans-3a" x="664.941406"/>
     <use xlink:href="#DejaVuSans-20" x="698.632812"/>
     <use xlink:href="#DejaVuSans-32" x="730.419922"/>
     <use xlink:href="#DejaVuSans-30" x="794.042969"/>
     <use xlink:href="#DejaVuSans-30" x="857.666016"/>
     <use xlink:href="#DejaVuSans-2c" x="921.289062"/>
     <use xlink:href="#DejaVuSans-20" x="953.076172"/>
     <use xlink:href="#DejaVuSans-72" x="984.863281"/>
     <use xlink:href="#DejaVuSans-65" x="1023.726562"/>
     <use xlink:href="#DejaVuSans-70" x="1085.25"/>
     <use xlink:href="#DejaVuSans-65" x="1148.726562"/>
     <use xlink:href="#DejaVuSans-74" x="1210.25"/>
     <use xlink:href="#DejaVuSans-69" x="1249.458984"/>
     <use xlink:href="#DejaVuSans-74" x="1277.242188"/>
     <use xlink:href="#DejaVuSans-69" x="1316.451172"/>
     <use xlink:href="#DejaVuSans-6f" x="1344.234375"/>
     <use xlink:href="#DejaVuSans-6e" x="1405.416016"/>
     <use xlink:href="#DejaVuSans-73" x="1468.794922"/>
     <use xlink:href="#DejaVuSans-3a" x="1520.894531"/>
     <use xlink:href="#DejaVuSans-20" x="1554.585938"/>
     <use xlink:href="#DejaVuSans-32" x="1586.373047"/>
     <use xlink:href="#DejaVuSans-30" x="1649.996094"/>
     <use xlink:href="#DejaVuSans-30" x="1713.619141"/>
     <use xlink:href="#DejaVuSans-2c" x="1777.242188"/>
     <use xlink:href="#DejaVuSans-20" x="1809.029297"/>
     <use xlink:href="#DejaVuSans-73" x="1840.816406"/>
     <use xlink:href="#DejaVuSans-74" x="1892.916016"/>
     <use xlink:href="#DejaVuSans-72" x="1932.125"/>
     <use xlink:href="#DejaVuSans-61" x="1973.238281"/>
     <use xlink:href="#DejaVuSans-74" x="2034.517578"/>
     <use xlink:href="#DejaVuSans-65" x="2073.726562"/>
     <use xlink:href="#DejaVuSans-67" x="2135.25"/>
     <use xlink:href="#DejaVuSans-69" x="2198.726562"/>
     <use xlink:href="#DejaVuSans-65" x="2226.509766"/>
     <use xlink:href="#DejaVuSans-73" x="2288.033203"/>
     <use xlink:href="#DejaVuSans-3a" x="2340.132812"/>
     <use xlink:href="#DejaVuSans-20" x="2373.824219"/>
     <use xlink:href="#DejaVuSans-31" x="2405.611328"/>
     <use xlink:href="#DejaVuSans-30" x="2469.234375"/>
     <use xlink:href="#DejaVuSans-2e" x="2532.857422"/>
     <use xlink:href="#DejaVuSans-20" x="2564.644531"/>
    </g>
   </g>
  </g>
 </g>
 <defs>
  <clipPath id="p327709c601">
   <rect x="30.67" y="26.88" width="822.53" height="311.09"/>
  </clipPath>
 </defs>
</svg>
