<?xml version="1.0" encoding="utf-8" standalone="no"?>
<!DOCTYPE svg PUBLIC "-//W3C//DTD SVG 1.1//EN"
  "http://www.w3.org/Graphics/SVG/1.1/DTD/svg11.dtd">
<svg xmlns:xlink="http://www.w3.org/1999/xlink" width="864pt" height="432pt" viewBox="0 0 864 432" xmlns="http://www.w3.org/2000/svg" version="1.1">
 <metadata>
  <rdf:RDF xmlns:dc="http://purl.org/dc/elements/1.1/" xmlns:cc="http://creativecommons.org/ns#" xmlns:rdf="http://www.w3.org/1999/02/22-rdf-syntax-ns#">
   <cc:Work>
    <dc:type rdf:resource="http://purl.org/dc/dcmitype/StillImage"/>
    <dc:date>2022-09-26T09:50:54.912108</dc:date>
    <dc:format>image/svg+xml</dc:format>
    <dc:creator>
     <cc:Agent>
      <dc:title>Matplotlib v3.5.1, https://matplotlib.org/</dc:title>
     </cc:Agent>
    </dc:creator>
   </cc:Work>
  </rdf:RDF>
 </metadata>
 <defs>
  <style type="text/css">*{stroke-linejoin: round; stroke-linecap: butt}</style>
 </defs>
 <g id="figure_1">
  <g id="patch_1">
   <path d="M 0 432 
L 864 432 
L 864 0 
L 0 0 
z
" style="fill: #ffffff"/>
  </g>
  <g id="axes_1">
   <g id="patch_2">
    <path d="M 22.93 337.97 
L 853.2 337.97 
L 853.2 26.88 
L 22.93 26.88 
z
" style="fill: #ffffff"/>
   </g>
   <g id="PolyCollection_1">
    <path d="M 111.253222 73.5435 
L 85.56496 73.5435 
L 85.587465 73.229268 
L 85.654744 72.915035 
L 85.766093 72.600803 
L 85.92035 72.286571 
L 86.115919 71.972338 
L 86.350793 71.658106 
L 86.622591 71.343874 
L 86.928601 71.029641 
L 87.265818 70.715409 
L 87.630999 70.401177 
L 88.02071 70.086944 
L 88.431386 69.772712 
L 88.859377 69.45848 
L 89.301007 69.144247 
L 89.752622 68.830015 
L 90.210641 68.515783 
L 90.6716 68.201551 
L 91.132194 67.887318 
L 91.58931 67.573086 
L 92.04006 67.258854 
L 92.481807 66.944621 
L 92.912179 66.630389 
L 93.329087 66.316157 
L 93.730728 66.001924 
L 94.11559 65.687692 
L 94.482446 65.37346 
L 94.830347 65.059227 
L 95.158609 64.744995 
L 95.466797 64.430763 
L 95.754706 64.11653 
L 96.02234 63.802298 
L 96.269885 63.488066 
L 96.497689 63.173833 
L 96.706234 62.859601 
L 96.896111 62.545369 
L 97.067992 62.231136 
L 97.222608 61.916904 
L 97.360727 61.602672 
L 97.483123 61.288439 
L 97.590563 60.974207 
L 97.683784 60.659975 
L 97.763474 60.345742 
L 97.830254 60.03151 
L 97.884669 59.717278 
L 97.927169 59.403045 
L 97.958101 59.088813 
L 97.977697 58.774581 
L 97.98607 58.460348 
L 97.983206 58.146116 
L 97.968958 57.831884 
L 97.943047 57.517652 
L 97.905059 57.203419 
L 97.854449 56.889187 
L 97.790541 56.574955 
L 97.712537 56.260722 
L 97.619523 55.94649 
L 97.51048 55.632258 
L 97.384293 55.318025 
L 97.239775 55.003793 
L 97.075674 54.689561 
L 96.890704 54.375328 
L 96.683559 54.061096 
L 96.452947 53.746864 
L 96.197613 53.432631 
L 95.916372 53.118399 
L 95.608141 52.804167 
L 95.271977 52.489934 
L 94.907104 52.175702 
L 94.512958 51.86147 
L 94.089219 51.547237 
L 93.635845 51.233005 
L 93.153106 50.918773 
L 92.641616 50.60454 
L 92.102359 50.290308 
L 91.536714 49.976076 
L 90.946469 49.661843 
L 90.333835 49.347611 
L 89.701452 49.033379 
L 89.052383 48.719146 
L 88.390105 48.404914 
L 87.71849 48.090682 
L 87.041779 47.776449 
L 86.364538 47.462217 
L 85.691625 47.147985 
L 85.028125 46.833753 
L 84.379299 46.51952 
L 83.750513 46.205288 
L 83.147168 45.891056 
L 82.574623 45.576823 
L 82.03812 45.262591 
L 81.5427 44.948359 
L 81.093128 44.634126 
L 80.693817 44.319894 
L 80.348754 44.005662 
L 80.061437 43.691429 
L 79.834812 43.377197 
L 79.671224 43.062965 
L 79.572381 42.748732 
L 79.539318 42.4345 
L 117.278864 42.4345 
L 117.278864 42.4345 
L 117.2458 42.748732 
L 117.146957 43.062965 
L 116.98337 43.377197 
L 116.756745 43.691429 
L 116.469427 44.005662 
L 116.124365 44.319894 
L 115.725054 44.634126 
L 115.275482 44.948359 
L 114.780062 45.262591 
L 114.243558 45.576823 
L 113.671014 45.891056 
L 113.067669 46.205288 
L 112.438883 46.51952 
L 111.790057 46.833753 
L 111.126557 47.147985 
L 110.453643 47.462217 
L 109.776403 47.776449 
L 109.099691 48.090682 
L 108.428077 48.404914 
L 107.765799 48.719146 
L 107.11673 49.033379 
L 106.484347 49.347611 
L 105.871713 49.661843 
L 105.281468 49.976076 
L 104.715823 50.290308 
L 104.176566 50.60454 
L 103.665076 50.918773 
L 103.182337 51.233005 
L 102.728963 51.547237 
L 102.305223 51.86147 
L 101.911078 52.175702 
L 101.546205 52.489934 
L 101.21004 52.804167 
L 100.90181 53.118399 
L 100.620569 53.432631 
L 100.365235 53.746864 
L 100.134623 54.061096 
L 99.927478 54.375328 
L 99.742507 54.689561 
L 99.578407 55.003793 
L 99.433888 55.318025 
L 99.307702 55.632258 
L 99.198658 55.94649 
L 99.105644 56.260722 
L 99.027641 56.574955 
L 98.963733 56.889187 
L 98.913123 57.203419 
L 98.875135 57.517652 
L 98.849224 57.831884 
L 98.834976 58.146116 
L 98.832111 58.460348 
L 98.840485 58.774581 
L 98.860081 59.088813 
L 98.891012 59.403045 
L 98.933512 59.717278 
L 98.987927 60.03151 
L 99.054708 60.345742 
L 99.134397 60.659975 
L 99.227619 60.974207 
L 99.335059 61.288439 
L 99.457455 61.602672 
L 99.595573 61.916904 
L 99.75019 62.231136 
L 99.922071 62.545369 
L 100.111947 62.859601 
L 100.320493 63.173833 
L 100.548297 63.488066 
L 100.795842 63.802298 
L 101.063475 64.11653 
L 101.351385 64.430763 
L 101.659573 64.744995 
L 101.987835 65.059227 
L 102.335736 65.37346 
L 102.702592 65.687692 
L 103.087454 66.001924 
L 103.489095 66.316157 
L 103.906002 66.630389 
L 104.336375 66.944621 
L 104.778122 67.258854 
L 105.228872 67.573086 
L 105.685988 67.887318 
L 106.146582 68.201551 
L 106.607541 68.515783 
L 107.06556 68.830015 
L 107.517175 69.144247 
L 107.958805 69.45848 
L 108.386796 69.772712 
L 108.797472 70.086944 
L 109.187183 70.401177 
L 109.552364 70.715409 
L 109.889581 71.029641 
L 110.19559 71.343874 
L 110.467389 71.658106 
L 110.702263 71.972338 
L 110.897831 72.286571 
L 111.052089 72.600803 
L 111.163438 72.915035 
L 111.230717 73.229268 
L 111.253222 73.5435 
z
" clip-path="url(#p6c255272a5)" style="fill: #1f77b4; fill-opacity: 0.3"/>
   </g>
   <g id="PolyCollection_2">
    <path d="M 185.348482 197.9795 
L 162.427881 197.9795 
L 162.458958 197.351035 
L 162.557879 196.722571 
L 162.722428 196.094106 
L 162.949112 195.465641 
L 163.233248 194.837177 
L 163.569059 194.208712 
L 163.949817 193.580247 
L 164.367987 192.951783 
L 164.815395 192.323318 
L 165.283398 191.694854 
L 165.763055 191.066389 
L 166.245293 190.437924 
L 166.721063 189.80946 
L 167.181482 189.180995 
L 167.617957 188.55253 
L 168.022295 187.924066 
L 168.38679 187.295601 
L 168.7043 186.667136 
L 168.968306 186.038672 
L 169.172957 185.410207 
L 169.313116 184.781742 
L 169.384394 184.153278 
L 169.383186 183.524813 
L 169.306711 182.896348 
L 169.153054 182.267884 
L 168.921211 181.639419 
L 168.611144 181.010955 
L 168.223839 180.38249 
L 167.761357 179.754025 
L 167.226893 179.125561 
L 166.624818 178.497096 
L 165.960713 177.868631 
L 165.241381 177.240167 
L 164.474834 176.611702 
L 163.670252 175.983237 
L 162.837905 175.354773 
L 161.989038 174.726308 
L 161.13572 174.097843 
L 160.29065 173.469379 
L 159.46693 172.840914 
L 158.677809 172.212449 
L 157.936402 171.583985 
L 157.255386 170.95552 
L 156.646703 170.327056 
L 156.121256 169.698591 
L 155.688626 169.070126 
L 155.356818 168.441662 
L 155.132037 167.813197 
L 155.018519 167.184732 
L 155.018409 166.556268 
L 155.131698 165.927803 
L 155.356226 165.299338 
L 155.68774 164.670874 
L 156.120014 164.042409 
L 156.645022 163.413944 
L 157.253158 162.78548 
L 157.933488 162.157015 
L 158.674038 161.528551 
L 159.46209 160.900086 
L 160.284484 160.271621 
L 161.127918 159.643157 
L 161.979228 159.014692 
L 162.825648 158.386227 
L 163.655033 157.757763 
L 164.456052 157.129298 
L 165.218345 156.500833 
L 165.932631 155.872369 
L 166.590792 155.243904 
L 167.185917 154.615439 
L 167.71231 153.986975 
L 168.165489 153.35851 
L 168.542149 152.730045 
L 168.840123 152.101581 
L 169.058333 151.473116 
L 169.196738 150.844652 
L 169.25628 150.216187 
L 169.238837 149.587722 
L 169.147183 148.959258 
L 168.984943 148.330793 
L 168.756568 147.702328 
L 168.467293 147.073864 
L 168.12311 146.445399 
L 167.730722 145.816934 
L 167.297501 145.18847 
L 166.83142 144.560005 
L 166.340984 143.93154 
L 165.835129 143.303076 
L 165.323115 142.674611 
L 164.814387 142.046146 
L 164.31843 141.417682 
L 163.844601 140.789217 
L 163.401954 140.160753 
L 162.999059 139.532288 
L 162.643819 138.903823 
L 162.343296 138.275359 
L 162.103551 137.646894 
L 161.929501 137.018429 
L 161.824809 136.389965 
L 161.791798 135.7615 
L 185.984566 135.7615 
L 185.984566 135.7615 
L 185.951554 136.389965 
L 185.846862 137.018429 
L 185.672813 137.646894 
L 185.433068 138.275359 
L 185.132545 138.903823 
L 184.777305 139.532288 
L 184.37441 140.160753 
L 183.931763 140.789217 
L 183.457934 141.417682 
L 182.961977 142.046146 
L 182.453249 142.674611 
L 181.941234 143.303076 
L 181.43538 143.93154 
L 180.944944 144.560005 
L 180.478863 145.18847 
L 180.045641 145.816934 
L 179.653254 146.445399 
L 179.30907 147.073864 
L 179.019796 147.702328 
L 178.79142 148.330793 
L 178.629181 148.959258 
L 178.537526 149.587722 
L 178.520084 150.216187 
L 178.579625 150.844652 
L 178.71803 151.473116 
L 178.936241 152.101581 
L 179.234215 152.730045 
L 179.610874 153.35851 
L 180.064053 153.986975 
L 180.590447 154.615439 
L 181.185571 155.243904 
L 181.843733 155.872369 
L 182.558019 156.500833 
L 183.320311 157.129298 
L 184.121331 157.757763 
L 184.950715 158.386227 
L 185.797135 159.014692 
L 186.648446 159.643157 
L 187.49188 160.271621 
L 188.314274 160.900086 
L 189.102325 161.528551 
L 189.842875 162.157015 
L 190.523206 162.78548 
L 191.131341 163.413944 
L 191.65635 164.042409 
L 192.088623 164.670874 
L 192.420137 165.299338 
L 192.644665 165.927803 
L 192.757955 166.556268 
L 192.757844 167.184732 
L 192.644327 167.813197 
L 192.419546 168.441662 
L 192.087738 169.070126 
L 191.655108 169.698591 
L 191.12966 170.327056 
L 190.520977 170.95552 
L 189.839962 171.583985 
L 189.098554 172.212449 
L 188.309434 172.840914 
L 187.485714 173.469379 
L 186.640643 174.097843 
L 185.787325 174.726308 
L 184.938459 175.354773 
L 184.106112 175.983237 
L 183.30153 176.611702 
L 182.534983 177.240167 
L 181.815651 177.868631 
L 181.151546 178.497096 
L 180.549471 179.125561 
L 180.015007 179.754025 
L 179.552525 180.38249 
L 179.16522 181.010955 
L 178.855153 181.639419 
L 178.62331 182.267884 
L 178.469652 182.896348 
L 178.393178 183.524813 
L 178.39197 184.153278 
L 178.463248 184.781742 
L 178.603407 185.410207 
L 178.808058 186.038672 
L 179.072063 186.667136 
L 179.389574 187.295601 
L 179.754069 187.924066 
L 180.158407 188.55253 
L 180.594882 189.180995 
L 181.055301 189.80946 
L 181.531071 190.437924 
L 182.013309 191.066389 
L 182.492966 191.694854 
L 182.960969 192.323318 
L 183.408377 192.951783 
L 183.826547 193.580247 
L 184.207305 194.208712 
L 184.543116 194.837177 
L 184.827251 195.465641 
L 185.053936 196.094106 
L 185.218485 196.722571 
L 185.317406 197.351035 
L 185.348482 197.9795 
z
" clip-path="url(#p6c255272a5)" style="fill: #1f77b4; fill-opacity: 0.3"/>
   </g>
   <g id="PolyCollection_3">
    <path d="M 256.844944 229.0885 
L 241.889602 229.0885 
L 241.863314 227.831571 
L 241.912214 226.574641 
L 242.022229 225.317712 
L 242.174288 224.060783 
L 242.345216 222.803854 
L 242.50896 221.546924 
L 242.63807 220.289995 
L 242.705358 219.033066 
L 242.685649 217.776136 
L 242.557495 216.519207 
L 242.304778 215.262278 
L 241.918081 214.005348 
L 241.395729 212.748419 
L 240.744424 211.49149 
L 239.979385 210.234561 
L 239.123954 208.977631 
L 238.208639 207.720702 
L 237.269614 206.463773 
L 236.346731 205.206843 
L 235.481148 203.949914 
L 234.712717 202.692985 
L 234.07731 201.436056 
L 233.604281 200.179126 
L 233.314265 198.922197 
L 233.217501 197.665268 
L 233.312822 196.408338 
L 233.587404 195.151409 
L 234.017327 193.89448 
L 234.568891 192.637551 
L 235.200623 191.380621 
L 235.865812 190.123692 
L 236.515407 188.866763 
L 237.101085 187.609833 
L 237.578276 186.352904 
L 237.908971 185.095975 
L 238.064142 183.839045 
L 238.025629 182.582116 
L 237.787391 181.325187 
L 237.356052 180.068258 
L 236.750684 178.811328 
L 236.001844 177.554399 
L 235.149896 176.29747 
L 234.242683 175.04054 
L 233.332697 173.783611 
L 232.47389 172.526682 
L 231.718332 171.269753 
L 231.112952 170.012823 
L 230.696577 168.755894 
L 230.4975 167.498965 
L 230.531758 166.242035 
L 230.802261 164.985106 
L 231.298819 163.728177 
L 231.999078 162.471247 
L 232.870248 161.214318 
L 233.871493 159.957389 
L 234.956767 158.70046 
L 236.077861 157.44353 
L 237.187442 156.186601 
L 238.241847 154.929672 
L 239.20348 153.672742 
L 240.042652 152.415813 
L 240.73881 151.158884 
L 241.281111 149.901955 
L 241.668376 148.645025 
L 241.908468 147.388096 
L 242.017184 146.131167 
L 242.016762 144.874237 
L 241.934116 143.617308 
L 241.798913 142.360379 
L 241.641616 141.103449 
L 241.4916 139.84652 
L 241.375449 138.589591 
L 241.315533 137.332662 
L 241.328928 136.075732 
L 241.426747 134.818803 
L 241.61389 133.561874 
L 241.889224 132.304944 
L 242.246147 131.048015 
L 242.673464 129.791086 
L 243.156514 128.534157 
L 243.678415 127.277227 
L 244.221347 126.020298 
L 244.767763 124.763369 
L 245.301449 123.506439 
L 245.808364 122.24951 
L 246.277233 120.992581 
L 246.699875 119.735652 
L 247.07128 118.478722 
L 247.389463 117.221793 
L 247.655151 115.964864 
L 247.871337 114.707934 
L 248.042767 113.451005 
L 248.175391 112.194076 
L 248.275843 110.937146 
L 248.350956 109.680217 
L 248.407349 108.423288 
L 248.451097 107.166359 
L 248.487488 105.909429 
L 248.520869 104.6525 
L 250.213677 104.6525 
L 250.213677 104.6525 
L 250.247057 105.909429 
L 250.283448 107.166359 
L 250.327197 108.423288 
L 250.38359 109.680217 
L 250.458702 110.937146 
L 250.559155 112.194076 
L 250.691779 113.451005 
L 250.863208 114.707934 
L 251.079395 115.964864 
L 251.345083 117.221793 
L 251.663266 118.478722 
L 252.03467 119.735652 
L 252.457313 120.992581 
L 252.926182 122.24951 
L 253.433097 123.506439 
L 253.966782 124.763369 
L 254.513199 126.020298 
L 255.05613 127.277227 
L 255.578031 128.534157 
L 256.061081 129.791086 
L 256.488399 131.048015 
L 256.845321 132.304944 
L 257.120656 133.561874 
L 257.307799 134.818803 
L 257.405617 136.075732 
L 257.419013 137.332662 
L 257.359096 138.589591 
L 257.242946 139.84652 
L 257.092929 141.103449 
L 256.935632 142.360379 
L 256.80043 143.617308 
L 256.717783 144.874237 
L 256.717362 146.131167 
L 256.826077 147.388096 
L 257.066169 148.645025 
L 257.453434 149.901955 
L 257.995735 151.158884 
L 258.691893 152.415813 
L 259.531066 153.672742 
L 260.492699 154.929672 
L 261.547104 156.186601 
L 262.656684 157.44353 
L 263.777778 158.70046 
L 264.863052 159.957389 
L 265.864298 161.214318 
L 266.735468 162.471247 
L 267.435726 163.728177 
L 267.932285 164.985106 
L 268.202787 166.242035 
L 268.237045 167.498965 
L 268.037968 168.755894 
L 267.621593 170.012823 
L 267.016214 171.269753 
L 266.260656 172.526682 
L 265.401848 173.783611 
L 264.491862 175.04054 
L 263.58465 176.29747 
L 262.732701 177.554399 
L 261.983862 178.811328 
L 261.378493 180.068258 
L 260.947154 181.325187 
L 260.708917 182.582116 
L 260.670403 183.839045 
L 260.825575 185.095975 
L 261.15627 186.352904 
L 261.633461 187.609833 
L 262.219139 188.866763 
L 262.868734 190.123692 
L 263.533922 191.380621 
L 264.165654 192.637551 
L 264.717218 193.89448 
L 265.147141 195.151409 
L 265.421723 196.408338 
L 265.517044 197.665268 
L 265.420281 198.922197 
L 265.130265 200.179126 
L 264.657235 201.436056 
L 264.021828 202.692985 
L 263.253398 203.949914 
L 262.387815 205.206843 
L 261.464932 206.463773 
L 260.525907 207.720702 
L 259.610592 208.977631 
L 258.75516 210.234561 
L 257.990121 211.49149 
L 257.338817 212.748419 
L 256.816465 214.005348 
L 256.429768 215.262278 
L 256.177051 216.519207 
L 256.048897 217.776136 
L 256.029187 219.033066 
L 256.096476 220.289995 
L 256.225585 221.546924 
L 256.389329 222.803854 
L 256.560258 224.060783 
L 256.712316 225.317712 
L 256.822331 226.574641 
L 256.871232 227.831571 
L 256.844944 229.0885 
z
" clip-path="url(#p6c255272a5)" style="fill: #1f77b4; fill-opacity: 0.3"/>
   </g>
   <g id="PolyCollection_4">
    <path d="M 343.716136 166.8705 
L 305.976591 166.8705 
L 306.084629 166.556268 
L 306.405046 166.242035 
L 306.926961 165.927803 
L 307.632921 165.613571 
L 308.49987 165.299338 
L 309.500403 164.985106 
L 310.604192 164.670874 
L 311.779511 164.356641 
L 312.994726 164.042409 
L 314.219664 163.728177 
L 315.426794 163.413944 
L 316.592138 163.099712 
L 317.695898 162.78548 
L 318.722791 162.471247 
L 319.662088 162.157015 
L 320.507421 161.842783 
L 321.256381 161.528551 
L 321.909975 161.214318 
L 322.472 160.900086 
L 322.948375 160.585854 
L 323.346497 160.271621 
L 323.674643 159.957389 
L 323.941447 159.643157 
L 324.155479 159.328924 
L 324.324911 159.014692 
L 324.457285 158.70046 
L 324.55937 158.386227 
L 324.637088 158.071995 
L 324.695502 157.757763 
L 324.738853 157.44353 
L 324.770621 157.129298 
L 324.793612 156.815066 
L 324.810044 156.500833 
L 324.821642 156.186601 
L 324.829729 155.872369 
L 324.835299 155.558136 
L 324.839087 155.243904 
L 324.841633 154.929672 
L 324.843324 154.615439 
L 324.844432 154.301207 
L 324.845151 153.986975 
L 324.84561 153.672742 
L 324.845901 153.35851 
L 324.846083 153.044278 
L 324.846195 152.730045 
L 324.846264 152.415813 
L 324.846305 152.101581 
L 324.846329 151.787348 
L 324.846343 151.473116 
L 324.846351 151.158884 
L 324.846355 150.844652 
L 324.846355 150.530419 
L 324.846353 150.216187 
L 324.846348 149.901955 
L 324.846339 149.587722 
L 324.846323 149.27349 
L 324.846298 148.959258 
L 324.846258 148.645025 
L 324.846196 148.330793 
L 324.846099 148.016561 
L 324.845952 147.702328 
L 324.845731 147.388096 
L 324.845401 147.073864 
L 324.844917 146.759631 
L 324.844214 146.445399 
L 324.843205 146.131167 
L 324.841777 145.816934 
L 324.839777 145.502702 
L 324.837015 145.18847 
L 324.833245 144.874237 
L 324.828166 144.560005 
L 324.821408 144.245773 
L 324.812531 143.93154 
L 324.80102 143.617308 
L 324.786287 143.303076 
L 324.767675 142.988843 
L 324.744475 142.674611 
L 324.71594 142.360379 
L 324.681321 142.046146 
L 324.639897 141.731914 
L 324.591026 141.417682 
L 324.534191 141.103449 
L 324.469064 140.789217 
L 324.395557 140.474985 
L 324.313879 140.160753 
L 324.224584 139.84652 
L 324.128605 139.532288 
L 324.027271 139.218056 
L 323.922303 138.903823 
L 323.815786 138.589591 
L 323.710116 138.275359 
L 323.607914 137.961126 
L 323.511932 137.646894 
L 323.424929 137.332662 
L 323.349543 137.018429 
L 323.288155 136.704197 
L 323.242771 136.389965 
L 323.214908 136.075732 
L 323.205514 135.7615 
L 326.487213 135.7615 
L 326.487213 135.7615 
L 326.477819 136.075732 
L 326.449956 136.389965 
L 326.404573 136.704197 
L 326.343185 137.018429 
L 326.267798 137.332662 
L 326.180795 137.646894 
L 326.084813 137.961126 
L 325.982612 138.275359 
L 325.876941 138.589591 
L 325.770424 138.903823 
L 325.665457 139.218056 
L 325.564122 139.532288 
L 325.468143 139.84652 
L 325.378848 140.160753 
L 325.29717 140.474985 
L 325.223663 140.789217 
L 325.158536 141.103449 
L 325.101702 141.417682 
L 325.05283 141.731914 
L 325.011406 142.046146 
L 324.976787 142.360379 
L 324.948252 142.674611 
L 324.925052 142.988843 
L 324.906441 143.303076 
L 324.891707 143.617308 
L 324.880197 143.93154 
L 324.87132 144.245773 
L 324.864562 144.560005 
L 324.859482 144.874237 
L 324.855712 145.18847 
L 324.85295 145.502702 
L 324.850951 145.816934 
L 324.849522 146.131167 
L 324.848513 146.445399 
L 324.84781 146.759631 
L 324.847326 147.073864 
L 324.846996 147.388096 
L 324.846775 147.702328 
L 324.846628 148.016561 
L 324.846532 148.330793 
L 324.846469 148.645025 
L 324.846429 148.959258 
L 324.846404 149.27349 
L 324.846389 149.587722 
L 324.846379 149.901955 
L 324.846374 150.216187 
L 324.846372 150.530419 
L 324.846373 150.844652 
L 324.846376 151.158884 
L 324.846384 151.473116 
L 324.846398 151.787348 
L 324.846422 152.101581 
L 324.846464 152.415813 
L 324.846532 152.730045 
L 324.846644 153.044278 
L 324.846826 153.35851 
L 324.847117 153.672742 
L 324.847577 153.986975 
L 324.848295 154.301207 
L 324.849404 154.615439 
L 324.851094 154.929672 
L 324.85364 155.243904 
L 324.857429 155.558136 
L 324.862998 155.872369 
L 324.871085 156.186601 
L 324.882684 156.500833 
L 324.899115 156.815066 
L 324.922106 157.129298 
L 324.953874 157.44353 
L 324.997226 157.757763 
L 325.05564 158.071995 
L 325.133357 158.386227 
L 325.235442 158.70046 
L 325.367816 159.014692 
L 325.537248 159.328924 
L 325.75128 159.643157 
L 326.018085 159.957389 
L 326.34623 160.271621 
L 326.744352 160.585854 
L 327.220727 160.900086 
L 327.782752 161.214318 
L 328.436346 161.528551 
L 329.185306 161.842783 
L 330.030639 162.157015 
L 330.969936 162.471247 
L 331.996829 162.78548 
L 333.10059 163.099712 
L 334.265933 163.413944 
L 335.473063 163.728177 
L 336.698001 164.042409 
L 337.913216 164.356641 
L 339.088535 164.670874 
L 340.192325 164.985106 
L 341.192857 165.299338 
L 342.059807 165.613571 
L 342.765766 165.927803 
L 343.287681 166.242035 
L 343.608098 166.556268 
L 343.716136 166.8705 
z
" clip-path="url(#p6c255272a5)" style="fill: #1f77b4; fill-opacity: 0.3"/>
   </g>
   <g id="PolyCollection_5">
    <path d="M 403.533607 197.9795 
L 397.117302 197.9795 
L 397.131102 197.351035 
L 397.172467 196.722571 
L 397.240262 196.094106 
L 397.332662 195.465641 
L 397.447219 194.837177 
L 397.580949 194.208712 
L 397.730436 193.580247 
L 397.891948 192.951783 
L 398.061546 192.323318 
L 398.235189 191.694854 
L 398.408829 191.066389 
L 398.578482 190.437924 
L 398.740278 189.80946 
L 398.890484 189.180995 
L 399.025507 188.55253 
L 399.141859 187.924066 
L 399.23612 187.295601 
L 399.304871 186.667136 
L 399.344622 186.038672 
L 399.351746 185.410207 
L 399.322417 184.781742 
L 399.252565 184.153278 
L 399.13786 183.524813 
L 398.973736 182.896348 
L 398.755452 182.267884 
L 398.478204 181.639419 
L 398.137288 181.010955 
L 397.728315 180.38249 
L 397.247467 179.754025 
L 396.6918 179.125561 
L 396.059561 178.497096 
L 395.350526 177.868631 
L 394.566325 177.240167 
L 393.710729 176.611702 
L 392.789896 175.983237 
L 391.812528 175.354773 
L 390.789935 174.726308 
L 389.73598 174.097843 
L 388.666904 173.469379 
L 387.601003 172.840914 
L 386.558188 172.212449 
L 385.559423 171.583985 
L 384.626054 170.95552 
L 383.779085 170.327056 
L 383.038399 169.698591 
L 382.422 169.070126 
L 381.945284 168.441662 
L 381.62041 167.813197 
L 381.45578 167.184732 
L 381.455682 166.556268 
L 381.620099 165.927803 
L 381.94471 165.299338 
L 382.421072 164.670874 
L 383.036977 164.042409 
L 383.776959 163.413944 
L 384.622927 162.78548 
L 385.554874 162.157015 
L 386.55164 161.528551 
L 387.591662 160.900086 
L 388.653699 160.271621 
L 389.717477 159.643157 
L 390.764234 159.014692 
L 391.777143 158.386227 
L 392.741602 157.757763 
L 393.645391 157.129298 
L 394.4787 156.500833 
L 395.234037 155.872369 
L 395.90605 155.243904 
L 396.491267 154.615439 
L 396.987794 153.986975 
L 397.394992 153.35851 
L 397.713159 152.730045 
L 397.943239 152.101581 
L 398.086572 151.473116 
L 398.144714 150.844652 
L 398.119317 150.216187 
L 398.01209 149.587722 
L 397.824832 148.959258 
L 397.55953 148.330793 
L 397.218518 147.702328 
L 396.804677 147.073864 
L 396.321661 146.445399 
L 395.774126 145.816934 
L 395.16795 145.18847 
L 394.510402 144.560005 
L 393.810273 143.93154 
L 393.077914 143.303076 
L 392.325196 142.674611 
L 391.565377 142.046146 
L 390.812858 141.417682 
L 390.082859 140.789217 
L 389.391002 140.160753 
L 388.752835 139.532288 
L 388.183307 138.903823 
L 387.696234 138.275359 
L 387.303772 137.646894 
L 387.015944 137.018429 
L 386.840228 136.389965 
L 386.781251 135.7615 
L 413.869658 135.7615 
L 413.869658 135.7615 
L 413.810681 136.389965 
L 413.634965 137.018429 
L 413.347137 137.646894 
L 412.954675 138.275359 
L 412.467602 138.903823 
L 411.898074 139.532288 
L 411.259907 140.160753 
L 410.56805 140.789217 
L 409.838051 141.417682 
L 409.085532 142.046146 
L 408.325713 142.674611 
L 407.572995 143.303076 
L 406.840636 143.93154 
L 406.140507 144.560005 
L 405.482959 145.18847 
L 404.876783 145.816934 
L 404.329248 146.445399 
L 403.846232 147.073864 
L 403.432391 147.702328 
L 403.09138 148.330793 
L 402.826078 148.959258 
L 402.638819 149.587722 
L 402.531593 150.216187 
L 402.506195 150.844652 
L 402.564337 151.473116 
L 402.70767 152.101581 
L 402.93775 152.730045 
L 403.255917 153.35851 
L 403.663115 153.986975 
L 404.159642 154.615439 
L 404.744859 155.243904 
L 405.416872 155.872369 
L 406.17221 156.500833 
L 407.005518 157.129298 
L 407.909308 157.757763 
L 408.873766 158.386227 
L 409.886675 159.014692 
L 410.933432 159.643157 
L 411.99721 160.271621 
L 413.059247 160.900086 
L 414.099269 161.528551 
L 415.096035 162.157015 
L 416.027982 162.78548 
L 416.87395 163.413944 
L 417.613932 164.042409 
L 418.229837 164.670874 
L 418.706199 165.299338 
L 419.03081 165.927803 
L 419.195227 166.556268 
L 419.195129 167.184732 
L 419.030499 167.813197 
L 418.705625 168.441662 
L 418.228909 169.070126 
L 417.61251 169.698591 
L 416.871824 170.327056 
L 416.024855 170.95552 
L 415.091486 171.583985 
L 414.092721 172.212449 
L 413.049907 172.840914 
L 411.984005 173.469379 
L 410.914929 174.097843 
L 409.860974 174.726308 
L 408.838381 175.354773 
L 407.861013 175.983237 
L 406.94018 176.611702 
L 406.084584 177.240167 
L 405.300383 177.868631 
L 404.591348 178.497096 
L 403.959109 179.125561 
L 403.403442 179.754025 
L 402.922594 180.38249 
L 402.513621 181.010955 
L 402.172705 181.639419 
L 401.895457 182.267884 
L 401.677173 182.896348 
L 401.513049 183.524813 
L 401.398344 184.153278 
L 401.328492 184.781742 
L 401.299163 185.410207 
L 401.306287 186.038672 
L 401.346038 186.667136 
L 401.414789 187.295601 
L 401.50905 187.924066 
L 401.625403 188.55253 
L 401.760425 189.180995 
L 401.910631 189.80946 
L 402.072427 190.437924 
L 402.24208 191.066389 
L 402.41572 191.694854 
L 402.589363 192.323318 
L 402.758961 192.951783 
L 402.920473 193.580247 
L 403.069961 194.208712 
L 403.20369 194.837177 
L 403.318247 195.465641 
L 403.410647 196.094106 
L 403.478442 196.722571 
L 403.519807 197.351035 
L 403.533607 197.9795 
z
" clip-path="url(#p6c255272a5)" style="fill: #1f77b4; fill-opacity: 0.3"/>
   </g>
   <g id="PolyCollection_6">
    <path d="M 478.921797 291.3065 
L 472.687294 291.3065 
L 472.470732 289.106874 
L 472.249143 286.907247 
L 472.016265 284.707621 
L 471.766098 282.507995 
L 471.493948 280.308369 
L 471.197307 278.108742 
L 470.876391 275.909116 
L 470.534199 273.70949 
L 470.176017 271.509864 
L 469.808424 269.310237 
L 469.437923 267.110611 
L 469.069452 264.910985 
L 468.705058 262.711359 
L 468.343022 260.511732 
L 467.977678 258.312106 
L 467.600044 256.11248 
L 467.199247 253.912854 
L 466.764544 251.713227 
L 466.287626 249.513601 
L 465.764771 247.313975 
L 465.19842 245.114348 
L 464.597801 242.914722 
L 463.978386 240.715096 
L 463.360152 238.51547 
L 462.76487 236.315843 
L 462.212833 234.116217 
L 461.719586 231.916591 
L 461.293251 229.716965 
L 460.932997 227.517338 
L 460.629007 225.317712 
L 460.364033 223.118086 
L 460.116354 220.91846 
L 459.863669 218.718833 
L 459.587244 216.519207 
L 459.275578 214.319581 
L 458.926888 212.119955 
L 458.549909 209.920328 
L 458.162811 207.720702 
L 457.790368 205.521076 
L 457.45985 203.321449 
L 457.196353 201.121823 
L 457.018424 198.922197 
L 456.934773 196.722571 
L 456.942696 194.522944 
L 457.028532 192.323318 
L 457.170084 190.123692 
L 457.340581 187.924066 
L 457.513482 185.724439 
L 457.667238 183.524813 
L 457.789171 181.325187 
L 457.877755 179.125561 
L 457.942902 176.925934 
L 458.004226 174.726308 
L 458.087595 172.526682 
L 458.220628 170.327056 
L 458.427924 168.127429 
L 458.726883 165.927803 
L 459.124817 163.728177 
L 459.617814 161.528551 
L 460.19149 159.328924 
L 460.823423 157.129298 
L 461.486772 154.929672 
L 462.154409 152.730045 
L 462.802845 150.530419 
L 463.415279 148.330793 
L 463.983346 146.131167 
L 464.507336 143.93154 
L 464.994997 141.731914 
L 465.459209 139.532288 
L 465.915055 137.332662 
L 466.376807 135.133035 
L 466.855368 132.933409 
L 467.356539 130.733783 
L 467.880336 128.534157 
L 468.421342 126.33453 
L 468.969941 124.134904 
L 469.514115 121.935278 
L 470.041441 119.735652 
L 470.540937 117.536025 
L 471.00446 115.336399 
L 471.42749 113.136773 
L 471.809254 110.937146 
L 472.152248 108.73752 
L 472.461346 106.537894 
L 472.742678 104.338268 
L 473.00251 102.138641 
L 473.246303 99.939015 
L 473.47808 97.739389 
L 473.70014 95.539763 
L 473.913116 93.340136 
L 474.116298 91.14051 
L 474.308118 88.940884 
L 474.486694 86.741258 
L 474.650316 84.541631 
L 474.797814 82.342005 
L 474.928774 80.142379 
L 475.043576 77.942753 
L 475.143306 75.743126 
L 475.229565 73.5435 
L 476.379526 73.5435 
L 476.379526 73.5435 
L 476.465785 75.743126 
L 476.565515 77.942753 
L 476.680317 80.142379 
L 476.811277 82.342005 
L 476.958775 84.541631 
L 477.122397 86.741258 
L 477.300973 88.940884 
L 477.492793 91.14051 
L 477.695975 93.340136 
L 477.908951 95.539763 
L 478.131011 97.739389 
L 478.362788 99.939015 
L 478.606581 102.138641 
L 478.866413 104.338268 
L 479.147744 106.537894 
L 479.456843 108.73752 
L 479.799837 110.937146 
L 480.1816 113.136773 
L 480.604631 115.336399 
L 481.068154 117.536025 
L 481.56765 119.735652 
L 482.094976 121.935278 
L 482.63915 124.134904 
L 483.187749 126.33453 
L 483.728755 128.534157 
L 484.252552 130.733783 
L 484.753723 132.933409 
L 485.232284 135.133035 
L 485.694036 137.332662 
L 486.149882 139.532288 
L 486.614094 141.731914 
L 487.101755 143.93154 
L 487.625745 146.131167 
L 488.193812 148.330793 
L 488.806246 150.530419 
L 489.454682 152.730045 
L 490.122319 154.929672 
L 490.785668 157.129298 
L 491.417601 159.328924 
L 491.991277 161.528551 
L 492.484274 163.728177 
L 492.882207 165.927803 
L 493.181167 168.127429 
L 493.388463 170.327056 
L 493.521495 172.526682 
L 493.604865 174.726308 
L 493.666189 176.925934 
L 493.731336 179.125561 
L 493.81992 181.325187 
L 493.941853 183.524813 
L 494.095609 185.724439 
L 494.26851 187.924066 
L 494.439007 190.123692 
L 494.580559 192.323318 
L 494.666395 194.522944 
L 494.674318 196.722571 
L 494.590667 198.922197 
L 494.412738 201.121823 
L 494.149241 203.321449 
L 493.818723 205.521076 
L 493.44628 207.720702 
L 493.059182 209.920328 
L 492.682203 212.119955 
L 492.333513 214.319581 
L 492.021847 216.519207 
L 491.745422 218.718833 
L 491.492737 220.91846 
L 491.245058 223.118086 
L 490.980084 225.317712 
L 490.676094 227.517338 
L 490.31584 229.716965 
L 489.889505 231.916591 
L 489.396258 234.116217 
L 488.844221 236.315843 
L 488.248939 238.51547 
L 487.630704 240.715096 
L 487.01129 242.914722 
L 486.410671 245.114348 
L 485.84432 247.313975 
L 485.321465 249.513601 
L 484.844547 251.713227 
L 484.409844 253.912854 
L 484.009047 256.11248 
L 483.631413 258.312106 
L 483.266069 260.511732 
L 482.904033 262.711359 
L 482.539639 264.910985 
L 482.171168 267.110611 
L 481.800667 269.310237 
L 481.433074 271.509864 
L 481.074892 273.70949 
L 480.7327 275.909116 
L 480.411784 278.108742 
L 480.115143 280.308369 
L 479.842993 282.507995 
L 479.592826 284.707621 
L 479.359948 286.907247 
L 479.138359 289.106874 
L 478.921797 291.3065 
z
" clip-path="url(#p6c255272a5)" style="fill: #1f77b4; fill-opacity: 0.3"/>
   </g>
   <g id="PolyCollection_7">
    <path d="M 562.399349 291.3065 
L 540.167924 291.3065 
L 540.235767 290.363803 
L 540.446465 289.421106 
L 540.789832 288.478409 
L 541.249982 287.535712 
L 541.806112 286.593015 
L 542.433519 285.650318 
L 543.104753 284.707621 
L 543.790823 283.764924 
L 544.462352 282.822227 
L 545.090624 281.87953 
L 545.648472 280.936833 
L 546.110991 279.994136 
L 546.456095 279.051439 
L 546.664945 278.108742 
L 546.722302 277.166045 
L 546.616848 276.223348 
L 546.341521 275.280652 
L 545.893888 274.337955 
L 545.276552 273.395258 
L 544.497552 272.452561 
L 543.570722 271.509864 
L 542.515904 270.567167 
L 541.358941 269.62447 
L 540.131369 268.681773 
L 538.869728 267.739076 
L 537.614471 266.796379 
L 536.408467 265.853682 
L 535.295159 264.910985 
L 534.316478 263.968288 
L 533.510644 263.025591 
L 532.91004 262.082894 
L 532.539308 261.140197 
L 532.413864 260.1975 
L 532.538935 259.254803 
L 532.909236 258.312106 
L 533.509286 257.369409 
L 534.314367 256.426712 
L 535.292007 255.484015 
L 536.403869 254.541318 
L 537.60788 253.598621 
L 538.860424 252.655924 
L 540.118418 251.713227 
L 541.34116 250.77053 
L 542.491821 249.827833 
L 543.538543 248.885136 
L 544.455131 247.942439 
L 545.221379 246.999742 
L 545.823091 246.057045 
L 546.25189 245.114348 
L 546.504893 244.171652 
L 546.584336 243.228955 
L 546.4972 242.286258 
L 546.254873 241.343561 
L 545.872844 240.400864 
L 545.370398 239.458167 
L 544.770274 238.51547 
L 544.09824 237.572773 
L 543.382512 236.630076 
L 542.653007 235.687379 
L 541.940407 234.744682 
L 541.275052 233.801985 
L 540.685707 232.859288 
L 540.198288 231.916591 
L 539.834629 230.973894 
L 539.611404 230.031197 
L 539.53929 229.0885 
L 539.622464 228.145803 
L 539.858487 227.203106 
L 540.238582 226.260409 
L 540.748308 225.317712 
L 541.368559 224.375015 
L 542.076815 223.432318 
L 542.848528 222.489621 
L 543.658549 221.546924 
L 544.482468 220.604227 
L 545.297788 219.66153 
L 546.084852 218.718833 
L 546.827489 217.776136 
L 547.513354 216.833439 
L 548.133995 215.890742 
L 548.684664 214.948045 
L 549.163939 214.005348 
L 549.573209 213.062652 
L 549.91609 212.119955 
L 550.197823 211.177258 
L 550.424702 210.234561 
L 550.603565 209.291864 
L 550.741375 208.349167 
L 550.844889 207.40647 
L 550.920425 206.463773 
L 550.973706 205.521076 
L 551.009788 204.578379 
L 551.033024 203.635682 
L 551.047088 202.692985 
L 551.055007 201.750288 
L 551.059224 200.807591 
L 551.061649 199.864894 
L 551.063732 198.922197 
L 551.066515 197.9795 
L 551.500758 197.9795 
L 551.500758 197.9795 
L 551.503541 198.922197 
L 551.505623 199.864894 
L 551.508049 200.807591 
L 551.512265 201.750288 
L 551.520185 202.692985 
L 551.534249 203.635682 
L 551.557485 204.578379 
L 551.593566 205.521076 
L 551.646848 206.463773 
L 551.722383 207.40647 
L 551.825898 208.349167 
L 551.963708 209.291864 
L 552.142571 210.234561 
L 552.369449 211.177258 
L 552.651182 212.119955 
L 552.994064 213.062652 
L 553.403334 214.005348 
L 553.882608 214.948045 
L 554.433278 215.890742 
L 555.053919 216.833439 
L 555.739784 217.776136 
L 556.482421 218.718833 
L 557.269485 219.66153 
L 558.084805 220.604227 
L 558.908724 221.546924 
L 559.718745 222.489621 
L 560.490458 223.432318 
L 561.198714 224.375015 
L 561.818965 225.317712 
L 562.328691 226.260409 
L 562.708786 227.203106 
L 562.944808 228.145803 
L 563.027983 229.0885 
L 562.955869 230.031197 
L 562.732644 230.973894 
L 562.368985 231.916591 
L 561.881566 232.859288 
L 561.292221 233.801985 
L 560.626865 234.744682 
L 559.914266 235.687379 
L 559.184761 236.630076 
L 558.469032 237.572773 
L 557.796998 238.51547 
L 557.196875 239.458167 
L 556.694428 240.400864 
L 556.312399 241.343561 
L 556.070073 242.286258 
L 555.982937 243.228955 
L 556.062379 244.171652 
L 556.315383 245.114348 
L 556.744182 246.057045 
L 557.345894 246.999742 
L 558.112141 247.942439 
L 559.028729 248.885136 
L 560.075451 249.827833 
L 561.226113 250.77053 
L 562.448855 251.713227 
L 563.706849 252.655924 
L 564.959392 253.598621 
L 566.163404 254.541318 
L 567.275266 255.484015 
L 568.252905 256.426712 
L 569.057987 257.369409 
L 569.658037 258.312106 
L 570.028337 259.254803 
L 570.153409 260.1975 
L 570.027965 261.140197 
L 569.657233 262.082894 
L 569.056628 263.025591 
L 568.250795 263.968288 
L 567.272114 264.910985 
L 566.158806 265.853682 
L 564.952802 266.796379 
L 563.697545 267.739076 
L 562.435904 268.681773 
L 561.208331 269.62447 
L 560.051369 270.567167 
L 558.99655 271.509864 
L 558.069721 272.452561 
L 557.290721 273.395258 
L 556.673384 274.337955 
L 556.225752 275.280652 
L 555.950425 276.223348 
L 555.844971 277.166045 
L 555.902328 278.108742 
L 556.111178 279.051439 
L 556.456282 279.994136 
L 556.918801 280.936833 
L 557.476649 281.87953 
L 558.104921 282.822227 
L 558.77645 283.764924 
L 559.46252 284.707621 
L 560.133754 285.650318 
L 560.76116 286.593015 
L 561.317291 287.535712 
L 561.777441 288.478409 
L 562.120807 289.421106 
L 562.331506 290.363803 
L 562.399349 291.3065 
z
" clip-path="url(#p6c255272a5)" style="fill: #1f77b4; fill-opacity: 0.3"/>
   </g>
   <g id="PolyCollection_8">
    <path d="M 633.672982 291.3065 
L 619.852473 291.3065 
L 619.904271 290.363803 
L 620.060452 289.421106 
L 620.312838 288.478409 
L 620.6486 287.535712 
L 621.051012 286.593015 
L 621.500405 285.650318 
L 621.975193 284.707621 
L 622.452885 283.764924 
L 622.910963 282.822227 
L 623.327586 281.87953 
L 623.682067 280.936833 
L 623.95516 279.994136 
L 624.129189 279.051439 
L 624.188104 278.108742 
L 624.117555 277.166045 
L 623.905092 276.223348 
L 623.54054 275.280652 
L 623.016617 274.337955 
L 622.329779 273.395258 
L 621.481248 272.452561 
L 620.478101 271.509864 
L 619.334295 270.567167 
L 618.071435 269.62447 
L 616.71911 268.681773 
L 615.314648 267.739076 
L 613.902168 266.796379 
L 612.53091 265.853682 
L 611.252871 264.910985 
L 610.119909 263.968288 
L 609.180533 263.025591 
L 608.476659 262.082894 
L 608.040652 261.140197 
L 607.892955 260.1975 
L 608.04055 259.254803 
L 608.476431 258.312106 
L 609.18013 257.369409 
L 610.119247 256.426712 
L 611.251824 255.484015 
L 612.52929 254.541318 
L 613.899706 253.598621 
L 615.310967 252.655924 
L 616.713695 251.713227 
L 618.063594 250.77053 
L 619.32312 249.827833 
L 620.462421 248.885136 
L 621.459592 247.942439 
L 622.300338 246.999742 
L 622.977216 246.057045 
L 623.488636 245.114348 
L 623.837784 244.171652 
L 624.031636 243.228955 
L 624.080141 242.286258 
L 623.995649 241.343561 
L 623.792562 240.400864 
L 623.487182 239.458167 
L 623.097654 238.51547 
L 622.64392 237.572773 
L 622.147587 236.630076 
L 621.631615 235.687379 
L 621.119788 234.744682 
L 620.635952 233.801985 
L 620.20305 232.859288 
L 619.84203 231.916591 
L 619.570723 230.973894 
L 619.402811 230.031197 
L 619.34701 229.0885 
L 619.406546 228.145803 
L 619.579025 227.203106 
L 619.856692 226.260409 
L 620.227081 225.317712 
L 620.673984 224.375015 
L 621.178648 223.432318 
L 621.721076 222.489621 
L 622.281325 221.546924 
L 622.840666 220.604227 
L 623.382542 219.66153 
L 623.893239 218.718833 
L 624.362272 217.776136 
L 624.782474 216.833439 
L 625.149842 215.890742 
L 625.463183 214.948045 
L 625.72364 214.005348 
L 625.934156 213.062652 
L 626.098936 212.119955 
L 626.222959 211.177258 
L 626.311569 210.234561 
L 626.370154 209.291864 
L 626.403928 208.349167 
L 626.417791 207.40647 
L 626.416257 206.463773 
L 626.403431 205.521076 
L 626.383013 204.578379 
L 626.358307 203.635682 
L 626.332234 202.692985 
L 626.307333 201.750288 
L 626.285745 200.807591 
L 626.2692 199.864894 
L 626.258991 198.922197 
L 626.255961 197.9795 
L 627.269493 197.9795 
L 627.269493 197.9795 
L 627.266463 198.922197 
L 627.256255 199.864894 
L 627.239709 200.807591 
L 627.218122 201.750288 
L 627.19322 202.692985 
L 627.167148 203.635682 
L 627.142442 204.578379 
L 627.122023 205.521076 
L 627.109197 206.463773 
L 627.107664 207.40647 
L 627.121527 208.349167 
L 627.155301 209.291864 
L 627.213886 210.234561 
L 627.302495 211.177258 
L 627.426518 212.119955 
L 627.591298 213.062652 
L 627.801814 214.005348 
L 628.062272 214.948045 
L 628.375613 215.890742 
L 628.74298 216.833439 
L 629.163182 217.776136 
L 629.632215 218.718833 
L 630.142912 219.66153 
L 630.684788 220.604227 
L 631.24413 221.546924 
L 631.804378 222.489621 
L 632.346807 223.432318 
L 632.85147 224.375015 
L 633.298373 225.317712 
L 633.668763 226.260409 
L 633.94643 227.203106 
L 634.118909 228.145803 
L 634.178445 229.0885 
L 634.122643 230.031197 
L 633.954732 230.973894 
L 633.683425 231.916591 
L 633.322405 232.859288 
L 632.889503 233.801985 
L 632.405667 234.744682 
L 631.89384 235.687379 
L 631.377867 236.630076 
L 630.881534 237.572773 
L 630.427801 238.51547 
L 630.038272 239.458167 
L 629.732892 240.400864 
L 629.529806 241.343561 
L 629.445313 242.286258 
L 629.493818 243.228955 
L 629.68767 244.171652 
L 630.036819 245.114348 
L 630.548238 246.057045 
L 631.225117 246.999742 
L 632.065863 247.942439 
L 633.063034 248.885136 
L 634.202335 249.827833 
L 635.46186 250.77053 
L 636.811759 251.713227 
L 638.214488 252.655924 
L 639.625749 253.598621 
L 640.996165 254.541318 
L 642.273631 255.484015 
L 643.406207 256.426712 
L 644.345325 257.369409 
L 645.049024 258.312106 
L 645.484905 259.254803 
L 645.6325 260.1975 
L 645.484802 261.140197 
L 645.048795 262.082894 
L 644.344921 263.025591 
L 643.405546 263.968288 
L 642.272584 264.910985 
L 640.994545 265.853682 
L 639.623286 266.796379 
L 638.210807 267.739076 
L 636.806344 268.681773 
L 635.454019 269.62447 
L 634.191159 270.567167 
L 633.047354 271.509864 
L 632.044207 272.452561 
L 631.195675 273.395258 
L 630.508838 274.337955 
L 629.984914 275.280652 
L 629.620362 276.223348 
L 629.407899 277.166045 
L 629.337351 278.108742 
L 629.396265 279.051439 
L 629.570294 279.994136 
L 629.843388 280.936833 
L 630.197869 281.87953 
L 630.614491 282.822227 
L 631.07257 283.764924 
L 631.550261 284.707621 
L 632.02505 285.650318 
L 632.474442 286.593015 
L 632.876855 287.535712 
L 633.212616 288.478409 
L 633.465002 289.421106 
L 633.621183 290.363803 
L 633.672982 291.3065 
z
" clip-path="url(#p6c255272a5)" style="fill: #1f77b4; fill-opacity: 0.3"/>
   </g>
   <g id="PolyCollection_9">
    <path d="M 721.111591 322.4155 
L 683.372045 322.4155 
L 683.372045 322.4155 
L 683.372045 322.4155 
L 683.372045 322.4155 
L 683.372045 322.4155 
L 683.372045 322.4155 
L 683.372045 322.4155 
L 683.372045 322.4155 
L 683.372045 322.4155 
L 683.372045 322.4155 
L 683.372045 322.4155 
L 683.372045 322.4155 
L 683.372045 322.4155 
L 683.372045 322.4155 
L 683.372045 322.4155 
L 683.372045 322.4155 
L 683.372045 322.4155 
L 683.372045 322.4155 
L 683.372045 322.4155 
L 683.372045 322.4155 
L 683.372045 322.4155 
L 683.372045 322.4155 
L 683.372045 322.4155 
L 683.372045 322.4155 
L 683.372045 322.4155 
L 683.372045 322.4155 
L 683.372045 322.4155 
L 683.372045 322.4155 
L 683.372045 322.4155 
L 683.372045 322.4155 
L 683.372045 322.4155 
L 683.372045 322.4155 
L 683.372045 322.4155 
L 683.372045 322.4155 
L 683.372045 322.4155 
L 683.372045 322.4155 
L 683.372045 322.4155 
L 683.372045 322.4155 
L 683.372045 322.4155 
L 683.372045 322.4155 
L 683.372045 322.4155 
L 683.372045 322.4155 
L 683.372045 322.4155 
L 683.372045 322.4155 
L 683.372045 322.4155 
L 683.372045 322.4155 
L 683.372045 322.4155 
L 683.372045 322.4155 
L 683.372045 322.4155 
L 683.372045 322.4155 
L 683.372045 322.4155 
L 683.372045 322.4155 
L 683.372045 322.4155 
L 683.372045 322.4155 
L 683.372045 322.4155 
L 683.372045 322.4155 
L 683.372045 322.4155 
L 683.372045 322.4155 
L 683.372045 322.4155 
L 683.372045 322.4155 
L 683.372045 322.4155 
L 683.372045 322.4155 
L 683.372045 322.4155 
L 683.372045 322.4155 
L 683.372045 322.4155 
L 683.372045 322.4155 
L 683.372045 322.4155 
L 683.372045 322.4155 
L 683.372045 322.4155 
L 683.372045 322.4155 
L 683.372045 322.4155 
L 683.372045 322.4155 
L 683.372045 322.4155 
L 683.372045 322.4155 
L 683.372045 322.4155 
L 683.372045 322.4155 
L 683.372045 322.4155 
L 683.372045 322.4155 
L 683.372045 322.4155 
L 683.372045 322.4155 
L 683.372045 322.4155 
L 683.372045 322.4155 
L 683.372045 322.4155 
L 683.372045 322.4155 
L 683.372045 322.4155 
L 683.372045 322.4155 
L 683.372045 322.4155 
L 683.372045 322.4155 
L 683.372045 322.4155 
L 683.372045 322.4155 
L 683.372045 322.4155 
L 683.372045 322.4155 
L 683.372045 322.4155 
L 683.372045 322.4155 
L 683.372045 322.4155 
L 683.372045 322.4155 
L 683.372045 322.4155 
L 683.372045 322.4155 
L 683.372045 322.4155 
L 683.372045 322.4155 
L 721.111591 322.4155 
L 721.111591 322.4155 
L 721.111591 322.4155 
L 721.111591 322.4155 
L 721.111591 322.4155 
L 721.111591 322.4155 
L 721.111591 322.4155 
L 721.111591 322.4155 
L 721.111591 322.4155 
L 721.111591 322.4155 
L 721.111591 322.4155 
L 721.111591 322.4155 
L 721.111591 322.4155 
L 721.111591 322.4155 
L 721.111591 322.4155 
L 721.111591 322.4155 
L 721.111591 322.4155 
L 721.111591 322.4155 
L 721.111591 322.4155 
L 721.111591 322.4155 
L 721.111591 322.4155 
L 721.111591 322.4155 
L 721.111591 322.4155 
L 721.111591 322.4155 
L 721.111591 322.4155 
L 721.111591 322.4155 
L 721.111591 322.4155 
L 721.111591 322.4155 
L 721.111591 322.4155 
L 721.111591 322.4155 
L 721.111591 322.4155 
L 721.111591 322.4155 
L 721.111591 322.4155 
L 721.111591 322.4155 
L 721.111591 322.4155 
L 721.111591 322.4155 
L 721.111591 322.4155 
L 721.111591 322.4155 
L 721.111591 322.4155 
L 721.111591 322.4155 
L 721.111591 322.4155 
L 721.111591 322.4155 
L 721.111591 322.4155 
L 721.111591 322.4155 
L 721.111591 322.4155 
L 721.111591 322.4155 
L 721.111591 322.4155 
L 721.111591 322.4155 
L 721.111591 322.4155 
L 721.111591 322.4155 
L 721.111591 322.4155 
L 721.111591 322.4155 
L 721.111591 322.4155 
L 721.111591 322.4155 
L 721.111591 322.4155 
L 721.111591 322.4155 
L 721.111591 322.4155 
L 721.111591 322.4155 
L 721.111591 322.4155 
L 721.111591 322.4155 
L 721.111591 322.4155 
L 721.111591 322.4155 
L 721.111591 322.4155 
L 721.111591 322.4155 
L 721.111591 322.4155 
L 721.111591 322.4155 
L 721.111591 322.4155 
L 721.111591 322.4155 
L 721.111591 322.4155 
L 721.111591 322.4155 
L 721.111591 322.4155 
L 721.111591 322.4155 
L 721.111591 322.4155 
L 721.111591 322.4155 
L 721.111591 322.4155 
L 721.111591 322.4155 
L 721.111591 322.4155 
L 721.111591 322.4155 
L 721.111591 322.4155 
L 721.111591 322.4155 
L 721.111591 322.4155 
L 721.111591 322.4155 
L 721.111591 322.4155 
L 721.111591 322.4155 
L 721.111591 322.4155 
L 721.111591 322.4155 
L 721.111591 322.4155 
L 721.111591 322.4155 
L 721.111591 322.4155 
L 721.111591 322.4155 
L 721.111591 322.4155 
L 721.111591 322.4155 
L 721.111591 322.4155 
L 721.111591 322.4155 
L 721.111591 322.4155 
L 721.111591 322.4155 
L 721.111591 322.4155 
L 721.111591 322.4155 
L 721.111591 322.4155 
L 721.111591 322.4155 
L 721.111591 322.4155 
z
" clip-path="url(#p6c255272a5)" style="fill: #1f77b4; fill-opacity: 0.3"/>
   </g>
   <g id="PolyCollection_10">
    <path d="M 796.590682 322.4155 
L 758.851136 322.4155 
L 758.851136 322.4155 
L 758.851136 322.4155 
L 758.851136 322.4155 
L 758.851136 322.4155 
L 758.851136 322.4155 
L 758.851136 322.4155 
L 758.851136 322.4155 
L 758.851136 322.4155 
L 758.851136 322.4155 
L 758.851136 322.4155 
L 758.851136 322.4155 
L 758.851136 322.4155 
L 758.851136 322.4155 
L 758.851136 322.4155 
L 758.851136 322.4155 
L 758.851136 322.4155 
L 758.851136 322.4155 
L 758.851136 322.4155 
L 758.851136 322.4155 
L 758.851136 322.4155 
L 758.851136 322.4155 
L 758.851136 322.4155 
L 758.851136 322.4155 
L 758.851136 322.4155 
L 758.851136 322.4155 
L 758.851136 322.4155 
L 758.851136 322.4155 
L 758.851136 322.4155 
L 758.851136 322.4155 
L 758.851136 322.4155 
L 758.851136 322.4155 
L 758.851136 322.4155 
L 758.851136 322.4155 
L 758.851136 322.4155 
L 758.851136 322.4155 
L 758.851136 322.4155 
L 758.851136 322.4155 
L 758.851136 322.4155 
L 758.851136 322.4155 
L 758.851136 322.4155 
L 758.851136 322.4155 
L 758.851136 322.4155 
L 758.851136 322.4155 
L 758.851136 322.4155 
L 758.851136 322.4155 
L 758.851136 322.4155 
L 758.851136 322.4155 
L 758.851136 322.4155 
L 758.851136 322.4155 
L 758.851136 322.4155 
L 758.851136 322.4155 
L 758.851136 322.4155 
L 758.851136 322.4155 
L 758.851136 322.4155 
L 758.851136 322.4155 
L 758.851136 322.4155 
L 758.851136 322.4155 
L 758.851136 322.4155 
L 758.851136 322.4155 
L 758.851136 322.4155 
L 758.851136 322.4155 
L 758.851136 322.4155 
L 758.851136 322.4155 
L 758.851136 322.4155 
L 758.851136 322.4155 
L 758.851136 322.4155 
L 758.851136 322.4155 
L 758.851136 322.4155 
L 758.851136 322.4155 
L 758.851136 322.4155 
L 758.851136 322.4155 
L 758.851136 322.4155 
L 758.851136 322.4155 
L 758.851136 322.4155 
L 758.851136 322.4155 
L 758.851136 322.4155 
L 758.851136 322.4155 
L 758.851136 322.4155 
L 758.851136 322.4155 
L 758.851136 322.4155 
L 758.851136 322.4155 
L 758.851136 322.4155 
L 758.851136 322.4155 
L 758.851136 322.4155 
L 758.851136 322.4155 
L 758.851136 322.4155 
L 758.851136 322.4155 
L 758.851136 322.4155 
L 758.851136 322.4155 
L 758.851136 322.4155 
L 758.851136 322.4155 
L 758.851136 322.4155 
L 758.851136 322.4155 
L 758.851136 322.4155 
L 758.851136 322.4155 
L 758.851136 322.4155 
L 758.851136 322.4155 
L 758.851136 322.4155 
L 758.851136 322.4155 
L 796.590682 322.4155 
L 796.590682 322.4155 
L 796.590682 322.4155 
L 796.590682 322.4155 
L 796.590682 322.4155 
L 796.590682 322.4155 
L 796.590682 322.4155 
L 796.590682 322.4155 
L 796.590682 322.4155 
L 796.590682 322.4155 
L 796.590682 322.4155 
L 796.590682 322.4155 
L 796.590682 322.4155 
L 796.590682 322.4155 
L 796.590682 322.4155 
L 796.590682 322.4155 
L 796.590682 322.4155 
L 796.590682 322.4155 
L 796.590682 322.4155 
L 796.590682 322.4155 
L 796.590682 322.4155 
L 796.590682 322.4155 
L 796.590682 322.4155 
L 796.590682 322.4155 
L 796.590682 322.4155 
L 796.590682 322.4155 
L 796.590682 322.4155 
L 796.590682 322.4155 
L 796.590682 322.4155 
L 796.590682 322.4155 
L 796.590682 322.4155 
L 796.590682 322.4155 
L 796.590682 322.4155 
L 796.590682 322.4155 
L 796.590682 322.4155 
L 796.590682 322.4155 
L 796.590682 322.4155 
L 796.590682 322.4155 
L 796.590682 322.4155 
L 796.590682 322.4155 
L 796.590682 322.4155 
L 796.590682 322.4155 
L 796.590682 322.4155 
L 796.590682 322.4155 
L 796.590682 322.4155 
L 796.590682 322.4155 
L 796.590682 322.4155 
L 796.590682 322.4155 
L 796.590682 322.4155 
L 796.590682 322.4155 
L 796.590682 322.4155 
L 796.590682 322.4155 
L 796.590682 322.4155 
L 796.590682 322.4155 
L 796.590682 322.4155 
L 796.590682 322.4155 
L 796.590682 322.4155 
L 796.590682 322.4155 
L 796.590682 322.4155 
L 796.590682 322.4155 
L 796.590682 322.4155 
L 796.590682 322.4155 
L 796.590682 322.4155 
L 796.590682 322.4155 
L 796.590682 322.4155 
L 796.590682 322.4155 
L 796.590682 322.4155 
L 796.590682 322.4155 
L 796.590682 322.4155 
L 796.590682 322.4155 
L 796.590682 322.4155 
L 796.590682 322.4155 
L 796.590682 322.4155 
L 796.590682 322.4155 
L 796.590682 322.4155 
L 796.590682 322.4155 
L 796.590682 322.4155 
L 796.590682 322.4155 
L 796.590682 322.4155 
L 796.590682 322.4155 
L 796.590682 322.4155 
L 796.590682 322.4155 
L 796.590682 322.4155 
L 796.590682 322.4155 
L 796.590682 322.4155 
L 796.590682 322.4155 
L 796.590682 322.4155 
L 796.590682 322.4155 
L 796.590682 322.4155 
L 796.590682 322.4155 
L 796.590682 322.4155 
L 796.590682 322.4155 
L 796.590682 322.4155 
L 796.590682 322.4155 
L 796.590682 322.4155 
L 796.590682 322.4155 
L 796.590682 322.4155 
L 796.590682 322.4155 
L 796.590682 322.4155 
L 796.590682 322.4155 
L 796.590682 322.4155 
z
" clip-path="url(#p6c255272a5)" style="fill: #1f77b4; fill-opacity: 0.3"/>
   </g>
   <g id="matplotlib.axis_1">
    <g id="xtick_1">
     <g id="line2d_1">
      <defs>
       <path id="md2f3c4c3b6" d="M 0 0 
L 0 3.5 
" style="stroke: #000000; stroke-width: 0.8"/>
      </defs>
      <g>
       <use xlink:href="#md2f3c4c3b6" x="98.409091" y="337.97" style="stroke: #000000; stroke-width: 0.8"/>
      </g>
     </g>
     <g id="text_1">
      <!-- Defector -->
      <g transform="translate(100.616591 379.51)rotate(-90)scale(0.08 -0.08)">
       <defs>
        <path id="DejaVuSans-44" d="M 1259 4147 
L 1259 519 
L 2022 519 
Q 2988 519 3436 956 
Q 3884 1394 3884 2338 
Q 3884 3275 3436 3711 
Q 2988 4147 2022 4147 
L 1259 4147 
z
M 628 4666 
L 1925 4666 
Q 3281 4666 3915 4102 
Q 4550 3538 4550 2338 
Q 4550 1131 3912 565 
Q 3275 0 1925 0 
L 628 0 
L 628 4666 
z
" transform="scale(0.015625)"/>
        <path id="DejaVuSans-65" d="M 3597 1894 
L 3597 1613 
L 953 1613 
Q 991 1019 1311 708 
Q 1631 397 2203 397 
Q 2534 397 2845 478 
Q 3156 559 3463 722 
L 3463 178 
Q 3153 47 2828 -22 
Q 2503 -91 2169 -91 
Q 1331 -91 842 396 
Q 353 884 353 1716 
Q 353 2575 817 3079 
Q 1281 3584 2069 3584 
Q 2775 3584 3186 3129 
Q 3597 2675 3597 1894 
z
M 3022 2063 
Q 3016 2534 2758 2815 
Q 2500 3097 2075 3097 
Q 1594 3097 1305 2825 
Q 1016 2553 972 2059 
L 3022 2063 
z
" transform="scale(0.015625)"/>
        <path id="DejaVuSans-66" d="M 2375 4863 
L 2375 4384 
L 1825 4384 
Q 1516 4384 1395 4259 
Q 1275 4134 1275 3809 
L 1275 3500 
L 2222 3500 
L 2222 3053 
L 1275 3053 
L 1275 0 
L 697 0 
L 697 3053 
L 147 3053 
L 147 3500 
L 697 3500 
L 697 3744 
Q 697 4328 969 4595 
Q 1241 4863 1831 4863 
L 2375 4863 
z
" transform="scale(0.015625)"/>
        <path id="DejaVuSans-63" d="M 3122 3366 
L 3122 2828 
Q 2878 2963 2633 3030 
Q 2388 3097 2138 3097 
Q 1578 3097 1268 2742 
Q 959 2388 959 1747 
Q 959 1106 1268 751 
Q 1578 397 2138 397 
Q 2388 397 2633 464 
Q 2878 531 3122 666 
L 3122 134 
Q 2881 22 2623 -34 
Q 2366 -91 2075 -91 
Q 1284 -91 818 406 
Q 353 903 353 1747 
Q 353 2603 823 3093 
Q 1294 3584 2113 3584 
Q 2378 3584 2631 3529 
Q 2884 3475 3122 3366 
z
" transform="scale(0.015625)"/>
        <path id="DejaVuSans-74" d="M 1172 4494 
L 1172 3500 
L 2356 3500 
L 2356 3053 
L 1172 3053 
L 1172 1153 
Q 1172 725 1289 603 
Q 1406 481 1766 481 
L 2356 481 
L 2356 0 
L 1766 0 
Q 1100 0 847 248 
Q 594 497 594 1153 
L 594 3053 
L 172 3053 
L 172 3500 
L 594 3500 
L 594 4494 
L 1172 4494 
z
" transform="scale(0.015625)"/>
        <path id="DejaVuSans-6f" d="M 1959 3097 
Q 1497 3097 1228 2736 
Q 959 2375 959 1747 
Q 959 1119 1226 758 
Q 1494 397 1959 397 
Q 2419 397 2687 759 
Q 2956 1122 2956 1747 
Q 2956 2369 2687 2733 
Q 2419 3097 1959 3097 
z
M 1959 3584 
Q 2709 3584 3137 3096 
Q 3566 2609 3566 1747 
Q 3566 888 3137 398 
Q 2709 -91 1959 -91 
Q 1206 -91 779 398 
Q 353 888 353 1747 
Q 353 2609 779 3096 
Q 1206 3584 1959 3584 
z
" transform="scale(0.015625)"/>
        <path id="DejaVuSans-72" d="M 2631 2963 
Q 2534 3019 2420 3045 
Q 2306 3072 2169 3072 
Q 1681 3072 1420 2755 
Q 1159 2438 1159 1844 
L 1159 0 
L 581 0 
L 581 3500 
L 1159 3500 
L 1159 2956 
Q 1341 3275 1631 3429 
Q 1922 3584 2338 3584 
Q 2397 3584 2469 3576 
Q 2541 3569 2628 3553 
L 2631 2963 
z
" transform="scale(0.015625)"/>
       </defs>
       <use xlink:href="#DejaVuSans-44"/>
       <use xlink:href="#DejaVuSans-65" x="77.001953"/>
       <use xlink:href="#DejaVuSans-66" x="138.525391"/>
       <use xlink:href="#DejaVuSans-65" x="173.730469"/>
       <use xlink:href="#DejaVuSans-63" x="235.253906"/>
       <use xlink:href="#DejaVuSans-74" x="290.234375"/>
       <use xlink:href="#DejaVuSans-6f" x="329.443359"/>
       <use xlink:href="#DejaVuSans-72" x="390.625"/>
      </g>
     </g>
    </g>
    <g id="xtick_2">
     <g id="line2d_2">
      <g>
       <use xlink:href="#md2f3c4c3b6" x="173.888182" y="337.97" style="stroke: #000000; stroke-width: 0.8"/>
      </g>
     </g>
     <g id="text_2">
      <!-- Alternator -->
      <g transform="translate(176.095682 385.165)rotate(-90)scale(0.08 -0.08)">
       <defs>
        <path id="DejaVuSans-41" d="M 2188 4044 
L 1331 1722 
L 3047 1722 
L 2188 4044 
z
M 1831 4666 
L 2547 4666 
L 4325 0 
L 3669 0 
L 3244 1197 
L 1141 1197 
L 716 0 
L 50 0 
L 1831 4666 
z
" transform="scale(0.015625)"/>
        <path id="DejaVuSans-6c" d="M 603 4863 
L 1178 4863 
L 1178 0 
L 603 0 
L 603 4863 
z
" transform="scale(0.015625)"/>
        <path id="DejaVuSans-6e" d="M 3513 2113 
L 3513 0 
L 2938 0 
L 2938 2094 
Q 2938 2591 2744 2837 
Q 2550 3084 2163 3084 
Q 1697 3084 1428 2787 
Q 1159 2491 1159 1978 
L 1159 0 
L 581 0 
L 581 3500 
L 1159 3500 
L 1159 2956 
Q 1366 3272 1645 3428 
Q 1925 3584 2291 3584 
Q 2894 3584 3203 3211 
Q 3513 2838 3513 2113 
z
" transform="scale(0.015625)"/>
        <path id="DejaVuSans-61" d="M 2194 1759 
Q 1497 1759 1228 1600 
Q 959 1441 959 1056 
Q 959 750 1161 570 
Q 1363 391 1709 391 
Q 2188 391 2477 730 
Q 2766 1069 2766 1631 
L 2766 1759 
L 2194 1759 
z
M 3341 1997 
L 3341 0 
L 2766 0 
L 2766 531 
Q 2569 213 2275 61 
Q 1981 -91 1556 -91 
Q 1019 -91 701 211 
Q 384 513 384 1019 
Q 384 1609 779 1909 
Q 1175 2209 1959 2209 
L 2766 2209 
L 2766 2266 
Q 2766 2663 2505 2880 
Q 2244 3097 1772 3097 
Q 1472 3097 1187 3025 
Q 903 2953 641 2809 
L 641 3341 
Q 956 3463 1253 3523 
Q 1550 3584 1831 3584 
Q 2591 3584 2966 3190 
Q 3341 2797 3341 1997 
z
" transform="scale(0.015625)"/>
       </defs>
       <use xlink:href="#DejaVuSans-41"/>
       <use xlink:href="#DejaVuSans-6c" x="68.408203"/>
       <use xlink:href="#DejaVuSans-74" x="96.191406"/>
       <use xlink:href="#DejaVuSans-65" x="135.400391"/>
       <use xlink:href="#DejaVuSans-72" x="196.923828"/>
       <use xlink:href="#DejaVuSans-6e" x="236.287109"/>
       <use xlink:href="#DejaVuSans-61" x="299.666016"/>
       <use xlink:href="#DejaVuSans-74" x="360.945312"/>
       <use xlink:href="#DejaVuSans-6f" x="400.154297"/>
       <use xlink:href="#DejaVuSans-72" x="461.335938"/>
      </g>
     </g>
    </g>
    <g id="xtick_3">
     <g id="line2d_3">
      <g>
       <use xlink:href="#md2f3c4c3b6" x="249.367273" y="337.97" style="stroke: #000000; stroke-width: 0.8"/>
      </g>
     </g>
     <g id="text_3">
      <!-- Random: 0.5 -->
      <g transform="translate(251.574773 396.0475)rotate(-90)scale(0.08 -0.08)">
       <defs>
        <path id="DejaVuSans-52" d="M 2841 2188 
Q 3044 2119 3236 1894 
Q 3428 1669 3622 1275 
L 4263 0 
L 3584 0 
L 2988 1197 
Q 2756 1666 2539 1819 
Q 2322 1972 1947 1972 
L 1259 1972 
L 1259 0 
L 628 0 
L 628 4666 
L 2053 4666 
Q 2853 4666 3247 4331 
Q 3641 3997 3641 3322 
Q 3641 2881 3436 2590 
Q 3231 2300 2841 2188 
z
M 1259 4147 
L 1259 2491 
L 2053 2491 
Q 2509 2491 2742 2702 
Q 2975 2913 2975 3322 
Q 2975 3731 2742 3939 
Q 2509 4147 2053 4147 
L 1259 4147 
z
" transform="scale(0.015625)"/>
        <path id="DejaVuSans-64" d="M 2906 2969 
L 2906 4863 
L 3481 4863 
L 3481 0 
L 2906 0 
L 2906 525 
Q 2725 213 2448 61 
Q 2172 -91 1784 -91 
Q 1150 -91 751 415 
Q 353 922 353 1747 
Q 353 2572 751 3078 
Q 1150 3584 1784 3584 
Q 2172 3584 2448 3432 
Q 2725 3281 2906 2969 
z
M 947 1747 
Q 947 1113 1208 752 
Q 1469 391 1925 391 
Q 2381 391 2643 752 
Q 2906 1113 2906 1747 
Q 2906 2381 2643 2742 
Q 2381 3103 1925 3103 
Q 1469 3103 1208 2742 
Q 947 2381 947 1747 
z
" transform="scale(0.015625)"/>
        <path id="DejaVuSans-6d" d="M 3328 2828 
Q 3544 3216 3844 3400 
Q 4144 3584 4550 3584 
Q 5097 3584 5394 3201 
Q 5691 2819 5691 2113 
L 5691 0 
L 5113 0 
L 5113 2094 
Q 5113 2597 4934 2840 
Q 4756 3084 4391 3084 
Q 3944 3084 3684 2787 
Q 3425 2491 3425 1978 
L 3425 0 
L 2847 0 
L 2847 2094 
Q 2847 2600 2669 2842 
Q 2491 3084 2119 3084 
Q 1678 3084 1418 2786 
Q 1159 2488 1159 1978 
L 1159 0 
L 581 0 
L 581 3500 
L 1159 3500 
L 1159 2956 
Q 1356 3278 1631 3431 
Q 1906 3584 2284 3584 
Q 2666 3584 2933 3390 
Q 3200 3197 3328 2828 
z
" transform="scale(0.015625)"/>
        <path id="DejaVuSans-3a" d="M 750 794 
L 1409 794 
L 1409 0 
L 750 0 
L 750 794 
z
M 750 3309 
L 1409 3309 
L 1409 2516 
L 750 2516 
L 750 3309 
z
" transform="scale(0.015625)"/>
        <path id="DejaVuSans-20" transform="scale(0.015625)"/>
        <path id="DejaVuSans-30" d="M 2034 4250 
Q 1547 4250 1301 3770 
Q 1056 3291 1056 2328 
Q 1056 1369 1301 889 
Q 1547 409 2034 409 
Q 2525 409 2770 889 
Q 3016 1369 3016 2328 
Q 3016 3291 2770 3770 
Q 2525 4250 2034 4250 
z
M 2034 4750 
Q 2819 4750 3233 4129 
Q 3647 3509 3647 2328 
Q 3647 1150 3233 529 
Q 2819 -91 2034 -91 
Q 1250 -91 836 529 
Q 422 1150 422 2328 
Q 422 3509 836 4129 
Q 1250 4750 2034 4750 
z
" transform="scale(0.015625)"/>
        <path id="DejaVuSans-2e" d="M 684 794 
L 1344 794 
L 1344 0 
L 684 0 
L 684 794 
z
" transform="scale(0.015625)"/>
        <path id="DejaVuSans-35" d="M 691 4666 
L 3169 4666 
L 3169 4134 
L 1269 4134 
L 1269 2991 
Q 1406 3038 1543 3061 
Q 1681 3084 1819 3084 
Q 2600 3084 3056 2656 
Q 3513 2228 3513 1497 
Q 3513 744 3044 326 
Q 2575 -91 1722 -91 
Q 1428 -91 1123 -41 
Q 819 9 494 109 
L 494 744 
Q 775 591 1075 516 
Q 1375 441 1709 441 
Q 2250 441 2565 725 
Q 2881 1009 2881 1497 
Q 2881 1984 2565 2268 
Q 2250 2553 1709 2553 
Q 1456 2553 1204 2497 
Q 953 2441 691 2322 
L 691 4666 
z
" transform="scale(0.015625)"/>
       </defs>
       <use xlink:href="#DejaVuSans-52"/>
       <use xlink:href="#DejaVuSans-61" x="67.232422"/>
       <use xlink:href="#DejaVuSans-6e" x="128.511719"/>
       <use xlink:href="#DejaVuSans-64" x="191.890625"/>
       <use xlink:href="#DejaVuSans-6f" x="255.367188"/>
       <use xlink:href="#DejaVuSans-6d" x="316.548828"/>
       <use xlink:href="#DejaVuSans-3a" x="413.960938"/>
       <use xlink:href="#DejaVuSans-20" x="447.652344"/>
       <use xlink:href="#DejaVuSans-30" x="479.439453"/>
       <use xlink:href="#DejaVuSans-2e" x="543.0625"/>
       <use xlink:href="#DejaVuSans-35" x="574.849609"/>
      </g>
     </g>
    </g>
    <g id="xtick_4">
     <g id="line2d_4">
      <g>
       <use xlink:href="#md2f3c4c3b6" x="324.846364" y="337.97" style="stroke: #000000; stroke-width: 0.8"/>
      </g>
     </g>
     <g id="text_4">
      <!-- Grudger -->
      <g transform="translate(327.053864 377.89625)rotate(-90)scale(0.08 -0.08)">
       <defs>
        <path id="DejaVuSans-47" d="M 3809 666 
L 3809 1919 
L 2778 1919 
L 2778 2438 
L 4434 2438 
L 4434 434 
Q 4069 175 3628 42 
Q 3188 -91 2688 -91 
Q 1594 -91 976 548 
Q 359 1188 359 2328 
Q 359 3472 976 4111 
Q 1594 4750 2688 4750 
Q 3144 4750 3555 4637 
Q 3966 4525 4313 4306 
L 4313 3634 
Q 3963 3931 3569 4081 
Q 3175 4231 2741 4231 
Q 1884 4231 1454 3753 
Q 1025 3275 1025 2328 
Q 1025 1384 1454 906 
Q 1884 428 2741 428 
Q 3075 428 3337 486 
Q 3600 544 3809 666 
z
" transform="scale(0.015625)"/>
        <path id="DejaVuSans-75" d="M 544 1381 
L 544 3500 
L 1119 3500 
L 1119 1403 
Q 1119 906 1312 657 
Q 1506 409 1894 409 
Q 2359 409 2629 706 
Q 2900 1003 2900 1516 
L 2900 3500 
L 3475 3500 
L 3475 0 
L 2900 0 
L 2900 538 
Q 2691 219 2414 64 
Q 2138 -91 1772 -91 
Q 1169 -91 856 284 
Q 544 659 544 1381 
z
M 1991 3584 
L 1991 3584 
z
" transform="scale(0.015625)"/>
        <path id="DejaVuSans-67" d="M 2906 1791 
Q 2906 2416 2648 2759 
Q 2391 3103 1925 3103 
Q 1463 3103 1205 2759 
Q 947 2416 947 1791 
Q 947 1169 1205 825 
Q 1463 481 1925 481 
Q 2391 481 2648 825 
Q 2906 1169 2906 1791 
z
M 3481 434 
Q 3481 -459 3084 -895 
Q 2688 -1331 1869 -1331 
Q 1566 -1331 1297 -1286 
Q 1028 -1241 775 -1147 
L 775 -588 
Q 1028 -725 1275 -790 
Q 1522 -856 1778 -856 
Q 2344 -856 2625 -561 
Q 2906 -266 2906 331 
L 2906 616 
Q 2728 306 2450 153 
Q 2172 0 1784 0 
Q 1141 0 747 490 
Q 353 981 353 1791 
Q 353 2603 747 3093 
Q 1141 3584 1784 3584 
Q 2172 3584 2450 3431 
Q 2728 3278 2906 2969 
L 2906 3500 
L 3481 3500 
L 3481 434 
z
" transform="scale(0.015625)"/>
       </defs>
       <use xlink:href="#DejaVuSans-47"/>
       <use xlink:href="#DejaVuSans-72" x="77.490234"/>
       <use xlink:href="#DejaVuSans-75" x="118.603516"/>
       <use xlink:href="#DejaVuSans-64" x="181.982422"/>
       <use xlink:href="#DejaVuSans-67" x="245.458984"/>
       <use xlink:href="#DejaVuSans-65" x="308.935547"/>
       <use xlink:href="#DejaVuSans-72" x="370.458984"/>
      </g>
     </g>
    </g>
    <g id="xtick_5">
     <g id="line2d_5">
      <g>
       <use xlink:href="#md2f3c4c3b6" x="400.325455" y="337.97" style="stroke: #000000; stroke-width: 0.8"/>
      </g>
     </g>
     <g id="text_5">
      <!-- Adaptive -->
      <g transform="translate(402.532955 380.37875)rotate(-90)scale(0.08 -0.08)">
       <defs>
        <path id="DejaVuSans-70" d="M 1159 525 
L 1159 -1331 
L 581 -1331 
L 581 3500 
L 1159 3500 
L 1159 2969 
Q 1341 3281 1617 3432 
Q 1894 3584 2278 3584 
Q 2916 3584 3314 3078 
Q 3713 2572 3713 1747 
Q 3713 922 3314 415 
Q 2916 -91 2278 -91 
Q 1894 -91 1617 61 
Q 1341 213 1159 525 
z
M 3116 1747 
Q 3116 2381 2855 2742 
Q 2594 3103 2138 3103 
Q 1681 3103 1420 2742 
Q 1159 2381 1159 1747 
Q 1159 1113 1420 752 
Q 1681 391 2138 391 
Q 2594 391 2855 752 
Q 3116 1113 3116 1747 
z
" transform="scale(0.015625)"/>
        <path id="DejaVuSans-69" d="M 603 3500 
L 1178 3500 
L 1178 0 
L 603 0 
L 603 3500 
z
M 603 4863 
L 1178 4863 
L 1178 4134 
L 603 4134 
L 603 4863 
z
" transform="scale(0.015625)"/>
        <path id="DejaVuSans-76" d="M 191 3500 
L 800 3500 
L 1894 563 
L 2988 3500 
L 3597 3500 
L 2284 0 
L 1503 0 
L 191 3500 
z
" transform="scale(0.015625)"/>
       </defs>
       <use xlink:href="#DejaVuSans-41"/>
       <use xlink:href="#DejaVuSans-64" x="66.658203"/>
       <use xlink:href="#DejaVuSans-61" x="130.134766"/>
       <use xlink:href="#DejaVuSans-70" x="191.414062"/>
       <use xlink:href="#DejaVuSans-74" x="254.890625"/>
       <use xlink:href="#DejaVuSans-69" x="294.099609"/>
       <use xlink:href="#DejaVuSans-76" x="321.882812"/>
       <use xlink:href="#DejaVuSans-65" x="381.0625"/>
      </g>
     </g>
    </g>
    <g id="xtick_6">
     <g id="line2d_6">
      <g>
       <use xlink:href="#md2f3c4c3b6" x="475.804545" y="337.97" style="stroke: #000000; stroke-width: 0.8"/>
      </g>
     </g>
     <g id="text_6">
      <!-- Deep QLearner -->
      <g transform="translate(478.012045 405.46625)rotate(-90)scale(0.08 -0.08)">
       <defs>
        <path id="DejaVuSans-51" d="M 2522 4238 
Q 1834 4238 1429 3725 
Q 1025 3213 1025 2328 
Q 1025 1447 1429 934 
Q 1834 422 2522 422 
Q 3209 422 3611 934 
Q 4013 1447 4013 2328 
Q 4013 3213 3611 3725 
Q 3209 4238 2522 4238 
z
M 3406 84 
L 4238 -825 
L 3475 -825 
L 2784 -78 
Q 2681 -84 2626 -87 
Q 2572 -91 2522 -91 
Q 1538 -91 948 567 
Q 359 1225 359 2328 
Q 359 3434 948 4092 
Q 1538 4750 2522 4750 
Q 3503 4750 4090 4092 
Q 4678 3434 4678 2328 
Q 4678 1516 4351 937 
Q 4025 359 3406 84 
z
" transform="scale(0.015625)"/>
        <path id="DejaVuSans-4c" d="M 628 4666 
L 1259 4666 
L 1259 531 
L 3531 531 
L 3531 0 
L 628 0 
L 628 4666 
z
" transform="scale(0.015625)"/>
       </defs>
       <use xlink:href="#DejaVuSans-44"/>
       <use xlink:href="#DejaVuSans-65" x="77.001953"/>
       <use xlink:href="#DejaVuSans-65" x="138.525391"/>
       <use xlink:href="#DejaVuSans-70" x="200.048828"/>
       <use xlink:href="#DejaVuSans-20" x="263.525391"/>
       <use xlink:href="#DejaVuSans-51" x="295.3125"/>
       <use xlink:href="#DejaVuSans-4c" x="374.023438"/>
       <use xlink:href="#DejaVuSans-65" x="427.986328"/>
       <use xlink:href="#DejaVuSans-61" x="489.509766"/>
       <use xlink:href="#DejaVuSans-72" x="550.789062"/>
       <use xlink:href="#DejaVuSans-6e" x="590.152344"/>
       <use xlink:href="#DejaVuSans-65" x="653.53125"/>
       <use xlink:href="#DejaVuSans-72" x="715.054688"/>
      </g>
     </g>
    </g>
    <g id="xtick_7">
     <g id="line2d_7">
      <g>
       <use xlink:href="#md2f3c4c3b6" x="551.283636" y="337.97" style="stroke: #000000; stroke-width: 0.8"/>
      </g>
     </g>
     <g id="text_7">
      <!-- Risky QLearner -->
      <g transform="translate(553.491136 405.40875)rotate(-90)scale(0.08 -0.08)">
       <defs>
        <path id="DejaVuSans-73" d="M 2834 3397 
L 2834 2853 
Q 2591 2978 2328 3040 
Q 2066 3103 1784 3103 
Q 1356 3103 1142 2972 
Q 928 2841 928 2578 
Q 928 2378 1081 2264 
Q 1234 2150 1697 2047 
L 1894 2003 
Q 2506 1872 2764 1633 
Q 3022 1394 3022 966 
Q 3022 478 2636 193 
Q 2250 -91 1575 -91 
Q 1294 -91 989 -36 
Q 684 19 347 128 
L 347 722 
Q 666 556 975 473 
Q 1284 391 1588 391 
Q 1994 391 2212 530 
Q 2431 669 2431 922 
Q 2431 1156 2273 1281 
Q 2116 1406 1581 1522 
L 1381 1569 
Q 847 1681 609 1914 
Q 372 2147 372 2553 
Q 372 3047 722 3315 
Q 1072 3584 1716 3584 
Q 2034 3584 2315 3537 
Q 2597 3491 2834 3397 
z
" transform="scale(0.015625)"/>
        <path id="DejaVuSans-6b" d="M 581 4863 
L 1159 4863 
L 1159 1991 
L 2875 3500 
L 3609 3500 
L 1753 1863 
L 3688 0 
L 2938 0 
L 1159 1709 
L 1159 0 
L 581 0 
L 581 4863 
z
" transform="scale(0.015625)"/>
        <path id="DejaVuSans-79" d="M 2059 -325 
Q 1816 -950 1584 -1140 
Q 1353 -1331 966 -1331 
L 506 -1331 
L 506 -850 
L 844 -850 
Q 1081 -850 1212 -737 
Q 1344 -625 1503 -206 
L 1606 56 
L 191 3500 
L 800 3500 
L 1894 763 
L 2988 3500 
L 3597 3500 
L 2059 -325 
z
" transform="scale(0.015625)"/>
       </defs>
       <use xlink:href="#DejaVuSans-52"/>
       <use xlink:href="#DejaVuSans-69" x="69.482422"/>
       <use xlink:href="#DejaVuSans-73" x="97.265625"/>
       <use xlink:href="#DejaVuSans-6b" x="149.365234"/>
       <use xlink:href="#DejaVuSans-79" x="203.650391"/>
       <use xlink:href="#DejaVuSans-20" x="262.830078"/>
       <use xlink:href="#DejaVuSans-51" x="294.617188"/>
       <use xlink:href="#DejaVuSans-4c" x="373.328125"/>
       <use xlink:href="#DejaVuSans-65" x="427.291016"/>
       <use xlink:href="#DejaVuSans-61" x="488.814453"/>
       <use xlink:href="#DejaVuSans-72" x="550.09375"/>
       <use xlink:href="#DejaVuSans-6e" x="589.457031"/>
       <use xlink:href="#DejaVuSans-65" x="652.835938"/>
       <use xlink:href="#DejaVuSans-72" x="714.359375"/>
      </g>
     </g>
    </g>
    <g id="xtick_8">
     <g id="line2d_8">
      <g>
       <use xlink:href="#md2f3c4c3b6" x="626.762727" y="337.97" style="stroke: #000000; stroke-width: 0.8"/>
      </g>
     </g>
     <g id="text_8">
      <!-- Mediocre QLearner -->
      <g transform="translate(628.970227 420.83375)rotate(-90)scale(0.08 -0.08)">
       <defs>
        <path id="DejaVuSans-4d" d="M 628 4666 
L 1569 4666 
L 2759 1491 
L 3956 4666 
L 4897 4666 
L 4897 0 
L 4281 0 
L 4281 4097 
L 3078 897 
L 2444 897 
L 1241 4097 
L 1241 0 
L 628 0 
L 628 4666 
z
" transform="scale(0.015625)"/>
       </defs>
       <use xlink:href="#DejaVuSans-4d"/>
       <use xlink:href="#DejaVuSans-65" x="86.279297"/>
       <use xlink:href="#DejaVuSans-64" x="147.802734"/>
       <use xlink:href="#DejaVuSans-69" x="211.279297"/>
       <use xlink:href="#DejaVuSans-6f" x="239.0625"/>
       <use xlink:href="#DejaVuSans-63" x="300.244141"/>
       <use xlink:href="#DejaVuSans-72" x="355.224609"/>
       <use xlink:href="#DejaVuSans-65" x="394.087891"/>
       <use xlink:href="#DejaVuSans-20" x="455.611328"/>
       <use xlink:href="#DejaVuSans-51" x="487.398438"/>
       <use xlink:href="#DejaVuSans-4c" x="566.109375"/>
       <use xlink:href="#DejaVuSans-65" x="620.072266"/>
       <use xlink:href="#DejaVuSans-61" x="681.595703"/>
       <use xlink:href="#DejaVuSans-72" x="742.875"/>
       <use xlink:href="#DejaVuSans-6e" x="782.238281"/>
       <use xlink:href="#DejaVuSans-65" x="845.617188"/>
       <use xlink:href="#DejaVuSans-72" x="907.140625"/>
      </g>
     </g>
    </g>
    <g id="xtick_9">
     <g id="line2d_9">
      <g>
       <use xlink:href="#md2f3c4c3b6" x="702.241818" y="337.97" style="stroke: #000000; stroke-width: 0.8"/>
      </g>
     </g>
     <g id="text_9">
      <!-- Tit For Tat -->
      <g transform="translate(704.449318 384.15)rotate(-90)scale(0.08 -0.08)">
       <defs>
        <path id="DejaVuSans-54" d="M -19 4666 
L 3928 4666 
L 3928 4134 
L 2272 4134 
L 2272 0 
L 1638 0 
L 1638 4134 
L -19 4134 
L -19 4666 
z
" transform="scale(0.015625)"/>
        <path id="DejaVuSans-46" d="M 628 4666 
L 3309 4666 
L 3309 4134 
L 1259 4134 
L 1259 2759 
L 3109 2759 
L 3109 2228 
L 1259 2228 
L 1259 0 
L 628 0 
L 628 4666 
z
" transform="scale(0.015625)"/>
       </defs>
       <use xlink:href="#DejaVuSans-54"/>
       <use xlink:href="#DejaVuSans-69" x="57.958984"/>
       <use xlink:href="#DejaVuSans-74" x="85.742188"/>
       <use xlink:href="#DejaVuSans-20" x="124.951172"/>
       <use xlink:href="#DejaVuSans-46" x="156.738281"/>
       <use xlink:href="#DejaVuSans-6f" x="210.632812"/>
       <use xlink:href="#DejaVuSans-72" x="271.814453"/>
       <use xlink:href="#DejaVuSans-20" x="312.927734"/>
       <use xlink:href="#DejaVuSans-54" x="344.714844"/>
       <use xlink:href="#DejaVuSans-61" x="389.298828"/>
       <use xlink:href="#DejaVuSans-74" x="450.578125"/>
      </g>
     </g>
    </g>
    <g id="xtick_10">
     <g id="line2d_10">
      <g>
       <use xlink:href="#md2f3c4c3b6" x="777.720909" y="337.97" style="stroke: #000000; stroke-width: 0.8"/>
      </g>
     </g>
     <g id="text_10">
      <!-- Cooperator -->
      <g transform="translate(779.928409 389.85875)rotate(-90)scale(0.08 -0.08)">
       <defs>
        <path id="DejaVuSans-43" d="M 4122 4306 
L 4122 3641 
Q 3803 3938 3442 4084 
Q 3081 4231 2675 4231 
Q 1875 4231 1450 3742 
Q 1025 3253 1025 2328 
Q 1025 1406 1450 917 
Q 1875 428 2675 428 
Q 3081 428 3442 575 
Q 3803 722 4122 1019 
L 4122 359 
Q 3791 134 3420 21 
Q 3050 -91 2638 -91 
Q 1578 -91 968 557 
Q 359 1206 359 2328 
Q 359 3453 968 4101 
Q 1578 4750 2638 4750 
Q 3056 4750 3426 4639 
Q 3797 4528 4122 4306 
z
" transform="scale(0.015625)"/>
       </defs>
       <use xlink:href="#DejaVuSans-43"/>
       <use xlink:href="#DejaVuSans-6f" x="69.824219"/>
       <use xlink:href="#DejaVuSans-6f" x="131.005859"/>
       <use xlink:href="#DejaVuSans-70" x="192.1875"/>
       <use xlink:href="#DejaVuSans-65" x="255.664062"/>
       <use xlink:href="#DejaVuSans-72" x="317.1875"/>
       <use xlink:href="#DejaVuSans-61" x="358.300781"/>
       <use xlink:href="#DejaVuSans-74" x="419.580078"/>
       <use xlink:href="#DejaVuSans-6f" x="458.789062"/>
       <use xlink:href="#DejaVuSans-72" x="519.970703"/>
      </g>
     </g>
    </g>
   </g>
   <g id="matplotlib.axis_2">
    <g id="ytick_1">
     <g id="line2d_11">
      <defs>
       <path id="m0feed66765" d="M 0 0 
L -3.5 0 
" style="stroke: #000000; stroke-width: 0.8"/>
      </defs>
      <g>
       <use xlink:href="#m0feed66765" x="22.93" y="322.4155" style="stroke: #000000; stroke-width: 0.8"/>
      </g>
     </g>
     <g id="text_11">
      <!-- 0 -->
      <g transform="translate(10.84 325.454875)scale(0.08 -0.08)">
       <use xlink:href="#DejaVuSans-30"/>
      </g>
     </g>
    </g>
    <g id="ytick_2">
     <g id="line2d_12">
      <g>
       <use xlink:href="#m0feed66765" x="22.93" y="260.1975" style="stroke: #000000; stroke-width: 0.8"/>
      </g>
     </g>
     <g id="text_12">
      <!-- 2 -->
      <g transform="translate(10.84 263.236875)scale(0.08 -0.08)">
       <defs>
        <path id="DejaVuSans-32" d="M 1228 531 
L 3431 531 
L 3431 0 
L 469 0 
L 469 531 
Q 828 903 1448 1529 
Q 2069 2156 2228 2338 
Q 2531 2678 2651 2914 
Q 2772 3150 2772 3378 
Q 2772 3750 2511 3984 
Q 2250 4219 1831 4219 
Q 1534 4219 1204 4116 
Q 875 4013 500 3803 
L 500 4441 
Q 881 4594 1212 4672 
Q 1544 4750 1819 4750 
Q 2544 4750 2975 4387 
Q 3406 4025 3406 3419 
Q 3406 3131 3298 2873 
Q 3191 2616 2906 2266 
Q 2828 2175 2409 1742 
Q 1991 1309 1228 531 
z
" transform="scale(0.015625)"/>
       </defs>
       <use xlink:href="#DejaVuSans-32"/>
      </g>
     </g>
    </g>
    <g id="ytick_3">
     <g id="line2d_13">
      <g>
       <use xlink:href="#m0feed66765" x="22.93" y="197.9795" style="stroke: #000000; stroke-width: 0.8"/>
      </g>
     </g>
     <g id="text_13">
      <!-- 4 -->
      <g transform="translate(10.84 201.018875)scale(0.08 -0.08)">
       <defs>
        <path id="DejaVuSans-34" d="M 2419 4116 
L 825 1625 
L 2419 1625 
L 2419 4116 
z
M 2253 4666 
L 3047 4666 
L 3047 1625 
L 3713 1625 
L 3713 1100 
L 3047 1100 
L 3047 0 
L 2419 0 
L 2419 1100 
L 313 1100 
L 313 1709 
L 2253 4666 
z
" transform="scale(0.015625)"/>
       </defs>
       <use xlink:href="#DejaVuSans-34"/>
      </g>
     </g>
    </g>
    <g id="ytick_4">
     <g id="line2d_14">
      <g>
       <use xlink:href="#m0feed66765" x="22.93" y="135.7615" style="stroke: #000000; stroke-width: 0.8"/>
      </g>
     </g>
     <g id="text_14">
      <!-- 6 -->
      <g transform="translate(10.84 138.800875)scale(0.08 -0.08)">
       <defs>
        <path id="DejaVuSans-36" d="M 2113 2584 
Q 1688 2584 1439 2293 
Q 1191 2003 1191 1497 
Q 1191 994 1439 701 
Q 1688 409 2113 409 
Q 2538 409 2786 701 
Q 3034 994 3034 1497 
Q 3034 2003 2786 2293 
Q 2538 2584 2113 2584 
z
M 3366 4563 
L 3366 3988 
Q 3128 4100 2886 4159 
Q 2644 4219 2406 4219 
Q 1781 4219 1451 3797 
Q 1122 3375 1075 2522 
Q 1259 2794 1537 2939 
Q 1816 3084 2150 3084 
Q 2853 3084 3261 2657 
Q 3669 2231 3669 1497 
Q 3669 778 3244 343 
Q 2819 -91 2113 -91 
Q 1303 -91 875 529 
Q 447 1150 447 2328 
Q 447 3434 972 4092 
Q 1497 4750 2381 4750 
Q 2619 4750 2861 4703 
Q 3103 4656 3366 4563 
z
" transform="scale(0.015625)"/>
       </defs>
       <use xlink:href="#DejaVuSans-36"/>
      </g>
     </g>
    </g>
    <g id="ytick_5">
     <g id="line2d_15">
      <g>
       <use xlink:href="#m0feed66765" x="22.93" y="73.5435" style="stroke: #000000; stroke-width: 0.8"/>
      </g>
     </g>
     <g id="text_15">
      <!-- 8 -->
      <g transform="translate(10.84 76.582875)scale(0.08 -0.08)">
       <defs>
        <path id="DejaVuSans-38" d="M 2034 2216 
Q 1584 2216 1326 1975 
Q 1069 1734 1069 1313 
Q 1069 891 1326 650 
Q 1584 409 2034 409 
Q 2484 409 2743 651 
Q 3003 894 3003 1313 
Q 3003 1734 2745 1975 
Q 2488 2216 2034 2216 
z
M 1403 2484 
Q 997 2584 770 2862 
Q 544 3141 544 3541 
Q 544 4100 942 4425 
Q 1341 4750 2034 4750 
Q 2731 4750 3128 4425 
Q 3525 4100 3525 3541 
Q 3525 3141 3298 2862 
Q 3072 2584 2669 2484 
Q 3125 2378 3379 2068 
Q 3634 1759 3634 1313 
Q 3634 634 3220 271 
Q 2806 -91 2034 -91 
Q 1263 -91 848 271 
Q 434 634 434 1313 
Q 434 1759 690 2068 
Q 947 2378 1403 2484 
z
M 1172 3481 
Q 1172 3119 1398 2916 
Q 1625 2713 2034 2713 
Q 2441 2713 2670 2916 
Q 2900 3119 2900 3481 
Q 2900 3844 2670 4047 
Q 2441 4250 2034 4250 
Q 1625 4250 1398 4047 
Q 1172 3844 1172 3481 
z
" transform="scale(0.015625)"/>
       </defs>
       <use xlink:href="#DejaVuSans-38"/>
      </g>
     </g>
    </g>
   </g>
   <g id="LineCollection_1">
    <path d="M 88.974205 42.4345 
L 107.843977 42.4345 
" clip-path="url(#p6c255272a5)" style="fill: none; stroke: #1f77b4; stroke-width: 1.5"/>
    <path d="M 164.453295 166.8705 
L 183.323068 166.8705 
" clip-path="url(#p6c255272a5)" style="fill: none; stroke: #1f77b4; stroke-width: 1.5"/>
    <path d="M 239.932386 166.8705 
L 258.802159 166.8705 
" clip-path="url(#p6c255272a5)" style="fill: none; stroke: #1f77b4; stroke-width: 1.5"/>
    <path d="M 315.411477 166.8705 
L 334.28125 166.8705 
" clip-path="url(#p6c255272a5)" style="fill: none; stroke: #1f77b4; stroke-width: 1.5"/>
    <path d="M 390.890568 166.8705 
L 409.760341 166.8705 
" clip-path="url(#p6c255272a5)" style="fill: none; stroke: #1f77b4; stroke-width: 1.5"/>
    <path d="M 466.369659 197.9795 
L 485.239432 197.9795 
" clip-path="url(#p6c255272a5)" style="fill: none; stroke: #1f77b4; stroke-width: 1.5"/>
    <path d="M 541.84875 260.1975 
L 560.718523 260.1975 
" clip-path="url(#p6c255272a5)" style="fill: none; stroke: #1f77b4; stroke-width: 1.5"/>
    <path d="M 617.327841 260.1975 
L 636.197614 260.1975 
" clip-path="url(#p6c255272a5)" style="fill: none; stroke: #1f77b4; stroke-width: 1.5"/>
    <path d="M 692.806932 322.4155 
L 711.676705 322.4155 
" clip-path="url(#p6c255272a5)" style="fill: none; stroke: #1f77b4; stroke-width: 1.5"/>
    <path d="M 768.286023 322.4155 
L 787.155795 322.4155 
" clip-path="url(#p6c255272a5)" style="fill: none; stroke: #1f77b4; stroke-width: 1.5"/>
   </g>
   <g id="patch_3">
    <path d="M 22.93 337.97 
L 22.93 26.88 
" style="fill: none; stroke: #000000; stroke-width: 0.8; stroke-linejoin: miter; stroke-linecap: square"/>
   </g>
   <g id="patch_4">
    <path d="M 853.2 337.97 
L 853.2 26.88 
" style="fill: none; stroke: #000000; stroke-width: 0.8; stroke-linejoin: miter; stroke-linecap: square"/>
   </g>
   <g id="patch_5">
    <path d="M 22.93 337.97 
L 853.2 337.97 
" style="fill: none; stroke: #000000; stroke-width: 0.8; stroke-linejoin: miter; stroke-linecap: square"/>
   </g>
   <g id="patch_6">
    <path d="M 22.93 26.88 
L 853.2 26.88 
" style="fill: none; stroke: #000000; stroke-width: 0.8; stroke-linejoin: miter; stroke-linecap: square"/>
   </g>
   <g id="text_16">
    <!-- Wins - turns: 200, repetitions: 200, strategies: 10.  -->
    <g transform="translate(286.363438 20.88)scale(0.12 -0.12)">
     <defs>
      <path id="DejaVuSans-57" d="M 213 4666 
L 850 4666 
L 1831 722 
L 2809 4666 
L 3519 4666 
L 4500 722 
L 5478 4666 
L 6119 4666 
L 4947 0 
L 4153 0 
L 3169 4050 
L 2175 0 
L 1381 0 
L 213 4666 
z
" transform="scale(0.015625)"/>
      <path id="DejaVuSans-2d" d="M 313 2009 
L 1997 2009 
L 1997 1497 
L 313 1497 
L 313 2009 
z
" transform="scale(0.015625)"/>
      <path id="DejaVuSans-2c" d="M 750 794 
L 1409 794 
L 1409 256 
L 897 -744 
L 494 -744 
L 750 256 
L 750 794 
z
" transform="scale(0.015625)"/>
      <path id="DejaVuSans-31" d="M 794 531 
L 1825 531 
L 1825 4091 
L 703 3866 
L 703 4441 
L 1819 4666 
L 2450 4666 
L 2450 531 
L 3481 531 
L 3481 0 
L 794 0 
L 794 531 
z
" transform="scale(0.015625)"/>
     </defs>
     <use xlink:href="#DejaVuSans-57"/>
     <use xlink:href="#DejaVuSans-69" x="96.626953"/>
     <use xlink:href="#DejaVuSans-6e" x="124.410156"/>
     <use xlink:href="#DejaVuSans-73" x="187.789062"/>
     <use xlink:href="#DejaVuSans-20" x="239.888672"/>
     <use xlink:href="#DejaVuSans-2d" x="271.675781"/>
     <use xlink:href="#DejaVuSans-20" x="307.759766"/>
     <use xlink:href="#DejaVuSans-74" x="339.546875"/>
     <use xlink:href="#DejaVuSans-75" x="378.755859"/>
     <use xlink:href="#DejaVuSans-72" x="442.134766"/>
     <use xlink:href="#DejaVuSans-6e" x="481.498047"/>
     <use xlink:href="#DejaVuSans-73" x="544.876953"/>
     <use xlink:href="#DejaVuSans-3a" x="596.976562"/>
     <use xlink:href="#DejaVuSans-20" x="630.667969"/>
     <use xlink:href="#DejaVuSans-32" x="662.455078"/>
     <use xlink:href="#DejaVuSans-30" x="726.078125"/>
     <use xlink:href="#DejaVuSans-30" x="789.701172"/>
     <use xlink:href="#DejaVuSans-2c" x="853.324219"/>
     <use xlink:href="#DejaVuSans-20" x="885.111328"/>
     <use xlink:href="#DejaVuSans-72" x="916.898438"/>
     <use xlink:href="#DejaVuSans-65" x="955.761719"/>
     <use xlink:href="#DejaVuSans-70" x="1017.285156"/>
     <use xlink:href="#DejaVuSans-65" x="1080.761719"/>
     <use xlink:href="#DejaVuSans-74" x="1142.285156"/>
     <use xlink:href="#DejaVuSans-69" x="1181.494141"/>
     <use xlink:href="#DejaVuSans-74" x="1209.277344"/>
     <use xlink:href="#DejaVuSans-69" x="1248.486328"/>
     <use xlink:href="#DejaVuSans-6f" x="1276.269531"/>
     <use xlink:href="#DejaVuSans-6e" x="1337.451172"/>
     <use xlink:href="#DejaVuSans-73" x="1400.830078"/>
     <use xlink:href="#DejaVuSans-3a" x="1452.929688"/>
     <use xlink:href="#DejaVuSans-20" x="1486.621094"/>
     <use xlink:href="#DejaVuSans-32" x="1518.408203"/>
     <use xlink:href="#DejaVuSans-30" x="1582.03125"/>
     <use xlink:href="#DejaVuSans-30" x="1645.654297"/>
     <use xlink:href="#DejaVuSans-2c" x="1709.277344"/>
     <use xlink:href="#DejaVuSans-20" x="1741.064453"/>
     <use xlink:href="#DejaVuSans-73" x="1772.851562"/>
     <use xlink:href="#DejaVuSans-74" x="1824.951172"/>
     <use xlink:href="#DejaVuSans-72" x="1864.160156"/>
     <use xlink:href="#DejaVuSans-61" x="1905.273438"/>
     <use xlink:href="#DejaVuSans-74" x="1966.552734"/>
     <use xlink:href="#DejaVuSans-65" x="2005.761719"/>
     <use xlink:href="#DejaVuSans-67" x="2067.285156"/>
     <use xlink:href="#DejaVuSans-69" x="2130.761719"/>
     <use xlink:href="#DejaVuSans-65" x="2158.544922"/>
     <use xlink:href="#DejaVuSans-73" x="2220.068359"/>
     <use xlink:href="#DejaVuSans-3a" x="2272.167969"/>
     <use xlink:href="#DejaVuSans-20" x="2305.859375"/>
     <use xlink:href="#DejaVuSans-31" x="2337.646484"/>
     <use xlink:href="#DejaVuSans-30" x="2401.269531"/>
     <use xlink:href="#DejaVuSans-2e" x="2464.892578"/>
     <use xlink:href="#DejaVuSans-20" x="2496.679688"/>
    </g>
   </g>
  </g>
 </g>
 <defs>
  <clipPath id="p6c255272a5">
   <rect x="22.93" y="26.88" width="830.27" height="311.09"/>
  </clipPath>
 </defs>
</svg>
